%TF.GenerationSoftware,KiCad,Pcbnew,10.0.6*%
%TF.CreationDate,2026-09-23T13:43:42-04:00*%
%TF.ProjectId,yacc1-cf-card,79616363-312d-4636-962d-636172642e6b,rev?*%
%TF.SameCoordinates,Original*%
%TF.FileFunction,Soldermask,Top*%
%TF.FilePolarity,Negative*%
%FSLAX46Y46*%
G04 Gerber Fmt 4.6, Leading zero omitted, Abs format (unit mm)*
G04 Created by KiCad (PCBNEW 10.0.6) date 2026-09-23 13:43:42*
%MOMM*%
%LPD*%
G01*
G04 APERTURE LIST*
G04 Aperture macros list*
%AMRoundRect*
0 Rectangle with rounded corners*
0 $1 Rounding radius*
0 $2 $3 $4 $5 $6 $7 $8 $9 X,Y pos of 4 corners*
0 Add a 4 corners polygon primitive as box body*
4,1,4,$2,$3,$4,$5,$6,$7,$8,$9,$2,$3,0*
0 Add four circle primitives for the rounded corners*
1,1,$1+$1,$2,$3*
1,1,$1+$1,$4,$5*
1,1,$1+$1,$6,$7*
1,1,$1+$1,$8,$9*
0 Add four rect primitives between the rounded corners*
20,1,$1+$1,$2,$3,$4,$5,0*
20,1,$1+$1,$4,$5,$6,$7,0*
20,1,$1+$1,$6,$7,$8,$9,0*
20,1,$1+$1,$8,$9,$2,$3,0*%
%AMFreePoly0*
4,1,17,0.360532,0.806901,0.806901,0.360532,0.825500,0.315631,0.825500,-0.315631,0.806901,-0.360532,0.360532,-0.806901,0.315631,-0.825500,-0.315631,-0.825500,-0.360532,-0.806901,-0.806901,-0.360532,-0.825500,-0.315631,-0.825500,0.315631,-0.806901,0.360532,-0.360532,0.806901,-0.315631,0.825500,0.315631,0.825500,0.360532,0.806901,0.360532,0.806901,$1*%
G04 Aperture macros list end*
%ADD10C,1.600000*%
%ADD11RoundRect,0.250000X-0.600000X-0.600000X0.600000X-0.600000X0.600000X0.600000X-0.600000X0.600000X0*%
%ADD12C,1.700000*%
%ADD13R,1.700000X1.700000*%
%ADD14R,1.800000X1.800000*%
%ADD15C,1.800000*%
%ADD16RoundRect,0.250000X-0.550000X-0.550000X0.550000X-0.550000X0.550000X0.550000X-0.550000X0.550000X0*%
%ADD17R,1.600000X1.600000*%
%ADD18C,3.098800*%
%ADD19FreePoly0,180.000000*%
G04 APERTURE END LIST*
D10*
%TO.C,R4*%
X138000000Y-78240000D03*
X148160000Y-78240000D03*
%TD*%
%TO.C,C2*%
X69920000Y-52000000D03*
X69920000Y-57000000D03*
%TD*%
D11*
%TO.C,J1*%
X160000000Y-35000000D03*
D12*
X162540000Y-35000000D03*
X160000000Y-37540000D03*
X162540000Y-37540000D03*
X160000000Y-40080000D03*
X162540000Y-40080000D03*
X160000000Y-42620000D03*
X162540000Y-42620000D03*
X160000000Y-45160000D03*
X162540000Y-45160000D03*
X160000000Y-47700000D03*
X162540000Y-47700000D03*
X160000000Y-50240000D03*
X162540000Y-50240000D03*
X160000000Y-52780000D03*
X162540000Y-52780000D03*
X160000000Y-55320000D03*
X162540000Y-55320000D03*
X160000000Y-57860000D03*
X162540000Y-57860000D03*
X160000000Y-60400000D03*
X162540000Y-60400000D03*
X160000000Y-62940000D03*
X162540000Y-62940000D03*
X160000000Y-65480000D03*
X162540000Y-65480000D03*
X160000000Y-68020000D03*
X162540000Y-68020000D03*
X160000000Y-70560000D03*
X162540000Y-70560000D03*
X160000000Y-73100000D03*
X162540000Y-73100000D03*
X160000000Y-75640000D03*
X162540000Y-75640000D03*
X160000000Y-78180000D03*
X162540000Y-78180000D03*
X160000000Y-80720000D03*
X162540000Y-80720000D03*
X160000000Y-83260000D03*
X162540000Y-83260000D03*
%TD*%
D13*
%TO.C,J2*%
X145000000Y-100000000D03*
D12*
X147540000Y-100000000D03*
X150080000Y-100000000D03*
X152620000Y-100000000D03*
%TD*%
D10*
%TO.C,R3*%
X138000000Y-73160000D03*
X148160000Y-73160000D03*
%TD*%
D14*
%TO.C,LED3*%
X191500000Y-116000000D03*
D15*
X188960000Y-116000000D03*
%TD*%
D16*
%TO.C,U1*%
X42000000Y-52000000D03*
D10*
X42000000Y-54540000D03*
X42000000Y-57080000D03*
X42000000Y-59620000D03*
X42000000Y-62160000D03*
X42000000Y-64700000D03*
X42000000Y-67240000D03*
X42000000Y-69780000D03*
X49620000Y-69780000D03*
X49620000Y-67240000D03*
X49620000Y-64700000D03*
X49620000Y-62160000D03*
X49620000Y-59620000D03*
X49620000Y-57080000D03*
X49620000Y-54540000D03*
X49620000Y-52000000D03*
%TD*%
D16*
%TO.C,U5*%
X110000000Y-52000000D03*
D10*
X110000000Y-54540000D03*
X110000000Y-57080000D03*
X110000000Y-59620000D03*
X110000000Y-62160000D03*
X110000000Y-64700000D03*
X110000000Y-67240000D03*
X110000000Y-69780000D03*
X110000000Y-72320000D03*
X110000000Y-74860000D03*
X117620000Y-74860000D03*
X117620000Y-72320000D03*
X117620000Y-69780000D03*
X117620000Y-67240000D03*
X117620000Y-64700000D03*
X117620000Y-62160000D03*
X117620000Y-59620000D03*
X117620000Y-57080000D03*
X117620000Y-54540000D03*
X117620000Y-52000000D03*
%TD*%
D16*
%TO.C,U4*%
X93000000Y-52000000D03*
D10*
X93000000Y-54540000D03*
X93000000Y-57080000D03*
X93000000Y-59620000D03*
X93000000Y-62160000D03*
X93000000Y-64700000D03*
X93000000Y-67240000D03*
X100620000Y-67240000D03*
X100620000Y-64700000D03*
X100620000Y-62160000D03*
X100620000Y-59620000D03*
X100620000Y-57080000D03*
X100620000Y-54540000D03*
X100620000Y-52000000D03*
%TD*%
%TO.C,C3*%
X86920000Y-52000000D03*
X86920000Y-57000000D03*
%TD*%
D16*
%TO.C,C6*%
X158000000Y-100000000D03*
D10*
X160000000Y-100000000D03*
%TD*%
D14*
%TO.C,LED1*%
X191500000Y-96000000D03*
D15*
X188960000Y-96000000D03*
%TD*%
D13*
%TO.C,JP1*%
X172000000Y-56590000D03*
D12*
X172000000Y-59130000D03*
%TD*%
D10*
%TO.C,R7*%
X172000000Y-96000000D03*
X182160000Y-96000000D03*
%TD*%
D17*
%TO.C,RN1*%
X146000000Y-34000000D03*
D10*
X146000000Y-36540000D03*
X146000000Y-39080000D03*
X146000000Y-41620000D03*
X146000000Y-44160000D03*
X146000000Y-46700000D03*
X146000000Y-49240000D03*
X146000000Y-51780000D03*
X146000000Y-54320000D03*
%TD*%
%TO.C,C1*%
X52920000Y-52000000D03*
X52920000Y-57000000D03*
%TD*%
%TO.C,C5*%
X120920000Y-52000000D03*
X120920000Y-57000000D03*
%TD*%
D16*
%TO.C,U3*%
X76000000Y-52000000D03*
D10*
X76000000Y-54540000D03*
X76000000Y-57080000D03*
X76000000Y-59620000D03*
X76000000Y-62160000D03*
X76000000Y-64700000D03*
X76000000Y-67240000D03*
X76000000Y-69780000D03*
X83620000Y-69780000D03*
X83620000Y-67240000D03*
X83620000Y-64700000D03*
X83620000Y-62160000D03*
X83620000Y-59620000D03*
X83620000Y-57080000D03*
X83620000Y-54540000D03*
X83620000Y-52000000D03*
%TD*%
%TO.C,R1*%
X138000000Y-63000000D03*
X148160000Y-63000000D03*
%TD*%
D14*
%TO.C,LED2*%
X191500000Y-106000000D03*
D15*
X188960000Y-106000000D03*
%TD*%
D10*
%TO.C,C4*%
X103920000Y-52000000D03*
X103920000Y-57000000D03*
%TD*%
D16*
%TO.C,U2*%
X59000000Y-52000000D03*
D10*
X59000000Y-54540000D03*
X59000000Y-57080000D03*
X59000000Y-59620000D03*
X59000000Y-62160000D03*
X59000000Y-64700000D03*
X59000000Y-67240000D03*
X66620000Y-67240000D03*
X66620000Y-64700000D03*
X66620000Y-62160000D03*
X66620000Y-59620000D03*
X66620000Y-57080000D03*
X66620000Y-54540000D03*
X66620000Y-52000000D03*
%TD*%
%TO.C,R2*%
X138000000Y-68080000D03*
X148160000Y-68080000D03*
%TD*%
%TO.C,R6*%
X172000000Y-116000000D03*
X182160000Y-116000000D03*
%TD*%
D18*
%TO.C,X1*%
X20287000Y-111301400D03*
X20287000Y-22388600D03*
D19*
X22827000Y-106215000D03*
X22827000Y-103675000D03*
X22827000Y-101135000D03*
X22827000Y-98595000D03*
X22827000Y-96055000D03*
X22827000Y-93515000D03*
X22827000Y-90975000D03*
X22827000Y-88435000D03*
X22827000Y-85895000D03*
X22827000Y-83355000D03*
X22827000Y-80815000D03*
X22827000Y-78275000D03*
X22827000Y-75735000D03*
X22827000Y-73195000D03*
X22827000Y-70655000D03*
X22827000Y-68115000D03*
X22827000Y-65575000D03*
X22827000Y-63035000D03*
X22827000Y-60495000D03*
X22827000Y-57955000D03*
X22827000Y-55415000D03*
X22827000Y-52875000D03*
X22827000Y-50335000D03*
X22827000Y-47795000D03*
X22827000Y-45255000D03*
X22827000Y-42715000D03*
X22827000Y-40175000D03*
X22827000Y-37635000D03*
X22827000Y-35095000D03*
X22827000Y-32555000D03*
X22827000Y-30015000D03*
X22827000Y-27475000D03*
X25367000Y-106215000D03*
X25367000Y-103675000D03*
X25367000Y-101135000D03*
X25367000Y-98595000D03*
X25367000Y-96055000D03*
X25367000Y-93515000D03*
X25367000Y-90975000D03*
X25367000Y-88435000D03*
X25367000Y-85895000D03*
X25367000Y-83355000D03*
X25367000Y-80815000D03*
X25367000Y-78275000D03*
X25367000Y-75735000D03*
X25367000Y-73195000D03*
X25367000Y-70655000D03*
X25367000Y-68115000D03*
X25367000Y-65575000D03*
X25367000Y-63035000D03*
X25367000Y-60495000D03*
X25367000Y-57955000D03*
X25367000Y-55415000D03*
X25367000Y-52875000D03*
X25367000Y-50335000D03*
X25367000Y-47795000D03*
X25367000Y-45255000D03*
X25367000Y-42715000D03*
X25367000Y-40175000D03*
X25367000Y-37635000D03*
X25367000Y-35095000D03*
X25367000Y-32555000D03*
X25367000Y-30015000D03*
X25367000Y-27475000D03*
X27907000Y-106215000D03*
X27907000Y-103675000D03*
X27907000Y-101135000D03*
X27907000Y-98595000D03*
X27907000Y-96055000D03*
X27907000Y-93515000D03*
X27907000Y-90975000D03*
X27907000Y-88435000D03*
X27907000Y-85895000D03*
X27907000Y-83355000D03*
X27907000Y-80815000D03*
X27907000Y-78275000D03*
X27907000Y-75735000D03*
X27907000Y-73195000D03*
X27907000Y-70655000D03*
X27907000Y-68115000D03*
X27907000Y-65575000D03*
X27907000Y-63035000D03*
X27907000Y-60495000D03*
X27907000Y-57955000D03*
X27907000Y-55415000D03*
X27907000Y-52875000D03*
X27907000Y-50335000D03*
X27907000Y-47795000D03*
X27907000Y-45255000D03*
X27907000Y-42715000D03*
X27907000Y-40175000D03*
X27907000Y-37635000D03*
X27907000Y-35095000D03*
X27907000Y-32555000D03*
X27907000Y-30015000D03*
X27907000Y-27475000D03*
%TD*%
D10*
%TO.C,R5*%
X172000000Y-106000000D03*
X182160000Y-106000000D03*
%TD*%
M02*
