M48
; DRILL file KiCad 10.0.6 date 2026-09-23T13:43:43
; FORMAT={-:-/ absolute / metric / decimal}
; #@! TF.CreationDate,2026-09-23T13:43:43-04:00
; #@! TF.GenerationSoftware,Kicad,Pcbnew,10.0.6
; #@! TF.FileFunction,MixedPlating,1,2
FMAT,2
METRIC
; #@! TA.AperFunction,Plated,PTH,ViaDrill
T1C0.400
; #@! TA.AperFunction,Plated,PTH,ViaDrill
T2C0.500
; #@! TA.AperFunction,Plated,PTH,ComponentDrill
T3C0.800
; #@! TA.AperFunction,Plated,PTH,ComponentDrill
T4C0.900
; #@! TA.AperFunction,Plated,PTH,ComponentDrill
T5C1.000
; #@! TA.AperFunction,Plated,PTH,ComponentDrill
T6C1.016
; #@! TA.AperFunction,NonPlated,NPTH,ComponentDrill
T7C2.794
%
G90
G05
T1
X52.283Y-53.624
X53.883Y-63.41
X68.32Y-64.156
X71.69Y-67.211
X82.025Y-54.12
X85.794Y-68.256
X89.362Y-68.776
X90.341Y-56.327
X91.752Y-68.235
X104.444Y-67.24
X130.367Y-89.498
X141.339Y-59.618
X141.991Y-58.413
X144.4Y-50.834
X147.454Y-54.886
X151.792Y-70.56
X155.569Y-63.0
T2
X56.704Y-51.573
T3
X42.0Y-52.0
X42.0Y-54.54
X42.0Y-57.08
X42.0Y-59.62
X42.0Y-62.16
X42.0Y-64.7
X42.0Y-67.24
X42.0Y-69.78
X49.62Y-52.0
X49.62Y-54.54
X49.62Y-57.08
X49.62Y-59.62
X49.62Y-62.16
X49.62Y-64.7
X49.62Y-67.24
X49.62Y-69.78
X52.92Y-52.0
X52.92Y-57.0
X59.0Y-52.0
X59.0Y-54.54
X59.0Y-57.08
X59.0Y-59.62
X59.0Y-62.16
X59.0Y-64.7
X59.0Y-67.24
X66.62Y-52.0
X66.62Y-54.54
X66.62Y-57.08
X66.62Y-59.62
X66.62Y-62.16
X66.62Y-64.7
X66.62Y-67.24
X69.92Y-52.0
X69.92Y-57.0
X76.0Y-52.0
X76.0Y-54.54
X76.0Y-57.08
X76.0Y-59.62
X76.0Y-62.16
X76.0Y-64.7
X76.0Y-67.24
X76.0Y-69.78
X83.62Y-52.0
X83.62Y-54.54
X83.62Y-57.08
X83.62Y-59.62
X83.62Y-62.16
X83.62Y-64.7
X83.62Y-67.24
X83.62Y-69.78
X86.92Y-52.0
X86.92Y-57.0
X93.0Y-52.0
X93.0Y-54.54
X93.0Y-57.08
X93.0Y-59.62
X93.0Y-62.16
X93.0Y-64.7
X93.0Y-67.24
X100.62Y-52.0
X100.62Y-54.54
X100.62Y-57.08
X100.62Y-59.62
X100.62Y-62.16
X100.62Y-64.7
X100.62Y-67.24
X103.92Y-52.0
X103.92Y-57.0
X110.0Y-52.0
X110.0Y-54.54
X110.0Y-57.08
X110.0Y-59.62
X110.0Y-62.16
X110.0Y-64.7
X110.0Y-67.24
X110.0Y-69.78
X110.0Y-72.32
X110.0Y-74.86
X117.62Y-52.0
X117.62Y-54.54
X117.62Y-57.08
X117.62Y-59.62
X117.62Y-62.16
X117.62Y-64.7
X117.62Y-67.24
X117.62Y-69.78
X117.62Y-72.32
X117.62Y-74.86
X120.92Y-52.0
X120.92Y-57.0
X138.0Y-63.0
X138.0Y-68.08
X138.0Y-73.16
X138.0Y-78.24
X146.0Y-34.0
X146.0Y-36.54
X146.0Y-39.08
X146.0Y-41.62
X146.0Y-44.16
X146.0Y-46.7
X146.0Y-49.24
X146.0Y-51.78
X146.0Y-54.32
X148.16Y-63.0
X148.16Y-68.08
X148.16Y-73.16
X148.16Y-78.24
X158.0Y-100.0
X160.0Y-100.0
X172.0Y-96.0
X172.0Y-106.0
X172.0Y-116.0
X182.16Y-96.0
X182.16Y-106.0
X182.16Y-116.0
T4
X188.96Y-96.0
X188.96Y-106.0
X188.96Y-116.0
X191.5Y-96.0
X191.5Y-106.0
X191.5Y-116.0
T5
X145.0Y-100.0
X147.54Y-100.0
X150.08Y-100.0
X152.62Y-100.0
X160.0Y-35.0
X160.0Y-37.54
X160.0Y-40.08
X160.0Y-42.62
X160.0Y-45.16
X160.0Y-47.7
X160.0Y-50.24
X160.0Y-52.78
X160.0Y-55.32
X160.0Y-57.86
X160.0Y-60.4
X160.0Y-62.94
X160.0Y-65.48
X160.0Y-68.02
X160.0Y-70.56
X160.0Y-73.1
X160.0Y-75.64
X160.0Y-78.18
X160.0Y-80.72
X160.0Y-83.26
X162.54Y-35.0
X162.54Y-37.54
X162.54Y-40.08
X162.54Y-42.62
X162.54Y-45.16
X162.54Y-47.7
X162.54Y-50.24
X162.54Y-52.78
X162.54Y-55.32
X162.54Y-57.86
X162.54Y-60.4
X162.54Y-62.94
X162.54Y-65.48
X162.54Y-68.02
X162.54Y-70.56
X162.54Y-73.1
X162.54Y-75.64
X162.54Y-78.18
X162.54Y-80.72
X162.54Y-83.26
X172.0Y-56.59
X172.0Y-59.13
T6
X22.827Y-27.475
X22.827Y-30.015
X22.827Y-32.555
X22.827Y-35.095
X22.827Y-37.635
X22.827Y-40.175
X22.827Y-42.715
X22.827Y-45.255
X22.827Y-47.795
X22.827Y-50.335
X22.827Y-52.875
X22.827Y-55.415
X22.827Y-57.955
X22.827Y-60.495
X22.827Y-63.035
X22.827Y-65.575
X22.827Y-68.115
X22.827Y-70.655
X22.827Y-73.195
X22.827Y-75.735
X22.827Y-78.275
X22.827Y-80.815
X22.827Y-83.355
X22.827Y-85.895
X22.827Y-88.435
X22.827Y-90.975
X22.827Y-93.515
X22.827Y-96.055
X22.827Y-98.595
X22.827Y-101.135
X22.827Y-103.675
X22.827Y-106.215
X25.367Y-27.475
X25.367Y-30.015
X25.367Y-32.555
X25.367Y-35.095
X25.367Y-37.635
X25.367Y-40.175
X25.367Y-42.715
X25.367Y-45.255
X25.367Y-47.795
X25.367Y-50.335
X25.367Y-52.875
X25.367Y-55.415
X25.367Y-57.955
X25.367Y-60.495
X25.367Y-63.035
X25.367Y-65.575
X25.367Y-68.115
X25.367Y-70.655
X25.367Y-73.195
X25.367Y-75.735
X25.367Y-78.275
X25.367Y-80.815
X25.367Y-83.355
X25.367Y-85.895
X25.367Y-88.435
X25.367Y-90.975
X25.367Y-93.515
X25.367Y-96.055
X25.367Y-98.595
X25.367Y-101.135
X25.367Y-103.675
X25.367Y-106.215
X27.907Y-27.475
X27.907Y-30.015
X27.907Y-32.555
X27.907Y-35.095
X27.907Y-37.635
X27.907Y-40.175
X27.907Y-42.715
X27.907Y-45.255
X27.907Y-47.795
X27.907Y-50.335
X27.907Y-52.875
X27.907Y-55.415
X27.907Y-57.955
X27.907Y-60.495
X27.907Y-63.035
X27.907Y-65.575
X27.907Y-68.115
X27.907Y-70.655
X27.907Y-73.195
X27.907Y-75.735
X27.907Y-78.275
X27.907Y-80.815
X27.907Y-83.355
X27.907Y-85.895
X27.907Y-88.435
X27.907Y-90.975
X27.907Y-93.515
X27.907Y-96.055
X27.907Y-98.595
X27.907Y-101.135
X27.907Y-103.675
X27.907Y-106.215
T7
X20.287Y-22.389
X20.287Y-111.301
M30
