%TF.GenerationSoftware,KiCad,Pcbnew,10.0.6*%
%TF.CreationDate,2026-09-23T13:43:42-04:00*%
%TF.ProjectId,yacc1-cf-card,79616363-312d-4636-962d-636172642e6b,rev?*%
%TF.SameCoordinates,Original*%
%TF.FileFunction,Legend,Top*%
%TF.FilePolarity,Positive*%
%FSLAX46Y46*%
G04 Gerber Fmt 4.6, Leading zero omitted, Abs format (unit mm)*
G04 Created by KiCad (PCBNEW 10.0.6) date 2026-09-23 13:43:42*
%MOMM*%
%LPD*%
G01*
G04 APERTURE LIST*
%ADD10C,0.150000*%
%ADD11C,0.165000*%
%ADD12C,0.180000*%
%ADD13C,0.203200*%
%ADD14C,0.375000*%
%ADD15C,0.127000*%
%ADD16C,0.081280*%
%ADD17C,0.120000*%
%ADD18C,0.254000*%
%ADD19C,0.050800*%
G04 APERTURE END LIST*
D10*
X144067143Y-105057533D02*
X144676667Y-105057533D01*
X144371905Y-105362295D02*
X144371905Y-104752771D01*
X145438571Y-104562295D02*
X145057619Y-104562295D01*
X145057619Y-104562295D02*
X145019523Y-104943247D01*
X145019523Y-104943247D02*
X145057619Y-104905152D01*
X145057619Y-104905152D02*
X145133809Y-104867057D01*
X145133809Y-104867057D02*
X145324285Y-104867057D01*
X145324285Y-104867057D02*
X145400476Y-104905152D01*
X145400476Y-104905152D02*
X145438571Y-104943247D01*
X145438571Y-104943247D02*
X145476666Y-105019438D01*
X145476666Y-105019438D02*
X145476666Y-105209914D01*
X145476666Y-105209914D02*
X145438571Y-105286104D01*
X145438571Y-105286104D02*
X145400476Y-105324200D01*
X145400476Y-105324200D02*
X145324285Y-105362295D01*
X145324285Y-105362295D02*
X145133809Y-105362295D01*
X145133809Y-105362295D02*
X145057619Y-105324200D01*
X145057619Y-105324200D02*
X145019523Y-105286104D01*
X146848095Y-104600390D02*
X146771905Y-104562295D01*
X146771905Y-104562295D02*
X146657619Y-104562295D01*
X146657619Y-104562295D02*
X146543333Y-104600390D01*
X146543333Y-104600390D02*
X146467143Y-104676580D01*
X146467143Y-104676580D02*
X146429048Y-104752771D01*
X146429048Y-104752771D02*
X146390952Y-104905152D01*
X146390952Y-104905152D02*
X146390952Y-105019438D01*
X146390952Y-105019438D02*
X146429048Y-105171819D01*
X146429048Y-105171819D02*
X146467143Y-105248009D01*
X146467143Y-105248009D02*
X146543333Y-105324200D01*
X146543333Y-105324200D02*
X146657619Y-105362295D01*
X146657619Y-105362295D02*
X146733810Y-105362295D01*
X146733810Y-105362295D02*
X146848095Y-105324200D01*
X146848095Y-105324200D02*
X146886191Y-105286104D01*
X146886191Y-105286104D02*
X146886191Y-105019438D01*
X146886191Y-105019438D02*
X146733810Y-105019438D01*
X147229048Y-105362295D02*
X147229048Y-104562295D01*
X147229048Y-104562295D02*
X147686191Y-105362295D01*
X147686191Y-105362295D02*
X147686191Y-104562295D01*
X148067143Y-105362295D02*
X148067143Y-104562295D01*
X148067143Y-104562295D02*
X148257619Y-104562295D01*
X148257619Y-104562295D02*
X148371905Y-104600390D01*
X148371905Y-104600390D02*
X148448095Y-104676580D01*
X148448095Y-104676580D02*
X148486190Y-104752771D01*
X148486190Y-104752771D02*
X148524286Y-104905152D01*
X148524286Y-104905152D02*
X148524286Y-105019438D01*
X148524286Y-105019438D02*
X148486190Y-105171819D01*
X148486190Y-105171819D02*
X148448095Y-105248009D01*
X148448095Y-105248009D02*
X148371905Y-105324200D01*
X148371905Y-105324200D02*
X148257619Y-105362295D01*
X148257619Y-105362295D02*
X148067143Y-105362295D01*
X149895714Y-104600390D02*
X149819524Y-104562295D01*
X149819524Y-104562295D02*
X149705238Y-104562295D01*
X149705238Y-104562295D02*
X149590952Y-104600390D01*
X149590952Y-104600390D02*
X149514762Y-104676580D01*
X149514762Y-104676580D02*
X149476667Y-104752771D01*
X149476667Y-104752771D02*
X149438571Y-104905152D01*
X149438571Y-104905152D02*
X149438571Y-105019438D01*
X149438571Y-105019438D02*
X149476667Y-105171819D01*
X149476667Y-105171819D02*
X149514762Y-105248009D01*
X149514762Y-105248009D02*
X149590952Y-105324200D01*
X149590952Y-105324200D02*
X149705238Y-105362295D01*
X149705238Y-105362295D02*
X149781429Y-105362295D01*
X149781429Y-105362295D02*
X149895714Y-105324200D01*
X149895714Y-105324200D02*
X149933810Y-105286104D01*
X149933810Y-105286104D02*
X149933810Y-105019438D01*
X149933810Y-105019438D02*
X149781429Y-105019438D01*
X150276667Y-105362295D02*
X150276667Y-104562295D01*
X150276667Y-104562295D02*
X150733810Y-105362295D01*
X150733810Y-105362295D02*
X150733810Y-104562295D01*
X151114762Y-105362295D02*
X151114762Y-104562295D01*
X151114762Y-104562295D02*
X151305238Y-104562295D01*
X151305238Y-104562295D02*
X151419524Y-104600390D01*
X151419524Y-104600390D02*
X151495714Y-104676580D01*
X151495714Y-104676580D02*
X151533809Y-104752771D01*
X151533809Y-104752771D02*
X151571905Y-104905152D01*
X151571905Y-104905152D02*
X151571905Y-105019438D01*
X151571905Y-105019438D02*
X151533809Y-105171819D01*
X151533809Y-105171819D02*
X151495714Y-105248009D01*
X151495714Y-105248009D02*
X151419524Y-105324200D01*
X151419524Y-105324200D02*
X151305238Y-105362295D01*
X151305238Y-105362295D02*
X151114762Y-105362295D01*
X152524286Y-104828961D02*
X152524286Y-105362295D01*
X152524286Y-104905152D02*
X152562381Y-104867057D01*
X152562381Y-104867057D02*
X152638571Y-104828961D01*
X152638571Y-104828961D02*
X152752857Y-104828961D01*
X152752857Y-104828961D02*
X152829048Y-104867057D01*
X152829048Y-104867057D02*
X152867143Y-104943247D01*
X152867143Y-104943247D02*
X152867143Y-105362295D01*
X153590953Y-105324200D02*
X153514762Y-105362295D01*
X153514762Y-105362295D02*
X153362381Y-105362295D01*
X153362381Y-105362295D02*
X153286191Y-105324200D01*
X153286191Y-105324200D02*
X153248096Y-105286104D01*
X153248096Y-105286104D02*
X153210000Y-105209914D01*
X153210000Y-105209914D02*
X153210000Y-104981342D01*
X153210000Y-104981342D02*
X153248096Y-104905152D01*
X153248096Y-104905152D02*
X153286191Y-104867057D01*
X153286191Y-104867057D02*
X153362381Y-104828961D01*
X153362381Y-104828961D02*
X153514762Y-104828961D01*
X153514762Y-104828961D02*
X153590953Y-104867057D01*
X85214286Y-118051414D02*
X85128572Y-118008557D01*
X85128572Y-118008557D02*
X85000000Y-118008557D01*
X85000000Y-118008557D02*
X84871429Y-118051414D01*
X84871429Y-118051414D02*
X84785714Y-118137128D01*
X84785714Y-118137128D02*
X84742857Y-118222842D01*
X84742857Y-118222842D02*
X84700000Y-118394271D01*
X84700000Y-118394271D02*
X84700000Y-118522842D01*
X84700000Y-118522842D02*
X84742857Y-118694271D01*
X84742857Y-118694271D02*
X84785714Y-118779985D01*
X84785714Y-118779985D02*
X84871429Y-118865700D01*
X84871429Y-118865700D02*
X85000000Y-118908557D01*
X85000000Y-118908557D02*
X85085714Y-118908557D01*
X85085714Y-118908557D02*
X85214286Y-118865700D01*
X85214286Y-118865700D02*
X85257143Y-118822842D01*
X85257143Y-118822842D02*
X85257143Y-118522842D01*
X85257143Y-118522842D02*
X85085714Y-118522842D01*
X85642857Y-118908557D02*
X85642857Y-118008557D01*
X85642857Y-118008557D02*
X86157143Y-118908557D01*
X86157143Y-118908557D02*
X86157143Y-118008557D01*
X86585714Y-118908557D02*
X86585714Y-118008557D01*
X86585714Y-118008557D02*
X86800000Y-118008557D01*
X86800000Y-118008557D02*
X86928571Y-118051414D01*
X86928571Y-118051414D02*
X87014286Y-118137128D01*
X87014286Y-118137128D02*
X87057143Y-118222842D01*
X87057143Y-118222842D02*
X87100000Y-118394271D01*
X87100000Y-118394271D02*
X87100000Y-118522842D01*
X87100000Y-118522842D02*
X87057143Y-118694271D01*
X87057143Y-118694271D02*
X87014286Y-118779985D01*
X87014286Y-118779985D02*
X86928571Y-118865700D01*
X86928571Y-118865700D02*
X86800000Y-118908557D01*
X86800000Y-118908557D02*
X86585714Y-118908557D01*
X88171428Y-118308557D02*
X88171428Y-119208557D01*
X88171428Y-118351414D02*
X88257143Y-118308557D01*
X88257143Y-118308557D02*
X88428571Y-118308557D01*
X88428571Y-118308557D02*
X88514285Y-118351414D01*
X88514285Y-118351414D02*
X88557143Y-118394271D01*
X88557143Y-118394271D02*
X88600000Y-118479985D01*
X88600000Y-118479985D02*
X88600000Y-118737128D01*
X88600000Y-118737128D02*
X88557143Y-118822842D01*
X88557143Y-118822842D02*
X88514285Y-118865700D01*
X88514285Y-118865700D02*
X88428571Y-118908557D01*
X88428571Y-118908557D02*
X88257143Y-118908557D01*
X88257143Y-118908557D02*
X88171428Y-118865700D01*
X89114286Y-118908557D02*
X89028571Y-118865700D01*
X89028571Y-118865700D02*
X88985714Y-118822842D01*
X88985714Y-118822842D02*
X88942857Y-118737128D01*
X88942857Y-118737128D02*
X88942857Y-118479985D01*
X88942857Y-118479985D02*
X88985714Y-118394271D01*
X88985714Y-118394271D02*
X89028571Y-118351414D01*
X89028571Y-118351414D02*
X89114286Y-118308557D01*
X89114286Y-118308557D02*
X89242857Y-118308557D01*
X89242857Y-118308557D02*
X89328571Y-118351414D01*
X89328571Y-118351414D02*
X89371429Y-118394271D01*
X89371429Y-118394271D02*
X89414286Y-118479985D01*
X89414286Y-118479985D02*
X89414286Y-118737128D01*
X89414286Y-118737128D02*
X89371429Y-118822842D01*
X89371429Y-118822842D02*
X89328571Y-118865700D01*
X89328571Y-118865700D02*
X89242857Y-118908557D01*
X89242857Y-118908557D02*
X89114286Y-118908557D01*
X90185715Y-118308557D02*
X90185715Y-118908557D01*
X89800000Y-118308557D02*
X89800000Y-118779985D01*
X89800000Y-118779985D02*
X89842857Y-118865700D01*
X89842857Y-118865700D02*
X89928572Y-118908557D01*
X89928572Y-118908557D02*
X90057143Y-118908557D01*
X90057143Y-118908557D02*
X90142857Y-118865700D01*
X90142857Y-118865700D02*
X90185715Y-118822842D01*
X90614286Y-118908557D02*
X90614286Y-118308557D01*
X90614286Y-118479985D02*
X90657143Y-118394271D01*
X90657143Y-118394271D02*
X90700001Y-118351414D01*
X90700001Y-118351414D02*
X90785715Y-118308557D01*
X90785715Y-118308557D02*
X90871429Y-118308557D01*
X91857143Y-118908557D02*
X91857143Y-118008557D01*
X91857143Y-118351414D02*
X91942858Y-118308557D01*
X91942858Y-118308557D02*
X92114286Y-118308557D01*
X92114286Y-118308557D02*
X92200000Y-118351414D01*
X92200000Y-118351414D02*
X92242858Y-118394271D01*
X92242858Y-118394271D02*
X92285715Y-118479985D01*
X92285715Y-118479985D02*
X92285715Y-118737128D01*
X92285715Y-118737128D02*
X92242858Y-118822842D01*
X92242858Y-118822842D02*
X92200000Y-118865700D01*
X92200000Y-118865700D02*
X92114286Y-118908557D01*
X92114286Y-118908557D02*
X91942858Y-118908557D01*
X91942858Y-118908557D02*
X91857143Y-118865700D01*
X92800001Y-118908557D02*
X92714286Y-118865700D01*
X92714286Y-118865700D02*
X92671429Y-118822842D01*
X92671429Y-118822842D02*
X92628572Y-118737128D01*
X92628572Y-118737128D02*
X92628572Y-118479985D01*
X92628572Y-118479985D02*
X92671429Y-118394271D01*
X92671429Y-118394271D02*
X92714286Y-118351414D01*
X92714286Y-118351414D02*
X92800001Y-118308557D01*
X92800001Y-118308557D02*
X92928572Y-118308557D01*
X92928572Y-118308557D02*
X93014286Y-118351414D01*
X93014286Y-118351414D02*
X93057144Y-118394271D01*
X93057144Y-118394271D02*
X93100001Y-118479985D01*
X93100001Y-118479985D02*
X93100001Y-118737128D01*
X93100001Y-118737128D02*
X93057144Y-118822842D01*
X93057144Y-118822842D02*
X93014286Y-118865700D01*
X93014286Y-118865700D02*
X92928572Y-118908557D01*
X92928572Y-118908557D02*
X92800001Y-118908557D01*
X93357144Y-118308557D02*
X93700001Y-118308557D01*
X93485715Y-118008557D02*
X93485715Y-118779985D01*
X93485715Y-118779985D02*
X93528572Y-118865700D01*
X93528572Y-118865700D02*
X93614287Y-118908557D01*
X93614287Y-118908557D02*
X93700001Y-118908557D01*
X94000001Y-118908557D02*
X94000001Y-118008557D01*
X94385716Y-118908557D02*
X94385716Y-118437128D01*
X94385716Y-118437128D02*
X94342858Y-118351414D01*
X94342858Y-118351414D02*
X94257144Y-118308557D01*
X94257144Y-118308557D02*
X94128573Y-118308557D01*
X94128573Y-118308557D02*
X94042858Y-118351414D01*
X94042858Y-118351414D02*
X94000001Y-118394271D01*
X95457144Y-118865700D02*
X95542858Y-118908557D01*
X95542858Y-118908557D02*
X95714287Y-118908557D01*
X95714287Y-118908557D02*
X95800001Y-118865700D01*
X95800001Y-118865700D02*
X95842858Y-118779985D01*
X95842858Y-118779985D02*
X95842858Y-118737128D01*
X95842858Y-118737128D02*
X95800001Y-118651414D01*
X95800001Y-118651414D02*
X95714287Y-118608557D01*
X95714287Y-118608557D02*
X95585716Y-118608557D01*
X95585716Y-118608557D02*
X95500001Y-118565700D01*
X95500001Y-118565700D02*
X95457144Y-118479985D01*
X95457144Y-118479985D02*
X95457144Y-118437128D01*
X95457144Y-118437128D02*
X95500001Y-118351414D01*
X95500001Y-118351414D02*
X95585716Y-118308557D01*
X95585716Y-118308557D02*
X95714287Y-118308557D01*
X95714287Y-118308557D02*
X95800001Y-118351414D01*
X96228572Y-118908557D02*
X96228572Y-118308557D01*
X96228572Y-118008557D02*
X96185715Y-118051414D01*
X96185715Y-118051414D02*
X96228572Y-118094271D01*
X96228572Y-118094271D02*
X96271429Y-118051414D01*
X96271429Y-118051414D02*
X96228572Y-118008557D01*
X96228572Y-118008557D02*
X96228572Y-118094271D01*
X97042858Y-118908557D02*
X97042858Y-118008557D01*
X97042858Y-118865700D02*
X96957143Y-118908557D01*
X96957143Y-118908557D02*
X96785715Y-118908557D01*
X96785715Y-118908557D02*
X96700000Y-118865700D01*
X96700000Y-118865700D02*
X96657143Y-118822842D01*
X96657143Y-118822842D02*
X96614286Y-118737128D01*
X96614286Y-118737128D02*
X96614286Y-118479985D01*
X96614286Y-118479985D02*
X96657143Y-118394271D01*
X96657143Y-118394271D02*
X96700000Y-118351414D01*
X96700000Y-118351414D02*
X96785715Y-118308557D01*
X96785715Y-118308557D02*
X96957143Y-118308557D01*
X96957143Y-118308557D02*
X97042858Y-118351414D01*
X97814286Y-118865700D02*
X97728572Y-118908557D01*
X97728572Y-118908557D02*
X97557144Y-118908557D01*
X97557144Y-118908557D02*
X97471429Y-118865700D01*
X97471429Y-118865700D02*
X97428572Y-118779985D01*
X97428572Y-118779985D02*
X97428572Y-118437128D01*
X97428572Y-118437128D02*
X97471429Y-118351414D01*
X97471429Y-118351414D02*
X97557144Y-118308557D01*
X97557144Y-118308557D02*
X97728572Y-118308557D01*
X97728572Y-118308557D02*
X97814286Y-118351414D01*
X97814286Y-118351414D02*
X97857144Y-118437128D01*
X97857144Y-118437128D02*
X97857144Y-118522842D01*
X97857144Y-118522842D02*
X97428572Y-118608557D01*
X98200001Y-118865700D02*
X98285715Y-118908557D01*
X98285715Y-118908557D02*
X98457144Y-118908557D01*
X98457144Y-118908557D02*
X98542858Y-118865700D01*
X98542858Y-118865700D02*
X98585715Y-118779985D01*
X98585715Y-118779985D02*
X98585715Y-118737128D01*
X98585715Y-118737128D02*
X98542858Y-118651414D01*
X98542858Y-118651414D02*
X98457144Y-118608557D01*
X98457144Y-118608557D02*
X98328573Y-118608557D01*
X98328573Y-118608557D02*
X98242858Y-118565700D01*
X98242858Y-118565700D02*
X98200001Y-118479985D01*
X98200001Y-118479985D02*
X98200001Y-118437128D01*
X98200001Y-118437128D02*
X98242858Y-118351414D01*
X98242858Y-118351414D02*
X98328573Y-118308557D01*
X98328573Y-118308557D02*
X98457144Y-118308557D01*
X98457144Y-118308557D02*
X98542858Y-118351414D01*
X99014286Y-118865700D02*
X99014286Y-118908557D01*
X99014286Y-118908557D02*
X98971429Y-118994271D01*
X98971429Y-118994271D02*
X98928572Y-119037128D01*
X98971429Y-118351414D02*
X99014286Y-118394271D01*
X99014286Y-118394271D02*
X98971429Y-118437128D01*
X98971429Y-118437128D02*
X98928572Y-118394271D01*
X98928572Y-118394271D02*
X98971429Y-118351414D01*
X98971429Y-118351414D02*
X98971429Y-118437128D01*
X99957143Y-118008557D02*
X100257143Y-118908557D01*
X100257143Y-118908557D02*
X100557143Y-118008557D01*
X101371429Y-118822842D02*
X101328572Y-118865700D01*
X101328572Y-118865700D02*
X101200000Y-118908557D01*
X101200000Y-118908557D02*
X101114286Y-118908557D01*
X101114286Y-118908557D02*
X100985715Y-118865700D01*
X100985715Y-118865700D02*
X100900000Y-118779985D01*
X100900000Y-118779985D02*
X100857143Y-118694271D01*
X100857143Y-118694271D02*
X100814286Y-118522842D01*
X100814286Y-118522842D02*
X100814286Y-118394271D01*
X100814286Y-118394271D02*
X100857143Y-118222842D01*
X100857143Y-118222842D02*
X100900000Y-118137128D01*
X100900000Y-118137128D02*
X100985715Y-118051414D01*
X100985715Y-118051414D02*
X101114286Y-118008557D01*
X101114286Y-118008557D02*
X101200000Y-118008557D01*
X101200000Y-118008557D02*
X101328572Y-118051414D01*
X101328572Y-118051414D02*
X101371429Y-118094271D01*
X102271429Y-118822842D02*
X102228572Y-118865700D01*
X102228572Y-118865700D02*
X102100000Y-118908557D01*
X102100000Y-118908557D02*
X102014286Y-118908557D01*
X102014286Y-118908557D02*
X101885715Y-118865700D01*
X101885715Y-118865700D02*
X101800000Y-118779985D01*
X101800000Y-118779985D02*
X101757143Y-118694271D01*
X101757143Y-118694271D02*
X101714286Y-118522842D01*
X101714286Y-118522842D02*
X101714286Y-118394271D01*
X101714286Y-118394271D02*
X101757143Y-118222842D01*
X101757143Y-118222842D02*
X101800000Y-118137128D01*
X101800000Y-118137128D02*
X101885715Y-118051414D01*
X101885715Y-118051414D02*
X102014286Y-118008557D01*
X102014286Y-118008557D02*
X102100000Y-118008557D01*
X102100000Y-118008557D02*
X102228572Y-118051414D01*
X102228572Y-118051414D02*
X102271429Y-118094271D01*
X103471429Y-118908557D02*
X103385714Y-118865700D01*
X103385714Y-118865700D02*
X103342857Y-118822842D01*
X103342857Y-118822842D02*
X103300000Y-118737128D01*
X103300000Y-118737128D02*
X103300000Y-118479985D01*
X103300000Y-118479985D02*
X103342857Y-118394271D01*
X103342857Y-118394271D02*
X103385714Y-118351414D01*
X103385714Y-118351414D02*
X103471429Y-118308557D01*
X103471429Y-118308557D02*
X103600000Y-118308557D01*
X103600000Y-118308557D02*
X103685714Y-118351414D01*
X103685714Y-118351414D02*
X103728572Y-118394271D01*
X103728572Y-118394271D02*
X103771429Y-118479985D01*
X103771429Y-118479985D02*
X103771429Y-118737128D01*
X103771429Y-118737128D02*
X103728572Y-118822842D01*
X103728572Y-118822842D02*
X103685714Y-118865700D01*
X103685714Y-118865700D02*
X103600000Y-118908557D01*
X103600000Y-118908557D02*
X103471429Y-118908557D01*
X104157143Y-118308557D02*
X104157143Y-118908557D01*
X104157143Y-118394271D02*
X104200000Y-118351414D01*
X104200000Y-118351414D02*
X104285715Y-118308557D01*
X104285715Y-118308557D02*
X104414286Y-118308557D01*
X104414286Y-118308557D02*
X104500000Y-118351414D01*
X104500000Y-118351414D02*
X104542858Y-118437128D01*
X104542858Y-118437128D02*
X104542858Y-118908557D01*
X105828572Y-118008557D02*
X105914286Y-118008557D01*
X105914286Y-118008557D02*
X106000000Y-118051414D01*
X106000000Y-118051414D02*
X106042858Y-118094271D01*
X106042858Y-118094271D02*
X106085715Y-118179985D01*
X106085715Y-118179985D02*
X106128572Y-118351414D01*
X106128572Y-118351414D02*
X106128572Y-118565700D01*
X106128572Y-118565700D02*
X106085715Y-118737128D01*
X106085715Y-118737128D02*
X106042858Y-118822842D01*
X106042858Y-118822842D02*
X106000000Y-118865700D01*
X106000000Y-118865700D02*
X105914286Y-118908557D01*
X105914286Y-118908557D02*
X105828572Y-118908557D01*
X105828572Y-118908557D02*
X105742858Y-118865700D01*
X105742858Y-118865700D02*
X105700000Y-118822842D01*
X105700000Y-118822842D02*
X105657143Y-118737128D01*
X105657143Y-118737128D02*
X105614286Y-118565700D01*
X105614286Y-118565700D02*
X105614286Y-118351414D01*
X105614286Y-118351414D02*
X105657143Y-118179985D01*
X105657143Y-118179985D02*
X105700000Y-118094271D01*
X105700000Y-118094271D02*
X105742858Y-118051414D01*
X105742858Y-118051414D02*
X105828572Y-118008557D01*
X106514286Y-118822842D02*
X106557143Y-118865700D01*
X106557143Y-118865700D02*
X106514286Y-118908557D01*
X106514286Y-118908557D02*
X106471429Y-118865700D01*
X106471429Y-118865700D02*
X106514286Y-118822842D01*
X106514286Y-118822842D02*
X106514286Y-118908557D01*
X107328572Y-118008557D02*
X107157143Y-118008557D01*
X107157143Y-118008557D02*
X107071429Y-118051414D01*
X107071429Y-118051414D02*
X107028572Y-118094271D01*
X107028572Y-118094271D02*
X106942857Y-118222842D01*
X106942857Y-118222842D02*
X106900000Y-118394271D01*
X106900000Y-118394271D02*
X106900000Y-118737128D01*
X106900000Y-118737128D02*
X106942857Y-118822842D01*
X106942857Y-118822842D02*
X106985714Y-118865700D01*
X106985714Y-118865700D02*
X107071429Y-118908557D01*
X107071429Y-118908557D02*
X107242857Y-118908557D01*
X107242857Y-118908557D02*
X107328572Y-118865700D01*
X107328572Y-118865700D02*
X107371429Y-118822842D01*
X107371429Y-118822842D02*
X107414286Y-118737128D01*
X107414286Y-118737128D02*
X107414286Y-118522842D01*
X107414286Y-118522842D02*
X107371429Y-118437128D01*
X107371429Y-118437128D02*
X107328572Y-118394271D01*
X107328572Y-118394271D02*
X107242857Y-118351414D01*
X107242857Y-118351414D02*
X107071429Y-118351414D01*
X107071429Y-118351414D02*
X106985714Y-118394271D01*
X106985714Y-118394271D02*
X106942857Y-118437128D01*
X106942857Y-118437128D02*
X106900000Y-118522842D01*
X108485714Y-118908557D02*
X108485714Y-118308557D01*
X108485714Y-118394271D02*
X108528571Y-118351414D01*
X108528571Y-118351414D02*
X108614286Y-118308557D01*
X108614286Y-118308557D02*
X108742857Y-118308557D01*
X108742857Y-118308557D02*
X108828571Y-118351414D01*
X108828571Y-118351414D02*
X108871429Y-118437128D01*
X108871429Y-118437128D02*
X108871429Y-118908557D01*
X108871429Y-118437128D02*
X108914286Y-118351414D01*
X108914286Y-118351414D02*
X109000000Y-118308557D01*
X109000000Y-118308557D02*
X109128571Y-118308557D01*
X109128571Y-118308557D02*
X109214286Y-118351414D01*
X109214286Y-118351414D02*
X109257143Y-118437128D01*
X109257143Y-118437128D02*
X109257143Y-118908557D01*
X109685714Y-118908557D02*
X109685714Y-118308557D01*
X109685714Y-118394271D02*
X109728571Y-118351414D01*
X109728571Y-118351414D02*
X109814286Y-118308557D01*
X109814286Y-118308557D02*
X109942857Y-118308557D01*
X109942857Y-118308557D02*
X110028571Y-118351414D01*
X110028571Y-118351414D02*
X110071429Y-118437128D01*
X110071429Y-118437128D02*
X110071429Y-118908557D01*
X110071429Y-118437128D02*
X110114286Y-118351414D01*
X110114286Y-118351414D02*
X110200000Y-118308557D01*
X110200000Y-118308557D02*
X110328571Y-118308557D01*
X110328571Y-118308557D02*
X110414286Y-118351414D01*
X110414286Y-118351414D02*
X110457143Y-118437128D01*
X110457143Y-118437128D02*
X110457143Y-118908557D01*
X111442857Y-118308557D02*
X111785714Y-118308557D01*
X111571428Y-118008557D02*
X111571428Y-118779985D01*
X111571428Y-118779985D02*
X111614285Y-118865700D01*
X111614285Y-118865700D02*
X111700000Y-118908557D01*
X111700000Y-118908557D02*
X111785714Y-118908557D01*
X112085714Y-118908557D02*
X112085714Y-118308557D01*
X112085714Y-118479985D02*
X112128571Y-118394271D01*
X112128571Y-118394271D02*
X112171429Y-118351414D01*
X112171429Y-118351414D02*
X112257143Y-118308557D01*
X112257143Y-118308557D02*
X112342857Y-118308557D01*
X113028572Y-118908557D02*
X113028572Y-118437128D01*
X113028572Y-118437128D02*
X112985714Y-118351414D01*
X112985714Y-118351414D02*
X112900000Y-118308557D01*
X112900000Y-118308557D02*
X112728572Y-118308557D01*
X112728572Y-118308557D02*
X112642857Y-118351414D01*
X113028572Y-118865700D02*
X112942857Y-118908557D01*
X112942857Y-118908557D02*
X112728572Y-118908557D01*
X112728572Y-118908557D02*
X112642857Y-118865700D01*
X112642857Y-118865700D02*
X112600000Y-118779985D01*
X112600000Y-118779985D02*
X112600000Y-118694271D01*
X112600000Y-118694271D02*
X112642857Y-118608557D01*
X112642857Y-118608557D02*
X112728572Y-118565700D01*
X112728572Y-118565700D02*
X112942857Y-118565700D01*
X112942857Y-118565700D02*
X113028572Y-118522842D01*
X113842858Y-118865700D02*
X113757143Y-118908557D01*
X113757143Y-118908557D02*
X113585715Y-118908557D01*
X113585715Y-118908557D02*
X113500000Y-118865700D01*
X113500000Y-118865700D02*
X113457143Y-118822842D01*
X113457143Y-118822842D02*
X113414286Y-118737128D01*
X113414286Y-118737128D02*
X113414286Y-118479985D01*
X113414286Y-118479985D02*
X113457143Y-118394271D01*
X113457143Y-118394271D02*
X113500000Y-118351414D01*
X113500000Y-118351414D02*
X113585715Y-118308557D01*
X113585715Y-118308557D02*
X113757143Y-118308557D01*
X113757143Y-118308557D02*
X113842858Y-118351414D01*
X114228572Y-118908557D02*
X114228572Y-118008557D01*
X114314287Y-118565700D02*
X114571429Y-118908557D01*
X114571429Y-118308557D02*
X114228572Y-118651414D01*
X114914286Y-118865700D02*
X115000000Y-118908557D01*
X115000000Y-118908557D02*
X115171429Y-118908557D01*
X115171429Y-118908557D02*
X115257143Y-118865700D01*
X115257143Y-118865700D02*
X115300000Y-118779985D01*
X115300000Y-118779985D02*
X115300000Y-118737128D01*
X115300000Y-118737128D02*
X115257143Y-118651414D01*
X115257143Y-118651414D02*
X115171429Y-118608557D01*
X115171429Y-118608557D02*
X115042858Y-118608557D01*
X115042858Y-118608557D02*
X114957143Y-118565700D01*
X114957143Y-118565700D02*
X114914286Y-118479985D01*
X114914286Y-118479985D02*
X114914286Y-118437128D01*
X114914286Y-118437128D02*
X114957143Y-118351414D01*
X114957143Y-118351414D02*
X115042858Y-118308557D01*
X115042858Y-118308557D02*
X115171429Y-118308557D01*
X115171429Y-118308557D02*
X115257143Y-118351414D01*
X153793808Y-27254819D02*
X153793808Y-26254819D01*
X154269998Y-27254819D02*
X154269998Y-26254819D01*
X154269998Y-26254819D02*
X154508093Y-26254819D01*
X154508093Y-26254819D02*
X154650950Y-26302438D01*
X154650950Y-26302438D02*
X154746188Y-26397676D01*
X154746188Y-26397676D02*
X154793807Y-26492914D01*
X154793807Y-26492914D02*
X154841426Y-26683390D01*
X154841426Y-26683390D02*
X154841426Y-26826247D01*
X154841426Y-26826247D02*
X154793807Y-27016723D01*
X154793807Y-27016723D02*
X154746188Y-27111961D01*
X154746188Y-27111961D02*
X154650950Y-27207200D01*
X154650950Y-27207200D02*
X154508093Y-27254819D01*
X154508093Y-27254819D02*
X154269998Y-27254819D01*
X155269998Y-26731009D02*
X155603331Y-26731009D01*
X155746188Y-27254819D02*
X155269998Y-27254819D01*
X155269998Y-27254819D02*
X155269998Y-26254819D01*
X155269998Y-26254819D02*
X155746188Y-26254819D01*
X157365236Y-26588152D02*
X157365236Y-27254819D01*
X157127141Y-26207200D02*
X156889046Y-26921485D01*
X156889046Y-26921485D02*
X157508093Y-26921485D01*
X158079522Y-26254819D02*
X158174760Y-26254819D01*
X158174760Y-26254819D02*
X158269998Y-26302438D01*
X158269998Y-26302438D02*
X158317617Y-26350057D01*
X158317617Y-26350057D02*
X158365236Y-26445295D01*
X158365236Y-26445295D02*
X158412855Y-26635771D01*
X158412855Y-26635771D02*
X158412855Y-26873866D01*
X158412855Y-26873866D02*
X158365236Y-27064342D01*
X158365236Y-27064342D02*
X158317617Y-27159580D01*
X158317617Y-27159580D02*
X158269998Y-27207200D01*
X158269998Y-27207200D02*
X158174760Y-27254819D01*
X158174760Y-27254819D02*
X158079522Y-27254819D01*
X158079522Y-27254819D02*
X157984284Y-27207200D01*
X157984284Y-27207200D02*
X157936665Y-27159580D01*
X157936665Y-27159580D02*
X157889046Y-27064342D01*
X157889046Y-27064342D02*
X157841427Y-26873866D01*
X157841427Y-26873866D02*
X157841427Y-26635771D01*
X157841427Y-26635771D02*
X157889046Y-26445295D01*
X157889046Y-26445295D02*
X157936665Y-26350057D01*
X157936665Y-26350057D02*
X157984284Y-26302438D01*
X157984284Y-26302438D02*
X158079522Y-26254819D01*
X159889046Y-27635771D02*
X159841427Y-27588152D01*
X159841427Y-27588152D02*
X159746189Y-27445295D01*
X159746189Y-27445295D02*
X159698570Y-27350057D01*
X159698570Y-27350057D02*
X159650951Y-27207200D01*
X159650951Y-27207200D02*
X159603332Y-26969104D01*
X159603332Y-26969104D02*
X159603332Y-26778628D01*
X159603332Y-26778628D02*
X159650951Y-26540533D01*
X159650951Y-26540533D02*
X159698570Y-26397676D01*
X159698570Y-26397676D02*
X159746189Y-26302438D01*
X159746189Y-26302438D02*
X159841427Y-26159580D01*
X159841427Y-26159580D02*
X159889046Y-26111961D01*
X160841427Y-27159580D02*
X160793808Y-27207200D01*
X160793808Y-27207200D02*
X160650951Y-27254819D01*
X160650951Y-27254819D02*
X160555713Y-27254819D01*
X160555713Y-27254819D02*
X160412856Y-27207200D01*
X160412856Y-27207200D02*
X160317618Y-27111961D01*
X160317618Y-27111961D02*
X160269999Y-27016723D01*
X160269999Y-27016723D02*
X160222380Y-26826247D01*
X160222380Y-26826247D02*
X160222380Y-26683390D01*
X160222380Y-26683390D02*
X160269999Y-26492914D01*
X160269999Y-26492914D02*
X160317618Y-26397676D01*
X160317618Y-26397676D02*
X160412856Y-26302438D01*
X160412856Y-26302438D02*
X160555713Y-26254819D01*
X160555713Y-26254819D02*
X160650951Y-26254819D01*
X160650951Y-26254819D02*
X160793808Y-26302438D01*
X160793808Y-26302438D02*
X160841427Y-26350057D01*
X161603332Y-26731009D02*
X161269999Y-26731009D01*
X161269999Y-27254819D02*
X161269999Y-26254819D01*
X161269999Y-26254819D02*
X161746189Y-26254819D01*
X163317618Y-27254819D02*
X163317618Y-26731009D01*
X163317618Y-26731009D02*
X163269999Y-26635771D01*
X163269999Y-26635771D02*
X163174761Y-26588152D01*
X163174761Y-26588152D02*
X162984285Y-26588152D01*
X162984285Y-26588152D02*
X162889047Y-26635771D01*
X163317618Y-27207200D02*
X163222380Y-27254819D01*
X163222380Y-27254819D02*
X162984285Y-27254819D01*
X162984285Y-27254819D02*
X162889047Y-27207200D01*
X162889047Y-27207200D02*
X162841428Y-27111961D01*
X162841428Y-27111961D02*
X162841428Y-27016723D01*
X162841428Y-27016723D02*
X162889047Y-26921485D01*
X162889047Y-26921485D02*
X162984285Y-26873866D01*
X162984285Y-26873866D02*
X163222380Y-26873866D01*
X163222380Y-26873866D02*
X163317618Y-26826247D01*
X164222380Y-27254819D02*
X164222380Y-26254819D01*
X164222380Y-27207200D02*
X164127142Y-27254819D01*
X164127142Y-27254819D02*
X163936666Y-27254819D01*
X163936666Y-27254819D02*
X163841428Y-27207200D01*
X163841428Y-27207200D02*
X163793809Y-27159580D01*
X163793809Y-27159580D02*
X163746190Y-27064342D01*
X163746190Y-27064342D02*
X163746190Y-26778628D01*
X163746190Y-26778628D02*
X163793809Y-26683390D01*
X163793809Y-26683390D02*
X163841428Y-26635771D01*
X163841428Y-26635771D02*
X163936666Y-26588152D01*
X163936666Y-26588152D02*
X164127142Y-26588152D01*
X164127142Y-26588152D02*
X164222380Y-26635771D01*
X165127142Y-27254819D02*
X165127142Y-26731009D01*
X165127142Y-26731009D02*
X165079523Y-26635771D01*
X165079523Y-26635771D02*
X164984285Y-26588152D01*
X164984285Y-26588152D02*
X164793809Y-26588152D01*
X164793809Y-26588152D02*
X164698571Y-26635771D01*
X165127142Y-27207200D02*
X165031904Y-27254819D01*
X165031904Y-27254819D02*
X164793809Y-27254819D01*
X164793809Y-27254819D02*
X164698571Y-27207200D01*
X164698571Y-27207200D02*
X164650952Y-27111961D01*
X164650952Y-27111961D02*
X164650952Y-27016723D01*
X164650952Y-27016723D02*
X164698571Y-26921485D01*
X164698571Y-26921485D02*
X164793809Y-26873866D01*
X164793809Y-26873866D02*
X165031904Y-26873866D01*
X165031904Y-26873866D02*
X165127142Y-26826247D01*
X165603333Y-26588152D02*
X165603333Y-27588152D01*
X165603333Y-26635771D02*
X165698571Y-26588152D01*
X165698571Y-26588152D02*
X165889047Y-26588152D01*
X165889047Y-26588152D02*
X165984285Y-26635771D01*
X165984285Y-26635771D02*
X166031904Y-26683390D01*
X166031904Y-26683390D02*
X166079523Y-26778628D01*
X166079523Y-26778628D02*
X166079523Y-27064342D01*
X166079523Y-27064342D02*
X166031904Y-27159580D01*
X166031904Y-27159580D02*
X165984285Y-27207200D01*
X165984285Y-27207200D02*
X165889047Y-27254819D01*
X165889047Y-27254819D02*
X165698571Y-27254819D01*
X165698571Y-27254819D02*
X165603333Y-27207200D01*
X166365238Y-26588152D02*
X166746190Y-26588152D01*
X166508095Y-26254819D02*
X166508095Y-27111961D01*
X166508095Y-27111961D02*
X166555714Y-27207200D01*
X166555714Y-27207200D02*
X166650952Y-27254819D01*
X166650952Y-27254819D02*
X166746190Y-27254819D01*
X167460476Y-27207200D02*
X167365238Y-27254819D01*
X167365238Y-27254819D02*
X167174762Y-27254819D01*
X167174762Y-27254819D02*
X167079524Y-27207200D01*
X167079524Y-27207200D02*
X167031905Y-27111961D01*
X167031905Y-27111961D02*
X167031905Y-26731009D01*
X167031905Y-26731009D02*
X167079524Y-26635771D01*
X167079524Y-26635771D02*
X167174762Y-26588152D01*
X167174762Y-26588152D02*
X167365238Y-26588152D01*
X167365238Y-26588152D02*
X167460476Y-26635771D01*
X167460476Y-26635771D02*
X167508095Y-26731009D01*
X167508095Y-26731009D02*
X167508095Y-26826247D01*
X167508095Y-26826247D02*
X167031905Y-26921485D01*
X167936667Y-27254819D02*
X167936667Y-26588152D01*
X167936667Y-26778628D02*
X167984286Y-26683390D01*
X167984286Y-26683390D02*
X168031905Y-26635771D01*
X168031905Y-26635771D02*
X168127143Y-26588152D01*
X168127143Y-26588152D02*
X168222381Y-26588152D01*
X168460477Y-27635771D02*
X168508096Y-27588152D01*
X168508096Y-27588152D02*
X168603334Y-27445295D01*
X168603334Y-27445295D02*
X168650953Y-27350057D01*
X168650953Y-27350057D02*
X168698572Y-27207200D01*
X168698572Y-27207200D02*
X168746191Y-26969104D01*
X168746191Y-26969104D02*
X168746191Y-26778628D01*
X168746191Y-26778628D02*
X168698572Y-26540533D01*
X168698572Y-26540533D02*
X168650953Y-26397676D01*
X168650953Y-26397676D02*
X168603334Y-26302438D01*
X168603334Y-26302438D02*
X168508096Y-26159580D01*
X168508096Y-26159580D02*
X168460477Y-26111961D01*
D11*
X69252386Y-20895539D02*
X69200005Y-20947920D01*
X69200005Y-20947920D02*
X69042862Y-21000300D01*
X69042862Y-21000300D02*
X68938100Y-21000300D01*
X68938100Y-21000300D02*
X68780957Y-20947920D01*
X68780957Y-20947920D02*
X68676195Y-20843158D01*
X68676195Y-20843158D02*
X68623814Y-20738396D01*
X68623814Y-20738396D02*
X68571433Y-20528872D01*
X68571433Y-20528872D02*
X68571433Y-20371729D01*
X68571433Y-20371729D02*
X68623814Y-20162205D01*
X68623814Y-20162205D02*
X68676195Y-20057443D01*
X68676195Y-20057443D02*
X68780957Y-19952681D01*
X68780957Y-19952681D02*
X68938100Y-19900300D01*
X68938100Y-19900300D02*
X69042862Y-19900300D01*
X69042862Y-19900300D02*
X69200005Y-19952681D01*
X69200005Y-19952681D02*
X69252386Y-20005062D01*
X69880957Y-21000300D02*
X69776195Y-20947920D01*
X69776195Y-20947920D02*
X69723814Y-20895539D01*
X69723814Y-20895539D02*
X69671433Y-20790777D01*
X69671433Y-20790777D02*
X69671433Y-20476491D01*
X69671433Y-20476491D02*
X69723814Y-20371729D01*
X69723814Y-20371729D02*
X69776195Y-20319348D01*
X69776195Y-20319348D02*
X69880957Y-20266967D01*
X69880957Y-20266967D02*
X70038100Y-20266967D01*
X70038100Y-20266967D02*
X70142862Y-20319348D01*
X70142862Y-20319348D02*
X70195243Y-20371729D01*
X70195243Y-20371729D02*
X70247624Y-20476491D01*
X70247624Y-20476491D02*
X70247624Y-20790777D01*
X70247624Y-20790777D02*
X70195243Y-20895539D01*
X70195243Y-20895539D02*
X70142862Y-20947920D01*
X70142862Y-20947920D02*
X70038100Y-21000300D01*
X70038100Y-21000300D02*
X69880957Y-21000300D01*
X70719052Y-21000300D02*
X70719052Y-20266967D01*
X70719052Y-20371729D02*
X70771433Y-20319348D01*
X70771433Y-20319348D02*
X70876195Y-20266967D01*
X70876195Y-20266967D02*
X71033338Y-20266967D01*
X71033338Y-20266967D02*
X71138100Y-20319348D01*
X71138100Y-20319348D02*
X71190481Y-20424110D01*
X71190481Y-20424110D02*
X71190481Y-21000300D01*
X71190481Y-20424110D02*
X71242862Y-20319348D01*
X71242862Y-20319348D02*
X71347624Y-20266967D01*
X71347624Y-20266967D02*
X71504767Y-20266967D01*
X71504767Y-20266967D02*
X71609528Y-20319348D01*
X71609528Y-20319348D02*
X71661909Y-20424110D01*
X71661909Y-20424110D02*
X71661909Y-21000300D01*
X72185719Y-20266967D02*
X72185719Y-21366967D01*
X72185719Y-20319348D02*
X72290481Y-20266967D01*
X72290481Y-20266967D02*
X72500005Y-20266967D01*
X72500005Y-20266967D02*
X72604767Y-20319348D01*
X72604767Y-20319348D02*
X72657148Y-20371729D01*
X72657148Y-20371729D02*
X72709529Y-20476491D01*
X72709529Y-20476491D02*
X72709529Y-20790777D01*
X72709529Y-20790777D02*
X72657148Y-20895539D01*
X72657148Y-20895539D02*
X72604767Y-20947920D01*
X72604767Y-20947920D02*
X72500005Y-21000300D01*
X72500005Y-21000300D02*
X72290481Y-21000300D01*
X72290481Y-21000300D02*
X72185719Y-20947920D01*
X73652386Y-21000300D02*
X73652386Y-20424110D01*
X73652386Y-20424110D02*
X73600005Y-20319348D01*
X73600005Y-20319348D02*
X73495243Y-20266967D01*
X73495243Y-20266967D02*
X73285719Y-20266967D01*
X73285719Y-20266967D02*
X73180957Y-20319348D01*
X73652386Y-20947920D02*
X73547624Y-21000300D01*
X73547624Y-21000300D02*
X73285719Y-21000300D01*
X73285719Y-21000300D02*
X73180957Y-20947920D01*
X73180957Y-20947920D02*
X73128576Y-20843158D01*
X73128576Y-20843158D02*
X73128576Y-20738396D01*
X73128576Y-20738396D02*
X73180957Y-20633634D01*
X73180957Y-20633634D02*
X73285719Y-20581253D01*
X73285719Y-20581253D02*
X73547624Y-20581253D01*
X73547624Y-20581253D02*
X73652386Y-20528872D01*
X74647624Y-20947920D02*
X74542862Y-21000300D01*
X74542862Y-21000300D02*
X74333338Y-21000300D01*
X74333338Y-21000300D02*
X74228576Y-20947920D01*
X74228576Y-20947920D02*
X74176195Y-20895539D01*
X74176195Y-20895539D02*
X74123814Y-20790777D01*
X74123814Y-20790777D02*
X74123814Y-20476491D01*
X74123814Y-20476491D02*
X74176195Y-20371729D01*
X74176195Y-20371729D02*
X74228576Y-20319348D01*
X74228576Y-20319348D02*
X74333338Y-20266967D01*
X74333338Y-20266967D02*
X74542862Y-20266967D01*
X74542862Y-20266967D02*
X74647624Y-20319348D01*
X74961909Y-20266967D02*
X75380957Y-20266967D01*
X75119052Y-19900300D02*
X75119052Y-20843158D01*
X75119052Y-20843158D02*
X75171433Y-20947920D01*
X75171433Y-20947920D02*
X75276195Y-21000300D01*
X75276195Y-21000300D02*
X75380957Y-21000300D01*
X76114290Y-20424110D02*
X75747623Y-20424110D01*
X75747623Y-21000300D02*
X75747623Y-19900300D01*
X75747623Y-19900300D02*
X76271433Y-19900300D01*
X76847623Y-21000300D02*
X76742861Y-20947920D01*
X76742861Y-20947920D02*
X76690480Y-20843158D01*
X76690480Y-20843158D02*
X76690480Y-19900300D01*
X77738099Y-21000300D02*
X77738099Y-20424110D01*
X77738099Y-20424110D02*
X77685718Y-20319348D01*
X77685718Y-20319348D02*
X77580956Y-20266967D01*
X77580956Y-20266967D02*
X77371432Y-20266967D01*
X77371432Y-20266967D02*
X77266670Y-20319348D01*
X77738099Y-20947920D02*
X77633337Y-21000300D01*
X77633337Y-21000300D02*
X77371432Y-21000300D01*
X77371432Y-21000300D02*
X77266670Y-20947920D01*
X77266670Y-20947920D02*
X77214289Y-20843158D01*
X77214289Y-20843158D02*
X77214289Y-20738396D01*
X77214289Y-20738396D02*
X77266670Y-20633634D01*
X77266670Y-20633634D02*
X77371432Y-20581253D01*
X77371432Y-20581253D02*
X77633337Y-20581253D01*
X77633337Y-20581253D02*
X77738099Y-20528872D01*
X78209527Y-20947920D02*
X78314289Y-21000300D01*
X78314289Y-21000300D02*
X78523813Y-21000300D01*
X78523813Y-21000300D02*
X78628575Y-20947920D01*
X78628575Y-20947920D02*
X78680956Y-20843158D01*
X78680956Y-20843158D02*
X78680956Y-20790777D01*
X78680956Y-20790777D02*
X78628575Y-20686015D01*
X78628575Y-20686015D02*
X78523813Y-20633634D01*
X78523813Y-20633634D02*
X78366670Y-20633634D01*
X78366670Y-20633634D02*
X78261908Y-20581253D01*
X78261908Y-20581253D02*
X78209527Y-20476491D01*
X78209527Y-20476491D02*
X78209527Y-20424110D01*
X78209527Y-20424110D02*
X78261908Y-20319348D01*
X78261908Y-20319348D02*
X78366670Y-20266967D01*
X78366670Y-20266967D02*
X78523813Y-20266967D01*
X78523813Y-20266967D02*
X78628575Y-20319348D01*
X79152384Y-21000300D02*
X79152384Y-19900300D01*
X79623813Y-21000300D02*
X79623813Y-20424110D01*
X79623813Y-20424110D02*
X79571432Y-20319348D01*
X79571432Y-20319348D02*
X79466670Y-20266967D01*
X79466670Y-20266967D02*
X79309527Y-20266967D01*
X79309527Y-20266967D02*
X79204765Y-20319348D01*
X79204765Y-20319348D02*
X79152384Y-20371729D01*
X81771432Y-19847920D02*
X80828574Y-21262205D01*
X82819050Y-19900300D02*
X83447622Y-19900300D01*
X83133336Y-21000300D02*
X83133336Y-19900300D01*
X83814288Y-21000300D02*
X83814288Y-20266967D01*
X83814288Y-20476491D02*
X83866669Y-20371729D01*
X83866669Y-20371729D02*
X83919050Y-20319348D01*
X83919050Y-20319348D02*
X84023812Y-20266967D01*
X84023812Y-20266967D02*
X84128574Y-20266967D01*
X84966669Y-20266967D02*
X84966669Y-21000300D01*
X84495240Y-20266967D02*
X84495240Y-20843158D01*
X84495240Y-20843158D02*
X84547621Y-20947920D01*
X84547621Y-20947920D02*
X84652383Y-21000300D01*
X84652383Y-21000300D02*
X84809526Y-21000300D01*
X84809526Y-21000300D02*
X84914288Y-20947920D01*
X84914288Y-20947920D02*
X84966669Y-20895539D01*
X85909526Y-20947920D02*
X85804764Y-21000300D01*
X85804764Y-21000300D02*
X85595240Y-21000300D01*
X85595240Y-21000300D02*
X85490478Y-20947920D01*
X85490478Y-20947920D02*
X85438097Y-20843158D01*
X85438097Y-20843158D02*
X85438097Y-20424110D01*
X85438097Y-20424110D02*
X85490478Y-20319348D01*
X85490478Y-20319348D02*
X85595240Y-20266967D01*
X85595240Y-20266967D02*
X85804764Y-20266967D01*
X85804764Y-20266967D02*
X85909526Y-20319348D01*
X85909526Y-20319348D02*
X85961907Y-20424110D01*
X85961907Y-20424110D02*
X85961907Y-20528872D01*
X85961907Y-20528872D02*
X85438097Y-20633634D01*
X87271430Y-21000300D02*
X87271430Y-19900300D01*
X87795240Y-21000300D02*
X87795240Y-19900300D01*
X87795240Y-19900300D02*
X88057145Y-19900300D01*
X88057145Y-19900300D02*
X88214288Y-19952681D01*
X88214288Y-19952681D02*
X88319050Y-20057443D01*
X88319050Y-20057443D02*
X88371431Y-20162205D01*
X88371431Y-20162205D02*
X88423812Y-20371729D01*
X88423812Y-20371729D02*
X88423812Y-20528872D01*
X88423812Y-20528872D02*
X88371431Y-20738396D01*
X88371431Y-20738396D02*
X88319050Y-20843158D01*
X88319050Y-20843158D02*
X88214288Y-20947920D01*
X88214288Y-20947920D02*
X88057145Y-21000300D01*
X88057145Y-21000300D02*
X87795240Y-21000300D01*
X88895240Y-20424110D02*
X89261907Y-20424110D01*
X89419050Y-21000300D02*
X88895240Y-21000300D01*
X88895240Y-21000300D02*
X88895240Y-19900300D01*
X88895240Y-19900300D02*
X89419050Y-19900300D01*
X90885716Y-21000300D02*
X90780954Y-20947920D01*
X90780954Y-20947920D02*
X90728573Y-20895539D01*
X90728573Y-20895539D02*
X90676192Y-20790777D01*
X90676192Y-20790777D02*
X90676192Y-20476491D01*
X90676192Y-20476491D02*
X90728573Y-20371729D01*
X90728573Y-20371729D02*
X90780954Y-20319348D01*
X90780954Y-20319348D02*
X90885716Y-20266967D01*
X90885716Y-20266967D02*
X91042859Y-20266967D01*
X91042859Y-20266967D02*
X91147621Y-20319348D01*
X91147621Y-20319348D02*
X91200002Y-20371729D01*
X91200002Y-20371729D02*
X91252383Y-20476491D01*
X91252383Y-20476491D02*
X91252383Y-20790777D01*
X91252383Y-20790777D02*
X91200002Y-20895539D01*
X91200002Y-20895539D02*
X91147621Y-20947920D01*
X91147621Y-20947920D02*
X91042859Y-21000300D01*
X91042859Y-21000300D02*
X90885716Y-21000300D01*
X91723811Y-20266967D02*
X91723811Y-21000300D01*
X91723811Y-20371729D02*
X91776192Y-20319348D01*
X91776192Y-20319348D02*
X91880954Y-20266967D01*
X91880954Y-20266967D02*
X92038097Y-20266967D01*
X92038097Y-20266967D02*
X92142859Y-20319348D01*
X92142859Y-20319348D02*
X92195240Y-20424110D01*
X92195240Y-20424110D02*
X92195240Y-21000300D01*
X93557144Y-20266967D02*
X93557144Y-21366967D01*
X93557144Y-20319348D02*
X93661906Y-20266967D01*
X93661906Y-20266967D02*
X93871430Y-20266967D01*
X93871430Y-20266967D02*
X93976192Y-20319348D01*
X93976192Y-20319348D02*
X94028573Y-20371729D01*
X94028573Y-20371729D02*
X94080954Y-20476491D01*
X94080954Y-20476491D02*
X94080954Y-20790777D01*
X94080954Y-20790777D02*
X94028573Y-20895539D01*
X94028573Y-20895539D02*
X93976192Y-20947920D01*
X93976192Y-20947920D02*
X93871430Y-21000300D01*
X93871430Y-21000300D02*
X93661906Y-21000300D01*
X93661906Y-21000300D02*
X93557144Y-20947920D01*
X94709525Y-21000300D02*
X94604763Y-20947920D01*
X94604763Y-20947920D02*
X94552382Y-20895539D01*
X94552382Y-20895539D02*
X94500001Y-20790777D01*
X94500001Y-20790777D02*
X94500001Y-20476491D01*
X94500001Y-20476491D02*
X94552382Y-20371729D01*
X94552382Y-20371729D02*
X94604763Y-20319348D01*
X94604763Y-20319348D02*
X94709525Y-20266967D01*
X94709525Y-20266967D02*
X94866668Y-20266967D01*
X94866668Y-20266967D02*
X94971430Y-20319348D01*
X94971430Y-20319348D02*
X95023811Y-20371729D01*
X95023811Y-20371729D02*
X95076192Y-20476491D01*
X95076192Y-20476491D02*
X95076192Y-20790777D01*
X95076192Y-20790777D02*
X95023811Y-20895539D01*
X95023811Y-20895539D02*
X94971430Y-20947920D01*
X94971430Y-20947920D02*
X94866668Y-21000300D01*
X94866668Y-21000300D02*
X94709525Y-21000300D01*
X95547620Y-21000300D02*
X95547620Y-20266967D01*
X95547620Y-20476491D02*
X95600001Y-20371729D01*
X95600001Y-20371729D02*
X95652382Y-20319348D01*
X95652382Y-20319348D02*
X95757144Y-20266967D01*
X95757144Y-20266967D02*
X95861906Y-20266967D01*
X96071429Y-20266967D02*
X96490477Y-20266967D01*
X96228572Y-19900300D02*
X96228572Y-20843158D01*
X96228572Y-20843158D02*
X96280953Y-20947920D01*
X96280953Y-20947920D02*
X96385715Y-21000300D01*
X96385715Y-21000300D02*
X96490477Y-21000300D01*
X96804762Y-20947920D02*
X96909524Y-21000300D01*
X96909524Y-21000300D02*
X97119048Y-21000300D01*
X97119048Y-21000300D02*
X97223810Y-20947920D01*
X97223810Y-20947920D02*
X97276191Y-20843158D01*
X97276191Y-20843158D02*
X97276191Y-20790777D01*
X97276191Y-20790777D02*
X97223810Y-20686015D01*
X97223810Y-20686015D02*
X97119048Y-20633634D01*
X97119048Y-20633634D02*
X96961905Y-20633634D01*
X96961905Y-20633634D02*
X96857143Y-20581253D01*
X96857143Y-20581253D02*
X96804762Y-20476491D01*
X96804762Y-20476491D02*
X96804762Y-20424110D01*
X96804762Y-20424110D02*
X96857143Y-20319348D01*
X96857143Y-20319348D02*
X96961905Y-20266967D01*
X96961905Y-20266967D02*
X97119048Y-20266967D01*
X97119048Y-20266967D02*
X97223810Y-20319348D01*
X98585714Y-21000300D02*
X98585714Y-19900300D01*
X98585714Y-19900300D02*
X99004762Y-19900300D01*
X99004762Y-19900300D02*
X99109524Y-19952681D01*
X99109524Y-19952681D02*
X99161905Y-20005062D01*
X99161905Y-20005062D02*
X99214286Y-20109824D01*
X99214286Y-20109824D02*
X99214286Y-20266967D01*
X99214286Y-20266967D02*
X99161905Y-20371729D01*
X99161905Y-20371729D02*
X99109524Y-20424110D01*
X99109524Y-20424110D02*
X99004762Y-20476491D01*
X99004762Y-20476491D02*
X98585714Y-20476491D01*
X99842857Y-20371729D02*
X99738095Y-20319348D01*
X99738095Y-20319348D02*
X99685714Y-20266967D01*
X99685714Y-20266967D02*
X99633333Y-20162205D01*
X99633333Y-20162205D02*
X99633333Y-20109824D01*
X99633333Y-20109824D02*
X99685714Y-20005062D01*
X99685714Y-20005062D02*
X99738095Y-19952681D01*
X99738095Y-19952681D02*
X99842857Y-19900300D01*
X99842857Y-19900300D02*
X100052381Y-19900300D01*
X100052381Y-19900300D02*
X100157143Y-19952681D01*
X100157143Y-19952681D02*
X100209524Y-20005062D01*
X100209524Y-20005062D02*
X100261905Y-20109824D01*
X100261905Y-20109824D02*
X100261905Y-20162205D01*
X100261905Y-20162205D02*
X100209524Y-20266967D01*
X100209524Y-20266967D02*
X100157143Y-20319348D01*
X100157143Y-20319348D02*
X100052381Y-20371729D01*
X100052381Y-20371729D02*
X99842857Y-20371729D01*
X99842857Y-20371729D02*
X99738095Y-20424110D01*
X99738095Y-20424110D02*
X99685714Y-20476491D01*
X99685714Y-20476491D02*
X99633333Y-20581253D01*
X99633333Y-20581253D02*
X99633333Y-20790777D01*
X99633333Y-20790777D02*
X99685714Y-20895539D01*
X99685714Y-20895539D02*
X99738095Y-20947920D01*
X99738095Y-20947920D02*
X99842857Y-21000300D01*
X99842857Y-21000300D02*
X100052381Y-21000300D01*
X100052381Y-21000300D02*
X100157143Y-20947920D01*
X100157143Y-20947920D02*
X100209524Y-20895539D01*
X100209524Y-20895539D02*
X100261905Y-20790777D01*
X100261905Y-20790777D02*
X100261905Y-20581253D01*
X100261905Y-20581253D02*
X100209524Y-20476491D01*
X100209524Y-20476491D02*
X100157143Y-20424110D01*
X100157143Y-20424110D02*
X100052381Y-20371729D01*
X101885714Y-21419348D02*
X101833333Y-21366967D01*
X101833333Y-21366967D02*
X101728571Y-21209824D01*
X101728571Y-21209824D02*
X101676190Y-21105062D01*
X101676190Y-21105062D02*
X101623809Y-20947920D01*
X101623809Y-20947920D02*
X101571428Y-20686015D01*
X101571428Y-20686015D02*
X101571428Y-20476491D01*
X101571428Y-20476491D02*
X101623809Y-20214586D01*
X101623809Y-20214586D02*
X101676190Y-20057443D01*
X101676190Y-20057443D02*
X101728571Y-19952681D01*
X101728571Y-19952681D02*
X101833333Y-19795539D01*
X101833333Y-19795539D02*
X101885714Y-19743158D01*
X102461904Y-21000300D02*
X102357142Y-20947920D01*
X102357142Y-20947920D02*
X102304761Y-20843158D01*
X102304761Y-20843158D02*
X102304761Y-19900300D01*
X103352380Y-21000300D02*
X103352380Y-20424110D01*
X103352380Y-20424110D02*
X103299999Y-20319348D01*
X103299999Y-20319348D02*
X103195237Y-20266967D01*
X103195237Y-20266967D02*
X102985713Y-20266967D01*
X102985713Y-20266967D02*
X102880951Y-20319348D01*
X103352380Y-20947920D02*
X103247618Y-21000300D01*
X103247618Y-21000300D02*
X102985713Y-21000300D01*
X102985713Y-21000300D02*
X102880951Y-20947920D01*
X102880951Y-20947920D02*
X102828570Y-20843158D01*
X102828570Y-20843158D02*
X102828570Y-20738396D01*
X102828570Y-20738396D02*
X102880951Y-20633634D01*
X102880951Y-20633634D02*
X102985713Y-20581253D01*
X102985713Y-20581253D02*
X103247618Y-20581253D01*
X103247618Y-20581253D02*
X103352380Y-20528872D01*
X103719046Y-20266967D02*
X104138094Y-20266967D01*
X103876189Y-19900300D02*
X103876189Y-20843158D01*
X103876189Y-20843158D02*
X103928570Y-20947920D01*
X103928570Y-20947920D02*
X104033332Y-21000300D01*
X104033332Y-21000300D02*
X104138094Y-21000300D01*
X104976189Y-20947920D02*
X104871427Y-21000300D01*
X104871427Y-21000300D02*
X104661903Y-21000300D01*
X104661903Y-21000300D02*
X104557141Y-20947920D01*
X104557141Y-20947920D02*
X104504760Y-20895539D01*
X104504760Y-20895539D02*
X104452379Y-20790777D01*
X104452379Y-20790777D02*
X104452379Y-20476491D01*
X104452379Y-20476491D02*
X104504760Y-20371729D01*
X104504760Y-20371729D02*
X104557141Y-20319348D01*
X104557141Y-20319348D02*
X104661903Y-20266967D01*
X104661903Y-20266967D02*
X104871427Y-20266967D01*
X104871427Y-20266967D02*
X104976189Y-20319348D01*
X105447617Y-21000300D02*
X105447617Y-19900300D01*
X105919046Y-21000300D02*
X105919046Y-20424110D01*
X105919046Y-20424110D02*
X105866665Y-20319348D01*
X105866665Y-20319348D02*
X105761903Y-20266967D01*
X105761903Y-20266967D02*
X105604760Y-20266967D01*
X105604760Y-20266967D02*
X105499998Y-20319348D01*
X105499998Y-20319348D02*
X105447617Y-20371729D01*
X106338093Y-21419348D02*
X106390474Y-21366967D01*
X106390474Y-21366967D02*
X106495236Y-21209824D01*
X106495236Y-21209824D02*
X106547617Y-21105062D01*
X106547617Y-21105062D02*
X106599998Y-20947920D01*
X106599998Y-20947920D02*
X106652379Y-20686015D01*
X106652379Y-20686015D02*
X106652379Y-20476491D01*
X106652379Y-20476491D02*
X106599998Y-20214586D01*
X106599998Y-20214586D02*
X106547617Y-20057443D01*
X106547617Y-20057443D02*
X106495236Y-19952681D01*
X106495236Y-19952681D02*
X106390474Y-19795539D01*
X106390474Y-19795539D02*
X106338093Y-19743158D01*
X108014283Y-20581253D02*
X108852379Y-20581253D01*
X108433331Y-21000300D02*
X108433331Y-20162205D01*
X110214283Y-21000300D02*
X110214283Y-19900300D01*
X110214283Y-19900300D02*
X110633331Y-19900300D01*
X110633331Y-19900300D02*
X110738093Y-19952681D01*
X110738093Y-19952681D02*
X110790474Y-20005062D01*
X110790474Y-20005062D02*
X110842855Y-20109824D01*
X110842855Y-20109824D02*
X110842855Y-20266967D01*
X110842855Y-20266967D02*
X110790474Y-20371729D01*
X110790474Y-20371729D02*
X110738093Y-20424110D01*
X110738093Y-20424110D02*
X110633331Y-20476491D01*
X110633331Y-20476491D02*
X110214283Y-20476491D01*
X111366664Y-21000300D02*
X111576188Y-21000300D01*
X111576188Y-21000300D02*
X111680950Y-20947920D01*
X111680950Y-20947920D02*
X111733331Y-20895539D01*
X111733331Y-20895539D02*
X111838093Y-20738396D01*
X111838093Y-20738396D02*
X111890474Y-20528872D01*
X111890474Y-20528872D02*
X111890474Y-20109824D01*
X111890474Y-20109824D02*
X111838093Y-20005062D01*
X111838093Y-20005062D02*
X111785712Y-19952681D01*
X111785712Y-19952681D02*
X111680950Y-19900300D01*
X111680950Y-19900300D02*
X111471426Y-19900300D01*
X111471426Y-19900300D02*
X111366664Y-19952681D01*
X111366664Y-19952681D02*
X111314283Y-20005062D01*
X111314283Y-20005062D02*
X111261902Y-20109824D01*
X111261902Y-20109824D02*
X111261902Y-20371729D01*
X111261902Y-20371729D02*
X111314283Y-20476491D01*
X111314283Y-20476491D02*
X111366664Y-20528872D01*
X111366664Y-20528872D02*
X111471426Y-20581253D01*
X111471426Y-20581253D02*
X111680950Y-20581253D01*
X111680950Y-20581253D02*
X111785712Y-20528872D01*
X111785712Y-20528872D02*
X111838093Y-20476491D01*
X111838093Y-20476491D02*
X111890474Y-20371729D01*
X113514283Y-21419348D02*
X113461902Y-21366967D01*
X113461902Y-21366967D02*
X113357140Y-21209824D01*
X113357140Y-21209824D02*
X113304759Y-21105062D01*
X113304759Y-21105062D02*
X113252378Y-20947920D01*
X113252378Y-20947920D02*
X113199997Y-20686015D01*
X113199997Y-20686015D02*
X113199997Y-20476491D01*
X113199997Y-20476491D02*
X113252378Y-20214586D01*
X113252378Y-20214586D02*
X113304759Y-20057443D01*
X113304759Y-20057443D02*
X113357140Y-19952681D01*
X113357140Y-19952681D02*
X113461902Y-19795539D01*
X113461902Y-19795539D02*
X113514283Y-19743158D01*
X114404759Y-21000300D02*
X114404759Y-19900300D01*
X114404759Y-20947920D02*
X114299997Y-21000300D01*
X114299997Y-21000300D02*
X114090473Y-21000300D01*
X114090473Y-21000300D02*
X113985711Y-20947920D01*
X113985711Y-20947920D02*
X113933330Y-20895539D01*
X113933330Y-20895539D02*
X113880949Y-20790777D01*
X113880949Y-20790777D02*
X113880949Y-20476491D01*
X113880949Y-20476491D02*
X113933330Y-20371729D01*
X113933330Y-20371729D02*
X113985711Y-20319348D01*
X113985711Y-20319348D02*
X114090473Y-20266967D01*
X114090473Y-20266967D02*
X114299997Y-20266967D01*
X114299997Y-20266967D02*
X114404759Y-20319348D01*
X115399997Y-21000300D02*
X115399997Y-20424110D01*
X115399997Y-20424110D02*
X115347616Y-20319348D01*
X115347616Y-20319348D02*
X115242854Y-20266967D01*
X115242854Y-20266967D02*
X115033330Y-20266967D01*
X115033330Y-20266967D02*
X114928568Y-20319348D01*
X115399997Y-20947920D02*
X115295235Y-21000300D01*
X115295235Y-21000300D02*
X115033330Y-21000300D01*
X115033330Y-21000300D02*
X114928568Y-20947920D01*
X114928568Y-20947920D02*
X114876187Y-20843158D01*
X114876187Y-20843158D02*
X114876187Y-20738396D01*
X114876187Y-20738396D02*
X114928568Y-20633634D01*
X114928568Y-20633634D02*
X115033330Y-20581253D01*
X115033330Y-20581253D02*
X115295235Y-20581253D01*
X115295235Y-20581253D02*
X115399997Y-20528872D01*
X115766663Y-20266967D02*
X116185711Y-20266967D01*
X115923806Y-19900300D02*
X115923806Y-20843158D01*
X115923806Y-20843158D02*
X115976187Y-20947920D01*
X115976187Y-20947920D02*
X116080949Y-21000300D01*
X116080949Y-21000300D02*
X116185711Y-21000300D01*
X117023806Y-21000300D02*
X117023806Y-20424110D01*
X117023806Y-20424110D02*
X116971425Y-20319348D01*
X116971425Y-20319348D02*
X116866663Y-20266967D01*
X116866663Y-20266967D02*
X116657139Y-20266967D01*
X116657139Y-20266967D02*
X116552377Y-20319348D01*
X117023806Y-20947920D02*
X116919044Y-21000300D01*
X116919044Y-21000300D02*
X116657139Y-21000300D01*
X116657139Y-21000300D02*
X116552377Y-20947920D01*
X116552377Y-20947920D02*
X116499996Y-20843158D01*
X116499996Y-20843158D02*
X116499996Y-20738396D01*
X116499996Y-20738396D02*
X116552377Y-20633634D01*
X116552377Y-20633634D02*
X116657139Y-20581253D01*
X116657139Y-20581253D02*
X116919044Y-20581253D01*
X116919044Y-20581253D02*
X117023806Y-20528872D01*
X117442853Y-21419348D02*
X117495234Y-21366967D01*
X117495234Y-21366967D02*
X117599996Y-21209824D01*
X117599996Y-21209824D02*
X117652377Y-21105062D01*
X117652377Y-21105062D02*
X117704758Y-20947920D01*
X117704758Y-20947920D02*
X117757139Y-20686015D01*
X117757139Y-20686015D02*
X117757139Y-20476491D01*
X117757139Y-20476491D02*
X117704758Y-20214586D01*
X117704758Y-20214586D02*
X117652377Y-20057443D01*
X117652377Y-20057443D02*
X117599996Y-19952681D01*
X117599996Y-19952681D02*
X117495234Y-19795539D01*
X117495234Y-19795539D02*
X117442853Y-19743158D01*
X120742852Y-20005062D02*
X120795233Y-19952681D01*
X120795233Y-19952681D02*
X120899995Y-19900300D01*
X120899995Y-19900300D02*
X121161900Y-19900300D01*
X121161900Y-19900300D02*
X121266662Y-19952681D01*
X121266662Y-19952681D02*
X121319043Y-20005062D01*
X121319043Y-20005062D02*
X121371424Y-20109824D01*
X121371424Y-20109824D02*
X121371424Y-20214586D01*
X121371424Y-20214586D02*
X121319043Y-20371729D01*
X121319043Y-20371729D02*
X120690471Y-21000300D01*
X120690471Y-21000300D02*
X121371424Y-21000300D01*
X122052376Y-19900300D02*
X122157138Y-19900300D01*
X122157138Y-19900300D02*
X122261900Y-19952681D01*
X122261900Y-19952681D02*
X122314281Y-20005062D01*
X122314281Y-20005062D02*
X122366662Y-20109824D01*
X122366662Y-20109824D02*
X122419043Y-20319348D01*
X122419043Y-20319348D02*
X122419043Y-20581253D01*
X122419043Y-20581253D02*
X122366662Y-20790777D01*
X122366662Y-20790777D02*
X122314281Y-20895539D01*
X122314281Y-20895539D02*
X122261900Y-20947920D01*
X122261900Y-20947920D02*
X122157138Y-21000300D01*
X122157138Y-21000300D02*
X122052376Y-21000300D01*
X122052376Y-21000300D02*
X121947614Y-20947920D01*
X121947614Y-20947920D02*
X121895233Y-20895539D01*
X121895233Y-20895539D02*
X121842852Y-20790777D01*
X121842852Y-20790777D02*
X121790471Y-20581253D01*
X121790471Y-20581253D02*
X121790471Y-20319348D01*
X121790471Y-20319348D02*
X121842852Y-20109824D01*
X121842852Y-20109824D02*
X121895233Y-20005062D01*
X121895233Y-20005062D02*
X121947614Y-19952681D01*
X121947614Y-19952681D02*
X122052376Y-19900300D01*
X122838090Y-20005062D02*
X122890471Y-19952681D01*
X122890471Y-19952681D02*
X122995233Y-19900300D01*
X122995233Y-19900300D02*
X123257138Y-19900300D01*
X123257138Y-19900300D02*
X123361900Y-19952681D01*
X123361900Y-19952681D02*
X123414281Y-20005062D01*
X123414281Y-20005062D02*
X123466662Y-20109824D01*
X123466662Y-20109824D02*
X123466662Y-20214586D01*
X123466662Y-20214586D02*
X123414281Y-20371729D01*
X123414281Y-20371729D02*
X122785709Y-21000300D01*
X122785709Y-21000300D02*
X123466662Y-21000300D01*
X124409519Y-19900300D02*
X124199995Y-19900300D01*
X124199995Y-19900300D02*
X124095233Y-19952681D01*
X124095233Y-19952681D02*
X124042852Y-20005062D01*
X124042852Y-20005062D02*
X123938090Y-20162205D01*
X123938090Y-20162205D02*
X123885709Y-20371729D01*
X123885709Y-20371729D02*
X123885709Y-20790777D01*
X123885709Y-20790777D02*
X123938090Y-20895539D01*
X123938090Y-20895539D02*
X123990471Y-20947920D01*
X123990471Y-20947920D02*
X124095233Y-21000300D01*
X124095233Y-21000300D02*
X124304757Y-21000300D01*
X124304757Y-21000300D02*
X124409519Y-20947920D01*
X124409519Y-20947920D02*
X124461900Y-20895539D01*
X124461900Y-20895539D02*
X124514281Y-20790777D01*
X124514281Y-20790777D02*
X124514281Y-20528872D01*
X124514281Y-20528872D02*
X124461900Y-20424110D01*
X124461900Y-20424110D02*
X124409519Y-20371729D01*
X124409519Y-20371729D02*
X124304757Y-20319348D01*
X124304757Y-20319348D02*
X124095233Y-20319348D01*
X124095233Y-20319348D02*
X123990471Y-20371729D01*
X123990471Y-20371729D02*
X123938090Y-20424110D01*
X123938090Y-20424110D02*
X123885709Y-20528872D01*
X124985709Y-20581253D02*
X125823805Y-20581253D01*
X126557138Y-19900300D02*
X126661900Y-19900300D01*
X126661900Y-19900300D02*
X126766662Y-19952681D01*
X126766662Y-19952681D02*
X126819043Y-20005062D01*
X126819043Y-20005062D02*
X126871424Y-20109824D01*
X126871424Y-20109824D02*
X126923805Y-20319348D01*
X126923805Y-20319348D02*
X126923805Y-20581253D01*
X126923805Y-20581253D02*
X126871424Y-20790777D01*
X126871424Y-20790777D02*
X126819043Y-20895539D01*
X126819043Y-20895539D02*
X126766662Y-20947920D01*
X126766662Y-20947920D02*
X126661900Y-21000300D01*
X126661900Y-21000300D02*
X126557138Y-21000300D01*
X126557138Y-21000300D02*
X126452376Y-20947920D01*
X126452376Y-20947920D02*
X126399995Y-20895539D01*
X126399995Y-20895539D02*
X126347614Y-20790777D01*
X126347614Y-20790777D02*
X126295233Y-20581253D01*
X126295233Y-20581253D02*
X126295233Y-20319348D01*
X126295233Y-20319348D02*
X126347614Y-20109824D01*
X126347614Y-20109824D02*
X126399995Y-20005062D01*
X126399995Y-20005062D02*
X126452376Y-19952681D01*
X126452376Y-19952681D02*
X126557138Y-19900300D01*
X127447614Y-21000300D02*
X127657138Y-21000300D01*
X127657138Y-21000300D02*
X127761900Y-20947920D01*
X127761900Y-20947920D02*
X127814281Y-20895539D01*
X127814281Y-20895539D02*
X127919043Y-20738396D01*
X127919043Y-20738396D02*
X127971424Y-20528872D01*
X127971424Y-20528872D02*
X127971424Y-20109824D01*
X127971424Y-20109824D02*
X127919043Y-20005062D01*
X127919043Y-20005062D02*
X127866662Y-19952681D01*
X127866662Y-19952681D02*
X127761900Y-19900300D01*
X127761900Y-19900300D02*
X127552376Y-19900300D01*
X127552376Y-19900300D02*
X127447614Y-19952681D01*
X127447614Y-19952681D02*
X127395233Y-20005062D01*
X127395233Y-20005062D02*
X127342852Y-20109824D01*
X127342852Y-20109824D02*
X127342852Y-20371729D01*
X127342852Y-20371729D02*
X127395233Y-20476491D01*
X127395233Y-20476491D02*
X127447614Y-20528872D01*
X127447614Y-20528872D02*
X127552376Y-20581253D01*
X127552376Y-20581253D02*
X127761900Y-20581253D01*
X127761900Y-20581253D02*
X127866662Y-20528872D01*
X127866662Y-20528872D02*
X127919043Y-20476491D01*
X127919043Y-20476491D02*
X127971424Y-20371729D01*
X128442852Y-20581253D02*
X129280948Y-20581253D01*
X129752376Y-20005062D02*
X129804757Y-19952681D01*
X129804757Y-19952681D02*
X129909519Y-19900300D01*
X129909519Y-19900300D02*
X130171424Y-19900300D01*
X130171424Y-19900300D02*
X130276186Y-19952681D01*
X130276186Y-19952681D02*
X130328567Y-20005062D01*
X130328567Y-20005062D02*
X130380948Y-20109824D01*
X130380948Y-20109824D02*
X130380948Y-20214586D01*
X130380948Y-20214586D02*
X130328567Y-20371729D01*
X130328567Y-20371729D02*
X129699995Y-21000300D01*
X129699995Y-21000300D02*
X130380948Y-21000300D01*
X130747614Y-19900300D02*
X131428567Y-19900300D01*
X131428567Y-19900300D02*
X131061900Y-20319348D01*
X131061900Y-20319348D02*
X131219043Y-20319348D01*
X131219043Y-20319348D02*
X131323805Y-20371729D01*
X131323805Y-20371729D02*
X131376186Y-20424110D01*
X131376186Y-20424110D02*
X131428567Y-20528872D01*
X131428567Y-20528872D02*
X131428567Y-20790777D01*
X131428567Y-20790777D02*
X131376186Y-20895539D01*
X131376186Y-20895539D02*
X131323805Y-20947920D01*
X131323805Y-20947920D02*
X131219043Y-21000300D01*
X131219043Y-21000300D02*
X130904757Y-21000300D01*
X130904757Y-21000300D02*
X130799995Y-20947920D01*
X130799995Y-20947920D02*
X130747614Y-20895539D01*
X183333333Y-93800300D02*
X183333333Y-92700300D01*
X183333333Y-92700300D02*
X183752381Y-92700300D01*
X183752381Y-92700300D02*
X183857143Y-92752681D01*
X183857143Y-92752681D02*
X183909524Y-92805062D01*
X183909524Y-92805062D02*
X183961905Y-92909824D01*
X183961905Y-92909824D02*
X183961905Y-93066967D01*
X183961905Y-93066967D02*
X183909524Y-93171729D01*
X183909524Y-93171729D02*
X183857143Y-93224110D01*
X183857143Y-93224110D02*
X183752381Y-93276491D01*
X183752381Y-93276491D02*
X183333333Y-93276491D01*
X184328571Y-92700300D02*
X184590476Y-93800300D01*
X184590476Y-93800300D02*
X184800000Y-93014586D01*
X184800000Y-93014586D02*
X185009524Y-93800300D01*
X185009524Y-93800300D02*
X185271429Y-92700300D01*
X186319048Y-93800300D02*
X185952381Y-93276491D01*
X185690476Y-93800300D02*
X185690476Y-92700300D01*
X185690476Y-92700300D02*
X186109524Y-92700300D01*
X186109524Y-92700300D02*
X186214286Y-92752681D01*
X186214286Y-92752681D02*
X186266667Y-92805062D01*
X186266667Y-92805062D02*
X186319048Y-92909824D01*
X186319048Y-92909824D02*
X186319048Y-93066967D01*
X186319048Y-93066967D02*
X186266667Y-93171729D01*
X186266667Y-93171729D02*
X186214286Y-93224110D01*
X186214286Y-93224110D02*
X186109524Y-93276491D01*
X186109524Y-93276491D02*
X185690476Y-93276491D01*
X183569047Y-103486015D02*
X184092857Y-103486015D01*
X183464285Y-103800300D02*
X183830952Y-102700300D01*
X183830952Y-102700300D02*
X184197619Y-103800300D01*
X185192857Y-103695539D02*
X185140476Y-103747920D01*
X185140476Y-103747920D02*
X184983333Y-103800300D01*
X184983333Y-103800300D02*
X184878571Y-103800300D01*
X184878571Y-103800300D02*
X184721428Y-103747920D01*
X184721428Y-103747920D02*
X184616666Y-103643158D01*
X184616666Y-103643158D02*
X184564285Y-103538396D01*
X184564285Y-103538396D02*
X184511904Y-103328872D01*
X184511904Y-103328872D02*
X184511904Y-103171729D01*
X184511904Y-103171729D02*
X184564285Y-102962205D01*
X184564285Y-102962205D02*
X184616666Y-102857443D01*
X184616666Y-102857443D02*
X184721428Y-102752681D01*
X184721428Y-102752681D02*
X184878571Y-102700300D01*
X184878571Y-102700300D02*
X184983333Y-102700300D01*
X184983333Y-102700300D02*
X185140476Y-102752681D01*
X185140476Y-102752681D02*
X185192857Y-102805062D01*
X185507142Y-102700300D02*
X186135714Y-102700300D01*
X185821428Y-103800300D02*
X185821428Y-102700300D01*
X182966666Y-113800300D02*
X182966666Y-112700300D01*
X182966666Y-112700300D02*
X183228571Y-112700300D01*
X183228571Y-112700300D02*
X183385714Y-112752681D01*
X183385714Y-112752681D02*
X183490476Y-112857443D01*
X183490476Y-112857443D02*
X183542857Y-112962205D01*
X183542857Y-112962205D02*
X183595238Y-113171729D01*
X183595238Y-113171729D02*
X183595238Y-113328872D01*
X183595238Y-113328872D02*
X183542857Y-113538396D01*
X183542857Y-113538396D02*
X183490476Y-113643158D01*
X183490476Y-113643158D02*
X183385714Y-113747920D01*
X183385714Y-113747920D02*
X183228571Y-113800300D01*
X183228571Y-113800300D02*
X182966666Y-113800300D01*
X184014285Y-113486015D02*
X184538095Y-113486015D01*
X183909523Y-113800300D02*
X184276190Y-112700300D01*
X184276190Y-112700300D02*
X184642857Y-113800300D01*
X184957142Y-113747920D02*
X185114285Y-113800300D01*
X185114285Y-113800300D02*
X185376190Y-113800300D01*
X185376190Y-113800300D02*
X185480952Y-113747920D01*
X185480952Y-113747920D02*
X185533333Y-113695539D01*
X185533333Y-113695539D02*
X185585714Y-113590777D01*
X185585714Y-113590777D02*
X185585714Y-113486015D01*
X185585714Y-113486015D02*
X185533333Y-113381253D01*
X185533333Y-113381253D02*
X185480952Y-113328872D01*
X185480952Y-113328872D02*
X185376190Y-113276491D01*
X185376190Y-113276491D02*
X185166666Y-113224110D01*
X185166666Y-113224110D02*
X185061904Y-113171729D01*
X185061904Y-113171729D02*
X185009523Y-113119348D01*
X185009523Y-113119348D02*
X184957142Y-113014586D01*
X184957142Y-113014586D02*
X184957142Y-112909824D01*
X184957142Y-112909824D02*
X185009523Y-112805062D01*
X185009523Y-112805062D02*
X185061904Y-112752681D01*
X185061904Y-112752681D02*
X185166666Y-112700300D01*
X185166666Y-112700300D02*
X185428571Y-112700300D01*
X185428571Y-112700300D02*
X185585714Y-112752681D01*
X186057142Y-113800300D02*
X186057142Y-112700300D01*
X186057142Y-112700300D02*
X186476190Y-112700300D01*
X186476190Y-112700300D02*
X186580952Y-112752681D01*
X186580952Y-112752681D02*
X186633333Y-112805062D01*
X186633333Y-112805062D02*
X186685714Y-112909824D01*
X186685714Y-112909824D02*
X186685714Y-113066967D01*
X186685714Y-113066967D02*
X186633333Y-113171729D01*
X186633333Y-113171729D02*
X186580952Y-113224110D01*
X186580952Y-113224110D02*
X186476190Y-113276491D01*
X186476190Y-113276491D02*
X186057142Y-113276491D01*
D12*
X155042857Y-35545782D02*
X154357143Y-35545782D01*
X154700000Y-35545782D02*
X154700000Y-34345782D01*
X154700000Y-34345782D02*
X154585714Y-34517211D01*
X154585714Y-34517211D02*
X154471429Y-34631497D01*
X154471429Y-34631497D02*
X154357143Y-34688640D01*
D13*
X44170893Y-122428453D02*
X43948341Y-122317177D01*
X43948341Y-122317177D02*
X43837064Y-122205900D01*
X43837064Y-122205900D02*
X43725788Y-121983348D01*
X43725788Y-121983348D02*
X43725788Y-121315691D01*
X43725788Y-121315691D02*
X43837064Y-121093138D01*
X43837064Y-121093138D02*
X43948341Y-120981862D01*
X43948341Y-120981862D02*
X44170893Y-120870586D01*
X44170893Y-120870586D02*
X44504722Y-120870586D01*
X44504722Y-120870586D02*
X44727274Y-120981862D01*
X44727274Y-120981862D02*
X44838550Y-121093138D01*
X44838550Y-121093138D02*
X44949826Y-121315691D01*
X44949826Y-121315691D02*
X44949826Y-121983348D01*
X44949826Y-121983348D02*
X44838550Y-122205900D01*
X44838550Y-122205900D02*
X44727274Y-122317177D01*
X44727274Y-122317177D02*
X44504722Y-122428453D01*
X44504722Y-122428453D02*
X44170893Y-122428453D01*
X45951312Y-120870586D02*
X45951312Y-122428453D01*
X45951312Y-121093138D02*
X46062589Y-120981862D01*
X46062589Y-120981862D02*
X46285141Y-120870586D01*
X46285141Y-120870586D02*
X46618970Y-120870586D01*
X46618970Y-120870586D02*
X46841522Y-120981862D01*
X46841522Y-120981862D02*
X46952798Y-121204415D01*
X46952798Y-121204415D02*
X46952798Y-122428453D01*
X48955770Y-122317177D02*
X48733218Y-122428453D01*
X48733218Y-122428453D02*
X48288113Y-122428453D01*
X48288113Y-122428453D02*
X48065560Y-122317177D01*
X48065560Y-122317177D02*
X47954284Y-122094624D01*
X47954284Y-122094624D02*
X47954284Y-121204415D01*
X47954284Y-121204415D02*
X48065560Y-120981862D01*
X48065560Y-120981862D02*
X48288113Y-120870586D01*
X48288113Y-120870586D02*
X48733218Y-120870586D01*
X48733218Y-120870586D02*
X48955770Y-120981862D01*
X48955770Y-120981862D02*
X49067046Y-121204415D01*
X49067046Y-121204415D02*
X49067046Y-121426967D01*
X49067046Y-121426967D02*
X47954284Y-121649519D01*
X50068531Y-120870586D02*
X50068531Y-123207386D01*
X50068531Y-120981862D02*
X50291084Y-120870586D01*
X50291084Y-120870586D02*
X50736189Y-120870586D01*
X50736189Y-120870586D02*
X50958741Y-120981862D01*
X50958741Y-120981862D02*
X51070017Y-121093138D01*
X51070017Y-121093138D02*
X51181293Y-121315691D01*
X51181293Y-121315691D02*
X51181293Y-121983348D01*
X51181293Y-121983348D02*
X51070017Y-122205900D01*
X51070017Y-122205900D02*
X50958741Y-122317177D01*
X50958741Y-122317177D02*
X50736189Y-122428453D01*
X50736189Y-122428453D02*
X50291084Y-122428453D01*
X50291084Y-122428453D02*
X50068531Y-122317177D01*
X53184265Y-122428453D02*
X53184265Y-121204415D01*
X53184265Y-121204415D02*
X53072989Y-120981862D01*
X53072989Y-120981862D02*
X52850437Y-120870586D01*
X52850437Y-120870586D02*
X52405332Y-120870586D01*
X52405332Y-120870586D02*
X52182779Y-120981862D01*
X53184265Y-122317177D02*
X52961713Y-122428453D01*
X52961713Y-122428453D02*
X52405332Y-122428453D01*
X52405332Y-122428453D02*
X52182779Y-122317177D01*
X52182779Y-122317177D02*
X52071503Y-122094624D01*
X52071503Y-122094624D02*
X52071503Y-121872072D01*
X52071503Y-121872072D02*
X52182779Y-121649519D01*
X52182779Y-121649519D02*
X52405332Y-121538243D01*
X52405332Y-121538243D02*
X52961713Y-121538243D01*
X52961713Y-121538243D02*
X53184265Y-121426967D01*
X55298513Y-120870586D02*
X55298513Y-122762281D01*
X55298513Y-122762281D02*
X55187237Y-122984834D01*
X55187237Y-122984834D02*
X55075961Y-123096110D01*
X55075961Y-123096110D02*
X54853408Y-123207386D01*
X54853408Y-123207386D02*
X54519580Y-123207386D01*
X54519580Y-123207386D02*
X54297027Y-123096110D01*
X55298513Y-122317177D02*
X55075961Y-122428453D01*
X55075961Y-122428453D02*
X54630856Y-122428453D01*
X54630856Y-122428453D02*
X54408304Y-122317177D01*
X54408304Y-122317177D02*
X54297027Y-122205900D01*
X54297027Y-122205900D02*
X54185751Y-121983348D01*
X54185751Y-121983348D02*
X54185751Y-121315691D01*
X54185751Y-121315691D02*
X54297027Y-121093138D01*
X54297027Y-121093138D02*
X54408304Y-120981862D01*
X54408304Y-120981862D02*
X54630856Y-120870586D01*
X54630856Y-120870586D02*
X55075961Y-120870586D01*
X55075961Y-120870586D02*
X55298513Y-120981862D01*
X57301485Y-122317177D02*
X57078933Y-122428453D01*
X57078933Y-122428453D02*
X56633828Y-122428453D01*
X56633828Y-122428453D02*
X56411275Y-122317177D01*
X56411275Y-122317177D02*
X56299999Y-122094624D01*
X56299999Y-122094624D02*
X56299999Y-121204415D01*
X56299999Y-121204415D02*
X56411275Y-120981862D01*
X56411275Y-120981862D02*
X56633828Y-120870586D01*
X56633828Y-120870586D02*
X57078933Y-120870586D01*
X57078933Y-120870586D02*
X57301485Y-120981862D01*
X57301485Y-120981862D02*
X57412761Y-121204415D01*
X57412761Y-121204415D02*
X57412761Y-121426967D01*
X57412761Y-121426967D02*
X56299999Y-121649519D01*
X59415732Y-122317177D02*
X59193180Y-122428453D01*
X59193180Y-122428453D02*
X58748075Y-122428453D01*
X58748075Y-122428453D02*
X58525523Y-122317177D01*
X58525523Y-122317177D02*
X58414246Y-122205900D01*
X58414246Y-122205900D02*
X58302970Y-121983348D01*
X58302970Y-121983348D02*
X58302970Y-121315691D01*
X58302970Y-121315691D02*
X58414246Y-121093138D01*
X58414246Y-121093138D02*
X58525523Y-120981862D01*
X58525523Y-120981862D02*
X58748075Y-120870586D01*
X58748075Y-120870586D02*
X59193180Y-120870586D01*
X59193180Y-120870586D02*
X59415732Y-120981862D01*
X60751046Y-122428453D02*
X60528494Y-122317177D01*
X60528494Y-122317177D02*
X60417217Y-122205900D01*
X60417217Y-122205900D02*
X60305941Y-121983348D01*
X60305941Y-121983348D02*
X60305941Y-121315691D01*
X60305941Y-121315691D02*
X60417217Y-121093138D01*
X60417217Y-121093138D02*
X60528494Y-120981862D01*
X60528494Y-120981862D02*
X60751046Y-120870586D01*
X60751046Y-120870586D02*
X61084875Y-120870586D01*
X61084875Y-120870586D02*
X61307427Y-120981862D01*
X61307427Y-120981862D02*
X61418703Y-121093138D01*
X61418703Y-121093138D02*
X61529979Y-121315691D01*
X61529979Y-121315691D02*
X61529979Y-121983348D01*
X61529979Y-121983348D02*
X61418703Y-122205900D01*
X61418703Y-122205900D02*
X61307427Y-122317177D01*
X61307427Y-122317177D02*
X61084875Y-122428453D01*
X61084875Y-122428453D02*
X60751046Y-122428453D01*
X62531465Y-122428453D02*
X62531465Y-120870586D01*
X62531465Y-121093138D02*
X62642742Y-120981862D01*
X62642742Y-120981862D02*
X62865294Y-120870586D01*
X62865294Y-120870586D02*
X63199123Y-120870586D01*
X63199123Y-120870586D02*
X63421675Y-120981862D01*
X63421675Y-120981862D02*
X63532951Y-121204415D01*
X63532951Y-121204415D02*
X63532951Y-122428453D01*
X63532951Y-121204415D02*
X63644227Y-120981862D01*
X63644227Y-120981862D02*
X63866780Y-120870586D01*
X63866780Y-120870586D02*
X64200608Y-120870586D01*
X64200608Y-120870586D02*
X64423161Y-120981862D01*
X64423161Y-120981862D02*
X64534437Y-121204415D01*
X64534437Y-121204415D02*
X64534437Y-122428453D01*
X65647198Y-120870586D02*
X65647198Y-123207386D01*
X65647198Y-120981862D02*
X65869751Y-120870586D01*
X65869751Y-120870586D02*
X66314856Y-120870586D01*
X66314856Y-120870586D02*
X66537408Y-120981862D01*
X66537408Y-120981862D02*
X66648684Y-121093138D01*
X66648684Y-121093138D02*
X66759960Y-121315691D01*
X66759960Y-121315691D02*
X66759960Y-121983348D01*
X66759960Y-121983348D02*
X66648684Y-122205900D01*
X66648684Y-122205900D02*
X66537408Y-122317177D01*
X66537408Y-122317177D02*
X66314856Y-122428453D01*
X66314856Y-122428453D02*
X65869751Y-122428453D01*
X65869751Y-122428453D02*
X65647198Y-122317177D01*
X68762932Y-120870586D02*
X68762932Y-122428453D01*
X67761446Y-120870586D02*
X67761446Y-122094624D01*
X67761446Y-122094624D02*
X67872723Y-122317177D01*
X67872723Y-122317177D02*
X68095275Y-122428453D01*
X68095275Y-122428453D02*
X68429104Y-122428453D01*
X68429104Y-122428453D02*
X68651656Y-122317177D01*
X68651656Y-122317177D02*
X68762932Y-122205900D01*
X69541866Y-120870586D02*
X70432075Y-120870586D01*
X69875694Y-120091653D02*
X69875694Y-122094624D01*
X69875694Y-122094624D02*
X69986971Y-122317177D01*
X69986971Y-122317177D02*
X70209523Y-122428453D01*
X70209523Y-122428453D02*
X70432075Y-122428453D01*
X72101218Y-122317177D02*
X71878666Y-122428453D01*
X71878666Y-122428453D02*
X71433561Y-122428453D01*
X71433561Y-122428453D02*
X71211008Y-122317177D01*
X71211008Y-122317177D02*
X71099732Y-122094624D01*
X71099732Y-122094624D02*
X71099732Y-121204415D01*
X71099732Y-121204415D02*
X71211008Y-120981862D01*
X71211008Y-120981862D02*
X71433561Y-120870586D01*
X71433561Y-120870586D02*
X71878666Y-120870586D01*
X71878666Y-120870586D02*
X72101218Y-120981862D01*
X72101218Y-120981862D02*
X72212494Y-121204415D01*
X72212494Y-121204415D02*
X72212494Y-121426967D01*
X72212494Y-121426967D02*
X71099732Y-121649519D01*
X73213979Y-122428453D02*
X73213979Y-120870586D01*
X73213979Y-121315691D02*
X73325256Y-121093138D01*
X73325256Y-121093138D02*
X73436532Y-120981862D01*
X73436532Y-120981862D02*
X73659084Y-120870586D01*
X73659084Y-120870586D02*
X73881637Y-120870586D01*
X74660569Y-122205900D02*
X74771846Y-122317177D01*
X74771846Y-122317177D02*
X74660569Y-122428453D01*
X74660569Y-122428453D02*
X74549293Y-122317177D01*
X74549293Y-122317177D02*
X74660569Y-122205900D01*
X74660569Y-122205900D02*
X74660569Y-122428453D01*
X76774817Y-122317177D02*
X76552265Y-122428453D01*
X76552265Y-122428453D02*
X76107160Y-122428453D01*
X76107160Y-122428453D02*
X75884608Y-122317177D01*
X75884608Y-122317177D02*
X75773331Y-122205900D01*
X75773331Y-122205900D02*
X75662055Y-121983348D01*
X75662055Y-121983348D02*
X75662055Y-121315691D01*
X75662055Y-121315691D02*
X75773331Y-121093138D01*
X75773331Y-121093138D02*
X75884608Y-120981862D01*
X75884608Y-120981862D02*
X76107160Y-120870586D01*
X76107160Y-120870586D02*
X76552265Y-120870586D01*
X76552265Y-120870586D02*
X76774817Y-120981862D01*
X78110131Y-122428453D02*
X77887579Y-122317177D01*
X77887579Y-122317177D02*
X77776302Y-122205900D01*
X77776302Y-122205900D02*
X77665026Y-121983348D01*
X77665026Y-121983348D02*
X77665026Y-121315691D01*
X77665026Y-121315691D02*
X77776302Y-121093138D01*
X77776302Y-121093138D02*
X77887579Y-120981862D01*
X77887579Y-120981862D02*
X78110131Y-120870586D01*
X78110131Y-120870586D02*
X78443960Y-120870586D01*
X78443960Y-120870586D02*
X78666512Y-120981862D01*
X78666512Y-120981862D02*
X78777788Y-121093138D01*
X78777788Y-121093138D02*
X78889064Y-121315691D01*
X78889064Y-121315691D02*
X78889064Y-121983348D01*
X78889064Y-121983348D02*
X78777788Y-122205900D01*
X78777788Y-122205900D02*
X78666512Y-122317177D01*
X78666512Y-122317177D02*
X78443960Y-122428453D01*
X78443960Y-122428453D02*
X78110131Y-122428453D01*
X79890550Y-122428453D02*
X79890550Y-120870586D01*
X79890550Y-121093138D02*
X80001827Y-120981862D01*
X80001827Y-120981862D02*
X80224379Y-120870586D01*
X80224379Y-120870586D02*
X80558208Y-120870586D01*
X80558208Y-120870586D02*
X80780760Y-120981862D01*
X80780760Y-120981862D02*
X80892036Y-121204415D01*
X80892036Y-121204415D02*
X80892036Y-122428453D01*
X80892036Y-121204415D02*
X81003312Y-120981862D01*
X81003312Y-120981862D02*
X81225865Y-120870586D01*
X81225865Y-120870586D02*
X81559693Y-120870586D01*
X81559693Y-120870586D02*
X81782246Y-120981862D01*
X81782246Y-120981862D02*
X81893522Y-121204415D01*
X81893522Y-121204415D02*
X81893522Y-122428453D01*
D14*
X82023810Y-15946571D02*
X82023810Y-17137047D01*
X81190477Y-14637047D02*
X82023810Y-15946571D01*
X82023810Y-15946571D02*
X82857143Y-14637047D01*
X83571429Y-16422761D02*
X84761905Y-16422761D01*
X83333334Y-17137047D02*
X84166667Y-14637047D01*
X84166667Y-14637047D02*
X85000000Y-17137047D01*
X87261905Y-16898952D02*
X87142857Y-17018000D01*
X87142857Y-17018000D02*
X86785715Y-17137047D01*
X86785715Y-17137047D02*
X86547619Y-17137047D01*
X86547619Y-17137047D02*
X86190476Y-17018000D01*
X86190476Y-17018000D02*
X85952381Y-16779904D01*
X85952381Y-16779904D02*
X85833334Y-16541809D01*
X85833334Y-16541809D02*
X85714286Y-16065619D01*
X85714286Y-16065619D02*
X85714286Y-15708476D01*
X85714286Y-15708476D02*
X85833334Y-15232285D01*
X85833334Y-15232285D02*
X85952381Y-14994190D01*
X85952381Y-14994190D02*
X86190476Y-14756095D01*
X86190476Y-14756095D02*
X86547619Y-14637047D01*
X86547619Y-14637047D02*
X86785715Y-14637047D01*
X86785715Y-14637047D02*
X87142857Y-14756095D01*
X87142857Y-14756095D02*
X87261905Y-14875142D01*
X89761905Y-16898952D02*
X89642857Y-17018000D01*
X89642857Y-17018000D02*
X89285715Y-17137047D01*
X89285715Y-17137047D02*
X89047619Y-17137047D01*
X89047619Y-17137047D02*
X88690476Y-17018000D01*
X88690476Y-17018000D02*
X88452381Y-16779904D01*
X88452381Y-16779904D02*
X88333334Y-16541809D01*
X88333334Y-16541809D02*
X88214286Y-16065619D01*
X88214286Y-16065619D02*
X88214286Y-15708476D01*
X88214286Y-15708476D02*
X88333334Y-15232285D01*
X88333334Y-15232285D02*
X88452381Y-14994190D01*
X88452381Y-14994190D02*
X88690476Y-14756095D01*
X88690476Y-14756095D02*
X89047619Y-14637047D01*
X89047619Y-14637047D02*
X89285715Y-14637047D01*
X89285715Y-14637047D02*
X89642857Y-14756095D01*
X89642857Y-14756095D02*
X89761905Y-14875142D01*
X92142857Y-17137047D02*
X90714286Y-17137047D01*
X91428572Y-17137047D02*
X91428572Y-14637047D01*
X91428572Y-14637047D02*
X91190476Y-14994190D01*
X91190476Y-14994190D02*
X90952381Y-15232285D01*
X90952381Y-15232285D02*
X90714286Y-15351333D01*
X96547619Y-16898952D02*
X96428571Y-17018000D01*
X96428571Y-17018000D02*
X96071429Y-17137047D01*
X96071429Y-17137047D02*
X95833333Y-17137047D01*
X95833333Y-17137047D02*
X95476190Y-17018000D01*
X95476190Y-17018000D02*
X95238095Y-16779904D01*
X95238095Y-16779904D02*
X95119048Y-16541809D01*
X95119048Y-16541809D02*
X95000000Y-16065619D01*
X95000000Y-16065619D02*
X95000000Y-15708476D01*
X95000000Y-15708476D02*
X95119048Y-15232285D01*
X95119048Y-15232285D02*
X95238095Y-14994190D01*
X95238095Y-14994190D02*
X95476190Y-14756095D01*
X95476190Y-14756095D02*
X95833333Y-14637047D01*
X95833333Y-14637047D02*
X96071429Y-14637047D01*
X96071429Y-14637047D02*
X96428571Y-14756095D01*
X96428571Y-14756095D02*
X96547619Y-14875142D01*
X98452381Y-15827523D02*
X97619048Y-15827523D01*
X97619048Y-17137047D02*
X97619048Y-14637047D01*
X97619048Y-14637047D02*
X98809524Y-14637047D01*
X102738095Y-17018000D02*
X102500000Y-17137047D01*
X102500000Y-17137047D02*
X102023809Y-17137047D01*
X102023809Y-17137047D02*
X101785714Y-17018000D01*
X101785714Y-17018000D02*
X101666667Y-16898952D01*
X101666667Y-16898952D02*
X101547619Y-16660857D01*
X101547619Y-16660857D02*
X101547619Y-15946571D01*
X101547619Y-15946571D02*
X101666667Y-15708476D01*
X101666667Y-15708476D02*
X101785714Y-15589428D01*
X101785714Y-15589428D02*
X102023809Y-15470380D01*
X102023809Y-15470380D02*
X102500000Y-15470380D01*
X102500000Y-15470380D02*
X102738095Y-15589428D01*
X104880952Y-17137047D02*
X104880952Y-15827523D01*
X104880952Y-15827523D02*
X104761905Y-15589428D01*
X104761905Y-15589428D02*
X104523809Y-15470380D01*
X104523809Y-15470380D02*
X104047619Y-15470380D01*
X104047619Y-15470380D02*
X103809524Y-15589428D01*
X104880952Y-17018000D02*
X104642857Y-17137047D01*
X104642857Y-17137047D02*
X104047619Y-17137047D01*
X104047619Y-17137047D02*
X103809524Y-17018000D01*
X103809524Y-17018000D02*
X103690476Y-16779904D01*
X103690476Y-16779904D02*
X103690476Y-16541809D01*
X103690476Y-16541809D02*
X103809524Y-16303714D01*
X103809524Y-16303714D02*
X104047619Y-16184666D01*
X104047619Y-16184666D02*
X104642857Y-16184666D01*
X104642857Y-16184666D02*
X104880952Y-16065619D01*
X106071429Y-17137047D02*
X106071429Y-15470380D01*
X106071429Y-15946571D02*
X106190476Y-15708476D01*
X106190476Y-15708476D02*
X106309524Y-15589428D01*
X106309524Y-15589428D02*
X106547619Y-15470380D01*
X106547619Y-15470380D02*
X106785714Y-15470380D01*
X108690476Y-17137047D02*
X108690476Y-14637047D01*
X108690476Y-17018000D02*
X108452381Y-17137047D01*
X108452381Y-17137047D02*
X107976190Y-17137047D01*
X107976190Y-17137047D02*
X107738095Y-17018000D01*
X107738095Y-17018000D02*
X107619048Y-16898952D01*
X107619048Y-16898952D02*
X107500000Y-16660857D01*
X107500000Y-16660857D02*
X107500000Y-15946571D01*
X107500000Y-15946571D02*
X107619048Y-15708476D01*
X107619048Y-15708476D02*
X107738095Y-15589428D01*
X107738095Y-15589428D02*
X107976190Y-15470380D01*
X107976190Y-15470380D02*
X108452381Y-15470380D01*
X108452381Y-15470380D02*
X108690476Y-15589428D01*
X111547619Y-15470380D02*
X112142857Y-17137047D01*
X112142857Y-17137047D02*
X112738096Y-15470380D01*
X115000000Y-17137047D02*
X113571429Y-17137047D01*
X114285715Y-17137047D02*
X114285715Y-14637047D01*
X114285715Y-14637047D02*
X114047619Y-14994190D01*
X114047619Y-14994190D02*
X113809524Y-15232285D01*
X113809524Y-15232285D02*
X113571429Y-15351333D01*
X116071429Y-16898952D02*
X116190476Y-17018000D01*
X116190476Y-17018000D02*
X116071429Y-17137047D01*
X116071429Y-17137047D02*
X115952381Y-17018000D01*
X115952381Y-17018000D02*
X116071429Y-16898952D01*
X116071429Y-16898952D02*
X116071429Y-17137047D01*
X117738095Y-14637047D02*
X117976190Y-14637047D01*
X117976190Y-14637047D02*
X118214286Y-14756095D01*
X118214286Y-14756095D02*
X118333333Y-14875142D01*
X118333333Y-14875142D02*
X118452381Y-15113238D01*
X118452381Y-15113238D02*
X118571428Y-15589428D01*
X118571428Y-15589428D02*
X118571428Y-16184666D01*
X118571428Y-16184666D02*
X118452381Y-16660857D01*
X118452381Y-16660857D02*
X118333333Y-16898952D01*
X118333333Y-16898952D02*
X118214286Y-17018000D01*
X118214286Y-17018000D02*
X117976190Y-17137047D01*
X117976190Y-17137047D02*
X117738095Y-17137047D01*
X117738095Y-17137047D02*
X117500000Y-17018000D01*
X117500000Y-17018000D02*
X117380952Y-16898952D01*
X117380952Y-16898952D02*
X117261905Y-16660857D01*
X117261905Y-16660857D02*
X117142857Y-16184666D01*
X117142857Y-16184666D02*
X117142857Y-15589428D01*
X117142857Y-15589428D02*
X117261905Y-15113238D01*
X117261905Y-15113238D02*
X117380952Y-14875142D01*
X117380952Y-14875142D02*
X117500000Y-14756095D01*
X117500000Y-14756095D02*
X117738095Y-14637047D01*
D10*
X134450000Y-78648557D02*
X134150000Y-78219985D01*
X133935714Y-78648557D02*
X133935714Y-77748557D01*
X133935714Y-77748557D02*
X134278571Y-77748557D01*
X134278571Y-77748557D02*
X134364286Y-77791414D01*
X134364286Y-77791414D02*
X134407143Y-77834271D01*
X134407143Y-77834271D02*
X134450000Y-77919985D01*
X134450000Y-77919985D02*
X134450000Y-78048557D01*
X134450000Y-78048557D02*
X134407143Y-78134271D01*
X134407143Y-78134271D02*
X134364286Y-78177128D01*
X134364286Y-78177128D02*
X134278571Y-78219985D01*
X134278571Y-78219985D02*
X133935714Y-78219985D01*
X135221429Y-78048557D02*
X135221429Y-78648557D01*
X135007143Y-77705700D02*
X134792857Y-78348557D01*
X134792857Y-78348557D02*
X135350000Y-78348557D01*
X150864286Y-78648557D02*
X150350000Y-78648557D01*
X150607143Y-78648557D02*
X150607143Y-77748557D01*
X150607143Y-77748557D02*
X150521429Y-77877128D01*
X150521429Y-77877128D02*
X150435714Y-77962842D01*
X150435714Y-77962842D02*
X150350000Y-78005700D01*
X151421429Y-77748557D02*
X151507143Y-77748557D01*
X151507143Y-77748557D02*
X151592857Y-77791414D01*
X151592857Y-77791414D02*
X151635715Y-77834271D01*
X151635715Y-77834271D02*
X151678572Y-77919985D01*
X151678572Y-77919985D02*
X151721429Y-78091414D01*
X151721429Y-78091414D02*
X151721429Y-78305700D01*
X151721429Y-78305700D02*
X151678572Y-78477128D01*
X151678572Y-78477128D02*
X151635715Y-78562842D01*
X151635715Y-78562842D02*
X151592857Y-78605700D01*
X151592857Y-78605700D02*
X151507143Y-78648557D01*
X151507143Y-78648557D02*
X151421429Y-78648557D01*
X151421429Y-78648557D02*
X151335715Y-78605700D01*
X151335715Y-78605700D02*
X151292857Y-78562842D01*
X151292857Y-78562842D02*
X151250000Y-78477128D01*
X151250000Y-78477128D02*
X151207143Y-78305700D01*
X151207143Y-78305700D02*
X151207143Y-78091414D01*
X151207143Y-78091414D02*
X151250000Y-77919985D01*
X151250000Y-77919985D02*
X151292857Y-77834271D01*
X151292857Y-77834271D02*
X151335715Y-77791414D01*
X151335715Y-77791414D02*
X151421429Y-77748557D01*
X152107143Y-78648557D02*
X152107143Y-77748557D01*
X152192858Y-78305700D02*
X152450000Y-78648557D01*
X152450000Y-78048557D02*
X152107143Y-78391414D01*
X69770000Y-50022842D02*
X69727143Y-50065700D01*
X69727143Y-50065700D02*
X69598571Y-50108557D01*
X69598571Y-50108557D02*
X69512857Y-50108557D01*
X69512857Y-50108557D02*
X69384286Y-50065700D01*
X69384286Y-50065700D02*
X69298571Y-49979985D01*
X69298571Y-49979985D02*
X69255714Y-49894271D01*
X69255714Y-49894271D02*
X69212857Y-49722842D01*
X69212857Y-49722842D02*
X69212857Y-49594271D01*
X69212857Y-49594271D02*
X69255714Y-49422842D01*
X69255714Y-49422842D02*
X69298571Y-49337128D01*
X69298571Y-49337128D02*
X69384286Y-49251414D01*
X69384286Y-49251414D02*
X69512857Y-49208557D01*
X69512857Y-49208557D02*
X69598571Y-49208557D01*
X69598571Y-49208557D02*
X69727143Y-49251414D01*
X69727143Y-49251414D02*
X69770000Y-49294271D01*
X70112857Y-49294271D02*
X70155714Y-49251414D01*
X70155714Y-49251414D02*
X70241429Y-49208557D01*
X70241429Y-49208557D02*
X70455714Y-49208557D01*
X70455714Y-49208557D02*
X70541429Y-49251414D01*
X70541429Y-49251414D02*
X70584286Y-49294271D01*
X70584286Y-49294271D02*
X70627143Y-49379985D01*
X70627143Y-49379985D02*
X70627143Y-49465700D01*
X70627143Y-49465700D02*
X70584286Y-49594271D01*
X70584286Y-49594271D02*
X70070000Y-50108557D01*
X70070000Y-50108557D02*
X70627143Y-50108557D01*
X72682295Y-55395238D02*
X72682295Y-55852381D01*
X72682295Y-55623809D02*
X71882295Y-55623809D01*
X71882295Y-55623809D02*
X71996580Y-55700000D01*
X71996580Y-55700000D02*
X72072771Y-55776190D01*
X72072771Y-55776190D02*
X72110866Y-55852381D01*
X71882295Y-54899999D02*
X71882295Y-54823809D01*
X71882295Y-54823809D02*
X71920390Y-54747618D01*
X71920390Y-54747618D02*
X71958485Y-54709523D01*
X71958485Y-54709523D02*
X72034676Y-54671428D01*
X72034676Y-54671428D02*
X72187057Y-54633333D01*
X72187057Y-54633333D02*
X72377533Y-54633333D01*
X72377533Y-54633333D02*
X72529914Y-54671428D01*
X72529914Y-54671428D02*
X72606104Y-54709523D01*
X72606104Y-54709523D02*
X72644200Y-54747618D01*
X72644200Y-54747618D02*
X72682295Y-54823809D01*
X72682295Y-54823809D02*
X72682295Y-54899999D01*
X72682295Y-54899999D02*
X72644200Y-54976190D01*
X72644200Y-54976190D02*
X72606104Y-55014285D01*
X72606104Y-55014285D02*
X72529914Y-55052380D01*
X72529914Y-55052380D02*
X72377533Y-55090476D01*
X72377533Y-55090476D02*
X72187057Y-55090476D01*
X72187057Y-55090476D02*
X72034676Y-55052380D01*
X72034676Y-55052380D02*
X71958485Y-55014285D01*
X71958485Y-55014285D02*
X71920390Y-54976190D01*
X71920390Y-54976190D02*
X71882295Y-54899999D01*
X71882295Y-54138094D02*
X71882295Y-54061904D01*
X71882295Y-54061904D02*
X71920390Y-53985713D01*
X71920390Y-53985713D02*
X71958485Y-53947618D01*
X71958485Y-53947618D02*
X72034676Y-53909523D01*
X72034676Y-53909523D02*
X72187057Y-53871428D01*
X72187057Y-53871428D02*
X72377533Y-53871428D01*
X72377533Y-53871428D02*
X72529914Y-53909523D01*
X72529914Y-53909523D02*
X72606104Y-53947618D01*
X72606104Y-53947618D02*
X72644200Y-53985713D01*
X72644200Y-53985713D02*
X72682295Y-54061904D01*
X72682295Y-54061904D02*
X72682295Y-54138094D01*
X72682295Y-54138094D02*
X72644200Y-54214285D01*
X72644200Y-54214285D02*
X72606104Y-54252380D01*
X72606104Y-54252380D02*
X72529914Y-54290475D01*
X72529914Y-54290475D02*
X72377533Y-54328571D01*
X72377533Y-54328571D02*
X72187057Y-54328571D01*
X72187057Y-54328571D02*
X72034676Y-54290475D01*
X72034676Y-54290475D02*
X71958485Y-54252380D01*
X71958485Y-54252380D02*
X71920390Y-54214285D01*
X71920390Y-54214285D02*
X71882295Y-54138094D01*
X72148961Y-53528570D02*
X72682295Y-53528570D01*
X72225152Y-53528570D02*
X72187057Y-53490475D01*
X72187057Y-53490475D02*
X72148961Y-53414285D01*
X72148961Y-53414285D02*
X72148961Y-53299999D01*
X72148961Y-53299999D02*
X72187057Y-53223808D01*
X72187057Y-53223808D02*
X72263247Y-53185713D01*
X72263247Y-53185713D02*
X72682295Y-53185713D01*
X160870000Y-28347342D02*
X160870000Y-29204485D01*
X160870000Y-29204485D02*
X160812857Y-29375914D01*
X160812857Y-29375914D02*
X160698571Y-29490200D01*
X160698571Y-29490200D02*
X160527143Y-29547342D01*
X160527143Y-29547342D02*
X160412857Y-29547342D01*
X162070000Y-29547342D02*
X161384286Y-29547342D01*
X161727143Y-29547342D02*
X161727143Y-28347342D01*
X161727143Y-28347342D02*
X161612857Y-28518771D01*
X161612857Y-28518771D02*
X161498572Y-28633057D01*
X161498572Y-28633057D02*
X161384286Y-28690200D01*
X158984286Y-90954819D02*
X158984286Y-89954819D01*
X159460476Y-90954819D02*
X159460476Y-89954819D01*
X159460476Y-89954819D02*
X159698571Y-89954819D01*
X159698571Y-89954819D02*
X159841428Y-90002438D01*
X159841428Y-90002438D02*
X159936666Y-90097676D01*
X159936666Y-90097676D02*
X159984285Y-90192914D01*
X159984285Y-90192914D02*
X160031904Y-90383390D01*
X160031904Y-90383390D02*
X160031904Y-90526247D01*
X160031904Y-90526247D02*
X159984285Y-90716723D01*
X159984285Y-90716723D02*
X159936666Y-90811961D01*
X159936666Y-90811961D02*
X159841428Y-90907200D01*
X159841428Y-90907200D02*
X159698571Y-90954819D01*
X159698571Y-90954819D02*
X159460476Y-90954819D01*
X160460476Y-90431009D02*
X160793809Y-90431009D01*
X160936666Y-90954819D02*
X160460476Y-90954819D01*
X160460476Y-90954819D02*
X160460476Y-89954819D01*
X160460476Y-89954819D02*
X160936666Y-89954819D01*
X162555714Y-90288152D02*
X162555714Y-90954819D01*
X162317619Y-89907200D02*
X162079524Y-90621485D01*
X162079524Y-90621485D02*
X162698571Y-90621485D01*
X163270000Y-89954819D02*
X163365238Y-89954819D01*
X163365238Y-89954819D02*
X163460476Y-90002438D01*
X163460476Y-90002438D02*
X163508095Y-90050057D01*
X163508095Y-90050057D02*
X163555714Y-90145295D01*
X163555714Y-90145295D02*
X163603333Y-90335771D01*
X163603333Y-90335771D02*
X163603333Y-90573866D01*
X163603333Y-90573866D02*
X163555714Y-90764342D01*
X163555714Y-90764342D02*
X163508095Y-90859580D01*
X163508095Y-90859580D02*
X163460476Y-90907200D01*
X163460476Y-90907200D02*
X163365238Y-90954819D01*
X163365238Y-90954819D02*
X163270000Y-90954819D01*
X163270000Y-90954819D02*
X163174762Y-90907200D01*
X163174762Y-90907200D02*
X163127143Y-90859580D01*
X163127143Y-90859580D02*
X163079524Y-90764342D01*
X163079524Y-90764342D02*
X163031905Y-90573866D01*
X163031905Y-90573866D02*
X163031905Y-90335771D01*
X163031905Y-90335771D02*
X163079524Y-90145295D01*
X163079524Y-90145295D02*
X163127143Y-90050057D01*
X163127143Y-90050057D02*
X163174762Y-90002438D01*
X163174762Y-90002438D02*
X163270000Y-89954819D01*
X148476666Y-96454819D02*
X148476666Y-97169104D01*
X148476666Y-97169104D02*
X148429047Y-97311961D01*
X148429047Y-97311961D02*
X148333809Y-97407200D01*
X148333809Y-97407200D02*
X148190952Y-97454819D01*
X148190952Y-97454819D02*
X148095714Y-97454819D01*
X148905238Y-96550057D02*
X148952857Y-96502438D01*
X148952857Y-96502438D02*
X149048095Y-96454819D01*
X149048095Y-96454819D02*
X149286190Y-96454819D01*
X149286190Y-96454819D02*
X149381428Y-96502438D01*
X149381428Y-96502438D02*
X149429047Y-96550057D01*
X149429047Y-96550057D02*
X149476666Y-96645295D01*
X149476666Y-96645295D02*
X149476666Y-96740533D01*
X149476666Y-96740533D02*
X149429047Y-96883390D01*
X149429047Y-96883390D02*
X148857619Y-97454819D01*
X148857619Y-97454819D02*
X149476666Y-97454819D01*
X146731428Y-103408557D02*
X146731428Y-102508557D01*
X146731428Y-102508557D02*
X147074285Y-102508557D01*
X147074285Y-102508557D02*
X147160000Y-102551414D01*
X147160000Y-102551414D02*
X147202857Y-102594271D01*
X147202857Y-102594271D02*
X147245714Y-102679985D01*
X147245714Y-102679985D02*
X147245714Y-102808557D01*
X147245714Y-102808557D02*
X147202857Y-102894271D01*
X147202857Y-102894271D02*
X147160000Y-102937128D01*
X147160000Y-102937128D02*
X147074285Y-102979985D01*
X147074285Y-102979985D02*
X146731428Y-102979985D01*
X147802857Y-102508557D02*
X147974285Y-102508557D01*
X147974285Y-102508557D02*
X148060000Y-102551414D01*
X148060000Y-102551414D02*
X148145714Y-102637128D01*
X148145714Y-102637128D02*
X148188571Y-102808557D01*
X148188571Y-102808557D02*
X148188571Y-103108557D01*
X148188571Y-103108557D02*
X148145714Y-103279985D01*
X148145714Y-103279985D02*
X148060000Y-103365700D01*
X148060000Y-103365700D02*
X147974285Y-103408557D01*
X147974285Y-103408557D02*
X147802857Y-103408557D01*
X147802857Y-103408557D02*
X147717143Y-103365700D01*
X147717143Y-103365700D02*
X147631428Y-103279985D01*
X147631428Y-103279985D02*
X147588571Y-103108557D01*
X147588571Y-103108557D02*
X147588571Y-102808557D01*
X147588571Y-102808557D02*
X147631428Y-102637128D01*
X147631428Y-102637128D02*
X147717143Y-102551414D01*
X147717143Y-102551414D02*
X147802857Y-102508557D01*
X148488571Y-102508557D02*
X148702857Y-103408557D01*
X148702857Y-103408557D02*
X148874285Y-102765700D01*
X148874285Y-102765700D02*
X149045714Y-103408557D01*
X149045714Y-103408557D02*
X149260000Y-102508557D01*
X149602856Y-102937128D02*
X149902856Y-102937128D01*
X150031428Y-103408557D02*
X149602856Y-103408557D01*
X149602856Y-103408557D02*
X149602856Y-102508557D01*
X149602856Y-102508557D02*
X150031428Y-102508557D01*
X150931428Y-103408557D02*
X150631428Y-102979985D01*
X150417142Y-103408557D02*
X150417142Y-102508557D01*
X150417142Y-102508557D02*
X150759999Y-102508557D01*
X150759999Y-102508557D02*
X150845714Y-102551414D01*
X150845714Y-102551414D02*
X150888571Y-102594271D01*
X150888571Y-102594271D02*
X150931428Y-102679985D01*
X150931428Y-102679985D02*
X150931428Y-102808557D01*
X150931428Y-102808557D02*
X150888571Y-102894271D01*
X150888571Y-102894271D02*
X150845714Y-102937128D01*
X150845714Y-102937128D02*
X150759999Y-102979985D01*
X150759999Y-102979985D02*
X150417142Y-102979985D01*
X134450000Y-73568557D02*
X134150000Y-73139985D01*
X133935714Y-73568557D02*
X133935714Y-72668557D01*
X133935714Y-72668557D02*
X134278571Y-72668557D01*
X134278571Y-72668557D02*
X134364286Y-72711414D01*
X134364286Y-72711414D02*
X134407143Y-72754271D01*
X134407143Y-72754271D02*
X134450000Y-72839985D01*
X134450000Y-72839985D02*
X134450000Y-72968557D01*
X134450000Y-72968557D02*
X134407143Y-73054271D01*
X134407143Y-73054271D02*
X134364286Y-73097128D01*
X134364286Y-73097128D02*
X134278571Y-73139985D01*
X134278571Y-73139985D02*
X133935714Y-73139985D01*
X134750000Y-72668557D02*
X135307143Y-72668557D01*
X135307143Y-72668557D02*
X135007143Y-73011414D01*
X135007143Y-73011414D02*
X135135714Y-73011414D01*
X135135714Y-73011414D02*
X135221429Y-73054271D01*
X135221429Y-73054271D02*
X135264286Y-73097128D01*
X135264286Y-73097128D02*
X135307143Y-73182842D01*
X135307143Y-73182842D02*
X135307143Y-73397128D01*
X135307143Y-73397128D02*
X135264286Y-73482842D01*
X135264286Y-73482842D02*
X135221429Y-73525700D01*
X135221429Y-73525700D02*
X135135714Y-73568557D01*
X135135714Y-73568557D02*
X134878571Y-73568557D01*
X134878571Y-73568557D02*
X134792857Y-73525700D01*
X134792857Y-73525700D02*
X134750000Y-73482842D01*
X150864286Y-73568557D02*
X150350000Y-73568557D01*
X150607143Y-73568557D02*
X150607143Y-72668557D01*
X150607143Y-72668557D02*
X150521429Y-72797128D01*
X150521429Y-72797128D02*
X150435714Y-72882842D01*
X150435714Y-72882842D02*
X150350000Y-72925700D01*
X151421429Y-72668557D02*
X151507143Y-72668557D01*
X151507143Y-72668557D02*
X151592857Y-72711414D01*
X151592857Y-72711414D02*
X151635715Y-72754271D01*
X151635715Y-72754271D02*
X151678572Y-72839985D01*
X151678572Y-72839985D02*
X151721429Y-73011414D01*
X151721429Y-73011414D02*
X151721429Y-73225700D01*
X151721429Y-73225700D02*
X151678572Y-73397128D01*
X151678572Y-73397128D02*
X151635715Y-73482842D01*
X151635715Y-73482842D02*
X151592857Y-73525700D01*
X151592857Y-73525700D02*
X151507143Y-73568557D01*
X151507143Y-73568557D02*
X151421429Y-73568557D01*
X151421429Y-73568557D02*
X151335715Y-73525700D01*
X151335715Y-73525700D02*
X151292857Y-73482842D01*
X151292857Y-73482842D02*
X151250000Y-73397128D01*
X151250000Y-73397128D02*
X151207143Y-73225700D01*
X151207143Y-73225700D02*
X151207143Y-73011414D01*
X151207143Y-73011414D02*
X151250000Y-72839985D01*
X151250000Y-72839985D02*
X151292857Y-72754271D01*
X151292857Y-72754271D02*
X151335715Y-72711414D01*
X151335715Y-72711414D02*
X151421429Y-72668557D01*
X152107143Y-73568557D02*
X152107143Y-72668557D01*
X152192858Y-73225700D02*
X152450000Y-73568557D01*
X152450000Y-72968557D02*
X152107143Y-73311414D01*
X189222857Y-120708557D02*
X188794285Y-120708557D01*
X188794285Y-120708557D02*
X188794285Y-119808557D01*
X189522856Y-120237128D02*
X189822856Y-120237128D01*
X189951428Y-120708557D02*
X189522856Y-120708557D01*
X189522856Y-120708557D02*
X189522856Y-119808557D01*
X189522856Y-119808557D02*
X189951428Y-119808557D01*
X190337142Y-120708557D02*
X190337142Y-119808557D01*
X190337142Y-119808557D02*
X190551428Y-119808557D01*
X190551428Y-119808557D02*
X190679999Y-119851414D01*
X190679999Y-119851414D02*
X190765714Y-119937128D01*
X190765714Y-119937128D02*
X190808571Y-120022842D01*
X190808571Y-120022842D02*
X190851428Y-120194271D01*
X190851428Y-120194271D02*
X190851428Y-120322842D01*
X190851428Y-120322842D02*
X190808571Y-120494271D01*
X190808571Y-120494271D02*
X190765714Y-120579985D01*
X190765714Y-120579985D02*
X190679999Y-120665700D01*
X190679999Y-120665700D02*
X190551428Y-120708557D01*
X190551428Y-120708557D02*
X190337142Y-120708557D01*
X191151428Y-119808557D02*
X191708571Y-119808557D01*
X191708571Y-119808557D02*
X191408571Y-120151414D01*
X191408571Y-120151414D02*
X191537142Y-120151414D01*
X191537142Y-120151414D02*
X191622857Y-120194271D01*
X191622857Y-120194271D02*
X191665714Y-120237128D01*
X191665714Y-120237128D02*
X191708571Y-120322842D01*
X191708571Y-120322842D02*
X191708571Y-120537128D01*
X191708571Y-120537128D02*
X191665714Y-120622842D01*
X191665714Y-120622842D02*
X191622857Y-120665700D01*
X191622857Y-120665700D02*
X191537142Y-120708557D01*
X191537142Y-120708557D02*
X191279999Y-120708557D01*
X191279999Y-120708557D02*
X191194285Y-120665700D01*
X191194285Y-120665700D02*
X191151428Y-120622842D01*
X45048095Y-48854819D02*
X45048095Y-49664342D01*
X45048095Y-49664342D02*
X45095714Y-49759580D01*
X45095714Y-49759580D02*
X45143333Y-49807200D01*
X45143333Y-49807200D02*
X45238571Y-49854819D01*
X45238571Y-49854819D02*
X45429047Y-49854819D01*
X45429047Y-49854819D02*
X45524285Y-49807200D01*
X45524285Y-49807200D02*
X45571904Y-49759580D01*
X45571904Y-49759580D02*
X45619523Y-49664342D01*
X45619523Y-49664342D02*
X45619523Y-48854819D01*
X46619523Y-49854819D02*
X46048095Y-49854819D01*
X46333809Y-49854819D02*
X46333809Y-48854819D01*
X46333809Y-48854819D02*
X46238571Y-48997676D01*
X46238571Y-48997676D02*
X46143333Y-49092914D01*
X46143333Y-49092914D02*
X46048095Y-49140533D01*
X45264819Y-64009047D02*
X45264819Y-63342381D01*
X45264819Y-63342381D02*
X46264819Y-63770952D01*
X45598152Y-62532857D02*
X46264819Y-62532857D01*
X45217200Y-62770952D02*
X45931485Y-63009047D01*
X45931485Y-63009047D02*
X45931485Y-62390000D01*
X46264819Y-61532857D02*
X46264819Y-62009047D01*
X46264819Y-62009047D02*
X45264819Y-62009047D01*
X46217200Y-61247142D02*
X46264819Y-61104285D01*
X46264819Y-61104285D02*
X46264819Y-60866190D01*
X46264819Y-60866190D02*
X46217200Y-60770952D01*
X46217200Y-60770952D02*
X46169580Y-60723333D01*
X46169580Y-60723333D02*
X46074342Y-60675714D01*
X46074342Y-60675714D02*
X45979104Y-60675714D01*
X45979104Y-60675714D02*
X45883866Y-60723333D01*
X45883866Y-60723333D02*
X45836247Y-60770952D01*
X45836247Y-60770952D02*
X45788628Y-60866190D01*
X45788628Y-60866190D02*
X45741009Y-61056666D01*
X45741009Y-61056666D02*
X45693390Y-61151904D01*
X45693390Y-61151904D02*
X45645771Y-61199523D01*
X45645771Y-61199523D02*
X45550533Y-61247142D01*
X45550533Y-61247142D02*
X45455295Y-61247142D01*
X45455295Y-61247142D02*
X45360057Y-61199523D01*
X45360057Y-61199523D02*
X45312438Y-61151904D01*
X45312438Y-61151904D02*
X45264819Y-61056666D01*
X45264819Y-61056666D02*
X45264819Y-60818571D01*
X45264819Y-60818571D02*
X45312438Y-60675714D01*
X46264819Y-59723333D02*
X46264819Y-60294761D01*
X46264819Y-60009047D02*
X45264819Y-60009047D01*
X45264819Y-60009047D02*
X45407676Y-60104285D01*
X45407676Y-60104285D02*
X45502914Y-60199523D01*
X45502914Y-60199523D02*
X45550533Y-60294761D01*
X45264819Y-59389999D02*
X45264819Y-58770952D01*
X45264819Y-58770952D02*
X45645771Y-59104285D01*
X45645771Y-59104285D02*
X45645771Y-58961428D01*
X45645771Y-58961428D02*
X45693390Y-58866190D01*
X45693390Y-58866190D02*
X45741009Y-58818571D01*
X45741009Y-58818571D02*
X45836247Y-58770952D01*
X45836247Y-58770952D02*
X46074342Y-58770952D01*
X46074342Y-58770952D02*
X46169580Y-58818571D01*
X46169580Y-58818571D02*
X46217200Y-58866190D01*
X46217200Y-58866190D02*
X46264819Y-58961428D01*
X46264819Y-58961428D02*
X46264819Y-59247142D01*
X46264819Y-59247142D02*
X46217200Y-59342380D01*
X46217200Y-59342380D02*
X46169580Y-59389999D01*
X45693390Y-58199523D02*
X45645771Y-58294761D01*
X45645771Y-58294761D02*
X45598152Y-58342380D01*
X45598152Y-58342380D02*
X45502914Y-58389999D01*
X45502914Y-58389999D02*
X45455295Y-58389999D01*
X45455295Y-58389999D02*
X45360057Y-58342380D01*
X45360057Y-58342380D02*
X45312438Y-58294761D01*
X45312438Y-58294761D02*
X45264819Y-58199523D01*
X45264819Y-58199523D02*
X45264819Y-58009047D01*
X45264819Y-58009047D02*
X45312438Y-57913809D01*
X45312438Y-57913809D02*
X45360057Y-57866190D01*
X45360057Y-57866190D02*
X45455295Y-57818571D01*
X45455295Y-57818571D02*
X45502914Y-57818571D01*
X45502914Y-57818571D02*
X45598152Y-57866190D01*
X45598152Y-57866190D02*
X45645771Y-57913809D01*
X45645771Y-57913809D02*
X45693390Y-58009047D01*
X45693390Y-58009047D02*
X45693390Y-58199523D01*
X45693390Y-58199523D02*
X45741009Y-58294761D01*
X45741009Y-58294761D02*
X45788628Y-58342380D01*
X45788628Y-58342380D02*
X45883866Y-58389999D01*
X45883866Y-58389999D02*
X46074342Y-58389999D01*
X46074342Y-58389999D02*
X46169580Y-58342380D01*
X46169580Y-58342380D02*
X46217200Y-58294761D01*
X46217200Y-58294761D02*
X46264819Y-58199523D01*
X46264819Y-58199523D02*
X46264819Y-58009047D01*
X46264819Y-58009047D02*
X46217200Y-57913809D01*
X46217200Y-57913809D02*
X46169580Y-57866190D01*
X46169580Y-57866190D02*
X46074342Y-57818571D01*
X46074342Y-57818571D02*
X45883866Y-57818571D01*
X45883866Y-57818571D02*
X45788628Y-57866190D01*
X45788628Y-57866190D02*
X45741009Y-57913809D01*
X45741009Y-57913809D02*
X45693390Y-58009047D01*
X113048095Y-48854819D02*
X113048095Y-49664342D01*
X113048095Y-49664342D02*
X113095714Y-49759580D01*
X113095714Y-49759580D02*
X113143333Y-49807200D01*
X113143333Y-49807200D02*
X113238571Y-49854819D01*
X113238571Y-49854819D02*
X113429047Y-49854819D01*
X113429047Y-49854819D02*
X113524285Y-49807200D01*
X113524285Y-49807200D02*
X113571904Y-49759580D01*
X113571904Y-49759580D02*
X113619523Y-49664342D01*
X113619523Y-49664342D02*
X113619523Y-48854819D01*
X114571904Y-48854819D02*
X114095714Y-48854819D01*
X114095714Y-48854819D02*
X114048095Y-49331009D01*
X114048095Y-49331009D02*
X114095714Y-49283390D01*
X114095714Y-49283390D02*
X114190952Y-49235771D01*
X114190952Y-49235771D02*
X114429047Y-49235771D01*
X114429047Y-49235771D02*
X114524285Y-49283390D01*
X114524285Y-49283390D02*
X114571904Y-49331009D01*
X114571904Y-49331009D02*
X114619523Y-49426247D01*
X114619523Y-49426247D02*
X114619523Y-49664342D01*
X114619523Y-49664342D02*
X114571904Y-49759580D01*
X114571904Y-49759580D02*
X114524285Y-49807200D01*
X114524285Y-49807200D02*
X114429047Y-49854819D01*
X114429047Y-49854819D02*
X114190952Y-49854819D01*
X114190952Y-49854819D02*
X114095714Y-49807200D01*
X114095714Y-49807200D02*
X114048095Y-49759580D01*
X113264819Y-66549047D02*
X113264819Y-65882381D01*
X113264819Y-65882381D02*
X114264819Y-66310952D01*
X113598152Y-65072857D02*
X114264819Y-65072857D01*
X113217200Y-65310952D02*
X113931485Y-65549047D01*
X113931485Y-65549047D02*
X113931485Y-64930000D01*
X114264819Y-64072857D02*
X114264819Y-64549047D01*
X114264819Y-64549047D02*
X113264819Y-64549047D01*
X114217200Y-63787142D02*
X114264819Y-63644285D01*
X114264819Y-63644285D02*
X114264819Y-63406190D01*
X114264819Y-63406190D02*
X114217200Y-63310952D01*
X114217200Y-63310952D02*
X114169580Y-63263333D01*
X114169580Y-63263333D02*
X114074342Y-63215714D01*
X114074342Y-63215714D02*
X113979104Y-63215714D01*
X113979104Y-63215714D02*
X113883866Y-63263333D01*
X113883866Y-63263333D02*
X113836247Y-63310952D01*
X113836247Y-63310952D02*
X113788628Y-63406190D01*
X113788628Y-63406190D02*
X113741009Y-63596666D01*
X113741009Y-63596666D02*
X113693390Y-63691904D01*
X113693390Y-63691904D02*
X113645771Y-63739523D01*
X113645771Y-63739523D02*
X113550533Y-63787142D01*
X113550533Y-63787142D02*
X113455295Y-63787142D01*
X113455295Y-63787142D02*
X113360057Y-63739523D01*
X113360057Y-63739523D02*
X113312438Y-63691904D01*
X113312438Y-63691904D02*
X113264819Y-63596666D01*
X113264819Y-63596666D02*
X113264819Y-63358571D01*
X113264819Y-63358571D02*
X113312438Y-63215714D01*
X113360057Y-62834761D02*
X113312438Y-62787142D01*
X113312438Y-62787142D02*
X113264819Y-62691904D01*
X113264819Y-62691904D02*
X113264819Y-62453809D01*
X113264819Y-62453809D02*
X113312438Y-62358571D01*
X113312438Y-62358571D02*
X113360057Y-62310952D01*
X113360057Y-62310952D02*
X113455295Y-62263333D01*
X113455295Y-62263333D02*
X113550533Y-62263333D01*
X113550533Y-62263333D02*
X113693390Y-62310952D01*
X113693390Y-62310952D02*
X114264819Y-62882380D01*
X114264819Y-62882380D02*
X114264819Y-62263333D01*
X113598152Y-61406190D02*
X114264819Y-61406190D01*
X113217200Y-61644285D02*
X113931485Y-61882380D01*
X113931485Y-61882380D02*
X113931485Y-61263333D01*
X113264819Y-60406190D02*
X113264819Y-60882380D01*
X113264819Y-60882380D02*
X113741009Y-60929999D01*
X113741009Y-60929999D02*
X113693390Y-60882380D01*
X113693390Y-60882380D02*
X113645771Y-60787142D01*
X113645771Y-60787142D02*
X113645771Y-60549047D01*
X113645771Y-60549047D02*
X113693390Y-60453809D01*
X113693390Y-60453809D02*
X113741009Y-60406190D01*
X113741009Y-60406190D02*
X113836247Y-60358571D01*
X113836247Y-60358571D02*
X114074342Y-60358571D01*
X114074342Y-60358571D02*
X114169580Y-60406190D01*
X114169580Y-60406190D02*
X114217200Y-60453809D01*
X114217200Y-60453809D02*
X114264819Y-60549047D01*
X114264819Y-60549047D02*
X114264819Y-60787142D01*
X114264819Y-60787142D02*
X114217200Y-60882380D01*
X114217200Y-60882380D02*
X114169580Y-60929999D01*
X96048095Y-48854819D02*
X96048095Y-49664342D01*
X96048095Y-49664342D02*
X96095714Y-49759580D01*
X96095714Y-49759580D02*
X96143333Y-49807200D01*
X96143333Y-49807200D02*
X96238571Y-49854819D01*
X96238571Y-49854819D02*
X96429047Y-49854819D01*
X96429047Y-49854819D02*
X96524285Y-49807200D01*
X96524285Y-49807200D02*
X96571904Y-49759580D01*
X96571904Y-49759580D02*
X96619523Y-49664342D01*
X96619523Y-49664342D02*
X96619523Y-48854819D01*
X97524285Y-49188152D02*
X97524285Y-49854819D01*
X97286190Y-48807200D02*
X97048095Y-49521485D01*
X97048095Y-49521485D02*
X97667142Y-49521485D01*
X96264819Y-62262856D02*
X96264819Y-61596190D01*
X96264819Y-61596190D02*
X97264819Y-62024761D01*
X96598152Y-60786666D02*
X97264819Y-60786666D01*
X96217200Y-61024761D02*
X96931485Y-61262856D01*
X96931485Y-61262856D02*
X96931485Y-60643809D01*
X97264819Y-59786666D02*
X97264819Y-60262856D01*
X97264819Y-60262856D02*
X96264819Y-60262856D01*
X97217200Y-59500951D02*
X97264819Y-59358094D01*
X97264819Y-59358094D02*
X97264819Y-59119999D01*
X97264819Y-59119999D02*
X97217200Y-59024761D01*
X97217200Y-59024761D02*
X97169580Y-58977142D01*
X97169580Y-58977142D02*
X97074342Y-58929523D01*
X97074342Y-58929523D02*
X96979104Y-58929523D01*
X96979104Y-58929523D02*
X96883866Y-58977142D01*
X96883866Y-58977142D02*
X96836247Y-59024761D01*
X96836247Y-59024761D02*
X96788628Y-59119999D01*
X96788628Y-59119999D02*
X96741009Y-59310475D01*
X96741009Y-59310475D02*
X96693390Y-59405713D01*
X96693390Y-59405713D02*
X96645771Y-59453332D01*
X96645771Y-59453332D02*
X96550533Y-59500951D01*
X96550533Y-59500951D02*
X96455295Y-59500951D01*
X96455295Y-59500951D02*
X96360057Y-59453332D01*
X96360057Y-59453332D02*
X96312438Y-59405713D01*
X96312438Y-59405713D02*
X96264819Y-59310475D01*
X96264819Y-59310475D02*
X96264819Y-59072380D01*
X96264819Y-59072380D02*
X96312438Y-58929523D01*
X96264819Y-58310475D02*
X96264819Y-58215237D01*
X96264819Y-58215237D02*
X96312438Y-58119999D01*
X96312438Y-58119999D02*
X96360057Y-58072380D01*
X96360057Y-58072380D02*
X96455295Y-58024761D01*
X96455295Y-58024761D02*
X96645771Y-57977142D01*
X96645771Y-57977142D02*
X96883866Y-57977142D01*
X96883866Y-57977142D02*
X97074342Y-58024761D01*
X97074342Y-58024761D02*
X97169580Y-58072380D01*
X97169580Y-58072380D02*
X97217200Y-58119999D01*
X97217200Y-58119999D02*
X97264819Y-58215237D01*
X97264819Y-58215237D02*
X97264819Y-58310475D01*
X97264819Y-58310475D02*
X97217200Y-58405713D01*
X97217200Y-58405713D02*
X97169580Y-58453332D01*
X97169580Y-58453332D02*
X97074342Y-58500951D01*
X97074342Y-58500951D02*
X96883866Y-58548570D01*
X96883866Y-58548570D02*
X96645771Y-58548570D01*
X96645771Y-58548570D02*
X96455295Y-58500951D01*
X96455295Y-58500951D02*
X96360057Y-58453332D01*
X96360057Y-58453332D02*
X96312438Y-58405713D01*
X96312438Y-58405713D02*
X96264819Y-58310475D01*
X96693390Y-57405713D02*
X96645771Y-57500951D01*
X96645771Y-57500951D02*
X96598152Y-57548570D01*
X96598152Y-57548570D02*
X96502914Y-57596189D01*
X96502914Y-57596189D02*
X96455295Y-57596189D01*
X96455295Y-57596189D02*
X96360057Y-57548570D01*
X96360057Y-57548570D02*
X96312438Y-57500951D01*
X96312438Y-57500951D02*
X96264819Y-57405713D01*
X96264819Y-57405713D02*
X96264819Y-57215237D01*
X96264819Y-57215237D02*
X96312438Y-57119999D01*
X96312438Y-57119999D02*
X96360057Y-57072380D01*
X96360057Y-57072380D02*
X96455295Y-57024761D01*
X96455295Y-57024761D02*
X96502914Y-57024761D01*
X96502914Y-57024761D02*
X96598152Y-57072380D01*
X96598152Y-57072380D02*
X96645771Y-57119999D01*
X96645771Y-57119999D02*
X96693390Y-57215237D01*
X96693390Y-57215237D02*
X96693390Y-57405713D01*
X96693390Y-57405713D02*
X96741009Y-57500951D01*
X96741009Y-57500951D02*
X96788628Y-57548570D01*
X96788628Y-57548570D02*
X96883866Y-57596189D01*
X96883866Y-57596189D02*
X97074342Y-57596189D01*
X97074342Y-57596189D02*
X97169580Y-57548570D01*
X97169580Y-57548570D02*
X97217200Y-57500951D01*
X97217200Y-57500951D02*
X97264819Y-57405713D01*
X97264819Y-57405713D02*
X97264819Y-57215237D01*
X97264819Y-57215237D02*
X97217200Y-57119999D01*
X97217200Y-57119999D02*
X97169580Y-57072380D01*
X97169580Y-57072380D02*
X97074342Y-57024761D01*
X97074342Y-57024761D02*
X96883866Y-57024761D01*
X96883866Y-57024761D02*
X96788628Y-57072380D01*
X96788628Y-57072380D02*
X96741009Y-57119999D01*
X96741009Y-57119999D02*
X96693390Y-57215237D01*
X86770000Y-50022842D02*
X86727143Y-50065700D01*
X86727143Y-50065700D02*
X86598571Y-50108557D01*
X86598571Y-50108557D02*
X86512857Y-50108557D01*
X86512857Y-50108557D02*
X86384286Y-50065700D01*
X86384286Y-50065700D02*
X86298571Y-49979985D01*
X86298571Y-49979985D02*
X86255714Y-49894271D01*
X86255714Y-49894271D02*
X86212857Y-49722842D01*
X86212857Y-49722842D02*
X86212857Y-49594271D01*
X86212857Y-49594271D02*
X86255714Y-49422842D01*
X86255714Y-49422842D02*
X86298571Y-49337128D01*
X86298571Y-49337128D02*
X86384286Y-49251414D01*
X86384286Y-49251414D02*
X86512857Y-49208557D01*
X86512857Y-49208557D02*
X86598571Y-49208557D01*
X86598571Y-49208557D02*
X86727143Y-49251414D01*
X86727143Y-49251414D02*
X86770000Y-49294271D01*
X87070000Y-49208557D02*
X87627143Y-49208557D01*
X87627143Y-49208557D02*
X87327143Y-49551414D01*
X87327143Y-49551414D02*
X87455714Y-49551414D01*
X87455714Y-49551414D02*
X87541429Y-49594271D01*
X87541429Y-49594271D02*
X87584286Y-49637128D01*
X87584286Y-49637128D02*
X87627143Y-49722842D01*
X87627143Y-49722842D02*
X87627143Y-49937128D01*
X87627143Y-49937128D02*
X87584286Y-50022842D01*
X87584286Y-50022842D02*
X87541429Y-50065700D01*
X87541429Y-50065700D02*
X87455714Y-50108557D01*
X87455714Y-50108557D02*
X87198571Y-50108557D01*
X87198571Y-50108557D02*
X87112857Y-50065700D01*
X87112857Y-50065700D02*
X87070000Y-50022842D01*
X89682295Y-55395238D02*
X89682295Y-55852381D01*
X89682295Y-55623809D02*
X88882295Y-55623809D01*
X88882295Y-55623809D02*
X88996580Y-55700000D01*
X88996580Y-55700000D02*
X89072771Y-55776190D01*
X89072771Y-55776190D02*
X89110866Y-55852381D01*
X88882295Y-54899999D02*
X88882295Y-54823809D01*
X88882295Y-54823809D02*
X88920390Y-54747618D01*
X88920390Y-54747618D02*
X88958485Y-54709523D01*
X88958485Y-54709523D02*
X89034676Y-54671428D01*
X89034676Y-54671428D02*
X89187057Y-54633333D01*
X89187057Y-54633333D02*
X89377533Y-54633333D01*
X89377533Y-54633333D02*
X89529914Y-54671428D01*
X89529914Y-54671428D02*
X89606104Y-54709523D01*
X89606104Y-54709523D02*
X89644200Y-54747618D01*
X89644200Y-54747618D02*
X89682295Y-54823809D01*
X89682295Y-54823809D02*
X89682295Y-54899999D01*
X89682295Y-54899999D02*
X89644200Y-54976190D01*
X89644200Y-54976190D02*
X89606104Y-55014285D01*
X89606104Y-55014285D02*
X89529914Y-55052380D01*
X89529914Y-55052380D02*
X89377533Y-55090476D01*
X89377533Y-55090476D02*
X89187057Y-55090476D01*
X89187057Y-55090476D02*
X89034676Y-55052380D01*
X89034676Y-55052380D02*
X88958485Y-55014285D01*
X88958485Y-55014285D02*
X88920390Y-54976190D01*
X88920390Y-54976190D02*
X88882295Y-54899999D01*
X88882295Y-54138094D02*
X88882295Y-54061904D01*
X88882295Y-54061904D02*
X88920390Y-53985713D01*
X88920390Y-53985713D02*
X88958485Y-53947618D01*
X88958485Y-53947618D02*
X89034676Y-53909523D01*
X89034676Y-53909523D02*
X89187057Y-53871428D01*
X89187057Y-53871428D02*
X89377533Y-53871428D01*
X89377533Y-53871428D02*
X89529914Y-53909523D01*
X89529914Y-53909523D02*
X89606104Y-53947618D01*
X89606104Y-53947618D02*
X89644200Y-53985713D01*
X89644200Y-53985713D02*
X89682295Y-54061904D01*
X89682295Y-54061904D02*
X89682295Y-54138094D01*
X89682295Y-54138094D02*
X89644200Y-54214285D01*
X89644200Y-54214285D02*
X89606104Y-54252380D01*
X89606104Y-54252380D02*
X89529914Y-54290475D01*
X89529914Y-54290475D02*
X89377533Y-54328571D01*
X89377533Y-54328571D02*
X89187057Y-54328571D01*
X89187057Y-54328571D02*
X89034676Y-54290475D01*
X89034676Y-54290475D02*
X88958485Y-54252380D01*
X88958485Y-54252380D02*
X88920390Y-54214285D01*
X88920390Y-54214285D02*
X88882295Y-54138094D01*
X89148961Y-53528570D02*
X89682295Y-53528570D01*
X89225152Y-53528570D02*
X89187057Y-53490475D01*
X89187057Y-53490475D02*
X89148961Y-53414285D01*
X89148961Y-53414285D02*
X89148961Y-53299999D01*
X89148961Y-53299999D02*
X89187057Y-53223808D01*
X89187057Y-53223808D02*
X89263247Y-53185713D01*
X89263247Y-53185713D02*
X89682295Y-53185713D01*
X158850000Y-96322842D02*
X158807143Y-96365700D01*
X158807143Y-96365700D02*
X158678571Y-96408557D01*
X158678571Y-96408557D02*
X158592857Y-96408557D01*
X158592857Y-96408557D02*
X158464286Y-96365700D01*
X158464286Y-96365700D02*
X158378571Y-96279985D01*
X158378571Y-96279985D02*
X158335714Y-96194271D01*
X158335714Y-96194271D02*
X158292857Y-96022842D01*
X158292857Y-96022842D02*
X158292857Y-95894271D01*
X158292857Y-95894271D02*
X158335714Y-95722842D01*
X158335714Y-95722842D02*
X158378571Y-95637128D01*
X158378571Y-95637128D02*
X158464286Y-95551414D01*
X158464286Y-95551414D02*
X158592857Y-95508557D01*
X158592857Y-95508557D02*
X158678571Y-95508557D01*
X158678571Y-95508557D02*
X158807143Y-95551414D01*
X158807143Y-95551414D02*
X158850000Y-95594271D01*
X159621429Y-95508557D02*
X159450000Y-95508557D01*
X159450000Y-95508557D02*
X159364286Y-95551414D01*
X159364286Y-95551414D02*
X159321429Y-95594271D01*
X159321429Y-95594271D02*
X159235714Y-95722842D01*
X159235714Y-95722842D02*
X159192857Y-95894271D01*
X159192857Y-95894271D02*
X159192857Y-96237128D01*
X159192857Y-96237128D02*
X159235714Y-96322842D01*
X159235714Y-96322842D02*
X159278571Y-96365700D01*
X159278571Y-96365700D02*
X159364286Y-96408557D01*
X159364286Y-96408557D02*
X159535714Y-96408557D01*
X159535714Y-96408557D02*
X159621429Y-96365700D01*
X159621429Y-96365700D02*
X159664286Y-96322842D01*
X159664286Y-96322842D02*
X159707143Y-96237128D01*
X159707143Y-96237128D02*
X159707143Y-96022842D01*
X159707143Y-96022842D02*
X159664286Y-95937128D01*
X159664286Y-95937128D02*
X159621429Y-95894271D01*
X159621429Y-95894271D02*
X159535714Y-95851414D01*
X159535714Y-95851414D02*
X159364286Y-95851414D01*
X159364286Y-95851414D02*
X159278571Y-95894271D01*
X159278571Y-95894271D02*
X159235714Y-95937128D01*
X159235714Y-95937128D02*
X159192857Y-96022842D01*
X158421428Y-104408557D02*
X157907142Y-104408557D01*
X158164285Y-104408557D02*
X158164285Y-103508557D01*
X158164285Y-103508557D02*
X158078571Y-103637128D01*
X158078571Y-103637128D02*
X157992856Y-103722842D01*
X157992856Y-103722842D02*
X157907142Y-103765700D01*
X158978571Y-103508557D02*
X159064285Y-103508557D01*
X159064285Y-103508557D02*
X159149999Y-103551414D01*
X159149999Y-103551414D02*
X159192857Y-103594271D01*
X159192857Y-103594271D02*
X159235714Y-103679985D01*
X159235714Y-103679985D02*
X159278571Y-103851414D01*
X159278571Y-103851414D02*
X159278571Y-104065700D01*
X159278571Y-104065700D02*
X159235714Y-104237128D01*
X159235714Y-104237128D02*
X159192857Y-104322842D01*
X159192857Y-104322842D02*
X159149999Y-104365700D01*
X159149999Y-104365700D02*
X159064285Y-104408557D01*
X159064285Y-104408557D02*
X158978571Y-104408557D01*
X158978571Y-104408557D02*
X158892857Y-104365700D01*
X158892857Y-104365700D02*
X158849999Y-104322842D01*
X158849999Y-104322842D02*
X158807142Y-104237128D01*
X158807142Y-104237128D02*
X158764285Y-104065700D01*
X158764285Y-104065700D02*
X158764285Y-103851414D01*
X158764285Y-103851414D02*
X158807142Y-103679985D01*
X158807142Y-103679985D02*
X158849999Y-103594271D01*
X158849999Y-103594271D02*
X158892857Y-103551414D01*
X158892857Y-103551414D02*
X158978571Y-103508557D01*
X160050000Y-103808557D02*
X160050000Y-104408557D01*
X159664285Y-103808557D02*
X159664285Y-104279985D01*
X159664285Y-104279985D02*
X159707142Y-104365700D01*
X159707142Y-104365700D02*
X159792857Y-104408557D01*
X159792857Y-104408557D02*
X159921428Y-104408557D01*
X159921428Y-104408557D02*
X160007142Y-104365700D01*
X160007142Y-104365700D02*
X160050000Y-104322842D01*
X189222857Y-100708557D02*
X188794285Y-100708557D01*
X188794285Y-100708557D02*
X188794285Y-99808557D01*
X189522856Y-100237128D02*
X189822856Y-100237128D01*
X189951428Y-100708557D02*
X189522856Y-100708557D01*
X189522856Y-100708557D02*
X189522856Y-99808557D01*
X189522856Y-99808557D02*
X189951428Y-99808557D01*
X190337142Y-100708557D02*
X190337142Y-99808557D01*
X190337142Y-99808557D02*
X190551428Y-99808557D01*
X190551428Y-99808557D02*
X190679999Y-99851414D01*
X190679999Y-99851414D02*
X190765714Y-99937128D01*
X190765714Y-99937128D02*
X190808571Y-100022842D01*
X190808571Y-100022842D02*
X190851428Y-100194271D01*
X190851428Y-100194271D02*
X190851428Y-100322842D01*
X190851428Y-100322842D02*
X190808571Y-100494271D01*
X190808571Y-100494271D02*
X190765714Y-100579985D01*
X190765714Y-100579985D02*
X190679999Y-100665700D01*
X190679999Y-100665700D02*
X190551428Y-100708557D01*
X190551428Y-100708557D02*
X190337142Y-100708557D01*
X191708571Y-100708557D02*
X191194285Y-100708557D01*
X191451428Y-100708557D02*
X191451428Y-99808557D01*
X191451428Y-99808557D02*
X191365714Y-99937128D01*
X191365714Y-99937128D02*
X191279999Y-100022842D01*
X191279999Y-100022842D02*
X191194285Y-100065700D01*
X171166666Y-53114819D02*
X171166666Y-53829104D01*
X171166666Y-53829104D02*
X171119047Y-53971961D01*
X171119047Y-53971961D02*
X171023809Y-54067200D01*
X171023809Y-54067200D02*
X170880952Y-54114819D01*
X170880952Y-54114819D02*
X170785714Y-54114819D01*
X171642857Y-54114819D02*
X171642857Y-53114819D01*
X171642857Y-53114819D02*
X172023809Y-53114819D01*
X172023809Y-53114819D02*
X172119047Y-53162438D01*
X172119047Y-53162438D02*
X172166666Y-53210057D01*
X172166666Y-53210057D02*
X172214285Y-53305295D01*
X172214285Y-53305295D02*
X172214285Y-53448152D01*
X172214285Y-53448152D02*
X172166666Y-53543390D01*
X172166666Y-53543390D02*
X172119047Y-53591009D01*
X172119047Y-53591009D02*
X172023809Y-53638628D01*
X172023809Y-53638628D02*
X171642857Y-53638628D01*
X173166666Y-54114819D02*
X172595238Y-54114819D01*
X172880952Y-54114819D02*
X172880952Y-53114819D01*
X172880952Y-53114819D02*
X172785714Y-53257676D01*
X172785714Y-53257676D02*
X172690476Y-53352914D01*
X172690476Y-53352914D02*
X172595238Y-53400533D01*
X177562295Y-60469523D02*
X176762295Y-60469523D01*
X176762295Y-60469523D02*
X176762295Y-60164761D01*
X176762295Y-60164761D02*
X176800390Y-60088571D01*
X176800390Y-60088571D02*
X176838485Y-60050476D01*
X176838485Y-60050476D02*
X176914676Y-60012380D01*
X176914676Y-60012380D02*
X177028961Y-60012380D01*
X177028961Y-60012380D02*
X177105152Y-60050476D01*
X177105152Y-60050476D02*
X177143247Y-60088571D01*
X177143247Y-60088571D02*
X177181342Y-60164761D01*
X177181342Y-60164761D02*
X177181342Y-60469523D01*
X177562295Y-59669523D02*
X176762295Y-59669523D01*
X177562295Y-59288571D02*
X176762295Y-59288571D01*
X176762295Y-59288571D02*
X177562295Y-58831428D01*
X177562295Y-58831428D02*
X176762295Y-58831428D01*
X176838485Y-58488572D02*
X176800390Y-58450476D01*
X176800390Y-58450476D02*
X176762295Y-58374286D01*
X176762295Y-58374286D02*
X176762295Y-58183810D01*
X176762295Y-58183810D02*
X176800390Y-58107619D01*
X176800390Y-58107619D02*
X176838485Y-58069524D01*
X176838485Y-58069524D02*
X176914676Y-58031429D01*
X176914676Y-58031429D02*
X176990866Y-58031429D01*
X176990866Y-58031429D02*
X177105152Y-58069524D01*
X177105152Y-58069524D02*
X177562295Y-58526667D01*
X177562295Y-58526667D02*
X177562295Y-58031429D01*
X176762295Y-57536190D02*
X176762295Y-57460000D01*
X176762295Y-57460000D02*
X176800390Y-57383809D01*
X176800390Y-57383809D02*
X176838485Y-57345714D01*
X176838485Y-57345714D02*
X176914676Y-57307619D01*
X176914676Y-57307619D02*
X177067057Y-57269524D01*
X177067057Y-57269524D02*
X177257533Y-57269524D01*
X177257533Y-57269524D02*
X177409914Y-57307619D01*
X177409914Y-57307619D02*
X177486104Y-57345714D01*
X177486104Y-57345714D02*
X177524200Y-57383809D01*
X177524200Y-57383809D02*
X177562295Y-57460000D01*
X177562295Y-57460000D02*
X177562295Y-57536190D01*
X177562295Y-57536190D02*
X177524200Y-57612381D01*
X177524200Y-57612381D02*
X177486104Y-57650476D01*
X177486104Y-57650476D02*
X177409914Y-57688571D01*
X177409914Y-57688571D02*
X177257533Y-57726667D01*
X177257533Y-57726667D02*
X177067057Y-57726667D01*
X177067057Y-57726667D02*
X176914676Y-57688571D01*
X176914676Y-57688571D02*
X176838485Y-57650476D01*
X176838485Y-57650476D02*
X176800390Y-57612381D01*
X176800390Y-57612381D02*
X176762295Y-57536190D01*
X176762295Y-55936190D02*
X176762295Y-56317142D01*
X176762295Y-56317142D02*
X177143247Y-56355238D01*
X177143247Y-56355238D02*
X177105152Y-56317142D01*
X177105152Y-56317142D02*
X177067057Y-56240952D01*
X177067057Y-56240952D02*
X177067057Y-56050476D01*
X177067057Y-56050476D02*
X177105152Y-55974285D01*
X177105152Y-55974285D02*
X177143247Y-55936190D01*
X177143247Y-55936190D02*
X177219438Y-55898095D01*
X177219438Y-55898095D02*
X177409914Y-55898095D01*
X177409914Y-55898095D02*
X177486104Y-55936190D01*
X177486104Y-55936190D02*
X177524200Y-55974285D01*
X177524200Y-55974285D02*
X177562295Y-56050476D01*
X177562295Y-56050476D02*
X177562295Y-56240952D01*
X177562295Y-56240952D02*
X177524200Y-56317142D01*
X177524200Y-56317142D02*
X177486104Y-56355238D01*
X176762295Y-55669523D02*
X177562295Y-55402856D01*
X177562295Y-55402856D02*
X176762295Y-55136190D01*
X176930000Y-94208557D02*
X176630000Y-93779985D01*
X176415714Y-94208557D02*
X176415714Y-93308557D01*
X176415714Y-93308557D02*
X176758571Y-93308557D01*
X176758571Y-93308557D02*
X176844286Y-93351414D01*
X176844286Y-93351414D02*
X176887143Y-93394271D01*
X176887143Y-93394271D02*
X176930000Y-93479985D01*
X176930000Y-93479985D02*
X176930000Y-93608557D01*
X176930000Y-93608557D02*
X176887143Y-93694271D01*
X176887143Y-93694271D02*
X176844286Y-93737128D01*
X176844286Y-93737128D02*
X176758571Y-93779985D01*
X176758571Y-93779985D02*
X176415714Y-93779985D01*
X177230000Y-93308557D02*
X177830000Y-93308557D01*
X177830000Y-93308557D02*
X177444286Y-94208557D01*
X176972857Y-98608557D02*
X176458571Y-98608557D01*
X176715714Y-98608557D02*
X176715714Y-97708557D01*
X176715714Y-97708557D02*
X176630000Y-97837128D01*
X176630000Y-97837128D02*
X176544285Y-97922842D01*
X176544285Y-97922842D02*
X176458571Y-97965700D01*
X177358571Y-98608557D02*
X177358571Y-97708557D01*
X177444286Y-98265700D02*
X177701428Y-98608557D01*
X177701428Y-98008557D02*
X177358571Y-98351414D01*
X143454819Y-44850476D02*
X142978628Y-45183809D01*
X143454819Y-45421904D02*
X142454819Y-45421904D01*
X142454819Y-45421904D02*
X142454819Y-45040952D01*
X142454819Y-45040952D02*
X142502438Y-44945714D01*
X142502438Y-44945714D02*
X142550057Y-44898095D01*
X142550057Y-44898095D02*
X142645295Y-44850476D01*
X142645295Y-44850476D02*
X142788152Y-44850476D01*
X142788152Y-44850476D02*
X142883390Y-44898095D01*
X142883390Y-44898095D02*
X142931009Y-44945714D01*
X142931009Y-44945714D02*
X142978628Y-45040952D01*
X142978628Y-45040952D02*
X142978628Y-45421904D01*
X143454819Y-44421904D02*
X142454819Y-44421904D01*
X142454819Y-44421904D02*
X143454819Y-43850476D01*
X143454819Y-43850476D02*
X142454819Y-43850476D01*
X143454819Y-42850476D02*
X143454819Y-43421904D01*
X143454819Y-43136190D02*
X142454819Y-43136190D01*
X142454819Y-43136190D02*
X142597676Y-43231428D01*
X142597676Y-43231428D02*
X142692914Y-43326666D01*
X142692914Y-43326666D02*
X142740533Y-43421904D01*
X149208557Y-45831427D02*
X149208557Y-46345713D01*
X149208557Y-46088570D02*
X148308557Y-46088570D01*
X148308557Y-46088570D02*
X148437128Y-46174284D01*
X148437128Y-46174284D02*
X148522842Y-46259999D01*
X148522842Y-46259999D02*
X148565700Y-46345713D01*
X148308557Y-45274284D02*
X148308557Y-45188570D01*
X148308557Y-45188570D02*
X148351414Y-45102856D01*
X148351414Y-45102856D02*
X148394271Y-45059999D01*
X148394271Y-45059999D02*
X148479985Y-45017141D01*
X148479985Y-45017141D02*
X148651414Y-44974284D01*
X148651414Y-44974284D02*
X148865700Y-44974284D01*
X148865700Y-44974284D02*
X149037128Y-45017141D01*
X149037128Y-45017141D02*
X149122842Y-45059999D01*
X149122842Y-45059999D02*
X149165700Y-45102856D01*
X149165700Y-45102856D02*
X149208557Y-45188570D01*
X149208557Y-45188570D02*
X149208557Y-45274284D01*
X149208557Y-45274284D02*
X149165700Y-45359999D01*
X149165700Y-45359999D02*
X149122842Y-45402856D01*
X149122842Y-45402856D02*
X149037128Y-45445713D01*
X149037128Y-45445713D02*
X148865700Y-45488570D01*
X148865700Y-45488570D02*
X148651414Y-45488570D01*
X148651414Y-45488570D02*
X148479985Y-45445713D01*
X148479985Y-45445713D02*
X148394271Y-45402856D01*
X148394271Y-45402856D02*
X148351414Y-45359999D01*
X148351414Y-45359999D02*
X148308557Y-45274284D01*
X149208557Y-44588570D02*
X148308557Y-44588570D01*
X148865700Y-44502856D02*
X149208557Y-44245713D01*
X148608557Y-44245713D02*
X148951414Y-44588570D01*
X149208557Y-43259999D02*
X148608557Y-42788571D01*
X148608557Y-43259999D02*
X149208557Y-42788571D01*
X148694271Y-42317142D02*
X148651414Y-42402857D01*
X148651414Y-42402857D02*
X148608557Y-42445714D01*
X148608557Y-42445714D02*
X148522842Y-42488571D01*
X148522842Y-42488571D02*
X148479985Y-42488571D01*
X148479985Y-42488571D02*
X148394271Y-42445714D01*
X148394271Y-42445714D02*
X148351414Y-42402857D01*
X148351414Y-42402857D02*
X148308557Y-42317142D01*
X148308557Y-42317142D02*
X148308557Y-42145714D01*
X148308557Y-42145714D02*
X148351414Y-42060000D01*
X148351414Y-42060000D02*
X148394271Y-42017142D01*
X148394271Y-42017142D02*
X148479985Y-41974285D01*
X148479985Y-41974285D02*
X148522842Y-41974285D01*
X148522842Y-41974285D02*
X148608557Y-42017142D01*
X148608557Y-42017142D02*
X148651414Y-42060000D01*
X148651414Y-42060000D02*
X148694271Y-42145714D01*
X148694271Y-42145714D02*
X148694271Y-42317142D01*
X148694271Y-42317142D02*
X148737128Y-42402857D01*
X148737128Y-42402857D02*
X148779985Y-42445714D01*
X148779985Y-42445714D02*
X148865700Y-42488571D01*
X148865700Y-42488571D02*
X149037128Y-42488571D01*
X149037128Y-42488571D02*
X149122842Y-42445714D01*
X149122842Y-42445714D02*
X149165700Y-42402857D01*
X149165700Y-42402857D02*
X149208557Y-42317142D01*
X149208557Y-42317142D02*
X149208557Y-42145714D01*
X149208557Y-42145714D02*
X149165700Y-42060000D01*
X149165700Y-42060000D02*
X149122842Y-42017142D01*
X149122842Y-42017142D02*
X149037128Y-41974285D01*
X149037128Y-41974285D02*
X148865700Y-41974285D01*
X148865700Y-41974285D02*
X148779985Y-42017142D01*
X148779985Y-42017142D02*
X148737128Y-42060000D01*
X148737128Y-42060000D02*
X148694271Y-42145714D01*
X52770000Y-50022842D02*
X52727143Y-50065700D01*
X52727143Y-50065700D02*
X52598571Y-50108557D01*
X52598571Y-50108557D02*
X52512857Y-50108557D01*
X52512857Y-50108557D02*
X52384286Y-50065700D01*
X52384286Y-50065700D02*
X52298571Y-49979985D01*
X52298571Y-49979985D02*
X52255714Y-49894271D01*
X52255714Y-49894271D02*
X52212857Y-49722842D01*
X52212857Y-49722842D02*
X52212857Y-49594271D01*
X52212857Y-49594271D02*
X52255714Y-49422842D01*
X52255714Y-49422842D02*
X52298571Y-49337128D01*
X52298571Y-49337128D02*
X52384286Y-49251414D01*
X52384286Y-49251414D02*
X52512857Y-49208557D01*
X52512857Y-49208557D02*
X52598571Y-49208557D01*
X52598571Y-49208557D02*
X52727143Y-49251414D01*
X52727143Y-49251414D02*
X52770000Y-49294271D01*
X53627143Y-50108557D02*
X53112857Y-50108557D01*
X53370000Y-50108557D02*
X53370000Y-49208557D01*
X53370000Y-49208557D02*
X53284286Y-49337128D01*
X53284286Y-49337128D02*
X53198571Y-49422842D01*
X53198571Y-49422842D02*
X53112857Y-49465700D01*
X55682294Y-55395238D02*
X55682294Y-55852381D01*
X55682294Y-55623809D02*
X54882294Y-55623809D01*
X54882294Y-55623809D02*
X54996579Y-55700000D01*
X54996579Y-55700000D02*
X55072770Y-55776190D01*
X55072770Y-55776190D02*
X55110865Y-55852381D01*
X54882294Y-54899999D02*
X54882294Y-54823809D01*
X54882294Y-54823809D02*
X54920389Y-54747618D01*
X54920389Y-54747618D02*
X54958484Y-54709523D01*
X54958484Y-54709523D02*
X55034675Y-54671428D01*
X55034675Y-54671428D02*
X55187056Y-54633333D01*
X55187056Y-54633333D02*
X55377532Y-54633333D01*
X55377532Y-54633333D02*
X55529913Y-54671428D01*
X55529913Y-54671428D02*
X55606103Y-54709523D01*
X55606103Y-54709523D02*
X55644199Y-54747618D01*
X55644199Y-54747618D02*
X55682294Y-54823809D01*
X55682294Y-54823809D02*
X55682294Y-54899999D01*
X55682294Y-54899999D02*
X55644199Y-54976190D01*
X55644199Y-54976190D02*
X55606103Y-55014285D01*
X55606103Y-55014285D02*
X55529913Y-55052380D01*
X55529913Y-55052380D02*
X55377532Y-55090476D01*
X55377532Y-55090476D02*
X55187056Y-55090476D01*
X55187056Y-55090476D02*
X55034675Y-55052380D01*
X55034675Y-55052380D02*
X54958484Y-55014285D01*
X54958484Y-55014285D02*
X54920389Y-54976190D01*
X54920389Y-54976190D02*
X54882294Y-54899999D01*
X54882294Y-54138094D02*
X54882294Y-54061904D01*
X54882294Y-54061904D02*
X54920389Y-53985713D01*
X54920389Y-53985713D02*
X54958484Y-53947618D01*
X54958484Y-53947618D02*
X55034675Y-53909523D01*
X55034675Y-53909523D02*
X55187056Y-53871428D01*
X55187056Y-53871428D02*
X55377532Y-53871428D01*
X55377532Y-53871428D02*
X55529913Y-53909523D01*
X55529913Y-53909523D02*
X55606103Y-53947618D01*
X55606103Y-53947618D02*
X55644199Y-53985713D01*
X55644199Y-53985713D02*
X55682294Y-54061904D01*
X55682294Y-54061904D02*
X55682294Y-54138094D01*
X55682294Y-54138094D02*
X55644199Y-54214285D01*
X55644199Y-54214285D02*
X55606103Y-54252380D01*
X55606103Y-54252380D02*
X55529913Y-54290475D01*
X55529913Y-54290475D02*
X55377532Y-54328571D01*
X55377532Y-54328571D02*
X55187056Y-54328571D01*
X55187056Y-54328571D02*
X55034675Y-54290475D01*
X55034675Y-54290475D02*
X54958484Y-54252380D01*
X54958484Y-54252380D02*
X54920389Y-54214285D01*
X54920389Y-54214285D02*
X54882294Y-54138094D01*
X55148960Y-53528570D02*
X55682294Y-53528570D01*
X55225151Y-53528570D02*
X55187056Y-53490475D01*
X55187056Y-53490475D02*
X55148960Y-53414285D01*
X55148960Y-53414285D02*
X55148960Y-53299999D01*
X55148960Y-53299999D02*
X55187056Y-53223808D01*
X55187056Y-53223808D02*
X55263246Y-53185713D01*
X55263246Y-53185713D02*
X55682294Y-53185713D01*
X120770000Y-50022842D02*
X120727143Y-50065700D01*
X120727143Y-50065700D02*
X120598571Y-50108557D01*
X120598571Y-50108557D02*
X120512857Y-50108557D01*
X120512857Y-50108557D02*
X120384286Y-50065700D01*
X120384286Y-50065700D02*
X120298571Y-49979985D01*
X120298571Y-49979985D02*
X120255714Y-49894271D01*
X120255714Y-49894271D02*
X120212857Y-49722842D01*
X120212857Y-49722842D02*
X120212857Y-49594271D01*
X120212857Y-49594271D02*
X120255714Y-49422842D01*
X120255714Y-49422842D02*
X120298571Y-49337128D01*
X120298571Y-49337128D02*
X120384286Y-49251414D01*
X120384286Y-49251414D02*
X120512857Y-49208557D01*
X120512857Y-49208557D02*
X120598571Y-49208557D01*
X120598571Y-49208557D02*
X120727143Y-49251414D01*
X120727143Y-49251414D02*
X120770000Y-49294271D01*
X121584286Y-49208557D02*
X121155714Y-49208557D01*
X121155714Y-49208557D02*
X121112857Y-49637128D01*
X121112857Y-49637128D02*
X121155714Y-49594271D01*
X121155714Y-49594271D02*
X121241429Y-49551414D01*
X121241429Y-49551414D02*
X121455714Y-49551414D01*
X121455714Y-49551414D02*
X121541429Y-49594271D01*
X121541429Y-49594271D02*
X121584286Y-49637128D01*
X121584286Y-49637128D02*
X121627143Y-49722842D01*
X121627143Y-49722842D02*
X121627143Y-49937128D01*
X121627143Y-49937128D02*
X121584286Y-50022842D01*
X121584286Y-50022842D02*
X121541429Y-50065700D01*
X121541429Y-50065700D02*
X121455714Y-50108557D01*
X121455714Y-50108557D02*
X121241429Y-50108557D01*
X121241429Y-50108557D02*
X121155714Y-50065700D01*
X121155714Y-50065700D02*
X121112857Y-50022842D01*
X123682295Y-55395238D02*
X123682295Y-55852381D01*
X123682295Y-55623809D02*
X122882295Y-55623809D01*
X122882295Y-55623809D02*
X122996580Y-55700000D01*
X122996580Y-55700000D02*
X123072771Y-55776190D01*
X123072771Y-55776190D02*
X123110866Y-55852381D01*
X122882295Y-54899999D02*
X122882295Y-54823809D01*
X122882295Y-54823809D02*
X122920390Y-54747618D01*
X122920390Y-54747618D02*
X122958485Y-54709523D01*
X122958485Y-54709523D02*
X123034676Y-54671428D01*
X123034676Y-54671428D02*
X123187057Y-54633333D01*
X123187057Y-54633333D02*
X123377533Y-54633333D01*
X123377533Y-54633333D02*
X123529914Y-54671428D01*
X123529914Y-54671428D02*
X123606104Y-54709523D01*
X123606104Y-54709523D02*
X123644200Y-54747618D01*
X123644200Y-54747618D02*
X123682295Y-54823809D01*
X123682295Y-54823809D02*
X123682295Y-54899999D01*
X123682295Y-54899999D02*
X123644200Y-54976190D01*
X123644200Y-54976190D02*
X123606104Y-55014285D01*
X123606104Y-55014285D02*
X123529914Y-55052380D01*
X123529914Y-55052380D02*
X123377533Y-55090476D01*
X123377533Y-55090476D02*
X123187057Y-55090476D01*
X123187057Y-55090476D02*
X123034676Y-55052380D01*
X123034676Y-55052380D02*
X122958485Y-55014285D01*
X122958485Y-55014285D02*
X122920390Y-54976190D01*
X122920390Y-54976190D02*
X122882295Y-54899999D01*
X122882295Y-54138094D02*
X122882295Y-54061904D01*
X122882295Y-54061904D02*
X122920390Y-53985713D01*
X122920390Y-53985713D02*
X122958485Y-53947618D01*
X122958485Y-53947618D02*
X123034676Y-53909523D01*
X123034676Y-53909523D02*
X123187057Y-53871428D01*
X123187057Y-53871428D02*
X123377533Y-53871428D01*
X123377533Y-53871428D02*
X123529914Y-53909523D01*
X123529914Y-53909523D02*
X123606104Y-53947618D01*
X123606104Y-53947618D02*
X123644200Y-53985713D01*
X123644200Y-53985713D02*
X123682295Y-54061904D01*
X123682295Y-54061904D02*
X123682295Y-54138094D01*
X123682295Y-54138094D02*
X123644200Y-54214285D01*
X123644200Y-54214285D02*
X123606104Y-54252380D01*
X123606104Y-54252380D02*
X123529914Y-54290475D01*
X123529914Y-54290475D02*
X123377533Y-54328571D01*
X123377533Y-54328571D02*
X123187057Y-54328571D01*
X123187057Y-54328571D02*
X123034676Y-54290475D01*
X123034676Y-54290475D02*
X122958485Y-54252380D01*
X122958485Y-54252380D02*
X122920390Y-54214285D01*
X122920390Y-54214285D02*
X122882295Y-54138094D01*
X123148961Y-53528570D02*
X123682295Y-53528570D01*
X123225152Y-53528570D02*
X123187057Y-53490475D01*
X123187057Y-53490475D02*
X123148961Y-53414285D01*
X123148961Y-53414285D02*
X123148961Y-53299999D01*
X123148961Y-53299999D02*
X123187057Y-53223808D01*
X123187057Y-53223808D02*
X123263247Y-53185713D01*
X123263247Y-53185713D02*
X123682295Y-53185713D01*
X79048095Y-48854819D02*
X79048095Y-49664342D01*
X79048095Y-49664342D02*
X79095714Y-49759580D01*
X79095714Y-49759580D02*
X79143333Y-49807200D01*
X79143333Y-49807200D02*
X79238571Y-49854819D01*
X79238571Y-49854819D02*
X79429047Y-49854819D01*
X79429047Y-49854819D02*
X79524285Y-49807200D01*
X79524285Y-49807200D02*
X79571904Y-49759580D01*
X79571904Y-49759580D02*
X79619523Y-49664342D01*
X79619523Y-49664342D02*
X79619523Y-48854819D01*
X80000476Y-48854819D02*
X80619523Y-48854819D01*
X80619523Y-48854819D02*
X80286190Y-49235771D01*
X80286190Y-49235771D02*
X80429047Y-49235771D01*
X80429047Y-49235771D02*
X80524285Y-49283390D01*
X80524285Y-49283390D02*
X80571904Y-49331009D01*
X80571904Y-49331009D02*
X80619523Y-49426247D01*
X80619523Y-49426247D02*
X80619523Y-49664342D01*
X80619523Y-49664342D02*
X80571904Y-49759580D01*
X80571904Y-49759580D02*
X80524285Y-49807200D01*
X80524285Y-49807200D02*
X80429047Y-49854819D01*
X80429047Y-49854819D02*
X80143333Y-49854819D01*
X80143333Y-49854819D02*
X80048095Y-49807200D01*
X80048095Y-49807200D02*
X80000476Y-49759580D01*
X79264819Y-64009047D02*
X79264819Y-63342381D01*
X79264819Y-63342381D02*
X80264819Y-63770952D01*
X79598152Y-62532857D02*
X80264819Y-62532857D01*
X79217200Y-62770952D02*
X79931485Y-63009047D01*
X79931485Y-63009047D02*
X79931485Y-62390000D01*
X80264819Y-61532857D02*
X80264819Y-62009047D01*
X80264819Y-62009047D02*
X79264819Y-62009047D01*
X80217200Y-61247142D02*
X80264819Y-61104285D01*
X80264819Y-61104285D02*
X80264819Y-60866190D01*
X80264819Y-60866190D02*
X80217200Y-60770952D01*
X80217200Y-60770952D02*
X80169580Y-60723333D01*
X80169580Y-60723333D02*
X80074342Y-60675714D01*
X80074342Y-60675714D02*
X79979104Y-60675714D01*
X79979104Y-60675714D02*
X79883866Y-60723333D01*
X79883866Y-60723333D02*
X79836247Y-60770952D01*
X79836247Y-60770952D02*
X79788628Y-60866190D01*
X79788628Y-60866190D02*
X79741009Y-61056666D01*
X79741009Y-61056666D02*
X79693390Y-61151904D01*
X79693390Y-61151904D02*
X79645771Y-61199523D01*
X79645771Y-61199523D02*
X79550533Y-61247142D01*
X79550533Y-61247142D02*
X79455295Y-61247142D01*
X79455295Y-61247142D02*
X79360057Y-61199523D01*
X79360057Y-61199523D02*
X79312438Y-61151904D01*
X79312438Y-61151904D02*
X79264819Y-61056666D01*
X79264819Y-61056666D02*
X79264819Y-60818571D01*
X79264819Y-60818571D02*
X79312438Y-60675714D01*
X80264819Y-59723333D02*
X80264819Y-60294761D01*
X80264819Y-60009047D02*
X79264819Y-60009047D01*
X79264819Y-60009047D02*
X79407676Y-60104285D01*
X79407676Y-60104285D02*
X79502914Y-60199523D01*
X79502914Y-60199523D02*
X79550533Y-60294761D01*
X79264819Y-59389999D02*
X79264819Y-58723333D01*
X79264819Y-58723333D02*
X80264819Y-59151904D01*
X79264819Y-57866190D02*
X79264819Y-58342380D01*
X79264819Y-58342380D02*
X79741009Y-58389999D01*
X79741009Y-58389999D02*
X79693390Y-58342380D01*
X79693390Y-58342380D02*
X79645771Y-58247142D01*
X79645771Y-58247142D02*
X79645771Y-58009047D01*
X79645771Y-58009047D02*
X79693390Y-57913809D01*
X79693390Y-57913809D02*
X79741009Y-57866190D01*
X79741009Y-57866190D02*
X79836247Y-57818571D01*
X79836247Y-57818571D02*
X80074342Y-57818571D01*
X80074342Y-57818571D02*
X80169580Y-57866190D01*
X80169580Y-57866190D02*
X80217200Y-57913809D01*
X80217200Y-57913809D02*
X80264819Y-58009047D01*
X80264819Y-58009047D02*
X80264819Y-58247142D01*
X80264819Y-58247142D02*
X80217200Y-58342380D01*
X80217200Y-58342380D02*
X80169580Y-58389999D01*
X134450000Y-63408557D02*
X134150000Y-62979985D01*
X133935714Y-63408557D02*
X133935714Y-62508557D01*
X133935714Y-62508557D02*
X134278571Y-62508557D01*
X134278571Y-62508557D02*
X134364286Y-62551414D01*
X134364286Y-62551414D02*
X134407143Y-62594271D01*
X134407143Y-62594271D02*
X134450000Y-62679985D01*
X134450000Y-62679985D02*
X134450000Y-62808557D01*
X134450000Y-62808557D02*
X134407143Y-62894271D01*
X134407143Y-62894271D02*
X134364286Y-62937128D01*
X134364286Y-62937128D02*
X134278571Y-62979985D01*
X134278571Y-62979985D02*
X133935714Y-62979985D01*
X135307143Y-63408557D02*
X134792857Y-63408557D01*
X135050000Y-63408557D02*
X135050000Y-62508557D01*
X135050000Y-62508557D02*
X134964286Y-62637128D01*
X134964286Y-62637128D02*
X134878571Y-62722842D01*
X134878571Y-62722842D02*
X134792857Y-62765700D01*
X150864286Y-63408557D02*
X150350000Y-63408557D01*
X150607143Y-63408557D02*
X150607143Y-62508557D01*
X150607143Y-62508557D02*
X150521429Y-62637128D01*
X150521429Y-62637128D02*
X150435714Y-62722842D01*
X150435714Y-62722842D02*
X150350000Y-62765700D01*
X151421429Y-62508557D02*
X151507143Y-62508557D01*
X151507143Y-62508557D02*
X151592857Y-62551414D01*
X151592857Y-62551414D02*
X151635715Y-62594271D01*
X151635715Y-62594271D02*
X151678572Y-62679985D01*
X151678572Y-62679985D02*
X151721429Y-62851414D01*
X151721429Y-62851414D02*
X151721429Y-63065700D01*
X151721429Y-63065700D02*
X151678572Y-63237128D01*
X151678572Y-63237128D02*
X151635715Y-63322842D01*
X151635715Y-63322842D02*
X151592857Y-63365700D01*
X151592857Y-63365700D02*
X151507143Y-63408557D01*
X151507143Y-63408557D02*
X151421429Y-63408557D01*
X151421429Y-63408557D02*
X151335715Y-63365700D01*
X151335715Y-63365700D02*
X151292857Y-63322842D01*
X151292857Y-63322842D02*
X151250000Y-63237128D01*
X151250000Y-63237128D02*
X151207143Y-63065700D01*
X151207143Y-63065700D02*
X151207143Y-62851414D01*
X151207143Y-62851414D02*
X151250000Y-62679985D01*
X151250000Y-62679985D02*
X151292857Y-62594271D01*
X151292857Y-62594271D02*
X151335715Y-62551414D01*
X151335715Y-62551414D02*
X151421429Y-62508557D01*
X152107143Y-63408557D02*
X152107143Y-62508557D01*
X152192858Y-63065700D02*
X152450000Y-63408557D01*
X152450000Y-62808557D02*
X152107143Y-63151414D01*
X189222857Y-110708557D02*
X188794285Y-110708557D01*
X188794285Y-110708557D02*
X188794285Y-109808557D01*
X189522856Y-110237128D02*
X189822856Y-110237128D01*
X189951428Y-110708557D02*
X189522856Y-110708557D01*
X189522856Y-110708557D02*
X189522856Y-109808557D01*
X189522856Y-109808557D02*
X189951428Y-109808557D01*
X190337142Y-110708557D02*
X190337142Y-109808557D01*
X190337142Y-109808557D02*
X190551428Y-109808557D01*
X190551428Y-109808557D02*
X190679999Y-109851414D01*
X190679999Y-109851414D02*
X190765714Y-109937128D01*
X190765714Y-109937128D02*
X190808571Y-110022842D01*
X190808571Y-110022842D02*
X190851428Y-110194271D01*
X190851428Y-110194271D02*
X190851428Y-110322842D01*
X190851428Y-110322842D02*
X190808571Y-110494271D01*
X190808571Y-110494271D02*
X190765714Y-110579985D01*
X190765714Y-110579985D02*
X190679999Y-110665700D01*
X190679999Y-110665700D02*
X190551428Y-110708557D01*
X190551428Y-110708557D02*
X190337142Y-110708557D01*
X191194285Y-109894271D02*
X191237142Y-109851414D01*
X191237142Y-109851414D02*
X191322857Y-109808557D01*
X191322857Y-109808557D02*
X191537142Y-109808557D01*
X191537142Y-109808557D02*
X191622857Y-109851414D01*
X191622857Y-109851414D02*
X191665714Y-109894271D01*
X191665714Y-109894271D02*
X191708571Y-109979985D01*
X191708571Y-109979985D02*
X191708571Y-110065700D01*
X191708571Y-110065700D02*
X191665714Y-110194271D01*
X191665714Y-110194271D02*
X191151428Y-110708557D01*
X191151428Y-110708557D02*
X191708571Y-110708557D01*
X103770000Y-50022842D02*
X103727143Y-50065700D01*
X103727143Y-50065700D02*
X103598571Y-50108557D01*
X103598571Y-50108557D02*
X103512857Y-50108557D01*
X103512857Y-50108557D02*
X103384286Y-50065700D01*
X103384286Y-50065700D02*
X103298571Y-49979985D01*
X103298571Y-49979985D02*
X103255714Y-49894271D01*
X103255714Y-49894271D02*
X103212857Y-49722842D01*
X103212857Y-49722842D02*
X103212857Y-49594271D01*
X103212857Y-49594271D02*
X103255714Y-49422842D01*
X103255714Y-49422842D02*
X103298571Y-49337128D01*
X103298571Y-49337128D02*
X103384286Y-49251414D01*
X103384286Y-49251414D02*
X103512857Y-49208557D01*
X103512857Y-49208557D02*
X103598571Y-49208557D01*
X103598571Y-49208557D02*
X103727143Y-49251414D01*
X103727143Y-49251414D02*
X103770000Y-49294271D01*
X104541429Y-49508557D02*
X104541429Y-50108557D01*
X104327143Y-49165700D02*
X104112857Y-49808557D01*
X104112857Y-49808557D02*
X104670000Y-49808557D01*
X106682295Y-55395238D02*
X106682295Y-55852381D01*
X106682295Y-55623809D02*
X105882295Y-55623809D01*
X105882295Y-55623809D02*
X105996580Y-55700000D01*
X105996580Y-55700000D02*
X106072771Y-55776190D01*
X106072771Y-55776190D02*
X106110866Y-55852381D01*
X105882295Y-54899999D02*
X105882295Y-54823809D01*
X105882295Y-54823809D02*
X105920390Y-54747618D01*
X105920390Y-54747618D02*
X105958485Y-54709523D01*
X105958485Y-54709523D02*
X106034676Y-54671428D01*
X106034676Y-54671428D02*
X106187057Y-54633333D01*
X106187057Y-54633333D02*
X106377533Y-54633333D01*
X106377533Y-54633333D02*
X106529914Y-54671428D01*
X106529914Y-54671428D02*
X106606104Y-54709523D01*
X106606104Y-54709523D02*
X106644200Y-54747618D01*
X106644200Y-54747618D02*
X106682295Y-54823809D01*
X106682295Y-54823809D02*
X106682295Y-54899999D01*
X106682295Y-54899999D02*
X106644200Y-54976190D01*
X106644200Y-54976190D02*
X106606104Y-55014285D01*
X106606104Y-55014285D02*
X106529914Y-55052380D01*
X106529914Y-55052380D02*
X106377533Y-55090476D01*
X106377533Y-55090476D02*
X106187057Y-55090476D01*
X106187057Y-55090476D02*
X106034676Y-55052380D01*
X106034676Y-55052380D02*
X105958485Y-55014285D01*
X105958485Y-55014285D02*
X105920390Y-54976190D01*
X105920390Y-54976190D02*
X105882295Y-54899999D01*
X105882295Y-54138094D02*
X105882295Y-54061904D01*
X105882295Y-54061904D02*
X105920390Y-53985713D01*
X105920390Y-53985713D02*
X105958485Y-53947618D01*
X105958485Y-53947618D02*
X106034676Y-53909523D01*
X106034676Y-53909523D02*
X106187057Y-53871428D01*
X106187057Y-53871428D02*
X106377533Y-53871428D01*
X106377533Y-53871428D02*
X106529914Y-53909523D01*
X106529914Y-53909523D02*
X106606104Y-53947618D01*
X106606104Y-53947618D02*
X106644200Y-53985713D01*
X106644200Y-53985713D02*
X106682295Y-54061904D01*
X106682295Y-54061904D02*
X106682295Y-54138094D01*
X106682295Y-54138094D02*
X106644200Y-54214285D01*
X106644200Y-54214285D02*
X106606104Y-54252380D01*
X106606104Y-54252380D02*
X106529914Y-54290475D01*
X106529914Y-54290475D02*
X106377533Y-54328571D01*
X106377533Y-54328571D02*
X106187057Y-54328571D01*
X106187057Y-54328571D02*
X106034676Y-54290475D01*
X106034676Y-54290475D02*
X105958485Y-54252380D01*
X105958485Y-54252380D02*
X105920390Y-54214285D01*
X105920390Y-54214285D02*
X105882295Y-54138094D01*
X106148961Y-53528570D02*
X106682295Y-53528570D01*
X106225152Y-53528570D02*
X106187057Y-53490475D01*
X106187057Y-53490475D02*
X106148961Y-53414285D01*
X106148961Y-53414285D02*
X106148961Y-53299999D01*
X106148961Y-53299999D02*
X106187057Y-53223808D01*
X106187057Y-53223808D02*
X106263247Y-53185713D01*
X106263247Y-53185713D02*
X106682295Y-53185713D01*
X62048095Y-48854819D02*
X62048095Y-49664342D01*
X62048095Y-49664342D02*
X62095714Y-49759580D01*
X62095714Y-49759580D02*
X62143333Y-49807200D01*
X62143333Y-49807200D02*
X62238571Y-49854819D01*
X62238571Y-49854819D02*
X62429047Y-49854819D01*
X62429047Y-49854819D02*
X62524285Y-49807200D01*
X62524285Y-49807200D02*
X62571904Y-49759580D01*
X62571904Y-49759580D02*
X62619523Y-49664342D01*
X62619523Y-49664342D02*
X62619523Y-48854819D01*
X63048095Y-48950057D02*
X63095714Y-48902438D01*
X63095714Y-48902438D02*
X63190952Y-48854819D01*
X63190952Y-48854819D02*
X63429047Y-48854819D01*
X63429047Y-48854819D02*
X63524285Y-48902438D01*
X63524285Y-48902438D02*
X63571904Y-48950057D01*
X63571904Y-48950057D02*
X63619523Y-49045295D01*
X63619523Y-49045295D02*
X63619523Y-49140533D01*
X63619523Y-49140533D02*
X63571904Y-49283390D01*
X63571904Y-49283390D02*
X63000476Y-49854819D01*
X63000476Y-49854819D02*
X63619523Y-49854819D01*
X62264819Y-62262856D02*
X62264819Y-61596190D01*
X62264819Y-61596190D02*
X63264819Y-62024761D01*
X62598152Y-60786666D02*
X63264819Y-60786666D01*
X62217200Y-61024761D02*
X62931485Y-61262856D01*
X62931485Y-61262856D02*
X62931485Y-60643809D01*
X63264819Y-59786666D02*
X63264819Y-60262856D01*
X63264819Y-60262856D02*
X62264819Y-60262856D01*
X63217200Y-59500951D02*
X63264819Y-59358094D01*
X63264819Y-59358094D02*
X63264819Y-59119999D01*
X63264819Y-59119999D02*
X63217200Y-59024761D01*
X63217200Y-59024761D02*
X63169580Y-58977142D01*
X63169580Y-58977142D02*
X63074342Y-58929523D01*
X63074342Y-58929523D02*
X62979104Y-58929523D01*
X62979104Y-58929523D02*
X62883866Y-58977142D01*
X62883866Y-58977142D02*
X62836247Y-59024761D01*
X62836247Y-59024761D02*
X62788628Y-59119999D01*
X62788628Y-59119999D02*
X62741009Y-59310475D01*
X62741009Y-59310475D02*
X62693390Y-59405713D01*
X62693390Y-59405713D02*
X62645771Y-59453332D01*
X62645771Y-59453332D02*
X62550533Y-59500951D01*
X62550533Y-59500951D02*
X62455295Y-59500951D01*
X62455295Y-59500951D02*
X62360057Y-59453332D01*
X62360057Y-59453332D02*
X62312438Y-59405713D01*
X62312438Y-59405713D02*
X62264819Y-59310475D01*
X62264819Y-59310475D02*
X62264819Y-59072380D01*
X62264819Y-59072380D02*
X62312438Y-58929523D01*
X62264819Y-58596189D02*
X62264819Y-57977142D01*
X62264819Y-57977142D02*
X62645771Y-58310475D01*
X62645771Y-58310475D02*
X62645771Y-58167618D01*
X62645771Y-58167618D02*
X62693390Y-58072380D01*
X62693390Y-58072380D02*
X62741009Y-58024761D01*
X62741009Y-58024761D02*
X62836247Y-57977142D01*
X62836247Y-57977142D02*
X63074342Y-57977142D01*
X63074342Y-57977142D02*
X63169580Y-58024761D01*
X63169580Y-58024761D02*
X63217200Y-58072380D01*
X63217200Y-58072380D02*
X63264819Y-58167618D01*
X63264819Y-58167618D02*
X63264819Y-58453332D01*
X63264819Y-58453332D02*
X63217200Y-58548570D01*
X63217200Y-58548570D02*
X63169580Y-58596189D01*
X62360057Y-57596189D02*
X62312438Y-57548570D01*
X62312438Y-57548570D02*
X62264819Y-57453332D01*
X62264819Y-57453332D02*
X62264819Y-57215237D01*
X62264819Y-57215237D02*
X62312438Y-57119999D01*
X62312438Y-57119999D02*
X62360057Y-57072380D01*
X62360057Y-57072380D02*
X62455295Y-57024761D01*
X62455295Y-57024761D02*
X62550533Y-57024761D01*
X62550533Y-57024761D02*
X62693390Y-57072380D01*
X62693390Y-57072380D02*
X63264819Y-57643808D01*
X63264819Y-57643808D02*
X63264819Y-57024761D01*
X134450000Y-68488557D02*
X134150000Y-68059985D01*
X133935714Y-68488557D02*
X133935714Y-67588557D01*
X133935714Y-67588557D02*
X134278571Y-67588557D01*
X134278571Y-67588557D02*
X134364286Y-67631414D01*
X134364286Y-67631414D02*
X134407143Y-67674271D01*
X134407143Y-67674271D02*
X134450000Y-67759985D01*
X134450000Y-67759985D02*
X134450000Y-67888557D01*
X134450000Y-67888557D02*
X134407143Y-67974271D01*
X134407143Y-67974271D02*
X134364286Y-68017128D01*
X134364286Y-68017128D02*
X134278571Y-68059985D01*
X134278571Y-68059985D02*
X133935714Y-68059985D01*
X134792857Y-67674271D02*
X134835714Y-67631414D01*
X134835714Y-67631414D02*
X134921429Y-67588557D01*
X134921429Y-67588557D02*
X135135714Y-67588557D01*
X135135714Y-67588557D02*
X135221429Y-67631414D01*
X135221429Y-67631414D02*
X135264286Y-67674271D01*
X135264286Y-67674271D02*
X135307143Y-67759985D01*
X135307143Y-67759985D02*
X135307143Y-67845700D01*
X135307143Y-67845700D02*
X135264286Y-67974271D01*
X135264286Y-67974271D02*
X134750000Y-68488557D01*
X134750000Y-68488557D02*
X135307143Y-68488557D01*
X150864286Y-68488557D02*
X150350000Y-68488557D01*
X150607143Y-68488557D02*
X150607143Y-67588557D01*
X150607143Y-67588557D02*
X150521429Y-67717128D01*
X150521429Y-67717128D02*
X150435714Y-67802842D01*
X150435714Y-67802842D02*
X150350000Y-67845700D01*
X151421429Y-67588557D02*
X151507143Y-67588557D01*
X151507143Y-67588557D02*
X151592857Y-67631414D01*
X151592857Y-67631414D02*
X151635715Y-67674271D01*
X151635715Y-67674271D02*
X151678572Y-67759985D01*
X151678572Y-67759985D02*
X151721429Y-67931414D01*
X151721429Y-67931414D02*
X151721429Y-68145700D01*
X151721429Y-68145700D02*
X151678572Y-68317128D01*
X151678572Y-68317128D02*
X151635715Y-68402842D01*
X151635715Y-68402842D02*
X151592857Y-68445700D01*
X151592857Y-68445700D02*
X151507143Y-68488557D01*
X151507143Y-68488557D02*
X151421429Y-68488557D01*
X151421429Y-68488557D02*
X151335715Y-68445700D01*
X151335715Y-68445700D02*
X151292857Y-68402842D01*
X151292857Y-68402842D02*
X151250000Y-68317128D01*
X151250000Y-68317128D02*
X151207143Y-68145700D01*
X151207143Y-68145700D02*
X151207143Y-67931414D01*
X151207143Y-67931414D02*
X151250000Y-67759985D01*
X151250000Y-67759985D02*
X151292857Y-67674271D01*
X151292857Y-67674271D02*
X151335715Y-67631414D01*
X151335715Y-67631414D02*
X151421429Y-67588557D01*
X152107143Y-68488557D02*
X152107143Y-67588557D01*
X152192858Y-68145700D02*
X152450000Y-68488557D01*
X152450000Y-67888557D02*
X152107143Y-68231414D01*
X176930000Y-114208557D02*
X176630000Y-113779985D01*
X176415714Y-114208557D02*
X176415714Y-113308557D01*
X176415714Y-113308557D02*
X176758571Y-113308557D01*
X176758571Y-113308557D02*
X176844286Y-113351414D01*
X176844286Y-113351414D02*
X176887143Y-113394271D01*
X176887143Y-113394271D02*
X176930000Y-113479985D01*
X176930000Y-113479985D02*
X176930000Y-113608557D01*
X176930000Y-113608557D02*
X176887143Y-113694271D01*
X176887143Y-113694271D02*
X176844286Y-113737128D01*
X176844286Y-113737128D02*
X176758571Y-113779985D01*
X176758571Y-113779985D02*
X176415714Y-113779985D01*
X177701429Y-113308557D02*
X177530000Y-113308557D01*
X177530000Y-113308557D02*
X177444286Y-113351414D01*
X177444286Y-113351414D02*
X177401429Y-113394271D01*
X177401429Y-113394271D02*
X177315714Y-113522842D01*
X177315714Y-113522842D02*
X177272857Y-113694271D01*
X177272857Y-113694271D02*
X177272857Y-114037128D01*
X177272857Y-114037128D02*
X177315714Y-114122842D01*
X177315714Y-114122842D02*
X177358571Y-114165700D01*
X177358571Y-114165700D02*
X177444286Y-114208557D01*
X177444286Y-114208557D02*
X177615714Y-114208557D01*
X177615714Y-114208557D02*
X177701429Y-114165700D01*
X177701429Y-114165700D02*
X177744286Y-114122842D01*
X177744286Y-114122842D02*
X177787143Y-114037128D01*
X177787143Y-114037128D02*
X177787143Y-113822842D01*
X177787143Y-113822842D02*
X177744286Y-113737128D01*
X177744286Y-113737128D02*
X177701429Y-113694271D01*
X177701429Y-113694271D02*
X177615714Y-113651414D01*
X177615714Y-113651414D02*
X177444286Y-113651414D01*
X177444286Y-113651414D02*
X177358571Y-113694271D01*
X177358571Y-113694271D02*
X177315714Y-113737128D01*
X177315714Y-113737128D02*
X177272857Y-113822842D01*
X176972857Y-118608557D02*
X176458571Y-118608557D01*
X176715714Y-118608557D02*
X176715714Y-117708557D01*
X176715714Y-117708557D02*
X176630000Y-117837128D01*
X176630000Y-117837128D02*
X176544285Y-117922842D01*
X176544285Y-117922842D02*
X176458571Y-117965700D01*
X177358571Y-118608557D02*
X177358571Y-117708557D01*
X177444286Y-118265700D02*
X177701428Y-118608557D01*
X177701428Y-118008557D02*
X177358571Y-118351414D01*
X32028571Y-20049342D02*
X32828571Y-21249342D01*
X32828571Y-20049342D02*
X32028571Y-21249342D01*
X33914285Y-21249342D02*
X33228571Y-21249342D01*
X33571428Y-21249342D02*
X33571428Y-20049342D01*
X33571428Y-20049342D02*
X33457142Y-20220771D01*
X33457142Y-20220771D02*
X33342857Y-20335057D01*
X33342857Y-20335057D02*
X33228571Y-20392200D01*
D15*
X11885514Y-89349305D02*
X10742514Y-89349305D01*
X10742514Y-89349305D02*
X10742514Y-89077162D01*
X10742514Y-89077162D02*
X10796943Y-88913876D01*
X10796943Y-88913876D02*
X10905800Y-88805019D01*
X10905800Y-88805019D02*
X11014657Y-88750590D01*
X11014657Y-88750590D02*
X11232371Y-88696162D01*
X11232371Y-88696162D02*
X11395657Y-88696162D01*
X11395657Y-88696162D02*
X11613371Y-88750590D01*
X11613371Y-88750590D02*
X11722228Y-88805019D01*
X11722228Y-88805019D02*
X11831086Y-88913876D01*
X11831086Y-88913876D02*
X11885514Y-89077162D01*
X11885514Y-89077162D02*
X11885514Y-89349305D01*
X11885514Y-88206305D02*
X10742514Y-88206305D01*
X11885514Y-87662019D02*
X10742514Y-87662019D01*
X10742514Y-87662019D02*
X11885514Y-87008876D01*
X11885514Y-87008876D02*
X10742514Y-87008876D01*
X11123514Y-85974733D02*
X11885514Y-85974733D01*
X10688086Y-86246875D02*
X11504514Y-86519018D01*
X11504514Y-86519018D02*
X11504514Y-85811447D01*
X11885514Y-84777304D02*
X11885514Y-85430447D01*
X11885514Y-85103876D02*
X10742514Y-85103876D01*
X10742514Y-85103876D02*
X10905800Y-85212733D01*
X10905800Y-85212733D02*
X11014657Y-85321590D01*
X11014657Y-85321590D02*
X11069086Y-85430447D01*
X10742514Y-83797591D02*
X10742514Y-84015305D01*
X10742514Y-84015305D02*
X10796943Y-84124162D01*
X10796943Y-84124162D02*
X10851371Y-84178591D01*
X10851371Y-84178591D02*
X11014657Y-84287448D01*
X11014657Y-84287448D02*
X11232371Y-84341876D01*
X11232371Y-84341876D02*
X11667800Y-84341876D01*
X11667800Y-84341876D02*
X11776657Y-84287448D01*
X11776657Y-84287448D02*
X11831086Y-84233019D01*
X11831086Y-84233019D02*
X11885514Y-84124162D01*
X11885514Y-84124162D02*
X11885514Y-83906448D01*
X11885514Y-83906448D02*
X11831086Y-83797591D01*
X11831086Y-83797591D02*
X11776657Y-83743162D01*
X11776657Y-83743162D02*
X11667800Y-83688733D01*
X11667800Y-83688733D02*
X11395657Y-83688733D01*
X11395657Y-83688733D02*
X11286800Y-83743162D01*
X11286800Y-83743162D02*
X11232371Y-83797591D01*
X11232371Y-83797591D02*
X11177943Y-83906448D01*
X11177943Y-83906448D02*
X11177943Y-84124162D01*
X11177943Y-84124162D02*
X11232371Y-84233019D01*
X11232371Y-84233019D02*
X11286800Y-84287448D01*
X11286800Y-84287448D02*
X11395657Y-84341876D01*
X11885514Y-82600162D02*
X11885514Y-83253305D01*
X11885514Y-82926734D02*
X10742514Y-82926734D01*
X10742514Y-82926734D02*
X10905800Y-83035591D01*
X10905800Y-83035591D02*
X11014657Y-83144448D01*
X11014657Y-83144448D02*
X11069086Y-83253305D01*
X10851371Y-82164734D02*
X10796943Y-82110306D01*
X10796943Y-82110306D02*
X10742514Y-82001449D01*
X10742514Y-82001449D02*
X10742514Y-81729306D01*
X10742514Y-81729306D02*
X10796943Y-81620449D01*
X10796943Y-81620449D02*
X10851371Y-81566020D01*
X10851371Y-81566020D02*
X10960228Y-81511591D01*
X10960228Y-81511591D02*
X11069086Y-81511591D01*
X11069086Y-81511591D02*
X11232371Y-81566020D01*
X11232371Y-81566020D02*
X11885514Y-82219163D01*
X11885514Y-82219163D02*
X11885514Y-81511591D01*
X11450086Y-81021735D02*
X11450086Y-80150878D01*
X11885514Y-78953449D02*
X11341228Y-79334449D01*
X11885514Y-79606592D02*
X10742514Y-79606592D01*
X10742514Y-79606592D02*
X10742514Y-79171163D01*
X10742514Y-79171163D02*
X10796943Y-79062306D01*
X10796943Y-79062306D02*
X10851371Y-79007877D01*
X10851371Y-79007877D02*
X10960228Y-78953449D01*
X10960228Y-78953449D02*
X11123514Y-78953449D01*
X11123514Y-78953449D02*
X11232371Y-79007877D01*
X11232371Y-79007877D02*
X11286800Y-79062306D01*
X11286800Y-79062306D02*
X11341228Y-79171163D01*
X11341228Y-79171163D02*
X11341228Y-79606592D01*
D16*
X19461729Y-26682024D02*
X19461729Y-26229178D01*
X19461729Y-26229178D02*
X19740403Y-26473018D01*
X19740403Y-26473018D02*
X19740403Y-26368515D01*
X19740403Y-26368515D02*
X19775237Y-26298847D01*
X19775237Y-26298847D02*
X19810072Y-26264012D01*
X19810072Y-26264012D02*
X19879740Y-26229178D01*
X19879740Y-26229178D02*
X20053912Y-26229178D01*
X20053912Y-26229178D02*
X20123580Y-26264012D01*
X20123580Y-26264012D02*
X20158415Y-26298847D01*
X20158415Y-26298847D02*
X20193249Y-26368515D01*
X20193249Y-26368515D02*
X20193249Y-26577521D01*
X20193249Y-26577521D02*
X20158415Y-26647189D01*
X20158415Y-26647189D02*
X20123580Y-26682024D01*
X19531397Y-25950503D02*
X19496563Y-25915669D01*
X19496563Y-25915669D02*
X19461729Y-25846001D01*
X19461729Y-25846001D02*
X19461729Y-25671829D01*
X19461729Y-25671829D02*
X19496563Y-25602161D01*
X19496563Y-25602161D02*
X19531397Y-25567326D01*
X19531397Y-25567326D02*
X19601066Y-25532492D01*
X19601066Y-25532492D02*
X19670735Y-25532492D01*
X19670735Y-25532492D02*
X19775237Y-25567326D01*
X19775237Y-25567326D02*
X20193249Y-25985338D01*
X20193249Y-25985338D02*
X20193249Y-25532492D01*
X20193249Y-105350178D02*
X20193249Y-105768189D01*
X20193249Y-105559184D02*
X19461729Y-105559184D01*
X19461729Y-105559184D02*
X19566232Y-105628852D01*
X19566232Y-105628852D02*
X19635900Y-105698521D01*
X19635900Y-105698521D02*
X19670735Y-105768189D01*
D15*
X24180552Y-107338514D02*
X24180552Y-106739800D01*
X24180552Y-106739800D02*
X24126123Y-106630943D01*
X24126123Y-106630943D02*
X24017266Y-106576514D01*
X24017266Y-106576514D02*
X23799552Y-106576514D01*
X23799552Y-106576514D02*
X23690694Y-106630943D01*
X24180552Y-107284086D02*
X24071694Y-107338514D01*
X24071694Y-107338514D02*
X23799552Y-107338514D01*
X23799552Y-107338514D02*
X23690694Y-107284086D01*
X23690694Y-107284086D02*
X23636266Y-107175228D01*
X23636266Y-107175228D02*
X23636266Y-107066371D01*
X23636266Y-107066371D02*
X23690694Y-106957514D01*
X23690694Y-106957514D02*
X23799552Y-106903086D01*
X23799552Y-106903086D02*
X24071694Y-106903086D01*
X24071694Y-106903086D02*
X24180552Y-106848657D01*
X26230694Y-107338514D02*
X26230694Y-106195514D01*
X26230694Y-106630943D02*
X26339552Y-106576514D01*
X26339552Y-106576514D02*
X26557266Y-106576514D01*
X26557266Y-106576514D02*
X26666123Y-106630943D01*
X26666123Y-106630943D02*
X26720552Y-106685371D01*
X26720552Y-106685371D02*
X26774980Y-106794228D01*
X26774980Y-106794228D02*
X26774980Y-107120800D01*
X26774980Y-107120800D02*
X26720552Y-107229657D01*
X26720552Y-107229657D02*
X26666123Y-107284086D01*
X26666123Y-107284086D02*
X26557266Y-107338514D01*
X26557266Y-107338514D02*
X26339552Y-107338514D01*
X26339552Y-107338514D02*
X26230694Y-107284086D01*
X29260552Y-107284086D02*
X29151694Y-107338514D01*
X29151694Y-107338514D02*
X28933980Y-107338514D01*
X28933980Y-107338514D02*
X28825123Y-107284086D01*
X28825123Y-107284086D02*
X28770694Y-107229657D01*
X28770694Y-107229657D02*
X28716266Y-107120800D01*
X28716266Y-107120800D02*
X28716266Y-106794228D01*
X28716266Y-106794228D02*
X28770694Y-106685371D01*
X28770694Y-106685371D02*
X28825123Y-106630943D01*
X28825123Y-106630943D02*
X28933980Y-106576514D01*
X28933980Y-106576514D02*
X29151694Y-106576514D01*
X29151694Y-106576514D02*
X29260552Y-106630943D01*
D10*
X176930000Y-104208557D02*
X176630000Y-103779985D01*
X176415714Y-104208557D02*
X176415714Y-103308557D01*
X176415714Y-103308557D02*
X176758571Y-103308557D01*
X176758571Y-103308557D02*
X176844286Y-103351414D01*
X176844286Y-103351414D02*
X176887143Y-103394271D01*
X176887143Y-103394271D02*
X176930000Y-103479985D01*
X176930000Y-103479985D02*
X176930000Y-103608557D01*
X176930000Y-103608557D02*
X176887143Y-103694271D01*
X176887143Y-103694271D02*
X176844286Y-103737128D01*
X176844286Y-103737128D02*
X176758571Y-103779985D01*
X176758571Y-103779985D02*
X176415714Y-103779985D01*
X177744286Y-103308557D02*
X177315714Y-103308557D01*
X177315714Y-103308557D02*
X177272857Y-103737128D01*
X177272857Y-103737128D02*
X177315714Y-103694271D01*
X177315714Y-103694271D02*
X177401429Y-103651414D01*
X177401429Y-103651414D02*
X177615714Y-103651414D01*
X177615714Y-103651414D02*
X177701429Y-103694271D01*
X177701429Y-103694271D02*
X177744286Y-103737128D01*
X177744286Y-103737128D02*
X177787143Y-103822842D01*
X177787143Y-103822842D02*
X177787143Y-104037128D01*
X177787143Y-104037128D02*
X177744286Y-104122842D01*
X177744286Y-104122842D02*
X177701429Y-104165700D01*
X177701429Y-104165700D02*
X177615714Y-104208557D01*
X177615714Y-104208557D02*
X177401429Y-104208557D01*
X177401429Y-104208557D02*
X177315714Y-104165700D01*
X177315714Y-104165700D02*
X177272857Y-104122842D01*
X176972857Y-108608557D02*
X176458571Y-108608557D01*
X176715714Y-108608557D02*
X176715714Y-107708557D01*
X176715714Y-107708557D02*
X176630000Y-107837128D01*
X176630000Y-107837128D02*
X176544285Y-107922842D01*
X176544285Y-107922842D02*
X176458571Y-107965700D01*
X177358571Y-108608557D02*
X177358571Y-107708557D01*
X177444286Y-108265700D02*
X177701428Y-108608557D01*
X177701428Y-108008557D02*
X177358571Y-108351414D01*
%TO.C,R4*%
D17*
X139040000Y-78240000D02*
X139810000Y-78240000D01*
X147120000Y-78240000D02*
X146350000Y-78240000D01*
X139810000Y-76870000D02*
X146350000Y-76870000D01*
X146350000Y-79610000D01*
X139810000Y-79610000D01*
X139810000Y-76870000D01*
%TO.C,C2*%
X68550000Y-51880000D02*
X68887000Y-51880000D01*
X68550000Y-57120000D02*
X68550000Y-51880000D01*
X68887000Y-57120000D02*
X68550000Y-57120000D01*
X70953000Y-51880000D02*
X71290000Y-51880000D01*
X71290000Y-51880000D02*
X71290000Y-57120000D01*
X71290000Y-57120000D02*
X70953000Y-57120000D01*
%TO.C,J1*%
X155320000Y-34500000D02*
X155320000Y-35500000D01*
X155320000Y-35500000D02*
X156320000Y-35000000D01*
X156320000Y-35000000D02*
X155320000Y-34500000D01*
X156710000Y-29790000D02*
X165830000Y-29790000D01*
X156710000Y-57080000D02*
X158020000Y-57080000D01*
X156710000Y-88470000D02*
X156710000Y-29790000D01*
X158020000Y-31090000D02*
X164520000Y-31090000D01*
X158020000Y-57080000D02*
X158020000Y-31090000D01*
X158020000Y-61180000D02*
X156710000Y-61180000D01*
X158020000Y-87170000D02*
X158020000Y-61180000D01*
X164520000Y-31090000D02*
X164520000Y-87170000D01*
X164520000Y-87170000D02*
X158020000Y-87170000D01*
X165830000Y-29790000D02*
X165830000Y-88470000D01*
X165830000Y-88470000D02*
X156710000Y-88470000D01*
%TO.C,J2*%
X143620000Y-101380000D02*
X143620000Y-100000000D01*
X145000000Y-101380000D02*
X143620000Y-101380000D01*
X146270000Y-98620000D02*
X154000000Y-98620000D01*
X146270000Y-101380000D02*
X146270000Y-98620000D01*
X146270000Y-101380000D02*
X154000000Y-101380000D01*
X154000000Y-101380000D02*
X154000000Y-98620000D01*
%TO.C,R3*%
X139040000Y-73160000D02*
X139810000Y-73160000D01*
X147120000Y-73160000D02*
X146350000Y-73160000D01*
X139810000Y-71790000D02*
X146350000Y-71790000D01*
X146350000Y-74530000D01*
X139810000Y-74530000D01*
X139810000Y-71790000D01*
%TO.C,LED3*%
X192790000Y-117545000D02*
X192790000Y-114455000D01*
X187240000Y-116000000D02*
G75*
G02*
X192790000Y-114455170I2990000J0D01*
G01*
X192790000Y-117544830D02*
G75*
G02*
X187240000Y-116000000I-2560000J1544830D01*
G01*
X192730000Y-116000000D02*
G75*
G02*
X187730000Y-116000000I-2500000J0D01*
G01*
X187730000Y-116000000D02*
G75*
G02*
X192730000Y-116000000I2500000J0D01*
G01*
%TO.C,U1*%
X43160000Y-50670000D02*
X43160000Y-71110000D01*
X43160000Y-71110000D02*
X48460000Y-71110000D01*
X44810000Y-50670000D02*
X43160000Y-50670000D01*
X48460000Y-50670000D02*
X46810000Y-50670000D01*
X48460000Y-71110000D02*
X48460000Y-50670000D01*
X46810000Y-50670000D02*
G75*
G02*
X44810000Y-50670000I-1000000J0D01*
G01*
%TO.C,U5*%
X111160000Y-50670000D02*
X111160000Y-76190000D01*
X111160000Y-76190000D02*
X116460000Y-76190000D01*
X112810000Y-50670000D02*
X111160000Y-50670000D01*
X116460000Y-50670000D02*
X114810000Y-50670000D01*
X116460000Y-76190000D02*
X116460000Y-50670000D01*
X114810000Y-50670000D02*
G75*
G02*
X112810000Y-50670000I-1000000J0D01*
G01*
%TO.C,U4*%
X94160000Y-50670000D02*
X94160000Y-68570000D01*
X94160000Y-68570000D02*
X99460000Y-68570000D01*
X95810000Y-50670000D02*
X94160000Y-50670000D01*
X99460000Y-50670000D02*
X97810000Y-50670000D01*
X99460000Y-68570000D02*
X99460000Y-50670000D01*
X97810000Y-50670000D02*
G75*
G02*
X95810000Y-50670000I-1000000J0D01*
G01*
%TO.C,C3*%
X85550000Y-51880000D02*
X85887000Y-51880000D01*
X85550000Y-57120000D02*
X85550000Y-51880000D01*
X85887000Y-57120000D02*
X85550000Y-57120000D01*
X87953000Y-51880000D02*
X88290000Y-51880000D01*
X88290000Y-51880000D02*
X88290000Y-57120000D01*
X88290000Y-57120000D02*
X87953000Y-57120000D01*
%TO.C,C6*%
X156195225Y-98525000D02*
X156695225Y-98525000D01*
X156445225Y-98275000D02*
X156445225Y-98775000D01*
X159000000Y-97420000D02*
X159000000Y-98960000D01*
X159000000Y-101040000D02*
X159000000Y-102580000D01*
X159040000Y-97420000D02*
X159040000Y-98960000D01*
X159040000Y-101040000D02*
X159040000Y-102580000D01*
X159080000Y-97421000D02*
X159080000Y-98960000D01*
X159080000Y-101040000D02*
X159080000Y-102579000D01*
X159120000Y-97423000D02*
X159120000Y-98960000D01*
X159120000Y-101040000D02*
X159120000Y-102577000D01*
X159160000Y-97425000D02*
X159160000Y-98960000D01*
X159160000Y-101040000D02*
X159160000Y-102575000D01*
X159200000Y-97428000D02*
X159200000Y-98960000D01*
X159200000Y-101040000D02*
X159200000Y-102572000D01*
X159240000Y-97431000D02*
X159240000Y-98960000D01*
X159240000Y-101040000D02*
X159240000Y-102569000D01*
X159280000Y-97435000D02*
X159280000Y-98960000D01*
X159280000Y-101040000D02*
X159280000Y-102565000D01*
X159320000Y-97440000D02*
X159320000Y-98960000D01*
X159320000Y-101040000D02*
X159320000Y-102560000D01*
X159360000Y-97445000D02*
X159360000Y-98960000D01*
X159360000Y-101040000D02*
X159360000Y-102555000D01*
X159400000Y-97451000D02*
X159400000Y-98960000D01*
X159400000Y-101040000D02*
X159400000Y-102549000D01*
X159440000Y-97457000D02*
X159440000Y-98960000D01*
X159440000Y-101040000D02*
X159440000Y-102543000D01*
X159480000Y-97464000D02*
X159480000Y-98960000D01*
X159480000Y-101040000D02*
X159480000Y-102536000D01*
X159520000Y-97472000D02*
X159520000Y-98960000D01*
X159520000Y-101040000D02*
X159520000Y-102528000D01*
X159560000Y-97481000D02*
X159560000Y-98960000D01*
X159560000Y-101040000D02*
X159560000Y-102519000D01*
X159600000Y-97490000D02*
X159600000Y-98960000D01*
X159600000Y-101040000D02*
X159600000Y-102510000D01*
X159640000Y-97499000D02*
X159640000Y-98960000D01*
X159640000Y-101040000D02*
X159640000Y-102501000D01*
X159680000Y-97510000D02*
X159680000Y-98960000D01*
X159680000Y-101040000D02*
X159680000Y-102490000D01*
X159720000Y-97521000D02*
X159720000Y-98960000D01*
X159720000Y-101040000D02*
X159720000Y-102479000D01*
X159760000Y-97533000D02*
X159760000Y-98960000D01*
X159760000Y-101040000D02*
X159760000Y-102467000D01*
X159800000Y-97545000D02*
X159800000Y-98960000D01*
X159800000Y-101040000D02*
X159800000Y-102455000D01*
X159840000Y-97558000D02*
X159840000Y-98960000D01*
X159840000Y-101040000D02*
X159840000Y-102442000D01*
X159880000Y-97572000D02*
X159880000Y-98960000D01*
X159880000Y-101040000D02*
X159880000Y-102428000D01*
X159920000Y-97587000D02*
X159920000Y-98960000D01*
X159920000Y-101040000D02*
X159920000Y-102413000D01*
X159960000Y-97602000D02*
X159960000Y-98960000D01*
X159960000Y-101040000D02*
X159960000Y-102398000D01*
X160000000Y-97618000D02*
X160000000Y-98960000D01*
X160000000Y-101040000D02*
X160000000Y-102382000D01*
X160040000Y-97635000D02*
X160040000Y-98960000D01*
X160040000Y-101040000D02*
X160040000Y-102365000D01*
X160080000Y-97653000D02*
X160080000Y-98960000D01*
X160080000Y-101040000D02*
X160080000Y-102347000D01*
X160120000Y-97671000D02*
X160120000Y-98960000D01*
X160120000Y-101040000D02*
X160120000Y-102329000D01*
X160160000Y-97691000D02*
X160160000Y-98960000D01*
X160160000Y-101040000D02*
X160160000Y-102309000D01*
X160200000Y-97711000D02*
X160200000Y-98960000D01*
X160200000Y-101040000D02*
X160200000Y-102289000D01*
X160240000Y-97732000D02*
X160240000Y-98960000D01*
X160240000Y-101040000D02*
X160240000Y-102268000D01*
X160280000Y-97754000D02*
X160280000Y-98960000D01*
X160280000Y-101040000D02*
X160280000Y-102246000D01*
X160320000Y-97777000D02*
X160320000Y-98960000D01*
X160320000Y-101040000D02*
X160320000Y-102223000D01*
X160360000Y-97801000D02*
X160360000Y-98960000D01*
X160360000Y-101040000D02*
X160360000Y-102199000D01*
X160400000Y-97825000D02*
X160400000Y-98960000D01*
X160400000Y-101040000D02*
X160400000Y-102175000D01*
X160440000Y-97851000D02*
X160440000Y-98960000D01*
X160440000Y-101040000D02*
X160440000Y-102149000D01*
X160480000Y-97878000D02*
X160480000Y-98960000D01*
X160480000Y-101040000D02*
X160480000Y-102122000D01*
X160520000Y-97906000D02*
X160520000Y-98960000D01*
X160520000Y-101040000D02*
X160520000Y-102094000D01*
X160560000Y-97935000D02*
X160560000Y-98960000D01*
X160560000Y-101040000D02*
X160560000Y-102065000D01*
X160600000Y-97965000D02*
X160600000Y-98960000D01*
X160600000Y-101040000D02*
X160600000Y-102035000D01*
X160640000Y-97997000D02*
X160640000Y-98960000D01*
X160640000Y-101040000D02*
X160640000Y-102003000D01*
X160680000Y-98030000D02*
X160680000Y-98960000D01*
X160680000Y-101040000D02*
X160680000Y-101970000D01*
X160720000Y-98064000D02*
X160720000Y-98960000D01*
X160720000Y-101040000D02*
X160720000Y-101936000D01*
X160760000Y-98099000D02*
X160760000Y-98960000D01*
X160760000Y-101040000D02*
X160760000Y-101901000D01*
X160800000Y-98136000D02*
X160800000Y-98960000D01*
X160800000Y-101040000D02*
X160800000Y-101864000D01*
X160840000Y-98175000D02*
X160840000Y-98960000D01*
X160840000Y-101040000D02*
X160840000Y-101825000D01*
X160880000Y-98215000D02*
X160880000Y-98960000D01*
X160880000Y-101040000D02*
X160880000Y-101785000D01*
X160920000Y-98257000D02*
X160920000Y-98960000D01*
X160920000Y-101040000D02*
X160920000Y-101743000D01*
X160960000Y-98301000D02*
X160960000Y-98960000D01*
X160960000Y-101040000D02*
X160960000Y-101699000D01*
X161000000Y-98348000D02*
X161000000Y-98960000D01*
X161000000Y-101040000D02*
X161000000Y-101652000D01*
X161040000Y-98396000D02*
X161040000Y-101604000D01*
X161080000Y-98447000D02*
X161080000Y-101553000D01*
X161120000Y-98501000D02*
X161120000Y-101499000D01*
X161160000Y-98557000D02*
X161160000Y-101443000D01*
X161200000Y-98617000D02*
X161200000Y-101383000D01*
X161240000Y-98681000D02*
X161240000Y-101319000D01*
X161280000Y-98749000D02*
X161280000Y-101251000D01*
X161320000Y-98823000D02*
X161320000Y-101177000D01*
X161360000Y-98902000D02*
X161360000Y-101098000D01*
X161400000Y-98989000D02*
X161400000Y-101011000D01*
X161440000Y-99086000D02*
X161440000Y-100914000D01*
X161480000Y-99195000D02*
X161480000Y-100805000D01*
X161520000Y-99323000D02*
X161520000Y-100677000D01*
X161560000Y-99483000D02*
X161560000Y-100517000D01*
X161600000Y-99717000D02*
X161600000Y-100283000D01*
X161620000Y-100000000D02*
G75*
G02*
X156380000Y-100000000I-2620000J0D01*
G01*
X156380000Y-100000000D02*
G75*
G02*
X161620000Y-100000000I2620000J0D01*
G01*
%TO.C,LED1*%
X192790000Y-97545000D02*
X192790000Y-94455000D01*
X187240000Y-96000000D02*
G75*
G02*
X192790000Y-94455170I2990000J0D01*
G01*
X192790000Y-97544830D02*
G75*
G02*
X187240000Y-96000000I-2560000J1544830D01*
G01*
X192730000Y-96000000D02*
G75*
G02*
X187730000Y-96000000I-2500000J0D01*
G01*
X187730000Y-96000000D02*
G75*
G02*
X192730000Y-96000000I2500000J0D01*
G01*
%TO.C,JP1*%
X170620000Y-55210000D02*
X172000000Y-55210000D01*
X170620000Y-56590000D02*
X170620000Y-55210000D01*
X170620000Y-57860000D02*
X170620000Y-60510000D01*
X170620000Y-57860000D02*
X173380000Y-57860000D01*
X170620000Y-60510000D02*
X173380000Y-60510000D01*
X173380000Y-57860000D02*
X173380000Y-60510000D01*
%TO.C,R7*%
X173040000Y-96000000D02*
X173810000Y-96000000D01*
X181120000Y-96000000D02*
X180350000Y-96000000D01*
X173810000Y-94630000D02*
X180350000Y-94630000D01*
X180350000Y-97370000D01*
X173810000Y-97370000D01*
X173810000Y-94630000D01*
%TO.C,RN1*%
X147310000Y-35270000D02*
X144690000Y-35270000D01*
X144690000Y-32650000D02*
X147310000Y-32650000D01*
X147310000Y-55670000D01*
X144690000Y-55670000D01*
X144690000Y-32650000D01*
%TO.C,C1*%
X51550000Y-51880000D02*
X51887000Y-51880000D01*
X51550000Y-57120000D02*
X51550000Y-51880000D01*
X51887000Y-57120000D02*
X51550000Y-57120000D01*
X53953000Y-51880000D02*
X54290000Y-51880000D01*
X54290000Y-51880000D02*
X54290000Y-57120000D01*
X54290000Y-57120000D02*
X53953000Y-57120000D01*
%TO.C,C5*%
X119550000Y-51880000D02*
X119887000Y-51880000D01*
X119550000Y-57120000D02*
X119550000Y-51880000D01*
X119887000Y-57120000D02*
X119550000Y-57120000D01*
X121953000Y-51880000D02*
X122290000Y-51880000D01*
X122290000Y-51880000D02*
X122290000Y-57120000D01*
X122290000Y-57120000D02*
X121953000Y-57120000D01*
%TO.C,U3*%
X77160000Y-50670000D02*
X77160000Y-71110000D01*
X77160000Y-71110000D02*
X82460000Y-71110000D01*
X78810000Y-50670000D02*
X77160000Y-50670000D01*
X82460000Y-50670000D02*
X80810000Y-50670000D01*
X82460000Y-71110000D02*
X82460000Y-50670000D01*
X80810000Y-50670000D02*
G75*
G02*
X78810000Y-50670000I-1000000J0D01*
G01*
%TO.C,R1*%
X139040000Y-63000000D02*
X139810000Y-63000000D01*
X147120000Y-63000000D02*
X146350000Y-63000000D01*
X139810000Y-61630000D02*
X146350000Y-61630000D01*
X146350000Y-64370000D01*
X139810000Y-64370000D01*
X139810000Y-61630000D01*
%TO.C,LED2*%
X192790000Y-107545000D02*
X192790000Y-104455000D01*
X187240000Y-106000000D02*
G75*
G02*
X192790000Y-104455170I2990000J0D01*
G01*
X192790000Y-107544830D02*
G75*
G02*
X187240000Y-106000000I-2560000J1544830D01*
G01*
X192730000Y-106000000D02*
G75*
G02*
X187730000Y-106000000I-2500000J0D01*
G01*
X187730000Y-106000000D02*
G75*
G02*
X192730000Y-106000000I2500000J0D01*
G01*
%TO.C,C4*%
X102550000Y-51880000D02*
X102887000Y-51880000D01*
X102550000Y-57120000D02*
X102550000Y-51880000D01*
X102887000Y-57120000D02*
X102550000Y-57120000D01*
X104953000Y-51880000D02*
X105290000Y-51880000D01*
X105290000Y-51880000D02*
X105290000Y-57120000D01*
X105290000Y-57120000D02*
X104953000Y-57120000D01*
%TO.C,U2*%
X60160000Y-50670000D02*
X60160000Y-68570000D01*
X60160000Y-68570000D02*
X65460000Y-68570000D01*
X61810000Y-50670000D02*
X60160000Y-50670000D01*
X65460000Y-50670000D02*
X63810000Y-50670000D01*
X65460000Y-68570000D02*
X65460000Y-50670000D01*
X63810000Y-50670000D02*
G75*
G02*
X61810000Y-50670000I-1000000J0D01*
G01*
%TO.C,R2*%
X139040000Y-68080000D02*
X139810000Y-68080000D01*
X147120000Y-68080000D02*
X146350000Y-68080000D01*
X139810000Y-66710000D02*
X146350000Y-66710000D01*
X146350000Y-69450000D01*
X139810000Y-69450000D01*
X139810000Y-66710000D01*
%TO.C,R6*%
X173040000Y-116000000D02*
X173810000Y-116000000D01*
X181120000Y-116000000D02*
X180350000Y-116000000D01*
X173810000Y-114630000D02*
X180350000Y-114630000D01*
X180350000Y-117370000D01*
X173810000Y-117370000D01*
X173810000Y-114630000D01*
%TO.C,X1*%
D18*
X10127000Y-25316000D02*
X10127000Y-26332000D01*
X10127000Y-26332000D02*
X10127000Y-107358000D01*
X10127000Y-107358000D02*
X10127000Y-108374000D01*
X10127000Y-107358000D02*
X11016000Y-108374000D01*
X10127000Y-108374000D02*
X11016000Y-109390000D01*
X11016000Y-24300000D02*
X10127000Y-25316000D01*
X11016000Y-24300000D02*
X11016000Y-25316000D01*
X11016000Y-24300000D02*
X16477000Y-24300000D01*
X11016000Y-25316000D02*
X10127000Y-26332000D01*
X11016000Y-25316000D02*
X11016000Y-108374000D01*
X11016000Y-108374000D02*
X11016000Y-109390000D01*
X11016000Y-108374000D02*
X16350000Y-108374000D01*
X16350000Y-25316000D02*
X11016000Y-25316000D01*
X16477000Y-109390000D02*
X11016000Y-109390000D01*
X16487000Y-19858000D02*
X16487000Y-113705000D01*
D19*
X17527000Y-113705000D02*
X17527000Y-19858000D01*
D18*
X17620000Y-19855000D02*
X16477000Y-19855000D01*
X17620000Y-23665000D02*
X17620000Y-19855000D01*
X17620000Y-110025000D02*
X17620000Y-113708000D01*
X19017000Y-24935000D02*
X17620000Y-23665000D01*
X19017000Y-108755000D02*
X17620000Y-110025000D01*
X21557000Y-24935000D02*
X19017000Y-24935000D01*
X21557000Y-108755000D02*
X19017000Y-108755000D01*
X21557000Y-108755000D02*
X21557000Y-24935000D01*
X22827000Y-19855000D02*
X17620000Y-19855000D01*
X22827000Y-19855000D02*
X22827000Y-24935000D01*
X22827000Y-24935000D02*
X21557000Y-24935000D01*
X22827000Y-108755000D02*
X21557000Y-108755000D01*
X22827000Y-113795100D02*
X16477000Y-113795000D01*
X22827000Y-113795100D02*
X22827000Y-108755000D01*
X22827000Y-113834900D02*
X22827000Y-113795100D01*
X21557000Y-22388600D02*
G75*
G02*
X19017000Y-22388600I-1270000J0D01*
G01*
X19017000Y-22388600D02*
G75*
G02*
X21557000Y-22388600I1270000J0D01*
G01*
X21557000Y-111301400D02*
G75*
G02*
X19017000Y-111301400I-1270000J0D01*
G01*
X19017000Y-111301400D02*
G75*
G02*
X21557000Y-111301400I1270000J0D01*
G01*
%TO.C,R5*%
D17*
X173040000Y-106000000D02*
X173810000Y-106000000D01*
X181120000Y-106000000D02*
X180350000Y-106000000D01*
X173810000Y-104630000D02*
X180350000Y-104630000D01*
X180350000Y-107370000D01*
X173810000Y-107370000D01*
X173810000Y-104630000D01*
%TD*%
M02*
