%
M48
M72
T01C0.01300
T02C0.03200
T03C0.04000
T04C0.11000
%
T01
X168000Y10800
X231000Y43700
X235200Y40200
X239400Y40900
X247100Y45100
X238000Y58400
X226800Y57000
X208600Y59800
X205800Y64700
X198100Y75900
X188300Y89200
X184100Y96900
X210700Y113700
X216300Y103200
X223300Y116500
X200900Y132600
X195300Y138200
X206500Y155000
X233800Y201200
X235200Y206100
X226100Y208200
X206500Y214500
X200900Y221500
X184100Y214500
X172900Y229200
X194600Y232700
X197400Y239000
X203700Y235500
X191100Y254400
X175700Y254400
X161000Y269100
X149800Y269100
X158900Y274700
X158900Y278200
X172200Y284500
X185500Y274700
X210000Y290100
X216300Y299900
X200200Y302700
X185500Y304800
X182700Y300600
X174300Y297100
X171500Y303400
X182000Y311800
X186900Y319500
X200200Y325100
X205100Y337700
X202300Y346100
X180600Y335600
X176400Y330000
X173600Y334900
X135800Y326500
X133000Y334200
X130900Y342600
X94500Y332100
X93800Y327900
X83300Y319500
X79800Y319500
X80500Y308300
X97300Y310400
X110600Y310400
X110600Y303400
X98000Y294300
X101500Y287300
X86800Y286600
X65100Y287300
X42700Y253700
X37100Y252300
X37100Y248800
X101500Y243900
X105700Y253700
X135800Y262800
X135800Y266300
X133000Y271900
X149800Y303400
X158200Y306200
X220500Y322300
X232400Y318800
X232400Y308300
X238000Y309700
X235200Y302700
X258300Y313200
X272300Y304800
X264600Y290100
X247800Y284500
X238000Y284500
X228900Y267000
X228900Y257200
X230300Y253700
X235200Y255100
X247100Y253000
X259700Y257900
X261100Y264200
X271600Y262100
X275100Y262800
X282100Y264200
X281400Y273300
X296100Y271200
X298900Y264200
X303800Y258600
X317100Y257900
X319200Y269100
X328300Y281700
X319900Y286600
X315000Y285200
X310800Y295000
X312200Y302700
X326200Y302700
X330400Y306900
X326900Y319500
X314300Y316700
X304500Y319500
X295400Y319500
X296100Y323700
X285600Y320900
X296100Y310400
X315700Y332100
X307300Y337000
X295400Y337000
X284900Y333500
X279300Y339800
X271600Y343300
X263200Y355200
X263200Y359400
X257600Y355200
X238000Y342600
X234500Y342600
X228900Y344700
X231700Y356600
X220500Y367800
X217700Y370600
X223300Y375500
X226100Y378300
X231700Y378300
X231000Y382500
X234500Y390200
X242200Y383200
X249200Y383200
X268100Y395100
X275800Y388100
X287000Y387400
X276500Y414000
X258300Y416800
X250600Y418900
X236600Y418900
X234500Y426600
X234500Y430100
X218400Y427300
X207900Y432200
X212100Y436400
X214900Y416800
X200900Y416800
X198100Y419600
X203000Y402800
X200200Y397900
X213500Y401400
X216300Y398600
X213500Y392300
X203000Y381800
X191800Y383900
X202300Y361500
X228900Y373400
X239400Y398600
X264600Y426600
X264600Y430100
X277200Y444100
X280700Y443400
X292600Y430100
X346500Y410500
X353500Y393700
X361900Y385300
X383600Y385300
X399000Y386000
X404600Y395100
X417200Y400700
X422100Y391600
X413700Y377600
X413700Y366400
X398300Y358000
X394100Y352400
X389200Y339100
X382200Y335600
X368900Y332800
X375200Y318100
X384300Y315300
X392700Y308300
X400400Y307600
X411600Y308300
X411600Y316700
X437500Y308300
X457100Y301300
X464100Y312500
X459900Y316700
X457100Y319500
X466900Y319500
X468300Y332100
X488600Y336300
X489300Y339800
X490700Y330700
X500500Y326500
X504000Y323700
X499100Y311100
X490700Y304100
X489300Y300600
X490700Y295700
X493500Y291500
X496300Y295000
X506100Y300600
X485100Y306200
X483700Y302700
X465500Y288700
X476700Y278200
X503300Y281700
X500500Y253000
X497000Y250200
X493500Y246000
X506800Y240400
X512400Y241100
X518000Y237600
X523600Y234800
X518700Y227800
X504700Y210300
X490700Y218000
X487900Y222200
X485100Y228500
X477400Y236900
X448000Y228500
X438900Y229900
X445200Y238300
X442400Y253000
X438200Y257200
X436100Y260700
X444500Y268400
X451500Y268400
X452200Y264200
X448700Y260700
X460600Y257900
X442400Y283100
X434000Y285200
X415100Y268400
X403900Y258600
X396200Y255800
X387800Y260000
X380100Y256500
X380100Y253000
X375200Y262100
X385000Y267000
X392700Y267000
X382200Y274700
X392000Y285200
X397600Y285200
X373100Y308300
X366100Y315300
X353500Y318100
X347200Y320200
X333200Y335600
X323400Y341200
X336700Y343300
X333200Y349600
X326900Y352400
X329700Y369200
X336700Y376200
X389200Y367100
X410900Y348900
X440300Y355200
X466900Y356600
X488600Y358000
X496300Y355200
X500500Y355200
X548800Y364300
X562100Y358000
X574700Y357300
X574700Y365700
X577500Y371300
X580300Y368500
X586600Y379000
X588700Y388100
X593600Y398600
X586600Y418900
X606200Y428700
X617400Y416100
X623000Y442000
X662200Y444800
X675500Y444800
X662900Y416100
X706300Y388100
X671300Y374100
X634200Y365700
X625100Y362900
X632800Y360100
X622300Y372700
X605500Y356600
X609700Y351700
X602700Y351000
X615300Y339100
X623000Y339100
X642600Y321600
X649600Y316700
X646800Y312500
X652400Y308300
X680400Y313200
X704200Y320900
X709100Y318800
X714700Y297800
X711900Y291500
X705600Y288700
X686000Y283100
X664300Y283100
X651700Y273300
X658700Y269100
X665700Y268400
X653100Y263500
X646100Y265600
X642600Y262800
X642600Y268400
X634200Y267000
X644000Y254400
X651700Y246700
X660100Y251600
X676200Y264200
X681100Y251600
X690200Y238300
X717500Y225700
X720300Y221500
X704200Y199800
X701400Y193500
X690200Y179500
X652400Y185800
X645400Y175300
X625800Y175300
X639100Y159200
X629300Y143100
X625800Y143100
X620200Y148700
X632800Y124900
X653100Y130500
X657300Y126300
X613200Y98300
X625800Y79400
X616000Y76600
X621600Y61200
X606900Y55600
X601300Y58400
X598500Y55600
X601300Y50000
X593600Y38800
X591500Y31100
X606900Y31100
X633500Y33900
X639100Y36000
X669200Y29700
X681100Y23400
X671300Y38800
X701400Y41600
X664300Y64000
X673400Y69600
X644000Y65400
X638400Y65400
X638400Y73100
X574000Y69600
X551600Y83600
X556500Y95500
X543200Y94800
X529900Y85000
X511000Y81500
X541800Y62600
X548800Y66800
X567700Y45800
X535500Y32500
X531300Y28300
X528500Y38100
X558600Y8000
X478100Y29000
X478800Y37400
X465500Y40900
X463400Y29000
X464100Y14300
X439600Y29700
X442400Y38800
X438900Y42300
X435400Y42300
X427000Y45100
X436100Y55600
X431900Y59800
X435400Y64700
X436800Y68200
X449400Y68900
X447300Y57700
X464800Y57000
X450800Y41600
X419300Y29700
X408800Y28300
X399000Y20600
X404600Y16400
X399700Y13600
X415800Y10800
X382900Y40200
X394800Y43000
X396200Y47900
X397600Y51400
X413700Y58400
X399000Y68200
X382200Y66800
X375900Y69600
X374500Y61200
X380800Y58400
X352800Y66800
X334600Y61200
X324800Y58400
X315000Y58400
X305200Y68200
X308000Y71000
X294700Y70300
X283500Y68200
X275800Y71000
X270900Y65400
X286300Y48600
X301700Y43700
X292600Y34600
X280000Y36000
X276500Y36000
X273000Y37400
X266000Y39500
X277900Y27600
X263900Y12200
X289800Y5900
X295400Y7300
X313600Y24800
X303100Y31800
X341600Y7300
X346500Y15000
X356300Y24100
X347200Y45100
X402500Y79400
X405300Y82200
X408800Y82200
X414400Y86400
X400400Y93400
X390600Y83600
X354200Y93400
X342300Y99000
X336700Y103200
X315000Y113700
X310800Y116500
X310800Y98300
X310800Y87100
X299600Y98300
X262500Y91300
X242200Y93400
X235200Y94100
X286300Y149400
X298200Y147300
X306600Y148000
X316400Y157800
X337400Y167600
X345100Y176000
X357700Y170400
X375200Y178800
X375200Y185100
X357700Y199100
X351400Y201900
X362600Y204000
X371700Y204700
X365400Y213100
X368900Y214500
X358400Y211700
X339500Y210300
X331100Y211000
X329000Y214500
X316400Y217300
X310800Y211000
X304500Y213800
X305200Y202600
X333900Y199100
X329000Y179500
X325500Y179500
X318500Y180200
X299600Y179500
X291900Y163400
X342300Y134700
X364700Y138900
X371700Y136100
X400400Y117200
X408800Y125600
X404600Y136800
X418600Y142400
X417200Y154300
X427000Y157100
X432600Y145900
X431200Y128400
X434000Y125600
X429100Y121400
X425600Y117900
X429100Y113700
X433300Y117200
X441000Y120700
X444500Y120700
X450100Y126300
X464800Y129100
X480900Y124200
X479500Y120000
X508200Y119300
X525000Y110200
X511000Y107400
X545300Y127700
X552300Y115100
X567700Y122800
X583800Y128400
X555100Y141700
X543900Y152900
X539700Y153600
X513800Y159200
X499100Y157800
X492100Y157800
X485100Y160600
X479500Y158500
X475300Y160600
X468300Y157800
X464800Y157800
X455000Y154300
X459200Y144500
X481600Y147300
X485100Y145900
X485100Y149400
X501900Y143100
X504700Y145900
X542500Y173200
X550200Y178800
X552300Y183700
X567700Y173200
X596400Y199800
X602000Y197700
X588000Y204700
X586600Y219400
X560000Y202600
X550200Y203300
X529200Y208900
X485100Y183000
X482300Y180200
X457800Y185800
X453600Y175300
X447300Y171100
X436800Y169000
X426300Y188600
X453600Y206100
X464100Y203300
X464800Y213100
X478100Y199100
X511700Y176700
X518000Y173900
X436800Y218000
X434000Y213100
X426300Y213100
X420700Y213800
X404600Y214500
X417900Y230600
X394800Y239700
X377300Y234100
X374500Y239700
X366100Y248100
X352100Y253000
X358400Y255800
X345100Y253000
X336000Y253000
X326200Y248800
X340200Y234100
X345800Y232000
X347900Y226400
X362600Y233400
X358400Y239700
X345100Y239000
X308000Y231300
X301700Y228500
X288400Y236900
X281400Y228500
X276500Y235500
X273000Y235500
X265300Y227800
X261100Y228500
X262500Y241100
X248500Y235500
X236600Y238300
X291200Y253000
X298900Y287300
X331800Y288700
X343000Y288700
X354900Y264900
X358400Y266300
X446600Y324400
X506800Y383900
X499800Y395800
X523600Y400700
X521500Y410500
X535500Y395100
X486500Y427300
X480900Y425200
X478100Y428000
X493500Y430100
X473900Y442700
X451500Y438500
X427000Y422400
X444500Y413300
X448000Y413300
X449400Y406300
X449400Y402800
X444500Y393000
X460600Y418200
X396200Y409100
X524300Y442000
X566300Y435000
X571200Y338400
X585200Y325100
X585200Y321600
X585200Y314600
X594300Y312500
X600600Y309700
X620200Y298500
X605500Y292200
X612500Y281700
X637000Y290800
X620200Y251600
X631400Y238300
X627900Y234100
X627900Y228500
X648200Y236200
X662900Y235500
X628600Y213800
X620200Y208200
X620200Y203300
X623000Y200500
X632800Y196300
X637700Y198400
X641200Y198400
X571900Y260000
X567700Y255800
X564900Y265600
X560700Y268400
X542500Y268400
X574700Y283100
X547400Y293600
X560700Y321600
X671300Y333500
X693000Y340500
X723100Y355900
X707700Y264200
X713300Y258600
X713300Y112300
X716100Y71000
X467600Y90600
X459200Y87800
X448700Y82200
X445200Y82200
X430500Y89200
X356300Y108800
X340900Y118600
X386400Y158500
X387100Y164800
X92400Y341200
X83300Y342600
X80500Y339800
X86100Y334200
X80500Y353800
X83300Y356600
X77700Y358700
X74900Y365000
X77000Y370600
X65800Y374800
X46200Y361500
X37800Y343300
X42700Y332800
X91000Y355900
X91000Y361500
X93800Y372700
X101500Y383900
T02
X101500Y391000
X111500Y391000
X121500Y391000
X131500Y391000
X141500Y391000
X151500Y391000
X161500Y391000
X171500Y391000
X181500Y391000
X191500Y391000
X191500Y371000
X181500Y371000
X171500Y371000
X161500Y371000
X151500Y371000
X141500Y371000
X131500Y371000
X121500Y371000
X111500Y371000
X111500Y351000
X121500Y351000
X131500Y351000
X141500Y351000
X151500Y351000
X161500Y351000
X171500Y351000
X181500Y351000
X191500Y351000
X231500Y326000
X241500Y326000
X251500Y326000
X261500Y326000
X271500Y326000
X281500Y326000
X291500Y326000
X301500Y326000
X321500Y326000
X331500Y326000
X341500Y326000
X351500Y326000
X361500Y326000
X371500Y326000
X381500Y326000
X391500Y326000
X411500Y326000
X421500Y326000
X431500Y326000
X441500Y326000
X451500Y326000
X461500Y326000
X471500Y326000
X481500Y326000
X481500Y346000
X471500Y346000
X461500Y346000
X451500Y346000
X441500Y346000
X431500Y346000
X421500Y346000
X401500Y346000
X391500Y346000
X381500Y346000
X371500Y346000
X361500Y346000
X351500Y346000
X341500Y346000
X316500Y346000
X306500Y346000
X296500Y346000
X286500Y346000
X276500Y346000
X266500Y346000
X256500Y346000
X246500Y346000
X246500Y376000
X256500Y376000
X266500Y376000
X276500Y376000
X286500Y376000
X296500Y376000
X306500Y376000
X316500Y376000
X341500Y376000
X351500Y376000
X361500Y376000
X371500Y376000
X381500Y376000
X391500Y376000
X401500Y376000
X421500Y376000
X431500Y376000
X441500Y376000
X451500Y376000
X461500Y376000
X471500Y376000
X481500Y376000
X476500Y406000
X486500Y406000
X496500Y406000
X506500Y406000
X516500Y406000
X531500Y406000
X541500Y406000
X551500Y406000
X561500Y406000
X571500Y406000
X581500Y406000
X591500Y406000
X616500Y406000
X626500Y406000
X636500Y406000
X646500Y406000
X656500Y406000
X666500Y406000
X676500Y406000
X686500Y406000
X696500Y406000
X706500Y406000
X706500Y381000
X696500Y381000
X686500Y381000
X676500Y381000
X666500Y381000
X656500Y381000
X646500Y381000
X636500Y381000
X626500Y381000
X616500Y381000
X591500Y381000
X581500Y381000
X571500Y381000
X561500Y381000
X551500Y381000
X541500Y381000
X531500Y381000
X531500Y351000
X541500Y351000
X551500Y351000
X561500Y351000
X571500Y351000
X581500Y351000
X591500Y351000
X591500Y331000
X581500Y331000
X571500Y331000
X561500Y331000
X551500Y331000
X541500Y331000
X531500Y331000
X521500Y331000
X521500Y301000
X531500Y301000
X541500Y301000
X551500Y301000
X561500Y301000
X571500Y301000
X581500Y301000
X591500Y301000
X591500Y276000
X581500Y276000
X571500Y276000
X561500Y276000
X551500Y276000
X541500Y276000
X531500Y276000
X521500Y276000
X481500Y276000
X471500Y276000
X461500Y276000
X451500Y276000
X441500Y276000
X431500Y276000
X421500Y276000
X411500Y276000
X401500Y276000
X391500Y276000
X371500Y276000
X361500Y276000
X351500Y276000
X341500Y276000
X331500Y276000
X321500Y276000
X311500Y276000
X301500Y276000
X286500Y276000
X276500Y276000
X266500Y276000
X256500Y276000
X246500Y276000
X236500Y276000
X226500Y276000
X216500Y276000
X206500Y276000
X196500Y276000
X231500Y296000
X241500Y296000
X251500Y296000
X261500Y296000
X271500Y296000
X281500Y296000
X291500Y296000
X301500Y296000
X321500Y296000
X331500Y296000
X341500Y296000
X351500Y296000
X361500Y296000
X371500Y296000
X381500Y296000
X391500Y296000
X411500Y296000
X421500Y296000
X431500Y296000
X441500Y296000
X451500Y296000
X461500Y296000
X471500Y296000
X481500Y296000
X481500Y246000
X471500Y246000
X461500Y246000
X451500Y246000
X441500Y246000
X431500Y246000
X421500Y246000
X411500Y246000
X401500Y246000
X391500Y246000
X371500Y246000
X361500Y246000
X351500Y246000
X341500Y246000
X331500Y246000
X321500Y246000
X311500Y246000
X301500Y246000
X286500Y246000
X276500Y246000
X266500Y246000
X256500Y246000
X246500Y246000
X236500Y246000
X226500Y246000
X216500Y246000
X206500Y246000
X196500Y246000
X211500Y221000
X221500Y221000
X231500Y221000
X241500Y221000
X251500Y221000
X261500Y221000
X271500Y221000
X281500Y221000
X291500Y221000
X301500Y221000
X321500Y221000
X331500Y221000
X341500Y221000
X351500Y221000
X361500Y221000
X371500Y221000
X381500Y221000
X391500Y221000
X411500Y221000
X421500Y221000
X431500Y221000
X441500Y221000
X451500Y221000
X461500Y221000
X471500Y221000
X481500Y221000
X501500Y221000
X511500Y221000
X521500Y221000
X531500Y221000
X541500Y221000
X551500Y221000
X561500Y221000
X571500Y221000
X581500Y221000
X591500Y221000
X616500Y221000
X626500Y221000
X636500Y221000
X646500Y221000
X656500Y221000
X666500Y221000
X676500Y221000
X686500Y221000
X696500Y221000
X706500Y221000
X706500Y246000
X696500Y246000
X686500Y246000
X676500Y246000
X666500Y246000
X656500Y246000
X646500Y246000
X646500Y276000
X656500Y276000
X666500Y276000
X676500Y276000
X686500Y276000
X696500Y276000
X706500Y276000
X706500Y301000
X696500Y301000
X686500Y301000
X676500Y301000
X666500Y301000
X656500Y301000
X646500Y301000
X646500Y331000
X656500Y331000
X666500Y331000
X676500Y331000
X686500Y331000
X696500Y331000
X706500Y331000
X706500Y351000
X696500Y351000
X686500Y351000
X676500Y351000
X666500Y351000
X656500Y351000
X646500Y351000
X636500Y351000
X626500Y351000
X616500Y351000
X616500Y436000
X626500Y436000
X636500Y436000
X646500Y436000
X656500Y436000
X666500Y436000
X676500Y436000
X686500Y436000
X696500Y436000
X706500Y436000
X591500Y436000
X581500Y436000
X571500Y436000
X561500Y436000
X551500Y436000
X541500Y436000
X531500Y436000
X516500Y436000
X506500Y436000
X496500Y436000
X486500Y436000
X476500Y436000
X466500Y436000
X456500Y436000
X441500Y436000
X431500Y436000
X421500Y436000
X411500Y436000
X401500Y436000
X391500Y436000
X381500Y436000
X361500Y436000
X351500Y436000
X341500Y436000
X331500Y436000
X321500Y436000
X311500Y436000
X301500Y436000
X281500Y436000
X271500Y436000
X261500Y436000
X251500Y436000
X241500Y436000
X231500Y436000
X221500Y436000
X191500Y441000
X181500Y441000
X171500Y441000
X161500Y441000
X151500Y441000
X141500Y441000
X131500Y441000
X121500Y441000
X111500Y441000
X111500Y421000
X121500Y421000
X131500Y421000
X141500Y421000
X151500Y421000
X161500Y421000
X171500Y421000
X181500Y421000
X191500Y421000
X221500Y406000
X231500Y406000
X241500Y406000
X251500Y406000
X261500Y406000
X271500Y406000
X281500Y406000
X301500Y406000
X311500Y406000
X321500Y406000
X331500Y406000
X341500Y406000
X351500Y406000
X361500Y406000
X381500Y406000
X391500Y406000
X401500Y406000
X411500Y406000
X421500Y406000
X431500Y406000
X441500Y406000
X456500Y406000
X466500Y406000
X521500Y246000
X531500Y246000
X541500Y246000
X551500Y246000
X561500Y246000
X571500Y246000
X581500Y246000
X591500Y246000
X591500Y191000
X581500Y191000
X571500Y191000
X561500Y191000
X551500Y191000
X541500Y191000
X531500Y191000
X521500Y191000
X511500Y191000
X501500Y191000
X481500Y191000
X471500Y191000
X461500Y191000
X451500Y191000
X441500Y191000
X431500Y191000
X421500Y191000
X411500Y191000
X391500Y191000
X381500Y191000
X371500Y191000
X361500Y191000
X351500Y191000
X341500Y191000
X331500Y191000
X321500Y191000
X301500Y191000
X291500Y191000
X281500Y191000
X271500Y191000
X261500Y191000
X251500Y191000
X241500Y191000
X231500Y191000
X221500Y191000
X211500Y191000
X211500Y156000
X221500Y156000
X231500Y156000
X241500Y156000
X251500Y156000
X261500Y156000
X271500Y156000
X281500Y156000
X291500Y156000
X301500Y156000
X321500Y156000
X331500Y156000
X341500Y156000
X351500Y156000
X361500Y156000
X371500Y156000
X381500Y156000
X391500Y156000
X411500Y166000
X421500Y166000
X431500Y166000
X441500Y166000
X451500Y166000
X461500Y166000
X471500Y166000
X481500Y166000
X501500Y166000
X511500Y166000
X521500Y166000
X531500Y166000
X541500Y166000
X551500Y166000
X561500Y166000
X571500Y166000
X581500Y166000
X591500Y166000
X616500Y166000
X626500Y166000
X636500Y166000
X646500Y166000
X656500Y166000
X666500Y166000
X676500Y166000
X686500Y166000
X696500Y166000
X706500Y166000
X706500Y191000
X696500Y191000
X686500Y191000
X676500Y191000
X666500Y191000
X656500Y191000
X646500Y191000
X636500Y191000
X626500Y191000
X616500Y191000
X616500Y136000
X626500Y136000
X636500Y136000
X646500Y136000
X656500Y136000
X666500Y136000
X676500Y136000
X686500Y136000
X696500Y136000
X706500Y136000
X706500Y106000
X696500Y106000
X686500Y106000
X676500Y106000
X666500Y106000
X656500Y106000
X646500Y106000
X646500Y76000
X656500Y76000
X666500Y76000
X676500Y76000
X686500Y76000
X696500Y76000
X706500Y76000
X706500Y51000
X696500Y51000
X686500Y51000
X676500Y51000
X666500Y51000
X656500Y51000
X646500Y51000
X646500Y21000
X656500Y21000
X666500Y21000
X676500Y21000
X686500Y21000
X696500Y21000
X706500Y21000
X591500Y21000
X581500Y21000
X571500Y21000
X561500Y21000
X551500Y21000
X541500Y21000
X531500Y21000
X501500Y21000
X491500Y21000
X481500Y21000
X471500Y21000
X461500Y21000
X451500Y21000
X441500Y21000
X431500Y21000
X421500Y21000
X411500Y21000
X391500Y21000
X381500Y21000
X371500Y21000
X361500Y21000
X351500Y21000
X341500Y21000
X331500Y21000
X321500Y21000
X301500Y21000
X291500Y21000
X281500Y21000
X271500Y21000
X261500Y21000
X251500Y21000
X241500Y21000
X231500Y21000
X221500Y21000
X211500Y21000
X211500Y51000
X221500Y51000
X231500Y51000
X241500Y51000
X251500Y51000
X261500Y51000
X271500Y51000
X281500Y51000
X291500Y51000
X301500Y51000
X321500Y51000
X331500Y51000
X341500Y51000
X351500Y51000
X361500Y51000
X371500Y51000
X381500Y51000
X391500Y51000
X411500Y51000
X421500Y51000
X431500Y51000
X441500Y51000
X451500Y51000
X461500Y51000
X471500Y51000
X481500Y51000
X491500Y51000
X501500Y51000
X531500Y51000
X541500Y51000
X551500Y51000
X561500Y51000
X571500Y51000
X581500Y51000
X591500Y51000
X591500Y76000
X581500Y76000
X571500Y76000
X561500Y76000
X551500Y76000
X541500Y76000
X531500Y76000
X501500Y76000
X491500Y76000
X481500Y76000
X471500Y76000
X461500Y76000
X451500Y76000
X441500Y76000
X431500Y76000
X421500Y76000
X411500Y76000
X391500Y76000
X381500Y76000
X371500Y76000
X361500Y76000
X351500Y76000
X341500Y76000
X331500Y76000
X321500Y76000
X301500Y76000
X291500Y76000
X281500Y76000
X271500Y76000
X261500Y76000
X251500Y76000
X241500Y76000
X231500Y76000
X221500Y76000
X211500Y76000
X211500Y106000
X221500Y106000
X231500Y106000
X241500Y106000
X251500Y106000
X261500Y106000
X271500Y106000
X281500Y106000
X291500Y106000
X301500Y106000
X321500Y106000
X331500Y106000
X341500Y106000
X351500Y106000
X361500Y106000
X371500Y106000
X381500Y106000
X391500Y106000
X411500Y106000
X421500Y106000
X431500Y106000
X441500Y106000
X451500Y106000
X461500Y106000
X471500Y106000
X481500Y106000
X491500Y106000
X501500Y106000
X531500Y106000
X541500Y106000
X551500Y106000
X561500Y106000
X571500Y106000
X581500Y106000
X591500Y106000
X591500Y136000
X581500Y136000
X571500Y136000
X561500Y136000
X551500Y136000
X541500Y136000
X531500Y136000
X521500Y136000
X511500Y136000
X501500Y136000
X481500Y136000
X471500Y136000
X461500Y136000
X451500Y136000
X441500Y136000
X431500Y136000
X421500Y136000
X411500Y136000
X391500Y126000
X381500Y126000
X371500Y126000
X361500Y126000
X351500Y126000
X341500Y126000
X331500Y126000
X321500Y126000
X301500Y126000
X291500Y126000
X281500Y126000
X271500Y126000
X261500Y126000
X251500Y126000
X241500Y126000
X231500Y126000
X221500Y126000
X211500Y126000
X191500Y321000
X181500Y321000
X171500Y321000
X161500Y321000
X151500Y321000
X141500Y321000
X131500Y321000
X121500Y321000
X111500Y321000
X101500Y321000
X101500Y351000
X101500Y421000
T03
X71500Y381000
X61500Y381000
X51500Y381000
X51500Y371000
X61500Y371000
X71500Y371000
X71500Y361000
X61500Y361000
X51500Y361000
X51500Y351000
X61500Y351000
X71500Y351000
X71500Y341000
X61500Y341000
X51500Y341000
X51500Y331000
X61500Y331000
X71500Y331000
X71500Y321000
X61500Y321000
X51500Y321000
X51500Y311000
X61500Y311000
X71500Y311000
X71500Y301000
X61500Y301000
X51500Y301000
X51500Y291000
X61500Y291000
X71500Y291000
X71500Y281000
X61500Y281000
X51500Y281000
X51500Y271000
X61500Y271000
X71500Y271000
X71500Y261000
X61500Y261000
X51500Y261000
X51500Y251000
X61500Y251000
X71500Y251000
X71500Y241000
X61500Y241000
X51500Y241000
X51500Y231000
X61500Y231000
X71500Y231000
X71500Y221000
X61500Y221000
X51500Y221000
X51500Y211000
X61500Y211000
X71500Y211000
X71500Y201000
X61500Y201000
X51500Y201000
X51500Y191000
X61500Y191000
X71500Y191000
X71500Y181000
X61500Y181000
X51500Y181000
X51500Y171000
X61500Y171000
X71500Y171000
X71500Y161000
X61500Y161000
X51500Y161000
X51500Y151000
X61500Y151000
X71500Y151000
X71500Y141000
X61500Y141000
X51500Y141000
X51500Y131000
X61500Y131000
X71500Y131000
X71500Y121000
X61500Y121000
X51500Y121000
X51500Y111000
X61500Y111000
X71500Y111000
X71500Y101000
X61500Y101000
X51500Y101000
X51500Y91000
X61500Y91000
X71500Y91000
X71500Y81000
X61500Y81000
X51500Y81000
X51500Y71000
X61500Y71000
X71500Y71000
T04
X41500Y50975
X41500Y401025
M30
