%TF.GenerationSoftware,KiCad,Pcbnew,10.0.6*%
%TF.CreationDate,2026-09-24T16:04:04-04:00*%
%TF.ProjectId,memory-v2.0,6d656d6f-7279-42d7-9632-2e302e6b6963,2.0*%
%TF.SameCoordinates,Original*%
%TF.FileFunction,Copper,L4,Bot*%
%TF.FilePolarity,Positive*%
%FSLAX46Y46*%
G04 Gerber Fmt 4.6, Leading zero omitted, Abs format (unit mm)*
G04 Created by KiCad (PCBNEW 10.0.6) date 2026-09-24 16:04:04*
%MOMM*%
%LPD*%
G01*
G04 APERTURE LIST*
G04 Aperture macros list*
%AMRoundRect*
0 Rectangle with rounded corners*
0 $1 Rounding radius*
0 $2 $3 $4 $5 $6 $7 $8 $9 X,Y pos of 4 corners*
0 Add a 4 corners polygon primitive as box body*
4,1,4,$2,$3,$4,$5,$6,$7,$8,$9,$2,$3,0*
0 Add four circle primitives for the rounded corners*
1,1,$1+$1,$2,$3*
1,1,$1+$1,$4,$5*
1,1,$1+$1,$6,$7*
1,1,$1+$1,$8,$9*
0 Add four rect primitives between the rounded corners*
20,1,$1+$1,$2,$3,$4,$5,0*
20,1,$1+$1,$4,$5,$6,$7,0*
20,1,$1+$1,$6,$7,$8,$9,0*
20,1,$1+$1,$8,$9,$2,$3,0*%
%AMOutline5P*
0 Free polygon, 5 corners , with rotation*
0 The origin of the aperture is its center*
0 number of corners: always 5*
0 $1 to $10 corner X, Y*
0 $11 Rotation angle, in degrees counterclockwise*
0 create outline with 5 corners*
4,1,5,$1,$2,$3,$4,$5,$6,$7,$8,$9,$10,$1,$2,$11*%
%AMOutline6P*
0 Free polygon, 6 corners , with rotation*
0 The origin of the aperture is its center*
0 number of corners: always 6*
0 $1 to $12 corner X, Y*
0 $13 Rotation angle, in degrees counterclockwise*
0 create outline with 6 corners*
4,1,6,$1,$2,$3,$4,$5,$6,$7,$8,$9,$10,$11,$12,$1,$2,$13*%
%AMOutline7P*
0 Free polygon, 7 corners , with rotation*
0 The origin of the aperture is its center*
0 number of corners: always 7*
0 $1 to $14 corner X, Y*
0 $15 Rotation angle, in degrees counterclockwise*
0 create outline with 7 corners*
4,1,7,$1,$2,$3,$4,$5,$6,$7,$8,$9,$10,$11,$12,$13,$14,$1,$2,$15*%
%AMOutline8P*
0 Free polygon, 8 corners , with rotation*
0 The origin of the aperture is its center*
0 number of corners: always 8*
0 $1 to $16 corner X, Y*
0 $17 Rotation angle, in degrees counterclockwise*
0 create outline with 8 corners*
4,1,8,$1,$2,$3,$4,$5,$6,$7,$8,$9,$10,$11,$12,$13,$14,$15,$16,$1,$2,$17*%
G04 Aperture macros list end*
%TA.AperFunction,ComponentPad*%
%ADD10RoundRect,0.250000X0.550000X-0.550000X0.550000X0.550000X-0.550000X0.550000X-0.550000X-0.550000X0*%
%TD*%
%TA.AperFunction,ComponentPad*%
%ADD11C,1.600000*%
%TD*%
%TA.AperFunction,ComponentPad*%
%ADD12Outline8P,-0.762000X0.315631X-0.315631X0.762000X0.315631X0.762000X0.762000X0.315631X0.762000X-0.315631X0.315631X-0.762000X-0.315631X-0.762000X-0.762000X-0.315631X0.000000*%
%TD*%
%TA.AperFunction,ComponentPad*%
%ADD13Outline8P,-0.838200X0.347194X-0.347194X0.838200X0.347194X0.838200X0.838200X0.347194X0.838200X-0.347194X0.347194X-0.838200X-0.347194X-0.838200X-0.838200X-0.347194X90.000000*%
%TD*%
%TA.AperFunction,ComponentPad*%
%ADD14RoundRect,0.250000X-0.600000X-0.600000X0.600000X-0.600000X0.600000X0.600000X-0.600000X0.600000X0*%
%TD*%
%TA.AperFunction,ComponentPad*%
%ADD15C,1.700000*%
%TD*%
%TA.AperFunction,ComponentPad*%
%ADD16O,1.219200X2.438400*%
%TD*%
%TA.AperFunction,ComponentPad*%
%ADD17Outline8P,-0.838200X0.347194X-0.347194X0.838200X0.347194X0.838200X0.838200X0.347194X0.838200X-0.347194X0.347194X-0.838200X-0.347194X-0.838200X-0.838200X-0.347194X0.000000*%
%TD*%
%TA.AperFunction,ComponentPad*%
%ADD18R,1.600000X1.600000*%
%TD*%
%TA.AperFunction,ComponentPad*%
%ADD19R,1.700000X1.700000*%
%TD*%
%TA.AperFunction,ComponentPad*%
%ADD20RoundRect,0.250000X-0.550000X-0.550000X0.550000X-0.550000X0.550000X0.550000X-0.550000X0.550000X0*%
%TD*%
%TA.AperFunction,ComponentPad*%
%ADD21Outline8P,-0.609600X0.252505X-0.252505X0.609600X0.252505X0.609600X0.609600X0.252505X0.609600X-0.252505X0.252505X-0.609600X-0.252505X-0.609600X-0.609600X-0.252505X0.000000*%
%TD*%
%TA.AperFunction,ComponentPad*%
%ADD22Outline8P,-0.609600X0.252505X-0.252505X0.609600X0.252505X0.609600X0.609600X0.252505X0.609600X-0.252505X0.252505X-0.609600X-0.252505X-0.609600X-0.609600X-0.252505X180.000000*%
%TD*%
%TA.AperFunction,WasherPad*%
%ADD23C,2.997200*%
%TD*%
%TA.AperFunction,ComponentPad*%
%ADD24Outline8P,-0.762000X0.315631X-0.315631X0.762000X0.315631X0.762000X0.762000X0.315631X0.762000X-0.315631X0.315631X-0.762000X-0.315631X-0.762000X-0.762000X-0.315631X180.000000*%
%TD*%
%TA.AperFunction,ComponentPad*%
%ADD25R,1.800000X1.800000*%
%TD*%
%TA.AperFunction,ComponentPad*%
%ADD26C,1.800000*%
%TD*%
%TA.AperFunction,ComponentPad*%
%ADD27O,1.524000X3.048000*%
%TD*%
%TA.AperFunction,ViaPad*%
%ADD28C,0.800000*%
%TD*%
%TA.AperFunction,Conductor*%
%ADD29C,0.250000*%
%TD*%
G04 APERTURE END LIST*
D10*
%TO.P,IC32,1*%
%TO.N,-RESET*%
X153640000Y-90980000D03*
D11*
%TO.P,IC32,2*%
%TO.N,/Sheet 7/DA0*%
X156180000Y-90980000D03*
%TO.P,IC32,3*%
%TO.N,unconnected-(IC32-~{Q0}-Pad3)*%
X158720000Y-90980000D03*
%TO.P,IC32,4*%
%TO.N,DATA0*%
X161260000Y-90980000D03*
%TO.P,IC32,5*%
%TO.N,DATA1*%
X163800000Y-90980000D03*
%TO.P,IC32,6*%
%TO.N,unconnected-(IC32-~{Q1}-Pad6)*%
X166340000Y-90980000D03*
%TO.P,IC32,7*%
%TO.N,/Sheet 7/DA1*%
X168880000Y-90980000D03*
%TO.P,IC32,8*%
%TO.N,GND*%
X171420000Y-90980000D03*
%TO.P,IC32,9*%
%TO.N,/Sheet 7/LATCHCLK*%
X171420000Y-83360000D03*
%TO.P,IC32,10*%
%TO.N,/Sheet 7/DA2*%
X168880000Y-83360000D03*
%TO.P,IC32,11*%
%TO.N,unconnected-(IC32-~{Q2}-Pad11)*%
X166340000Y-83360000D03*
%TO.P,IC32,12*%
%TO.N,DATA2*%
X163800000Y-83360000D03*
%TO.P,IC32,13*%
%TO.N,DATA3*%
X161260000Y-83360000D03*
%TO.P,IC32,14*%
%TO.N,/Sheet 7/-SRST*%
X158720000Y-83360000D03*
%TO.P,IC32,15*%
%TO.N,/Sheet 7/SRST*%
X156180000Y-83360000D03*
%TO.P,IC32,16*%
%TO.N,VCC*%
X153640000Y-83360000D03*
%TD*%
D12*
%TO.P,U$1,1*%
%TO.N,/Sheet 2/ROM0*%
X102840000Y-18590000D03*
%TO.P,U$1,2*%
%TO.N,/Sheet 2/ROM1*%
X105380000Y-18590000D03*
%TO.P,U$1,3*%
%TO.N,/Sheet 2/ROM2*%
X107920000Y-18590000D03*
%TO.P,U$1,4*%
%TO.N,/Sheet 2/ROM3*%
X110460000Y-18590000D03*
%TO.P,U$1,5*%
%TO.N,/Sheet 2/ROM4*%
X113000000Y-18590000D03*
%TO.P,U$1,6*%
%TO.N,/Sheet 2/ROM5*%
X115540000Y-18590000D03*
%TO.P,U$1,7*%
%TO.N,/Sheet 2/ROM6*%
X118080000Y-18590000D03*
%TO.P,U$1,8*%
%TO.N,/Sheet 2/ROM7*%
X120620000Y-18590000D03*
%TO.P,U$1,9*%
%TO.N,/Sheet 2/SEL0*%
X102840000Y-21130000D03*
%TO.P,U$1,10*%
%TO.N,/Sheet 2/SEL1*%
X105380000Y-21130000D03*
%TO.P,U$1,11*%
%TO.N,/Sheet 2/SEL2*%
X107920000Y-21130000D03*
%TO.P,U$1,12*%
%TO.N,/Sheet 2/SEL3*%
X110460000Y-21130000D03*
%TO.P,U$1,13*%
%TO.N,/Sheet 2/SEL4*%
X113000000Y-21130000D03*
%TO.P,U$1,14*%
%TO.N,/Sheet 2/SEL5*%
X115540000Y-21130000D03*
%TO.P,U$1,15*%
%TO.N,/Sheet 2/SEL6*%
X118080000Y-21130000D03*
%TO.P,U$1,16*%
%TO.N,/Sheet 2/SEL7*%
X120620000Y-21130000D03*
%TO.P,U$1,17*%
%TO.N,/Sheet 2/RAM0*%
X102840000Y-23670000D03*
%TO.P,U$1,18*%
%TO.N,/Sheet 2/RAM1*%
X105380000Y-23670000D03*
%TO.P,U$1,19*%
%TO.N,/Sheet 2/RAM2*%
X107920000Y-23670000D03*
%TO.P,U$1,20*%
%TO.N,/Sheet 2/RAM3*%
X110460000Y-23670000D03*
%TO.P,U$1,21*%
%TO.N,/Sheet 2/RAM4*%
X113000000Y-23670000D03*
%TO.P,U$1,22*%
%TO.N,/Sheet 2/RAM5*%
X115540000Y-23670000D03*
%TO.P,U$1,23*%
%TO.N,/Sheet 2/RAM6*%
X118080000Y-23670000D03*
%TO.P,U$1,24*%
%TO.N,/Sheet 2/RAM7*%
X120620000Y-23670000D03*
%TD*%
D13*
%TO.P,C4,1*%
%TO.N,VCC*%
X35530000Y-80820000D03*
%TO.P,C4,2*%
%TO.N,GND*%
X35530000Y-78280000D03*
%TD*%
%TO.P,C20,1*%
%TO.N,GND*%
X35530000Y-118920000D03*
%TO.P,C20,2*%
%TO.N,VCC*%
X35530000Y-116380000D03*
%TD*%
D14*
%TO.P,J2,1*%
%TO.N,/Sheet 7/-CFRESET*%
X189200000Y-50340000D03*
D15*
%TO.P,J2,2*%
%TO.N,GND*%
X191740000Y-50340000D03*
%TO.P,J2,3*%
%TO.N,/Sheet 7/CFD7*%
X189200000Y-52880000D03*
%TO.P,J2,4*%
%TO.N,unconnected-(J2-Pin_4-Pad4)*%
X191740000Y-52880000D03*
%TO.P,J2,5*%
%TO.N,/Sheet 7/CFD6*%
X189200000Y-55420000D03*
%TO.P,J2,6*%
%TO.N,unconnected-(J2-Pin_6-Pad6)*%
X191740000Y-55420000D03*
%TO.P,J2,7*%
%TO.N,/Sheet 7/CFD5*%
X189200000Y-57960000D03*
%TO.P,J2,8*%
%TO.N,unconnected-(J2-Pin_8-Pad8)*%
X191740000Y-57960000D03*
%TO.P,J2,9*%
%TO.N,/Sheet 7/CFD4*%
X189200000Y-60500000D03*
%TO.P,J2,10*%
%TO.N,unconnected-(J2-Pin_10-Pad10)*%
X191740000Y-60500000D03*
%TO.P,J2,11*%
%TO.N,/Sheet 7/CFD3*%
X189200000Y-63040000D03*
%TO.P,J2,12*%
%TO.N,unconnected-(J2-Pin_12-Pad12)*%
X191740000Y-63040000D03*
%TO.P,J2,13*%
%TO.N,/Sheet 7/CFD2*%
X189200000Y-65580000D03*
%TO.P,J2,14*%
%TO.N,unconnected-(J2-Pin_14-Pad14)*%
X191740000Y-65580000D03*
%TO.P,J2,15*%
%TO.N,/Sheet 7/CFD1*%
X189200000Y-68120000D03*
%TO.P,J2,16*%
%TO.N,unconnected-(J2-Pin_16-Pad16)*%
X191740000Y-68120000D03*
%TO.P,J2,17*%
%TO.N,/Sheet 7/CFD0*%
X189200000Y-70660000D03*
%TO.P,J2,18*%
%TO.N,unconnected-(J2-Pin_18-Pad18)*%
X191740000Y-70660000D03*
%TO.P,J2,19*%
%TO.N,GND*%
X189200000Y-73200000D03*
%TO.P,J2,20*%
%TO.N,/Sheet 7/PIN20*%
X191740000Y-73200000D03*
%TO.P,J2,21*%
%TO.N,unconnected-(J2-Pin_21-Pad21)*%
X189200000Y-75740000D03*
%TO.P,J2,22*%
%TO.N,GND*%
X191740000Y-75740000D03*
%TO.P,J2,23*%
%TO.N,/Sheet 7/-IOW*%
X189200000Y-78280000D03*
%TO.P,J2,24*%
%TO.N,GND*%
X191740000Y-78280000D03*
%TO.P,J2,25*%
%TO.N,/Sheet 7/-IOR*%
X189200000Y-80820000D03*
%TO.P,J2,26*%
%TO.N,GND*%
X191740000Y-80820000D03*
%TO.P,J2,27*%
%TO.N,/Sheet 7/IORDY*%
X189200000Y-83360000D03*
%TO.P,J2,28*%
%TO.N,GND*%
X191740000Y-83360000D03*
%TO.P,J2,29*%
%TO.N,/Sheet 7/-DMACK*%
X189200000Y-85900000D03*
%TO.P,J2,30*%
%TO.N,GND*%
X191740000Y-85900000D03*
%TO.P,J2,31*%
%TO.N,unconnected-(J2-Pin_31-Pad31)*%
X189200000Y-88440000D03*
%TO.P,J2,32*%
%TO.N,unconnected-(J2-Pin_32-Pad32)*%
X191740000Y-88440000D03*
%TO.P,J2,33*%
%TO.N,/Sheet 7/DA1*%
X189200000Y-90980000D03*
%TO.P,J2,34*%
%TO.N,/Sheet 7/-PDIAG*%
X191740000Y-90980000D03*
%TO.P,J2,35*%
%TO.N,/Sheet 7/DA0*%
X189200000Y-93520000D03*
%TO.P,J2,36*%
%TO.N,/Sheet 7/DA2*%
X191740000Y-93520000D03*
%TO.P,J2,37*%
%TO.N,GND*%
X189200000Y-96060000D03*
%TO.P,J2,38*%
%TO.N,VCC*%
X191740000Y-96060000D03*
%TO.P,J2,39*%
%TO.N,/Sheet 7/-DASP*%
X189200000Y-98600000D03*
%TO.P,J2,40*%
%TO.N,GND*%
X191740000Y-98600000D03*
%TD*%
D13*
%TO.P,C8,1*%
%TO.N,VCC*%
X148560000Y-18590000D03*
%TO.P,C8,2*%
%TO.N,GND*%
X148560000Y-16050000D03*
%TD*%
%TO.P,C16,1*%
%TO.N,VCC*%
X35530000Y-66850000D03*
%TO.P,C16,2*%
%TO.N,GND*%
X35530000Y-64310000D03*
%TD*%
D16*
%TO.P,IC12,1*%
%TO.N,VCC*%
X76170000Y-83360000D03*
%TO.P,IC12,2*%
%TO.N,GND*%
X78710000Y-83360000D03*
%TO.P,IC12,3*%
%TO.N,Net-(IC10C-O)*%
X81250000Y-83360000D03*
%TO.P,IC12,4*%
%TO.N,-RESET*%
X83790000Y-83360000D03*
%TO.P,IC12,5*%
%TO.N,FORCE-ROM*%
X86330000Y-83360000D03*
%TO.P,IC12,6*%
%TO.N,unconnected-(IC12A-~{Q}-Pad6)*%
X88870000Y-83360000D03*
%TO.P,IC12,7*%
%TO.N,GND*%
X91410000Y-83360000D03*
%TO.P,IC12,8*%
%TO.N,unconnected-(IC12B-~{Q}-Pad8)*%
X91410000Y-75740000D03*
%TO.P,IC12,9*%
%TO.N,unconnected-(IC12B-Q-Pad9)*%
X88870000Y-75740000D03*
%TO.P,IC12,10*%
%TO.N,GND*%
X86330000Y-75740000D03*
%TO.P,IC12,11*%
X83790000Y-75740000D03*
%TO.P,IC12,12*%
X81250000Y-75740000D03*
%TO.P,IC12,13*%
X78710000Y-75740000D03*
%TO.P,IC12,14*%
%TO.N,VCC*%
X76170000Y-75740000D03*
%TD*%
%TO.P,IC27,1*%
%TO.N,-TMP-REG-RD0*%
X40610000Y-27480000D03*
%TO.P,IC27,2*%
%TO.N,DATA8*%
X43150000Y-27480000D03*
%TO.P,IC27,3*%
X45690000Y-27480000D03*
%TO.P,IC27,4*%
%TO.N,DATA9*%
X48230000Y-27480000D03*
%TO.P,IC27,5*%
X50770000Y-27480000D03*
%TO.P,IC27,6*%
%TO.N,DATA10*%
X53310000Y-27480000D03*
%TO.P,IC27,7*%
X55850000Y-27480000D03*
%TO.P,IC27,8*%
%TO.N,DATA11*%
X58390000Y-27480000D03*
%TO.P,IC27,9*%
X60930000Y-27480000D03*
%TO.P,IC27,10*%
%TO.N,GND*%
X63470000Y-27480000D03*
%TO.P,IC27,11*%
%TO.N,Net-(IC14A-O)*%
X63470000Y-19860000D03*
%TO.P,IC27,12*%
%TO.N,DATA12*%
X60930000Y-19860000D03*
%TO.P,IC27,13*%
X58390000Y-19860000D03*
%TO.P,IC27,14*%
%TO.N,DATA13*%
X55850000Y-19860000D03*
%TO.P,IC27,15*%
X53310000Y-19860000D03*
%TO.P,IC27,16*%
%TO.N,DATA14*%
X50770000Y-19860000D03*
%TO.P,IC27,17*%
X48230000Y-19860000D03*
%TO.P,IC27,18*%
%TO.N,DATA15*%
X45690000Y-19860000D03*
%TO.P,IC27,19*%
X43150000Y-19860000D03*
%TO.P,IC27,20*%
%TO.N,VCC*%
X40610000Y-19860000D03*
%TD*%
D13*
%TO.P,C11,1*%
%TO.N,VCC*%
X71090000Y-66850000D03*
%TO.P,C11,2*%
%TO.N,GND*%
X71090000Y-64310000D03*
%TD*%
D11*
%TO.P,R13,1*%
%TO.N,VCC*%
X180310000Y-112570000D03*
%TO.P,R13,2*%
%TO.N,/Sheet 7/-DMACK*%
X180310000Y-102410000D03*
%TD*%
D13*
%TO.P,C21,1*%
%TO.N,GND*%
X35530000Y-17320000D03*
%TO.P,C21,2*%
%TO.N,VCC*%
X35530000Y-14780000D03*
%TD*%
D11*
%TO.P,C29,1*%
%TO.N,VCC*%
X148560000Y-61770000D03*
%TO.P,C29,2*%
%TO.N,GND*%
X148560000Y-56770000D03*
%TD*%
D17*
%TO.P,C22,1*%
%TO.N,GND*%
X177770000Y-13510000D03*
%TO.P,C22,2*%
%TO.N,VCC*%
X180310000Y-13510000D03*
%TD*%
D13*
%TO.P,C10,1*%
%TO.N,VCC*%
X71090000Y-38910000D03*
%TO.P,C10,2*%
%TO.N,GND*%
X71090000Y-36370000D03*
%TD*%
D11*
%TO.P,R10,1*%
%TO.N,VCC*%
X176500000Y-98600000D03*
%TO.P,R10,2*%
%TO.N,/Sheet 7/IORDY*%
X176500000Y-88440000D03*
%TD*%
D16*
%TO.P,IC7,1*%
%TO.N,BADDR12*%
X153640000Y-21130000D03*
%TO.P,IC7,2*%
%TO.N,BADDR13*%
X156180000Y-21130000D03*
%TO.P,IC7,3*%
%TO.N,BADDR14*%
X158720000Y-21130000D03*
%TO.P,IC7,4*%
%TO.N,-VMA*%
X161260000Y-21130000D03*
%TO.P,IC7,5*%
%TO.N,Net-(IC7-G2B)*%
X163800000Y-21130000D03*
%TO.P,IC7,6*%
%TO.N,BADDR15*%
X166340000Y-21130000D03*
%TO.P,IC7,7*%
%TO.N,/Sheet 2/SEL7*%
X168880000Y-21130000D03*
%TO.P,IC7,8*%
%TO.N,GND*%
X171420000Y-21130000D03*
%TO.P,IC7,9*%
%TO.N,/Sheet 2/SEL6*%
X171420000Y-13510000D03*
%TO.P,IC7,10*%
%TO.N,/Sheet 2/SEL5*%
X168880000Y-13510000D03*
%TO.P,IC7,11*%
%TO.N,/Sheet 2/SEL4*%
X166340000Y-13510000D03*
%TO.P,IC7,12*%
%TO.N,/Sheet 2/SEL3*%
X163800000Y-13510000D03*
%TO.P,IC7,13*%
%TO.N,/Sheet 2/SEL2*%
X161260000Y-13510000D03*
%TO.P,IC7,14*%
%TO.N,/Sheet 2/SEL1*%
X158720000Y-13510000D03*
%TO.P,IC7,15*%
%TO.N,/Sheet 2/SEL0*%
X156180000Y-13510000D03*
%TO.P,IC7,16*%
%TO.N,VCC*%
X153640000Y-13510000D03*
%TD*%
%TO.P,IC29,1*%
%TO.N,-TMP-REG-RD1*%
X40610000Y-41450000D03*
%TO.P,IC29,2*%
%TO.N,DATA8*%
X43150000Y-41450000D03*
%TO.P,IC29,3*%
X45690000Y-41450000D03*
%TO.P,IC29,4*%
%TO.N,DATA9*%
X48230000Y-41450000D03*
%TO.P,IC29,5*%
X50770000Y-41450000D03*
%TO.P,IC29,6*%
%TO.N,DATA10*%
X53310000Y-41450000D03*
%TO.P,IC29,7*%
X55850000Y-41450000D03*
%TO.P,IC29,8*%
%TO.N,DATA11*%
X58390000Y-41450000D03*
%TO.P,IC29,9*%
X60930000Y-41450000D03*
%TO.P,IC29,10*%
%TO.N,GND*%
X63470000Y-41450000D03*
%TO.P,IC29,11*%
%TO.N,Net-(IC14F-O)*%
X63470000Y-33830000D03*
%TO.P,IC29,12*%
%TO.N,DATA12*%
X60930000Y-33830000D03*
%TO.P,IC29,13*%
X58390000Y-33830000D03*
%TO.P,IC29,14*%
%TO.N,DATA13*%
X55850000Y-33830000D03*
%TO.P,IC29,15*%
X53310000Y-33830000D03*
%TO.P,IC29,16*%
%TO.N,DATA14*%
X50770000Y-33830000D03*
%TO.P,IC29,17*%
X48230000Y-33830000D03*
%TO.P,IC29,18*%
%TO.N,DATA15*%
X45690000Y-33830000D03*
%TO.P,IC29,19*%
X43150000Y-33830000D03*
%TO.P,IC29,20*%
%TO.N,VCC*%
X40610000Y-33830000D03*
%TD*%
D11*
%TO.P,C27,1*%
%TO.N,VCC*%
X148560000Y-89710000D03*
%TO.P,C27,2*%
%TO.N,GND*%
X148560000Y-84710000D03*
%TD*%
D13*
%TO.P,C17,1*%
%TO.N,VCC*%
X35530000Y-38910000D03*
%TO.P,C17,2*%
%TO.N,GND*%
X35530000Y-36370000D03*
%TD*%
D18*
%TO.P,RN9,1*%
%TO.N,VCC*%
X181580000Y-71930000D03*
D11*
%TO.P,RN9,2*%
%TO.N,/Sheet 7/CFD0*%
X181580000Y-69390000D03*
%TO.P,RN9,3*%
%TO.N,/Sheet 7/CFD1*%
X181580000Y-66850000D03*
%TO.P,RN9,4*%
%TO.N,/Sheet 7/CFD2*%
X181580000Y-64310000D03*
%TO.P,RN9,5*%
%TO.N,/Sheet 7/CFD3*%
X181580000Y-61770000D03*
%TO.P,RN9,6*%
%TO.N,/Sheet 7/CFD4*%
X181580000Y-59230000D03*
%TO.P,RN9,7*%
%TO.N,/Sheet 7/CFD5*%
X181580000Y-56690000D03*
%TO.P,RN9,8*%
%TO.N,/Sheet 7/CFD6*%
X181580000Y-54150000D03*
%TO.P,RN9,9*%
%TO.N,/Sheet 7/CFD7*%
X181580000Y-51610000D03*
%TD*%
D16*
%TO.P,IC9,1*%
%TO.N,GND*%
X40610000Y-83360000D03*
%TO.P,IC9,2*%
%TO.N,ADDR8*%
X43150000Y-83360000D03*
%TO.P,IC9,3*%
%TO.N,Net-(IC11-4A)*%
X45690000Y-83360000D03*
%TO.P,IC9,4*%
%TO.N,ADDR9*%
X48230000Y-83360000D03*
%TO.P,IC9,5*%
%TO.N,Net-(IC11-3A)*%
X50770000Y-83360000D03*
%TO.P,IC9,6*%
%TO.N,ADDR10*%
X53310000Y-83360000D03*
%TO.P,IC9,7*%
%TO.N,Net-(IC11-2A)*%
X55850000Y-83360000D03*
%TO.P,IC9,8*%
%TO.N,ADDR11*%
X58390000Y-83360000D03*
%TO.P,IC9,9*%
%TO.N,Net-(IC11-1A)*%
X60930000Y-83360000D03*
%TO.P,IC9,10*%
%TO.N,GND*%
X63470000Y-83360000D03*
%TO.P,IC9,11*%
%TO.N,ADDR12*%
X63470000Y-75740000D03*
%TO.P,IC9,12*%
%TO.N,BADDR11*%
X60930000Y-75740000D03*
%TO.P,IC9,13*%
%TO.N,ADDR13*%
X58390000Y-75740000D03*
%TO.P,IC9,14*%
%TO.N,BADDR10*%
X55850000Y-75740000D03*
%TO.P,IC9,15*%
%TO.N,ADDR14*%
X53310000Y-75740000D03*
%TO.P,IC9,16*%
%TO.N,BADDR9*%
X50770000Y-75740000D03*
%TO.P,IC9,17*%
%TO.N,ADDR15*%
X48230000Y-75740000D03*
%TO.P,IC9,18*%
%TO.N,BADDR8*%
X45690000Y-75740000D03*
%TO.P,IC9,19*%
%TO.N,GND*%
X43150000Y-75740000D03*
%TO.P,IC9,20*%
%TO.N,VCC*%
X40610000Y-75740000D03*
%TD*%
D13*
%TO.P,C1,1*%
%TO.N,VCC*%
X104110000Y-43990000D03*
%TO.P,C1,2*%
%TO.N,GND*%
X104110000Y-41450000D03*
%TD*%
D10*
%TO.P,IC33,1*%
%TO.N,/Sheet 7/-IOR*%
X153640000Y-49070000D03*
D11*
%TO.P,IC33,2*%
%TO.N,/Sheet 7/-IOW*%
X156180000Y-49070000D03*
%TO.P,IC33,3*%
%TO.N,/Sheet 7/-CFOE*%
X158720000Y-49070000D03*
%TO.P,IC33,4*%
%TO.N,-RESET*%
X161260000Y-49070000D03*
%TO.P,IC33,5*%
%TO.N,/Sheet 7/-SRST*%
X163800000Y-49070000D03*
%TO.P,IC33,6*%
%TO.N,/Sheet 7/-CFRESET*%
X166340000Y-49070000D03*
%TO.P,IC33,7*%
%TO.N,GND*%
X168880000Y-49070000D03*
%TO.P,IC33,8*%
%TO.N,/Sheet 7/ACTK*%
X168880000Y-41450000D03*
%TO.P,IC33,9*%
%TO.N,/Sheet 7/-CFOE*%
X166340000Y-41450000D03*
%TO.P,IC33,10*%
X163800000Y-41450000D03*
%TO.P,IC33,11*%
%TO.N,unconnected-(IC33-Pad11)*%
X161260000Y-41450000D03*
%TO.P,IC33,12*%
%TO.N,GND*%
X158720000Y-41450000D03*
%TO.P,IC33,13*%
X156180000Y-41450000D03*
%TO.P,IC33,14*%
%TO.N,VCC*%
X153640000Y-41450000D03*
%TD*%
%TO.P,C28,1*%
%TO.N,VCC*%
X148560000Y-47800000D03*
%TO.P,C28,2*%
%TO.N,GND*%
X148560000Y-42800000D03*
%TD*%
D13*
%TO.P,C2,1*%
%TO.N,VCC*%
X104110000Y-65580000D03*
%TO.P,C2,2*%
%TO.N,GND*%
X104110000Y-63040000D03*
%TD*%
D16*
%TO.P,IC14,1*%
%TO.N,-TMP-REG-LD0*%
X76170000Y-27480000D03*
%TO.P,IC14,2*%
%TO.N,Net-(IC14A-O)*%
X78710000Y-27480000D03*
%TO.P,IC14,3*%
%TO.N,BADDR15*%
X81250000Y-27480000D03*
%TO.P,IC14,4*%
%TO.N,Net-(IC10A-I0)*%
X83790000Y-27480000D03*
%TO.P,IC14,5*%
%TO.N,N/C*%
X86330000Y-27480000D03*
%TO.P,IC14,6*%
X88870000Y-27480000D03*
%TO.P,IC14,7*%
%TO.N,GND*%
X91410000Y-27480000D03*
%TO.P,IC14,8*%
%TO.N,N/C*%
X91410000Y-19860000D03*
%TO.P,IC14,9*%
X88870000Y-19860000D03*
%TO.P,IC14,10*%
%TO.N,Net-(IC10A-I1)*%
X86330000Y-19860000D03*
%TO.P,IC14,11*%
%TO.N,-VMA*%
X83790000Y-19860000D03*
%TO.P,IC14,12*%
%TO.N,Net-(IC14F-O)*%
X81250000Y-19860000D03*
%TO.P,IC14,13*%
%TO.N,-TMP-REG-LD1*%
X78710000Y-19860000D03*
%TO.P,IC14,14*%
%TO.N,VCC*%
X76170000Y-19860000D03*
%TD*%
%TO.P,RN8,1*%
%TO.N,VCC*%
X100300000Y-30020000D03*
%TO.P,RN8,2*%
%TO.N,/Sheet 2/RAM0*%
X102840000Y-30020000D03*
%TO.P,RN8,3*%
%TO.N,/Sheet 2/RAM1*%
X105380000Y-30020000D03*
%TO.P,RN8,4*%
%TO.N,/Sheet 2/RAM2*%
X107920000Y-30020000D03*
%TO.P,RN8,5*%
%TO.N,/Sheet 2/RAM3*%
X110460000Y-30020000D03*
%TO.P,RN8,6*%
%TO.N,/Sheet 2/RAM4*%
X113000000Y-30020000D03*
%TO.P,RN8,7*%
%TO.N,/Sheet 2/RAM5*%
X115540000Y-30020000D03*
%TO.P,RN8,8*%
%TO.N,/Sheet 2/RAM6*%
X118080000Y-30020000D03*
%TO.P,RN8,9*%
%TO.N,/Sheet 2/RAM7*%
X120620000Y-30020000D03*
%TD*%
D13*
%TO.P,C5,1*%
%TO.N,VCC*%
X35530000Y-94790000D03*
%TO.P,C5,2*%
%TO.N,GND*%
X35530000Y-92250000D03*
%TD*%
D11*
%TO.P,C26,1*%
%TO.N,VCC*%
X148560000Y-75740000D03*
%TO.P,C26,2*%
%TO.N,GND*%
X148560000Y-70740000D03*
%TD*%
D10*
%TO.P,IC31,1*%
%TO.N,/Sheet 7/-P8SEL*%
X153640000Y-77010000D03*
D11*
%TO.P,IC31,2*%
%TO.N,-IO-WR*%
X156180000Y-77010000D03*
%TO.P,IC31,3*%
%TO.N,/Sheet 7/LATCHCLK*%
X158720000Y-77010000D03*
%TO.P,IC31,4*%
%TO.N,/Sheet 7/-P9SEL*%
X161260000Y-77010000D03*
%TO.P,IC31,5*%
%TO.N,-IO-RD*%
X163800000Y-77010000D03*
%TO.P,IC31,6*%
%TO.N,/Sheet 7/-IOR*%
X166340000Y-77010000D03*
%TO.P,IC31,7*%
%TO.N,GND*%
X168880000Y-77010000D03*
%TO.P,IC31,8*%
%TO.N,/Sheet 7/-IOW*%
X168880000Y-69390000D03*
%TO.P,IC31,9*%
%TO.N,/Sheet 7/-P9SEL*%
X166340000Y-69390000D03*
%TO.P,IC31,10*%
%TO.N,-IO-WR*%
X163800000Y-69390000D03*
%TO.P,IC31,11*%
%TO.N,unconnected-(IC31-Pad11)*%
X161260000Y-69390000D03*
%TO.P,IC31,12*%
%TO.N,GND*%
X158720000Y-69390000D03*
%TO.P,IC31,13*%
X156180000Y-69390000D03*
%TO.P,IC31,14*%
%TO.N,VCC*%
X153640000Y-69390000D03*
%TD*%
D16*
%TO.P,IC18,1*%
%TO.N,/Sheet 2/ROM7*%
X129510000Y-22400000D03*
%TO.P,IC18,2*%
%TO.N,/Sheet 2/ROM6*%
X132050000Y-22400000D03*
%TO.P,IC18,3*%
%TO.N,/Sheet 2/ROM5*%
X134590000Y-22400000D03*
%TO.P,IC18,4*%
%TO.N,/Sheet 2/ROM4*%
X137130000Y-22400000D03*
%TO.P,IC18,5*%
%TO.N,/Sheet 2/ROM3*%
X139670000Y-22400000D03*
%TO.P,IC18,6*%
%TO.N,/Sheet 2/ROM2*%
X142210000Y-22400000D03*
%TO.P,IC18,7*%
%TO.N,GND*%
X144750000Y-22400000D03*
%TO.P,IC18,8*%
%TO.N,Net-(IC18-O)*%
X144750000Y-14780000D03*
%TO.P,IC18,9*%
%TO.N,N/C*%
X142210000Y-14780000D03*
%TO.P,IC18,10*%
X139670000Y-14780000D03*
%TO.P,IC18,11*%
%TO.N,/Sheet 2/ROM1*%
X137130000Y-14780000D03*
%TO.P,IC18,12*%
%TO.N,/Sheet 2/ROM0*%
X134590000Y-14780000D03*
%TO.P,IC18,13*%
%TO.N,N/C*%
X132050000Y-14780000D03*
%TO.P,IC18,14*%
%TO.N,VCC*%
X129510000Y-14780000D03*
%TD*%
%TO.P,IC10,1*%
%TO.N,Net-(IC10A-I0)*%
X76170000Y-97330000D03*
%TO.P,IC10,2*%
%TO.N,Net-(IC10A-I1)*%
X78710000Y-97330000D03*
%TO.P,IC10,3*%
%TO.N,-LO-RAM*%
X81250000Y-97330000D03*
%TO.P,IC10,4*%
%TO.N,ADDR15*%
X83790000Y-97330000D03*
%TO.P,IC10,5*%
%TO.N,Net-(IC10B-I1)*%
X86330000Y-97330000D03*
%TO.P,IC10,6*%
%TO.N,Net-(IC10B-O)*%
X88870000Y-97330000D03*
%TO.P,IC10,7*%
%TO.N,GND*%
X91410000Y-97330000D03*
%TO.P,IC10,8*%
%TO.N,Net-(IC10C-O)*%
X91410000Y-89710000D03*
%TO.P,IC10,9*%
%TO.N,Net-(IC10B-O)*%
X88870000Y-89710000D03*
%TO.P,IC10,10*%
X86330000Y-89710000D03*
%TO.P,IC10,11*%
%TO.N,Net-(IC10B-I1)*%
X83790000Y-89710000D03*
%TO.P,IC10,12*%
%TO.N,Net-(IC10D-I0)*%
X81250000Y-89710000D03*
%TO.P,IC10,13*%
X78710000Y-89710000D03*
%TO.P,IC10,14*%
%TO.N,VCC*%
X76170000Y-89710000D03*
%TD*%
%TO.P,IC11,1*%
%TO.N,FORCE-ROM*%
X76170000Y-69390000D03*
%TO.P,IC11,2*%
%TO.N,Net-(IC11-1A)*%
X78710000Y-69390000D03*
%TO.P,IC11,3*%
%TO.N,VCC*%
X81250000Y-69390000D03*
%TO.P,IC11,4*%
%TO.N,BADDR12*%
X83790000Y-69390000D03*
%TO.P,IC11,5*%
%TO.N,Net-(IC11-2A)*%
X86330000Y-69390000D03*
%TO.P,IC11,6*%
%TO.N,VCC*%
X88870000Y-69390000D03*
%TO.P,IC11,7*%
%TO.N,BADDR13*%
X91410000Y-69390000D03*
%TO.P,IC11,8*%
%TO.N,GND*%
X93950000Y-69390000D03*
%TO.P,IC11,9*%
%TO.N,BADDR14*%
X93950000Y-61770000D03*
%TO.P,IC11,10*%
%TO.N,VCC*%
X91410000Y-61770000D03*
%TO.P,IC11,11*%
%TO.N,Net-(IC11-3A)*%
X88870000Y-61770000D03*
%TO.P,IC11,12*%
%TO.N,BADDR15*%
X86330000Y-61770000D03*
%TO.P,IC11,13*%
%TO.N,VCC*%
X83790000Y-61770000D03*
%TO.P,IC11,14*%
%TO.N,Net-(IC11-4A)*%
X81250000Y-61770000D03*
%TO.P,IC11,15*%
%TO.N,GND*%
X78710000Y-61770000D03*
%TO.P,IC11,16*%
%TO.N,VCC*%
X76170000Y-61770000D03*
%TD*%
%TO.P,IC6,1*%
%TO.N,Net-(IC6A-I)*%
X76170000Y-41450000D03*
%TO.P,IC6,2*%
%TO.N,Net-(IC1-~{OE})*%
X78710000Y-41450000D03*
%TO.P,IC6,3*%
%TO.N,Net-(IC6B-I)*%
X81250000Y-41450000D03*
%TO.P,IC6,4*%
%TO.N,Net-(IC1-~{WE})*%
X83790000Y-41450000D03*
%TO.P,IC6,5*%
%TO.N,-MEM-RD*%
X86330000Y-41450000D03*
%TO.P,IC6,6*%
%TO.N,Net-(IC6A-I)*%
X88870000Y-41450000D03*
%TO.P,IC6,7*%
%TO.N,GND*%
X91410000Y-41450000D03*
%TO.P,IC6,8*%
%TO.N,Net-(IC6B-I)*%
X91410000Y-33830000D03*
%TO.P,IC6,9*%
%TO.N,-MEM-WR*%
X88870000Y-33830000D03*
%TO.P,IC6,10*%
%TO.N,-HI-RAM*%
X86330000Y-33830000D03*
%TO.P,IC6,11*%
%TO.N,Net-(IC4-O)*%
X83790000Y-33830000D03*
%TO.P,IC6,12*%
%TO.N,-ROM-CS*%
X81250000Y-33830000D03*
%TO.P,IC6,13*%
%TO.N,Net-(IC18-O)*%
X78710000Y-33830000D03*
%TO.P,IC6,14*%
%TO.N,VCC*%
X76170000Y-33830000D03*
%TD*%
D11*
%TO.P,C25,1*%
%TO.N,VCC*%
X148560000Y-103680000D03*
%TO.P,C25,2*%
%TO.N,GND*%
X148560000Y-98680000D03*
%TD*%
D16*
%TO.P,IC5,1*%
%TO.N,-MEM-RD*%
X76170000Y-55420000D03*
%TO.P,IC5,2*%
%TO.N,DATA0*%
X78710000Y-55420000D03*
%TO.P,IC5,3*%
%TO.N,DATA1*%
X81250000Y-55420000D03*
%TO.P,IC5,4*%
%TO.N,DATA2*%
X83790000Y-55420000D03*
%TO.P,IC5,5*%
%TO.N,DATA3*%
X86330000Y-55420000D03*
%TO.P,IC5,6*%
%TO.N,DATA4*%
X88870000Y-55420000D03*
%TO.P,IC5,7*%
%TO.N,DATA5*%
X91410000Y-55420000D03*
%TO.P,IC5,8*%
%TO.N,DATA6*%
X93950000Y-55420000D03*
%TO.P,IC5,9*%
%TO.N,DATA7*%
X96490000Y-55420000D03*
%TO.P,IC5,10*%
%TO.N,GND*%
X99030000Y-55420000D03*
%TO.P,IC5,11*%
%TO.N,BDATA7*%
X99030000Y-47800000D03*
%TO.P,IC5,12*%
%TO.N,BDATA6*%
X96490000Y-47800000D03*
%TO.P,IC5,13*%
%TO.N,BDATA5*%
X93950000Y-47800000D03*
%TO.P,IC5,14*%
%TO.N,BDATA4*%
X91410000Y-47800000D03*
%TO.P,IC5,15*%
%TO.N,BDATA3*%
X88870000Y-47800000D03*
%TO.P,IC5,16*%
%TO.N,BDATA2*%
X86330000Y-47800000D03*
%TO.P,IC5,17*%
%TO.N,BDATA1*%
X83790000Y-47800000D03*
%TO.P,IC5,18*%
%TO.N,BDATA0*%
X81250000Y-47800000D03*
%TO.P,IC5,19*%
%TO.N,Net-(IC15A-O)*%
X78710000Y-47800000D03*
%TO.P,IC5,20*%
%TO.N,VCC*%
X76170000Y-47800000D03*
%TD*%
%TO.P,RN7,1*%
%TO.N,VCC*%
X120620000Y-13510000D03*
%TO.P,RN7,2*%
%TO.N,/Sheet 2/ROM7*%
X118080000Y-13510000D03*
%TO.P,RN7,3*%
%TO.N,/Sheet 2/ROM6*%
X115540000Y-13510000D03*
%TO.P,RN7,4*%
%TO.N,/Sheet 2/ROM5*%
X113000000Y-13510000D03*
%TO.P,RN7,5*%
%TO.N,/Sheet 2/ROM4*%
X110460000Y-13510000D03*
%TO.P,RN7,6*%
%TO.N,/Sheet 2/ROM3*%
X107920000Y-13510000D03*
%TO.P,RN7,7*%
%TO.N,/Sheet 2/ROM2*%
X105380000Y-13510000D03*
%TO.P,RN7,8*%
%TO.N,/Sheet 2/ROM1*%
X102840000Y-13510000D03*
%TO.P,RN7,9*%
%TO.N,/Sheet 2/ROM0*%
X100300000Y-13510000D03*
%TD*%
%TO.P,IC26,1*%
%TO.N,-TMP-REG-RD0*%
X40610000Y-55420000D03*
%TO.P,IC26,2*%
%TO.N,DATA0*%
X43150000Y-55420000D03*
%TO.P,IC26,3*%
X45690000Y-55420000D03*
%TO.P,IC26,4*%
%TO.N,DATA1*%
X48230000Y-55420000D03*
%TO.P,IC26,5*%
X50770000Y-55420000D03*
%TO.P,IC26,6*%
%TO.N,DATA2*%
X53310000Y-55420000D03*
%TO.P,IC26,7*%
X55850000Y-55420000D03*
%TO.P,IC26,8*%
%TO.N,DATA3*%
X58390000Y-55420000D03*
%TO.P,IC26,9*%
X60930000Y-55420000D03*
%TO.P,IC26,10*%
%TO.N,GND*%
X63470000Y-55420000D03*
%TO.P,IC26,11*%
%TO.N,Net-(IC14A-O)*%
X63470000Y-47800000D03*
%TO.P,IC26,12*%
%TO.N,DATA4*%
X60930000Y-47800000D03*
%TO.P,IC26,13*%
X58390000Y-47800000D03*
%TO.P,IC26,14*%
%TO.N,DATA5*%
X55850000Y-47800000D03*
%TO.P,IC26,15*%
X53310000Y-47800000D03*
%TO.P,IC26,16*%
%TO.N,DATA6*%
X50770000Y-47800000D03*
%TO.P,IC26,17*%
X48230000Y-47800000D03*
%TO.P,IC26,18*%
%TO.N,DATA7*%
X45690000Y-47800000D03*
%TO.P,IC26,19*%
X43150000Y-47800000D03*
%TO.P,IC26,20*%
%TO.N,VCC*%
X40610000Y-47800000D03*
%TD*%
D13*
%TO.P,C15,1*%
%TO.N,VCC*%
X35530000Y-24940000D03*
%TO.P,C15,2*%
%TO.N,GND*%
X35530000Y-22400000D03*
%TD*%
D16*
%TO.P,IC28,1*%
%TO.N,-TMP-REG-RD1*%
X40610000Y-69390000D03*
%TO.P,IC28,2*%
%TO.N,DATA0*%
X43150000Y-69390000D03*
%TO.P,IC28,3*%
X45690000Y-69390000D03*
%TO.P,IC28,4*%
%TO.N,DATA1*%
X48230000Y-69390000D03*
%TO.P,IC28,5*%
X50770000Y-69390000D03*
%TO.P,IC28,6*%
%TO.N,DATA2*%
X53310000Y-69390000D03*
%TO.P,IC28,7*%
X55850000Y-69390000D03*
%TO.P,IC28,8*%
%TO.N,DATA3*%
X58390000Y-69390000D03*
%TO.P,IC28,9*%
X60930000Y-69390000D03*
%TO.P,IC28,10*%
%TO.N,GND*%
X63470000Y-69390000D03*
%TO.P,IC28,11*%
%TO.N,Net-(IC14F-O)*%
X63470000Y-61770000D03*
%TO.P,IC28,12*%
%TO.N,DATA4*%
X60930000Y-61770000D03*
%TO.P,IC28,13*%
X58390000Y-61770000D03*
%TO.P,IC28,14*%
%TO.N,DATA5*%
X55850000Y-61770000D03*
%TO.P,IC28,15*%
X53310000Y-61770000D03*
%TO.P,IC28,16*%
%TO.N,DATA6*%
X50770000Y-61770000D03*
%TO.P,IC28,17*%
X48230000Y-61770000D03*
%TO.P,IC28,18*%
%TO.N,DATA7*%
X45690000Y-61770000D03*
%TO.P,IC28,19*%
X43150000Y-61770000D03*
%TO.P,IC28,20*%
%TO.N,VCC*%
X40610000Y-61770000D03*
%TD*%
D13*
%TO.P,C18,1*%
%TO.N,VCC*%
X71090000Y-108760000D03*
%TO.P,C18,2*%
%TO.N,GND*%
X71090000Y-106220000D03*
%TD*%
D11*
%TO.P,R12,1*%
%TO.N,VCC*%
X176500000Y-112570000D03*
%TO.P,R12,2*%
%TO.N,/Sheet 7/-DASP*%
X176500000Y-102410000D03*
%TD*%
D16*
%TO.P,RN5,1*%
%TO.N,GND*%
X40610000Y-104950000D03*
%TO.P,RN5,2*%
%TO.N,DATA0*%
X43150000Y-104950000D03*
%TO.P,RN5,3*%
%TO.N,DATA1*%
X45690000Y-104950000D03*
%TO.P,RN5,4*%
%TO.N,DATA2*%
X48230000Y-104950000D03*
%TO.P,RN5,5*%
%TO.N,DATA3*%
X50770000Y-104950000D03*
%TO.P,RN5,6*%
%TO.N,DATA4*%
X53310000Y-104950000D03*
%TO.P,RN5,7*%
%TO.N,DATA5*%
X55850000Y-104950000D03*
%TO.P,RN5,8*%
%TO.N,DATA6*%
X58390000Y-104950000D03*
%TO.P,RN5,9*%
%TO.N,DATA7*%
X60930000Y-104950000D03*
%TD*%
D19*
%TO.P,J3,1*%
%TO.N,VCC*%
X191740000Y-23670000D03*
D15*
%TO.P,J3,2*%
%TO.N,GND*%
X191740000Y-26210000D03*
%TO.P,J3,3*%
X191740000Y-28750000D03*
%TO.P,J3,4*%
%TO.N,unconnected-(J3-Pin_4-Pad4)*%
X191740000Y-31290000D03*
%TD*%
D13*
%TO.P,C7,1*%
%TO.N,VCC*%
X148560000Y-32560000D03*
%TO.P,C7,2*%
%TO.N,GND*%
X148560000Y-30020000D03*
%TD*%
%TO.P,C19,1*%
%TO.N,GND*%
X104110000Y-104950000D03*
%TO.P,C19,2*%
%TO.N,VCC*%
X104110000Y-102410000D03*
%TD*%
%TO.P,C3,1*%
%TO.N,VCC*%
X104110000Y-87170000D03*
%TO.P,C3,2*%
%TO.N,GND*%
X104110000Y-84630000D03*
%TD*%
%TO.P,C6,1*%
%TO.N,VCC*%
X71090000Y-52880000D03*
%TO.P,C6,2*%
%TO.N,GND*%
X71090000Y-50340000D03*
%TD*%
D20*
%TO.P,C30,1*%
%TO.N,VCC*%
X181580000Y-22400000D03*
D11*
%TO.P,C30,2*%
%TO.N,GND*%
X183580000Y-22400000D03*
%TD*%
D16*
%TO.P,IC3,1*%
%TO.N,-VMA*%
X76170000Y-111300000D03*
%TO.P,IC3,2*%
%TO.N,-BUS-EN*%
X78710000Y-111300000D03*
%TO.P,IC3,3*%
%TO.N,Net-(IC10D-I0)*%
X81250000Y-111300000D03*
%TO.P,IC3,4*%
%TO.N,GND*%
X83790000Y-111300000D03*
%TO.P,IC3,5*%
X86330000Y-111300000D03*
%TO.P,IC3,6*%
%TO.N,unconnected-(IC3B-O-Pad6)*%
X88870000Y-111300000D03*
%TO.P,IC3,7*%
%TO.N,GND*%
X91410000Y-111300000D03*
%TO.P,IC3,8*%
%TO.N,unconnected-(IC3C-O-Pad8)*%
X91410000Y-103680000D03*
%TO.P,IC3,9*%
%TO.N,GND*%
X88870000Y-103680000D03*
%TO.P,IC3,10*%
X86330000Y-103680000D03*
%TO.P,IC3,11*%
%TO.N,unconnected-(IC3D-O-Pad11)*%
X83790000Y-103680000D03*
%TO.P,IC3,12*%
%TO.N,GND*%
X81250000Y-103680000D03*
%TO.P,IC3,13*%
X78710000Y-103680000D03*
%TO.P,IC3,14*%
%TO.N,VCC*%
X76170000Y-103680000D03*
%TD*%
D13*
%TO.P,C12,1*%
%TO.N,VCC*%
X71090000Y-80820000D03*
%TO.P,C12,2*%
%TO.N,GND*%
X71090000Y-78280000D03*
%TD*%
D21*
%TO.P,R2,1*%
%TO.N,Net-(PWR0-PadA)*%
X162530000Y-121460000D03*
%TO.P,R2,2*%
%TO.N,VCC*%
X172690000Y-121460000D03*
%TD*%
D16*
%TO.P,IC1,1*%
%TO.N,BADDR14*%
X109190000Y-50340000D03*
%TO.P,IC1,2*%
%TO.N,BADDR12*%
X111730000Y-50340000D03*
%TO.P,IC1,3*%
%TO.N,BADDR7*%
X114270000Y-50340000D03*
%TO.P,IC1,4*%
%TO.N,BADDR6*%
X116810000Y-50340000D03*
%TO.P,IC1,5*%
%TO.N,BADDR5*%
X119350000Y-50340000D03*
%TO.P,IC1,6*%
%TO.N,BADDR4*%
X121890000Y-50340000D03*
%TO.P,IC1,7*%
%TO.N,BADDR3*%
X124430000Y-50340000D03*
%TO.P,IC1,8*%
%TO.N,BADDR2*%
X126970000Y-50340000D03*
%TO.P,IC1,9*%
%TO.N,BADDR1*%
X129510000Y-50340000D03*
%TO.P,IC1,10*%
%TO.N,BADDR0*%
X132050000Y-50340000D03*
%TO.P,IC1,11*%
%TO.N,BDATA0*%
X134590000Y-50340000D03*
%TO.P,IC1,12*%
%TO.N,BDATA1*%
X137130000Y-50340000D03*
%TO.P,IC1,13*%
%TO.N,BDATA2*%
X139670000Y-50340000D03*
%TO.P,IC1,14*%
%TO.N,GND*%
X142210000Y-50340000D03*
%TO.P,IC1,15*%
%TO.N,BDATA3*%
X142210000Y-35100000D03*
%TO.P,IC1,16*%
%TO.N,BDATA4*%
X139670000Y-35100000D03*
%TO.P,IC1,17*%
%TO.N,BDATA5*%
X137130000Y-35100000D03*
%TO.P,IC1,18*%
%TO.N,BDATA6*%
X134590000Y-35100000D03*
%TO.P,IC1,19*%
%TO.N,BDATA7*%
X132050000Y-35100000D03*
%TO.P,IC1,20*%
%TO.N,-LO-RAM*%
X129510000Y-35100000D03*
%TO.P,IC1,21*%
%TO.N,BADDR10*%
X126970000Y-35100000D03*
%TO.P,IC1,22*%
%TO.N,Net-(IC1-~{OE})*%
X124430000Y-35100000D03*
%TO.P,IC1,23*%
%TO.N,BADDR11*%
X121890000Y-35100000D03*
%TO.P,IC1,24*%
%TO.N,BADDR9*%
X119350000Y-35100000D03*
%TO.P,IC1,25*%
%TO.N,BADDR8*%
X116810000Y-35100000D03*
%TO.P,IC1,26*%
%TO.N,BADDR13*%
X114270000Y-35100000D03*
%TO.P,IC1,27*%
%TO.N,Net-(IC1-~{WE})*%
X111730000Y-35100000D03*
%TO.P,IC1,28*%
%TO.N,VCC*%
X109190000Y-35100000D03*
%TD*%
D22*
%TO.P,PWR0,A*%
%TO.N,Net-(PWR0-PadA)*%
X193010000Y-120190000D03*
%TO.P,PWR0,K*%
%TO.N,GND*%
X190470000Y-120190000D03*
%TD*%
D13*
%TO.P,C13,1*%
%TO.N,VCC*%
X71090000Y-24940000D03*
%TO.P,C13,2*%
%TO.N,GND*%
X71090000Y-22400000D03*
%TD*%
%TO.P,C24,1*%
%TO.N,GND*%
X125700000Y-19860000D03*
%TO.P,C24,2*%
%TO.N,VCC*%
X125700000Y-17320000D03*
%TD*%
D23*
%TO.P,X1,*%
%TO.N,*%
X20287000Y-111301400D03*
X20287000Y-22388600D03*
D24*
%TO.P,X1,A1*%
%TO.N,GND*%
X22827000Y-106215000D03*
%TO.P,X1,A2*%
%TO.N,VCC*%
X22827000Y-103675000D03*
%TO.P,X1,A3*%
%TO.N,ADDR0*%
X22827000Y-101135000D03*
%TO.P,X1,A4*%
%TO.N,ADDR1*%
X22827000Y-98595000D03*
%TO.P,X1,A5*%
%TO.N,ADDR2*%
X22827000Y-96055000D03*
%TO.P,X1,A6*%
%TO.N,ADDR3*%
X22827000Y-93515000D03*
%TO.P,X1,A7*%
%TO.N,ADDR4*%
X22827000Y-90975000D03*
%TO.P,X1,A8*%
%TO.N,ADDR5*%
X22827000Y-88435000D03*
%TO.P,X1,A9*%
%TO.N,ADDR6*%
X22827000Y-85895000D03*
%TO.P,X1,A10*%
%TO.N,ADDR7*%
X22827000Y-83355000D03*
%TO.P,X1,A11*%
%TO.N,ADDR8*%
X22827000Y-80815000D03*
%TO.P,X1,A12*%
%TO.N,ADDR9*%
X22827000Y-78275000D03*
%TO.P,X1,A13*%
%TO.N,ADDR10*%
X22827000Y-75735000D03*
%TO.P,X1,A14*%
%TO.N,ADDR11*%
X22827000Y-73195000D03*
%TO.P,X1,A15*%
%TO.N,ADDR12*%
X22827000Y-70655000D03*
%TO.P,X1,A16*%
%TO.N,ADDR13*%
X22827000Y-68115000D03*
%TO.P,X1,A17*%
%TO.N,ADDR14*%
X22827000Y-65575000D03*
%TO.P,X1,A18*%
%TO.N,ADDR15*%
X22827000Y-63035000D03*
%TO.P,X1,A19*%
%TO.N,DATA0*%
X22827000Y-60495000D03*
%TO.P,X1,A20*%
%TO.N,DATA1*%
X22827000Y-57955000D03*
%TO.P,X1,A21*%
%TO.N,DATA2*%
X22827000Y-55415000D03*
%TO.P,X1,A22*%
%TO.N,DATA3*%
X22827000Y-52875000D03*
%TO.P,X1,A23*%
%TO.N,DATA4*%
X22827000Y-50335000D03*
%TO.P,X1,A24*%
%TO.N,DATA5*%
X22827000Y-47795000D03*
%TO.P,X1,A25*%
%TO.N,DATA6*%
X22827000Y-45255000D03*
%TO.P,X1,A26*%
%TO.N,DATA7*%
X22827000Y-42715000D03*
%TO.P,X1,A27*%
%TO.N,DATA8*%
X22827000Y-40175000D03*
%TO.P,X1,A28*%
%TO.N,DATA9*%
X22827000Y-37635000D03*
%TO.P,X1,A29*%
%TO.N,DATA10*%
X22827000Y-35095000D03*
%TO.P,X1,A30*%
%TO.N,DATA11*%
X22827000Y-32555000D03*
%TO.P,X1,A31*%
%TO.N,VCC*%
X22827000Y-30015000D03*
%TO.P,X1,A32*%
%TO.N,GND*%
X22827000Y-27475000D03*
%TO.P,X1,B1*%
X25367000Y-106215000D03*
%TO.P,X1,B2*%
%TO.N,VCC*%
X25367000Y-103675000D03*
%TO.P,X1,B3*%
%TO.N,DATA12*%
X25367000Y-101135000D03*
%TO.P,X1,B4*%
%TO.N,DATA13*%
X25367000Y-98595000D03*
%TO.P,X1,B5*%
%TO.N,DATA14*%
X25367000Y-96055000D03*
%TO.P,X1,B6*%
%TO.N,DATA15*%
X25367000Y-93515000D03*
%TO.P,X1,B7*%
%TO.N,/Sheet 1/-REG-FUNC-RD*%
X25367000Y-90975000D03*
%TO.P,X1,B8*%
%TO.N,/Sheet 1/-REG-FUNC-LD*%
X25367000Y-88435000D03*
%TO.P,X1,B9*%
%TO.N,/Sheet 1/REG-RD-ID0*%
X25367000Y-85895000D03*
%TO.P,X1,B10*%
%TO.N,/Sheet 1/REG-RD-ID1*%
X25367000Y-83355000D03*
%TO.P,X1,B11*%
%TO.N,/Sheet 1/REG-RD-ID2*%
X25367000Y-80815000D03*
%TO.P,X1,B12*%
%TO.N,/Sheet 1/REG-RD-ID3*%
X25367000Y-78275000D03*
%TO.P,X1,B13*%
%TO.N,/Sheet 1/REG-LD-ID0*%
X25367000Y-75735000D03*
%TO.P,X1,B14*%
%TO.N,/Sheet 1/REG-LD-ID1*%
X25367000Y-73195000D03*
%TO.P,X1,B15*%
%TO.N,/Sheet 1/REG-LD-ID2*%
X25367000Y-70655000D03*
%TO.P,X1,B16*%
%TO.N,/Sheet 1/REG-LD-ID3*%
X25367000Y-68115000D03*
%TO.P,X1,B17*%
%TO.N,/Sheet 1/-REG-RD-LO*%
X25367000Y-65575000D03*
%TO.P,X1,B18*%
%TO.N,/Sheet 1/-REG-LD-LO*%
X25367000Y-63035000D03*
%TO.P,X1,B19*%
%TO.N,/Sheet 1/-REG-RD-HI*%
X25367000Y-60495000D03*
%TO.P,X1,B20*%
%TO.N,/Sheet 1/-REG-LD-HI*%
X25367000Y-57955000D03*
%TO.P,X1,B21*%
%TO.N,/Sheet 1/-REG-DN*%
X25367000Y-55415000D03*
%TO.P,X1,B22*%
%TO.N,/Sheet 1/-REG-UP*%
X25367000Y-52875000D03*
%TO.P,X1,B23*%
%TO.N,-MEM-RD*%
X25367000Y-50335000D03*
%TO.P,X1,B24*%
%TO.N,-MEM-WR*%
X25367000Y-47795000D03*
%TO.P,X1,B25*%
%TO.N,-IO-RD*%
X25367000Y-45255000D03*
%TO.P,X1,B26*%
%TO.N,-IO-WR*%
X25367000Y-42715000D03*
%TO.P,X1,B27*%
%TO.N,-TMP-REG-RD0*%
X25367000Y-40175000D03*
%TO.P,X1,B28*%
%TO.N,-TMP-REG-LD0*%
X25367000Y-37635000D03*
%TO.P,X1,B29*%
%TO.N,-TMP-REG-RD1*%
X25367000Y-35095000D03*
%TO.P,X1,B30*%
%TO.N,-TMP-REG-LD1*%
X25367000Y-32555000D03*
%TO.P,X1,B31*%
%TO.N,VCC*%
X25367000Y-30015000D03*
%TO.P,X1,B32*%
%TO.N,GND*%
X25367000Y-27475000D03*
%TO.P,X1,C1*%
X27907000Y-106215000D03*
%TO.P,X1,C2*%
%TO.N,VCC*%
X27907000Y-103675000D03*
%TO.P,X1,C3*%
%TO.N,/Sheet 1/-ADDR-REG-ID0*%
X27907000Y-101135000D03*
%TO.P,X1,C4*%
%TO.N,/Sheet 1/-ADDR-REG-ID1*%
X27907000Y-98595000D03*
%TO.P,X1,C5*%
%TO.N,/Sheet 1/-ADDR-REG-ID2*%
X27907000Y-96055000D03*
%TO.P,X1,C6*%
%TO.N,/Sheet 1/-ADDR-REG-ID3*%
X27907000Y-93515000D03*
%TO.P,X1,C7*%
%TO.N,IO-ADDR0*%
X27907000Y-90975000D03*
%TO.P,X1,C8*%
%TO.N,IO-ADDR1*%
X27907000Y-88435000D03*
%TO.P,X1,C9*%
%TO.N,IO-ADDR2*%
X27907000Y-85895000D03*
%TO.P,X1,C10*%
%TO.N,IO-ADDR3*%
X27907000Y-83355000D03*
%TO.P,X1,C11*%
%TO.N,/Sheet 1/-IO-ADDR-LD*%
X27907000Y-80815000D03*
%TO.P,X1,C12*%
%TO.N,-VMA*%
X27907000Y-78275000D03*
%TO.P,X1,C13*%
%TO.N,/Sheet 1/-INT*%
X27907000Y-75735000D03*
%TO.P,X1,C14*%
%TO.N,/Sheet 1/-INTA*%
X27907000Y-73195000D03*
%TO.P,X1,C15*%
%TO.N,/Sheet 1/-ALU-FUNC*%
X27907000Y-70655000D03*
%TO.P,X1,C16*%
%TO.N,/Sheet 1/ALU0*%
X27907000Y-68115000D03*
%TO.P,X1,C17*%
%TO.N,/Sheet 1/ALU1*%
X27907000Y-65575000D03*
%TO.P,X1,C18*%
%TO.N,/Sheet 1/ALU2*%
X27907000Y-63035000D03*
%TO.P,X1,C19*%
%TO.N,/Sheet 1/ALU3*%
X27907000Y-60495000D03*
%TO.P,X1,C20*%
%TO.N,/Sheet 1/-AC-LD-INV*%
X27907000Y-57955000D03*
%TO.P,X1,C21*%
%TO.N,/Sheet 1/-AC-RD*%
X27907000Y-55415000D03*
%TO.P,X1,C22*%
%TO.N,/Sheet 1/-AC-LD*%
X27907000Y-52875000D03*
%TO.P,X1,C23*%
%TO.N,/Sheet 1/-SR-LD*%
X27907000Y-50335000D03*
%TO.P,X1,C24*%
%TO.N,/Sheet 1/BR-COND*%
X27907000Y-47795000D03*
%TO.P,X1,C25*%
%TO.N,/Sheet 1/-HL-SWAP*%
X27907000Y-45255000D03*
%TO.P,X1,C26*%
%TO.N,/Sheet 1/-IN*%
X27907000Y-42715000D03*
%TO.P,X1,C27*%
%TO.N,/Sheet 1/-OUT*%
X27907000Y-40175000D03*
%TO.P,X1,C28*%
%TO.N,-BUS-EN*%
X27907000Y-37635000D03*
%TO.P,X1,C29*%
%TO.N,/Sheet 1/-RUN*%
X27907000Y-35095000D03*
%TO.P,X1,C30*%
%TO.N,-RESET*%
X27907000Y-32555000D03*
%TO.P,X1,C31*%
%TO.N,VCC*%
X27907000Y-30015000D03*
%TO.P,X1,C32*%
%TO.N,GND*%
X27907000Y-27475000D03*
%TD*%
D16*
%TO.P,IC8,1*%
%TO.N,GND*%
X40610000Y-97330000D03*
%TO.P,IC8,2*%
%TO.N,ADDR0*%
X43150000Y-97330000D03*
%TO.P,IC8,3*%
%TO.N,BADDR7*%
X45690000Y-97330000D03*
%TO.P,IC8,4*%
%TO.N,ADDR1*%
X48230000Y-97330000D03*
%TO.P,IC8,5*%
%TO.N,BADDR6*%
X50770000Y-97330000D03*
%TO.P,IC8,6*%
%TO.N,ADDR2*%
X53310000Y-97330000D03*
%TO.P,IC8,7*%
%TO.N,BADDR5*%
X55850000Y-97330000D03*
%TO.P,IC8,8*%
%TO.N,ADDR3*%
X58390000Y-97330000D03*
%TO.P,IC8,9*%
%TO.N,BADDR4*%
X60930000Y-97330000D03*
%TO.P,IC8,10*%
%TO.N,GND*%
X63470000Y-97330000D03*
%TO.P,IC8,11*%
%TO.N,ADDR4*%
X63470000Y-89710000D03*
%TO.P,IC8,12*%
%TO.N,BADDR3*%
X60930000Y-89710000D03*
%TO.P,IC8,13*%
%TO.N,ADDR5*%
X58390000Y-89710000D03*
%TO.P,IC8,14*%
%TO.N,BADDR2*%
X55850000Y-89710000D03*
%TO.P,IC8,15*%
%TO.N,ADDR6*%
X53310000Y-89710000D03*
%TO.P,IC8,16*%
%TO.N,BADDR1*%
X50770000Y-89710000D03*
%TO.P,IC8,17*%
%TO.N,ADDR7*%
X48230000Y-89710000D03*
%TO.P,IC8,18*%
%TO.N,BADDR0*%
X45690000Y-89710000D03*
%TO.P,IC8,19*%
%TO.N,GND*%
X43150000Y-89710000D03*
%TO.P,IC8,20*%
%TO.N,VCC*%
X40610000Y-89710000D03*
%TD*%
D25*
%TO.P,LED1,1*%
%TO.N,/Sheet 7/ACTK*%
X184120000Y-120190000D03*
D26*
%TO.P,LED1,2*%
%TO.N,/Sheet 7/LEDA2*%
X181580000Y-120190000D03*
%TD*%
D19*
%TO.P,JP2,1*%
%TO.N,VCC*%
X191740000Y-13510000D03*
D15*
%TO.P,JP2,2*%
%TO.N,/Sheet 7/PIN20*%
X191740000Y-16050000D03*
%TD*%
D13*
%TO.P,C14,1*%
%TO.N,VCC*%
X35530000Y-52880000D03*
%TO.P,C14,2*%
%TO.N,GND*%
X35530000Y-50340000D03*
%TD*%
D11*
%TO.P,R11,1*%
%TO.N,VCC*%
X180310000Y-98600000D03*
%TO.P,R11,2*%
%TO.N,/Sheet 7/-PDIAG*%
X180310000Y-88440000D03*
%TD*%
D27*
%TO.P,JP1,1*%
%TO.N,-BUS-EN*%
X22830000Y-14780000D03*
%TO.P,JP1,2*%
%TO.N,Net-(IC7-G2B)*%
X25370000Y-14780000D03*
%TO.P,JP1,3*%
%TO.N,GND*%
X27910000Y-14780000D03*
%TD*%
D16*
%TO.P,IC13,1*%
%TO.N,unconnected-(IC13-NC-Pad1)*%
X109190000Y-93520000D03*
%TO.P,IC13,2*%
%TO.N,BADDR12*%
X111730000Y-93520000D03*
%TO.P,IC13,3*%
%TO.N,BADDR7*%
X114270000Y-93520000D03*
%TO.P,IC13,4*%
%TO.N,BADDR6*%
X116810000Y-93520000D03*
%TO.P,IC13,5*%
%TO.N,BADDR5*%
X119350000Y-93520000D03*
%TO.P,IC13,6*%
%TO.N,BADDR4*%
X121890000Y-93520000D03*
%TO.P,IC13,7*%
%TO.N,BADDR3*%
X124430000Y-93520000D03*
%TO.P,IC13,8*%
%TO.N,BADDR2*%
X126970000Y-93520000D03*
%TO.P,IC13,9*%
%TO.N,BADDR1*%
X129510000Y-93520000D03*
%TO.P,IC13,10*%
%TO.N,BADDR0*%
X132050000Y-93520000D03*
%TO.P,IC13,11*%
%TO.N,BDATA0*%
X134590000Y-93520000D03*
%TO.P,IC13,12*%
%TO.N,BDATA1*%
X137130000Y-93520000D03*
%TO.P,IC13,13*%
%TO.N,BDATA2*%
X139670000Y-93520000D03*
%TO.P,IC13,14*%
%TO.N,GND*%
X142210000Y-93520000D03*
%TO.P,IC13,15*%
%TO.N,BDATA3*%
X142210000Y-78280000D03*
%TO.P,IC13,16*%
%TO.N,BDATA4*%
X139670000Y-78280000D03*
%TO.P,IC13,17*%
%TO.N,BDATA5*%
X137130000Y-78280000D03*
%TO.P,IC13,18*%
%TO.N,BDATA6*%
X134590000Y-78280000D03*
%TO.P,IC13,19*%
%TO.N,BDATA7*%
X132050000Y-78280000D03*
%TO.P,IC13,20*%
%TO.N,-ROM-CS*%
X129510000Y-78280000D03*
%TO.P,IC13,21*%
%TO.N,BADDR10*%
X126970000Y-78280000D03*
%TO.P,IC13,22*%
%TO.N,Net-(IC1-~{OE})*%
X124430000Y-78280000D03*
%TO.P,IC13,23*%
%TO.N,BADDR11*%
X121890000Y-78280000D03*
%TO.P,IC13,24*%
%TO.N,BADDR9*%
X119350000Y-78280000D03*
%TO.P,IC13,25*%
%TO.N,BADDR8*%
X116810000Y-78280000D03*
%TO.P,IC13,26*%
%TO.N,unconnected-(IC13-NC@1-Pad26)*%
X114270000Y-78280000D03*
%TO.P,IC13,27*%
%TO.N,Net-(IC1-~{WE})*%
X111730000Y-78280000D03*
%TO.P,IC13,28*%
%TO.N,VCC*%
X109190000Y-78280000D03*
%TD*%
D10*
%TO.P,IC34,1*%
%TO.N,/Sheet 7/-IOR*%
X153640000Y-63040000D03*
D11*
%TO.P,IC34,2*%
%TO.N,DATA0*%
X156180000Y-63040000D03*
%TO.P,IC34,3*%
%TO.N,DATA1*%
X158720000Y-63040000D03*
%TO.P,IC34,4*%
%TO.N,DATA2*%
X161260000Y-63040000D03*
%TO.P,IC34,5*%
%TO.N,DATA3*%
X163800000Y-63040000D03*
%TO.P,IC34,6*%
%TO.N,DATA4*%
X166340000Y-63040000D03*
%TO.P,IC34,7*%
%TO.N,DATA5*%
X168880000Y-63040000D03*
%TO.P,IC34,8*%
%TO.N,DATA6*%
X171420000Y-63040000D03*
%TO.P,IC34,9*%
%TO.N,DATA7*%
X173960000Y-63040000D03*
%TO.P,IC34,10*%
%TO.N,GND*%
X176500000Y-63040000D03*
%TO.P,IC34,11*%
%TO.N,/Sheet 7/CFD7*%
X176500000Y-55420000D03*
%TO.P,IC34,12*%
%TO.N,/Sheet 7/CFD6*%
X173960000Y-55420000D03*
%TO.P,IC34,13*%
%TO.N,/Sheet 7/CFD5*%
X171420000Y-55420000D03*
%TO.P,IC34,14*%
%TO.N,/Sheet 7/CFD4*%
X168880000Y-55420000D03*
%TO.P,IC34,15*%
%TO.N,/Sheet 7/CFD3*%
X166340000Y-55420000D03*
%TO.P,IC34,16*%
%TO.N,/Sheet 7/CFD2*%
X163800000Y-55420000D03*
%TO.P,IC34,17*%
%TO.N,/Sheet 7/CFD1*%
X161260000Y-55420000D03*
%TO.P,IC34,18*%
%TO.N,/Sheet 7/CFD0*%
X158720000Y-55420000D03*
%TO.P,IC34,19*%
%TO.N,/Sheet 7/-CFOE*%
X156180000Y-55420000D03*
%TO.P,IC34,20*%
%TO.N,VCC*%
X153640000Y-55420000D03*
%TD*%
D17*
%TO.P,C23,1*%
%TO.N,GND*%
X144750000Y-121460000D03*
%TO.P,C23,2*%
%TO.N,VCC*%
X147290000Y-121460000D03*
%TD*%
D13*
%TO.P,C9,1*%
%TO.N,VCC*%
X71090000Y-94790000D03*
%TO.P,C9,2*%
%TO.N,GND*%
X71090000Y-92250000D03*
%TD*%
D10*
%TO.P,IC30,1*%
%TO.N,IO-ADDR0*%
X153640000Y-104950000D03*
D11*
%TO.P,IC30,2*%
%TO.N,IO-ADDR1*%
X156180000Y-104950000D03*
%TO.P,IC30,3*%
%TO.N,IO-ADDR2*%
X158720000Y-104950000D03*
%TO.P,IC30,4*%
%TO.N,GND*%
X161260000Y-104950000D03*
%TO.P,IC30,5*%
X163800000Y-104950000D03*
%TO.P,IC30,6*%
%TO.N,IO-ADDR3*%
X166340000Y-104950000D03*
%TO.P,IC30,7*%
%TO.N,unconnected-(IC30-O7-Pad7)*%
X168880000Y-104950000D03*
%TO.P,IC30,8*%
%TO.N,GND*%
X171420000Y-104950000D03*
%TO.P,IC30,9*%
%TO.N,unconnected-(IC30-O6-Pad9)*%
X171420000Y-97330000D03*
%TO.P,IC30,10*%
%TO.N,unconnected-(IC30-O5-Pad10)*%
X168880000Y-97330000D03*
%TO.P,IC30,11*%
%TO.N,unconnected-(IC30-O4-Pad11)*%
X166340000Y-97330000D03*
%TO.P,IC30,12*%
%TO.N,unconnected-(IC30-O3-Pad12)*%
X163800000Y-97330000D03*
%TO.P,IC30,13*%
%TO.N,unconnected-(IC30-O2-Pad13)*%
X161260000Y-97330000D03*
%TO.P,IC30,14*%
%TO.N,/Sheet 7/-P9SEL*%
X158720000Y-97330000D03*
%TO.P,IC30,15*%
%TO.N,/Sheet 7/-P8SEL*%
X156180000Y-97330000D03*
%TO.P,IC30,16*%
%TO.N,VCC*%
X153640000Y-97330000D03*
%TD*%
%TO.P,R14,1*%
%TO.N,VCC*%
X162530000Y-116380000D03*
%TO.P,R14,2*%
%TO.N,/Sheet 7/LEDA2*%
X172690000Y-116380000D03*
%TD*%
D16*
%TO.P,RN6,1*%
%TO.N,GND*%
X40610000Y-110030000D03*
%TO.P,RN6,2*%
%TO.N,DATA8*%
X43150000Y-110030000D03*
%TO.P,RN6,3*%
%TO.N,DATA9*%
X45690000Y-110030000D03*
%TO.P,RN6,4*%
%TO.N,DATA10*%
X48230000Y-110030000D03*
%TO.P,RN6,5*%
%TO.N,DATA11*%
X50770000Y-110030000D03*
%TO.P,RN6,6*%
%TO.N,DATA12*%
X53310000Y-110030000D03*
%TO.P,RN6,7*%
%TO.N,DATA13*%
X55850000Y-110030000D03*
%TO.P,RN6,8*%
%TO.N,DATA14*%
X58390000Y-110030000D03*
%TO.P,RN6,9*%
%TO.N,DATA15*%
X60930000Y-110030000D03*
%TD*%
%TO.P,IC15,1*%
%TO.N,-LO-RAM*%
X109190000Y-107490000D03*
%TO.P,IC15,2*%
%TO.N,-HI-RAM*%
X111730000Y-107490000D03*
%TO.P,IC15,3*%
%TO.N,GND*%
X114270000Y-107490000D03*
%TO.P,IC15,4*%
X116810000Y-107490000D03*
%TO.P,IC15,5*%
X119350000Y-107490000D03*
%TO.P,IC15,6*%
%TO.N,unconnected-(IC15B-O-Pad6)*%
X121890000Y-107490000D03*
%TO.P,IC15,7*%
%TO.N,GND*%
X124430000Y-107490000D03*
%TO.P,IC15,8*%
%TO.N,unconnected-(IC15C-O-Pad8)*%
X124430000Y-99870000D03*
%TO.P,IC15,9*%
%TO.N,GND*%
X121890000Y-99870000D03*
%TO.P,IC15,10*%
X119350000Y-99870000D03*
%TO.P,IC15,11*%
X116810000Y-99870000D03*
%TO.P,IC15,12*%
%TO.N,Net-(IC15A-O)*%
X114270000Y-99870000D03*
%TO.P,IC15,13*%
%TO.N,-ROM-CS*%
X111730000Y-99870000D03*
%TO.P,IC15,14*%
%TO.N,VCC*%
X109190000Y-99870000D03*
%TD*%
%TO.P,IC4,1*%
%TO.N,/Sheet 2/RAM0*%
X153640000Y-35100000D03*
%TO.P,IC4,2*%
%TO.N,/Sheet 2/RAM1*%
X156180000Y-35100000D03*
%TO.P,IC4,3*%
%TO.N,/Sheet 2/RAM2*%
X158720000Y-35100000D03*
%TO.P,IC4,4*%
%TO.N,/Sheet 2/RAM3*%
X161260000Y-35100000D03*
%TO.P,IC4,5*%
%TO.N,/Sheet 2/RAM4*%
X163800000Y-35100000D03*
%TO.P,IC4,6*%
%TO.N,/Sheet 2/RAM5*%
X166340000Y-35100000D03*
%TO.P,IC4,7*%
%TO.N,GND*%
X168880000Y-35100000D03*
%TO.P,IC4,8*%
%TO.N,Net-(IC4-O)*%
X168880000Y-27480000D03*
%TO.P,IC4,9*%
%TO.N,N/C*%
X166340000Y-27480000D03*
%TO.P,IC4,10*%
X163800000Y-27480000D03*
%TO.P,IC4,11*%
%TO.N,/Sheet 2/RAM6*%
X161260000Y-27480000D03*
%TO.P,IC4,12*%
%TO.N,/Sheet 2/RAM7*%
X158720000Y-27480000D03*
%TO.P,IC4,13*%
%TO.N,N/C*%
X156180000Y-27480000D03*
%TO.P,IC4,14*%
%TO.N,VCC*%
X153640000Y-27480000D03*
%TD*%
%TO.P,IC2,1*%
%TO.N,BADDR14*%
X109190000Y-71930000D03*
%TO.P,IC2,2*%
%TO.N,BADDR12*%
X111730000Y-71930000D03*
%TO.P,IC2,3*%
%TO.N,BADDR7*%
X114270000Y-71930000D03*
%TO.P,IC2,4*%
%TO.N,BADDR6*%
X116810000Y-71930000D03*
%TO.P,IC2,5*%
%TO.N,BADDR5*%
X119350000Y-71930000D03*
%TO.P,IC2,6*%
%TO.N,BADDR4*%
X121890000Y-71930000D03*
%TO.P,IC2,7*%
%TO.N,BADDR3*%
X124430000Y-71930000D03*
%TO.P,IC2,8*%
%TO.N,BADDR2*%
X126970000Y-71930000D03*
%TO.P,IC2,9*%
%TO.N,BADDR1*%
X129510000Y-71930000D03*
%TO.P,IC2,10*%
%TO.N,BADDR0*%
X132050000Y-71930000D03*
%TO.P,IC2,11*%
%TO.N,BDATA0*%
X134590000Y-71930000D03*
%TO.P,IC2,12*%
%TO.N,BDATA1*%
X137130000Y-71930000D03*
%TO.P,IC2,13*%
%TO.N,BDATA2*%
X139670000Y-71930000D03*
%TO.P,IC2,14*%
%TO.N,GND*%
X142210000Y-71930000D03*
%TO.P,IC2,15*%
%TO.N,BDATA3*%
X142210000Y-56690000D03*
%TO.P,IC2,16*%
%TO.N,BDATA4*%
X139670000Y-56690000D03*
%TO.P,IC2,17*%
%TO.N,BDATA5*%
X137130000Y-56690000D03*
%TO.P,IC2,18*%
%TO.N,BDATA6*%
X134590000Y-56690000D03*
%TO.P,IC2,19*%
%TO.N,BDATA7*%
X132050000Y-56690000D03*
%TO.P,IC2,20*%
%TO.N,-HI-RAM*%
X129510000Y-56690000D03*
%TO.P,IC2,21*%
%TO.N,BADDR10*%
X126970000Y-56690000D03*
%TO.P,IC2,22*%
%TO.N,Net-(IC1-~{OE})*%
X124430000Y-56690000D03*
%TO.P,IC2,23*%
%TO.N,BADDR11*%
X121890000Y-56690000D03*
%TO.P,IC2,24*%
%TO.N,BADDR9*%
X119350000Y-56690000D03*
%TO.P,IC2,25*%
%TO.N,BADDR8*%
X116810000Y-56690000D03*
%TO.P,IC2,26*%
%TO.N,BADDR13*%
X114270000Y-56690000D03*
%TO.P,IC2,27*%
%TO.N,Net-(IC1-~{WE})*%
X111730000Y-56690000D03*
%TO.P,IC2,28*%
%TO.N,VCC*%
X109190000Y-56690000D03*
%TD*%
D28*
%TO.N,-RESET*%
X72261100Y-84905900D03*
X146585500Y-85900000D03*
X64923400Y-30957800D03*
%TO.N,DATA0*%
X153322900Y-60727600D03*
%TO.N,DATA1*%
X85799200Y-59969200D03*
%TO.N,DATA2*%
X51000600Y-71304700D03*
%TO.N,DATA3*%
X57162000Y-52447300D03*
X54086400Y-71743900D03*
%TO.N,/Sheet 2/ROM2*%
X108737100Y-22534800D03*
%TO.N,/Sheet 2/SEL1*%
X104222800Y-14683100D03*
%TO.N,/Sheet 2/SEL2*%
X106762800Y-14683100D03*
%TO.N,/Sheet 2/SEL4*%
X144753100Y-18392900D03*
%TO.N,/Sheet 2/RAM7*%
X122174400Y-26324400D03*
%TO.N,DATA12*%
X65720200Y-37005900D03*
%TO.N,DATA14*%
X64923400Y-39619800D03*
%TO.N,BADDR12*%
X149976600Y-35876700D03*
%TO.N,BADDR14*%
X147171900Y-35903800D03*
%TO.N,Net-(IC7-G2B)*%
X162945700Y-16362700D03*
%TO.N,Net-(IC11-4A)*%
X79779000Y-81438700D03*
%TO.N,Net-(IC11-3A)*%
X82078000Y-66410900D03*
X78897500Y-80507400D03*
%TO.N,Net-(IC11-2A)*%
X85480100Y-80054200D03*
X55933000Y-79847300D03*
%TO.N,Net-(IC11-1A)*%
X77886900Y-80108500D03*
%TO.N,ADDR15*%
X31927900Y-69787800D03*
X75253100Y-77487900D03*
%TO.N,-TMP-REG-LD1*%
X31785600Y-27342300D03*
%TO.N,-IO-WR*%
X35075600Y-58343400D03*
%TO.N,-IO-RD*%
X38258300Y-61451900D03*
%TO.N,-HI-RAM*%
X105125600Y-54140800D03*
%TO.N,DATA4*%
X55580100Y-57741100D03*
X32392300Y-57489800D03*
X87538600Y-59588300D03*
%TO.N,DATA5*%
X54646500Y-102357000D03*
%TO.N,DATA6*%
X34854600Y-47852800D03*
X51486700Y-101837500D03*
%TO.N,DATA7*%
X65548800Y-45247700D03*
%TO.N,BADDR3*%
X62832800Y-100690700D03*
%TO.N,ADDR0*%
X33612600Y-96861400D03*
%TO.N,ADDR1*%
X36476400Y-98955600D03*
%TO.N,ADDR2*%
X33330200Y-95843300D03*
%TO.N,ADDR3*%
X30989200Y-93525900D03*
%TO.N,ADDR6*%
X29315100Y-87145600D03*
%TD*%
%TO.N,-RESET*%
D29*
X164249600Y-40295200D02*
X163289900Y-40295200D01*
X164950600Y-45379400D02*
X164950600Y-40996200D01*
X156046600Y-44675800D02*
X146585500Y-54136900D01*
X159631600Y-44675800D02*
X156046600Y-44675800D01*
X68394400Y-81039200D02*
X72261100Y-84905900D01*
X161260000Y-49070000D02*
X164950600Y-45379400D01*
X163289900Y-40295200D02*
X162635700Y-40949400D01*
X162635700Y-40949400D02*
X162635700Y-41671700D01*
X64923400Y-30957800D02*
X68394400Y-34428800D01*
X146585500Y-54136900D02*
X146585500Y-85900000D01*
X162635700Y-41671700D02*
X159631600Y-44675800D01*
X68394400Y-34428800D02*
X68394400Y-81039200D01*
X164950600Y-40996200D02*
X164249600Y-40295200D01*
%TO.N,DATA0*%
X154991700Y-68229000D02*
X152512300Y-65749600D01*
X46675400Y-56405400D02*
X45690000Y-55420000D01*
X161260000Y-90980000D02*
X154991700Y-84711700D01*
X44120100Y-103979900D02*
X43150000Y-104950000D01*
X152512300Y-61538200D02*
X153322900Y-60727600D01*
X43150000Y-69390000D02*
X44120100Y-70360100D01*
X152512300Y-65749600D02*
X152512300Y-61538200D01*
X44120100Y-70360100D02*
X44120100Y-103979900D01*
X46675400Y-68404600D02*
X46675400Y-56405400D01*
X45690000Y-69390000D02*
X46675400Y-68404600D01*
X154991700Y-84711700D02*
X154991700Y-68229000D01*
%TO.N,DATA1*%
X48230000Y-69390000D02*
X44727000Y-72893000D01*
X159896700Y-87076700D02*
X159896700Y-64216700D01*
X81250000Y-55420000D02*
X85799200Y-59969200D01*
X163800000Y-90980000D02*
X159896700Y-87076700D01*
X47277500Y-68437500D02*
X47277500Y-56372500D01*
X44727000Y-72893000D02*
X44727000Y-103987000D01*
X47277500Y-56372500D02*
X48230000Y-55420000D01*
X159896700Y-64216700D02*
X158720000Y-63040000D01*
X48230000Y-69390000D02*
X47277500Y-68437500D01*
X44727000Y-103987000D02*
X45690000Y-104950000D01*
%TO.N,DATA2*%
X162397800Y-61902200D02*
X164296900Y-61902200D01*
X164973400Y-82186600D02*
X163800000Y-83360000D01*
X48230000Y-104950000D02*
X48230000Y-99694200D01*
X49659300Y-98264900D02*
X49659300Y-72646000D01*
X49659300Y-72646000D02*
X51000600Y-71304700D01*
X164296900Y-61902200D02*
X164973400Y-62578700D01*
X164973400Y-62578700D02*
X164973400Y-82186600D01*
X53310000Y-55420000D02*
X54249800Y-56359800D01*
X54249800Y-56359800D02*
X54249800Y-68450200D01*
X48230000Y-99694200D02*
X49659300Y-98264900D01*
X161260000Y-63040000D02*
X162397800Y-61902200D01*
X54249800Y-68450200D02*
X53310000Y-69390000D01*
%TO.N,DATA3*%
X60930000Y-55420000D02*
X61925100Y-56415100D01*
X162530000Y-82090000D02*
X161260000Y-83360000D01*
X61925100Y-56415100D02*
X61925100Y-68394900D01*
X51586600Y-103404100D02*
X54250500Y-100740200D01*
X54250500Y-71908000D02*
X54086400Y-71743900D01*
X162530000Y-64310000D02*
X162530000Y-82090000D01*
X61925100Y-68394900D02*
X60930000Y-69390000D01*
X58390000Y-55420000D02*
X58390000Y-53675300D01*
X163800000Y-63040000D02*
X162530000Y-64310000D01*
X54250500Y-100740200D02*
X54250500Y-71908000D01*
X50770000Y-103404100D02*
X51586600Y-103404100D01*
X50770000Y-104950000D02*
X50770000Y-103404100D01*
X58390000Y-53675300D02*
X57162000Y-52447300D01*
%TO.N,/Sheet 7/-SRST*%
X158720000Y-83360000D02*
X157529400Y-82169400D01*
X163469700Y-49070000D02*
X163800000Y-49070000D01*
X157529400Y-55010300D02*
X163469700Y-49070000D01*
X157529400Y-82169400D02*
X157529400Y-55010300D01*
%TO.N,/Sheet 2/ROM0*%
X100300000Y-13510000D02*
X100300000Y-16050000D01*
X100300000Y-16050000D02*
X102840000Y-18590000D01*
%TO.N,/Sheet 2/ROM1*%
X102840000Y-16050000D02*
X105380000Y-18590000D01*
X102840000Y-13510000D02*
X102840000Y-16050000D01*
%TO.N,/Sheet 2/ROM2*%
X106829900Y-21586700D02*
X106829900Y-20318900D01*
X107920000Y-18590000D02*
X105380000Y-16050000D01*
X107778000Y-22534800D02*
X106829900Y-21586700D01*
X105380000Y-16050000D02*
X105380000Y-13510000D01*
X106829900Y-20318900D02*
X107920000Y-19228800D01*
X107920000Y-19228800D02*
X107920000Y-18590000D01*
X108737100Y-22534800D02*
X107778000Y-22534800D01*
%TO.N,/Sheet 2/ROM3*%
X108151700Y-16281700D02*
X110460000Y-18590000D01*
X108151700Y-13510000D02*
X108151700Y-16281700D01*
X139670000Y-22400000D02*
X135145400Y-17875400D01*
X110613300Y-11048400D02*
X108151700Y-13510000D01*
X108151700Y-13510000D02*
X107920000Y-13510000D01*
X130668000Y-17875400D02*
X123841000Y-11048400D01*
X123841000Y-11048400D02*
X110613300Y-11048400D01*
X135145400Y-17875400D02*
X130668000Y-17875400D01*
%TO.N,/Sheet 2/ROM4*%
X122798800Y-11500100D02*
X112701600Y-11500100D01*
X137130000Y-22400000D02*
X134923700Y-20193700D01*
X110691700Y-13510000D02*
X110691700Y-16281700D01*
X112701600Y-11500100D02*
X110691700Y-13510000D01*
X110691700Y-16281700D02*
X113000000Y-18590000D01*
X134923700Y-20193700D02*
X131492400Y-20193700D01*
X131492400Y-20193700D02*
X122798800Y-11500100D01*
X110691700Y-13510000D02*
X110460000Y-13510000D01*
%TO.N,/Sheet 2/ROM5*%
X134590000Y-22400000D02*
X132835400Y-20645400D01*
X132835400Y-20645400D02*
X131080100Y-20645400D01*
X122386500Y-11951800D02*
X114789900Y-11951800D01*
X131080100Y-20645400D02*
X122386500Y-11951800D01*
X113231700Y-13510000D02*
X113231700Y-16281700D01*
X114789900Y-11951800D02*
X113231700Y-13510000D01*
X113231700Y-16281700D02*
X115540000Y-18590000D01*
X113000000Y-13510000D02*
X113231700Y-13510000D01*
%TO.N,/Sheet 2/ROM6*%
X118080000Y-18590000D02*
X115540000Y-16050000D01*
X118080000Y-18590000D02*
X119350000Y-19860000D01*
X119350000Y-19860000D02*
X121071500Y-19860000D01*
X115540000Y-16050000D02*
X115540000Y-13510000D01*
X121071500Y-19860000D02*
X125160200Y-23948700D01*
X125160200Y-23948700D02*
X130501300Y-23948700D01*
X130501300Y-23948700D02*
X132050000Y-22400000D01*
%TO.N,/Sheet 2/ROM7*%
X120620000Y-18590000D02*
X124430000Y-22400000D01*
X118080000Y-13510000D02*
X118080000Y-16050000D01*
X124430000Y-22400000D02*
X129510000Y-22400000D01*
X118080000Y-16050000D02*
X120620000Y-18590000D01*
%TO.N,/Sheet 2/SEL1*%
X105380000Y-21130000D02*
X105380000Y-20678300D01*
X105380000Y-20678300D02*
X106470200Y-19588100D01*
X104222800Y-15891000D02*
X104222800Y-14683100D01*
X106470200Y-19588100D02*
X106470200Y-18138400D01*
X106470200Y-18138400D02*
X104222800Y-15891000D01*
%TO.N,/Sheet 2/SEL2*%
X109010200Y-20039800D02*
X109010200Y-18138400D01*
X109010200Y-18138400D02*
X106762800Y-15891000D01*
X107920000Y-21130000D02*
X109010200Y-20039800D01*
X106762800Y-15891000D02*
X106762800Y-14683100D01*
%TO.N,/Sheet 2/SEL4*%
X145826300Y-17319700D02*
X144753100Y-18392900D01*
X164794100Y-15055900D02*
X151433700Y-15055900D01*
X151433700Y-15055900D02*
X149169900Y-17319700D01*
X149169900Y-17319700D02*
X145826300Y-17319700D01*
X166340000Y-13510000D02*
X164794100Y-15055900D01*
%TO.N,/Sheet 2/SEL5*%
X144908000Y-24400400D02*
X153700900Y-15607500D01*
X153700900Y-15607500D02*
X166782500Y-15607500D01*
X116650700Y-22240700D02*
X121099200Y-22240700D01*
X166782500Y-15607500D02*
X168880000Y-13510000D01*
X115540000Y-21130000D02*
X116650700Y-22240700D01*
X121099200Y-22240700D02*
X123258900Y-24400400D01*
X123258900Y-24400400D02*
X144908000Y-24400400D01*
%TO.N,/Sheet 2/RAM0*%
X102840000Y-30020000D02*
X102840000Y-23670000D01*
%TO.N,/Sheet 2/RAM1*%
X105380000Y-30020000D02*
X105380000Y-23670000D01*
%TO.N,/Sheet 2/RAM2*%
X107920000Y-30020000D02*
X107920000Y-23670000D01*
%TO.N,/Sheet 2/RAM3*%
X110460000Y-30020000D02*
X110460000Y-23670000D01*
%TO.N,/Sheet 2/RAM4*%
X142364300Y-32668100D02*
X146343700Y-36647500D01*
X162252500Y-36647500D02*
X163800000Y-35100000D01*
X113000000Y-30020000D02*
X115648100Y-32668100D01*
X113000000Y-30020000D02*
X113000000Y-23670000D01*
X115648100Y-32668100D02*
X142364300Y-32668100D01*
X146343700Y-36647500D02*
X162252500Y-36647500D01*
%TO.N,/Sheet 2/RAM5*%
X115540000Y-30020000D02*
X115540000Y-23670000D01*
%TO.N,/Sheet 2/RAM6*%
X118080000Y-30020000D02*
X118080000Y-23670000D01*
%TO.N,/Sheet 2/RAM7*%
X120620000Y-30020000D02*
X120620000Y-26324400D01*
X120620000Y-26324400D02*
X120620000Y-23670000D01*
X120620000Y-26324400D02*
X122174400Y-26324400D01*
%TO.N,/Sheet 7/CFD7*%
X176500000Y-55420000D02*
X180310000Y-51610000D01*
X180310000Y-51610000D02*
X181580000Y-51610000D01*
%TO.N,/Sheet 7/CFD1*%
X177740400Y-63010400D02*
X181580000Y-66850000D01*
X166179200Y-60339200D02*
X175420600Y-60339200D01*
X175420600Y-60339200D02*
X177740400Y-62659000D01*
X161260000Y-55420000D02*
X166179200Y-60339200D01*
X177740400Y-62659000D02*
X177740400Y-63010400D01*
%TO.N,/Sheet 7/CFD0*%
X167610000Y-63415600D02*
X173584400Y-69390000D01*
X167610000Y-62666000D02*
X167610000Y-63415600D01*
X173584400Y-69390000D02*
X181580000Y-69390000D01*
X166519800Y-61575800D02*
X167610000Y-62666000D01*
X158720000Y-55420000D02*
X164875800Y-61575800D01*
X164875800Y-61575800D02*
X166519800Y-61575800D01*
%TO.N,/Sheet 7/PIN20*%
X190549400Y-17240600D02*
X190549400Y-72009400D01*
X191740000Y-16050000D02*
X190549400Y-17240600D01*
X190549400Y-72009400D02*
X191740000Y-73200000D01*
%TO.N,/Sheet 7/-IOR*%
X154830600Y-50260600D02*
X153640000Y-49070000D01*
X154830600Y-61849400D02*
X154830600Y-50260600D01*
X153640000Y-63040000D02*
X154830600Y-61849400D01*
%TO.N,/Sheet 7/-DMACK*%
X187835200Y-94884800D02*
X187835200Y-87264800D01*
X187835200Y-87264800D02*
X189200000Y-85900000D01*
X180310000Y-102410000D02*
X187835200Y-94884800D01*
%TO.N,Net-(IC10C-O)*%
X86629800Y-84929800D02*
X82819800Y-84929800D01*
X82819800Y-84929800D02*
X81250000Y-83360000D01*
X91410000Y-89710000D02*
X86629800Y-84929800D01*
%TO.N,FORCE-ROM*%
X79980000Y-65580000D02*
X79980000Y-61048100D01*
X82308300Y-60885900D02*
X82308300Y-63165300D01*
X80812400Y-60215700D02*
X81638100Y-60215700D01*
X82308300Y-63165300D02*
X84754900Y-65611900D01*
X84724800Y-81754800D02*
X86330000Y-83360000D01*
X84754900Y-77739500D02*
X84724800Y-77769600D01*
X79980000Y-61048100D02*
X80812400Y-60215700D01*
X84754900Y-65611900D02*
X84754900Y-77739500D01*
X84724800Y-77769600D02*
X84724800Y-81754800D01*
X76170000Y-69390000D02*
X79980000Y-65580000D01*
X81638100Y-60215700D02*
X82308300Y-60885900D01*
%TO.N,-TMP-REG-RD0*%
X26105300Y-40175000D02*
X27375200Y-38905100D01*
X30216300Y-37873700D02*
X40610000Y-27480000D01*
X29184900Y-38905100D02*
X30216300Y-37873700D01*
X27375200Y-38905100D02*
X29184900Y-38905100D01*
X25367000Y-40175000D02*
X26105300Y-40175000D01*
X30216300Y-42009700D02*
X30216300Y-37873700D01*
X40610000Y-55420000D02*
X40610000Y-52403400D01*
X40610000Y-52403400D02*
X30216300Y-42009700D01*
%TO.N,DATA8*%
X46925600Y-52181800D02*
X49166300Y-54422500D01*
X44728900Y-28097800D02*
X44728900Y-40488900D01*
X46853500Y-106326500D02*
X43150000Y-110030000D01*
X43767800Y-28097800D02*
X44728900Y-28097800D01*
X43150000Y-27480000D02*
X43767800Y-28097800D01*
X45690000Y-41450000D02*
X46925600Y-42685600D01*
X49166300Y-84468200D02*
X46853500Y-86781000D01*
X45072200Y-28097800D02*
X45690000Y-27480000D01*
X46925600Y-42685600D02*
X46925600Y-52181800D01*
X46853500Y-86781000D02*
X46853500Y-106326500D01*
X44728900Y-28097800D02*
X45072200Y-28097800D01*
X49166300Y-54422500D02*
X49166300Y-84468200D01*
X44728900Y-40488900D02*
X45690000Y-41450000D01*
%TO.N,DATA9*%
X52213400Y-102138500D02*
X51787700Y-102564200D01*
X51893100Y-42573100D02*
X51893100Y-62574900D01*
X51893100Y-62574900D02*
X52213400Y-62895200D01*
X50770000Y-41450000D02*
X51893100Y-42573100D01*
X50770000Y-41450000D02*
X51746600Y-40473400D01*
X52213400Y-62895200D02*
X52213400Y-102138500D01*
X49500000Y-103980500D02*
X49500000Y-106220000D01*
X51746600Y-28456600D02*
X50770000Y-27480000D01*
X51746600Y-40473400D02*
X51746600Y-28456600D01*
X49500000Y-106220000D02*
X45690000Y-110030000D01*
X51787700Y-102564200D02*
X50916300Y-102564200D01*
X50916300Y-102564200D02*
X49500000Y-103980500D01*
%TO.N,DATA10*%
X54831800Y-42995900D02*
X55850000Y-42995900D01*
X51895600Y-106364400D02*
X48230000Y-110030000D01*
X54831800Y-42995900D02*
X54831800Y-101010700D01*
X52357500Y-40497500D02*
X54831800Y-42971800D01*
X52357500Y-28432500D02*
X53310000Y-27480000D01*
X52357500Y-40497500D02*
X52357500Y-28432500D01*
X54831800Y-42971800D02*
X54831800Y-42995900D01*
X54831800Y-101010700D02*
X51895600Y-103946900D01*
X51895600Y-103946900D02*
X51895600Y-106364400D01*
X55850000Y-41450000D02*
X55850000Y-42995900D01*
%TO.N,DATA11*%
X50770000Y-110030000D02*
X54748400Y-106051600D01*
X61866300Y-28416300D02*
X61866300Y-40513700D01*
X59354700Y-42414700D02*
X58390000Y-41450000D01*
X61866300Y-40513700D02*
X60930000Y-41450000D01*
X60930000Y-27480000D02*
X61866300Y-28416300D01*
X59354700Y-99376900D02*
X59354700Y-42414700D01*
X54748400Y-103983200D02*
X59354700Y-99376900D01*
X54748400Y-106051600D02*
X54748400Y-103983200D01*
%TO.N,Net-(IC14A-O)*%
X64196700Y-39920700D02*
X64449600Y-40173600D01*
X64449600Y-20839600D02*
X63470000Y-19860000D01*
X64449600Y-29052100D02*
X64449600Y-20839600D01*
X64196700Y-39318900D02*
X64196700Y-39920700D01*
X64449600Y-40173600D02*
X64449600Y-46820400D01*
X64449600Y-31511600D02*
X64449600Y-39066000D01*
X64449600Y-39066000D02*
X64196700Y-39318900D01*
X64449600Y-46820400D02*
X63470000Y-47800000D01*
X64196700Y-29305000D02*
X64196700Y-31258700D01*
X64196700Y-31258700D02*
X64449600Y-31511600D01*
X77137900Y-29052100D02*
X78710000Y-27480000D01*
X64449600Y-29052100D02*
X64196700Y-29305000D01*
X64449600Y-29052100D02*
X77137900Y-29052100D01*
%TO.N,DATA12*%
X59977500Y-21405900D02*
X58431600Y-19860000D01*
X66754900Y-106186900D02*
X63152000Y-109789800D01*
X59977500Y-32877500D02*
X59977500Y-21405900D01*
X61323300Y-111616400D02*
X61011000Y-111616400D01*
X60930000Y-33830000D02*
X59977500Y-32877500D01*
X58431600Y-19860000D02*
X58390000Y-19860000D01*
X63152000Y-109789800D02*
X63149900Y-109789800D01*
X61011000Y-111616400D02*
X61009500Y-111614900D01*
X61009500Y-111614900D02*
X54894900Y-111614900D01*
X59977500Y-21405900D02*
X60930000Y-21405900D01*
X66754900Y-38040600D02*
X66754900Y-106186900D01*
X60930000Y-19860000D02*
X60930000Y-21405900D01*
X54894900Y-111614900D02*
X53310000Y-110030000D01*
X63149900Y-109789800D02*
X61323300Y-111616400D01*
X65720200Y-37005900D02*
X66754900Y-38040600D01*
%TO.N,DATA13*%
X59848300Y-37828300D02*
X55850000Y-33830000D01*
X53351600Y-19860000D02*
X53310000Y-19860000D01*
X55850000Y-33830000D02*
X54897500Y-32877500D01*
X54897500Y-21405900D02*
X53351600Y-19860000D01*
X55850000Y-110030000D02*
X59848300Y-106031700D01*
X54897500Y-32877500D02*
X54897500Y-21405900D01*
X55850000Y-19860000D02*
X55850000Y-21405900D01*
X59848300Y-106031700D02*
X59848300Y-37828300D01*
X54897500Y-21405900D02*
X55850000Y-21405900D01*
%TO.N,DATA14*%
X48271600Y-19860000D02*
X48230000Y-19860000D01*
X58390000Y-110030000D02*
X66298000Y-102122000D01*
X49817500Y-21405900D02*
X50770000Y-21405900D01*
X66298000Y-102122000D02*
X66298000Y-40994400D01*
X49817500Y-32877500D02*
X49817500Y-21405900D01*
X50770000Y-19860000D02*
X50770000Y-21405900D01*
X50770000Y-33830000D02*
X49817500Y-32877500D01*
X49817500Y-21405900D02*
X48271600Y-19860000D01*
X66298000Y-40994400D02*
X64923400Y-39619800D01*
%TO.N,DATA15*%
X32902100Y-69841300D02*
X32902100Y-67822700D01*
X21712500Y-75224500D02*
X22472000Y-74465000D01*
X22394100Y-94627700D02*
X21712500Y-93946100D01*
X35144800Y-65580000D02*
X35946000Y-65580000D01*
X42197500Y-31331600D02*
X42197500Y-20812500D01*
X39007200Y-62518800D02*
X39007200Y-59174900D01*
X39007200Y-59174900D02*
X41561000Y-56621100D01*
X39673700Y-50826200D02*
X39673700Y-37306300D01*
X43150000Y-32284100D02*
X42197500Y-31331600D01*
X39673700Y-37306300D02*
X43150000Y-33830000D01*
X42197500Y-20812500D02*
X43150000Y-19860000D01*
X28278400Y-74465000D02*
X32902100Y-69841300D01*
X43150000Y-32284100D02*
X43150000Y-33830000D01*
X24254300Y-94627700D02*
X22394100Y-94627700D01*
X21712500Y-93946100D02*
X21712500Y-75224500D01*
X32902100Y-67822700D02*
X35144800Y-65580000D01*
X25367000Y-93515000D02*
X24254300Y-94627700D01*
X41561000Y-56621100D02*
X41561000Y-52713500D01*
X41561000Y-52713500D02*
X39673700Y-50826200D01*
X35946000Y-65580000D02*
X39007200Y-62518800D01*
X22472000Y-74465000D02*
X28278400Y-74465000D01*
%TO.N,BADDR12*%
X157450000Y-24428800D02*
X159701500Y-22177300D01*
X159701500Y-22177300D02*
X159701500Y-20082500D01*
X112709500Y-70950500D02*
X112709500Y-51319500D01*
X111730000Y-71930000D02*
X112671800Y-72871800D01*
X112671800Y-72871800D02*
X112671800Y-92578200D01*
X112671800Y-92578200D02*
X111730000Y-93520000D01*
X149976600Y-35876700D02*
X157450000Y-28403300D01*
X155193500Y-19576500D02*
X153640000Y-21130000D01*
X111730000Y-71930000D02*
X112709500Y-70950500D01*
X159195500Y-19576500D02*
X155193500Y-19576500D01*
X112709500Y-51319500D02*
X111730000Y-50340000D01*
X157450000Y-28403300D02*
X157450000Y-24428800D01*
X159701500Y-20082500D02*
X159195500Y-19576500D01*
%TO.N,BADDR13*%
X111887000Y-33509300D02*
X111887000Y-23180700D01*
X153722700Y-23587300D02*
X156180000Y-21130000D01*
X116007000Y-22576200D02*
X116810000Y-23379200D01*
X113313500Y-55733500D02*
X113313500Y-35972800D01*
X113965800Y-35320500D02*
X114049500Y-35320500D01*
X138381400Y-31565900D02*
X146360000Y-23587300D01*
X110328800Y-34542200D02*
X111361700Y-33509300D01*
X113965800Y-35320500D02*
X112154600Y-33509300D01*
X111361700Y-33509300D02*
X111887000Y-33509300D01*
X105852300Y-54947700D02*
X105852300Y-41120900D01*
X111887000Y-23180700D02*
X112491500Y-22576200D01*
X117657400Y-31565900D02*
X138381400Y-31565900D01*
X91410000Y-69390000D02*
X105852300Y-54947700D01*
X112491500Y-22576200D02*
X116007000Y-22576200D01*
X114049500Y-35320500D02*
X114270000Y-35100000D01*
X110328800Y-36644400D02*
X110328800Y-34542200D01*
X116810000Y-23379200D02*
X116810000Y-30718500D01*
X116810000Y-30718500D02*
X117657400Y-31565900D01*
X146360000Y-23587300D02*
X153722700Y-23587300D01*
X114270000Y-56690000D02*
X113313500Y-55733500D01*
X112154600Y-33509300D02*
X111887000Y-33509300D01*
X105852300Y-41120900D02*
X110328800Y-36644400D01*
X113313500Y-35972800D02*
X113965800Y-35320500D01*
%TO.N,BADDR14*%
X110126300Y-70993700D02*
X109190000Y-71930000D01*
X110126300Y-51276300D02*
X110126300Y-70993700D01*
X154910000Y-28165700D02*
X147171900Y-35903800D01*
X158720000Y-21130000D02*
X154910000Y-24940000D01*
X109190000Y-50340000D02*
X110126300Y-51276300D01*
X154910000Y-24940000D02*
X154910000Y-28165700D01*
%TO.N,-VMA*%
X39543300Y-105878400D02*
X41880000Y-108215100D01*
X27907000Y-78275000D02*
X39543300Y-89911300D01*
X64928800Y-112096900D02*
X69445000Y-107580700D01*
X79698400Y-23951600D02*
X79698400Y-28495400D01*
X39543300Y-89911300D02*
X39543300Y-105878400D01*
X79698400Y-28495400D02*
X76824500Y-31369300D01*
X69445000Y-107580700D02*
X73085900Y-107580700D01*
X41880000Y-108215100D02*
X41880000Y-110734600D01*
X41880000Y-110734600D02*
X43242300Y-112096900D01*
X76824500Y-31369300D02*
X76610100Y-31369300D01*
X83790000Y-19860000D02*
X79698400Y-23951600D01*
X43242300Y-112096900D02*
X64928800Y-112096900D01*
X76170000Y-111300000D02*
X73085900Y-108215900D01*
X73085900Y-108215900D02*
X73085900Y-107580700D01*
X76610100Y-31369300D02*
X73085900Y-34893500D01*
X73085900Y-34893500D02*
X73085900Y-107580700D01*
%TO.N,Net-(IC7-G2B)*%
X163800000Y-21130000D02*
X163800000Y-17217000D01*
X163800000Y-17217000D02*
X162945700Y-16362700D01*
%TO.N,BADDR15*%
X87290100Y-58809200D02*
X86811900Y-59287400D01*
X86811900Y-59287400D02*
X86811900Y-61288100D01*
X84170700Y-25909600D02*
X85060000Y-26798900D01*
X85060000Y-26798900D02*
X85060000Y-36446700D01*
X86811900Y-61288100D02*
X86330000Y-61770000D01*
X85060000Y-36446700D02*
X87290100Y-38676800D01*
X82820400Y-25909600D02*
X84170700Y-25909600D01*
X81250000Y-27480000D02*
X82820400Y-25909600D01*
X87290100Y-38676800D02*
X87290100Y-58809200D01*
%TO.N,-TMP-REG-RD1*%
X42012700Y-67987300D02*
X42012700Y-42852700D01*
X40610000Y-69390000D02*
X42012700Y-67987300D01*
X42012700Y-42852700D02*
X40610000Y-41450000D01*
%TO.N,Net-(IC14F-O)*%
X62533700Y-60833700D02*
X62533700Y-34766300D01*
X63470000Y-61770000D02*
X62533700Y-60833700D01*
X62533700Y-34766300D02*
X63470000Y-33830000D01*
%TO.N,ADDR8*%
X24096900Y-79545100D02*
X25699200Y-79545100D01*
X33975700Y-79550000D02*
X39340000Y-79550000D01*
X26636900Y-78607400D02*
X26636900Y-77942800D01*
X39340000Y-79550000D02*
X43150000Y-83360000D01*
X31599500Y-77173800D02*
X33975700Y-79550000D01*
X22827000Y-80815000D02*
X24096900Y-79545100D01*
X25699200Y-79545100D02*
X26636900Y-78607400D01*
X26636900Y-77942800D02*
X27405900Y-77173800D01*
X27405900Y-77173800D02*
X31599500Y-77173800D01*
%TO.N,Net-(IC11-4A)*%
X82885100Y-64951000D02*
X82885100Y-68185900D01*
X82520000Y-78697700D02*
X79779000Y-81438700D01*
X81250000Y-61770000D02*
X81250000Y-63315900D01*
X81250000Y-63315900D02*
X82885100Y-64951000D01*
X82885100Y-68185900D02*
X82520000Y-68551000D01*
X82520000Y-68551000D02*
X82520000Y-78697700D01*
%TO.N,Net-(IC11-3A)*%
X82078000Y-66410900D02*
X79658800Y-68830100D01*
X79658800Y-79746100D02*
X78897500Y-80507400D01*
X79658800Y-68830100D02*
X79658800Y-79746100D01*
%TO.N,Net-(IC11-2A)*%
X85393700Y-79967800D02*
X85480100Y-80054200D01*
X86330000Y-73806300D02*
X86329900Y-73806300D01*
X86330000Y-69390000D02*
X86330000Y-73806300D01*
X55850000Y-79930300D02*
X55933000Y-79847300D01*
X55850000Y-83360000D02*
X55850000Y-79930300D01*
X86329900Y-73806300D02*
X85393700Y-74742500D01*
X85393700Y-74742500D02*
X85393700Y-79967800D01*
%TO.N,Net-(IC11-1A)*%
X77743100Y-79964700D02*
X77886900Y-80108500D01*
X77743100Y-70356900D02*
X77743100Y-79964700D01*
X78710000Y-69390000D02*
X77743100Y-70356900D01*
%TO.N,BADDR11*%
X120953700Y-36036300D02*
X121890000Y-35100000D01*
X120953700Y-55753700D02*
X120953700Y-36036300D01*
X121890000Y-78280000D02*
X120953700Y-77343700D01*
X121890000Y-56690000D02*
X120953700Y-55753700D01*
X120953700Y-77343700D02*
X120953700Y-57626300D01*
X120953700Y-57626300D02*
X121890000Y-56690000D01*
%TO.N,BADDR10*%
X126033700Y-77343700D02*
X126033700Y-57626300D01*
X126970000Y-56690000D02*
X126033700Y-55753700D01*
X126970000Y-78280000D02*
X126033700Y-77343700D01*
X126033700Y-57626300D02*
X126970000Y-56690000D01*
X126033700Y-36036300D02*
X126970000Y-35100000D01*
X126033700Y-55753700D02*
X126033700Y-36036300D01*
%TO.N,BADDR9*%
X119350000Y-56690000D02*
X118413700Y-55753700D01*
X119350000Y-78280000D02*
X118413700Y-77343700D01*
X118413700Y-57626300D02*
X119350000Y-56690000D01*
X118413700Y-77343700D02*
X118413700Y-57626300D01*
X118413700Y-55753700D02*
X118413700Y-36036300D01*
X118413700Y-36036300D02*
X119350000Y-35100000D01*
%TO.N,ADDR15*%
X27574600Y-66845000D02*
X28985100Y-66845000D01*
X79701900Y-83840600D02*
X79701900Y-82390300D01*
X79701900Y-82390300D02*
X78890900Y-81579300D01*
X24097000Y-64305000D02*
X25699200Y-64305000D01*
X25699200Y-64305000D02*
X26637000Y-65242800D01*
X26637000Y-65907400D02*
X27574600Y-66845000D01*
X83790000Y-97330000D02*
X82268500Y-95808500D01*
X28985100Y-66845000D02*
X31927900Y-69787800D01*
X26637000Y-65242800D02*
X26637000Y-65907400D01*
X82268500Y-95808500D02*
X82268500Y-86407200D01*
X78890900Y-81579300D02*
X78309500Y-81579300D01*
X22827000Y-63035000D02*
X24097000Y-64305000D01*
X78309500Y-81579300D02*
X75253100Y-78522900D01*
X82268500Y-86407200D02*
X79701900Y-83840600D01*
X75253100Y-78522900D02*
X75253100Y-77487900D01*
%TO.N,BADDR8*%
X115872800Y-77342800D02*
X115872800Y-57627200D01*
X116810000Y-78280000D02*
X115872800Y-77342800D01*
X115873700Y-36036300D02*
X116810000Y-35100000D01*
X115873700Y-55753700D02*
X115873700Y-36036300D01*
X116810000Y-56690000D02*
X115873700Y-55753700D01*
X115872800Y-57627200D02*
X116810000Y-56690000D01*
%TO.N,/Sheet 7/-CFOE*%
X158720000Y-52880000D02*
X158720000Y-49070000D01*
X156180000Y-55420000D02*
X158720000Y-52880000D01*
X163800000Y-43990000D02*
X163800000Y-41450000D01*
X158720000Y-49070000D02*
X163800000Y-43990000D01*
%TO.N,/Sheet 7/ACTK*%
X175373300Y-47943300D02*
X168880000Y-41450000D01*
X184120000Y-118963300D02*
X179146000Y-113989300D01*
X179146000Y-96248100D02*
X182706700Y-92687400D01*
X181249000Y-65580000D02*
X178192100Y-62523100D01*
X178192100Y-62523100D02*
X178192100Y-61886300D01*
X175373300Y-59067500D02*
X175373300Y-47943300D01*
X181976000Y-65580000D02*
X181249000Y-65580000D01*
X179146000Y-113989300D02*
X179146000Y-96248100D01*
X184120000Y-120190000D02*
X184120000Y-118963300D01*
X182706700Y-92687400D02*
X182706700Y-66310700D01*
X182706700Y-66310700D02*
X181976000Y-65580000D01*
X178192100Y-61886300D02*
X175373300Y-59067500D01*
%TO.N,Net-(IC10A-I0)*%
X79070600Y-98907300D02*
X77747300Y-98907300D01*
X77440000Y-86563800D02*
X77440000Y-90613500D01*
X79661700Y-98316200D02*
X79070600Y-98907300D01*
X79980000Y-35227600D02*
X74486900Y-40720700D01*
X77747300Y-98907300D02*
X76170000Y-97330000D01*
X79661700Y-92835200D02*
X79661700Y-98316200D01*
X79980000Y-31290000D02*
X79980000Y-35227600D01*
X74486900Y-83610700D02*
X77440000Y-86563800D01*
X74486900Y-40720700D02*
X74486900Y-83610700D01*
X77440000Y-90613500D02*
X79661700Y-92835200D01*
X83790000Y-27480000D02*
X79980000Y-31290000D01*
%TO.N,Net-(IC10A-I1)*%
X74026700Y-92646700D02*
X74026700Y-38784600D01*
X80232600Y-25957400D02*
X86330000Y-19860000D01*
X74026700Y-38784600D02*
X77440000Y-35371300D01*
X77440000Y-32517100D02*
X80232600Y-29724500D01*
X77440000Y-35371300D02*
X77440000Y-32517100D01*
X78710000Y-97330000D02*
X74026700Y-92646700D01*
X80232600Y-29724500D02*
X80232600Y-25957400D01*
%TO.N,-TMP-REG-LD1*%
X25367000Y-32555000D02*
X26636900Y-31285100D01*
X26636900Y-31285100D02*
X28203000Y-31285100D01*
X31785600Y-27702500D02*
X31785600Y-27342300D01*
X28203000Y-31285100D02*
X31785600Y-27702500D01*
%TO.N,/Sheet 7/-P8SEL*%
X152511500Y-93661500D02*
X156180000Y-97330000D01*
X153640000Y-77010000D02*
X152511500Y-78138500D01*
X152511500Y-78138500D02*
X152511500Y-93661500D01*
%TO.N,-IO-WR*%
X24250000Y-43832000D02*
X25367000Y-42715000D01*
X25486300Y-48905700D02*
X24892900Y-48905700D01*
X27574600Y-51605000D02*
X26637000Y-50667400D01*
X24892900Y-48905700D02*
X24250000Y-48262800D01*
X24250000Y-48262800D02*
X24250000Y-43832000D01*
X35075600Y-58343400D02*
X28337200Y-51605000D01*
X28337200Y-51605000D02*
X27574600Y-51605000D01*
X26637000Y-50056400D02*
X25486300Y-48905700D01*
X26637000Y-50667400D02*
X26637000Y-50056400D01*
%TO.N,/Sheet 7/-P9SEL*%
X166340000Y-69390000D02*
X167501500Y-70551500D01*
X165070000Y-88920800D02*
X165070000Y-91336200D01*
X165070000Y-91336200D02*
X159076200Y-97330000D01*
X159076200Y-97330000D02*
X158720000Y-97330000D01*
X167501500Y-70551500D02*
X167501500Y-86489300D01*
X167501500Y-86489300D02*
X165070000Y-88920800D01*
%TO.N,-IO-RD*%
X26638500Y-46526500D02*
X32025900Y-46526500D01*
X34373500Y-48874100D02*
X35743500Y-48874100D01*
X32025900Y-46526500D02*
X34373500Y-48874100D01*
X35743500Y-48874100D02*
X38258300Y-51388900D01*
X25367000Y-45255000D02*
X26638500Y-46526500D01*
X38258300Y-51388900D02*
X38258300Y-61451900D01*
%TO.N,-LO-RAM*%
X143146300Y-94543900D02*
X128611200Y-109079000D01*
X90529300Y-98899800D02*
X82819800Y-98899800D01*
X131108900Y-33501100D02*
X142544900Y-33501100D01*
X110779000Y-109079000D02*
X109190000Y-107490000D01*
X128611200Y-109079000D02*
X110779000Y-109079000D01*
X142544900Y-33501100D02*
X143146300Y-34102500D01*
X82819800Y-98899800D02*
X81250000Y-97330000D01*
X99119500Y-107490000D02*
X90529300Y-98899800D01*
X129510000Y-35100000D02*
X131108900Y-33501100D01*
X109190000Y-107490000D02*
X99119500Y-107490000D01*
X143146300Y-34102500D02*
X143146300Y-94543900D01*
%TO.N,Net-(IC10B-I1)*%
X83790000Y-89710000D02*
X83790000Y-94790000D01*
X83790000Y-94790000D02*
X86330000Y-97330000D01*
%TO.N,Net-(IC10B-O)*%
X88870000Y-89710000D02*
X88870000Y-97330000D01*
%TO.N,Net-(IC10D-I0)*%
X81250000Y-111300000D02*
X80297500Y-110347500D01*
X80297500Y-90662500D02*
X81250000Y-89710000D01*
X80297500Y-110347500D02*
X80297500Y-90662500D01*
%TO.N,Net-(IC1-~{OE})*%
X123493700Y-77343700D02*
X123493700Y-57626300D01*
X124430000Y-78280000D02*
X123493700Y-77343700D01*
X123493700Y-55753700D02*
X123493700Y-36036300D01*
X123493700Y-36036300D02*
X124430000Y-35100000D01*
X123493700Y-57626300D02*
X124430000Y-56690000D01*
X124430000Y-56690000D02*
X123493700Y-55753700D01*
%TO.N,Net-(IC1-~{WE})*%
X111730000Y-78280000D02*
X110792800Y-77342800D01*
X110792800Y-57627200D02*
X111730000Y-56690000D01*
X110780500Y-55740500D02*
X110780500Y-36049500D01*
X110780500Y-36049500D02*
X111730000Y-35100000D01*
X110792800Y-77342800D02*
X110792800Y-57627200D01*
X111730000Y-56690000D02*
X110780500Y-55740500D01*
%TO.N,-MEM-RD*%
X81554000Y-43019800D02*
X84760200Y-43019800D01*
X76170000Y-55420000D02*
X77280800Y-54309200D01*
X77280800Y-47293000D02*
X81554000Y-43019800D01*
X77280800Y-54309200D02*
X77280800Y-47293000D01*
X84760200Y-43019800D02*
X86330000Y-41450000D01*
%TO.N,-HI-RAM*%
X129510000Y-56690000D02*
X130493500Y-57673500D01*
X124473100Y-102471600D02*
X116748400Y-102471600D01*
X91183100Y-38683100D02*
X86330000Y-33830000D01*
X91903400Y-38683100D02*
X91183100Y-38683100D01*
X130493500Y-57673500D02*
X130493500Y-90491600D01*
X130946700Y-95998000D02*
X124473100Y-102471600D01*
X105125600Y-54140800D02*
X105125600Y-51905300D01*
X105125600Y-51905300D02*
X91903400Y-38683100D01*
X116748400Y-102471600D02*
X111730000Y-107490000D01*
X130946700Y-90944800D02*
X130946700Y-95998000D01*
X130493500Y-90491600D02*
X130946700Y-90944800D01*
%TO.N,-ROM-CS*%
X89379000Y-77519000D02*
X113277400Y-101417400D01*
X89379000Y-77519000D02*
X88657100Y-77519000D01*
X124851400Y-101417400D02*
X113277400Y-101417400D01*
X88657100Y-77519000D02*
X87932200Y-76794100D01*
X75212300Y-44581200D02*
X77440000Y-42353500D01*
X77440000Y-42353500D02*
X77440000Y-40727600D01*
X75212300Y-56400000D02*
X75212300Y-44581200D01*
X76329800Y-57517500D02*
X75212300Y-56400000D01*
X82760000Y-60664000D02*
X79613500Y-57517500D01*
X87932200Y-76794100D02*
X87932200Y-68073800D01*
X82760000Y-62901600D02*
X82760000Y-60664000D01*
X130469900Y-91766100D02*
X130469900Y-95798900D01*
X129510000Y-78280000D02*
X129510000Y-90806200D01*
X81250000Y-36917600D02*
X81250000Y-33830000D01*
X77440000Y-40727600D02*
X81250000Y-36917600D01*
X87932200Y-68073800D02*
X82760000Y-62901600D01*
X130469900Y-95798900D02*
X124851400Y-101417400D01*
X79613500Y-57517500D02*
X76329800Y-57517500D01*
X129510000Y-90806200D02*
X130469900Y-91766100D01*
%TO.N,DATA4*%
X56821200Y-53134100D02*
X56821200Y-57741100D01*
X57243600Y-100787600D02*
X57243600Y-62916400D01*
X25699200Y-51605000D02*
X26637000Y-52542800D01*
X27574600Y-54145000D02*
X29047500Y-54145000D01*
X56821200Y-57741100D02*
X55580100Y-57741100D01*
X54987400Y-103105400D02*
X54987400Y-103043800D01*
X22827000Y-50335000D02*
X24097000Y-51605000D01*
X26637000Y-53207400D02*
X27574600Y-54145000D01*
X53310000Y-103404100D02*
X53697900Y-103404100D01*
X56821200Y-60201200D02*
X58390000Y-61770000D01*
X88870000Y-55420000D02*
X88870000Y-58256900D01*
X88870000Y-58256900D02*
X87538600Y-59588300D01*
X53697900Y-103404100D02*
X53824900Y-103531100D01*
X29047500Y-54145000D02*
X32392300Y-57489800D01*
X57243600Y-62916400D02*
X58390000Y-61770000D01*
X56435300Y-49754700D02*
X56435300Y-52748200D01*
X56435300Y-52748200D02*
X56821200Y-53134100D01*
X54561700Y-103531100D02*
X54987400Y-103105400D01*
X53310000Y-104950000D02*
X53310000Y-103404100D01*
X53824900Y-103531100D02*
X54561700Y-103531100D01*
X56821200Y-57741100D02*
X56821200Y-60201200D01*
X26637000Y-52542800D02*
X26637000Y-53207400D01*
X58390000Y-47800000D02*
X56435300Y-49754700D01*
X54987400Y-103043800D02*
X57243600Y-100787600D01*
X24097000Y-51605000D02*
X25699200Y-51605000D01*
%TO.N,DATA5*%
X55850000Y-61770000D02*
X56788400Y-62708400D01*
X52360000Y-48750000D02*
X52360000Y-60820000D01*
X56788400Y-62708400D02*
X56788400Y-100215100D01*
X56788400Y-100215100D02*
X54646500Y-102357000D01*
X53310000Y-47800000D02*
X52360000Y-48750000D01*
X52360000Y-60820000D02*
X53310000Y-61770000D01*
%TO.N,DATA6*%
X26457100Y-42867500D02*
X26457100Y-42235300D01*
X26457100Y-42235300D02*
X25844900Y-41623100D01*
X51734000Y-101590200D02*
X51734000Y-68135200D01*
X24856600Y-41623100D02*
X23917100Y-42562600D01*
X23917100Y-42562600D02*
X23917100Y-43511500D01*
X49817500Y-49345900D02*
X48271600Y-47800000D01*
X49817500Y-49345900D02*
X50770000Y-49345900D01*
X22827000Y-44601600D02*
X22827000Y-45255000D01*
X50770000Y-47800000D02*
X50770000Y-49345900D01*
X50770000Y-67171200D02*
X50770000Y-61770000D01*
X27574600Y-43985000D02*
X26457100Y-42867500D01*
X48271600Y-47800000D02*
X48230000Y-47800000D01*
X23917100Y-43511500D02*
X22827000Y-44601600D01*
X34854600Y-47852800D02*
X30986800Y-43985000D01*
X25844900Y-41623100D02*
X24856600Y-41623100D01*
X51734000Y-68135200D02*
X50770000Y-67171200D01*
X30986800Y-43985000D02*
X27574600Y-43985000D01*
X51486700Y-101837500D02*
X51734000Y-101590200D01*
X49817500Y-60817500D02*
X50770000Y-61770000D01*
X49817500Y-49345900D02*
X49817500Y-60817500D01*
%TO.N,DATA7*%
X44737500Y-60817500D02*
X44737500Y-49345900D01*
X45690000Y-61770000D02*
X44737500Y-60817500D01*
X65548800Y-100331200D02*
X65548800Y-45247700D01*
X45690000Y-47800000D02*
X45690000Y-49345900D01*
X43191600Y-47800000D02*
X43150000Y-47800000D01*
X60930000Y-104950000D02*
X65548800Y-100331200D01*
X44737500Y-49345900D02*
X43191600Y-47800000D01*
X44737500Y-49345900D02*
X45690000Y-49345900D01*
%TO.N,BDATA7*%
X131107900Y-55747900D02*
X131107900Y-36042100D01*
X132050000Y-56690000D02*
X131107900Y-55747900D01*
X131093900Y-77323900D02*
X132050000Y-78280000D01*
X131093900Y-57646100D02*
X131093900Y-77323900D01*
X132050000Y-56690000D02*
X131093900Y-57646100D01*
X131107900Y-36042100D02*
X132050000Y-35100000D01*
%TO.N,BDATA6*%
X133653700Y-55753700D02*
X133653700Y-36036300D01*
X133653700Y-36036300D02*
X134590000Y-35100000D01*
X133653700Y-77343700D02*
X133653700Y-57626300D01*
X134590000Y-78280000D02*
X133653700Y-77343700D01*
X134590000Y-56690000D02*
X133653700Y-55753700D01*
X133653700Y-57626300D02*
X134590000Y-56690000D01*
%TO.N,BDATA5*%
X137130000Y-78280000D02*
X136193700Y-77343700D01*
X136193700Y-36036300D02*
X137130000Y-35100000D01*
X137130000Y-56690000D02*
X136193700Y-55753700D01*
X136193700Y-77343700D02*
X136193700Y-57626300D01*
X136193700Y-55753700D02*
X136193700Y-36036300D01*
X136193700Y-57626300D02*
X137130000Y-56690000D01*
%TO.N,BDATA4*%
X138733700Y-77343700D02*
X138733700Y-57626300D01*
X139670000Y-78280000D02*
X138733700Y-77343700D01*
X139670000Y-56690000D02*
X138733700Y-55753700D01*
X138733700Y-36036300D02*
X139670000Y-35100000D01*
X138733700Y-57626300D02*
X139670000Y-56690000D01*
X138733700Y-55753700D02*
X138733700Y-36036300D01*
%TO.N,BDATA3*%
X141257500Y-36052500D02*
X142210000Y-35100000D01*
X141273700Y-77343700D02*
X141273700Y-57626300D01*
X141273700Y-57626300D02*
X142210000Y-56690000D01*
X142210000Y-56690000D02*
X141257500Y-55737500D01*
X141257500Y-55737500D02*
X141257500Y-36052500D01*
X142210000Y-78280000D02*
X141273700Y-77343700D01*
%TO.N,BDATA2*%
X139670000Y-50340000D02*
X140633300Y-51303300D01*
X140606300Y-92583700D02*
X139670000Y-93520000D01*
X140633300Y-70966700D02*
X139670000Y-71930000D01*
X139670000Y-71930000D02*
X140606300Y-72866300D01*
X140633300Y-51303300D02*
X140633300Y-70966700D01*
X140606300Y-72866300D02*
X140606300Y-92583700D01*
%TO.N,BDATA1*%
X138066300Y-92583700D02*
X137130000Y-93520000D01*
X138093300Y-51303300D02*
X138093300Y-70966700D01*
X138093300Y-70966700D02*
X137130000Y-71930000D01*
X137130000Y-50340000D02*
X138093300Y-51303300D01*
X138066300Y-72866300D02*
X138066300Y-92583700D01*
X137130000Y-71930000D02*
X138066300Y-72866300D01*
%TO.N,BDATA0*%
X135526300Y-72866300D02*
X135526300Y-92583700D01*
X135553300Y-70966700D02*
X134590000Y-71930000D01*
X135553300Y-51303300D02*
X135553300Y-70966700D01*
X134590000Y-50340000D02*
X135553300Y-51303300D01*
X135526300Y-92583700D02*
X134590000Y-93520000D01*
X134590000Y-71930000D02*
X135526300Y-72866300D01*
%TO.N,Net-(IC15A-O)*%
X112248500Y-97848500D02*
X111535600Y-97848500D01*
X111535600Y-97848500D02*
X90140000Y-76452900D01*
X114270000Y-99870000D02*
X112248500Y-97848500D01*
X80313700Y-56419100D02*
X80313700Y-49403700D01*
X82077800Y-58183200D02*
X80313700Y-56419100D01*
X90140000Y-67544200D02*
X85060000Y-62464200D01*
X85060000Y-62464200D02*
X85060000Y-61056900D01*
X80313700Y-49403700D02*
X78710000Y-47800000D01*
X82186300Y-58183200D02*
X82077800Y-58183200D01*
X85060000Y-61056900D02*
X82186300Y-58183200D01*
X90140000Y-76452900D02*
X90140000Y-67544200D01*
%TO.N,-BUS-EN*%
X22830000Y-14780000D02*
X23918700Y-14780000D01*
X26774300Y-38765600D02*
X24895100Y-38765600D01*
X24895100Y-38765600D02*
X24076800Y-37947200D01*
X27086500Y-38453400D02*
X26774300Y-38765600D01*
X24076800Y-37947200D02*
X23119000Y-38905000D01*
X27907000Y-37635000D02*
X27088600Y-38453400D01*
X30975400Y-102405000D02*
X41458200Y-112887800D01*
X77122200Y-112887800D02*
X78710000Y-111300000D01*
X23918700Y-37789200D02*
X23918700Y-14780000D01*
X22551000Y-102405000D02*
X30975400Y-102405000D01*
X23119000Y-38905000D02*
X22511900Y-38905000D01*
X27088600Y-38453400D02*
X27086500Y-38453400D01*
X21195500Y-40221400D02*
X21195500Y-101049500D01*
X41458200Y-112887800D02*
X77122200Y-112887800D01*
X21195500Y-101049500D02*
X22551000Y-102405000D01*
X22511900Y-38905000D02*
X21195500Y-40221400D01*
X24076800Y-37947200D02*
X23918700Y-37789200D01*
%TO.N,BADDR7*%
X113317500Y-72882500D02*
X115206300Y-70993700D01*
X114270000Y-50340000D02*
X115206300Y-51276300D01*
X115206300Y-51276300D02*
X115206300Y-70993700D01*
X114270000Y-93520000D02*
X113317500Y-92567500D01*
X113317500Y-92567500D02*
X113317500Y-72882500D01*
%TO.N,BADDR6*%
X117746300Y-72866300D02*
X117746300Y-92583700D01*
X117746300Y-92583700D02*
X116810000Y-93520000D01*
X116810000Y-71930000D02*
X117746300Y-72866300D01*
X117773300Y-51303300D02*
X117773300Y-70966700D01*
X116810000Y-50340000D02*
X117773300Y-51303300D01*
X117773300Y-70966700D02*
X116810000Y-71930000D01*
%TO.N,BADDR5*%
X120313300Y-51303300D02*
X120313300Y-70966700D01*
X119350000Y-50340000D02*
X120313300Y-51303300D01*
X120286300Y-92583700D02*
X119350000Y-93520000D01*
X120313300Y-70966700D02*
X119350000Y-71930000D01*
X119350000Y-71930000D02*
X120286300Y-72866300D01*
X120286300Y-72866300D02*
X120286300Y-92583700D01*
%TO.N,BADDR4*%
X122826300Y-72866300D02*
X122826300Y-92583700D01*
X122853300Y-51303300D02*
X122853300Y-70966700D01*
X121890000Y-50340000D02*
X122853300Y-51303300D01*
X122853300Y-70966700D02*
X121890000Y-71930000D01*
X122826300Y-92583700D02*
X121890000Y-93520000D01*
X121890000Y-71930000D02*
X122826300Y-72866300D01*
%TO.N,BADDR3*%
X125393300Y-51303300D02*
X125393300Y-70966700D01*
X124430000Y-50340000D02*
X125393300Y-51303300D01*
X62200000Y-90980000D02*
X60930000Y-89710000D01*
X62200000Y-100057900D02*
X62200000Y-90980000D01*
X125366300Y-72866300D02*
X125366300Y-92583700D01*
X62832800Y-100690700D02*
X62200000Y-100057900D01*
X125393300Y-70966700D02*
X124430000Y-71930000D01*
X124430000Y-71930000D02*
X125366300Y-72866300D01*
X125366300Y-92583700D02*
X124430000Y-93520000D01*
%TO.N,BADDR2*%
X127922500Y-91021600D02*
X126970000Y-91974100D01*
X126970000Y-50340000D02*
X127962900Y-51332900D01*
X127962900Y-51332900D02*
X127962900Y-70937100D01*
X126970000Y-71930000D02*
X127922500Y-72882500D01*
X127962900Y-70937100D02*
X126970000Y-71930000D01*
X127922500Y-72882500D02*
X127922500Y-91021600D01*
X126970000Y-93520000D02*
X126970000Y-91974100D01*
%TO.N,BADDR1*%
X128573700Y-70993700D02*
X129510000Y-71930000D01*
X129510000Y-71930000D02*
X128527200Y-72912800D01*
X129510000Y-50340000D02*
X128573700Y-51276300D01*
X128527200Y-72912800D02*
X128527200Y-92537200D01*
X128573700Y-51276300D02*
X128573700Y-70993700D01*
X128527200Y-92537200D02*
X129510000Y-93520000D01*
%TO.N,BADDR0*%
X132986300Y-92583700D02*
X132050000Y-93520000D01*
X132050000Y-50340000D02*
X133013300Y-51303300D01*
X133013300Y-51303300D02*
X133013300Y-70966700D01*
X132986300Y-72866300D02*
X132986300Y-92583700D01*
X132050000Y-71930000D02*
X132986300Y-72866300D01*
X133013300Y-70966700D02*
X132050000Y-71930000D01*
%TO.N,ADDR0*%
X33148900Y-97325100D02*
X33612600Y-96861400D01*
X22827000Y-101135000D02*
X21688200Y-99996200D01*
X22547600Y-97325100D02*
X33148900Y-97325100D01*
X21688200Y-98184500D02*
X22547600Y-97325100D01*
X21688200Y-99996200D02*
X21688200Y-98184500D01*
%TO.N,ADDR1*%
X22827000Y-98595000D02*
X23938200Y-99706200D01*
X35725800Y-99706200D02*
X36476400Y-98955600D01*
X23938200Y-99706200D02*
X35725800Y-99706200D01*
%TO.N,ADDR2*%
X24682400Y-94933400D02*
X32420300Y-94933400D01*
X23560800Y-96055000D02*
X24682400Y-94933400D01*
X22827000Y-96055000D02*
X23560800Y-96055000D01*
X32420300Y-94933400D02*
X33330200Y-95843300D01*
%TO.N,ADDR3*%
X22827000Y-93515000D02*
X23938200Y-92403800D01*
X23938200Y-92403800D02*
X29867100Y-92403800D01*
X29867100Y-92403800D02*
X30989200Y-93525900D01*
%TO.N,ADDR6*%
X24077600Y-87145600D02*
X29315100Y-87145600D01*
X22827000Y-85895000D02*
X24077600Y-87145600D01*
%TD*%
M02*
