%TF.GenerationSoftware,KiCad,Pcbnew,10.0.6*%
%TF.CreationDate,2026-09-25T08:16:38-04:00*%
%TF.ProjectId,memory-v2.0,6d656d6f-7279-42d7-9632-2e302e6b6963,2.0*%
%TF.SameCoordinates,Original*%
%TF.FileFunction,Soldermask,Bot*%
%TF.FilePolarity,Negative*%
%FSLAX46Y46*%
G04 Gerber Fmt 4.6, Leading zero omitted, Abs format (unit mm)*
G04 Created by KiCad (PCBNEW 10.0.6) date 2026-09-25 08:16:38*
%MOMM*%
%LPD*%
G01*
G04 APERTURE LIST*
G04 Aperture macros list*
%AMRoundRect*
0 Rectangle with rounded corners*
0 $1 Rounding radius*
0 $2 $3 $4 $5 $6 $7 $8 $9 X,Y pos of 4 corners*
0 Add a 4 corners polygon primitive as box body*
4,1,4,$2,$3,$4,$5,$6,$7,$8,$9,$2,$3,0*
0 Add four circle primitives for the rounded corners*
1,1,$1+$1,$2,$3*
1,1,$1+$1,$4,$5*
1,1,$1+$1,$6,$7*
1,1,$1+$1,$8,$9*
0 Add four rect primitives between the rounded corners*
20,1,$1+$1,$2,$3,$4,$5,0*
20,1,$1+$1,$4,$5,$6,$7,0*
20,1,$1+$1,$6,$7,$8,$9,0*
20,1,$1+$1,$8,$9,$2,$3,0*%
%AMFreePoly0*
4,1,17,0.297406,0.654501,0.654501,0.297406,0.673100,0.252505,0.673100,-0.252505,0.654501,-0.297406,0.297406,-0.654501,0.252505,-0.673100,-0.252505,-0.673100,-0.297406,-0.654501,-0.654501,-0.297406,-0.673100,-0.252505,-0.673100,0.252505,-0.654501,0.297406,-0.297406,0.654501,-0.252505,0.673100,0.252505,0.673100,0.297406,0.654501,0.297406,0.654501,$1*%
%AMFreePoly1*
4,1,17,0.392095,0.883101,0.883101,0.392095,0.901700,0.347194,0.901700,-0.347194,0.883101,-0.392095,0.392095,-0.883101,0.347194,-0.901700,-0.347194,-0.901700,-0.392095,-0.883101,-0.883101,-0.392095,-0.901700,-0.347194,-0.901700,0.347194,-0.883101,0.392095,-0.392095,0.883101,-0.347194,0.901700,0.347194,0.901700,0.392095,0.883101,0.392095,0.883101,$1*%
%AMFreePoly2*
4,1,17,0.360532,0.806901,0.806901,0.360532,0.825500,0.315631,0.825500,-0.315631,0.806901,-0.360532,0.360532,-0.806901,0.315631,-0.825500,-0.315631,-0.825500,-0.360532,-0.806901,-0.806901,-0.360532,-0.825500,-0.315631,-0.825500,0.315631,-0.806901,0.360532,-0.360532,0.806901,-0.315631,0.825500,0.315631,0.825500,0.360532,0.806901,0.360532,0.806901,$1*%
G04 Aperture macros list end*
%ADD10C,1.600000*%
%ADD11O,1.346200X2.565400*%
%ADD12FreePoly0,0.000000*%
%ADD13FreePoly1,90.000000*%
%ADD14C,2.997200*%
%ADD15FreePoly2,180.000000*%
%ADD16RoundRect,0.250000X0.550000X-0.550000X0.550000X0.550000X-0.550000X0.550000X-0.550000X-0.550000X0*%
%ADD17C,3.200000*%
%ADD18R,1.700000X1.700000*%
%ADD19C,1.700000*%
%ADD20RoundRect,0.250000X-0.550000X-0.550000X0.550000X-0.550000X0.550000X0.550000X-0.550000X0.550000X0*%
%ADD21FreePoly2,0.000000*%
%ADD22O,1.651000X3.175000*%
%ADD23RoundRect,0.250000X0.600000X0.600000X-0.600000X0.600000X-0.600000X-0.600000X0.600000X-0.600000X0*%
%ADD24FreePoly0,180.000000*%
%ADD25R,1.800000X1.800000*%
%ADD26C,1.800000*%
%ADD27R,1.600000X1.600000*%
G04 APERTURE END LIST*
D10*
%TO.C,R13*%
X190470000Y-79550000D03*
X190470000Y-69390000D03*
%TD*%
D11*
%TO.C,IC2*%
X102840000Y-93520000D03*
X105380000Y-93520000D03*
X107920000Y-93520000D03*
X110460000Y-93520000D03*
X113000000Y-93520000D03*
X115540000Y-93520000D03*
X118080000Y-93520000D03*
X120620000Y-93520000D03*
X123160000Y-93520000D03*
X125700000Y-93520000D03*
X128240000Y-93520000D03*
X130780000Y-93520000D03*
X133320000Y-93520000D03*
X135860000Y-93520000D03*
X135860000Y-78280000D03*
X133320000Y-78280000D03*
X130780000Y-78280000D03*
X128240000Y-78280000D03*
X125700000Y-78280000D03*
X123160000Y-78280000D03*
X120620000Y-78280000D03*
X118080000Y-78280000D03*
X115540000Y-78280000D03*
X113000000Y-78280000D03*
X110460000Y-78280000D03*
X107920000Y-78280000D03*
X105380000Y-78280000D03*
X102840000Y-78280000D03*
%TD*%
D12*
%TO.C,R2*%
X153640000Y-121460000D03*
X163800000Y-121460000D03*
%TD*%
D11*
%TO.C,IC11*%
X74900000Y-69390000D03*
X77440000Y-69390000D03*
X79980000Y-69390000D03*
X82520000Y-69390000D03*
X85060000Y-69390000D03*
X87600000Y-69390000D03*
X90140000Y-69390000D03*
X92680000Y-69390000D03*
X92680000Y-61770000D03*
X90140000Y-61770000D03*
X87600000Y-61770000D03*
X85060000Y-61770000D03*
X82520000Y-61770000D03*
X79980000Y-61770000D03*
X77440000Y-61770000D03*
X74900000Y-61770000D03*
%TD*%
D13*
%TO.C,C11*%
X69820000Y-66850000D03*
X69820000Y-64310000D03*
%TD*%
D10*
%TO.C,C28*%
X171420000Y-113840000D03*
X171420000Y-108840000D03*
%TD*%
D11*
%TO.C,IC3*%
X74900000Y-111300000D03*
X77440000Y-111300000D03*
X79980000Y-111300000D03*
X82520000Y-111300000D03*
X85060000Y-111300000D03*
X87600000Y-111300000D03*
X90140000Y-111300000D03*
X90140000Y-103680000D03*
X87600000Y-103680000D03*
X85060000Y-103680000D03*
X82520000Y-103680000D03*
X79980000Y-103680000D03*
X77440000Y-103680000D03*
X74900000Y-103680000D03*
%TD*%
D13*
%TO.C,C2*%
X97760000Y-84630000D03*
X97760000Y-82090000D03*
%TD*%
D11*
%TO.C,IC9*%
X40610000Y-83360000D03*
X43150000Y-83360000D03*
X45690000Y-83360000D03*
X48230000Y-83360000D03*
X50770000Y-83360000D03*
X53310000Y-83360000D03*
X55850000Y-83360000D03*
X58390000Y-83360000D03*
X60930000Y-83360000D03*
X63470000Y-83360000D03*
X63470000Y-75740000D03*
X60930000Y-75740000D03*
X58390000Y-75740000D03*
X55850000Y-75740000D03*
X53310000Y-75740000D03*
X50770000Y-75740000D03*
X48230000Y-75740000D03*
X45690000Y-75740000D03*
X43150000Y-75740000D03*
X40610000Y-75740000D03*
%TD*%
%TO.C,IC26*%
X40610000Y-55420000D03*
X43150000Y-55420000D03*
X45690000Y-55420000D03*
X48230000Y-55420000D03*
X50770000Y-55420000D03*
X53310000Y-55420000D03*
X55850000Y-55420000D03*
X58390000Y-55420000D03*
X60930000Y-55420000D03*
X63470000Y-55420000D03*
X63470000Y-47800000D03*
X60930000Y-47800000D03*
X58390000Y-47800000D03*
X55850000Y-47800000D03*
X53310000Y-47800000D03*
X50770000Y-47800000D03*
X48230000Y-47800000D03*
X45690000Y-47800000D03*
X43150000Y-47800000D03*
X40610000Y-47800000D03*
%TD*%
%TO.C,RN7*%
X120620000Y-13510000D03*
X118080000Y-13510000D03*
X115540000Y-13510000D03*
X113000000Y-13510000D03*
X110460000Y-13510000D03*
X107920000Y-13510000D03*
X105380000Y-13510000D03*
X102840000Y-13510000D03*
X100300000Y-13510000D03*
%TD*%
%TO.C,RN8*%
X100300000Y-30020000D03*
X102840000Y-30020000D03*
X105380000Y-30020000D03*
X107920000Y-30020000D03*
X110460000Y-30020000D03*
X113000000Y-30020000D03*
X115540000Y-30020000D03*
X118080000Y-30020000D03*
X120620000Y-30020000D03*
%TD*%
D14*
%TO.C,X1*%
X20287000Y-111301400D03*
X20287000Y-22388600D03*
D15*
X22827000Y-106215000D03*
X22827000Y-103675000D03*
X22827000Y-101135000D03*
X22827000Y-98595000D03*
X22827000Y-96055000D03*
X22827000Y-93515000D03*
X22827000Y-90975000D03*
X22827000Y-88435000D03*
X22827000Y-85895000D03*
X22827000Y-83355000D03*
X22827000Y-80815000D03*
X22827000Y-78275000D03*
X22827000Y-75735000D03*
X22827000Y-73195000D03*
X22827000Y-70655000D03*
X22827000Y-68115000D03*
X22827000Y-65575000D03*
X22827000Y-63035000D03*
X22827000Y-60495000D03*
X22827000Y-57955000D03*
X22827000Y-55415000D03*
X22827000Y-52875000D03*
X22827000Y-50335000D03*
X22827000Y-47795000D03*
X22827000Y-45255000D03*
X22827000Y-42715000D03*
X22827000Y-40175000D03*
X22827000Y-37635000D03*
X22827000Y-35095000D03*
X22827000Y-32555000D03*
X22827000Y-30015000D03*
X22827000Y-27475000D03*
X25367000Y-106215000D03*
X25367000Y-103675000D03*
X25367000Y-101135000D03*
X25367000Y-98595000D03*
X25367000Y-96055000D03*
X25367000Y-93515000D03*
X25367000Y-90975000D03*
X25367000Y-88435000D03*
X25367000Y-85895000D03*
X25367000Y-83355000D03*
X25367000Y-80815000D03*
X25367000Y-78275000D03*
X25367000Y-75735000D03*
X25367000Y-73195000D03*
X25367000Y-70655000D03*
X25367000Y-68115000D03*
X25367000Y-65575000D03*
X25367000Y-63035000D03*
X25367000Y-60495000D03*
X25367000Y-57955000D03*
X25367000Y-55415000D03*
X25367000Y-52875000D03*
X25367000Y-50335000D03*
X25367000Y-47795000D03*
X25367000Y-45255000D03*
X25367000Y-42715000D03*
X25367000Y-40175000D03*
X25367000Y-37635000D03*
X25367000Y-35095000D03*
X25367000Y-32555000D03*
X25367000Y-30015000D03*
X25367000Y-27475000D03*
X27907000Y-106215000D03*
X27907000Y-103675000D03*
X27907000Y-101135000D03*
X27907000Y-98595000D03*
X27907000Y-96055000D03*
X27907000Y-93515000D03*
X27907000Y-90975000D03*
X27907000Y-88435000D03*
X27907000Y-85895000D03*
X27907000Y-83355000D03*
X27907000Y-80815000D03*
X27907000Y-78275000D03*
X27907000Y-75735000D03*
X27907000Y-73195000D03*
X27907000Y-70655000D03*
X27907000Y-68115000D03*
X27907000Y-65575000D03*
X27907000Y-63035000D03*
X27907000Y-60495000D03*
X27907000Y-57955000D03*
X27907000Y-55415000D03*
X27907000Y-52875000D03*
X27907000Y-50335000D03*
X27907000Y-47795000D03*
X27907000Y-45255000D03*
X27907000Y-42715000D03*
X27907000Y-40175000D03*
X27907000Y-37635000D03*
X27907000Y-35095000D03*
X27907000Y-32555000D03*
X27907000Y-30015000D03*
X27907000Y-27475000D03*
%TD*%
D13*
%TO.C,C10*%
X69820000Y-38910000D03*
X69820000Y-36370000D03*
%TD*%
%TO.C,C14*%
X35530000Y-52880000D03*
X35530000Y-50340000D03*
%TD*%
D11*
%TO.C,IC18*%
X129510000Y-22400000D03*
X132050000Y-22400000D03*
X134590000Y-22400000D03*
X137130000Y-22400000D03*
X139670000Y-22400000D03*
X142210000Y-22400000D03*
X144750000Y-22400000D03*
X144750000Y-14780000D03*
X142210000Y-14780000D03*
X139670000Y-14780000D03*
X137130000Y-14780000D03*
X134590000Y-14780000D03*
X132050000Y-14780000D03*
X129510000Y-14780000D03*
%TD*%
%TO.C,IC8*%
X40610000Y-97330000D03*
X43150000Y-97330000D03*
X45690000Y-97330000D03*
X48230000Y-97330000D03*
X50770000Y-97330000D03*
X53310000Y-97330000D03*
X55850000Y-97330000D03*
X58390000Y-97330000D03*
X60930000Y-97330000D03*
X63470000Y-97330000D03*
X63470000Y-89710000D03*
X60930000Y-89710000D03*
X58390000Y-89710000D03*
X55850000Y-89710000D03*
X53310000Y-89710000D03*
X50770000Y-89710000D03*
X48230000Y-89710000D03*
X45690000Y-89710000D03*
X43150000Y-89710000D03*
X40610000Y-89710000D03*
%TD*%
D16*
%TO.C,IC30*%
X162530000Y-47800000D03*
D10*
X165070000Y-47800000D03*
X167610000Y-47800000D03*
X170150000Y-47800000D03*
X172690000Y-47800000D03*
X175230000Y-47800000D03*
X177770000Y-47800000D03*
X180310000Y-47800000D03*
X180310000Y-40180000D03*
X177770000Y-40180000D03*
X175230000Y-40180000D03*
X172690000Y-40180000D03*
X170150000Y-40180000D03*
X167610000Y-40180000D03*
X165070000Y-40180000D03*
X162530000Y-40180000D03*
%TD*%
%TO.C,R11*%
X182850000Y-79550000D03*
X182850000Y-69390000D03*
%TD*%
D11*
%TO.C,IC5*%
X74900000Y-97330000D03*
X77440000Y-97330000D03*
X79980000Y-97330000D03*
X82520000Y-97330000D03*
X85060000Y-97330000D03*
X87600000Y-97330000D03*
X90140000Y-97330000D03*
X92680000Y-97330000D03*
X95220000Y-97330000D03*
X97760000Y-97330000D03*
X97760000Y-89710000D03*
X95220000Y-89710000D03*
X92680000Y-89710000D03*
X90140000Y-89710000D03*
X87600000Y-89710000D03*
X85060000Y-89710000D03*
X82520000Y-89710000D03*
X79980000Y-89710000D03*
X77440000Y-89710000D03*
X74900000Y-89710000D03*
%TD*%
%TO.C,IC12*%
X74900000Y-55420000D03*
X77440000Y-55420000D03*
X79980000Y-55420000D03*
X82520000Y-55420000D03*
X85060000Y-55420000D03*
X87600000Y-55420000D03*
X90140000Y-55420000D03*
X90140000Y-47800000D03*
X87600000Y-47800000D03*
X85060000Y-47800000D03*
X82520000Y-47800000D03*
X79980000Y-47800000D03*
X77440000Y-47800000D03*
X74900000Y-47800000D03*
%TD*%
D17*
%TO.C,H1*%
X166340000Y-111900000D03*
%TD*%
D10*
%TO.C,R14*%
X153640000Y-117650000D03*
X163800000Y-117650000D03*
%TD*%
D18*
%TO.C,JP2*%
X142210000Y-120190000D03*
D19*
X144750000Y-120190000D03*
%TD*%
D10*
%TO.C,C26*%
X152370000Y-89710000D03*
X152370000Y-84710000D03*
%TD*%
D11*
%TO.C,IC29*%
X40610000Y-41450000D03*
X43150000Y-41450000D03*
X45690000Y-41450000D03*
X48230000Y-41450000D03*
X50770000Y-41450000D03*
X53310000Y-41450000D03*
X55850000Y-41450000D03*
X58390000Y-41450000D03*
X60930000Y-41450000D03*
X63470000Y-41450000D03*
X63470000Y-33830000D03*
X60930000Y-33830000D03*
X58390000Y-33830000D03*
X55850000Y-33830000D03*
X53310000Y-33830000D03*
X50770000Y-33830000D03*
X48230000Y-33830000D03*
X45690000Y-33830000D03*
X43150000Y-33830000D03*
X40610000Y-33830000D03*
%TD*%
D13*
%TO.C,C1*%
X97760000Y-65580000D03*
X97760000Y-63040000D03*
%TD*%
%TO.C,C16*%
X35530000Y-66850000D03*
X35530000Y-64310000D03*
%TD*%
D20*
%TO.C,C30*%
X186660000Y-51610000D03*
D10*
X188660000Y-51610000D03*
%TD*%
D11*
%TO.C,IC28*%
X40610000Y-69390000D03*
X43150000Y-69390000D03*
X45690000Y-69390000D03*
X48230000Y-69390000D03*
X50770000Y-69390000D03*
X53310000Y-69390000D03*
X55850000Y-69390000D03*
X58390000Y-69390000D03*
X60930000Y-69390000D03*
X63470000Y-69390000D03*
X63470000Y-61770000D03*
X60930000Y-61770000D03*
X58390000Y-61770000D03*
X55850000Y-61770000D03*
X53310000Y-61770000D03*
X50770000Y-61770000D03*
X48230000Y-61770000D03*
X45690000Y-61770000D03*
X43150000Y-61770000D03*
X40610000Y-61770000D03*
%TD*%
D13*
%TO.C,C8*%
X157450000Y-18590000D03*
X157450000Y-16050000D03*
%TD*%
D11*
%TO.C,IC10*%
X74900000Y-83360000D03*
X77440000Y-83360000D03*
X79980000Y-83360000D03*
X82520000Y-83360000D03*
X85060000Y-83360000D03*
X87600000Y-83360000D03*
X90140000Y-83360000D03*
X90140000Y-75740000D03*
X87600000Y-75740000D03*
X85060000Y-75740000D03*
X82520000Y-75740000D03*
X79980000Y-75740000D03*
X77440000Y-75740000D03*
X74900000Y-75740000D03*
%TD*%
%TO.C,IC4*%
X162530000Y-35100000D03*
X165070000Y-35100000D03*
X167610000Y-35100000D03*
X170150000Y-35100000D03*
X172690000Y-35100000D03*
X175230000Y-35100000D03*
X177770000Y-35100000D03*
X177770000Y-27480000D03*
X175230000Y-27480000D03*
X172690000Y-27480000D03*
X170150000Y-27480000D03*
X167610000Y-27480000D03*
X165070000Y-27480000D03*
X162530000Y-27480000D03*
%TD*%
D16*
%TO.C,IC31*%
X157450000Y-90980000D03*
D10*
X159990000Y-90980000D03*
X162530000Y-90980000D03*
X165070000Y-90980000D03*
X167610000Y-90980000D03*
X170150000Y-90980000D03*
X172690000Y-90980000D03*
X172690000Y-83360000D03*
X170150000Y-83360000D03*
X167610000Y-83360000D03*
X165070000Y-83360000D03*
X162530000Y-83360000D03*
X159990000Y-83360000D03*
X157450000Y-83360000D03*
%TD*%
D11*
%TO.C,IC1*%
X102840000Y-71930000D03*
X105380000Y-71930000D03*
X107920000Y-71930000D03*
X110460000Y-71930000D03*
X113000000Y-71930000D03*
X115540000Y-71930000D03*
X118080000Y-71930000D03*
X120620000Y-71930000D03*
X123160000Y-71930000D03*
X125700000Y-71930000D03*
X128240000Y-71930000D03*
X130780000Y-71930000D03*
X133320000Y-71930000D03*
X135860000Y-71930000D03*
X135860000Y-56690000D03*
X133320000Y-56690000D03*
X130780000Y-56690000D03*
X128240000Y-56690000D03*
X125700000Y-56690000D03*
X123160000Y-56690000D03*
X120620000Y-56690000D03*
X118080000Y-56690000D03*
X115540000Y-56690000D03*
X113000000Y-56690000D03*
X110460000Y-56690000D03*
X107920000Y-56690000D03*
X105380000Y-56690000D03*
X102840000Y-56690000D03*
%TD*%
D10*
%TO.C,C27*%
X152370000Y-75740000D03*
X152370000Y-70740000D03*
%TD*%
D11*
%TO.C,IC13*%
X102840000Y-50340000D03*
X105380000Y-50340000D03*
X107920000Y-50340000D03*
X110460000Y-50340000D03*
X113000000Y-50340000D03*
X115540000Y-50340000D03*
X118080000Y-50340000D03*
X120620000Y-50340000D03*
X123160000Y-50340000D03*
X125700000Y-50340000D03*
X128240000Y-50340000D03*
X130780000Y-50340000D03*
X133320000Y-50340000D03*
X135860000Y-50340000D03*
X135860000Y-35100000D03*
X133320000Y-35100000D03*
X130780000Y-35100000D03*
X128240000Y-35100000D03*
X125700000Y-35100000D03*
X123160000Y-35100000D03*
X120620000Y-35100000D03*
X118080000Y-35100000D03*
X115540000Y-35100000D03*
X113000000Y-35100000D03*
X110460000Y-35100000D03*
X107920000Y-35100000D03*
X105380000Y-35100000D03*
X102840000Y-35100000D03*
%TD*%
D10*
%TO.C,R10*%
X179040000Y-79550000D03*
X179040000Y-69390000D03*
%TD*%
D16*
%TO.C,IC34*%
X157450000Y-104950000D03*
D10*
X159990000Y-104950000D03*
X162530000Y-104950000D03*
X165070000Y-104950000D03*
X167610000Y-104950000D03*
X170150000Y-104950000D03*
X172690000Y-104950000D03*
X175230000Y-104950000D03*
X177770000Y-104950000D03*
X180310000Y-104950000D03*
X180310000Y-97330000D03*
X177770000Y-97330000D03*
X175230000Y-97330000D03*
X172690000Y-97330000D03*
X170150000Y-97330000D03*
X167610000Y-97330000D03*
X165070000Y-97330000D03*
X162530000Y-97330000D03*
X159990000Y-97330000D03*
X157450000Y-97330000D03*
%TD*%
D11*
%TO.C,IC7*%
X162530000Y-21130000D03*
X165070000Y-21130000D03*
X167610000Y-21130000D03*
X170150000Y-21130000D03*
X172690000Y-21130000D03*
X175230000Y-21130000D03*
X177770000Y-21130000D03*
X180310000Y-21130000D03*
X180310000Y-13510000D03*
X177770000Y-13510000D03*
X175230000Y-13510000D03*
X172690000Y-13510000D03*
X170150000Y-13510000D03*
X167610000Y-13510000D03*
X165070000Y-13510000D03*
X162530000Y-13510000D03*
%TD*%
D13*
%TO.C,C6*%
X69820000Y-94790000D03*
X69820000Y-92250000D03*
%TD*%
D11*
%TO.C,IC15*%
X102840000Y-107490000D03*
X105380000Y-107490000D03*
X107920000Y-107490000D03*
X110460000Y-107490000D03*
X113000000Y-107490000D03*
X115540000Y-107490000D03*
X118080000Y-107490000D03*
X118080000Y-99870000D03*
X115540000Y-99870000D03*
X113000000Y-99870000D03*
X110460000Y-99870000D03*
X107920000Y-99870000D03*
X105380000Y-99870000D03*
X102840000Y-99870000D03*
%TD*%
D21*
%TO.C,U$1*%
X102840000Y-18590000D03*
X105380000Y-18590000D03*
X107920000Y-18590000D03*
X110460000Y-18590000D03*
X113000000Y-18590000D03*
X115540000Y-18590000D03*
X118080000Y-18590000D03*
X120620000Y-18590000D03*
X102840000Y-21130000D03*
X105380000Y-21130000D03*
X107920000Y-21130000D03*
X110460000Y-21130000D03*
X113000000Y-21130000D03*
X115540000Y-21130000D03*
X118080000Y-21130000D03*
X120620000Y-21130000D03*
X102840000Y-23670000D03*
X105380000Y-23670000D03*
X107920000Y-23670000D03*
X110460000Y-23670000D03*
X113000000Y-23670000D03*
X115540000Y-23670000D03*
X118080000Y-23670000D03*
X120620000Y-23670000D03*
%TD*%
D17*
%TO.C,H2*%
X166340000Y-59900000D03*
%TD*%
D10*
%TO.C,C25*%
X157450000Y-46530000D03*
X157450000Y-41530000D03*
%TD*%
D13*
%TO.C,C18*%
X69820000Y-108760000D03*
X69820000Y-106220000D03*
%TD*%
%TO.C,C9*%
X69820000Y-80820000D03*
X69820000Y-78280000D03*
%TD*%
%TO.C,C5*%
X35530000Y-94790000D03*
X35530000Y-92250000D03*
%TD*%
D10*
%TO.C,C29*%
X152370000Y-103680000D03*
X152370000Y-98680000D03*
%TD*%
D11*
%TO.C,RN6*%
X40610000Y-110030000D03*
X43150000Y-110030000D03*
X45690000Y-110030000D03*
X48230000Y-110030000D03*
X50770000Y-110030000D03*
X53310000Y-110030000D03*
X55850000Y-110030000D03*
X58390000Y-110030000D03*
X60930000Y-110030000D03*
%TD*%
D13*
%TO.C,C15*%
X35530000Y-24940000D03*
X35530000Y-22400000D03*
%TD*%
D10*
%TO.C,R12*%
X186660000Y-79550000D03*
X186660000Y-69390000D03*
%TD*%
D22*
%TO.C,JP1*%
X22830000Y-14780000D03*
X25370000Y-14780000D03*
X27910000Y-14780000D03*
%TD*%
D23*
%TO.C,J2*%
X144750000Y-110030000D03*
D19*
X142210000Y-110030000D03*
X144750000Y-107490000D03*
X142210000Y-107490000D03*
X144750000Y-104950000D03*
X142210000Y-104950000D03*
X144750000Y-102410000D03*
X142210000Y-102410000D03*
X144750000Y-99870000D03*
X142210000Y-99870000D03*
X144750000Y-97330000D03*
X142210000Y-97330000D03*
X144750000Y-94790000D03*
X142210000Y-94790000D03*
X144750000Y-92250000D03*
X142210000Y-92250000D03*
X144750000Y-89710000D03*
X142210000Y-89710000D03*
X144750000Y-87170000D03*
X142210000Y-87170000D03*
X144750000Y-84630000D03*
X142210000Y-84630000D03*
X144750000Y-82090000D03*
X142210000Y-82090000D03*
X144750000Y-79550000D03*
X142210000Y-79550000D03*
X144750000Y-77010000D03*
X142210000Y-77010000D03*
X144750000Y-74470000D03*
X142210000Y-74470000D03*
X144750000Y-71930000D03*
X142210000Y-71930000D03*
X144750000Y-69390000D03*
X142210000Y-69390000D03*
X144750000Y-66850000D03*
X142210000Y-66850000D03*
X144750000Y-64310000D03*
X142210000Y-64310000D03*
X144750000Y-61770000D03*
X142210000Y-61770000D03*
%TD*%
D13*
%TO.C,C12*%
X69820000Y-52880000D03*
X69820000Y-50340000D03*
%TD*%
D11*
%TO.C,IC6*%
X74900000Y-41450000D03*
X77440000Y-41450000D03*
X79980000Y-41450000D03*
X82520000Y-41450000D03*
X85060000Y-41450000D03*
X87600000Y-41450000D03*
X90140000Y-41450000D03*
X90140000Y-33830000D03*
X87600000Y-33830000D03*
X85060000Y-33830000D03*
X82520000Y-33830000D03*
X79980000Y-33830000D03*
X77440000Y-33830000D03*
X74900000Y-33830000D03*
%TD*%
D13*
%TO.C,C13*%
X69820000Y-24940000D03*
X69820000Y-22400000D03*
%TD*%
D11*
%TO.C,IC14*%
X74900000Y-27480000D03*
X77440000Y-27480000D03*
X79980000Y-27480000D03*
X82520000Y-27480000D03*
X85060000Y-27480000D03*
X87600000Y-27480000D03*
X90140000Y-27480000D03*
X90140000Y-19860000D03*
X87600000Y-19860000D03*
X85060000Y-19860000D03*
X82520000Y-19860000D03*
X79980000Y-19860000D03*
X77440000Y-19860000D03*
X74900000Y-19860000D03*
%TD*%
D13*
%TO.C,C7*%
X157450000Y-32560000D03*
X157450000Y-30020000D03*
%TD*%
D16*
%TO.C,IC33*%
X176500000Y-115110000D03*
D10*
X179040000Y-115110000D03*
X181580000Y-115110000D03*
X184120000Y-115110000D03*
X186660000Y-115110000D03*
X189200000Y-115110000D03*
X191740000Y-115110000D03*
X191740000Y-107490000D03*
X189200000Y-107490000D03*
X186660000Y-107490000D03*
X184120000Y-107490000D03*
X181580000Y-107490000D03*
X179040000Y-107490000D03*
X176500000Y-107490000D03*
%TD*%
D13*
%TO.C,C3*%
X97760000Y-59230000D03*
X97760000Y-56690000D03*
%TD*%
%TO.C,C4*%
X35530000Y-80820000D03*
X35530000Y-78280000D03*
%TD*%
D11*
%TO.C,RN5*%
X40610000Y-104950000D03*
X43150000Y-104950000D03*
X45690000Y-104950000D03*
X48230000Y-104950000D03*
X50770000Y-104950000D03*
X53310000Y-104950000D03*
X55850000Y-104950000D03*
X58390000Y-104950000D03*
X60930000Y-104950000D03*
%TD*%
D13*
%TO.C,C19*%
X97760000Y-104950000D03*
X97760000Y-102410000D03*
%TD*%
%TO.C,C24*%
X125700000Y-19860000D03*
X125700000Y-17320000D03*
%TD*%
D24*
%TO.C,PWR0*%
X193010000Y-120190000D03*
X190470000Y-120190000D03*
%TD*%
D18*
%TO.C,J3*%
X157450000Y-52880000D03*
D19*
X159990000Y-52880000D03*
X162530000Y-52880000D03*
X165070000Y-52880000D03*
%TD*%
D13*
%TO.C,C17*%
X35530000Y-38910000D03*
X35530000Y-36370000D03*
%TD*%
D16*
%TO.C,IC32*%
X157450000Y-77010000D03*
D10*
X159990000Y-77010000D03*
X162530000Y-77010000D03*
X165070000Y-77010000D03*
X167610000Y-77010000D03*
X170150000Y-77010000D03*
X172690000Y-77010000D03*
X175230000Y-77010000D03*
X175230000Y-69390000D03*
X172690000Y-69390000D03*
X170150000Y-69390000D03*
X167610000Y-69390000D03*
X165070000Y-69390000D03*
X162530000Y-69390000D03*
X159990000Y-69390000D03*
X157450000Y-69390000D03*
%TD*%
D25*
%TO.C,LED1*%
X184120000Y-120190000D03*
D26*
X181580000Y-120190000D03*
%TD*%
D11*
%TO.C,IC27*%
X40610000Y-27480000D03*
X43150000Y-27480000D03*
X45690000Y-27480000D03*
X48230000Y-27480000D03*
X50770000Y-27480000D03*
X53310000Y-27480000D03*
X55850000Y-27480000D03*
X58390000Y-27480000D03*
X60930000Y-27480000D03*
X63470000Y-27480000D03*
X63470000Y-19860000D03*
X60930000Y-19860000D03*
X58390000Y-19860000D03*
X55850000Y-19860000D03*
X53310000Y-19860000D03*
X50770000Y-19860000D03*
X48230000Y-19860000D03*
X45690000Y-19860000D03*
X43150000Y-19860000D03*
X40610000Y-19860000D03*
%TD*%
D27*
%TO.C,RN9*%
X191740000Y-103680000D03*
D10*
X191740000Y-101140000D03*
X191740000Y-98600000D03*
X191740000Y-96060000D03*
X191740000Y-93520000D03*
X191740000Y-90980000D03*
X191740000Y-88440000D03*
X191740000Y-85900000D03*
X191740000Y-83360000D03*
%TD*%
M02*
