%TF.GenerationSoftware,KiCad,Pcbnew,10.0.6*%
%TF.CreationDate,2026-09-25T08:16:39-04:00*%
%TF.ProjectId,memory-v2.0,6d656d6f-7279-42d7-9632-2e302e6b6963,2.0*%
%TF.SameCoordinates,Original*%
%TF.FileFunction,Drillmap*%
%TF.FilePolarity,Positive*%
%FSLAX45Y45*%
G04 Gerber Fmt 4.5, Leading zero omitted, Abs format (unit mm)*
G04 Created by KiCad (PCBNEW 10.0.6) date 2026-09-25 08:16:39*
%MOMM*%
%LPD*%
G01*
G04 APERTURE LIST*
%ADD10C,0.050000*%
%ADD11C,0.200000*%
%ADD12C,0.279400*%
%ADD13C,0.320000*%
G04 APERTURE END LIST*
D10*
X1774700Y-1002500D02*
X1774700Y-12399500D01*
X1774700Y-12399500D02*
X19552700Y-12399500D01*
X19552700Y-1002500D02*
X1774700Y-1002500D01*
X19552700Y-12399500D02*
X19552700Y-1002500D01*
D11*
D12*
X1889000Y-2099160D02*
X2168400Y-2378560D01*
X2168400Y-2099160D02*
X1889000Y-2378560D01*
X1889000Y-10990440D02*
X2168400Y-11269840D01*
X2168400Y-10990440D02*
X1889000Y-11269840D01*
D13*
X16794000Y-5990000D02*
G75*
G02*
X16474000Y-5990000I-160000J0D01*
G01*
X16474000Y-5990000D02*
G75*
G02*
X16794000Y-5990000I160000J0D01*
G01*
X16794000Y-11190000D02*
G75*
G02*
X16474000Y-11190000I-160000J0D01*
G01*
X16474000Y-11190000D02*
G75*
G02*
X16794000Y-11190000I160000J0D01*
G01*
D11*
X2032977Y-12713484D02*
X2032977Y-12513484D01*
X2032977Y-12513484D02*
X2080596Y-12513484D01*
X2080596Y-12513484D02*
X2109167Y-12523008D01*
X2109167Y-12523008D02*
X2128215Y-12542055D01*
X2128215Y-12542055D02*
X2137739Y-12561103D01*
X2137739Y-12561103D02*
X2147263Y-12599198D01*
X2147263Y-12599198D02*
X2147263Y-12627769D01*
X2147263Y-12627769D02*
X2137739Y-12665865D01*
X2137739Y-12665865D02*
X2128215Y-12684912D01*
X2128215Y-12684912D02*
X2109167Y-12703960D01*
X2109167Y-12703960D02*
X2080596Y-12713484D01*
X2080596Y-12713484D02*
X2032977Y-12713484D01*
X2232977Y-12713484D02*
X2232977Y-12580150D01*
X2232977Y-12618246D02*
X2242501Y-12599198D01*
X2242501Y-12599198D02*
X2252024Y-12589674D01*
X2252024Y-12589674D02*
X2271072Y-12580150D01*
X2271072Y-12580150D02*
X2290120Y-12580150D01*
X2356786Y-12713484D02*
X2356786Y-12580150D01*
X2356786Y-12513484D02*
X2347263Y-12523008D01*
X2347263Y-12523008D02*
X2356786Y-12532531D01*
X2356786Y-12532531D02*
X2366310Y-12523008D01*
X2366310Y-12523008D02*
X2356786Y-12513484D01*
X2356786Y-12513484D02*
X2356786Y-12532531D01*
X2480596Y-12713484D02*
X2461548Y-12703960D01*
X2461548Y-12703960D02*
X2452024Y-12684912D01*
X2452024Y-12684912D02*
X2452024Y-12513484D01*
X2585358Y-12713484D02*
X2566310Y-12703960D01*
X2566310Y-12703960D02*
X2556786Y-12684912D01*
X2556786Y-12684912D02*
X2556786Y-12513484D01*
X2813929Y-12713484D02*
X2813929Y-12513484D01*
X2813929Y-12513484D02*
X2880596Y-12656341D01*
X2880596Y-12656341D02*
X2947262Y-12513484D01*
X2947262Y-12513484D02*
X2947262Y-12713484D01*
X3128215Y-12713484D02*
X3128215Y-12608722D01*
X3128215Y-12608722D02*
X3118691Y-12589674D01*
X3118691Y-12589674D02*
X3099643Y-12580150D01*
X3099643Y-12580150D02*
X3061548Y-12580150D01*
X3061548Y-12580150D02*
X3042501Y-12589674D01*
X3128215Y-12703960D02*
X3109167Y-12713484D01*
X3109167Y-12713484D02*
X3061548Y-12713484D01*
X3061548Y-12713484D02*
X3042501Y-12703960D01*
X3042501Y-12703960D02*
X3032977Y-12684912D01*
X3032977Y-12684912D02*
X3032977Y-12665865D01*
X3032977Y-12665865D02*
X3042501Y-12646817D01*
X3042501Y-12646817D02*
X3061548Y-12637293D01*
X3061548Y-12637293D02*
X3109167Y-12637293D01*
X3109167Y-12637293D02*
X3128215Y-12627769D01*
X3223453Y-12580150D02*
X3223453Y-12780150D01*
X3223453Y-12589674D02*
X3242501Y-12580150D01*
X3242501Y-12580150D02*
X3280596Y-12580150D01*
X3280596Y-12580150D02*
X3299643Y-12589674D01*
X3299643Y-12589674D02*
X3309167Y-12599198D01*
X3309167Y-12599198D02*
X3318691Y-12618246D01*
X3318691Y-12618246D02*
X3318691Y-12675388D01*
X3318691Y-12675388D02*
X3309167Y-12694436D01*
X3309167Y-12694436D02*
X3299643Y-12703960D01*
X3299643Y-12703960D02*
X3280596Y-12713484D01*
X3280596Y-12713484D02*
X3242501Y-12713484D01*
X3242501Y-12713484D02*
X3223453Y-12703960D01*
X3404405Y-12694436D02*
X3413929Y-12703960D01*
X3413929Y-12703960D02*
X3404405Y-12713484D01*
X3404405Y-12713484D02*
X3394882Y-12703960D01*
X3394882Y-12703960D02*
X3404405Y-12694436D01*
X3404405Y-12694436D02*
X3404405Y-12713484D01*
X3404405Y-12589674D02*
X3413929Y-12599198D01*
X3413929Y-12599198D02*
X3404405Y-12608722D01*
X3404405Y-12608722D02*
X3394882Y-12599198D01*
X3394882Y-12599198D02*
X3404405Y-12589674D01*
X3404405Y-12589674D02*
X3404405Y-12608722D01*
X1572200Y-12942000D02*
X1772200Y-13142000D01*
X1772200Y-12942000D02*
X1572200Y-13142000D01*
X2023453Y-12952531D02*
X2032977Y-12943008D01*
X2032977Y-12943008D02*
X2052024Y-12933484D01*
X2052024Y-12933484D02*
X2099644Y-12933484D01*
X2099644Y-12933484D02*
X2118691Y-12943008D01*
X2118691Y-12943008D02*
X2128215Y-12952531D01*
X2128215Y-12952531D02*
X2137739Y-12971579D01*
X2137739Y-12971579D02*
X2137739Y-12990627D01*
X2137739Y-12990627D02*
X2128215Y-13019198D01*
X2128215Y-13019198D02*
X2013929Y-13133484D01*
X2013929Y-13133484D02*
X2137739Y-13133484D01*
X2223453Y-13114436D02*
X2232977Y-13123960D01*
X2232977Y-13123960D02*
X2223453Y-13133484D01*
X2223453Y-13133484D02*
X2213929Y-13123960D01*
X2213929Y-13123960D02*
X2223453Y-13114436D01*
X2223453Y-13114436D02*
X2223453Y-13133484D01*
X2299644Y-12933484D02*
X2432977Y-12933484D01*
X2432977Y-12933484D02*
X2347263Y-13133484D01*
X2518691Y-13133484D02*
X2556786Y-13133484D01*
X2556786Y-13133484D02*
X2575834Y-13123960D01*
X2575834Y-13123960D02*
X2585358Y-13114436D01*
X2585358Y-13114436D02*
X2604405Y-13085865D01*
X2604405Y-13085865D02*
X2613929Y-13047769D01*
X2613929Y-13047769D02*
X2613929Y-12971579D01*
X2613929Y-12971579D02*
X2604405Y-12952531D01*
X2604405Y-12952531D02*
X2594882Y-12943008D01*
X2594882Y-12943008D02*
X2575834Y-12933484D01*
X2575834Y-12933484D02*
X2537739Y-12933484D01*
X2537739Y-12933484D02*
X2518691Y-12943008D01*
X2518691Y-12943008D02*
X2509167Y-12952531D01*
X2509167Y-12952531D02*
X2499644Y-12971579D01*
X2499644Y-12971579D02*
X2499644Y-13019198D01*
X2499644Y-13019198D02*
X2509167Y-13038246D01*
X2509167Y-13038246D02*
X2518691Y-13047769D01*
X2518691Y-13047769D02*
X2537739Y-13057293D01*
X2537739Y-13057293D02*
X2575834Y-13057293D01*
X2575834Y-13057293D02*
X2594882Y-13047769D01*
X2594882Y-13047769D02*
X2604405Y-13038246D01*
X2604405Y-13038246D02*
X2613929Y-13019198D01*
X2785358Y-13000150D02*
X2785358Y-13133484D01*
X2737739Y-12923960D02*
X2690120Y-13066817D01*
X2690120Y-13066817D02*
X2813929Y-13066817D01*
X2890120Y-13133484D02*
X2890120Y-13000150D01*
X2890120Y-13019198D02*
X2899643Y-13009674D01*
X2899643Y-13009674D02*
X2918691Y-13000150D01*
X2918691Y-13000150D02*
X2947263Y-13000150D01*
X2947263Y-13000150D02*
X2966310Y-13009674D01*
X2966310Y-13009674D02*
X2975834Y-13028722D01*
X2975834Y-13028722D02*
X2975834Y-13133484D01*
X2975834Y-13028722D02*
X2985358Y-13009674D01*
X2985358Y-13009674D02*
X3004405Y-13000150D01*
X3004405Y-13000150D02*
X3032977Y-13000150D01*
X3032977Y-13000150D02*
X3052024Y-13009674D01*
X3052024Y-13009674D02*
X3061548Y-13028722D01*
X3061548Y-13028722D02*
X3061548Y-13133484D01*
X3156786Y-13133484D02*
X3156786Y-13000150D01*
X3156786Y-13019198D02*
X3166310Y-13009674D01*
X3166310Y-13009674D02*
X3185358Y-13000150D01*
X3185358Y-13000150D02*
X3213929Y-13000150D01*
X3213929Y-13000150D02*
X3232977Y-13009674D01*
X3232977Y-13009674D02*
X3242501Y-13028722D01*
X3242501Y-13028722D02*
X3242501Y-13133484D01*
X3242501Y-13028722D02*
X3252024Y-13009674D01*
X3252024Y-13009674D02*
X3271072Y-13000150D01*
X3271072Y-13000150D02*
X3299643Y-13000150D01*
X3299643Y-13000150D02*
X3318691Y-13009674D01*
X3318691Y-13009674D02*
X3328215Y-13028722D01*
X3328215Y-13028722D02*
X3328215Y-13133484D01*
X3718691Y-12923960D02*
X3547263Y-13181103D01*
X3975834Y-12933484D02*
X3994882Y-12933484D01*
X3994882Y-12933484D02*
X4013929Y-12943008D01*
X4013929Y-12943008D02*
X4023453Y-12952531D01*
X4023453Y-12952531D02*
X4032977Y-12971579D01*
X4032977Y-12971579D02*
X4042501Y-13009674D01*
X4042501Y-13009674D02*
X4042501Y-13057293D01*
X4042501Y-13057293D02*
X4032977Y-13095388D01*
X4032977Y-13095388D02*
X4023453Y-13114436D01*
X4023453Y-13114436D02*
X4013929Y-13123960D01*
X4013929Y-13123960D02*
X3994882Y-13133484D01*
X3994882Y-13133484D02*
X3975834Y-13133484D01*
X3975834Y-13133484D02*
X3956786Y-13123960D01*
X3956786Y-13123960D02*
X3947263Y-13114436D01*
X3947263Y-13114436D02*
X3937739Y-13095388D01*
X3937739Y-13095388D02*
X3928215Y-13057293D01*
X3928215Y-13057293D02*
X3928215Y-13009674D01*
X3928215Y-13009674D02*
X3937739Y-12971579D01*
X3937739Y-12971579D02*
X3947263Y-12952531D01*
X3947263Y-12952531D02*
X3956786Y-12943008D01*
X3956786Y-12943008D02*
X3975834Y-12933484D01*
X4128215Y-13114436D02*
X4137739Y-13123960D01*
X4137739Y-13123960D02*
X4128215Y-13133484D01*
X4128215Y-13133484D02*
X4118691Y-13123960D01*
X4118691Y-13123960D02*
X4128215Y-13114436D01*
X4128215Y-13114436D02*
X4128215Y-13133484D01*
X4328215Y-13133484D02*
X4213929Y-13133484D01*
X4271072Y-13133484D02*
X4271072Y-12933484D01*
X4271072Y-12933484D02*
X4252025Y-12962055D01*
X4252025Y-12962055D02*
X4232977Y-12981103D01*
X4232977Y-12981103D02*
X4213929Y-12990627D01*
X4518691Y-13133484D02*
X4404406Y-13133484D01*
X4461548Y-13133484D02*
X4461548Y-12933484D01*
X4461548Y-12933484D02*
X4442501Y-12962055D01*
X4442501Y-12962055D02*
X4423453Y-12981103D01*
X4423453Y-12981103D02*
X4404406Y-12990627D01*
X4642501Y-12933484D02*
X4661549Y-12933484D01*
X4661549Y-12933484D02*
X4680596Y-12943008D01*
X4680596Y-12943008D02*
X4690120Y-12952531D01*
X4690120Y-12952531D02*
X4699644Y-12971579D01*
X4699644Y-12971579D02*
X4709168Y-13009674D01*
X4709168Y-13009674D02*
X4709168Y-13057293D01*
X4709168Y-13057293D02*
X4699644Y-13095388D01*
X4699644Y-13095388D02*
X4690120Y-13114436D01*
X4690120Y-13114436D02*
X4680596Y-13123960D01*
X4680596Y-13123960D02*
X4661549Y-13133484D01*
X4661549Y-13133484D02*
X4642501Y-13133484D01*
X4642501Y-13133484D02*
X4623453Y-13123960D01*
X4623453Y-13123960D02*
X4613929Y-13114436D01*
X4613929Y-13114436D02*
X4604406Y-13095388D01*
X4604406Y-13095388D02*
X4594882Y-13057293D01*
X4594882Y-13057293D02*
X4594882Y-13009674D01*
X4594882Y-13009674D02*
X4604406Y-12971579D01*
X4604406Y-12971579D02*
X4613929Y-12952531D01*
X4613929Y-12952531D02*
X4623453Y-12943008D01*
X4623453Y-12943008D02*
X4642501Y-12933484D01*
X4832977Y-12933484D02*
X4852025Y-12933484D01*
X4852025Y-12933484D02*
X4871072Y-12943008D01*
X4871072Y-12943008D02*
X4880596Y-12952531D01*
X4880596Y-12952531D02*
X4890120Y-12971579D01*
X4890120Y-12971579D02*
X4899644Y-13009674D01*
X4899644Y-13009674D02*
X4899644Y-13057293D01*
X4899644Y-13057293D02*
X4890120Y-13095388D01*
X4890120Y-13095388D02*
X4880596Y-13114436D01*
X4880596Y-13114436D02*
X4871072Y-13123960D01*
X4871072Y-13123960D02*
X4852025Y-13133484D01*
X4852025Y-13133484D02*
X4832977Y-13133484D01*
X4832977Y-13133484D02*
X4813929Y-13123960D01*
X4813929Y-13123960D02*
X4804406Y-13114436D01*
X4804406Y-13114436D02*
X4794882Y-13095388D01*
X4794882Y-13095388D02*
X4785358Y-13057293D01*
X4785358Y-13057293D02*
X4785358Y-13009674D01*
X4785358Y-13009674D02*
X4794882Y-12971579D01*
X4794882Y-12971579D02*
X4804406Y-12952531D01*
X4804406Y-12952531D02*
X4813929Y-12943008D01*
X4813929Y-12943008D02*
X4832977Y-12933484D01*
X4975834Y-12933484D02*
X4975834Y-12971579D01*
X5052025Y-12933484D02*
X5052025Y-12971579D01*
X5347263Y-13209674D02*
X5337739Y-13200150D01*
X5337739Y-13200150D02*
X5318691Y-13171579D01*
X5318691Y-13171579D02*
X5309168Y-13152531D01*
X5309168Y-13152531D02*
X5299644Y-13123960D01*
X5299644Y-13123960D02*
X5290120Y-13076341D01*
X5290120Y-13076341D02*
X5290120Y-13038246D01*
X5290120Y-13038246D02*
X5299644Y-12990627D01*
X5299644Y-12990627D02*
X5309168Y-12962055D01*
X5309168Y-12962055D02*
X5318691Y-12943008D01*
X5318691Y-12943008D02*
X5337739Y-12914436D01*
X5337739Y-12914436D02*
X5347263Y-12904912D01*
X5413930Y-12952531D02*
X5423453Y-12943008D01*
X5423453Y-12943008D02*
X5442501Y-12933484D01*
X5442501Y-12933484D02*
X5490120Y-12933484D01*
X5490120Y-12933484D02*
X5509168Y-12943008D01*
X5509168Y-12943008D02*
X5518691Y-12952531D01*
X5518691Y-12952531D02*
X5528215Y-12971579D01*
X5528215Y-12971579D02*
X5528215Y-12990627D01*
X5528215Y-12990627D02*
X5518691Y-13019198D01*
X5518691Y-13019198D02*
X5404406Y-13133484D01*
X5404406Y-13133484D02*
X5528215Y-13133484D01*
X5766310Y-13133484D02*
X5766310Y-12933484D01*
X5852025Y-13133484D02*
X5852025Y-13028722D01*
X5852025Y-13028722D02*
X5842501Y-13009674D01*
X5842501Y-13009674D02*
X5823453Y-13000150D01*
X5823453Y-13000150D02*
X5794882Y-13000150D01*
X5794882Y-13000150D02*
X5775834Y-13009674D01*
X5775834Y-13009674D02*
X5766310Y-13019198D01*
X5975834Y-13133484D02*
X5956787Y-13123960D01*
X5956787Y-13123960D02*
X5947263Y-13114436D01*
X5947263Y-13114436D02*
X5937739Y-13095388D01*
X5937739Y-13095388D02*
X5937739Y-13038246D01*
X5937739Y-13038246D02*
X5947263Y-13019198D01*
X5947263Y-13019198D02*
X5956787Y-13009674D01*
X5956787Y-13009674D02*
X5975834Y-13000150D01*
X5975834Y-13000150D02*
X6004406Y-13000150D01*
X6004406Y-13000150D02*
X6023453Y-13009674D01*
X6023453Y-13009674D02*
X6032977Y-13019198D01*
X6032977Y-13019198D02*
X6042501Y-13038246D01*
X6042501Y-13038246D02*
X6042501Y-13095388D01*
X6042501Y-13095388D02*
X6032977Y-13114436D01*
X6032977Y-13114436D02*
X6023453Y-13123960D01*
X6023453Y-13123960D02*
X6004406Y-13133484D01*
X6004406Y-13133484D02*
X5975834Y-13133484D01*
X6156787Y-13133484D02*
X6137739Y-13123960D01*
X6137739Y-13123960D02*
X6128215Y-13104912D01*
X6128215Y-13104912D02*
X6128215Y-12933484D01*
X6309168Y-13123960D02*
X6290120Y-13133484D01*
X6290120Y-13133484D02*
X6252025Y-13133484D01*
X6252025Y-13133484D02*
X6232977Y-13123960D01*
X6232977Y-13123960D02*
X6223453Y-13104912D01*
X6223453Y-13104912D02*
X6223453Y-13028722D01*
X6223453Y-13028722D02*
X6232977Y-13009674D01*
X6232977Y-13009674D02*
X6252025Y-13000150D01*
X6252025Y-13000150D02*
X6290120Y-13000150D01*
X6290120Y-13000150D02*
X6309168Y-13009674D01*
X6309168Y-13009674D02*
X6318691Y-13028722D01*
X6318691Y-13028722D02*
X6318691Y-13047769D01*
X6318691Y-13047769D02*
X6223453Y-13066817D01*
X6394882Y-13123960D02*
X6413930Y-13133484D01*
X6413930Y-13133484D02*
X6452025Y-13133484D01*
X6452025Y-13133484D02*
X6471072Y-13123960D01*
X6471072Y-13123960D02*
X6480596Y-13104912D01*
X6480596Y-13104912D02*
X6480596Y-13095388D01*
X6480596Y-13095388D02*
X6471072Y-13076341D01*
X6471072Y-13076341D02*
X6452025Y-13066817D01*
X6452025Y-13066817D02*
X6423453Y-13066817D01*
X6423453Y-13066817D02*
X6404406Y-13057293D01*
X6404406Y-13057293D02*
X6394882Y-13038246D01*
X6394882Y-13038246D02*
X6394882Y-13028722D01*
X6394882Y-13028722D02*
X6404406Y-13009674D01*
X6404406Y-13009674D02*
X6423453Y-13000150D01*
X6423453Y-13000150D02*
X6452025Y-13000150D01*
X6452025Y-13000150D02*
X6471072Y-13009674D01*
X6547263Y-13209674D02*
X6556787Y-13200150D01*
X6556787Y-13200150D02*
X6575834Y-13171579D01*
X6575834Y-13171579D02*
X6585358Y-13152531D01*
X6585358Y-13152531D02*
X6594882Y-13123960D01*
X6594882Y-13123960D02*
X6604406Y-13076341D01*
X6604406Y-13076341D02*
X6604406Y-13038246D01*
X6604406Y-13038246D02*
X6594882Y-12990627D01*
X6594882Y-12990627D02*
X6585358Y-12962055D01*
X6585358Y-12962055D02*
X6575834Y-12943008D01*
X6575834Y-12943008D02*
X6556787Y-12914436D01*
X6556787Y-12914436D02*
X6547263Y-12904912D01*
X6909168Y-13209674D02*
X6899644Y-13200150D01*
X6899644Y-13200150D02*
X6880596Y-13171579D01*
X6880596Y-13171579D02*
X6871072Y-13152531D01*
X6871072Y-13152531D02*
X6861549Y-13123960D01*
X6861549Y-13123960D02*
X6852025Y-13076341D01*
X6852025Y-13076341D02*
X6852025Y-13038246D01*
X6852025Y-13038246D02*
X6861549Y-12990627D01*
X6861549Y-12990627D02*
X6871072Y-12962055D01*
X6871072Y-12962055D02*
X6880596Y-12943008D01*
X6880596Y-12943008D02*
X6899644Y-12914436D01*
X6899644Y-12914436D02*
X6909168Y-12904912D01*
X6985358Y-13000150D02*
X6985358Y-13133484D01*
X6985358Y-13019198D02*
X6994882Y-13009674D01*
X6994882Y-13009674D02*
X7013930Y-13000150D01*
X7013930Y-13000150D02*
X7042501Y-13000150D01*
X7042501Y-13000150D02*
X7061549Y-13009674D01*
X7061549Y-13009674D02*
X7071072Y-13028722D01*
X7071072Y-13028722D02*
X7071072Y-13133484D01*
X7194882Y-13133484D02*
X7175834Y-13123960D01*
X7175834Y-13123960D02*
X7166311Y-13114436D01*
X7166311Y-13114436D02*
X7156787Y-13095388D01*
X7156787Y-13095388D02*
X7156787Y-13038246D01*
X7156787Y-13038246D02*
X7166311Y-13019198D01*
X7166311Y-13019198D02*
X7175834Y-13009674D01*
X7175834Y-13009674D02*
X7194882Y-13000150D01*
X7194882Y-13000150D02*
X7223453Y-13000150D01*
X7223453Y-13000150D02*
X7242501Y-13009674D01*
X7242501Y-13009674D02*
X7252025Y-13019198D01*
X7252025Y-13019198D02*
X7261549Y-13038246D01*
X7261549Y-13038246D02*
X7261549Y-13095388D01*
X7261549Y-13095388D02*
X7252025Y-13114436D01*
X7252025Y-13114436D02*
X7242501Y-13123960D01*
X7242501Y-13123960D02*
X7223453Y-13133484D01*
X7223453Y-13133484D02*
X7194882Y-13133484D01*
X7318692Y-13000150D02*
X7394882Y-13000150D01*
X7347263Y-12933484D02*
X7347263Y-13104912D01*
X7347263Y-13104912D02*
X7356787Y-13123960D01*
X7356787Y-13123960D02*
X7375834Y-13133484D01*
X7375834Y-13133484D02*
X7394882Y-13133484D01*
X7613930Y-13000150D02*
X7613930Y-13200150D01*
X7613930Y-13009674D02*
X7632977Y-13000150D01*
X7632977Y-13000150D02*
X7671073Y-13000150D01*
X7671073Y-13000150D02*
X7690120Y-13009674D01*
X7690120Y-13009674D02*
X7699644Y-13019198D01*
X7699644Y-13019198D02*
X7709168Y-13038246D01*
X7709168Y-13038246D02*
X7709168Y-13095388D01*
X7709168Y-13095388D02*
X7699644Y-13114436D01*
X7699644Y-13114436D02*
X7690120Y-13123960D01*
X7690120Y-13123960D02*
X7671073Y-13133484D01*
X7671073Y-13133484D02*
X7632977Y-13133484D01*
X7632977Y-13133484D02*
X7613930Y-13123960D01*
X7823453Y-13133484D02*
X7804406Y-13123960D01*
X7804406Y-13123960D02*
X7794882Y-13104912D01*
X7794882Y-13104912D02*
X7794882Y-12933484D01*
X7985358Y-13133484D02*
X7985358Y-13028722D01*
X7985358Y-13028722D02*
X7975834Y-13009674D01*
X7975834Y-13009674D02*
X7956787Y-13000150D01*
X7956787Y-13000150D02*
X7918692Y-13000150D01*
X7918692Y-13000150D02*
X7899644Y-13009674D01*
X7985358Y-13123960D02*
X7966311Y-13133484D01*
X7966311Y-13133484D02*
X7918692Y-13133484D01*
X7918692Y-13133484D02*
X7899644Y-13123960D01*
X7899644Y-13123960D02*
X7890120Y-13104912D01*
X7890120Y-13104912D02*
X7890120Y-13085865D01*
X7890120Y-13085865D02*
X7899644Y-13066817D01*
X7899644Y-13066817D02*
X7918692Y-13057293D01*
X7918692Y-13057293D02*
X7966311Y-13057293D01*
X7966311Y-13057293D02*
X7985358Y-13047769D01*
X8052025Y-13000150D02*
X8128215Y-13000150D01*
X8080596Y-12933484D02*
X8080596Y-13104912D01*
X8080596Y-13104912D02*
X8090120Y-13123960D01*
X8090120Y-13123960D02*
X8109168Y-13133484D01*
X8109168Y-13133484D02*
X8128215Y-13133484D01*
X8271073Y-13123960D02*
X8252025Y-13133484D01*
X8252025Y-13133484D02*
X8213930Y-13133484D01*
X8213930Y-13133484D02*
X8194882Y-13123960D01*
X8194882Y-13123960D02*
X8185358Y-13104912D01*
X8185358Y-13104912D02*
X8185358Y-13028722D01*
X8185358Y-13028722D02*
X8194882Y-13009674D01*
X8194882Y-13009674D02*
X8213930Y-13000150D01*
X8213930Y-13000150D02*
X8252025Y-13000150D01*
X8252025Y-13000150D02*
X8271073Y-13009674D01*
X8271073Y-13009674D02*
X8280596Y-13028722D01*
X8280596Y-13028722D02*
X8280596Y-13047769D01*
X8280596Y-13047769D02*
X8185358Y-13066817D01*
X8452025Y-13133484D02*
X8452025Y-12933484D01*
X8452025Y-13123960D02*
X8432977Y-13133484D01*
X8432977Y-13133484D02*
X8394882Y-13133484D01*
X8394882Y-13133484D02*
X8375834Y-13123960D01*
X8375834Y-13123960D02*
X8366311Y-13114436D01*
X8366311Y-13114436D02*
X8356787Y-13095388D01*
X8356787Y-13095388D02*
X8356787Y-13038246D01*
X8356787Y-13038246D02*
X8366311Y-13019198D01*
X8366311Y-13019198D02*
X8375834Y-13009674D01*
X8375834Y-13009674D02*
X8394882Y-13000150D01*
X8394882Y-13000150D02*
X8432977Y-13000150D01*
X8432977Y-13000150D02*
X8452025Y-13009674D01*
X8528216Y-13209674D02*
X8537739Y-13200150D01*
X8537739Y-13200150D02*
X8556787Y-13171579D01*
X8556787Y-13171579D02*
X8566311Y-13152531D01*
X8566311Y-13152531D02*
X8575835Y-13123960D01*
X8575835Y-13123960D02*
X8585358Y-13076341D01*
X8585358Y-13076341D02*
X8585358Y-13038246D01*
X8585358Y-13038246D02*
X8575835Y-12990627D01*
X8575835Y-12990627D02*
X8566311Y-12962055D01*
X8566311Y-12962055D02*
X8556787Y-12943008D01*
X8556787Y-12943008D02*
X8537739Y-12914436D01*
X8537739Y-12914436D02*
X8528216Y-12904912D01*
X1772200Y-13362000D02*
G75*
G02*
X1572200Y-13362000I-100000J0D01*
G01*
X1572200Y-13362000D02*
G75*
G02*
X1772200Y-13362000I100000J0D01*
G01*
X2013929Y-13253484D02*
X2137739Y-13253484D01*
X2137739Y-13253484D02*
X2071072Y-13329674D01*
X2071072Y-13329674D02*
X2099644Y-13329674D01*
X2099644Y-13329674D02*
X2118691Y-13339198D01*
X2118691Y-13339198D02*
X2128215Y-13348722D01*
X2128215Y-13348722D02*
X2137739Y-13367769D01*
X2137739Y-13367769D02*
X2137739Y-13415388D01*
X2137739Y-13415388D02*
X2128215Y-13434436D01*
X2128215Y-13434436D02*
X2118691Y-13443960D01*
X2118691Y-13443960D02*
X2099644Y-13453484D01*
X2099644Y-13453484D02*
X2042501Y-13453484D01*
X2042501Y-13453484D02*
X2023453Y-13443960D01*
X2023453Y-13443960D02*
X2013929Y-13434436D01*
X2223453Y-13434436D02*
X2232977Y-13443960D01*
X2232977Y-13443960D02*
X2223453Y-13453484D01*
X2223453Y-13453484D02*
X2213929Y-13443960D01*
X2213929Y-13443960D02*
X2223453Y-13434436D01*
X2223453Y-13434436D02*
X2223453Y-13453484D01*
X2309167Y-13272531D02*
X2318691Y-13263008D01*
X2318691Y-13263008D02*
X2337739Y-13253484D01*
X2337739Y-13253484D02*
X2385358Y-13253484D01*
X2385358Y-13253484D02*
X2404405Y-13263008D01*
X2404405Y-13263008D02*
X2413929Y-13272531D01*
X2413929Y-13272531D02*
X2423453Y-13291579D01*
X2423453Y-13291579D02*
X2423453Y-13310627D01*
X2423453Y-13310627D02*
X2413929Y-13339198D01*
X2413929Y-13339198D02*
X2299644Y-13453484D01*
X2299644Y-13453484D02*
X2423453Y-13453484D01*
X2547263Y-13253484D02*
X2566310Y-13253484D01*
X2566310Y-13253484D02*
X2585358Y-13263008D01*
X2585358Y-13263008D02*
X2594882Y-13272531D01*
X2594882Y-13272531D02*
X2604405Y-13291579D01*
X2604405Y-13291579D02*
X2613929Y-13329674D01*
X2613929Y-13329674D02*
X2613929Y-13377293D01*
X2613929Y-13377293D02*
X2604405Y-13415388D01*
X2604405Y-13415388D02*
X2594882Y-13434436D01*
X2594882Y-13434436D02*
X2585358Y-13443960D01*
X2585358Y-13443960D02*
X2566310Y-13453484D01*
X2566310Y-13453484D02*
X2547263Y-13453484D01*
X2547263Y-13453484D02*
X2528215Y-13443960D01*
X2528215Y-13443960D02*
X2518691Y-13434436D01*
X2518691Y-13434436D02*
X2509167Y-13415388D01*
X2509167Y-13415388D02*
X2499644Y-13377293D01*
X2499644Y-13377293D02*
X2499644Y-13329674D01*
X2499644Y-13329674D02*
X2509167Y-13291579D01*
X2509167Y-13291579D02*
X2518691Y-13272531D01*
X2518691Y-13272531D02*
X2528215Y-13263008D01*
X2528215Y-13263008D02*
X2547263Y-13253484D01*
X2737739Y-13253484D02*
X2756786Y-13253484D01*
X2756786Y-13253484D02*
X2775834Y-13263008D01*
X2775834Y-13263008D02*
X2785358Y-13272531D01*
X2785358Y-13272531D02*
X2794882Y-13291579D01*
X2794882Y-13291579D02*
X2804405Y-13329674D01*
X2804405Y-13329674D02*
X2804405Y-13377293D01*
X2804405Y-13377293D02*
X2794882Y-13415388D01*
X2794882Y-13415388D02*
X2785358Y-13434436D01*
X2785358Y-13434436D02*
X2775834Y-13443960D01*
X2775834Y-13443960D02*
X2756786Y-13453484D01*
X2756786Y-13453484D02*
X2737739Y-13453484D01*
X2737739Y-13453484D02*
X2718691Y-13443960D01*
X2718691Y-13443960D02*
X2709167Y-13434436D01*
X2709167Y-13434436D02*
X2699644Y-13415388D01*
X2699644Y-13415388D02*
X2690120Y-13377293D01*
X2690120Y-13377293D02*
X2690120Y-13329674D01*
X2690120Y-13329674D02*
X2699644Y-13291579D01*
X2699644Y-13291579D02*
X2709167Y-13272531D01*
X2709167Y-13272531D02*
X2718691Y-13263008D01*
X2718691Y-13263008D02*
X2737739Y-13253484D01*
X2890120Y-13453484D02*
X2890120Y-13320150D01*
X2890120Y-13339198D02*
X2899643Y-13329674D01*
X2899643Y-13329674D02*
X2918691Y-13320150D01*
X2918691Y-13320150D02*
X2947263Y-13320150D01*
X2947263Y-13320150D02*
X2966310Y-13329674D01*
X2966310Y-13329674D02*
X2975834Y-13348722D01*
X2975834Y-13348722D02*
X2975834Y-13453484D01*
X2975834Y-13348722D02*
X2985358Y-13329674D01*
X2985358Y-13329674D02*
X3004405Y-13320150D01*
X3004405Y-13320150D02*
X3032977Y-13320150D01*
X3032977Y-13320150D02*
X3052024Y-13329674D01*
X3052024Y-13329674D02*
X3061548Y-13348722D01*
X3061548Y-13348722D02*
X3061548Y-13453484D01*
X3156786Y-13453484D02*
X3156786Y-13320150D01*
X3156786Y-13339198D02*
X3166310Y-13329674D01*
X3166310Y-13329674D02*
X3185358Y-13320150D01*
X3185358Y-13320150D02*
X3213929Y-13320150D01*
X3213929Y-13320150D02*
X3232977Y-13329674D01*
X3232977Y-13329674D02*
X3242501Y-13348722D01*
X3242501Y-13348722D02*
X3242501Y-13453484D01*
X3242501Y-13348722D02*
X3252024Y-13329674D01*
X3252024Y-13329674D02*
X3271072Y-13320150D01*
X3271072Y-13320150D02*
X3299643Y-13320150D01*
X3299643Y-13320150D02*
X3318691Y-13329674D01*
X3318691Y-13329674D02*
X3328215Y-13348722D01*
X3328215Y-13348722D02*
X3328215Y-13453484D01*
X3718691Y-13243960D02*
X3547263Y-13501103D01*
X3975834Y-13253484D02*
X3994882Y-13253484D01*
X3994882Y-13253484D02*
X4013929Y-13263008D01*
X4013929Y-13263008D02*
X4023453Y-13272531D01*
X4023453Y-13272531D02*
X4032977Y-13291579D01*
X4032977Y-13291579D02*
X4042501Y-13329674D01*
X4042501Y-13329674D02*
X4042501Y-13377293D01*
X4042501Y-13377293D02*
X4032977Y-13415388D01*
X4032977Y-13415388D02*
X4023453Y-13434436D01*
X4023453Y-13434436D02*
X4013929Y-13443960D01*
X4013929Y-13443960D02*
X3994882Y-13453484D01*
X3994882Y-13453484D02*
X3975834Y-13453484D01*
X3975834Y-13453484D02*
X3956786Y-13443960D01*
X3956786Y-13443960D02*
X3947263Y-13434436D01*
X3947263Y-13434436D02*
X3937739Y-13415388D01*
X3937739Y-13415388D02*
X3928215Y-13377293D01*
X3928215Y-13377293D02*
X3928215Y-13329674D01*
X3928215Y-13329674D02*
X3937739Y-13291579D01*
X3937739Y-13291579D02*
X3947263Y-13272531D01*
X3947263Y-13272531D02*
X3956786Y-13263008D01*
X3956786Y-13263008D02*
X3975834Y-13253484D01*
X4128215Y-13434436D02*
X4137739Y-13443960D01*
X4137739Y-13443960D02*
X4128215Y-13453484D01*
X4128215Y-13453484D02*
X4118691Y-13443960D01*
X4118691Y-13443960D02*
X4128215Y-13434436D01*
X4128215Y-13434436D02*
X4128215Y-13453484D01*
X4328215Y-13453484D02*
X4213929Y-13453484D01*
X4271072Y-13453484D02*
X4271072Y-13253484D01*
X4271072Y-13253484D02*
X4252025Y-13282055D01*
X4252025Y-13282055D02*
X4232977Y-13301103D01*
X4232977Y-13301103D02*
X4213929Y-13310627D01*
X4404406Y-13272531D02*
X4413929Y-13263008D01*
X4413929Y-13263008D02*
X4432977Y-13253484D01*
X4432977Y-13253484D02*
X4480596Y-13253484D01*
X4480596Y-13253484D02*
X4499644Y-13263008D01*
X4499644Y-13263008D02*
X4509168Y-13272531D01*
X4509168Y-13272531D02*
X4518691Y-13291579D01*
X4518691Y-13291579D02*
X4518691Y-13310627D01*
X4518691Y-13310627D02*
X4509168Y-13339198D01*
X4509168Y-13339198D02*
X4394882Y-13453484D01*
X4394882Y-13453484D02*
X4518691Y-13453484D01*
X4690120Y-13253484D02*
X4652025Y-13253484D01*
X4652025Y-13253484D02*
X4632977Y-13263008D01*
X4632977Y-13263008D02*
X4623453Y-13272531D01*
X4623453Y-13272531D02*
X4604406Y-13301103D01*
X4604406Y-13301103D02*
X4594882Y-13339198D01*
X4594882Y-13339198D02*
X4594882Y-13415388D01*
X4594882Y-13415388D02*
X4604406Y-13434436D01*
X4604406Y-13434436D02*
X4613929Y-13443960D01*
X4613929Y-13443960D02*
X4632977Y-13453484D01*
X4632977Y-13453484D02*
X4671072Y-13453484D01*
X4671072Y-13453484D02*
X4690120Y-13443960D01*
X4690120Y-13443960D02*
X4699644Y-13434436D01*
X4699644Y-13434436D02*
X4709168Y-13415388D01*
X4709168Y-13415388D02*
X4709168Y-13367769D01*
X4709168Y-13367769D02*
X4699644Y-13348722D01*
X4699644Y-13348722D02*
X4690120Y-13339198D01*
X4690120Y-13339198D02*
X4671072Y-13329674D01*
X4671072Y-13329674D02*
X4632977Y-13329674D01*
X4632977Y-13329674D02*
X4613929Y-13339198D01*
X4613929Y-13339198D02*
X4604406Y-13348722D01*
X4604406Y-13348722D02*
X4594882Y-13367769D01*
X4832977Y-13253484D02*
X4852025Y-13253484D01*
X4852025Y-13253484D02*
X4871072Y-13263008D01*
X4871072Y-13263008D02*
X4880596Y-13272531D01*
X4880596Y-13272531D02*
X4890120Y-13291579D01*
X4890120Y-13291579D02*
X4899644Y-13329674D01*
X4899644Y-13329674D02*
X4899644Y-13377293D01*
X4899644Y-13377293D02*
X4890120Y-13415388D01*
X4890120Y-13415388D02*
X4880596Y-13434436D01*
X4880596Y-13434436D02*
X4871072Y-13443960D01*
X4871072Y-13443960D02*
X4852025Y-13453484D01*
X4852025Y-13453484D02*
X4832977Y-13453484D01*
X4832977Y-13453484D02*
X4813929Y-13443960D01*
X4813929Y-13443960D02*
X4804406Y-13434436D01*
X4804406Y-13434436D02*
X4794882Y-13415388D01*
X4794882Y-13415388D02*
X4785358Y-13377293D01*
X4785358Y-13377293D02*
X4785358Y-13329674D01*
X4785358Y-13329674D02*
X4794882Y-13291579D01*
X4794882Y-13291579D02*
X4804406Y-13272531D01*
X4804406Y-13272531D02*
X4813929Y-13263008D01*
X4813929Y-13263008D02*
X4832977Y-13253484D01*
X4975834Y-13253484D02*
X4975834Y-13291579D01*
X5052025Y-13253484D02*
X5052025Y-13291579D01*
X5347263Y-13529674D02*
X5337739Y-13520150D01*
X5337739Y-13520150D02*
X5318691Y-13491579D01*
X5318691Y-13491579D02*
X5309168Y-13472531D01*
X5309168Y-13472531D02*
X5299644Y-13443960D01*
X5299644Y-13443960D02*
X5290120Y-13396341D01*
X5290120Y-13396341D02*
X5290120Y-13358246D01*
X5290120Y-13358246D02*
X5299644Y-13310627D01*
X5299644Y-13310627D02*
X5309168Y-13282055D01*
X5309168Y-13282055D02*
X5318691Y-13263008D01*
X5318691Y-13263008D02*
X5337739Y-13234436D01*
X5337739Y-13234436D02*
X5347263Y-13224912D01*
X5413930Y-13272531D02*
X5423453Y-13263008D01*
X5423453Y-13263008D02*
X5442501Y-13253484D01*
X5442501Y-13253484D02*
X5490120Y-13253484D01*
X5490120Y-13253484D02*
X5509168Y-13263008D01*
X5509168Y-13263008D02*
X5518691Y-13272531D01*
X5518691Y-13272531D02*
X5528215Y-13291579D01*
X5528215Y-13291579D02*
X5528215Y-13310627D01*
X5528215Y-13310627D02*
X5518691Y-13339198D01*
X5518691Y-13339198D02*
X5404406Y-13453484D01*
X5404406Y-13453484D02*
X5528215Y-13453484D01*
X5766310Y-13453484D02*
X5766310Y-13253484D01*
X5852025Y-13453484D02*
X5852025Y-13348722D01*
X5852025Y-13348722D02*
X5842501Y-13329674D01*
X5842501Y-13329674D02*
X5823453Y-13320150D01*
X5823453Y-13320150D02*
X5794882Y-13320150D01*
X5794882Y-13320150D02*
X5775834Y-13329674D01*
X5775834Y-13329674D02*
X5766310Y-13339198D01*
X5975834Y-13453484D02*
X5956787Y-13443960D01*
X5956787Y-13443960D02*
X5947263Y-13434436D01*
X5947263Y-13434436D02*
X5937739Y-13415388D01*
X5937739Y-13415388D02*
X5937739Y-13358246D01*
X5937739Y-13358246D02*
X5947263Y-13339198D01*
X5947263Y-13339198D02*
X5956787Y-13329674D01*
X5956787Y-13329674D02*
X5975834Y-13320150D01*
X5975834Y-13320150D02*
X6004406Y-13320150D01*
X6004406Y-13320150D02*
X6023453Y-13329674D01*
X6023453Y-13329674D02*
X6032977Y-13339198D01*
X6032977Y-13339198D02*
X6042501Y-13358246D01*
X6042501Y-13358246D02*
X6042501Y-13415388D01*
X6042501Y-13415388D02*
X6032977Y-13434436D01*
X6032977Y-13434436D02*
X6023453Y-13443960D01*
X6023453Y-13443960D02*
X6004406Y-13453484D01*
X6004406Y-13453484D02*
X5975834Y-13453484D01*
X6156787Y-13453484D02*
X6137739Y-13443960D01*
X6137739Y-13443960D02*
X6128215Y-13424912D01*
X6128215Y-13424912D02*
X6128215Y-13253484D01*
X6309168Y-13443960D02*
X6290120Y-13453484D01*
X6290120Y-13453484D02*
X6252025Y-13453484D01*
X6252025Y-13453484D02*
X6232977Y-13443960D01*
X6232977Y-13443960D02*
X6223453Y-13424912D01*
X6223453Y-13424912D02*
X6223453Y-13348722D01*
X6223453Y-13348722D02*
X6232977Y-13329674D01*
X6232977Y-13329674D02*
X6252025Y-13320150D01*
X6252025Y-13320150D02*
X6290120Y-13320150D01*
X6290120Y-13320150D02*
X6309168Y-13329674D01*
X6309168Y-13329674D02*
X6318691Y-13348722D01*
X6318691Y-13348722D02*
X6318691Y-13367769D01*
X6318691Y-13367769D02*
X6223453Y-13386817D01*
X6394882Y-13443960D02*
X6413930Y-13453484D01*
X6413930Y-13453484D02*
X6452025Y-13453484D01*
X6452025Y-13453484D02*
X6471072Y-13443960D01*
X6471072Y-13443960D02*
X6480596Y-13424912D01*
X6480596Y-13424912D02*
X6480596Y-13415388D01*
X6480596Y-13415388D02*
X6471072Y-13396341D01*
X6471072Y-13396341D02*
X6452025Y-13386817D01*
X6452025Y-13386817D02*
X6423453Y-13386817D01*
X6423453Y-13386817D02*
X6404406Y-13377293D01*
X6404406Y-13377293D02*
X6394882Y-13358246D01*
X6394882Y-13358246D02*
X6394882Y-13348722D01*
X6394882Y-13348722D02*
X6404406Y-13329674D01*
X6404406Y-13329674D02*
X6423453Y-13320150D01*
X6423453Y-13320150D02*
X6452025Y-13320150D01*
X6452025Y-13320150D02*
X6471072Y-13329674D01*
X6547263Y-13529674D02*
X6556787Y-13520150D01*
X6556787Y-13520150D02*
X6575834Y-13491579D01*
X6575834Y-13491579D02*
X6585358Y-13472531D01*
X6585358Y-13472531D02*
X6594882Y-13443960D01*
X6594882Y-13443960D02*
X6604406Y-13396341D01*
X6604406Y-13396341D02*
X6604406Y-13358246D01*
X6604406Y-13358246D02*
X6594882Y-13310627D01*
X6594882Y-13310627D02*
X6585358Y-13282055D01*
X6585358Y-13282055D02*
X6575834Y-13263008D01*
X6575834Y-13263008D02*
X6556787Y-13234436D01*
X6556787Y-13234436D02*
X6547263Y-13224912D01*
X6909168Y-13529674D02*
X6899644Y-13520150D01*
X6899644Y-13520150D02*
X6880596Y-13491579D01*
X6880596Y-13491579D02*
X6871072Y-13472531D01*
X6871072Y-13472531D02*
X6861549Y-13443960D01*
X6861549Y-13443960D02*
X6852025Y-13396341D01*
X6852025Y-13396341D02*
X6852025Y-13358246D01*
X6852025Y-13358246D02*
X6861549Y-13310627D01*
X6861549Y-13310627D02*
X6871072Y-13282055D01*
X6871072Y-13282055D02*
X6880596Y-13263008D01*
X6880596Y-13263008D02*
X6899644Y-13234436D01*
X6899644Y-13234436D02*
X6909168Y-13224912D01*
X6985358Y-13320150D02*
X6985358Y-13453484D01*
X6985358Y-13339198D02*
X6994882Y-13329674D01*
X6994882Y-13329674D02*
X7013930Y-13320150D01*
X7013930Y-13320150D02*
X7042501Y-13320150D01*
X7042501Y-13320150D02*
X7061549Y-13329674D01*
X7061549Y-13329674D02*
X7071072Y-13348722D01*
X7071072Y-13348722D02*
X7071072Y-13453484D01*
X7194882Y-13453484D02*
X7175834Y-13443960D01*
X7175834Y-13443960D02*
X7166311Y-13434436D01*
X7166311Y-13434436D02*
X7156787Y-13415388D01*
X7156787Y-13415388D02*
X7156787Y-13358246D01*
X7156787Y-13358246D02*
X7166311Y-13339198D01*
X7166311Y-13339198D02*
X7175834Y-13329674D01*
X7175834Y-13329674D02*
X7194882Y-13320150D01*
X7194882Y-13320150D02*
X7223453Y-13320150D01*
X7223453Y-13320150D02*
X7242501Y-13329674D01*
X7242501Y-13329674D02*
X7252025Y-13339198D01*
X7252025Y-13339198D02*
X7261549Y-13358246D01*
X7261549Y-13358246D02*
X7261549Y-13415388D01*
X7261549Y-13415388D02*
X7252025Y-13434436D01*
X7252025Y-13434436D02*
X7242501Y-13443960D01*
X7242501Y-13443960D02*
X7223453Y-13453484D01*
X7223453Y-13453484D02*
X7194882Y-13453484D01*
X7318692Y-13320150D02*
X7394882Y-13320150D01*
X7347263Y-13253484D02*
X7347263Y-13424912D01*
X7347263Y-13424912D02*
X7356787Y-13443960D01*
X7356787Y-13443960D02*
X7375834Y-13453484D01*
X7375834Y-13453484D02*
X7394882Y-13453484D01*
X7613930Y-13320150D02*
X7613930Y-13520150D01*
X7613930Y-13329674D02*
X7632977Y-13320150D01*
X7632977Y-13320150D02*
X7671073Y-13320150D01*
X7671073Y-13320150D02*
X7690120Y-13329674D01*
X7690120Y-13329674D02*
X7699644Y-13339198D01*
X7699644Y-13339198D02*
X7709168Y-13358246D01*
X7709168Y-13358246D02*
X7709168Y-13415388D01*
X7709168Y-13415388D02*
X7699644Y-13434436D01*
X7699644Y-13434436D02*
X7690120Y-13443960D01*
X7690120Y-13443960D02*
X7671073Y-13453484D01*
X7671073Y-13453484D02*
X7632977Y-13453484D01*
X7632977Y-13453484D02*
X7613930Y-13443960D01*
X7823453Y-13453484D02*
X7804406Y-13443960D01*
X7804406Y-13443960D02*
X7794882Y-13424912D01*
X7794882Y-13424912D02*
X7794882Y-13253484D01*
X7985358Y-13453484D02*
X7985358Y-13348722D01*
X7985358Y-13348722D02*
X7975834Y-13329674D01*
X7975834Y-13329674D02*
X7956787Y-13320150D01*
X7956787Y-13320150D02*
X7918692Y-13320150D01*
X7918692Y-13320150D02*
X7899644Y-13329674D01*
X7985358Y-13443960D02*
X7966311Y-13453484D01*
X7966311Y-13453484D02*
X7918692Y-13453484D01*
X7918692Y-13453484D02*
X7899644Y-13443960D01*
X7899644Y-13443960D02*
X7890120Y-13424912D01*
X7890120Y-13424912D02*
X7890120Y-13405865D01*
X7890120Y-13405865D02*
X7899644Y-13386817D01*
X7899644Y-13386817D02*
X7918692Y-13377293D01*
X7918692Y-13377293D02*
X7966311Y-13377293D01*
X7966311Y-13377293D02*
X7985358Y-13367769D01*
X8052025Y-13320150D02*
X8128215Y-13320150D01*
X8080596Y-13253484D02*
X8080596Y-13424912D01*
X8080596Y-13424912D02*
X8090120Y-13443960D01*
X8090120Y-13443960D02*
X8109168Y-13453484D01*
X8109168Y-13453484D02*
X8128215Y-13453484D01*
X8271073Y-13443960D02*
X8252025Y-13453484D01*
X8252025Y-13453484D02*
X8213930Y-13453484D01*
X8213930Y-13453484D02*
X8194882Y-13443960D01*
X8194882Y-13443960D02*
X8185358Y-13424912D01*
X8185358Y-13424912D02*
X8185358Y-13348722D01*
X8185358Y-13348722D02*
X8194882Y-13329674D01*
X8194882Y-13329674D02*
X8213930Y-13320150D01*
X8213930Y-13320150D02*
X8252025Y-13320150D01*
X8252025Y-13320150D02*
X8271073Y-13329674D01*
X8271073Y-13329674D02*
X8280596Y-13348722D01*
X8280596Y-13348722D02*
X8280596Y-13367769D01*
X8280596Y-13367769D02*
X8185358Y-13386817D01*
X8452025Y-13453484D02*
X8452025Y-13253484D01*
X8452025Y-13443960D02*
X8432977Y-13453484D01*
X8432977Y-13453484D02*
X8394882Y-13453484D01*
X8394882Y-13453484D02*
X8375834Y-13443960D01*
X8375834Y-13443960D02*
X8366311Y-13434436D01*
X8366311Y-13434436D02*
X8356787Y-13415388D01*
X8356787Y-13415388D02*
X8356787Y-13358246D01*
X8356787Y-13358246D02*
X8366311Y-13339198D01*
X8366311Y-13339198D02*
X8375834Y-13329674D01*
X8375834Y-13329674D02*
X8394882Y-13320150D01*
X8394882Y-13320150D02*
X8432977Y-13320150D01*
X8432977Y-13320150D02*
X8452025Y-13329674D01*
X8528216Y-13529674D02*
X8537739Y-13520150D01*
X8537739Y-13520150D02*
X8556787Y-13491579D01*
X8556787Y-13491579D02*
X8566311Y-13472531D01*
X8566311Y-13472531D02*
X8575835Y-13443960D01*
X8575835Y-13443960D02*
X8585358Y-13396341D01*
X8585358Y-13396341D02*
X8585358Y-13358246D01*
X8585358Y-13358246D02*
X8575835Y-13310627D01*
X8575835Y-13310627D02*
X8566311Y-13282055D01*
X8566311Y-13282055D02*
X8556787Y-13263008D01*
X8556787Y-13263008D02*
X8537739Y-13234436D01*
X8537739Y-13234436D02*
X8528216Y-13224912D01*
M02*
