%TF.GenerationSoftware,KiCad,Pcbnew,10.0.6*%
%TF.CreationDate,2026-09-25T08:16:38-04:00*%
%TF.ProjectId,memory-v2.0,6d656d6f-7279-42d7-9632-2e302e6b6963,2.0*%
%TF.SameCoordinates,Original*%
%TF.FileFunction,Copper,L4,Bot*%
%TF.FilePolarity,Positive*%
%FSLAX46Y46*%
G04 Gerber Fmt 4.6, Leading zero omitted, Abs format (unit mm)*
G04 Created by KiCad (PCBNEW 10.0.6) date 2026-09-25 08:16:38*
%MOMM*%
%LPD*%
G01*
G04 APERTURE LIST*
G04 Aperture macros list*
%AMRoundRect*
0 Rectangle with rounded corners*
0 $1 Rounding radius*
0 $2 $3 $4 $5 $6 $7 $8 $9 X,Y pos of 4 corners*
0 Add a 4 corners polygon primitive as box body*
4,1,4,$2,$3,$4,$5,$6,$7,$8,$9,$2,$3,0*
0 Add four circle primitives for the rounded corners*
1,1,$1+$1,$2,$3*
1,1,$1+$1,$4,$5*
1,1,$1+$1,$6,$7*
1,1,$1+$1,$8,$9*
0 Add four rect primitives between the rounded corners*
20,1,$1+$1,$2,$3,$4,$5,0*
20,1,$1+$1,$4,$5,$6,$7,0*
20,1,$1+$1,$6,$7,$8,$9,0*
20,1,$1+$1,$8,$9,$2,$3,0*%
%AMOutline5P*
0 Free polygon, 5 corners , with rotation*
0 The origin of the aperture is its center*
0 number of corners: always 5*
0 $1 to $10 corner X, Y*
0 $11 Rotation angle, in degrees counterclockwise*
0 create outline with 5 corners*
4,1,5,$1,$2,$3,$4,$5,$6,$7,$8,$9,$10,$1,$2,$11*%
%AMOutline6P*
0 Free polygon, 6 corners , with rotation*
0 The origin of the aperture is its center*
0 number of corners: always 6*
0 $1 to $12 corner X, Y*
0 $13 Rotation angle, in degrees counterclockwise*
0 create outline with 6 corners*
4,1,6,$1,$2,$3,$4,$5,$6,$7,$8,$9,$10,$11,$12,$1,$2,$13*%
%AMOutline7P*
0 Free polygon, 7 corners , with rotation*
0 The origin of the aperture is its center*
0 number of corners: always 7*
0 $1 to $14 corner X, Y*
0 $15 Rotation angle, in degrees counterclockwise*
0 create outline with 7 corners*
4,1,7,$1,$2,$3,$4,$5,$6,$7,$8,$9,$10,$11,$12,$13,$14,$1,$2,$15*%
%AMOutline8P*
0 Free polygon, 8 corners , with rotation*
0 The origin of the aperture is its center*
0 number of corners: always 8*
0 $1 to $16 corner X, Y*
0 $17 Rotation angle, in degrees counterclockwise*
0 create outline with 8 corners*
4,1,8,$1,$2,$3,$4,$5,$6,$7,$8,$9,$10,$11,$12,$13,$14,$15,$16,$1,$2,$17*%
G04 Aperture macros list end*
%TA.AperFunction,ComponentPad*%
%ADD10C,1.600000*%
%TD*%
%TA.AperFunction,ComponentPad*%
%ADD11O,1.219200X2.438400*%
%TD*%
%TA.AperFunction,ComponentPad*%
%ADD12Outline8P,-0.609600X0.252505X-0.252505X0.609600X0.252505X0.609600X0.609600X0.252505X0.609600X-0.252505X0.252505X-0.609600X-0.252505X-0.609600X-0.609600X-0.252505X0.000000*%
%TD*%
%TA.AperFunction,ComponentPad*%
%ADD13Outline8P,-0.838200X0.347194X-0.347194X0.838200X0.347194X0.838200X0.838200X0.347194X0.838200X-0.347194X0.347194X-0.838200X-0.347194X-0.838200X-0.838200X-0.347194X90.000000*%
%TD*%
%TA.AperFunction,WasherPad*%
%ADD14C,2.997200*%
%TD*%
%TA.AperFunction,ComponentPad*%
%ADD15Outline8P,-0.762000X0.315631X-0.315631X0.762000X0.315631X0.762000X0.762000X0.315631X0.762000X-0.315631X0.315631X-0.762000X-0.315631X-0.762000X-0.762000X-0.315631X180.000000*%
%TD*%
%TA.AperFunction,ComponentPad*%
%ADD16RoundRect,0.250000X0.550000X-0.550000X0.550000X0.550000X-0.550000X0.550000X-0.550000X-0.550000X0*%
%TD*%
%TA.AperFunction,ComponentPad*%
%ADD17R,1.700000X1.700000*%
%TD*%
%TA.AperFunction,ComponentPad*%
%ADD18C,1.700000*%
%TD*%
%TA.AperFunction,ComponentPad*%
%ADD19RoundRect,0.250000X-0.550000X-0.550000X0.550000X-0.550000X0.550000X0.550000X-0.550000X0.550000X0*%
%TD*%
%TA.AperFunction,ComponentPad*%
%ADD20Outline8P,-0.762000X0.315631X-0.315631X0.762000X0.315631X0.762000X0.762000X0.315631X0.762000X-0.315631X0.315631X-0.762000X-0.315631X-0.762000X-0.762000X-0.315631X0.000000*%
%TD*%
%TA.AperFunction,ComponentPad*%
%ADD21O,1.524000X3.048000*%
%TD*%
%TA.AperFunction,ComponentPad*%
%ADD22RoundRect,0.250000X0.600000X0.600000X-0.600000X0.600000X-0.600000X-0.600000X0.600000X-0.600000X0*%
%TD*%
%TA.AperFunction,ComponentPad*%
%ADD23Outline8P,-0.609600X0.252505X-0.252505X0.609600X0.252505X0.609600X0.609600X0.252505X0.609600X-0.252505X0.252505X-0.609600X-0.252505X-0.609600X-0.609600X-0.252505X180.000000*%
%TD*%
%TA.AperFunction,ComponentPad*%
%ADD24R,1.800000X1.800000*%
%TD*%
%TA.AperFunction,ComponentPad*%
%ADD25C,1.800000*%
%TD*%
%TA.AperFunction,ComponentPad*%
%ADD26R,1.600000X1.600000*%
%TD*%
%TA.AperFunction,ViaPad*%
%ADD27C,0.800000*%
%TD*%
%TA.AperFunction,Conductor*%
%ADD28C,0.250000*%
%TD*%
G04 APERTURE END LIST*
D10*
%TO.P,R13,1*%
%TO.N,VCC*%
X190470000Y-79550000D03*
%TO.P,R13,2*%
%TO.N,/Sheet 7/-DMACK*%
X190470000Y-69390000D03*
%TD*%
D11*
%TO.P,IC2,1*%
%TO.N,BADDR14*%
X102840000Y-93520000D03*
%TO.P,IC2,2*%
%TO.N,BADDR12*%
X105380000Y-93520000D03*
%TO.P,IC2,3*%
%TO.N,BADDR7*%
X107920000Y-93520000D03*
%TO.P,IC2,4*%
%TO.N,BADDR6*%
X110460000Y-93520000D03*
%TO.P,IC2,5*%
%TO.N,BADDR5*%
X113000000Y-93520000D03*
%TO.P,IC2,6*%
%TO.N,BADDR4*%
X115540000Y-93520000D03*
%TO.P,IC2,7*%
%TO.N,BADDR3*%
X118080000Y-93520000D03*
%TO.P,IC2,8*%
%TO.N,BADDR2*%
X120620000Y-93520000D03*
%TO.P,IC2,9*%
%TO.N,BADDR1*%
X123160000Y-93520000D03*
%TO.P,IC2,10*%
%TO.N,BADDR0*%
X125700000Y-93520000D03*
%TO.P,IC2,11*%
%TO.N,BDATA0*%
X128240000Y-93520000D03*
%TO.P,IC2,12*%
%TO.N,BDATA1*%
X130780000Y-93520000D03*
%TO.P,IC2,13*%
%TO.N,BDATA2*%
X133320000Y-93520000D03*
%TO.P,IC2,14*%
%TO.N,GND*%
X135860000Y-93520000D03*
%TO.P,IC2,15*%
%TO.N,BDATA3*%
X135860000Y-78280000D03*
%TO.P,IC2,16*%
%TO.N,BDATA4*%
X133320000Y-78280000D03*
%TO.P,IC2,17*%
%TO.N,BDATA5*%
X130780000Y-78280000D03*
%TO.P,IC2,18*%
%TO.N,BDATA6*%
X128240000Y-78280000D03*
%TO.P,IC2,19*%
%TO.N,BDATA7*%
X125700000Y-78280000D03*
%TO.P,IC2,20*%
%TO.N,-HI-RAM*%
X123160000Y-78280000D03*
%TO.P,IC2,21*%
%TO.N,BADDR10*%
X120620000Y-78280000D03*
%TO.P,IC2,22*%
%TO.N,Net-(IC1-~{OE})*%
X118080000Y-78280000D03*
%TO.P,IC2,23*%
%TO.N,BADDR11*%
X115540000Y-78280000D03*
%TO.P,IC2,24*%
%TO.N,BADDR9*%
X113000000Y-78280000D03*
%TO.P,IC2,25*%
%TO.N,BADDR8*%
X110460000Y-78280000D03*
%TO.P,IC2,26*%
%TO.N,BADDR13*%
X107920000Y-78280000D03*
%TO.P,IC2,27*%
%TO.N,Net-(IC1-~{WE})*%
X105380000Y-78280000D03*
%TO.P,IC2,28*%
%TO.N,VCC*%
X102840000Y-78280000D03*
%TD*%
D12*
%TO.P,R2,1*%
%TO.N,Net-(PWR0-PadA)*%
X153640000Y-121460000D03*
%TO.P,R2,2*%
%TO.N,VCC*%
X163800000Y-121460000D03*
%TD*%
D11*
%TO.P,IC11,1*%
%TO.N,FORCE-ROM*%
X74900000Y-69390000D03*
%TO.P,IC11,2*%
%TO.N,Net-(IC11-1A)*%
X77440000Y-69390000D03*
%TO.P,IC11,3*%
%TO.N,VCC*%
X79980000Y-69390000D03*
%TO.P,IC11,4*%
%TO.N,BADDR12*%
X82520000Y-69390000D03*
%TO.P,IC11,5*%
%TO.N,Net-(IC11-2A)*%
X85060000Y-69390000D03*
%TO.P,IC11,6*%
%TO.N,VCC*%
X87600000Y-69390000D03*
%TO.P,IC11,7*%
%TO.N,BADDR13*%
X90140000Y-69390000D03*
%TO.P,IC11,8*%
%TO.N,GND*%
X92680000Y-69390000D03*
%TO.P,IC11,9*%
%TO.N,BADDR14*%
X92680000Y-61770000D03*
%TO.P,IC11,10*%
%TO.N,VCC*%
X90140000Y-61770000D03*
%TO.P,IC11,11*%
%TO.N,Net-(IC11-3A)*%
X87600000Y-61770000D03*
%TO.P,IC11,12*%
%TO.N,BADDR15*%
X85060000Y-61770000D03*
%TO.P,IC11,13*%
%TO.N,VCC*%
X82520000Y-61770000D03*
%TO.P,IC11,14*%
%TO.N,Net-(IC11-4A)*%
X79980000Y-61770000D03*
%TO.P,IC11,15*%
%TO.N,GND*%
X77440000Y-61770000D03*
%TO.P,IC11,16*%
%TO.N,VCC*%
X74900000Y-61770000D03*
%TD*%
D13*
%TO.P,C11,1*%
%TO.N,VCC*%
X69820000Y-66850000D03*
%TO.P,C11,2*%
%TO.N,GND*%
X69820000Y-64310000D03*
%TD*%
D10*
%TO.P,C28,1*%
%TO.N,VCC*%
X171420000Y-113840000D03*
%TO.P,C28,2*%
%TO.N,GND*%
X171420000Y-108840000D03*
%TD*%
D11*
%TO.P,IC3,1*%
%TO.N,-VMA*%
X74900000Y-111300000D03*
%TO.P,IC3,2*%
%TO.N,-BUS-EN*%
X77440000Y-111300000D03*
%TO.P,IC3,3*%
%TO.N,Net-(IC10D-I0)*%
X79980000Y-111300000D03*
%TO.P,IC3,4*%
%TO.N,GND*%
X82520000Y-111300000D03*
%TO.P,IC3,5*%
X85060000Y-111300000D03*
%TO.P,IC3,6*%
%TO.N,unconnected-(IC3B-O-Pad6)*%
X87600000Y-111300000D03*
%TO.P,IC3,7*%
%TO.N,GND*%
X90140000Y-111300000D03*
%TO.P,IC3,8*%
%TO.N,unconnected-(IC3C-O-Pad8)*%
X90140000Y-103680000D03*
%TO.P,IC3,9*%
%TO.N,GND*%
X87600000Y-103680000D03*
%TO.P,IC3,10*%
X85060000Y-103680000D03*
%TO.P,IC3,11*%
%TO.N,unconnected-(IC3D-O-Pad11)*%
X82520000Y-103680000D03*
%TO.P,IC3,12*%
%TO.N,GND*%
X79980000Y-103680000D03*
%TO.P,IC3,13*%
X77440000Y-103680000D03*
%TO.P,IC3,14*%
%TO.N,VCC*%
X74900000Y-103680000D03*
%TD*%
D13*
%TO.P,C2,1*%
%TO.N,VCC*%
X97760000Y-84630000D03*
%TO.P,C2,2*%
%TO.N,GND*%
X97760000Y-82090000D03*
%TD*%
D11*
%TO.P,IC9,1*%
%TO.N,GND*%
X40610000Y-83360000D03*
%TO.P,IC9,2*%
%TO.N,ADDR8*%
X43150000Y-83360000D03*
%TO.P,IC9,3*%
%TO.N,Net-(IC11-4A)*%
X45690000Y-83360000D03*
%TO.P,IC9,4*%
%TO.N,ADDR9*%
X48230000Y-83360000D03*
%TO.P,IC9,5*%
%TO.N,Net-(IC11-3A)*%
X50770000Y-83360000D03*
%TO.P,IC9,6*%
%TO.N,ADDR10*%
X53310000Y-83360000D03*
%TO.P,IC9,7*%
%TO.N,Net-(IC11-2A)*%
X55850000Y-83360000D03*
%TO.P,IC9,8*%
%TO.N,ADDR11*%
X58390000Y-83360000D03*
%TO.P,IC9,9*%
%TO.N,Net-(IC11-1A)*%
X60930000Y-83360000D03*
%TO.P,IC9,10*%
%TO.N,GND*%
X63470000Y-83360000D03*
%TO.P,IC9,11*%
%TO.N,ADDR12*%
X63470000Y-75740000D03*
%TO.P,IC9,12*%
%TO.N,BADDR11*%
X60930000Y-75740000D03*
%TO.P,IC9,13*%
%TO.N,ADDR13*%
X58390000Y-75740000D03*
%TO.P,IC9,14*%
%TO.N,BADDR10*%
X55850000Y-75740000D03*
%TO.P,IC9,15*%
%TO.N,ADDR14*%
X53310000Y-75740000D03*
%TO.P,IC9,16*%
%TO.N,BADDR9*%
X50770000Y-75740000D03*
%TO.P,IC9,17*%
%TO.N,ADDR15*%
X48230000Y-75740000D03*
%TO.P,IC9,18*%
%TO.N,BADDR8*%
X45690000Y-75740000D03*
%TO.P,IC9,19*%
%TO.N,GND*%
X43150000Y-75740000D03*
%TO.P,IC9,20*%
%TO.N,VCC*%
X40610000Y-75740000D03*
%TD*%
%TO.P,IC26,1*%
%TO.N,-TMP-REG-RD0*%
X40610000Y-55420000D03*
%TO.P,IC26,2*%
%TO.N,DATA0*%
X43150000Y-55420000D03*
%TO.P,IC26,3*%
X45690000Y-55420000D03*
%TO.P,IC26,4*%
%TO.N,DATA1*%
X48230000Y-55420000D03*
%TO.P,IC26,5*%
X50770000Y-55420000D03*
%TO.P,IC26,6*%
%TO.N,DATA2*%
X53310000Y-55420000D03*
%TO.P,IC26,7*%
X55850000Y-55420000D03*
%TO.P,IC26,8*%
%TO.N,DATA3*%
X58390000Y-55420000D03*
%TO.P,IC26,9*%
X60930000Y-55420000D03*
%TO.P,IC26,10*%
%TO.N,GND*%
X63470000Y-55420000D03*
%TO.P,IC26,11*%
%TO.N,Net-(IC14A-O)*%
X63470000Y-47800000D03*
%TO.P,IC26,12*%
%TO.N,DATA4*%
X60930000Y-47800000D03*
%TO.P,IC26,13*%
X58390000Y-47800000D03*
%TO.P,IC26,14*%
%TO.N,DATA5*%
X55850000Y-47800000D03*
%TO.P,IC26,15*%
X53310000Y-47800000D03*
%TO.P,IC26,16*%
%TO.N,DATA6*%
X50770000Y-47800000D03*
%TO.P,IC26,17*%
X48230000Y-47800000D03*
%TO.P,IC26,18*%
%TO.N,DATA7*%
X45690000Y-47800000D03*
%TO.P,IC26,19*%
X43150000Y-47800000D03*
%TO.P,IC26,20*%
%TO.N,VCC*%
X40610000Y-47800000D03*
%TD*%
%TO.P,RN7,1*%
%TO.N,VCC*%
X120620000Y-13510000D03*
%TO.P,RN7,2*%
%TO.N,/Sheet 2/ROM7*%
X118080000Y-13510000D03*
%TO.P,RN7,3*%
%TO.N,/Sheet 2/ROM6*%
X115540000Y-13510000D03*
%TO.P,RN7,4*%
%TO.N,/Sheet 2/ROM5*%
X113000000Y-13510000D03*
%TO.P,RN7,5*%
%TO.N,/Sheet 2/ROM4*%
X110460000Y-13510000D03*
%TO.P,RN7,6*%
%TO.N,/Sheet 2/ROM3*%
X107920000Y-13510000D03*
%TO.P,RN7,7*%
%TO.N,/Sheet 2/ROM2*%
X105380000Y-13510000D03*
%TO.P,RN7,8*%
%TO.N,/Sheet 2/ROM1*%
X102840000Y-13510000D03*
%TO.P,RN7,9*%
%TO.N,/Sheet 2/ROM0*%
X100300000Y-13510000D03*
%TD*%
%TO.P,RN8,1*%
%TO.N,VCC*%
X100300000Y-30020000D03*
%TO.P,RN8,2*%
%TO.N,/Sheet 2/RAM0*%
X102840000Y-30020000D03*
%TO.P,RN8,3*%
%TO.N,/Sheet 2/RAM1*%
X105380000Y-30020000D03*
%TO.P,RN8,4*%
%TO.N,/Sheet 2/RAM2*%
X107920000Y-30020000D03*
%TO.P,RN8,5*%
%TO.N,/Sheet 2/RAM3*%
X110460000Y-30020000D03*
%TO.P,RN8,6*%
%TO.N,/Sheet 2/RAM4*%
X113000000Y-30020000D03*
%TO.P,RN8,7*%
%TO.N,/Sheet 2/RAM5*%
X115540000Y-30020000D03*
%TO.P,RN8,8*%
%TO.N,/Sheet 2/RAM6*%
X118080000Y-30020000D03*
%TO.P,RN8,9*%
%TO.N,/Sheet 2/RAM7*%
X120620000Y-30020000D03*
%TD*%
D14*
%TO.P,X1,*%
%TO.N,*%
X20287000Y-111301400D03*
X20287000Y-22388600D03*
D15*
%TO.P,X1,A1*%
%TO.N,GND*%
X22827000Y-106215000D03*
%TO.P,X1,A2*%
%TO.N,VCC*%
X22827000Y-103675000D03*
%TO.P,X1,A3*%
%TO.N,ADDR0*%
X22827000Y-101135000D03*
%TO.P,X1,A4*%
%TO.N,ADDR1*%
X22827000Y-98595000D03*
%TO.P,X1,A5*%
%TO.N,ADDR2*%
X22827000Y-96055000D03*
%TO.P,X1,A6*%
%TO.N,ADDR3*%
X22827000Y-93515000D03*
%TO.P,X1,A7*%
%TO.N,ADDR4*%
X22827000Y-90975000D03*
%TO.P,X1,A8*%
%TO.N,ADDR5*%
X22827000Y-88435000D03*
%TO.P,X1,A9*%
%TO.N,ADDR6*%
X22827000Y-85895000D03*
%TO.P,X1,A10*%
%TO.N,ADDR7*%
X22827000Y-83355000D03*
%TO.P,X1,A11*%
%TO.N,ADDR8*%
X22827000Y-80815000D03*
%TO.P,X1,A12*%
%TO.N,ADDR9*%
X22827000Y-78275000D03*
%TO.P,X1,A13*%
%TO.N,ADDR10*%
X22827000Y-75735000D03*
%TO.P,X1,A14*%
%TO.N,ADDR11*%
X22827000Y-73195000D03*
%TO.P,X1,A15*%
%TO.N,ADDR12*%
X22827000Y-70655000D03*
%TO.P,X1,A16*%
%TO.N,ADDR13*%
X22827000Y-68115000D03*
%TO.P,X1,A17*%
%TO.N,ADDR14*%
X22827000Y-65575000D03*
%TO.P,X1,A18*%
%TO.N,ADDR15*%
X22827000Y-63035000D03*
%TO.P,X1,A19*%
%TO.N,DATA0*%
X22827000Y-60495000D03*
%TO.P,X1,A20*%
%TO.N,DATA1*%
X22827000Y-57955000D03*
%TO.P,X1,A21*%
%TO.N,DATA2*%
X22827000Y-55415000D03*
%TO.P,X1,A22*%
%TO.N,DATA3*%
X22827000Y-52875000D03*
%TO.P,X1,A23*%
%TO.N,DATA4*%
X22827000Y-50335000D03*
%TO.P,X1,A24*%
%TO.N,DATA5*%
X22827000Y-47795000D03*
%TO.P,X1,A25*%
%TO.N,DATA6*%
X22827000Y-45255000D03*
%TO.P,X1,A26*%
%TO.N,DATA7*%
X22827000Y-42715000D03*
%TO.P,X1,A27*%
%TO.N,DATA8*%
X22827000Y-40175000D03*
%TO.P,X1,A28*%
%TO.N,DATA9*%
X22827000Y-37635000D03*
%TO.P,X1,A29*%
%TO.N,DATA10*%
X22827000Y-35095000D03*
%TO.P,X1,A30*%
%TO.N,DATA11*%
X22827000Y-32555000D03*
%TO.P,X1,A31*%
%TO.N,VCC*%
X22827000Y-30015000D03*
%TO.P,X1,A32*%
%TO.N,GND*%
X22827000Y-27475000D03*
%TO.P,X1,B1*%
X25367000Y-106215000D03*
%TO.P,X1,B2*%
%TO.N,VCC*%
X25367000Y-103675000D03*
%TO.P,X1,B3*%
%TO.N,DATA12*%
X25367000Y-101135000D03*
%TO.P,X1,B4*%
%TO.N,DATA13*%
X25367000Y-98595000D03*
%TO.P,X1,B5*%
%TO.N,DATA14*%
X25367000Y-96055000D03*
%TO.P,X1,B6*%
%TO.N,DATA15*%
X25367000Y-93515000D03*
%TO.P,X1,B7*%
%TO.N,/Sheet 1/-REG-FUNC-RD*%
X25367000Y-90975000D03*
%TO.P,X1,B8*%
%TO.N,/Sheet 1/-REG-FUNC-LD*%
X25367000Y-88435000D03*
%TO.P,X1,B9*%
%TO.N,/Sheet 1/REG-RD-ID0*%
X25367000Y-85895000D03*
%TO.P,X1,B10*%
%TO.N,/Sheet 1/REG-RD-ID1*%
X25367000Y-83355000D03*
%TO.P,X1,B11*%
%TO.N,/Sheet 1/REG-RD-ID2*%
X25367000Y-80815000D03*
%TO.P,X1,B12*%
%TO.N,/Sheet 1/REG-RD-ID3*%
X25367000Y-78275000D03*
%TO.P,X1,B13*%
%TO.N,/Sheet 1/REG-LD-ID0*%
X25367000Y-75735000D03*
%TO.P,X1,B14*%
%TO.N,/Sheet 1/REG-LD-ID1*%
X25367000Y-73195000D03*
%TO.P,X1,B15*%
%TO.N,/Sheet 1/REG-LD-ID2*%
X25367000Y-70655000D03*
%TO.P,X1,B16*%
%TO.N,/Sheet 1/REG-LD-ID3*%
X25367000Y-68115000D03*
%TO.P,X1,B17*%
%TO.N,/Sheet 1/-REG-RD-LO*%
X25367000Y-65575000D03*
%TO.P,X1,B18*%
%TO.N,/Sheet 1/-REG-LD-LO*%
X25367000Y-63035000D03*
%TO.P,X1,B19*%
%TO.N,/Sheet 1/-REG-RD-HI*%
X25367000Y-60495000D03*
%TO.P,X1,B20*%
%TO.N,/Sheet 1/-REG-LD-HI*%
X25367000Y-57955000D03*
%TO.P,X1,B21*%
%TO.N,/Sheet 1/-REG-DN*%
X25367000Y-55415000D03*
%TO.P,X1,B22*%
%TO.N,/Sheet 1/-REG-UP*%
X25367000Y-52875000D03*
%TO.P,X1,B23*%
%TO.N,-MEM-RD*%
X25367000Y-50335000D03*
%TO.P,X1,B24*%
%TO.N,-MEM-WR*%
X25367000Y-47795000D03*
%TO.P,X1,B25*%
%TO.N,-IO-RD*%
X25367000Y-45255000D03*
%TO.P,X1,B26*%
%TO.N,-IO-WR*%
X25367000Y-42715000D03*
%TO.P,X1,B27*%
%TO.N,-TMP-REG-RD0*%
X25367000Y-40175000D03*
%TO.P,X1,B28*%
%TO.N,-TMP-REG-LD0*%
X25367000Y-37635000D03*
%TO.P,X1,B29*%
%TO.N,-TMP-REG-RD1*%
X25367000Y-35095000D03*
%TO.P,X1,B30*%
%TO.N,-TMP-REG-LD1*%
X25367000Y-32555000D03*
%TO.P,X1,B31*%
%TO.N,VCC*%
X25367000Y-30015000D03*
%TO.P,X1,B32*%
%TO.N,GND*%
X25367000Y-27475000D03*
%TO.P,X1,C1*%
X27907000Y-106215000D03*
%TO.P,X1,C2*%
%TO.N,VCC*%
X27907000Y-103675000D03*
%TO.P,X1,C3*%
%TO.N,/Sheet 1/-ADDR-REG-ID0*%
X27907000Y-101135000D03*
%TO.P,X1,C4*%
%TO.N,/Sheet 1/-ADDR-REG-ID1*%
X27907000Y-98595000D03*
%TO.P,X1,C5*%
%TO.N,/Sheet 1/-ADDR-REG-ID2*%
X27907000Y-96055000D03*
%TO.P,X1,C6*%
%TO.N,/Sheet 1/-ADDR-REG-ID3*%
X27907000Y-93515000D03*
%TO.P,X1,C7*%
%TO.N,IO-ADDR0*%
X27907000Y-90975000D03*
%TO.P,X1,C8*%
%TO.N,IO-ADDR1*%
X27907000Y-88435000D03*
%TO.P,X1,C9*%
%TO.N,IO-ADDR2*%
X27907000Y-85895000D03*
%TO.P,X1,C10*%
%TO.N,IO-ADDR3*%
X27907000Y-83355000D03*
%TO.P,X1,C11*%
%TO.N,/Sheet 1/-IO-ADDR-LD*%
X27907000Y-80815000D03*
%TO.P,X1,C12*%
%TO.N,-VMA*%
X27907000Y-78275000D03*
%TO.P,X1,C13*%
%TO.N,/Sheet 1/-INT*%
X27907000Y-75735000D03*
%TO.P,X1,C14*%
%TO.N,/Sheet 1/-INTA*%
X27907000Y-73195000D03*
%TO.P,X1,C15*%
%TO.N,/Sheet 1/-ALU-FUNC*%
X27907000Y-70655000D03*
%TO.P,X1,C16*%
%TO.N,/Sheet 1/ALU0*%
X27907000Y-68115000D03*
%TO.P,X1,C17*%
%TO.N,/Sheet 1/ALU1*%
X27907000Y-65575000D03*
%TO.P,X1,C18*%
%TO.N,/Sheet 1/ALU2*%
X27907000Y-63035000D03*
%TO.P,X1,C19*%
%TO.N,/Sheet 1/ALU3*%
X27907000Y-60495000D03*
%TO.P,X1,C20*%
%TO.N,/Sheet 1/-AC-LD-INV*%
X27907000Y-57955000D03*
%TO.P,X1,C21*%
%TO.N,/Sheet 1/-AC-RD*%
X27907000Y-55415000D03*
%TO.P,X1,C22*%
%TO.N,/Sheet 1/-AC-LD*%
X27907000Y-52875000D03*
%TO.P,X1,C23*%
%TO.N,/Sheet 1/-SR-LD*%
X27907000Y-50335000D03*
%TO.P,X1,C24*%
%TO.N,/Sheet 1/BR-COND*%
X27907000Y-47795000D03*
%TO.P,X1,C25*%
%TO.N,/Sheet 1/-HL-SWAP*%
X27907000Y-45255000D03*
%TO.P,X1,C26*%
%TO.N,/Sheet 1/-IN*%
X27907000Y-42715000D03*
%TO.P,X1,C27*%
%TO.N,/Sheet 1/-OUT*%
X27907000Y-40175000D03*
%TO.P,X1,C28*%
%TO.N,-BUS-EN*%
X27907000Y-37635000D03*
%TO.P,X1,C29*%
%TO.N,/Sheet 1/-RUN*%
X27907000Y-35095000D03*
%TO.P,X1,C30*%
%TO.N,-RESET*%
X27907000Y-32555000D03*
%TO.P,X1,C31*%
%TO.N,VCC*%
X27907000Y-30015000D03*
%TO.P,X1,C32*%
%TO.N,GND*%
X27907000Y-27475000D03*
%TD*%
D13*
%TO.P,C10,1*%
%TO.N,VCC*%
X69820000Y-38910000D03*
%TO.P,C10,2*%
%TO.N,GND*%
X69820000Y-36370000D03*
%TD*%
%TO.P,C14,1*%
%TO.N,VCC*%
X35530000Y-52880000D03*
%TO.P,C14,2*%
%TO.N,GND*%
X35530000Y-50340000D03*
%TD*%
D11*
%TO.P,IC18,1*%
%TO.N,/Sheet 2/ROM7*%
X129510000Y-22400000D03*
%TO.P,IC18,2*%
%TO.N,/Sheet 2/ROM6*%
X132050000Y-22400000D03*
%TO.P,IC18,3*%
%TO.N,/Sheet 2/ROM5*%
X134590000Y-22400000D03*
%TO.P,IC18,4*%
%TO.N,/Sheet 2/ROM4*%
X137130000Y-22400000D03*
%TO.P,IC18,5*%
%TO.N,/Sheet 2/ROM3*%
X139670000Y-22400000D03*
%TO.P,IC18,6*%
%TO.N,/Sheet 2/ROM2*%
X142210000Y-22400000D03*
%TO.P,IC18,7*%
%TO.N,GND*%
X144750000Y-22400000D03*
%TO.P,IC18,8*%
%TO.N,Net-(IC18-O)*%
X144750000Y-14780000D03*
%TO.P,IC18,9*%
%TO.N,N/C*%
X142210000Y-14780000D03*
%TO.P,IC18,10*%
X139670000Y-14780000D03*
%TO.P,IC18,11*%
%TO.N,/Sheet 2/ROM1*%
X137130000Y-14780000D03*
%TO.P,IC18,12*%
%TO.N,/Sheet 2/ROM0*%
X134590000Y-14780000D03*
%TO.P,IC18,13*%
%TO.N,N/C*%
X132050000Y-14780000D03*
%TO.P,IC18,14*%
%TO.N,VCC*%
X129510000Y-14780000D03*
%TD*%
%TO.P,IC8,1*%
%TO.N,GND*%
X40610000Y-97330000D03*
%TO.P,IC8,2*%
%TO.N,ADDR0*%
X43150000Y-97330000D03*
%TO.P,IC8,3*%
%TO.N,BADDR7*%
X45690000Y-97330000D03*
%TO.P,IC8,4*%
%TO.N,ADDR1*%
X48230000Y-97330000D03*
%TO.P,IC8,5*%
%TO.N,BADDR6*%
X50770000Y-97330000D03*
%TO.P,IC8,6*%
%TO.N,ADDR2*%
X53310000Y-97330000D03*
%TO.P,IC8,7*%
%TO.N,BADDR5*%
X55850000Y-97330000D03*
%TO.P,IC8,8*%
%TO.N,ADDR3*%
X58390000Y-97330000D03*
%TO.P,IC8,9*%
%TO.N,BADDR4*%
X60930000Y-97330000D03*
%TO.P,IC8,10*%
%TO.N,GND*%
X63470000Y-97330000D03*
%TO.P,IC8,11*%
%TO.N,ADDR4*%
X63470000Y-89710000D03*
%TO.P,IC8,12*%
%TO.N,BADDR3*%
X60930000Y-89710000D03*
%TO.P,IC8,13*%
%TO.N,ADDR5*%
X58390000Y-89710000D03*
%TO.P,IC8,14*%
%TO.N,BADDR2*%
X55850000Y-89710000D03*
%TO.P,IC8,15*%
%TO.N,ADDR6*%
X53310000Y-89710000D03*
%TO.P,IC8,16*%
%TO.N,BADDR1*%
X50770000Y-89710000D03*
%TO.P,IC8,17*%
%TO.N,ADDR7*%
X48230000Y-89710000D03*
%TO.P,IC8,18*%
%TO.N,BADDR0*%
X45690000Y-89710000D03*
%TO.P,IC8,19*%
%TO.N,GND*%
X43150000Y-89710000D03*
%TO.P,IC8,20*%
%TO.N,VCC*%
X40610000Y-89710000D03*
%TD*%
D16*
%TO.P,IC30,1*%
%TO.N,IO-ADDR0*%
X162530000Y-47800000D03*
D10*
%TO.P,IC30,2*%
%TO.N,IO-ADDR1*%
X165070000Y-47800000D03*
%TO.P,IC30,3*%
%TO.N,IO-ADDR2*%
X167610000Y-47800000D03*
%TO.P,IC30,4*%
%TO.N,GND*%
X170150000Y-47800000D03*
%TO.P,IC30,5*%
X172690000Y-47800000D03*
%TO.P,IC30,6*%
%TO.N,IO-ADDR3*%
X175230000Y-47800000D03*
%TO.P,IC30,7*%
%TO.N,unconnected-(IC30-O7-Pad7)*%
X177770000Y-47800000D03*
%TO.P,IC30,8*%
%TO.N,GND*%
X180310000Y-47800000D03*
%TO.P,IC30,9*%
%TO.N,unconnected-(IC30-O6-Pad9)*%
X180310000Y-40180000D03*
%TO.P,IC30,10*%
%TO.N,unconnected-(IC30-O5-Pad10)*%
X177770000Y-40180000D03*
%TO.P,IC30,11*%
%TO.N,unconnected-(IC30-O4-Pad11)*%
X175230000Y-40180000D03*
%TO.P,IC30,12*%
%TO.N,unconnected-(IC30-O3-Pad12)*%
X172690000Y-40180000D03*
%TO.P,IC30,13*%
%TO.N,unconnected-(IC30-O2-Pad13)*%
X170150000Y-40180000D03*
%TO.P,IC30,14*%
%TO.N,/Sheet 7/-P9SEL*%
X167610000Y-40180000D03*
%TO.P,IC30,15*%
%TO.N,/Sheet 7/-P8SEL*%
X165070000Y-40180000D03*
%TO.P,IC30,16*%
%TO.N,VCC*%
X162530000Y-40180000D03*
%TD*%
%TO.P,R11,1*%
%TO.N,VCC*%
X182850000Y-79550000D03*
%TO.P,R11,2*%
%TO.N,/Sheet 7/-PDIAG*%
X182850000Y-69390000D03*
%TD*%
D11*
%TO.P,IC5,1*%
%TO.N,-MEM-RD*%
X74900000Y-97330000D03*
%TO.P,IC5,2*%
%TO.N,DATA0*%
X77440000Y-97330000D03*
%TO.P,IC5,3*%
%TO.N,DATA1*%
X79980000Y-97330000D03*
%TO.P,IC5,4*%
%TO.N,DATA2*%
X82520000Y-97330000D03*
%TO.P,IC5,5*%
%TO.N,DATA3*%
X85060000Y-97330000D03*
%TO.P,IC5,6*%
%TO.N,DATA4*%
X87600000Y-97330000D03*
%TO.P,IC5,7*%
%TO.N,DATA5*%
X90140000Y-97330000D03*
%TO.P,IC5,8*%
%TO.N,DATA6*%
X92680000Y-97330000D03*
%TO.P,IC5,9*%
%TO.N,DATA7*%
X95220000Y-97330000D03*
%TO.P,IC5,10*%
%TO.N,GND*%
X97760000Y-97330000D03*
%TO.P,IC5,11*%
%TO.N,BDATA7*%
X97760000Y-89710000D03*
%TO.P,IC5,12*%
%TO.N,BDATA6*%
X95220000Y-89710000D03*
%TO.P,IC5,13*%
%TO.N,BDATA5*%
X92680000Y-89710000D03*
%TO.P,IC5,14*%
%TO.N,BDATA4*%
X90140000Y-89710000D03*
%TO.P,IC5,15*%
%TO.N,BDATA3*%
X87600000Y-89710000D03*
%TO.P,IC5,16*%
%TO.N,BDATA2*%
X85060000Y-89710000D03*
%TO.P,IC5,17*%
%TO.N,BDATA1*%
X82520000Y-89710000D03*
%TO.P,IC5,18*%
%TO.N,BDATA0*%
X79980000Y-89710000D03*
%TO.P,IC5,19*%
%TO.N,Net-(IC15A-O)*%
X77440000Y-89710000D03*
%TO.P,IC5,20*%
%TO.N,VCC*%
X74900000Y-89710000D03*
%TD*%
%TO.P,IC12,1*%
%TO.N,VCC*%
X74900000Y-55420000D03*
%TO.P,IC12,2*%
%TO.N,GND*%
X77440000Y-55420000D03*
%TO.P,IC12,3*%
%TO.N,Net-(IC10C-O)*%
X79980000Y-55420000D03*
%TO.P,IC12,4*%
%TO.N,-RESET*%
X82520000Y-55420000D03*
%TO.P,IC12,5*%
%TO.N,FORCE-ROM*%
X85060000Y-55420000D03*
%TO.P,IC12,6*%
%TO.N,unconnected-(IC12A-~{Q}-Pad6)*%
X87600000Y-55420000D03*
%TO.P,IC12,7*%
%TO.N,GND*%
X90140000Y-55420000D03*
%TO.P,IC12,8*%
%TO.N,unconnected-(IC12B-~{Q}-Pad8)*%
X90140000Y-47800000D03*
%TO.P,IC12,9*%
%TO.N,unconnected-(IC12B-Q-Pad9)*%
X87600000Y-47800000D03*
%TO.P,IC12,10*%
%TO.N,GND*%
X85060000Y-47800000D03*
%TO.P,IC12,11*%
X82520000Y-47800000D03*
%TO.P,IC12,12*%
X79980000Y-47800000D03*
%TO.P,IC12,13*%
X77440000Y-47800000D03*
%TO.P,IC12,14*%
%TO.N,VCC*%
X74900000Y-47800000D03*
%TD*%
D10*
%TO.P,R14,1*%
%TO.N,VCC*%
X153640000Y-117650000D03*
%TO.P,R14,2*%
%TO.N,/Sheet 7/LEDA2*%
X163800000Y-117650000D03*
%TD*%
D17*
%TO.P,JP2,1*%
%TO.N,VCC*%
X142210000Y-120190000D03*
D18*
%TO.P,JP2,2*%
%TO.N,/Sheet 7/PIN20*%
X144750000Y-120190000D03*
%TD*%
D10*
%TO.P,C26,1*%
%TO.N,VCC*%
X152370000Y-89710000D03*
%TO.P,C26,2*%
%TO.N,GND*%
X152370000Y-84710000D03*
%TD*%
D11*
%TO.P,IC29,1*%
%TO.N,-TMP-REG-RD1*%
X40610000Y-41450000D03*
%TO.P,IC29,2*%
%TO.N,DATA8*%
X43150000Y-41450000D03*
%TO.P,IC29,3*%
X45690000Y-41450000D03*
%TO.P,IC29,4*%
%TO.N,DATA9*%
X48230000Y-41450000D03*
%TO.P,IC29,5*%
X50770000Y-41450000D03*
%TO.P,IC29,6*%
%TO.N,DATA10*%
X53310000Y-41450000D03*
%TO.P,IC29,7*%
X55850000Y-41450000D03*
%TO.P,IC29,8*%
%TO.N,DATA11*%
X58390000Y-41450000D03*
%TO.P,IC29,9*%
X60930000Y-41450000D03*
%TO.P,IC29,10*%
%TO.N,GND*%
X63470000Y-41450000D03*
%TO.P,IC29,11*%
%TO.N,Net-(IC14F-O)*%
X63470000Y-33830000D03*
%TO.P,IC29,12*%
%TO.N,DATA12*%
X60930000Y-33830000D03*
%TO.P,IC29,13*%
X58390000Y-33830000D03*
%TO.P,IC29,14*%
%TO.N,DATA13*%
X55850000Y-33830000D03*
%TO.P,IC29,15*%
X53310000Y-33830000D03*
%TO.P,IC29,16*%
%TO.N,DATA14*%
X50770000Y-33830000D03*
%TO.P,IC29,17*%
X48230000Y-33830000D03*
%TO.P,IC29,18*%
%TO.N,DATA15*%
X45690000Y-33830000D03*
%TO.P,IC29,19*%
X43150000Y-33830000D03*
%TO.P,IC29,20*%
%TO.N,VCC*%
X40610000Y-33830000D03*
%TD*%
D13*
%TO.P,C1,1*%
%TO.N,VCC*%
X97760000Y-65580000D03*
%TO.P,C1,2*%
%TO.N,GND*%
X97760000Y-63040000D03*
%TD*%
%TO.P,C16,1*%
%TO.N,VCC*%
X35530000Y-66850000D03*
%TO.P,C16,2*%
%TO.N,GND*%
X35530000Y-64310000D03*
%TD*%
D19*
%TO.P,C30,1*%
%TO.N,VCC*%
X186660000Y-51610000D03*
D10*
%TO.P,C30,2*%
%TO.N,GND*%
X188660000Y-51610000D03*
%TD*%
D11*
%TO.P,IC28,1*%
%TO.N,-TMP-REG-RD1*%
X40610000Y-69390000D03*
%TO.P,IC28,2*%
%TO.N,DATA0*%
X43150000Y-69390000D03*
%TO.P,IC28,3*%
X45690000Y-69390000D03*
%TO.P,IC28,4*%
%TO.N,DATA1*%
X48230000Y-69390000D03*
%TO.P,IC28,5*%
X50770000Y-69390000D03*
%TO.P,IC28,6*%
%TO.N,DATA2*%
X53310000Y-69390000D03*
%TO.P,IC28,7*%
X55850000Y-69390000D03*
%TO.P,IC28,8*%
%TO.N,DATA3*%
X58390000Y-69390000D03*
%TO.P,IC28,9*%
X60930000Y-69390000D03*
%TO.P,IC28,10*%
%TO.N,GND*%
X63470000Y-69390000D03*
%TO.P,IC28,11*%
%TO.N,Net-(IC14F-O)*%
X63470000Y-61770000D03*
%TO.P,IC28,12*%
%TO.N,DATA4*%
X60930000Y-61770000D03*
%TO.P,IC28,13*%
X58390000Y-61770000D03*
%TO.P,IC28,14*%
%TO.N,DATA5*%
X55850000Y-61770000D03*
%TO.P,IC28,15*%
X53310000Y-61770000D03*
%TO.P,IC28,16*%
%TO.N,DATA6*%
X50770000Y-61770000D03*
%TO.P,IC28,17*%
X48230000Y-61770000D03*
%TO.P,IC28,18*%
%TO.N,DATA7*%
X45690000Y-61770000D03*
%TO.P,IC28,19*%
X43150000Y-61770000D03*
%TO.P,IC28,20*%
%TO.N,VCC*%
X40610000Y-61770000D03*
%TD*%
D13*
%TO.P,C8,1*%
%TO.N,VCC*%
X157450000Y-18590000D03*
%TO.P,C8,2*%
%TO.N,GND*%
X157450000Y-16050000D03*
%TD*%
D11*
%TO.P,IC10,1*%
%TO.N,Net-(IC10A-I0)*%
X74900000Y-83360000D03*
%TO.P,IC10,2*%
%TO.N,Net-(IC10A-I1)*%
X77440000Y-83360000D03*
%TO.P,IC10,3*%
%TO.N,-LO-RAM*%
X79980000Y-83360000D03*
%TO.P,IC10,4*%
%TO.N,ADDR15*%
X82520000Y-83360000D03*
%TO.P,IC10,5*%
%TO.N,Net-(IC10B-I1)*%
X85060000Y-83360000D03*
%TO.P,IC10,6*%
%TO.N,Net-(IC10B-O)*%
X87600000Y-83360000D03*
%TO.P,IC10,7*%
%TO.N,GND*%
X90140000Y-83360000D03*
%TO.P,IC10,8*%
%TO.N,Net-(IC10C-O)*%
X90140000Y-75740000D03*
%TO.P,IC10,9*%
%TO.N,Net-(IC10B-O)*%
X87600000Y-75740000D03*
%TO.P,IC10,10*%
X85060000Y-75740000D03*
%TO.P,IC10,11*%
%TO.N,Net-(IC10B-I1)*%
X82520000Y-75740000D03*
%TO.P,IC10,12*%
%TO.N,Net-(IC10D-I0)*%
X79980000Y-75740000D03*
%TO.P,IC10,13*%
X77440000Y-75740000D03*
%TO.P,IC10,14*%
%TO.N,VCC*%
X74900000Y-75740000D03*
%TD*%
%TO.P,IC4,1*%
%TO.N,/Sheet 2/RAM0*%
X162530000Y-35100000D03*
%TO.P,IC4,2*%
%TO.N,/Sheet 2/RAM1*%
X165070000Y-35100000D03*
%TO.P,IC4,3*%
%TO.N,/Sheet 2/RAM2*%
X167610000Y-35100000D03*
%TO.P,IC4,4*%
%TO.N,/Sheet 2/RAM3*%
X170150000Y-35100000D03*
%TO.P,IC4,5*%
%TO.N,/Sheet 2/RAM4*%
X172690000Y-35100000D03*
%TO.P,IC4,6*%
%TO.N,/Sheet 2/RAM5*%
X175230000Y-35100000D03*
%TO.P,IC4,7*%
%TO.N,GND*%
X177770000Y-35100000D03*
%TO.P,IC4,8*%
%TO.N,Net-(IC4-O)*%
X177770000Y-27480000D03*
%TO.P,IC4,9*%
%TO.N,N/C*%
X175230000Y-27480000D03*
%TO.P,IC4,10*%
X172690000Y-27480000D03*
%TO.P,IC4,11*%
%TO.N,/Sheet 2/RAM6*%
X170150000Y-27480000D03*
%TO.P,IC4,12*%
%TO.N,/Sheet 2/RAM7*%
X167610000Y-27480000D03*
%TO.P,IC4,13*%
%TO.N,N/C*%
X165070000Y-27480000D03*
%TO.P,IC4,14*%
%TO.N,VCC*%
X162530000Y-27480000D03*
%TD*%
D16*
%TO.P,IC31,1*%
%TO.N,/Sheet 7/-P8SEL*%
X157450000Y-90980000D03*
D10*
%TO.P,IC31,2*%
%TO.N,-IO-WR*%
X159990000Y-90980000D03*
%TO.P,IC31,3*%
%TO.N,/Sheet 7/LATCHCLK*%
X162530000Y-90980000D03*
%TO.P,IC31,4*%
%TO.N,/Sheet 7/-P9SEL*%
X165070000Y-90980000D03*
%TO.P,IC31,5*%
%TO.N,-IO-RD*%
X167610000Y-90980000D03*
%TO.P,IC31,6*%
%TO.N,/Sheet 7/-IOR*%
X170150000Y-90980000D03*
%TO.P,IC31,7*%
%TO.N,GND*%
X172690000Y-90980000D03*
%TO.P,IC31,8*%
%TO.N,/Sheet 7/-IOW*%
X172690000Y-83360000D03*
%TO.P,IC31,9*%
%TO.N,/Sheet 7/-P9SEL*%
X170150000Y-83360000D03*
%TO.P,IC31,10*%
%TO.N,-IO-WR*%
X167610000Y-83360000D03*
%TO.P,IC31,11*%
%TO.N,unconnected-(IC31-Pad11)*%
X165070000Y-83360000D03*
%TO.P,IC31,12*%
%TO.N,GND*%
X162530000Y-83360000D03*
%TO.P,IC31,13*%
X159990000Y-83360000D03*
%TO.P,IC31,14*%
%TO.N,VCC*%
X157450000Y-83360000D03*
%TD*%
D11*
%TO.P,IC1,1*%
%TO.N,BADDR14*%
X102840000Y-71930000D03*
%TO.P,IC1,2*%
%TO.N,BADDR12*%
X105380000Y-71930000D03*
%TO.P,IC1,3*%
%TO.N,BADDR7*%
X107920000Y-71930000D03*
%TO.P,IC1,4*%
%TO.N,BADDR6*%
X110460000Y-71930000D03*
%TO.P,IC1,5*%
%TO.N,BADDR5*%
X113000000Y-71930000D03*
%TO.P,IC1,6*%
%TO.N,BADDR4*%
X115540000Y-71930000D03*
%TO.P,IC1,7*%
%TO.N,BADDR3*%
X118080000Y-71930000D03*
%TO.P,IC1,8*%
%TO.N,BADDR2*%
X120620000Y-71930000D03*
%TO.P,IC1,9*%
%TO.N,BADDR1*%
X123160000Y-71930000D03*
%TO.P,IC1,10*%
%TO.N,BADDR0*%
X125700000Y-71930000D03*
%TO.P,IC1,11*%
%TO.N,BDATA0*%
X128240000Y-71930000D03*
%TO.P,IC1,12*%
%TO.N,BDATA1*%
X130780000Y-71930000D03*
%TO.P,IC1,13*%
%TO.N,BDATA2*%
X133320000Y-71930000D03*
%TO.P,IC1,14*%
%TO.N,GND*%
X135860000Y-71930000D03*
%TO.P,IC1,15*%
%TO.N,BDATA3*%
X135860000Y-56690000D03*
%TO.P,IC1,16*%
%TO.N,BDATA4*%
X133320000Y-56690000D03*
%TO.P,IC1,17*%
%TO.N,BDATA5*%
X130780000Y-56690000D03*
%TO.P,IC1,18*%
%TO.N,BDATA6*%
X128240000Y-56690000D03*
%TO.P,IC1,19*%
%TO.N,BDATA7*%
X125700000Y-56690000D03*
%TO.P,IC1,20*%
%TO.N,-LO-RAM*%
X123160000Y-56690000D03*
%TO.P,IC1,21*%
%TO.N,BADDR10*%
X120620000Y-56690000D03*
%TO.P,IC1,22*%
%TO.N,Net-(IC1-~{OE})*%
X118080000Y-56690000D03*
%TO.P,IC1,23*%
%TO.N,BADDR11*%
X115540000Y-56690000D03*
%TO.P,IC1,24*%
%TO.N,BADDR9*%
X113000000Y-56690000D03*
%TO.P,IC1,25*%
%TO.N,BADDR8*%
X110460000Y-56690000D03*
%TO.P,IC1,26*%
%TO.N,BADDR13*%
X107920000Y-56690000D03*
%TO.P,IC1,27*%
%TO.N,Net-(IC1-~{WE})*%
X105380000Y-56690000D03*
%TO.P,IC1,28*%
%TO.N,VCC*%
X102840000Y-56690000D03*
%TD*%
D10*
%TO.P,C27,1*%
%TO.N,VCC*%
X152370000Y-75740000D03*
%TO.P,C27,2*%
%TO.N,GND*%
X152370000Y-70740000D03*
%TD*%
D11*
%TO.P,IC13,1*%
%TO.N,unconnected-(IC13-NC-Pad1)*%
X102840000Y-50340000D03*
%TO.P,IC13,2*%
%TO.N,BADDR12*%
X105380000Y-50340000D03*
%TO.P,IC13,3*%
%TO.N,BADDR7*%
X107920000Y-50340000D03*
%TO.P,IC13,4*%
%TO.N,BADDR6*%
X110460000Y-50340000D03*
%TO.P,IC13,5*%
%TO.N,BADDR5*%
X113000000Y-50340000D03*
%TO.P,IC13,6*%
%TO.N,BADDR4*%
X115540000Y-50340000D03*
%TO.P,IC13,7*%
%TO.N,BADDR3*%
X118080000Y-50340000D03*
%TO.P,IC13,8*%
%TO.N,BADDR2*%
X120620000Y-50340000D03*
%TO.P,IC13,9*%
%TO.N,BADDR1*%
X123160000Y-50340000D03*
%TO.P,IC13,10*%
%TO.N,BADDR0*%
X125700000Y-50340000D03*
%TO.P,IC13,11*%
%TO.N,BDATA0*%
X128240000Y-50340000D03*
%TO.P,IC13,12*%
%TO.N,BDATA1*%
X130780000Y-50340000D03*
%TO.P,IC13,13*%
%TO.N,BDATA2*%
X133320000Y-50340000D03*
%TO.P,IC13,14*%
%TO.N,GND*%
X135860000Y-50340000D03*
%TO.P,IC13,15*%
%TO.N,BDATA3*%
X135860000Y-35100000D03*
%TO.P,IC13,16*%
%TO.N,BDATA4*%
X133320000Y-35100000D03*
%TO.P,IC13,17*%
%TO.N,BDATA5*%
X130780000Y-35100000D03*
%TO.P,IC13,18*%
%TO.N,BDATA6*%
X128240000Y-35100000D03*
%TO.P,IC13,19*%
%TO.N,BDATA7*%
X125700000Y-35100000D03*
%TO.P,IC13,20*%
%TO.N,-ROM-CS*%
X123160000Y-35100000D03*
%TO.P,IC13,21*%
%TO.N,BADDR10*%
X120620000Y-35100000D03*
%TO.P,IC13,22*%
%TO.N,Net-(IC1-~{OE})*%
X118080000Y-35100000D03*
%TO.P,IC13,23*%
%TO.N,BADDR11*%
X115540000Y-35100000D03*
%TO.P,IC13,24*%
%TO.N,BADDR9*%
X113000000Y-35100000D03*
%TO.P,IC13,25*%
%TO.N,BADDR8*%
X110460000Y-35100000D03*
%TO.P,IC13,26*%
%TO.N,unconnected-(IC13-NC@1-Pad26)*%
X107920000Y-35100000D03*
%TO.P,IC13,27*%
%TO.N,Net-(IC1-~{WE})*%
X105380000Y-35100000D03*
%TO.P,IC13,28*%
%TO.N,VCC*%
X102840000Y-35100000D03*
%TD*%
D10*
%TO.P,R10,1*%
%TO.N,VCC*%
X179040000Y-79550000D03*
%TO.P,R10,2*%
%TO.N,/Sheet 7/IORDY*%
X179040000Y-69390000D03*
%TD*%
D16*
%TO.P,IC34,1*%
%TO.N,/Sheet 7/-IOR*%
X157450000Y-104950000D03*
D10*
%TO.P,IC34,2*%
%TO.N,DATA0*%
X159990000Y-104950000D03*
%TO.P,IC34,3*%
%TO.N,DATA1*%
X162530000Y-104950000D03*
%TO.P,IC34,4*%
%TO.N,DATA2*%
X165070000Y-104950000D03*
%TO.P,IC34,5*%
%TO.N,DATA3*%
X167610000Y-104950000D03*
%TO.P,IC34,6*%
%TO.N,DATA4*%
X170150000Y-104950000D03*
%TO.P,IC34,7*%
%TO.N,DATA5*%
X172690000Y-104950000D03*
%TO.P,IC34,8*%
%TO.N,DATA6*%
X175230000Y-104950000D03*
%TO.P,IC34,9*%
%TO.N,DATA7*%
X177770000Y-104950000D03*
%TO.P,IC34,10*%
%TO.N,GND*%
X180310000Y-104950000D03*
%TO.P,IC34,11*%
%TO.N,/Sheet 7/CFD7*%
X180310000Y-97330000D03*
%TO.P,IC34,12*%
%TO.N,/Sheet 7/CFD6*%
X177770000Y-97330000D03*
%TO.P,IC34,13*%
%TO.N,/Sheet 7/CFD5*%
X175230000Y-97330000D03*
%TO.P,IC34,14*%
%TO.N,/Sheet 7/CFD4*%
X172690000Y-97330000D03*
%TO.P,IC34,15*%
%TO.N,/Sheet 7/CFD3*%
X170150000Y-97330000D03*
%TO.P,IC34,16*%
%TO.N,/Sheet 7/CFD2*%
X167610000Y-97330000D03*
%TO.P,IC34,17*%
%TO.N,/Sheet 7/CFD1*%
X165070000Y-97330000D03*
%TO.P,IC34,18*%
%TO.N,/Sheet 7/CFD0*%
X162530000Y-97330000D03*
%TO.P,IC34,19*%
%TO.N,/Sheet 7/-CFOE*%
X159990000Y-97330000D03*
%TO.P,IC34,20*%
%TO.N,VCC*%
X157450000Y-97330000D03*
%TD*%
D11*
%TO.P,IC7,1*%
%TO.N,BADDR12*%
X162530000Y-21130000D03*
%TO.P,IC7,2*%
%TO.N,BADDR13*%
X165070000Y-21130000D03*
%TO.P,IC7,3*%
%TO.N,BADDR14*%
X167610000Y-21130000D03*
%TO.P,IC7,4*%
%TO.N,-VMA*%
X170150000Y-21130000D03*
%TO.P,IC7,5*%
%TO.N,Net-(IC7-G2B)*%
X172690000Y-21130000D03*
%TO.P,IC7,6*%
%TO.N,BADDR15*%
X175230000Y-21130000D03*
%TO.P,IC7,7*%
%TO.N,/Sheet 2/SEL7*%
X177770000Y-21130000D03*
%TO.P,IC7,8*%
%TO.N,GND*%
X180310000Y-21130000D03*
%TO.P,IC7,9*%
%TO.N,/Sheet 2/SEL6*%
X180310000Y-13510000D03*
%TO.P,IC7,10*%
%TO.N,/Sheet 2/SEL5*%
X177770000Y-13510000D03*
%TO.P,IC7,11*%
%TO.N,/Sheet 2/SEL4*%
X175230000Y-13510000D03*
%TO.P,IC7,12*%
%TO.N,/Sheet 2/SEL3*%
X172690000Y-13510000D03*
%TO.P,IC7,13*%
%TO.N,/Sheet 2/SEL2*%
X170150000Y-13510000D03*
%TO.P,IC7,14*%
%TO.N,/Sheet 2/SEL1*%
X167610000Y-13510000D03*
%TO.P,IC7,15*%
%TO.N,/Sheet 2/SEL0*%
X165070000Y-13510000D03*
%TO.P,IC7,16*%
%TO.N,VCC*%
X162530000Y-13510000D03*
%TD*%
D13*
%TO.P,C6,1*%
%TO.N,VCC*%
X69820000Y-94790000D03*
%TO.P,C6,2*%
%TO.N,GND*%
X69820000Y-92250000D03*
%TD*%
D11*
%TO.P,IC15,1*%
%TO.N,-LO-RAM*%
X102840000Y-107490000D03*
%TO.P,IC15,2*%
%TO.N,-HI-RAM*%
X105380000Y-107490000D03*
%TO.P,IC15,3*%
%TO.N,GND*%
X107920000Y-107490000D03*
%TO.P,IC15,4*%
X110460000Y-107490000D03*
%TO.P,IC15,5*%
X113000000Y-107490000D03*
%TO.P,IC15,6*%
%TO.N,unconnected-(IC15B-O-Pad6)*%
X115540000Y-107490000D03*
%TO.P,IC15,7*%
%TO.N,GND*%
X118080000Y-107490000D03*
%TO.P,IC15,8*%
%TO.N,unconnected-(IC15C-O-Pad8)*%
X118080000Y-99870000D03*
%TO.P,IC15,9*%
%TO.N,GND*%
X115540000Y-99870000D03*
%TO.P,IC15,10*%
X113000000Y-99870000D03*
%TO.P,IC15,11*%
X110460000Y-99870000D03*
%TO.P,IC15,12*%
%TO.N,Net-(IC15A-O)*%
X107920000Y-99870000D03*
%TO.P,IC15,13*%
%TO.N,-ROM-CS*%
X105380000Y-99870000D03*
%TO.P,IC15,14*%
%TO.N,VCC*%
X102840000Y-99870000D03*
%TD*%
D20*
%TO.P,U$1,1*%
%TO.N,/Sheet 2/ROM0*%
X102840000Y-18590000D03*
%TO.P,U$1,2*%
%TO.N,/Sheet 2/ROM1*%
X105380000Y-18590000D03*
%TO.P,U$1,3*%
%TO.N,/Sheet 2/ROM2*%
X107920000Y-18590000D03*
%TO.P,U$1,4*%
%TO.N,/Sheet 2/ROM3*%
X110460000Y-18590000D03*
%TO.P,U$1,5*%
%TO.N,/Sheet 2/ROM4*%
X113000000Y-18590000D03*
%TO.P,U$1,6*%
%TO.N,/Sheet 2/ROM5*%
X115540000Y-18590000D03*
%TO.P,U$1,7*%
%TO.N,/Sheet 2/ROM6*%
X118080000Y-18590000D03*
%TO.P,U$1,8*%
%TO.N,/Sheet 2/ROM7*%
X120620000Y-18590000D03*
%TO.P,U$1,9*%
%TO.N,/Sheet 2/SEL0*%
X102840000Y-21130000D03*
%TO.P,U$1,10*%
%TO.N,/Sheet 2/SEL1*%
X105380000Y-21130000D03*
%TO.P,U$1,11*%
%TO.N,/Sheet 2/SEL2*%
X107920000Y-21130000D03*
%TO.P,U$1,12*%
%TO.N,/Sheet 2/SEL3*%
X110460000Y-21130000D03*
%TO.P,U$1,13*%
%TO.N,/Sheet 2/SEL4*%
X113000000Y-21130000D03*
%TO.P,U$1,14*%
%TO.N,/Sheet 2/SEL5*%
X115540000Y-21130000D03*
%TO.P,U$1,15*%
%TO.N,/Sheet 2/SEL6*%
X118080000Y-21130000D03*
%TO.P,U$1,16*%
%TO.N,/Sheet 2/SEL7*%
X120620000Y-21130000D03*
%TO.P,U$1,17*%
%TO.N,/Sheet 2/RAM0*%
X102840000Y-23670000D03*
%TO.P,U$1,18*%
%TO.N,/Sheet 2/RAM1*%
X105380000Y-23670000D03*
%TO.P,U$1,19*%
%TO.N,/Sheet 2/RAM2*%
X107920000Y-23670000D03*
%TO.P,U$1,20*%
%TO.N,/Sheet 2/RAM3*%
X110460000Y-23670000D03*
%TO.P,U$1,21*%
%TO.N,/Sheet 2/RAM4*%
X113000000Y-23670000D03*
%TO.P,U$1,22*%
%TO.N,/Sheet 2/RAM5*%
X115540000Y-23670000D03*
%TO.P,U$1,23*%
%TO.N,/Sheet 2/RAM6*%
X118080000Y-23670000D03*
%TO.P,U$1,24*%
%TO.N,/Sheet 2/RAM7*%
X120620000Y-23670000D03*
%TD*%
D10*
%TO.P,C25,1*%
%TO.N,VCC*%
X157450000Y-46530000D03*
%TO.P,C25,2*%
%TO.N,GND*%
X157450000Y-41530000D03*
%TD*%
D13*
%TO.P,C18,1*%
%TO.N,VCC*%
X69820000Y-108760000D03*
%TO.P,C18,2*%
%TO.N,GND*%
X69820000Y-106220000D03*
%TD*%
%TO.P,C9,1*%
%TO.N,VCC*%
X69820000Y-80820000D03*
%TO.P,C9,2*%
%TO.N,GND*%
X69820000Y-78280000D03*
%TD*%
%TO.P,C5,1*%
%TO.N,VCC*%
X35530000Y-94790000D03*
%TO.P,C5,2*%
%TO.N,GND*%
X35530000Y-92250000D03*
%TD*%
D10*
%TO.P,C29,1*%
%TO.N,VCC*%
X152370000Y-103680000D03*
%TO.P,C29,2*%
%TO.N,GND*%
X152370000Y-98680000D03*
%TD*%
D11*
%TO.P,RN6,1*%
%TO.N,GND*%
X40610000Y-110030000D03*
%TO.P,RN6,2*%
%TO.N,DATA8*%
X43150000Y-110030000D03*
%TO.P,RN6,3*%
%TO.N,DATA9*%
X45690000Y-110030000D03*
%TO.P,RN6,4*%
%TO.N,DATA10*%
X48230000Y-110030000D03*
%TO.P,RN6,5*%
%TO.N,DATA11*%
X50770000Y-110030000D03*
%TO.P,RN6,6*%
%TO.N,DATA12*%
X53310000Y-110030000D03*
%TO.P,RN6,7*%
%TO.N,DATA13*%
X55850000Y-110030000D03*
%TO.P,RN6,8*%
%TO.N,DATA14*%
X58390000Y-110030000D03*
%TO.P,RN6,9*%
%TO.N,DATA15*%
X60930000Y-110030000D03*
%TD*%
D13*
%TO.P,C15,1*%
%TO.N,VCC*%
X35530000Y-24940000D03*
%TO.P,C15,2*%
%TO.N,GND*%
X35530000Y-22400000D03*
%TD*%
D10*
%TO.P,R12,1*%
%TO.N,VCC*%
X186660000Y-79550000D03*
%TO.P,R12,2*%
%TO.N,/Sheet 7/-DASP*%
X186660000Y-69390000D03*
%TD*%
D21*
%TO.P,JP1,1*%
%TO.N,-BUS-EN*%
X22830000Y-14780000D03*
%TO.P,JP1,2*%
%TO.N,Net-(IC7-G2B)*%
X25370000Y-14780000D03*
%TO.P,JP1,3*%
%TO.N,GND*%
X27910000Y-14780000D03*
%TD*%
D22*
%TO.P,J2,1*%
%TO.N,/Sheet 7/-CFRESET*%
X144750000Y-110030000D03*
D18*
%TO.P,J2,2*%
%TO.N,GND*%
X142210000Y-110030000D03*
%TO.P,J2,3*%
%TO.N,/Sheet 7/CFD7*%
X144750000Y-107490000D03*
%TO.P,J2,4*%
%TO.N,unconnected-(J2-Pin_4-Pad4)*%
X142210000Y-107490000D03*
%TO.P,J2,5*%
%TO.N,/Sheet 7/CFD6*%
X144750000Y-104950000D03*
%TO.P,J2,6*%
%TO.N,unconnected-(J2-Pin_6-Pad6)*%
X142210000Y-104950000D03*
%TO.P,J2,7*%
%TO.N,/Sheet 7/CFD5*%
X144750000Y-102410000D03*
%TO.P,J2,8*%
%TO.N,unconnected-(J2-Pin_8-Pad8)*%
X142210000Y-102410000D03*
%TO.P,J2,9*%
%TO.N,/Sheet 7/CFD4*%
X144750000Y-99870000D03*
%TO.P,J2,10*%
%TO.N,unconnected-(J2-Pin_10-Pad10)*%
X142210000Y-99870000D03*
%TO.P,J2,11*%
%TO.N,/Sheet 7/CFD3*%
X144750000Y-97330000D03*
%TO.P,J2,12*%
%TO.N,unconnected-(J2-Pin_12-Pad12)*%
X142210000Y-97330000D03*
%TO.P,J2,13*%
%TO.N,/Sheet 7/CFD2*%
X144750000Y-94790000D03*
%TO.P,J2,14*%
%TO.N,unconnected-(J2-Pin_14-Pad14)*%
X142210000Y-94790000D03*
%TO.P,J2,15*%
%TO.N,/Sheet 7/CFD1*%
X144750000Y-92250000D03*
%TO.P,J2,16*%
%TO.N,unconnected-(J2-Pin_16-Pad16)*%
X142210000Y-92250000D03*
%TO.P,J2,17*%
%TO.N,/Sheet 7/CFD0*%
X144750000Y-89710000D03*
%TO.P,J2,18*%
%TO.N,unconnected-(J2-Pin_18-Pad18)*%
X142210000Y-89710000D03*
%TO.P,J2,19*%
%TO.N,GND*%
X144750000Y-87170000D03*
%TO.P,J2,20*%
%TO.N,/Sheet 7/PIN20*%
X142210000Y-87170000D03*
%TO.P,J2,21*%
%TO.N,unconnected-(J2-Pin_21-Pad21)*%
X144750000Y-84630000D03*
%TO.P,J2,22*%
%TO.N,GND*%
X142210000Y-84630000D03*
%TO.P,J2,23*%
%TO.N,/Sheet 7/-IOW*%
X144750000Y-82090000D03*
%TO.P,J2,24*%
%TO.N,GND*%
X142210000Y-82090000D03*
%TO.P,J2,25*%
%TO.N,/Sheet 7/-IOR*%
X144750000Y-79550000D03*
%TO.P,J2,26*%
%TO.N,GND*%
X142210000Y-79550000D03*
%TO.P,J2,27*%
%TO.N,/Sheet 7/IORDY*%
X144750000Y-77010000D03*
%TO.P,J2,28*%
%TO.N,GND*%
X142210000Y-77010000D03*
%TO.P,J2,29*%
%TO.N,/Sheet 7/-DMACK*%
X144750000Y-74470000D03*
%TO.P,J2,30*%
%TO.N,GND*%
X142210000Y-74470000D03*
%TO.P,J2,31*%
%TO.N,unconnected-(J2-Pin_31-Pad31)*%
X144750000Y-71930000D03*
%TO.P,J2,32*%
%TO.N,unconnected-(J2-Pin_32-Pad32)*%
X142210000Y-71930000D03*
%TO.P,J2,33*%
%TO.N,/Sheet 7/DA1*%
X144750000Y-69390000D03*
%TO.P,J2,34*%
%TO.N,/Sheet 7/-PDIAG*%
X142210000Y-69390000D03*
%TO.P,J2,35*%
%TO.N,/Sheet 7/DA0*%
X144750000Y-66850000D03*
%TO.P,J2,36*%
%TO.N,/Sheet 7/DA2*%
X142210000Y-66850000D03*
%TO.P,J2,37*%
%TO.N,GND*%
X144750000Y-64310000D03*
%TO.P,J2,38*%
%TO.N,VCC*%
X142210000Y-64310000D03*
%TO.P,J2,39*%
%TO.N,/Sheet 7/-DASP*%
X144750000Y-61770000D03*
%TO.P,J2,40*%
%TO.N,GND*%
X142210000Y-61770000D03*
%TD*%
D13*
%TO.P,C12,1*%
%TO.N,VCC*%
X69820000Y-52880000D03*
%TO.P,C12,2*%
%TO.N,GND*%
X69820000Y-50340000D03*
%TD*%
D11*
%TO.P,IC6,1*%
%TO.N,Net-(IC6A-I)*%
X74900000Y-41450000D03*
%TO.P,IC6,2*%
%TO.N,Net-(IC1-~{OE})*%
X77440000Y-41450000D03*
%TO.P,IC6,3*%
%TO.N,Net-(IC6B-I)*%
X79980000Y-41450000D03*
%TO.P,IC6,4*%
%TO.N,Net-(IC1-~{WE})*%
X82520000Y-41450000D03*
%TO.P,IC6,5*%
%TO.N,-MEM-RD*%
X85060000Y-41450000D03*
%TO.P,IC6,6*%
%TO.N,Net-(IC6A-I)*%
X87600000Y-41450000D03*
%TO.P,IC6,7*%
%TO.N,GND*%
X90140000Y-41450000D03*
%TO.P,IC6,8*%
%TO.N,Net-(IC6B-I)*%
X90140000Y-33830000D03*
%TO.P,IC6,9*%
%TO.N,-MEM-WR*%
X87600000Y-33830000D03*
%TO.P,IC6,10*%
%TO.N,-HI-RAM*%
X85060000Y-33830000D03*
%TO.P,IC6,11*%
%TO.N,Net-(IC4-O)*%
X82520000Y-33830000D03*
%TO.P,IC6,12*%
%TO.N,-ROM-CS*%
X79980000Y-33830000D03*
%TO.P,IC6,13*%
%TO.N,Net-(IC18-O)*%
X77440000Y-33830000D03*
%TO.P,IC6,14*%
%TO.N,VCC*%
X74900000Y-33830000D03*
%TD*%
D13*
%TO.P,C13,1*%
%TO.N,VCC*%
X69820000Y-24940000D03*
%TO.P,C13,2*%
%TO.N,GND*%
X69820000Y-22400000D03*
%TD*%
D11*
%TO.P,IC14,1*%
%TO.N,-TMP-REG-LD0*%
X74900000Y-27480000D03*
%TO.P,IC14,2*%
%TO.N,Net-(IC14A-O)*%
X77440000Y-27480000D03*
%TO.P,IC14,3*%
%TO.N,BADDR15*%
X79980000Y-27480000D03*
%TO.P,IC14,4*%
%TO.N,Net-(IC10A-I0)*%
X82520000Y-27480000D03*
%TO.P,IC14,5*%
%TO.N,N/C*%
X85060000Y-27480000D03*
%TO.P,IC14,6*%
X87600000Y-27480000D03*
%TO.P,IC14,7*%
%TO.N,GND*%
X90140000Y-27480000D03*
%TO.P,IC14,8*%
%TO.N,N/C*%
X90140000Y-19860000D03*
%TO.P,IC14,9*%
X87600000Y-19860000D03*
%TO.P,IC14,10*%
%TO.N,Net-(IC10A-I1)*%
X85060000Y-19860000D03*
%TO.P,IC14,11*%
%TO.N,-VMA*%
X82520000Y-19860000D03*
%TO.P,IC14,12*%
%TO.N,Net-(IC14F-O)*%
X79980000Y-19860000D03*
%TO.P,IC14,13*%
%TO.N,-TMP-REG-LD1*%
X77440000Y-19860000D03*
%TO.P,IC14,14*%
%TO.N,VCC*%
X74900000Y-19860000D03*
%TD*%
D13*
%TO.P,C7,1*%
%TO.N,VCC*%
X157450000Y-32560000D03*
%TO.P,C7,2*%
%TO.N,GND*%
X157450000Y-30020000D03*
%TD*%
D16*
%TO.P,IC33,1*%
%TO.N,/Sheet 7/-IOR*%
X176500000Y-115110000D03*
D10*
%TO.P,IC33,2*%
%TO.N,/Sheet 7/-IOW*%
X179040000Y-115110000D03*
%TO.P,IC33,3*%
%TO.N,/Sheet 7/-CFOE*%
X181580000Y-115110000D03*
%TO.P,IC33,4*%
%TO.N,-RESET*%
X184120000Y-115110000D03*
%TO.P,IC33,5*%
%TO.N,/Sheet 7/-SRST*%
X186660000Y-115110000D03*
%TO.P,IC33,6*%
%TO.N,/Sheet 7/-CFRESET*%
X189200000Y-115110000D03*
%TO.P,IC33,7*%
%TO.N,GND*%
X191740000Y-115110000D03*
%TO.P,IC33,8*%
%TO.N,/Sheet 7/ACTK*%
X191740000Y-107490000D03*
%TO.P,IC33,9*%
%TO.N,/Sheet 7/-CFOE*%
X189200000Y-107490000D03*
%TO.P,IC33,10*%
X186660000Y-107490000D03*
%TO.P,IC33,11*%
%TO.N,unconnected-(IC33-Pad11)*%
X184120000Y-107490000D03*
%TO.P,IC33,12*%
%TO.N,GND*%
X181580000Y-107490000D03*
%TO.P,IC33,13*%
X179040000Y-107490000D03*
%TO.P,IC33,14*%
%TO.N,VCC*%
X176500000Y-107490000D03*
%TD*%
D13*
%TO.P,C3,1*%
%TO.N,VCC*%
X97760000Y-59230000D03*
%TO.P,C3,2*%
%TO.N,GND*%
X97760000Y-56690000D03*
%TD*%
%TO.P,C4,1*%
%TO.N,VCC*%
X35530000Y-80820000D03*
%TO.P,C4,2*%
%TO.N,GND*%
X35530000Y-78280000D03*
%TD*%
D11*
%TO.P,RN5,1*%
%TO.N,GND*%
X40610000Y-104950000D03*
%TO.P,RN5,2*%
%TO.N,DATA0*%
X43150000Y-104950000D03*
%TO.P,RN5,3*%
%TO.N,DATA1*%
X45690000Y-104950000D03*
%TO.P,RN5,4*%
%TO.N,DATA2*%
X48230000Y-104950000D03*
%TO.P,RN5,5*%
%TO.N,DATA3*%
X50770000Y-104950000D03*
%TO.P,RN5,6*%
%TO.N,DATA4*%
X53310000Y-104950000D03*
%TO.P,RN5,7*%
%TO.N,DATA5*%
X55850000Y-104950000D03*
%TO.P,RN5,8*%
%TO.N,DATA6*%
X58390000Y-104950000D03*
%TO.P,RN5,9*%
%TO.N,DATA7*%
X60930000Y-104950000D03*
%TD*%
D13*
%TO.P,C19,1*%
%TO.N,GND*%
X97760000Y-104950000D03*
%TO.P,C19,2*%
%TO.N,VCC*%
X97760000Y-102410000D03*
%TD*%
%TO.P,C24,1*%
%TO.N,GND*%
X125700000Y-19860000D03*
%TO.P,C24,2*%
%TO.N,VCC*%
X125700000Y-17320000D03*
%TD*%
D23*
%TO.P,PWR0,A*%
%TO.N,Net-(PWR0-PadA)*%
X193010000Y-120190000D03*
%TO.P,PWR0,K*%
%TO.N,GND*%
X190470000Y-120190000D03*
%TD*%
D17*
%TO.P,J3,1*%
%TO.N,VCC*%
X157450000Y-52880000D03*
D18*
%TO.P,J3,2*%
%TO.N,GND*%
X159990000Y-52880000D03*
%TO.P,J3,3*%
X162530000Y-52880000D03*
%TO.P,J3,4*%
%TO.N,unconnected-(J3-Pin_4-Pad4)*%
X165070000Y-52880000D03*
%TD*%
D13*
%TO.P,C17,1*%
%TO.N,VCC*%
X35530000Y-38910000D03*
%TO.P,C17,2*%
%TO.N,GND*%
X35530000Y-36370000D03*
%TD*%
D16*
%TO.P,IC32,1*%
%TO.N,-RESET*%
X157450000Y-77010000D03*
D10*
%TO.P,IC32,2*%
%TO.N,/Sheet 7/DA0*%
X159990000Y-77010000D03*
%TO.P,IC32,3*%
%TO.N,unconnected-(IC32-~{Q0}-Pad3)*%
X162530000Y-77010000D03*
%TO.P,IC32,4*%
%TO.N,DATA0*%
X165070000Y-77010000D03*
%TO.P,IC32,5*%
%TO.N,DATA1*%
X167610000Y-77010000D03*
%TO.P,IC32,6*%
%TO.N,unconnected-(IC32-~{Q1}-Pad6)*%
X170150000Y-77010000D03*
%TO.P,IC32,7*%
%TO.N,/Sheet 7/DA1*%
X172690000Y-77010000D03*
%TO.P,IC32,8*%
%TO.N,GND*%
X175230000Y-77010000D03*
%TO.P,IC32,9*%
%TO.N,/Sheet 7/LATCHCLK*%
X175230000Y-69390000D03*
%TO.P,IC32,10*%
%TO.N,/Sheet 7/DA2*%
X172690000Y-69390000D03*
%TO.P,IC32,11*%
%TO.N,unconnected-(IC32-~{Q2}-Pad11)*%
X170150000Y-69390000D03*
%TO.P,IC32,12*%
%TO.N,DATA2*%
X167610000Y-69390000D03*
%TO.P,IC32,13*%
%TO.N,DATA3*%
X165070000Y-69390000D03*
%TO.P,IC32,14*%
%TO.N,/Sheet 7/-SRST*%
X162530000Y-69390000D03*
%TO.P,IC32,15*%
%TO.N,/Sheet 7/SRST*%
X159990000Y-69390000D03*
%TO.P,IC32,16*%
%TO.N,VCC*%
X157450000Y-69390000D03*
%TD*%
D24*
%TO.P,LED1,1*%
%TO.N,/Sheet 7/ACTK*%
X184120000Y-120190000D03*
D25*
%TO.P,LED1,2*%
%TO.N,/Sheet 7/LEDA2*%
X181580000Y-120190000D03*
%TD*%
D11*
%TO.P,IC27,1*%
%TO.N,-TMP-REG-RD0*%
X40610000Y-27480000D03*
%TO.P,IC27,2*%
%TO.N,DATA8*%
X43150000Y-27480000D03*
%TO.P,IC27,3*%
X45690000Y-27480000D03*
%TO.P,IC27,4*%
%TO.N,DATA9*%
X48230000Y-27480000D03*
%TO.P,IC27,5*%
X50770000Y-27480000D03*
%TO.P,IC27,6*%
%TO.N,DATA10*%
X53310000Y-27480000D03*
%TO.P,IC27,7*%
X55850000Y-27480000D03*
%TO.P,IC27,8*%
%TO.N,DATA11*%
X58390000Y-27480000D03*
%TO.P,IC27,9*%
X60930000Y-27480000D03*
%TO.P,IC27,10*%
%TO.N,GND*%
X63470000Y-27480000D03*
%TO.P,IC27,11*%
%TO.N,Net-(IC14A-O)*%
X63470000Y-19860000D03*
%TO.P,IC27,12*%
%TO.N,DATA12*%
X60930000Y-19860000D03*
%TO.P,IC27,13*%
X58390000Y-19860000D03*
%TO.P,IC27,14*%
%TO.N,DATA13*%
X55850000Y-19860000D03*
%TO.P,IC27,15*%
X53310000Y-19860000D03*
%TO.P,IC27,16*%
%TO.N,DATA14*%
X50770000Y-19860000D03*
%TO.P,IC27,17*%
X48230000Y-19860000D03*
%TO.P,IC27,18*%
%TO.N,DATA15*%
X45690000Y-19860000D03*
%TO.P,IC27,19*%
X43150000Y-19860000D03*
%TO.P,IC27,20*%
%TO.N,VCC*%
X40610000Y-19860000D03*
%TD*%
D26*
%TO.P,RN9,1*%
%TO.N,VCC*%
X191740000Y-103680000D03*
D10*
%TO.P,RN9,2*%
%TO.N,/Sheet 7/CFD0*%
X191740000Y-101140000D03*
%TO.P,RN9,3*%
%TO.N,/Sheet 7/CFD1*%
X191740000Y-98600000D03*
%TO.P,RN9,4*%
%TO.N,/Sheet 7/CFD2*%
X191740000Y-96060000D03*
%TO.P,RN9,5*%
%TO.N,/Sheet 7/CFD3*%
X191740000Y-93520000D03*
%TO.P,RN9,6*%
%TO.N,/Sheet 7/CFD4*%
X191740000Y-90980000D03*
%TO.P,RN9,7*%
%TO.N,/Sheet 7/CFD5*%
X191740000Y-88440000D03*
%TO.P,RN9,8*%
%TO.N,/Sheet 7/CFD6*%
X191740000Y-85900000D03*
%TO.P,RN9,9*%
%TO.N,/Sheet 7/CFD7*%
X191740000Y-83360000D03*
%TD*%
D27*
%TO.N,BADDR4*%
X67960000Y-76610500D03*
%TO.N,BADDR3*%
X115414600Y-86962700D03*
%TO.N,BADDR2*%
X118825700Y-83558800D03*
%TO.N,BADDR0*%
X46512000Y-77429000D03*
%TO.N,-HI-RAM*%
X92022300Y-34289600D03*
%TO.N,BADDR9*%
X51661200Y-71741100D03*
%TO.N,BADDR8*%
X49707700Y-63438500D03*
%TO.N,Net-(IC11-2A)*%
X60932000Y-81535400D03*
X71578900Y-70670700D03*
%TO.N,Net-(IC11-3A)*%
X85943800Y-85351700D03*
%TO.N,Net-(IC11-4A)*%
X66219000Y-86076000D03*
%TO.N,-VMA*%
X82776100Y-25242000D03*
X64818700Y-85198200D03*
%TO.N,ADDR13*%
X58174400Y-73015600D03*
%TO.N,ADDR14*%
X52893900Y-72563900D03*
%TO.N,ADDR15*%
X48312200Y-71756700D03*
%TO.N,DATA0*%
X86337600Y-101750900D03*
X155736500Y-98507600D03*
X160412200Y-78544700D03*
%TO.N,DATA1*%
X158807900Y-81837000D03*
X156487200Y-96037800D03*
%TO.N,DATA2*%
X153826200Y-106734000D03*
X169778300Y-103469500D03*
%TO.N,DATA3*%
X53615700Y-71230100D03*
X51315700Y-100598500D03*
X152867900Y-107228500D03*
%TO.N,DATA4*%
X80288500Y-78883900D03*
X99566500Y-103033100D03*
X167142500Y-101899100D03*
X61859500Y-72429600D03*
%TO.N,DATA5*%
X23721100Y-33843100D03*
X51986900Y-20623400D03*
X24371100Y-19890700D03*
%TO.N,DATA6*%
X57038200Y-59812400D03*
X99474400Y-108317800D03*
%TO.N,DATA7*%
X58642500Y-102664100D03*
X71170100Y-102989100D03*
X58415400Y-64179400D03*
%TO.N,/Sheet 2/RAM0*%
X157768500Y-27415800D03*
%TO.N,/Sheet 2/RAM2*%
X161792400Y-30449600D03*
%TO.N,ADDR3*%
X58179400Y-94022100D03*
%TO.N,ADDR6*%
X52458700Y-93537800D03*
%TO.N,DATA9*%
X44462000Y-105791400D03*
%TO.N,DATA10*%
X20832900Y-90486200D03*
%TO.N,DATA11*%
X56207800Y-22778600D03*
X20462500Y-105429000D03*
%TO.N,DATA13*%
X57349100Y-108500400D03*
%TO.N,DATA15*%
X51802900Y-106243000D03*
%TO.N,-MEM-WR*%
X84242100Y-17080100D03*
%TO.N,-IO-RD*%
X37572200Y-61615500D03*
%TO.N,-IO-WR*%
X37935600Y-59286300D03*
X151826600Y-53157600D03*
X160418300Y-75574100D03*
%TO.N,-TMP-REG-RD1*%
X30976700Y-40284800D03*
%TO.N,IO-ADDR0*%
X38781400Y-53086900D03*
%TO.N,IO-ADDR1*%
X39390200Y-54604400D03*
%TO.N,IO-ADDR2*%
X40000200Y-57711300D03*
%TO.N,IO-ADDR3*%
X35321400Y-59615400D03*
%TO.N,Net-(IC10C-O)*%
X81373800Y-72611700D03*
%TO.N,-LO-RAM*%
X91793000Y-66590100D03*
%TO.N,-ROM-CS*%
X92449000Y-32769100D03*
%TO.N,/Sheet 7/CFD7*%
X146893700Y-105203900D03*
%TO.N,Net-(IC7-G2B)*%
X168654300Y-14803300D03*
%TO.N,/Sheet 2/SEL5*%
X113785500Y-16690000D03*
X130727500Y-17560400D03*
%TO.N,/Sheet 2/SEL4*%
X109229100Y-12725100D03*
%TO.N,/Sheet 2/SEL2*%
X133796300Y-17078600D03*
%TO.N,/Sheet 7/DA1*%
X153859600Y-74813200D03*
%TO.N,/Sheet 7/-SRST*%
X176510400Y-68498800D03*
%TD*%
%TO.N,BADDR14*%
D28*
X101294100Y-71930000D02*
X92680000Y-63315900D01*
X103776300Y-36181600D02*
X103776300Y-34763800D01*
X103782600Y-72872600D02*
X102840000Y-71930000D01*
X103776300Y-34763800D02*
X106044400Y-32495700D01*
X106044400Y-32495700D02*
X148015900Y-32495700D01*
X148015900Y-32495700D02*
X160966300Y-19545300D01*
X92680000Y-63315900D02*
X92680000Y-47277900D01*
X102840000Y-93520000D02*
X103782600Y-92577400D01*
X160966300Y-19545300D02*
X166025300Y-19545300D01*
X103782600Y-92577400D02*
X103782600Y-72872600D01*
X92680000Y-47277900D02*
X103776300Y-36181600D01*
X102840000Y-71930000D02*
X101294100Y-71930000D01*
X166025300Y-19545300D02*
X167610000Y-21130000D01*
%TO.N,BADDR12*%
X106360200Y-70949800D02*
X105380000Y-71930000D01*
X106316300Y-92583700D02*
X105380000Y-93520000D01*
X106360200Y-51320200D02*
X106360200Y-70949800D01*
X106533500Y-47640600D02*
X106533500Y-34535300D01*
X108121400Y-32947400D02*
X149930200Y-32947400D01*
X106316300Y-72866300D02*
X106316300Y-92583700D01*
X105380000Y-48794100D02*
X106533500Y-47640600D01*
X149930200Y-32947400D02*
X161747600Y-21130000D01*
X106533500Y-34535300D02*
X108121400Y-32947400D01*
X105380000Y-71930000D02*
X106316300Y-72866300D01*
X105380000Y-50340000D02*
X105380000Y-48794100D01*
X161747600Y-21130000D02*
X162530000Y-21130000D01*
X105380000Y-50340000D02*
X106360200Y-51320200D01*
%TO.N,BADDR7*%
X108864700Y-72874700D02*
X108864700Y-92575300D01*
X107920000Y-71930000D02*
X108864700Y-72874700D01*
X108905400Y-51325400D02*
X108905400Y-70944600D01*
X108864700Y-92575300D02*
X107920000Y-93520000D01*
X108905400Y-70944600D02*
X107920000Y-71930000D01*
X107920000Y-50340000D02*
X108905400Y-51325400D01*
%TO.N,BADDR6*%
X110460000Y-93520000D02*
X109519200Y-92579200D01*
X109507500Y-70977500D02*
X109507500Y-51292500D01*
X109519200Y-72870800D02*
X110460000Y-71930000D01*
X109519200Y-92579200D02*
X109519200Y-72870800D01*
X109507500Y-51292500D02*
X110460000Y-50340000D01*
X110460000Y-71930000D02*
X109507500Y-70977500D01*
%TO.N,BADDR5*%
X113985400Y-70944600D02*
X113000000Y-71930000D01*
X113944700Y-72874700D02*
X113944700Y-92575300D01*
X113000000Y-50340000D02*
X113985400Y-51325400D01*
X113944700Y-92575300D02*
X113000000Y-93520000D01*
X113000000Y-71930000D02*
X113944700Y-72874700D01*
X113985400Y-51325400D02*
X113985400Y-70944600D01*
%TO.N,BADDR4*%
X114587500Y-51292500D02*
X115540000Y-50340000D01*
X114599200Y-72870800D02*
X115540000Y-71930000D01*
X115540000Y-71930000D02*
X114587500Y-70977500D01*
X60930000Y-97330000D02*
X62359300Y-95900700D01*
X62359300Y-95900700D02*
X62359300Y-82211200D01*
X115540000Y-93520000D02*
X114599200Y-92579200D01*
X114587500Y-70977500D02*
X114587500Y-51292500D01*
X114599200Y-92579200D02*
X114599200Y-72870800D01*
X62359300Y-82211200D02*
X67960000Y-76610500D01*
%TO.N,BADDR3*%
X119033100Y-79389800D02*
X118080000Y-80342900D01*
X119044800Y-51304800D02*
X119044800Y-70965200D01*
X118080000Y-80342900D02*
X118080000Y-86962700D01*
X118080000Y-50340000D02*
X119044800Y-51304800D01*
X119044800Y-70965200D02*
X118080000Y-71930000D01*
X119033100Y-72883100D02*
X119033100Y-79389800D01*
X118080000Y-86962700D02*
X115414600Y-86962700D01*
X118080000Y-86962700D02*
X118080000Y-93520000D01*
X118080000Y-71930000D02*
X119033100Y-72883100D01*
%TO.N,BADDR2*%
X119669200Y-72880800D02*
X119669200Y-83558800D01*
X119667500Y-70977500D02*
X119667500Y-51292500D01*
X120620000Y-71930000D02*
X119667500Y-70977500D01*
X120620000Y-71930000D02*
X119669200Y-72880800D01*
X119669200Y-83558800D02*
X119669200Y-92569200D01*
X119667500Y-51292500D02*
X120620000Y-50340000D01*
X119669200Y-83558800D02*
X118825700Y-83558800D01*
X119669200Y-92569200D02*
X120620000Y-93520000D01*
%TO.N,BADDR1*%
X124096300Y-51276300D02*
X124096300Y-70993700D01*
X124100200Y-92579800D02*
X123160000Y-93520000D01*
X123160000Y-50340000D02*
X124096300Y-51276300D01*
X124096300Y-70993700D02*
X123160000Y-71930000D01*
X124100200Y-72870200D02*
X124100200Y-92579800D01*
X123160000Y-71930000D02*
X124100200Y-72870200D01*
%TO.N,BADDR0*%
X126636300Y-51276300D02*
X126636300Y-70993700D01*
X46665000Y-77582000D02*
X46512000Y-77429000D01*
X125700000Y-71930000D02*
X126690600Y-72920600D01*
X45690000Y-89710000D02*
X46665000Y-88735000D01*
X126690600Y-92529400D02*
X125700000Y-93520000D01*
X126690600Y-72920600D02*
X126690600Y-92529400D01*
X46665000Y-88735000D02*
X46665000Y-77582000D01*
X126636300Y-70993700D02*
X125700000Y-71930000D01*
X125700000Y-50340000D02*
X126636300Y-51276300D01*
%TO.N,BDATA0*%
X129184700Y-92575300D02*
X128240000Y-93520000D01*
X128240000Y-71930000D02*
X129184700Y-72874700D01*
X129225400Y-70944600D02*
X128240000Y-71930000D01*
X129225400Y-51325400D02*
X129225400Y-70944600D01*
X128240000Y-50340000D02*
X129225400Y-51325400D01*
X129184700Y-72874700D02*
X129184700Y-92575300D01*
%TO.N,BDATA1*%
X129839200Y-92579200D02*
X129839200Y-72870800D01*
X129839200Y-72870800D02*
X130780000Y-71930000D01*
X130780000Y-93520000D02*
X129839200Y-92579200D01*
X129827500Y-51292500D02*
X130780000Y-50340000D01*
X129827500Y-70977500D02*
X129827500Y-51292500D01*
X130780000Y-71930000D02*
X129827500Y-70977500D01*
%TO.N,BDATA2*%
X134256300Y-72866300D02*
X134256300Y-92583700D01*
X134256300Y-92583700D02*
X133320000Y-93520000D01*
X133320000Y-71930000D02*
X134256300Y-72866300D01*
X134256300Y-70993700D02*
X133320000Y-71930000D01*
X134256300Y-51276300D02*
X134256300Y-70993700D01*
X133320000Y-50340000D02*
X134256300Y-51276300D01*
%TO.N,BDATA3*%
X135860000Y-78280000D02*
X134923700Y-77343700D01*
X134923700Y-36036300D02*
X134923700Y-55753700D01*
X134923700Y-57626300D02*
X135860000Y-56690000D01*
X134923700Y-55753700D02*
X135860000Y-56690000D01*
X135860000Y-35100000D02*
X134923700Y-36036300D01*
X134923700Y-77343700D02*
X134923700Y-57626300D01*
%TO.N,BDATA4*%
X132334600Y-55704600D02*
X133320000Y-56690000D01*
X132375300Y-77335300D02*
X133320000Y-78280000D01*
X132334600Y-36085400D02*
X132334600Y-55704600D01*
X133320000Y-35100000D02*
X132334600Y-36085400D01*
X132375300Y-57634700D02*
X132375300Y-77335300D01*
X133320000Y-56690000D02*
X132375300Y-57634700D01*
%TO.N,BDATA5*%
X131732500Y-55737500D02*
X130780000Y-56690000D01*
X131720800Y-77339200D02*
X130780000Y-78280000D01*
X130780000Y-56690000D02*
X131720800Y-57630800D01*
X130780000Y-35100000D02*
X131732500Y-36052500D01*
X131720800Y-57630800D02*
X131720800Y-77339200D01*
X131732500Y-36052500D02*
X131732500Y-55737500D01*
%TO.N,BDATA6*%
X127303700Y-36036300D02*
X127303700Y-55753700D01*
X128240000Y-35100000D02*
X127303700Y-36036300D01*
X127303700Y-55753700D02*
X128240000Y-56690000D01*
X128240000Y-78280000D02*
X127303700Y-77343700D01*
X127303700Y-77343700D02*
X127303700Y-57626300D01*
X127303700Y-57626300D02*
X128240000Y-56690000D01*
%TO.N,BDATA7*%
X124763700Y-36036300D02*
X124763700Y-55753700D01*
X124758200Y-57631800D02*
X125700000Y-56690000D01*
X125700000Y-35100000D02*
X124763700Y-36036300D01*
X125700000Y-78280000D02*
X124758200Y-77338200D01*
X124758200Y-77338200D02*
X124758200Y-57631800D01*
X124763700Y-55753700D02*
X125700000Y-56690000D01*
%TO.N,-HI-RAM*%
X108879300Y-98882800D02*
X107708800Y-97712300D01*
X121034100Y-95065900D02*
X112696200Y-95065900D01*
X91735800Y-34576100D02*
X92022300Y-34289600D01*
X105057000Y-97712300D02*
X101596600Y-94251900D01*
X108879300Y-103990700D02*
X108879300Y-98882800D01*
X123160000Y-78280000D02*
X121890000Y-79550000D01*
X91735800Y-63241400D02*
X91735800Y-34576100D01*
X101596600Y-73102200D02*
X91735800Y-63241400D01*
X107708800Y-97712300D02*
X105057000Y-97712300D01*
X121890000Y-94210000D02*
X121034100Y-95065900D01*
X112696200Y-95065900D02*
X108879300Y-98882800D01*
X105380000Y-107490000D02*
X108879300Y-103990700D01*
X101596600Y-94251900D02*
X101596600Y-73102200D01*
X121890000Y-79550000D02*
X121890000Y-94210000D01*
%TO.N,BADDR10*%
X121572500Y-55737500D02*
X120620000Y-56690000D01*
X121556300Y-57626300D02*
X121556300Y-77343700D01*
X120620000Y-56690000D02*
X121556300Y-57626300D01*
X120620000Y-35100000D02*
X121572500Y-36052500D01*
X121556300Y-77343700D02*
X120620000Y-78280000D01*
X121572500Y-36052500D02*
X121572500Y-55737500D01*
%TO.N,Net-(IC1-~{OE})*%
X118080000Y-56690000D02*
X117135300Y-57634700D01*
X117094600Y-55704600D02*
X118080000Y-56690000D01*
X117135300Y-77335300D02*
X118080000Y-78280000D01*
X117094600Y-36085400D02*
X117094600Y-55704600D01*
X117135300Y-57634700D02*
X117135300Y-77335300D01*
X118080000Y-35100000D02*
X117094600Y-36085400D01*
%TO.N,BADDR11*%
X116480700Y-77339300D02*
X115540000Y-78280000D01*
X116492500Y-55737500D02*
X115540000Y-56690000D01*
X115540000Y-35100000D02*
X116492500Y-36052500D01*
X116480700Y-57630700D02*
X116480700Y-77339300D01*
X115540000Y-56690000D02*
X116480700Y-57630700D01*
X116492500Y-36052500D02*
X116492500Y-55737500D01*
%TO.N,BADDR9*%
X112055300Y-57634700D02*
X112055300Y-77335300D01*
X112055300Y-77335300D02*
X113000000Y-78280000D01*
X112014600Y-36085400D02*
X112014600Y-55704600D01*
X113000000Y-35100000D02*
X112014600Y-36085400D01*
X113000000Y-56690000D02*
X112055300Y-57634700D01*
X112014600Y-55704600D02*
X113000000Y-56690000D01*
X50770000Y-72632300D02*
X50770000Y-75740000D01*
X51661200Y-71741100D02*
X50770000Y-72632300D01*
%TO.N,BADDR8*%
X111400800Y-77339200D02*
X110460000Y-78280000D01*
X111412500Y-36052500D02*
X111412500Y-55737500D01*
X110460000Y-35100000D02*
X111412500Y-36052500D01*
X44753700Y-70387500D02*
X44753700Y-68392500D01*
X44753700Y-68392500D02*
X49707700Y-63438500D01*
X45690000Y-71323800D02*
X44753700Y-70387500D01*
X110460000Y-56690000D02*
X111400800Y-57630800D01*
X111412500Y-55737500D02*
X110460000Y-56690000D01*
X111400800Y-57630800D02*
X111400800Y-77339200D01*
X45690000Y-75740000D02*
X45690000Y-71323800D01*
%TO.N,BADDR13*%
X159511000Y-26689000D02*
X165070000Y-21130000D01*
X106983700Y-48795600D02*
X109190000Y-46589300D01*
X106983700Y-55753700D02*
X106983700Y-48795600D01*
X107920000Y-56690000D02*
X106983700Y-55753700D01*
X107920000Y-78280000D02*
X106983700Y-77343700D01*
X106983700Y-57626300D02*
X107920000Y-56690000D01*
X150598900Y-33554100D02*
X157464000Y-26689000D01*
X109190000Y-46589300D02*
X109190000Y-34410000D01*
X110045900Y-33554100D02*
X150598900Y-33554100D01*
X157464000Y-26689000D02*
X159511000Y-26689000D01*
X106983700Y-77343700D02*
X106983700Y-57626300D01*
X109190000Y-34410000D02*
X110045900Y-33554100D01*
%TO.N,Net-(IC1-~{WE})*%
X105380000Y-35100000D02*
X104443700Y-36036300D01*
X104443700Y-36036300D02*
X104443700Y-55753700D01*
X104439200Y-77339200D02*
X104439200Y-57630800D01*
X105380000Y-78280000D02*
X104439200Y-77339200D01*
X104439200Y-57630800D02*
X105380000Y-56690000D01*
X104443700Y-55753700D02*
X105380000Y-56690000D01*
%TO.N,Net-(IC11-1A)*%
X75629200Y-71200800D02*
X72342100Y-71200800D01*
X77440000Y-69390000D02*
X75629200Y-71200800D01*
X60930000Y-82612900D02*
X60930000Y-83360000D01*
X72342100Y-71200800D02*
X60930000Y-82612900D01*
%TO.N,Net-(IC11-2A)*%
X60932000Y-81535400D02*
X71578900Y-70888500D01*
X71578900Y-70888500D02*
X71578900Y-70670700D01*
%TO.N,Net-(IC11-3A)*%
X86330000Y-73582300D02*
X86330000Y-84965500D01*
X88536300Y-71376000D02*
X86330000Y-73582300D01*
X87600000Y-61770000D02*
X88536300Y-62706300D01*
X86330000Y-84965500D02*
X85943800Y-85351700D01*
X88536300Y-62706300D02*
X88536300Y-71376000D01*
%TO.N,BADDR15*%
X81250000Y-57960000D02*
X81250000Y-28750000D01*
X81250000Y-28750000D02*
X79980000Y-27480000D01*
X85060000Y-61770000D02*
X81250000Y-57960000D01*
%TO.N,Net-(IC11-4A)*%
X78843400Y-70619500D02*
X76478900Y-72984000D01*
X78843400Y-62906600D02*
X78843400Y-70619500D01*
X79980000Y-61770000D02*
X78843400Y-62906600D01*
X71038600Y-77008000D02*
X71038600Y-81256400D01*
X71038600Y-81256400D02*
X66219000Y-86076000D01*
X76478900Y-72984000D02*
X75062600Y-72984000D01*
X75062600Y-72984000D02*
X71038600Y-77008000D01*
%TO.N,-VMA*%
X82520000Y-20878900D02*
X82520000Y-21405900D01*
X78391700Y-25534200D02*
X78391700Y-70432400D01*
X82520000Y-20878900D02*
X82776100Y-21135000D01*
X74900000Y-111300000D02*
X72413600Y-108813600D01*
X72413600Y-102566100D02*
X64818700Y-94971200D01*
X78391700Y-70432400D02*
X77516700Y-71307400D01*
X76743400Y-71307400D02*
X75518500Y-72532300D01*
X64818700Y-94971200D02*
X64818700Y-85198200D01*
X82520000Y-21405900D02*
X78391700Y-25534200D01*
X64818700Y-81615500D02*
X64818700Y-85198200D01*
X82776100Y-21135000D02*
X82776100Y-25242000D01*
X72413600Y-108813600D02*
X72413600Y-102566100D01*
X82520000Y-19860000D02*
X82520000Y-20878900D01*
X75518500Y-72532300D02*
X73901900Y-72532300D01*
X73901900Y-72532300D02*
X64818700Y-81615500D01*
X77516700Y-71307400D02*
X76743400Y-71307400D01*
%TO.N,-BUS-EN*%
X23917100Y-34996200D02*
X24941900Y-33971400D01*
X21206500Y-91140300D02*
X21559600Y-90787200D01*
X21559600Y-37321900D02*
X22516500Y-36365000D01*
X26478100Y-36206100D02*
X26478100Y-33971400D01*
X23917100Y-35569600D02*
X23917100Y-34996200D01*
X75852200Y-112887800D02*
X27248200Y-112887800D01*
X77440000Y-111300000D02*
X75852200Y-112887800D01*
X21559600Y-90787200D02*
X21559600Y-37321900D01*
X23918700Y-14780000D02*
X23918700Y-15868700D01*
X22830000Y-14780000D02*
X23918700Y-14780000D01*
X21206500Y-106846100D02*
X21206500Y-91140300D01*
X27907000Y-37635000D02*
X26478100Y-36206100D01*
X27248200Y-112887800D02*
X21206500Y-106846100D01*
X26478100Y-18428100D02*
X26478100Y-33971400D01*
X23121700Y-36365000D02*
X23917100Y-35569600D01*
X24941900Y-33971400D02*
X26478100Y-33971400D01*
X23918700Y-15868700D02*
X26478100Y-18428100D01*
X22516500Y-36365000D02*
X23121700Y-36365000D01*
%TO.N,Net-(IC10D-I0)*%
X79980000Y-111300000D02*
X76503700Y-107823700D01*
X76503700Y-76676300D02*
X77440000Y-75740000D01*
X76503700Y-107823700D02*
X76503700Y-76676300D01*
%TO.N,ADDR13*%
X58174400Y-73978500D02*
X58174400Y-73015600D01*
X58390000Y-74194100D02*
X58174400Y-73978500D01*
X58390000Y-75740000D02*
X58390000Y-74194100D01*
%TO.N,ADDR14*%
X52893900Y-73778000D02*
X52893900Y-72563900D01*
X53310000Y-75740000D02*
X53310000Y-74194100D01*
X53310000Y-74194100D02*
X52893900Y-73778000D01*
%TO.N,ADDR15*%
X48230000Y-74194100D02*
X48312200Y-74111900D01*
X48230000Y-75740000D02*
X48230000Y-74194100D01*
X48312200Y-74111900D02*
X48312200Y-71756700D01*
%TO.N,-TMP-REG-RD0*%
X40610000Y-55420000D02*
X40610000Y-53874100D01*
X25367000Y-40175000D02*
X26478200Y-41286200D01*
X31725000Y-36365000D02*
X40610000Y-27480000D01*
X38345900Y-51610000D02*
X35137300Y-51610000D01*
X31725000Y-48197700D02*
X31725000Y-41286200D01*
X26478200Y-41286200D02*
X31725000Y-41286200D01*
X31725000Y-41286200D02*
X31725000Y-36365000D01*
X35137300Y-51610000D02*
X31725000Y-48197700D01*
X40610000Y-53874100D02*
X38345900Y-51610000D01*
%TO.N,DATA0*%
X43150000Y-69390000D02*
X43150000Y-67844100D01*
X155736500Y-98507600D02*
X155736500Y-83220400D01*
X44118200Y-60316600D02*
X44118200Y-66875900D01*
X43150000Y-69390000D02*
X43150000Y-70935900D01*
X155736500Y-83220400D02*
X160412200Y-78544700D01*
X44118200Y-66875900D02*
X43150000Y-67844100D01*
X43150000Y-59348400D02*
X44118200Y-60316600D01*
X77440000Y-97330000D02*
X81860900Y-101750900D01*
X159990000Y-104950000D02*
X159990000Y-102761100D01*
X43150000Y-70935900D02*
X44088200Y-71874100D01*
X44088200Y-71874100D02*
X44088200Y-104011800D01*
X81860900Y-101750900D02*
X86337600Y-101750900D01*
X44088200Y-104011800D02*
X43150000Y-104950000D01*
X43150000Y-55420000D02*
X43150000Y-59348400D01*
X159990000Y-102761100D02*
X155736500Y-98507600D01*
%TO.N,DATA1*%
X156278500Y-96037800D02*
X156278500Y-89323700D01*
X51722500Y-68437500D02*
X50770000Y-69390000D01*
X162530000Y-104247500D02*
X162530000Y-104950000D01*
X156278500Y-96037800D02*
X156487200Y-96037800D01*
X47259000Y-103381000D02*
X47259000Y-71663700D01*
X158807900Y-86794300D02*
X158807900Y-81837000D01*
X156278500Y-89323700D02*
X158807900Y-86794300D01*
X50770000Y-55420000D02*
X51722500Y-56372500D01*
X51722500Y-56372500D02*
X51722500Y-68437500D01*
X48230000Y-69390000D02*
X48230000Y-70935900D01*
X47986800Y-70935900D02*
X48230000Y-70935900D01*
X156278500Y-97996000D02*
X162530000Y-104247500D01*
X156278500Y-96037800D02*
X156278500Y-97996000D01*
X47259000Y-71663700D02*
X47986800Y-70935900D01*
X45690000Y-104950000D02*
X47259000Y-103381000D01*
%TO.N,DATA2*%
X153826200Y-113440900D02*
X153826200Y-106734000D01*
X168768900Y-81610100D02*
X168768900Y-83826300D01*
X168768900Y-83826300D02*
X167884500Y-84710700D01*
X49751500Y-72623200D02*
X49751500Y-103428500D01*
X166419400Y-79260600D02*
X168768900Y-81610100D01*
X82520000Y-97330000D02*
X85043300Y-99853300D01*
X85769400Y-99853300D02*
X88536300Y-102620200D01*
X88536300Y-102620200D02*
X88536300Y-104030700D01*
X161365700Y-90516400D02*
X161365700Y-97834900D01*
X166419400Y-70580600D02*
X166419400Y-79260600D01*
X53310000Y-69390000D02*
X52984700Y-69390000D01*
X52984700Y-69390000D02*
X49751500Y-72623200D01*
X55850000Y-59651900D02*
X56802400Y-60604300D01*
X56802400Y-60604300D02*
X56802400Y-66625500D01*
X55850000Y-59651900D02*
X55850000Y-55420000D01*
X167029400Y-100720600D02*
X169778300Y-103469500D01*
X49751500Y-103428500D02*
X48230000Y-104950000D01*
X56802400Y-66625500D02*
X55850000Y-67577900D01*
X55850000Y-67577900D02*
X55850000Y-69390000D01*
X167884500Y-84710700D02*
X167171400Y-84710700D01*
X161365700Y-97834900D02*
X164251400Y-100720600D01*
X164251400Y-100720600D02*
X167029400Y-100720600D01*
X145431100Y-121836000D02*
X153826200Y-113440900D01*
X88536300Y-104030700D02*
X106341600Y-121836000D01*
X106341600Y-121836000D02*
X145431100Y-121836000D01*
X85043300Y-99853300D02*
X85769400Y-99853300D01*
X167171400Y-84710700D02*
X161365700Y-90516400D01*
X167610000Y-69390000D02*
X166419400Y-70580600D01*
%TO.N,DATA3*%
X60930000Y-55420000D02*
X60930000Y-56965900D01*
X86446000Y-98875900D02*
X89680600Y-102110500D01*
X165175400Y-102515400D02*
X163552400Y-102515400D01*
X147850600Y-112245800D02*
X152867900Y-107228500D01*
X90514700Y-102110500D02*
X109788500Y-121384300D01*
X147850600Y-118777700D02*
X147850600Y-112245800D01*
X53615700Y-71230100D02*
X53200100Y-71230100D01*
X61879500Y-57915400D02*
X61879500Y-68440500D01*
X89680600Y-102110500D02*
X90514700Y-102110500D01*
X85060000Y-97330000D02*
X85060000Y-98875900D01*
X85060000Y-98875900D02*
X86446000Y-98875900D01*
X158861000Y-97824000D02*
X158861000Y-90271500D01*
X51732000Y-100182200D02*
X51315700Y-100598500D01*
X53200100Y-71230100D02*
X51732000Y-72698200D01*
X163800000Y-85332500D02*
X163800000Y-70660000D01*
X167610000Y-104950000D02*
X165175400Y-102515400D01*
X50770000Y-103404100D02*
X51315700Y-102858400D01*
X50770000Y-104950000D02*
X50770000Y-103404100D01*
X158861000Y-90271500D02*
X163800000Y-85332500D01*
X51315700Y-102858400D02*
X51315700Y-100598500D01*
X163552400Y-102515400D02*
X158861000Y-97824000D01*
X163800000Y-70660000D02*
X165070000Y-69390000D01*
X51732000Y-72698200D02*
X51732000Y-100182200D01*
X60930000Y-56965900D02*
X61879500Y-57915400D01*
X109788500Y-121384300D02*
X145244000Y-121384300D01*
X145244000Y-121384300D02*
X147850600Y-118777700D01*
X61879500Y-68440500D02*
X60930000Y-69390000D01*
%TO.N,Net-(IC14A-O)*%
X63470000Y-47800000D02*
X62532200Y-46862200D01*
X80933000Y-21620800D02*
X77440000Y-25113800D01*
X80933000Y-18839800D02*
X80933000Y-21620800D01*
X80390700Y-18297500D02*
X80933000Y-18839800D01*
X62532200Y-46862200D02*
X62532200Y-20797800D01*
X65032500Y-18297500D02*
X62532200Y-20797800D01*
X77440000Y-25113800D02*
X77440000Y-27480000D01*
X65032500Y-18297500D02*
X80390700Y-18297500D01*
%TO.N,DATA4*%
X170150000Y-104906600D02*
X167142500Y-101899100D01*
X97597400Y-100509400D02*
X99566500Y-102478500D01*
X96462400Y-100509400D02*
X97597400Y-100509400D01*
X59977500Y-49345900D02*
X60930000Y-49345900D01*
X93006500Y-95705100D02*
X93950000Y-96648600D01*
X59993700Y-62706300D02*
X59993700Y-70563800D01*
X79020600Y-80151800D02*
X80288500Y-78883900D01*
X60930000Y-60224100D02*
X60930000Y-61770000D01*
X60930000Y-47800000D02*
X60930000Y-49345900D01*
X60930000Y-61770000D02*
X59993700Y-62706300D01*
X59977500Y-59271600D02*
X59977500Y-49345900D01*
X60930000Y-60224100D02*
X59977500Y-59271600D01*
X87600000Y-95784100D02*
X86590900Y-95784100D01*
X81559500Y-86899900D02*
X79020600Y-84361000D01*
X87600000Y-95785600D02*
X87600000Y-97330000D01*
X93950000Y-96648600D02*
X93950000Y-97997000D01*
X170150000Y-104950000D02*
X170150000Y-104906600D01*
X59977500Y-49345900D02*
X58431600Y-47800000D01*
X87600000Y-95785600D02*
X87680500Y-95705100D01*
X87680500Y-95705100D02*
X93006500Y-95705100D01*
X87600000Y-95785600D02*
X87600000Y-95784100D01*
X79020600Y-84361000D02*
X79020600Y-80151800D01*
X93950000Y-97997000D02*
X96462400Y-100509400D01*
X58431600Y-47800000D02*
X58390000Y-47800000D01*
X81559500Y-90752700D02*
X81559500Y-86899900D01*
X86590900Y-95784100D02*
X81559500Y-90752700D01*
X59993700Y-70563800D02*
X61859500Y-72429600D01*
X99566500Y-102478500D02*
X99566500Y-103033100D01*
%TO.N,DATA5*%
X55850000Y-47800000D02*
X55850000Y-49345900D01*
X52223300Y-35788200D02*
X52223300Y-42544200D01*
X54580000Y-60500000D02*
X55850000Y-61770000D01*
X24096900Y-33467300D02*
X24096900Y-20164900D01*
X54897500Y-60182500D02*
X54897500Y-49345900D01*
X52223300Y-42544200D02*
X53310000Y-43630900D01*
X53351600Y-47800000D02*
X53310000Y-47800000D01*
X51879200Y-35444100D02*
X52223300Y-35788200D01*
X51879200Y-20731100D02*
X51879200Y-35444100D01*
X55850000Y-61770000D02*
X54900300Y-62719700D01*
X54580000Y-60500000D02*
X54897500Y-60182500D01*
X51986900Y-20623400D02*
X51879200Y-20731100D01*
X54897500Y-49345900D02*
X53351600Y-47800000D01*
X54900300Y-62719700D02*
X54900300Y-104000300D01*
X53310000Y-43630900D02*
X53310000Y-47800000D01*
X53310000Y-61770000D02*
X54580000Y-60500000D01*
X55850000Y-49345900D02*
X54897500Y-49345900D01*
X54900300Y-104000300D02*
X55850000Y-104950000D01*
X24096900Y-20164900D02*
X24371100Y-19890700D01*
X23721100Y-33843100D02*
X24096900Y-33467300D01*
%TO.N,DATA6*%
X48271600Y-47800000D02*
X48230000Y-47800000D01*
X57038200Y-59812400D02*
X57272200Y-60046400D01*
X49817500Y-49345900D02*
X50770000Y-49345900D01*
X56935400Y-102055500D02*
X58284000Y-103404100D01*
X92680000Y-97330000D02*
X92680000Y-101523400D01*
X58284000Y-103404100D02*
X58390000Y-103404100D01*
X56935400Y-67131400D02*
X56935400Y-102055500D01*
X57272200Y-60046400D02*
X57272200Y-66794600D01*
X49817500Y-60817500D02*
X49817500Y-49345900D01*
X49817500Y-49345900D02*
X48271600Y-47800000D01*
X92680000Y-101523400D02*
X99474400Y-108317800D01*
X57272200Y-66794600D02*
X56935400Y-67131400D01*
X58390000Y-104950000D02*
X58390000Y-103404100D01*
X50770000Y-61770000D02*
X49817500Y-60817500D01*
X50770000Y-47800000D02*
X50770000Y-49345900D01*
%TO.N,DATA7*%
X44741400Y-59275500D02*
X44741400Y-48748600D01*
X45690000Y-60224100D02*
X44741400Y-59275500D01*
X44741400Y-48748600D02*
X45690000Y-47800000D01*
X45690000Y-61770000D02*
X45690000Y-60224100D01*
X58415400Y-64179400D02*
X58415400Y-66926800D01*
X57417400Y-67924800D02*
X57417400Y-101439000D01*
X58415400Y-66926800D02*
X57417400Y-67924800D01*
X60930000Y-104950000D02*
X69209200Y-104950000D01*
X69209200Y-104950000D02*
X71170100Y-102989100D01*
X57417400Y-101439000D02*
X58642500Y-102664100D01*
%TO.N,/Sheet 2/ROM7*%
X129510000Y-22400000D02*
X124430000Y-22400000D01*
X118080000Y-13510000D02*
X118080000Y-16050000D01*
X124430000Y-22400000D02*
X120620000Y-18590000D01*
X118080000Y-16050000D02*
X120620000Y-18590000D01*
%TO.N,/Sheet 2/ROM6*%
X132050000Y-22006000D02*
X121980800Y-11936800D01*
X132050000Y-22400000D02*
X132050000Y-22006000D01*
X117113200Y-11936800D02*
X115540000Y-13510000D01*
X121980800Y-11936800D02*
X117113200Y-11936800D01*
X118080000Y-17595900D02*
X115540000Y-15055900D01*
X115540000Y-13510000D02*
X115540000Y-15055900D01*
X118080000Y-18590000D02*
X118080000Y-17595900D01*
%TO.N,/Sheet 2/ROM5*%
X115540000Y-16050000D02*
X115540000Y-18590000D01*
X125252500Y-23950100D02*
X121174500Y-19872100D01*
X133039900Y-23950100D02*
X125252500Y-23950100D01*
X134590000Y-22400000D02*
X133039900Y-23950100D01*
X113000000Y-13510000D02*
X115540000Y-16050000D01*
X116822100Y-19872100D02*
X115540000Y-18590000D01*
X121174500Y-19872100D02*
X116822100Y-19872100D01*
%TO.N,/Sheet 2/ROM4*%
X113000000Y-18590000D02*
X113000000Y-16050000D01*
X112513600Y-11456400D02*
X110460000Y-13510000D01*
X122167300Y-11456400D02*
X112513600Y-11456400D01*
X137130000Y-20854100D02*
X131565000Y-20854100D01*
X131565000Y-20854100D02*
X122167300Y-11456400D01*
X137130000Y-22400000D02*
X137130000Y-20854100D01*
X113000000Y-16050000D02*
X110460000Y-13510000D01*
%TO.N,/Sheet 2/ROM3*%
X107920000Y-11964100D02*
X107920000Y-15055900D01*
X108879400Y-11004700D02*
X107920000Y-11964100D01*
X135557100Y-18287100D02*
X130275600Y-18287100D01*
X130275600Y-18287100D02*
X122993200Y-11004700D01*
X122993200Y-11004700D02*
X108879400Y-11004700D01*
X139670000Y-22400000D02*
X135557100Y-18287100D01*
X110460000Y-17595900D02*
X110460000Y-18590000D01*
X107920000Y-15055900D02*
X110460000Y-17595900D01*
%TO.N,/Sheet 2/ROM2*%
X122392300Y-22240700D02*
X124559100Y-24407500D01*
X124559100Y-24407500D02*
X141748400Y-24407500D01*
X107920000Y-18590000D02*
X109190000Y-19860000D01*
X141748400Y-24407500D02*
X142210000Y-23945900D01*
X112551400Y-22240700D02*
X122392300Y-22240700D01*
X111730000Y-20797600D02*
X111730000Y-21419300D01*
X107920000Y-16050000D02*
X105380000Y-13510000D01*
X111730000Y-21419300D02*
X112551400Y-22240700D01*
X107920000Y-18590000D02*
X107920000Y-16050000D01*
X109190000Y-19860000D02*
X110792400Y-19860000D01*
X110792400Y-19860000D02*
X111730000Y-20797600D01*
X142210000Y-22400000D02*
X142210000Y-23945900D01*
%TO.N,/Sheet 2/ROM1*%
X105380000Y-18590000D02*
X105380000Y-16050000D01*
X105380000Y-16050000D02*
X102840000Y-13510000D01*
%TO.N,/Sheet 2/ROM0*%
X102840000Y-18590000D02*
X100300000Y-16050000D01*
X100300000Y-16050000D02*
X100300000Y-13510000D01*
%TO.N,/Sheet 2/RAM0*%
X162530000Y-35100000D02*
X159209300Y-31779300D01*
X159209300Y-28856600D02*
X157768500Y-27415800D01*
X159209300Y-31779300D02*
X159209300Y-28856600D01*
X102840000Y-23670000D02*
X102840000Y-30020000D01*
%TO.N,/Sheet 2/RAM1*%
X105380000Y-23670000D02*
X105380000Y-30020000D01*
%TO.N,/Sheet 2/RAM2*%
X161792400Y-30449700D02*
X161792400Y-30449600D01*
X107920000Y-23670000D02*
X107920000Y-30020000D01*
X162959700Y-30449700D02*
X161792400Y-30449700D01*
X167610000Y-35100000D02*
X162959700Y-30449700D01*
%TO.N,/Sheet 2/RAM3*%
X110460000Y-23670000D02*
X110460000Y-30020000D01*
%TO.N,/Sheet 2/RAM4*%
X113000000Y-23670000D02*
X113000000Y-30020000D01*
%TO.N,/Sheet 2/RAM5*%
X115540000Y-23670000D02*
X115540000Y-30020000D01*
%TO.N,/Sheet 2/RAM6*%
X118080000Y-23670000D02*
X118080000Y-30020000D01*
%TO.N,/Sheet 2/RAM7*%
X120620000Y-23670000D02*
X120620000Y-30020000D01*
%TO.N,ADDR3*%
X58390000Y-97330000D02*
X58390000Y-95784100D01*
X58390000Y-95784100D02*
X58179400Y-95573500D01*
X58179400Y-95573500D02*
X58179400Y-94022100D01*
%TO.N,ADDR4*%
X67970300Y-107386500D02*
X70303300Y-107386500D01*
X63470000Y-94342600D02*
X63470000Y-89710000D01*
X63297800Y-112059000D02*
X67970300Y-107386500D01*
X71896800Y-102688100D02*
X71471100Y-102262400D01*
X70303300Y-107386500D02*
X71896800Y-105793000D01*
X71896800Y-105793000D02*
X71896800Y-102688100D01*
X21721400Y-92080600D02*
X21721400Y-106720000D01*
X27060400Y-112059000D02*
X63297800Y-112059000D01*
X22827000Y-90975000D02*
X21721400Y-92080600D01*
X71471100Y-102262400D02*
X71389800Y-102262400D01*
X21721400Y-106720000D02*
X27060400Y-112059000D01*
X71389800Y-102262400D02*
X63470000Y-94342600D01*
%TO.N,ADDR6*%
X53310000Y-92686500D02*
X52458700Y-93537800D01*
X53310000Y-89710000D02*
X53310000Y-92686500D01*
%TO.N,DATA8*%
X46676900Y-28466900D02*
X46676900Y-40463100D01*
X34996000Y-108405400D02*
X41525400Y-108405400D01*
X28995600Y-102405000D02*
X34996000Y-108405400D01*
X25006700Y-102405000D02*
X28995600Y-102405000D01*
X24097000Y-101495300D02*
X25006700Y-102405000D01*
X22827000Y-40175000D02*
X24097000Y-41445000D01*
X46676900Y-40463100D02*
X45690000Y-41450000D01*
X41525400Y-108405400D02*
X43150000Y-110030000D01*
X24097000Y-41445000D02*
X24097000Y-101495300D01*
X45690000Y-27480000D02*
X46676900Y-28466900D01*
%TO.N,DATA9*%
X48230000Y-41450000D02*
X44289700Y-45390300D01*
X44302000Y-68205400D02*
X44302000Y-70574600D01*
X44603200Y-105650200D02*
X44462000Y-105791400D01*
X44289700Y-45390300D02*
X44289700Y-59811800D01*
X44302000Y-70574600D02*
X44603200Y-70875800D01*
X44603200Y-60125300D02*
X44603200Y-67904200D01*
X44603200Y-70875800D02*
X44603200Y-105650200D01*
X44289700Y-59811800D02*
X44603200Y-60125300D01*
X44603200Y-67904200D02*
X44302000Y-68205400D01*
X48230000Y-41450000D02*
X47283400Y-40503400D01*
X47283400Y-40503400D02*
X47283400Y-28426600D01*
X47283400Y-28426600D02*
X48230000Y-27480000D01*
%TO.N,DATA10*%
X20832900Y-37089100D02*
X22827000Y-35095000D01*
X20832900Y-90486200D02*
X20832900Y-37089100D01*
X53310000Y-27480000D02*
X52335800Y-28454200D01*
X52335800Y-35036700D02*
X53310000Y-36010900D01*
X52335800Y-28454200D02*
X52335800Y-35036700D01*
X53310000Y-36010900D02*
X53310000Y-41450000D01*
%TO.N,DATA11*%
X22827000Y-32555000D02*
X20101900Y-35280100D01*
X20101900Y-105068400D02*
X20462500Y-105429000D01*
X61882000Y-28432000D02*
X61882000Y-40498000D01*
X20101900Y-35280100D02*
X20101900Y-105068400D01*
X58390000Y-27480000D02*
X56207800Y-25297800D01*
X61882000Y-40498000D02*
X60930000Y-41450000D01*
X56207800Y-25297800D02*
X56207800Y-22778600D01*
X60930000Y-27480000D02*
X61882000Y-28432000D01*
%TO.N,DATA12*%
X59977500Y-35375900D02*
X60930000Y-35375900D01*
X51155000Y-107875000D02*
X36188700Y-107875000D01*
X59326300Y-20796300D02*
X59326300Y-32935300D01*
X62586200Y-72730600D02*
X62586200Y-72077400D01*
X59837000Y-81484300D02*
X62511300Y-78810000D01*
X59837000Y-110529600D02*
X59837000Y-81484300D01*
X36188700Y-107875000D02*
X28358600Y-100044900D01*
X59977500Y-44913700D02*
X59977500Y-35375900D01*
X58390000Y-19860000D02*
X59326300Y-20796300D01*
X62511300Y-57146000D02*
X61879300Y-56514000D01*
X54858500Y-111578500D02*
X51155000Y-107875000D01*
X59977500Y-35375900D02*
X58431600Y-33830000D01*
X61879300Y-56514000D02*
X61879300Y-46815500D01*
X26457100Y-100044900D02*
X25367000Y-101135000D01*
X59326300Y-32935300D02*
X58431600Y-33830000D01*
X62511300Y-72805500D02*
X62586200Y-72730600D01*
X58431600Y-33830000D02*
X58390000Y-33830000D01*
X62511300Y-72002500D02*
X62511300Y-57146000D01*
X62511300Y-78810000D02*
X62511300Y-72805500D01*
X58788100Y-111578500D02*
X59837000Y-110529600D01*
X60930000Y-33830000D02*
X60930000Y-35375900D01*
X28358600Y-100044900D02*
X26457100Y-100044900D01*
X62586200Y-72077400D02*
X62511300Y-72002500D01*
X54858500Y-111578500D02*
X58788100Y-111578500D01*
X61879300Y-46815500D02*
X59977500Y-44913700D01*
%TO.N,DATA13*%
X57085600Y-36611500D02*
X55850000Y-35375900D01*
X55850000Y-33830000D02*
X55850000Y-35375900D01*
X38918100Y-107421800D02*
X53241800Y-107421800D01*
X53241800Y-107421800D02*
X55850000Y-110030000D01*
X28996700Y-97500400D02*
X38918100Y-107421800D01*
X54246300Y-20796300D02*
X54246300Y-32935300D01*
X59375400Y-52581900D02*
X57085600Y-50292100D01*
X54246300Y-32935300D02*
X53827900Y-33353700D01*
X57349100Y-108500400D02*
X59375400Y-106474100D01*
X53351600Y-33830000D02*
X53310000Y-33830000D01*
X53310000Y-19860000D02*
X54246300Y-20796300D01*
X26461600Y-97500400D02*
X28996700Y-97500400D01*
X57085600Y-50292100D02*
X57085600Y-36611500D01*
X25367000Y-98595000D02*
X26461600Y-97500400D01*
X53827900Y-33353700D02*
X55850000Y-35375900D01*
X53827900Y-33353700D02*
X53351600Y-33830000D01*
X59375400Y-106474100D02*
X59375400Y-52581900D01*
%TO.N,DATA14*%
X26478300Y-94943700D02*
X25367000Y-96055000D01*
X28640800Y-94943700D02*
X26478300Y-94943700D01*
X54306000Y-106519900D02*
X53855800Y-106970100D01*
X50770000Y-32284100D02*
X50770000Y-35375900D01*
X58390000Y-110030000D02*
X57816100Y-110030000D01*
X51771600Y-42956500D02*
X51771600Y-36377500D01*
X52223300Y-43408200D02*
X51771600Y-42956500D01*
X54342400Y-106483500D02*
X54342400Y-66571400D01*
X52223300Y-64452300D02*
X52223300Y-43408200D01*
X51771600Y-36377500D02*
X50770000Y-35375900D01*
X57816100Y-110030000D02*
X54306000Y-106519900D01*
X54306000Y-106519900D02*
X54342400Y-106483500D01*
X49817500Y-32284100D02*
X48271600Y-33830000D01*
X49817500Y-20812500D02*
X49817500Y-32284100D01*
X50770000Y-19860000D02*
X49817500Y-20812500D01*
X54342400Y-66571400D02*
X52223300Y-64452300D01*
X49817500Y-32284100D02*
X50770000Y-32284100D01*
X40667200Y-106970100D02*
X28640800Y-94943700D01*
X53855800Y-106970100D02*
X40667200Y-106970100D01*
X48271600Y-33830000D02*
X48230000Y-33830000D01*
%TO.N,DATA15*%
X26637000Y-92245000D02*
X25367000Y-93515000D01*
X45690000Y-33830000D02*
X45690000Y-32284100D01*
X43150000Y-33830000D02*
X43194600Y-33830000D01*
X51802900Y-106243000D02*
X51630900Y-106243000D01*
X42213700Y-78245200D02*
X29026400Y-91432500D01*
X43150000Y-33830000D02*
X42213700Y-34766300D01*
X28213900Y-92245000D02*
X26637000Y-92245000D01*
X42213700Y-34766300D02*
X42213700Y-78245200D01*
X44740500Y-32284100D02*
X45690000Y-32284100D01*
X44740500Y-20809500D02*
X45690000Y-19860000D01*
X43194600Y-33830000D02*
X44740500Y-32284100D01*
X44740500Y-32284100D02*
X44740500Y-20809500D01*
X42738500Y-106518400D02*
X42115600Y-105895500D01*
X42115600Y-105895500D02*
X42115600Y-104521800D01*
X42115600Y-104521800D02*
X29026400Y-91432500D01*
X29026400Y-91432500D02*
X28213900Y-92245000D01*
X51355500Y-106518400D02*
X42738500Y-106518400D01*
X51630900Y-106243000D02*
X51355500Y-106518400D01*
%TO.N,-MEM-RD*%
X80928100Y-74101800D02*
X83790000Y-71239900D01*
X83790000Y-66809000D02*
X86013600Y-64585400D01*
X86013600Y-64585400D02*
X86013600Y-42403600D01*
X75836300Y-96393700D02*
X75836300Y-75372400D01*
X83790000Y-71239900D02*
X83790000Y-66809000D01*
X75836300Y-75372400D02*
X77106900Y-74101800D01*
X74900000Y-97330000D02*
X75836300Y-96393700D01*
X86013600Y-42403600D02*
X85060000Y-41450000D01*
X77106900Y-74101800D02*
X80928100Y-74101800D01*
%TO.N,-MEM-WR*%
X88552500Y-32877500D02*
X88552500Y-22773500D01*
X86330000Y-20551000D02*
X86330000Y-19168000D01*
X88552500Y-22773500D02*
X86330000Y-20551000D01*
X86330000Y-19168000D02*
X84242100Y-17080100D01*
X87600000Y-33830000D02*
X88552500Y-32877500D01*
%TO.N,-IO-RD*%
X25367000Y-45255000D02*
X26637000Y-46525000D01*
X28343400Y-51605000D02*
X37572200Y-60833800D01*
X26637000Y-50667400D02*
X27574600Y-51605000D01*
X37572200Y-60833800D02*
X37572200Y-61615500D01*
X26637000Y-46525000D02*
X26637000Y-50667400D01*
X27574600Y-51605000D02*
X28343400Y-51605000D01*
%TO.N,-IO-WR*%
X151826600Y-66982400D02*
X151826600Y-53157600D01*
X160418300Y-75574100D02*
X151826600Y-66982400D01*
X26816800Y-44164800D02*
X25367000Y-42715000D01*
X37935600Y-59286300D02*
X31274800Y-52625500D01*
X28185600Y-46525000D02*
X27606500Y-46525000D01*
X31274800Y-49614200D02*
X28185600Y-46525000D01*
X31274800Y-52625500D02*
X31274800Y-49614200D01*
X26816800Y-45735300D02*
X26816800Y-44164800D01*
X167610000Y-83360000D02*
X159990000Y-90980000D01*
X27606500Y-46525000D02*
X26816800Y-45735300D01*
%TO.N,-TMP-REG-RD1*%
X25367000Y-35095000D02*
X24259900Y-36202100D01*
X25058100Y-38905000D02*
X29596900Y-38905000D01*
X40610000Y-69390000D02*
X41594700Y-68405300D01*
X41594700Y-68405300D02*
X41594700Y-42434700D01*
X24259900Y-36202100D02*
X24259900Y-38106800D01*
X41594700Y-42434700D02*
X40610000Y-41450000D01*
X29596900Y-38905000D02*
X30976700Y-40284800D01*
X24259900Y-38106800D02*
X25058100Y-38905000D01*
%TO.N,IO-ADDR0*%
X27574700Y-84625000D02*
X28217700Y-84625000D01*
X27907000Y-90975000D02*
X26796200Y-89864200D01*
X28217700Y-84625000D02*
X29917300Y-82925400D01*
X26796200Y-85403500D02*
X27574700Y-84625000D01*
X26796200Y-89864200D02*
X26796200Y-85403500D01*
X38299000Y-72960900D02*
X38299000Y-60972900D01*
X38662300Y-60609600D02*
X38662300Y-53206000D01*
X38299000Y-60972900D02*
X38662300Y-60609600D01*
X38662300Y-53206000D02*
X38781400Y-53086900D01*
X29917300Y-82925400D02*
X29917300Y-81342600D01*
X29917300Y-81342600D02*
X38299000Y-72960900D01*
%TO.N,IO-ADDR1*%
X40301200Y-56984600D02*
X40202700Y-56984600D01*
X39655600Y-59561200D02*
X40726900Y-58489900D01*
X40726900Y-57410300D02*
X40301200Y-56984600D01*
X27907000Y-88435000D02*
X29572500Y-88435000D01*
X40726900Y-58489900D02*
X40726900Y-57410300D01*
X29572500Y-88435000D02*
X39655600Y-78351900D01*
X39655600Y-78351900D02*
X39655600Y-59561200D01*
X40202700Y-56984600D02*
X39390200Y-56172100D01*
X39390200Y-56172100D02*
X39390200Y-54604400D01*
%TO.N,IO-ADDR2*%
X39203900Y-72694800D02*
X33742700Y-78156000D01*
X40000200Y-57711300D02*
X39203900Y-58507600D01*
X33742700Y-80059300D02*
X27907000Y-85895000D01*
X33742700Y-78156000D02*
X33742700Y-80059300D01*
X39203900Y-58507600D02*
X39203900Y-72694800D01*
%TO.N,IO-ADDR3*%
X29358300Y-65578500D02*
X35321400Y-59615400D01*
X29358300Y-81903700D02*
X29358300Y-65578500D01*
X27907000Y-83355000D02*
X29358300Y-81903700D01*
%TO.N,-RESET*%
X45751300Y-17829200D02*
X82437000Y-17829200D01*
X180310100Y-115467400D02*
X181093100Y-116250400D01*
X167608300Y-106923900D02*
X174095000Y-113410600D01*
X157450000Y-77010000D02*
X154964900Y-79495100D01*
X83516600Y-54423400D02*
X82520000Y-55420000D01*
X44288800Y-20744200D02*
X44288800Y-19291700D01*
X180310100Y-114725600D02*
X180310100Y-115467400D01*
X82437000Y-17829200D02*
X83516600Y-18908800D01*
X154964900Y-98808500D02*
X158801800Y-102645400D01*
X174095000Y-113410600D02*
X178995100Y-113410600D01*
X83516600Y-18908800D02*
X83516600Y-54423400D01*
X181093100Y-116250400D02*
X182979600Y-116250400D01*
X182979600Y-116250400D02*
X184120000Y-115110000D01*
X178995100Y-113410600D02*
X180310100Y-114725600D01*
X44288800Y-19291700D02*
X45751300Y-17829200D01*
X158801800Y-102645400D02*
X158801800Y-105367700D01*
X32478000Y-32555000D02*
X44288800Y-20744200D01*
X27907000Y-32555000D02*
X32478000Y-32555000D01*
X154964900Y-79495100D02*
X154964900Y-98808500D01*
X158801800Y-105367700D02*
X160358000Y-106923900D01*
X160358000Y-106923900D02*
X167608300Y-106923900D01*
%TO.N,/Sheet 7/-P9SEL*%
X170170500Y-61997700D02*
X170170500Y-51362700D01*
X170170500Y-51362700D02*
X168880000Y-50072200D01*
X165070000Y-90980000D02*
X165070000Y-88440000D01*
X169002800Y-63165400D02*
X170170500Y-61997700D01*
X169572000Y-83938000D02*
X169572000Y-83360000D01*
X168880000Y-50072200D02*
X168880000Y-41450000D01*
X169572000Y-83360000D02*
X169572000Y-80125100D01*
X169002800Y-79555900D02*
X169002800Y-63165400D01*
X165070000Y-88440000D02*
X169572000Y-83938000D01*
X168880000Y-41450000D02*
X167610000Y-40180000D01*
X169572000Y-83360000D02*
X170150000Y-83360000D01*
X169572000Y-80125100D02*
X169002800Y-79555900D01*
%TO.N,/Sheet 7/-P8SEL*%
X157450000Y-90980000D02*
X161145000Y-87285000D01*
X161145000Y-87285000D02*
X161145000Y-58031300D01*
X163881700Y-55294600D02*
X163881700Y-41368300D01*
X163881700Y-41368300D02*
X165070000Y-40180000D01*
X161145000Y-58031300D02*
X163881700Y-55294600D01*
%TO.N,Net-(IC15A-O)*%
X89912100Y-101633900D02*
X86448900Y-98170700D01*
X103201800Y-109066800D02*
X98694900Y-109066800D01*
X86448900Y-96780400D02*
X84417500Y-94749000D01*
X98694900Y-109066800D02*
X91262000Y-101633900D01*
X86448900Y-98170700D02*
X86448900Y-96780400D01*
X91262000Y-101633900D02*
X89912100Y-101633900D01*
X104110000Y-108158600D02*
X103201800Y-109066800D01*
X84417500Y-94749000D02*
X82479000Y-94749000D01*
X82479000Y-94749000D02*
X77440000Y-89710000D01*
X104110000Y-103680000D02*
X104110000Y-108158600D01*
X107920000Y-99870000D02*
X104110000Y-103680000D01*
%TO.N,Net-(IC10C-O)*%
X81393100Y-59530400D02*
X81393100Y-72592400D01*
X79980000Y-55420000D02*
X79980000Y-58117300D01*
X81393100Y-72592400D02*
X81373800Y-72611700D01*
X79980000Y-58117300D02*
X81393100Y-59530400D01*
%TO.N,/Sheet 7/PIN20*%
X142210000Y-87170000D02*
X143426700Y-88386700D01*
X143426700Y-118866700D02*
X144750000Y-120190000D01*
X143426700Y-88386700D02*
X143426700Y-118866700D01*
%TO.N,Net-(IC14F-O)*%
X66010000Y-33830000D02*
X64427800Y-33830000D01*
X64427800Y-33830000D02*
X63470000Y-33830000D01*
X63470000Y-61770000D02*
X64427800Y-60812200D01*
X79980000Y-19860000D02*
X66010000Y-33830000D01*
X64427800Y-60812200D02*
X64427800Y-33830000D01*
%TO.N,Net-(IC10A-I0)*%
X73955800Y-82415800D02*
X74900000Y-83360000D01*
X75137600Y-73559300D02*
X73955800Y-74741100D01*
X80969700Y-25929700D02*
X79596500Y-25929700D01*
X79596500Y-25929700D02*
X79043700Y-26482500D01*
X80928100Y-60019100D02*
X80928100Y-70380000D01*
X79043700Y-58134700D02*
X80928100Y-60019100D01*
X73955800Y-74741100D02*
X73955800Y-82415800D01*
X77748800Y-73559300D02*
X75137600Y-73559300D01*
X79043700Y-26482500D02*
X79043700Y-58134700D01*
X80928100Y-70380000D02*
X77748800Y-73559300D01*
X82520000Y-27480000D02*
X80969700Y-25929700D01*
%TO.N,Net-(IC10A-I1)*%
X85033600Y-71410000D02*
X86484100Y-69959500D01*
X80935100Y-75329900D02*
X84855000Y-71410000D01*
X86484100Y-22830000D02*
X85060000Y-21405900D01*
X77440000Y-83360000D02*
X77440000Y-80704800D01*
X85060000Y-19860000D02*
X85060000Y-21405900D01*
X80935100Y-77209700D02*
X80935100Y-75329900D01*
X77440000Y-80704800D02*
X80935100Y-77209700D01*
X84855000Y-71410000D02*
X85033600Y-71410000D01*
X86484100Y-69959500D02*
X86484100Y-22830000D01*
%TO.N,-LO-RAM*%
X88815700Y-80833300D02*
X88815700Y-84110800D01*
X96490000Y-96612900D02*
X91425400Y-91548300D01*
X96490000Y-98529500D02*
X96490000Y-96612900D01*
X91793000Y-66590100D02*
X91673500Y-66709600D01*
X86400900Y-86525600D02*
X83145600Y-86525600D01*
X88870000Y-88994700D02*
X86400900Y-86525600D01*
X102840000Y-104879500D02*
X96490000Y-98529500D01*
X91673500Y-77975500D02*
X88815700Y-80833300D01*
X88815700Y-84110800D02*
X86400900Y-86525600D01*
X91425400Y-91548300D02*
X90041800Y-91548300D01*
X88870000Y-90376500D02*
X88870000Y-88994700D01*
X83145600Y-86525600D02*
X79980000Y-83360000D01*
X91673500Y-66709600D02*
X91673500Y-77975500D01*
X90041800Y-91548300D02*
X88870000Y-90376500D01*
X102840000Y-107490000D02*
X102840000Y-104879500D01*
%TO.N,Net-(IC10B-I1)*%
X85060000Y-83360000D02*
X85060000Y-79825900D01*
X85060000Y-79825900D02*
X82520000Y-77285900D01*
X82520000Y-75740000D02*
X82520000Y-77285900D01*
%TO.N,Net-(IC10B-O)*%
X87600000Y-75740000D02*
X87600000Y-83360000D01*
%TO.N,/Sheet 7/LATCHCLK*%
X171276700Y-73343300D02*
X175230000Y-69390000D01*
X166340000Y-88763500D02*
X171276700Y-83826800D01*
X171276700Y-83826800D02*
X171276700Y-73343300D01*
X165532400Y-92113900D02*
X166340000Y-91306300D01*
X162530000Y-90980000D02*
X163663900Y-92113900D01*
X166340000Y-91306300D02*
X166340000Y-88763500D01*
X163663900Y-92113900D02*
X165532400Y-92113900D01*
%TO.N,/Sheet 7/-IOR*%
X154286600Y-89086600D02*
X144750000Y-79550000D01*
X167397500Y-107534700D02*
X174972800Y-115110000D01*
X154286600Y-101786600D02*
X154286600Y-89086600D01*
X157450000Y-104950000D02*
X154286600Y-101786600D01*
X174972800Y-115110000D02*
X176500000Y-115110000D01*
X160034700Y-107534700D02*
X167397500Y-107534700D01*
X157450000Y-104950000D02*
X160034700Y-107534700D01*
%TO.N,/Sheet 7/-IOW*%
X150107100Y-92828200D02*
X153609800Y-96330900D01*
X177871200Y-116278800D02*
X179040000Y-115110000D01*
X165246700Y-116278800D02*
X177871200Y-116278800D01*
X153609800Y-104641900D02*
X165246700Y-116278800D01*
X144750000Y-82090000D02*
X150107100Y-87447100D01*
X150107100Y-87447100D02*
X150107100Y-92828200D01*
X153609800Y-96330900D02*
X153609800Y-104641900D01*
%TO.N,-ROM-CS*%
X105380000Y-99870000D02*
X96521300Y-91011300D01*
X91284100Y-33934000D02*
X92449000Y-32769100D01*
X91284100Y-65053500D02*
X91284100Y-33934000D01*
X96521300Y-70290700D02*
X91284100Y-65053500D01*
X96521300Y-91011300D02*
X96521300Y-70290700D01*
%TO.N,/Sheet 7/CFD7*%
X193369100Y-84989100D02*
X191740000Y-83360000D01*
X180310000Y-97330000D02*
X185390000Y-92250000D01*
X193369100Y-90975800D02*
X193369100Y-84989100D01*
X185390000Y-92250000D02*
X192094900Y-92250000D01*
X192094900Y-92250000D02*
X193369100Y-90975800D01*
X144750000Y-107490000D02*
X146893700Y-105346300D01*
X146893700Y-105346300D02*
X146893700Y-105203900D01*
%TO.N,/Sheet 7/CFD6*%
X192071600Y-89710000D02*
X185390000Y-89710000D01*
X192884000Y-88897600D02*
X192071600Y-89710000D01*
X191740000Y-85900000D02*
X192884000Y-87044000D01*
X192884000Y-87044000D02*
X192884000Y-88897600D01*
X185390000Y-89710000D02*
X177770000Y-97330000D01*
%TO.N,/Sheet 7/CFD5*%
X175230000Y-97330000D02*
X184120000Y-88440000D01*
X184120000Y-88440000D02*
X191740000Y-88440000D01*
%TO.N,/Sheet 7/CFD2*%
X167610000Y-97330000D02*
X168767400Y-98487400D01*
X168767400Y-98487400D02*
X189312600Y-98487400D01*
X189312600Y-98487400D02*
X191740000Y-96060000D01*
%TO.N,/Sheet 7/CFD1*%
X191344800Y-98995200D02*
X191740000Y-98600000D01*
X166735200Y-98995200D02*
X191344800Y-98995200D01*
X165070000Y-97330000D02*
X166735200Y-98995200D01*
%TO.N,/Sheet 7/CFD0*%
X165468900Y-100268900D02*
X162530000Y-97330000D01*
X191740000Y-101140000D02*
X190868900Y-100268900D01*
X190868900Y-100268900D02*
X165468900Y-100268900D01*
%TO.N,/Sheet 7/-CFOE*%
X176950000Y-112570000D02*
X181580000Y-112570000D01*
X164723700Y-102063700D02*
X166277900Y-102063700D01*
X186660000Y-107490000D02*
X181580000Y-112570000D01*
X181580000Y-112570000D02*
X181580000Y-115110000D01*
X166277900Y-102063700D02*
X166841600Y-102627400D01*
X171755800Y-107375800D02*
X176950000Y-112570000D01*
X170909400Y-107375800D02*
X171755800Y-107375800D01*
X166841600Y-102627400D02*
X166938600Y-102627400D01*
X159990000Y-97330000D02*
X164723700Y-102063700D01*
X168736700Y-104425500D02*
X168736700Y-105203100D01*
X168736700Y-105203100D02*
X170909400Y-107375800D01*
X166938600Y-102627400D02*
X168736700Y-104425500D01*
%TO.N,Net-(IC7-G2B)*%
X172690000Y-18839000D02*
X168654300Y-14803300D01*
X172690000Y-21130000D02*
X172690000Y-18839000D01*
%TO.N,/Sheet 2/SEL5*%
X130727500Y-17560400D02*
X131961900Y-16326000D01*
X150852400Y-11484700D02*
X175744700Y-11484700D01*
X146011100Y-16326000D02*
X150852400Y-11484700D01*
X114270000Y-19860000D02*
X114270000Y-17174500D01*
X175744700Y-11484700D02*
X177770000Y-13510000D01*
X114270000Y-17174500D02*
X113785500Y-16690000D01*
X115540000Y-21130000D02*
X114270000Y-19860000D01*
X131961900Y-16326000D02*
X146011100Y-16326000D01*
%TO.N,/Sheet 2/SEL4*%
X113000000Y-21130000D02*
X111730000Y-19860000D01*
X111730000Y-19860000D02*
X111730000Y-17903400D01*
X111730000Y-17903400D02*
X109229100Y-15402500D01*
X109229100Y-15402500D02*
X109229100Y-12725100D01*
%TO.N,/Sheet 2/SEL2*%
X154039700Y-17078600D02*
X133796300Y-17078600D01*
X170150000Y-13510000D02*
X170150000Y-11964100D01*
X170150000Y-11964100D02*
X159154200Y-11964100D01*
X159154200Y-11964100D02*
X154039700Y-17078600D01*
%TO.N,/Sheet 2/SEL1*%
X164855200Y-16264800D02*
X167610000Y-13510000D01*
X106824900Y-22574900D02*
X108373700Y-22574900D01*
X162549500Y-16264800D02*
X164855200Y-16264800D01*
X109190000Y-30694000D02*
X110538500Y-32042500D01*
X105380000Y-21130000D02*
X106824900Y-22574900D01*
X146771800Y-32042500D02*
X162549500Y-16264800D01*
X110538500Y-32042500D02*
X146771800Y-32042500D01*
X109190000Y-23391200D02*
X109190000Y-30694000D01*
X108373700Y-22574900D02*
X109190000Y-23391200D01*
%TO.N,/Sheet 2/SEL0*%
X146280400Y-31578300D02*
X162045600Y-15813100D01*
X110249600Y-22465700D02*
X110804500Y-22465700D01*
X111730000Y-23391200D02*
X111730000Y-30710000D01*
X112598300Y-31578300D02*
X146280400Y-31578300D01*
X109190000Y-20788000D02*
X109190000Y-21406100D01*
X103946500Y-20023500D02*
X108425500Y-20023500D01*
X162766900Y-15813100D02*
X165070000Y-13510000D01*
X111730000Y-30710000D02*
X112598300Y-31578300D01*
X108425500Y-20023500D02*
X109190000Y-20788000D01*
X102840000Y-21130000D02*
X103946500Y-20023500D01*
X110804500Y-22465700D02*
X111730000Y-23391200D01*
X109190000Y-21406100D02*
X110249600Y-22465700D01*
X162045600Y-15813100D02*
X162766900Y-15813100D01*
%TO.N,/Sheet 7/DA1*%
X144750000Y-69390000D02*
X148436400Y-69390000D01*
X148436400Y-69390000D02*
X153859600Y-74813200D01*
%TO.N,/Sheet 7/DA0*%
X144750000Y-66850000D02*
X146799800Y-66850000D01*
X146799800Y-66850000D02*
X151816500Y-71866700D01*
X154846700Y-71866700D02*
X159990000Y-77010000D01*
X151816500Y-71866700D02*
X154846700Y-71866700D01*
%TO.N,/Sheet 7/-SRST*%
X186660000Y-115110000D02*
X193855700Y-107914300D01*
X193855700Y-107914300D02*
X193855700Y-81300100D01*
X193855700Y-81300100D02*
X183078100Y-70522500D01*
X178534100Y-70522500D02*
X176510400Y-68498800D01*
X183078100Y-70522500D02*
X178534100Y-70522500D01*
%TO.N,/Sheet 7/ACTK*%
X191740000Y-107490000D02*
X185346700Y-113883300D01*
X184120000Y-120190000D02*
X184120000Y-118963300D01*
X185346700Y-113883300D02*
X185346700Y-117736600D01*
X185346700Y-117736600D02*
X184120000Y-118963300D01*
%TD*%
M02*
