M48
; DRILL file KiCad 10.0.6 date 2026-09-25T08:16:39
; FORMAT={-:-/ absolute / metric / decimal}
; #@! TF.CreationDate,2026-09-25T08:16:39-04:00
; #@! TF.GenerationSoftware,Kicad,Pcbnew,10.0.6
; #@! TF.FileFunction,Plated,1,4,PTH
FMAT,2
METRIC
; #@! TA.AperFunction,Plated,PTH,ViaDrill
T1C0.400
; #@! TA.AperFunction,Plated,PTH,ComponentDrill
T2C0.800
; #@! TA.AperFunction,Plated,PTH,ComponentDrill
T3C0.813
; #@! TA.AperFunction,Plated,PTH,ComponentDrill
T4C0.900
; #@! TA.AperFunction,Plated,PTH,ComponentDrill
T5C1.000
; #@! TA.AperFunction,Plated,PTH,ComponentDrill
T6C1.016
%
G90
G05
T1
X20.462Y-105.429
X20.833Y-90.486
X23.721Y-33.843
X24.371Y-19.891
X30.977Y-40.285
X35.321Y-59.615
X37.572Y-61.615
X37.936Y-59.286
X38.781Y-53.087
X39.39Y-54.604
X40.0Y-57.711
X44.462Y-105.791
X46.512Y-77.429
X48.312Y-71.757
X49.708Y-63.438
X51.316Y-100.599
X51.661Y-71.741
X51.803Y-106.243
X51.987Y-20.623
X52.459Y-93.538
X52.894Y-72.564
X53.616Y-71.23
X56.208Y-22.779
X57.038Y-59.812
X57.349Y-108.5
X58.174Y-73.016
X58.179Y-94.022
X58.415Y-64.179
X58.642Y-102.664
X60.932Y-81.535
X61.859Y-72.43
X64.819Y-85.198
X66.219Y-86.076
X67.96Y-76.611
X71.17Y-102.989
X71.579Y-70.671
X80.288Y-78.884
X81.374Y-72.612
X82.776Y-25.242
X84.242Y-17.08
X85.944Y-85.352
X86.338Y-101.751
X91.793Y-66.59
X92.022Y-34.29
X92.449Y-32.769
X99.474Y-108.318
X99.566Y-103.033
X109.229Y-12.725
X113.785Y-16.69
X115.415Y-86.963
X118.826Y-83.559
X130.727Y-17.56
X133.796Y-17.079
X146.894Y-105.204
X151.827Y-53.158
X152.868Y-107.228
X153.826Y-106.734
X153.86Y-74.813
X155.737Y-98.508
X156.487Y-96.038
X157.768Y-27.416
X158.808Y-81.837
X160.412Y-78.545
X160.418Y-75.574
X161.792Y-30.45
X167.142Y-101.899
X168.654Y-14.803
X169.778Y-103.469
X176.51Y-68.499
T2
X152.37Y-70.74
X152.37Y-75.74
X152.37Y-84.71
X152.37Y-89.71
X152.37Y-98.68
X152.37Y-103.68
X153.64Y-117.65
X157.45Y-41.53
X157.45Y-46.53
X157.45Y-69.39
X157.45Y-77.01
X157.45Y-83.36
X157.45Y-90.98
X157.45Y-97.33
X157.45Y-104.95
X159.99Y-69.39
X159.99Y-77.01
X159.99Y-83.36
X159.99Y-90.98
X159.99Y-97.33
X159.99Y-104.95
X162.53Y-40.18
X162.53Y-47.8
X162.53Y-69.39
X162.53Y-77.01
X162.53Y-83.36
X162.53Y-90.98
X162.53Y-97.33
X162.53Y-104.95
X163.8Y-117.65
X165.07Y-40.18
X165.07Y-47.8
X165.07Y-69.39
X165.07Y-77.01
X165.07Y-83.36
X165.07Y-90.98
X165.07Y-97.33
X165.07Y-104.95
X167.61Y-40.18
X167.61Y-47.8
X167.61Y-69.39
X167.61Y-77.01
X167.61Y-83.36
X167.61Y-90.98
X167.61Y-97.33
X167.61Y-104.95
X170.15Y-40.18
X170.15Y-47.8
X170.15Y-69.39
X170.15Y-77.01
X170.15Y-83.36
X170.15Y-90.98
X170.15Y-97.33
X170.15Y-104.95
X171.42Y-108.84
X171.42Y-113.84
X172.69Y-40.18
X172.69Y-47.8
X172.69Y-69.39
X172.69Y-77.01
X172.69Y-83.36
X172.69Y-90.98
X172.69Y-97.33
X172.69Y-104.95
X175.23Y-40.18
X175.23Y-47.8
X175.23Y-69.39
X175.23Y-77.01
X175.23Y-97.33
X175.23Y-104.95
X176.5Y-107.49
X176.5Y-115.11
X177.77Y-40.18
X177.77Y-47.8
X177.77Y-97.33
X177.77Y-104.95
X179.04Y-69.39
X179.04Y-79.55
X179.04Y-107.49
X179.04Y-115.11
X180.31Y-40.18
X180.31Y-47.8
X180.31Y-97.33
X180.31Y-104.95
X181.58Y-107.49
X181.58Y-115.11
X182.85Y-69.39
X182.85Y-79.55
X184.12Y-107.49
X184.12Y-115.11
X186.66Y-51.61
X186.66Y-69.39
X186.66Y-79.55
X186.66Y-107.49
X186.66Y-115.11
X188.66Y-51.61
X189.2Y-107.49
X189.2Y-115.11
X190.47Y-69.39
X190.47Y-79.55
X191.74Y-83.36
X191.74Y-85.9
X191.74Y-88.44
X191.74Y-90.98
X191.74Y-93.52
X191.74Y-96.06
X191.74Y-98.6
X191.74Y-101.14
X191.74Y-103.68
X191.74Y-107.49
X191.74Y-115.11
T3
X35.53Y-22.4
X35.53Y-24.94
X35.53Y-36.37
X35.53Y-38.91
X35.53Y-50.34
X35.53Y-52.88
X35.53Y-64.31
X35.53Y-66.85
X35.53Y-78.28
X35.53Y-80.82
X35.53Y-92.25
X35.53Y-94.79
X40.61Y-19.86
X40.61Y-27.48
X40.61Y-33.83
X40.61Y-41.45
X40.61Y-47.8
X40.61Y-55.42
X40.61Y-61.77
X40.61Y-69.39
X40.61Y-75.74
X40.61Y-83.36
X40.61Y-89.71
X40.61Y-97.33
X40.61Y-104.95
X40.61Y-110.03
X43.15Y-19.86
X43.15Y-27.48
X43.15Y-33.83
X43.15Y-41.45
X43.15Y-47.8
X43.15Y-55.42
X43.15Y-61.77
X43.15Y-69.39
X43.15Y-75.74
X43.15Y-83.36
X43.15Y-89.71
X43.15Y-97.33
X43.15Y-104.95
X43.15Y-110.03
X45.69Y-19.86
X45.69Y-27.48
X45.69Y-33.83
X45.69Y-41.45
X45.69Y-47.8
X45.69Y-55.42
X45.69Y-61.77
X45.69Y-69.39
X45.69Y-75.74
X45.69Y-83.36
X45.69Y-89.71
X45.69Y-97.33
X45.69Y-104.95
X45.69Y-110.03
X48.23Y-19.86
X48.23Y-27.48
X48.23Y-33.83
X48.23Y-41.45
X48.23Y-47.8
X48.23Y-55.42
X48.23Y-61.77
X48.23Y-69.39
X48.23Y-75.74
X48.23Y-83.36
X48.23Y-89.71
X48.23Y-97.33
X48.23Y-104.95
X48.23Y-110.03
X50.77Y-19.86
X50.77Y-27.48
X50.77Y-33.83
X50.77Y-41.45
X50.77Y-47.8
X50.77Y-55.42
X50.77Y-61.77
X50.77Y-69.39
X50.77Y-75.74
X50.77Y-83.36
X50.77Y-89.71
X50.77Y-97.33
X50.77Y-104.95
X50.77Y-110.03
X53.31Y-19.86
X53.31Y-27.48
X53.31Y-33.83
X53.31Y-41.45
X53.31Y-47.8
X53.31Y-55.42
X53.31Y-61.77
X53.31Y-69.39
X53.31Y-75.74
X53.31Y-83.36
X53.31Y-89.71
X53.31Y-97.33
X53.31Y-104.95
X53.31Y-110.03
X55.85Y-19.86
X55.85Y-27.48
X55.85Y-33.83
X55.85Y-41.45
X55.85Y-47.8
X55.85Y-55.42
X55.85Y-61.77
X55.85Y-69.39
X55.85Y-75.74
X55.85Y-83.36
X55.85Y-89.71
X55.85Y-97.33
X55.85Y-104.95
X55.85Y-110.03
X58.39Y-19.86
X58.39Y-27.48
X58.39Y-33.83
X58.39Y-41.45
X58.39Y-47.8
X58.39Y-55.42
X58.39Y-61.77
X58.39Y-69.39
X58.39Y-75.74
X58.39Y-83.36
X58.39Y-89.71
X58.39Y-97.33
X58.39Y-104.95
X58.39Y-110.03
X60.93Y-19.86
X60.93Y-27.48
X60.93Y-33.83
X60.93Y-41.45
X60.93Y-47.8
X60.93Y-55.42
X60.93Y-61.77
X60.93Y-69.39
X60.93Y-75.74
X60.93Y-83.36
X60.93Y-89.71
X60.93Y-97.33
X60.93Y-104.95
X60.93Y-110.03
X63.47Y-19.86
X63.47Y-27.48
X63.47Y-33.83
X63.47Y-41.45
X63.47Y-47.8
X63.47Y-55.42
X63.47Y-61.77
X63.47Y-69.39
X63.47Y-75.74
X63.47Y-83.36
X63.47Y-89.71
X63.47Y-97.33
X69.82Y-22.4
X69.82Y-24.94
X69.82Y-36.37
X69.82Y-38.91
X69.82Y-50.34
X69.82Y-52.88
X69.82Y-64.31
X69.82Y-66.85
X69.82Y-78.28
X69.82Y-80.82
X69.82Y-92.25
X69.82Y-94.79
X69.82Y-106.22
X69.82Y-108.76
X74.9Y-19.86
X74.9Y-27.48
X74.9Y-33.83
X74.9Y-41.45
X74.9Y-47.8
X74.9Y-55.42
X74.9Y-61.77
X74.9Y-69.39
X74.9Y-75.74
X74.9Y-83.36
X74.9Y-89.71
X74.9Y-97.33
X74.9Y-103.68
X74.9Y-111.3
X77.44Y-19.86
X77.44Y-27.48
X77.44Y-33.83
X77.44Y-41.45
X77.44Y-47.8
X77.44Y-55.42
X77.44Y-61.77
X77.44Y-69.39
X77.44Y-75.74
X77.44Y-83.36
X77.44Y-89.71
X77.44Y-97.33
X77.44Y-103.68
X77.44Y-111.3
X79.98Y-19.86
X79.98Y-27.48
X79.98Y-33.83
X79.98Y-41.45
X79.98Y-47.8
X79.98Y-55.42
X79.98Y-61.77
X79.98Y-69.39
X79.98Y-75.74
X79.98Y-83.36
X79.98Y-89.71
X79.98Y-97.33
X79.98Y-103.68
X79.98Y-111.3
X82.52Y-19.86
X82.52Y-27.48
X82.52Y-33.83
X82.52Y-41.45
X82.52Y-47.8
X82.52Y-55.42
X82.52Y-61.77
X82.52Y-69.39
X82.52Y-75.74
X82.52Y-83.36
X82.52Y-89.71
X82.52Y-97.33
X82.52Y-103.68
X82.52Y-111.3
X85.06Y-19.86
X85.06Y-27.48
X85.06Y-33.83
X85.06Y-41.45
X85.06Y-47.8
X85.06Y-55.42
X85.06Y-61.77
X85.06Y-69.39
X85.06Y-75.74
X85.06Y-83.36
X85.06Y-89.71
X85.06Y-97.33
X85.06Y-103.68
X85.06Y-111.3
X87.6Y-19.86
X87.6Y-27.48
X87.6Y-33.83
X87.6Y-41.45
X87.6Y-47.8
X87.6Y-55.42
X87.6Y-61.77
X87.6Y-69.39
X87.6Y-75.74
X87.6Y-83.36
X87.6Y-89.71
X87.6Y-97.33
X87.6Y-103.68
X87.6Y-111.3
X90.14Y-19.86
X90.14Y-27.48
X90.14Y-33.83
X90.14Y-41.45
X90.14Y-47.8
X90.14Y-55.42
X90.14Y-61.77
X90.14Y-69.39
X90.14Y-75.74
X90.14Y-83.36
X90.14Y-89.71
X90.14Y-97.33
X90.14Y-103.68
X90.14Y-111.3
X92.68Y-61.77
X92.68Y-69.39
X92.68Y-89.71
X92.68Y-97.33
X95.22Y-89.71
X95.22Y-97.33
X97.76Y-56.69
X97.76Y-59.23
X97.76Y-63.04
X97.76Y-65.58
X97.76Y-82.09
X97.76Y-84.63
X97.76Y-89.71
X97.76Y-97.33
X97.76Y-102.41
X97.76Y-104.95
X100.3Y-13.51
X100.3Y-30.02
X102.84Y-13.51
X102.84Y-30.02
X102.84Y-35.1
X102.84Y-50.34
X102.84Y-56.69
X102.84Y-71.93
X102.84Y-78.28
X102.84Y-93.52
X102.84Y-99.87
X102.84Y-107.49
X105.38Y-13.51
X105.38Y-30.02
X105.38Y-35.1
X105.38Y-50.34
X105.38Y-56.69
X105.38Y-71.93
X105.38Y-78.28
X105.38Y-93.52
X105.38Y-99.87
X105.38Y-107.49
X107.92Y-13.51
X107.92Y-30.02
X107.92Y-35.1
X107.92Y-50.34
X107.92Y-56.69
X107.92Y-71.93
X107.92Y-78.28
X107.92Y-93.52
X107.92Y-99.87
X107.92Y-107.49
X110.46Y-13.51
X110.46Y-30.02
X110.46Y-35.1
X110.46Y-50.34
X110.46Y-56.69
X110.46Y-71.93
X110.46Y-78.28
X110.46Y-93.52
X110.46Y-99.87
X110.46Y-107.49
X113.0Y-13.51
X113.0Y-30.02
X113.0Y-35.1
X113.0Y-50.34
X113.0Y-56.69
X113.0Y-71.93
X113.0Y-78.28
X113.0Y-93.52
X113.0Y-99.87
X113.0Y-107.49
X115.54Y-13.51
X115.54Y-30.02
X115.54Y-35.1
X115.54Y-50.34
X115.54Y-56.69
X115.54Y-71.93
X115.54Y-78.28
X115.54Y-93.52
X115.54Y-99.87
X115.54Y-107.49
X118.08Y-13.51
X118.08Y-30.02
X118.08Y-35.1
X118.08Y-50.34
X118.08Y-56.69
X118.08Y-71.93
X118.08Y-78.28
X118.08Y-93.52
X118.08Y-99.87
X118.08Y-107.49
X120.62Y-13.51
X120.62Y-30.02
X120.62Y-35.1
X120.62Y-50.34
X120.62Y-56.69
X120.62Y-71.93
X120.62Y-78.28
X120.62Y-93.52
X123.16Y-35.1
X123.16Y-50.34
X123.16Y-56.69
X123.16Y-71.93
X123.16Y-78.28
X123.16Y-93.52
X125.7Y-17.32
X125.7Y-19.86
X125.7Y-35.1
X125.7Y-50.34
X125.7Y-56.69
X125.7Y-71.93
X125.7Y-78.28
X125.7Y-93.52
X128.24Y-35.1
X128.24Y-50.34
X128.24Y-56.69
X128.24Y-71.93
X128.24Y-78.28
X128.24Y-93.52
X129.51Y-14.78
X129.51Y-22.4
X130.78Y-35.1
X130.78Y-50.34
X130.78Y-56.69
X130.78Y-71.93
X130.78Y-78.28
X130.78Y-93.52
X132.05Y-14.78
X132.05Y-22.4
X133.32Y-35.1
X133.32Y-50.34
X133.32Y-56.69
X133.32Y-71.93
X133.32Y-78.28
X133.32Y-93.52
X134.59Y-14.78
X134.59Y-22.4
X135.86Y-35.1
X135.86Y-50.34
X135.86Y-56.69
X135.86Y-71.93
X135.86Y-78.28
X135.86Y-93.52
X137.13Y-14.78
X137.13Y-22.4
X139.67Y-14.78
X139.67Y-22.4
X142.21Y-14.78
X142.21Y-22.4
X144.75Y-14.78
X144.75Y-22.4
X153.64Y-121.46
X157.45Y-16.05
X157.45Y-18.59
X157.45Y-30.02
X157.45Y-32.56
X162.53Y-13.51
X162.53Y-21.13
X162.53Y-27.48
X162.53Y-35.1
X163.8Y-121.46
X165.07Y-13.51
X165.07Y-21.13
X165.07Y-27.48
X165.07Y-35.1
X167.61Y-13.51
X167.61Y-21.13
X167.61Y-27.48
X167.61Y-35.1
X170.15Y-13.51
X170.15Y-21.13
X170.15Y-27.48
X170.15Y-35.1
X172.69Y-13.51
X172.69Y-21.13
X172.69Y-27.48
X172.69Y-35.1
X175.23Y-13.51
X175.23Y-21.13
X175.23Y-27.48
X175.23Y-35.1
X177.77Y-13.51
X177.77Y-21.13
X177.77Y-27.48
X177.77Y-35.1
X180.31Y-13.51
X180.31Y-21.13
X190.47Y-120.19
X193.01Y-120.19
T4
X181.58Y-120.19
X184.12Y-120.19
T5
X142.21Y-61.77
X142.21Y-64.31
X142.21Y-66.85
X142.21Y-69.39
X142.21Y-71.93
X142.21Y-74.47
X142.21Y-77.01
X142.21Y-79.55
X142.21Y-82.09
X142.21Y-84.63
X142.21Y-87.17
X142.21Y-89.71
X142.21Y-92.25
X142.21Y-94.79
X142.21Y-97.33
X142.21Y-99.87
X142.21Y-102.41
X142.21Y-104.95
X142.21Y-107.49
X142.21Y-110.03
X142.21Y-120.19
X144.75Y-61.77
X144.75Y-64.31
X144.75Y-66.85
X144.75Y-69.39
X144.75Y-71.93
X144.75Y-74.47
X144.75Y-77.01
X144.75Y-79.55
X144.75Y-82.09
X144.75Y-84.63
X144.75Y-87.17
X144.75Y-89.71
X144.75Y-92.25
X144.75Y-94.79
X144.75Y-97.33
X144.75Y-99.87
X144.75Y-102.41
X144.75Y-104.95
X144.75Y-107.49
X144.75Y-110.03
X144.75Y-120.19
X157.45Y-52.88
X159.99Y-52.88
X162.53Y-52.88
X165.07Y-52.88
T6
X22.827Y-27.475
X22.827Y-30.015
X22.827Y-32.555
X22.827Y-35.095
X22.827Y-37.635
X22.827Y-40.175
X22.827Y-42.715
X22.827Y-45.255
X22.827Y-47.795
X22.827Y-50.335
X22.827Y-52.875
X22.827Y-55.415
X22.827Y-57.955
X22.827Y-60.495
X22.827Y-63.035
X22.827Y-65.575
X22.827Y-68.115
X22.827Y-70.655
X22.827Y-73.195
X22.827Y-75.735
X22.827Y-78.275
X22.827Y-80.815
X22.827Y-83.355
X22.827Y-85.895
X22.827Y-88.435
X22.827Y-90.975
X22.827Y-93.515
X22.827Y-96.055
X22.827Y-98.595
X22.827Y-101.135
X22.827Y-103.675
X22.827Y-106.215
X22.83Y-14.78
X25.367Y-27.475
X25.367Y-30.015
X25.367Y-32.555
X25.367Y-35.095
X25.367Y-37.635
X25.367Y-40.175
X25.367Y-42.715
X25.367Y-45.255
X25.367Y-47.795
X25.367Y-50.335
X25.367Y-52.875
X25.367Y-55.415
X25.367Y-57.955
X25.367Y-60.495
X25.367Y-63.035
X25.367Y-65.575
X25.367Y-68.115
X25.367Y-70.655
X25.367Y-73.195
X25.367Y-75.735
X25.367Y-78.275
X25.367Y-80.815
X25.367Y-83.355
X25.367Y-85.895
X25.367Y-88.435
X25.367Y-90.975
X25.367Y-93.515
X25.367Y-96.055
X25.367Y-98.595
X25.367Y-101.135
X25.367Y-103.675
X25.367Y-106.215
X25.37Y-14.78
X27.907Y-27.475
X27.907Y-30.015
X27.907Y-32.555
X27.907Y-35.095
X27.907Y-37.635
X27.907Y-40.175
X27.907Y-42.715
X27.907Y-45.255
X27.907Y-47.795
X27.907Y-50.335
X27.907Y-52.875
X27.907Y-55.415
X27.907Y-57.955
X27.907Y-60.495
X27.907Y-63.035
X27.907Y-65.575
X27.907Y-68.115
X27.907Y-70.655
X27.907Y-73.195
X27.907Y-75.735
X27.907Y-78.275
X27.907Y-80.815
X27.907Y-83.355
X27.907Y-85.895
X27.907Y-88.435
X27.907Y-90.975
X27.907Y-93.515
X27.907Y-96.055
X27.907Y-98.595
X27.907Y-101.135
X27.907Y-103.675
X27.907Y-106.215
X27.91Y-14.78
X102.84Y-18.59
X102.84Y-21.13
X102.84Y-23.67
X105.38Y-18.59
X105.38Y-21.13
X105.38Y-23.67
X107.92Y-18.59
X107.92Y-21.13
X107.92Y-23.67
X110.46Y-18.59
X110.46Y-21.13
X110.46Y-23.67
X113.0Y-18.59
X113.0Y-21.13
X113.0Y-23.67
X115.54Y-18.59
X115.54Y-21.13
X115.54Y-23.67
X118.08Y-18.59
X118.08Y-21.13
X118.08Y-23.67
X120.62Y-18.59
X120.62Y-21.13
X120.62Y-23.67
M30
