%TF.GenerationSoftware,KiCad,Pcbnew,10.0.6*%
%TF.CreationDate,2026-09-25T08:16:39-04:00*%
%TF.ProjectId,memory-v2.0,6d656d6f-7279-42d7-9632-2e302e6b6963,2.0*%
%TF.SameCoordinates,Original*%
%TF.FileFunction,Drillmap*%
%TF.FilePolarity,Positive*%
%FSLAX45Y45*%
G04 Gerber Fmt 4.5, Leading zero omitted, Abs format (unit mm)*
G04 Created by KiCad (PCBNEW 10.0.6) date 2026-09-25 08:16:39*
%MOMM*%
%LPD*%
G01*
G04 APERTURE LIST*
%ADD10C,0.050000*%
%ADD11C,0.200000*%
%ADD12C,0.100000*%
%ADD13C,0.101600*%
G04 APERTURE END LIST*
D10*
X1774700Y-1002500D02*
X1774700Y-12399500D01*
X1774700Y-12399500D02*
X19552700Y-12399500D01*
X19552700Y-1002500D02*
X1774700Y-1002500D01*
X19552700Y-12399500D02*
X19552700Y-1002500D01*
D11*
D12*
X2026250Y-10522900D02*
X2066250Y-10562900D01*
X2066250Y-10522900D02*
X2026250Y-10562900D01*
X2063290Y-9028620D02*
X2103290Y-9068620D01*
X2103290Y-9028620D02*
X2063290Y-9068620D01*
X2352110Y-3364310D02*
X2392110Y-3404310D01*
X2392110Y-3364310D02*
X2352110Y-3404310D01*
X2417110Y-1969070D02*
X2457110Y-2009070D01*
X2457110Y-1969070D02*
X2417110Y-2009070D01*
X3077670Y-4008480D02*
X3117670Y-4048480D01*
X3117670Y-4008480D02*
X3077670Y-4048480D01*
X3512140Y-5941540D02*
X3552140Y-5981540D01*
X3552140Y-5941540D02*
X3512140Y-5981540D01*
X3737220Y-6141550D02*
X3777220Y-6181550D01*
X3777220Y-6141550D02*
X3737220Y-6181550D01*
X3773560Y-5908630D02*
X3813560Y-5948630D01*
X3813560Y-5908630D02*
X3773560Y-5948630D01*
X3858140Y-5288690D02*
X3898140Y-5328690D01*
X3898140Y-5288690D02*
X3858140Y-5328690D01*
X3919020Y-5440440D02*
X3959020Y-5480440D01*
X3959020Y-5440440D02*
X3919020Y-5480440D01*
X3980020Y-5751130D02*
X4020020Y-5791130D01*
X4020020Y-5751130D02*
X3980020Y-5791130D01*
X4426200Y-10559140D02*
X4466200Y-10599140D01*
X4466200Y-10559140D02*
X4426200Y-10599140D01*
X4631200Y-7722900D02*
X4671200Y-7762900D01*
X4671200Y-7722900D02*
X4631200Y-7762900D01*
X4811220Y-7155670D02*
X4851220Y-7195670D01*
X4851220Y-7155670D02*
X4811220Y-7195670D01*
X4950770Y-6323850D02*
X4990770Y-6363850D01*
X4990770Y-6323850D02*
X4950770Y-6363850D01*
X5111570Y-10039850D02*
X5151570Y-10079850D01*
X5151570Y-10039850D02*
X5111570Y-10079850D01*
X5146120Y-7154110D02*
X5186120Y-7194110D01*
X5186120Y-7154110D02*
X5146120Y-7194110D01*
X5160290Y-10604300D02*
X5200290Y-10644300D01*
X5200290Y-10604300D02*
X5160290Y-10644300D01*
X5178690Y-2042340D02*
X5218690Y-2082340D01*
X5218690Y-2042340D02*
X5178690Y-2082340D01*
X5225870Y-9333780D02*
X5265870Y-9373780D01*
X5265870Y-9333780D02*
X5225870Y-9373780D01*
X5269390Y-7236390D02*
X5309390Y-7276390D01*
X5309390Y-7236390D02*
X5269390Y-7276390D01*
X5341570Y-7103010D02*
X5381570Y-7143010D01*
X5381570Y-7103010D02*
X5341570Y-7143010D01*
X5600780Y-2257860D02*
X5640780Y-2297860D01*
X5640780Y-2257860D02*
X5600780Y-2297860D01*
X5683820Y-5961240D02*
X5723820Y-6001240D01*
X5723820Y-5961240D02*
X5683820Y-6001240D01*
X5714910Y-10830040D02*
X5754910Y-10870040D01*
X5754910Y-10830040D02*
X5714910Y-10870040D01*
X5797440Y-7281560D02*
X5837440Y-7321560D01*
X5837440Y-7281560D02*
X5797440Y-7321560D01*
X5797940Y-9382210D02*
X5837940Y-9422210D01*
X5837940Y-9382210D02*
X5797940Y-9422210D01*
X5821540Y-6397940D02*
X5861540Y-6437940D01*
X5861540Y-6397940D02*
X5821540Y-6437940D01*
X5844250Y-10246410D02*
X5884250Y-10286410D01*
X5884250Y-10246410D02*
X5844250Y-10286410D01*
X6073200Y-8133540D02*
X6113200Y-8173540D01*
X6113200Y-8133540D02*
X6073200Y-8173540D01*
X6165950Y-7222960D02*
X6205950Y-7262960D01*
X6205950Y-7222960D02*
X6165950Y-7262960D01*
X6461870Y-8499820D02*
X6501870Y-8539820D01*
X6501870Y-8499820D02*
X6461870Y-8539820D01*
X6601900Y-8587600D02*
X6641900Y-8627600D01*
X6641900Y-8587600D02*
X6601900Y-8627600D01*
X6776000Y-7641050D02*
X6816000Y-7681050D01*
X6816000Y-7641050D02*
X6776000Y-7681050D01*
X7097010Y-10278910D02*
X7137010Y-10318910D01*
X7137010Y-10278910D02*
X7097010Y-10318910D01*
X7137890Y-7047070D02*
X7177890Y-7087070D01*
X7177890Y-7047070D02*
X7137890Y-7087070D01*
X8008850Y-7868390D02*
X8048850Y-7908390D01*
X8048850Y-7868390D02*
X8008850Y-7908390D01*
X8117380Y-7241170D02*
X8157380Y-7281170D01*
X8157380Y-7241170D02*
X8117380Y-7281170D01*
X8257610Y-2504200D02*
X8297610Y-2544200D01*
X8297610Y-2504200D02*
X8257610Y-2544200D01*
X8404210Y-1688010D02*
X8444210Y-1728010D01*
X8444210Y-1688010D02*
X8404210Y-1728010D01*
X8574380Y-8515170D02*
X8614380Y-8555170D01*
X8614380Y-8515170D02*
X8574380Y-8555170D01*
X8613760Y-10155090D02*
X8653760Y-10195090D01*
X8653760Y-10155090D02*
X8613760Y-10195090D01*
X9159300Y-6639010D02*
X9199300Y-6679010D01*
X9199300Y-6639010D02*
X9159300Y-6679010D01*
X9182230Y-3408960D02*
X9222230Y-3448960D01*
X9222230Y-3408960D02*
X9182230Y-3448960D01*
X9224900Y-3256910D02*
X9264900Y-3296910D01*
X9264900Y-3256910D02*
X9224900Y-3296910D01*
X9927440Y-10811780D02*
X9967440Y-10851780D01*
X9967440Y-10811780D02*
X9927440Y-10851780D01*
X9936650Y-10283310D02*
X9976650Y-10323310D01*
X9976650Y-10283310D02*
X9936650Y-10323310D01*
X10902910Y-1252510D02*
X10942910Y-1292510D01*
X10942910Y-1252510D02*
X10902910Y-1292510D01*
X11358550Y-1649000D02*
X11398550Y-1689000D01*
X11398550Y-1649000D02*
X11358550Y-1689000D01*
X11521460Y-8676270D02*
X11561460Y-8716270D01*
X11561460Y-8676270D02*
X11521460Y-8716270D01*
X11862570Y-8335880D02*
X11902570Y-8375880D01*
X11902570Y-8335880D02*
X11862570Y-8375880D01*
X13052750Y-1736040D02*
X13092750Y-1776040D01*
X13092750Y-1736040D02*
X13052750Y-1776040D01*
X13359630Y-1687860D02*
X13399630Y-1727860D01*
X13399630Y-1687860D02*
X13359630Y-1727860D01*
X14669370Y-10500390D02*
X14709370Y-10540390D01*
X14709370Y-10500390D02*
X14669370Y-10540390D01*
X15162660Y-5295760D02*
X15202660Y-5335760D01*
X15202660Y-5295760D02*
X15162660Y-5335760D01*
X15266790Y-10702850D02*
X15306790Y-10742850D01*
X15306790Y-10702850D02*
X15266790Y-10742850D01*
X15362620Y-10653400D02*
X15402620Y-10693400D01*
X15402620Y-10653400D02*
X15362620Y-10693400D01*
X15365960Y-7461320D02*
X15405960Y-7501320D01*
X15405960Y-7461320D02*
X15365960Y-7501320D01*
X15553650Y-9830760D02*
X15593650Y-9870760D01*
X15593650Y-9830760D02*
X15553650Y-9870760D01*
X15628720Y-9583780D02*
X15668720Y-9623780D01*
X15668720Y-9583780D02*
X15628720Y-9623780D01*
X15756850Y-2721580D02*
X15796850Y-2761580D01*
X15796850Y-2721580D02*
X15756850Y-2761580D01*
X15860790Y-8163700D02*
X15900790Y-8203700D01*
X15900790Y-8163700D02*
X15860790Y-8203700D01*
X16021220Y-7834470D02*
X16061220Y-7874470D01*
X16061220Y-7834470D02*
X16021220Y-7874470D01*
X16021830Y-7537410D02*
X16061830Y-7577410D01*
X16061830Y-7537410D02*
X16021830Y-7577410D01*
X16159240Y-3024960D02*
X16199240Y-3064960D01*
X16199240Y-3024960D02*
X16159240Y-3064960D01*
X16694250Y-10169910D02*
X16734250Y-10209910D01*
X16734250Y-10169910D02*
X16694250Y-10209910D01*
X16845430Y-1460330D02*
X16885430Y-1500330D01*
X16885430Y-1460330D02*
X16845430Y-1500330D01*
X16957830Y-10326950D02*
X16997830Y-10366950D01*
X16997830Y-10326950D02*
X16957830Y-10366950D01*
X17631040Y-6829880D02*
X17671040Y-6869880D01*
X17671040Y-6829880D02*
X17631040Y-6869880D01*
X15277000Y-7074000D02*
G75*
G02*
X15197000Y-7074000I-40000J0D01*
G01*
X15197000Y-7074000D02*
G75*
G02*
X15277000Y-7074000I40000J0D01*
G01*
X15277000Y-7574000D02*
G75*
G02*
X15197000Y-7574000I-40000J0D01*
G01*
X15197000Y-7574000D02*
G75*
G02*
X15277000Y-7574000I40000J0D01*
G01*
X15277000Y-8471000D02*
G75*
G02*
X15197000Y-8471000I-40000J0D01*
G01*
X15197000Y-8471000D02*
G75*
G02*
X15277000Y-8471000I40000J0D01*
G01*
X15277000Y-8971000D02*
G75*
G02*
X15197000Y-8971000I-40000J0D01*
G01*
X15197000Y-8971000D02*
G75*
G02*
X15277000Y-8971000I40000J0D01*
G01*
X15277000Y-9868000D02*
G75*
G02*
X15197000Y-9868000I-40000J0D01*
G01*
X15197000Y-9868000D02*
G75*
G02*
X15277000Y-9868000I40000J0D01*
G01*
X15277000Y-10368000D02*
G75*
G02*
X15197000Y-10368000I-40000J0D01*
G01*
X15197000Y-10368000D02*
G75*
G02*
X15277000Y-10368000I40000J0D01*
G01*
X15404000Y-11765000D02*
G75*
G02*
X15324000Y-11765000I-40000J0D01*
G01*
X15324000Y-11765000D02*
G75*
G02*
X15404000Y-11765000I40000J0D01*
G01*
X15785000Y-4153000D02*
G75*
G02*
X15705000Y-4153000I-40000J0D01*
G01*
X15705000Y-4153000D02*
G75*
G02*
X15785000Y-4153000I40000J0D01*
G01*
X15785000Y-4653000D02*
G75*
G02*
X15705000Y-4653000I-40000J0D01*
G01*
X15705000Y-4653000D02*
G75*
G02*
X15785000Y-4653000I40000J0D01*
G01*
X15785000Y-6939000D02*
G75*
G02*
X15705000Y-6939000I-40000J0D01*
G01*
X15705000Y-6939000D02*
G75*
G02*
X15785000Y-6939000I40000J0D01*
G01*
X15785000Y-7701000D02*
G75*
G02*
X15705000Y-7701000I-40000J0D01*
G01*
X15705000Y-7701000D02*
G75*
G02*
X15785000Y-7701000I40000J0D01*
G01*
X15785000Y-8336000D02*
G75*
G02*
X15705000Y-8336000I-40000J0D01*
G01*
X15705000Y-8336000D02*
G75*
G02*
X15785000Y-8336000I40000J0D01*
G01*
X15785000Y-9098000D02*
G75*
G02*
X15705000Y-9098000I-40000J0D01*
G01*
X15705000Y-9098000D02*
G75*
G02*
X15785000Y-9098000I40000J0D01*
G01*
X15785000Y-9733000D02*
G75*
G02*
X15705000Y-9733000I-40000J0D01*
G01*
X15705000Y-9733000D02*
G75*
G02*
X15785000Y-9733000I40000J0D01*
G01*
X15785000Y-10495000D02*
G75*
G02*
X15705000Y-10495000I-40000J0D01*
G01*
X15705000Y-10495000D02*
G75*
G02*
X15785000Y-10495000I40000J0D01*
G01*
X16039000Y-6939000D02*
G75*
G02*
X15959000Y-6939000I-40000J0D01*
G01*
X15959000Y-6939000D02*
G75*
G02*
X16039000Y-6939000I40000J0D01*
G01*
X16039000Y-7701000D02*
G75*
G02*
X15959000Y-7701000I-40000J0D01*
G01*
X15959000Y-7701000D02*
G75*
G02*
X16039000Y-7701000I40000J0D01*
G01*
X16039000Y-8336000D02*
G75*
G02*
X15959000Y-8336000I-40000J0D01*
G01*
X15959000Y-8336000D02*
G75*
G02*
X16039000Y-8336000I40000J0D01*
G01*
X16039000Y-9098000D02*
G75*
G02*
X15959000Y-9098000I-40000J0D01*
G01*
X15959000Y-9098000D02*
G75*
G02*
X16039000Y-9098000I40000J0D01*
G01*
X16039000Y-9733000D02*
G75*
G02*
X15959000Y-9733000I-40000J0D01*
G01*
X15959000Y-9733000D02*
G75*
G02*
X16039000Y-9733000I40000J0D01*
G01*
X16039000Y-10495000D02*
G75*
G02*
X15959000Y-10495000I-40000J0D01*
G01*
X15959000Y-10495000D02*
G75*
G02*
X16039000Y-10495000I40000J0D01*
G01*
X16293000Y-4018000D02*
G75*
G02*
X16213000Y-4018000I-40000J0D01*
G01*
X16213000Y-4018000D02*
G75*
G02*
X16293000Y-4018000I40000J0D01*
G01*
X16293000Y-4780000D02*
G75*
G02*
X16213000Y-4780000I-40000J0D01*
G01*
X16213000Y-4780000D02*
G75*
G02*
X16293000Y-4780000I40000J0D01*
G01*
X16293000Y-6939000D02*
G75*
G02*
X16213000Y-6939000I-40000J0D01*
G01*
X16213000Y-6939000D02*
G75*
G02*
X16293000Y-6939000I40000J0D01*
G01*
X16293000Y-7701000D02*
G75*
G02*
X16213000Y-7701000I-40000J0D01*
G01*
X16213000Y-7701000D02*
G75*
G02*
X16293000Y-7701000I40000J0D01*
G01*
X16293000Y-8336000D02*
G75*
G02*
X16213000Y-8336000I-40000J0D01*
G01*
X16213000Y-8336000D02*
G75*
G02*
X16293000Y-8336000I40000J0D01*
G01*
X16293000Y-9098000D02*
G75*
G02*
X16213000Y-9098000I-40000J0D01*
G01*
X16213000Y-9098000D02*
G75*
G02*
X16293000Y-9098000I40000J0D01*
G01*
X16293000Y-9733000D02*
G75*
G02*
X16213000Y-9733000I-40000J0D01*
G01*
X16213000Y-9733000D02*
G75*
G02*
X16293000Y-9733000I40000J0D01*
G01*
X16293000Y-10495000D02*
G75*
G02*
X16213000Y-10495000I-40000J0D01*
G01*
X16213000Y-10495000D02*
G75*
G02*
X16293000Y-10495000I40000J0D01*
G01*
X16420000Y-11765000D02*
G75*
G02*
X16340000Y-11765000I-40000J0D01*
G01*
X16340000Y-11765000D02*
G75*
G02*
X16420000Y-11765000I40000J0D01*
G01*
X16547000Y-4018000D02*
G75*
G02*
X16467000Y-4018000I-40000J0D01*
G01*
X16467000Y-4018000D02*
G75*
G02*
X16547000Y-4018000I40000J0D01*
G01*
X16547000Y-4780000D02*
G75*
G02*
X16467000Y-4780000I-40000J0D01*
G01*
X16467000Y-4780000D02*
G75*
G02*
X16547000Y-4780000I40000J0D01*
G01*
X16547000Y-6939000D02*
G75*
G02*
X16467000Y-6939000I-40000J0D01*
G01*
X16467000Y-6939000D02*
G75*
G02*
X16547000Y-6939000I40000J0D01*
G01*
X16547000Y-7701000D02*
G75*
G02*
X16467000Y-7701000I-40000J0D01*
G01*
X16467000Y-7701000D02*
G75*
G02*
X16547000Y-7701000I40000J0D01*
G01*
X16547000Y-8336000D02*
G75*
G02*
X16467000Y-8336000I-40000J0D01*
G01*
X16467000Y-8336000D02*
G75*
G02*
X16547000Y-8336000I40000J0D01*
G01*
X16547000Y-9098000D02*
G75*
G02*
X16467000Y-9098000I-40000J0D01*
G01*
X16467000Y-9098000D02*
G75*
G02*
X16547000Y-9098000I40000J0D01*
G01*
X16547000Y-9733000D02*
G75*
G02*
X16467000Y-9733000I-40000J0D01*
G01*
X16467000Y-9733000D02*
G75*
G02*
X16547000Y-9733000I40000J0D01*
G01*
X16547000Y-10495000D02*
G75*
G02*
X16467000Y-10495000I-40000J0D01*
G01*
X16467000Y-10495000D02*
G75*
G02*
X16547000Y-10495000I40000J0D01*
G01*
X16801000Y-4018000D02*
G75*
G02*
X16721000Y-4018000I-40000J0D01*
G01*
X16721000Y-4018000D02*
G75*
G02*
X16801000Y-4018000I40000J0D01*
G01*
X16801000Y-4780000D02*
G75*
G02*
X16721000Y-4780000I-40000J0D01*
G01*
X16721000Y-4780000D02*
G75*
G02*
X16801000Y-4780000I40000J0D01*
G01*
X16801000Y-6939000D02*
G75*
G02*
X16721000Y-6939000I-40000J0D01*
G01*
X16721000Y-6939000D02*
G75*
G02*
X16801000Y-6939000I40000J0D01*
G01*
X16801000Y-7701000D02*
G75*
G02*
X16721000Y-7701000I-40000J0D01*
G01*
X16721000Y-7701000D02*
G75*
G02*
X16801000Y-7701000I40000J0D01*
G01*
X16801000Y-8336000D02*
G75*
G02*
X16721000Y-8336000I-40000J0D01*
G01*
X16721000Y-8336000D02*
G75*
G02*
X16801000Y-8336000I40000J0D01*
G01*
X16801000Y-9098000D02*
G75*
G02*
X16721000Y-9098000I-40000J0D01*
G01*
X16721000Y-9098000D02*
G75*
G02*
X16801000Y-9098000I40000J0D01*
G01*
X16801000Y-9733000D02*
G75*
G02*
X16721000Y-9733000I-40000J0D01*
G01*
X16721000Y-9733000D02*
G75*
G02*
X16801000Y-9733000I40000J0D01*
G01*
X16801000Y-10495000D02*
G75*
G02*
X16721000Y-10495000I-40000J0D01*
G01*
X16721000Y-10495000D02*
G75*
G02*
X16801000Y-10495000I40000J0D01*
G01*
X17055000Y-4018000D02*
G75*
G02*
X16975000Y-4018000I-40000J0D01*
G01*
X16975000Y-4018000D02*
G75*
G02*
X17055000Y-4018000I40000J0D01*
G01*
X17055000Y-4780000D02*
G75*
G02*
X16975000Y-4780000I-40000J0D01*
G01*
X16975000Y-4780000D02*
G75*
G02*
X17055000Y-4780000I40000J0D01*
G01*
X17055000Y-6939000D02*
G75*
G02*
X16975000Y-6939000I-40000J0D01*
G01*
X16975000Y-6939000D02*
G75*
G02*
X17055000Y-6939000I40000J0D01*
G01*
X17055000Y-7701000D02*
G75*
G02*
X16975000Y-7701000I-40000J0D01*
G01*
X16975000Y-7701000D02*
G75*
G02*
X17055000Y-7701000I40000J0D01*
G01*
X17055000Y-8336000D02*
G75*
G02*
X16975000Y-8336000I-40000J0D01*
G01*
X16975000Y-8336000D02*
G75*
G02*
X17055000Y-8336000I40000J0D01*
G01*
X17055000Y-9098000D02*
G75*
G02*
X16975000Y-9098000I-40000J0D01*
G01*
X16975000Y-9098000D02*
G75*
G02*
X17055000Y-9098000I40000J0D01*
G01*
X17055000Y-9733000D02*
G75*
G02*
X16975000Y-9733000I-40000J0D01*
G01*
X16975000Y-9733000D02*
G75*
G02*
X17055000Y-9733000I40000J0D01*
G01*
X17055000Y-10495000D02*
G75*
G02*
X16975000Y-10495000I-40000J0D01*
G01*
X16975000Y-10495000D02*
G75*
G02*
X17055000Y-10495000I40000J0D01*
G01*
X17182000Y-10884000D02*
G75*
G02*
X17102000Y-10884000I-40000J0D01*
G01*
X17102000Y-10884000D02*
G75*
G02*
X17182000Y-10884000I40000J0D01*
G01*
X17182000Y-11384000D02*
G75*
G02*
X17102000Y-11384000I-40000J0D01*
G01*
X17102000Y-11384000D02*
G75*
G02*
X17182000Y-11384000I40000J0D01*
G01*
X17309000Y-4018000D02*
G75*
G02*
X17229000Y-4018000I-40000J0D01*
G01*
X17229000Y-4018000D02*
G75*
G02*
X17309000Y-4018000I40000J0D01*
G01*
X17309000Y-4780000D02*
G75*
G02*
X17229000Y-4780000I-40000J0D01*
G01*
X17229000Y-4780000D02*
G75*
G02*
X17309000Y-4780000I40000J0D01*
G01*
X17309000Y-6939000D02*
G75*
G02*
X17229000Y-6939000I-40000J0D01*
G01*
X17229000Y-6939000D02*
G75*
G02*
X17309000Y-6939000I40000J0D01*
G01*
X17309000Y-7701000D02*
G75*
G02*
X17229000Y-7701000I-40000J0D01*
G01*
X17229000Y-7701000D02*
G75*
G02*
X17309000Y-7701000I40000J0D01*
G01*
X17309000Y-8336000D02*
G75*
G02*
X17229000Y-8336000I-40000J0D01*
G01*
X17229000Y-8336000D02*
G75*
G02*
X17309000Y-8336000I40000J0D01*
G01*
X17309000Y-9098000D02*
G75*
G02*
X17229000Y-9098000I-40000J0D01*
G01*
X17229000Y-9098000D02*
G75*
G02*
X17309000Y-9098000I40000J0D01*
G01*
X17309000Y-9733000D02*
G75*
G02*
X17229000Y-9733000I-40000J0D01*
G01*
X17229000Y-9733000D02*
G75*
G02*
X17309000Y-9733000I40000J0D01*
G01*
X17309000Y-10495000D02*
G75*
G02*
X17229000Y-10495000I-40000J0D01*
G01*
X17229000Y-10495000D02*
G75*
G02*
X17309000Y-10495000I40000J0D01*
G01*
X17563000Y-4018000D02*
G75*
G02*
X17483000Y-4018000I-40000J0D01*
G01*
X17483000Y-4018000D02*
G75*
G02*
X17563000Y-4018000I40000J0D01*
G01*
X17563000Y-4780000D02*
G75*
G02*
X17483000Y-4780000I-40000J0D01*
G01*
X17483000Y-4780000D02*
G75*
G02*
X17563000Y-4780000I40000J0D01*
G01*
X17563000Y-6939000D02*
G75*
G02*
X17483000Y-6939000I-40000J0D01*
G01*
X17483000Y-6939000D02*
G75*
G02*
X17563000Y-6939000I40000J0D01*
G01*
X17563000Y-7701000D02*
G75*
G02*
X17483000Y-7701000I-40000J0D01*
G01*
X17483000Y-7701000D02*
G75*
G02*
X17563000Y-7701000I40000J0D01*
G01*
X17563000Y-9733000D02*
G75*
G02*
X17483000Y-9733000I-40000J0D01*
G01*
X17483000Y-9733000D02*
G75*
G02*
X17563000Y-9733000I40000J0D01*
G01*
X17563000Y-10495000D02*
G75*
G02*
X17483000Y-10495000I-40000J0D01*
G01*
X17483000Y-10495000D02*
G75*
G02*
X17563000Y-10495000I40000J0D01*
G01*
X17690000Y-10749000D02*
G75*
G02*
X17610000Y-10749000I-40000J0D01*
G01*
X17610000Y-10749000D02*
G75*
G02*
X17690000Y-10749000I40000J0D01*
G01*
X17690000Y-11511000D02*
G75*
G02*
X17610000Y-11511000I-40000J0D01*
G01*
X17610000Y-11511000D02*
G75*
G02*
X17690000Y-11511000I40000J0D01*
G01*
X17817000Y-4018000D02*
G75*
G02*
X17737000Y-4018000I-40000J0D01*
G01*
X17737000Y-4018000D02*
G75*
G02*
X17817000Y-4018000I40000J0D01*
G01*
X17817000Y-4780000D02*
G75*
G02*
X17737000Y-4780000I-40000J0D01*
G01*
X17737000Y-4780000D02*
G75*
G02*
X17817000Y-4780000I40000J0D01*
G01*
X17817000Y-9733000D02*
G75*
G02*
X17737000Y-9733000I-40000J0D01*
G01*
X17737000Y-9733000D02*
G75*
G02*
X17817000Y-9733000I40000J0D01*
G01*
X17817000Y-10495000D02*
G75*
G02*
X17737000Y-10495000I-40000J0D01*
G01*
X17737000Y-10495000D02*
G75*
G02*
X17817000Y-10495000I40000J0D01*
G01*
X17944000Y-6939000D02*
G75*
G02*
X17864000Y-6939000I-40000J0D01*
G01*
X17864000Y-6939000D02*
G75*
G02*
X17944000Y-6939000I40000J0D01*
G01*
X17944000Y-7955000D02*
G75*
G02*
X17864000Y-7955000I-40000J0D01*
G01*
X17864000Y-7955000D02*
G75*
G02*
X17944000Y-7955000I40000J0D01*
G01*
X17944000Y-10749000D02*
G75*
G02*
X17864000Y-10749000I-40000J0D01*
G01*
X17864000Y-10749000D02*
G75*
G02*
X17944000Y-10749000I40000J0D01*
G01*
X17944000Y-11511000D02*
G75*
G02*
X17864000Y-11511000I-40000J0D01*
G01*
X17864000Y-11511000D02*
G75*
G02*
X17944000Y-11511000I40000J0D01*
G01*
X18071000Y-4018000D02*
G75*
G02*
X17991000Y-4018000I-40000J0D01*
G01*
X17991000Y-4018000D02*
G75*
G02*
X18071000Y-4018000I40000J0D01*
G01*
X18071000Y-4780000D02*
G75*
G02*
X17991000Y-4780000I-40000J0D01*
G01*
X17991000Y-4780000D02*
G75*
G02*
X18071000Y-4780000I40000J0D01*
G01*
X18071000Y-9733000D02*
G75*
G02*
X17991000Y-9733000I-40000J0D01*
G01*
X17991000Y-9733000D02*
G75*
G02*
X18071000Y-9733000I40000J0D01*
G01*
X18071000Y-10495000D02*
G75*
G02*
X17991000Y-10495000I-40000J0D01*
G01*
X17991000Y-10495000D02*
G75*
G02*
X18071000Y-10495000I40000J0D01*
G01*
X18198000Y-10749000D02*
G75*
G02*
X18118000Y-10749000I-40000J0D01*
G01*
X18118000Y-10749000D02*
G75*
G02*
X18198000Y-10749000I40000J0D01*
G01*
X18198000Y-11511000D02*
G75*
G02*
X18118000Y-11511000I-40000J0D01*
G01*
X18118000Y-11511000D02*
G75*
G02*
X18198000Y-11511000I40000J0D01*
G01*
X18325000Y-6939000D02*
G75*
G02*
X18245000Y-6939000I-40000J0D01*
G01*
X18245000Y-6939000D02*
G75*
G02*
X18325000Y-6939000I40000J0D01*
G01*
X18325000Y-7955000D02*
G75*
G02*
X18245000Y-7955000I-40000J0D01*
G01*
X18245000Y-7955000D02*
G75*
G02*
X18325000Y-7955000I40000J0D01*
G01*
X18452000Y-10749000D02*
G75*
G02*
X18372000Y-10749000I-40000J0D01*
G01*
X18372000Y-10749000D02*
G75*
G02*
X18452000Y-10749000I40000J0D01*
G01*
X18452000Y-11511000D02*
G75*
G02*
X18372000Y-11511000I-40000J0D01*
G01*
X18372000Y-11511000D02*
G75*
G02*
X18452000Y-11511000I40000J0D01*
G01*
X18706000Y-5161000D02*
G75*
G02*
X18626000Y-5161000I-40000J0D01*
G01*
X18626000Y-5161000D02*
G75*
G02*
X18706000Y-5161000I40000J0D01*
G01*
X18706000Y-6939000D02*
G75*
G02*
X18626000Y-6939000I-40000J0D01*
G01*
X18626000Y-6939000D02*
G75*
G02*
X18706000Y-6939000I40000J0D01*
G01*
X18706000Y-7955000D02*
G75*
G02*
X18626000Y-7955000I-40000J0D01*
G01*
X18626000Y-7955000D02*
G75*
G02*
X18706000Y-7955000I40000J0D01*
G01*
X18706000Y-10749000D02*
G75*
G02*
X18626000Y-10749000I-40000J0D01*
G01*
X18626000Y-10749000D02*
G75*
G02*
X18706000Y-10749000I40000J0D01*
G01*
X18706000Y-11511000D02*
G75*
G02*
X18626000Y-11511000I-40000J0D01*
G01*
X18626000Y-11511000D02*
G75*
G02*
X18706000Y-11511000I40000J0D01*
G01*
X18906000Y-5161000D02*
G75*
G02*
X18826000Y-5161000I-40000J0D01*
G01*
X18826000Y-5161000D02*
G75*
G02*
X18906000Y-5161000I40000J0D01*
G01*
X18960000Y-10749000D02*
G75*
G02*
X18880000Y-10749000I-40000J0D01*
G01*
X18880000Y-10749000D02*
G75*
G02*
X18960000Y-10749000I40000J0D01*
G01*
X18960000Y-11511000D02*
G75*
G02*
X18880000Y-11511000I-40000J0D01*
G01*
X18880000Y-11511000D02*
G75*
G02*
X18960000Y-11511000I40000J0D01*
G01*
X19087000Y-6939000D02*
G75*
G02*
X19007000Y-6939000I-40000J0D01*
G01*
X19007000Y-6939000D02*
G75*
G02*
X19087000Y-6939000I40000J0D01*
G01*
X19087000Y-7955000D02*
G75*
G02*
X19007000Y-7955000I-40000J0D01*
G01*
X19007000Y-7955000D02*
G75*
G02*
X19087000Y-7955000I40000J0D01*
G01*
X19214000Y-8336000D02*
G75*
G02*
X19134000Y-8336000I-40000J0D01*
G01*
X19134000Y-8336000D02*
G75*
G02*
X19214000Y-8336000I40000J0D01*
G01*
X19214000Y-8590000D02*
G75*
G02*
X19134000Y-8590000I-40000J0D01*
G01*
X19134000Y-8590000D02*
G75*
G02*
X19214000Y-8590000I40000J0D01*
G01*
X19214000Y-8844000D02*
G75*
G02*
X19134000Y-8844000I-40000J0D01*
G01*
X19134000Y-8844000D02*
G75*
G02*
X19214000Y-8844000I40000J0D01*
G01*
X19214000Y-9098000D02*
G75*
G02*
X19134000Y-9098000I-40000J0D01*
G01*
X19134000Y-9098000D02*
G75*
G02*
X19214000Y-9098000I40000J0D01*
G01*
X19214000Y-9352000D02*
G75*
G02*
X19134000Y-9352000I-40000J0D01*
G01*
X19134000Y-9352000D02*
G75*
G02*
X19214000Y-9352000I40000J0D01*
G01*
X19214000Y-9606000D02*
G75*
G02*
X19134000Y-9606000I-40000J0D01*
G01*
X19134000Y-9606000D02*
G75*
G02*
X19214000Y-9606000I40000J0D01*
G01*
X19214000Y-9860000D02*
G75*
G02*
X19134000Y-9860000I-40000J0D01*
G01*
X19134000Y-9860000D02*
G75*
G02*
X19214000Y-9860000I40000J0D01*
G01*
X19214000Y-10114000D02*
G75*
G02*
X19134000Y-10114000I-40000J0D01*
G01*
X19134000Y-10114000D02*
G75*
G02*
X19214000Y-10114000I40000J0D01*
G01*
X19214000Y-10368000D02*
G75*
G02*
X19134000Y-10368000I-40000J0D01*
G01*
X19134000Y-10368000D02*
G75*
G02*
X19214000Y-10368000I40000J0D01*
G01*
X19214000Y-10749000D02*
G75*
G02*
X19134000Y-10749000I-40000J0D01*
G01*
X19134000Y-10749000D02*
G75*
G02*
X19214000Y-10749000I40000J0D01*
G01*
X19214000Y-11511000D02*
G75*
G02*
X19134000Y-11511000I-40000J0D01*
G01*
X19134000Y-11511000D02*
G75*
G02*
X19214000Y-11511000I40000J0D01*
G01*
X3553000Y-2199360D02*
X3553000Y-2280640D01*
X3512360Y-2240000D02*
X3593640Y-2240000D01*
X3553000Y-2453360D02*
X3553000Y-2534640D01*
X3512360Y-2494000D02*
X3593640Y-2494000D01*
X3553000Y-3596360D02*
X3553000Y-3677640D01*
X3512360Y-3637000D02*
X3593640Y-3637000D01*
X3553000Y-3850360D02*
X3553000Y-3931640D01*
X3512360Y-3891000D02*
X3593640Y-3891000D01*
X3553000Y-4993360D02*
X3553000Y-5074640D01*
X3512360Y-5034000D02*
X3593640Y-5034000D01*
X3553000Y-5247360D02*
X3553000Y-5328640D01*
X3512360Y-5288000D02*
X3593640Y-5288000D01*
X3553000Y-6390360D02*
X3553000Y-6471640D01*
X3512360Y-6431000D02*
X3593640Y-6431000D01*
X3553000Y-6644360D02*
X3553000Y-6725640D01*
X3512360Y-6685000D02*
X3593640Y-6685000D01*
X3553000Y-7787360D02*
X3553000Y-7868640D01*
X3512360Y-7828000D02*
X3593640Y-7828000D01*
X3553000Y-8041360D02*
X3553000Y-8122640D01*
X3512360Y-8082000D02*
X3593640Y-8082000D01*
X3553000Y-9184360D02*
X3553000Y-9265640D01*
X3512360Y-9225000D02*
X3593640Y-9225000D01*
X3553000Y-9438360D02*
X3553000Y-9519640D01*
X3512360Y-9479000D02*
X3593640Y-9479000D01*
X4061000Y-1945360D02*
X4061000Y-2026640D01*
X4020360Y-1986000D02*
X4101640Y-1986000D01*
X4061000Y-2707360D02*
X4061000Y-2788640D01*
X4020360Y-2748000D02*
X4101640Y-2748000D01*
X4061000Y-3342360D02*
X4061000Y-3423640D01*
X4020360Y-3383000D02*
X4101640Y-3383000D01*
X4061000Y-4104360D02*
X4061000Y-4185640D01*
X4020360Y-4145000D02*
X4101640Y-4145000D01*
X4061000Y-4739360D02*
X4061000Y-4820640D01*
X4020360Y-4780000D02*
X4101640Y-4780000D01*
X4061000Y-5501360D02*
X4061000Y-5582640D01*
X4020360Y-5542000D02*
X4101640Y-5542000D01*
X4061000Y-6136360D02*
X4061000Y-6217640D01*
X4020360Y-6177000D02*
X4101640Y-6177000D01*
X4061000Y-6898360D02*
X4061000Y-6979640D01*
X4020360Y-6939000D02*
X4101640Y-6939000D01*
X4061000Y-7533360D02*
X4061000Y-7614640D01*
X4020360Y-7574000D02*
X4101640Y-7574000D01*
X4061000Y-8295360D02*
X4061000Y-8376640D01*
X4020360Y-8336000D02*
X4101640Y-8336000D01*
X4061000Y-8930360D02*
X4061000Y-9011640D01*
X4020360Y-8971000D02*
X4101640Y-8971000D01*
X4061000Y-9692360D02*
X4061000Y-9773640D01*
X4020360Y-9733000D02*
X4101640Y-9733000D01*
X4061000Y-10454360D02*
X4061000Y-10535640D01*
X4020360Y-10495000D02*
X4101640Y-10495000D01*
X4061000Y-10962360D02*
X4061000Y-11043640D01*
X4020360Y-11003000D02*
X4101640Y-11003000D01*
X4315000Y-1945360D02*
X4315000Y-2026640D01*
X4274360Y-1986000D02*
X4355640Y-1986000D01*
X4315000Y-2707360D02*
X4315000Y-2788640D01*
X4274360Y-2748000D02*
X4355640Y-2748000D01*
X4315000Y-3342360D02*
X4315000Y-3423640D01*
X4274360Y-3383000D02*
X4355640Y-3383000D01*
X4315000Y-4104360D02*
X4315000Y-4185640D01*
X4274360Y-4145000D02*
X4355640Y-4145000D01*
X4315000Y-4739360D02*
X4315000Y-4820640D01*
X4274360Y-4780000D02*
X4355640Y-4780000D01*
X4315000Y-5501360D02*
X4315000Y-5582640D01*
X4274360Y-5542000D02*
X4355640Y-5542000D01*
X4315000Y-6136360D02*
X4315000Y-6217640D01*
X4274360Y-6177000D02*
X4355640Y-6177000D01*
X4315000Y-6898360D02*
X4315000Y-6979640D01*
X4274360Y-6939000D02*
X4355640Y-6939000D01*
X4315000Y-7533360D02*
X4315000Y-7614640D01*
X4274360Y-7574000D02*
X4355640Y-7574000D01*
X4315000Y-8295360D02*
X4315000Y-8376640D01*
X4274360Y-8336000D02*
X4355640Y-8336000D01*
X4315000Y-8930360D02*
X4315000Y-9011640D01*
X4274360Y-8971000D02*
X4355640Y-8971000D01*
X4315000Y-9692360D02*
X4315000Y-9773640D01*
X4274360Y-9733000D02*
X4355640Y-9733000D01*
X4315000Y-10454360D02*
X4315000Y-10535640D01*
X4274360Y-10495000D02*
X4355640Y-10495000D01*
X4315000Y-10962360D02*
X4315000Y-11043640D01*
X4274360Y-11003000D02*
X4355640Y-11003000D01*
X4569000Y-1945360D02*
X4569000Y-2026640D01*
X4528360Y-1986000D02*
X4609640Y-1986000D01*
X4569000Y-2707360D02*
X4569000Y-2788640D01*
X4528360Y-2748000D02*
X4609640Y-2748000D01*
X4569000Y-3342360D02*
X4569000Y-3423640D01*
X4528360Y-3383000D02*
X4609640Y-3383000D01*
X4569000Y-4104360D02*
X4569000Y-4185640D01*
X4528360Y-4145000D02*
X4609640Y-4145000D01*
X4569000Y-4739360D02*
X4569000Y-4820640D01*
X4528360Y-4780000D02*
X4609640Y-4780000D01*
X4569000Y-5501360D02*
X4569000Y-5582640D01*
X4528360Y-5542000D02*
X4609640Y-5542000D01*
X4569000Y-6136360D02*
X4569000Y-6217640D01*
X4528360Y-6177000D02*
X4609640Y-6177000D01*
X4569000Y-6898360D02*
X4569000Y-6979640D01*
X4528360Y-6939000D02*
X4609640Y-6939000D01*
X4569000Y-7533360D02*
X4569000Y-7614640D01*
X4528360Y-7574000D02*
X4609640Y-7574000D01*
X4569000Y-8295360D02*
X4569000Y-8376640D01*
X4528360Y-8336000D02*
X4609640Y-8336000D01*
X4569000Y-8930360D02*
X4569000Y-9011640D01*
X4528360Y-8971000D02*
X4609640Y-8971000D01*
X4569000Y-9692360D02*
X4569000Y-9773640D01*
X4528360Y-9733000D02*
X4609640Y-9733000D01*
X4569000Y-10454360D02*
X4569000Y-10535640D01*
X4528360Y-10495000D02*
X4609640Y-10495000D01*
X4569000Y-10962360D02*
X4569000Y-11043640D01*
X4528360Y-11003000D02*
X4609640Y-11003000D01*
X4823000Y-1945360D02*
X4823000Y-2026640D01*
X4782360Y-1986000D02*
X4863640Y-1986000D01*
X4823000Y-2707360D02*
X4823000Y-2788640D01*
X4782360Y-2748000D02*
X4863640Y-2748000D01*
X4823000Y-3342360D02*
X4823000Y-3423640D01*
X4782360Y-3383000D02*
X4863640Y-3383000D01*
X4823000Y-4104360D02*
X4823000Y-4185640D01*
X4782360Y-4145000D02*
X4863640Y-4145000D01*
X4823000Y-4739360D02*
X4823000Y-4820640D01*
X4782360Y-4780000D02*
X4863640Y-4780000D01*
X4823000Y-5501360D02*
X4823000Y-5582640D01*
X4782360Y-5542000D02*
X4863640Y-5542000D01*
X4823000Y-6136360D02*
X4823000Y-6217640D01*
X4782360Y-6177000D02*
X4863640Y-6177000D01*
X4823000Y-6898360D02*
X4823000Y-6979640D01*
X4782360Y-6939000D02*
X4863640Y-6939000D01*
X4823000Y-7533360D02*
X4823000Y-7614640D01*
X4782360Y-7574000D02*
X4863640Y-7574000D01*
X4823000Y-8295360D02*
X4823000Y-8376640D01*
X4782360Y-8336000D02*
X4863640Y-8336000D01*
X4823000Y-8930360D02*
X4823000Y-9011640D01*
X4782360Y-8971000D02*
X4863640Y-8971000D01*
X4823000Y-9692360D02*
X4823000Y-9773640D01*
X4782360Y-9733000D02*
X4863640Y-9733000D01*
X4823000Y-10454360D02*
X4823000Y-10535640D01*
X4782360Y-10495000D02*
X4863640Y-10495000D01*
X4823000Y-10962360D02*
X4823000Y-11043640D01*
X4782360Y-11003000D02*
X4863640Y-11003000D01*
X5077000Y-1945360D02*
X5077000Y-2026640D01*
X5036360Y-1986000D02*
X5117640Y-1986000D01*
X5077000Y-2707360D02*
X5077000Y-2788640D01*
X5036360Y-2748000D02*
X5117640Y-2748000D01*
X5077000Y-3342360D02*
X5077000Y-3423640D01*
X5036360Y-3383000D02*
X5117640Y-3383000D01*
X5077000Y-4104360D02*
X5077000Y-4185640D01*
X5036360Y-4145000D02*
X5117640Y-4145000D01*
X5077000Y-4739360D02*
X5077000Y-4820640D01*
X5036360Y-4780000D02*
X5117640Y-4780000D01*
X5077000Y-5501360D02*
X5077000Y-5582640D01*
X5036360Y-5542000D02*
X5117640Y-5542000D01*
X5077000Y-6136360D02*
X5077000Y-6217640D01*
X5036360Y-6177000D02*
X5117640Y-6177000D01*
X5077000Y-6898360D02*
X5077000Y-6979640D01*
X5036360Y-6939000D02*
X5117640Y-6939000D01*
X5077000Y-7533360D02*
X5077000Y-7614640D01*
X5036360Y-7574000D02*
X5117640Y-7574000D01*
X5077000Y-8295360D02*
X5077000Y-8376640D01*
X5036360Y-8336000D02*
X5117640Y-8336000D01*
X5077000Y-8930360D02*
X5077000Y-9011640D01*
X5036360Y-8971000D02*
X5117640Y-8971000D01*
X5077000Y-9692360D02*
X5077000Y-9773640D01*
X5036360Y-9733000D02*
X5117640Y-9733000D01*
X5077000Y-10454360D02*
X5077000Y-10535640D01*
X5036360Y-10495000D02*
X5117640Y-10495000D01*
X5077000Y-10962360D02*
X5077000Y-11043640D01*
X5036360Y-11003000D02*
X5117640Y-11003000D01*
X5331000Y-1945360D02*
X5331000Y-2026640D01*
X5290360Y-1986000D02*
X5371640Y-1986000D01*
X5331000Y-2707360D02*
X5331000Y-2788640D01*
X5290360Y-2748000D02*
X5371640Y-2748000D01*
X5331000Y-3342360D02*
X5331000Y-3423640D01*
X5290360Y-3383000D02*
X5371640Y-3383000D01*
X5331000Y-4104360D02*
X5331000Y-4185640D01*
X5290360Y-4145000D02*
X5371640Y-4145000D01*
X5331000Y-4739360D02*
X5331000Y-4820640D01*
X5290360Y-4780000D02*
X5371640Y-4780000D01*
X5331000Y-5501360D02*
X5331000Y-5582640D01*
X5290360Y-5542000D02*
X5371640Y-5542000D01*
X5331000Y-6136360D02*
X5331000Y-6217640D01*
X5290360Y-6177000D02*
X5371640Y-6177000D01*
X5331000Y-6898360D02*
X5331000Y-6979640D01*
X5290360Y-6939000D02*
X5371640Y-6939000D01*
X5331000Y-7533360D02*
X5331000Y-7614640D01*
X5290360Y-7574000D02*
X5371640Y-7574000D01*
X5331000Y-8295360D02*
X5331000Y-8376640D01*
X5290360Y-8336000D02*
X5371640Y-8336000D01*
X5331000Y-8930360D02*
X5331000Y-9011640D01*
X5290360Y-8971000D02*
X5371640Y-8971000D01*
X5331000Y-9692360D02*
X5331000Y-9773640D01*
X5290360Y-9733000D02*
X5371640Y-9733000D01*
X5331000Y-10454360D02*
X5331000Y-10535640D01*
X5290360Y-10495000D02*
X5371640Y-10495000D01*
X5331000Y-10962360D02*
X5331000Y-11043640D01*
X5290360Y-11003000D02*
X5371640Y-11003000D01*
X5585000Y-1945360D02*
X5585000Y-2026640D01*
X5544360Y-1986000D02*
X5625640Y-1986000D01*
X5585000Y-2707360D02*
X5585000Y-2788640D01*
X5544360Y-2748000D02*
X5625640Y-2748000D01*
X5585000Y-3342360D02*
X5585000Y-3423640D01*
X5544360Y-3383000D02*
X5625640Y-3383000D01*
X5585000Y-4104360D02*
X5585000Y-4185640D01*
X5544360Y-4145000D02*
X5625640Y-4145000D01*
X5585000Y-4739360D02*
X5585000Y-4820640D01*
X5544360Y-4780000D02*
X5625640Y-4780000D01*
X5585000Y-5501360D02*
X5585000Y-5582640D01*
X5544360Y-5542000D02*
X5625640Y-5542000D01*
X5585000Y-6136360D02*
X5585000Y-6217640D01*
X5544360Y-6177000D02*
X5625640Y-6177000D01*
X5585000Y-6898360D02*
X5585000Y-6979640D01*
X5544360Y-6939000D02*
X5625640Y-6939000D01*
X5585000Y-7533360D02*
X5585000Y-7614640D01*
X5544360Y-7574000D02*
X5625640Y-7574000D01*
X5585000Y-8295360D02*
X5585000Y-8376640D01*
X5544360Y-8336000D02*
X5625640Y-8336000D01*
X5585000Y-8930360D02*
X5585000Y-9011640D01*
X5544360Y-8971000D02*
X5625640Y-8971000D01*
X5585000Y-9692360D02*
X5585000Y-9773640D01*
X5544360Y-9733000D02*
X5625640Y-9733000D01*
X5585000Y-10454360D02*
X5585000Y-10535640D01*
X5544360Y-10495000D02*
X5625640Y-10495000D01*
X5585000Y-10962360D02*
X5585000Y-11043640D01*
X5544360Y-11003000D02*
X5625640Y-11003000D01*
X5839000Y-1945360D02*
X5839000Y-2026640D01*
X5798360Y-1986000D02*
X5879640Y-1986000D01*
X5839000Y-2707360D02*
X5839000Y-2788640D01*
X5798360Y-2748000D02*
X5879640Y-2748000D01*
X5839000Y-3342360D02*
X5839000Y-3423640D01*
X5798360Y-3383000D02*
X5879640Y-3383000D01*
X5839000Y-4104360D02*
X5839000Y-4185640D01*
X5798360Y-4145000D02*
X5879640Y-4145000D01*
X5839000Y-4739360D02*
X5839000Y-4820640D01*
X5798360Y-4780000D02*
X5879640Y-4780000D01*
X5839000Y-5501360D02*
X5839000Y-5582640D01*
X5798360Y-5542000D02*
X5879640Y-5542000D01*
X5839000Y-6136360D02*
X5839000Y-6217640D01*
X5798360Y-6177000D02*
X5879640Y-6177000D01*
X5839000Y-6898360D02*
X5839000Y-6979640D01*
X5798360Y-6939000D02*
X5879640Y-6939000D01*
X5839000Y-7533360D02*
X5839000Y-7614640D01*
X5798360Y-7574000D02*
X5879640Y-7574000D01*
X5839000Y-8295360D02*
X5839000Y-8376640D01*
X5798360Y-8336000D02*
X5879640Y-8336000D01*
X5839000Y-8930360D02*
X5839000Y-9011640D01*
X5798360Y-8971000D02*
X5879640Y-8971000D01*
X5839000Y-9692360D02*
X5839000Y-9773640D01*
X5798360Y-9733000D02*
X5879640Y-9733000D01*
X5839000Y-10454360D02*
X5839000Y-10535640D01*
X5798360Y-10495000D02*
X5879640Y-10495000D01*
X5839000Y-10962360D02*
X5839000Y-11043640D01*
X5798360Y-11003000D02*
X5879640Y-11003000D01*
X6093000Y-1945360D02*
X6093000Y-2026640D01*
X6052360Y-1986000D02*
X6133640Y-1986000D01*
X6093000Y-2707360D02*
X6093000Y-2788640D01*
X6052360Y-2748000D02*
X6133640Y-2748000D01*
X6093000Y-3342360D02*
X6093000Y-3423640D01*
X6052360Y-3383000D02*
X6133640Y-3383000D01*
X6093000Y-4104360D02*
X6093000Y-4185640D01*
X6052360Y-4145000D02*
X6133640Y-4145000D01*
X6093000Y-4739360D02*
X6093000Y-4820640D01*
X6052360Y-4780000D02*
X6133640Y-4780000D01*
X6093000Y-5501360D02*
X6093000Y-5582640D01*
X6052360Y-5542000D02*
X6133640Y-5542000D01*
X6093000Y-6136360D02*
X6093000Y-6217640D01*
X6052360Y-6177000D02*
X6133640Y-6177000D01*
X6093000Y-6898360D02*
X6093000Y-6979640D01*
X6052360Y-6939000D02*
X6133640Y-6939000D01*
X6093000Y-7533360D02*
X6093000Y-7614640D01*
X6052360Y-7574000D02*
X6133640Y-7574000D01*
X6093000Y-8295360D02*
X6093000Y-8376640D01*
X6052360Y-8336000D02*
X6133640Y-8336000D01*
X6093000Y-8930360D02*
X6093000Y-9011640D01*
X6052360Y-8971000D02*
X6133640Y-8971000D01*
X6093000Y-9692360D02*
X6093000Y-9773640D01*
X6052360Y-9733000D02*
X6133640Y-9733000D01*
X6093000Y-10454360D02*
X6093000Y-10535640D01*
X6052360Y-10495000D02*
X6133640Y-10495000D01*
X6093000Y-10962360D02*
X6093000Y-11043640D01*
X6052360Y-11003000D02*
X6133640Y-11003000D01*
X6347000Y-1945360D02*
X6347000Y-2026640D01*
X6306360Y-1986000D02*
X6387640Y-1986000D01*
X6347000Y-2707360D02*
X6347000Y-2788640D01*
X6306360Y-2748000D02*
X6387640Y-2748000D01*
X6347000Y-3342360D02*
X6347000Y-3423640D01*
X6306360Y-3383000D02*
X6387640Y-3383000D01*
X6347000Y-4104360D02*
X6347000Y-4185640D01*
X6306360Y-4145000D02*
X6387640Y-4145000D01*
X6347000Y-4739360D02*
X6347000Y-4820640D01*
X6306360Y-4780000D02*
X6387640Y-4780000D01*
X6347000Y-5501360D02*
X6347000Y-5582640D01*
X6306360Y-5542000D02*
X6387640Y-5542000D01*
X6347000Y-6136360D02*
X6347000Y-6217640D01*
X6306360Y-6177000D02*
X6387640Y-6177000D01*
X6347000Y-6898360D02*
X6347000Y-6979640D01*
X6306360Y-6939000D02*
X6387640Y-6939000D01*
X6347000Y-7533360D02*
X6347000Y-7614640D01*
X6306360Y-7574000D02*
X6387640Y-7574000D01*
X6347000Y-8295360D02*
X6347000Y-8376640D01*
X6306360Y-8336000D02*
X6387640Y-8336000D01*
X6347000Y-8930360D02*
X6347000Y-9011640D01*
X6306360Y-8971000D02*
X6387640Y-8971000D01*
X6347000Y-9692360D02*
X6347000Y-9773640D01*
X6306360Y-9733000D02*
X6387640Y-9733000D01*
X6982000Y-2199360D02*
X6982000Y-2280640D01*
X6941360Y-2240000D02*
X7022640Y-2240000D01*
X6982000Y-2453360D02*
X6982000Y-2534640D01*
X6941360Y-2494000D02*
X7022640Y-2494000D01*
X6982000Y-3596360D02*
X6982000Y-3677640D01*
X6941360Y-3637000D02*
X7022640Y-3637000D01*
X6982000Y-3850360D02*
X6982000Y-3931640D01*
X6941360Y-3891000D02*
X7022640Y-3891000D01*
X6982000Y-4993360D02*
X6982000Y-5074640D01*
X6941360Y-5034000D02*
X7022640Y-5034000D01*
X6982000Y-5247360D02*
X6982000Y-5328640D01*
X6941360Y-5288000D02*
X7022640Y-5288000D01*
X6982000Y-6390360D02*
X6982000Y-6471640D01*
X6941360Y-6431000D02*
X7022640Y-6431000D01*
X6982000Y-6644360D02*
X6982000Y-6725640D01*
X6941360Y-6685000D02*
X7022640Y-6685000D01*
X6982000Y-7787360D02*
X6982000Y-7868640D01*
X6941360Y-7828000D02*
X7022640Y-7828000D01*
X6982000Y-8041360D02*
X6982000Y-8122640D01*
X6941360Y-8082000D02*
X7022640Y-8082000D01*
X6982000Y-9184360D02*
X6982000Y-9265640D01*
X6941360Y-9225000D02*
X7022640Y-9225000D01*
X6982000Y-9438360D02*
X6982000Y-9519640D01*
X6941360Y-9479000D02*
X7022640Y-9479000D01*
X6982000Y-10581360D02*
X6982000Y-10662640D01*
X6941360Y-10622000D02*
X7022640Y-10622000D01*
X6982000Y-10835360D02*
X6982000Y-10916640D01*
X6941360Y-10876000D02*
X7022640Y-10876000D01*
X7490000Y-1945360D02*
X7490000Y-2026640D01*
X7449360Y-1986000D02*
X7530640Y-1986000D01*
X7490000Y-2707360D02*
X7490000Y-2788640D01*
X7449360Y-2748000D02*
X7530640Y-2748000D01*
X7490000Y-3342360D02*
X7490000Y-3423640D01*
X7449360Y-3383000D02*
X7530640Y-3383000D01*
X7490000Y-4104360D02*
X7490000Y-4185640D01*
X7449360Y-4145000D02*
X7530640Y-4145000D01*
X7490000Y-4739360D02*
X7490000Y-4820640D01*
X7449360Y-4780000D02*
X7530640Y-4780000D01*
X7490000Y-5501360D02*
X7490000Y-5582640D01*
X7449360Y-5542000D02*
X7530640Y-5542000D01*
X7490000Y-6136360D02*
X7490000Y-6217640D01*
X7449360Y-6177000D02*
X7530640Y-6177000D01*
X7490000Y-6898360D02*
X7490000Y-6979640D01*
X7449360Y-6939000D02*
X7530640Y-6939000D01*
X7490000Y-7533360D02*
X7490000Y-7614640D01*
X7449360Y-7574000D02*
X7530640Y-7574000D01*
X7490000Y-8295360D02*
X7490000Y-8376640D01*
X7449360Y-8336000D02*
X7530640Y-8336000D01*
X7490000Y-8930360D02*
X7490000Y-9011640D01*
X7449360Y-8971000D02*
X7530640Y-8971000D01*
X7490000Y-9692360D02*
X7490000Y-9773640D01*
X7449360Y-9733000D02*
X7530640Y-9733000D01*
X7490000Y-10327360D02*
X7490000Y-10408640D01*
X7449360Y-10368000D02*
X7530640Y-10368000D01*
X7490000Y-11089360D02*
X7490000Y-11170640D01*
X7449360Y-11130000D02*
X7530640Y-11130000D01*
X7744000Y-1945360D02*
X7744000Y-2026640D01*
X7703360Y-1986000D02*
X7784640Y-1986000D01*
X7744000Y-2707360D02*
X7744000Y-2788640D01*
X7703360Y-2748000D02*
X7784640Y-2748000D01*
X7744000Y-3342360D02*
X7744000Y-3423640D01*
X7703360Y-3383000D02*
X7784640Y-3383000D01*
X7744000Y-4104360D02*
X7744000Y-4185640D01*
X7703360Y-4145000D02*
X7784640Y-4145000D01*
X7744000Y-4739360D02*
X7744000Y-4820640D01*
X7703360Y-4780000D02*
X7784640Y-4780000D01*
X7744000Y-5501360D02*
X7744000Y-5582640D01*
X7703360Y-5542000D02*
X7784640Y-5542000D01*
X7744000Y-6136360D02*
X7744000Y-6217640D01*
X7703360Y-6177000D02*
X7784640Y-6177000D01*
X7744000Y-6898360D02*
X7744000Y-6979640D01*
X7703360Y-6939000D02*
X7784640Y-6939000D01*
X7744000Y-7533360D02*
X7744000Y-7614640D01*
X7703360Y-7574000D02*
X7784640Y-7574000D01*
X7744000Y-8295360D02*
X7744000Y-8376640D01*
X7703360Y-8336000D02*
X7784640Y-8336000D01*
X7744000Y-8930360D02*
X7744000Y-9011640D01*
X7703360Y-8971000D02*
X7784640Y-8971000D01*
X7744000Y-9692360D02*
X7744000Y-9773640D01*
X7703360Y-9733000D02*
X7784640Y-9733000D01*
X7744000Y-10327360D02*
X7744000Y-10408640D01*
X7703360Y-10368000D02*
X7784640Y-10368000D01*
X7744000Y-11089360D02*
X7744000Y-11170640D01*
X7703360Y-11130000D02*
X7784640Y-11130000D01*
X7998000Y-1945360D02*
X7998000Y-2026640D01*
X7957360Y-1986000D02*
X8038640Y-1986000D01*
X7998000Y-2707360D02*
X7998000Y-2788640D01*
X7957360Y-2748000D02*
X8038640Y-2748000D01*
X7998000Y-3342360D02*
X7998000Y-3423640D01*
X7957360Y-3383000D02*
X8038640Y-3383000D01*
X7998000Y-4104360D02*
X7998000Y-4185640D01*
X7957360Y-4145000D02*
X8038640Y-4145000D01*
X7998000Y-4739360D02*
X7998000Y-4820640D01*
X7957360Y-4780000D02*
X8038640Y-4780000D01*
X7998000Y-5501360D02*
X7998000Y-5582640D01*
X7957360Y-5542000D02*
X8038640Y-5542000D01*
X7998000Y-6136360D02*
X7998000Y-6217640D01*
X7957360Y-6177000D02*
X8038640Y-6177000D01*
X7998000Y-6898360D02*
X7998000Y-6979640D01*
X7957360Y-6939000D02*
X8038640Y-6939000D01*
X7998000Y-7533360D02*
X7998000Y-7614640D01*
X7957360Y-7574000D02*
X8038640Y-7574000D01*
X7998000Y-8295360D02*
X7998000Y-8376640D01*
X7957360Y-8336000D02*
X8038640Y-8336000D01*
X7998000Y-8930360D02*
X7998000Y-9011640D01*
X7957360Y-8971000D02*
X8038640Y-8971000D01*
X7998000Y-9692360D02*
X7998000Y-9773640D01*
X7957360Y-9733000D02*
X8038640Y-9733000D01*
X7998000Y-10327360D02*
X7998000Y-10408640D01*
X7957360Y-10368000D02*
X8038640Y-10368000D01*
X7998000Y-11089360D02*
X7998000Y-11170640D01*
X7957360Y-11130000D02*
X8038640Y-11130000D01*
X8252000Y-1945360D02*
X8252000Y-2026640D01*
X8211360Y-1986000D02*
X8292640Y-1986000D01*
X8252000Y-2707360D02*
X8252000Y-2788640D01*
X8211360Y-2748000D02*
X8292640Y-2748000D01*
X8252000Y-3342360D02*
X8252000Y-3423640D01*
X8211360Y-3383000D02*
X8292640Y-3383000D01*
X8252000Y-4104360D02*
X8252000Y-4185640D01*
X8211360Y-4145000D02*
X8292640Y-4145000D01*
X8252000Y-4739360D02*
X8252000Y-4820640D01*
X8211360Y-4780000D02*
X8292640Y-4780000D01*
X8252000Y-5501360D02*
X8252000Y-5582640D01*
X8211360Y-5542000D02*
X8292640Y-5542000D01*
X8252000Y-6136360D02*
X8252000Y-6217640D01*
X8211360Y-6177000D02*
X8292640Y-6177000D01*
X8252000Y-6898360D02*
X8252000Y-6979640D01*
X8211360Y-6939000D02*
X8292640Y-6939000D01*
X8252000Y-7533360D02*
X8252000Y-7614640D01*
X8211360Y-7574000D02*
X8292640Y-7574000D01*
X8252000Y-8295360D02*
X8252000Y-8376640D01*
X8211360Y-8336000D02*
X8292640Y-8336000D01*
X8252000Y-8930360D02*
X8252000Y-9011640D01*
X8211360Y-8971000D02*
X8292640Y-8971000D01*
X8252000Y-9692360D02*
X8252000Y-9773640D01*
X8211360Y-9733000D02*
X8292640Y-9733000D01*
X8252000Y-10327360D02*
X8252000Y-10408640D01*
X8211360Y-10368000D02*
X8292640Y-10368000D01*
X8252000Y-11089360D02*
X8252000Y-11170640D01*
X8211360Y-11130000D02*
X8292640Y-11130000D01*
X8506000Y-1945360D02*
X8506000Y-2026640D01*
X8465360Y-1986000D02*
X8546640Y-1986000D01*
X8506000Y-2707360D02*
X8506000Y-2788640D01*
X8465360Y-2748000D02*
X8546640Y-2748000D01*
X8506000Y-3342360D02*
X8506000Y-3423640D01*
X8465360Y-3383000D02*
X8546640Y-3383000D01*
X8506000Y-4104360D02*
X8506000Y-4185640D01*
X8465360Y-4145000D02*
X8546640Y-4145000D01*
X8506000Y-4739360D02*
X8506000Y-4820640D01*
X8465360Y-4780000D02*
X8546640Y-4780000D01*
X8506000Y-5501360D02*
X8506000Y-5582640D01*
X8465360Y-5542000D02*
X8546640Y-5542000D01*
X8506000Y-6136360D02*
X8506000Y-6217640D01*
X8465360Y-6177000D02*
X8546640Y-6177000D01*
X8506000Y-6898360D02*
X8506000Y-6979640D01*
X8465360Y-6939000D02*
X8546640Y-6939000D01*
X8506000Y-7533360D02*
X8506000Y-7614640D01*
X8465360Y-7574000D02*
X8546640Y-7574000D01*
X8506000Y-8295360D02*
X8506000Y-8376640D01*
X8465360Y-8336000D02*
X8546640Y-8336000D01*
X8506000Y-8930360D02*
X8506000Y-9011640D01*
X8465360Y-8971000D02*
X8546640Y-8971000D01*
X8506000Y-9692360D02*
X8506000Y-9773640D01*
X8465360Y-9733000D02*
X8546640Y-9733000D01*
X8506000Y-10327360D02*
X8506000Y-10408640D01*
X8465360Y-10368000D02*
X8546640Y-10368000D01*
X8506000Y-11089360D02*
X8506000Y-11170640D01*
X8465360Y-11130000D02*
X8546640Y-11130000D01*
X8760000Y-1945360D02*
X8760000Y-2026640D01*
X8719360Y-1986000D02*
X8800640Y-1986000D01*
X8760000Y-2707360D02*
X8760000Y-2788640D01*
X8719360Y-2748000D02*
X8800640Y-2748000D01*
X8760000Y-3342360D02*
X8760000Y-3423640D01*
X8719360Y-3383000D02*
X8800640Y-3383000D01*
X8760000Y-4104360D02*
X8760000Y-4185640D01*
X8719360Y-4145000D02*
X8800640Y-4145000D01*
X8760000Y-4739360D02*
X8760000Y-4820640D01*
X8719360Y-4780000D02*
X8800640Y-4780000D01*
X8760000Y-5501360D02*
X8760000Y-5582640D01*
X8719360Y-5542000D02*
X8800640Y-5542000D01*
X8760000Y-6136360D02*
X8760000Y-6217640D01*
X8719360Y-6177000D02*
X8800640Y-6177000D01*
X8760000Y-6898360D02*
X8760000Y-6979640D01*
X8719360Y-6939000D02*
X8800640Y-6939000D01*
X8760000Y-7533360D02*
X8760000Y-7614640D01*
X8719360Y-7574000D02*
X8800640Y-7574000D01*
X8760000Y-8295360D02*
X8760000Y-8376640D01*
X8719360Y-8336000D02*
X8800640Y-8336000D01*
X8760000Y-8930360D02*
X8760000Y-9011640D01*
X8719360Y-8971000D02*
X8800640Y-8971000D01*
X8760000Y-9692360D02*
X8760000Y-9773640D01*
X8719360Y-9733000D02*
X8800640Y-9733000D01*
X8760000Y-10327360D02*
X8760000Y-10408640D01*
X8719360Y-10368000D02*
X8800640Y-10368000D01*
X8760000Y-11089360D02*
X8760000Y-11170640D01*
X8719360Y-11130000D02*
X8800640Y-11130000D01*
X9014000Y-1945360D02*
X9014000Y-2026640D01*
X8973360Y-1986000D02*
X9054640Y-1986000D01*
X9014000Y-2707360D02*
X9014000Y-2788640D01*
X8973360Y-2748000D02*
X9054640Y-2748000D01*
X9014000Y-3342360D02*
X9014000Y-3423640D01*
X8973360Y-3383000D02*
X9054640Y-3383000D01*
X9014000Y-4104360D02*
X9014000Y-4185640D01*
X8973360Y-4145000D02*
X9054640Y-4145000D01*
X9014000Y-4739360D02*
X9014000Y-4820640D01*
X8973360Y-4780000D02*
X9054640Y-4780000D01*
X9014000Y-5501360D02*
X9014000Y-5582640D01*
X8973360Y-5542000D02*
X9054640Y-5542000D01*
X9014000Y-6136360D02*
X9014000Y-6217640D01*
X8973360Y-6177000D02*
X9054640Y-6177000D01*
X9014000Y-6898360D02*
X9014000Y-6979640D01*
X8973360Y-6939000D02*
X9054640Y-6939000D01*
X9014000Y-7533360D02*
X9014000Y-7614640D01*
X8973360Y-7574000D02*
X9054640Y-7574000D01*
X9014000Y-8295360D02*
X9014000Y-8376640D01*
X8973360Y-8336000D02*
X9054640Y-8336000D01*
X9014000Y-8930360D02*
X9014000Y-9011640D01*
X8973360Y-8971000D02*
X9054640Y-8971000D01*
X9014000Y-9692360D02*
X9014000Y-9773640D01*
X8973360Y-9733000D02*
X9054640Y-9733000D01*
X9014000Y-10327360D02*
X9014000Y-10408640D01*
X8973360Y-10368000D02*
X9054640Y-10368000D01*
X9014000Y-11089360D02*
X9014000Y-11170640D01*
X8973360Y-11130000D02*
X9054640Y-11130000D01*
X9268000Y-6136360D02*
X9268000Y-6217640D01*
X9227360Y-6177000D02*
X9308640Y-6177000D01*
X9268000Y-6898360D02*
X9268000Y-6979640D01*
X9227360Y-6939000D02*
X9308640Y-6939000D01*
X9268000Y-8930360D02*
X9268000Y-9011640D01*
X9227360Y-8971000D02*
X9308640Y-8971000D01*
X9268000Y-9692360D02*
X9268000Y-9773640D01*
X9227360Y-9733000D02*
X9308640Y-9733000D01*
X9522000Y-8930360D02*
X9522000Y-9011640D01*
X9481360Y-8971000D02*
X9562640Y-8971000D01*
X9522000Y-9692360D02*
X9522000Y-9773640D01*
X9481360Y-9733000D02*
X9562640Y-9733000D01*
X9776000Y-5628360D02*
X9776000Y-5709640D01*
X9735360Y-5669000D02*
X9816640Y-5669000D01*
X9776000Y-5882360D02*
X9776000Y-5963640D01*
X9735360Y-5923000D02*
X9816640Y-5923000D01*
X9776000Y-6263360D02*
X9776000Y-6344640D01*
X9735360Y-6304000D02*
X9816640Y-6304000D01*
X9776000Y-6517360D02*
X9776000Y-6598640D01*
X9735360Y-6558000D02*
X9816640Y-6558000D01*
X9776000Y-8168360D02*
X9776000Y-8249640D01*
X9735360Y-8209000D02*
X9816640Y-8209000D01*
X9776000Y-8422360D02*
X9776000Y-8503640D01*
X9735360Y-8463000D02*
X9816640Y-8463000D01*
X9776000Y-8930360D02*
X9776000Y-9011640D01*
X9735360Y-8971000D02*
X9816640Y-8971000D01*
X9776000Y-9692360D02*
X9776000Y-9773640D01*
X9735360Y-9733000D02*
X9816640Y-9733000D01*
X9776000Y-10200360D02*
X9776000Y-10281640D01*
X9735360Y-10241000D02*
X9816640Y-10241000D01*
X9776000Y-10454360D02*
X9776000Y-10535640D01*
X9735360Y-10495000D02*
X9816640Y-10495000D01*
X10030000Y-1310360D02*
X10030000Y-1391640D01*
X9989360Y-1351000D02*
X10070640Y-1351000D01*
X10030000Y-2961360D02*
X10030000Y-3042640D01*
X9989360Y-3002000D02*
X10070640Y-3002000D01*
X10284000Y-1310360D02*
X10284000Y-1391640D01*
X10243360Y-1351000D02*
X10324640Y-1351000D01*
X10284000Y-2961360D02*
X10284000Y-3042640D01*
X10243360Y-3002000D02*
X10324640Y-3002000D01*
X10284000Y-3469360D02*
X10284000Y-3550640D01*
X10243360Y-3510000D02*
X10324640Y-3510000D01*
X10284000Y-4993360D02*
X10284000Y-5074640D01*
X10243360Y-5034000D02*
X10324640Y-5034000D01*
X10284000Y-5628360D02*
X10284000Y-5709640D01*
X10243360Y-5669000D02*
X10324640Y-5669000D01*
X10284000Y-7152360D02*
X10284000Y-7233640D01*
X10243360Y-7193000D02*
X10324640Y-7193000D01*
X10284000Y-7787360D02*
X10284000Y-7868640D01*
X10243360Y-7828000D02*
X10324640Y-7828000D01*
X10284000Y-9311360D02*
X10284000Y-9392640D01*
X10243360Y-9352000D02*
X10324640Y-9352000D01*
X10284000Y-9946360D02*
X10284000Y-10027640D01*
X10243360Y-9987000D02*
X10324640Y-9987000D01*
X10284000Y-10708360D02*
X10284000Y-10789640D01*
X10243360Y-10749000D02*
X10324640Y-10749000D01*
X10538000Y-1310360D02*
X10538000Y-1391640D01*
X10497360Y-1351000D02*
X10578640Y-1351000D01*
X10538000Y-2961360D02*
X10538000Y-3042640D01*
X10497360Y-3002000D02*
X10578640Y-3002000D01*
X10538000Y-3469360D02*
X10538000Y-3550640D01*
X10497360Y-3510000D02*
X10578640Y-3510000D01*
X10538000Y-4993360D02*
X10538000Y-5074640D01*
X10497360Y-5034000D02*
X10578640Y-5034000D01*
X10538000Y-5628360D02*
X10538000Y-5709640D01*
X10497360Y-5669000D02*
X10578640Y-5669000D01*
X10538000Y-7152360D02*
X10538000Y-7233640D01*
X10497360Y-7193000D02*
X10578640Y-7193000D01*
X10538000Y-7787360D02*
X10538000Y-7868640D01*
X10497360Y-7828000D02*
X10578640Y-7828000D01*
X10538000Y-9311360D02*
X10538000Y-9392640D01*
X10497360Y-9352000D02*
X10578640Y-9352000D01*
X10538000Y-9946360D02*
X10538000Y-10027640D01*
X10497360Y-9987000D02*
X10578640Y-9987000D01*
X10538000Y-10708360D02*
X10538000Y-10789640D01*
X10497360Y-10749000D02*
X10578640Y-10749000D01*
X10792000Y-1310360D02*
X10792000Y-1391640D01*
X10751360Y-1351000D02*
X10832640Y-1351000D01*
X10792000Y-2961360D02*
X10792000Y-3042640D01*
X10751360Y-3002000D02*
X10832640Y-3002000D01*
X10792000Y-3469360D02*
X10792000Y-3550640D01*
X10751360Y-3510000D02*
X10832640Y-3510000D01*
X10792000Y-4993360D02*
X10792000Y-5074640D01*
X10751360Y-5034000D02*
X10832640Y-5034000D01*
X10792000Y-5628360D02*
X10792000Y-5709640D01*
X10751360Y-5669000D02*
X10832640Y-5669000D01*
X10792000Y-7152360D02*
X10792000Y-7233640D01*
X10751360Y-7193000D02*
X10832640Y-7193000D01*
X10792000Y-7787360D02*
X10792000Y-7868640D01*
X10751360Y-7828000D02*
X10832640Y-7828000D01*
X10792000Y-9311360D02*
X10792000Y-9392640D01*
X10751360Y-9352000D02*
X10832640Y-9352000D01*
X10792000Y-9946360D02*
X10792000Y-10027640D01*
X10751360Y-9987000D02*
X10832640Y-9987000D01*
X10792000Y-10708360D02*
X10792000Y-10789640D01*
X10751360Y-10749000D02*
X10832640Y-10749000D01*
X11046000Y-1310360D02*
X11046000Y-1391640D01*
X11005360Y-1351000D02*
X11086640Y-1351000D01*
X11046000Y-2961360D02*
X11046000Y-3042640D01*
X11005360Y-3002000D02*
X11086640Y-3002000D01*
X11046000Y-3469360D02*
X11046000Y-3550640D01*
X11005360Y-3510000D02*
X11086640Y-3510000D01*
X11046000Y-4993360D02*
X11046000Y-5074640D01*
X11005360Y-5034000D02*
X11086640Y-5034000D01*
X11046000Y-5628360D02*
X11046000Y-5709640D01*
X11005360Y-5669000D02*
X11086640Y-5669000D01*
X11046000Y-7152360D02*
X11046000Y-7233640D01*
X11005360Y-7193000D02*
X11086640Y-7193000D01*
X11046000Y-7787360D02*
X11046000Y-7868640D01*
X11005360Y-7828000D02*
X11086640Y-7828000D01*
X11046000Y-9311360D02*
X11046000Y-9392640D01*
X11005360Y-9352000D02*
X11086640Y-9352000D01*
X11046000Y-9946360D02*
X11046000Y-10027640D01*
X11005360Y-9987000D02*
X11086640Y-9987000D01*
X11046000Y-10708360D02*
X11046000Y-10789640D01*
X11005360Y-10749000D02*
X11086640Y-10749000D01*
X11300000Y-1310360D02*
X11300000Y-1391640D01*
X11259360Y-1351000D02*
X11340640Y-1351000D01*
X11300000Y-2961360D02*
X11300000Y-3042640D01*
X11259360Y-3002000D02*
X11340640Y-3002000D01*
X11300000Y-3469360D02*
X11300000Y-3550640D01*
X11259360Y-3510000D02*
X11340640Y-3510000D01*
X11300000Y-4993360D02*
X11300000Y-5074640D01*
X11259360Y-5034000D02*
X11340640Y-5034000D01*
X11300000Y-5628360D02*
X11300000Y-5709640D01*
X11259360Y-5669000D02*
X11340640Y-5669000D01*
X11300000Y-7152360D02*
X11300000Y-7233640D01*
X11259360Y-7193000D02*
X11340640Y-7193000D01*
X11300000Y-7787360D02*
X11300000Y-7868640D01*
X11259360Y-7828000D02*
X11340640Y-7828000D01*
X11300000Y-9311360D02*
X11300000Y-9392640D01*
X11259360Y-9352000D02*
X11340640Y-9352000D01*
X11300000Y-9946360D02*
X11300000Y-10027640D01*
X11259360Y-9987000D02*
X11340640Y-9987000D01*
X11300000Y-10708360D02*
X11300000Y-10789640D01*
X11259360Y-10749000D02*
X11340640Y-10749000D01*
X11554000Y-1310360D02*
X11554000Y-1391640D01*
X11513360Y-1351000D02*
X11594640Y-1351000D01*
X11554000Y-2961360D02*
X11554000Y-3042640D01*
X11513360Y-3002000D02*
X11594640Y-3002000D01*
X11554000Y-3469360D02*
X11554000Y-3550640D01*
X11513360Y-3510000D02*
X11594640Y-3510000D01*
X11554000Y-4993360D02*
X11554000Y-5074640D01*
X11513360Y-5034000D02*
X11594640Y-5034000D01*
X11554000Y-5628360D02*
X11554000Y-5709640D01*
X11513360Y-5669000D02*
X11594640Y-5669000D01*
X11554000Y-7152360D02*
X11554000Y-7233640D01*
X11513360Y-7193000D02*
X11594640Y-7193000D01*
X11554000Y-7787360D02*
X11554000Y-7868640D01*
X11513360Y-7828000D02*
X11594640Y-7828000D01*
X11554000Y-9311360D02*
X11554000Y-9392640D01*
X11513360Y-9352000D02*
X11594640Y-9352000D01*
X11554000Y-9946360D02*
X11554000Y-10027640D01*
X11513360Y-9987000D02*
X11594640Y-9987000D01*
X11554000Y-10708360D02*
X11554000Y-10789640D01*
X11513360Y-10749000D02*
X11594640Y-10749000D01*
X11808000Y-1310360D02*
X11808000Y-1391640D01*
X11767360Y-1351000D02*
X11848640Y-1351000D01*
X11808000Y-2961360D02*
X11808000Y-3042640D01*
X11767360Y-3002000D02*
X11848640Y-3002000D01*
X11808000Y-3469360D02*
X11808000Y-3550640D01*
X11767360Y-3510000D02*
X11848640Y-3510000D01*
X11808000Y-4993360D02*
X11808000Y-5074640D01*
X11767360Y-5034000D02*
X11848640Y-5034000D01*
X11808000Y-5628360D02*
X11808000Y-5709640D01*
X11767360Y-5669000D02*
X11848640Y-5669000D01*
X11808000Y-7152360D02*
X11808000Y-7233640D01*
X11767360Y-7193000D02*
X11848640Y-7193000D01*
X11808000Y-7787360D02*
X11808000Y-7868640D01*
X11767360Y-7828000D02*
X11848640Y-7828000D01*
X11808000Y-9311360D02*
X11808000Y-9392640D01*
X11767360Y-9352000D02*
X11848640Y-9352000D01*
X11808000Y-9946360D02*
X11808000Y-10027640D01*
X11767360Y-9987000D02*
X11848640Y-9987000D01*
X11808000Y-10708360D02*
X11808000Y-10789640D01*
X11767360Y-10749000D02*
X11848640Y-10749000D01*
X12062000Y-1310360D02*
X12062000Y-1391640D01*
X12021360Y-1351000D02*
X12102640Y-1351000D01*
X12062000Y-2961360D02*
X12062000Y-3042640D01*
X12021360Y-3002000D02*
X12102640Y-3002000D01*
X12062000Y-3469360D02*
X12062000Y-3550640D01*
X12021360Y-3510000D02*
X12102640Y-3510000D01*
X12062000Y-4993360D02*
X12062000Y-5074640D01*
X12021360Y-5034000D02*
X12102640Y-5034000D01*
X12062000Y-5628360D02*
X12062000Y-5709640D01*
X12021360Y-5669000D02*
X12102640Y-5669000D01*
X12062000Y-7152360D02*
X12062000Y-7233640D01*
X12021360Y-7193000D02*
X12102640Y-7193000D01*
X12062000Y-7787360D02*
X12062000Y-7868640D01*
X12021360Y-7828000D02*
X12102640Y-7828000D01*
X12062000Y-9311360D02*
X12062000Y-9392640D01*
X12021360Y-9352000D02*
X12102640Y-9352000D01*
X12316000Y-3469360D02*
X12316000Y-3550640D01*
X12275360Y-3510000D02*
X12356640Y-3510000D01*
X12316000Y-4993360D02*
X12316000Y-5074640D01*
X12275360Y-5034000D02*
X12356640Y-5034000D01*
X12316000Y-5628360D02*
X12316000Y-5709640D01*
X12275360Y-5669000D02*
X12356640Y-5669000D01*
X12316000Y-7152360D02*
X12316000Y-7233640D01*
X12275360Y-7193000D02*
X12356640Y-7193000D01*
X12316000Y-7787360D02*
X12316000Y-7868640D01*
X12275360Y-7828000D02*
X12356640Y-7828000D01*
X12316000Y-9311360D02*
X12316000Y-9392640D01*
X12275360Y-9352000D02*
X12356640Y-9352000D01*
X12570000Y-1691360D02*
X12570000Y-1772640D01*
X12529360Y-1732000D02*
X12610640Y-1732000D01*
X12570000Y-1945360D02*
X12570000Y-2026640D01*
X12529360Y-1986000D02*
X12610640Y-1986000D01*
X12570000Y-3469360D02*
X12570000Y-3550640D01*
X12529360Y-3510000D02*
X12610640Y-3510000D01*
X12570000Y-4993360D02*
X12570000Y-5074640D01*
X12529360Y-5034000D02*
X12610640Y-5034000D01*
X12570000Y-5628360D02*
X12570000Y-5709640D01*
X12529360Y-5669000D02*
X12610640Y-5669000D01*
X12570000Y-7152360D02*
X12570000Y-7233640D01*
X12529360Y-7193000D02*
X12610640Y-7193000D01*
X12570000Y-7787360D02*
X12570000Y-7868640D01*
X12529360Y-7828000D02*
X12610640Y-7828000D01*
X12570000Y-9311360D02*
X12570000Y-9392640D01*
X12529360Y-9352000D02*
X12610640Y-9352000D01*
X12824000Y-3469360D02*
X12824000Y-3550640D01*
X12783360Y-3510000D02*
X12864640Y-3510000D01*
X12824000Y-4993360D02*
X12824000Y-5074640D01*
X12783360Y-5034000D02*
X12864640Y-5034000D01*
X12824000Y-5628360D02*
X12824000Y-5709640D01*
X12783360Y-5669000D02*
X12864640Y-5669000D01*
X12824000Y-7152360D02*
X12824000Y-7233640D01*
X12783360Y-7193000D02*
X12864640Y-7193000D01*
X12824000Y-7787360D02*
X12824000Y-7868640D01*
X12783360Y-7828000D02*
X12864640Y-7828000D01*
X12824000Y-9311360D02*
X12824000Y-9392640D01*
X12783360Y-9352000D02*
X12864640Y-9352000D01*
X12951000Y-1437360D02*
X12951000Y-1518640D01*
X12910360Y-1478000D02*
X12991640Y-1478000D01*
X12951000Y-2199360D02*
X12951000Y-2280640D01*
X12910360Y-2240000D02*
X12991640Y-2240000D01*
X13078000Y-3469360D02*
X13078000Y-3550640D01*
X13037360Y-3510000D02*
X13118640Y-3510000D01*
X13078000Y-4993360D02*
X13078000Y-5074640D01*
X13037360Y-5034000D02*
X13118640Y-5034000D01*
X13078000Y-5628360D02*
X13078000Y-5709640D01*
X13037360Y-5669000D02*
X13118640Y-5669000D01*
X13078000Y-7152360D02*
X13078000Y-7233640D01*
X13037360Y-7193000D02*
X13118640Y-7193000D01*
X13078000Y-7787360D02*
X13078000Y-7868640D01*
X13037360Y-7828000D02*
X13118640Y-7828000D01*
X13078000Y-9311360D02*
X13078000Y-9392640D01*
X13037360Y-9352000D02*
X13118640Y-9352000D01*
X13205000Y-1437360D02*
X13205000Y-1518640D01*
X13164360Y-1478000D02*
X13245640Y-1478000D01*
X13205000Y-2199360D02*
X13205000Y-2280640D01*
X13164360Y-2240000D02*
X13245640Y-2240000D01*
X13332000Y-3469360D02*
X13332000Y-3550640D01*
X13291360Y-3510000D02*
X13372640Y-3510000D01*
X13332000Y-4993360D02*
X13332000Y-5074640D01*
X13291360Y-5034000D02*
X13372640Y-5034000D01*
X13332000Y-5628360D02*
X13332000Y-5709640D01*
X13291360Y-5669000D02*
X13372640Y-5669000D01*
X13332000Y-7152360D02*
X13332000Y-7233640D01*
X13291360Y-7193000D02*
X13372640Y-7193000D01*
X13332000Y-7787360D02*
X13332000Y-7868640D01*
X13291360Y-7828000D02*
X13372640Y-7828000D01*
X13332000Y-9311360D02*
X13332000Y-9392640D01*
X13291360Y-9352000D02*
X13372640Y-9352000D01*
X13459000Y-1437360D02*
X13459000Y-1518640D01*
X13418360Y-1478000D02*
X13499640Y-1478000D01*
X13459000Y-2199360D02*
X13459000Y-2280640D01*
X13418360Y-2240000D02*
X13499640Y-2240000D01*
X13586000Y-3469360D02*
X13586000Y-3550640D01*
X13545360Y-3510000D02*
X13626640Y-3510000D01*
X13586000Y-4993360D02*
X13586000Y-5074640D01*
X13545360Y-5034000D02*
X13626640Y-5034000D01*
X13586000Y-5628360D02*
X13586000Y-5709640D01*
X13545360Y-5669000D02*
X13626640Y-5669000D01*
X13586000Y-7152360D02*
X13586000Y-7233640D01*
X13545360Y-7193000D02*
X13626640Y-7193000D01*
X13586000Y-7787360D02*
X13586000Y-7868640D01*
X13545360Y-7828000D02*
X13626640Y-7828000D01*
X13586000Y-9311360D02*
X13586000Y-9392640D01*
X13545360Y-9352000D02*
X13626640Y-9352000D01*
X13713000Y-1437360D02*
X13713000Y-1518640D01*
X13672360Y-1478000D02*
X13753640Y-1478000D01*
X13713000Y-2199360D02*
X13713000Y-2280640D01*
X13672360Y-2240000D02*
X13753640Y-2240000D01*
X13967000Y-1437360D02*
X13967000Y-1518640D01*
X13926360Y-1478000D02*
X14007640Y-1478000D01*
X13967000Y-2199360D02*
X13967000Y-2280640D01*
X13926360Y-2240000D02*
X14007640Y-2240000D01*
X14221000Y-1437360D02*
X14221000Y-1518640D01*
X14180360Y-1478000D02*
X14261640Y-1478000D01*
X14221000Y-2199360D02*
X14221000Y-2280640D01*
X14180360Y-2240000D02*
X14261640Y-2240000D01*
X14475000Y-1437360D02*
X14475000Y-1518640D01*
X14434360Y-1478000D02*
X14515640Y-1478000D01*
X14475000Y-2199360D02*
X14475000Y-2280640D01*
X14434360Y-2240000D02*
X14515640Y-2240000D01*
X15364000Y-12105360D02*
X15364000Y-12186640D01*
X15323360Y-12146000D02*
X15404640Y-12146000D01*
X15745000Y-1564360D02*
X15745000Y-1645640D01*
X15704360Y-1605000D02*
X15785640Y-1605000D01*
X15745000Y-1818360D02*
X15745000Y-1899640D01*
X15704360Y-1859000D02*
X15785640Y-1859000D01*
X15745000Y-2961360D02*
X15745000Y-3042640D01*
X15704360Y-3002000D02*
X15785640Y-3002000D01*
X15745000Y-3215360D02*
X15745000Y-3296640D01*
X15704360Y-3256000D02*
X15785640Y-3256000D01*
X16253000Y-1310360D02*
X16253000Y-1391640D01*
X16212360Y-1351000D02*
X16293640Y-1351000D01*
X16253000Y-2072360D02*
X16253000Y-2153640D01*
X16212360Y-2113000D02*
X16293640Y-2113000D01*
X16253000Y-2707360D02*
X16253000Y-2788640D01*
X16212360Y-2748000D02*
X16293640Y-2748000D01*
X16253000Y-3469360D02*
X16253000Y-3550640D01*
X16212360Y-3510000D02*
X16293640Y-3510000D01*
X16380000Y-12105360D02*
X16380000Y-12186640D01*
X16339360Y-12146000D02*
X16420640Y-12146000D01*
X16507000Y-1310360D02*
X16507000Y-1391640D01*
X16466360Y-1351000D02*
X16547640Y-1351000D01*
X16507000Y-2072360D02*
X16507000Y-2153640D01*
X16466360Y-2113000D02*
X16547640Y-2113000D01*
X16507000Y-2707360D02*
X16507000Y-2788640D01*
X16466360Y-2748000D02*
X16547640Y-2748000D01*
X16507000Y-3469360D02*
X16507000Y-3550640D01*
X16466360Y-3510000D02*
X16547640Y-3510000D01*
X16761000Y-1310360D02*
X16761000Y-1391640D01*
X16720360Y-1351000D02*
X16801640Y-1351000D01*
X16761000Y-2072360D02*
X16761000Y-2153640D01*
X16720360Y-2113000D02*
X16801640Y-2113000D01*
X16761000Y-2707360D02*
X16761000Y-2788640D01*
X16720360Y-2748000D02*
X16801640Y-2748000D01*
X16761000Y-3469360D02*
X16761000Y-3550640D01*
X16720360Y-3510000D02*
X16801640Y-3510000D01*
X17015000Y-1310360D02*
X17015000Y-1391640D01*
X16974360Y-1351000D02*
X17055640Y-1351000D01*
X17015000Y-2072360D02*
X17015000Y-2153640D01*
X16974360Y-2113000D02*
X17055640Y-2113000D01*
X17015000Y-2707360D02*
X17015000Y-2788640D01*
X16974360Y-2748000D02*
X17055640Y-2748000D01*
X17015000Y-3469360D02*
X17015000Y-3550640D01*
X16974360Y-3510000D02*
X17055640Y-3510000D01*
X17269000Y-1310360D02*
X17269000Y-1391640D01*
X17228360Y-1351000D02*
X17309640Y-1351000D01*
X17269000Y-2072360D02*
X17269000Y-2153640D01*
X17228360Y-2113000D02*
X17309640Y-2113000D01*
X17269000Y-2707360D02*
X17269000Y-2788640D01*
X17228360Y-2748000D02*
X17309640Y-2748000D01*
X17269000Y-3469360D02*
X17269000Y-3550640D01*
X17228360Y-3510000D02*
X17309640Y-3510000D01*
X17523000Y-1310360D02*
X17523000Y-1391640D01*
X17482360Y-1351000D02*
X17563640Y-1351000D01*
X17523000Y-2072360D02*
X17523000Y-2153640D01*
X17482360Y-2113000D02*
X17563640Y-2113000D01*
X17523000Y-2707360D02*
X17523000Y-2788640D01*
X17482360Y-2748000D02*
X17563640Y-2748000D01*
X17523000Y-3469360D02*
X17523000Y-3550640D01*
X17482360Y-3510000D02*
X17563640Y-3510000D01*
X17777000Y-1310360D02*
X17777000Y-1391640D01*
X17736360Y-1351000D02*
X17817640Y-1351000D01*
X17777000Y-2072360D02*
X17777000Y-2153640D01*
X17736360Y-2113000D02*
X17817640Y-2113000D01*
X17777000Y-2707360D02*
X17777000Y-2788640D01*
X17736360Y-2748000D02*
X17817640Y-2748000D01*
X17777000Y-3469360D02*
X17777000Y-3550640D01*
X17736360Y-3510000D02*
X17817640Y-3510000D01*
X18031000Y-1310360D02*
X18031000Y-1391640D01*
X17990360Y-1351000D02*
X18071640Y-1351000D01*
X18031000Y-2072360D02*
X18031000Y-2153640D01*
X17990360Y-2113000D02*
X18071640Y-2113000D01*
X19047000Y-11978360D02*
X19047000Y-12059640D01*
X19006360Y-12019000D02*
X19087640Y-12019000D01*
X19301000Y-11978360D02*
X19301000Y-12059640D01*
X19260360Y-12019000D02*
X19341640Y-12019000D01*
X18189820Y-12050820D02*
X18189820Y-11987180D01*
X18126180Y-11987180D01*
X18126180Y-12050820D01*
X18189820Y-12050820D01*
X18443820Y-12050820D02*
X18443820Y-11987180D01*
X18380180Y-11987180D01*
X18380180Y-12050820D01*
X18443820Y-12050820D01*
X14221000Y-6227000D02*
X14271000Y-6177000D01*
X14221000Y-6127000D01*
X14171000Y-6177000D01*
X14221000Y-6227000D01*
X14221000Y-6481000D02*
X14271000Y-6431000D01*
X14221000Y-6381000D01*
X14171000Y-6431000D01*
X14221000Y-6481000D01*
X14221000Y-6735000D02*
X14271000Y-6685000D01*
X14221000Y-6635000D01*
X14171000Y-6685000D01*
X14221000Y-6735000D01*
X14221000Y-6989000D02*
X14271000Y-6939000D01*
X14221000Y-6889000D01*
X14171000Y-6939000D01*
X14221000Y-6989000D01*
X14221000Y-7243000D02*
X14271000Y-7193000D01*
X14221000Y-7143000D01*
X14171000Y-7193000D01*
X14221000Y-7243000D01*
X14221000Y-7497000D02*
X14271000Y-7447000D01*
X14221000Y-7397000D01*
X14171000Y-7447000D01*
X14221000Y-7497000D01*
X14221000Y-7751000D02*
X14271000Y-7701000D01*
X14221000Y-7651000D01*
X14171000Y-7701000D01*
X14221000Y-7751000D01*
X14221000Y-8005000D02*
X14271000Y-7955000D01*
X14221000Y-7905000D01*
X14171000Y-7955000D01*
X14221000Y-8005000D01*
X14221000Y-8259000D02*
X14271000Y-8209000D01*
X14221000Y-8159000D01*
X14171000Y-8209000D01*
X14221000Y-8259000D01*
X14221000Y-8513000D02*
X14271000Y-8463000D01*
X14221000Y-8413000D01*
X14171000Y-8463000D01*
X14221000Y-8513000D01*
X14221000Y-8767000D02*
X14271000Y-8717000D01*
X14221000Y-8667000D01*
X14171000Y-8717000D01*
X14221000Y-8767000D01*
X14221000Y-9021000D02*
X14271000Y-8971000D01*
X14221000Y-8921000D01*
X14171000Y-8971000D01*
X14221000Y-9021000D01*
X14221000Y-9275000D02*
X14271000Y-9225000D01*
X14221000Y-9175000D01*
X14171000Y-9225000D01*
X14221000Y-9275000D01*
X14221000Y-9529000D02*
X14271000Y-9479000D01*
X14221000Y-9429000D01*
X14171000Y-9479000D01*
X14221000Y-9529000D01*
X14221000Y-9783000D02*
X14271000Y-9733000D01*
X14221000Y-9683000D01*
X14171000Y-9733000D01*
X14221000Y-9783000D01*
X14221000Y-10037000D02*
X14271000Y-9987000D01*
X14221000Y-9937000D01*
X14171000Y-9987000D01*
X14221000Y-10037000D01*
X14221000Y-10291000D02*
X14271000Y-10241000D01*
X14221000Y-10191000D01*
X14171000Y-10241000D01*
X14221000Y-10291000D01*
X14221000Y-10545000D02*
X14271000Y-10495000D01*
X14221000Y-10445000D01*
X14171000Y-10495000D01*
X14221000Y-10545000D01*
X14221000Y-10799000D02*
X14271000Y-10749000D01*
X14221000Y-10699000D01*
X14171000Y-10749000D01*
X14221000Y-10799000D01*
X14221000Y-11053000D02*
X14271000Y-11003000D01*
X14221000Y-10953000D01*
X14171000Y-11003000D01*
X14221000Y-11053000D01*
X14221000Y-12069000D02*
X14271000Y-12019000D01*
X14221000Y-11969000D01*
X14171000Y-12019000D01*
X14221000Y-12069000D01*
X14475000Y-6227000D02*
X14525000Y-6177000D01*
X14475000Y-6127000D01*
X14425000Y-6177000D01*
X14475000Y-6227000D01*
X14475000Y-6481000D02*
X14525000Y-6431000D01*
X14475000Y-6381000D01*
X14425000Y-6431000D01*
X14475000Y-6481000D01*
X14475000Y-6735000D02*
X14525000Y-6685000D01*
X14475000Y-6635000D01*
X14425000Y-6685000D01*
X14475000Y-6735000D01*
X14475000Y-6989000D02*
X14525000Y-6939000D01*
X14475000Y-6889000D01*
X14425000Y-6939000D01*
X14475000Y-6989000D01*
X14475000Y-7243000D02*
X14525000Y-7193000D01*
X14475000Y-7143000D01*
X14425000Y-7193000D01*
X14475000Y-7243000D01*
X14475000Y-7497000D02*
X14525000Y-7447000D01*
X14475000Y-7397000D01*
X14425000Y-7447000D01*
X14475000Y-7497000D01*
X14475000Y-7751000D02*
X14525000Y-7701000D01*
X14475000Y-7651000D01*
X14425000Y-7701000D01*
X14475000Y-7751000D01*
X14475000Y-8005000D02*
X14525000Y-7955000D01*
X14475000Y-7905000D01*
X14425000Y-7955000D01*
X14475000Y-8005000D01*
X14475000Y-8259000D02*
X14525000Y-8209000D01*
X14475000Y-8159000D01*
X14425000Y-8209000D01*
X14475000Y-8259000D01*
X14475000Y-8513000D02*
X14525000Y-8463000D01*
X14475000Y-8413000D01*
X14425000Y-8463000D01*
X14475000Y-8513000D01*
X14475000Y-8767000D02*
X14525000Y-8717000D01*
X14475000Y-8667000D01*
X14425000Y-8717000D01*
X14475000Y-8767000D01*
X14475000Y-9021000D02*
X14525000Y-8971000D01*
X14475000Y-8921000D01*
X14425000Y-8971000D01*
X14475000Y-9021000D01*
X14475000Y-9275000D02*
X14525000Y-9225000D01*
X14475000Y-9175000D01*
X14425000Y-9225000D01*
X14475000Y-9275000D01*
X14475000Y-9529000D02*
X14525000Y-9479000D01*
X14475000Y-9429000D01*
X14425000Y-9479000D01*
X14475000Y-9529000D01*
X14475000Y-9783000D02*
X14525000Y-9733000D01*
X14475000Y-9683000D01*
X14425000Y-9733000D01*
X14475000Y-9783000D01*
X14475000Y-10037000D02*
X14525000Y-9987000D01*
X14475000Y-9937000D01*
X14425000Y-9987000D01*
X14475000Y-10037000D01*
X14475000Y-10291000D02*
X14525000Y-10241000D01*
X14475000Y-10191000D01*
X14425000Y-10241000D01*
X14475000Y-10291000D01*
X14475000Y-10545000D02*
X14525000Y-10495000D01*
X14475000Y-10445000D01*
X14425000Y-10495000D01*
X14475000Y-10545000D01*
X14475000Y-10799000D02*
X14525000Y-10749000D01*
X14475000Y-10699000D01*
X14425000Y-10749000D01*
X14475000Y-10799000D01*
X14475000Y-11053000D02*
X14525000Y-11003000D01*
X14475000Y-10953000D01*
X14425000Y-11003000D01*
X14475000Y-11053000D01*
X14475000Y-12069000D02*
X14525000Y-12019000D01*
X14475000Y-11969000D01*
X14425000Y-12019000D01*
X14475000Y-12069000D01*
X15745000Y-5338000D02*
X15795000Y-5288000D01*
X15745000Y-5238000D01*
X15695000Y-5288000D01*
X15745000Y-5338000D01*
X15999000Y-5338000D02*
X16049000Y-5288000D01*
X15999000Y-5238000D01*
X15949000Y-5288000D01*
X15999000Y-5338000D01*
X16253000Y-5338000D02*
X16303000Y-5288000D01*
X16253000Y-5238000D01*
X16203000Y-5288000D01*
X16253000Y-5338000D01*
X16507000Y-5338000D02*
X16557000Y-5288000D01*
X16507000Y-5238000D01*
X16457000Y-5288000D01*
X16507000Y-5338000D01*
D13*
X2231900Y-2696700D02*
X2333500Y-2798300D01*
X2333500Y-2696700D02*
X2231900Y-2798300D01*
X2333500Y-2747500D02*
G75*
G02*
X2231900Y-2747500I-50800J0D01*
G01*
X2231900Y-2747500D02*
G75*
G02*
X2333500Y-2747500I50800J0D01*
G01*
X2231900Y-2950700D02*
X2333500Y-3052300D01*
X2333500Y-2950700D02*
X2231900Y-3052300D01*
X2333500Y-3001500D02*
G75*
G02*
X2231900Y-3001500I-50800J0D01*
G01*
X2231900Y-3001500D02*
G75*
G02*
X2333500Y-3001500I50800J0D01*
G01*
X2231900Y-3204700D02*
X2333500Y-3306300D01*
X2333500Y-3204700D02*
X2231900Y-3306300D01*
X2333500Y-3255500D02*
G75*
G02*
X2231900Y-3255500I-50800J0D01*
G01*
X2231900Y-3255500D02*
G75*
G02*
X2333500Y-3255500I50800J0D01*
G01*
X2231900Y-3458700D02*
X2333500Y-3560300D01*
X2333500Y-3458700D02*
X2231900Y-3560300D01*
X2333500Y-3509500D02*
G75*
G02*
X2231900Y-3509500I-50800J0D01*
G01*
X2231900Y-3509500D02*
G75*
G02*
X2333500Y-3509500I50800J0D01*
G01*
X2231900Y-3712700D02*
X2333500Y-3814300D01*
X2333500Y-3712700D02*
X2231900Y-3814300D01*
X2333500Y-3763500D02*
G75*
G02*
X2231900Y-3763500I-50800J0D01*
G01*
X2231900Y-3763500D02*
G75*
G02*
X2333500Y-3763500I50800J0D01*
G01*
X2231900Y-3966700D02*
X2333500Y-4068300D01*
X2333500Y-3966700D02*
X2231900Y-4068300D01*
X2333500Y-4017500D02*
G75*
G02*
X2231900Y-4017500I-50800J0D01*
G01*
X2231900Y-4017500D02*
G75*
G02*
X2333500Y-4017500I50800J0D01*
G01*
X2231900Y-4220700D02*
X2333500Y-4322300D01*
X2333500Y-4220700D02*
X2231900Y-4322300D01*
X2333500Y-4271500D02*
G75*
G02*
X2231900Y-4271500I-50800J0D01*
G01*
X2231900Y-4271500D02*
G75*
G02*
X2333500Y-4271500I50800J0D01*
G01*
X2231900Y-4474700D02*
X2333500Y-4576300D01*
X2333500Y-4474700D02*
X2231900Y-4576300D01*
X2333500Y-4525500D02*
G75*
G02*
X2231900Y-4525500I-50800J0D01*
G01*
X2231900Y-4525500D02*
G75*
G02*
X2333500Y-4525500I50800J0D01*
G01*
X2231900Y-4728700D02*
X2333500Y-4830300D01*
X2333500Y-4728700D02*
X2231900Y-4830300D01*
X2333500Y-4779500D02*
G75*
G02*
X2231900Y-4779500I-50800J0D01*
G01*
X2231900Y-4779500D02*
G75*
G02*
X2333500Y-4779500I50800J0D01*
G01*
X2231900Y-4982700D02*
X2333500Y-5084300D01*
X2333500Y-4982700D02*
X2231900Y-5084300D01*
X2333500Y-5033500D02*
G75*
G02*
X2231900Y-5033500I-50800J0D01*
G01*
X2231900Y-5033500D02*
G75*
G02*
X2333500Y-5033500I50800J0D01*
G01*
X2231900Y-5236700D02*
X2333500Y-5338300D01*
X2333500Y-5236700D02*
X2231900Y-5338300D01*
X2333500Y-5287500D02*
G75*
G02*
X2231900Y-5287500I-50800J0D01*
G01*
X2231900Y-5287500D02*
G75*
G02*
X2333500Y-5287500I50800J0D01*
G01*
X2231900Y-5490700D02*
X2333500Y-5592300D01*
X2333500Y-5490700D02*
X2231900Y-5592300D01*
X2333500Y-5541500D02*
G75*
G02*
X2231900Y-5541500I-50800J0D01*
G01*
X2231900Y-5541500D02*
G75*
G02*
X2333500Y-5541500I50800J0D01*
G01*
X2231900Y-5744700D02*
X2333500Y-5846300D01*
X2333500Y-5744700D02*
X2231900Y-5846300D01*
X2333500Y-5795500D02*
G75*
G02*
X2231900Y-5795500I-50800J0D01*
G01*
X2231900Y-5795500D02*
G75*
G02*
X2333500Y-5795500I50800J0D01*
G01*
X2231900Y-5998700D02*
X2333500Y-6100300D01*
X2333500Y-5998700D02*
X2231900Y-6100300D01*
X2333500Y-6049500D02*
G75*
G02*
X2231900Y-6049500I-50800J0D01*
G01*
X2231900Y-6049500D02*
G75*
G02*
X2333500Y-6049500I50800J0D01*
G01*
X2231900Y-6252700D02*
X2333500Y-6354300D01*
X2333500Y-6252700D02*
X2231900Y-6354300D01*
X2333500Y-6303500D02*
G75*
G02*
X2231900Y-6303500I-50800J0D01*
G01*
X2231900Y-6303500D02*
G75*
G02*
X2333500Y-6303500I50800J0D01*
G01*
X2231900Y-6506700D02*
X2333500Y-6608300D01*
X2333500Y-6506700D02*
X2231900Y-6608300D01*
X2333500Y-6557500D02*
G75*
G02*
X2231900Y-6557500I-50800J0D01*
G01*
X2231900Y-6557500D02*
G75*
G02*
X2333500Y-6557500I50800J0D01*
G01*
X2231900Y-6760700D02*
X2333500Y-6862300D01*
X2333500Y-6760700D02*
X2231900Y-6862300D01*
X2333500Y-6811500D02*
G75*
G02*
X2231900Y-6811500I-50800J0D01*
G01*
X2231900Y-6811500D02*
G75*
G02*
X2333500Y-6811500I50800J0D01*
G01*
X2231900Y-7014700D02*
X2333500Y-7116300D01*
X2333500Y-7014700D02*
X2231900Y-7116300D01*
X2333500Y-7065500D02*
G75*
G02*
X2231900Y-7065500I-50800J0D01*
G01*
X2231900Y-7065500D02*
G75*
G02*
X2333500Y-7065500I50800J0D01*
G01*
X2231900Y-7268700D02*
X2333500Y-7370300D01*
X2333500Y-7268700D02*
X2231900Y-7370300D01*
X2333500Y-7319500D02*
G75*
G02*
X2231900Y-7319500I-50800J0D01*
G01*
X2231900Y-7319500D02*
G75*
G02*
X2333500Y-7319500I50800J0D01*
G01*
X2231900Y-7522700D02*
X2333500Y-7624300D01*
X2333500Y-7522700D02*
X2231900Y-7624300D01*
X2333500Y-7573500D02*
G75*
G02*
X2231900Y-7573500I-50800J0D01*
G01*
X2231900Y-7573500D02*
G75*
G02*
X2333500Y-7573500I50800J0D01*
G01*
X2231900Y-7776700D02*
X2333500Y-7878300D01*
X2333500Y-7776700D02*
X2231900Y-7878300D01*
X2333500Y-7827500D02*
G75*
G02*
X2231900Y-7827500I-50800J0D01*
G01*
X2231900Y-7827500D02*
G75*
G02*
X2333500Y-7827500I50800J0D01*
G01*
X2231900Y-8030700D02*
X2333500Y-8132300D01*
X2333500Y-8030700D02*
X2231900Y-8132300D01*
X2333500Y-8081500D02*
G75*
G02*
X2231900Y-8081500I-50800J0D01*
G01*
X2231900Y-8081500D02*
G75*
G02*
X2333500Y-8081500I50800J0D01*
G01*
X2231900Y-8284700D02*
X2333500Y-8386300D01*
X2333500Y-8284700D02*
X2231900Y-8386300D01*
X2333500Y-8335500D02*
G75*
G02*
X2231900Y-8335500I-50800J0D01*
G01*
X2231900Y-8335500D02*
G75*
G02*
X2333500Y-8335500I50800J0D01*
G01*
X2231900Y-8538700D02*
X2333500Y-8640300D01*
X2333500Y-8538700D02*
X2231900Y-8640300D01*
X2333500Y-8589500D02*
G75*
G02*
X2231900Y-8589500I-50800J0D01*
G01*
X2231900Y-8589500D02*
G75*
G02*
X2333500Y-8589500I50800J0D01*
G01*
X2231900Y-8792700D02*
X2333500Y-8894300D01*
X2333500Y-8792700D02*
X2231900Y-8894300D01*
X2333500Y-8843500D02*
G75*
G02*
X2231900Y-8843500I-50800J0D01*
G01*
X2231900Y-8843500D02*
G75*
G02*
X2333500Y-8843500I50800J0D01*
G01*
X2231900Y-9046700D02*
X2333500Y-9148300D01*
X2333500Y-9046700D02*
X2231900Y-9148300D01*
X2333500Y-9097500D02*
G75*
G02*
X2231900Y-9097500I-50800J0D01*
G01*
X2231900Y-9097500D02*
G75*
G02*
X2333500Y-9097500I50800J0D01*
G01*
X2231900Y-9300700D02*
X2333500Y-9402300D01*
X2333500Y-9300700D02*
X2231900Y-9402300D01*
X2333500Y-9351500D02*
G75*
G02*
X2231900Y-9351500I-50800J0D01*
G01*
X2231900Y-9351500D02*
G75*
G02*
X2333500Y-9351500I50800J0D01*
G01*
X2231900Y-9554700D02*
X2333500Y-9656300D01*
X2333500Y-9554700D02*
X2231900Y-9656300D01*
X2333500Y-9605500D02*
G75*
G02*
X2231900Y-9605500I-50800J0D01*
G01*
X2231900Y-9605500D02*
G75*
G02*
X2333500Y-9605500I50800J0D01*
G01*
X2231900Y-9808700D02*
X2333500Y-9910300D01*
X2333500Y-9808700D02*
X2231900Y-9910300D01*
X2333500Y-9859500D02*
G75*
G02*
X2231900Y-9859500I-50800J0D01*
G01*
X2231900Y-9859500D02*
G75*
G02*
X2333500Y-9859500I50800J0D01*
G01*
X2231900Y-10062700D02*
X2333500Y-10164300D01*
X2333500Y-10062700D02*
X2231900Y-10164300D01*
X2333500Y-10113500D02*
G75*
G02*
X2231900Y-10113500I-50800J0D01*
G01*
X2231900Y-10113500D02*
G75*
G02*
X2333500Y-10113500I50800J0D01*
G01*
X2231900Y-10316700D02*
X2333500Y-10418300D01*
X2333500Y-10316700D02*
X2231900Y-10418300D01*
X2333500Y-10367500D02*
G75*
G02*
X2231900Y-10367500I-50800J0D01*
G01*
X2231900Y-10367500D02*
G75*
G02*
X2333500Y-10367500I50800J0D01*
G01*
X2231900Y-10570700D02*
X2333500Y-10672300D01*
X2333500Y-10570700D02*
X2231900Y-10672300D01*
X2333500Y-10621500D02*
G75*
G02*
X2231900Y-10621500I-50800J0D01*
G01*
X2231900Y-10621500D02*
G75*
G02*
X2333500Y-10621500I50800J0D01*
G01*
X2232200Y-1427200D02*
X2333800Y-1528800D01*
X2333800Y-1427200D02*
X2232200Y-1528800D01*
X2333800Y-1478000D02*
G75*
G02*
X2232200Y-1478000I-50800J0D01*
G01*
X2232200Y-1478000D02*
G75*
G02*
X2333800Y-1478000I50800J0D01*
G01*
X2485900Y-2696700D02*
X2587500Y-2798300D01*
X2587500Y-2696700D02*
X2485900Y-2798300D01*
X2587500Y-2747500D02*
G75*
G02*
X2485900Y-2747500I-50800J0D01*
G01*
X2485900Y-2747500D02*
G75*
G02*
X2587500Y-2747500I50800J0D01*
G01*
X2485900Y-2950700D02*
X2587500Y-3052300D01*
X2587500Y-2950700D02*
X2485900Y-3052300D01*
X2587500Y-3001500D02*
G75*
G02*
X2485900Y-3001500I-50800J0D01*
G01*
X2485900Y-3001500D02*
G75*
G02*
X2587500Y-3001500I50800J0D01*
G01*
X2485900Y-3204700D02*
X2587500Y-3306300D01*
X2587500Y-3204700D02*
X2485900Y-3306300D01*
X2587500Y-3255500D02*
G75*
G02*
X2485900Y-3255500I-50800J0D01*
G01*
X2485900Y-3255500D02*
G75*
G02*
X2587500Y-3255500I50800J0D01*
G01*
X2485900Y-3458700D02*
X2587500Y-3560300D01*
X2587500Y-3458700D02*
X2485900Y-3560300D01*
X2587500Y-3509500D02*
G75*
G02*
X2485900Y-3509500I-50800J0D01*
G01*
X2485900Y-3509500D02*
G75*
G02*
X2587500Y-3509500I50800J0D01*
G01*
X2485900Y-3712700D02*
X2587500Y-3814300D01*
X2587500Y-3712700D02*
X2485900Y-3814300D01*
X2587500Y-3763500D02*
G75*
G02*
X2485900Y-3763500I-50800J0D01*
G01*
X2485900Y-3763500D02*
G75*
G02*
X2587500Y-3763500I50800J0D01*
G01*
X2485900Y-3966700D02*
X2587500Y-4068300D01*
X2587500Y-3966700D02*
X2485900Y-4068300D01*
X2587500Y-4017500D02*
G75*
G02*
X2485900Y-4017500I-50800J0D01*
G01*
X2485900Y-4017500D02*
G75*
G02*
X2587500Y-4017500I50800J0D01*
G01*
X2485900Y-4220700D02*
X2587500Y-4322300D01*
X2587500Y-4220700D02*
X2485900Y-4322300D01*
X2587500Y-4271500D02*
G75*
G02*
X2485900Y-4271500I-50800J0D01*
G01*
X2485900Y-4271500D02*
G75*
G02*
X2587500Y-4271500I50800J0D01*
G01*
X2485900Y-4474700D02*
X2587500Y-4576300D01*
X2587500Y-4474700D02*
X2485900Y-4576300D01*
X2587500Y-4525500D02*
G75*
G02*
X2485900Y-4525500I-50800J0D01*
G01*
X2485900Y-4525500D02*
G75*
G02*
X2587500Y-4525500I50800J0D01*
G01*
X2485900Y-4728700D02*
X2587500Y-4830300D01*
X2587500Y-4728700D02*
X2485900Y-4830300D01*
X2587500Y-4779500D02*
G75*
G02*
X2485900Y-4779500I-50800J0D01*
G01*
X2485900Y-4779500D02*
G75*
G02*
X2587500Y-4779500I50800J0D01*
G01*
X2485900Y-4982700D02*
X2587500Y-5084300D01*
X2587500Y-4982700D02*
X2485900Y-5084300D01*
X2587500Y-5033500D02*
G75*
G02*
X2485900Y-5033500I-50800J0D01*
G01*
X2485900Y-5033500D02*
G75*
G02*
X2587500Y-5033500I50800J0D01*
G01*
X2485900Y-5236700D02*
X2587500Y-5338300D01*
X2587500Y-5236700D02*
X2485900Y-5338300D01*
X2587500Y-5287500D02*
G75*
G02*
X2485900Y-5287500I-50800J0D01*
G01*
X2485900Y-5287500D02*
G75*
G02*
X2587500Y-5287500I50800J0D01*
G01*
X2485900Y-5490700D02*
X2587500Y-5592300D01*
X2587500Y-5490700D02*
X2485900Y-5592300D01*
X2587500Y-5541500D02*
G75*
G02*
X2485900Y-5541500I-50800J0D01*
G01*
X2485900Y-5541500D02*
G75*
G02*
X2587500Y-5541500I50800J0D01*
G01*
X2485900Y-5744700D02*
X2587500Y-5846300D01*
X2587500Y-5744700D02*
X2485900Y-5846300D01*
X2587500Y-5795500D02*
G75*
G02*
X2485900Y-5795500I-50800J0D01*
G01*
X2485900Y-5795500D02*
G75*
G02*
X2587500Y-5795500I50800J0D01*
G01*
X2485900Y-5998700D02*
X2587500Y-6100300D01*
X2587500Y-5998700D02*
X2485900Y-6100300D01*
X2587500Y-6049500D02*
G75*
G02*
X2485900Y-6049500I-50800J0D01*
G01*
X2485900Y-6049500D02*
G75*
G02*
X2587500Y-6049500I50800J0D01*
G01*
X2485900Y-6252700D02*
X2587500Y-6354300D01*
X2587500Y-6252700D02*
X2485900Y-6354300D01*
X2587500Y-6303500D02*
G75*
G02*
X2485900Y-6303500I-50800J0D01*
G01*
X2485900Y-6303500D02*
G75*
G02*
X2587500Y-6303500I50800J0D01*
G01*
X2485900Y-6506700D02*
X2587500Y-6608300D01*
X2587500Y-6506700D02*
X2485900Y-6608300D01*
X2587500Y-6557500D02*
G75*
G02*
X2485900Y-6557500I-50800J0D01*
G01*
X2485900Y-6557500D02*
G75*
G02*
X2587500Y-6557500I50800J0D01*
G01*
X2485900Y-6760700D02*
X2587500Y-6862300D01*
X2587500Y-6760700D02*
X2485900Y-6862300D01*
X2587500Y-6811500D02*
G75*
G02*
X2485900Y-6811500I-50800J0D01*
G01*
X2485900Y-6811500D02*
G75*
G02*
X2587500Y-6811500I50800J0D01*
G01*
X2485900Y-7014700D02*
X2587500Y-7116300D01*
X2587500Y-7014700D02*
X2485900Y-7116300D01*
X2587500Y-7065500D02*
G75*
G02*
X2485900Y-7065500I-50800J0D01*
G01*
X2485900Y-7065500D02*
G75*
G02*
X2587500Y-7065500I50800J0D01*
G01*
X2485900Y-7268700D02*
X2587500Y-7370300D01*
X2587500Y-7268700D02*
X2485900Y-7370300D01*
X2587500Y-7319500D02*
G75*
G02*
X2485900Y-7319500I-50800J0D01*
G01*
X2485900Y-7319500D02*
G75*
G02*
X2587500Y-7319500I50800J0D01*
G01*
X2485900Y-7522700D02*
X2587500Y-7624300D01*
X2587500Y-7522700D02*
X2485900Y-7624300D01*
X2587500Y-7573500D02*
G75*
G02*
X2485900Y-7573500I-50800J0D01*
G01*
X2485900Y-7573500D02*
G75*
G02*
X2587500Y-7573500I50800J0D01*
G01*
X2485900Y-7776700D02*
X2587500Y-7878300D01*
X2587500Y-7776700D02*
X2485900Y-7878300D01*
X2587500Y-7827500D02*
G75*
G02*
X2485900Y-7827500I-50800J0D01*
G01*
X2485900Y-7827500D02*
G75*
G02*
X2587500Y-7827500I50800J0D01*
G01*
X2485900Y-8030700D02*
X2587500Y-8132300D01*
X2587500Y-8030700D02*
X2485900Y-8132300D01*
X2587500Y-8081500D02*
G75*
G02*
X2485900Y-8081500I-50800J0D01*
G01*
X2485900Y-8081500D02*
G75*
G02*
X2587500Y-8081500I50800J0D01*
G01*
X2485900Y-8284700D02*
X2587500Y-8386300D01*
X2587500Y-8284700D02*
X2485900Y-8386300D01*
X2587500Y-8335500D02*
G75*
G02*
X2485900Y-8335500I-50800J0D01*
G01*
X2485900Y-8335500D02*
G75*
G02*
X2587500Y-8335500I50800J0D01*
G01*
X2485900Y-8538700D02*
X2587500Y-8640300D01*
X2587500Y-8538700D02*
X2485900Y-8640300D01*
X2587500Y-8589500D02*
G75*
G02*
X2485900Y-8589500I-50800J0D01*
G01*
X2485900Y-8589500D02*
G75*
G02*
X2587500Y-8589500I50800J0D01*
G01*
X2485900Y-8792700D02*
X2587500Y-8894300D01*
X2587500Y-8792700D02*
X2485900Y-8894300D01*
X2587500Y-8843500D02*
G75*
G02*
X2485900Y-8843500I-50800J0D01*
G01*
X2485900Y-8843500D02*
G75*
G02*
X2587500Y-8843500I50800J0D01*
G01*
X2485900Y-9046700D02*
X2587500Y-9148300D01*
X2587500Y-9046700D02*
X2485900Y-9148300D01*
X2587500Y-9097500D02*
G75*
G02*
X2485900Y-9097500I-50800J0D01*
G01*
X2485900Y-9097500D02*
G75*
G02*
X2587500Y-9097500I50800J0D01*
G01*
X2485900Y-9300700D02*
X2587500Y-9402300D01*
X2587500Y-9300700D02*
X2485900Y-9402300D01*
X2587500Y-9351500D02*
G75*
G02*
X2485900Y-9351500I-50800J0D01*
G01*
X2485900Y-9351500D02*
G75*
G02*
X2587500Y-9351500I50800J0D01*
G01*
X2485900Y-9554700D02*
X2587500Y-9656300D01*
X2587500Y-9554700D02*
X2485900Y-9656300D01*
X2587500Y-9605500D02*
G75*
G02*
X2485900Y-9605500I-50800J0D01*
G01*
X2485900Y-9605500D02*
G75*
G02*
X2587500Y-9605500I50800J0D01*
G01*
X2485900Y-9808700D02*
X2587500Y-9910300D01*
X2587500Y-9808700D02*
X2485900Y-9910300D01*
X2587500Y-9859500D02*
G75*
G02*
X2485900Y-9859500I-50800J0D01*
G01*
X2485900Y-9859500D02*
G75*
G02*
X2587500Y-9859500I50800J0D01*
G01*
X2485900Y-10062700D02*
X2587500Y-10164300D01*
X2587500Y-10062700D02*
X2485900Y-10164300D01*
X2587500Y-10113500D02*
G75*
G02*
X2485900Y-10113500I-50800J0D01*
G01*
X2485900Y-10113500D02*
G75*
G02*
X2587500Y-10113500I50800J0D01*
G01*
X2485900Y-10316700D02*
X2587500Y-10418300D01*
X2587500Y-10316700D02*
X2485900Y-10418300D01*
X2587500Y-10367500D02*
G75*
G02*
X2485900Y-10367500I-50800J0D01*
G01*
X2485900Y-10367500D02*
G75*
G02*
X2587500Y-10367500I50800J0D01*
G01*
X2485900Y-10570700D02*
X2587500Y-10672300D01*
X2587500Y-10570700D02*
X2485900Y-10672300D01*
X2587500Y-10621500D02*
G75*
G02*
X2485900Y-10621500I-50800J0D01*
G01*
X2485900Y-10621500D02*
G75*
G02*
X2587500Y-10621500I50800J0D01*
G01*
X2486200Y-1427200D02*
X2587800Y-1528800D01*
X2587800Y-1427200D02*
X2486200Y-1528800D01*
X2587800Y-1478000D02*
G75*
G02*
X2486200Y-1478000I-50800J0D01*
G01*
X2486200Y-1478000D02*
G75*
G02*
X2587800Y-1478000I50800J0D01*
G01*
X2739900Y-2696700D02*
X2841500Y-2798300D01*
X2841500Y-2696700D02*
X2739900Y-2798300D01*
X2841500Y-2747500D02*
G75*
G02*
X2739900Y-2747500I-50800J0D01*
G01*
X2739900Y-2747500D02*
G75*
G02*
X2841500Y-2747500I50800J0D01*
G01*
X2739900Y-2950700D02*
X2841500Y-3052300D01*
X2841500Y-2950700D02*
X2739900Y-3052300D01*
X2841500Y-3001500D02*
G75*
G02*
X2739900Y-3001500I-50800J0D01*
G01*
X2739900Y-3001500D02*
G75*
G02*
X2841500Y-3001500I50800J0D01*
G01*
X2739900Y-3204700D02*
X2841500Y-3306300D01*
X2841500Y-3204700D02*
X2739900Y-3306300D01*
X2841500Y-3255500D02*
G75*
G02*
X2739900Y-3255500I-50800J0D01*
G01*
X2739900Y-3255500D02*
G75*
G02*
X2841500Y-3255500I50800J0D01*
G01*
X2739900Y-3458700D02*
X2841500Y-3560300D01*
X2841500Y-3458700D02*
X2739900Y-3560300D01*
X2841500Y-3509500D02*
G75*
G02*
X2739900Y-3509500I-50800J0D01*
G01*
X2739900Y-3509500D02*
G75*
G02*
X2841500Y-3509500I50800J0D01*
G01*
X2739900Y-3712700D02*
X2841500Y-3814300D01*
X2841500Y-3712700D02*
X2739900Y-3814300D01*
X2841500Y-3763500D02*
G75*
G02*
X2739900Y-3763500I-50800J0D01*
G01*
X2739900Y-3763500D02*
G75*
G02*
X2841500Y-3763500I50800J0D01*
G01*
X2739900Y-3966700D02*
X2841500Y-4068300D01*
X2841500Y-3966700D02*
X2739900Y-4068300D01*
X2841500Y-4017500D02*
G75*
G02*
X2739900Y-4017500I-50800J0D01*
G01*
X2739900Y-4017500D02*
G75*
G02*
X2841500Y-4017500I50800J0D01*
G01*
X2739900Y-4220700D02*
X2841500Y-4322300D01*
X2841500Y-4220700D02*
X2739900Y-4322300D01*
X2841500Y-4271500D02*
G75*
G02*
X2739900Y-4271500I-50800J0D01*
G01*
X2739900Y-4271500D02*
G75*
G02*
X2841500Y-4271500I50800J0D01*
G01*
X2739900Y-4474700D02*
X2841500Y-4576300D01*
X2841500Y-4474700D02*
X2739900Y-4576300D01*
X2841500Y-4525500D02*
G75*
G02*
X2739900Y-4525500I-50800J0D01*
G01*
X2739900Y-4525500D02*
G75*
G02*
X2841500Y-4525500I50800J0D01*
G01*
X2739900Y-4728700D02*
X2841500Y-4830300D01*
X2841500Y-4728700D02*
X2739900Y-4830300D01*
X2841500Y-4779500D02*
G75*
G02*
X2739900Y-4779500I-50800J0D01*
G01*
X2739900Y-4779500D02*
G75*
G02*
X2841500Y-4779500I50800J0D01*
G01*
X2739900Y-4982700D02*
X2841500Y-5084300D01*
X2841500Y-4982700D02*
X2739900Y-5084300D01*
X2841500Y-5033500D02*
G75*
G02*
X2739900Y-5033500I-50800J0D01*
G01*
X2739900Y-5033500D02*
G75*
G02*
X2841500Y-5033500I50800J0D01*
G01*
X2739900Y-5236700D02*
X2841500Y-5338300D01*
X2841500Y-5236700D02*
X2739900Y-5338300D01*
X2841500Y-5287500D02*
G75*
G02*
X2739900Y-5287500I-50800J0D01*
G01*
X2739900Y-5287500D02*
G75*
G02*
X2841500Y-5287500I50800J0D01*
G01*
X2739900Y-5490700D02*
X2841500Y-5592300D01*
X2841500Y-5490700D02*
X2739900Y-5592300D01*
X2841500Y-5541500D02*
G75*
G02*
X2739900Y-5541500I-50800J0D01*
G01*
X2739900Y-5541500D02*
G75*
G02*
X2841500Y-5541500I50800J0D01*
G01*
X2739900Y-5744700D02*
X2841500Y-5846300D01*
X2841500Y-5744700D02*
X2739900Y-5846300D01*
X2841500Y-5795500D02*
G75*
G02*
X2739900Y-5795500I-50800J0D01*
G01*
X2739900Y-5795500D02*
G75*
G02*
X2841500Y-5795500I50800J0D01*
G01*
X2739900Y-5998700D02*
X2841500Y-6100300D01*
X2841500Y-5998700D02*
X2739900Y-6100300D01*
X2841500Y-6049500D02*
G75*
G02*
X2739900Y-6049500I-50800J0D01*
G01*
X2739900Y-6049500D02*
G75*
G02*
X2841500Y-6049500I50800J0D01*
G01*
X2739900Y-6252700D02*
X2841500Y-6354300D01*
X2841500Y-6252700D02*
X2739900Y-6354300D01*
X2841500Y-6303500D02*
G75*
G02*
X2739900Y-6303500I-50800J0D01*
G01*
X2739900Y-6303500D02*
G75*
G02*
X2841500Y-6303500I50800J0D01*
G01*
X2739900Y-6506700D02*
X2841500Y-6608300D01*
X2841500Y-6506700D02*
X2739900Y-6608300D01*
X2841500Y-6557500D02*
G75*
G02*
X2739900Y-6557500I-50800J0D01*
G01*
X2739900Y-6557500D02*
G75*
G02*
X2841500Y-6557500I50800J0D01*
G01*
X2739900Y-6760700D02*
X2841500Y-6862300D01*
X2841500Y-6760700D02*
X2739900Y-6862300D01*
X2841500Y-6811500D02*
G75*
G02*
X2739900Y-6811500I-50800J0D01*
G01*
X2739900Y-6811500D02*
G75*
G02*
X2841500Y-6811500I50800J0D01*
G01*
X2739900Y-7014700D02*
X2841500Y-7116300D01*
X2841500Y-7014700D02*
X2739900Y-7116300D01*
X2841500Y-7065500D02*
G75*
G02*
X2739900Y-7065500I-50800J0D01*
G01*
X2739900Y-7065500D02*
G75*
G02*
X2841500Y-7065500I50800J0D01*
G01*
X2739900Y-7268700D02*
X2841500Y-7370300D01*
X2841500Y-7268700D02*
X2739900Y-7370300D01*
X2841500Y-7319500D02*
G75*
G02*
X2739900Y-7319500I-50800J0D01*
G01*
X2739900Y-7319500D02*
G75*
G02*
X2841500Y-7319500I50800J0D01*
G01*
X2739900Y-7522700D02*
X2841500Y-7624300D01*
X2841500Y-7522700D02*
X2739900Y-7624300D01*
X2841500Y-7573500D02*
G75*
G02*
X2739900Y-7573500I-50800J0D01*
G01*
X2739900Y-7573500D02*
G75*
G02*
X2841500Y-7573500I50800J0D01*
G01*
X2739900Y-7776700D02*
X2841500Y-7878300D01*
X2841500Y-7776700D02*
X2739900Y-7878300D01*
X2841500Y-7827500D02*
G75*
G02*
X2739900Y-7827500I-50800J0D01*
G01*
X2739900Y-7827500D02*
G75*
G02*
X2841500Y-7827500I50800J0D01*
G01*
X2739900Y-8030700D02*
X2841500Y-8132300D01*
X2841500Y-8030700D02*
X2739900Y-8132300D01*
X2841500Y-8081500D02*
G75*
G02*
X2739900Y-8081500I-50800J0D01*
G01*
X2739900Y-8081500D02*
G75*
G02*
X2841500Y-8081500I50800J0D01*
G01*
X2739900Y-8284700D02*
X2841500Y-8386300D01*
X2841500Y-8284700D02*
X2739900Y-8386300D01*
X2841500Y-8335500D02*
G75*
G02*
X2739900Y-8335500I-50800J0D01*
G01*
X2739900Y-8335500D02*
G75*
G02*
X2841500Y-8335500I50800J0D01*
G01*
X2739900Y-8538700D02*
X2841500Y-8640300D01*
X2841500Y-8538700D02*
X2739900Y-8640300D01*
X2841500Y-8589500D02*
G75*
G02*
X2739900Y-8589500I-50800J0D01*
G01*
X2739900Y-8589500D02*
G75*
G02*
X2841500Y-8589500I50800J0D01*
G01*
X2739900Y-8792700D02*
X2841500Y-8894300D01*
X2841500Y-8792700D02*
X2739900Y-8894300D01*
X2841500Y-8843500D02*
G75*
G02*
X2739900Y-8843500I-50800J0D01*
G01*
X2739900Y-8843500D02*
G75*
G02*
X2841500Y-8843500I50800J0D01*
G01*
X2739900Y-9046700D02*
X2841500Y-9148300D01*
X2841500Y-9046700D02*
X2739900Y-9148300D01*
X2841500Y-9097500D02*
G75*
G02*
X2739900Y-9097500I-50800J0D01*
G01*
X2739900Y-9097500D02*
G75*
G02*
X2841500Y-9097500I50800J0D01*
G01*
X2739900Y-9300700D02*
X2841500Y-9402300D01*
X2841500Y-9300700D02*
X2739900Y-9402300D01*
X2841500Y-9351500D02*
G75*
G02*
X2739900Y-9351500I-50800J0D01*
G01*
X2739900Y-9351500D02*
G75*
G02*
X2841500Y-9351500I50800J0D01*
G01*
X2739900Y-9554700D02*
X2841500Y-9656300D01*
X2841500Y-9554700D02*
X2739900Y-9656300D01*
X2841500Y-9605500D02*
G75*
G02*
X2739900Y-9605500I-50800J0D01*
G01*
X2739900Y-9605500D02*
G75*
G02*
X2841500Y-9605500I50800J0D01*
G01*
X2739900Y-9808700D02*
X2841500Y-9910300D01*
X2841500Y-9808700D02*
X2739900Y-9910300D01*
X2841500Y-9859500D02*
G75*
G02*
X2739900Y-9859500I-50800J0D01*
G01*
X2739900Y-9859500D02*
G75*
G02*
X2841500Y-9859500I50800J0D01*
G01*
X2739900Y-10062700D02*
X2841500Y-10164300D01*
X2841500Y-10062700D02*
X2739900Y-10164300D01*
X2841500Y-10113500D02*
G75*
G02*
X2739900Y-10113500I-50800J0D01*
G01*
X2739900Y-10113500D02*
G75*
G02*
X2841500Y-10113500I50800J0D01*
G01*
X2739900Y-10316700D02*
X2841500Y-10418300D01*
X2841500Y-10316700D02*
X2739900Y-10418300D01*
X2841500Y-10367500D02*
G75*
G02*
X2739900Y-10367500I-50800J0D01*
G01*
X2739900Y-10367500D02*
G75*
G02*
X2841500Y-10367500I50800J0D01*
G01*
X2739900Y-10570700D02*
X2841500Y-10672300D01*
X2841500Y-10570700D02*
X2739900Y-10672300D01*
X2841500Y-10621500D02*
G75*
G02*
X2739900Y-10621500I-50800J0D01*
G01*
X2739900Y-10621500D02*
G75*
G02*
X2841500Y-10621500I50800J0D01*
G01*
X2740200Y-1427200D02*
X2841800Y-1528800D01*
X2841800Y-1427200D02*
X2740200Y-1528800D01*
X2841800Y-1478000D02*
G75*
G02*
X2740200Y-1478000I-50800J0D01*
G01*
X2740200Y-1478000D02*
G75*
G02*
X2841800Y-1478000I50800J0D01*
G01*
X10233200Y-1808200D02*
X10334800Y-1909800D01*
X10334800Y-1808200D02*
X10233200Y-1909800D01*
X10334800Y-1859000D02*
G75*
G02*
X10233200Y-1859000I-50800J0D01*
G01*
X10233200Y-1859000D02*
G75*
G02*
X10334800Y-1859000I50800J0D01*
G01*
X10233200Y-2062200D02*
X10334800Y-2163800D01*
X10334800Y-2062200D02*
X10233200Y-2163800D01*
X10334800Y-2113000D02*
G75*
G02*
X10233200Y-2113000I-50800J0D01*
G01*
X10233200Y-2113000D02*
G75*
G02*
X10334800Y-2113000I50800J0D01*
G01*
X10233200Y-2316200D02*
X10334800Y-2417800D01*
X10334800Y-2316200D02*
X10233200Y-2417800D01*
X10334800Y-2367000D02*
G75*
G02*
X10233200Y-2367000I-50800J0D01*
G01*
X10233200Y-2367000D02*
G75*
G02*
X10334800Y-2367000I50800J0D01*
G01*
X10487200Y-1808200D02*
X10588800Y-1909800D01*
X10588800Y-1808200D02*
X10487200Y-1909800D01*
X10588800Y-1859000D02*
G75*
G02*
X10487200Y-1859000I-50800J0D01*
G01*
X10487200Y-1859000D02*
G75*
G02*
X10588800Y-1859000I50800J0D01*
G01*
X10487200Y-2062200D02*
X10588800Y-2163800D01*
X10588800Y-2062200D02*
X10487200Y-2163800D01*
X10588800Y-2113000D02*
G75*
G02*
X10487200Y-2113000I-50800J0D01*
G01*
X10487200Y-2113000D02*
G75*
G02*
X10588800Y-2113000I50800J0D01*
G01*
X10487200Y-2316200D02*
X10588800Y-2417800D01*
X10588800Y-2316200D02*
X10487200Y-2417800D01*
X10588800Y-2367000D02*
G75*
G02*
X10487200Y-2367000I-50800J0D01*
G01*
X10487200Y-2367000D02*
G75*
G02*
X10588800Y-2367000I50800J0D01*
G01*
X10741200Y-1808200D02*
X10842800Y-1909800D01*
X10842800Y-1808200D02*
X10741200Y-1909800D01*
X10842800Y-1859000D02*
G75*
G02*
X10741200Y-1859000I-50800J0D01*
G01*
X10741200Y-1859000D02*
G75*
G02*
X10842800Y-1859000I50800J0D01*
G01*
X10741200Y-2062200D02*
X10842800Y-2163800D01*
X10842800Y-2062200D02*
X10741200Y-2163800D01*
X10842800Y-2113000D02*
G75*
G02*
X10741200Y-2113000I-50800J0D01*
G01*
X10741200Y-2113000D02*
G75*
G02*
X10842800Y-2113000I50800J0D01*
G01*
X10741200Y-2316200D02*
X10842800Y-2417800D01*
X10842800Y-2316200D02*
X10741200Y-2417800D01*
X10842800Y-2367000D02*
G75*
G02*
X10741200Y-2367000I-50800J0D01*
G01*
X10741200Y-2367000D02*
G75*
G02*
X10842800Y-2367000I50800J0D01*
G01*
X10995200Y-1808200D02*
X11096800Y-1909800D01*
X11096800Y-1808200D02*
X10995200Y-1909800D01*
X11096800Y-1859000D02*
G75*
G02*
X10995200Y-1859000I-50800J0D01*
G01*
X10995200Y-1859000D02*
G75*
G02*
X11096800Y-1859000I50800J0D01*
G01*
X10995200Y-2062200D02*
X11096800Y-2163800D01*
X11096800Y-2062200D02*
X10995200Y-2163800D01*
X11096800Y-2113000D02*
G75*
G02*
X10995200Y-2113000I-50800J0D01*
G01*
X10995200Y-2113000D02*
G75*
G02*
X11096800Y-2113000I50800J0D01*
G01*
X10995200Y-2316200D02*
X11096800Y-2417800D01*
X11096800Y-2316200D02*
X10995200Y-2417800D01*
X11096800Y-2367000D02*
G75*
G02*
X10995200Y-2367000I-50800J0D01*
G01*
X10995200Y-2367000D02*
G75*
G02*
X11096800Y-2367000I50800J0D01*
G01*
X11249200Y-1808200D02*
X11350800Y-1909800D01*
X11350800Y-1808200D02*
X11249200Y-1909800D01*
X11350800Y-1859000D02*
G75*
G02*
X11249200Y-1859000I-50800J0D01*
G01*
X11249200Y-1859000D02*
G75*
G02*
X11350800Y-1859000I50800J0D01*
G01*
X11249200Y-2062200D02*
X11350800Y-2163800D01*
X11350800Y-2062200D02*
X11249200Y-2163800D01*
X11350800Y-2113000D02*
G75*
G02*
X11249200Y-2113000I-50800J0D01*
G01*
X11249200Y-2113000D02*
G75*
G02*
X11350800Y-2113000I50800J0D01*
G01*
X11249200Y-2316200D02*
X11350800Y-2417800D01*
X11350800Y-2316200D02*
X11249200Y-2417800D01*
X11350800Y-2367000D02*
G75*
G02*
X11249200Y-2367000I-50800J0D01*
G01*
X11249200Y-2367000D02*
G75*
G02*
X11350800Y-2367000I50800J0D01*
G01*
X11503200Y-1808200D02*
X11604800Y-1909800D01*
X11604800Y-1808200D02*
X11503200Y-1909800D01*
X11604800Y-1859000D02*
G75*
G02*
X11503200Y-1859000I-50800J0D01*
G01*
X11503200Y-1859000D02*
G75*
G02*
X11604800Y-1859000I50800J0D01*
G01*
X11503200Y-2062200D02*
X11604800Y-2163800D01*
X11604800Y-2062200D02*
X11503200Y-2163800D01*
X11604800Y-2113000D02*
G75*
G02*
X11503200Y-2113000I-50800J0D01*
G01*
X11503200Y-2113000D02*
G75*
G02*
X11604800Y-2113000I50800J0D01*
G01*
X11503200Y-2316200D02*
X11604800Y-2417800D01*
X11604800Y-2316200D02*
X11503200Y-2417800D01*
X11604800Y-2367000D02*
G75*
G02*
X11503200Y-2367000I-50800J0D01*
G01*
X11503200Y-2367000D02*
G75*
G02*
X11604800Y-2367000I50800J0D01*
G01*
X11757200Y-1808200D02*
X11858800Y-1909800D01*
X11858800Y-1808200D02*
X11757200Y-1909800D01*
X11858800Y-1859000D02*
G75*
G02*
X11757200Y-1859000I-50800J0D01*
G01*
X11757200Y-1859000D02*
G75*
G02*
X11858800Y-1859000I50800J0D01*
G01*
X11757200Y-2062200D02*
X11858800Y-2163800D01*
X11858800Y-2062200D02*
X11757200Y-2163800D01*
X11858800Y-2113000D02*
G75*
G02*
X11757200Y-2113000I-50800J0D01*
G01*
X11757200Y-2113000D02*
G75*
G02*
X11858800Y-2113000I50800J0D01*
G01*
X11757200Y-2316200D02*
X11858800Y-2417800D01*
X11858800Y-2316200D02*
X11757200Y-2417800D01*
X11858800Y-2367000D02*
G75*
G02*
X11757200Y-2367000I-50800J0D01*
G01*
X11757200Y-2367000D02*
G75*
G02*
X11858800Y-2367000I50800J0D01*
G01*
X12011200Y-1808200D02*
X12112800Y-1909800D01*
X12112800Y-1808200D02*
X12011200Y-1909800D01*
X12112800Y-1859000D02*
G75*
G02*
X12011200Y-1859000I-50800J0D01*
G01*
X12011200Y-1859000D02*
G75*
G02*
X12112800Y-1859000I50800J0D01*
G01*
X12011200Y-2062200D02*
X12112800Y-2163800D01*
X12112800Y-2062200D02*
X12011200Y-2163800D01*
X12112800Y-2113000D02*
G75*
G02*
X12011200Y-2113000I-50800J0D01*
G01*
X12011200Y-2113000D02*
G75*
G02*
X12112800Y-2113000I50800J0D01*
G01*
X12011200Y-2316200D02*
X12112800Y-2417800D01*
X12112800Y-2316200D02*
X12011200Y-2417800D01*
X12112800Y-2367000D02*
G75*
G02*
X12011200Y-2367000I-50800J0D01*
G01*
X12011200Y-2367000D02*
G75*
G02*
X12112800Y-2367000I50800J0D01*
G01*
D11*
X2032977Y-12713484D02*
X2032977Y-12513484D01*
X2032977Y-12513484D02*
X2080596Y-12513484D01*
X2080596Y-12513484D02*
X2109167Y-12523008D01*
X2109167Y-12523008D02*
X2128215Y-12542055D01*
X2128215Y-12542055D02*
X2137739Y-12561103D01*
X2137739Y-12561103D02*
X2147263Y-12599198D01*
X2147263Y-12599198D02*
X2147263Y-12627769D01*
X2147263Y-12627769D02*
X2137739Y-12665865D01*
X2137739Y-12665865D02*
X2128215Y-12684912D01*
X2128215Y-12684912D02*
X2109167Y-12703960D01*
X2109167Y-12703960D02*
X2080596Y-12713484D01*
X2080596Y-12713484D02*
X2032977Y-12713484D01*
X2232977Y-12713484D02*
X2232977Y-12580150D01*
X2232977Y-12618246D02*
X2242501Y-12599198D01*
X2242501Y-12599198D02*
X2252024Y-12589674D01*
X2252024Y-12589674D02*
X2271072Y-12580150D01*
X2271072Y-12580150D02*
X2290120Y-12580150D01*
X2356786Y-12713484D02*
X2356786Y-12580150D01*
X2356786Y-12513484D02*
X2347263Y-12523008D01*
X2347263Y-12523008D02*
X2356786Y-12532531D01*
X2356786Y-12532531D02*
X2366310Y-12523008D01*
X2366310Y-12523008D02*
X2356786Y-12513484D01*
X2356786Y-12513484D02*
X2356786Y-12532531D01*
X2480596Y-12713484D02*
X2461548Y-12703960D01*
X2461548Y-12703960D02*
X2452024Y-12684912D01*
X2452024Y-12684912D02*
X2452024Y-12513484D01*
X2585358Y-12713484D02*
X2566310Y-12703960D01*
X2566310Y-12703960D02*
X2556786Y-12684912D01*
X2556786Y-12684912D02*
X2556786Y-12513484D01*
X2813929Y-12713484D02*
X2813929Y-12513484D01*
X2813929Y-12513484D02*
X2880596Y-12656341D01*
X2880596Y-12656341D02*
X2947262Y-12513484D01*
X2947262Y-12513484D02*
X2947262Y-12713484D01*
X3128215Y-12713484D02*
X3128215Y-12608722D01*
X3128215Y-12608722D02*
X3118691Y-12589674D01*
X3118691Y-12589674D02*
X3099643Y-12580150D01*
X3099643Y-12580150D02*
X3061548Y-12580150D01*
X3061548Y-12580150D02*
X3042501Y-12589674D01*
X3128215Y-12703960D02*
X3109167Y-12713484D01*
X3109167Y-12713484D02*
X3061548Y-12713484D01*
X3061548Y-12713484D02*
X3042501Y-12703960D01*
X3042501Y-12703960D02*
X3032977Y-12684912D01*
X3032977Y-12684912D02*
X3032977Y-12665865D01*
X3032977Y-12665865D02*
X3042501Y-12646817D01*
X3042501Y-12646817D02*
X3061548Y-12637293D01*
X3061548Y-12637293D02*
X3109167Y-12637293D01*
X3109167Y-12637293D02*
X3128215Y-12627769D01*
X3223453Y-12580150D02*
X3223453Y-12780150D01*
X3223453Y-12589674D02*
X3242501Y-12580150D01*
X3242501Y-12580150D02*
X3280596Y-12580150D01*
X3280596Y-12580150D02*
X3299643Y-12589674D01*
X3299643Y-12589674D02*
X3309167Y-12599198D01*
X3309167Y-12599198D02*
X3318691Y-12618246D01*
X3318691Y-12618246D02*
X3318691Y-12675388D01*
X3318691Y-12675388D02*
X3309167Y-12694436D01*
X3309167Y-12694436D02*
X3299643Y-12703960D01*
X3299643Y-12703960D02*
X3280596Y-12713484D01*
X3280596Y-12713484D02*
X3242501Y-12713484D01*
X3242501Y-12713484D02*
X3223453Y-12703960D01*
X3404405Y-12694436D02*
X3413929Y-12703960D01*
X3413929Y-12703960D02*
X3404405Y-12713484D01*
X3404405Y-12713484D02*
X3394882Y-12703960D01*
X3394882Y-12703960D02*
X3404405Y-12694436D01*
X3404405Y-12694436D02*
X3404405Y-12713484D01*
X3404405Y-12589674D02*
X3413929Y-12599198D01*
X3413929Y-12599198D02*
X3404405Y-12608722D01*
X3404405Y-12608722D02*
X3394882Y-12599198D01*
X3394882Y-12599198D02*
X3404405Y-12589674D01*
X3404405Y-12589674D02*
X3404405Y-12608722D01*
D12*
X1732200Y-13022000D02*
X1772200Y-13062000D01*
X1772200Y-13022000D02*
X1732200Y-13062000D01*
D11*
X2071072Y-12933484D02*
X2090120Y-12933484D01*
X2090120Y-12933484D02*
X2109167Y-12943008D01*
X2109167Y-12943008D02*
X2118691Y-12952531D01*
X2118691Y-12952531D02*
X2128215Y-12971579D01*
X2128215Y-12971579D02*
X2137739Y-13009674D01*
X2137739Y-13009674D02*
X2137739Y-13057293D01*
X2137739Y-13057293D02*
X2128215Y-13095388D01*
X2128215Y-13095388D02*
X2118691Y-13114436D01*
X2118691Y-13114436D02*
X2109167Y-13123960D01*
X2109167Y-13123960D02*
X2090120Y-13133484D01*
X2090120Y-13133484D02*
X2071072Y-13133484D01*
X2071072Y-13133484D02*
X2052024Y-13123960D01*
X2052024Y-13123960D02*
X2042501Y-13114436D01*
X2042501Y-13114436D02*
X2032977Y-13095388D01*
X2032977Y-13095388D02*
X2023453Y-13057293D01*
X2023453Y-13057293D02*
X2023453Y-13009674D01*
X2023453Y-13009674D02*
X2032977Y-12971579D01*
X2032977Y-12971579D02*
X2042501Y-12952531D01*
X2042501Y-12952531D02*
X2052024Y-12943008D01*
X2052024Y-12943008D02*
X2071072Y-12933484D01*
X2223453Y-13114436D02*
X2232977Y-13123960D01*
X2232977Y-13123960D02*
X2223453Y-13133484D01*
X2223453Y-13133484D02*
X2213929Y-13123960D01*
X2213929Y-13123960D02*
X2223453Y-13114436D01*
X2223453Y-13114436D02*
X2223453Y-13133484D01*
X2404405Y-13000150D02*
X2404405Y-13133484D01*
X2356786Y-12923960D02*
X2309167Y-13066817D01*
X2309167Y-13066817D02*
X2432977Y-13066817D01*
X2547263Y-12933484D02*
X2566310Y-12933484D01*
X2566310Y-12933484D02*
X2585358Y-12943008D01*
X2585358Y-12943008D02*
X2594882Y-12952531D01*
X2594882Y-12952531D02*
X2604405Y-12971579D01*
X2604405Y-12971579D02*
X2613929Y-13009674D01*
X2613929Y-13009674D02*
X2613929Y-13057293D01*
X2613929Y-13057293D02*
X2604405Y-13095388D01*
X2604405Y-13095388D02*
X2594882Y-13114436D01*
X2594882Y-13114436D02*
X2585358Y-13123960D01*
X2585358Y-13123960D02*
X2566310Y-13133484D01*
X2566310Y-13133484D02*
X2547263Y-13133484D01*
X2547263Y-13133484D02*
X2528215Y-13123960D01*
X2528215Y-13123960D02*
X2518691Y-13114436D01*
X2518691Y-13114436D02*
X2509167Y-13095388D01*
X2509167Y-13095388D02*
X2499644Y-13057293D01*
X2499644Y-13057293D02*
X2499644Y-13009674D01*
X2499644Y-13009674D02*
X2509167Y-12971579D01*
X2509167Y-12971579D02*
X2518691Y-12952531D01*
X2518691Y-12952531D02*
X2528215Y-12943008D01*
X2528215Y-12943008D02*
X2547263Y-12933484D01*
X2737739Y-12933484D02*
X2756786Y-12933484D01*
X2756786Y-12933484D02*
X2775834Y-12943008D01*
X2775834Y-12943008D02*
X2785358Y-12952531D01*
X2785358Y-12952531D02*
X2794882Y-12971579D01*
X2794882Y-12971579D02*
X2804405Y-13009674D01*
X2804405Y-13009674D02*
X2804405Y-13057293D01*
X2804405Y-13057293D02*
X2794882Y-13095388D01*
X2794882Y-13095388D02*
X2785358Y-13114436D01*
X2785358Y-13114436D02*
X2775834Y-13123960D01*
X2775834Y-13123960D02*
X2756786Y-13133484D01*
X2756786Y-13133484D02*
X2737739Y-13133484D01*
X2737739Y-13133484D02*
X2718691Y-13123960D01*
X2718691Y-13123960D02*
X2709167Y-13114436D01*
X2709167Y-13114436D02*
X2699644Y-13095388D01*
X2699644Y-13095388D02*
X2690120Y-13057293D01*
X2690120Y-13057293D02*
X2690120Y-13009674D01*
X2690120Y-13009674D02*
X2699644Y-12971579D01*
X2699644Y-12971579D02*
X2709167Y-12952531D01*
X2709167Y-12952531D02*
X2718691Y-12943008D01*
X2718691Y-12943008D02*
X2737739Y-12933484D01*
X2890120Y-13133484D02*
X2890120Y-13000150D01*
X2890120Y-13019198D02*
X2899643Y-13009674D01*
X2899643Y-13009674D02*
X2918691Y-13000150D01*
X2918691Y-13000150D02*
X2947263Y-13000150D01*
X2947263Y-13000150D02*
X2966310Y-13009674D01*
X2966310Y-13009674D02*
X2975834Y-13028722D01*
X2975834Y-13028722D02*
X2975834Y-13133484D01*
X2975834Y-13028722D02*
X2985358Y-13009674D01*
X2985358Y-13009674D02*
X3004405Y-13000150D01*
X3004405Y-13000150D02*
X3032977Y-13000150D01*
X3032977Y-13000150D02*
X3052024Y-13009674D01*
X3052024Y-13009674D02*
X3061548Y-13028722D01*
X3061548Y-13028722D02*
X3061548Y-13133484D01*
X3156786Y-13133484D02*
X3156786Y-13000150D01*
X3156786Y-13019198D02*
X3166310Y-13009674D01*
X3166310Y-13009674D02*
X3185358Y-13000150D01*
X3185358Y-13000150D02*
X3213929Y-13000150D01*
X3213929Y-13000150D02*
X3232977Y-13009674D01*
X3232977Y-13009674D02*
X3242501Y-13028722D01*
X3242501Y-13028722D02*
X3242501Y-13133484D01*
X3242501Y-13028722D02*
X3252024Y-13009674D01*
X3252024Y-13009674D02*
X3271072Y-13000150D01*
X3271072Y-13000150D02*
X3299643Y-13000150D01*
X3299643Y-13000150D02*
X3318691Y-13009674D01*
X3318691Y-13009674D02*
X3328215Y-13028722D01*
X3328215Y-13028722D02*
X3328215Y-13133484D01*
X3718691Y-12923960D02*
X3547263Y-13181103D01*
X3975834Y-12933484D02*
X3994882Y-12933484D01*
X3994882Y-12933484D02*
X4013929Y-12943008D01*
X4013929Y-12943008D02*
X4023453Y-12952531D01*
X4023453Y-12952531D02*
X4032977Y-12971579D01*
X4032977Y-12971579D02*
X4042501Y-13009674D01*
X4042501Y-13009674D02*
X4042501Y-13057293D01*
X4042501Y-13057293D02*
X4032977Y-13095388D01*
X4032977Y-13095388D02*
X4023453Y-13114436D01*
X4023453Y-13114436D02*
X4013929Y-13123960D01*
X4013929Y-13123960D02*
X3994882Y-13133484D01*
X3994882Y-13133484D02*
X3975834Y-13133484D01*
X3975834Y-13133484D02*
X3956786Y-13123960D01*
X3956786Y-13123960D02*
X3947263Y-13114436D01*
X3947263Y-13114436D02*
X3937739Y-13095388D01*
X3937739Y-13095388D02*
X3928215Y-13057293D01*
X3928215Y-13057293D02*
X3928215Y-13009674D01*
X3928215Y-13009674D02*
X3937739Y-12971579D01*
X3937739Y-12971579D02*
X3947263Y-12952531D01*
X3947263Y-12952531D02*
X3956786Y-12943008D01*
X3956786Y-12943008D02*
X3975834Y-12933484D01*
X4128215Y-13114436D02*
X4137739Y-13123960D01*
X4137739Y-13123960D02*
X4128215Y-13133484D01*
X4128215Y-13133484D02*
X4118691Y-13123960D01*
X4118691Y-13123960D02*
X4128215Y-13114436D01*
X4128215Y-13114436D02*
X4128215Y-13133484D01*
X4261548Y-12933484D02*
X4280596Y-12933484D01*
X4280596Y-12933484D02*
X4299644Y-12943008D01*
X4299644Y-12943008D02*
X4309168Y-12952531D01*
X4309168Y-12952531D02*
X4318691Y-12971579D01*
X4318691Y-12971579D02*
X4328215Y-13009674D01*
X4328215Y-13009674D02*
X4328215Y-13057293D01*
X4328215Y-13057293D02*
X4318691Y-13095388D01*
X4318691Y-13095388D02*
X4309168Y-13114436D01*
X4309168Y-13114436D02*
X4299644Y-13123960D01*
X4299644Y-13123960D02*
X4280596Y-13133484D01*
X4280596Y-13133484D02*
X4261548Y-13133484D01*
X4261548Y-13133484D02*
X4242501Y-13123960D01*
X4242501Y-13123960D02*
X4232977Y-13114436D01*
X4232977Y-13114436D02*
X4223453Y-13095388D01*
X4223453Y-13095388D02*
X4213929Y-13057293D01*
X4213929Y-13057293D02*
X4213929Y-13009674D01*
X4213929Y-13009674D02*
X4223453Y-12971579D01*
X4223453Y-12971579D02*
X4232977Y-12952531D01*
X4232977Y-12952531D02*
X4242501Y-12943008D01*
X4242501Y-12943008D02*
X4261548Y-12933484D01*
X4518691Y-13133484D02*
X4404406Y-13133484D01*
X4461548Y-13133484D02*
X4461548Y-12933484D01*
X4461548Y-12933484D02*
X4442501Y-12962055D01*
X4442501Y-12962055D02*
X4423453Y-12981103D01*
X4423453Y-12981103D02*
X4404406Y-12990627D01*
X4699644Y-12933484D02*
X4604406Y-12933484D01*
X4604406Y-12933484D02*
X4594882Y-13028722D01*
X4594882Y-13028722D02*
X4604406Y-13019198D01*
X4604406Y-13019198D02*
X4623453Y-13009674D01*
X4623453Y-13009674D02*
X4671072Y-13009674D01*
X4671072Y-13009674D02*
X4690120Y-13019198D01*
X4690120Y-13019198D02*
X4699644Y-13028722D01*
X4699644Y-13028722D02*
X4709168Y-13047769D01*
X4709168Y-13047769D02*
X4709168Y-13095388D01*
X4709168Y-13095388D02*
X4699644Y-13114436D01*
X4699644Y-13114436D02*
X4690120Y-13123960D01*
X4690120Y-13123960D02*
X4671072Y-13133484D01*
X4671072Y-13133484D02*
X4623453Y-13133484D01*
X4623453Y-13133484D02*
X4604406Y-13123960D01*
X4604406Y-13123960D02*
X4594882Y-13114436D01*
X4775834Y-12933484D02*
X4909168Y-12933484D01*
X4909168Y-12933484D02*
X4823453Y-13133484D01*
X4975834Y-12933484D02*
X4975834Y-12971579D01*
X5052025Y-12933484D02*
X5052025Y-12971579D01*
X5347263Y-13209674D02*
X5337739Y-13200150D01*
X5337739Y-13200150D02*
X5318691Y-13171579D01*
X5318691Y-13171579D02*
X5309168Y-13152531D01*
X5309168Y-13152531D02*
X5299644Y-13123960D01*
X5299644Y-13123960D02*
X5290120Y-13076341D01*
X5290120Y-13076341D02*
X5290120Y-13038246D01*
X5290120Y-13038246D02*
X5299644Y-12990627D01*
X5299644Y-12990627D02*
X5309168Y-12962055D01*
X5309168Y-12962055D02*
X5318691Y-12943008D01*
X5318691Y-12943008D02*
X5337739Y-12914436D01*
X5337739Y-12914436D02*
X5347263Y-12904912D01*
X5509168Y-12933484D02*
X5471072Y-12933484D01*
X5471072Y-12933484D02*
X5452025Y-12943008D01*
X5452025Y-12943008D02*
X5442501Y-12952531D01*
X5442501Y-12952531D02*
X5423453Y-12981103D01*
X5423453Y-12981103D02*
X5413930Y-13019198D01*
X5413930Y-13019198D02*
X5413930Y-13095388D01*
X5413930Y-13095388D02*
X5423453Y-13114436D01*
X5423453Y-13114436D02*
X5432977Y-13123960D01*
X5432977Y-13123960D02*
X5452025Y-13133484D01*
X5452025Y-13133484D02*
X5490120Y-13133484D01*
X5490120Y-13133484D02*
X5509168Y-13123960D01*
X5509168Y-13123960D02*
X5518691Y-13114436D01*
X5518691Y-13114436D02*
X5528215Y-13095388D01*
X5528215Y-13095388D02*
X5528215Y-13047769D01*
X5528215Y-13047769D02*
X5518691Y-13028722D01*
X5518691Y-13028722D02*
X5509168Y-13019198D01*
X5509168Y-13019198D02*
X5490120Y-13009674D01*
X5490120Y-13009674D02*
X5452025Y-13009674D01*
X5452025Y-13009674D02*
X5432977Y-13019198D01*
X5432977Y-13019198D02*
X5423453Y-13028722D01*
X5423453Y-13028722D02*
X5413930Y-13047769D01*
X5623453Y-13133484D02*
X5661548Y-13133484D01*
X5661548Y-13133484D02*
X5680596Y-13123960D01*
X5680596Y-13123960D02*
X5690120Y-13114436D01*
X5690120Y-13114436D02*
X5709168Y-13085865D01*
X5709168Y-13085865D02*
X5718691Y-13047769D01*
X5718691Y-13047769D02*
X5718691Y-12971579D01*
X5718691Y-12971579D02*
X5709168Y-12952531D01*
X5709168Y-12952531D02*
X5699644Y-12943008D01*
X5699644Y-12943008D02*
X5680596Y-12933484D01*
X5680596Y-12933484D02*
X5642501Y-12933484D01*
X5642501Y-12933484D02*
X5623453Y-12943008D01*
X5623453Y-12943008D02*
X5613929Y-12952531D01*
X5613929Y-12952531D02*
X5604406Y-12971579D01*
X5604406Y-12971579D02*
X5604406Y-13019198D01*
X5604406Y-13019198D02*
X5613929Y-13038246D01*
X5613929Y-13038246D02*
X5623453Y-13047769D01*
X5623453Y-13047769D02*
X5642501Y-13057293D01*
X5642501Y-13057293D02*
X5680596Y-13057293D01*
X5680596Y-13057293D02*
X5699644Y-13047769D01*
X5699644Y-13047769D02*
X5709168Y-13038246D01*
X5709168Y-13038246D02*
X5718691Y-13019198D01*
X5956787Y-13133484D02*
X5956787Y-12933484D01*
X6042501Y-13133484D02*
X6042501Y-13028722D01*
X6042501Y-13028722D02*
X6032977Y-13009674D01*
X6032977Y-13009674D02*
X6013930Y-13000150D01*
X6013930Y-13000150D02*
X5985358Y-13000150D01*
X5985358Y-13000150D02*
X5966310Y-13009674D01*
X5966310Y-13009674D02*
X5956787Y-13019198D01*
X6166310Y-13133484D02*
X6147263Y-13123960D01*
X6147263Y-13123960D02*
X6137739Y-13114436D01*
X6137739Y-13114436D02*
X6128215Y-13095388D01*
X6128215Y-13095388D02*
X6128215Y-13038246D01*
X6128215Y-13038246D02*
X6137739Y-13019198D01*
X6137739Y-13019198D02*
X6147263Y-13009674D01*
X6147263Y-13009674D02*
X6166310Y-13000150D01*
X6166310Y-13000150D02*
X6194882Y-13000150D01*
X6194882Y-13000150D02*
X6213930Y-13009674D01*
X6213930Y-13009674D02*
X6223453Y-13019198D01*
X6223453Y-13019198D02*
X6232977Y-13038246D01*
X6232977Y-13038246D02*
X6232977Y-13095388D01*
X6232977Y-13095388D02*
X6223453Y-13114436D01*
X6223453Y-13114436D02*
X6213930Y-13123960D01*
X6213930Y-13123960D02*
X6194882Y-13133484D01*
X6194882Y-13133484D02*
X6166310Y-13133484D01*
X6347263Y-13133484D02*
X6328215Y-13123960D01*
X6328215Y-13123960D02*
X6318691Y-13104912D01*
X6318691Y-13104912D02*
X6318691Y-12933484D01*
X6499644Y-13123960D02*
X6480596Y-13133484D01*
X6480596Y-13133484D02*
X6442501Y-13133484D01*
X6442501Y-13133484D02*
X6423453Y-13123960D01*
X6423453Y-13123960D02*
X6413930Y-13104912D01*
X6413930Y-13104912D02*
X6413930Y-13028722D01*
X6413930Y-13028722D02*
X6423453Y-13009674D01*
X6423453Y-13009674D02*
X6442501Y-13000150D01*
X6442501Y-13000150D02*
X6480596Y-13000150D01*
X6480596Y-13000150D02*
X6499644Y-13009674D01*
X6499644Y-13009674D02*
X6509168Y-13028722D01*
X6509168Y-13028722D02*
X6509168Y-13047769D01*
X6509168Y-13047769D02*
X6413930Y-13066817D01*
X6585358Y-13123960D02*
X6604406Y-13133484D01*
X6604406Y-13133484D02*
X6642501Y-13133484D01*
X6642501Y-13133484D02*
X6661549Y-13123960D01*
X6661549Y-13123960D02*
X6671072Y-13104912D01*
X6671072Y-13104912D02*
X6671072Y-13095388D01*
X6671072Y-13095388D02*
X6661549Y-13076341D01*
X6661549Y-13076341D02*
X6642501Y-13066817D01*
X6642501Y-13066817D02*
X6613930Y-13066817D01*
X6613930Y-13066817D02*
X6594882Y-13057293D01*
X6594882Y-13057293D02*
X6585358Y-13038246D01*
X6585358Y-13038246D02*
X6585358Y-13028722D01*
X6585358Y-13028722D02*
X6594882Y-13009674D01*
X6594882Y-13009674D02*
X6613930Y-13000150D01*
X6613930Y-13000150D02*
X6642501Y-13000150D01*
X6642501Y-13000150D02*
X6661549Y-13009674D01*
X6737739Y-13209674D02*
X6747263Y-13200150D01*
X6747263Y-13200150D02*
X6766311Y-13171579D01*
X6766311Y-13171579D02*
X6775834Y-13152531D01*
X6775834Y-13152531D02*
X6785358Y-13123960D01*
X6785358Y-13123960D02*
X6794882Y-13076341D01*
X6794882Y-13076341D02*
X6794882Y-13038246D01*
X6794882Y-13038246D02*
X6785358Y-12990627D01*
X6785358Y-12990627D02*
X6775834Y-12962055D01*
X6775834Y-12962055D02*
X6766311Y-12943008D01*
X6766311Y-12943008D02*
X6747263Y-12914436D01*
X6747263Y-12914436D02*
X6737739Y-12904912D01*
D12*
X1772200Y-13306000D02*
G75*
G02*
X1692200Y-13306000I-40000J0D01*
G01*
X1692200Y-13306000D02*
G75*
G02*
X1772200Y-13306000I40000J0D01*
G01*
D11*
X2071072Y-13197484D02*
X2090120Y-13197484D01*
X2090120Y-13197484D02*
X2109167Y-13207008D01*
X2109167Y-13207008D02*
X2118691Y-13216531D01*
X2118691Y-13216531D02*
X2128215Y-13235579D01*
X2128215Y-13235579D02*
X2137739Y-13273674D01*
X2137739Y-13273674D02*
X2137739Y-13321293D01*
X2137739Y-13321293D02*
X2128215Y-13359388D01*
X2128215Y-13359388D02*
X2118691Y-13378436D01*
X2118691Y-13378436D02*
X2109167Y-13387960D01*
X2109167Y-13387960D02*
X2090120Y-13397484D01*
X2090120Y-13397484D02*
X2071072Y-13397484D01*
X2071072Y-13397484D02*
X2052024Y-13387960D01*
X2052024Y-13387960D02*
X2042501Y-13378436D01*
X2042501Y-13378436D02*
X2032977Y-13359388D01*
X2032977Y-13359388D02*
X2023453Y-13321293D01*
X2023453Y-13321293D02*
X2023453Y-13273674D01*
X2023453Y-13273674D02*
X2032977Y-13235579D01*
X2032977Y-13235579D02*
X2042501Y-13216531D01*
X2042501Y-13216531D02*
X2052024Y-13207008D01*
X2052024Y-13207008D02*
X2071072Y-13197484D01*
X2223453Y-13378436D02*
X2232977Y-13387960D01*
X2232977Y-13387960D02*
X2223453Y-13397484D01*
X2223453Y-13397484D02*
X2213929Y-13387960D01*
X2213929Y-13387960D02*
X2223453Y-13378436D01*
X2223453Y-13378436D02*
X2223453Y-13397484D01*
X2347263Y-13283198D02*
X2328215Y-13273674D01*
X2328215Y-13273674D02*
X2318691Y-13264150D01*
X2318691Y-13264150D02*
X2309167Y-13245103D01*
X2309167Y-13245103D02*
X2309167Y-13235579D01*
X2309167Y-13235579D02*
X2318691Y-13216531D01*
X2318691Y-13216531D02*
X2328215Y-13207008D01*
X2328215Y-13207008D02*
X2347263Y-13197484D01*
X2347263Y-13197484D02*
X2385358Y-13197484D01*
X2385358Y-13197484D02*
X2404405Y-13207008D01*
X2404405Y-13207008D02*
X2413929Y-13216531D01*
X2413929Y-13216531D02*
X2423453Y-13235579D01*
X2423453Y-13235579D02*
X2423453Y-13245103D01*
X2423453Y-13245103D02*
X2413929Y-13264150D01*
X2413929Y-13264150D02*
X2404405Y-13273674D01*
X2404405Y-13273674D02*
X2385358Y-13283198D01*
X2385358Y-13283198D02*
X2347263Y-13283198D01*
X2347263Y-13283198D02*
X2328215Y-13292722D01*
X2328215Y-13292722D02*
X2318691Y-13302246D01*
X2318691Y-13302246D02*
X2309167Y-13321293D01*
X2309167Y-13321293D02*
X2309167Y-13359388D01*
X2309167Y-13359388D02*
X2318691Y-13378436D01*
X2318691Y-13378436D02*
X2328215Y-13387960D01*
X2328215Y-13387960D02*
X2347263Y-13397484D01*
X2347263Y-13397484D02*
X2385358Y-13397484D01*
X2385358Y-13397484D02*
X2404405Y-13387960D01*
X2404405Y-13387960D02*
X2413929Y-13378436D01*
X2413929Y-13378436D02*
X2423453Y-13359388D01*
X2423453Y-13359388D02*
X2423453Y-13321293D01*
X2423453Y-13321293D02*
X2413929Y-13302246D01*
X2413929Y-13302246D02*
X2404405Y-13292722D01*
X2404405Y-13292722D02*
X2385358Y-13283198D01*
X2547263Y-13197484D02*
X2566310Y-13197484D01*
X2566310Y-13197484D02*
X2585358Y-13207008D01*
X2585358Y-13207008D02*
X2594882Y-13216531D01*
X2594882Y-13216531D02*
X2604405Y-13235579D01*
X2604405Y-13235579D02*
X2613929Y-13273674D01*
X2613929Y-13273674D02*
X2613929Y-13321293D01*
X2613929Y-13321293D02*
X2604405Y-13359388D01*
X2604405Y-13359388D02*
X2594882Y-13378436D01*
X2594882Y-13378436D02*
X2585358Y-13387960D01*
X2585358Y-13387960D02*
X2566310Y-13397484D01*
X2566310Y-13397484D02*
X2547263Y-13397484D01*
X2547263Y-13397484D02*
X2528215Y-13387960D01*
X2528215Y-13387960D02*
X2518691Y-13378436D01*
X2518691Y-13378436D02*
X2509167Y-13359388D01*
X2509167Y-13359388D02*
X2499644Y-13321293D01*
X2499644Y-13321293D02*
X2499644Y-13273674D01*
X2499644Y-13273674D02*
X2509167Y-13235579D01*
X2509167Y-13235579D02*
X2518691Y-13216531D01*
X2518691Y-13216531D02*
X2528215Y-13207008D01*
X2528215Y-13207008D02*
X2547263Y-13197484D01*
X2737739Y-13197484D02*
X2756786Y-13197484D01*
X2756786Y-13197484D02*
X2775834Y-13207008D01*
X2775834Y-13207008D02*
X2785358Y-13216531D01*
X2785358Y-13216531D02*
X2794882Y-13235579D01*
X2794882Y-13235579D02*
X2804405Y-13273674D01*
X2804405Y-13273674D02*
X2804405Y-13321293D01*
X2804405Y-13321293D02*
X2794882Y-13359388D01*
X2794882Y-13359388D02*
X2785358Y-13378436D01*
X2785358Y-13378436D02*
X2775834Y-13387960D01*
X2775834Y-13387960D02*
X2756786Y-13397484D01*
X2756786Y-13397484D02*
X2737739Y-13397484D01*
X2737739Y-13397484D02*
X2718691Y-13387960D01*
X2718691Y-13387960D02*
X2709167Y-13378436D01*
X2709167Y-13378436D02*
X2699644Y-13359388D01*
X2699644Y-13359388D02*
X2690120Y-13321293D01*
X2690120Y-13321293D02*
X2690120Y-13273674D01*
X2690120Y-13273674D02*
X2699644Y-13235579D01*
X2699644Y-13235579D02*
X2709167Y-13216531D01*
X2709167Y-13216531D02*
X2718691Y-13207008D01*
X2718691Y-13207008D02*
X2737739Y-13197484D01*
X2890120Y-13397484D02*
X2890120Y-13264150D01*
X2890120Y-13283198D02*
X2899643Y-13273674D01*
X2899643Y-13273674D02*
X2918691Y-13264150D01*
X2918691Y-13264150D02*
X2947263Y-13264150D01*
X2947263Y-13264150D02*
X2966310Y-13273674D01*
X2966310Y-13273674D02*
X2975834Y-13292722D01*
X2975834Y-13292722D02*
X2975834Y-13397484D01*
X2975834Y-13292722D02*
X2985358Y-13273674D01*
X2985358Y-13273674D02*
X3004405Y-13264150D01*
X3004405Y-13264150D02*
X3032977Y-13264150D01*
X3032977Y-13264150D02*
X3052024Y-13273674D01*
X3052024Y-13273674D02*
X3061548Y-13292722D01*
X3061548Y-13292722D02*
X3061548Y-13397484D01*
X3156786Y-13397484D02*
X3156786Y-13264150D01*
X3156786Y-13283198D02*
X3166310Y-13273674D01*
X3166310Y-13273674D02*
X3185358Y-13264150D01*
X3185358Y-13264150D02*
X3213929Y-13264150D01*
X3213929Y-13264150D02*
X3232977Y-13273674D01*
X3232977Y-13273674D02*
X3242501Y-13292722D01*
X3242501Y-13292722D02*
X3242501Y-13397484D01*
X3242501Y-13292722D02*
X3252024Y-13273674D01*
X3252024Y-13273674D02*
X3271072Y-13264150D01*
X3271072Y-13264150D02*
X3299643Y-13264150D01*
X3299643Y-13264150D02*
X3318691Y-13273674D01*
X3318691Y-13273674D02*
X3328215Y-13292722D01*
X3328215Y-13292722D02*
X3328215Y-13397484D01*
X3718691Y-13187960D02*
X3547263Y-13445103D01*
X3975834Y-13197484D02*
X3994882Y-13197484D01*
X3994882Y-13197484D02*
X4013929Y-13207008D01*
X4013929Y-13207008D02*
X4023453Y-13216531D01*
X4023453Y-13216531D02*
X4032977Y-13235579D01*
X4032977Y-13235579D02*
X4042501Y-13273674D01*
X4042501Y-13273674D02*
X4042501Y-13321293D01*
X4042501Y-13321293D02*
X4032977Y-13359388D01*
X4032977Y-13359388D02*
X4023453Y-13378436D01*
X4023453Y-13378436D02*
X4013929Y-13387960D01*
X4013929Y-13387960D02*
X3994882Y-13397484D01*
X3994882Y-13397484D02*
X3975834Y-13397484D01*
X3975834Y-13397484D02*
X3956786Y-13387960D01*
X3956786Y-13387960D02*
X3947263Y-13378436D01*
X3947263Y-13378436D02*
X3937739Y-13359388D01*
X3937739Y-13359388D02*
X3928215Y-13321293D01*
X3928215Y-13321293D02*
X3928215Y-13273674D01*
X3928215Y-13273674D02*
X3937739Y-13235579D01*
X3937739Y-13235579D02*
X3947263Y-13216531D01*
X3947263Y-13216531D02*
X3956786Y-13207008D01*
X3956786Y-13207008D02*
X3975834Y-13197484D01*
X4128215Y-13378436D02*
X4137739Y-13387960D01*
X4137739Y-13387960D02*
X4128215Y-13397484D01*
X4128215Y-13397484D02*
X4118691Y-13387960D01*
X4118691Y-13387960D02*
X4128215Y-13378436D01*
X4128215Y-13378436D02*
X4128215Y-13397484D01*
X4261548Y-13197484D02*
X4280596Y-13197484D01*
X4280596Y-13197484D02*
X4299644Y-13207008D01*
X4299644Y-13207008D02*
X4309168Y-13216531D01*
X4309168Y-13216531D02*
X4318691Y-13235579D01*
X4318691Y-13235579D02*
X4328215Y-13273674D01*
X4328215Y-13273674D02*
X4328215Y-13321293D01*
X4328215Y-13321293D02*
X4318691Y-13359388D01*
X4318691Y-13359388D02*
X4309168Y-13378436D01*
X4309168Y-13378436D02*
X4299644Y-13387960D01*
X4299644Y-13387960D02*
X4280596Y-13397484D01*
X4280596Y-13397484D02*
X4261548Y-13397484D01*
X4261548Y-13397484D02*
X4242501Y-13387960D01*
X4242501Y-13387960D02*
X4232977Y-13378436D01*
X4232977Y-13378436D02*
X4223453Y-13359388D01*
X4223453Y-13359388D02*
X4213929Y-13321293D01*
X4213929Y-13321293D02*
X4213929Y-13273674D01*
X4213929Y-13273674D02*
X4223453Y-13235579D01*
X4223453Y-13235579D02*
X4232977Y-13216531D01*
X4232977Y-13216531D02*
X4242501Y-13207008D01*
X4242501Y-13207008D02*
X4261548Y-13197484D01*
X4394882Y-13197484D02*
X4518691Y-13197484D01*
X4518691Y-13197484D02*
X4452025Y-13273674D01*
X4452025Y-13273674D02*
X4480596Y-13273674D01*
X4480596Y-13273674D02*
X4499644Y-13283198D01*
X4499644Y-13283198D02*
X4509168Y-13292722D01*
X4509168Y-13292722D02*
X4518691Y-13311769D01*
X4518691Y-13311769D02*
X4518691Y-13359388D01*
X4518691Y-13359388D02*
X4509168Y-13378436D01*
X4509168Y-13378436D02*
X4499644Y-13387960D01*
X4499644Y-13387960D02*
X4480596Y-13397484D01*
X4480596Y-13397484D02*
X4423453Y-13397484D01*
X4423453Y-13397484D02*
X4404406Y-13387960D01*
X4404406Y-13387960D02*
X4394882Y-13378436D01*
X4709168Y-13397484D02*
X4594882Y-13397484D01*
X4652025Y-13397484D02*
X4652025Y-13197484D01*
X4652025Y-13197484D02*
X4632977Y-13226055D01*
X4632977Y-13226055D02*
X4613929Y-13245103D01*
X4613929Y-13245103D02*
X4594882Y-13254627D01*
X4890120Y-13197484D02*
X4794882Y-13197484D01*
X4794882Y-13197484D02*
X4785358Y-13292722D01*
X4785358Y-13292722D02*
X4794882Y-13283198D01*
X4794882Y-13283198D02*
X4813929Y-13273674D01*
X4813929Y-13273674D02*
X4861549Y-13273674D01*
X4861549Y-13273674D02*
X4880596Y-13283198D01*
X4880596Y-13283198D02*
X4890120Y-13292722D01*
X4890120Y-13292722D02*
X4899644Y-13311769D01*
X4899644Y-13311769D02*
X4899644Y-13359388D01*
X4899644Y-13359388D02*
X4890120Y-13378436D01*
X4890120Y-13378436D02*
X4880596Y-13387960D01*
X4880596Y-13387960D02*
X4861549Y-13397484D01*
X4861549Y-13397484D02*
X4813929Y-13397484D01*
X4813929Y-13397484D02*
X4794882Y-13387960D01*
X4794882Y-13387960D02*
X4785358Y-13378436D01*
X4975834Y-13197484D02*
X4975834Y-13235579D01*
X5052025Y-13197484D02*
X5052025Y-13235579D01*
X5347263Y-13473674D02*
X5337739Y-13464150D01*
X5337739Y-13464150D02*
X5318691Y-13435579D01*
X5318691Y-13435579D02*
X5309168Y-13416531D01*
X5309168Y-13416531D02*
X5299644Y-13387960D01*
X5299644Y-13387960D02*
X5290120Y-13340341D01*
X5290120Y-13340341D02*
X5290120Y-13302246D01*
X5290120Y-13302246D02*
X5299644Y-13254627D01*
X5299644Y-13254627D02*
X5309168Y-13226055D01*
X5309168Y-13226055D02*
X5318691Y-13207008D01*
X5318691Y-13207008D02*
X5337739Y-13178436D01*
X5337739Y-13178436D02*
X5347263Y-13168912D01*
X5528215Y-13397484D02*
X5413930Y-13397484D01*
X5471072Y-13397484D02*
X5471072Y-13197484D01*
X5471072Y-13197484D02*
X5452025Y-13226055D01*
X5452025Y-13226055D02*
X5432977Y-13245103D01*
X5432977Y-13245103D02*
X5413930Y-13254627D01*
X5718691Y-13397484D02*
X5604406Y-13397484D01*
X5661548Y-13397484D02*
X5661548Y-13197484D01*
X5661548Y-13197484D02*
X5642501Y-13226055D01*
X5642501Y-13226055D02*
X5623453Y-13245103D01*
X5623453Y-13245103D02*
X5604406Y-13254627D01*
X5909168Y-13397484D02*
X5794882Y-13397484D01*
X5852025Y-13397484D02*
X5852025Y-13197484D01*
X5852025Y-13197484D02*
X5832977Y-13226055D01*
X5832977Y-13226055D02*
X5813929Y-13245103D01*
X5813929Y-13245103D02*
X5794882Y-13254627D01*
X6147263Y-13397484D02*
X6147263Y-13197484D01*
X6232977Y-13397484D02*
X6232977Y-13292722D01*
X6232977Y-13292722D02*
X6223453Y-13273674D01*
X6223453Y-13273674D02*
X6204406Y-13264150D01*
X6204406Y-13264150D02*
X6175834Y-13264150D01*
X6175834Y-13264150D02*
X6156787Y-13273674D01*
X6156787Y-13273674D02*
X6147263Y-13283198D01*
X6356787Y-13397484D02*
X6337739Y-13387960D01*
X6337739Y-13387960D02*
X6328215Y-13378436D01*
X6328215Y-13378436D02*
X6318691Y-13359388D01*
X6318691Y-13359388D02*
X6318691Y-13302246D01*
X6318691Y-13302246D02*
X6328215Y-13283198D01*
X6328215Y-13283198D02*
X6337739Y-13273674D01*
X6337739Y-13273674D02*
X6356787Y-13264150D01*
X6356787Y-13264150D02*
X6385358Y-13264150D01*
X6385358Y-13264150D02*
X6404406Y-13273674D01*
X6404406Y-13273674D02*
X6413930Y-13283198D01*
X6413930Y-13283198D02*
X6423453Y-13302246D01*
X6423453Y-13302246D02*
X6423453Y-13359388D01*
X6423453Y-13359388D02*
X6413930Y-13378436D01*
X6413930Y-13378436D02*
X6404406Y-13387960D01*
X6404406Y-13387960D02*
X6385358Y-13397484D01*
X6385358Y-13397484D02*
X6356787Y-13397484D01*
X6537739Y-13397484D02*
X6518691Y-13387960D01*
X6518691Y-13387960D02*
X6509168Y-13368912D01*
X6509168Y-13368912D02*
X6509168Y-13197484D01*
X6690120Y-13387960D02*
X6671072Y-13397484D01*
X6671072Y-13397484D02*
X6632977Y-13397484D01*
X6632977Y-13397484D02*
X6613930Y-13387960D01*
X6613930Y-13387960D02*
X6604406Y-13368912D01*
X6604406Y-13368912D02*
X6604406Y-13292722D01*
X6604406Y-13292722D02*
X6613930Y-13273674D01*
X6613930Y-13273674D02*
X6632977Y-13264150D01*
X6632977Y-13264150D02*
X6671072Y-13264150D01*
X6671072Y-13264150D02*
X6690120Y-13273674D01*
X6690120Y-13273674D02*
X6699644Y-13292722D01*
X6699644Y-13292722D02*
X6699644Y-13311769D01*
X6699644Y-13311769D02*
X6604406Y-13330817D01*
X6775834Y-13387960D02*
X6794882Y-13397484D01*
X6794882Y-13397484D02*
X6832977Y-13397484D01*
X6832977Y-13397484D02*
X6852025Y-13387960D01*
X6852025Y-13387960D02*
X6861549Y-13368912D01*
X6861549Y-13368912D02*
X6861549Y-13359388D01*
X6861549Y-13359388D02*
X6852025Y-13340341D01*
X6852025Y-13340341D02*
X6832977Y-13330817D01*
X6832977Y-13330817D02*
X6804406Y-13330817D01*
X6804406Y-13330817D02*
X6785358Y-13321293D01*
X6785358Y-13321293D02*
X6775834Y-13302246D01*
X6775834Y-13302246D02*
X6775834Y-13292722D01*
X6775834Y-13292722D02*
X6785358Y-13273674D01*
X6785358Y-13273674D02*
X6804406Y-13264150D01*
X6804406Y-13264150D02*
X6832977Y-13264150D01*
X6832977Y-13264150D02*
X6852025Y-13273674D01*
X6928215Y-13473674D02*
X6937739Y-13464150D01*
X6937739Y-13464150D02*
X6956787Y-13435579D01*
X6956787Y-13435579D02*
X6966311Y-13416531D01*
X6966311Y-13416531D02*
X6975834Y-13387960D01*
X6975834Y-13387960D02*
X6985358Y-13340341D01*
X6985358Y-13340341D02*
X6985358Y-13302246D01*
X6985358Y-13302246D02*
X6975834Y-13254627D01*
X6975834Y-13254627D02*
X6966311Y-13226055D01*
X6966311Y-13226055D02*
X6956787Y-13207008D01*
X6956787Y-13207008D02*
X6937739Y-13178436D01*
X6937739Y-13178436D02*
X6928215Y-13168912D01*
D12*
X1731560Y-13529360D02*
X1731560Y-13610640D01*
X1690920Y-13570000D02*
X1772200Y-13570000D01*
D11*
X2071072Y-13461484D02*
X2090120Y-13461484D01*
X2090120Y-13461484D02*
X2109167Y-13471008D01*
X2109167Y-13471008D02*
X2118691Y-13480531D01*
X2118691Y-13480531D02*
X2128215Y-13499579D01*
X2128215Y-13499579D02*
X2137739Y-13537674D01*
X2137739Y-13537674D02*
X2137739Y-13585293D01*
X2137739Y-13585293D02*
X2128215Y-13623388D01*
X2128215Y-13623388D02*
X2118691Y-13642436D01*
X2118691Y-13642436D02*
X2109167Y-13651960D01*
X2109167Y-13651960D02*
X2090120Y-13661484D01*
X2090120Y-13661484D02*
X2071072Y-13661484D01*
X2071072Y-13661484D02*
X2052024Y-13651960D01*
X2052024Y-13651960D02*
X2042501Y-13642436D01*
X2042501Y-13642436D02*
X2032977Y-13623388D01*
X2032977Y-13623388D02*
X2023453Y-13585293D01*
X2023453Y-13585293D02*
X2023453Y-13537674D01*
X2023453Y-13537674D02*
X2032977Y-13499579D01*
X2032977Y-13499579D02*
X2042501Y-13480531D01*
X2042501Y-13480531D02*
X2052024Y-13471008D01*
X2052024Y-13471008D02*
X2071072Y-13461484D01*
X2223453Y-13642436D02*
X2232977Y-13651960D01*
X2232977Y-13651960D02*
X2223453Y-13661484D01*
X2223453Y-13661484D02*
X2213929Y-13651960D01*
X2213929Y-13651960D02*
X2223453Y-13642436D01*
X2223453Y-13642436D02*
X2223453Y-13661484D01*
X2347263Y-13547198D02*
X2328215Y-13537674D01*
X2328215Y-13537674D02*
X2318691Y-13528150D01*
X2318691Y-13528150D02*
X2309167Y-13509103D01*
X2309167Y-13509103D02*
X2309167Y-13499579D01*
X2309167Y-13499579D02*
X2318691Y-13480531D01*
X2318691Y-13480531D02*
X2328215Y-13471008D01*
X2328215Y-13471008D02*
X2347263Y-13461484D01*
X2347263Y-13461484D02*
X2385358Y-13461484D01*
X2385358Y-13461484D02*
X2404405Y-13471008D01*
X2404405Y-13471008D02*
X2413929Y-13480531D01*
X2413929Y-13480531D02*
X2423453Y-13499579D01*
X2423453Y-13499579D02*
X2423453Y-13509103D01*
X2423453Y-13509103D02*
X2413929Y-13528150D01*
X2413929Y-13528150D02*
X2404405Y-13537674D01*
X2404405Y-13537674D02*
X2385358Y-13547198D01*
X2385358Y-13547198D02*
X2347263Y-13547198D01*
X2347263Y-13547198D02*
X2328215Y-13556722D01*
X2328215Y-13556722D02*
X2318691Y-13566246D01*
X2318691Y-13566246D02*
X2309167Y-13585293D01*
X2309167Y-13585293D02*
X2309167Y-13623388D01*
X2309167Y-13623388D02*
X2318691Y-13642436D01*
X2318691Y-13642436D02*
X2328215Y-13651960D01*
X2328215Y-13651960D02*
X2347263Y-13661484D01*
X2347263Y-13661484D02*
X2385358Y-13661484D01*
X2385358Y-13661484D02*
X2404405Y-13651960D01*
X2404405Y-13651960D02*
X2413929Y-13642436D01*
X2413929Y-13642436D02*
X2423453Y-13623388D01*
X2423453Y-13623388D02*
X2423453Y-13585293D01*
X2423453Y-13585293D02*
X2413929Y-13566246D01*
X2413929Y-13566246D02*
X2404405Y-13556722D01*
X2404405Y-13556722D02*
X2385358Y-13547198D01*
X2613929Y-13661484D02*
X2499644Y-13661484D01*
X2556786Y-13661484D02*
X2556786Y-13461484D01*
X2556786Y-13461484D02*
X2537739Y-13490055D01*
X2537739Y-13490055D02*
X2518691Y-13509103D01*
X2518691Y-13509103D02*
X2499644Y-13518627D01*
X2680596Y-13461484D02*
X2804405Y-13461484D01*
X2804405Y-13461484D02*
X2737739Y-13537674D01*
X2737739Y-13537674D02*
X2766310Y-13537674D01*
X2766310Y-13537674D02*
X2785358Y-13547198D01*
X2785358Y-13547198D02*
X2794882Y-13556722D01*
X2794882Y-13556722D02*
X2804405Y-13575769D01*
X2804405Y-13575769D02*
X2804405Y-13623388D01*
X2804405Y-13623388D02*
X2794882Y-13642436D01*
X2794882Y-13642436D02*
X2785358Y-13651960D01*
X2785358Y-13651960D02*
X2766310Y-13661484D01*
X2766310Y-13661484D02*
X2709167Y-13661484D01*
X2709167Y-13661484D02*
X2690120Y-13651960D01*
X2690120Y-13651960D02*
X2680596Y-13642436D01*
X2890120Y-13661484D02*
X2890120Y-13528150D01*
X2890120Y-13547198D02*
X2899643Y-13537674D01*
X2899643Y-13537674D02*
X2918691Y-13528150D01*
X2918691Y-13528150D02*
X2947263Y-13528150D01*
X2947263Y-13528150D02*
X2966310Y-13537674D01*
X2966310Y-13537674D02*
X2975834Y-13556722D01*
X2975834Y-13556722D02*
X2975834Y-13661484D01*
X2975834Y-13556722D02*
X2985358Y-13537674D01*
X2985358Y-13537674D02*
X3004405Y-13528150D01*
X3004405Y-13528150D02*
X3032977Y-13528150D01*
X3032977Y-13528150D02*
X3052024Y-13537674D01*
X3052024Y-13537674D02*
X3061548Y-13556722D01*
X3061548Y-13556722D02*
X3061548Y-13661484D01*
X3156786Y-13661484D02*
X3156786Y-13528150D01*
X3156786Y-13547198D02*
X3166310Y-13537674D01*
X3166310Y-13537674D02*
X3185358Y-13528150D01*
X3185358Y-13528150D02*
X3213929Y-13528150D01*
X3213929Y-13528150D02*
X3232977Y-13537674D01*
X3232977Y-13537674D02*
X3242501Y-13556722D01*
X3242501Y-13556722D02*
X3242501Y-13661484D01*
X3242501Y-13556722D02*
X3252024Y-13537674D01*
X3252024Y-13537674D02*
X3271072Y-13528150D01*
X3271072Y-13528150D02*
X3299643Y-13528150D01*
X3299643Y-13528150D02*
X3318691Y-13537674D01*
X3318691Y-13537674D02*
X3328215Y-13556722D01*
X3328215Y-13556722D02*
X3328215Y-13661484D01*
X3718691Y-13451960D02*
X3547263Y-13709103D01*
X3975834Y-13461484D02*
X3994882Y-13461484D01*
X3994882Y-13461484D02*
X4013929Y-13471008D01*
X4013929Y-13471008D02*
X4023453Y-13480531D01*
X4023453Y-13480531D02*
X4032977Y-13499579D01*
X4032977Y-13499579D02*
X4042501Y-13537674D01*
X4042501Y-13537674D02*
X4042501Y-13585293D01*
X4042501Y-13585293D02*
X4032977Y-13623388D01*
X4032977Y-13623388D02*
X4023453Y-13642436D01*
X4023453Y-13642436D02*
X4013929Y-13651960D01*
X4013929Y-13651960D02*
X3994882Y-13661484D01*
X3994882Y-13661484D02*
X3975834Y-13661484D01*
X3975834Y-13661484D02*
X3956786Y-13651960D01*
X3956786Y-13651960D02*
X3947263Y-13642436D01*
X3947263Y-13642436D02*
X3937739Y-13623388D01*
X3937739Y-13623388D02*
X3928215Y-13585293D01*
X3928215Y-13585293D02*
X3928215Y-13537674D01*
X3928215Y-13537674D02*
X3937739Y-13499579D01*
X3937739Y-13499579D02*
X3947263Y-13480531D01*
X3947263Y-13480531D02*
X3956786Y-13471008D01*
X3956786Y-13471008D02*
X3975834Y-13461484D01*
X4128215Y-13642436D02*
X4137739Y-13651960D01*
X4137739Y-13651960D02*
X4128215Y-13661484D01*
X4128215Y-13661484D02*
X4118691Y-13651960D01*
X4118691Y-13651960D02*
X4128215Y-13642436D01*
X4128215Y-13642436D02*
X4128215Y-13661484D01*
X4261548Y-13461484D02*
X4280596Y-13461484D01*
X4280596Y-13461484D02*
X4299644Y-13471008D01*
X4299644Y-13471008D02*
X4309168Y-13480531D01*
X4309168Y-13480531D02*
X4318691Y-13499579D01*
X4318691Y-13499579D02*
X4328215Y-13537674D01*
X4328215Y-13537674D02*
X4328215Y-13585293D01*
X4328215Y-13585293D02*
X4318691Y-13623388D01*
X4318691Y-13623388D02*
X4309168Y-13642436D01*
X4309168Y-13642436D02*
X4299644Y-13651960D01*
X4299644Y-13651960D02*
X4280596Y-13661484D01*
X4280596Y-13661484D02*
X4261548Y-13661484D01*
X4261548Y-13661484D02*
X4242501Y-13651960D01*
X4242501Y-13651960D02*
X4232977Y-13642436D01*
X4232977Y-13642436D02*
X4223453Y-13623388D01*
X4223453Y-13623388D02*
X4213929Y-13585293D01*
X4213929Y-13585293D02*
X4213929Y-13537674D01*
X4213929Y-13537674D02*
X4223453Y-13499579D01*
X4223453Y-13499579D02*
X4232977Y-13480531D01*
X4232977Y-13480531D02*
X4242501Y-13471008D01*
X4242501Y-13471008D02*
X4261548Y-13461484D01*
X4394882Y-13461484D02*
X4518691Y-13461484D01*
X4518691Y-13461484D02*
X4452025Y-13537674D01*
X4452025Y-13537674D02*
X4480596Y-13537674D01*
X4480596Y-13537674D02*
X4499644Y-13547198D01*
X4499644Y-13547198D02*
X4509168Y-13556722D01*
X4509168Y-13556722D02*
X4518691Y-13575769D01*
X4518691Y-13575769D02*
X4518691Y-13623388D01*
X4518691Y-13623388D02*
X4509168Y-13642436D01*
X4509168Y-13642436D02*
X4499644Y-13651960D01*
X4499644Y-13651960D02*
X4480596Y-13661484D01*
X4480596Y-13661484D02*
X4423453Y-13661484D01*
X4423453Y-13661484D02*
X4404406Y-13651960D01*
X4404406Y-13651960D02*
X4394882Y-13642436D01*
X4594882Y-13480531D02*
X4604406Y-13471008D01*
X4604406Y-13471008D02*
X4623453Y-13461484D01*
X4623453Y-13461484D02*
X4671072Y-13461484D01*
X4671072Y-13461484D02*
X4690120Y-13471008D01*
X4690120Y-13471008D02*
X4699644Y-13480531D01*
X4699644Y-13480531D02*
X4709168Y-13499579D01*
X4709168Y-13499579D02*
X4709168Y-13518627D01*
X4709168Y-13518627D02*
X4699644Y-13547198D01*
X4699644Y-13547198D02*
X4585358Y-13661484D01*
X4585358Y-13661484D02*
X4709168Y-13661484D01*
X4832977Y-13461484D02*
X4852025Y-13461484D01*
X4852025Y-13461484D02*
X4871072Y-13471008D01*
X4871072Y-13471008D02*
X4880596Y-13480531D01*
X4880596Y-13480531D02*
X4890120Y-13499579D01*
X4890120Y-13499579D02*
X4899644Y-13537674D01*
X4899644Y-13537674D02*
X4899644Y-13585293D01*
X4899644Y-13585293D02*
X4890120Y-13623388D01*
X4890120Y-13623388D02*
X4880596Y-13642436D01*
X4880596Y-13642436D02*
X4871072Y-13651960D01*
X4871072Y-13651960D02*
X4852025Y-13661484D01*
X4852025Y-13661484D02*
X4832977Y-13661484D01*
X4832977Y-13661484D02*
X4813929Y-13651960D01*
X4813929Y-13651960D02*
X4804406Y-13642436D01*
X4804406Y-13642436D02*
X4794882Y-13623388D01*
X4794882Y-13623388D02*
X4785358Y-13585293D01*
X4785358Y-13585293D02*
X4785358Y-13537674D01*
X4785358Y-13537674D02*
X4794882Y-13499579D01*
X4794882Y-13499579D02*
X4804406Y-13480531D01*
X4804406Y-13480531D02*
X4813929Y-13471008D01*
X4813929Y-13471008D02*
X4832977Y-13461484D01*
X4975834Y-13461484D02*
X4975834Y-13499579D01*
X5052025Y-13461484D02*
X5052025Y-13499579D01*
X5347263Y-13737674D02*
X5337739Y-13728150D01*
X5337739Y-13728150D02*
X5318691Y-13699579D01*
X5318691Y-13699579D02*
X5309168Y-13680531D01*
X5309168Y-13680531D02*
X5299644Y-13651960D01*
X5299644Y-13651960D02*
X5290120Y-13604341D01*
X5290120Y-13604341D02*
X5290120Y-13566246D01*
X5290120Y-13566246D02*
X5299644Y-13518627D01*
X5299644Y-13518627D02*
X5309168Y-13490055D01*
X5309168Y-13490055D02*
X5318691Y-13471008D01*
X5318691Y-13471008D02*
X5337739Y-13442436D01*
X5337739Y-13442436D02*
X5347263Y-13432912D01*
X5509168Y-13528150D02*
X5509168Y-13661484D01*
X5461549Y-13451960D02*
X5413930Y-13594817D01*
X5413930Y-13594817D02*
X5537739Y-13594817D01*
X5699644Y-13528150D02*
X5699644Y-13661484D01*
X5652025Y-13451960D02*
X5604406Y-13594817D01*
X5604406Y-13594817D02*
X5728215Y-13594817D01*
X5832977Y-13547198D02*
X5813929Y-13537674D01*
X5813929Y-13537674D02*
X5804406Y-13528150D01*
X5804406Y-13528150D02*
X5794882Y-13509103D01*
X5794882Y-13509103D02*
X5794882Y-13499579D01*
X5794882Y-13499579D02*
X5804406Y-13480531D01*
X5804406Y-13480531D02*
X5813929Y-13471008D01*
X5813929Y-13471008D02*
X5832977Y-13461484D01*
X5832977Y-13461484D02*
X5871072Y-13461484D01*
X5871072Y-13461484D02*
X5890120Y-13471008D01*
X5890120Y-13471008D02*
X5899644Y-13480531D01*
X5899644Y-13480531D02*
X5909168Y-13499579D01*
X5909168Y-13499579D02*
X5909168Y-13509103D01*
X5909168Y-13509103D02*
X5899644Y-13528150D01*
X5899644Y-13528150D02*
X5890120Y-13537674D01*
X5890120Y-13537674D02*
X5871072Y-13547198D01*
X5871072Y-13547198D02*
X5832977Y-13547198D01*
X5832977Y-13547198D02*
X5813929Y-13556722D01*
X5813929Y-13556722D02*
X5804406Y-13566246D01*
X5804406Y-13566246D02*
X5794882Y-13585293D01*
X5794882Y-13585293D02*
X5794882Y-13623388D01*
X5794882Y-13623388D02*
X5804406Y-13642436D01*
X5804406Y-13642436D02*
X5813929Y-13651960D01*
X5813929Y-13651960D02*
X5832977Y-13661484D01*
X5832977Y-13661484D02*
X5871072Y-13661484D01*
X5871072Y-13661484D02*
X5890120Y-13651960D01*
X5890120Y-13651960D02*
X5899644Y-13642436D01*
X5899644Y-13642436D02*
X5909168Y-13623388D01*
X5909168Y-13623388D02*
X5909168Y-13585293D01*
X5909168Y-13585293D02*
X5899644Y-13566246D01*
X5899644Y-13566246D02*
X5890120Y-13556722D01*
X5890120Y-13556722D02*
X5871072Y-13547198D01*
X6147263Y-13661484D02*
X6147263Y-13461484D01*
X6232977Y-13661484D02*
X6232977Y-13556722D01*
X6232977Y-13556722D02*
X6223453Y-13537674D01*
X6223453Y-13537674D02*
X6204406Y-13528150D01*
X6204406Y-13528150D02*
X6175834Y-13528150D01*
X6175834Y-13528150D02*
X6156787Y-13537674D01*
X6156787Y-13537674D02*
X6147263Y-13547198D01*
X6356787Y-13661484D02*
X6337739Y-13651960D01*
X6337739Y-13651960D02*
X6328215Y-13642436D01*
X6328215Y-13642436D02*
X6318691Y-13623388D01*
X6318691Y-13623388D02*
X6318691Y-13566246D01*
X6318691Y-13566246D02*
X6328215Y-13547198D01*
X6328215Y-13547198D02*
X6337739Y-13537674D01*
X6337739Y-13537674D02*
X6356787Y-13528150D01*
X6356787Y-13528150D02*
X6385358Y-13528150D01*
X6385358Y-13528150D02*
X6404406Y-13537674D01*
X6404406Y-13537674D02*
X6413930Y-13547198D01*
X6413930Y-13547198D02*
X6423453Y-13566246D01*
X6423453Y-13566246D02*
X6423453Y-13623388D01*
X6423453Y-13623388D02*
X6413930Y-13642436D01*
X6413930Y-13642436D02*
X6404406Y-13651960D01*
X6404406Y-13651960D02*
X6385358Y-13661484D01*
X6385358Y-13661484D02*
X6356787Y-13661484D01*
X6537739Y-13661484D02*
X6518691Y-13651960D01*
X6518691Y-13651960D02*
X6509168Y-13632912D01*
X6509168Y-13632912D02*
X6509168Y-13461484D01*
X6690120Y-13651960D02*
X6671072Y-13661484D01*
X6671072Y-13661484D02*
X6632977Y-13661484D01*
X6632977Y-13661484D02*
X6613930Y-13651960D01*
X6613930Y-13651960D02*
X6604406Y-13632912D01*
X6604406Y-13632912D02*
X6604406Y-13556722D01*
X6604406Y-13556722D02*
X6613930Y-13537674D01*
X6613930Y-13537674D02*
X6632977Y-13528150D01*
X6632977Y-13528150D02*
X6671072Y-13528150D01*
X6671072Y-13528150D02*
X6690120Y-13537674D01*
X6690120Y-13537674D02*
X6699644Y-13556722D01*
X6699644Y-13556722D02*
X6699644Y-13575769D01*
X6699644Y-13575769D02*
X6604406Y-13594817D01*
X6775834Y-13651960D02*
X6794882Y-13661484D01*
X6794882Y-13661484D02*
X6832977Y-13661484D01*
X6832977Y-13661484D02*
X6852025Y-13651960D01*
X6852025Y-13651960D02*
X6861549Y-13632912D01*
X6861549Y-13632912D02*
X6861549Y-13623388D01*
X6861549Y-13623388D02*
X6852025Y-13604341D01*
X6852025Y-13604341D02*
X6832977Y-13594817D01*
X6832977Y-13594817D02*
X6804406Y-13594817D01*
X6804406Y-13594817D02*
X6785358Y-13585293D01*
X6785358Y-13585293D02*
X6775834Y-13566246D01*
X6775834Y-13566246D02*
X6775834Y-13556722D01*
X6775834Y-13556722D02*
X6785358Y-13537674D01*
X6785358Y-13537674D02*
X6804406Y-13528150D01*
X6804406Y-13528150D02*
X6832977Y-13528150D01*
X6832977Y-13528150D02*
X6852025Y-13537674D01*
X6928215Y-13737674D02*
X6937739Y-13728150D01*
X6937739Y-13728150D02*
X6956787Y-13699579D01*
X6956787Y-13699579D02*
X6966311Y-13680531D01*
X6966311Y-13680531D02*
X6975834Y-13651960D01*
X6975834Y-13651960D02*
X6985358Y-13604341D01*
X6985358Y-13604341D02*
X6985358Y-13566246D01*
X6985358Y-13566246D02*
X6975834Y-13518627D01*
X6975834Y-13518627D02*
X6966311Y-13490055D01*
X6966311Y-13490055D02*
X6956787Y-13471008D01*
X6956787Y-13471008D02*
X6937739Y-13442436D01*
X6937739Y-13442436D02*
X6928215Y-13432912D01*
D12*
X1759020Y-13865820D02*
X1759020Y-13802180D01*
X1695380Y-13802180D01*
X1695380Y-13865820D01*
X1759020Y-13865820D01*
D11*
X2071072Y-13725484D02*
X2090120Y-13725484D01*
X2090120Y-13725484D02*
X2109167Y-13735008D01*
X2109167Y-13735008D02*
X2118691Y-13744531D01*
X2118691Y-13744531D02*
X2128215Y-13763579D01*
X2128215Y-13763579D02*
X2137739Y-13801674D01*
X2137739Y-13801674D02*
X2137739Y-13849293D01*
X2137739Y-13849293D02*
X2128215Y-13887388D01*
X2128215Y-13887388D02*
X2118691Y-13906436D01*
X2118691Y-13906436D02*
X2109167Y-13915960D01*
X2109167Y-13915960D02*
X2090120Y-13925484D01*
X2090120Y-13925484D02*
X2071072Y-13925484D01*
X2071072Y-13925484D02*
X2052024Y-13915960D01*
X2052024Y-13915960D02*
X2042501Y-13906436D01*
X2042501Y-13906436D02*
X2032977Y-13887388D01*
X2032977Y-13887388D02*
X2023453Y-13849293D01*
X2023453Y-13849293D02*
X2023453Y-13801674D01*
X2023453Y-13801674D02*
X2032977Y-13763579D01*
X2032977Y-13763579D02*
X2042501Y-13744531D01*
X2042501Y-13744531D02*
X2052024Y-13735008D01*
X2052024Y-13735008D02*
X2071072Y-13725484D01*
X2223453Y-13906436D02*
X2232977Y-13915960D01*
X2232977Y-13915960D02*
X2223453Y-13925484D01*
X2223453Y-13925484D02*
X2213929Y-13915960D01*
X2213929Y-13915960D02*
X2223453Y-13906436D01*
X2223453Y-13906436D02*
X2223453Y-13925484D01*
X2328215Y-13925484D02*
X2366310Y-13925484D01*
X2366310Y-13925484D02*
X2385358Y-13915960D01*
X2385358Y-13915960D02*
X2394882Y-13906436D01*
X2394882Y-13906436D02*
X2413929Y-13877865D01*
X2413929Y-13877865D02*
X2423453Y-13839769D01*
X2423453Y-13839769D02*
X2423453Y-13763579D01*
X2423453Y-13763579D02*
X2413929Y-13744531D01*
X2413929Y-13744531D02*
X2404405Y-13735008D01*
X2404405Y-13735008D02*
X2385358Y-13725484D01*
X2385358Y-13725484D02*
X2347263Y-13725484D01*
X2347263Y-13725484D02*
X2328215Y-13735008D01*
X2328215Y-13735008D02*
X2318691Y-13744531D01*
X2318691Y-13744531D02*
X2309167Y-13763579D01*
X2309167Y-13763579D02*
X2309167Y-13811198D01*
X2309167Y-13811198D02*
X2318691Y-13830246D01*
X2318691Y-13830246D02*
X2328215Y-13839769D01*
X2328215Y-13839769D02*
X2347263Y-13849293D01*
X2347263Y-13849293D02*
X2385358Y-13849293D01*
X2385358Y-13849293D02*
X2404405Y-13839769D01*
X2404405Y-13839769D02*
X2413929Y-13830246D01*
X2413929Y-13830246D02*
X2423453Y-13811198D01*
X2547263Y-13725484D02*
X2566310Y-13725484D01*
X2566310Y-13725484D02*
X2585358Y-13735008D01*
X2585358Y-13735008D02*
X2594882Y-13744531D01*
X2594882Y-13744531D02*
X2604405Y-13763579D01*
X2604405Y-13763579D02*
X2613929Y-13801674D01*
X2613929Y-13801674D02*
X2613929Y-13849293D01*
X2613929Y-13849293D02*
X2604405Y-13887388D01*
X2604405Y-13887388D02*
X2594882Y-13906436D01*
X2594882Y-13906436D02*
X2585358Y-13915960D01*
X2585358Y-13915960D02*
X2566310Y-13925484D01*
X2566310Y-13925484D02*
X2547263Y-13925484D01*
X2547263Y-13925484D02*
X2528215Y-13915960D01*
X2528215Y-13915960D02*
X2518691Y-13906436D01*
X2518691Y-13906436D02*
X2509167Y-13887388D01*
X2509167Y-13887388D02*
X2499644Y-13849293D01*
X2499644Y-13849293D02*
X2499644Y-13801674D01*
X2499644Y-13801674D02*
X2509167Y-13763579D01*
X2509167Y-13763579D02*
X2518691Y-13744531D01*
X2518691Y-13744531D02*
X2528215Y-13735008D01*
X2528215Y-13735008D02*
X2547263Y-13725484D01*
X2737739Y-13725484D02*
X2756786Y-13725484D01*
X2756786Y-13725484D02*
X2775834Y-13735008D01*
X2775834Y-13735008D02*
X2785358Y-13744531D01*
X2785358Y-13744531D02*
X2794882Y-13763579D01*
X2794882Y-13763579D02*
X2804405Y-13801674D01*
X2804405Y-13801674D02*
X2804405Y-13849293D01*
X2804405Y-13849293D02*
X2794882Y-13887388D01*
X2794882Y-13887388D02*
X2785358Y-13906436D01*
X2785358Y-13906436D02*
X2775834Y-13915960D01*
X2775834Y-13915960D02*
X2756786Y-13925484D01*
X2756786Y-13925484D02*
X2737739Y-13925484D01*
X2737739Y-13925484D02*
X2718691Y-13915960D01*
X2718691Y-13915960D02*
X2709167Y-13906436D01*
X2709167Y-13906436D02*
X2699644Y-13887388D01*
X2699644Y-13887388D02*
X2690120Y-13849293D01*
X2690120Y-13849293D02*
X2690120Y-13801674D01*
X2690120Y-13801674D02*
X2699644Y-13763579D01*
X2699644Y-13763579D02*
X2709167Y-13744531D01*
X2709167Y-13744531D02*
X2718691Y-13735008D01*
X2718691Y-13735008D02*
X2737739Y-13725484D01*
X2890120Y-13925484D02*
X2890120Y-13792150D01*
X2890120Y-13811198D02*
X2899643Y-13801674D01*
X2899643Y-13801674D02*
X2918691Y-13792150D01*
X2918691Y-13792150D02*
X2947263Y-13792150D01*
X2947263Y-13792150D02*
X2966310Y-13801674D01*
X2966310Y-13801674D02*
X2975834Y-13820722D01*
X2975834Y-13820722D02*
X2975834Y-13925484D01*
X2975834Y-13820722D02*
X2985358Y-13801674D01*
X2985358Y-13801674D02*
X3004405Y-13792150D01*
X3004405Y-13792150D02*
X3032977Y-13792150D01*
X3032977Y-13792150D02*
X3052024Y-13801674D01*
X3052024Y-13801674D02*
X3061548Y-13820722D01*
X3061548Y-13820722D02*
X3061548Y-13925484D01*
X3156786Y-13925484D02*
X3156786Y-13792150D01*
X3156786Y-13811198D02*
X3166310Y-13801674D01*
X3166310Y-13801674D02*
X3185358Y-13792150D01*
X3185358Y-13792150D02*
X3213929Y-13792150D01*
X3213929Y-13792150D02*
X3232977Y-13801674D01*
X3232977Y-13801674D02*
X3242501Y-13820722D01*
X3242501Y-13820722D02*
X3242501Y-13925484D01*
X3242501Y-13820722D02*
X3252024Y-13801674D01*
X3252024Y-13801674D02*
X3271072Y-13792150D01*
X3271072Y-13792150D02*
X3299643Y-13792150D01*
X3299643Y-13792150D02*
X3318691Y-13801674D01*
X3318691Y-13801674D02*
X3328215Y-13820722D01*
X3328215Y-13820722D02*
X3328215Y-13925484D01*
X3718691Y-13715960D02*
X3547263Y-13973103D01*
X3975834Y-13725484D02*
X3994882Y-13725484D01*
X3994882Y-13725484D02*
X4013929Y-13735008D01*
X4013929Y-13735008D02*
X4023453Y-13744531D01*
X4023453Y-13744531D02*
X4032977Y-13763579D01*
X4032977Y-13763579D02*
X4042501Y-13801674D01*
X4042501Y-13801674D02*
X4042501Y-13849293D01*
X4042501Y-13849293D02*
X4032977Y-13887388D01*
X4032977Y-13887388D02*
X4023453Y-13906436D01*
X4023453Y-13906436D02*
X4013929Y-13915960D01*
X4013929Y-13915960D02*
X3994882Y-13925484D01*
X3994882Y-13925484D02*
X3975834Y-13925484D01*
X3975834Y-13925484D02*
X3956786Y-13915960D01*
X3956786Y-13915960D02*
X3947263Y-13906436D01*
X3947263Y-13906436D02*
X3937739Y-13887388D01*
X3937739Y-13887388D02*
X3928215Y-13849293D01*
X3928215Y-13849293D02*
X3928215Y-13801674D01*
X3928215Y-13801674D02*
X3937739Y-13763579D01*
X3937739Y-13763579D02*
X3947263Y-13744531D01*
X3947263Y-13744531D02*
X3956786Y-13735008D01*
X3956786Y-13735008D02*
X3975834Y-13725484D01*
X4128215Y-13906436D02*
X4137739Y-13915960D01*
X4137739Y-13915960D02*
X4128215Y-13925484D01*
X4128215Y-13925484D02*
X4118691Y-13915960D01*
X4118691Y-13915960D02*
X4128215Y-13906436D01*
X4128215Y-13906436D02*
X4128215Y-13925484D01*
X4261548Y-13725484D02*
X4280596Y-13725484D01*
X4280596Y-13725484D02*
X4299644Y-13735008D01*
X4299644Y-13735008D02*
X4309168Y-13744531D01*
X4309168Y-13744531D02*
X4318691Y-13763579D01*
X4318691Y-13763579D02*
X4328215Y-13801674D01*
X4328215Y-13801674D02*
X4328215Y-13849293D01*
X4328215Y-13849293D02*
X4318691Y-13887388D01*
X4318691Y-13887388D02*
X4309168Y-13906436D01*
X4309168Y-13906436D02*
X4299644Y-13915960D01*
X4299644Y-13915960D02*
X4280596Y-13925484D01*
X4280596Y-13925484D02*
X4261548Y-13925484D01*
X4261548Y-13925484D02*
X4242501Y-13915960D01*
X4242501Y-13915960D02*
X4232977Y-13906436D01*
X4232977Y-13906436D02*
X4223453Y-13887388D01*
X4223453Y-13887388D02*
X4213929Y-13849293D01*
X4213929Y-13849293D02*
X4213929Y-13801674D01*
X4213929Y-13801674D02*
X4223453Y-13763579D01*
X4223453Y-13763579D02*
X4232977Y-13744531D01*
X4232977Y-13744531D02*
X4242501Y-13735008D01*
X4242501Y-13735008D02*
X4261548Y-13725484D01*
X4394882Y-13725484D02*
X4518691Y-13725484D01*
X4518691Y-13725484D02*
X4452025Y-13801674D01*
X4452025Y-13801674D02*
X4480596Y-13801674D01*
X4480596Y-13801674D02*
X4499644Y-13811198D01*
X4499644Y-13811198D02*
X4509168Y-13820722D01*
X4509168Y-13820722D02*
X4518691Y-13839769D01*
X4518691Y-13839769D02*
X4518691Y-13887388D01*
X4518691Y-13887388D02*
X4509168Y-13906436D01*
X4509168Y-13906436D02*
X4499644Y-13915960D01*
X4499644Y-13915960D02*
X4480596Y-13925484D01*
X4480596Y-13925484D02*
X4423453Y-13925484D01*
X4423453Y-13925484D02*
X4404406Y-13915960D01*
X4404406Y-13915960D02*
X4394882Y-13906436D01*
X4699644Y-13725484D02*
X4604406Y-13725484D01*
X4604406Y-13725484D02*
X4594882Y-13820722D01*
X4594882Y-13820722D02*
X4604406Y-13811198D01*
X4604406Y-13811198D02*
X4623453Y-13801674D01*
X4623453Y-13801674D02*
X4671072Y-13801674D01*
X4671072Y-13801674D02*
X4690120Y-13811198D01*
X4690120Y-13811198D02*
X4699644Y-13820722D01*
X4699644Y-13820722D02*
X4709168Y-13839769D01*
X4709168Y-13839769D02*
X4709168Y-13887388D01*
X4709168Y-13887388D02*
X4699644Y-13906436D01*
X4699644Y-13906436D02*
X4690120Y-13915960D01*
X4690120Y-13915960D02*
X4671072Y-13925484D01*
X4671072Y-13925484D02*
X4623453Y-13925484D01*
X4623453Y-13925484D02*
X4604406Y-13915960D01*
X4604406Y-13915960D02*
X4594882Y-13906436D01*
X4880596Y-13792150D02*
X4880596Y-13925484D01*
X4832977Y-13715960D02*
X4785358Y-13858817D01*
X4785358Y-13858817D02*
X4909168Y-13858817D01*
X4975834Y-13725484D02*
X4975834Y-13763579D01*
X5052025Y-13725484D02*
X5052025Y-13763579D01*
X5347263Y-14001674D02*
X5337739Y-13992150D01*
X5337739Y-13992150D02*
X5318691Y-13963579D01*
X5318691Y-13963579D02*
X5309168Y-13944531D01*
X5309168Y-13944531D02*
X5299644Y-13915960D01*
X5299644Y-13915960D02*
X5290120Y-13868341D01*
X5290120Y-13868341D02*
X5290120Y-13830246D01*
X5290120Y-13830246D02*
X5299644Y-13782627D01*
X5299644Y-13782627D02*
X5309168Y-13754055D01*
X5309168Y-13754055D02*
X5318691Y-13735008D01*
X5318691Y-13735008D02*
X5337739Y-13706436D01*
X5337739Y-13706436D02*
X5347263Y-13696912D01*
X5413930Y-13744531D02*
X5423453Y-13735008D01*
X5423453Y-13735008D02*
X5442501Y-13725484D01*
X5442501Y-13725484D02*
X5490120Y-13725484D01*
X5490120Y-13725484D02*
X5509168Y-13735008D01*
X5509168Y-13735008D02*
X5518691Y-13744531D01*
X5518691Y-13744531D02*
X5528215Y-13763579D01*
X5528215Y-13763579D02*
X5528215Y-13782627D01*
X5528215Y-13782627D02*
X5518691Y-13811198D01*
X5518691Y-13811198D02*
X5404406Y-13925484D01*
X5404406Y-13925484D02*
X5528215Y-13925484D01*
X5766310Y-13925484D02*
X5766310Y-13725484D01*
X5852025Y-13925484D02*
X5852025Y-13820722D01*
X5852025Y-13820722D02*
X5842501Y-13801674D01*
X5842501Y-13801674D02*
X5823453Y-13792150D01*
X5823453Y-13792150D02*
X5794882Y-13792150D01*
X5794882Y-13792150D02*
X5775834Y-13801674D01*
X5775834Y-13801674D02*
X5766310Y-13811198D01*
X5975834Y-13925484D02*
X5956787Y-13915960D01*
X5956787Y-13915960D02*
X5947263Y-13906436D01*
X5947263Y-13906436D02*
X5937739Y-13887388D01*
X5937739Y-13887388D02*
X5937739Y-13830246D01*
X5937739Y-13830246D02*
X5947263Y-13811198D01*
X5947263Y-13811198D02*
X5956787Y-13801674D01*
X5956787Y-13801674D02*
X5975834Y-13792150D01*
X5975834Y-13792150D02*
X6004406Y-13792150D01*
X6004406Y-13792150D02*
X6023453Y-13801674D01*
X6023453Y-13801674D02*
X6032977Y-13811198D01*
X6032977Y-13811198D02*
X6042501Y-13830246D01*
X6042501Y-13830246D02*
X6042501Y-13887388D01*
X6042501Y-13887388D02*
X6032977Y-13906436D01*
X6032977Y-13906436D02*
X6023453Y-13915960D01*
X6023453Y-13915960D02*
X6004406Y-13925484D01*
X6004406Y-13925484D02*
X5975834Y-13925484D01*
X6156787Y-13925484D02*
X6137739Y-13915960D01*
X6137739Y-13915960D02*
X6128215Y-13896912D01*
X6128215Y-13896912D02*
X6128215Y-13725484D01*
X6309168Y-13915960D02*
X6290120Y-13925484D01*
X6290120Y-13925484D02*
X6252025Y-13925484D01*
X6252025Y-13925484D02*
X6232977Y-13915960D01*
X6232977Y-13915960D02*
X6223453Y-13896912D01*
X6223453Y-13896912D02*
X6223453Y-13820722D01*
X6223453Y-13820722D02*
X6232977Y-13801674D01*
X6232977Y-13801674D02*
X6252025Y-13792150D01*
X6252025Y-13792150D02*
X6290120Y-13792150D01*
X6290120Y-13792150D02*
X6309168Y-13801674D01*
X6309168Y-13801674D02*
X6318691Y-13820722D01*
X6318691Y-13820722D02*
X6318691Y-13839769D01*
X6318691Y-13839769D02*
X6223453Y-13858817D01*
X6394882Y-13915960D02*
X6413930Y-13925484D01*
X6413930Y-13925484D02*
X6452025Y-13925484D01*
X6452025Y-13925484D02*
X6471072Y-13915960D01*
X6471072Y-13915960D02*
X6480596Y-13896912D01*
X6480596Y-13896912D02*
X6480596Y-13887388D01*
X6480596Y-13887388D02*
X6471072Y-13868341D01*
X6471072Y-13868341D02*
X6452025Y-13858817D01*
X6452025Y-13858817D02*
X6423453Y-13858817D01*
X6423453Y-13858817D02*
X6404406Y-13849293D01*
X6404406Y-13849293D02*
X6394882Y-13830246D01*
X6394882Y-13830246D02*
X6394882Y-13820722D01*
X6394882Y-13820722D02*
X6404406Y-13801674D01*
X6404406Y-13801674D02*
X6423453Y-13792150D01*
X6423453Y-13792150D02*
X6452025Y-13792150D01*
X6452025Y-13792150D02*
X6471072Y-13801674D01*
X6547263Y-14001674D02*
X6556787Y-13992150D01*
X6556787Y-13992150D02*
X6575834Y-13963579D01*
X6575834Y-13963579D02*
X6585358Y-13944531D01*
X6585358Y-13944531D02*
X6594882Y-13915960D01*
X6594882Y-13915960D02*
X6604406Y-13868341D01*
X6604406Y-13868341D02*
X6604406Y-13830246D01*
X6604406Y-13830246D02*
X6594882Y-13782627D01*
X6594882Y-13782627D02*
X6585358Y-13754055D01*
X6585358Y-13754055D02*
X6575834Y-13735008D01*
X6575834Y-13735008D02*
X6556787Y-13706436D01*
X6556787Y-13706436D02*
X6547263Y-13696912D01*
D12*
X1722200Y-14148000D02*
X1772200Y-14098000D01*
X1722200Y-14048000D01*
X1672200Y-14098000D01*
X1722200Y-14148000D01*
D11*
X2137739Y-14189484D02*
X2023453Y-14189484D01*
X2080596Y-14189484D02*
X2080596Y-13989484D01*
X2080596Y-13989484D02*
X2061548Y-14018055D01*
X2061548Y-14018055D02*
X2042501Y-14037103D01*
X2042501Y-14037103D02*
X2023453Y-14046627D01*
X2223453Y-14170436D02*
X2232977Y-14179960D01*
X2232977Y-14179960D02*
X2223453Y-14189484D01*
X2223453Y-14189484D02*
X2213929Y-14179960D01*
X2213929Y-14179960D02*
X2223453Y-14170436D01*
X2223453Y-14170436D02*
X2223453Y-14189484D01*
X2356786Y-13989484D02*
X2375834Y-13989484D01*
X2375834Y-13989484D02*
X2394882Y-13999008D01*
X2394882Y-13999008D02*
X2404405Y-14008531D01*
X2404405Y-14008531D02*
X2413929Y-14027579D01*
X2413929Y-14027579D02*
X2423453Y-14065674D01*
X2423453Y-14065674D02*
X2423453Y-14113293D01*
X2423453Y-14113293D02*
X2413929Y-14151388D01*
X2413929Y-14151388D02*
X2404405Y-14170436D01*
X2404405Y-14170436D02*
X2394882Y-14179960D01*
X2394882Y-14179960D02*
X2375834Y-14189484D01*
X2375834Y-14189484D02*
X2356786Y-14189484D01*
X2356786Y-14189484D02*
X2337739Y-14179960D01*
X2337739Y-14179960D02*
X2328215Y-14170436D01*
X2328215Y-14170436D02*
X2318691Y-14151388D01*
X2318691Y-14151388D02*
X2309167Y-14113293D01*
X2309167Y-14113293D02*
X2309167Y-14065674D01*
X2309167Y-14065674D02*
X2318691Y-14027579D01*
X2318691Y-14027579D02*
X2328215Y-14008531D01*
X2328215Y-14008531D02*
X2337739Y-13999008D01*
X2337739Y-13999008D02*
X2356786Y-13989484D01*
X2547263Y-13989484D02*
X2566310Y-13989484D01*
X2566310Y-13989484D02*
X2585358Y-13999008D01*
X2585358Y-13999008D02*
X2594882Y-14008531D01*
X2594882Y-14008531D02*
X2604405Y-14027579D01*
X2604405Y-14027579D02*
X2613929Y-14065674D01*
X2613929Y-14065674D02*
X2613929Y-14113293D01*
X2613929Y-14113293D02*
X2604405Y-14151388D01*
X2604405Y-14151388D02*
X2594882Y-14170436D01*
X2594882Y-14170436D02*
X2585358Y-14179960D01*
X2585358Y-14179960D02*
X2566310Y-14189484D01*
X2566310Y-14189484D02*
X2547263Y-14189484D01*
X2547263Y-14189484D02*
X2528215Y-14179960D01*
X2528215Y-14179960D02*
X2518691Y-14170436D01*
X2518691Y-14170436D02*
X2509167Y-14151388D01*
X2509167Y-14151388D02*
X2499644Y-14113293D01*
X2499644Y-14113293D02*
X2499644Y-14065674D01*
X2499644Y-14065674D02*
X2509167Y-14027579D01*
X2509167Y-14027579D02*
X2518691Y-14008531D01*
X2518691Y-14008531D02*
X2528215Y-13999008D01*
X2528215Y-13999008D02*
X2547263Y-13989484D01*
X2737739Y-13989484D02*
X2756786Y-13989484D01*
X2756786Y-13989484D02*
X2775834Y-13999008D01*
X2775834Y-13999008D02*
X2785358Y-14008531D01*
X2785358Y-14008531D02*
X2794882Y-14027579D01*
X2794882Y-14027579D02*
X2804405Y-14065674D01*
X2804405Y-14065674D02*
X2804405Y-14113293D01*
X2804405Y-14113293D02*
X2794882Y-14151388D01*
X2794882Y-14151388D02*
X2785358Y-14170436D01*
X2785358Y-14170436D02*
X2775834Y-14179960D01*
X2775834Y-14179960D02*
X2756786Y-14189484D01*
X2756786Y-14189484D02*
X2737739Y-14189484D01*
X2737739Y-14189484D02*
X2718691Y-14179960D01*
X2718691Y-14179960D02*
X2709167Y-14170436D01*
X2709167Y-14170436D02*
X2699644Y-14151388D01*
X2699644Y-14151388D02*
X2690120Y-14113293D01*
X2690120Y-14113293D02*
X2690120Y-14065674D01*
X2690120Y-14065674D02*
X2699644Y-14027579D01*
X2699644Y-14027579D02*
X2709167Y-14008531D01*
X2709167Y-14008531D02*
X2718691Y-13999008D01*
X2718691Y-13999008D02*
X2737739Y-13989484D01*
X2890120Y-14189484D02*
X2890120Y-14056150D01*
X2890120Y-14075198D02*
X2899643Y-14065674D01*
X2899643Y-14065674D02*
X2918691Y-14056150D01*
X2918691Y-14056150D02*
X2947263Y-14056150D01*
X2947263Y-14056150D02*
X2966310Y-14065674D01*
X2966310Y-14065674D02*
X2975834Y-14084722D01*
X2975834Y-14084722D02*
X2975834Y-14189484D01*
X2975834Y-14084722D02*
X2985358Y-14065674D01*
X2985358Y-14065674D02*
X3004405Y-14056150D01*
X3004405Y-14056150D02*
X3032977Y-14056150D01*
X3032977Y-14056150D02*
X3052024Y-14065674D01*
X3052024Y-14065674D02*
X3061548Y-14084722D01*
X3061548Y-14084722D02*
X3061548Y-14189484D01*
X3156786Y-14189484D02*
X3156786Y-14056150D01*
X3156786Y-14075198D02*
X3166310Y-14065674D01*
X3166310Y-14065674D02*
X3185358Y-14056150D01*
X3185358Y-14056150D02*
X3213929Y-14056150D01*
X3213929Y-14056150D02*
X3232977Y-14065674D01*
X3232977Y-14065674D02*
X3242501Y-14084722D01*
X3242501Y-14084722D02*
X3242501Y-14189484D01*
X3242501Y-14084722D02*
X3252024Y-14065674D01*
X3252024Y-14065674D02*
X3271072Y-14056150D01*
X3271072Y-14056150D02*
X3299643Y-14056150D01*
X3299643Y-14056150D02*
X3318691Y-14065674D01*
X3318691Y-14065674D02*
X3328215Y-14084722D01*
X3328215Y-14084722D02*
X3328215Y-14189484D01*
X3718691Y-13979960D02*
X3547263Y-14237103D01*
X3975834Y-13989484D02*
X3994882Y-13989484D01*
X3994882Y-13989484D02*
X4013929Y-13999008D01*
X4013929Y-13999008D02*
X4023453Y-14008531D01*
X4023453Y-14008531D02*
X4032977Y-14027579D01*
X4032977Y-14027579D02*
X4042501Y-14065674D01*
X4042501Y-14065674D02*
X4042501Y-14113293D01*
X4042501Y-14113293D02*
X4032977Y-14151388D01*
X4032977Y-14151388D02*
X4023453Y-14170436D01*
X4023453Y-14170436D02*
X4013929Y-14179960D01*
X4013929Y-14179960D02*
X3994882Y-14189484D01*
X3994882Y-14189484D02*
X3975834Y-14189484D01*
X3975834Y-14189484D02*
X3956786Y-14179960D01*
X3956786Y-14179960D02*
X3947263Y-14170436D01*
X3947263Y-14170436D02*
X3937739Y-14151388D01*
X3937739Y-14151388D02*
X3928215Y-14113293D01*
X3928215Y-14113293D02*
X3928215Y-14065674D01*
X3928215Y-14065674D02*
X3937739Y-14027579D01*
X3937739Y-14027579D02*
X3947263Y-14008531D01*
X3947263Y-14008531D02*
X3956786Y-13999008D01*
X3956786Y-13999008D02*
X3975834Y-13989484D01*
X4128215Y-14170436D02*
X4137739Y-14179960D01*
X4137739Y-14179960D02*
X4128215Y-14189484D01*
X4128215Y-14189484D02*
X4118691Y-14179960D01*
X4118691Y-14179960D02*
X4128215Y-14170436D01*
X4128215Y-14170436D02*
X4128215Y-14189484D01*
X4261548Y-13989484D02*
X4280596Y-13989484D01*
X4280596Y-13989484D02*
X4299644Y-13999008D01*
X4299644Y-13999008D02*
X4309168Y-14008531D01*
X4309168Y-14008531D02*
X4318691Y-14027579D01*
X4318691Y-14027579D02*
X4328215Y-14065674D01*
X4328215Y-14065674D02*
X4328215Y-14113293D01*
X4328215Y-14113293D02*
X4318691Y-14151388D01*
X4318691Y-14151388D02*
X4309168Y-14170436D01*
X4309168Y-14170436D02*
X4299644Y-14179960D01*
X4299644Y-14179960D02*
X4280596Y-14189484D01*
X4280596Y-14189484D02*
X4261548Y-14189484D01*
X4261548Y-14189484D02*
X4242501Y-14179960D01*
X4242501Y-14179960D02*
X4232977Y-14170436D01*
X4232977Y-14170436D02*
X4223453Y-14151388D01*
X4223453Y-14151388D02*
X4213929Y-14113293D01*
X4213929Y-14113293D02*
X4213929Y-14065674D01*
X4213929Y-14065674D02*
X4223453Y-14027579D01*
X4223453Y-14027579D02*
X4232977Y-14008531D01*
X4232977Y-14008531D02*
X4242501Y-13999008D01*
X4242501Y-13999008D02*
X4261548Y-13989484D01*
X4394882Y-13989484D02*
X4518691Y-13989484D01*
X4518691Y-13989484D02*
X4452025Y-14065674D01*
X4452025Y-14065674D02*
X4480596Y-14065674D01*
X4480596Y-14065674D02*
X4499644Y-14075198D01*
X4499644Y-14075198D02*
X4509168Y-14084722D01*
X4509168Y-14084722D02*
X4518691Y-14103769D01*
X4518691Y-14103769D02*
X4518691Y-14151388D01*
X4518691Y-14151388D02*
X4509168Y-14170436D01*
X4509168Y-14170436D02*
X4499644Y-14179960D01*
X4499644Y-14179960D02*
X4480596Y-14189484D01*
X4480596Y-14189484D02*
X4423453Y-14189484D01*
X4423453Y-14189484D02*
X4404406Y-14179960D01*
X4404406Y-14179960D02*
X4394882Y-14170436D01*
X4613929Y-14189484D02*
X4652025Y-14189484D01*
X4652025Y-14189484D02*
X4671072Y-14179960D01*
X4671072Y-14179960D02*
X4680596Y-14170436D01*
X4680596Y-14170436D02*
X4699644Y-14141865D01*
X4699644Y-14141865D02*
X4709168Y-14103769D01*
X4709168Y-14103769D02*
X4709168Y-14027579D01*
X4709168Y-14027579D02*
X4699644Y-14008531D01*
X4699644Y-14008531D02*
X4690120Y-13999008D01*
X4690120Y-13999008D02*
X4671072Y-13989484D01*
X4671072Y-13989484D02*
X4632977Y-13989484D01*
X4632977Y-13989484D02*
X4613929Y-13999008D01*
X4613929Y-13999008D02*
X4604406Y-14008531D01*
X4604406Y-14008531D02*
X4594882Y-14027579D01*
X4594882Y-14027579D02*
X4594882Y-14075198D01*
X4594882Y-14075198D02*
X4604406Y-14094246D01*
X4604406Y-14094246D02*
X4613929Y-14103769D01*
X4613929Y-14103769D02*
X4632977Y-14113293D01*
X4632977Y-14113293D02*
X4671072Y-14113293D01*
X4671072Y-14113293D02*
X4690120Y-14103769D01*
X4690120Y-14103769D02*
X4699644Y-14094246D01*
X4699644Y-14094246D02*
X4709168Y-14075198D01*
X4880596Y-14056150D02*
X4880596Y-14189484D01*
X4832977Y-13979960D02*
X4785358Y-14122817D01*
X4785358Y-14122817D02*
X4909168Y-14122817D01*
X4975834Y-13989484D02*
X4975834Y-14027579D01*
X5052025Y-13989484D02*
X5052025Y-14027579D01*
X5347263Y-14265674D02*
X5337739Y-14256150D01*
X5337739Y-14256150D02*
X5318691Y-14227579D01*
X5318691Y-14227579D02*
X5309168Y-14208531D01*
X5309168Y-14208531D02*
X5299644Y-14179960D01*
X5299644Y-14179960D02*
X5290120Y-14132341D01*
X5290120Y-14132341D02*
X5290120Y-14094246D01*
X5290120Y-14094246D02*
X5299644Y-14046627D01*
X5299644Y-14046627D02*
X5309168Y-14018055D01*
X5309168Y-14018055D02*
X5318691Y-13999008D01*
X5318691Y-13999008D02*
X5337739Y-13970436D01*
X5337739Y-13970436D02*
X5347263Y-13960912D01*
X5509168Y-14056150D02*
X5509168Y-14189484D01*
X5461549Y-13979960D02*
X5413930Y-14122817D01*
X5413930Y-14122817D02*
X5537739Y-14122817D01*
X5699644Y-13989484D02*
X5661548Y-13989484D01*
X5661548Y-13989484D02*
X5642501Y-13999008D01*
X5642501Y-13999008D02*
X5632977Y-14008531D01*
X5632977Y-14008531D02*
X5613929Y-14037103D01*
X5613929Y-14037103D02*
X5604406Y-14075198D01*
X5604406Y-14075198D02*
X5604406Y-14151388D01*
X5604406Y-14151388D02*
X5613929Y-14170436D01*
X5613929Y-14170436D02*
X5623453Y-14179960D01*
X5623453Y-14179960D02*
X5642501Y-14189484D01*
X5642501Y-14189484D02*
X5680596Y-14189484D01*
X5680596Y-14189484D02*
X5699644Y-14179960D01*
X5699644Y-14179960D02*
X5709168Y-14170436D01*
X5709168Y-14170436D02*
X5718691Y-14151388D01*
X5718691Y-14151388D02*
X5718691Y-14103769D01*
X5718691Y-14103769D02*
X5709168Y-14084722D01*
X5709168Y-14084722D02*
X5699644Y-14075198D01*
X5699644Y-14075198D02*
X5680596Y-14065674D01*
X5680596Y-14065674D02*
X5642501Y-14065674D01*
X5642501Y-14065674D02*
X5623453Y-14075198D01*
X5623453Y-14075198D02*
X5613929Y-14084722D01*
X5613929Y-14084722D02*
X5604406Y-14103769D01*
X5956787Y-14189484D02*
X5956787Y-13989484D01*
X6042501Y-14189484D02*
X6042501Y-14084722D01*
X6042501Y-14084722D02*
X6032977Y-14065674D01*
X6032977Y-14065674D02*
X6013930Y-14056150D01*
X6013930Y-14056150D02*
X5985358Y-14056150D01*
X5985358Y-14056150D02*
X5966310Y-14065674D01*
X5966310Y-14065674D02*
X5956787Y-14075198D01*
X6166310Y-14189484D02*
X6147263Y-14179960D01*
X6147263Y-14179960D02*
X6137739Y-14170436D01*
X6137739Y-14170436D02*
X6128215Y-14151388D01*
X6128215Y-14151388D02*
X6128215Y-14094246D01*
X6128215Y-14094246D02*
X6137739Y-14075198D01*
X6137739Y-14075198D02*
X6147263Y-14065674D01*
X6147263Y-14065674D02*
X6166310Y-14056150D01*
X6166310Y-14056150D02*
X6194882Y-14056150D01*
X6194882Y-14056150D02*
X6213930Y-14065674D01*
X6213930Y-14065674D02*
X6223453Y-14075198D01*
X6223453Y-14075198D02*
X6232977Y-14094246D01*
X6232977Y-14094246D02*
X6232977Y-14151388D01*
X6232977Y-14151388D02*
X6223453Y-14170436D01*
X6223453Y-14170436D02*
X6213930Y-14179960D01*
X6213930Y-14179960D02*
X6194882Y-14189484D01*
X6194882Y-14189484D02*
X6166310Y-14189484D01*
X6347263Y-14189484D02*
X6328215Y-14179960D01*
X6328215Y-14179960D02*
X6318691Y-14160912D01*
X6318691Y-14160912D02*
X6318691Y-13989484D01*
X6499644Y-14179960D02*
X6480596Y-14189484D01*
X6480596Y-14189484D02*
X6442501Y-14189484D01*
X6442501Y-14189484D02*
X6423453Y-14179960D01*
X6423453Y-14179960D02*
X6413930Y-14160912D01*
X6413930Y-14160912D02*
X6413930Y-14084722D01*
X6413930Y-14084722D02*
X6423453Y-14065674D01*
X6423453Y-14065674D02*
X6442501Y-14056150D01*
X6442501Y-14056150D02*
X6480596Y-14056150D01*
X6480596Y-14056150D02*
X6499644Y-14065674D01*
X6499644Y-14065674D02*
X6509168Y-14084722D01*
X6509168Y-14084722D02*
X6509168Y-14103769D01*
X6509168Y-14103769D02*
X6413930Y-14122817D01*
X6585358Y-14179960D02*
X6604406Y-14189484D01*
X6604406Y-14189484D02*
X6642501Y-14189484D01*
X6642501Y-14189484D02*
X6661549Y-14179960D01*
X6661549Y-14179960D02*
X6671072Y-14160912D01*
X6671072Y-14160912D02*
X6671072Y-14151388D01*
X6671072Y-14151388D02*
X6661549Y-14132341D01*
X6661549Y-14132341D02*
X6642501Y-14122817D01*
X6642501Y-14122817D02*
X6613930Y-14122817D01*
X6613930Y-14122817D02*
X6594882Y-14113293D01*
X6594882Y-14113293D02*
X6585358Y-14094246D01*
X6585358Y-14094246D02*
X6585358Y-14084722D01*
X6585358Y-14084722D02*
X6594882Y-14065674D01*
X6594882Y-14065674D02*
X6613930Y-14056150D01*
X6613930Y-14056150D02*
X6642501Y-14056150D01*
X6642501Y-14056150D02*
X6661549Y-14065674D01*
X6737739Y-14265674D02*
X6747263Y-14256150D01*
X6747263Y-14256150D02*
X6766311Y-14227579D01*
X6766311Y-14227579D02*
X6775834Y-14208531D01*
X6775834Y-14208531D02*
X6785358Y-14179960D01*
X6785358Y-14179960D02*
X6794882Y-14132341D01*
X6794882Y-14132341D02*
X6794882Y-14094246D01*
X6794882Y-14094246D02*
X6785358Y-14046627D01*
X6785358Y-14046627D02*
X6775834Y-14018055D01*
X6775834Y-14018055D02*
X6766311Y-13999008D01*
X6766311Y-13999008D02*
X6747263Y-13970436D01*
X6747263Y-13970436D02*
X6737739Y-13960912D01*
D13*
X1670600Y-14311200D02*
X1772200Y-14412800D01*
X1772200Y-14311200D02*
X1670600Y-14412800D01*
X1772200Y-14362000D02*
G75*
G02*
X1670600Y-14362000I-50800J0D01*
G01*
X1670600Y-14362000D02*
G75*
G02*
X1772200Y-14362000I50800J0D01*
G01*
D11*
X2137739Y-14453484D02*
X2023453Y-14453484D01*
X2080596Y-14453484D02*
X2080596Y-14253484D01*
X2080596Y-14253484D02*
X2061548Y-14282055D01*
X2061548Y-14282055D02*
X2042501Y-14301103D01*
X2042501Y-14301103D02*
X2023453Y-14310627D01*
X2223453Y-14434436D02*
X2232977Y-14443960D01*
X2232977Y-14443960D02*
X2223453Y-14453484D01*
X2223453Y-14453484D02*
X2213929Y-14443960D01*
X2213929Y-14443960D02*
X2223453Y-14434436D01*
X2223453Y-14434436D02*
X2223453Y-14453484D01*
X2356786Y-14253484D02*
X2375834Y-14253484D01*
X2375834Y-14253484D02*
X2394882Y-14263008D01*
X2394882Y-14263008D02*
X2404405Y-14272531D01*
X2404405Y-14272531D02*
X2413929Y-14291579D01*
X2413929Y-14291579D02*
X2423453Y-14329674D01*
X2423453Y-14329674D02*
X2423453Y-14377293D01*
X2423453Y-14377293D02*
X2413929Y-14415388D01*
X2413929Y-14415388D02*
X2404405Y-14434436D01*
X2404405Y-14434436D02*
X2394882Y-14443960D01*
X2394882Y-14443960D02*
X2375834Y-14453484D01*
X2375834Y-14453484D02*
X2356786Y-14453484D01*
X2356786Y-14453484D02*
X2337739Y-14443960D01*
X2337739Y-14443960D02*
X2328215Y-14434436D01*
X2328215Y-14434436D02*
X2318691Y-14415388D01*
X2318691Y-14415388D02*
X2309167Y-14377293D01*
X2309167Y-14377293D02*
X2309167Y-14329674D01*
X2309167Y-14329674D02*
X2318691Y-14291579D01*
X2318691Y-14291579D02*
X2328215Y-14272531D01*
X2328215Y-14272531D02*
X2337739Y-14263008D01*
X2337739Y-14263008D02*
X2356786Y-14253484D01*
X2613929Y-14453484D02*
X2499644Y-14453484D01*
X2556786Y-14453484D02*
X2556786Y-14253484D01*
X2556786Y-14253484D02*
X2537739Y-14282055D01*
X2537739Y-14282055D02*
X2518691Y-14301103D01*
X2518691Y-14301103D02*
X2499644Y-14310627D01*
X2785358Y-14253484D02*
X2747263Y-14253484D01*
X2747263Y-14253484D02*
X2728215Y-14263008D01*
X2728215Y-14263008D02*
X2718691Y-14272531D01*
X2718691Y-14272531D02*
X2699644Y-14301103D01*
X2699644Y-14301103D02*
X2690120Y-14339198D01*
X2690120Y-14339198D02*
X2690120Y-14415388D01*
X2690120Y-14415388D02*
X2699644Y-14434436D01*
X2699644Y-14434436D02*
X2709167Y-14443960D01*
X2709167Y-14443960D02*
X2728215Y-14453484D01*
X2728215Y-14453484D02*
X2766310Y-14453484D01*
X2766310Y-14453484D02*
X2785358Y-14443960D01*
X2785358Y-14443960D02*
X2794882Y-14434436D01*
X2794882Y-14434436D02*
X2804405Y-14415388D01*
X2804405Y-14415388D02*
X2804405Y-14367769D01*
X2804405Y-14367769D02*
X2794882Y-14348722D01*
X2794882Y-14348722D02*
X2785358Y-14339198D01*
X2785358Y-14339198D02*
X2766310Y-14329674D01*
X2766310Y-14329674D02*
X2728215Y-14329674D01*
X2728215Y-14329674D02*
X2709167Y-14339198D01*
X2709167Y-14339198D02*
X2699644Y-14348722D01*
X2699644Y-14348722D02*
X2690120Y-14367769D01*
X2890120Y-14453484D02*
X2890120Y-14320150D01*
X2890120Y-14339198D02*
X2899643Y-14329674D01*
X2899643Y-14329674D02*
X2918691Y-14320150D01*
X2918691Y-14320150D02*
X2947263Y-14320150D01*
X2947263Y-14320150D02*
X2966310Y-14329674D01*
X2966310Y-14329674D02*
X2975834Y-14348722D01*
X2975834Y-14348722D02*
X2975834Y-14453484D01*
X2975834Y-14348722D02*
X2985358Y-14329674D01*
X2985358Y-14329674D02*
X3004405Y-14320150D01*
X3004405Y-14320150D02*
X3032977Y-14320150D01*
X3032977Y-14320150D02*
X3052024Y-14329674D01*
X3052024Y-14329674D02*
X3061548Y-14348722D01*
X3061548Y-14348722D02*
X3061548Y-14453484D01*
X3156786Y-14453484D02*
X3156786Y-14320150D01*
X3156786Y-14339198D02*
X3166310Y-14329674D01*
X3166310Y-14329674D02*
X3185358Y-14320150D01*
X3185358Y-14320150D02*
X3213929Y-14320150D01*
X3213929Y-14320150D02*
X3232977Y-14329674D01*
X3232977Y-14329674D02*
X3242501Y-14348722D01*
X3242501Y-14348722D02*
X3242501Y-14453484D01*
X3242501Y-14348722D02*
X3252024Y-14329674D01*
X3252024Y-14329674D02*
X3271072Y-14320150D01*
X3271072Y-14320150D02*
X3299643Y-14320150D01*
X3299643Y-14320150D02*
X3318691Y-14329674D01*
X3318691Y-14329674D02*
X3328215Y-14348722D01*
X3328215Y-14348722D02*
X3328215Y-14453484D01*
X3718691Y-14243960D02*
X3547263Y-14501103D01*
X3975834Y-14253484D02*
X3994882Y-14253484D01*
X3994882Y-14253484D02*
X4013929Y-14263008D01*
X4013929Y-14263008D02*
X4023453Y-14272531D01*
X4023453Y-14272531D02*
X4032977Y-14291579D01*
X4032977Y-14291579D02*
X4042501Y-14329674D01*
X4042501Y-14329674D02*
X4042501Y-14377293D01*
X4042501Y-14377293D02*
X4032977Y-14415388D01*
X4032977Y-14415388D02*
X4023453Y-14434436D01*
X4023453Y-14434436D02*
X4013929Y-14443960D01*
X4013929Y-14443960D02*
X3994882Y-14453484D01*
X3994882Y-14453484D02*
X3975834Y-14453484D01*
X3975834Y-14453484D02*
X3956786Y-14443960D01*
X3956786Y-14443960D02*
X3947263Y-14434436D01*
X3947263Y-14434436D02*
X3937739Y-14415388D01*
X3937739Y-14415388D02*
X3928215Y-14377293D01*
X3928215Y-14377293D02*
X3928215Y-14329674D01*
X3928215Y-14329674D02*
X3937739Y-14291579D01*
X3937739Y-14291579D02*
X3947263Y-14272531D01*
X3947263Y-14272531D02*
X3956786Y-14263008D01*
X3956786Y-14263008D02*
X3975834Y-14253484D01*
X4128215Y-14434436D02*
X4137739Y-14443960D01*
X4137739Y-14443960D02*
X4128215Y-14453484D01*
X4128215Y-14453484D02*
X4118691Y-14443960D01*
X4118691Y-14443960D02*
X4128215Y-14434436D01*
X4128215Y-14434436D02*
X4128215Y-14453484D01*
X4261548Y-14253484D02*
X4280596Y-14253484D01*
X4280596Y-14253484D02*
X4299644Y-14263008D01*
X4299644Y-14263008D02*
X4309168Y-14272531D01*
X4309168Y-14272531D02*
X4318691Y-14291579D01*
X4318691Y-14291579D02*
X4328215Y-14329674D01*
X4328215Y-14329674D02*
X4328215Y-14377293D01*
X4328215Y-14377293D02*
X4318691Y-14415388D01*
X4318691Y-14415388D02*
X4309168Y-14434436D01*
X4309168Y-14434436D02*
X4299644Y-14443960D01*
X4299644Y-14443960D02*
X4280596Y-14453484D01*
X4280596Y-14453484D02*
X4261548Y-14453484D01*
X4261548Y-14453484D02*
X4242501Y-14443960D01*
X4242501Y-14443960D02*
X4232977Y-14434436D01*
X4232977Y-14434436D02*
X4223453Y-14415388D01*
X4223453Y-14415388D02*
X4213929Y-14377293D01*
X4213929Y-14377293D02*
X4213929Y-14329674D01*
X4213929Y-14329674D02*
X4223453Y-14291579D01*
X4223453Y-14291579D02*
X4232977Y-14272531D01*
X4232977Y-14272531D02*
X4242501Y-14263008D01*
X4242501Y-14263008D02*
X4261548Y-14253484D01*
X4499644Y-14320150D02*
X4499644Y-14453484D01*
X4452025Y-14243960D02*
X4404406Y-14386817D01*
X4404406Y-14386817D02*
X4528215Y-14386817D01*
X4642501Y-14253484D02*
X4661549Y-14253484D01*
X4661549Y-14253484D02*
X4680596Y-14263008D01*
X4680596Y-14263008D02*
X4690120Y-14272531D01*
X4690120Y-14272531D02*
X4699644Y-14291579D01*
X4699644Y-14291579D02*
X4709168Y-14329674D01*
X4709168Y-14329674D02*
X4709168Y-14377293D01*
X4709168Y-14377293D02*
X4699644Y-14415388D01*
X4699644Y-14415388D02*
X4690120Y-14434436D01*
X4690120Y-14434436D02*
X4680596Y-14443960D01*
X4680596Y-14443960D02*
X4661549Y-14453484D01*
X4661549Y-14453484D02*
X4642501Y-14453484D01*
X4642501Y-14453484D02*
X4623453Y-14443960D01*
X4623453Y-14443960D02*
X4613929Y-14434436D01*
X4613929Y-14434436D02*
X4604406Y-14415388D01*
X4604406Y-14415388D02*
X4594882Y-14377293D01*
X4594882Y-14377293D02*
X4594882Y-14329674D01*
X4594882Y-14329674D02*
X4604406Y-14291579D01*
X4604406Y-14291579D02*
X4613929Y-14272531D01*
X4613929Y-14272531D02*
X4623453Y-14263008D01*
X4623453Y-14263008D02*
X4642501Y-14253484D01*
X4832977Y-14253484D02*
X4852025Y-14253484D01*
X4852025Y-14253484D02*
X4871072Y-14263008D01*
X4871072Y-14263008D02*
X4880596Y-14272531D01*
X4880596Y-14272531D02*
X4890120Y-14291579D01*
X4890120Y-14291579D02*
X4899644Y-14329674D01*
X4899644Y-14329674D02*
X4899644Y-14377293D01*
X4899644Y-14377293D02*
X4890120Y-14415388D01*
X4890120Y-14415388D02*
X4880596Y-14434436D01*
X4880596Y-14434436D02*
X4871072Y-14443960D01*
X4871072Y-14443960D02*
X4852025Y-14453484D01*
X4852025Y-14453484D02*
X4832977Y-14453484D01*
X4832977Y-14453484D02*
X4813929Y-14443960D01*
X4813929Y-14443960D02*
X4804406Y-14434436D01*
X4804406Y-14434436D02*
X4794882Y-14415388D01*
X4794882Y-14415388D02*
X4785358Y-14377293D01*
X4785358Y-14377293D02*
X4785358Y-14329674D01*
X4785358Y-14329674D02*
X4794882Y-14291579D01*
X4794882Y-14291579D02*
X4804406Y-14272531D01*
X4804406Y-14272531D02*
X4813929Y-14263008D01*
X4813929Y-14263008D02*
X4832977Y-14253484D01*
X4975834Y-14253484D02*
X4975834Y-14291579D01*
X5052025Y-14253484D02*
X5052025Y-14291579D01*
X5347263Y-14529674D02*
X5337739Y-14520150D01*
X5337739Y-14520150D02*
X5318691Y-14491579D01*
X5318691Y-14491579D02*
X5309168Y-14472531D01*
X5309168Y-14472531D02*
X5299644Y-14443960D01*
X5299644Y-14443960D02*
X5290120Y-14396341D01*
X5290120Y-14396341D02*
X5290120Y-14358246D01*
X5290120Y-14358246D02*
X5299644Y-14310627D01*
X5299644Y-14310627D02*
X5309168Y-14282055D01*
X5309168Y-14282055D02*
X5318691Y-14263008D01*
X5318691Y-14263008D02*
X5337739Y-14234436D01*
X5337739Y-14234436D02*
X5347263Y-14224912D01*
X5528215Y-14453484D02*
X5413930Y-14453484D01*
X5471072Y-14453484D02*
X5471072Y-14253484D01*
X5471072Y-14253484D02*
X5452025Y-14282055D01*
X5452025Y-14282055D02*
X5432977Y-14301103D01*
X5432977Y-14301103D02*
X5413930Y-14310627D01*
X5604406Y-14272531D02*
X5613929Y-14263008D01*
X5613929Y-14263008D02*
X5632977Y-14253484D01*
X5632977Y-14253484D02*
X5680596Y-14253484D01*
X5680596Y-14253484D02*
X5699644Y-14263008D01*
X5699644Y-14263008D02*
X5709168Y-14272531D01*
X5709168Y-14272531D02*
X5718691Y-14291579D01*
X5718691Y-14291579D02*
X5718691Y-14310627D01*
X5718691Y-14310627D02*
X5709168Y-14339198D01*
X5709168Y-14339198D02*
X5594882Y-14453484D01*
X5594882Y-14453484D02*
X5718691Y-14453484D01*
X5785358Y-14253484D02*
X5909168Y-14253484D01*
X5909168Y-14253484D02*
X5842501Y-14329674D01*
X5842501Y-14329674D02*
X5871072Y-14329674D01*
X5871072Y-14329674D02*
X5890120Y-14339198D01*
X5890120Y-14339198D02*
X5899644Y-14348722D01*
X5899644Y-14348722D02*
X5909168Y-14367769D01*
X5909168Y-14367769D02*
X5909168Y-14415388D01*
X5909168Y-14415388D02*
X5899644Y-14434436D01*
X5899644Y-14434436D02*
X5890120Y-14443960D01*
X5890120Y-14443960D02*
X5871072Y-14453484D01*
X5871072Y-14453484D02*
X5813929Y-14453484D01*
X5813929Y-14453484D02*
X5794882Y-14443960D01*
X5794882Y-14443960D02*
X5785358Y-14434436D01*
X6147263Y-14453484D02*
X6147263Y-14253484D01*
X6232977Y-14453484D02*
X6232977Y-14348722D01*
X6232977Y-14348722D02*
X6223453Y-14329674D01*
X6223453Y-14329674D02*
X6204406Y-14320150D01*
X6204406Y-14320150D02*
X6175834Y-14320150D01*
X6175834Y-14320150D02*
X6156787Y-14329674D01*
X6156787Y-14329674D02*
X6147263Y-14339198D01*
X6356787Y-14453484D02*
X6337739Y-14443960D01*
X6337739Y-14443960D02*
X6328215Y-14434436D01*
X6328215Y-14434436D02*
X6318691Y-14415388D01*
X6318691Y-14415388D02*
X6318691Y-14358246D01*
X6318691Y-14358246D02*
X6328215Y-14339198D01*
X6328215Y-14339198D02*
X6337739Y-14329674D01*
X6337739Y-14329674D02*
X6356787Y-14320150D01*
X6356787Y-14320150D02*
X6385358Y-14320150D01*
X6385358Y-14320150D02*
X6404406Y-14329674D01*
X6404406Y-14329674D02*
X6413930Y-14339198D01*
X6413930Y-14339198D02*
X6423453Y-14358246D01*
X6423453Y-14358246D02*
X6423453Y-14415388D01*
X6423453Y-14415388D02*
X6413930Y-14434436D01*
X6413930Y-14434436D02*
X6404406Y-14443960D01*
X6404406Y-14443960D02*
X6385358Y-14453484D01*
X6385358Y-14453484D02*
X6356787Y-14453484D01*
X6537739Y-14453484D02*
X6518691Y-14443960D01*
X6518691Y-14443960D02*
X6509168Y-14424912D01*
X6509168Y-14424912D02*
X6509168Y-14253484D01*
X6690120Y-14443960D02*
X6671072Y-14453484D01*
X6671072Y-14453484D02*
X6632977Y-14453484D01*
X6632977Y-14453484D02*
X6613930Y-14443960D01*
X6613930Y-14443960D02*
X6604406Y-14424912D01*
X6604406Y-14424912D02*
X6604406Y-14348722D01*
X6604406Y-14348722D02*
X6613930Y-14329674D01*
X6613930Y-14329674D02*
X6632977Y-14320150D01*
X6632977Y-14320150D02*
X6671072Y-14320150D01*
X6671072Y-14320150D02*
X6690120Y-14329674D01*
X6690120Y-14329674D02*
X6699644Y-14348722D01*
X6699644Y-14348722D02*
X6699644Y-14367769D01*
X6699644Y-14367769D02*
X6604406Y-14386817D01*
X6775834Y-14443960D02*
X6794882Y-14453484D01*
X6794882Y-14453484D02*
X6832977Y-14453484D01*
X6832977Y-14453484D02*
X6852025Y-14443960D01*
X6852025Y-14443960D02*
X6861549Y-14424912D01*
X6861549Y-14424912D02*
X6861549Y-14415388D01*
X6861549Y-14415388D02*
X6852025Y-14396341D01*
X6852025Y-14396341D02*
X6832977Y-14386817D01*
X6832977Y-14386817D02*
X6804406Y-14386817D01*
X6804406Y-14386817D02*
X6785358Y-14377293D01*
X6785358Y-14377293D02*
X6775834Y-14358246D01*
X6775834Y-14358246D02*
X6775834Y-14348722D01*
X6775834Y-14348722D02*
X6785358Y-14329674D01*
X6785358Y-14329674D02*
X6804406Y-14320150D01*
X6804406Y-14320150D02*
X6832977Y-14320150D01*
X6832977Y-14320150D02*
X6852025Y-14329674D01*
X6928215Y-14529674D02*
X6937739Y-14520150D01*
X6937739Y-14520150D02*
X6956787Y-14491579D01*
X6956787Y-14491579D02*
X6966311Y-14472531D01*
X6966311Y-14472531D02*
X6975834Y-14443960D01*
X6975834Y-14443960D02*
X6985358Y-14396341D01*
X6985358Y-14396341D02*
X6985358Y-14358246D01*
X6985358Y-14358246D02*
X6975834Y-14310627D01*
X6975834Y-14310627D02*
X6966311Y-14282055D01*
X6966311Y-14282055D02*
X6956787Y-14263008D01*
X6956787Y-14263008D02*
X6937739Y-14234436D01*
X6937739Y-14234436D02*
X6928215Y-14224912D01*
M02*
