M48
; DRILL file KiCad 10.0.6 date 2026-09-24T16:04:05
; FORMAT={-:-/ absolute / metric / decimal}
; #@! TF.CreationDate,2026-09-24T16:04:05-04:00
; #@! TF.GenerationSoftware,Kicad,Pcbnew,10.0.6
; #@! TF.FileFunction,MixedPlating,1,4
FMAT,2
METRIC
; #@! TA.AperFunction,Plated,PTH,ViaDrill
T1C0.400
; #@! TA.AperFunction,Plated,PTH,ComponentDrill
T2C0.800
; #@! TA.AperFunction,Plated,PTH,ComponentDrill
T3C0.813
; #@! TA.AperFunction,Plated,PTH,ComponentDrill
T4C0.900
; #@! TA.AperFunction,Plated,PTH,ComponentDrill
T5C1.000
; #@! TA.AperFunction,Plated,PTH,ComponentDrill
T6C1.016
; #@! TA.AperFunction,NonPlated,NPTH,ComponentDrill
T7C2.794
%
G90
G05
T1
X29.315Y-87.146
X30.989Y-93.526
X31.786Y-27.342
X31.928Y-69.788
X32.392Y-57.49
X33.33Y-95.843
X33.613Y-96.861
X34.855Y-47.853
X35.076Y-58.343
X36.476Y-98.956
X38.258Y-61.452
X51.001Y-71.305
X51.487Y-101.837
X54.086Y-71.744
X54.646Y-102.357
X55.58Y-57.741
X55.933Y-79.847
X57.162Y-52.447
X62.833Y-100.691
X64.923Y-30.958
X64.923Y-39.62
X65.549Y-45.248
X65.72Y-37.006
X72.261Y-84.906
X75.253Y-77.488
X77.887Y-80.108
X78.897Y-80.507
X79.779Y-81.439
X82.078Y-66.411
X85.48Y-80.054
X85.799Y-59.969
X87.539Y-59.588
X104.223Y-14.683
X105.126Y-54.141
X106.763Y-14.683
X108.737Y-22.535
X122.174Y-26.324
X144.753Y-18.393
X146.585Y-85.9
X147.172Y-35.904
X149.977Y-35.877
X153.323Y-60.728
X162.946Y-16.363
T2
X148.56Y-42.8
X148.56Y-47.8
X148.56Y-56.77
X148.56Y-61.77
X148.56Y-70.74
X148.56Y-75.74
X148.56Y-84.71
X148.56Y-89.71
X148.56Y-98.68
X148.56Y-103.68
X153.64Y-41.45
X153.64Y-49.07
X153.64Y-55.42
X153.64Y-63.04
X153.64Y-69.39
X153.64Y-77.01
X153.64Y-83.36
X153.64Y-90.98
X153.64Y-97.33
X153.64Y-104.95
X156.18Y-41.45
X156.18Y-49.07
X156.18Y-55.42
X156.18Y-63.04
X156.18Y-69.39
X156.18Y-77.01
X156.18Y-83.36
X156.18Y-90.98
X156.18Y-97.33
X156.18Y-104.95
X158.72Y-41.45
X158.72Y-49.07
X158.72Y-55.42
X158.72Y-63.04
X158.72Y-69.39
X158.72Y-77.01
X158.72Y-83.36
X158.72Y-90.98
X158.72Y-97.33
X158.72Y-104.95
X161.26Y-41.45
X161.26Y-49.07
X161.26Y-55.42
X161.26Y-63.04
X161.26Y-69.39
X161.26Y-77.01
X161.26Y-83.36
X161.26Y-90.98
X161.26Y-97.33
X161.26Y-104.95
X162.53Y-116.38
X163.8Y-41.45
X163.8Y-49.07
X163.8Y-55.42
X163.8Y-63.04
X163.8Y-69.39
X163.8Y-77.01
X163.8Y-83.36
X163.8Y-90.98
X163.8Y-97.33
X163.8Y-104.95
X166.34Y-41.45
X166.34Y-49.07
X166.34Y-55.42
X166.34Y-63.04
X166.34Y-69.39
X166.34Y-77.01
X166.34Y-83.36
X166.34Y-90.98
X166.34Y-97.33
X166.34Y-104.95
X168.88Y-41.45
X168.88Y-49.07
X168.88Y-55.42
X168.88Y-63.04
X168.88Y-69.39
X168.88Y-77.01
X168.88Y-83.36
X168.88Y-90.98
X168.88Y-97.33
X168.88Y-104.95
X171.42Y-55.42
X171.42Y-63.04
X171.42Y-83.36
X171.42Y-90.98
X171.42Y-97.33
X171.42Y-104.95
X172.69Y-116.38
X173.96Y-55.42
X173.96Y-63.04
X176.5Y-55.42
X176.5Y-63.04
X176.5Y-88.44
X176.5Y-98.6
X176.5Y-102.41
X176.5Y-112.57
X180.31Y-88.44
X180.31Y-98.6
X180.31Y-102.41
X180.31Y-112.57
X181.58Y-22.4
X181.58Y-51.61
X181.58Y-54.15
X181.58Y-56.69
X181.58Y-59.23
X181.58Y-61.77
X181.58Y-64.31
X181.58Y-66.85
X181.58Y-69.39
X181.58Y-71.93
X183.58Y-22.4
T3
X35.53Y-14.78
X35.53Y-17.32
X35.53Y-22.4
X35.53Y-24.94
X35.53Y-36.37
X35.53Y-38.91
X35.53Y-50.34
X35.53Y-52.88
X35.53Y-64.31
X35.53Y-66.85
X35.53Y-78.28
X35.53Y-80.82
X35.53Y-92.25
X35.53Y-94.79
X35.53Y-116.38
X35.53Y-118.92
X40.61Y-19.86
X40.61Y-27.48
X40.61Y-33.83
X40.61Y-41.45
X40.61Y-47.8
X40.61Y-55.42
X40.61Y-61.77
X40.61Y-69.39
X40.61Y-75.74
X40.61Y-83.36
X40.61Y-89.71
X40.61Y-97.33
X40.61Y-104.95
X40.61Y-110.03
X43.15Y-19.86
X43.15Y-27.48
X43.15Y-33.83
X43.15Y-41.45
X43.15Y-47.8
X43.15Y-55.42
X43.15Y-61.77
X43.15Y-69.39
X43.15Y-75.74
X43.15Y-83.36
X43.15Y-89.71
X43.15Y-97.33
X43.15Y-104.95
X43.15Y-110.03
X45.69Y-19.86
X45.69Y-27.48
X45.69Y-33.83
X45.69Y-41.45
X45.69Y-47.8
X45.69Y-55.42
X45.69Y-61.77
X45.69Y-69.39
X45.69Y-75.74
X45.69Y-83.36
X45.69Y-89.71
X45.69Y-97.33
X45.69Y-104.95
X45.69Y-110.03
X48.23Y-19.86
X48.23Y-27.48
X48.23Y-33.83
X48.23Y-41.45
X48.23Y-47.8
X48.23Y-55.42
X48.23Y-61.77
X48.23Y-69.39
X48.23Y-75.74
X48.23Y-83.36
X48.23Y-89.71
X48.23Y-97.33
X48.23Y-104.95
X48.23Y-110.03
X50.77Y-19.86
X50.77Y-27.48
X50.77Y-33.83
X50.77Y-41.45
X50.77Y-47.8
X50.77Y-55.42
X50.77Y-61.77
X50.77Y-69.39
X50.77Y-75.74
X50.77Y-83.36
X50.77Y-89.71
X50.77Y-97.33
X50.77Y-104.95
X50.77Y-110.03
X53.31Y-19.86
X53.31Y-27.48
X53.31Y-33.83
X53.31Y-41.45
X53.31Y-47.8
X53.31Y-55.42
X53.31Y-61.77
X53.31Y-69.39
X53.31Y-75.74
X53.31Y-83.36
X53.31Y-89.71
X53.31Y-97.33
X53.31Y-104.95
X53.31Y-110.03
X55.85Y-19.86
X55.85Y-27.48
X55.85Y-33.83
X55.85Y-41.45
X55.85Y-47.8
X55.85Y-55.42
X55.85Y-61.77
X55.85Y-69.39
X55.85Y-75.74
X55.85Y-83.36
X55.85Y-89.71
X55.85Y-97.33
X55.85Y-104.95
X55.85Y-110.03
X58.39Y-19.86
X58.39Y-27.48
X58.39Y-33.83
X58.39Y-41.45
X58.39Y-47.8
X58.39Y-55.42
X58.39Y-61.77
X58.39Y-69.39
X58.39Y-75.74
X58.39Y-83.36
X58.39Y-89.71
X58.39Y-97.33
X58.39Y-104.95
X58.39Y-110.03
X60.93Y-19.86
X60.93Y-27.48
X60.93Y-33.83
X60.93Y-41.45
X60.93Y-47.8
X60.93Y-55.42
X60.93Y-61.77
X60.93Y-69.39
X60.93Y-75.74
X60.93Y-83.36
X60.93Y-89.71
X60.93Y-97.33
X60.93Y-104.95
X60.93Y-110.03
X63.47Y-19.86
X63.47Y-27.48
X63.47Y-33.83
X63.47Y-41.45
X63.47Y-47.8
X63.47Y-55.42
X63.47Y-61.77
X63.47Y-69.39
X63.47Y-75.74
X63.47Y-83.36
X63.47Y-89.71
X63.47Y-97.33
X71.09Y-22.4
X71.09Y-24.94
X71.09Y-36.37
X71.09Y-38.91
X71.09Y-50.34
X71.09Y-52.88
X71.09Y-64.31
X71.09Y-66.85
X71.09Y-78.28
X71.09Y-80.82
X71.09Y-92.25
X71.09Y-94.79
X71.09Y-106.22
X71.09Y-108.76
X76.17Y-19.86
X76.17Y-27.48
X76.17Y-33.83
X76.17Y-41.45
X76.17Y-47.8
X76.17Y-55.42
X76.17Y-61.77
X76.17Y-69.39
X76.17Y-75.74
X76.17Y-83.36
X76.17Y-89.71
X76.17Y-97.33
X76.17Y-103.68
X76.17Y-111.3
X78.71Y-19.86
X78.71Y-27.48
X78.71Y-33.83
X78.71Y-41.45
X78.71Y-47.8
X78.71Y-55.42
X78.71Y-61.77
X78.71Y-69.39
X78.71Y-75.74
X78.71Y-83.36
X78.71Y-89.71
X78.71Y-97.33
X78.71Y-103.68
X78.71Y-111.3
X81.25Y-19.86
X81.25Y-27.48
X81.25Y-33.83
X81.25Y-41.45
X81.25Y-47.8
X81.25Y-55.42
X81.25Y-61.77
X81.25Y-69.39
X81.25Y-75.74
X81.25Y-83.36
X81.25Y-89.71
X81.25Y-97.33
X81.25Y-103.68
X81.25Y-111.3
X83.79Y-19.86
X83.79Y-27.48
X83.79Y-33.83
X83.79Y-41.45
X83.79Y-47.8
X83.79Y-55.42
X83.79Y-61.77
X83.79Y-69.39
X83.79Y-75.74
X83.79Y-83.36
X83.79Y-89.71
X83.79Y-97.33
X83.79Y-103.68
X83.79Y-111.3
X86.33Y-19.86
X86.33Y-27.48
X86.33Y-33.83
X86.33Y-41.45
X86.33Y-47.8
X86.33Y-55.42
X86.33Y-61.77
X86.33Y-69.39
X86.33Y-75.74
X86.33Y-83.36
X86.33Y-89.71
X86.33Y-97.33
X86.33Y-103.68
X86.33Y-111.3
X88.87Y-19.86
X88.87Y-27.48
X88.87Y-33.83
X88.87Y-41.45
X88.87Y-47.8
X88.87Y-55.42
X88.87Y-61.77
X88.87Y-69.39
X88.87Y-75.74
X88.87Y-83.36
X88.87Y-89.71
X88.87Y-97.33
X88.87Y-103.68
X88.87Y-111.3
X91.41Y-19.86
X91.41Y-27.48
X91.41Y-33.83
X91.41Y-41.45
X91.41Y-47.8
X91.41Y-55.42
X91.41Y-61.77
X91.41Y-69.39
X91.41Y-75.74
X91.41Y-83.36
X91.41Y-89.71
X91.41Y-97.33
X91.41Y-103.68
X91.41Y-111.3
X93.95Y-47.8
X93.95Y-55.42
X93.95Y-61.77
X93.95Y-69.39
X96.49Y-47.8
X96.49Y-55.42
X99.03Y-47.8
X99.03Y-55.42
X100.3Y-13.51
X100.3Y-30.02
X102.84Y-13.51
X102.84Y-30.02
X104.11Y-41.45
X104.11Y-43.99
X104.11Y-63.04
X104.11Y-65.58
X104.11Y-84.63
X104.11Y-87.17
X104.11Y-102.41
X104.11Y-104.95
X105.38Y-13.51
X105.38Y-30.02
X107.92Y-13.51
X107.92Y-30.02
X109.19Y-35.1
X109.19Y-50.34
X109.19Y-56.69
X109.19Y-71.93
X109.19Y-78.28
X109.19Y-93.52
X109.19Y-99.87
X109.19Y-107.49
X110.46Y-13.51
X110.46Y-30.02
X111.73Y-35.1
X111.73Y-50.34
X111.73Y-56.69
X111.73Y-71.93
X111.73Y-78.28
X111.73Y-93.52
X111.73Y-99.87
X111.73Y-107.49
X113.0Y-13.51
X113.0Y-30.02
X114.27Y-35.1
X114.27Y-50.34
X114.27Y-56.69
X114.27Y-71.93
X114.27Y-78.28
X114.27Y-93.52
X114.27Y-99.87
X114.27Y-107.49
X115.54Y-13.51
X115.54Y-30.02
X116.81Y-35.1
X116.81Y-50.34
X116.81Y-56.69
X116.81Y-71.93
X116.81Y-78.28
X116.81Y-93.52
X116.81Y-99.87
X116.81Y-107.49
X118.08Y-13.51
X118.08Y-30.02
X119.35Y-35.1
X119.35Y-50.34
X119.35Y-56.69
X119.35Y-71.93
X119.35Y-78.28
X119.35Y-93.52
X119.35Y-99.87
X119.35Y-107.49
X120.62Y-13.51
X120.62Y-30.02
X121.89Y-35.1
X121.89Y-50.34
X121.89Y-56.69
X121.89Y-71.93
X121.89Y-78.28
X121.89Y-93.52
X121.89Y-99.87
X121.89Y-107.49
X124.43Y-35.1
X124.43Y-50.34
X124.43Y-56.69
X124.43Y-71.93
X124.43Y-78.28
X124.43Y-93.52
X124.43Y-99.87
X124.43Y-107.49
X125.7Y-17.32
X125.7Y-19.86
X126.97Y-35.1
X126.97Y-50.34
X126.97Y-56.69
X126.97Y-71.93
X126.97Y-78.28
X126.97Y-93.52
X129.51Y-14.78
X129.51Y-22.4
X129.51Y-35.1
X129.51Y-50.34
X129.51Y-56.69
X129.51Y-71.93
X129.51Y-78.28
X129.51Y-93.52
X132.05Y-14.78
X132.05Y-22.4
X132.05Y-35.1
X132.05Y-50.34
X132.05Y-56.69
X132.05Y-71.93
X132.05Y-78.28
X132.05Y-93.52
X134.59Y-14.78
X134.59Y-22.4
X134.59Y-35.1
X134.59Y-50.34
X134.59Y-56.69
X134.59Y-71.93
X134.59Y-78.28
X134.59Y-93.52
X137.13Y-14.78
X137.13Y-22.4
X137.13Y-35.1
X137.13Y-50.34
X137.13Y-56.69
X137.13Y-71.93
X137.13Y-78.28
X137.13Y-93.52
X139.67Y-14.78
X139.67Y-22.4
X139.67Y-35.1
X139.67Y-50.34
X139.67Y-56.69
X139.67Y-71.93
X139.67Y-78.28
X139.67Y-93.52
X142.21Y-14.78
X142.21Y-22.4
X142.21Y-35.1
X142.21Y-50.34
X142.21Y-56.69
X142.21Y-71.93
X142.21Y-78.28
X142.21Y-93.52
X144.75Y-14.78
X144.75Y-22.4
X144.75Y-121.46
X147.29Y-121.46
X148.56Y-16.05
X148.56Y-18.59
X148.56Y-30.02
X148.56Y-32.56
X153.64Y-13.51
X153.64Y-21.13
X153.64Y-27.48
X153.64Y-35.1
X156.18Y-13.51
X156.18Y-21.13
X156.18Y-27.48
X156.18Y-35.1
X158.72Y-13.51
X158.72Y-21.13
X158.72Y-27.48
X158.72Y-35.1
X161.26Y-13.51
X161.26Y-21.13
X161.26Y-27.48
X161.26Y-35.1
X162.53Y-121.46
X163.8Y-13.51
X163.8Y-21.13
X163.8Y-27.48
X163.8Y-35.1
X166.34Y-13.51
X166.34Y-21.13
X166.34Y-27.48
X166.34Y-35.1
X168.88Y-13.51
X168.88Y-21.13
X168.88Y-27.48
X168.88Y-35.1
X171.42Y-13.51
X171.42Y-21.13
X172.69Y-121.46
X177.77Y-13.51
X180.31Y-13.51
X190.47Y-120.19
X193.01Y-120.19
T4
X181.58Y-120.19
X184.12Y-120.19
T5
X189.2Y-50.34
X189.2Y-52.88
X189.2Y-55.42
X189.2Y-57.96
X189.2Y-60.5
X189.2Y-63.04
X189.2Y-65.58
X189.2Y-68.12
X189.2Y-70.66
X189.2Y-73.2
X189.2Y-75.74
X189.2Y-78.28
X189.2Y-80.82
X189.2Y-83.36
X189.2Y-85.9
X189.2Y-88.44
X189.2Y-90.98
X189.2Y-93.52
X189.2Y-96.06
X189.2Y-98.6
X191.74Y-13.51
X191.74Y-16.05
X191.74Y-23.67
X191.74Y-26.21
X191.74Y-28.75
X191.74Y-31.29
X191.74Y-50.34
X191.74Y-52.88
X191.74Y-55.42
X191.74Y-57.96
X191.74Y-60.5
X191.74Y-63.04
X191.74Y-65.58
X191.74Y-68.12
X191.74Y-70.66
X191.74Y-73.2
X191.74Y-75.74
X191.74Y-78.28
X191.74Y-80.82
X191.74Y-83.36
X191.74Y-85.9
X191.74Y-88.44
X191.74Y-90.98
X191.74Y-93.52
X191.74Y-96.06
X191.74Y-98.6
T6
X22.827Y-27.475
X22.827Y-30.015
X22.827Y-32.555
X22.827Y-35.095
X22.827Y-37.635
X22.827Y-40.175
X22.827Y-42.715
X22.827Y-45.255
X22.827Y-47.795
X22.827Y-50.335
X22.827Y-52.875
X22.827Y-55.415
X22.827Y-57.955
X22.827Y-60.495
X22.827Y-63.035
X22.827Y-65.575
X22.827Y-68.115
X22.827Y-70.655
X22.827Y-73.195
X22.827Y-75.735
X22.827Y-78.275
X22.827Y-80.815
X22.827Y-83.355
X22.827Y-85.895
X22.827Y-88.435
X22.827Y-90.975
X22.827Y-93.515
X22.827Y-96.055
X22.827Y-98.595
X22.827Y-101.135
X22.827Y-103.675
X22.827Y-106.215
X22.83Y-14.78
X25.367Y-27.475
X25.367Y-30.015
X25.367Y-32.555
X25.367Y-35.095
X25.367Y-37.635
X25.367Y-40.175
X25.367Y-42.715
X25.367Y-45.255
X25.367Y-47.795
X25.367Y-50.335
X25.367Y-52.875
X25.367Y-55.415
X25.367Y-57.955
X25.367Y-60.495
X25.367Y-63.035
X25.367Y-65.575
X25.367Y-68.115
X25.367Y-70.655
X25.367Y-73.195
X25.367Y-75.735
X25.367Y-78.275
X25.367Y-80.815
X25.367Y-83.355
X25.367Y-85.895
X25.367Y-88.435
X25.367Y-90.975
X25.367Y-93.515
X25.367Y-96.055
X25.367Y-98.595
X25.367Y-101.135
X25.367Y-103.675
X25.367Y-106.215
X25.37Y-14.78
X27.907Y-27.475
X27.907Y-30.015
X27.907Y-32.555
X27.907Y-35.095
X27.907Y-37.635
X27.907Y-40.175
X27.907Y-42.715
X27.907Y-45.255
X27.907Y-47.795
X27.907Y-50.335
X27.907Y-52.875
X27.907Y-55.415
X27.907Y-57.955
X27.907Y-60.495
X27.907Y-63.035
X27.907Y-65.575
X27.907Y-68.115
X27.907Y-70.655
X27.907Y-73.195
X27.907Y-75.735
X27.907Y-78.275
X27.907Y-80.815
X27.907Y-83.355
X27.907Y-85.895
X27.907Y-88.435
X27.907Y-90.975
X27.907Y-93.515
X27.907Y-96.055
X27.907Y-98.595
X27.907Y-101.135
X27.907Y-103.675
X27.907Y-106.215
X27.91Y-14.78
X102.84Y-18.59
X102.84Y-21.13
X102.84Y-23.67
X105.38Y-18.59
X105.38Y-21.13
X105.38Y-23.67
X107.92Y-18.59
X107.92Y-21.13
X107.92Y-23.67
X110.46Y-18.59
X110.46Y-21.13
X110.46Y-23.67
X113.0Y-18.59
X113.0Y-21.13
X113.0Y-23.67
X115.54Y-18.59
X115.54Y-21.13
X115.54Y-23.67
X118.08Y-18.59
X118.08Y-21.13
X118.08Y-23.67
X120.62Y-18.59
X120.62Y-21.13
X120.62Y-23.67
T7
X20.287Y-22.389
X20.287Y-111.301
M30
