G04 EAGLE Gerber RS-274X export*
G75*
%MOMM*%
%FSLAX34Y34*%
%LPD*%
%INTop Copper*%
%IPPOS*%
%AMOC8*
5,1,8,0,0,1.08239X$1,22.5*%
G01*
%ADD10C,1.219200*%
%ADD11C,1.219200*%
%ADD12P,1.539592X8X202.500000*%
%ADD13P,1.539592X8X22.500000*%
%ADD14R,1.500000X1.500000*%
%ADD15C,1.778000*%
%ADD16P,1.319650X8X22.500000*%
%ADD17P,1.319650X8X202.500000*%
%ADD18P,1.814519X8X112.500000*%
%ADD19P,1.319650X8X292.500000*%
%ADD20C,1.524000*%
%ADD21P,1.649562X8X292.500000*%
%ADD22C,2.705100*%
%ADD23P,1.319650X8X112.500000*%
%ADD24P,1.539592X8X292.500000*%
%ADD25C,1.371600*%
%ADD26C,2.200000*%
%ADD27C,1.700000*%
%ADD28R,1.905000X1.905000*%
%ADD29C,1.905000*%
%ADD30C,0.152400*%
%ADD31C,0.685800*%


D10*
X871220Y1027430D03*
X871220Y979170D03*
D11*
X482600Y971296D02*
X482600Y959104D01*
X508000Y959104D02*
X508000Y971296D01*
X533400Y971296D02*
X533400Y959104D01*
X558800Y959104D02*
X558800Y971296D01*
X584200Y971296D02*
X584200Y959104D01*
X609600Y959104D02*
X609600Y971296D01*
X635000Y971296D02*
X635000Y959104D01*
X660400Y959104D02*
X660400Y971296D01*
X685800Y971296D02*
X685800Y959104D01*
X711200Y959104D02*
X711200Y971296D01*
X736600Y971296D02*
X736600Y959104D01*
X762000Y959104D02*
X762000Y971296D01*
X787400Y971296D02*
X787400Y959104D01*
X812800Y959104D02*
X812800Y971296D01*
X812800Y1035304D02*
X812800Y1047496D01*
X787400Y1047496D02*
X787400Y1035304D01*
X762000Y1035304D02*
X762000Y1047496D01*
X736600Y1047496D02*
X736600Y1035304D01*
X711200Y1035304D02*
X711200Y1047496D01*
X685800Y1047496D02*
X685800Y1035304D01*
X660400Y1035304D02*
X660400Y1047496D01*
X635000Y1047496D02*
X635000Y1035304D01*
X609600Y1035304D02*
X609600Y1047496D01*
X584200Y1047496D02*
X584200Y1035304D01*
X558800Y1035304D02*
X558800Y1047496D01*
X533400Y1047496D02*
X533400Y1035304D01*
X508000Y1035304D02*
X508000Y1047496D01*
X482600Y1047496D02*
X482600Y1035304D01*
D12*
X952500Y980440D03*
X927100Y980440D03*
X955040Y1026160D03*
X929640Y1026160D03*
X1193800Y1828800D03*
X1168400Y1828800D03*
D13*
X533400Y1104900D03*
X558800Y1104900D03*
X469900Y1104900D03*
X495300Y1104900D03*
D11*
X1378204Y520700D02*
X1390396Y520700D01*
X1390396Y546100D02*
X1378204Y546100D01*
X1378204Y571500D02*
X1390396Y571500D01*
X1390396Y596900D02*
X1378204Y596900D01*
X1378204Y622300D02*
X1390396Y622300D01*
X1390396Y647700D02*
X1378204Y647700D01*
X1378204Y673100D02*
X1390396Y673100D01*
X1390396Y698500D02*
X1378204Y698500D01*
X1378204Y723900D02*
X1390396Y723900D01*
X1390396Y749300D02*
X1378204Y749300D01*
X1378204Y774700D02*
X1390396Y774700D01*
X1390396Y800100D02*
X1378204Y800100D01*
X1378204Y825500D02*
X1390396Y825500D01*
X1390396Y850900D02*
X1378204Y850900D01*
X1314196Y850900D02*
X1302004Y850900D01*
X1302004Y825500D02*
X1314196Y825500D01*
X1314196Y800100D02*
X1302004Y800100D01*
X1302004Y774700D02*
X1314196Y774700D01*
X1314196Y749300D02*
X1302004Y749300D01*
X1302004Y723900D02*
X1314196Y723900D01*
X1314196Y698500D02*
X1302004Y698500D01*
X1302004Y673100D02*
X1314196Y673100D01*
X1314196Y647700D02*
X1302004Y647700D01*
X1302004Y622300D02*
X1314196Y622300D01*
X1314196Y596900D02*
X1302004Y596900D01*
X1302004Y571500D02*
X1314196Y571500D01*
X1314196Y546100D02*
X1302004Y546100D01*
X1302004Y520700D02*
X1314196Y520700D01*
X895096Y520700D02*
X882904Y520700D01*
X882904Y546100D02*
X895096Y546100D01*
X895096Y571500D02*
X882904Y571500D01*
X882904Y596900D02*
X895096Y596900D01*
X895096Y622300D02*
X882904Y622300D01*
X882904Y647700D02*
X895096Y647700D01*
X895096Y673100D02*
X882904Y673100D01*
X882904Y698500D02*
X895096Y698500D01*
X895096Y723900D02*
X882904Y723900D01*
X882904Y749300D02*
X895096Y749300D01*
X895096Y774700D02*
X882904Y774700D01*
X882904Y800100D02*
X895096Y800100D01*
X895096Y825500D02*
X882904Y825500D01*
X882904Y850900D02*
X895096Y850900D01*
X818896Y850900D02*
X806704Y850900D01*
X806704Y825500D02*
X818896Y825500D01*
X818896Y800100D02*
X806704Y800100D01*
X806704Y774700D02*
X818896Y774700D01*
X818896Y749300D02*
X806704Y749300D01*
X806704Y723900D02*
X818896Y723900D01*
X818896Y698500D02*
X806704Y698500D01*
X806704Y673100D02*
X818896Y673100D01*
X818896Y647700D02*
X806704Y647700D01*
X806704Y622300D02*
X818896Y622300D01*
X818896Y596900D02*
X806704Y596900D01*
X806704Y571500D02*
X818896Y571500D01*
X818896Y546100D02*
X806704Y546100D01*
X806704Y520700D02*
X818896Y520700D01*
X564896Y520700D02*
X552704Y520700D01*
X552704Y546100D02*
X564896Y546100D01*
X564896Y571500D02*
X552704Y571500D01*
X552704Y596900D02*
X564896Y596900D01*
X564896Y622300D02*
X552704Y622300D01*
X552704Y647700D02*
X564896Y647700D01*
X564896Y673100D02*
X552704Y673100D01*
X552704Y698500D02*
X564896Y698500D01*
X564896Y723900D02*
X552704Y723900D01*
X552704Y749300D02*
X564896Y749300D01*
X564896Y774700D02*
X552704Y774700D01*
X552704Y800100D02*
X564896Y800100D01*
X564896Y825500D02*
X552704Y825500D01*
X552704Y850900D02*
X564896Y850900D01*
X488696Y850900D02*
X476504Y850900D01*
X476504Y825500D02*
X488696Y825500D01*
X488696Y800100D02*
X476504Y800100D01*
X476504Y774700D02*
X488696Y774700D01*
X488696Y749300D02*
X476504Y749300D01*
X476504Y723900D02*
X488696Y723900D01*
X488696Y698500D02*
X476504Y698500D01*
X476504Y673100D02*
X488696Y673100D01*
X488696Y647700D02*
X476504Y647700D01*
X476504Y622300D02*
X488696Y622300D01*
X488696Y596900D02*
X476504Y596900D01*
X476504Y571500D02*
X488696Y571500D01*
X488696Y546100D02*
X476504Y546100D01*
X476504Y520700D02*
X488696Y520700D01*
X1143000Y959104D02*
X1143000Y971296D01*
X1168400Y971296D02*
X1168400Y959104D01*
X1193800Y959104D02*
X1193800Y971296D01*
X1219200Y971296D02*
X1219200Y959104D01*
X1219200Y1035304D02*
X1219200Y1047496D01*
X1193800Y1047496D02*
X1193800Y1035304D01*
X1168400Y1035304D02*
X1168400Y1047496D01*
X1143000Y1047496D02*
X1143000Y1035304D01*
D14*
X1308100Y1917700D03*
D15*
X1282700Y1917700D03*
X1257300Y1917700D03*
X1231900Y1917700D03*
X1206500Y1917700D03*
X1181100Y1917700D03*
D16*
X1333500Y1104900D03*
X1435100Y1104900D03*
D17*
X1092200Y1028700D03*
X990600Y1028700D03*
D18*
X939800Y749300D03*
X939800Y850900D03*
X609600Y749300D03*
X609600Y850900D03*
X1270000Y749300D03*
X1270000Y850900D03*
D17*
X1092200Y977900D03*
X990600Y977900D03*
D11*
X1048004Y520700D02*
X1060196Y520700D01*
X1060196Y546100D02*
X1048004Y546100D01*
X1048004Y571500D02*
X1060196Y571500D01*
X1060196Y596900D02*
X1048004Y596900D01*
X1048004Y622300D02*
X1060196Y622300D01*
X1060196Y647700D02*
X1048004Y647700D01*
X1048004Y673100D02*
X1060196Y673100D01*
X1060196Y698500D02*
X1048004Y698500D01*
X1048004Y723900D02*
X1060196Y723900D01*
X1060196Y749300D02*
X1048004Y749300D01*
X1048004Y774700D02*
X1060196Y774700D01*
X1060196Y800100D02*
X1048004Y800100D01*
X1048004Y825500D02*
X1060196Y825500D01*
X1060196Y850900D02*
X1048004Y850900D01*
X983996Y850900D02*
X971804Y850900D01*
X971804Y825500D02*
X983996Y825500D01*
X983996Y800100D02*
X971804Y800100D01*
X971804Y774700D02*
X983996Y774700D01*
X983996Y749300D02*
X971804Y749300D01*
X971804Y723900D02*
X983996Y723900D01*
X983996Y698500D02*
X971804Y698500D01*
X971804Y673100D02*
X983996Y673100D01*
X983996Y647700D02*
X971804Y647700D01*
X971804Y622300D02*
X983996Y622300D01*
X983996Y596900D02*
X971804Y596900D01*
X971804Y571500D02*
X983996Y571500D01*
X983996Y546100D02*
X971804Y546100D01*
X971804Y520700D02*
X983996Y520700D01*
D18*
X1104900Y749300D03*
X1104900Y850900D03*
D11*
X729996Y520700D02*
X717804Y520700D01*
X717804Y546100D02*
X729996Y546100D01*
X729996Y571500D02*
X717804Y571500D01*
X717804Y596900D02*
X729996Y596900D01*
X729996Y622300D02*
X717804Y622300D01*
X717804Y647700D02*
X729996Y647700D01*
X729996Y673100D02*
X717804Y673100D01*
X717804Y698500D02*
X729996Y698500D01*
X729996Y723900D02*
X717804Y723900D01*
X717804Y749300D02*
X729996Y749300D01*
X729996Y774700D02*
X717804Y774700D01*
X717804Y800100D02*
X729996Y800100D01*
X729996Y825500D02*
X717804Y825500D01*
X717804Y850900D02*
X729996Y850900D01*
X653796Y850900D02*
X641604Y850900D01*
X641604Y825500D02*
X653796Y825500D01*
X653796Y800100D02*
X641604Y800100D01*
X641604Y774700D02*
X653796Y774700D01*
X653796Y749300D02*
X641604Y749300D01*
X641604Y723900D02*
X653796Y723900D01*
X653796Y698500D02*
X641604Y698500D01*
X641604Y673100D02*
X653796Y673100D01*
X653796Y647700D02*
X641604Y647700D01*
X641604Y622300D02*
X653796Y622300D01*
X653796Y596900D02*
X641604Y596900D01*
X641604Y571500D02*
X653796Y571500D01*
X653796Y546100D02*
X641604Y546100D01*
X641604Y520700D02*
X653796Y520700D01*
D18*
X444500Y749300D03*
X444500Y850900D03*
D19*
X762000Y1930400D03*
X762000Y1905000D03*
X990600Y1930400D03*
X990600Y1905000D03*
X838200Y1930400D03*
X838200Y1905000D03*
X1066800Y1930400D03*
X1066800Y1905000D03*
X914400Y1930400D03*
X914400Y1905000D03*
X914400Y1854200D03*
X914400Y1752600D03*
X838200Y1854200D03*
X838200Y1752600D03*
X762000Y1854200D03*
X762000Y1752600D03*
X990600Y1854200D03*
X990600Y1752600D03*
X1066800Y1854200D03*
X1066800Y1752600D03*
D13*
X508000Y889000D03*
X533400Y889000D03*
X673100Y889000D03*
X698500Y889000D03*
X1003300Y889000D03*
X1028700Y889000D03*
X1168400Y889000D03*
X1193800Y889000D03*
X1333500Y889000D03*
X1358900Y889000D03*
D11*
X520700Y1835404D02*
X520700Y1847596D01*
X546100Y1847596D02*
X546100Y1835404D01*
X571500Y1835404D02*
X571500Y1847596D01*
D15*
X520700Y1892300D03*
X571500Y1892300D03*
D11*
X622300Y1847596D02*
X622300Y1835404D01*
X647700Y1835404D02*
X647700Y1847596D01*
X673100Y1847596D02*
X673100Y1835404D01*
D15*
X622300Y1892300D03*
X673100Y1892300D03*
D20*
X1287780Y977900D02*
X1303020Y977900D01*
X1303020Y1003300D02*
X1287780Y1003300D01*
X1287780Y1028700D02*
X1303020Y1028700D01*
D11*
X1454404Y444500D02*
X1466596Y444500D01*
X1466596Y469900D02*
X1454404Y469900D01*
X1454404Y495300D02*
X1466596Y495300D01*
X1466596Y520700D02*
X1454404Y520700D01*
X1454404Y546100D02*
X1466596Y546100D01*
X1466596Y571500D02*
X1454404Y571500D01*
X1454404Y596900D02*
X1466596Y596900D01*
X1466596Y622300D02*
X1454404Y622300D01*
X1454404Y647700D02*
X1466596Y647700D01*
X1466596Y203200D02*
X1454404Y203200D01*
X1454404Y228600D02*
X1466596Y228600D01*
X1466596Y254000D02*
X1454404Y254000D01*
X1454404Y279400D02*
X1466596Y279400D01*
X1466596Y304800D02*
X1454404Y304800D01*
X1454404Y330200D02*
X1466596Y330200D01*
X1466596Y355600D02*
X1454404Y355600D01*
X1454404Y381000D02*
X1466596Y381000D01*
X1466596Y406400D02*
X1454404Y406400D01*
X399796Y444500D02*
X387604Y444500D01*
X387604Y469900D02*
X399796Y469900D01*
X399796Y495300D02*
X387604Y495300D01*
X387604Y520700D02*
X399796Y520700D01*
X399796Y546100D02*
X387604Y546100D01*
X387604Y571500D02*
X399796Y571500D01*
X399796Y596900D02*
X387604Y596900D01*
X387604Y622300D02*
X399796Y622300D01*
X399796Y647700D02*
X387604Y647700D01*
X387604Y203200D02*
X399796Y203200D01*
X399796Y228600D02*
X387604Y228600D01*
X387604Y254000D02*
X399796Y254000D01*
X399796Y279400D02*
X387604Y279400D01*
X387604Y304800D02*
X399796Y304800D01*
X399796Y330200D02*
X387604Y330200D01*
X387604Y355600D02*
X399796Y355600D01*
X399796Y381000D02*
X387604Y381000D01*
X387604Y406400D02*
X399796Y406400D01*
D21*
X1320800Y228600D03*
X1295400Y228600D03*
X1270000Y228600D03*
X1244600Y228600D03*
X1219200Y228600D03*
X1193800Y228600D03*
X1168400Y228600D03*
X1143000Y228600D03*
X1117600Y228600D03*
X1092200Y228600D03*
X1066800Y228600D03*
X1041400Y228600D03*
X1016000Y228600D03*
X990600Y228600D03*
X965200Y228600D03*
X939800Y228600D03*
X1320800Y254000D03*
X1295400Y254000D03*
X1270000Y254000D03*
X1244600Y254000D03*
X1219200Y254000D03*
X1193800Y254000D03*
X1168400Y254000D03*
X1143000Y254000D03*
X1117600Y254000D03*
X1092200Y254000D03*
X1066800Y254000D03*
X1041400Y254000D03*
X1016000Y254000D03*
X990600Y254000D03*
X965200Y254000D03*
X939800Y254000D03*
X1320800Y279400D03*
X1295400Y279400D03*
X1270000Y279400D03*
X1244600Y279400D03*
X1219200Y279400D03*
X1193800Y279400D03*
X1168400Y279400D03*
X1143000Y279400D03*
X1117600Y279400D03*
X1092200Y279400D03*
X1066800Y279400D03*
X1041400Y279400D03*
X1016000Y279400D03*
X990600Y279400D03*
X965200Y279400D03*
X939800Y279400D03*
X914400Y228600D03*
X889000Y228600D03*
X863600Y228600D03*
X838200Y228600D03*
X812800Y228600D03*
X787400Y228600D03*
X762000Y228600D03*
X736600Y228600D03*
X711200Y228600D03*
X685800Y228600D03*
X660400Y228600D03*
X635000Y228600D03*
X609600Y228600D03*
X584200Y228600D03*
X558800Y228600D03*
X533400Y228600D03*
X914400Y254000D03*
X889000Y254000D03*
X863600Y254000D03*
X838200Y254000D03*
X812800Y254000D03*
X787400Y254000D03*
X762000Y254000D03*
X736600Y254000D03*
X711200Y254000D03*
X685800Y254000D03*
X660400Y254000D03*
X635000Y254000D03*
X609600Y254000D03*
X584200Y254000D03*
X558800Y254000D03*
X533400Y254000D03*
X914400Y279400D03*
X889000Y279400D03*
X863600Y279400D03*
X838200Y279400D03*
X812800Y279400D03*
X787400Y279400D03*
X762000Y279400D03*
X736600Y279400D03*
X711200Y279400D03*
X685800Y279400D03*
X660400Y279400D03*
X635000Y279400D03*
X609600Y279400D03*
X584200Y279400D03*
X558800Y279400D03*
X533400Y279400D03*
D19*
X1460500Y1930400D03*
X1460500Y1905000D03*
X1460500Y1841500D03*
X1460500Y1739900D03*
D11*
X1225296Y520700D02*
X1213104Y520700D01*
X1213104Y546100D02*
X1225296Y546100D01*
X1225296Y571500D02*
X1213104Y571500D01*
X1213104Y596900D02*
X1225296Y596900D01*
X1225296Y622300D02*
X1213104Y622300D01*
X1213104Y647700D02*
X1225296Y647700D01*
X1225296Y673100D02*
X1213104Y673100D01*
X1213104Y698500D02*
X1225296Y698500D01*
X1225296Y723900D02*
X1213104Y723900D01*
X1213104Y749300D02*
X1225296Y749300D01*
X1225296Y774700D02*
X1213104Y774700D01*
X1213104Y800100D02*
X1225296Y800100D01*
X1225296Y825500D02*
X1213104Y825500D01*
X1213104Y850900D02*
X1225296Y850900D01*
X1149096Y850900D02*
X1136904Y850900D01*
X1136904Y825500D02*
X1149096Y825500D01*
X1149096Y800100D02*
X1136904Y800100D01*
X1136904Y774700D02*
X1149096Y774700D01*
X1149096Y749300D02*
X1136904Y749300D01*
X1136904Y723900D02*
X1149096Y723900D01*
X1149096Y698500D02*
X1136904Y698500D01*
X1136904Y673100D02*
X1149096Y673100D01*
X1149096Y647700D02*
X1136904Y647700D01*
X1136904Y622300D02*
X1149096Y622300D01*
X1149096Y596900D02*
X1136904Y596900D01*
X1136904Y571500D02*
X1149096Y571500D01*
X1149096Y546100D02*
X1136904Y546100D01*
X1136904Y520700D02*
X1149096Y520700D01*
D18*
X774700Y749300D03*
X774700Y850900D03*
D22*
X432626Y1469390D02*
X405575Y1469390D01*
X405575Y1422400D02*
X432626Y1422400D01*
X432626Y1375410D02*
X405575Y1375410D01*
X519875Y1469390D02*
X546926Y1469390D01*
X546926Y1422400D02*
X519875Y1422400D01*
X519875Y1375410D02*
X546926Y1375410D01*
X634175Y1469390D02*
X661226Y1469390D01*
X661226Y1422400D02*
X634175Y1422400D01*
X634175Y1375410D02*
X661226Y1375410D01*
X748475Y1469390D02*
X775526Y1469390D01*
X775526Y1422400D02*
X748475Y1422400D01*
X748475Y1375410D02*
X775526Y1375410D01*
X862775Y1469390D02*
X889826Y1469390D01*
X889826Y1422400D02*
X862775Y1422400D01*
X862775Y1375410D02*
X889826Y1375410D01*
X977075Y1469390D02*
X1004126Y1469390D01*
X1004126Y1422400D02*
X977075Y1422400D01*
X977075Y1375410D02*
X1004126Y1375410D01*
X1091375Y1469390D02*
X1118426Y1469390D01*
X1118426Y1422400D02*
X1091375Y1422400D01*
X1091375Y1375410D02*
X1118426Y1375410D01*
X1205675Y1469390D02*
X1232726Y1469390D01*
X1232726Y1422400D02*
X1205675Y1422400D01*
X1205675Y1375410D02*
X1232726Y1375410D01*
X1396175Y1469390D02*
X1423226Y1469390D01*
X1423226Y1422400D02*
X1396175Y1422400D01*
X1396175Y1375410D02*
X1423226Y1375410D01*
D23*
X419100Y1559560D03*
X419100Y1584960D03*
X419100Y1615440D03*
X419100Y1717040D03*
X533400Y1559560D03*
X533400Y1584960D03*
X533400Y1615440D03*
X533400Y1717040D03*
X647700Y1562100D03*
X647700Y1587500D03*
X647700Y1615440D03*
X647700Y1717040D03*
X762000Y1562100D03*
X762000Y1587500D03*
X762000Y1615440D03*
X762000Y1717040D03*
X876300Y1559560D03*
X876300Y1584960D03*
X876300Y1615440D03*
X876300Y1717040D03*
X990600Y1562100D03*
X990600Y1587500D03*
X990600Y1615440D03*
X990600Y1717040D03*
X1104900Y1562100D03*
X1104900Y1587500D03*
X1104900Y1615440D03*
X1104900Y1717040D03*
X1219200Y1562100D03*
X1219200Y1587500D03*
X1219200Y1615440D03*
X1219200Y1717040D03*
X1409700Y1559560D03*
X1409700Y1584960D03*
X1409700Y1617980D03*
X1409700Y1719580D03*
D11*
X698500Y1136396D02*
X698500Y1124204D01*
X723900Y1124204D02*
X723900Y1136396D01*
X850900Y1136396D02*
X850900Y1124204D01*
X876300Y1124204D02*
X876300Y1136396D01*
X749300Y1136396D02*
X749300Y1124204D01*
X774700Y1124204D02*
X774700Y1136396D01*
X825500Y1136396D02*
X825500Y1124204D01*
X800100Y1124204D02*
X800100Y1136396D01*
X901700Y1136396D02*
X901700Y1124204D01*
X927100Y1124204D02*
X927100Y1136396D01*
X927100Y1200404D02*
X927100Y1212596D01*
X901700Y1212596D02*
X901700Y1200404D01*
X876300Y1200404D02*
X876300Y1212596D01*
X850900Y1212596D02*
X850900Y1200404D01*
X825500Y1200404D02*
X825500Y1212596D01*
X800100Y1212596D02*
X800100Y1200404D01*
X774700Y1200404D02*
X774700Y1212596D01*
X749300Y1212596D02*
X749300Y1200404D01*
X723900Y1200404D02*
X723900Y1212596D01*
X698500Y1212596D02*
X698500Y1200404D01*
X1066800Y1136396D02*
X1066800Y1124204D01*
X1092200Y1124204D02*
X1092200Y1136396D01*
X1219200Y1136396D02*
X1219200Y1124204D01*
X1244600Y1124204D02*
X1244600Y1136396D01*
X1117600Y1136396D02*
X1117600Y1124204D01*
X1143000Y1124204D02*
X1143000Y1136396D01*
X1193800Y1136396D02*
X1193800Y1124204D01*
X1168400Y1124204D02*
X1168400Y1136396D01*
X1270000Y1136396D02*
X1270000Y1124204D01*
X1295400Y1124204D02*
X1295400Y1136396D01*
X1295400Y1200404D02*
X1295400Y1212596D01*
X1270000Y1212596D02*
X1270000Y1200404D01*
X1244600Y1200404D02*
X1244600Y1212596D01*
X1219200Y1212596D02*
X1219200Y1200404D01*
X1193800Y1200404D02*
X1193800Y1212596D01*
X1168400Y1212596D02*
X1168400Y1200404D01*
X1143000Y1200404D02*
X1143000Y1212596D01*
X1117600Y1212596D02*
X1117600Y1200404D01*
X1092200Y1200404D02*
X1092200Y1212596D01*
X1066800Y1212596D02*
X1066800Y1200404D01*
D13*
X838200Y889000D03*
X863600Y889000D03*
D24*
X635000Y1181100D03*
X635000Y1155700D03*
X1003300Y1181100D03*
X1003300Y1155700D03*
D25*
X1308100Y1758442D02*
X1308100Y1772158D01*
X1282700Y1772158D02*
X1282700Y1758442D01*
X1308100Y1821942D02*
X1308100Y1835658D01*
X1282700Y1835658D02*
X1282700Y1821942D01*
D26*
X466800Y1905400D03*
X396800Y1905400D03*
D27*
X456800Y1930400D03*
X406800Y1930400D03*
D28*
X1351800Y1025800D03*
D29*
X1351800Y980800D03*
X1416800Y980800D03*
X1416800Y1025800D03*
D17*
X558800Y1168400D03*
X457200Y1168400D03*
D30*
X476250Y1466850D02*
X533400Y1466850D01*
X476250Y1466850D02*
X419100Y1466850D01*
X419100Y1469390D01*
X533400Y1469390D02*
X533400Y1466850D01*
X533400Y1473200D02*
X647700Y1473200D01*
X533400Y1473200D02*
X533400Y1469390D01*
X647700Y1473200D02*
X762000Y1473200D01*
X647700Y1473200D02*
X647700Y1469390D01*
X762000Y1473200D02*
X876300Y1473200D01*
X762000Y1473200D02*
X762000Y1469390D01*
X876300Y1473200D02*
X990600Y1473200D01*
X876300Y1473200D02*
X876300Y1469390D01*
X990600Y1473200D02*
X1104900Y1473200D01*
X990600Y1473200D02*
X990600Y1469390D01*
X1104900Y1473200D02*
X1219200Y1473200D01*
X1104900Y1473200D02*
X1104900Y1469390D01*
X1219200Y1473200D02*
X1409700Y1473200D01*
X1409700Y1469390D01*
X1219200Y1469390D02*
X1219200Y1473200D01*
X533400Y1720850D02*
X476250Y1720850D01*
X419100Y1720850D01*
X419100Y1717040D01*
X571500Y1720850D02*
X571500Y1822450D01*
X571500Y1841500D01*
X571500Y1720850D02*
X533400Y1720850D01*
X533400Y1717040D01*
X654050Y1822450D02*
X673100Y1841500D01*
X654050Y1822450D02*
X571500Y1822450D01*
X520700Y1822450D02*
X412750Y1930400D01*
X520700Y1822450D02*
X571500Y1822450D01*
X412750Y1930400D02*
X406800Y1930400D01*
X647700Y1720850D02*
X762000Y1720850D01*
X647700Y1720850D02*
X647700Y1717040D01*
X762000Y1720850D02*
X762000Y1752600D01*
X762000Y1720850D02*
X762000Y1717040D01*
X990600Y1717040D02*
X990600Y1752600D01*
X876300Y1720850D02*
X844550Y1752600D01*
X838200Y1752600D01*
X882650Y1720850D02*
X914400Y1752600D01*
X882650Y1720850D02*
X876300Y1720850D01*
X876300Y1717040D01*
X914400Y1752600D02*
X990600Y1752600D01*
X838200Y1752600D02*
X762000Y1752600D01*
X1181100Y1917700D02*
X1206500Y1917700D01*
X1073150Y1752600D02*
X1104900Y1720850D01*
X1073150Y1752600D02*
X1066800Y1752600D01*
X1104900Y1720850D02*
X1219200Y1720850D01*
X1104900Y1720850D02*
X1104900Y1717040D01*
X1219200Y1720850D02*
X1409700Y1720850D01*
X1409700Y1719580D01*
X1219200Y1720850D02*
X1219200Y1717040D01*
X1066800Y1752600D02*
X990600Y1752600D01*
X577850Y1714500D02*
X571500Y1720850D01*
X577850Y1714500D02*
X647700Y1714500D01*
X647700Y1717040D01*
X476250Y1720850D02*
X476250Y1466850D01*
X1219200Y965200D02*
X1231900Y977900D01*
X1295400Y977900D01*
X1339850Y1022350D01*
X1346200Y1022350D01*
X1351800Y1025800D01*
X1320800Y279400D02*
X1320800Y254000D01*
X1384300Y749300D02*
X1333500Y800100D01*
X1308100Y800100D01*
X717550Y1149350D02*
X698500Y1130300D01*
X717550Y1149350D02*
X908050Y1149350D01*
X927100Y1130300D01*
X838200Y800100D02*
X876300Y762000D01*
X889000Y749300D01*
X838200Y800100D02*
X812800Y800100D01*
X1041400Y762000D02*
X1054100Y749300D01*
X1041400Y762000D02*
X876300Y762000D01*
X558800Y749300D02*
X546100Y762000D01*
X482600Y825500D01*
X717550Y755650D02*
X723900Y749300D01*
X717550Y755650D02*
X660400Y755650D01*
X654050Y762000D01*
X628650Y762000D02*
X546100Y762000D01*
X628650Y762000D02*
X654050Y762000D01*
X482600Y1092200D02*
X469900Y1104900D01*
X482600Y1092200D02*
X520700Y1092200D01*
X533400Y1104900D01*
X520700Y901700D02*
X508000Y889000D01*
X520700Y901700D02*
X577850Y901700D01*
X590550Y889000D01*
X673100Y889000D01*
X577850Y1060450D02*
X533400Y1104900D01*
X577850Y1060450D02*
X615950Y1060450D01*
X635000Y1041400D01*
X628650Y800100D02*
X628650Y787400D01*
X628650Y762000D01*
X628650Y800100D02*
X647700Y800100D01*
X800100Y787400D02*
X812800Y800100D01*
X800100Y787400D02*
X628650Y787400D01*
X990600Y901700D02*
X1003300Y889000D01*
X990600Y901700D02*
X850900Y901700D01*
X838200Y889000D01*
X1206500Y762000D02*
X1219200Y749300D01*
X1206500Y762000D02*
X1041400Y762000D01*
X1339850Y228600D02*
X1416050Y228600D01*
X1460500Y228600D01*
X1339850Y228600D02*
X1327150Y215900D01*
X1282700Y215900D01*
X1270000Y228600D01*
X1454150Y266700D02*
X1466850Y266700D01*
X1454150Y266700D02*
X1416050Y228600D01*
D31*
X1466850Y266700D03*
D30*
X1460500Y254000D02*
X1479550Y234950D01*
X1479550Y215900D01*
X1390650Y215900D01*
X1384300Y222250D01*
X1339850Y222250D01*
X1327150Y209550D01*
X1270000Y209550D01*
X1250950Y228600D01*
X1244600Y228600D01*
X1308100Y673100D02*
X1352550Y673100D01*
D31*
X1352550Y673100D03*
D30*
X1333500Y304800D02*
X1212850Y304800D01*
X1333500Y304800D02*
X1460500Y304800D01*
X1333500Y596900D02*
X1308100Y622300D01*
D31*
X1212850Y304800D03*
X1333500Y596900D03*
X1333500Y304800D03*
D30*
X1460500Y330200D02*
X1187450Y330200D01*
X1308100Y596900D02*
X1295400Y609600D01*
X1244600Y609600D01*
D31*
X1187450Y330200D03*
X1244600Y609600D03*
D30*
X1460500Y355600D02*
X1441450Y336550D01*
X1282700Y336550D02*
X1162050Y336550D01*
X1282700Y336550D02*
X1441450Y336550D01*
X1282700Y546100D02*
X1308100Y571500D01*
D31*
X1162050Y336550D03*
X1282700Y546100D03*
X1282700Y336550D03*
D30*
X1441450Y400050D02*
X1460500Y381000D01*
X1441450Y400050D02*
X1397000Y400050D01*
X1365250Y501650D02*
X1320800Y546100D01*
X1308100Y546100D01*
X1282700Y196850D02*
X1149350Y196850D01*
X1308100Y342900D02*
X1365250Y400050D01*
X1397000Y400050D01*
D31*
X1397000Y400050D03*
X1365250Y501650D03*
X1149350Y196850D03*
X1282700Y196850D03*
X1308100Y342900D03*
D30*
X1327150Y406400D02*
X1320800Y412750D01*
X1327150Y406400D02*
X1460500Y406400D01*
X1301750Y393700D02*
X1104900Y393700D01*
X1301750Y393700D02*
X1320800Y412750D01*
D31*
X1320800Y412750D03*
X1104900Y393700D03*
D30*
X1384300Y520700D02*
X1397000Y508000D01*
X1422400Y508000D01*
X1079500Y241300D02*
X1066800Y228600D01*
X1079500Y241300D02*
X1079500Y349250D01*
X1238250Y349250D01*
X1238250Y406400D02*
X1276350Y444500D01*
X1333500Y444500D01*
X1358900Y469900D01*
X1460500Y469900D01*
D31*
X1422400Y508000D03*
X1238250Y349250D03*
X1238250Y406400D03*
D30*
X1384300Y546100D02*
X1416050Y514350D01*
X1441450Y514350D01*
X1333500Y450850D02*
X1231900Y450850D01*
X1333500Y450850D02*
X1377950Y495300D01*
X1460500Y495300D01*
D31*
X1441450Y514350D03*
X1231900Y450850D03*
D30*
X1384300Y571500D02*
X1390650Y565150D01*
X1447800Y565150D01*
X1454150Y558800D01*
X1466850Y558800D01*
X1479550Y546100D01*
X1479550Y520700D01*
X1460500Y520700D01*
X1028700Y241300D02*
X1016000Y228600D01*
X1028700Y241300D02*
X1028700Y317500D01*
X1073150Y317500D01*
X1092200Y438150D02*
X1111250Y457200D01*
X1333500Y457200D01*
X1377950Y501650D01*
X1441450Y501650D01*
X1460500Y520700D01*
D31*
X1073150Y317500D03*
X1092200Y438150D03*
D30*
X1365250Y577850D02*
X1384300Y596900D01*
X1365250Y577850D02*
X1365250Y558800D01*
X1447800Y558800D01*
X1460500Y546100D01*
X1035050Y184150D02*
X1028700Y190500D01*
X1035050Y184150D02*
X1460500Y184150D01*
X1485900Y209550D01*
X1485900Y311150D01*
X1479550Y311150D01*
D31*
X1028700Y190500D03*
X1479550Y311150D03*
D30*
X1390650Y615950D02*
X1384300Y622300D01*
X1390650Y615950D02*
X1447800Y615950D01*
X1454150Y609600D01*
X1466850Y609600D01*
X1479550Y596900D01*
X1479550Y571500D01*
X1460500Y571500D01*
X977900Y241300D02*
X965200Y228600D01*
X977900Y241300D02*
X977900Y298450D01*
X996950Y298450D01*
X996950Y393700D02*
X1003300Y400050D01*
X1295400Y400050D01*
X1352550Y457200D01*
X1466850Y457200D01*
X1485900Y476250D01*
X1485900Y571500D01*
X1479550Y571500D01*
D31*
X996950Y298450D03*
X996950Y393700D03*
D30*
X1365250Y628650D02*
X1384300Y647700D01*
X1365250Y628650D02*
X1365250Y609600D01*
X1447800Y609600D01*
X1460500Y596900D01*
X952500Y215900D02*
X939800Y228600D01*
X952500Y215900D02*
X1200150Y215900D01*
X1206500Y222250D01*
X1206500Y241300D01*
X1225550Y241300D01*
X1231900Y247650D01*
X1231900Y298450D01*
X1358900Y298450D01*
D31*
X1358900Y298450D03*
D30*
X1435100Y622300D02*
X1384300Y673100D01*
X1435100Y622300D02*
X1460500Y622300D01*
X1435100Y647700D02*
X1384300Y698500D01*
X1435100Y647700D02*
X1460500Y647700D01*
X914400Y203200D02*
X889000Y228600D01*
X914400Y203200D02*
X1263650Y203200D01*
X1282700Y323850D02*
X1358900Y323850D01*
D31*
X1263650Y203200D03*
X1282700Y323850D03*
X1358900Y323850D03*
D30*
X400050Y222250D02*
X393700Y228600D01*
X400050Y222250D02*
X520700Y222250D01*
X527050Y215900D01*
X742950Y215900D01*
X749300Y222250D01*
X749300Y241300D01*
X850900Y241300D01*
X863600Y228600D01*
X387350Y419100D02*
X374650Y406400D01*
X387350Y419100D02*
X825500Y419100D01*
D31*
X374650Y406400D03*
X825500Y419100D03*
D30*
X501650Y387350D02*
X482600Y368300D01*
X501650Y387350D02*
X787400Y387350D01*
D31*
X482600Y368300D03*
X787400Y387350D03*
D30*
X431800Y266700D02*
X393700Y304800D01*
X431800Y266700D02*
X539750Y266700D01*
X546100Y203200D02*
X762000Y203200D01*
X787400Y228600D01*
X806450Y615950D02*
X812800Y622300D01*
X806450Y615950D02*
X768350Y615950D01*
X768350Y361950D02*
X571500Y361950D01*
D31*
X539750Y266700D03*
X546100Y203200D03*
X768350Y615950D03*
X768350Y361950D03*
X571500Y361950D03*
D30*
X393700Y330200D02*
X368300Y304800D01*
X368300Y184150D01*
X514350Y184150D01*
X539750Y209550D01*
X742950Y209550D01*
X762000Y228600D01*
X806450Y590550D02*
X812800Y596900D01*
X806450Y590550D02*
X787400Y590550D01*
X781050Y393700D02*
X425450Y393700D01*
X400050Y368300D01*
X387350Y368300D01*
X374650Y355600D01*
X374650Y330200D01*
X393700Y330200D01*
D31*
X787400Y590550D03*
X781050Y393700D03*
D30*
X711200Y355600D02*
X393700Y355600D01*
X723900Y342900D02*
X742950Y323850D01*
X723900Y342900D02*
X711200Y355600D01*
X819150Y565150D02*
X812800Y571500D01*
X819150Y565150D02*
X844550Y565150D01*
X844550Y361950D02*
X825500Y342900D01*
X723900Y342900D01*
D31*
X742950Y323850D03*
X844550Y565150D03*
X844550Y361950D03*
D30*
X412750Y400050D02*
X393700Y381000D01*
X412750Y400050D02*
X698500Y400050D01*
X806450Y539750D02*
X812800Y546100D01*
X806450Y539750D02*
X787400Y539750D01*
X787400Y400050D02*
X698500Y400050D01*
D31*
X698500Y400050D03*
X787400Y539750D03*
X787400Y400050D03*
D30*
X558800Y800100D02*
X571500Y812800D01*
X711200Y812800D01*
X723900Y800100D01*
X876300Y812800D02*
X889000Y800100D01*
X876300Y812800D02*
X711200Y812800D01*
X1041400Y812800D02*
X1054100Y800100D01*
X1041400Y812800D02*
X876300Y812800D01*
X1206500Y812800D02*
X1219200Y800100D01*
X1206500Y812800D02*
X1041400Y812800D01*
X1371600Y812800D02*
X1384300Y800100D01*
X1371600Y812800D02*
X1206500Y812800D01*
X482600Y984250D02*
X482600Y1041400D01*
X482600Y984250D02*
X419100Y920750D01*
X419100Y838200D01*
X520700Y838200D01*
X558800Y800100D01*
X1206500Y838200D02*
X1219200Y825500D01*
X1206500Y838200D02*
X1066800Y838200D01*
X1054100Y825500D01*
X1162050Y984250D02*
X1219200Y1041400D01*
X1162050Y984250D02*
X1098550Y984250D01*
X1092200Y977900D01*
X1371600Y838200D02*
X1384300Y825500D01*
X1371600Y838200D02*
X1206500Y838200D01*
X571500Y838200D02*
X558800Y825500D01*
X571500Y838200D02*
X711200Y838200D01*
X723900Y825500D01*
X876300Y838200D02*
X889000Y825500D01*
X876300Y838200D02*
X711200Y838200D01*
X1041400Y838200D02*
X1054100Y825500D01*
X1041400Y838200D02*
X876300Y838200D01*
X704850Y984250D02*
X685800Y965200D01*
X704850Y984250D02*
X869950Y984250D01*
X871220Y979170D01*
X876300Y977900D02*
X927100Y977900D01*
X927100Y980440D01*
X876300Y977900D02*
X871220Y979170D01*
X711200Y965200D02*
X692150Y946150D01*
X609600Y946150D01*
X596900Y958850D01*
X596900Y1022350D01*
X869950Y1022350D01*
X871220Y1027430D01*
X876300Y1028700D02*
X927100Y1028700D01*
X929640Y1026160D01*
X876300Y1028700D02*
X871220Y1027430D01*
X1460500Y1739900D02*
X1435100Y1765300D01*
X1308100Y1765300D01*
X539750Y1860550D02*
X520700Y1841500D01*
X539750Y1860550D02*
X603250Y1860550D01*
X622300Y1841500D01*
X533400Y1377950D02*
X419100Y1377950D01*
X419100Y1375410D01*
X533400Y1377950D02*
X647700Y1377950D01*
X533400Y1377950D02*
X533400Y1375410D01*
X647700Y1377950D02*
X762000Y1377950D01*
X647700Y1377950D02*
X647700Y1375410D01*
X762000Y1377950D02*
X876300Y1377950D01*
X762000Y1377950D02*
X762000Y1375410D01*
X876300Y1377950D02*
X990600Y1377950D01*
X876300Y1377950D02*
X876300Y1375410D01*
X990600Y1377950D02*
X1104900Y1377950D01*
X990600Y1377950D02*
X990600Y1375410D01*
X1104900Y1377950D02*
X1219200Y1377950D01*
X1104900Y1377950D02*
X1104900Y1375410D01*
X1219200Y1377950D02*
X1409700Y1377950D01*
X1409700Y1375410D01*
X1219200Y1375410D02*
X1219200Y1377950D01*
X1066800Y1206500D02*
X1016000Y1155700D01*
X1003300Y1155700D01*
X1066800Y889000D02*
X1104900Y850900D01*
X1066800Y889000D02*
X1028700Y889000D01*
X1143000Y965200D02*
X1168400Y965200D01*
X1193800Y965200D01*
X1295400Y279400D02*
X1295400Y254000D01*
X1371600Y711200D02*
X1384300Y723900D01*
X1371600Y711200D02*
X1244600Y711200D01*
X1231900Y723900D01*
X1219200Y723900D01*
X1333500Y863600D02*
X1358900Y889000D01*
X1333500Y863600D02*
X1282700Y863600D01*
X1270000Y850900D01*
X1219200Y863600D02*
X1206500Y876300D01*
X1193800Y889000D01*
X1219200Y863600D02*
X1282700Y863600D01*
X1130300Y876300D02*
X1104900Y850900D01*
X1130300Y876300D02*
X1206500Y876300D01*
X736600Y736600D02*
X723900Y723900D01*
X736600Y736600D02*
X857250Y736600D01*
X869950Y723900D01*
X889000Y723900D01*
X812800Y850900D02*
X774700Y850900D01*
X825500Y850900D02*
X863600Y889000D01*
X825500Y850900D02*
X812800Y850900D01*
X901700Y889000D02*
X927100Y863600D01*
X939800Y850900D01*
X901700Y889000D02*
X863600Y889000D01*
X558800Y254000D02*
X558800Y241300D01*
X558800Y228600D01*
X558800Y254000D02*
X558800Y279400D01*
X558800Y241300D02*
X387350Y241300D01*
X374650Y228600D01*
X374650Y203200D01*
X393700Y203200D01*
X457200Y1117600D02*
X457200Y1168400D01*
X457200Y1117600D02*
X482600Y1117600D01*
X495300Y1104900D01*
X647700Y1155700D02*
X698500Y1206500D01*
X647700Y1155700D02*
X635000Y1155700D01*
X546100Y1155700D02*
X495300Y1104900D01*
X546100Y1155700D02*
X635000Y1155700D01*
X508000Y876300D02*
X482600Y850900D01*
X508000Y876300D02*
X520700Y876300D01*
X533400Y889000D01*
X609600Y850900D02*
X647700Y850900D01*
X660400Y850900D02*
X673100Y863600D01*
X698500Y889000D01*
X660400Y850900D02*
X647700Y850900D01*
X558800Y863600D02*
X533400Y889000D01*
X558800Y863600D02*
X673100Y863600D01*
X368300Y469900D02*
X393700Y444500D01*
X368300Y469900D02*
X368300Y800100D01*
X482600Y800100D01*
X736600Y889000D02*
X774700Y850900D01*
X736600Y889000D02*
X698500Y889000D01*
X1003300Y863600D02*
X1028700Y889000D01*
X1003300Y863600D02*
X927100Y863600D01*
X596900Y1720850D02*
X768350Y1892300D01*
X1257300Y1892300D01*
X1282700Y1917700D01*
D31*
X596900Y1720850D03*
D30*
X482600Y774700D02*
X457200Y749300D01*
X444500Y749300D01*
X1282700Y749300D02*
X1295400Y762000D01*
X1308100Y774700D01*
X1282700Y749300D02*
X1270000Y749300D01*
X1149350Y768350D02*
X1143000Y774700D01*
X1149350Y768350D02*
X1206500Y768350D01*
X1212850Y762000D01*
X1295400Y762000D01*
X800100Y762000D02*
X787400Y749300D01*
X800100Y762000D02*
X812800Y774700D01*
X787400Y749300D02*
X774700Y749300D01*
X660400Y762000D02*
X647700Y774700D01*
X660400Y762000D02*
X800100Y762000D01*
X927100Y736600D02*
X939800Y749300D01*
X927100Y736600D02*
X863600Y736600D01*
X825500Y774700D01*
X812800Y774700D01*
X1130300Y787400D02*
X1143000Y774700D01*
X1130300Y787400D02*
X990600Y787400D01*
X977900Y774700D01*
X520700Y736600D02*
X482600Y774700D01*
X520700Y736600D02*
X596900Y736600D01*
X609600Y749300D01*
X1193800Y1828800D02*
X1282700Y1828800D01*
X596900Y1104900D02*
X660400Y1041400D01*
X596900Y1104900D02*
X558800Y1104900D01*
X488950Y349250D02*
X546100Y292100D01*
X590550Y292100D01*
X596900Y285750D01*
X596900Y241300D01*
X622300Y241300D01*
X635000Y228600D01*
X406400Y463550D02*
X869950Y463550D01*
X406400Y463550D02*
X400050Y457200D01*
X387350Y457200D01*
X374650Y469900D01*
X374650Y495300D01*
X393700Y495300D01*
D31*
X488950Y349250D03*
X869950Y463550D03*
D30*
X908050Y476250D02*
X438150Y476250D01*
X393700Y520700D01*
D31*
X908050Y476250D03*
D30*
X457200Y482600D02*
X393700Y546100D01*
X457200Y482600D02*
X520700Y482600D01*
X927100Y482600D01*
D31*
X520700Y482600D03*
X927100Y482600D03*
D30*
X463550Y501650D02*
X393700Y571500D01*
X463550Y501650D02*
X863600Y501650D01*
X1238250Y361950D02*
X1257300Y342900D01*
X1238250Y361950D02*
X863600Y361950D01*
D31*
X863600Y501650D03*
X1257300Y342900D03*
X863600Y361950D03*
D30*
X406400Y609600D02*
X393700Y596900D01*
X406400Y609600D02*
X615950Y609600D01*
X641350Y635000D01*
X831850Y635000D01*
X844550Y647700D01*
X889000Y647700D01*
X939800Y209550D02*
X1257300Y209550D01*
X939800Y209550D02*
X927100Y222250D01*
X927100Y298450D01*
X933450Y298450D01*
D31*
X1257300Y209550D03*
X933450Y298450D03*
D30*
X393700Y622300D02*
X374650Y641350D01*
X374650Y711200D01*
X895350Y711200D01*
X908050Y698500D01*
X908050Y673100D01*
X889000Y673100D01*
X1206500Y266700D02*
X1219200Y254000D01*
X1206500Y266700D02*
X1206500Y311150D01*
X1276350Y311150D01*
X1276350Y717550D02*
X1257300Y736600D01*
X946150Y736600D01*
X908050Y698500D01*
D31*
X1276350Y311150D03*
X1276350Y717550D03*
D30*
X431800Y685800D02*
X393700Y647700D01*
X431800Y685800D02*
X876300Y685800D01*
X889000Y698500D01*
X1193800Y254000D02*
X1181100Y241300D01*
X1162050Y241300D01*
X1155700Y247650D01*
X1155700Y292100D01*
X1149350Y292100D01*
X1149350Y387350D02*
X939800Y387350D01*
D31*
X1149350Y292100D03*
X1149350Y387350D03*
X939800Y387350D03*
D30*
X736600Y1041400D02*
X736600Y1104900D01*
X679450Y1104900D01*
D31*
X679450Y1104900D03*
D30*
X768350Y1066800D02*
X781050Y1079500D01*
X895350Y1079500D01*
D31*
X768350Y1066800D03*
X895350Y1079500D03*
D30*
X787400Y1041400D02*
X768350Y1060450D01*
X762000Y1060450D01*
X762000Y1085850D01*
X996950Y1085850D01*
D31*
X996950Y1085850D03*
D30*
X838200Y1066800D02*
X812800Y1041400D01*
X838200Y1066800D02*
X1035050Y1066800D01*
D31*
X1035050Y1066800D03*
D30*
X1168400Y1041400D02*
X1187450Y1060450D01*
X1238250Y1060450D01*
X1295400Y1003300D01*
X1174750Y292100D02*
X1181100Y285750D01*
X1181100Y254000D01*
X1168400Y254000D01*
D31*
X1174750Y292100D03*
D30*
X1155700Y635000D02*
X1143000Y647700D01*
X1155700Y635000D02*
X1327150Y635000D01*
X1377950Y685800D01*
X1390650Y685800D01*
X1441450Y635000D01*
X1466850Y635000D01*
X1492250Y609600D01*
X1492250Y317500D01*
X1162050Y317500D01*
X1130300Y285750D01*
X1130300Y254000D01*
X1117600Y254000D01*
X1104900Y285750D02*
X1111250Y292100D01*
X1104900Y285750D02*
X1104900Y254000D01*
X1092200Y254000D01*
D31*
X1111250Y292100D03*
D30*
X1111250Y565150D02*
X1143000Y596900D01*
D31*
X1111250Y565150D03*
D30*
X1162050Y450850D02*
X1143000Y431800D01*
X1079500Y431800D01*
D31*
X1162050Y450850D03*
X1079500Y431800D03*
D30*
X1143000Y546100D02*
X1130300Y558800D01*
X1003300Y558800D01*
D31*
X1003300Y558800D03*
D30*
X1111250Y488950D02*
X1143000Y520700D01*
X1111250Y488950D02*
X990600Y488950D01*
D31*
X990600Y488950D03*
D30*
X1174750Y476250D02*
X1219200Y520700D01*
X1174750Y476250D02*
X958850Y476250D01*
D31*
X958850Y476250D03*
D30*
X1155700Y482600D02*
X1219200Y546100D01*
X1155700Y482600D02*
X977900Y482600D01*
X971550Y298450D02*
X965200Y292100D01*
X958850Y292100D01*
X952500Y285750D01*
X952500Y254000D01*
X939800Y254000D01*
D31*
X977900Y482600D03*
X971550Y298450D03*
D30*
X1181100Y469900D02*
X1193800Y482600D01*
X1181100Y469900D02*
X901700Y469900D01*
D31*
X1193800Y482600D03*
X901700Y469900D03*
D30*
X1206500Y406400D02*
X1238250Y438150D01*
X1206500Y406400D02*
X882650Y406400D01*
D31*
X1238250Y438150D03*
X882650Y406400D03*
D30*
X1219200Y622300D02*
X1250950Y590550D01*
X1250950Y463550D01*
X1098550Y463550D01*
X1073150Y438150D01*
X889000Y438150D01*
X889000Y298450D02*
X876300Y285750D01*
X876300Y254000D01*
X863600Y254000D01*
D31*
X889000Y438150D03*
X889000Y298450D03*
D30*
X1219200Y647700D02*
X1238250Y666750D01*
X1238250Y711200D01*
X946150Y711200D01*
X914400Y679450D01*
X914400Y660400D01*
X869950Y660400D01*
X857250Y292100D02*
X850900Y285750D01*
X850900Y254000D01*
X838200Y254000D01*
D31*
X869950Y660400D03*
X857250Y292100D03*
D30*
X1206500Y660400D02*
X1219200Y673100D01*
X1206500Y660400D02*
X920750Y660400D01*
X895350Y635000D01*
X844550Y635000D01*
X831850Y292100D02*
X825500Y285750D01*
X825500Y254000D01*
X812800Y254000D01*
D31*
X844550Y635000D03*
X831850Y292100D03*
D30*
X730250Y304800D02*
X692150Y304800D01*
X730250Y304800D02*
X749300Y285750D01*
X749300Y254000D01*
X762000Y254000D01*
D31*
X692150Y304800D03*
D30*
X685800Y298450D02*
X711200Y298450D01*
X723900Y285750D01*
X723900Y254000D01*
X736600Y254000D01*
D31*
X685800Y298450D03*
D30*
X692150Y292100D02*
X679450Y292100D01*
X692150Y292100D02*
X698500Y285750D01*
X698500Y254000D01*
X711200Y254000D01*
D31*
X679450Y292100D03*
D30*
X641350Y590550D02*
X647700Y596900D01*
X641350Y590550D02*
X615950Y590550D01*
X615950Y304800D02*
X628650Y292100D01*
X641350Y292100D01*
X647700Y285750D01*
X647700Y254000D01*
X660400Y254000D01*
D31*
X615950Y590550D03*
X615950Y304800D03*
D30*
X622300Y546100D02*
X647700Y571500D01*
X622300Y546100D02*
X609600Y546100D01*
X609600Y311150D02*
X609600Y292100D01*
X615950Y292100D01*
X622300Y285750D01*
X622300Y254000D01*
X635000Y254000D01*
D31*
X609600Y546100D03*
X609600Y311150D03*
D30*
X641350Y539750D02*
X647700Y546100D01*
X641350Y539750D02*
X603250Y539750D01*
D31*
X603250Y539750D03*
D30*
X1206500Y685800D02*
X1219200Y698500D01*
X1206500Y685800D02*
X996950Y685800D01*
X952500Y514350D02*
X933450Y495300D01*
X812800Y495300D01*
X806450Y292100D02*
X800100Y285750D01*
X800100Y254000D01*
X787400Y254000D01*
D31*
X996950Y685800D03*
X952500Y514350D03*
X812800Y495300D03*
X806450Y292100D03*
D30*
X736600Y508000D02*
X723900Y520700D01*
X736600Y508000D02*
X812800Y508000D01*
X819150Y406400D02*
X844550Y381000D01*
X1250950Y381000D01*
D31*
X812800Y508000D03*
X819150Y406400D03*
X1250950Y381000D03*
D30*
X736600Y533400D02*
X723900Y546100D01*
X736600Y533400D02*
X1187450Y533400D01*
X1212850Y558800D01*
X1244600Y558800D01*
D31*
X1244600Y558800D03*
D30*
X742950Y368300D02*
X736600Y374650D01*
X742950Y368300D02*
X1200150Y368300D01*
D31*
X736600Y374650D03*
X1200150Y368300D03*
D30*
X749300Y374650D02*
X742950Y381000D01*
X749300Y374650D02*
X1193800Y374650D01*
D31*
X742950Y381000D03*
X1193800Y374650D03*
D30*
X1149350Y412750D02*
X749300Y412750D01*
D31*
X749300Y412750D03*
X1149350Y412750D03*
D30*
X723900Y425450D02*
X698500Y450850D01*
X723900Y425450D02*
X1066800Y425450D01*
X1073150Y419100D01*
X1136650Y419100D01*
D31*
X698500Y450850D03*
X1136650Y419100D03*
D30*
X730250Y431800D02*
X704850Y457200D01*
X730250Y431800D02*
X1066800Y431800D01*
X1073150Y425450D01*
X1117600Y425450D01*
D31*
X704850Y457200D03*
X1117600Y425450D03*
D30*
X730250Y692150D02*
X723900Y698500D01*
X730250Y692150D02*
X768350Y692150D01*
D31*
X768350Y692150D03*
D30*
X977900Y698500D02*
X1035050Y698500D01*
D31*
X1035050Y698500D03*
D30*
X977900Y571500D02*
X971550Y565150D01*
X920750Y565150D01*
D31*
X920750Y565150D03*
D30*
X971550Y539750D02*
X977900Y546100D01*
X971550Y539750D02*
X914400Y539750D01*
D31*
X914400Y539750D03*
D30*
X920750Y520700D02*
X977900Y520700D01*
X920750Y520700D02*
X901700Y501650D01*
D31*
X901700Y501650D03*
D30*
X520700Y635000D02*
X482600Y673100D01*
X520700Y635000D02*
X609600Y635000D01*
D31*
X609600Y635000D03*
D30*
X508000Y349250D02*
X539750Y317500D01*
X635000Y317500D01*
X660400Y292100D01*
X660400Y279400D01*
D31*
X508000Y349250D03*
D30*
X1047750Y692150D02*
X1054100Y698500D01*
X1047750Y692150D02*
X990600Y692150D01*
X984250Y685800D01*
X933450Y685800D01*
X933450Y355600D02*
X914400Y336550D01*
X768350Y336550D01*
X742950Y311150D01*
X685800Y311150D01*
X673100Y298450D01*
X673100Y279400D01*
X685800Y279400D01*
D31*
X933450Y685800D03*
X933450Y355600D03*
D30*
X1066800Y457200D02*
X1073150Y463550D01*
X1066800Y457200D02*
X717550Y457200D01*
D31*
X1073150Y463550D03*
X717550Y457200D03*
D30*
X1066800Y444500D02*
X1079500Y457200D01*
X1066800Y444500D02*
X755650Y444500D01*
D31*
X1079500Y457200D03*
X755650Y444500D03*
D30*
X1041400Y609600D02*
X1054100Y622300D01*
X1041400Y609600D02*
X869950Y609600D01*
X844550Y584200D01*
X781050Y584200D01*
X762000Y565150D01*
D31*
X762000Y565150D03*
D30*
X1009650Y330200D02*
X1035050Y355600D01*
X1009650Y330200D02*
X825500Y330200D01*
X787400Y292100D01*
X787400Y279400D01*
D31*
X1035050Y355600D03*
D30*
X1047750Y565150D02*
X1054100Y571500D01*
X1047750Y565150D02*
X1016000Y565150D01*
X1022350Y317500D02*
X1009650Y304800D01*
X819150Y304800D01*
D31*
X1016000Y565150D03*
X1022350Y317500D03*
X819150Y304800D03*
D30*
X1047750Y539750D02*
X1054100Y546100D01*
X1047750Y539750D02*
X1009650Y539750D01*
X1009650Y317500D02*
X1003300Y311150D01*
X812800Y311150D01*
X812800Y298450D01*
X838200Y298450D01*
X838200Y279400D01*
D31*
X1009650Y539750D03*
X1009650Y317500D03*
D30*
X419100Y1584960D02*
X419100Y1615440D01*
X533400Y1615440D02*
X533400Y1584960D01*
X647700Y1587500D02*
X647700Y1615440D01*
X762000Y1615440D02*
X762000Y1587500D01*
X876300Y1584960D02*
X876300Y1615440D01*
X990600Y1615440D02*
X990600Y1587500D01*
X1104900Y1587500D02*
X1104900Y1615440D01*
X1219200Y1615440D02*
X1219200Y1587500D01*
X1409700Y1584960D02*
X1409700Y1617980D01*
X698500Y1187450D02*
X622300Y1111250D01*
X615950Y1104900D01*
X698500Y1187450D02*
X730250Y1187450D01*
X749300Y1206500D01*
X1098550Y1111250D02*
X1117600Y1130300D01*
X1098550Y1111250D02*
X622300Y1111250D01*
D31*
X615950Y1104900D03*
D30*
X565150Y679450D02*
X558800Y673100D01*
X565150Y679450D02*
X609600Y679450D01*
X749300Y1092200D02*
X1143000Y1092200D01*
D31*
X609600Y679450D03*
X1143000Y1092200D03*
X749300Y1092200D03*
D30*
X571500Y660400D02*
X558800Y647700D01*
X571500Y660400D02*
X850900Y660400D01*
X1219200Y1098550D02*
X1219200Y1130300D01*
X1219200Y1098550D02*
X850900Y1098550D01*
D31*
X850900Y660400D03*
X850900Y1098550D03*
D30*
X666750Y1016000D02*
X622300Y971550D01*
X901700Y1016000D02*
X1098550Y1016000D01*
X901700Y1016000D02*
X666750Y1016000D01*
X1098550Y1016000D02*
X1174750Y1092200D01*
X1231900Y1092200D01*
X1270000Y1130300D01*
D31*
X622300Y971550D03*
X901700Y1016000D03*
D30*
X565150Y603250D02*
X558800Y596900D01*
X565150Y603250D02*
X635000Y603250D01*
X641350Y609600D01*
X857250Y609600D01*
X1270000Y1206500D02*
X1212850Y1263650D01*
X908050Y1263650D01*
D31*
X857250Y609600D03*
X908050Y1263650D03*
D30*
X622300Y933450D02*
X590550Y901700D01*
X622300Y933450D02*
X800100Y933450D01*
X1219200Y1149350D02*
X1219200Y1206500D01*
X1219200Y1149350D02*
X1206500Y1136650D01*
X1206500Y1104900D01*
X844550Y1104900D01*
D31*
X590550Y901700D03*
X800100Y933450D03*
X844550Y1104900D03*
D30*
X596900Y584200D02*
X558800Y546100D01*
X596900Y584200D02*
X762000Y584200D01*
X1168400Y1206500D02*
X1149350Y1225550D01*
X965200Y1225550D01*
X901700Y1162050D01*
X781050Y1162050D01*
D31*
X762000Y584200D03*
X781050Y1162050D03*
D30*
X1054100Y1143000D02*
X1117600Y1206500D01*
X1054100Y1143000D02*
X933450Y1143000D01*
X920750Y1155700D01*
X755650Y1155700D01*
D31*
X755650Y1155700D03*
D30*
X495300Y533400D02*
X482600Y520700D01*
X495300Y533400D02*
X692150Y533400D01*
X717550Y558800D01*
X984250Y558800D01*
X1028700Y603250D01*
D31*
X1028700Y603250D03*
D30*
X901700Y1231900D02*
X419100Y1231900D01*
X901700Y1231900D02*
X927100Y1206500D01*
D31*
X419100Y1231900D03*
D30*
X488950Y1473200D02*
X552450Y1536700D01*
X1390650Y1536700D01*
X1409700Y1555750D01*
X1409700Y1559560D01*
D31*
X488950Y1473200D03*
D30*
X514350Y939800D02*
X425450Y850900D01*
X514350Y939800D02*
X1289050Y939800D01*
X1447800Y1098550D01*
X1447800Y1422400D01*
X1409700Y1422400D01*
D31*
X425450Y850900D03*
D30*
X882650Y1225550D02*
X901700Y1206500D01*
X882650Y1225550D02*
X806450Y1225550D01*
D31*
X806450Y1225550D03*
D30*
X819150Y1555750D02*
X800100Y1574800D01*
X660400Y1574800D01*
X647700Y1562100D01*
D31*
X819150Y1555750D03*
D30*
X723900Y1549400D02*
X539750Y1549400D01*
X533400Y1555750D01*
X533400Y1559560D01*
D31*
X723900Y1549400D03*
D30*
X704850Y1225550D02*
X723900Y1206500D01*
X704850Y1225550D02*
X425450Y1225550D01*
X419100Y1219200D01*
X406400Y1219200D01*
X387350Y1238250D01*
X387350Y1555750D01*
X419100Y1555750D01*
X419100Y1559560D01*
X812800Y1549400D02*
X1092200Y1549400D01*
X1104900Y1562100D01*
D31*
X812800Y1549400D03*
D30*
X717550Y1543050D02*
X1200150Y1543050D01*
X1219200Y1562100D01*
D31*
X717550Y1543050D03*
D30*
X1123950Y1441450D02*
X1168400Y1397000D01*
X1123950Y1441450D02*
X895350Y1441450D01*
X876300Y1422400D01*
D31*
X1168400Y1397000D03*
D30*
X1174750Y1149350D02*
X1193800Y1130300D01*
X1174750Y1149350D02*
X1066800Y1149350D01*
X1054100Y1136650D01*
X946150Y1136650D01*
D31*
X946150Y1136650D03*
D30*
X1143000Y1358900D02*
X1295400Y1206500D01*
X1143000Y1358900D02*
X736600Y1358900D01*
D31*
X736600Y1358900D03*
D30*
X1123950Y1397000D02*
X1136650Y1384300D01*
X1123950Y1397000D02*
X444500Y1397000D01*
X419100Y1422400D01*
D31*
X1136650Y1384300D03*
D30*
X1193800Y1257300D02*
X1244600Y1206500D01*
X1193800Y1257300D02*
X793750Y1257300D01*
X698500Y1352550D01*
D31*
X698500Y1352550D03*
D30*
X1143000Y1403350D02*
X1162050Y1384300D01*
X1143000Y1403350D02*
X552450Y1403350D01*
X533400Y1422400D01*
D31*
X1162050Y1384300D03*
D30*
X1308100Y1828800D02*
X1308100Y1917700D01*
X1460500Y279400D02*
X1422400Y241300D01*
X1231900Y241300D01*
X1219200Y228600D01*
X673100Y406400D02*
X393700Y406400D01*
X673100Y406400D02*
X800100Y406400D01*
D31*
X673100Y406400D03*
X800100Y406400D03*
D30*
X723900Y469900D02*
X882650Y469900D01*
X723900Y469900D02*
X393700Y469900D01*
D31*
X882650Y469900D03*
X723900Y469900D03*
D30*
X1028700Y495300D02*
X1054100Y520700D01*
X1028700Y495300D02*
X939800Y495300D01*
X933450Y488950D01*
X882650Y488950D01*
D31*
X882650Y488950D03*
D30*
X488950Y615950D02*
X482600Y622300D01*
X488950Y615950D02*
X520700Y615950D01*
D31*
X520700Y615950D03*
M02*
