G04 EAGLE Gerber RS-274X export*
G75*
%MOMM*%
%FSLAX34Y34*%
%LPD*%
%INSoldermask Top*%
%IPPOS*%
%AMOC8*
5,1,8,0,0,1.08239X$1,22.5*%
G01*
%ADD10C,1.371600*%
%ADD11C,1.371600*%
%ADD12P,1.704548X8X202.500000*%
%ADD13P,1.704548X8X22.500000*%
%ADD14R,1.652400X1.652400*%
%ADD15C,1.930400*%
%ADD16P,1.484606X8X22.500000*%
%ADD17P,1.484606X8X202.500000*%
%ADD18P,1.979475X8X112.500000*%
%ADD19P,1.484606X8X292.500000*%
%ADD20C,1.676400*%
%ADD21P,1.814519X8X292.500000*%
%ADD22C,2.946400*%
%ADD23C,2.857500*%
%ADD24P,1.484606X8X112.500000*%
%ADD25P,1.704548X8X292.500000*%
%ADD26C,1.524000*%
%ADD27C,0.889000*%
%ADD28C,1.270000*%
%ADD29R,2.057400X2.057400*%
%ADD30C,2.057400*%
%ADD31C,0.838200*%


D10*
X871220Y1027430D03*
X871220Y979170D03*
D11*
X482600Y971296D02*
X482600Y959104D01*
X508000Y959104D02*
X508000Y971296D01*
X533400Y971296D02*
X533400Y959104D01*
X558800Y959104D02*
X558800Y971296D01*
X584200Y971296D02*
X584200Y959104D01*
X609600Y959104D02*
X609600Y971296D01*
X635000Y971296D02*
X635000Y959104D01*
X660400Y959104D02*
X660400Y971296D01*
X685800Y971296D02*
X685800Y959104D01*
X711200Y959104D02*
X711200Y971296D01*
X736600Y971296D02*
X736600Y959104D01*
X762000Y959104D02*
X762000Y971296D01*
X787400Y971296D02*
X787400Y959104D01*
X812800Y959104D02*
X812800Y971296D01*
X812800Y1035304D02*
X812800Y1047496D01*
X787400Y1047496D02*
X787400Y1035304D01*
X762000Y1035304D02*
X762000Y1047496D01*
X736600Y1047496D02*
X736600Y1035304D01*
X711200Y1035304D02*
X711200Y1047496D01*
X685800Y1047496D02*
X685800Y1035304D01*
X660400Y1035304D02*
X660400Y1047496D01*
X635000Y1047496D02*
X635000Y1035304D01*
X609600Y1035304D02*
X609600Y1047496D01*
X584200Y1047496D02*
X584200Y1035304D01*
X558800Y1035304D02*
X558800Y1047496D01*
X533400Y1047496D02*
X533400Y1035304D01*
X508000Y1035304D02*
X508000Y1047496D01*
X482600Y1047496D02*
X482600Y1035304D01*
D12*
X952500Y980440D03*
X927100Y980440D03*
X955040Y1026160D03*
X929640Y1026160D03*
X1193800Y1828800D03*
X1168400Y1828800D03*
D13*
X533400Y1104900D03*
X558800Y1104900D03*
X469900Y1104900D03*
X495300Y1104900D03*
D11*
X1378204Y520700D02*
X1390396Y520700D01*
X1390396Y546100D02*
X1378204Y546100D01*
X1378204Y571500D02*
X1390396Y571500D01*
X1390396Y596900D02*
X1378204Y596900D01*
X1378204Y622300D02*
X1390396Y622300D01*
X1390396Y647700D02*
X1378204Y647700D01*
X1378204Y673100D02*
X1390396Y673100D01*
X1390396Y698500D02*
X1378204Y698500D01*
X1378204Y723900D02*
X1390396Y723900D01*
X1390396Y749300D02*
X1378204Y749300D01*
X1378204Y774700D02*
X1390396Y774700D01*
X1390396Y800100D02*
X1378204Y800100D01*
X1378204Y825500D02*
X1390396Y825500D01*
X1390396Y850900D02*
X1378204Y850900D01*
X1314196Y850900D02*
X1302004Y850900D01*
X1302004Y825500D02*
X1314196Y825500D01*
X1314196Y800100D02*
X1302004Y800100D01*
X1302004Y774700D02*
X1314196Y774700D01*
X1314196Y749300D02*
X1302004Y749300D01*
X1302004Y723900D02*
X1314196Y723900D01*
X1314196Y698500D02*
X1302004Y698500D01*
X1302004Y673100D02*
X1314196Y673100D01*
X1314196Y647700D02*
X1302004Y647700D01*
X1302004Y622300D02*
X1314196Y622300D01*
X1314196Y596900D02*
X1302004Y596900D01*
X1302004Y571500D02*
X1314196Y571500D01*
X1314196Y546100D02*
X1302004Y546100D01*
X1302004Y520700D02*
X1314196Y520700D01*
X895096Y520700D02*
X882904Y520700D01*
X882904Y546100D02*
X895096Y546100D01*
X895096Y571500D02*
X882904Y571500D01*
X882904Y596900D02*
X895096Y596900D01*
X895096Y622300D02*
X882904Y622300D01*
X882904Y647700D02*
X895096Y647700D01*
X895096Y673100D02*
X882904Y673100D01*
X882904Y698500D02*
X895096Y698500D01*
X895096Y723900D02*
X882904Y723900D01*
X882904Y749300D02*
X895096Y749300D01*
X895096Y774700D02*
X882904Y774700D01*
X882904Y800100D02*
X895096Y800100D01*
X895096Y825500D02*
X882904Y825500D01*
X882904Y850900D02*
X895096Y850900D01*
X818896Y850900D02*
X806704Y850900D01*
X806704Y825500D02*
X818896Y825500D01*
X818896Y800100D02*
X806704Y800100D01*
X806704Y774700D02*
X818896Y774700D01*
X818896Y749300D02*
X806704Y749300D01*
X806704Y723900D02*
X818896Y723900D01*
X818896Y698500D02*
X806704Y698500D01*
X806704Y673100D02*
X818896Y673100D01*
X818896Y647700D02*
X806704Y647700D01*
X806704Y622300D02*
X818896Y622300D01*
X818896Y596900D02*
X806704Y596900D01*
X806704Y571500D02*
X818896Y571500D01*
X818896Y546100D02*
X806704Y546100D01*
X806704Y520700D02*
X818896Y520700D01*
X564896Y520700D02*
X552704Y520700D01*
X552704Y546100D02*
X564896Y546100D01*
X564896Y571500D02*
X552704Y571500D01*
X552704Y596900D02*
X564896Y596900D01*
X564896Y622300D02*
X552704Y622300D01*
X552704Y647700D02*
X564896Y647700D01*
X564896Y673100D02*
X552704Y673100D01*
X552704Y698500D02*
X564896Y698500D01*
X564896Y723900D02*
X552704Y723900D01*
X552704Y749300D02*
X564896Y749300D01*
X564896Y774700D02*
X552704Y774700D01*
X552704Y800100D02*
X564896Y800100D01*
X564896Y825500D02*
X552704Y825500D01*
X552704Y850900D02*
X564896Y850900D01*
X488696Y850900D02*
X476504Y850900D01*
X476504Y825500D02*
X488696Y825500D01*
X488696Y800100D02*
X476504Y800100D01*
X476504Y774700D02*
X488696Y774700D01*
X488696Y749300D02*
X476504Y749300D01*
X476504Y723900D02*
X488696Y723900D01*
X488696Y698500D02*
X476504Y698500D01*
X476504Y673100D02*
X488696Y673100D01*
X488696Y647700D02*
X476504Y647700D01*
X476504Y622300D02*
X488696Y622300D01*
X488696Y596900D02*
X476504Y596900D01*
X476504Y571500D02*
X488696Y571500D01*
X488696Y546100D02*
X476504Y546100D01*
X476504Y520700D02*
X488696Y520700D01*
X1143000Y959104D02*
X1143000Y971296D01*
X1168400Y971296D02*
X1168400Y959104D01*
X1193800Y959104D02*
X1193800Y971296D01*
X1219200Y971296D02*
X1219200Y959104D01*
X1219200Y1035304D02*
X1219200Y1047496D01*
X1193800Y1047496D02*
X1193800Y1035304D01*
X1168400Y1035304D02*
X1168400Y1047496D01*
X1143000Y1047496D02*
X1143000Y1035304D01*
D14*
X1308100Y1917700D03*
D15*
X1282700Y1917700D03*
X1257300Y1917700D03*
X1231900Y1917700D03*
X1206500Y1917700D03*
X1181100Y1917700D03*
D16*
X1333500Y1104900D03*
X1435100Y1104900D03*
D17*
X1092200Y1028700D03*
X990600Y1028700D03*
D18*
X939800Y749300D03*
X939800Y850900D03*
X609600Y749300D03*
X609600Y850900D03*
X1270000Y749300D03*
X1270000Y850900D03*
D17*
X1092200Y977900D03*
X990600Y977900D03*
D11*
X1048004Y520700D02*
X1060196Y520700D01*
X1060196Y546100D02*
X1048004Y546100D01*
X1048004Y571500D02*
X1060196Y571500D01*
X1060196Y596900D02*
X1048004Y596900D01*
X1048004Y622300D02*
X1060196Y622300D01*
X1060196Y647700D02*
X1048004Y647700D01*
X1048004Y673100D02*
X1060196Y673100D01*
X1060196Y698500D02*
X1048004Y698500D01*
X1048004Y723900D02*
X1060196Y723900D01*
X1060196Y749300D02*
X1048004Y749300D01*
X1048004Y774700D02*
X1060196Y774700D01*
X1060196Y800100D02*
X1048004Y800100D01*
X1048004Y825500D02*
X1060196Y825500D01*
X1060196Y850900D02*
X1048004Y850900D01*
X983996Y850900D02*
X971804Y850900D01*
X971804Y825500D02*
X983996Y825500D01*
X983996Y800100D02*
X971804Y800100D01*
X971804Y774700D02*
X983996Y774700D01*
X983996Y749300D02*
X971804Y749300D01*
X971804Y723900D02*
X983996Y723900D01*
X983996Y698500D02*
X971804Y698500D01*
X971804Y673100D02*
X983996Y673100D01*
X983996Y647700D02*
X971804Y647700D01*
X971804Y622300D02*
X983996Y622300D01*
X983996Y596900D02*
X971804Y596900D01*
X971804Y571500D02*
X983996Y571500D01*
X983996Y546100D02*
X971804Y546100D01*
X971804Y520700D02*
X983996Y520700D01*
D18*
X1104900Y749300D03*
X1104900Y850900D03*
D11*
X729996Y520700D02*
X717804Y520700D01*
X717804Y546100D02*
X729996Y546100D01*
X729996Y571500D02*
X717804Y571500D01*
X717804Y596900D02*
X729996Y596900D01*
X729996Y622300D02*
X717804Y622300D01*
X717804Y647700D02*
X729996Y647700D01*
X729996Y673100D02*
X717804Y673100D01*
X717804Y698500D02*
X729996Y698500D01*
X729996Y723900D02*
X717804Y723900D01*
X717804Y749300D02*
X729996Y749300D01*
X729996Y774700D02*
X717804Y774700D01*
X717804Y800100D02*
X729996Y800100D01*
X729996Y825500D02*
X717804Y825500D01*
X717804Y850900D02*
X729996Y850900D01*
X653796Y850900D02*
X641604Y850900D01*
X641604Y825500D02*
X653796Y825500D01*
X653796Y800100D02*
X641604Y800100D01*
X641604Y774700D02*
X653796Y774700D01*
X653796Y749300D02*
X641604Y749300D01*
X641604Y723900D02*
X653796Y723900D01*
X653796Y698500D02*
X641604Y698500D01*
X641604Y673100D02*
X653796Y673100D01*
X653796Y647700D02*
X641604Y647700D01*
X641604Y622300D02*
X653796Y622300D01*
X653796Y596900D02*
X641604Y596900D01*
X641604Y571500D02*
X653796Y571500D01*
X653796Y546100D02*
X641604Y546100D01*
X641604Y520700D02*
X653796Y520700D01*
D18*
X444500Y749300D03*
X444500Y850900D03*
D19*
X762000Y1930400D03*
X762000Y1905000D03*
X990600Y1930400D03*
X990600Y1905000D03*
X838200Y1930400D03*
X838200Y1905000D03*
X1066800Y1930400D03*
X1066800Y1905000D03*
X914400Y1930400D03*
X914400Y1905000D03*
X914400Y1854200D03*
X914400Y1752600D03*
X838200Y1854200D03*
X838200Y1752600D03*
X762000Y1854200D03*
X762000Y1752600D03*
X990600Y1854200D03*
X990600Y1752600D03*
X1066800Y1854200D03*
X1066800Y1752600D03*
D13*
X508000Y889000D03*
X533400Y889000D03*
X673100Y889000D03*
X698500Y889000D03*
X1003300Y889000D03*
X1028700Y889000D03*
X1168400Y889000D03*
X1193800Y889000D03*
X1333500Y889000D03*
X1358900Y889000D03*
D11*
X520700Y1835404D02*
X520700Y1847596D01*
X546100Y1847596D02*
X546100Y1835404D01*
X571500Y1835404D02*
X571500Y1847596D01*
D15*
X520700Y1892300D03*
X571500Y1892300D03*
D11*
X622300Y1847596D02*
X622300Y1835404D01*
X647700Y1835404D02*
X647700Y1847596D01*
X673100Y1847596D02*
X673100Y1835404D01*
D15*
X622300Y1892300D03*
X673100Y1892300D03*
D20*
X1287780Y977900D02*
X1303020Y977900D01*
X1303020Y1003300D02*
X1287780Y1003300D01*
X1287780Y1028700D02*
X1303020Y1028700D01*
D11*
X1454404Y444500D02*
X1466596Y444500D01*
X1466596Y469900D02*
X1454404Y469900D01*
X1454404Y495300D02*
X1466596Y495300D01*
X1466596Y520700D02*
X1454404Y520700D01*
X1454404Y546100D02*
X1466596Y546100D01*
X1466596Y571500D02*
X1454404Y571500D01*
X1454404Y596900D02*
X1466596Y596900D01*
X1466596Y622300D02*
X1454404Y622300D01*
X1454404Y647700D02*
X1466596Y647700D01*
X1466596Y203200D02*
X1454404Y203200D01*
X1454404Y228600D02*
X1466596Y228600D01*
X1466596Y254000D02*
X1454404Y254000D01*
X1454404Y279400D02*
X1466596Y279400D01*
X1466596Y304800D02*
X1454404Y304800D01*
X1454404Y330200D02*
X1466596Y330200D01*
X1466596Y355600D02*
X1454404Y355600D01*
X1454404Y381000D02*
X1466596Y381000D01*
X1466596Y406400D02*
X1454404Y406400D01*
X399796Y444500D02*
X387604Y444500D01*
X387604Y469900D02*
X399796Y469900D01*
X399796Y495300D02*
X387604Y495300D01*
X387604Y520700D02*
X399796Y520700D01*
X399796Y546100D02*
X387604Y546100D01*
X387604Y571500D02*
X399796Y571500D01*
X399796Y596900D02*
X387604Y596900D01*
X387604Y622300D02*
X399796Y622300D01*
X399796Y647700D02*
X387604Y647700D01*
X387604Y203200D02*
X399796Y203200D01*
X399796Y228600D02*
X387604Y228600D01*
X387604Y254000D02*
X399796Y254000D01*
X399796Y279400D02*
X387604Y279400D01*
X387604Y304800D02*
X399796Y304800D01*
X399796Y330200D02*
X387604Y330200D01*
X387604Y355600D02*
X399796Y355600D01*
X399796Y381000D02*
X387604Y381000D01*
X387604Y406400D02*
X399796Y406400D01*
D21*
X1320800Y228600D03*
X1295400Y228600D03*
X1270000Y228600D03*
X1244600Y228600D03*
X1219200Y228600D03*
X1193800Y228600D03*
X1168400Y228600D03*
X1143000Y228600D03*
X1117600Y228600D03*
X1092200Y228600D03*
X1066800Y228600D03*
X1041400Y228600D03*
X1016000Y228600D03*
X990600Y228600D03*
X965200Y228600D03*
X939800Y228600D03*
X1320800Y254000D03*
X1295400Y254000D03*
X1270000Y254000D03*
X1244600Y254000D03*
X1219200Y254000D03*
X1193800Y254000D03*
X1168400Y254000D03*
X1143000Y254000D03*
X1117600Y254000D03*
X1092200Y254000D03*
X1066800Y254000D03*
X1041400Y254000D03*
X1016000Y254000D03*
X990600Y254000D03*
X965200Y254000D03*
X939800Y254000D03*
X1320800Y279400D03*
X1295400Y279400D03*
X1270000Y279400D03*
X1244600Y279400D03*
X1219200Y279400D03*
X1193800Y279400D03*
X1168400Y279400D03*
X1143000Y279400D03*
X1117600Y279400D03*
X1092200Y279400D03*
X1066800Y279400D03*
X1041400Y279400D03*
X1016000Y279400D03*
X990600Y279400D03*
X965200Y279400D03*
X939800Y279400D03*
X914400Y228600D03*
X889000Y228600D03*
X863600Y228600D03*
X838200Y228600D03*
X812800Y228600D03*
X787400Y228600D03*
X762000Y228600D03*
X736600Y228600D03*
X711200Y228600D03*
X685800Y228600D03*
X660400Y228600D03*
X635000Y228600D03*
X609600Y228600D03*
X584200Y228600D03*
X558800Y228600D03*
X533400Y228600D03*
X914400Y254000D03*
X889000Y254000D03*
X863600Y254000D03*
X838200Y254000D03*
X812800Y254000D03*
X787400Y254000D03*
X762000Y254000D03*
X736600Y254000D03*
X711200Y254000D03*
X685800Y254000D03*
X660400Y254000D03*
X635000Y254000D03*
X609600Y254000D03*
X584200Y254000D03*
X558800Y254000D03*
X533400Y254000D03*
X914400Y279400D03*
X889000Y279400D03*
X863600Y279400D03*
X838200Y279400D03*
X812800Y279400D03*
X787400Y279400D03*
X762000Y279400D03*
X736600Y279400D03*
X711200Y279400D03*
X685800Y279400D03*
X660400Y279400D03*
X635000Y279400D03*
X609600Y279400D03*
X584200Y279400D03*
X558800Y279400D03*
X533400Y279400D03*
D22*
X482536Y203200D03*
X1371664Y203200D03*
D19*
X1460500Y1930400D03*
X1460500Y1905000D03*
X1460500Y1841500D03*
X1460500Y1739900D03*
D11*
X1225296Y520700D02*
X1213104Y520700D01*
X1213104Y546100D02*
X1225296Y546100D01*
X1225296Y571500D02*
X1213104Y571500D01*
X1213104Y596900D02*
X1225296Y596900D01*
X1225296Y622300D02*
X1213104Y622300D01*
X1213104Y647700D02*
X1225296Y647700D01*
X1225296Y673100D02*
X1213104Y673100D01*
X1213104Y698500D02*
X1225296Y698500D01*
X1225296Y723900D02*
X1213104Y723900D01*
X1213104Y749300D02*
X1225296Y749300D01*
X1225296Y774700D02*
X1213104Y774700D01*
X1213104Y800100D02*
X1225296Y800100D01*
X1225296Y825500D02*
X1213104Y825500D01*
X1213104Y850900D02*
X1225296Y850900D01*
X1149096Y850900D02*
X1136904Y850900D01*
X1136904Y825500D02*
X1149096Y825500D01*
X1149096Y800100D02*
X1136904Y800100D01*
X1136904Y774700D02*
X1149096Y774700D01*
X1149096Y749300D02*
X1136904Y749300D01*
X1136904Y723900D02*
X1149096Y723900D01*
X1149096Y698500D02*
X1136904Y698500D01*
X1136904Y673100D02*
X1149096Y673100D01*
X1149096Y647700D02*
X1136904Y647700D01*
X1136904Y622300D02*
X1149096Y622300D01*
X1149096Y596900D02*
X1136904Y596900D01*
X1136904Y571500D02*
X1149096Y571500D01*
X1149096Y546100D02*
X1136904Y546100D01*
X1136904Y520700D02*
X1149096Y520700D01*
D18*
X774700Y749300D03*
X774700Y850900D03*
D23*
X432626Y1469390D02*
X405575Y1469390D01*
X405575Y1422400D02*
X432626Y1422400D01*
X432626Y1375410D02*
X405575Y1375410D01*
X519875Y1469390D02*
X546926Y1469390D01*
X546926Y1422400D02*
X519875Y1422400D01*
X519875Y1375410D02*
X546926Y1375410D01*
X634175Y1469390D02*
X661226Y1469390D01*
X661226Y1422400D02*
X634175Y1422400D01*
X634175Y1375410D02*
X661226Y1375410D01*
X748475Y1469390D02*
X775526Y1469390D01*
X775526Y1422400D02*
X748475Y1422400D01*
X748475Y1375410D02*
X775526Y1375410D01*
X862775Y1469390D02*
X889826Y1469390D01*
X889826Y1422400D02*
X862775Y1422400D01*
X862775Y1375410D02*
X889826Y1375410D01*
X977075Y1469390D02*
X1004126Y1469390D01*
X1004126Y1422400D02*
X977075Y1422400D01*
X977075Y1375410D02*
X1004126Y1375410D01*
X1091375Y1469390D02*
X1118426Y1469390D01*
X1118426Y1422400D02*
X1091375Y1422400D01*
X1091375Y1375410D02*
X1118426Y1375410D01*
X1205675Y1469390D02*
X1232726Y1469390D01*
X1232726Y1422400D02*
X1205675Y1422400D01*
X1205675Y1375410D02*
X1232726Y1375410D01*
X1396175Y1469390D02*
X1423226Y1469390D01*
X1423226Y1422400D02*
X1396175Y1422400D01*
X1396175Y1375410D02*
X1423226Y1375410D01*
D24*
X419100Y1559560D03*
X419100Y1584960D03*
X419100Y1615440D03*
X419100Y1717040D03*
X533400Y1559560D03*
X533400Y1584960D03*
X533400Y1615440D03*
X533400Y1717040D03*
X647700Y1562100D03*
X647700Y1587500D03*
X647700Y1615440D03*
X647700Y1717040D03*
X762000Y1562100D03*
X762000Y1587500D03*
X762000Y1615440D03*
X762000Y1717040D03*
X876300Y1559560D03*
X876300Y1584960D03*
X876300Y1615440D03*
X876300Y1717040D03*
X990600Y1562100D03*
X990600Y1587500D03*
X990600Y1615440D03*
X990600Y1717040D03*
X1104900Y1562100D03*
X1104900Y1587500D03*
X1104900Y1615440D03*
X1104900Y1717040D03*
X1219200Y1562100D03*
X1219200Y1587500D03*
X1219200Y1615440D03*
X1219200Y1717040D03*
X1409700Y1559560D03*
X1409700Y1584960D03*
X1409700Y1617980D03*
X1409700Y1719580D03*
D11*
X698500Y1136396D02*
X698500Y1124204D01*
X723900Y1124204D02*
X723900Y1136396D01*
X850900Y1136396D02*
X850900Y1124204D01*
X876300Y1124204D02*
X876300Y1136396D01*
X749300Y1136396D02*
X749300Y1124204D01*
X774700Y1124204D02*
X774700Y1136396D01*
X825500Y1136396D02*
X825500Y1124204D01*
X800100Y1124204D02*
X800100Y1136396D01*
X901700Y1136396D02*
X901700Y1124204D01*
X927100Y1124204D02*
X927100Y1136396D01*
X927100Y1200404D02*
X927100Y1212596D01*
X901700Y1212596D02*
X901700Y1200404D01*
X876300Y1200404D02*
X876300Y1212596D01*
X850900Y1212596D02*
X850900Y1200404D01*
X825500Y1200404D02*
X825500Y1212596D01*
X800100Y1212596D02*
X800100Y1200404D01*
X774700Y1200404D02*
X774700Y1212596D01*
X749300Y1212596D02*
X749300Y1200404D01*
X723900Y1200404D02*
X723900Y1212596D01*
X698500Y1212596D02*
X698500Y1200404D01*
X1066800Y1136396D02*
X1066800Y1124204D01*
X1092200Y1124204D02*
X1092200Y1136396D01*
X1219200Y1136396D02*
X1219200Y1124204D01*
X1244600Y1124204D02*
X1244600Y1136396D01*
X1117600Y1136396D02*
X1117600Y1124204D01*
X1143000Y1124204D02*
X1143000Y1136396D01*
X1193800Y1136396D02*
X1193800Y1124204D01*
X1168400Y1124204D02*
X1168400Y1136396D01*
X1270000Y1136396D02*
X1270000Y1124204D01*
X1295400Y1124204D02*
X1295400Y1136396D01*
X1295400Y1200404D02*
X1295400Y1212596D01*
X1270000Y1212596D02*
X1270000Y1200404D01*
X1244600Y1200404D02*
X1244600Y1212596D01*
X1219200Y1212596D02*
X1219200Y1200404D01*
X1193800Y1200404D02*
X1193800Y1212596D01*
X1168400Y1212596D02*
X1168400Y1200404D01*
X1143000Y1200404D02*
X1143000Y1212596D01*
X1117600Y1212596D02*
X1117600Y1200404D01*
X1092200Y1200404D02*
X1092200Y1212596D01*
X1066800Y1212596D02*
X1066800Y1200404D01*
D13*
X838200Y889000D03*
X863600Y889000D03*
D25*
X635000Y1181100D03*
X635000Y1155700D03*
X1003300Y1181100D03*
X1003300Y1155700D03*
D26*
X1308100Y1758442D02*
X1308100Y1772158D01*
X1282700Y1772158D02*
X1282700Y1758442D01*
X1308100Y1821942D02*
X1308100Y1835658D01*
X1282700Y1835658D02*
X1282700Y1821942D01*
D27*
X406800Y1930400D03*
X456800Y1930400D03*
D28*
X466800Y1905400D03*
X396800Y1905400D03*
D29*
X1351800Y1025800D03*
D30*
X1351800Y980800D03*
X1416800Y980800D03*
X1416800Y1025800D03*
D17*
X558800Y1168400D03*
X457200Y1168400D03*
D31*
X1466850Y266700D03*
X1352550Y673100D03*
X1212850Y304800D03*
X1333500Y596900D03*
X1333500Y304800D03*
X1187450Y330200D03*
X1244600Y609600D03*
X1162050Y336550D03*
X1282700Y546100D03*
X1282700Y336550D03*
X1397000Y400050D03*
X1365250Y501650D03*
X1149350Y196850D03*
X1282700Y196850D03*
X1308100Y342900D03*
X1320800Y412750D03*
X1104900Y393700D03*
X1422400Y508000D03*
X1238250Y349250D03*
X1238250Y406400D03*
X1441450Y514350D03*
X1231900Y450850D03*
X1073150Y317500D03*
X1092200Y438150D03*
X1028700Y190500D03*
X1479550Y311150D03*
X996950Y298450D03*
X996950Y393700D03*
X1358900Y298450D03*
X1263650Y203200D03*
X1282700Y323850D03*
X1358900Y323850D03*
X374650Y406400D03*
X825500Y419100D03*
X482600Y368300D03*
X787400Y387350D03*
X539750Y266700D03*
X546100Y203200D03*
X768350Y615950D03*
X768350Y361950D03*
X571500Y361950D03*
X787400Y590550D03*
X781050Y393700D03*
X742950Y323850D03*
X844550Y565150D03*
X844550Y361950D03*
X698500Y400050D03*
X787400Y539750D03*
X787400Y400050D03*
X596900Y1720850D03*
X488950Y349250D03*
X869950Y463550D03*
X908050Y476250D03*
X520700Y482600D03*
X927100Y482600D03*
X863600Y501650D03*
X1257300Y342900D03*
X863600Y361950D03*
X1257300Y209550D03*
X933450Y298450D03*
X1276350Y311150D03*
X1276350Y717550D03*
X1149350Y292100D03*
X1149350Y387350D03*
X939800Y387350D03*
X679450Y1104900D03*
X768350Y1066800D03*
X895350Y1079500D03*
X996950Y1085850D03*
X1035050Y1066800D03*
X1174750Y292100D03*
X1111250Y292100D03*
X1111250Y565150D03*
X1162050Y450850D03*
X1079500Y431800D03*
X1003300Y558800D03*
X990600Y488950D03*
X958850Y476250D03*
X977900Y482600D03*
X971550Y298450D03*
X1193800Y482600D03*
X901700Y469900D03*
X1238250Y438150D03*
X882650Y406400D03*
X889000Y438150D03*
X889000Y298450D03*
X869950Y660400D03*
X857250Y292100D03*
X844550Y635000D03*
X831850Y292100D03*
X692150Y304800D03*
X685800Y298450D03*
X679450Y292100D03*
X615950Y590550D03*
X615950Y304800D03*
X609600Y546100D03*
X609600Y311150D03*
X603250Y539750D03*
X996950Y685800D03*
X952500Y514350D03*
X812800Y495300D03*
X806450Y292100D03*
X812800Y508000D03*
X819150Y406400D03*
X1250950Y381000D03*
X1244600Y558800D03*
X736600Y374650D03*
X1200150Y368300D03*
X742950Y381000D03*
X1193800Y374650D03*
X749300Y412750D03*
X1149350Y412750D03*
X698500Y450850D03*
X1136650Y419100D03*
X704850Y457200D03*
X1117600Y425450D03*
X768350Y692150D03*
X1035050Y698500D03*
X920750Y565150D03*
X914400Y539750D03*
X901700Y501650D03*
X609600Y635000D03*
X508000Y349250D03*
X933450Y685800D03*
X933450Y355600D03*
X1073150Y463550D03*
X717550Y457200D03*
X1079500Y457200D03*
X755650Y444500D03*
X762000Y565150D03*
X1035050Y355600D03*
X1016000Y565150D03*
X1022350Y317500D03*
X819150Y304800D03*
X1009650Y539750D03*
X1009650Y317500D03*
X615950Y1104900D03*
X609600Y679450D03*
X1143000Y1092200D03*
X749300Y1092200D03*
X850900Y660400D03*
X850900Y1098550D03*
X622300Y971550D03*
X901700Y1016000D03*
X857250Y609600D03*
X908050Y1263650D03*
X590550Y901700D03*
X800100Y933450D03*
X844550Y1104900D03*
X762000Y584200D03*
X781050Y1162050D03*
X755650Y1155700D03*
X1028700Y603250D03*
X419100Y1231900D03*
X488950Y1473200D03*
X425450Y850900D03*
X806450Y1225550D03*
X819150Y1555750D03*
X723900Y1549400D03*
X812800Y1549400D03*
X717550Y1543050D03*
X1168400Y1397000D03*
X946150Y1136650D03*
X736600Y1358900D03*
X1136650Y1384300D03*
X698500Y1352550D03*
X1162050Y1384300D03*
X673100Y406400D03*
X800100Y406400D03*
X882650Y469900D03*
X723900Y469900D03*
X882650Y488950D03*
X520700Y615950D03*
M02*
