%
M48
M72
T01C0.01300
T02C0.03200
T03C0.04000
T04C0.11000
%
T01
X56500Y110050
X96500Y197550
X137750Y217550
X144000Y227550
X142750Y231300
X131500Y266300
X91500Y248800
X81500Y255050
X132750Y318800
X137750Y318800
X180250Y276300
X177750Y243800
X186500Y216300
X220250Y217550
X249000Y217550
X250250Y242550
X272750Y252550
X281500Y251300
X282750Y240050
X304000Y232550
X315250Y247550
X310250Y250050
X305250Y265050
X309000Y285050
X325250Y298800
X330250Y282550
X329000Y262550
X330250Y250050
X350250Y246300
X361500Y240050
X364000Y232550
X367750Y218800
X369000Y210050
X359000Y210050
X370250Y195050
X375250Y188800
X366500Y185050
X349000Y182550
X329000Y191300
X326500Y186300
X309000Y188800
X295250Y211300
X304000Y216300
X322750Y212550
X329000Y215050
X335250Y217550
X341500Y216300
X382750Y238800
X394000Y256300
X391500Y272550
X401500Y285050
X401500Y298800
X399000Y313800
X425250Y292550
X411500Y236300
X389000Y218800
X391500Y208800
X400250Y206300
X397750Y198800
X397750Y158800
X395250Y155050
X374000Y137550
X370250Y145050
X359000Y145050
X350250Y145050
X346500Y135050
X335250Y135050
X329000Y130050
X317750Y137550
X315250Y132550
X306500Y143800
X310250Y145050
X306500Y160050
X324000Y162550
X330250Y146300
X344000Y115050
X330250Y112550
X309000Y110050
X295250Y110050
X282750Y125050
X275250Y136300
X272750Y151300
X261500Y161300
X279000Y172550
X282750Y172550
X244000Y136300
X262750Y127550
X251500Y102550
X220250Y132550
X220250Y161300
X212750Y161300
X232750Y161300
X180250Y112550
X231500Y43800
X224000Y36300
X241500Y12550
X255250Y62550
X294000Y86300
X330250Y80050
X335250Y61300
X351500Y65050
X334000Y32550
X319000Y27550
X360250Y5050
X361500Y103800
X366500Y132550
X421500Y130050
X349000Y266300
X370250Y287550
X361500Y312550
X346500Y318800
X355250Y342550
X315250Y341300
X310250Y361300
X301500Y383800
X306500Y391300
X272750Y352550
X249000Y367550
X241500Y358800
X242750Y381300
X262750Y413800
X276500Y322550
X276500Y315050
X259000Y293800
X261500Y282550
X250250Y267550
X240250Y291300
X224000Y267550
X182750Y320050
X314000Y316300
X421500Y378800
X109000Y7550
T02
X111500Y21300
X121500Y21300
X131500Y21300
X141500Y21300
X151500Y21300
X161500Y21300
X171500Y21300
X186500Y31300
X196500Y21300
X206500Y21300
X216500Y21300
X226500Y21300
X236500Y21300
X246500Y21300
X256500Y21300
X266500Y21300
X286500Y31300
X296500Y21300
X306500Y21300
X316500Y21300
X326500Y21300
X336500Y21300
X346500Y21300
X356500Y21300
X366500Y21300
X376500Y21300
X386500Y21300
X411500Y16300
X421500Y16300
X416500Y36300
X386500Y51300
X376500Y51300
X366500Y51300
X356500Y51300
X346500Y51300
X336500Y51300
X326500Y51300
X316500Y51300
X306500Y51300
X296500Y51300
X286500Y41300
X266500Y51300
X256500Y51300
X246500Y51300
X236500Y51300
X226500Y51300
X216500Y51300
X206500Y51300
X196500Y51300
X186500Y41300
X171500Y51300
X161500Y51300
X151500Y51300
X141500Y51300
X131500Y51300
X121500Y51300
X111500Y51300
X96500Y41300
X96500Y31300
X106500Y71300
X116500Y71300
X126500Y71300
X136500Y71300
X146500Y71300
X156500Y71300
X166500Y71300
X186500Y81300
X186500Y91300
X196500Y101300
X206500Y101300
X216500Y101300
X226500Y101300
X236500Y101300
X246500Y101300
X256500Y101300
X266500Y101300
X266500Y121300
X256500Y121300
X246500Y121300
X236500Y121300
X226500Y121300
X216500Y121300
X206500Y121300
X196500Y121300
X186500Y131300
X186500Y141300
X196500Y151300
X206500Y151300
X216500Y151300
X226500Y151300
X236500Y151300
X246500Y151300
X256500Y151300
X266500Y151300
X266500Y171300
X256500Y171300
X246500Y171300
X236500Y171300
X226500Y171300
X216500Y171300
X206500Y171300
X196500Y171300
X186500Y181300
X186500Y191300
X196500Y201300
X206500Y201300
X216500Y201300
X226500Y201300
X236500Y201300
X246500Y201300
X256500Y201300
X266500Y201300
X286500Y191300
X286500Y181300
X296500Y171300
X306500Y171300
X316500Y171300
X326500Y171300
X336500Y171300
X346500Y171300
X356500Y171300
X366500Y171300
X376500Y171300
X386500Y171300
X386500Y151300
X376500Y151300
X366500Y151300
X356500Y151300
X346500Y151300
X336500Y151300
X326500Y151300
X316500Y151300
X306500Y151300
X296500Y151300
X286500Y141300
X286500Y131300
X296500Y121300
X306500Y121300
X316500Y121300
X326500Y121300
X336500Y121300
X346500Y121300
X356500Y121300
X366500Y121300
X376500Y121300
X386500Y121300
X386500Y101300
X376500Y101300
X366500Y101300
X356500Y101300
X346500Y101300
X336500Y101300
X326500Y101300
X316500Y101300
X306500Y101300
X296500Y101300
X286500Y91300
X286500Y81300
X296500Y71300
X306500Y71300
X316500Y71300
X326500Y71300
X336500Y71300
X346500Y71300
X356500Y71300
X366500Y71300
X376500Y71300
X386500Y71300
X416500Y76300
X386500Y201300
X376500Y201300
X366500Y201300
X356500Y201300
X346500Y201300
X336500Y201300
X326500Y201300
X316500Y201300
X306500Y201300
X296500Y201300
X296500Y226300
X306500Y226300
X316500Y226300
X326500Y226300
X336500Y226300
X346500Y226300
X356500Y226300
X366500Y226300
X376500Y226300
X386500Y226300
X386500Y256300
X376500Y256300
X366500Y256300
X356500Y256300
X346500Y256300
X336500Y256300
X326500Y256300
X316500Y256300
X306500Y256300
X296500Y256300
X286500Y246300
X286500Y236300
X266500Y226300
X256500Y226300
X246500Y226300
X236500Y226300
X226500Y226300
X216500Y226300
X206500Y226300
X196500Y226300
X186500Y236300
X186500Y246300
X196500Y256300
X206500Y256300
X216500Y256300
X226500Y256300
X236500Y256300
X246500Y256300
X256500Y256300
X266500Y256300
X266500Y276300
X256500Y276300
X246500Y276300
X236500Y276300
X226500Y276300
X216500Y276300
X206500Y276300
X196500Y276300
X186500Y286300
X186500Y296300
X196500Y306300
X206500Y306300
X216500Y306300
X226500Y306300
X236500Y306300
X246500Y306300
X256500Y306300
X266500Y306300
X266500Y326300
X256500Y326300
X246500Y326300
X236500Y326300
X226500Y326300
X216500Y326300
X206500Y326300
X196500Y326300
X186500Y336300
X186500Y346300
X196500Y356300
X206500Y356300
X216500Y356300
X226500Y356300
X236500Y356300
X246500Y356300
X256500Y356300
X266500Y356300
X266500Y376300
X256500Y376300
X246500Y376300
X236500Y376300
X226500Y376300
X216500Y376300
X206500Y376300
X196500Y376300
X186500Y386300
X186500Y396300
X196500Y406300
X206500Y406300
X216500Y406300
X226500Y406300
X236500Y406300
X246500Y406300
X256500Y406300
X266500Y406300
X286500Y396300
X286500Y386300
X296500Y376300
X306500Y376300
X316500Y376300
X326500Y376300
X336500Y376300
X346500Y376300
X356500Y376300
X366500Y376300
X376500Y376300
X386500Y376300
X386500Y356300
X376500Y356300
X366500Y356300
X356500Y356300
X346500Y356300
X336500Y356300
X326500Y356300
X316500Y356300
X306500Y356300
X296500Y356300
X286500Y346300
X286500Y336300
X296500Y326300
X306500Y326300
X316500Y326300
X326500Y326300
X336500Y326300
X346500Y326300
X356500Y326300
X366500Y326300
X376500Y326300
X386500Y326300
X386500Y306300
X376500Y306300
X366500Y306300
X356500Y306300
X346500Y306300
X336500Y306300
X326500Y306300
X316500Y306300
X306500Y306300
X296500Y306300
X286500Y296300
X286500Y286300
X296500Y276300
X306500Y276300
X316500Y276300
X326500Y276300
X336500Y276300
X346500Y276300
X356500Y276300
X366500Y276300
X376500Y276300
X386500Y276300
X386500Y406300
X376500Y406300
X366500Y406300
X356500Y406300
X346500Y406300
X336500Y406300
X326500Y406300
X316500Y406300
X306500Y406300
X296500Y406300
X166500Y201300
X156500Y201300
X146500Y201300
X136500Y201300
X126500Y201300
X116500Y201300
X106500Y201300
X96500Y191300
X96500Y181300
X106500Y171300
X116500Y171300
X126500Y171300
X136500Y171300
X146500Y171300
X156500Y171300
X166500Y171300
X166500Y151300
X156500Y151300
X146500Y151300
X136500Y151300
X126500Y151300
X116500Y151300
X106500Y151300
X96500Y141300
X96500Y131300
X106500Y121300
X116500Y121300
X126500Y121300
X136500Y121300
X146500Y121300
X156500Y121300
X166500Y121300
X166500Y101300
X156500Y101300
X146500Y101300
X136500Y101300
X126500Y101300
X116500Y101300
X106500Y101300
X96500Y91300
X96500Y81300
X196500Y71300
X206500Y71300
X216500Y71300
X226500Y71300
X236500Y71300
X246500Y71300
X256500Y71300
X266500Y71300
T03
X406500Y141300
X406500Y151300
X406500Y161300
X406500Y171300
X416500Y171300
X416500Y161300
X416500Y151300
X416500Y141300
X416500Y181300
X416500Y191300
X416500Y201300
X416500Y211300
X406500Y211300
X406500Y201300
X406500Y191300
X406500Y181300
X406500Y221300
X406500Y231300
X406500Y241300
X406500Y251300
X406500Y261300
X416500Y261300
X416500Y251300
X416500Y241300
X416500Y231300
X416500Y221300
X416500Y271300
X416500Y281300
X416500Y291300
X416500Y301300
X406500Y301300
X406500Y291300
X406500Y281300
X406500Y271300
X406500Y311300
X406500Y321300
X406500Y331300
X416500Y331300
X416500Y321300
X416500Y311300
X71500Y311300
X71500Y321300
X71500Y331300
X71500Y341300
X71500Y351300
X61500Y351300
X61500Y341300
X61500Y331300
X61500Y321300
X61500Y311300
X61500Y301300
X61500Y291300
X61500Y281300
X61500Y271300
X71500Y271300
X71500Y281300
X71500Y291300
X71500Y301300
X51500Y301300
X51500Y291300
X51500Y281300
X51500Y271300
X51500Y261300
X51500Y251300
X51500Y241300
X51500Y231300
X51500Y221300
X51500Y211300
X51500Y201300
X51500Y191300
X51500Y181300
X51500Y171300
X51500Y161300
X51500Y151300
X51500Y141300
X51500Y131300
X51500Y121300
X51500Y111300
X51500Y101300
X51500Y91300
X51500Y81300
X51500Y71300
X61500Y71300
X71500Y71300
X71500Y81300
X71500Y91300
X71500Y101300
X71500Y111300
X71500Y121300
X61500Y121300
X61500Y111300
X61500Y101300
X61500Y91300
X61500Y81300
X61500Y131300
X61500Y141300
X61500Y151300
X61500Y161300
X61500Y171300
X71500Y171300
X71500Y161300
X71500Y151300
X71500Y141300
X71500Y131300
X71500Y181300
X71500Y191300
X71500Y201300
X71500Y211300
X61500Y211300
X61500Y201300
X61500Y191300
X61500Y181300
X61500Y221300
X61500Y231300
X61500Y241300
X61500Y251300
X61500Y261300
X71500Y261300
X71500Y251300
X71500Y241300
X71500Y231300
X71500Y221300
X51500Y311300
X51500Y321300
X51500Y331300
X51500Y341300
X51500Y351300
X51500Y361300
X51500Y371300
X51500Y381300
X61500Y381300
X61500Y371300
X61500Y361300
X71500Y361300
X71500Y371300
X71500Y381300
T04
X41500Y51275
X41500Y401325
M30
