G75*
%MOIN*%
%OFA0B0*%
%FSLAX25Y25*%
%IPPOS*%
%LPD*%
%AMOC8*
5,1,8,0,0,1.08239X$1,22.5*
%
%ADD10C,0.04800*%
%ADD11OC8,0.06300*%
%ADD12OC8,0.06000*%
%ADD13OC8,0.04800*%
%ADD14C,0.00600*%
%ADD15C,0.02700*%
D10*
X0106500Y0068900D02*
X0106500Y0073700D01*
X0116500Y0073700D02*
X0116500Y0068900D01*
X0126500Y0068900D02*
X0126500Y0073700D01*
X0136500Y0073700D02*
X0136500Y0068900D01*
X0146500Y0068900D02*
X0146500Y0073700D01*
X0156500Y0073700D02*
X0156500Y0068900D01*
X0166500Y0068900D02*
X0166500Y0073700D01*
X0161500Y0053700D02*
X0161500Y0048900D01*
X0151500Y0048900D02*
X0151500Y0053700D01*
X0141500Y0053700D02*
X0141500Y0048900D01*
X0131500Y0048900D02*
X0131500Y0053700D01*
X0121500Y0053700D02*
X0121500Y0048900D01*
X0111500Y0048900D02*
X0111500Y0053700D01*
X0111500Y0023700D02*
X0111500Y0018900D01*
X0121500Y0018900D02*
X0121500Y0023700D01*
X0131500Y0023700D02*
X0131500Y0018900D01*
X0141500Y0018900D02*
X0141500Y0023700D01*
X0151500Y0023700D02*
X0151500Y0018900D01*
X0161500Y0018900D02*
X0161500Y0023700D01*
X0171500Y0023700D02*
X0171500Y0018900D01*
X0196500Y0018900D02*
X0196500Y0023700D01*
X0206500Y0023700D02*
X0206500Y0018900D01*
X0216500Y0018900D02*
X0216500Y0023700D01*
X0226500Y0023700D02*
X0226500Y0018900D01*
X0236500Y0018900D02*
X0236500Y0023700D01*
X0246500Y0023700D02*
X0246500Y0018900D01*
X0256500Y0018900D02*
X0256500Y0023700D01*
X0266500Y0023700D02*
X0266500Y0018900D01*
X0266500Y0048900D02*
X0266500Y0053700D01*
X0256500Y0053700D02*
X0256500Y0048900D01*
X0246500Y0048900D02*
X0246500Y0053700D01*
X0236500Y0053700D02*
X0236500Y0048900D01*
X0226500Y0048900D02*
X0226500Y0053700D01*
X0216500Y0053700D02*
X0216500Y0048900D01*
X0206500Y0048900D02*
X0206500Y0053700D01*
X0196500Y0053700D02*
X0196500Y0048900D01*
X0196500Y0068900D02*
X0196500Y0073700D01*
X0206500Y0073700D02*
X0206500Y0068900D01*
X0216500Y0068900D02*
X0216500Y0073700D01*
X0226500Y0073700D02*
X0226500Y0068900D01*
X0236500Y0068900D02*
X0236500Y0073700D01*
X0246500Y0073700D02*
X0246500Y0068900D01*
X0256500Y0068900D02*
X0256500Y0073700D01*
X0266500Y0073700D02*
X0266500Y0068900D01*
X0266500Y0098900D02*
X0266500Y0103700D01*
X0256500Y0103700D02*
X0256500Y0098900D01*
X0246500Y0098900D02*
X0246500Y0103700D01*
X0236500Y0103700D02*
X0236500Y0098900D01*
X0226500Y0098900D02*
X0226500Y0103700D01*
X0216500Y0103700D02*
X0216500Y0098900D01*
X0206500Y0098900D02*
X0206500Y0103700D01*
X0196500Y0103700D02*
X0196500Y0098900D01*
X0196500Y0118900D02*
X0196500Y0123700D01*
X0206500Y0123700D02*
X0206500Y0118900D01*
X0216500Y0118900D02*
X0216500Y0123700D01*
X0226500Y0123700D02*
X0226500Y0118900D01*
X0236500Y0118900D02*
X0236500Y0123700D01*
X0246500Y0123700D02*
X0246500Y0118900D01*
X0256500Y0118900D02*
X0256500Y0123700D01*
X0266500Y0123700D02*
X0266500Y0118900D01*
X0266500Y0148900D02*
X0266500Y0153700D01*
X0256500Y0153700D02*
X0256500Y0148900D01*
X0246500Y0148900D02*
X0246500Y0153700D01*
X0236500Y0153700D02*
X0236500Y0148900D01*
X0226500Y0148900D02*
X0226500Y0153700D01*
X0216500Y0153700D02*
X0216500Y0148900D01*
X0206500Y0148900D02*
X0206500Y0153700D01*
X0196500Y0153700D02*
X0196500Y0148900D01*
X0196500Y0168900D02*
X0196500Y0173700D01*
X0206500Y0173700D02*
X0206500Y0168900D01*
X0216500Y0168900D02*
X0216500Y0173700D01*
X0226500Y0173700D02*
X0226500Y0168900D01*
X0236500Y0168900D02*
X0236500Y0173700D01*
X0246500Y0173700D02*
X0246500Y0168900D01*
X0256500Y0168900D02*
X0256500Y0173700D01*
X0266500Y0173700D02*
X0266500Y0168900D01*
X0266500Y0198900D02*
X0266500Y0203700D01*
X0256500Y0203700D02*
X0256500Y0198900D01*
X0246500Y0198900D02*
X0246500Y0203700D01*
X0236500Y0203700D02*
X0236500Y0198900D01*
X0226500Y0198900D02*
X0226500Y0203700D01*
X0216500Y0203700D02*
X0216500Y0198900D01*
X0206500Y0198900D02*
X0206500Y0203700D01*
X0196500Y0203700D02*
X0196500Y0198900D01*
X0196500Y0223900D02*
X0196500Y0228700D01*
X0206500Y0228700D02*
X0206500Y0223900D01*
X0216500Y0223900D02*
X0216500Y0228700D01*
X0226500Y0228700D02*
X0226500Y0223900D01*
X0236500Y0223900D02*
X0236500Y0228700D01*
X0246500Y0228700D02*
X0246500Y0223900D01*
X0256500Y0223900D02*
X0256500Y0228700D01*
X0266500Y0228700D02*
X0266500Y0223900D01*
X0266500Y0253900D02*
X0266500Y0258700D01*
X0256500Y0258700D02*
X0256500Y0253900D01*
X0246500Y0253900D02*
X0246500Y0258700D01*
X0236500Y0258700D02*
X0236500Y0253900D01*
X0226500Y0253900D02*
X0226500Y0258700D01*
X0216500Y0258700D02*
X0216500Y0253900D01*
X0206500Y0253900D02*
X0206500Y0258700D01*
X0196500Y0258700D02*
X0196500Y0253900D01*
X0196500Y0273900D02*
X0196500Y0278700D01*
X0206500Y0278700D02*
X0206500Y0273900D01*
X0216500Y0273900D02*
X0216500Y0278700D01*
X0226500Y0278700D02*
X0226500Y0273900D01*
X0236500Y0273900D02*
X0236500Y0278700D01*
X0246500Y0278700D02*
X0246500Y0273900D01*
X0256500Y0273900D02*
X0256500Y0278700D01*
X0266500Y0278700D02*
X0266500Y0273900D01*
X0266500Y0303900D02*
X0266500Y0308700D01*
X0256500Y0308700D02*
X0256500Y0303900D01*
X0246500Y0303900D02*
X0246500Y0308700D01*
X0236500Y0308700D02*
X0236500Y0303900D01*
X0226500Y0303900D02*
X0226500Y0308700D01*
X0216500Y0308700D02*
X0216500Y0303900D01*
X0206500Y0303900D02*
X0206500Y0308700D01*
X0196500Y0308700D02*
X0196500Y0303900D01*
X0196500Y0323900D02*
X0196500Y0328700D01*
X0206500Y0328700D02*
X0206500Y0323900D01*
X0216500Y0323900D02*
X0216500Y0328700D01*
X0226500Y0328700D02*
X0226500Y0323900D01*
X0236500Y0323900D02*
X0236500Y0328700D01*
X0246500Y0328700D02*
X0246500Y0323900D01*
X0256500Y0323900D02*
X0256500Y0328700D01*
X0266500Y0328700D02*
X0266500Y0323900D01*
X0266500Y0353900D02*
X0266500Y0358700D01*
X0256500Y0358700D02*
X0256500Y0353900D01*
X0246500Y0353900D02*
X0246500Y0358700D01*
X0236500Y0358700D02*
X0236500Y0353900D01*
X0226500Y0353900D02*
X0226500Y0358700D01*
X0216500Y0358700D02*
X0216500Y0353900D01*
X0206500Y0353900D02*
X0206500Y0358700D01*
X0196500Y0358700D02*
X0196500Y0353900D01*
X0196500Y0373900D02*
X0196500Y0378700D01*
X0206500Y0378700D02*
X0206500Y0373900D01*
X0216500Y0373900D02*
X0216500Y0378700D01*
X0226500Y0378700D02*
X0226500Y0373900D01*
X0236500Y0373900D02*
X0236500Y0378700D01*
X0246500Y0378700D02*
X0246500Y0373900D01*
X0256500Y0373900D02*
X0256500Y0378700D01*
X0266500Y0378700D02*
X0266500Y0373900D01*
X0266500Y0403900D02*
X0266500Y0408700D01*
X0256500Y0408700D02*
X0256500Y0403900D01*
X0246500Y0403900D02*
X0246500Y0408700D01*
X0236500Y0408700D02*
X0236500Y0403900D01*
X0226500Y0403900D02*
X0226500Y0408700D01*
X0216500Y0408700D02*
X0216500Y0403900D01*
X0206500Y0403900D02*
X0206500Y0408700D01*
X0196500Y0408700D02*
X0196500Y0403900D01*
X0296500Y0403900D02*
X0296500Y0408700D01*
X0306500Y0408700D02*
X0306500Y0403900D01*
X0316500Y0403900D02*
X0316500Y0408700D01*
X0326500Y0408700D02*
X0326500Y0403900D01*
X0336500Y0403900D02*
X0336500Y0408700D01*
X0346500Y0408700D02*
X0346500Y0403900D01*
X0356500Y0403900D02*
X0356500Y0408700D01*
X0366500Y0408700D02*
X0366500Y0403900D01*
X0376500Y0403900D02*
X0376500Y0408700D01*
X0386500Y0408700D02*
X0386500Y0403900D01*
X0386500Y0378700D02*
X0386500Y0373900D01*
X0376500Y0373900D02*
X0376500Y0378700D01*
X0366500Y0378700D02*
X0366500Y0373900D01*
X0356500Y0373900D02*
X0356500Y0378700D01*
X0346500Y0378700D02*
X0346500Y0373900D01*
X0336500Y0373900D02*
X0336500Y0378700D01*
X0326500Y0378700D02*
X0326500Y0373900D01*
X0316500Y0373900D02*
X0316500Y0378700D01*
X0306500Y0378700D02*
X0306500Y0373900D01*
X0296500Y0373900D02*
X0296500Y0378700D01*
X0296500Y0358700D02*
X0296500Y0353900D01*
X0306500Y0353900D02*
X0306500Y0358700D01*
X0316500Y0358700D02*
X0316500Y0353900D01*
X0326500Y0353900D02*
X0326500Y0358700D01*
X0336500Y0358700D02*
X0336500Y0353900D01*
X0346500Y0353900D02*
X0346500Y0358700D01*
X0356500Y0358700D02*
X0356500Y0353900D01*
X0366500Y0353900D02*
X0366500Y0358700D01*
X0376500Y0358700D02*
X0376500Y0353900D01*
X0386500Y0353900D02*
X0386500Y0358700D01*
X0386500Y0328700D02*
X0386500Y0323900D01*
X0376500Y0323900D02*
X0376500Y0328700D01*
X0366500Y0328700D02*
X0366500Y0323900D01*
X0356500Y0323900D02*
X0356500Y0328700D01*
X0346500Y0328700D02*
X0346500Y0323900D01*
X0336500Y0323900D02*
X0336500Y0328700D01*
X0326500Y0328700D02*
X0326500Y0323900D01*
X0316500Y0323900D02*
X0316500Y0328700D01*
X0306500Y0328700D02*
X0306500Y0323900D01*
X0296500Y0323900D02*
X0296500Y0328700D01*
X0296500Y0308700D02*
X0296500Y0303900D01*
X0306500Y0303900D02*
X0306500Y0308700D01*
X0316500Y0308700D02*
X0316500Y0303900D01*
X0326500Y0303900D02*
X0326500Y0308700D01*
X0336500Y0308700D02*
X0336500Y0303900D01*
X0346500Y0303900D02*
X0346500Y0308700D01*
X0356500Y0308700D02*
X0356500Y0303900D01*
X0366500Y0303900D02*
X0366500Y0308700D01*
X0376500Y0308700D02*
X0376500Y0303900D01*
X0386500Y0303900D02*
X0386500Y0308700D01*
X0386500Y0278700D02*
X0386500Y0273900D01*
X0376500Y0273900D02*
X0376500Y0278700D01*
X0366500Y0278700D02*
X0366500Y0273900D01*
X0356500Y0273900D02*
X0356500Y0278700D01*
X0346500Y0278700D02*
X0346500Y0273900D01*
X0336500Y0273900D02*
X0336500Y0278700D01*
X0326500Y0278700D02*
X0326500Y0273900D01*
X0316500Y0273900D02*
X0316500Y0278700D01*
X0306500Y0278700D02*
X0306500Y0273900D01*
X0296500Y0273900D02*
X0296500Y0278700D01*
X0296500Y0258700D02*
X0296500Y0253900D01*
X0306500Y0253900D02*
X0306500Y0258700D01*
X0316500Y0258700D02*
X0316500Y0253900D01*
X0326500Y0253900D02*
X0326500Y0258700D01*
X0336500Y0258700D02*
X0336500Y0253900D01*
X0346500Y0253900D02*
X0346500Y0258700D01*
X0356500Y0258700D02*
X0356500Y0253900D01*
X0366500Y0253900D02*
X0366500Y0258700D01*
X0376500Y0258700D02*
X0376500Y0253900D01*
X0386500Y0253900D02*
X0386500Y0258700D01*
X0386500Y0228700D02*
X0386500Y0223900D01*
X0376500Y0223900D02*
X0376500Y0228700D01*
X0366500Y0228700D02*
X0366500Y0223900D01*
X0356500Y0223900D02*
X0356500Y0228700D01*
X0346500Y0228700D02*
X0346500Y0223900D01*
X0336500Y0223900D02*
X0336500Y0228700D01*
X0326500Y0228700D02*
X0326500Y0223900D01*
X0316500Y0223900D02*
X0316500Y0228700D01*
X0306500Y0228700D02*
X0306500Y0223900D01*
X0296500Y0223900D02*
X0296500Y0228700D01*
X0296500Y0203700D02*
X0296500Y0198900D01*
X0306500Y0198900D02*
X0306500Y0203700D01*
X0316500Y0203700D02*
X0316500Y0198900D01*
X0326500Y0198900D02*
X0326500Y0203700D01*
X0336500Y0203700D02*
X0336500Y0198900D01*
X0346500Y0198900D02*
X0346500Y0203700D01*
X0356500Y0203700D02*
X0356500Y0198900D01*
X0366500Y0198900D02*
X0366500Y0203700D01*
X0376500Y0203700D02*
X0376500Y0198900D01*
X0386500Y0198900D02*
X0386500Y0203700D01*
X0386500Y0173700D02*
X0386500Y0168900D01*
X0376500Y0168900D02*
X0376500Y0173700D01*
X0366500Y0173700D02*
X0366500Y0168900D01*
X0356500Y0168900D02*
X0356500Y0173700D01*
X0346500Y0173700D02*
X0346500Y0168900D01*
X0336500Y0168900D02*
X0336500Y0173700D01*
X0326500Y0173700D02*
X0326500Y0168900D01*
X0316500Y0168900D02*
X0316500Y0173700D01*
X0306500Y0173700D02*
X0306500Y0168900D01*
X0296500Y0168900D02*
X0296500Y0173700D01*
X0296500Y0153700D02*
X0296500Y0148900D01*
X0306500Y0148900D02*
X0306500Y0153700D01*
X0316500Y0153700D02*
X0316500Y0148900D01*
X0326500Y0148900D02*
X0326500Y0153700D01*
X0336500Y0153700D02*
X0336500Y0148900D01*
X0346500Y0148900D02*
X0346500Y0153700D01*
X0356500Y0153700D02*
X0356500Y0148900D01*
X0366500Y0148900D02*
X0366500Y0153700D01*
X0376500Y0153700D02*
X0376500Y0148900D01*
X0386500Y0148900D02*
X0386500Y0153700D01*
X0386500Y0123700D02*
X0386500Y0118900D01*
X0376500Y0118900D02*
X0376500Y0123700D01*
X0366500Y0123700D02*
X0366500Y0118900D01*
X0356500Y0118900D02*
X0356500Y0123700D01*
X0346500Y0123700D02*
X0346500Y0118900D01*
X0336500Y0118900D02*
X0336500Y0123700D01*
X0326500Y0123700D02*
X0326500Y0118900D01*
X0316500Y0118900D02*
X0316500Y0123700D01*
X0306500Y0123700D02*
X0306500Y0118900D01*
X0296500Y0118900D02*
X0296500Y0123700D01*
X0296500Y0103700D02*
X0296500Y0098900D01*
X0306500Y0098900D02*
X0306500Y0103700D01*
X0316500Y0103700D02*
X0316500Y0098900D01*
X0326500Y0098900D02*
X0326500Y0103700D01*
X0336500Y0103700D02*
X0336500Y0098900D01*
X0346500Y0098900D02*
X0346500Y0103700D01*
X0356500Y0103700D02*
X0356500Y0098900D01*
X0366500Y0098900D02*
X0366500Y0103700D01*
X0376500Y0103700D02*
X0376500Y0098900D01*
X0386500Y0098900D02*
X0386500Y0103700D01*
X0386500Y0073700D02*
X0386500Y0068900D01*
X0376500Y0068900D02*
X0376500Y0073700D01*
X0366500Y0073700D02*
X0366500Y0068900D01*
X0356500Y0068900D02*
X0356500Y0073700D01*
X0346500Y0073700D02*
X0346500Y0068900D01*
X0336500Y0068900D02*
X0336500Y0073700D01*
X0326500Y0073700D02*
X0326500Y0068900D01*
X0316500Y0068900D02*
X0316500Y0073700D01*
X0306500Y0073700D02*
X0306500Y0068900D01*
X0296500Y0068900D02*
X0296500Y0073700D01*
X0296500Y0053700D02*
X0296500Y0048900D01*
X0306500Y0048900D02*
X0306500Y0053700D01*
X0316500Y0053700D02*
X0316500Y0048900D01*
X0326500Y0048900D02*
X0326500Y0053700D01*
X0336500Y0053700D02*
X0336500Y0048900D01*
X0346500Y0048900D02*
X0346500Y0053700D01*
X0356500Y0053700D02*
X0356500Y0048900D01*
X0366500Y0048900D02*
X0366500Y0053700D01*
X0376500Y0053700D02*
X0376500Y0048900D01*
X0386500Y0048900D02*
X0386500Y0053700D01*
X0386500Y0023700D02*
X0386500Y0018900D01*
X0376500Y0018900D02*
X0376500Y0023700D01*
X0366500Y0023700D02*
X0366500Y0018900D01*
X0356500Y0018900D02*
X0356500Y0023700D01*
X0346500Y0023700D02*
X0346500Y0018900D01*
X0336500Y0018900D02*
X0336500Y0023700D01*
X0326500Y0023700D02*
X0326500Y0018900D01*
X0316500Y0018900D02*
X0316500Y0023700D01*
X0306500Y0023700D02*
X0306500Y0018900D01*
X0296500Y0018900D02*
X0296500Y0023700D01*
X0171500Y0048900D02*
X0171500Y0053700D01*
X0166500Y0098900D02*
X0166500Y0103700D01*
X0156500Y0103700D02*
X0156500Y0098900D01*
X0146500Y0098900D02*
X0146500Y0103700D01*
X0136500Y0103700D02*
X0136500Y0098900D01*
X0126500Y0098900D02*
X0126500Y0103700D01*
X0116500Y0103700D02*
X0116500Y0098900D01*
X0106500Y0098900D02*
X0106500Y0103700D01*
X0106500Y0118900D02*
X0106500Y0123700D01*
X0116500Y0123700D02*
X0116500Y0118900D01*
X0126500Y0118900D02*
X0126500Y0123700D01*
X0136500Y0123700D02*
X0136500Y0118900D01*
X0146500Y0118900D02*
X0146500Y0123700D01*
X0156500Y0123700D02*
X0156500Y0118900D01*
X0166500Y0118900D02*
X0166500Y0123700D01*
X0166500Y0148900D02*
X0166500Y0153700D01*
X0156500Y0153700D02*
X0156500Y0148900D01*
X0146500Y0148900D02*
X0146500Y0153700D01*
X0136500Y0153700D02*
X0136500Y0148900D01*
X0126500Y0148900D02*
X0126500Y0153700D01*
X0116500Y0153700D02*
X0116500Y0148900D01*
X0106500Y0148900D02*
X0106500Y0153700D01*
X0106500Y0168900D02*
X0106500Y0173700D01*
X0116500Y0173700D02*
X0116500Y0168900D01*
X0126500Y0168900D02*
X0126500Y0173700D01*
X0136500Y0173700D02*
X0136500Y0168900D01*
X0146500Y0168900D02*
X0146500Y0173700D01*
X0156500Y0173700D02*
X0156500Y0168900D01*
X0166500Y0168900D02*
X0166500Y0173700D01*
X0166500Y0198900D02*
X0166500Y0203700D01*
X0156500Y0203700D02*
X0156500Y0198900D01*
X0146500Y0198900D02*
X0146500Y0203700D01*
X0136500Y0203700D02*
X0136500Y0198900D01*
X0126500Y0198900D02*
X0126500Y0203700D01*
X0116500Y0203700D02*
X0116500Y0198900D01*
X0106500Y0198900D02*
X0106500Y0203700D01*
D11*
X0096500Y0191300D03*
X0096500Y0181300D03*
X0096500Y0141300D03*
X0096500Y0131300D03*
X0096500Y0091300D03*
X0096500Y0081300D03*
X0096500Y0041300D03*
X0096500Y0031300D03*
X0186500Y0031300D03*
X0186500Y0041300D03*
X0186500Y0081300D03*
X0186500Y0091300D03*
X0186500Y0131300D03*
X0186500Y0141300D03*
X0186500Y0181300D03*
X0186500Y0191300D03*
X0186500Y0236300D03*
X0186500Y0246300D03*
X0186500Y0286300D03*
X0186500Y0296300D03*
X0186500Y0336300D03*
X0186500Y0346300D03*
X0186500Y0386300D03*
X0186500Y0396300D03*
X0286500Y0396300D03*
X0286500Y0386300D03*
X0286500Y0346300D03*
X0286500Y0336300D03*
X0286500Y0296300D03*
X0286500Y0286300D03*
X0286500Y0246300D03*
X0286500Y0236300D03*
X0286500Y0191300D03*
X0286500Y0181300D03*
X0286500Y0141300D03*
X0286500Y0131300D03*
X0286500Y0091300D03*
X0286500Y0081300D03*
X0286500Y0041300D03*
X0286500Y0031300D03*
D12*
X0406500Y0141300D03*
X0406500Y0151300D03*
X0406500Y0161300D03*
X0406500Y0171300D03*
X0416500Y0171300D03*
X0416500Y0161300D03*
X0416500Y0151300D03*
X0416500Y0141300D03*
X0416500Y0181300D03*
X0416500Y0191300D03*
X0416500Y0201300D03*
X0416500Y0211300D03*
X0406500Y0211300D03*
X0406500Y0201300D03*
X0406500Y0191300D03*
X0406500Y0181300D03*
X0406500Y0221300D03*
X0406500Y0231300D03*
X0406500Y0241300D03*
X0406500Y0251300D03*
X0406500Y0261300D03*
X0416500Y0261300D03*
X0416500Y0251300D03*
X0416500Y0241300D03*
X0416500Y0231300D03*
X0416500Y0221300D03*
X0416500Y0271300D03*
X0416500Y0281300D03*
X0416500Y0291300D03*
X0416500Y0301300D03*
X0406500Y0301300D03*
X0406500Y0291300D03*
X0406500Y0281300D03*
X0406500Y0271300D03*
X0406500Y0311300D03*
X0406500Y0321300D03*
X0406500Y0331300D03*
X0416500Y0331300D03*
X0416500Y0321300D03*
X0416500Y0311300D03*
X0071500Y0311300D03*
X0071500Y0321300D03*
X0071500Y0331300D03*
X0071500Y0341300D03*
X0071500Y0351300D03*
X0061500Y0351300D03*
X0061500Y0341300D03*
X0061500Y0331300D03*
X0061500Y0321300D03*
X0061500Y0311300D03*
X0061500Y0301300D03*
X0061500Y0291300D03*
X0061500Y0281300D03*
X0061500Y0271300D03*
X0071500Y0271300D03*
X0071500Y0281300D03*
X0071500Y0291300D03*
X0071500Y0301300D03*
X0051500Y0301300D03*
X0051500Y0291300D03*
X0051500Y0281300D03*
X0051500Y0271300D03*
X0051500Y0261300D03*
X0051500Y0251300D03*
X0051500Y0241300D03*
X0051500Y0231300D03*
X0051500Y0221300D03*
X0051500Y0211300D03*
X0051500Y0201300D03*
X0051500Y0191300D03*
X0051500Y0181300D03*
X0051500Y0171300D03*
X0051500Y0161300D03*
X0051500Y0151300D03*
X0051500Y0141300D03*
X0051500Y0131300D03*
X0051500Y0121300D03*
X0051500Y0111300D03*
X0051500Y0101300D03*
X0051500Y0091300D03*
X0051500Y0081300D03*
X0051500Y0071300D03*
X0061500Y0071300D03*
X0071500Y0071300D03*
X0071500Y0081300D03*
X0071500Y0091300D03*
X0071500Y0101300D03*
X0071500Y0111300D03*
X0071500Y0121300D03*
X0061500Y0121300D03*
X0061500Y0111300D03*
X0061500Y0101300D03*
X0061500Y0091300D03*
X0061500Y0081300D03*
X0061500Y0131300D03*
X0061500Y0141300D03*
X0061500Y0151300D03*
X0061500Y0161300D03*
X0061500Y0171300D03*
X0071500Y0171300D03*
X0071500Y0161300D03*
X0071500Y0151300D03*
X0071500Y0141300D03*
X0071500Y0131300D03*
X0071500Y0181300D03*
X0071500Y0191300D03*
X0071500Y0201300D03*
X0071500Y0211300D03*
X0061500Y0211300D03*
X0061500Y0201300D03*
X0061500Y0191300D03*
X0061500Y0181300D03*
X0061500Y0221300D03*
X0061500Y0231300D03*
X0061500Y0241300D03*
X0061500Y0251300D03*
X0061500Y0261300D03*
X0071500Y0261300D03*
X0071500Y0251300D03*
X0071500Y0241300D03*
X0071500Y0231300D03*
X0071500Y0221300D03*
X0051500Y0311300D03*
X0051500Y0321300D03*
X0051500Y0331300D03*
X0051500Y0341300D03*
X0051500Y0351300D03*
X0051500Y0361300D03*
X0051500Y0371300D03*
X0051500Y0381300D03*
X0061500Y0381300D03*
X0061500Y0371300D03*
X0061500Y0361300D03*
X0071500Y0361300D03*
X0071500Y0371300D03*
X0071500Y0381300D03*
D13*
X0416500Y0076300D03*
X0416500Y0036300D03*
X0411500Y0016300D03*
X0421500Y0016300D03*
D14*
X0046500Y0065050D02*
X0044000Y0065050D01*
X0044000Y0143800D01*
X0051500Y0151300D01*
X0050250Y0156300D02*
X0046500Y0160050D01*
X0046500Y0191300D01*
X0051500Y0191300D01*
X0054000Y0195050D02*
X0052750Y0196300D01*
X0050250Y0196300D01*
X0046500Y0200050D01*
X0046500Y0296300D01*
X0180250Y0296300D01*
X0185250Y0291300D01*
X0236500Y0291300D01*
X0242750Y0285050D01*
X0281500Y0285050D01*
X0285250Y0281300D01*
X0294000Y0281300D01*
X0295250Y0282550D01*
X0310250Y0282550D01*
X0316500Y0276300D01*
X0320250Y0270050D02*
X0326500Y0276300D01*
X0330250Y0282550D02*
X0360250Y0282550D01*
X0366500Y0276300D01*
X0372750Y0270050D01*
X0405250Y0270050D01*
X0406500Y0271300D01*
X0411500Y0272550D02*
X0411500Y0266300D01*
X0349000Y0266300D01*
X0346500Y0263800D02*
X0340250Y0270050D01*
X0346500Y0276300D01*
X0340250Y0270050D02*
X0329000Y0270050D01*
X0327750Y0268800D01*
X0251500Y0268800D01*
X0250250Y0267550D01*
X0246500Y0256300D02*
X0239000Y0263800D01*
X0134000Y0263800D01*
X0131500Y0266300D01*
X0131500Y0262550D02*
X0200250Y0262550D01*
X0206500Y0256300D01*
X0195250Y0250050D02*
X0280250Y0250050D01*
X0281500Y0251300D01*
X0282750Y0248800D02*
X0285250Y0251300D01*
X0294000Y0251300D01*
X0295250Y0250050D01*
X0300250Y0250050D01*
X0306500Y0256300D01*
X0310250Y0250050D02*
X0316500Y0256300D01*
X0315250Y0247550D02*
X0310250Y0242550D01*
X0289000Y0242550D01*
X0287750Y0241300D01*
X0285250Y0241300D01*
X0284000Y0242550D01*
X0250250Y0242550D01*
X0249000Y0240050D02*
X0282750Y0240050D01*
X0284000Y0232550D02*
X0285250Y0231300D01*
X0294000Y0231300D01*
X0304000Y0241300D01*
X0312750Y0241300D01*
X0315250Y0243800D01*
X0357750Y0243800D01*
X0361500Y0240050D01*
X0366500Y0237550D02*
X0302750Y0237550D01*
X0300250Y0235050D01*
X0300250Y0220050D01*
X0212750Y0220050D01*
X0206500Y0226300D01*
X0196500Y0226300D02*
X0186500Y0216300D01*
X0199000Y0211300D02*
X0295250Y0211300D01*
X0302750Y0215050D02*
X0304000Y0216300D01*
X0302750Y0215050D02*
X0222750Y0215050D01*
X0220250Y0217550D01*
X0206500Y0208800D02*
X0200250Y0202550D01*
X0200250Y0171300D01*
X0196500Y0171300D01*
X0206500Y0171300D02*
X0212750Y0165050D01*
X0284000Y0165050D01*
X0285250Y0163800D01*
X0319000Y0163800D01*
X0320250Y0165050D01*
X0387750Y0165050D01*
X0389000Y0166300D01*
X0411500Y0166300D01*
X0416500Y0171300D01*
X0411500Y0176300D02*
X0389000Y0176300D01*
X0387750Y0177550D01*
X0352750Y0177550D01*
X0346500Y0171300D01*
X0336500Y0171300D02*
X0330250Y0177550D01*
X0289000Y0177550D01*
X0284000Y0172550D01*
X0282750Y0172550D01*
X0279000Y0172550D02*
X0286500Y0165050D01*
X0310250Y0165050D01*
X0316500Y0171300D01*
X0320250Y0165050D02*
X0326500Y0171300D01*
X0324000Y0162550D02*
X0262750Y0162550D01*
X0261500Y0161300D01*
X0256500Y0171300D02*
X0271500Y0186300D01*
X0326500Y0186300D01*
X0366500Y0186300D01*
X0366500Y0185050D01*
X0366500Y0186300D02*
X0411500Y0186300D01*
X0416500Y0191300D01*
X0421500Y0192550D02*
X0417750Y0196300D01*
X0391500Y0196300D01*
X0386500Y0201300D01*
X0389000Y0207550D02*
X0397750Y0198800D01*
X0396500Y0203800D02*
X0391500Y0208800D01*
X0389000Y0207550D02*
X0371500Y0207550D01*
X0369000Y0210050D01*
X0367750Y0218800D02*
X0375250Y0226300D01*
X0376500Y0226300D01*
X0385250Y0232550D02*
X0364000Y0232550D01*
X0366500Y0237550D02*
X0366500Y0256300D01*
X0356500Y0256300D02*
X0356500Y0246300D01*
X0350250Y0246300D01*
X0350250Y0232550D02*
X0304000Y0232550D01*
X0301500Y0233800D02*
X0301500Y0226300D01*
X0306500Y0226300D01*
X0301500Y0233800D02*
X0304000Y0236300D01*
X0386500Y0236300D01*
X0386500Y0256300D01*
X0390250Y0256300D02*
X0390250Y0262550D01*
X0329000Y0262550D01*
X0326500Y0256300D02*
X0326500Y0255050D01*
X0315250Y0243800D01*
X0330250Y0250050D02*
X0336500Y0256300D01*
X0346500Y0263800D02*
X0404000Y0263800D01*
X0406500Y0261300D01*
X0411500Y0256300D02*
X0394000Y0256300D01*
X0392750Y0253800D02*
X0390250Y0256300D01*
X0392750Y0253800D02*
X0404000Y0253800D01*
X0406500Y0251300D01*
X0411500Y0252550D02*
X0411500Y0246300D01*
X0399000Y0246300D01*
X0385250Y0232550D01*
X0382750Y0238800D02*
X0376500Y0238800D01*
X0376500Y0256300D01*
X0391500Y0272550D02*
X0397750Y0272550D01*
X0406500Y0281300D01*
X0402750Y0287550D02*
X0370250Y0287550D01*
X0359000Y0298800D02*
X0325250Y0298800D01*
X0320250Y0300050D02*
X0326500Y0306300D01*
X0320250Y0300050D02*
X0295250Y0300050D01*
X0294000Y0301300D01*
X0285250Y0301300D01*
X0284000Y0300050D01*
X0265250Y0300050D01*
X0259000Y0293800D01*
X0256500Y0306300D02*
X0246500Y0316300D01*
X0056500Y0316300D01*
X0051500Y0321300D01*
X0046500Y0326300D02*
X0046500Y0316300D01*
X0051500Y0311300D01*
X0056500Y0306300D02*
X0189000Y0306300D01*
X0195250Y0312550D01*
X0200250Y0312550D01*
X0206500Y0306300D01*
X0202750Y0318800D02*
X0339000Y0318800D01*
X0346500Y0326300D01*
X0342750Y0325050D02*
X0342750Y0340050D01*
X0374000Y0340050D01*
X0386500Y0352550D01*
X0386500Y0356300D01*
X0375250Y0367550D01*
X0265250Y0367550D01*
X0262750Y0365050D01*
X0247750Y0365050D01*
X0241500Y0358800D01*
X0249000Y0367550D02*
X0250250Y0368800D01*
X0339000Y0368800D01*
X0346500Y0376300D01*
X0349000Y0363800D02*
X0264000Y0363800D01*
X0256500Y0356300D01*
X0260250Y0350050D02*
X0266500Y0356300D01*
X0270250Y0352550D01*
X0272750Y0352550D01*
X0292750Y0352550D01*
X0295250Y0350050D01*
X0370250Y0350050D01*
X0376500Y0356300D01*
X0380250Y0360050D02*
X0380250Y0348800D01*
X0290250Y0348800D01*
X0287750Y0351300D01*
X0275250Y0351300D01*
X0256500Y0332550D01*
X0255250Y0332550D01*
X0252750Y0330050D01*
X0252750Y0320050D01*
X0212750Y0320050D01*
X0206500Y0326300D01*
X0202750Y0330050D02*
X0202750Y0318800D01*
X0196500Y0326300D02*
X0190250Y0320050D01*
X0182750Y0320050D01*
X0187750Y0325050D02*
X0212750Y0350050D01*
X0260250Y0350050D01*
X0271500Y0341300D02*
X0315250Y0341300D01*
X0354000Y0341300D01*
X0355250Y0342550D01*
X0352750Y0332550D02*
X0370250Y0332550D01*
X0376500Y0326300D01*
X0372750Y0320050D02*
X0366500Y0326300D01*
X0372750Y0320050D02*
X0392750Y0320050D01*
X0399000Y0313800D01*
X0406500Y0311300D02*
X0389000Y0311300D01*
X0387750Y0312550D01*
X0361500Y0312550D01*
X0356500Y0306300D02*
X0350250Y0312550D01*
X0262750Y0312550D01*
X0256500Y0306300D01*
X0252750Y0320050D02*
X0320250Y0320050D01*
X0326500Y0326300D01*
X0332750Y0327550D02*
X0327750Y0332550D01*
X0312750Y0332550D01*
X0306500Y0326300D01*
X0314000Y0316300D02*
X0277750Y0316300D01*
X0276500Y0315050D01*
X0274000Y0317550D01*
X0139000Y0317550D01*
X0137750Y0318800D01*
X0132750Y0318800D02*
X0139000Y0325050D01*
X0187750Y0325050D01*
X0186500Y0336300D02*
X0196500Y0336300D01*
X0196500Y0356300D01*
X0196500Y0376300D02*
X0146500Y0326300D01*
X0046500Y0326300D01*
X0051500Y0331300D02*
X0056500Y0336300D01*
X0142750Y0336300D01*
X0202750Y0396300D01*
X0202750Y0412550D01*
X0260250Y0412550D01*
X0266500Y0406300D01*
X0282750Y0406300D01*
X0289000Y0400050D01*
X0370250Y0400050D01*
X0376500Y0406300D01*
X0372750Y0412550D02*
X0366500Y0406300D01*
X0372750Y0412550D02*
X0387750Y0412550D01*
X0421500Y0378800D01*
X0386500Y0406300D02*
X0366500Y0386300D01*
X0300250Y0386300D01*
X0296500Y0382550D01*
X0295250Y0382550D01*
X0294000Y0381300D01*
X0285250Y0381300D01*
X0282750Y0383800D01*
X0224000Y0383800D01*
X0216500Y0376300D01*
X0212750Y0370050D02*
X0320250Y0370050D01*
X0326500Y0376300D01*
X0311500Y0361300D02*
X0310250Y0361300D01*
X0311500Y0361300D02*
X0316500Y0356300D01*
X0306500Y0376300D02*
X0305250Y0376300D01*
X0299000Y0382550D01*
X0296500Y0382550D01*
X0301500Y0383800D02*
X0302750Y0382550D01*
X0370250Y0382550D01*
X0376500Y0376300D01*
X0377750Y0362550D02*
X0372750Y0362550D01*
X0366500Y0356300D01*
X0356500Y0356300D02*
X0349000Y0363800D01*
X0329000Y0333800D02*
X0290250Y0333800D01*
X0279000Y0322550D01*
X0276500Y0322550D01*
X0271500Y0341300D02*
X0256500Y0326300D01*
X0246500Y0326300D02*
X0240250Y0332550D01*
X0205250Y0332550D01*
X0202750Y0330050D01*
X0212750Y0370050D02*
X0206500Y0376300D01*
X0221500Y0391300D02*
X0206500Y0406300D01*
X0221500Y0391300D02*
X0306500Y0391300D01*
X0296500Y0376300D02*
X0287750Y0376300D01*
X0281500Y0382550D01*
X0244000Y0382550D01*
X0242750Y0381300D01*
X0262750Y0413800D02*
X0349000Y0413800D01*
X0356500Y0406300D01*
X0377750Y0362550D02*
X0380250Y0360050D01*
X0391500Y0331300D02*
X0406500Y0331300D01*
X0391500Y0331300D02*
X0386500Y0326300D01*
X0386500Y0306300D02*
X0394000Y0298800D01*
X0401500Y0298800D01*
X0406500Y0301300D02*
X0410250Y0297550D01*
X0414000Y0297550D01*
X0415250Y0296300D01*
X0417750Y0296300D01*
X0421500Y0292550D01*
X0421500Y0276300D01*
X0415250Y0276300D01*
X0411500Y0272550D01*
X0416500Y0271300D02*
X0421500Y0266300D01*
X0421500Y0256300D01*
X0415250Y0256300D01*
X0411500Y0252550D01*
X0411500Y0256300D02*
X0416500Y0261300D01*
X0416500Y0251300D02*
X0425250Y0242550D01*
X0426500Y0242550D01*
X0426500Y0095050D01*
X0360250Y0095050D01*
X0366500Y0101300D01*
X0361500Y0103800D02*
X0357750Y0107550D01*
X0320250Y0107550D01*
X0326500Y0101300D01*
X0320250Y0107550D02*
X0251500Y0107550D01*
X0251500Y0102550D01*
X0256500Y0101300D02*
X0262750Y0095050D01*
X0267750Y0095050D01*
X0269000Y0096300D01*
X0287750Y0096300D01*
X0289000Y0095050D01*
X0350250Y0095050D01*
X0356500Y0101300D01*
X0360250Y0095050D02*
X0345250Y0080050D01*
X0330250Y0080050D01*
X0326500Y0071300D02*
X0320250Y0065050D01*
X0212750Y0065050D01*
X0206500Y0071300D01*
X0199000Y0061300D02*
X0252750Y0061300D01*
X0254000Y0060050D01*
X0334000Y0060050D01*
X0335250Y0061300D01*
X0339000Y0063800D02*
X0346500Y0071300D01*
X0351500Y0065050D02*
X0345250Y0058800D01*
X0264000Y0058800D01*
X0256500Y0051300D01*
X0252750Y0052550D02*
X0252750Y0045050D01*
X0281500Y0045050D01*
X0284000Y0047550D01*
X0292750Y0047550D01*
X0295250Y0045050D01*
X0300250Y0045050D01*
X0306500Y0051300D01*
X0309000Y0043800D02*
X0290250Y0043800D01*
X0287750Y0046300D01*
X0285250Y0046300D01*
X0282750Y0043800D01*
X0235250Y0043800D01*
X0232750Y0046300D01*
X0229000Y0046300D01*
X0227750Y0045050D01*
X0212750Y0045050D01*
X0206500Y0051300D01*
X0196500Y0043800D02*
X0231500Y0043800D01*
X0231500Y0036300D02*
X0291500Y0036300D01*
X0297750Y0030050D01*
X0365250Y0030050D01*
X0386500Y0051300D01*
X0390250Y0047550D02*
X0390250Y0065050D01*
X0362750Y0065050D01*
X0356500Y0071300D01*
X0370250Y0057550D02*
X0376500Y0051300D01*
X0370250Y0057550D02*
X0272750Y0057550D01*
X0266500Y0051300D01*
X0255250Y0062550D02*
X0256500Y0063800D01*
X0339000Y0063800D01*
X0316500Y0051300D02*
X0309000Y0043800D01*
X0297750Y0030050D02*
X0306500Y0021300D01*
X0316500Y0021300D02*
X0322750Y0027550D01*
X0327750Y0027550D01*
X0330250Y0025050D01*
X0330250Y0013800D01*
X0241500Y0013800D01*
X0241500Y0012550D01*
X0241500Y0013800D02*
X0102750Y0013800D01*
X0046500Y0070050D01*
X0046500Y0131300D01*
X0051500Y0131300D01*
X0052750Y0136300D02*
X0045250Y0136300D01*
X0045250Y0068800D01*
X0104000Y0010050D01*
X0336500Y0010050D01*
X0336500Y0021300D01*
X0326500Y0021300D02*
X0320250Y0015050D01*
X0212750Y0015050D01*
X0206500Y0021300D01*
X0216500Y0021300D02*
X0231500Y0036300D01*
X0224000Y0036300D02*
X0156500Y0036300D01*
X0141500Y0051300D01*
X0139000Y0058800D02*
X0239000Y0058800D01*
X0246500Y0051300D01*
X0252750Y0052550D02*
X0245250Y0060050D01*
X0167750Y0060050D01*
X0156500Y0071300D01*
X0160250Y0077550D02*
X0166500Y0071300D01*
X0160250Y0077550D02*
X0101500Y0077550D01*
X0101500Y0086300D01*
X0096500Y0091300D01*
X0104000Y0096300D02*
X0121500Y0078800D01*
X0181500Y0078800D01*
X0199000Y0061300D01*
X0194000Y0046300D02*
X0196500Y0043800D01*
X0194000Y0046300D02*
X0176500Y0046300D01*
X0171500Y0051300D01*
X0161500Y0051300D02*
X0155250Y0057550D01*
X0125250Y0057550D01*
X0131500Y0051300D01*
X0125250Y0057550D02*
X0120250Y0057550D01*
X0106500Y0071300D01*
X0101500Y0071300D02*
X0071500Y0071300D01*
X0066500Y0071300D02*
X0061500Y0071300D01*
X0051500Y0071300D01*
X0046500Y0065050D02*
X0106500Y0005050D01*
X0347750Y0005050D01*
X0362750Y0020050D01*
X0362750Y0028800D01*
X0371500Y0028800D01*
X0390250Y0047550D01*
X0372750Y0027550D02*
X0366500Y0021300D01*
X0372750Y0027550D02*
X0427750Y0027550D01*
X0427750Y0300050D01*
X0416500Y0311300D01*
X0416500Y0301300D02*
X0425250Y0292550D01*
X0416500Y0291300D02*
X0411500Y0296300D01*
X0292750Y0296300D01*
X0287750Y0291300D01*
X0240250Y0291300D01*
X0261500Y0282550D02*
X0195250Y0282550D01*
X0194000Y0281300D01*
X0185250Y0281300D01*
X0180250Y0286300D01*
X0056500Y0286300D01*
X0051500Y0281300D01*
X0056500Y0276300D02*
X0051500Y0271300D01*
X0056500Y0266300D02*
X0127750Y0266300D01*
X0131500Y0262550D01*
X0142750Y0231300D02*
X0081500Y0231300D01*
X0071500Y0241300D01*
X0074000Y0248800D02*
X0071500Y0251300D01*
X0074000Y0248800D02*
X0091500Y0248800D01*
X0081500Y0255050D02*
X0077750Y0255050D01*
X0071500Y0261300D01*
X0074000Y0256300D02*
X0077750Y0252550D01*
X0192750Y0252550D01*
X0195250Y0250050D01*
X0194000Y0248800D02*
X0282750Y0248800D01*
X0272750Y0252550D02*
X0270250Y0252550D01*
X0266500Y0256300D01*
X0249000Y0240050D02*
X0247750Y0241300D01*
X0176500Y0241300D01*
X0171500Y0246300D01*
X0056500Y0246300D01*
X0051500Y0241300D01*
X0051500Y0231300D02*
X0056500Y0226300D01*
X0125250Y0226300D01*
X0137750Y0213800D01*
X0317750Y0213800D01*
X0321500Y0210050D01*
X0359000Y0210050D01*
X0356500Y0201300D02*
X0349000Y0193800D01*
X0290250Y0193800D01*
X0287750Y0196300D01*
X0269000Y0196300D01*
X0267750Y0195050D01*
X0262750Y0195050D01*
X0256500Y0201300D01*
X0252750Y0200050D02*
X0252750Y0207550D01*
X0282750Y0207550D01*
X0295250Y0195050D01*
X0340250Y0195050D01*
X0346500Y0201300D01*
X0356500Y0191300D02*
X0329000Y0191300D01*
X0336500Y0201300D02*
X0329000Y0208800D01*
X0206500Y0208800D01*
X0199000Y0211300D02*
X0182750Y0195050D01*
X0142750Y0195050D01*
X0136500Y0201300D01*
X0132750Y0207550D02*
X0150250Y0207550D01*
X0156500Y0201300D01*
X0137750Y0217550D02*
X0151500Y0231300D01*
X0194000Y0231300D01*
X0195250Y0232550D01*
X0230250Y0232550D01*
X0236500Y0226300D01*
X0249000Y0217550D02*
X0250250Y0218800D01*
X0320250Y0218800D01*
X0321500Y0220050D01*
X0340250Y0220050D01*
X0346500Y0226300D01*
X0350250Y0232550D02*
X0356500Y0226300D01*
X0341500Y0216300D02*
X0401500Y0216300D01*
X0406500Y0221300D01*
X0411500Y0226300D02*
X0396500Y0226300D01*
X0389000Y0218800D01*
X0396500Y0203800D02*
X0404000Y0203800D01*
X0406500Y0201300D01*
X0409000Y0205050D02*
X0407750Y0206300D01*
X0400250Y0206300D01*
X0405250Y0212550D02*
X0322750Y0212550D01*
X0319000Y0220050D02*
X0325250Y0226300D01*
X0326500Y0226300D01*
X0319000Y0220050D02*
X0300250Y0220050D01*
X0284000Y0232550D02*
X0262750Y0232550D01*
X0256500Y0226300D01*
X0252750Y0200050D02*
X0247750Y0195050D01*
X0246500Y0195050D01*
X0246500Y0171300D01*
X0240250Y0157550D02*
X0246500Y0151300D01*
X0240250Y0157550D02*
X0172750Y0157550D01*
X0166500Y0151300D01*
X0169000Y0146300D02*
X0166500Y0143800D01*
X0100250Y0143800D01*
X0087750Y0156300D01*
X0050250Y0156300D01*
X0051500Y0141300D02*
X0056500Y0136300D01*
X0212750Y0136300D01*
X0219000Y0130050D01*
X0281500Y0130050D01*
X0285250Y0126300D01*
X0287750Y0126300D01*
X0294000Y0132550D01*
X0315250Y0132550D01*
X0317750Y0137550D02*
X0374000Y0137550D01*
X0377750Y0142550D02*
X0386500Y0151300D01*
X0391500Y0151300D01*
X0395250Y0155050D01*
X0396500Y0157550D02*
X0361500Y0157550D01*
X0282750Y0157550D01*
X0270250Y0145050D01*
X0189000Y0145050D01*
X0187750Y0146300D01*
X0169000Y0146300D01*
X0186500Y0141300D02*
X0096500Y0141300D01*
X0105250Y0161300D02*
X0212750Y0161300D01*
X0220250Y0161300D02*
X0222750Y0158800D01*
X0306500Y0158800D01*
X0306500Y0160050D01*
X0306500Y0158800D02*
X0394000Y0158800D01*
X0396500Y0161300D01*
X0400250Y0161300D01*
X0405250Y0156300D01*
X0411500Y0156300D01*
X0416500Y0161300D01*
X0421500Y0161300D01*
X0421500Y0192550D01*
X0422750Y0201300D02*
X0422750Y0135050D01*
X0346500Y0135050D01*
X0357750Y0130050D02*
X0329000Y0130050D01*
X0326500Y0131300D02*
X0326500Y0121300D01*
X0320250Y0115050D01*
X0212750Y0115050D01*
X0206500Y0121300D01*
X0202750Y0125050D02*
X0202750Y0113800D01*
X0327750Y0113800D01*
X0329000Y0115050D01*
X0340250Y0115050D01*
X0346500Y0121300D01*
X0344000Y0115050D02*
X0370250Y0115050D01*
X0376500Y0121300D01*
X0366500Y0121300D02*
X0360250Y0127550D01*
X0419000Y0127550D01*
X0421500Y0130050D01*
X0424000Y0132550D02*
X0366500Y0132550D01*
X0327750Y0132550D01*
X0326500Y0131300D01*
X0335250Y0135050D02*
X0289000Y0135050D01*
X0287750Y0136300D01*
X0275250Y0136300D01*
X0244000Y0136300D01*
X0240250Y0127550D02*
X0205250Y0127550D01*
X0202750Y0125050D01*
X0196500Y0121300D02*
X0189000Y0121300D01*
X0180250Y0112550D01*
X0330250Y0112550D01*
X0316500Y0121300D02*
X0310250Y0127550D01*
X0291500Y0127550D01*
X0289000Y0125050D01*
X0282750Y0125050D01*
X0295250Y0110050D02*
X0175250Y0110050D01*
X0166500Y0101300D01*
X0156500Y0101300D02*
X0141500Y0116300D01*
X0146500Y0121300D01*
X0141500Y0116300D02*
X0136500Y0121300D01*
X0136500Y0101300D02*
X0151500Y0086300D01*
X0294000Y0086300D01*
X0296500Y0081300D02*
X0286500Y0081300D01*
X0186500Y0081300D01*
X0126500Y0081300D01*
X0106500Y0101300D01*
X0104000Y0096300D02*
X0056500Y0096300D01*
X0056500Y0110050D01*
X0056500Y0121300D02*
X0051500Y0121300D01*
X0056500Y0121300D02*
X0056500Y0132550D01*
X0052750Y0136300D01*
X0066500Y0166300D02*
X0100250Y0166300D01*
X0105250Y0161300D01*
X0105250Y0163800D02*
X0072750Y0196300D01*
X0056500Y0196300D01*
X0051500Y0201300D01*
X0054000Y0195050D02*
X0056500Y0195050D01*
X0056500Y0176300D01*
X0051500Y0171300D01*
X0061500Y0171300D02*
X0066500Y0166300D01*
X0096500Y0181300D02*
X0106500Y0181300D01*
X0106500Y0201300D01*
X0110250Y0207550D02*
X0116500Y0201300D01*
X0110250Y0207550D02*
X0085250Y0207550D01*
X0071500Y0221300D01*
X0075250Y0227550D02*
X0144000Y0227550D01*
X0132750Y0207550D02*
X0126500Y0201300D01*
X0126500Y0177550D01*
X0112750Y0177550D01*
X0106500Y0171300D01*
X0105250Y0163800D02*
X0230250Y0163800D01*
X0232750Y0161300D01*
X0231500Y0143800D02*
X0282750Y0143800D01*
X0285250Y0146300D01*
X0294000Y0146300D01*
X0297750Y0142550D01*
X0306500Y0142550D01*
X0306500Y0143800D01*
X0306500Y0142550D02*
X0377750Y0142550D01*
X0370250Y0145050D02*
X0376500Y0151300D01*
X0361500Y0147550D02*
X0361500Y0157550D01*
X0356500Y0151300D02*
X0350250Y0145050D01*
X0359000Y0145050D02*
X0361500Y0147550D01*
X0357750Y0130050D02*
X0360250Y0127550D01*
X0336500Y0151300D02*
X0335250Y0151300D01*
X0330250Y0146300D01*
X0316500Y0151300D02*
X0310250Y0145050D01*
X0286500Y0141300D02*
X0406500Y0141300D01*
X0411500Y0126300D02*
X0421500Y0126300D01*
X0425250Y0130050D01*
X0425250Y0241300D01*
X0416500Y0241300D01*
X0411500Y0236300D02*
X0411500Y0226300D01*
X0416500Y0221300D02*
X0411500Y0216300D01*
X0411500Y0206300D01*
X0417750Y0206300D01*
X0422750Y0201300D01*
X0424000Y0203800D02*
X0424000Y0132550D01*
X0411500Y0126300D02*
X0394000Y0108800D01*
X0310250Y0108800D01*
X0309000Y0110050D01*
X0296500Y0081300D02*
X0300250Y0077550D01*
X0415250Y0077550D01*
X0416500Y0076300D01*
X0386500Y0101300D02*
X0394000Y0108800D01*
X0396500Y0157550D02*
X0397750Y0158800D01*
X0411500Y0176300D02*
X0416500Y0181300D01*
X0406500Y0181300D02*
X0405250Y0182550D01*
X0349000Y0182550D01*
X0356500Y0191300D02*
X0366500Y0201300D01*
X0370250Y0195050D02*
X0402750Y0195050D01*
X0406500Y0191300D01*
X0416500Y0201300D02*
X0412750Y0205050D01*
X0409000Y0205050D01*
X0406500Y0211300D02*
X0405250Y0212550D01*
X0416500Y0211300D02*
X0424000Y0203800D01*
X0375250Y0188800D02*
X0309000Y0188800D01*
X0329000Y0215050D02*
X0332750Y0215050D01*
X0335250Y0217550D01*
X0305250Y0265050D02*
X0226500Y0265050D01*
X0224000Y0267550D01*
X0212750Y0270050D02*
X0320250Y0270050D01*
X0309000Y0285050D02*
X0401500Y0285050D01*
X0402750Y0287550D02*
X0406500Y0291300D01*
X0366500Y0306300D02*
X0359000Y0298800D01*
X0346500Y0318800D02*
X0352750Y0325050D01*
X0352750Y0332550D01*
X0342750Y0325050D02*
X0337750Y0320050D01*
X0332750Y0320050D01*
X0332750Y0327550D01*
X0336500Y0326300D02*
X0329000Y0333800D01*
X0212750Y0270050D02*
X0206500Y0276300D01*
X0180250Y0276300D02*
X0056500Y0276300D01*
X0056500Y0266300D02*
X0051500Y0261300D01*
X0056500Y0256300D02*
X0051500Y0251300D01*
X0056500Y0256300D02*
X0074000Y0256300D01*
X0071500Y0231300D02*
X0075250Y0227550D01*
X0071500Y0211300D02*
X0085250Y0197550D01*
X0096500Y0197550D01*
X0126500Y0177550D02*
X0130250Y0177550D01*
X0136500Y0171300D01*
X0146500Y0151300D02*
X0140250Y0145050D01*
X0122750Y0145050D01*
X0116500Y0151300D01*
X0166500Y0171300D02*
X0186500Y0191300D01*
X0186500Y0181300D02*
X0196500Y0181300D01*
X0196500Y0201300D01*
X0177750Y0243800D02*
X0185250Y0251300D01*
X0191500Y0251300D01*
X0194000Y0248800D01*
X0266500Y0151300D02*
X0272750Y0151300D01*
X0262750Y0127550D02*
X0256500Y0121300D01*
X0246500Y0121300D02*
X0240250Y0127550D01*
X0231500Y0143800D02*
X0220250Y0132550D01*
X0222750Y0077550D02*
X0284000Y0077550D01*
X0285250Y0076300D01*
X0294000Y0076300D01*
X0295250Y0077550D01*
X0297750Y0077550D01*
X0304000Y0071300D01*
X0306500Y0071300D01*
X0286500Y0041300D02*
X0186500Y0041300D01*
X0216500Y0071300D02*
X0222750Y0077550D01*
X0151500Y0021300D02*
X0121500Y0051300D01*
X0111500Y0051300D02*
X0111500Y0031300D01*
X0096500Y0031300D01*
X0096500Y0041300D02*
X0066500Y0071300D01*
X0061500Y0081300D02*
X0051500Y0081300D01*
X0071500Y0081300D02*
X0096500Y0081300D01*
X0101500Y0077550D02*
X0101500Y0071300D01*
X0126500Y0071300D02*
X0139000Y0058800D01*
X0135250Y0027550D02*
X0117750Y0027550D01*
X0111500Y0021300D01*
X0109000Y0007550D02*
X0342750Y0007550D01*
X0355250Y0020050D01*
X0356500Y0021300D01*
X0355250Y0020050D02*
X0346500Y0028800D01*
X0320250Y0028800D01*
X0319000Y0027550D01*
X0334000Y0032550D02*
X0347750Y0032550D01*
X0366500Y0051300D01*
X0376500Y0021300D02*
X0360250Y0005050D01*
X0386500Y0021300D02*
X0391500Y0016300D01*
X0411500Y0016300D01*
X0141500Y0021300D02*
X0135250Y0027550D01*
X0051500Y0301300D02*
X0056500Y0306300D01*
X0071500Y0371300D02*
X0086500Y0386300D01*
X0186500Y0386300D01*
X0186500Y0396300D02*
X0086500Y0396300D01*
X0071500Y0381300D01*
D15*
X0132750Y0318800D03*
X0137750Y0318800D03*
X0180250Y0276300D03*
X0177750Y0243800D03*
X0186500Y0216300D03*
X0220250Y0217550D03*
X0249000Y0217550D03*
X0250250Y0242550D03*
X0272750Y0252550D03*
X0281500Y0251300D03*
X0282750Y0240050D03*
X0304000Y0232550D03*
X0315250Y0247550D03*
X0310250Y0250050D03*
X0305250Y0265050D03*
X0309000Y0285050D03*
X0325250Y0298800D03*
X0330250Y0282550D03*
X0329000Y0262550D03*
X0330250Y0250050D03*
X0350250Y0246300D03*
X0361500Y0240050D03*
X0364000Y0232550D03*
X0367750Y0218800D03*
X0369000Y0210050D03*
X0359000Y0210050D03*
X0370250Y0195050D03*
X0375250Y0188800D03*
X0366500Y0185050D03*
X0349000Y0182550D03*
X0329000Y0191300D03*
X0326500Y0186300D03*
X0309000Y0188800D03*
X0295250Y0211300D03*
X0304000Y0216300D03*
X0322750Y0212550D03*
X0329000Y0215050D03*
X0335250Y0217550D03*
X0341500Y0216300D03*
X0382750Y0238800D03*
X0394000Y0256300D03*
X0391500Y0272550D03*
X0401500Y0285050D03*
X0401500Y0298800D03*
X0399000Y0313800D03*
X0425250Y0292550D03*
X0411500Y0236300D03*
X0389000Y0218800D03*
X0391500Y0208800D03*
X0400250Y0206300D03*
X0397750Y0198800D03*
X0397750Y0158800D03*
X0395250Y0155050D03*
X0374000Y0137550D03*
X0370250Y0145050D03*
X0359000Y0145050D03*
X0350250Y0145050D03*
X0346500Y0135050D03*
X0335250Y0135050D03*
X0329000Y0130050D03*
X0317750Y0137550D03*
X0315250Y0132550D03*
X0306500Y0143800D03*
X0310250Y0145050D03*
X0306500Y0160050D03*
X0324000Y0162550D03*
X0330250Y0146300D03*
X0344000Y0115050D03*
X0330250Y0112550D03*
X0309000Y0110050D03*
X0295250Y0110050D03*
X0282750Y0125050D03*
X0275250Y0136300D03*
X0272750Y0151300D03*
X0261500Y0161300D03*
X0279000Y0172550D03*
X0282750Y0172550D03*
X0244000Y0136300D03*
X0262750Y0127550D03*
X0251500Y0102550D03*
X0220250Y0132550D03*
X0220250Y0161300D03*
X0212750Y0161300D03*
X0232750Y0161300D03*
X0180250Y0112550D03*
X0231500Y0043800D03*
X0224000Y0036300D03*
X0241500Y0012550D03*
X0255250Y0062550D03*
X0294000Y0086300D03*
X0330250Y0080050D03*
X0335250Y0061300D03*
X0351500Y0065050D03*
X0334000Y0032550D03*
X0319000Y0027550D03*
X0360250Y0005050D03*
X0361500Y0103800D03*
X0366500Y0132550D03*
X0421500Y0130050D03*
X0349000Y0266300D03*
X0370250Y0287550D03*
X0361500Y0312550D03*
X0346500Y0318800D03*
X0355250Y0342550D03*
X0315250Y0341300D03*
X0310250Y0361300D03*
X0301500Y0383800D03*
X0306500Y0391300D03*
X0272750Y0352550D03*
X0249000Y0367550D03*
X0241500Y0358800D03*
X0242750Y0381300D03*
X0262750Y0413800D03*
X0276500Y0322550D03*
X0276500Y0315050D03*
X0259000Y0293800D03*
X0261500Y0282550D03*
X0250250Y0267550D03*
X0240250Y0291300D03*
X0224000Y0267550D03*
X0182750Y0320050D03*
X0131500Y0266300D03*
X0142750Y0231300D03*
X0144000Y0227550D03*
X0137750Y0217550D03*
X0096500Y0197550D03*
X0091500Y0248800D03*
X0081500Y0255050D03*
X0056500Y0110050D03*
X0109000Y0007550D03*
X0314000Y0316300D03*
X0421500Y0378800D03*
M02*
