G75*
%MOIN*%
%OFA0B0*%
%FSLAX25Y25*%
%IPPOS*%
%LPD*%
%AMOC8*
5,1,8,0,0,1.08239X$1,22.5*
%
%ADD10C,0.05400*%
%ADD11OC8,0.06900*%
%ADD12OC8,0.06600*%
%ADD13C,0.11600*%
%ADD14OC8,0.05400*%
%ADD15C,0.03300*%
D10*
X0106500Y0068900D02*
X0106500Y0073700D01*
X0116500Y0073700D02*
X0116500Y0068900D01*
X0126500Y0068900D02*
X0126500Y0073700D01*
X0136500Y0073700D02*
X0136500Y0068900D01*
X0146500Y0068900D02*
X0146500Y0073700D01*
X0156500Y0073700D02*
X0156500Y0068900D01*
X0166500Y0068900D02*
X0166500Y0073700D01*
X0161500Y0053700D02*
X0161500Y0048900D01*
X0151500Y0048900D02*
X0151500Y0053700D01*
X0141500Y0053700D02*
X0141500Y0048900D01*
X0131500Y0048900D02*
X0131500Y0053700D01*
X0121500Y0053700D02*
X0121500Y0048900D01*
X0111500Y0048900D02*
X0111500Y0053700D01*
X0111500Y0023700D02*
X0111500Y0018900D01*
X0121500Y0018900D02*
X0121500Y0023700D01*
X0131500Y0023700D02*
X0131500Y0018900D01*
X0141500Y0018900D02*
X0141500Y0023700D01*
X0151500Y0023700D02*
X0151500Y0018900D01*
X0161500Y0018900D02*
X0161500Y0023700D01*
X0171500Y0023700D02*
X0171500Y0018900D01*
X0196500Y0018900D02*
X0196500Y0023700D01*
X0206500Y0023700D02*
X0206500Y0018900D01*
X0216500Y0018900D02*
X0216500Y0023700D01*
X0226500Y0023700D02*
X0226500Y0018900D01*
X0236500Y0018900D02*
X0236500Y0023700D01*
X0246500Y0023700D02*
X0246500Y0018900D01*
X0256500Y0018900D02*
X0256500Y0023700D01*
X0266500Y0023700D02*
X0266500Y0018900D01*
X0266500Y0048900D02*
X0266500Y0053700D01*
X0256500Y0053700D02*
X0256500Y0048900D01*
X0246500Y0048900D02*
X0246500Y0053700D01*
X0236500Y0053700D02*
X0236500Y0048900D01*
X0226500Y0048900D02*
X0226500Y0053700D01*
X0216500Y0053700D02*
X0216500Y0048900D01*
X0206500Y0048900D02*
X0206500Y0053700D01*
X0196500Y0053700D02*
X0196500Y0048900D01*
X0196500Y0068900D02*
X0196500Y0073700D01*
X0206500Y0073700D02*
X0206500Y0068900D01*
X0216500Y0068900D02*
X0216500Y0073700D01*
X0226500Y0073700D02*
X0226500Y0068900D01*
X0236500Y0068900D02*
X0236500Y0073700D01*
X0246500Y0073700D02*
X0246500Y0068900D01*
X0256500Y0068900D02*
X0256500Y0073700D01*
X0266500Y0073700D02*
X0266500Y0068900D01*
X0266500Y0098900D02*
X0266500Y0103700D01*
X0256500Y0103700D02*
X0256500Y0098900D01*
X0246500Y0098900D02*
X0246500Y0103700D01*
X0236500Y0103700D02*
X0236500Y0098900D01*
X0226500Y0098900D02*
X0226500Y0103700D01*
X0216500Y0103700D02*
X0216500Y0098900D01*
X0206500Y0098900D02*
X0206500Y0103700D01*
X0196500Y0103700D02*
X0196500Y0098900D01*
X0196500Y0118900D02*
X0196500Y0123700D01*
X0206500Y0123700D02*
X0206500Y0118900D01*
X0216500Y0118900D02*
X0216500Y0123700D01*
X0226500Y0123700D02*
X0226500Y0118900D01*
X0236500Y0118900D02*
X0236500Y0123700D01*
X0246500Y0123700D02*
X0246500Y0118900D01*
X0256500Y0118900D02*
X0256500Y0123700D01*
X0266500Y0123700D02*
X0266500Y0118900D01*
X0266500Y0148900D02*
X0266500Y0153700D01*
X0256500Y0153700D02*
X0256500Y0148900D01*
X0246500Y0148900D02*
X0246500Y0153700D01*
X0236500Y0153700D02*
X0236500Y0148900D01*
X0226500Y0148900D02*
X0226500Y0153700D01*
X0216500Y0153700D02*
X0216500Y0148900D01*
X0206500Y0148900D02*
X0206500Y0153700D01*
X0196500Y0153700D02*
X0196500Y0148900D01*
X0196500Y0168900D02*
X0196500Y0173700D01*
X0206500Y0173700D02*
X0206500Y0168900D01*
X0216500Y0168900D02*
X0216500Y0173700D01*
X0226500Y0173700D02*
X0226500Y0168900D01*
X0236500Y0168900D02*
X0236500Y0173700D01*
X0246500Y0173700D02*
X0246500Y0168900D01*
X0256500Y0168900D02*
X0256500Y0173700D01*
X0266500Y0173700D02*
X0266500Y0168900D01*
X0266500Y0198900D02*
X0266500Y0203700D01*
X0256500Y0203700D02*
X0256500Y0198900D01*
X0246500Y0198900D02*
X0246500Y0203700D01*
X0236500Y0203700D02*
X0236500Y0198900D01*
X0226500Y0198900D02*
X0226500Y0203700D01*
X0216500Y0203700D02*
X0216500Y0198900D01*
X0206500Y0198900D02*
X0206500Y0203700D01*
X0196500Y0203700D02*
X0196500Y0198900D01*
X0196500Y0223900D02*
X0196500Y0228700D01*
X0206500Y0228700D02*
X0206500Y0223900D01*
X0216500Y0223900D02*
X0216500Y0228700D01*
X0226500Y0228700D02*
X0226500Y0223900D01*
X0236500Y0223900D02*
X0236500Y0228700D01*
X0246500Y0228700D02*
X0246500Y0223900D01*
X0256500Y0223900D02*
X0256500Y0228700D01*
X0266500Y0228700D02*
X0266500Y0223900D01*
X0266500Y0253900D02*
X0266500Y0258700D01*
X0256500Y0258700D02*
X0256500Y0253900D01*
X0246500Y0253900D02*
X0246500Y0258700D01*
X0236500Y0258700D02*
X0236500Y0253900D01*
X0226500Y0253900D02*
X0226500Y0258700D01*
X0216500Y0258700D02*
X0216500Y0253900D01*
X0206500Y0253900D02*
X0206500Y0258700D01*
X0196500Y0258700D02*
X0196500Y0253900D01*
X0196500Y0273900D02*
X0196500Y0278700D01*
X0206500Y0278700D02*
X0206500Y0273900D01*
X0216500Y0273900D02*
X0216500Y0278700D01*
X0226500Y0278700D02*
X0226500Y0273900D01*
X0236500Y0273900D02*
X0236500Y0278700D01*
X0246500Y0278700D02*
X0246500Y0273900D01*
X0256500Y0273900D02*
X0256500Y0278700D01*
X0266500Y0278700D02*
X0266500Y0273900D01*
X0266500Y0303900D02*
X0266500Y0308700D01*
X0256500Y0308700D02*
X0256500Y0303900D01*
X0246500Y0303900D02*
X0246500Y0308700D01*
X0236500Y0308700D02*
X0236500Y0303900D01*
X0226500Y0303900D02*
X0226500Y0308700D01*
X0216500Y0308700D02*
X0216500Y0303900D01*
X0206500Y0303900D02*
X0206500Y0308700D01*
X0196500Y0308700D02*
X0196500Y0303900D01*
X0196500Y0323900D02*
X0196500Y0328700D01*
X0206500Y0328700D02*
X0206500Y0323900D01*
X0216500Y0323900D02*
X0216500Y0328700D01*
X0226500Y0328700D02*
X0226500Y0323900D01*
X0236500Y0323900D02*
X0236500Y0328700D01*
X0246500Y0328700D02*
X0246500Y0323900D01*
X0256500Y0323900D02*
X0256500Y0328700D01*
X0266500Y0328700D02*
X0266500Y0323900D01*
X0266500Y0353900D02*
X0266500Y0358700D01*
X0256500Y0358700D02*
X0256500Y0353900D01*
X0246500Y0353900D02*
X0246500Y0358700D01*
X0236500Y0358700D02*
X0236500Y0353900D01*
X0226500Y0353900D02*
X0226500Y0358700D01*
X0216500Y0358700D02*
X0216500Y0353900D01*
X0206500Y0353900D02*
X0206500Y0358700D01*
X0196500Y0358700D02*
X0196500Y0353900D01*
X0196500Y0373900D02*
X0196500Y0378700D01*
X0206500Y0378700D02*
X0206500Y0373900D01*
X0216500Y0373900D02*
X0216500Y0378700D01*
X0226500Y0378700D02*
X0226500Y0373900D01*
X0236500Y0373900D02*
X0236500Y0378700D01*
X0246500Y0378700D02*
X0246500Y0373900D01*
X0256500Y0373900D02*
X0256500Y0378700D01*
X0266500Y0378700D02*
X0266500Y0373900D01*
X0266500Y0403900D02*
X0266500Y0408700D01*
X0256500Y0408700D02*
X0256500Y0403900D01*
X0246500Y0403900D02*
X0246500Y0408700D01*
X0236500Y0408700D02*
X0236500Y0403900D01*
X0226500Y0403900D02*
X0226500Y0408700D01*
X0216500Y0408700D02*
X0216500Y0403900D01*
X0206500Y0403900D02*
X0206500Y0408700D01*
X0196500Y0408700D02*
X0196500Y0403900D01*
X0296500Y0403900D02*
X0296500Y0408700D01*
X0306500Y0408700D02*
X0306500Y0403900D01*
X0316500Y0403900D02*
X0316500Y0408700D01*
X0326500Y0408700D02*
X0326500Y0403900D01*
X0336500Y0403900D02*
X0336500Y0408700D01*
X0346500Y0408700D02*
X0346500Y0403900D01*
X0356500Y0403900D02*
X0356500Y0408700D01*
X0366500Y0408700D02*
X0366500Y0403900D01*
X0376500Y0403900D02*
X0376500Y0408700D01*
X0386500Y0408700D02*
X0386500Y0403900D01*
X0386500Y0378700D02*
X0386500Y0373900D01*
X0376500Y0373900D02*
X0376500Y0378700D01*
X0366500Y0378700D02*
X0366500Y0373900D01*
X0356500Y0373900D02*
X0356500Y0378700D01*
X0346500Y0378700D02*
X0346500Y0373900D01*
X0336500Y0373900D02*
X0336500Y0378700D01*
X0326500Y0378700D02*
X0326500Y0373900D01*
X0316500Y0373900D02*
X0316500Y0378700D01*
X0306500Y0378700D02*
X0306500Y0373900D01*
X0296500Y0373900D02*
X0296500Y0378700D01*
X0296500Y0358700D02*
X0296500Y0353900D01*
X0306500Y0353900D02*
X0306500Y0358700D01*
X0316500Y0358700D02*
X0316500Y0353900D01*
X0326500Y0353900D02*
X0326500Y0358700D01*
X0336500Y0358700D02*
X0336500Y0353900D01*
X0346500Y0353900D02*
X0346500Y0358700D01*
X0356500Y0358700D02*
X0356500Y0353900D01*
X0366500Y0353900D02*
X0366500Y0358700D01*
X0376500Y0358700D02*
X0376500Y0353900D01*
X0386500Y0353900D02*
X0386500Y0358700D01*
X0386500Y0328700D02*
X0386500Y0323900D01*
X0376500Y0323900D02*
X0376500Y0328700D01*
X0366500Y0328700D02*
X0366500Y0323900D01*
X0356500Y0323900D02*
X0356500Y0328700D01*
X0346500Y0328700D02*
X0346500Y0323900D01*
X0336500Y0323900D02*
X0336500Y0328700D01*
X0326500Y0328700D02*
X0326500Y0323900D01*
X0316500Y0323900D02*
X0316500Y0328700D01*
X0306500Y0328700D02*
X0306500Y0323900D01*
X0296500Y0323900D02*
X0296500Y0328700D01*
X0296500Y0308700D02*
X0296500Y0303900D01*
X0306500Y0303900D02*
X0306500Y0308700D01*
X0316500Y0308700D02*
X0316500Y0303900D01*
X0326500Y0303900D02*
X0326500Y0308700D01*
X0336500Y0308700D02*
X0336500Y0303900D01*
X0346500Y0303900D02*
X0346500Y0308700D01*
X0356500Y0308700D02*
X0356500Y0303900D01*
X0366500Y0303900D02*
X0366500Y0308700D01*
X0376500Y0308700D02*
X0376500Y0303900D01*
X0386500Y0303900D02*
X0386500Y0308700D01*
X0386500Y0278700D02*
X0386500Y0273900D01*
X0376500Y0273900D02*
X0376500Y0278700D01*
X0366500Y0278700D02*
X0366500Y0273900D01*
X0356500Y0273900D02*
X0356500Y0278700D01*
X0346500Y0278700D02*
X0346500Y0273900D01*
X0336500Y0273900D02*
X0336500Y0278700D01*
X0326500Y0278700D02*
X0326500Y0273900D01*
X0316500Y0273900D02*
X0316500Y0278700D01*
X0306500Y0278700D02*
X0306500Y0273900D01*
X0296500Y0273900D02*
X0296500Y0278700D01*
X0296500Y0258700D02*
X0296500Y0253900D01*
X0306500Y0253900D02*
X0306500Y0258700D01*
X0316500Y0258700D02*
X0316500Y0253900D01*
X0326500Y0253900D02*
X0326500Y0258700D01*
X0336500Y0258700D02*
X0336500Y0253900D01*
X0346500Y0253900D02*
X0346500Y0258700D01*
X0356500Y0258700D02*
X0356500Y0253900D01*
X0366500Y0253900D02*
X0366500Y0258700D01*
X0376500Y0258700D02*
X0376500Y0253900D01*
X0386500Y0253900D02*
X0386500Y0258700D01*
X0386500Y0228700D02*
X0386500Y0223900D01*
X0376500Y0223900D02*
X0376500Y0228700D01*
X0366500Y0228700D02*
X0366500Y0223900D01*
X0356500Y0223900D02*
X0356500Y0228700D01*
X0346500Y0228700D02*
X0346500Y0223900D01*
X0336500Y0223900D02*
X0336500Y0228700D01*
X0326500Y0228700D02*
X0326500Y0223900D01*
X0316500Y0223900D02*
X0316500Y0228700D01*
X0306500Y0228700D02*
X0306500Y0223900D01*
X0296500Y0223900D02*
X0296500Y0228700D01*
X0296500Y0203700D02*
X0296500Y0198900D01*
X0306500Y0198900D02*
X0306500Y0203700D01*
X0316500Y0203700D02*
X0316500Y0198900D01*
X0326500Y0198900D02*
X0326500Y0203700D01*
X0336500Y0203700D02*
X0336500Y0198900D01*
X0346500Y0198900D02*
X0346500Y0203700D01*
X0356500Y0203700D02*
X0356500Y0198900D01*
X0366500Y0198900D02*
X0366500Y0203700D01*
X0376500Y0203700D02*
X0376500Y0198900D01*
X0386500Y0198900D02*
X0386500Y0203700D01*
X0386500Y0173700D02*
X0386500Y0168900D01*
X0376500Y0168900D02*
X0376500Y0173700D01*
X0366500Y0173700D02*
X0366500Y0168900D01*
X0356500Y0168900D02*
X0356500Y0173700D01*
X0346500Y0173700D02*
X0346500Y0168900D01*
X0336500Y0168900D02*
X0336500Y0173700D01*
X0326500Y0173700D02*
X0326500Y0168900D01*
X0316500Y0168900D02*
X0316500Y0173700D01*
X0306500Y0173700D02*
X0306500Y0168900D01*
X0296500Y0168900D02*
X0296500Y0173700D01*
X0296500Y0153700D02*
X0296500Y0148900D01*
X0306500Y0148900D02*
X0306500Y0153700D01*
X0316500Y0153700D02*
X0316500Y0148900D01*
X0326500Y0148900D02*
X0326500Y0153700D01*
X0336500Y0153700D02*
X0336500Y0148900D01*
X0346500Y0148900D02*
X0346500Y0153700D01*
X0356500Y0153700D02*
X0356500Y0148900D01*
X0366500Y0148900D02*
X0366500Y0153700D01*
X0376500Y0153700D02*
X0376500Y0148900D01*
X0386500Y0148900D02*
X0386500Y0153700D01*
X0386500Y0123700D02*
X0386500Y0118900D01*
X0376500Y0118900D02*
X0376500Y0123700D01*
X0366500Y0123700D02*
X0366500Y0118900D01*
X0356500Y0118900D02*
X0356500Y0123700D01*
X0346500Y0123700D02*
X0346500Y0118900D01*
X0336500Y0118900D02*
X0336500Y0123700D01*
X0326500Y0123700D02*
X0326500Y0118900D01*
X0316500Y0118900D02*
X0316500Y0123700D01*
X0306500Y0123700D02*
X0306500Y0118900D01*
X0296500Y0118900D02*
X0296500Y0123700D01*
X0296500Y0103700D02*
X0296500Y0098900D01*
X0306500Y0098900D02*
X0306500Y0103700D01*
X0316500Y0103700D02*
X0316500Y0098900D01*
X0326500Y0098900D02*
X0326500Y0103700D01*
X0336500Y0103700D02*
X0336500Y0098900D01*
X0346500Y0098900D02*
X0346500Y0103700D01*
X0356500Y0103700D02*
X0356500Y0098900D01*
X0366500Y0098900D02*
X0366500Y0103700D01*
X0376500Y0103700D02*
X0376500Y0098900D01*
X0386500Y0098900D02*
X0386500Y0103700D01*
X0386500Y0073700D02*
X0386500Y0068900D01*
X0376500Y0068900D02*
X0376500Y0073700D01*
X0366500Y0073700D02*
X0366500Y0068900D01*
X0356500Y0068900D02*
X0356500Y0073700D01*
X0346500Y0073700D02*
X0346500Y0068900D01*
X0336500Y0068900D02*
X0336500Y0073700D01*
X0326500Y0073700D02*
X0326500Y0068900D01*
X0316500Y0068900D02*
X0316500Y0073700D01*
X0306500Y0073700D02*
X0306500Y0068900D01*
X0296500Y0068900D02*
X0296500Y0073700D01*
X0296500Y0053700D02*
X0296500Y0048900D01*
X0306500Y0048900D02*
X0306500Y0053700D01*
X0316500Y0053700D02*
X0316500Y0048900D01*
X0326500Y0048900D02*
X0326500Y0053700D01*
X0336500Y0053700D02*
X0336500Y0048900D01*
X0346500Y0048900D02*
X0346500Y0053700D01*
X0356500Y0053700D02*
X0356500Y0048900D01*
X0366500Y0048900D02*
X0366500Y0053700D01*
X0376500Y0053700D02*
X0376500Y0048900D01*
X0386500Y0048900D02*
X0386500Y0053700D01*
X0386500Y0023700D02*
X0386500Y0018900D01*
X0376500Y0018900D02*
X0376500Y0023700D01*
X0366500Y0023700D02*
X0366500Y0018900D01*
X0356500Y0018900D02*
X0356500Y0023700D01*
X0346500Y0023700D02*
X0346500Y0018900D01*
X0336500Y0018900D02*
X0336500Y0023700D01*
X0326500Y0023700D02*
X0326500Y0018900D01*
X0316500Y0018900D02*
X0316500Y0023700D01*
X0306500Y0023700D02*
X0306500Y0018900D01*
X0296500Y0018900D02*
X0296500Y0023700D01*
X0171500Y0048900D02*
X0171500Y0053700D01*
X0166500Y0098900D02*
X0166500Y0103700D01*
X0156500Y0103700D02*
X0156500Y0098900D01*
X0146500Y0098900D02*
X0146500Y0103700D01*
X0136500Y0103700D02*
X0136500Y0098900D01*
X0126500Y0098900D02*
X0126500Y0103700D01*
X0116500Y0103700D02*
X0116500Y0098900D01*
X0106500Y0098900D02*
X0106500Y0103700D01*
X0106500Y0118900D02*
X0106500Y0123700D01*
X0116500Y0123700D02*
X0116500Y0118900D01*
X0126500Y0118900D02*
X0126500Y0123700D01*
X0136500Y0123700D02*
X0136500Y0118900D01*
X0146500Y0118900D02*
X0146500Y0123700D01*
X0156500Y0123700D02*
X0156500Y0118900D01*
X0166500Y0118900D02*
X0166500Y0123700D01*
X0166500Y0148900D02*
X0166500Y0153700D01*
X0156500Y0153700D02*
X0156500Y0148900D01*
X0146500Y0148900D02*
X0146500Y0153700D01*
X0136500Y0153700D02*
X0136500Y0148900D01*
X0126500Y0148900D02*
X0126500Y0153700D01*
X0116500Y0153700D02*
X0116500Y0148900D01*
X0106500Y0148900D02*
X0106500Y0153700D01*
X0106500Y0168900D02*
X0106500Y0173700D01*
X0116500Y0173700D02*
X0116500Y0168900D01*
X0126500Y0168900D02*
X0126500Y0173700D01*
X0136500Y0173700D02*
X0136500Y0168900D01*
X0146500Y0168900D02*
X0146500Y0173700D01*
X0156500Y0173700D02*
X0156500Y0168900D01*
X0166500Y0168900D02*
X0166500Y0173700D01*
X0166500Y0198900D02*
X0166500Y0203700D01*
X0156500Y0203700D02*
X0156500Y0198900D01*
X0146500Y0198900D02*
X0146500Y0203700D01*
X0136500Y0203700D02*
X0136500Y0198900D01*
X0126500Y0198900D02*
X0126500Y0203700D01*
X0116500Y0203700D02*
X0116500Y0198900D01*
X0106500Y0198900D02*
X0106500Y0203700D01*
D11*
X0096500Y0191300D03*
X0096500Y0181300D03*
X0096500Y0141300D03*
X0096500Y0131300D03*
X0096500Y0091300D03*
X0096500Y0081300D03*
X0096500Y0041300D03*
X0096500Y0031300D03*
X0186500Y0031300D03*
X0186500Y0041300D03*
X0186500Y0081300D03*
X0186500Y0091300D03*
X0186500Y0131300D03*
X0186500Y0141300D03*
X0186500Y0181300D03*
X0186500Y0191300D03*
X0186500Y0236300D03*
X0186500Y0246300D03*
X0186500Y0286300D03*
X0186500Y0296300D03*
X0186500Y0336300D03*
X0186500Y0346300D03*
X0186500Y0386300D03*
X0186500Y0396300D03*
X0286500Y0396300D03*
X0286500Y0386300D03*
X0286500Y0346300D03*
X0286500Y0336300D03*
X0286500Y0296300D03*
X0286500Y0286300D03*
X0286500Y0246300D03*
X0286500Y0236300D03*
X0286500Y0191300D03*
X0286500Y0181300D03*
X0286500Y0141300D03*
X0286500Y0131300D03*
X0286500Y0091300D03*
X0286500Y0081300D03*
X0286500Y0041300D03*
X0286500Y0031300D03*
D12*
X0406500Y0141300D03*
X0406500Y0151300D03*
X0406500Y0161300D03*
X0406500Y0171300D03*
X0416500Y0171300D03*
X0416500Y0161300D03*
X0416500Y0151300D03*
X0416500Y0141300D03*
X0416500Y0181300D03*
X0416500Y0191300D03*
X0416500Y0201300D03*
X0416500Y0211300D03*
X0406500Y0211300D03*
X0406500Y0201300D03*
X0406500Y0191300D03*
X0406500Y0181300D03*
X0406500Y0221300D03*
X0406500Y0231300D03*
X0406500Y0241300D03*
X0406500Y0251300D03*
X0406500Y0261300D03*
X0416500Y0261300D03*
X0416500Y0251300D03*
X0416500Y0241300D03*
X0416500Y0231300D03*
X0416500Y0221300D03*
X0416500Y0271300D03*
X0416500Y0281300D03*
X0416500Y0291300D03*
X0416500Y0301300D03*
X0406500Y0301300D03*
X0406500Y0291300D03*
X0406500Y0281300D03*
X0406500Y0271300D03*
X0406500Y0311300D03*
X0406500Y0321300D03*
X0406500Y0331300D03*
X0416500Y0331300D03*
X0416500Y0321300D03*
X0416500Y0311300D03*
X0071500Y0311300D03*
X0071500Y0321300D03*
X0071500Y0331300D03*
X0071500Y0341300D03*
X0071500Y0351300D03*
X0061500Y0351300D03*
X0061500Y0341300D03*
X0061500Y0331300D03*
X0061500Y0321300D03*
X0061500Y0311300D03*
X0061500Y0301300D03*
X0061500Y0291300D03*
X0061500Y0281300D03*
X0061500Y0271300D03*
X0071500Y0271300D03*
X0071500Y0281300D03*
X0071500Y0291300D03*
X0071500Y0301300D03*
X0051500Y0301300D03*
X0051500Y0291300D03*
X0051500Y0281300D03*
X0051500Y0271300D03*
X0051500Y0261300D03*
X0051500Y0251300D03*
X0051500Y0241300D03*
X0051500Y0231300D03*
X0051500Y0221300D03*
X0051500Y0211300D03*
X0051500Y0201300D03*
X0051500Y0191300D03*
X0051500Y0181300D03*
X0051500Y0171300D03*
X0051500Y0161300D03*
X0051500Y0151300D03*
X0051500Y0141300D03*
X0051500Y0131300D03*
X0051500Y0121300D03*
X0051500Y0111300D03*
X0051500Y0101300D03*
X0051500Y0091300D03*
X0051500Y0081300D03*
X0051500Y0071300D03*
X0061500Y0071300D03*
X0071500Y0071300D03*
X0071500Y0081300D03*
X0071500Y0091300D03*
X0071500Y0101300D03*
X0071500Y0111300D03*
X0071500Y0121300D03*
X0061500Y0121300D03*
X0061500Y0111300D03*
X0061500Y0101300D03*
X0061500Y0091300D03*
X0061500Y0081300D03*
X0061500Y0131300D03*
X0061500Y0141300D03*
X0061500Y0151300D03*
X0061500Y0161300D03*
X0061500Y0171300D03*
X0071500Y0171300D03*
X0071500Y0161300D03*
X0071500Y0151300D03*
X0071500Y0141300D03*
X0071500Y0131300D03*
X0071500Y0181300D03*
X0071500Y0191300D03*
X0071500Y0201300D03*
X0071500Y0211300D03*
X0061500Y0211300D03*
X0061500Y0201300D03*
X0061500Y0191300D03*
X0061500Y0181300D03*
X0061500Y0221300D03*
X0061500Y0231300D03*
X0061500Y0241300D03*
X0061500Y0251300D03*
X0061500Y0261300D03*
X0071500Y0261300D03*
X0071500Y0251300D03*
X0071500Y0241300D03*
X0071500Y0231300D03*
X0071500Y0221300D03*
X0051500Y0311300D03*
X0051500Y0321300D03*
X0051500Y0331300D03*
X0051500Y0341300D03*
X0051500Y0351300D03*
X0051500Y0361300D03*
X0051500Y0371300D03*
X0051500Y0381300D03*
X0061500Y0381300D03*
X0061500Y0371300D03*
X0061500Y0361300D03*
X0071500Y0361300D03*
X0071500Y0371300D03*
X0071500Y0381300D03*
D13*
X0041500Y0051275D03*
X0041500Y0401325D03*
D14*
X0411500Y0016300D03*
X0421500Y0016300D03*
X0416500Y0036300D03*
X0416500Y0076300D03*
D15*
X0421500Y0130050D03*
X0395250Y0155050D03*
X0397750Y0158800D03*
X0374000Y0137550D03*
X0370250Y0145050D03*
X0359000Y0145050D03*
X0350250Y0145050D03*
X0346500Y0135050D03*
X0335250Y0135050D03*
X0329000Y0130050D03*
X0317750Y0137550D03*
X0315250Y0132550D03*
X0306500Y0143800D03*
X0310250Y0145050D03*
X0306500Y0160050D03*
X0324000Y0162550D03*
X0330250Y0146300D03*
X0344000Y0115050D03*
X0330250Y0112550D03*
X0309000Y0110050D03*
X0295250Y0110050D03*
X0282750Y0125050D03*
X0275250Y0136300D03*
X0272750Y0151300D03*
X0261500Y0161300D03*
X0279000Y0172550D03*
X0282750Y0172550D03*
X0309000Y0188800D03*
X0326500Y0186300D03*
X0329000Y0191300D03*
X0349000Y0182550D03*
X0366500Y0185050D03*
X0375250Y0188800D03*
X0370250Y0195050D03*
X0369000Y0210050D03*
X0367750Y0218800D03*
X0359000Y0210050D03*
X0341500Y0216300D03*
X0335250Y0217550D03*
X0329000Y0215050D03*
X0322750Y0212550D03*
X0304000Y0216300D03*
X0295250Y0211300D03*
X0304000Y0232550D03*
X0315250Y0247550D03*
X0310250Y0250050D03*
X0305250Y0265050D03*
X0309000Y0285050D03*
X0325250Y0298800D03*
X0330250Y0282550D03*
X0329000Y0262550D03*
X0330250Y0250050D03*
X0350250Y0246300D03*
X0361500Y0240050D03*
X0364000Y0232550D03*
X0382750Y0238800D03*
X0394000Y0256300D03*
X0391500Y0272550D03*
X0401500Y0285050D03*
X0401500Y0298800D03*
X0399000Y0313800D03*
X0425250Y0292550D03*
X0411500Y0236300D03*
X0389000Y0218800D03*
X0391500Y0208800D03*
X0400250Y0206300D03*
X0397750Y0198800D03*
X0366500Y0132550D03*
X0361500Y0103800D03*
X0330250Y0080050D03*
X0335250Y0061300D03*
X0351500Y0065050D03*
X0334000Y0032550D03*
X0319000Y0027550D03*
X0360250Y0005050D03*
X0294000Y0086300D03*
X0255250Y0062550D03*
X0231500Y0043800D03*
X0224000Y0036300D03*
X0241500Y0012550D03*
X0251500Y0102550D03*
X0262750Y0127550D03*
X0244000Y0136300D03*
X0232750Y0161300D03*
X0220250Y0161300D03*
X0212750Y0161300D03*
X0220250Y0132550D03*
X0180250Y0112550D03*
X0096500Y0197550D03*
X0137750Y0217550D03*
X0144000Y0227550D03*
X0142750Y0231300D03*
X0131500Y0266300D03*
X0091500Y0248800D03*
X0081500Y0255050D03*
X0132750Y0318800D03*
X0137750Y0318800D03*
X0180250Y0276300D03*
X0177750Y0243800D03*
X0186500Y0216300D03*
X0220250Y0217550D03*
X0249000Y0217550D03*
X0250250Y0242550D03*
X0272750Y0252550D03*
X0281500Y0251300D03*
X0282750Y0240050D03*
X0250250Y0267550D03*
X0261500Y0282550D03*
X0259000Y0293800D03*
X0240250Y0291300D03*
X0224000Y0267550D03*
X0182750Y0320050D03*
X0241500Y0358800D03*
X0249000Y0367550D03*
X0242750Y0381300D03*
X0262750Y0413800D03*
X0301500Y0383800D03*
X0306500Y0391300D03*
X0310250Y0361300D03*
X0315250Y0341300D03*
X0314000Y0316300D03*
X0346500Y0318800D03*
X0361500Y0312550D03*
X0370250Y0287550D03*
X0349000Y0266300D03*
X0355250Y0342550D03*
X0421500Y0378800D03*
X0272750Y0352550D03*
X0276500Y0322550D03*
X0276500Y0315050D03*
X0056500Y0110050D03*
X0109000Y0007550D03*
M02*
