G75*
%MOIN*%
%OFA0B0*%
%FSLAX25Y25*%
%IPPOS*%
%LPD*%
%AMOC8*
5,1,8,0,0,1.08239X$1,22.5*
%
%ADD10C,0.00800*%
%ADD11C,0.00600*%
%ADD12C,0.00500*%
%ADD13C,0.00400*%
%ADD14C,0.01000*%
%ADD15C,0.00200*%
%ADD16C,0.00300*%
%ADD17R,0.02400X0.03400*%
D10*
X0131900Y0008235D02*
X0133435Y0006700D01*
X0136504Y0006700D01*
X0138039Y0008235D01*
X0138039Y0011304D01*
X0136504Y0012839D01*
X0133435Y0012839D01*
X0131900Y0011304D01*
X0131900Y0008235D01*
X0141108Y0006700D02*
X0141108Y0012839D01*
X0145712Y0012839D01*
X0147246Y0011304D01*
X0147246Y0006700D01*
X0150316Y0008235D02*
X0150316Y0011304D01*
X0151850Y0012839D01*
X0154920Y0012839D01*
X0156454Y0011304D01*
X0156454Y0009769D01*
X0150316Y0009769D01*
X0150316Y0008235D02*
X0151850Y0006700D01*
X0154920Y0006700D01*
X0159524Y0006700D02*
X0164128Y0006700D01*
X0165662Y0008235D01*
X0165662Y0011304D01*
X0164128Y0012839D01*
X0159524Y0012839D01*
X0159524Y0003631D01*
X0168731Y0008235D02*
X0170266Y0009769D01*
X0174870Y0009769D01*
X0174870Y0011304D02*
X0174870Y0006700D01*
X0170266Y0006700D01*
X0168731Y0008235D01*
X0170266Y0012839D02*
X0173335Y0012839D01*
X0174870Y0011304D01*
X0177939Y0011304D02*
X0177939Y0008235D01*
X0179474Y0006700D01*
X0184078Y0006700D01*
X0184078Y0005165D02*
X0184078Y0012839D01*
X0179474Y0012839D01*
X0177939Y0011304D01*
X0184078Y0005165D02*
X0182543Y0003631D01*
X0181009Y0003631D01*
X0187147Y0008235D02*
X0187147Y0011304D01*
X0188682Y0012839D01*
X0191751Y0012839D01*
X0193286Y0011304D01*
X0193286Y0009769D01*
X0187147Y0009769D01*
X0187147Y0008235D02*
X0188682Y0006700D01*
X0191751Y0006700D01*
X0196355Y0008235D02*
X0196355Y0011304D01*
X0197890Y0012839D01*
X0202494Y0012839D01*
X0205563Y0011304D02*
X0205563Y0008235D01*
X0207098Y0006700D01*
X0210167Y0006700D01*
X0211701Y0008235D01*
X0211701Y0011304D01*
X0210167Y0012839D01*
X0207098Y0012839D01*
X0205563Y0011304D01*
X0202494Y0006700D02*
X0197890Y0006700D01*
X0196355Y0008235D01*
X0214771Y0006700D02*
X0214771Y0012839D01*
X0216305Y0012839D01*
X0217840Y0011304D01*
X0219375Y0012839D01*
X0220909Y0011304D01*
X0220909Y0006700D01*
X0217840Y0006700D02*
X0217840Y0011304D01*
X0223979Y0012839D02*
X0228583Y0012839D01*
X0230117Y0011304D01*
X0230117Y0008235D01*
X0228583Y0006700D01*
X0223979Y0006700D01*
X0223979Y0003631D02*
X0223979Y0012839D01*
X0233186Y0012839D02*
X0233186Y0008235D01*
X0234721Y0006700D01*
X0239325Y0006700D01*
X0239325Y0012839D01*
X0242394Y0012839D02*
X0245464Y0012839D01*
X0243929Y0014373D02*
X0243929Y0008235D01*
X0245464Y0006700D01*
X0248533Y0008235D02*
X0248533Y0011304D01*
X0250068Y0012839D01*
X0253137Y0012839D01*
X0254671Y0011304D01*
X0254671Y0009769D01*
X0248533Y0009769D01*
X0248533Y0008235D02*
X0250068Y0006700D01*
X0253137Y0006700D01*
X0257741Y0006700D02*
X0257741Y0012839D01*
X0260810Y0012839D02*
X0257741Y0009769D01*
X0260810Y0012839D02*
X0262345Y0012839D01*
X0265414Y0008235D02*
X0266949Y0008235D01*
X0266949Y0006700D01*
X0265414Y0006700D01*
X0265414Y0008235D01*
X0270018Y0008235D02*
X0270018Y0011304D01*
X0271553Y0012839D01*
X0276156Y0012839D01*
X0279226Y0011304D02*
X0279226Y0008235D01*
X0280760Y0006700D01*
X0283830Y0006700D01*
X0285364Y0008235D01*
X0285364Y0011304D01*
X0283830Y0012839D01*
X0280760Y0012839D01*
X0279226Y0011304D01*
X0276156Y0006700D02*
X0271553Y0006700D01*
X0270018Y0008235D01*
X0288434Y0006700D02*
X0288434Y0012839D01*
X0289968Y0012839D01*
X0291503Y0011304D01*
X0293038Y0012839D01*
X0294572Y0011304D01*
X0294572Y0006700D01*
X0291503Y0006700D02*
X0291503Y0011304D01*
X0406500Y0008800D02*
X0406500Y0023800D01*
X0325265Y0436700D02*
X0322196Y0436700D01*
X0320661Y0438235D01*
X0326800Y0444373D01*
X0326800Y0438235D01*
X0325265Y0436700D01*
X0320661Y0438235D02*
X0320661Y0444373D01*
X0322196Y0445908D01*
X0325265Y0445908D01*
X0326800Y0444373D01*
X0317592Y0438235D02*
X0317592Y0436700D01*
X0316057Y0436700D01*
X0316057Y0438235D01*
X0317592Y0438235D01*
X0312988Y0436700D02*
X0306849Y0436700D01*
X0309919Y0436700D02*
X0309919Y0445908D01*
X0306849Y0442839D01*
X0303780Y0439769D02*
X0303780Y0445908D01*
X0303780Y0439769D02*
X0300711Y0436700D01*
X0297642Y0439769D01*
X0297642Y0445908D01*
X0285364Y0444373D02*
X0285364Y0438235D01*
X0283830Y0436700D01*
X0279226Y0436700D01*
X0279226Y0445908D01*
X0283830Y0445908D01*
X0285364Y0444373D01*
X0276156Y0444373D02*
X0276156Y0441304D01*
X0274622Y0439769D01*
X0270018Y0439769D01*
X0270018Y0436700D02*
X0270018Y0445908D01*
X0274622Y0445908D01*
X0276156Y0444373D01*
X0273087Y0439769D02*
X0276156Y0436700D01*
X0266949Y0436700D02*
X0266949Y0442839D01*
X0263879Y0445908D01*
X0260810Y0442839D01*
X0260810Y0436700D01*
X0257741Y0438235D02*
X0257741Y0444373D01*
X0256206Y0445908D01*
X0253137Y0445908D01*
X0251602Y0444373D01*
X0251602Y0438235D01*
X0253137Y0436700D01*
X0256206Y0436700D01*
X0257741Y0438235D01*
X0260810Y0441304D02*
X0266949Y0441304D01*
X0248533Y0442839D02*
X0246998Y0441304D01*
X0242394Y0441304D01*
X0242394Y0436700D02*
X0242394Y0445908D01*
X0246998Y0445908D01*
X0248533Y0444373D01*
X0248533Y0442839D01*
X0246998Y0441304D02*
X0248533Y0439769D01*
X0248533Y0438235D01*
X0246998Y0436700D01*
X0242394Y0436700D01*
X0230117Y0438235D02*
X0228583Y0436700D01*
X0225513Y0436700D01*
X0223979Y0438235D01*
X0223979Y0444373D01*
X0225513Y0445908D01*
X0228583Y0445908D01*
X0230117Y0444373D01*
X0220909Y0444373D02*
X0220909Y0441304D01*
X0219375Y0439769D01*
X0214771Y0439769D01*
X0214771Y0436700D02*
X0214771Y0445908D01*
X0219375Y0445908D01*
X0220909Y0444373D01*
X0211701Y0445908D02*
X0205563Y0436700D01*
X0202494Y0441304D02*
X0200959Y0439769D01*
X0196355Y0439769D01*
X0196355Y0436700D02*
X0196355Y0445908D01*
X0200959Y0445908D01*
X0202494Y0444373D01*
X0202494Y0441304D01*
X0193286Y0439769D02*
X0193286Y0438235D01*
X0191751Y0436700D01*
X0188682Y0436700D01*
X0187147Y0438235D01*
X0188682Y0441304D02*
X0191751Y0441304D01*
X0193286Y0439769D01*
X0193286Y0444373D02*
X0191751Y0445908D01*
X0188682Y0445908D01*
X0187147Y0444373D01*
X0187147Y0442839D01*
X0188682Y0441304D01*
X0174870Y0436700D02*
X0168731Y0436700D01*
X0171801Y0436700D02*
X0171801Y0445908D01*
X0168731Y0442839D01*
X0165662Y0444373D02*
X0164128Y0445908D01*
X0161058Y0445908D01*
X0159524Y0444373D01*
X0159524Y0438235D01*
X0161058Y0436700D01*
X0164128Y0436700D01*
X0165662Y0438235D01*
X0156454Y0438235D02*
X0154920Y0436700D01*
X0151850Y0436700D01*
X0150316Y0438235D01*
X0150316Y0444373D01*
X0151850Y0445908D01*
X0154920Y0445908D01*
X0156454Y0444373D01*
X0147246Y0442839D02*
X0147246Y0436700D01*
X0147246Y0441304D02*
X0141108Y0441304D01*
X0141108Y0442839D02*
X0141108Y0436700D01*
X0134969Y0436700D02*
X0134969Y0441304D01*
X0138039Y0444373D01*
X0138039Y0445908D01*
X0141108Y0442839D02*
X0144177Y0445908D01*
X0147246Y0442839D01*
X0134969Y0441304D02*
X0131900Y0444373D01*
X0131900Y0445908D01*
D11*
X0181500Y0399800D02*
X0181500Y0382800D01*
X0181502Y0382740D01*
X0181507Y0382679D01*
X0181516Y0382620D01*
X0181529Y0382561D01*
X0181545Y0382502D01*
X0181565Y0382445D01*
X0181588Y0382390D01*
X0181615Y0382335D01*
X0181644Y0382283D01*
X0181677Y0382232D01*
X0181713Y0382183D01*
X0181751Y0382137D01*
X0181793Y0382093D01*
X0181837Y0382051D01*
X0181883Y0382013D01*
X0181932Y0381977D01*
X0181983Y0381944D01*
X0182035Y0381915D01*
X0182090Y0381888D01*
X0182145Y0381865D01*
X0182202Y0381845D01*
X0182261Y0381829D01*
X0182320Y0381816D01*
X0182379Y0381807D01*
X0182440Y0381802D01*
X0182500Y0381800D01*
X0190500Y0381800D01*
X0190560Y0381802D01*
X0190621Y0381807D01*
X0190680Y0381816D01*
X0190739Y0381829D01*
X0190798Y0381845D01*
X0190855Y0381865D01*
X0190910Y0381888D01*
X0190965Y0381915D01*
X0191017Y0381944D01*
X0191068Y0381977D01*
X0191117Y0382013D01*
X0191163Y0382051D01*
X0191207Y0382093D01*
X0191249Y0382137D01*
X0191287Y0382183D01*
X0191323Y0382232D01*
X0191356Y0382283D01*
X0191385Y0382335D01*
X0191412Y0382390D01*
X0191435Y0382445D01*
X0191455Y0382502D01*
X0191471Y0382561D01*
X0191484Y0382620D01*
X0191493Y0382679D01*
X0191498Y0382740D01*
X0191500Y0382800D01*
X0191500Y0399800D01*
X0191498Y0399860D01*
X0191493Y0399921D01*
X0191484Y0399980D01*
X0191471Y0400039D01*
X0191455Y0400098D01*
X0191435Y0400155D01*
X0191412Y0400210D01*
X0191385Y0400265D01*
X0191356Y0400317D01*
X0191323Y0400368D01*
X0191287Y0400417D01*
X0191249Y0400463D01*
X0191207Y0400507D01*
X0191163Y0400549D01*
X0191117Y0400587D01*
X0191068Y0400623D01*
X0191017Y0400656D01*
X0190965Y0400685D01*
X0190910Y0400712D01*
X0190855Y0400735D01*
X0190798Y0400755D01*
X0190739Y0400771D01*
X0190680Y0400784D01*
X0190621Y0400793D01*
X0190560Y0400798D01*
X0190500Y0400800D01*
X0182500Y0400800D01*
X0182440Y0400798D01*
X0182379Y0400793D01*
X0182320Y0400784D01*
X0182261Y0400771D01*
X0182202Y0400755D01*
X0182145Y0400735D01*
X0182090Y0400712D01*
X0182035Y0400685D01*
X0181983Y0400656D01*
X0181932Y0400623D01*
X0181883Y0400587D01*
X0181837Y0400549D01*
X0181793Y0400507D01*
X0181751Y0400463D01*
X0181713Y0400417D01*
X0181677Y0400368D01*
X0181644Y0400317D01*
X0181615Y0400265D01*
X0181588Y0400210D01*
X0181565Y0400155D01*
X0181545Y0400098D01*
X0181529Y0400039D01*
X0181516Y0399980D01*
X0181507Y0399921D01*
X0181502Y0399860D01*
X0181500Y0399800D01*
X0186500Y0392800D02*
X0186500Y0392300D01*
X0186500Y0390300D02*
X0186500Y0389800D01*
X0191500Y0387300D02*
X0191626Y0387302D01*
X0191751Y0387308D01*
X0191876Y0387318D01*
X0192001Y0387332D01*
X0192126Y0387349D01*
X0192250Y0387371D01*
X0192373Y0387396D01*
X0192495Y0387426D01*
X0192616Y0387459D01*
X0192736Y0387496D01*
X0192855Y0387536D01*
X0192972Y0387581D01*
X0193089Y0387629D01*
X0193203Y0387681D01*
X0193316Y0387736D01*
X0193427Y0387795D01*
X0193536Y0387857D01*
X0193643Y0387923D01*
X0193748Y0387992D01*
X0193851Y0388064D01*
X0193952Y0388139D01*
X0194050Y0388218D01*
X0194145Y0388300D01*
X0194238Y0388384D01*
X0194328Y0388472D01*
X0194416Y0388562D01*
X0194500Y0388655D01*
X0194582Y0388750D01*
X0194661Y0388848D01*
X0194736Y0388949D01*
X0194808Y0389052D01*
X0194877Y0389157D01*
X0194943Y0389264D01*
X0195005Y0389373D01*
X0195064Y0389484D01*
X0195119Y0389597D01*
X0195171Y0389711D01*
X0195219Y0389828D01*
X0195264Y0389945D01*
X0195304Y0390064D01*
X0195341Y0390184D01*
X0195374Y0390305D01*
X0195404Y0390427D01*
X0195429Y0390550D01*
X0195451Y0390674D01*
X0195468Y0390799D01*
X0195482Y0390924D01*
X0195492Y0391049D01*
X0195498Y0391174D01*
X0195500Y0391300D01*
X0195498Y0391426D01*
X0195492Y0391551D01*
X0195482Y0391676D01*
X0195468Y0391801D01*
X0195451Y0391926D01*
X0195429Y0392050D01*
X0195404Y0392173D01*
X0195374Y0392295D01*
X0195341Y0392416D01*
X0195304Y0392536D01*
X0195264Y0392655D01*
X0195219Y0392772D01*
X0195171Y0392889D01*
X0195119Y0393003D01*
X0195064Y0393116D01*
X0195005Y0393227D01*
X0194943Y0393336D01*
X0194877Y0393443D01*
X0194808Y0393548D01*
X0194736Y0393651D01*
X0194661Y0393752D01*
X0194582Y0393850D01*
X0194500Y0393945D01*
X0194416Y0394038D01*
X0194328Y0394128D01*
X0194238Y0394216D01*
X0194145Y0394300D01*
X0194050Y0394382D01*
X0193952Y0394461D01*
X0193851Y0394536D01*
X0193748Y0394608D01*
X0193643Y0394677D01*
X0193536Y0394743D01*
X0193427Y0394805D01*
X0193316Y0394864D01*
X0193203Y0394919D01*
X0193089Y0394971D01*
X0192972Y0395019D01*
X0192855Y0395064D01*
X0192736Y0395104D01*
X0192616Y0395141D01*
X0192495Y0395174D01*
X0192373Y0395204D01*
X0192250Y0395229D01*
X0192126Y0395251D01*
X0192001Y0395268D01*
X0191876Y0395282D01*
X0191751Y0395292D01*
X0191626Y0395298D01*
X0191500Y0395300D01*
X0191500Y0402800D01*
X0271500Y0402800D01*
X0271500Y0379800D01*
X0191500Y0379800D01*
X0191500Y0387300D01*
X0191500Y0352800D02*
X0191500Y0345300D01*
X0191626Y0345298D01*
X0191751Y0345292D01*
X0191876Y0345282D01*
X0192001Y0345268D01*
X0192126Y0345251D01*
X0192250Y0345229D01*
X0192373Y0345204D01*
X0192495Y0345174D01*
X0192616Y0345141D01*
X0192736Y0345104D01*
X0192855Y0345064D01*
X0192972Y0345019D01*
X0193089Y0344971D01*
X0193203Y0344919D01*
X0193316Y0344864D01*
X0193427Y0344805D01*
X0193536Y0344743D01*
X0193643Y0344677D01*
X0193748Y0344608D01*
X0193851Y0344536D01*
X0193952Y0344461D01*
X0194050Y0344382D01*
X0194145Y0344300D01*
X0194238Y0344216D01*
X0194328Y0344128D01*
X0194416Y0344038D01*
X0194500Y0343945D01*
X0194582Y0343850D01*
X0194661Y0343752D01*
X0194736Y0343651D01*
X0194808Y0343548D01*
X0194877Y0343443D01*
X0194943Y0343336D01*
X0195005Y0343227D01*
X0195064Y0343116D01*
X0195119Y0343003D01*
X0195171Y0342889D01*
X0195219Y0342772D01*
X0195264Y0342655D01*
X0195304Y0342536D01*
X0195341Y0342416D01*
X0195374Y0342295D01*
X0195404Y0342173D01*
X0195429Y0342050D01*
X0195451Y0341926D01*
X0195468Y0341801D01*
X0195482Y0341676D01*
X0195492Y0341551D01*
X0195498Y0341426D01*
X0195500Y0341300D01*
X0195498Y0341174D01*
X0195492Y0341049D01*
X0195482Y0340924D01*
X0195468Y0340799D01*
X0195451Y0340674D01*
X0195429Y0340550D01*
X0195404Y0340427D01*
X0195374Y0340305D01*
X0195341Y0340184D01*
X0195304Y0340064D01*
X0195264Y0339945D01*
X0195219Y0339828D01*
X0195171Y0339711D01*
X0195119Y0339597D01*
X0195064Y0339484D01*
X0195005Y0339373D01*
X0194943Y0339264D01*
X0194877Y0339157D01*
X0194808Y0339052D01*
X0194736Y0338949D01*
X0194661Y0338848D01*
X0194582Y0338750D01*
X0194500Y0338655D01*
X0194416Y0338562D01*
X0194328Y0338472D01*
X0194238Y0338384D01*
X0194145Y0338300D01*
X0194050Y0338218D01*
X0193952Y0338139D01*
X0193851Y0338064D01*
X0193748Y0337992D01*
X0193643Y0337923D01*
X0193536Y0337857D01*
X0193427Y0337795D01*
X0193316Y0337736D01*
X0193203Y0337681D01*
X0193089Y0337629D01*
X0192972Y0337581D01*
X0192855Y0337536D01*
X0192736Y0337496D01*
X0192616Y0337459D01*
X0192495Y0337426D01*
X0192373Y0337396D01*
X0192250Y0337371D01*
X0192126Y0337349D01*
X0192001Y0337332D01*
X0191876Y0337318D01*
X0191751Y0337308D01*
X0191626Y0337302D01*
X0191500Y0337300D01*
X0191500Y0329800D01*
X0271500Y0329800D01*
X0271500Y0352800D01*
X0191500Y0352800D01*
X0190500Y0350800D02*
X0182500Y0350800D01*
X0182440Y0350798D01*
X0182379Y0350793D01*
X0182320Y0350784D01*
X0182261Y0350771D01*
X0182202Y0350755D01*
X0182145Y0350735D01*
X0182090Y0350712D01*
X0182035Y0350685D01*
X0181983Y0350656D01*
X0181932Y0350623D01*
X0181883Y0350587D01*
X0181837Y0350549D01*
X0181793Y0350507D01*
X0181751Y0350463D01*
X0181713Y0350417D01*
X0181677Y0350368D01*
X0181644Y0350317D01*
X0181615Y0350265D01*
X0181588Y0350210D01*
X0181565Y0350155D01*
X0181545Y0350098D01*
X0181529Y0350039D01*
X0181516Y0349980D01*
X0181507Y0349921D01*
X0181502Y0349860D01*
X0181500Y0349800D01*
X0181500Y0332800D01*
X0181502Y0332740D01*
X0181507Y0332679D01*
X0181516Y0332620D01*
X0181529Y0332561D01*
X0181545Y0332502D01*
X0181565Y0332445D01*
X0181588Y0332390D01*
X0181615Y0332335D01*
X0181644Y0332283D01*
X0181677Y0332232D01*
X0181713Y0332183D01*
X0181751Y0332137D01*
X0181793Y0332093D01*
X0181837Y0332051D01*
X0181883Y0332013D01*
X0181932Y0331977D01*
X0181983Y0331944D01*
X0182035Y0331915D01*
X0182090Y0331888D01*
X0182145Y0331865D01*
X0182202Y0331845D01*
X0182261Y0331829D01*
X0182320Y0331816D01*
X0182379Y0331807D01*
X0182440Y0331802D01*
X0182500Y0331800D01*
X0190500Y0331800D01*
X0190560Y0331802D01*
X0190621Y0331807D01*
X0190680Y0331816D01*
X0190739Y0331829D01*
X0190798Y0331845D01*
X0190855Y0331865D01*
X0190910Y0331888D01*
X0190965Y0331915D01*
X0191017Y0331944D01*
X0191068Y0331977D01*
X0191117Y0332013D01*
X0191163Y0332051D01*
X0191207Y0332093D01*
X0191249Y0332137D01*
X0191287Y0332183D01*
X0191323Y0332232D01*
X0191356Y0332283D01*
X0191385Y0332335D01*
X0191412Y0332390D01*
X0191435Y0332445D01*
X0191455Y0332502D01*
X0191471Y0332561D01*
X0191484Y0332620D01*
X0191493Y0332679D01*
X0191498Y0332740D01*
X0191500Y0332800D01*
X0191500Y0349800D01*
X0191498Y0349860D01*
X0191493Y0349921D01*
X0191484Y0349980D01*
X0191471Y0350039D01*
X0191455Y0350098D01*
X0191435Y0350155D01*
X0191412Y0350210D01*
X0191385Y0350265D01*
X0191356Y0350317D01*
X0191323Y0350368D01*
X0191287Y0350417D01*
X0191249Y0350463D01*
X0191207Y0350507D01*
X0191163Y0350549D01*
X0191117Y0350587D01*
X0191068Y0350623D01*
X0191017Y0350656D01*
X0190965Y0350685D01*
X0190910Y0350712D01*
X0190855Y0350735D01*
X0190798Y0350755D01*
X0190739Y0350771D01*
X0190680Y0350784D01*
X0190621Y0350793D01*
X0190560Y0350798D01*
X0190500Y0350800D01*
X0186500Y0342800D02*
X0186500Y0342300D01*
X0186500Y0340300D02*
X0186500Y0339800D01*
X0191500Y0302800D02*
X0191500Y0295300D01*
X0191626Y0295298D01*
X0191751Y0295292D01*
X0191876Y0295282D01*
X0192001Y0295268D01*
X0192126Y0295251D01*
X0192250Y0295229D01*
X0192373Y0295204D01*
X0192495Y0295174D01*
X0192616Y0295141D01*
X0192736Y0295104D01*
X0192855Y0295064D01*
X0192972Y0295019D01*
X0193089Y0294971D01*
X0193203Y0294919D01*
X0193316Y0294864D01*
X0193427Y0294805D01*
X0193536Y0294743D01*
X0193643Y0294677D01*
X0193748Y0294608D01*
X0193851Y0294536D01*
X0193952Y0294461D01*
X0194050Y0294382D01*
X0194145Y0294300D01*
X0194238Y0294216D01*
X0194328Y0294128D01*
X0194416Y0294038D01*
X0194500Y0293945D01*
X0194582Y0293850D01*
X0194661Y0293752D01*
X0194736Y0293651D01*
X0194808Y0293548D01*
X0194877Y0293443D01*
X0194943Y0293336D01*
X0195005Y0293227D01*
X0195064Y0293116D01*
X0195119Y0293003D01*
X0195171Y0292889D01*
X0195219Y0292772D01*
X0195264Y0292655D01*
X0195304Y0292536D01*
X0195341Y0292416D01*
X0195374Y0292295D01*
X0195404Y0292173D01*
X0195429Y0292050D01*
X0195451Y0291926D01*
X0195468Y0291801D01*
X0195482Y0291676D01*
X0195492Y0291551D01*
X0195498Y0291426D01*
X0195500Y0291300D01*
X0195498Y0291174D01*
X0195492Y0291049D01*
X0195482Y0290924D01*
X0195468Y0290799D01*
X0195451Y0290674D01*
X0195429Y0290550D01*
X0195404Y0290427D01*
X0195374Y0290305D01*
X0195341Y0290184D01*
X0195304Y0290064D01*
X0195264Y0289945D01*
X0195219Y0289828D01*
X0195171Y0289711D01*
X0195119Y0289597D01*
X0195064Y0289484D01*
X0195005Y0289373D01*
X0194943Y0289264D01*
X0194877Y0289157D01*
X0194808Y0289052D01*
X0194736Y0288949D01*
X0194661Y0288848D01*
X0194582Y0288750D01*
X0194500Y0288655D01*
X0194416Y0288562D01*
X0194328Y0288472D01*
X0194238Y0288384D01*
X0194145Y0288300D01*
X0194050Y0288218D01*
X0193952Y0288139D01*
X0193851Y0288064D01*
X0193748Y0287992D01*
X0193643Y0287923D01*
X0193536Y0287857D01*
X0193427Y0287795D01*
X0193316Y0287736D01*
X0193203Y0287681D01*
X0193089Y0287629D01*
X0192972Y0287581D01*
X0192855Y0287536D01*
X0192736Y0287496D01*
X0192616Y0287459D01*
X0192495Y0287426D01*
X0192373Y0287396D01*
X0192250Y0287371D01*
X0192126Y0287349D01*
X0192001Y0287332D01*
X0191876Y0287318D01*
X0191751Y0287308D01*
X0191626Y0287302D01*
X0191500Y0287300D01*
X0191500Y0279800D01*
X0271500Y0279800D01*
X0271500Y0302800D01*
X0191500Y0302800D01*
X0190500Y0300800D02*
X0182500Y0300800D01*
X0182440Y0300798D01*
X0182379Y0300793D01*
X0182320Y0300784D01*
X0182261Y0300771D01*
X0182202Y0300755D01*
X0182145Y0300735D01*
X0182090Y0300712D01*
X0182035Y0300685D01*
X0181983Y0300656D01*
X0181932Y0300623D01*
X0181883Y0300587D01*
X0181837Y0300549D01*
X0181793Y0300507D01*
X0181751Y0300463D01*
X0181713Y0300417D01*
X0181677Y0300368D01*
X0181644Y0300317D01*
X0181615Y0300265D01*
X0181588Y0300210D01*
X0181565Y0300155D01*
X0181545Y0300098D01*
X0181529Y0300039D01*
X0181516Y0299980D01*
X0181507Y0299921D01*
X0181502Y0299860D01*
X0181500Y0299800D01*
X0181500Y0282800D01*
X0181502Y0282740D01*
X0181507Y0282679D01*
X0181516Y0282620D01*
X0181529Y0282561D01*
X0181545Y0282502D01*
X0181565Y0282445D01*
X0181588Y0282390D01*
X0181615Y0282335D01*
X0181644Y0282283D01*
X0181677Y0282232D01*
X0181713Y0282183D01*
X0181751Y0282137D01*
X0181793Y0282093D01*
X0181837Y0282051D01*
X0181883Y0282013D01*
X0181932Y0281977D01*
X0181983Y0281944D01*
X0182035Y0281915D01*
X0182090Y0281888D01*
X0182145Y0281865D01*
X0182202Y0281845D01*
X0182261Y0281829D01*
X0182320Y0281816D01*
X0182379Y0281807D01*
X0182440Y0281802D01*
X0182500Y0281800D01*
X0190500Y0281800D01*
X0190560Y0281802D01*
X0190621Y0281807D01*
X0190680Y0281816D01*
X0190739Y0281829D01*
X0190798Y0281845D01*
X0190855Y0281865D01*
X0190910Y0281888D01*
X0190965Y0281915D01*
X0191017Y0281944D01*
X0191068Y0281977D01*
X0191117Y0282013D01*
X0191163Y0282051D01*
X0191207Y0282093D01*
X0191249Y0282137D01*
X0191287Y0282183D01*
X0191323Y0282232D01*
X0191356Y0282283D01*
X0191385Y0282335D01*
X0191412Y0282390D01*
X0191435Y0282445D01*
X0191455Y0282502D01*
X0191471Y0282561D01*
X0191484Y0282620D01*
X0191493Y0282679D01*
X0191498Y0282740D01*
X0191500Y0282800D01*
X0191500Y0299800D01*
X0191498Y0299860D01*
X0191493Y0299921D01*
X0191484Y0299980D01*
X0191471Y0300039D01*
X0191455Y0300098D01*
X0191435Y0300155D01*
X0191412Y0300210D01*
X0191385Y0300265D01*
X0191356Y0300317D01*
X0191323Y0300368D01*
X0191287Y0300417D01*
X0191249Y0300463D01*
X0191207Y0300507D01*
X0191163Y0300549D01*
X0191117Y0300587D01*
X0191068Y0300623D01*
X0191017Y0300656D01*
X0190965Y0300685D01*
X0190910Y0300712D01*
X0190855Y0300735D01*
X0190798Y0300755D01*
X0190739Y0300771D01*
X0190680Y0300784D01*
X0190621Y0300793D01*
X0190560Y0300798D01*
X0190500Y0300800D01*
X0186500Y0292800D02*
X0186500Y0292300D01*
X0186500Y0290300D02*
X0186500Y0289800D01*
X0191500Y0252800D02*
X0191500Y0245300D01*
X0191626Y0245298D01*
X0191751Y0245292D01*
X0191876Y0245282D01*
X0192001Y0245268D01*
X0192126Y0245251D01*
X0192250Y0245229D01*
X0192373Y0245204D01*
X0192495Y0245174D01*
X0192616Y0245141D01*
X0192736Y0245104D01*
X0192855Y0245064D01*
X0192972Y0245019D01*
X0193089Y0244971D01*
X0193203Y0244919D01*
X0193316Y0244864D01*
X0193427Y0244805D01*
X0193536Y0244743D01*
X0193643Y0244677D01*
X0193748Y0244608D01*
X0193851Y0244536D01*
X0193952Y0244461D01*
X0194050Y0244382D01*
X0194145Y0244300D01*
X0194238Y0244216D01*
X0194328Y0244128D01*
X0194416Y0244038D01*
X0194500Y0243945D01*
X0194582Y0243850D01*
X0194661Y0243752D01*
X0194736Y0243651D01*
X0194808Y0243548D01*
X0194877Y0243443D01*
X0194943Y0243336D01*
X0195005Y0243227D01*
X0195064Y0243116D01*
X0195119Y0243003D01*
X0195171Y0242889D01*
X0195219Y0242772D01*
X0195264Y0242655D01*
X0195304Y0242536D01*
X0195341Y0242416D01*
X0195374Y0242295D01*
X0195404Y0242173D01*
X0195429Y0242050D01*
X0195451Y0241926D01*
X0195468Y0241801D01*
X0195482Y0241676D01*
X0195492Y0241551D01*
X0195498Y0241426D01*
X0195500Y0241300D01*
X0195498Y0241174D01*
X0195492Y0241049D01*
X0195482Y0240924D01*
X0195468Y0240799D01*
X0195451Y0240674D01*
X0195429Y0240550D01*
X0195404Y0240427D01*
X0195374Y0240305D01*
X0195341Y0240184D01*
X0195304Y0240064D01*
X0195264Y0239945D01*
X0195219Y0239828D01*
X0195171Y0239711D01*
X0195119Y0239597D01*
X0195064Y0239484D01*
X0195005Y0239373D01*
X0194943Y0239264D01*
X0194877Y0239157D01*
X0194808Y0239052D01*
X0194736Y0238949D01*
X0194661Y0238848D01*
X0194582Y0238750D01*
X0194500Y0238655D01*
X0194416Y0238562D01*
X0194328Y0238472D01*
X0194238Y0238384D01*
X0194145Y0238300D01*
X0194050Y0238218D01*
X0193952Y0238139D01*
X0193851Y0238064D01*
X0193748Y0237992D01*
X0193643Y0237923D01*
X0193536Y0237857D01*
X0193427Y0237795D01*
X0193316Y0237736D01*
X0193203Y0237681D01*
X0193089Y0237629D01*
X0192972Y0237581D01*
X0192855Y0237536D01*
X0192736Y0237496D01*
X0192616Y0237459D01*
X0192495Y0237426D01*
X0192373Y0237396D01*
X0192250Y0237371D01*
X0192126Y0237349D01*
X0192001Y0237332D01*
X0191876Y0237318D01*
X0191751Y0237308D01*
X0191626Y0237302D01*
X0191500Y0237300D01*
X0191500Y0229800D01*
X0271500Y0229800D01*
X0271500Y0252800D01*
X0191500Y0252800D01*
X0190500Y0250800D02*
X0182500Y0250800D01*
X0182440Y0250798D01*
X0182379Y0250793D01*
X0182320Y0250784D01*
X0182261Y0250771D01*
X0182202Y0250755D01*
X0182145Y0250735D01*
X0182090Y0250712D01*
X0182035Y0250685D01*
X0181983Y0250656D01*
X0181932Y0250623D01*
X0181883Y0250587D01*
X0181837Y0250549D01*
X0181793Y0250507D01*
X0181751Y0250463D01*
X0181713Y0250417D01*
X0181677Y0250368D01*
X0181644Y0250317D01*
X0181615Y0250265D01*
X0181588Y0250210D01*
X0181565Y0250155D01*
X0181545Y0250098D01*
X0181529Y0250039D01*
X0181516Y0249980D01*
X0181507Y0249921D01*
X0181502Y0249860D01*
X0181500Y0249800D01*
X0181500Y0232800D01*
X0181502Y0232740D01*
X0181507Y0232679D01*
X0181516Y0232620D01*
X0181529Y0232561D01*
X0181545Y0232502D01*
X0181565Y0232445D01*
X0181588Y0232390D01*
X0181615Y0232335D01*
X0181644Y0232283D01*
X0181677Y0232232D01*
X0181713Y0232183D01*
X0181751Y0232137D01*
X0181793Y0232093D01*
X0181837Y0232051D01*
X0181883Y0232013D01*
X0181932Y0231977D01*
X0181983Y0231944D01*
X0182035Y0231915D01*
X0182090Y0231888D01*
X0182145Y0231865D01*
X0182202Y0231845D01*
X0182261Y0231829D01*
X0182320Y0231816D01*
X0182379Y0231807D01*
X0182440Y0231802D01*
X0182500Y0231800D01*
X0190500Y0231800D01*
X0190560Y0231802D01*
X0190621Y0231807D01*
X0190680Y0231816D01*
X0190739Y0231829D01*
X0190798Y0231845D01*
X0190855Y0231865D01*
X0190910Y0231888D01*
X0190965Y0231915D01*
X0191017Y0231944D01*
X0191068Y0231977D01*
X0191117Y0232013D01*
X0191163Y0232051D01*
X0191207Y0232093D01*
X0191249Y0232137D01*
X0191287Y0232183D01*
X0191323Y0232232D01*
X0191356Y0232283D01*
X0191385Y0232335D01*
X0191412Y0232390D01*
X0191435Y0232445D01*
X0191455Y0232502D01*
X0191471Y0232561D01*
X0191484Y0232620D01*
X0191493Y0232679D01*
X0191498Y0232740D01*
X0191500Y0232800D01*
X0191500Y0249800D01*
X0191498Y0249860D01*
X0191493Y0249921D01*
X0191484Y0249980D01*
X0191471Y0250039D01*
X0191455Y0250098D01*
X0191435Y0250155D01*
X0191412Y0250210D01*
X0191385Y0250265D01*
X0191356Y0250317D01*
X0191323Y0250368D01*
X0191287Y0250417D01*
X0191249Y0250463D01*
X0191207Y0250507D01*
X0191163Y0250549D01*
X0191117Y0250587D01*
X0191068Y0250623D01*
X0191017Y0250656D01*
X0190965Y0250685D01*
X0190910Y0250712D01*
X0190855Y0250735D01*
X0190798Y0250755D01*
X0190739Y0250771D01*
X0190680Y0250784D01*
X0190621Y0250793D01*
X0190560Y0250798D01*
X0190500Y0250800D01*
X0186500Y0242800D02*
X0186500Y0242300D01*
X0186500Y0240300D02*
X0186500Y0239800D01*
X0191500Y0197800D02*
X0191500Y0190300D01*
X0191626Y0190298D01*
X0191751Y0190292D01*
X0191876Y0190282D01*
X0192001Y0190268D01*
X0192126Y0190251D01*
X0192250Y0190229D01*
X0192373Y0190204D01*
X0192495Y0190174D01*
X0192616Y0190141D01*
X0192736Y0190104D01*
X0192855Y0190064D01*
X0192972Y0190019D01*
X0193089Y0189971D01*
X0193203Y0189919D01*
X0193316Y0189864D01*
X0193427Y0189805D01*
X0193536Y0189743D01*
X0193643Y0189677D01*
X0193748Y0189608D01*
X0193851Y0189536D01*
X0193952Y0189461D01*
X0194050Y0189382D01*
X0194145Y0189300D01*
X0194238Y0189216D01*
X0194328Y0189128D01*
X0194416Y0189038D01*
X0194500Y0188945D01*
X0194582Y0188850D01*
X0194661Y0188752D01*
X0194736Y0188651D01*
X0194808Y0188548D01*
X0194877Y0188443D01*
X0194943Y0188336D01*
X0195005Y0188227D01*
X0195064Y0188116D01*
X0195119Y0188003D01*
X0195171Y0187889D01*
X0195219Y0187772D01*
X0195264Y0187655D01*
X0195304Y0187536D01*
X0195341Y0187416D01*
X0195374Y0187295D01*
X0195404Y0187173D01*
X0195429Y0187050D01*
X0195451Y0186926D01*
X0195468Y0186801D01*
X0195482Y0186676D01*
X0195492Y0186551D01*
X0195498Y0186426D01*
X0195500Y0186300D01*
X0195498Y0186174D01*
X0195492Y0186049D01*
X0195482Y0185924D01*
X0195468Y0185799D01*
X0195451Y0185674D01*
X0195429Y0185550D01*
X0195404Y0185427D01*
X0195374Y0185305D01*
X0195341Y0185184D01*
X0195304Y0185064D01*
X0195264Y0184945D01*
X0195219Y0184828D01*
X0195171Y0184711D01*
X0195119Y0184597D01*
X0195064Y0184484D01*
X0195005Y0184373D01*
X0194943Y0184264D01*
X0194877Y0184157D01*
X0194808Y0184052D01*
X0194736Y0183949D01*
X0194661Y0183848D01*
X0194582Y0183750D01*
X0194500Y0183655D01*
X0194416Y0183562D01*
X0194328Y0183472D01*
X0194238Y0183384D01*
X0194145Y0183300D01*
X0194050Y0183218D01*
X0193952Y0183139D01*
X0193851Y0183064D01*
X0193748Y0182992D01*
X0193643Y0182923D01*
X0193536Y0182857D01*
X0193427Y0182795D01*
X0193316Y0182736D01*
X0193203Y0182681D01*
X0193089Y0182629D01*
X0192972Y0182581D01*
X0192855Y0182536D01*
X0192736Y0182496D01*
X0192616Y0182459D01*
X0192495Y0182426D01*
X0192373Y0182396D01*
X0192250Y0182371D01*
X0192126Y0182349D01*
X0192001Y0182332D01*
X0191876Y0182318D01*
X0191751Y0182308D01*
X0191626Y0182302D01*
X0191500Y0182300D01*
X0191500Y0174800D01*
X0271500Y0174800D01*
X0271500Y0197800D01*
X0191500Y0197800D01*
X0190500Y0195800D02*
X0182500Y0195800D01*
X0182440Y0195798D01*
X0182379Y0195793D01*
X0182320Y0195784D01*
X0182261Y0195771D01*
X0182202Y0195755D01*
X0182145Y0195735D01*
X0182090Y0195712D01*
X0182035Y0195685D01*
X0181983Y0195656D01*
X0181932Y0195623D01*
X0181883Y0195587D01*
X0181837Y0195549D01*
X0181793Y0195507D01*
X0181751Y0195463D01*
X0181713Y0195417D01*
X0181677Y0195368D01*
X0181644Y0195317D01*
X0181615Y0195265D01*
X0181588Y0195210D01*
X0181565Y0195155D01*
X0181545Y0195098D01*
X0181529Y0195039D01*
X0181516Y0194980D01*
X0181507Y0194921D01*
X0181502Y0194860D01*
X0181500Y0194800D01*
X0181500Y0177800D01*
X0181502Y0177740D01*
X0181507Y0177679D01*
X0181516Y0177620D01*
X0181529Y0177561D01*
X0181545Y0177502D01*
X0181565Y0177445D01*
X0181588Y0177390D01*
X0181615Y0177335D01*
X0181644Y0177283D01*
X0181677Y0177232D01*
X0181713Y0177183D01*
X0181751Y0177137D01*
X0181793Y0177093D01*
X0181837Y0177051D01*
X0181883Y0177013D01*
X0181932Y0176977D01*
X0181983Y0176944D01*
X0182035Y0176915D01*
X0182090Y0176888D01*
X0182145Y0176865D01*
X0182202Y0176845D01*
X0182261Y0176829D01*
X0182320Y0176816D01*
X0182379Y0176807D01*
X0182440Y0176802D01*
X0182500Y0176800D01*
X0190500Y0176800D01*
X0190560Y0176802D01*
X0190621Y0176807D01*
X0190680Y0176816D01*
X0190739Y0176829D01*
X0190798Y0176845D01*
X0190855Y0176865D01*
X0190910Y0176888D01*
X0190965Y0176915D01*
X0191017Y0176944D01*
X0191068Y0176977D01*
X0191117Y0177013D01*
X0191163Y0177051D01*
X0191207Y0177093D01*
X0191249Y0177137D01*
X0191287Y0177183D01*
X0191323Y0177232D01*
X0191356Y0177283D01*
X0191385Y0177335D01*
X0191412Y0177390D01*
X0191435Y0177445D01*
X0191455Y0177502D01*
X0191471Y0177561D01*
X0191484Y0177620D01*
X0191493Y0177679D01*
X0191498Y0177740D01*
X0191500Y0177800D01*
X0191500Y0194800D01*
X0191498Y0194860D01*
X0191493Y0194921D01*
X0191484Y0194980D01*
X0191471Y0195039D01*
X0191455Y0195098D01*
X0191435Y0195155D01*
X0191412Y0195210D01*
X0191385Y0195265D01*
X0191356Y0195317D01*
X0191323Y0195368D01*
X0191287Y0195417D01*
X0191249Y0195463D01*
X0191207Y0195507D01*
X0191163Y0195549D01*
X0191117Y0195587D01*
X0191068Y0195623D01*
X0191017Y0195656D01*
X0190965Y0195685D01*
X0190910Y0195712D01*
X0190855Y0195735D01*
X0190798Y0195755D01*
X0190739Y0195771D01*
X0190680Y0195784D01*
X0190621Y0195793D01*
X0190560Y0195798D01*
X0190500Y0195800D01*
X0186500Y0187800D02*
X0186500Y0187300D01*
X0186500Y0185300D02*
X0186500Y0184800D01*
X0171500Y0174800D02*
X0171500Y0197800D01*
X0101500Y0197800D01*
X0101500Y0190300D01*
X0101626Y0190298D01*
X0101751Y0190292D01*
X0101876Y0190282D01*
X0102001Y0190268D01*
X0102126Y0190251D01*
X0102250Y0190229D01*
X0102373Y0190204D01*
X0102495Y0190174D01*
X0102616Y0190141D01*
X0102736Y0190104D01*
X0102855Y0190064D01*
X0102972Y0190019D01*
X0103089Y0189971D01*
X0103203Y0189919D01*
X0103316Y0189864D01*
X0103427Y0189805D01*
X0103536Y0189743D01*
X0103643Y0189677D01*
X0103748Y0189608D01*
X0103851Y0189536D01*
X0103952Y0189461D01*
X0104050Y0189382D01*
X0104145Y0189300D01*
X0104238Y0189216D01*
X0104328Y0189128D01*
X0104416Y0189038D01*
X0104500Y0188945D01*
X0104582Y0188850D01*
X0104661Y0188752D01*
X0104736Y0188651D01*
X0104808Y0188548D01*
X0104877Y0188443D01*
X0104943Y0188336D01*
X0105005Y0188227D01*
X0105064Y0188116D01*
X0105119Y0188003D01*
X0105171Y0187889D01*
X0105219Y0187772D01*
X0105264Y0187655D01*
X0105304Y0187536D01*
X0105341Y0187416D01*
X0105374Y0187295D01*
X0105404Y0187173D01*
X0105429Y0187050D01*
X0105451Y0186926D01*
X0105468Y0186801D01*
X0105482Y0186676D01*
X0105492Y0186551D01*
X0105498Y0186426D01*
X0105500Y0186300D01*
X0105498Y0186174D01*
X0105492Y0186049D01*
X0105482Y0185924D01*
X0105468Y0185799D01*
X0105451Y0185674D01*
X0105429Y0185550D01*
X0105404Y0185427D01*
X0105374Y0185305D01*
X0105341Y0185184D01*
X0105304Y0185064D01*
X0105264Y0184945D01*
X0105219Y0184828D01*
X0105171Y0184711D01*
X0105119Y0184597D01*
X0105064Y0184484D01*
X0105005Y0184373D01*
X0104943Y0184264D01*
X0104877Y0184157D01*
X0104808Y0184052D01*
X0104736Y0183949D01*
X0104661Y0183848D01*
X0104582Y0183750D01*
X0104500Y0183655D01*
X0104416Y0183562D01*
X0104328Y0183472D01*
X0104238Y0183384D01*
X0104145Y0183300D01*
X0104050Y0183218D01*
X0103952Y0183139D01*
X0103851Y0183064D01*
X0103748Y0182992D01*
X0103643Y0182923D01*
X0103536Y0182857D01*
X0103427Y0182795D01*
X0103316Y0182736D01*
X0103203Y0182681D01*
X0103089Y0182629D01*
X0102972Y0182581D01*
X0102855Y0182536D01*
X0102736Y0182496D01*
X0102616Y0182459D01*
X0102495Y0182426D01*
X0102373Y0182396D01*
X0102250Y0182371D01*
X0102126Y0182349D01*
X0102001Y0182332D01*
X0101876Y0182318D01*
X0101751Y0182308D01*
X0101626Y0182302D01*
X0101500Y0182300D01*
X0101500Y0174800D01*
X0171500Y0174800D01*
X0171500Y0147800D02*
X0171500Y0124800D01*
X0101500Y0124800D01*
X0101500Y0132300D01*
X0101626Y0132302D01*
X0101751Y0132308D01*
X0101876Y0132318D01*
X0102001Y0132332D01*
X0102126Y0132349D01*
X0102250Y0132371D01*
X0102373Y0132396D01*
X0102495Y0132426D01*
X0102616Y0132459D01*
X0102736Y0132496D01*
X0102855Y0132536D01*
X0102972Y0132581D01*
X0103089Y0132629D01*
X0103203Y0132681D01*
X0103316Y0132736D01*
X0103427Y0132795D01*
X0103536Y0132857D01*
X0103643Y0132923D01*
X0103748Y0132992D01*
X0103851Y0133064D01*
X0103952Y0133139D01*
X0104050Y0133218D01*
X0104145Y0133300D01*
X0104238Y0133384D01*
X0104328Y0133472D01*
X0104416Y0133562D01*
X0104500Y0133655D01*
X0104582Y0133750D01*
X0104661Y0133848D01*
X0104736Y0133949D01*
X0104808Y0134052D01*
X0104877Y0134157D01*
X0104943Y0134264D01*
X0105005Y0134373D01*
X0105064Y0134484D01*
X0105119Y0134597D01*
X0105171Y0134711D01*
X0105219Y0134828D01*
X0105264Y0134945D01*
X0105304Y0135064D01*
X0105341Y0135184D01*
X0105374Y0135305D01*
X0105404Y0135427D01*
X0105429Y0135550D01*
X0105451Y0135674D01*
X0105468Y0135799D01*
X0105482Y0135924D01*
X0105492Y0136049D01*
X0105498Y0136174D01*
X0105500Y0136300D01*
X0105498Y0136426D01*
X0105492Y0136551D01*
X0105482Y0136676D01*
X0105468Y0136801D01*
X0105451Y0136926D01*
X0105429Y0137050D01*
X0105404Y0137173D01*
X0105374Y0137295D01*
X0105341Y0137416D01*
X0105304Y0137536D01*
X0105264Y0137655D01*
X0105219Y0137772D01*
X0105171Y0137889D01*
X0105119Y0138003D01*
X0105064Y0138116D01*
X0105005Y0138227D01*
X0104943Y0138336D01*
X0104877Y0138443D01*
X0104808Y0138548D01*
X0104736Y0138651D01*
X0104661Y0138752D01*
X0104582Y0138850D01*
X0104500Y0138945D01*
X0104416Y0139038D01*
X0104328Y0139128D01*
X0104238Y0139216D01*
X0104145Y0139300D01*
X0104050Y0139382D01*
X0103952Y0139461D01*
X0103851Y0139536D01*
X0103748Y0139608D01*
X0103643Y0139677D01*
X0103536Y0139743D01*
X0103427Y0139805D01*
X0103316Y0139864D01*
X0103203Y0139919D01*
X0103089Y0139971D01*
X0102972Y0140019D01*
X0102855Y0140064D01*
X0102736Y0140104D01*
X0102616Y0140141D01*
X0102495Y0140174D01*
X0102373Y0140204D01*
X0102250Y0140229D01*
X0102126Y0140251D01*
X0102001Y0140268D01*
X0101876Y0140282D01*
X0101751Y0140292D01*
X0101626Y0140298D01*
X0101500Y0140300D01*
X0101500Y0147800D01*
X0171500Y0147800D01*
X0181500Y0144800D02*
X0181500Y0127800D01*
X0181502Y0127740D01*
X0181507Y0127679D01*
X0181516Y0127620D01*
X0181529Y0127561D01*
X0181545Y0127502D01*
X0181565Y0127445D01*
X0181588Y0127390D01*
X0181615Y0127335D01*
X0181644Y0127283D01*
X0181677Y0127232D01*
X0181713Y0127183D01*
X0181751Y0127137D01*
X0181793Y0127093D01*
X0181837Y0127051D01*
X0181883Y0127013D01*
X0181932Y0126977D01*
X0181983Y0126944D01*
X0182035Y0126915D01*
X0182090Y0126888D01*
X0182145Y0126865D01*
X0182202Y0126845D01*
X0182261Y0126829D01*
X0182320Y0126816D01*
X0182379Y0126807D01*
X0182440Y0126802D01*
X0182500Y0126800D01*
X0190500Y0126800D01*
X0190560Y0126802D01*
X0190621Y0126807D01*
X0190680Y0126816D01*
X0190739Y0126829D01*
X0190798Y0126845D01*
X0190855Y0126865D01*
X0190910Y0126888D01*
X0190965Y0126915D01*
X0191017Y0126944D01*
X0191068Y0126977D01*
X0191117Y0127013D01*
X0191163Y0127051D01*
X0191207Y0127093D01*
X0191249Y0127137D01*
X0191287Y0127183D01*
X0191323Y0127232D01*
X0191356Y0127283D01*
X0191385Y0127335D01*
X0191412Y0127390D01*
X0191435Y0127445D01*
X0191455Y0127502D01*
X0191471Y0127561D01*
X0191484Y0127620D01*
X0191493Y0127679D01*
X0191498Y0127740D01*
X0191500Y0127800D01*
X0191500Y0144800D01*
X0191498Y0144860D01*
X0191493Y0144921D01*
X0191484Y0144980D01*
X0191471Y0145039D01*
X0191455Y0145098D01*
X0191435Y0145155D01*
X0191412Y0145210D01*
X0191385Y0145265D01*
X0191356Y0145317D01*
X0191323Y0145368D01*
X0191287Y0145417D01*
X0191249Y0145463D01*
X0191207Y0145507D01*
X0191163Y0145549D01*
X0191117Y0145587D01*
X0191068Y0145623D01*
X0191017Y0145656D01*
X0190965Y0145685D01*
X0190910Y0145712D01*
X0190855Y0145735D01*
X0190798Y0145755D01*
X0190739Y0145771D01*
X0190680Y0145784D01*
X0190621Y0145793D01*
X0190560Y0145798D01*
X0190500Y0145800D01*
X0182500Y0145800D01*
X0182440Y0145798D01*
X0182379Y0145793D01*
X0182320Y0145784D01*
X0182261Y0145771D01*
X0182202Y0145755D01*
X0182145Y0145735D01*
X0182090Y0145712D01*
X0182035Y0145685D01*
X0181983Y0145656D01*
X0181932Y0145623D01*
X0181883Y0145587D01*
X0181837Y0145549D01*
X0181793Y0145507D01*
X0181751Y0145463D01*
X0181713Y0145417D01*
X0181677Y0145368D01*
X0181644Y0145317D01*
X0181615Y0145265D01*
X0181588Y0145210D01*
X0181565Y0145155D01*
X0181545Y0145098D01*
X0181529Y0145039D01*
X0181516Y0144980D01*
X0181507Y0144921D01*
X0181502Y0144860D01*
X0181500Y0144800D01*
X0186500Y0137800D02*
X0186500Y0137300D01*
X0186500Y0135300D02*
X0186500Y0134800D01*
X0191500Y0132300D02*
X0191626Y0132302D01*
X0191751Y0132308D01*
X0191876Y0132318D01*
X0192001Y0132332D01*
X0192126Y0132349D01*
X0192250Y0132371D01*
X0192373Y0132396D01*
X0192495Y0132426D01*
X0192616Y0132459D01*
X0192736Y0132496D01*
X0192855Y0132536D01*
X0192972Y0132581D01*
X0193089Y0132629D01*
X0193203Y0132681D01*
X0193316Y0132736D01*
X0193427Y0132795D01*
X0193536Y0132857D01*
X0193643Y0132923D01*
X0193748Y0132992D01*
X0193851Y0133064D01*
X0193952Y0133139D01*
X0194050Y0133218D01*
X0194145Y0133300D01*
X0194238Y0133384D01*
X0194328Y0133472D01*
X0194416Y0133562D01*
X0194500Y0133655D01*
X0194582Y0133750D01*
X0194661Y0133848D01*
X0194736Y0133949D01*
X0194808Y0134052D01*
X0194877Y0134157D01*
X0194943Y0134264D01*
X0195005Y0134373D01*
X0195064Y0134484D01*
X0195119Y0134597D01*
X0195171Y0134711D01*
X0195219Y0134828D01*
X0195264Y0134945D01*
X0195304Y0135064D01*
X0195341Y0135184D01*
X0195374Y0135305D01*
X0195404Y0135427D01*
X0195429Y0135550D01*
X0195451Y0135674D01*
X0195468Y0135799D01*
X0195482Y0135924D01*
X0195492Y0136049D01*
X0195498Y0136174D01*
X0195500Y0136300D01*
X0195498Y0136426D01*
X0195492Y0136551D01*
X0195482Y0136676D01*
X0195468Y0136801D01*
X0195451Y0136926D01*
X0195429Y0137050D01*
X0195404Y0137173D01*
X0195374Y0137295D01*
X0195341Y0137416D01*
X0195304Y0137536D01*
X0195264Y0137655D01*
X0195219Y0137772D01*
X0195171Y0137889D01*
X0195119Y0138003D01*
X0195064Y0138116D01*
X0195005Y0138227D01*
X0194943Y0138336D01*
X0194877Y0138443D01*
X0194808Y0138548D01*
X0194736Y0138651D01*
X0194661Y0138752D01*
X0194582Y0138850D01*
X0194500Y0138945D01*
X0194416Y0139038D01*
X0194328Y0139128D01*
X0194238Y0139216D01*
X0194145Y0139300D01*
X0194050Y0139382D01*
X0193952Y0139461D01*
X0193851Y0139536D01*
X0193748Y0139608D01*
X0193643Y0139677D01*
X0193536Y0139743D01*
X0193427Y0139805D01*
X0193316Y0139864D01*
X0193203Y0139919D01*
X0193089Y0139971D01*
X0192972Y0140019D01*
X0192855Y0140064D01*
X0192736Y0140104D01*
X0192616Y0140141D01*
X0192495Y0140174D01*
X0192373Y0140204D01*
X0192250Y0140229D01*
X0192126Y0140251D01*
X0192001Y0140268D01*
X0191876Y0140282D01*
X0191751Y0140292D01*
X0191626Y0140298D01*
X0191500Y0140300D01*
X0191500Y0147800D01*
X0271500Y0147800D01*
X0271500Y0124800D01*
X0191500Y0124800D01*
X0191500Y0132300D01*
X0191500Y0097800D02*
X0191500Y0090300D01*
X0191626Y0090298D01*
X0191751Y0090292D01*
X0191876Y0090282D01*
X0192001Y0090268D01*
X0192126Y0090251D01*
X0192250Y0090229D01*
X0192373Y0090204D01*
X0192495Y0090174D01*
X0192616Y0090141D01*
X0192736Y0090104D01*
X0192855Y0090064D01*
X0192972Y0090019D01*
X0193089Y0089971D01*
X0193203Y0089919D01*
X0193316Y0089864D01*
X0193427Y0089805D01*
X0193536Y0089743D01*
X0193643Y0089677D01*
X0193748Y0089608D01*
X0193851Y0089536D01*
X0193952Y0089461D01*
X0194050Y0089382D01*
X0194145Y0089300D01*
X0194238Y0089216D01*
X0194328Y0089128D01*
X0194416Y0089038D01*
X0194500Y0088945D01*
X0194582Y0088850D01*
X0194661Y0088752D01*
X0194736Y0088651D01*
X0194808Y0088548D01*
X0194877Y0088443D01*
X0194943Y0088336D01*
X0195005Y0088227D01*
X0195064Y0088116D01*
X0195119Y0088003D01*
X0195171Y0087889D01*
X0195219Y0087772D01*
X0195264Y0087655D01*
X0195304Y0087536D01*
X0195341Y0087416D01*
X0195374Y0087295D01*
X0195404Y0087173D01*
X0195429Y0087050D01*
X0195451Y0086926D01*
X0195468Y0086801D01*
X0195482Y0086676D01*
X0195492Y0086551D01*
X0195498Y0086426D01*
X0195500Y0086300D01*
X0195498Y0086174D01*
X0195492Y0086049D01*
X0195482Y0085924D01*
X0195468Y0085799D01*
X0195451Y0085674D01*
X0195429Y0085550D01*
X0195404Y0085427D01*
X0195374Y0085305D01*
X0195341Y0085184D01*
X0195304Y0085064D01*
X0195264Y0084945D01*
X0195219Y0084828D01*
X0195171Y0084711D01*
X0195119Y0084597D01*
X0195064Y0084484D01*
X0195005Y0084373D01*
X0194943Y0084264D01*
X0194877Y0084157D01*
X0194808Y0084052D01*
X0194736Y0083949D01*
X0194661Y0083848D01*
X0194582Y0083750D01*
X0194500Y0083655D01*
X0194416Y0083562D01*
X0194328Y0083472D01*
X0194238Y0083384D01*
X0194145Y0083300D01*
X0194050Y0083218D01*
X0193952Y0083139D01*
X0193851Y0083064D01*
X0193748Y0082992D01*
X0193643Y0082923D01*
X0193536Y0082857D01*
X0193427Y0082795D01*
X0193316Y0082736D01*
X0193203Y0082681D01*
X0193089Y0082629D01*
X0192972Y0082581D01*
X0192855Y0082536D01*
X0192736Y0082496D01*
X0192616Y0082459D01*
X0192495Y0082426D01*
X0192373Y0082396D01*
X0192250Y0082371D01*
X0192126Y0082349D01*
X0192001Y0082332D01*
X0191876Y0082318D01*
X0191751Y0082308D01*
X0191626Y0082302D01*
X0191500Y0082300D01*
X0191500Y0074800D01*
X0271500Y0074800D01*
X0271500Y0097800D01*
X0191500Y0097800D01*
X0190500Y0095800D02*
X0182500Y0095800D01*
X0182440Y0095798D01*
X0182379Y0095793D01*
X0182320Y0095784D01*
X0182261Y0095771D01*
X0182202Y0095755D01*
X0182145Y0095735D01*
X0182090Y0095712D01*
X0182035Y0095685D01*
X0181983Y0095656D01*
X0181932Y0095623D01*
X0181883Y0095587D01*
X0181837Y0095549D01*
X0181793Y0095507D01*
X0181751Y0095463D01*
X0181713Y0095417D01*
X0181677Y0095368D01*
X0181644Y0095317D01*
X0181615Y0095265D01*
X0181588Y0095210D01*
X0181565Y0095155D01*
X0181545Y0095098D01*
X0181529Y0095039D01*
X0181516Y0094980D01*
X0181507Y0094921D01*
X0181502Y0094860D01*
X0181500Y0094800D01*
X0181500Y0077800D01*
X0181502Y0077740D01*
X0181507Y0077679D01*
X0181516Y0077620D01*
X0181529Y0077561D01*
X0181545Y0077502D01*
X0181565Y0077445D01*
X0181588Y0077390D01*
X0181615Y0077335D01*
X0181644Y0077283D01*
X0181677Y0077232D01*
X0181713Y0077183D01*
X0181751Y0077137D01*
X0181793Y0077093D01*
X0181837Y0077051D01*
X0181883Y0077013D01*
X0181932Y0076977D01*
X0181983Y0076944D01*
X0182035Y0076915D01*
X0182090Y0076888D01*
X0182145Y0076865D01*
X0182202Y0076845D01*
X0182261Y0076829D01*
X0182320Y0076816D01*
X0182379Y0076807D01*
X0182440Y0076802D01*
X0182500Y0076800D01*
X0190500Y0076800D01*
X0190560Y0076802D01*
X0190621Y0076807D01*
X0190680Y0076816D01*
X0190739Y0076829D01*
X0190798Y0076845D01*
X0190855Y0076865D01*
X0190910Y0076888D01*
X0190965Y0076915D01*
X0191017Y0076944D01*
X0191068Y0076977D01*
X0191117Y0077013D01*
X0191163Y0077051D01*
X0191207Y0077093D01*
X0191249Y0077137D01*
X0191287Y0077183D01*
X0191323Y0077232D01*
X0191356Y0077283D01*
X0191385Y0077335D01*
X0191412Y0077390D01*
X0191435Y0077445D01*
X0191455Y0077502D01*
X0191471Y0077561D01*
X0191484Y0077620D01*
X0191493Y0077679D01*
X0191498Y0077740D01*
X0191500Y0077800D01*
X0191500Y0094800D01*
X0191498Y0094860D01*
X0191493Y0094921D01*
X0191484Y0094980D01*
X0191471Y0095039D01*
X0191455Y0095098D01*
X0191435Y0095155D01*
X0191412Y0095210D01*
X0191385Y0095265D01*
X0191356Y0095317D01*
X0191323Y0095368D01*
X0191287Y0095417D01*
X0191249Y0095463D01*
X0191207Y0095507D01*
X0191163Y0095549D01*
X0191117Y0095587D01*
X0191068Y0095623D01*
X0191017Y0095656D01*
X0190965Y0095685D01*
X0190910Y0095712D01*
X0190855Y0095735D01*
X0190798Y0095755D01*
X0190739Y0095771D01*
X0190680Y0095784D01*
X0190621Y0095793D01*
X0190560Y0095798D01*
X0190500Y0095800D01*
X0186500Y0087800D02*
X0186500Y0087300D01*
X0186500Y0085300D02*
X0186500Y0084800D01*
X0171500Y0074800D02*
X0171500Y0097800D01*
X0101500Y0097800D01*
X0101500Y0090300D01*
X0101626Y0090298D01*
X0101751Y0090292D01*
X0101876Y0090282D01*
X0102001Y0090268D01*
X0102126Y0090251D01*
X0102250Y0090229D01*
X0102373Y0090204D01*
X0102495Y0090174D01*
X0102616Y0090141D01*
X0102736Y0090104D01*
X0102855Y0090064D01*
X0102972Y0090019D01*
X0103089Y0089971D01*
X0103203Y0089919D01*
X0103316Y0089864D01*
X0103427Y0089805D01*
X0103536Y0089743D01*
X0103643Y0089677D01*
X0103748Y0089608D01*
X0103851Y0089536D01*
X0103952Y0089461D01*
X0104050Y0089382D01*
X0104145Y0089300D01*
X0104238Y0089216D01*
X0104328Y0089128D01*
X0104416Y0089038D01*
X0104500Y0088945D01*
X0104582Y0088850D01*
X0104661Y0088752D01*
X0104736Y0088651D01*
X0104808Y0088548D01*
X0104877Y0088443D01*
X0104943Y0088336D01*
X0105005Y0088227D01*
X0105064Y0088116D01*
X0105119Y0088003D01*
X0105171Y0087889D01*
X0105219Y0087772D01*
X0105264Y0087655D01*
X0105304Y0087536D01*
X0105341Y0087416D01*
X0105374Y0087295D01*
X0105404Y0087173D01*
X0105429Y0087050D01*
X0105451Y0086926D01*
X0105468Y0086801D01*
X0105482Y0086676D01*
X0105492Y0086551D01*
X0105498Y0086426D01*
X0105500Y0086300D01*
X0105498Y0086174D01*
X0105492Y0086049D01*
X0105482Y0085924D01*
X0105468Y0085799D01*
X0105451Y0085674D01*
X0105429Y0085550D01*
X0105404Y0085427D01*
X0105374Y0085305D01*
X0105341Y0085184D01*
X0105304Y0085064D01*
X0105264Y0084945D01*
X0105219Y0084828D01*
X0105171Y0084711D01*
X0105119Y0084597D01*
X0105064Y0084484D01*
X0105005Y0084373D01*
X0104943Y0084264D01*
X0104877Y0084157D01*
X0104808Y0084052D01*
X0104736Y0083949D01*
X0104661Y0083848D01*
X0104582Y0083750D01*
X0104500Y0083655D01*
X0104416Y0083562D01*
X0104328Y0083472D01*
X0104238Y0083384D01*
X0104145Y0083300D01*
X0104050Y0083218D01*
X0103952Y0083139D01*
X0103851Y0083064D01*
X0103748Y0082992D01*
X0103643Y0082923D01*
X0103536Y0082857D01*
X0103427Y0082795D01*
X0103316Y0082736D01*
X0103203Y0082681D01*
X0103089Y0082629D01*
X0102972Y0082581D01*
X0102855Y0082536D01*
X0102736Y0082496D01*
X0102616Y0082459D01*
X0102495Y0082426D01*
X0102373Y0082396D01*
X0102250Y0082371D01*
X0102126Y0082349D01*
X0102001Y0082332D01*
X0101876Y0082318D01*
X0101751Y0082308D01*
X0101626Y0082302D01*
X0101500Y0082300D01*
X0101500Y0074800D01*
X0171500Y0074800D01*
X0176500Y0047800D02*
X0176500Y0024800D01*
X0106500Y0024800D01*
X0106500Y0032300D01*
X0106626Y0032302D01*
X0106751Y0032308D01*
X0106876Y0032318D01*
X0107001Y0032332D01*
X0107126Y0032349D01*
X0107250Y0032371D01*
X0107373Y0032396D01*
X0107495Y0032426D01*
X0107616Y0032459D01*
X0107736Y0032496D01*
X0107855Y0032536D01*
X0107972Y0032581D01*
X0108089Y0032629D01*
X0108203Y0032681D01*
X0108316Y0032736D01*
X0108427Y0032795D01*
X0108536Y0032857D01*
X0108643Y0032923D01*
X0108748Y0032992D01*
X0108851Y0033064D01*
X0108952Y0033139D01*
X0109050Y0033218D01*
X0109145Y0033300D01*
X0109238Y0033384D01*
X0109328Y0033472D01*
X0109416Y0033562D01*
X0109500Y0033655D01*
X0109582Y0033750D01*
X0109661Y0033848D01*
X0109736Y0033949D01*
X0109808Y0034052D01*
X0109877Y0034157D01*
X0109943Y0034264D01*
X0110005Y0034373D01*
X0110064Y0034484D01*
X0110119Y0034597D01*
X0110171Y0034711D01*
X0110219Y0034828D01*
X0110264Y0034945D01*
X0110304Y0035064D01*
X0110341Y0035184D01*
X0110374Y0035305D01*
X0110404Y0035427D01*
X0110429Y0035550D01*
X0110451Y0035674D01*
X0110468Y0035799D01*
X0110482Y0035924D01*
X0110492Y0036049D01*
X0110498Y0036174D01*
X0110500Y0036300D01*
X0110498Y0036426D01*
X0110492Y0036551D01*
X0110482Y0036676D01*
X0110468Y0036801D01*
X0110451Y0036926D01*
X0110429Y0037050D01*
X0110404Y0037173D01*
X0110374Y0037295D01*
X0110341Y0037416D01*
X0110304Y0037536D01*
X0110264Y0037655D01*
X0110219Y0037772D01*
X0110171Y0037889D01*
X0110119Y0038003D01*
X0110064Y0038116D01*
X0110005Y0038227D01*
X0109943Y0038336D01*
X0109877Y0038443D01*
X0109808Y0038548D01*
X0109736Y0038651D01*
X0109661Y0038752D01*
X0109582Y0038850D01*
X0109500Y0038945D01*
X0109416Y0039038D01*
X0109328Y0039128D01*
X0109238Y0039216D01*
X0109145Y0039300D01*
X0109050Y0039382D01*
X0108952Y0039461D01*
X0108851Y0039536D01*
X0108748Y0039608D01*
X0108643Y0039677D01*
X0108536Y0039743D01*
X0108427Y0039805D01*
X0108316Y0039864D01*
X0108203Y0039919D01*
X0108089Y0039971D01*
X0107972Y0040019D01*
X0107855Y0040064D01*
X0107736Y0040104D01*
X0107616Y0040141D01*
X0107495Y0040174D01*
X0107373Y0040204D01*
X0107250Y0040229D01*
X0107126Y0040251D01*
X0107001Y0040268D01*
X0106876Y0040282D01*
X0106751Y0040292D01*
X0106626Y0040298D01*
X0106500Y0040300D01*
X0106500Y0047800D01*
X0176500Y0047800D01*
X0181500Y0044800D02*
X0181500Y0027800D01*
X0181502Y0027740D01*
X0181507Y0027679D01*
X0181516Y0027620D01*
X0181529Y0027561D01*
X0181545Y0027502D01*
X0181565Y0027445D01*
X0181588Y0027390D01*
X0181615Y0027335D01*
X0181644Y0027283D01*
X0181677Y0027232D01*
X0181713Y0027183D01*
X0181751Y0027137D01*
X0181793Y0027093D01*
X0181837Y0027051D01*
X0181883Y0027013D01*
X0181932Y0026977D01*
X0181983Y0026944D01*
X0182035Y0026915D01*
X0182090Y0026888D01*
X0182145Y0026865D01*
X0182202Y0026845D01*
X0182261Y0026829D01*
X0182320Y0026816D01*
X0182379Y0026807D01*
X0182440Y0026802D01*
X0182500Y0026800D01*
X0190500Y0026800D01*
X0190560Y0026802D01*
X0190621Y0026807D01*
X0190680Y0026816D01*
X0190739Y0026829D01*
X0190798Y0026845D01*
X0190855Y0026865D01*
X0190910Y0026888D01*
X0190965Y0026915D01*
X0191017Y0026944D01*
X0191068Y0026977D01*
X0191117Y0027013D01*
X0191163Y0027051D01*
X0191207Y0027093D01*
X0191249Y0027137D01*
X0191287Y0027183D01*
X0191323Y0027232D01*
X0191356Y0027283D01*
X0191385Y0027335D01*
X0191412Y0027390D01*
X0191435Y0027445D01*
X0191455Y0027502D01*
X0191471Y0027561D01*
X0191484Y0027620D01*
X0191493Y0027679D01*
X0191498Y0027740D01*
X0191500Y0027800D01*
X0191500Y0044800D01*
X0191498Y0044860D01*
X0191493Y0044921D01*
X0191484Y0044980D01*
X0191471Y0045039D01*
X0191455Y0045098D01*
X0191435Y0045155D01*
X0191412Y0045210D01*
X0191385Y0045265D01*
X0191356Y0045317D01*
X0191323Y0045368D01*
X0191287Y0045417D01*
X0191249Y0045463D01*
X0191207Y0045507D01*
X0191163Y0045549D01*
X0191117Y0045587D01*
X0191068Y0045623D01*
X0191017Y0045656D01*
X0190965Y0045685D01*
X0190910Y0045712D01*
X0190855Y0045735D01*
X0190798Y0045755D01*
X0190739Y0045771D01*
X0190680Y0045784D01*
X0190621Y0045793D01*
X0190560Y0045798D01*
X0190500Y0045800D01*
X0182500Y0045800D01*
X0182440Y0045798D01*
X0182379Y0045793D01*
X0182320Y0045784D01*
X0182261Y0045771D01*
X0182202Y0045755D01*
X0182145Y0045735D01*
X0182090Y0045712D01*
X0182035Y0045685D01*
X0181983Y0045656D01*
X0181932Y0045623D01*
X0181883Y0045587D01*
X0181837Y0045549D01*
X0181793Y0045507D01*
X0181751Y0045463D01*
X0181713Y0045417D01*
X0181677Y0045368D01*
X0181644Y0045317D01*
X0181615Y0045265D01*
X0181588Y0045210D01*
X0181565Y0045155D01*
X0181545Y0045098D01*
X0181529Y0045039D01*
X0181516Y0044980D01*
X0181507Y0044921D01*
X0181502Y0044860D01*
X0181500Y0044800D01*
X0186500Y0037800D02*
X0186500Y0037300D01*
X0186500Y0035300D02*
X0186500Y0034800D01*
X0191500Y0032300D02*
X0191626Y0032302D01*
X0191751Y0032308D01*
X0191876Y0032318D01*
X0192001Y0032332D01*
X0192126Y0032349D01*
X0192250Y0032371D01*
X0192373Y0032396D01*
X0192495Y0032426D01*
X0192616Y0032459D01*
X0192736Y0032496D01*
X0192855Y0032536D01*
X0192972Y0032581D01*
X0193089Y0032629D01*
X0193203Y0032681D01*
X0193316Y0032736D01*
X0193427Y0032795D01*
X0193536Y0032857D01*
X0193643Y0032923D01*
X0193748Y0032992D01*
X0193851Y0033064D01*
X0193952Y0033139D01*
X0194050Y0033218D01*
X0194145Y0033300D01*
X0194238Y0033384D01*
X0194328Y0033472D01*
X0194416Y0033562D01*
X0194500Y0033655D01*
X0194582Y0033750D01*
X0194661Y0033848D01*
X0194736Y0033949D01*
X0194808Y0034052D01*
X0194877Y0034157D01*
X0194943Y0034264D01*
X0195005Y0034373D01*
X0195064Y0034484D01*
X0195119Y0034597D01*
X0195171Y0034711D01*
X0195219Y0034828D01*
X0195264Y0034945D01*
X0195304Y0035064D01*
X0195341Y0035184D01*
X0195374Y0035305D01*
X0195404Y0035427D01*
X0195429Y0035550D01*
X0195451Y0035674D01*
X0195468Y0035799D01*
X0195482Y0035924D01*
X0195492Y0036049D01*
X0195498Y0036174D01*
X0195500Y0036300D01*
X0195498Y0036426D01*
X0195492Y0036551D01*
X0195482Y0036676D01*
X0195468Y0036801D01*
X0195451Y0036926D01*
X0195429Y0037050D01*
X0195404Y0037173D01*
X0195374Y0037295D01*
X0195341Y0037416D01*
X0195304Y0037536D01*
X0195264Y0037655D01*
X0195219Y0037772D01*
X0195171Y0037889D01*
X0195119Y0038003D01*
X0195064Y0038116D01*
X0195005Y0038227D01*
X0194943Y0038336D01*
X0194877Y0038443D01*
X0194808Y0038548D01*
X0194736Y0038651D01*
X0194661Y0038752D01*
X0194582Y0038850D01*
X0194500Y0038945D01*
X0194416Y0039038D01*
X0194328Y0039128D01*
X0194238Y0039216D01*
X0194145Y0039300D01*
X0194050Y0039382D01*
X0193952Y0039461D01*
X0193851Y0039536D01*
X0193748Y0039608D01*
X0193643Y0039677D01*
X0193536Y0039743D01*
X0193427Y0039805D01*
X0193316Y0039864D01*
X0193203Y0039919D01*
X0193089Y0039971D01*
X0192972Y0040019D01*
X0192855Y0040064D01*
X0192736Y0040104D01*
X0192616Y0040141D01*
X0192495Y0040174D01*
X0192373Y0040204D01*
X0192250Y0040229D01*
X0192126Y0040251D01*
X0192001Y0040268D01*
X0191876Y0040282D01*
X0191751Y0040292D01*
X0191626Y0040298D01*
X0191500Y0040300D01*
X0191500Y0047800D01*
X0271500Y0047800D01*
X0271500Y0024800D01*
X0191500Y0024800D01*
X0191500Y0032300D01*
X0101500Y0027800D02*
X0101500Y0044800D01*
X0101498Y0044860D01*
X0101493Y0044921D01*
X0101484Y0044980D01*
X0101471Y0045039D01*
X0101455Y0045098D01*
X0101435Y0045155D01*
X0101412Y0045210D01*
X0101385Y0045265D01*
X0101356Y0045317D01*
X0101323Y0045368D01*
X0101287Y0045417D01*
X0101249Y0045463D01*
X0101207Y0045507D01*
X0101163Y0045549D01*
X0101117Y0045587D01*
X0101068Y0045623D01*
X0101017Y0045656D01*
X0100965Y0045685D01*
X0100910Y0045712D01*
X0100855Y0045735D01*
X0100798Y0045755D01*
X0100739Y0045771D01*
X0100680Y0045784D01*
X0100621Y0045793D01*
X0100560Y0045798D01*
X0100500Y0045800D01*
X0092500Y0045800D01*
X0092440Y0045798D01*
X0092379Y0045793D01*
X0092320Y0045784D01*
X0092261Y0045771D01*
X0092202Y0045755D01*
X0092145Y0045735D01*
X0092090Y0045712D01*
X0092035Y0045685D01*
X0091983Y0045656D01*
X0091932Y0045623D01*
X0091883Y0045587D01*
X0091837Y0045549D01*
X0091793Y0045507D01*
X0091751Y0045463D01*
X0091713Y0045417D01*
X0091677Y0045368D01*
X0091644Y0045317D01*
X0091615Y0045265D01*
X0091588Y0045210D01*
X0091565Y0045155D01*
X0091545Y0045098D01*
X0091529Y0045039D01*
X0091516Y0044980D01*
X0091507Y0044921D01*
X0091502Y0044860D01*
X0091500Y0044800D01*
X0091500Y0027800D01*
X0091502Y0027740D01*
X0091507Y0027679D01*
X0091516Y0027620D01*
X0091529Y0027561D01*
X0091545Y0027502D01*
X0091565Y0027445D01*
X0091588Y0027390D01*
X0091615Y0027335D01*
X0091644Y0027283D01*
X0091677Y0027232D01*
X0091713Y0027183D01*
X0091751Y0027137D01*
X0091793Y0027093D01*
X0091837Y0027051D01*
X0091883Y0027013D01*
X0091932Y0026977D01*
X0091983Y0026944D01*
X0092035Y0026915D01*
X0092090Y0026888D01*
X0092145Y0026865D01*
X0092202Y0026845D01*
X0092261Y0026829D01*
X0092320Y0026816D01*
X0092379Y0026807D01*
X0092440Y0026802D01*
X0092500Y0026800D01*
X0100500Y0026800D01*
X0100560Y0026802D01*
X0100621Y0026807D01*
X0100680Y0026816D01*
X0100739Y0026829D01*
X0100798Y0026845D01*
X0100855Y0026865D01*
X0100910Y0026888D01*
X0100965Y0026915D01*
X0101017Y0026944D01*
X0101068Y0026977D01*
X0101117Y0027013D01*
X0101163Y0027051D01*
X0101207Y0027093D01*
X0101249Y0027137D01*
X0101287Y0027183D01*
X0101323Y0027232D01*
X0101356Y0027283D01*
X0101385Y0027335D01*
X0101412Y0027390D01*
X0101435Y0027445D01*
X0101455Y0027502D01*
X0101471Y0027561D01*
X0101484Y0027620D01*
X0101493Y0027679D01*
X0101498Y0027740D01*
X0101500Y0027800D01*
X0096500Y0034800D02*
X0096500Y0035300D01*
X0096500Y0037300D02*
X0096500Y0037800D01*
X0092500Y0076800D02*
X0100500Y0076800D01*
X0100560Y0076802D01*
X0100621Y0076807D01*
X0100680Y0076816D01*
X0100739Y0076829D01*
X0100798Y0076845D01*
X0100855Y0076865D01*
X0100910Y0076888D01*
X0100965Y0076915D01*
X0101017Y0076944D01*
X0101068Y0076977D01*
X0101117Y0077013D01*
X0101163Y0077051D01*
X0101207Y0077093D01*
X0101249Y0077137D01*
X0101287Y0077183D01*
X0101323Y0077232D01*
X0101356Y0077283D01*
X0101385Y0077335D01*
X0101412Y0077390D01*
X0101435Y0077445D01*
X0101455Y0077502D01*
X0101471Y0077561D01*
X0101484Y0077620D01*
X0101493Y0077679D01*
X0101498Y0077740D01*
X0101500Y0077800D01*
X0101500Y0094800D01*
X0101498Y0094860D01*
X0101493Y0094921D01*
X0101484Y0094980D01*
X0101471Y0095039D01*
X0101455Y0095098D01*
X0101435Y0095155D01*
X0101412Y0095210D01*
X0101385Y0095265D01*
X0101356Y0095317D01*
X0101323Y0095368D01*
X0101287Y0095417D01*
X0101249Y0095463D01*
X0101207Y0095507D01*
X0101163Y0095549D01*
X0101117Y0095587D01*
X0101068Y0095623D01*
X0101017Y0095656D01*
X0100965Y0095685D01*
X0100910Y0095712D01*
X0100855Y0095735D01*
X0100798Y0095755D01*
X0100739Y0095771D01*
X0100680Y0095784D01*
X0100621Y0095793D01*
X0100560Y0095798D01*
X0100500Y0095800D01*
X0092500Y0095800D01*
X0092440Y0095798D01*
X0092379Y0095793D01*
X0092320Y0095784D01*
X0092261Y0095771D01*
X0092202Y0095755D01*
X0092145Y0095735D01*
X0092090Y0095712D01*
X0092035Y0095685D01*
X0091983Y0095656D01*
X0091932Y0095623D01*
X0091883Y0095587D01*
X0091837Y0095549D01*
X0091793Y0095507D01*
X0091751Y0095463D01*
X0091713Y0095417D01*
X0091677Y0095368D01*
X0091644Y0095317D01*
X0091615Y0095265D01*
X0091588Y0095210D01*
X0091565Y0095155D01*
X0091545Y0095098D01*
X0091529Y0095039D01*
X0091516Y0094980D01*
X0091507Y0094921D01*
X0091502Y0094860D01*
X0091500Y0094800D01*
X0091500Y0077800D01*
X0091502Y0077740D01*
X0091507Y0077679D01*
X0091516Y0077620D01*
X0091529Y0077561D01*
X0091545Y0077502D01*
X0091565Y0077445D01*
X0091588Y0077390D01*
X0091615Y0077335D01*
X0091644Y0077283D01*
X0091677Y0077232D01*
X0091713Y0077183D01*
X0091751Y0077137D01*
X0091793Y0077093D01*
X0091837Y0077051D01*
X0091883Y0077013D01*
X0091932Y0076977D01*
X0091983Y0076944D01*
X0092035Y0076915D01*
X0092090Y0076888D01*
X0092145Y0076865D01*
X0092202Y0076845D01*
X0092261Y0076829D01*
X0092320Y0076816D01*
X0092379Y0076807D01*
X0092440Y0076802D01*
X0092500Y0076800D01*
X0096500Y0084800D02*
X0096500Y0085300D01*
X0096500Y0087300D02*
X0096500Y0087800D01*
X0092500Y0126800D02*
X0100500Y0126800D01*
X0100560Y0126802D01*
X0100621Y0126807D01*
X0100680Y0126816D01*
X0100739Y0126829D01*
X0100798Y0126845D01*
X0100855Y0126865D01*
X0100910Y0126888D01*
X0100965Y0126915D01*
X0101017Y0126944D01*
X0101068Y0126977D01*
X0101117Y0127013D01*
X0101163Y0127051D01*
X0101207Y0127093D01*
X0101249Y0127137D01*
X0101287Y0127183D01*
X0101323Y0127232D01*
X0101356Y0127283D01*
X0101385Y0127335D01*
X0101412Y0127390D01*
X0101435Y0127445D01*
X0101455Y0127502D01*
X0101471Y0127561D01*
X0101484Y0127620D01*
X0101493Y0127679D01*
X0101498Y0127740D01*
X0101500Y0127800D01*
X0101500Y0144800D01*
X0101498Y0144860D01*
X0101493Y0144921D01*
X0101484Y0144980D01*
X0101471Y0145039D01*
X0101455Y0145098D01*
X0101435Y0145155D01*
X0101412Y0145210D01*
X0101385Y0145265D01*
X0101356Y0145317D01*
X0101323Y0145368D01*
X0101287Y0145417D01*
X0101249Y0145463D01*
X0101207Y0145507D01*
X0101163Y0145549D01*
X0101117Y0145587D01*
X0101068Y0145623D01*
X0101017Y0145656D01*
X0100965Y0145685D01*
X0100910Y0145712D01*
X0100855Y0145735D01*
X0100798Y0145755D01*
X0100739Y0145771D01*
X0100680Y0145784D01*
X0100621Y0145793D01*
X0100560Y0145798D01*
X0100500Y0145800D01*
X0092500Y0145800D01*
X0092440Y0145798D01*
X0092379Y0145793D01*
X0092320Y0145784D01*
X0092261Y0145771D01*
X0092202Y0145755D01*
X0092145Y0145735D01*
X0092090Y0145712D01*
X0092035Y0145685D01*
X0091983Y0145656D01*
X0091932Y0145623D01*
X0091883Y0145587D01*
X0091837Y0145549D01*
X0091793Y0145507D01*
X0091751Y0145463D01*
X0091713Y0145417D01*
X0091677Y0145368D01*
X0091644Y0145317D01*
X0091615Y0145265D01*
X0091588Y0145210D01*
X0091565Y0145155D01*
X0091545Y0145098D01*
X0091529Y0145039D01*
X0091516Y0144980D01*
X0091507Y0144921D01*
X0091502Y0144860D01*
X0091500Y0144800D01*
X0091500Y0127800D01*
X0091502Y0127740D01*
X0091507Y0127679D01*
X0091516Y0127620D01*
X0091529Y0127561D01*
X0091545Y0127502D01*
X0091565Y0127445D01*
X0091588Y0127390D01*
X0091615Y0127335D01*
X0091644Y0127283D01*
X0091677Y0127232D01*
X0091713Y0127183D01*
X0091751Y0127137D01*
X0091793Y0127093D01*
X0091837Y0127051D01*
X0091883Y0127013D01*
X0091932Y0126977D01*
X0091983Y0126944D01*
X0092035Y0126915D01*
X0092090Y0126888D01*
X0092145Y0126865D01*
X0092202Y0126845D01*
X0092261Y0126829D01*
X0092320Y0126816D01*
X0092379Y0126807D01*
X0092440Y0126802D01*
X0092500Y0126800D01*
X0096500Y0134800D02*
X0096500Y0135300D01*
X0096500Y0137300D02*
X0096500Y0137800D01*
X0092500Y0176800D02*
X0100500Y0176800D01*
X0100560Y0176802D01*
X0100621Y0176807D01*
X0100680Y0176816D01*
X0100739Y0176829D01*
X0100798Y0176845D01*
X0100855Y0176865D01*
X0100910Y0176888D01*
X0100965Y0176915D01*
X0101017Y0176944D01*
X0101068Y0176977D01*
X0101117Y0177013D01*
X0101163Y0177051D01*
X0101207Y0177093D01*
X0101249Y0177137D01*
X0101287Y0177183D01*
X0101323Y0177232D01*
X0101356Y0177283D01*
X0101385Y0177335D01*
X0101412Y0177390D01*
X0101435Y0177445D01*
X0101455Y0177502D01*
X0101471Y0177561D01*
X0101484Y0177620D01*
X0101493Y0177679D01*
X0101498Y0177740D01*
X0101500Y0177800D01*
X0101500Y0194800D01*
X0101498Y0194860D01*
X0101493Y0194921D01*
X0101484Y0194980D01*
X0101471Y0195039D01*
X0101455Y0195098D01*
X0101435Y0195155D01*
X0101412Y0195210D01*
X0101385Y0195265D01*
X0101356Y0195317D01*
X0101323Y0195368D01*
X0101287Y0195417D01*
X0101249Y0195463D01*
X0101207Y0195507D01*
X0101163Y0195549D01*
X0101117Y0195587D01*
X0101068Y0195623D01*
X0101017Y0195656D01*
X0100965Y0195685D01*
X0100910Y0195712D01*
X0100855Y0195735D01*
X0100798Y0195755D01*
X0100739Y0195771D01*
X0100680Y0195784D01*
X0100621Y0195793D01*
X0100560Y0195798D01*
X0100500Y0195800D01*
X0092500Y0195800D01*
X0092440Y0195798D01*
X0092379Y0195793D01*
X0092320Y0195784D01*
X0092261Y0195771D01*
X0092202Y0195755D01*
X0092145Y0195735D01*
X0092090Y0195712D01*
X0092035Y0195685D01*
X0091983Y0195656D01*
X0091932Y0195623D01*
X0091883Y0195587D01*
X0091837Y0195549D01*
X0091793Y0195507D01*
X0091751Y0195463D01*
X0091713Y0195417D01*
X0091677Y0195368D01*
X0091644Y0195317D01*
X0091615Y0195265D01*
X0091588Y0195210D01*
X0091565Y0195155D01*
X0091545Y0195098D01*
X0091529Y0195039D01*
X0091516Y0194980D01*
X0091507Y0194921D01*
X0091502Y0194860D01*
X0091500Y0194800D01*
X0091500Y0177800D01*
X0091502Y0177740D01*
X0091507Y0177679D01*
X0091516Y0177620D01*
X0091529Y0177561D01*
X0091545Y0177502D01*
X0091565Y0177445D01*
X0091588Y0177390D01*
X0091615Y0177335D01*
X0091644Y0177283D01*
X0091677Y0177232D01*
X0091713Y0177183D01*
X0091751Y0177137D01*
X0091793Y0177093D01*
X0091837Y0177051D01*
X0091883Y0177013D01*
X0091932Y0176977D01*
X0091983Y0176944D01*
X0092035Y0176915D01*
X0092090Y0176888D01*
X0092145Y0176865D01*
X0092202Y0176845D01*
X0092261Y0176829D01*
X0092320Y0176816D01*
X0092379Y0176807D01*
X0092440Y0176802D01*
X0092500Y0176800D01*
X0096500Y0184800D02*
X0096500Y0185300D01*
X0096500Y0187300D02*
X0096500Y0187800D01*
X0281500Y0194800D02*
X0281500Y0177800D01*
X0281502Y0177740D01*
X0281507Y0177679D01*
X0281516Y0177620D01*
X0281529Y0177561D01*
X0281545Y0177502D01*
X0281565Y0177445D01*
X0281588Y0177390D01*
X0281615Y0177335D01*
X0281644Y0177283D01*
X0281677Y0177232D01*
X0281713Y0177183D01*
X0281751Y0177137D01*
X0281793Y0177093D01*
X0281837Y0177051D01*
X0281883Y0177013D01*
X0281932Y0176977D01*
X0281983Y0176944D01*
X0282035Y0176915D01*
X0282090Y0176888D01*
X0282145Y0176865D01*
X0282202Y0176845D01*
X0282261Y0176829D01*
X0282320Y0176816D01*
X0282379Y0176807D01*
X0282440Y0176802D01*
X0282500Y0176800D01*
X0290500Y0176800D01*
X0290560Y0176802D01*
X0290621Y0176807D01*
X0290680Y0176816D01*
X0290739Y0176829D01*
X0290798Y0176845D01*
X0290855Y0176865D01*
X0290910Y0176888D01*
X0290965Y0176915D01*
X0291017Y0176944D01*
X0291068Y0176977D01*
X0291117Y0177013D01*
X0291163Y0177051D01*
X0291207Y0177093D01*
X0291249Y0177137D01*
X0291287Y0177183D01*
X0291323Y0177232D01*
X0291356Y0177283D01*
X0291385Y0177335D01*
X0291412Y0177390D01*
X0291435Y0177445D01*
X0291455Y0177502D01*
X0291471Y0177561D01*
X0291484Y0177620D01*
X0291493Y0177679D01*
X0291498Y0177740D01*
X0291500Y0177800D01*
X0291500Y0194800D01*
X0291498Y0194860D01*
X0291493Y0194921D01*
X0291484Y0194980D01*
X0291471Y0195039D01*
X0291455Y0195098D01*
X0291435Y0195155D01*
X0291412Y0195210D01*
X0291385Y0195265D01*
X0291356Y0195317D01*
X0291323Y0195368D01*
X0291287Y0195417D01*
X0291249Y0195463D01*
X0291207Y0195507D01*
X0291163Y0195549D01*
X0291117Y0195587D01*
X0291068Y0195623D01*
X0291017Y0195656D01*
X0290965Y0195685D01*
X0290910Y0195712D01*
X0290855Y0195735D01*
X0290798Y0195755D01*
X0290739Y0195771D01*
X0290680Y0195784D01*
X0290621Y0195793D01*
X0290560Y0195798D01*
X0290500Y0195800D01*
X0282500Y0195800D01*
X0282440Y0195798D01*
X0282379Y0195793D01*
X0282320Y0195784D01*
X0282261Y0195771D01*
X0282202Y0195755D01*
X0282145Y0195735D01*
X0282090Y0195712D01*
X0282035Y0195685D01*
X0281983Y0195656D01*
X0281932Y0195623D01*
X0281883Y0195587D01*
X0281837Y0195549D01*
X0281793Y0195507D01*
X0281751Y0195463D01*
X0281713Y0195417D01*
X0281677Y0195368D01*
X0281644Y0195317D01*
X0281615Y0195265D01*
X0281588Y0195210D01*
X0281565Y0195155D01*
X0281545Y0195098D01*
X0281529Y0195039D01*
X0281516Y0194980D01*
X0281507Y0194921D01*
X0281502Y0194860D01*
X0281500Y0194800D01*
X0286500Y0187800D02*
X0286500Y0187300D01*
X0286500Y0185300D02*
X0286500Y0184800D01*
X0291500Y0182300D02*
X0291626Y0182302D01*
X0291751Y0182308D01*
X0291876Y0182318D01*
X0292001Y0182332D01*
X0292126Y0182349D01*
X0292250Y0182371D01*
X0292373Y0182396D01*
X0292495Y0182426D01*
X0292616Y0182459D01*
X0292736Y0182496D01*
X0292855Y0182536D01*
X0292972Y0182581D01*
X0293089Y0182629D01*
X0293203Y0182681D01*
X0293316Y0182736D01*
X0293427Y0182795D01*
X0293536Y0182857D01*
X0293643Y0182923D01*
X0293748Y0182992D01*
X0293851Y0183064D01*
X0293952Y0183139D01*
X0294050Y0183218D01*
X0294145Y0183300D01*
X0294238Y0183384D01*
X0294328Y0183472D01*
X0294416Y0183562D01*
X0294500Y0183655D01*
X0294582Y0183750D01*
X0294661Y0183848D01*
X0294736Y0183949D01*
X0294808Y0184052D01*
X0294877Y0184157D01*
X0294943Y0184264D01*
X0295005Y0184373D01*
X0295064Y0184484D01*
X0295119Y0184597D01*
X0295171Y0184711D01*
X0295219Y0184828D01*
X0295264Y0184945D01*
X0295304Y0185064D01*
X0295341Y0185184D01*
X0295374Y0185305D01*
X0295404Y0185427D01*
X0295429Y0185550D01*
X0295451Y0185674D01*
X0295468Y0185799D01*
X0295482Y0185924D01*
X0295492Y0186049D01*
X0295498Y0186174D01*
X0295500Y0186300D01*
X0295498Y0186426D01*
X0295492Y0186551D01*
X0295482Y0186676D01*
X0295468Y0186801D01*
X0295451Y0186926D01*
X0295429Y0187050D01*
X0295404Y0187173D01*
X0295374Y0187295D01*
X0295341Y0187416D01*
X0295304Y0187536D01*
X0295264Y0187655D01*
X0295219Y0187772D01*
X0295171Y0187889D01*
X0295119Y0188003D01*
X0295064Y0188116D01*
X0295005Y0188227D01*
X0294943Y0188336D01*
X0294877Y0188443D01*
X0294808Y0188548D01*
X0294736Y0188651D01*
X0294661Y0188752D01*
X0294582Y0188850D01*
X0294500Y0188945D01*
X0294416Y0189038D01*
X0294328Y0189128D01*
X0294238Y0189216D01*
X0294145Y0189300D01*
X0294050Y0189382D01*
X0293952Y0189461D01*
X0293851Y0189536D01*
X0293748Y0189608D01*
X0293643Y0189677D01*
X0293536Y0189743D01*
X0293427Y0189805D01*
X0293316Y0189864D01*
X0293203Y0189919D01*
X0293089Y0189971D01*
X0292972Y0190019D01*
X0292855Y0190064D01*
X0292736Y0190104D01*
X0292616Y0190141D01*
X0292495Y0190174D01*
X0292373Y0190204D01*
X0292250Y0190229D01*
X0292126Y0190251D01*
X0292001Y0190268D01*
X0291876Y0190282D01*
X0291751Y0190292D01*
X0291626Y0190298D01*
X0291500Y0190300D01*
X0291500Y0197800D01*
X0391500Y0197800D01*
X0391500Y0174800D01*
X0291500Y0174800D01*
X0291500Y0182300D01*
X0291500Y0147800D02*
X0291500Y0140300D01*
X0291626Y0140298D01*
X0291751Y0140292D01*
X0291876Y0140282D01*
X0292001Y0140268D01*
X0292126Y0140251D01*
X0292250Y0140229D01*
X0292373Y0140204D01*
X0292495Y0140174D01*
X0292616Y0140141D01*
X0292736Y0140104D01*
X0292855Y0140064D01*
X0292972Y0140019D01*
X0293089Y0139971D01*
X0293203Y0139919D01*
X0293316Y0139864D01*
X0293427Y0139805D01*
X0293536Y0139743D01*
X0293643Y0139677D01*
X0293748Y0139608D01*
X0293851Y0139536D01*
X0293952Y0139461D01*
X0294050Y0139382D01*
X0294145Y0139300D01*
X0294238Y0139216D01*
X0294328Y0139128D01*
X0294416Y0139038D01*
X0294500Y0138945D01*
X0294582Y0138850D01*
X0294661Y0138752D01*
X0294736Y0138651D01*
X0294808Y0138548D01*
X0294877Y0138443D01*
X0294943Y0138336D01*
X0295005Y0138227D01*
X0295064Y0138116D01*
X0295119Y0138003D01*
X0295171Y0137889D01*
X0295219Y0137772D01*
X0295264Y0137655D01*
X0295304Y0137536D01*
X0295341Y0137416D01*
X0295374Y0137295D01*
X0295404Y0137173D01*
X0295429Y0137050D01*
X0295451Y0136926D01*
X0295468Y0136801D01*
X0295482Y0136676D01*
X0295492Y0136551D01*
X0295498Y0136426D01*
X0295500Y0136300D01*
X0295498Y0136174D01*
X0295492Y0136049D01*
X0295482Y0135924D01*
X0295468Y0135799D01*
X0295451Y0135674D01*
X0295429Y0135550D01*
X0295404Y0135427D01*
X0295374Y0135305D01*
X0295341Y0135184D01*
X0295304Y0135064D01*
X0295264Y0134945D01*
X0295219Y0134828D01*
X0295171Y0134711D01*
X0295119Y0134597D01*
X0295064Y0134484D01*
X0295005Y0134373D01*
X0294943Y0134264D01*
X0294877Y0134157D01*
X0294808Y0134052D01*
X0294736Y0133949D01*
X0294661Y0133848D01*
X0294582Y0133750D01*
X0294500Y0133655D01*
X0294416Y0133562D01*
X0294328Y0133472D01*
X0294238Y0133384D01*
X0294145Y0133300D01*
X0294050Y0133218D01*
X0293952Y0133139D01*
X0293851Y0133064D01*
X0293748Y0132992D01*
X0293643Y0132923D01*
X0293536Y0132857D01*
X0293427Y0132795D01*
X0293316Y0132736D01*
X0293203Y0132681D01*
X0293089Y0132629D01*
X0292972Y0132581D01*
X0292855Y0132536D01*
X0292736Y0132496D01*
X0292616Y0132459D01*
X0292495Y0132426D01*
X0292373Y0132396D01*
X0292250Y0132371D01*
X0292126Y0132349D01*
X0292001Y0132332D01*
X0291876Y0132318D01*
X0291751Y0132308D01*
X0291626Y0132302D01*
X0291500Y0132300D01*
X0291500Y0124800D01*
X0391500Y0124800D01*
X0391500Y0147800D01*
X0291500Y0147800D01*
X0290500Y0145800D02*
X0282500Y0145800D01*
X0282440Y0145798D01*
X0282379Y0145793D01*
X0282320Y0145784D01*
X0282261Y0145771D01*
X0282202Y0145755D01*
X0282145Y0145735D01*
X0282090Y0145712D01*
X0282035Y0145685D01*
X0281983Y0145656D01*
X0281932Y0145623D01*
X0281883Y0145587D01*
X0281837Y0145549D01*
X0281793Y0145507D01*
X0281751Y0145463D01*
X0281713Y0145417D01*
X0281677Y0145368D01*
X0281644Y0145317D01*
X0281615Y0145265D01*
X0281588Y0145210D01*
X0281565Y0145155D01*
X0281545Y0145098D01*
X0281529Y0145039D01*
X0281516Y0144980D01*
X0281507Y0144921D01*
X0281502Y0144860D01*
X0281500Y0144800D01*
X0281500Y0127800D01*
X0281502Y0127740D01*
X0281507Y0127679D01*
X0281516Y0127620D01*
X0281529Y0127561D01*
X0281545Y0127502D01*
X0281565Y0127445D01*
X0281588Y0127390D01*
X0281615Y0127335D01*
X0281644Y0127283D01*
X0281677Y0127232D01*
X0281713Y0127183D01*
X0281751Y0127137D01*
X0281793Y0127093D01*
X0281837Y0127051D01*
X0281883Y0127013D01*
X0281932Y0126977D01*
X0281983Y0126944D01*
X0282035Y0126915D01*
X0282090Y0126888D01*
X0282145Y0126865D01*
X0282202Y0126845D01*
X0282261Y0126829D01*
X0282320Y0126816D01*
X0282379Y0126807D01*
X0282440Y0126802D01*
X0282500Y0126800D01*
X0290500Y0126800D01*
X0290560Y0126802D01*
X0290621Y0126807D01*
X0290680Y0126816D01*
X0290739Y0126829D01*
X0290798Y0126845D01*
X0290855Y0126865D01*
X0290910Y0126888D01*
X0290965Y0126915D01*
X0291017Y0126944D01*
X0291068Y0126977D01*
X0291117Y0127013D01*
X0291163Y0127051D01*
X0291207Y0127093D01*
X0291249Y0127137D01*
X0291287Y0127183D01*
X0291323Y0127232D01*
X0291356Y0127283D01*
X0291385Y0127335D01*
X0291412Y0127390D01*
X0291435Y0127445D01*
X0291455Y0127502D01*
X0291471Y0127561D01*
X0291484Y0127620D01*
X0291493Y0127679D01*
X0291498Y0127740D01*
X0291500Y0127800D01*
X0291500Y0144800D01*
X0291498Y0144860D01*
X0291493Y0144921D01*
X0291484Y0144980D01*
X0291471Y0145039D01*
X0291455Y0145098D01*
X0291435Y0145155D01*
X0291412Y0145210D01*
X0291385Y0145265D01*
X0291356Y0145317D01*
X0291323Y0145368D01*
X0291287Y0145417D01*
X0291249Y0145463D01*
X0291207Y0145507D01*
X0291163Y0145549D01*
X0291117Y0145587D01*
X0291068Y0145623D01*
X0291017Y0145656D01*
X0290965Y0145685D01*
X0290910Y0145712D01*
X0290855Y0145735D01*
X0290798Y0145755D01*
X0290739Y0145771D01*
X0290680Y0145784D01*
X0290621Y0145793D01*
X0290560Y0145798D01*
X0290500Y0145800D01*
X0286500Y0137800D02*
X0286500Y0137300D01*
X0286500Y0135300D02*
X0286500Y0134800D01*
X0291500Y0097800D02*
X0291500Y0090300D01*
X0291626Y0090298D01*
X0291751Y0090292D01*
X0291876Y0090282D01*
X0292001Y0090268D01*
X0292126Y0090251D01*
X0292250Y0090229D01*
X0292373Y0090204D01*
X0292495Y0090174D01*
X0292616Y0090141D01*
X0292736Y0090104D01*
X0292855Y0090064D01*
X0292972Y0090019D01*
X0293089Y0089971D01*
X0293203Y0089919D01*
X0293316Y0089864D01*
X0293427Y0089805D01*
X0293536Y0089743D01*
X0293643Y0089677D01*
X0293748Y0089608D01*
X0293851Y0089536D01*
X0293952Y0089461D01*
X0294050Y0089382D01*
X0294145Y0089300D01*
X0294238Y0089216D01*
X0294328Y0089128D01*
X0294416Y0089038D01*
X0294500Y0088945D01*
X0294582Y0088850D01*
X0294661Y0088752D01*
X0294736Y0088651D01*
X0294808Y0088548D01*
X0294877Y0088443D01*
X0294943Y0088336D01*
X0295005Y0088227D01*
X0295064Y0088116D01*
X0295119Y0088003D01*
X0295171Y0087889D01*
X0295219Y0087772D01*
X0295264Y0087655D01*
X0295304Y0087536D01*
X0295341Y0087416D01*
X0295374Y0087295D01*
X0295404Y0087173D01*
X0295429Y0087050D01*
X0295451Y0086926D01*
X0295468Y0086801D01*
X0295482Y0086676D01*
X0295492Y0086551D01*
X0295498Y0086426D01*
X0295500Y0086300D01*
X0295498Y0086174D01*
X0295492Y0086049D01*
X0295482Y0085924D01*
X0295468Y0085799D01*
X0295451Y0085674D01*
X0295429Y0085550D01*
X0295404Y0085427D01*
X0295374Y0085305D01*
X0295341Y0085184D01*
X0295304Y0085064D01*
X0295264Y0084945D01*
X0295219Y0084828D01*
X0295171Y0084711D01*
X0295119Y0084597D01*
X0295064Y0084484D01*
X0295005Y0084373D01*
X0294943Y0084264D01*
X0294877Y0084157D01*
X0294808Y0084052D01*
X0294736Y0083949D01*
X0294661Y0083848D01*
X0294582Y0083750D01*
X0294500Y0083655D01*
X0294416Y0083562D01*
X0294328Y0083472D01*
X0294238Y0083384D01*
X0294145Y0083300D01*
X0294050Y0083218D01*
X0293952Y0083139D01*
X0293851Y0083064D01*
X0293748Y0082992D01*
X0293643Y0082923D01*
X0293536Y0082857D01*
X0293427Y0082795D01*
X0293316Y0082736D01*
X0293203Y0082681D01*
X0293089Y0082629D01*
X0292972Y0082581D01*
X0292855Y0082536D01*
X0292736Y0082496D01*
X0292616Y0082459D01*
X0292495Y0082426D01*
X0292373Y0082396D01*
X0292250Y0082371D01*
X0292126Y0082349D01*
X0292001Y0082332D01*
X0291876Y0082318D01*
X0291751Y0082308D01*
X0291626Y0082302D01*
X0291500Y0082300D01*
X0291500Y0074800D01*
X0391500Y0074800D01*
X0391500Y0097800D01*
X0291500Y0097800D01*
X0290500Y0095800D02*
X0282500Y0095800D01*
X0282440Y0095798D01*
X0282379Y0095793D01*
X0282320Y0095784D01*
X0282261Y0095771D01*
X0282202Y0095755D01*
X0282145Y0095735D01*
X0282090Y0095712D01*
X0282035Y0095685D01*
X0281983Y0095656D01*
X0281932Y0095623D01*
X0281883Y0095587D01*
X0281837Y0095549D01*
X0281793Y0095507D01*
X0281751Y0095463D01*
X0281713Y0095417D01*
X0281677Y0095368D01*
X0281644Y0095317D01*
X0281615Y0095265D01*
X0281588Y0095210D01*
X0281565Y0095155D01*
X0281545Y0095098D01*
X0281529Y0095039D01*
X0281516Y0094980D01*
X0281507Y0094921D01*
X0281502Y0094860D01*
X0281500Y0094800D01*
X0281500Y0077800D01*
X0281502Y0077740D01*
X0281507Y0077679D01*
X0281516Y0077620D01*
X0281529Y0077561D01*
X0281545Y0077502D01*
X0281565Y0077445D01*
X0281588Y0077390D01*
X0281615Y0077335D01*
X0281644Y0077283D01*
X0281677Y0077232D01*
X0281713Y0077183D01*
X0281751Y0077137D01*
X0281793Y0077093D01*
X0281837Y0077051D01*
X0281883Y0077013D01*
X0281932Y0076977D01*
X0281983Y0076944D01*
X0282035Y0076915D01*
X0282090Y0076888D01*
X0282145Y0076865D01*
X0282202Y0076845D01*
X0282261Y0076829D01*
X0282320Y0076816D01*
X0282379Y0076807D01*
X0282440Y0076802D01*
X0282500Y0076800D01*
X0290500Y0076800D01*
X0290560Y0076802D01*
X0290621Y0076807D01*
X0290680Y0076816D01*
X0290739Y0076829D01*
X0290798Y0076845D01*
X0290855Y0076865D01*
X0290910Y0076888D01*
X0290965Y0076915D01*
X0291017Y0076944D01*
X0291068Y0076977D01*
X0291117Y0077013D01*
X0291163Y0077051D01*
X0291207Y0077093D01*
X0291249Y0077137D01*
X0291287Y0077183D01*
X0291323Y0077232D01*
X0291356Y0077283D01*
X0291385Y0077335D01*
X0291412Y0077390D01*
X0291435Y0077445D01*
X0291455Y0077502D01*
X0291471Y0077561D01*
X0291484Y0077620D01*
X0291493Y0077679D01*
X0291498Y0077740D01*
X0291500Y0077800D01*
X0291500Y0094800D01*
X0291498Y0094860D01*
X0291493Y0094921D01*
X0291484Y0094980D01*
X0291471Y0095039D01*
X0291455Y0095098D01*
X0291435Y0095155D01*
X0291412Y0095210D01*
X0291385Y0095265D01*
X0291356Y0095317D01*
X0291323Y0095368D01*
X0291287Y0095417D01*
X0291249Y0095463D01*
X0291207Y0095507D01*
X0291163Y0095549D01*
X0291117Y0095587D01*
X0291068Y0095623D01*
X0291017Y0095656D01*
X0290965Y0095685D01*
X0290910Y0095712D01*
X0290855Y0095735D01*
X0290798Y0095755D01*
X0290739Y0095771D01*
X0290680Y0095784D01*
X0290621Y0095793D01*
X0290560Y0095798D01*
X0290500Y0095800D01*
X0286500Y0087800D02*
X0286500Y0087300D01*
X0286500Y0085300D02*
X0286500Y0084800D01*
X0291500Y0047800D02*
X0291500Y0040300D01*
X0291626Y0040298D01*
X0291751Y0040292D01*
X0291876Y0040282D01*
X0292001Y0040268D01*
X0292126Y0040251D01*
X0292250Y0040229D01*
X0292373Y0040204D01*
X0292495Y0040174D01*
X0292616Y0040141D01*
X0292736Y0040104D01*
X0292855Y0040064D01*
X0292972Y0040019D01*
X0293089Y0039971D01*
X0293203Y0039919D01*
X0293316Y0039864D01*
X0293427Y0039805D01*
X0293536Y0039743D01*
X0293643Y0039677D01*
X0293748Y0039608D01*
X0293851Y0039536D01*
X0293952Y0039461D01*
X0294050Y0039382D01*
X0294145Y0039300D01*
X0294238Y0039216D01*
X0294328Y0039128D01*
X0294416Y0039038D01*
X0294500Y0038945D01*
X0294582Y0038850D01*
X0294661Y0038752D01*
X0294736Y0038651D01*
X0294808Y0038548D01*
X0294877Y0038443D01*
X0294943Y0038336D01*
X0295005Y0038227D01*
X0295064Y0038116D01*
X0295119Y0038003D01*
X0295171Y0037889D01*
X0295219Y0037772D01*
X0295264Y0037655D01*
X0295304Y0037536D01*
X0295341Y0037416D01*
X0295374Y0037295D01*
X0295404Y0037173D01*
X0295429Y0037050D01*
X0295451Y0036926D01*
X0295468Y0036801D01*
X0295482Y0036676D01*
X0295492Y0036551D01*
X0295498Y0036426D01*
X0295500Y0036300D01*
X0295498Y0036174D01*
X0295492Y0036049D01*
X0295482Y0035924D01*
X0295468Y0035799D01*
X0295451Y0035674D01*
X0295429Y0035550D01*
X0295404Y0035427D01*
X0295374Y0035305D01*
X0295341Y0035184D01*
X0295304Y0035064D01*
X0295264Y0034945D01*
X0295219Y0034828D01*
X0295171Y0034711D01*
X0295119Y0034597D01*
X0295064Y0034484D01*
X0295005Y0034373D01*
X0294943Y0034264D01*
X0294877Y0034157D01*
X0294808Y0034052D01*
X0294736Y0033949D01*
X0294661Y0033848D01*
X0294582Y0033750D01*
X0294500Y0033655D01*
X0294416Y0033562D01*
X0294328Y0033472D01*
X0294238Y0033384D01*
X0294145Y0033300D01*
X0294050Y0033218D01*
X0293952Y0033139D01*
X0293851Y0033064D01*
X0293748Y0032992D01*
X0293643Y0032923D01*
X0293536Y0032857D01*
X0293427Y0032795D01*
X0293316Y0032736D01*
X0293203Y0032681D01*
X0293089Y0032629D01*
X0292972Y0032581D01*
X0292855Y0032536D01*
X0292736Y0032496D01*
X0292616Y0032459D01*
X0292495Y0032426D01*
X0292373Y0032396D01*
X0292250Y0032371D01*
X0292126Y0032349D01*
X0292001Y0032332D01*
X0291876Y0032318D01*
X0291751Y0032308D01*
X0291626Y0032302D01*
X0291500Y0032300D01*
X0291500Y0024800D01*
X0391500Y0024800D01*
X0391500Y0047800D01*
X0291500Y0047800D01*
X0290500Y0045800D02*
X0282500Y0045800D01*
X0282440Y0045798D01*
X0282379Y0045793D01*
X0282320Y0045784D01*
X0282261Y0045771D01*
X0282202Y0045755D01*
X0282145Y0045735D01*
X0282090Y0045712D01*
X0282035Y0045685D01*
X0281983Y0045656D01*
X0281932Y0045623D01*
X0281883Y0045587D01*
X0281837Y0045549D01*
X0281793Y0045507D01*
X0281751Y0045463D01*
X0281713Y0045417D01*
X0281677Y0045368D01*
X0281644Y0045317D01*
X0281615Y0045265D01*
X0281588Y0045210D01*
X0281565Y0045155D01*
X0281545Y0045098D01*
X0281529Y0045039D01*
X0281516Y0044980D01*
X0281507Y0044921D01*
X0281502Y0044860D01*
X0281500Y0044800D01*
X0281500Y0027800D01*
X0281502Y0027740D01*
X0281507Y0027679D01*
X0281516Y0027620D01*
X0281529Y0027561D01*
X0281545Y0027502D01*
X0281565Y0027445D01*
X0281588Y0027390D01*
X0281615Y0027335D01*
X0281644Y0027283D01*
X0281677Y0027232D01*
X0281713Y0027183D01*
X0281751Y0027137D01*
X0281793Y0027093D01*
X0281837Y0027051D01*
X0281883Y0027013D01*
X0281932Y0026977D01*
X0281983Y0026944D01*
X0282035Y0026915D01*
X0282090Y0026888D01*
X0282145Y0026865D01*
X0282202Y0026845D01*
X0282261Y0026829D01*
X0282320Y0026816D01*
X0282379Y0026807D01*
X0282440Y0026802D01*
X0282500Y0026800D01*
X0290500Y0026800D01*
X0290560Y0026802D01*
X0290621Y0026807D01*
X0290680Y0026816D01*
X0290739Y0026829D01*
X0290798Y0026845D01*
X0290855Y0026865D01*
X0290910Y0026888D01*
X0290965Y0026915D01*
X0291017Y0026944D01*
X0291068Y0026977D01*
X0291117Y0027013D01*
X0291163Y0027051D01*
X0291207Y0027093D01*
X0291249Y0027137D01*
X0291287Y0027183D01*
X0291323Y0027232D01*
X0291356Y0027283D01*
X0291385Y0027335D01*
X0291412Y0027390D01*
X0291435Y0027445D01*
X0291455Y0027502D01*
X0291471Y0027561D01*
X0291484Y0027620D01*
X0291493Y0027679D01*
X0291498Y0027740D01*
X0291500Y0027800D01*
X0291500Y0044800D01*
X0291498Y0044860D01*
X0291493Y0044921D01*
X0291484Y0044980D01*
X0291471Y0045039D01*
X0291455Y0045098D01*
X0291435Y0045155D01*
X0291412Y0045210D01*
X0291385Y0045265D01*
X0291356Y0045317D01*
X0291323Y0045368D01*
X0291287Y0045417D01*
X0291249Y0045463D01*
X0291207Y0045507D01*
X0291163Y0045549D01*
X0291117Y0045587D01*
X0291068Y0045623D01*
X0291017Y0045656D01*
X0290965Y0045685D01*
X0290910Y0045712D01*
X0290855Y0045735D01*
X0290798Y0045755D01*
X0290739Y0045771D01*
X0290680Y0045784D01*
X0290621Y0045793D01*
X0290560Y0045798D01*
X0290500Y0045800D01*
X0286500Y0037800D02*
X0286500Y0037300D01*
X0286500Y0035300D02*
X0286500Y0034800D01*
X0401500Y0138800D02*
X0401500Y0143800D01*
X0404000Y0146300D01*
X0419000Y0146300D01*
X0421500Y0143800D01*
X0421500Y0138800D01*
X0419000Y0136300D01*
X0404000Y0136300D01*
X0401500Y0138800D01*
X0404000Y0146300D02*
X0401500Y0148800D01*
X0401500Y0153800D01*
X0404000Y0156300D01*
X0419000Y0156300D01*
X0421500Y0153800D01*
X0421500Y0148800D01*
X0419000Y0146300D01*
X0419000Y0156300D02*
X0421500Y0158800D01*
X0421500Y0163800D01*
X0419000Y0166300D01*
X0404000Y0166300D01*
X0401500Y0168800D01*
X0401500Y0173800D01*
X0404000Y0176300D01*
X0419000Y0176300D01*
X0421500Y0173800D01*
X0421500Y0168800D01*
X0419000Y0166300D01*
X0419000Y0176300D02*
X0421500Y0178800D01*
X0421500Y0183800D01*
X0419000Y0186300D01*
X0404000Y0186300D01*
X0401500Y0188800D01*
X0401500Y0193800D01*
X0404000Y0196300D01*
X0419000Y0196300D01*
X0421500Y0193800D01*
X0421500Y0188800D01*
X0419000Y0186300D01*
X0419000Y0196300D02*
X0421500Y0198800D01*
X0421500Y0203800D01*
X0419000Y0206300D01*
X0404000Y0206300D01*
X0401500Y0208800D01*
X0401500Y0213800D01*
X0404000Y0216300D01*
X0419000Y0216300D01*
X0421500Y0213800D01*
X0421500Y0208800D01*
X0419000Y0206300D01*
X0419000Y0216300D02*
X0421500Y0218800D01*
X0421500Y0223800D01*
X0419000Y0226300D01*
X0404000Y0226300D01*
X0401500Y0228800D01*
X0401500Y0233800D01*
X0404000Y0236300D01*
X0419000Y0236300D01*
X0421500Y0233800D01*
X0421500Y0228800D01*
X0419000Y0226300D01*
X0419000Y0236300D02*
X0421500Y0238800D01*
X0421500Y0243800D01*
X0419000Y0246300D01*
X0404000Y0246300D01*
X0401500Y0248800D01*
X0401500Y0253800D01*
X0404000Y0256300D01*
X0419000Y0256300D01*
X0421500Y0253800D01*
X0421500Y0248800D01*
X0419000Y0246300D01*
X0419000Y0256300D02*
X0421500Y0258800D01*
X0421500Y0263800D01*
X0419000Y0266300D01*
X0404000Y0266300D01*
X0401500Y0268800D01*
X0401500Y0273800D01*
X0404000Y0276300D01*
X0419000Y0276300D01*
X0421500Y0273800D01*
X0421500Y0268800D01*
X0419000Y0266300D01*
X0419000Y0276300D02*
X0421500Y0278800D01*
X0421500Y0283800D01*
X0419000Y0286300D01*
X0404000Y0286300D01*
X0401500Y0283800D01*
X0401500Y0278800D01*
X0404000Y0276300D01*
X0404000Y0266300D02*
X0401500Y0263800D01*
X0401500Y0258800D01*
X0404000Y0256300D01*
X0404000Y0246300D02*
X0401500Y0243800D01*
X0401500Y0238800D01*
X0404000Y0236300D01*
X0404000Y0226300D02*
X0401500Y0223800D01*
X0401500Y0218800D01*
X0404000Y0216300D01*
X0404000Y0206300D02*
X0401500Y0203800D01*
X0401500Y0198800D01*
X0404000Y0196300D01*
X0404000Y0186300D02*
X0401500Y0183800D01*
X0401500Y0178800D01*
X0404000Y0176300D01*
X0404000Y0166300D02*
X0401500Y0163800D01*
X0401500Y0158800D01*
X0404000Y0156300D01*
X0391500Y0229800D02*
X0391500Y0252800D01*
X0291500Y0252800D01*
X0291500Y0245300D01*
X0291626Y0245298D01*
X0291751Y0245292D01*
X0291876Y0245282D01*
X0292001Y0245268D01*
X0292126Y0245251D01*
X0292250Y0245229D01*
X0292373Y0245204D01*
X0292495Y0245174D01*
X0292616Y0245141D01*
X0292736Y0245104D01*
X0292855Y0245064D01*
X0292972Y0245019D01*
X0293089Y0244971D01*
X0293203Y0244919D01*
X0293316Y0244864D01*
X0293427Y0244805D01*
X0293536Y0244743D01*
X0293643Y0244677D01*
X0293748Y0244608D01*
X0293851Y0244536D01*
X0293952Y0244461D01*
X0294050Y0244382D01*
X0294145Y0244300D01*
X0294238Y0244216D01*
X0294328Y0244128D01*
X0294416Y0244038D01*
X0294500Y0243945D01*
X0294582Y0243850D01*
X0294661Y0243752D01*
X0294736Y0243651D01*
X0294808Y0243548D01*
X0294877Y0243443D01*
X0294943Y0243336D01*
X0295005Y0243227D01*
X0295064Y0243116D01*
X0295119Y0243003D01*
X0295171Y0242889D01*
X0295219Y0242772D01*
X0295264Y0242655D01*
X0295304Y0242536D01*
X0295341Y0242416D01*
X0295374Y0242295D01*
X0295404Y0242173D01*
X0295429Y0242050D01*
X0295451Y0241926D01*
X0295468Y0241801D01*
X0295482Y0241676D01*
X0295492Y0241551D01*
X0295498Y0241426D01*
X0295500Y0241300D01*
X0295498Y0241174D01*
X0295492Y0241049D01*
X0295482Y0240924D01*
X0295468Y0240799D01*
X0295451Y0240674D01*
X0295429Y0240550D01*
X0295404Y0240427D01*
X0295374Y0240305D01*
X0295341Y0240184D01*
X0295304Y0240064D01*
X0295264Y0239945D01*
X0295219Y0239828D01*
X0295171Y0239711D01*
X0295119Y0239597D01*
X0295064Y0239484D01*
X0295005Y0239373D01*
X0294943Y0239264D01*
X0294877Y0239157D01*
X0294808Y0239052D01*
X0294736Y0238949D01*
X0294661Y0238848D01*
X0294582Y0238750D01*
X0294500Y0238655D01*
X0294416Y0238562D01*
X0294328Y0238472D01*
X0294238Y0238384D01*
X0294145Y0238300D01*
X0294050Y0238218D01*
X0293952Y0238139D01*
X0293851Y0238064D01*
X0293748Y0237992D01*
X0293643Y0237923D01*
X0293536Y0237857D01*
X0293427Y0237795D01*
X0293316Y0237736D01*
X0293203Y0237681D01*
X0293089Y0237629D01*
X0292972Y0237581D01*
X0292855Y0237536D01*
X0292736Y0237496D01*
X0292616Y0237459D01*
X0292495Y0237426D01*
X0292373Y0237396D01*
X0292250Y0237371D01*
X0292126Y0237349D01*
X0292001Y0237332D01*
X0291876Y0237318D01*
X0291751Y0237308D01*
X0291626Y0237302D01*
X0291500Y0237300D01*
X0291500Y0229800D01*
X0391500Y0229800D01*
X0391500Y0279800D02*
X0391500Y0302800D01*
X0291500Y0302800D01*
X0291500Y0295300D01*
X0291626Y0295298D01*
X0291751Y0295292D01*
X0291876Y0295282D01*
X0292001Y0295268D01*
X0292126Y0295251D01*
X0292250Y0295229D01*
X0292373Y0295204D01*
X0292495Y0295174D01*
X0292616Y0295141D01*
X0292736Y0295104D01*
X0292855Y0295064D01*
X0292972Y0295019D01*
X0293089Y0294971D01*
X0293203Y0294919D01*
X0293316Y0294864D01*
X0293427Y0294805D01*
X0293536Y0294743D01*
X0293643Y0294677D01*
X0293748Y0294608D01*
X0293851Y0294536D01*
X0293952Y0294461D01*
X0294050Y0294382D01*
X0294145Y0294300D01*
X0294238Y0294216D01*
X0294328Y0294128D01*
X0294416Y0294038D01*
X0294500Y0293945D01*
X0294582Y0293850D01*
X0294661Y0293752D01*
X0294736Y0293651D01*
X0294808Y0293548D01*
X0294877Y0293443D01*
X0294943Y0293336D01*
X0295005Y0293227D01*
X0295064Y0293116D01*
X0295119Y0293003D01*
X0295171Y0292889D01*
X0295219Y0292772D01*
X0295264Y0292655D01*
X0295304Y0292536D01*
X0295341Y0292416D01*
X0295374Y0292295D01*
X0295404Y0292173D01*
X0295429Y0292050D01*
X0295451Y0291926D01*
X0295468Y0291801D01*
X0295482Y0291676D01*
X0295492Y0291551D01*
X0295498Y0291426D01*
X0295500Y0291300D01*
X0295498Y0291174D01*
X0295492Y0291049D01*
X0295482Y0290924D01*
X0295468Y0290799D01*
X0295451Y0290674D01*
X0295429Y0290550D01*
X0295404Y0290427D01*
X0295374Y0290305D01*
X0295341Y0290184D01*
X0295304Y0290064D01*
X0295264Y0289945D01*
X0295219Y0289828D01*
X0295171Y0289711D01*
X0295119Y0289597D01*
X0295064Y0289484D01*
X0295005Y0289373D01*
X0294943Y0289264D01*
X0294877Y0289157D01*
X0294808Y0289052D01*
X0294736Y0288949D01*
X0294661Y0288848D01*
X0294582Y0288750D01*
X0294500Y0288655D01*
X0294416Y0288562D01*
X0294328Y0288472D01*
X0294238Y0288384D01*
X0294145Y0288300D01*
X0294050Y0288218D01*
X0293952Y0288139D01*
X0293851Y0288064D01*
X0293748Y0287992D01*
X0293643Y0287923D01*
X0293536Y0287857D01*
X0293427Y0287795D01*
X0293316Y0287736D01*
X0293203Y0287681D01*
X0293089Y0287629D01*
X0292972Y0287581D01*
X0292855Y0287536D01*
X0292736Y0287496D01*
X0292616Y0287459D01*
X0292495Y0287426D01*
X0292373Y0287396D01*
X0292250Y0287371D01*
X0292126Y0287349D01*
X0292001Y0287332D01*
X0291876Y0287318D01*
X0291751Y0287308D01*
X0291626Y0287302D01*
X0291500Y0287300D01*
X0291500Y0279800D01*
X0391500Y0279800D01*
X0401500Y0288800D02*
X0404000Y0286300D01*
X0401500Y0288800D02*
X0401500Y0293800D01*
X0404000Y0296300D01*
X0419000Y0296300D01*
X0421500Y0293800D01*
X0421500Y0288800D01*
X0419000Y0286300D01*
X0419000Y0296300D02*
X0421500Y0298800D01*
X0421500Y0303800D01*
X0419000Y0306300D01*
X0404000Y0306300D01*
X0401500Y0303800D01*
X0401500Y0298800D01*
X0404000Y0296300D01*
X0404000Y0306300D02*
X0401500Y0308800D01*
X0401500Y0313800D01*
X0404000Y0316300D01*
X0419000Y0316300D01*
X0421500Y0313800D01*
X0421500Y0308800D01*
X0419000Y0306300D01*
X0419000Y0316300D02*
X0421500Y0318800D01*
X0421500Y0323800D01*
X0419000Y0326300D01*
X0404000Y0326300D01*
X0401500Y0323800D01*
X0401500Y0318800D01*
X0404000Y0316300D01*
X0404000Y0326300D02*
X0401500Y0328800D01*
X0401500Y0333800D01*
X0404000Y0336300D01*
X0419000Y0336300D01*
X0421500Y0333800D01*
X0421500Y0328800D01*
X0419000Y0326300D01*
X0391500Y0329800D02*
X0391500Y0352800D01*
X0291500Y0352800D01*
X0291500Y0345300D01*
X0291626Y0345298D01*
X0291751Y0345292D01*
X0291876Y0345282D01*
X0292001Y0345268D01*
X0292126Y0345251D01*
X0292250Y0345229D01*
X0292373Y0345204D01*
X0292495Y0345174D01*
X0292616Y0345141D01*
X0292736Y0345104D01*
X0292855Y0345064D01*
X0292972Y0345019D01*
X0293089Y0344971D01*
X0293203Y0344919D01*
X0293316Y0344864D01*
X0293427Y0344805D01*
X0293536Y0344743D01*
X0293643Y0344677D01*
X0293748Y0344608D01*
X0293851Y0344536D01*
X0293952Y0344461D01*
X0294050Y0344382D01*
X0294145Y0344300D01*
X0294238Y0344216D01*
X0294328Y0344128D01*
X0294416Y0344038D01*
X0294500Y0343945D01*
X0294582Y0343850D01*
X0294661Y0343752D01*
X0294736Y0343651D01*
X0294808Y0343548D01*
X0294877Y0343443D01*
X0294943Y0343336D01*
X0295005Y0343227D01*
X0295064Y0343116D01*
X0295119Y0343003D01*
X0295171Y0342889D01*
X0295219Y0342772D01*
X0295264Y0342655D01*
X0295304Y0342536D01*
X0295341Y0342416D01*
X0295374Y0342295D01*
X0295404Y0342173D01*
X0295429Y0342050D01*
X0295451Y0341926D01*
X0295468Y0341801D01*
X0295482Y0341676D01*
X0295492Y0341551D01*
X0295498Y0341426D01*
X0295500Y0341300D01*
X0295498Y0341174D01*
X0295492Y0341049D01*
X0295482Y0340924D01*
X0295468Y0340799D01*
X0295451Y0340674D01*
X0295429Y0340550D01*
X0295404Y0340427D01*
X0295374Y0340305D01*
X0295341Y0340184D01*
X0295304Y0340064D01*
X0295264Y0339945D01*
X0295219Y0339828D01*
X0295171Y0339711D01*
X0295119Y0339597D01*
X0295064Y0339484D01*
X0295005Y0339373D01*
X0294943Y0339264D01*
X0294877Y0339157D01*
X0294808Y0339052D01*
X0294736Y0338949D01*
X0294661Y0338848D01*
X0294582Y0338750D01*
X0294500Y0338655D01*
X0294416Y0338562D01*
X0294328Y0338472D01*
X0294238Y0338384D01*
X0294145Y0338300D01*
X0294050Y0338218D01*
X0293952Y0338139D01*
X0293851Y0338064D01*
X0293748Y0337992D01*
X0293643Y0337923D01*
X0293536Y0337857D01*
X0293427Y0337795D01*
X0293316Y0337736D01*
X0293203Y0337681D01*
X0293089Y0337629D01*
X0292972Y0337581D01*
X0292855Y0337536D01*
X0292736Y0337496D01*
X0292616Y0337459D01*
X0292495Y0337426D01*
X0292373Y0337396D01*
X0292250Y0337371D01*
X0292126Y0337349D01*
X0292001Y0337332D01*
X0291876Y0337318D01*
X0291751Y0337308D01*
X0291626Y0337302D01*
X0291500Y0337300D01*
X0291500Y0329800D01*
X0391500Y0329800D01*
X0391500Y0379800D02*
X0391500Y0402800D01*
X0291500Y0402800D01*
X0291500Y0395300D01*
X0291626Y0395298D01*
X0291751Y0395292D01*
X0291876Y0395282D01*
X0292001Y0395268D01*
X0292126Y0395251D01*
X0292250Y0395229D01*
X0292373Y0395204D01*
X0292495Y0395174D01*
X0292616Y0395141D01*
X0292736Y0395104D01*
X0292855Y0395064D01*
X0292972Y0395019D01*
X0293089Y0394971D01*
X0293203Y0394919D01*
X0293316Y0394864D01*
X0293427Y0394805D01*
X0293536Y0394743D01*
X0293643Y0394677D01*
X0293748Y0394608D01*
X0293851Y0394536D01*
X0293952Y0394461D01*
X0294050Y0394382D01*
X0294145Y0394300D01*
X0294238Y0394216D01*
X0294328Y0394128D01*
X0294416Y0394038D01*
X0294500Y0393945D01*
X0294582Y0393850D01*
X0294661Y0393752D01*
X0294736Y0393651D01*
X0294808Y0393548D01*
X0294877Y0393443D01*
X0294943Y0393336D01*
X0295005Y0393227D01*
X0295064Y0393116D01*
X0295119Y0393003D01*
X0295171Y0392889D01*
X0295219Y0392772D01*
X0295264Y0392655D01*
X0295304Y0392536D01*
X0295341Y0392416D01*
X0295374Y0392295D01*
X0295404Y0392173D01*
X0295429Y0392050D01*
X0295451Y0391926D01*
X0295468Y0391801D01*
X0295482Y0391676D01*
X0295492Y0391551D01*
X0295498Y0391426D01*
X0295500Y0391300D01*
X0295498Y0391174D01*
X0295492Y0391049D01*
X0295482Y0390924D01*
X0295468Y0390799D01*
X0295451Y0390674D01*
X0295429Y0390550D01*
X0295404Y0390427D01*
X0295374Y0390305D01*
X0295341Y0390184D01*
X0295304Y0390064D01*
X0295264Y0389945D01*
X0295219Y0389828D01*
X0295171Y0389711D01*
X0295119Y0389597D01*
X0295064Y0389484D01*
X0295005Y0389373D01*
X0294943Y0389264D01*
X0294877Y0389157D01*
X0294808Y0389052D01*
X0294736Y0388949D01*
X0294661Y0388848D01*
X0294582Y0388750D01*
X0294500Y0388655D01*
X0294416Y0388562D01*
X0294328Y0388472D01*
X0294238Y0388384D01*
X0294145Y0388300D01*
X0294050Y0388218D01*
X0293952Y0388139D01*
X0293851Y0388064D01*
X0293748Y0387992D01*
X0293643Y0387923D01*
X0293536Y0387857D01*
X0293427Y0387795D01*
X0293316Y0387736D01*
X0293203Y0387681D01*
X0293089Y0387629D01*
X0292972Y0387581D01*
X0292855Y0387536D01*
X0292736Y0387496D01*
X0292616Y0387459D01*
X0292495Y0387426D01*
X0292373Y0387396D01*
X0292250Y0387371D01*
X0292126Y0387349D01*
X0292001Y0387332D01*
X0291876Y0387318D01*
X0291751Y0387308D01*
X0291626Y0387302D01*
X0291500Y0387300D01*
X0291500Y0379800D01*
X0391500Y0379800D01*
X0291500Y0382800D02*
X0291500Y0399800D01*
X0291498Y0399860D01*
X0291493Y0399921D01*
X0291484Y0399980D01*
X0291471Y0400039D01*
X0291455Y0400098D01*
X0291435Y0400155D01*
X0291412Y0400210D01*
X0291385Y0400265D01*
X0291356Y0400317D01*
X0291323Y0400368D01*
X0291287Y0400417D01*
X0291249Y0400463D01*
X0291207Y0400507D01*
X0291163Y0400549D01*
X0291117Y0400587D01*
X0291068Y0400623D01*
X0291017Y0400656D01*
X0290965Y0400685D01*
X0290910Y0400712D01*
X0290855Y0400735D01*
X0290798Y0400755D01*
X0290739Y0400771D01*
X0290680Y0400784D01*
X0290621Y0400793D01*
X0290560Y0400798D01*
X0290500Y0400800D01*
X0282500Y0400800D01*
X0282440Y0400798D01*
X0282379Y0400793D01*
X0282320Y0400784D01*
X0282261Y0400771D01*
X0282202Y0400755D01*
X0282145Y0400735D01*
X0282090Y0400712D01*
X0282035Y0400685D01*
X0281983Y0400656D01*
X0281932Y0400623D01*
X0281883Y0400587D01*
X0281837Y0400549D01*
X0281793Y0400507D01*
X0281751Y0400463D01*
X0281713Y0400417D01*
X0281677Y0400368D01*
X0281644Y0400317D01*
X0281615Y0400265D01*
X0281588Y0400210D01*
X0281565Y0400155D01*
X0281545Y0400098D01*
X0281529Y0400039D01*
X0281516Y0399980D01*
X0281507Y0399921D01*
X0281502Y0399860D01*
X0281500Y0399800D01*
X0281500Y0382800D01*
X0281502Y0382740D01*
X0281507Y0382679D01*
X0281516Y0382620D01*
X0281529Y0382561D01*
X0281545Y0382502D01*
X0281565Y0382445D01*
X0281588Y0382390D01*
X0281615Y0382335D01*
X0281644Y0382283D01*
X0281677Y0382232D01*
X0281713Y0382183D01*
X0281751Y0382137D01*
X0281793Y0382093D01*
X0281837Y0382051D01*
X0281883Y0382013D01*
X0281932Y0381977D01*
X0281983Y0381944D01*
X0282035Y0381915D01*
X0282090Y0381888D01*
X0282145Y0381865D01*
X0282202Y0381845D01*
X0282261Y0381829D01*
X0282320Y0381816D01*
X0282379Y0381807D01*
X0282440Y0381802D01*
X0282500Y0381800D01*
X0290500Y0381800D01*
X0290560Y0381802D01*
X0290621Y0381807D01*
X0290680Y0381816D01*
X0290739Y0381829D01*
X0290798Y0381845D01*
X0290855Y0381865D01*
X0290910Y0381888D01*
X0290965Y0381915D01*
X0291017Y0381944D01*
X0291068Y0381977D01*
X0291117Y0382013D01*
X0291163Y0382051D01*
X0291207Y0382093D01*
X0291249Y0382137D01*
X0291287Y0382183D01*
X0291323Y0382232D01*
X0291356Y0382283D01*
X0291385Y0382335D01*
X0291412Y0382390D01*
X0291435Y0382445D01*
X0291455Y0382502D01*
X0291471Y0382561D01*
X0291484Y0382620D01*
X0291493Y0382679D01*
X0291498Y0382740D01*
X0291500Y0382800D01*
X0286500Y0389800D02*
X0286500Y0390300D01*
X0286500Y0392300D02*
X0286500Y0392800D01*
X0282500Y0350800D02*
X0290500Y0350800D01*
X0290560Y0350798D01*
X0290621Y0350793D01*
X0290680Y0350784D01*
X0290739Y0350771D01*
X0290798Y0350755D01*
X0290855Y0350735D01*
X0290910Y0350712D01*
X0290965Y0350685D01*
X0291017Y0350656D01*
X0291068Y0350623D01*
X0291117Y0350587D01*
X0291163Y0350549D01*
X0291207Y0350507D01*
X0291249Y0350463D01*
X0291287Y0350417D01*
X0291323Y0350368D01*
X0291356Y0350317D01*
X0291385Y0350265D01*
X0291412Y0350210D01*
X0291435Y0350155D01*
X0291455Y0350098D01*
X0291471Y0350039D01*
X0291484Y0349980D01*
X0291493Y0349921D01*
X0291498Y0349860D01*
X0291500Y0349800D01*
X0291500Y0332800D01*
X0291498Y0332740D01*
X0291493Y0332679D01*
X0291484Y0332620D01*
X0291471Y0332561D01*
X0291455Y0332502D01*
X0291435Y0332445D01*
X0291412Y0332390D01*
X0291385Y0332335D01*
X0291356Y0332283D01*
X0291323Y0332232D01*
X0291287Y0332183D01*
X0291249Y0332137D01*
X0291207Y0332093D01*
X0291163Y0332051D01*
X0291117Y0332013D01*
X0291068Y0331977D01*
X0291017Y0331944D01*
X0290965Y0331915D01*
X0290910Y0331888D01*
X0290855Y0331865D01*
X0290798Y0331845D01*
X0290739Y0331829D01*
X0290680Y0331816D01*
X0290621Y0331807D01*
X0290560Y0331802D01*
X0290500Y0331800D01*
X0282500Y0331800D01*
X0282440Y0331802D01*
X0282379Y0331807D01*
X0282320Y0331816D01*
X0282261Y0331829D01*
X0282202Y0331845D01*
X0282145Y0331865D01*
X0282090Y0331888D01*
X0282035Y0331915D01*
X0281983Y0331944D01*
X0281932Y0331977D01*
X0281883Y0332013D01*
X0281837Y0332051D01*
X0281793Y0332093D01*
X0281751Y0332137D01*
X0281713Y0332183D01*
X0281677Y0332232D01*
X0281644Y0332283D01*
X0281615Y0332335D01*
X0281588Y0332390D01*
X0281565Y0332445D01*
X0281545Y0332502D01*
X0281529Y0332561D01*
X0281516Y0332620D01*
X0281507Y0332679D01*
X0281502Y0332740D01*
X0281500Y0332800D01*
X0281500Y0349800D01*
X0281502Y0349860D01*
X0281507Y0349921D01*
X0281516Y0349980D01*
X0281529Y0350039D01*
X0281545Y0350098D01*
X0281565Y0350155D01*
X0281588Y0350210D01*
X0281615Y0350265D01*
X0281644Y0350317D01*
X0281677Y0350368D01*
X0281713Y0350417D01*
X0281751Y0350463D01*
X0281793Y0350507D01*
X0281837Y0350549D01*
X0281883Y0350587D01*
X0281932Y0350623D01*
X0281983Y0350656D01*
X0282035Y0350685D01*
X0282090Y0350712D01*
X0282145Y0350735D01*
X0282202Y0350755D01*
X0282261Y0350771D01*
X0282320Y0350784D01*
X0282379Y0350793D01*
X0282440Y0350798D01*
X0282500Y0350800D01*
X0286500Y0342800D02*
X0286500Y0342300D01*
X0286500Y0340300D02*
X0286500Y0339800D01*
X0282500Y0300800D02*
X0290500Y0300800D01*
X0290560Y0300798D01*
X0290621Y0300793D01*
X0290680Y0300784D01*
X0290739Y0300771D01*
X0290798Y0300755D01*
X0290855Y0300735D01*
X0290910Y0300712D01*
X0290965Y0300685D01*
X0291017Y0300656D01*
X0291068Y0300623D01*
X0291117Y0300587D01*
X0291163Y0300549D01*
X0291207Y0300507D01*
X0291249Y0300463D01*
X0291287Y0300417D01*
X0291323Y0300368D01*
X0291356Y0300317D01*
X0291385Y0300265D01*
X0291412Y0300210D01*
X0291435Y0300155D01*
X0291455Y0300098D01*
X0291471Y0300039D01*
X0291484Y0299980D01*
X0291493Y0299921D01*
X0291498Y0299860D01*
X0291500Y0299800D01*
X0291500Y0282800D01*
X0291498Y0282740D01*
X0291493Y0282679D01*
X0291484Y0282620D01*
X0291471Y0282561D01*
X0291455Y0282502D01*
X0291435Y0282445D01*
X0291412Y0282390D01*
X0291385Y0282335D01*
X0291356Y0282283D01*
X0291323Y0282232D01*
X0291287Y0282183D01*
X0291249Y0282137D01*
X0291207Y0282093D01*
X0291163Y0282051D01*
X0291117Y0282013D01*
X0291068Y0281977D01*
X0291017Y0281944D01*
X0290965Y0281915D01*
X0290910Y0281888D01*
X0290855Y0281865D01*
X0290798Y0281845D01*
X0290739Y0281829D01*
X0290680Y0281816D01*
X0290621Y0281807D01*
X0290560Y0281802D01*
X0290500Y0281800D01*
X0282500Y0281800D01*
X0282440Y0281802D01*
X0282379Y0281807D01*
X0282320Y0281816D01*
X0282261Y0281829D01*
X0282202Y0281845D01*
X0282145Y0281865D01*
X0282090Y0281888D01*
X0282035Y0281915D01*
X0281983Y0281944D01*
X0281932Y0281977D01*
X0281883Y0282013D01*
X0281837Y0282051D01*
X0281793Y0282093D01*
X0281751Y0282137D01*
X0281713Y0282183D01*
X0281677Y0282232D01*
X0281644Y0282283D01*
X0281615Y0282335D01*
X0281588Y0282390D01*
X0281565Y0282445D01*
X0281545Y0282502D01*
X0281529Y0282561D01*
X0281516Y0282620D01*
X0281507Y0282679D01*
X0281502Y0282740D01*
X0281500Y0282800D01*
X0281500Y0299800D01*
X0281502Y0299860D01*
X0281507Y0299921D01*
X0281516Y0299980D01*
X0281529Y0300039D01*
X0281545Y0300098D01*
X0281565Y0300155D01*
X0281588Y0300210D01*
X0281615Y0300265D01*
X0281644Y0300317D01*
X0281677Y0300368D01*
X0281713Y0300417D01*
X0281751Y0300463D01*
X0281793Y0300507D01*
X0281837Y0300549D01*
X0281883Y0300587D01*
X0281932Y0300623D01*
X0281983Y0300656D01*
X0282035Y0300685D01*
X0282090Y0300712D01*
X0282145Y0300735D01*
X0282202Y0300755D01*
X0282261Y0300771D01*
X0282320Y0300784D01*
X0282379Y0300793D01*
X0282440Y0300798D01*
X0282500Y0300800D01*
X0286500Y0292800D02*
X0286500Y0292300D01*
X0286500Y0290300D02*
X0286500Y0289800D01*
X0282500Y0250800D02*
X0290500Y0250800D01*
X0290560Y0250798D01*
X0290621Y0250793D01*
X0290680Y0250784D01*
X0290739Y0250771D01*
X0290798Y0250755D01*
X0290855Y0250735D01*
X0290910Y0250712D01*
X0290965Y0250685D01*
X0291017Y0250656D01*
X0291068Y0250623D01*
X0291117Y0250587D01*
X0291163Y0250549D01*
X0291207Y0250507D01*
X0291249Y0250463D01*
X0291287Y0250417D01*
X0291323Y0250368D01*
X0291356Y0250317D01*
X0291385Y0250265D01*
X0291412Y0250210D01*
X0291435Y0250155D01*
X0291455Y0250098D01*
X0291471Y0250039D01*
X0291484Y0249980D01*
X0291493Y0249921D01*
X0291498Y0249860D01*
X0291500Y0249800D01*
X0291500Y0232800D01*
X0291498Y0232740D01*
X0291493Y0232679D01*
X0291484Y0232620D01*
X0291471Y0232561D01*
X0291455Y0232502D01*
X0291435Y0232445D01*
X0291412Y0232390D01*
X0291385Y0232335D01*
X0291356Y0232283D01*
X0291323Y0232232D01*
X0291287Y0232183D01*
X0291249Y0232137D01*
X0291207Y0232093D01*
X0291163Y0232051D01*
X0291117Y0232013D01*
X0291068Y0231977D01*
X0291017Y0231944D01*
X0290965Y0231915D01*
X0290910Y0231888D01*
X0290855Y0231865D01*
X0290798Y0231845D01*
X0290739Y0231829D01*
X0290680Y0231816D01*
X0290621Y0231807D01*
X0290560Y0231802D01*
X0290500Y0231800D01*
X0282500Y0231800D01*
X0282440Y0231802D01*
X0282379Y0231807D01*
X0282320Y0231816D01*
X0282261Y0231829D01*
X0282202Y0231845D01*
X0282145Y0231865D01*
X0282090Y0231888D01*
X0282035Y0231915D01*
X0281983Y0231944D01*
X0281932Y0231977D01*
X0281883Y0232013D01*
X0281837Y0232051D01*
X0281793Y0232093D01*
X0281751Y0232137D01*
X0281713Y0232183D01*
X0281677Y0232232D01*
X0281644Y0232283D01*
X0281615Y0232335D01*
X0281588Y0232390D01*
X0281565Y0232445D01*
X0281545Y0232502D01*
X0281529Y0232561D01*
X0281516Y0232620D01*
X0281507Y0232679D01*
X0281502Y0232740D01*
X0281500Y0232800D01*
X0281500Y0249800D01*
X0281502Y0249860D01*
X0281507Y0249921D01*
X0281516Y0249980D01*
X0281529Y0250039D01*
X0281545Y0250098D01*
X0281565Y0250155D01*
X0281588Y0250210D01*
X0281615Y0250265D01*
X0281644Y0250317D01*
X0281677Y0250368D01*
X0281713Y0250417D01*
X0281751Y0250463D01*
X0281793Y0250507D01*
X0281837Y0250549D01*
X0281883Y0250587D01*
X0281932Y0250623D01*
X0281983Y0250656D01*
X0282035Y0250685D01*
X0282090Y0250712D01*
X0282145Y0250735D01*
X0282202Y0250755D01*
X0282261Y0250771D01*
X0282320Y0250784D01*
X0282379Y0250793D01*
X0282440Y0250798D01*
X0282500Y0250800D01*
X0286500Y0242800D02*
X0286500Y0242300D01*
X0286500Y0240300D02*
X0286500Y0239800D01*
X0413000Y0068800D02*
X0420000Y0068800D01*
X0420060Y0068798D01*
X0420121Y0068793D01*
X0420180Y0068784D01*
X0420239Y0068771D01*
X0420298Y0068755D01*
X0420355Y0068735D01*
X0420410Y0068712D01*
X0420465Y0068685D01*
X0420517Y0068656D01*
X0420568Y0068623D01*
X0420617Y0068587D01*
X0420663Y0068549D01*
X0420707Y0068507D01*
X0420749Y0068463D01*
X0420787Y0068417D01*
X0420823Y0068368D01*
X0420856Y0068317D01*
X0420885Y0068265D01*
X0420912Y0068210D01*
X0420935Y0068155D01*
X0420955Y0068098D01*
X0420971Y0068039D01*
X0420984Y0067980D01*
X0420993Y0067921D01*
X0420998Y0067860D01*
X0421000Y0067800D01*
X0421000Y0066300D01*
X0420500Y0065800D01*
X0420500Y0046800D01*
X0421000Y0046300D01*
X0421000Y0044800D01*
X0420998Y0044740D01*
X0420993Y0044679D01*
X0420984Y0044620D01*
X0420971Y0044561D01*
X0420955Y0044502D01*
X0420935Y0044445D01*
X0420912Y0044390D01*
X0420885Y0044335D01*
X0420856Y0044283D01*
X0420823Y0044232D01*
X0420787Y0044183D01*
X0420749Y0044137D01*
X0420707Y0044093D01*
X0420663Y0044051D01*
X0420617Y0044013D01*
X0420568Y0043977D01*
X0420517Y0043944D01*
X0420465Y0043915D01*
X0420410Y0043888D01*
X0420355Y0043865D01*
X0420298Y0043845D01*
X0420239Y0043829D01*
X0420180Y0043816D01*
X0420121Y0043807D01*
X0420060Y0043802D01*
X0420000Y0043800D01*
X0413000Y0043800D01*
X0412940Y0043802D01*
X0412879Y0043807D01*
X0412820Y0043816D01*
X0412761Y0043829D01*
X0412702Y0043845D01*
X0412645Y0043865D01*
X0412590Y0043888D01*
X0412535Y0043915D01*
X0412483Y0043944D01*
X0412432Y0043977D01*
X0412383Y0044013D01*
X0412337Y0044051D01*
X0412293Y0044093D01*
X0412251Y0044137D01*
X0412213Y0044183D01*
X0412177Y0044232D01*
X0412144Y0044283D01*
X0412115Y0044335D01*
X0412088Y0044390D01*
X0412065Y0044445D01*
X0412045Y0044502D01*
X0412029Y0044561D01*
X0412016Y0044620D01*
X0412007Y0044679D01*
X0412002Y0044740D01*
X0412000Y0044800D01*
X0412000Y0046300D01*
X0412500Y0046800D01*
X0412500Y0065800D01*
X0412000Y0066300D01*
X0412000Y0067800D01*
X0412002Y0067860D01*
X0412007Y0067921D01*
X0412016Y0067980D01*
X0412029Y0068039D01*
X0412045Y0068098D01*
X0412065Y0068155D01*
X0412088Y0068210D01*
X0412115Y0068265D01*
X0412144Y0068317D01*
X0412177Y0068368D01*
X0412213Y0068417D01*
X0412251Y0068463D01*
X0412293Y0068507D01*
X0412337Y0068549D01*
X0412383Y0068587D01*
X0412432Y0068623D01*
X0412483Y0068656D01*
X0412535Y0068685D01*
X0412590Y0068712D01*
X0412645Y0068735D01*
X0412702Y0068755D01*
X0412761Y0068771D01*
X0412820Y0068784D01*
X0412879Y0068793D01*
X0412940Y0068798D01*
X0413000Y0068800D01*
X0406500Y0016300D02*
X0406503Y0016545D01*
X0406512Y0016791D01*
X0406527Y0017036D01*
X0406548Y0017280D01*
X0406575Y0017524D01*
X0406608Y0017767D01*
X0406647Y0018010D01*
X0406692Y0018251D01*
X0406743Y0018491D01*
X0406800Y0018730D01*
X0406862Y0018967D01*
X0406931Y0019203D01*
X0407005Y0019437D01*
X0407085Y0019669D01*
X0407170Y0019899D01*
X0407261Y0020127D01*
X0407358Y0020352D01*
X0407460Y0020576D01*
X0407568Y0020796D01*
X0407681Y0021014D01*
X0407799Y0021229D01*
X0407923Y0021441D01*
X0408051Y0021650D01*
X0408185Y0021856D01*
X0408324Y0022058D01*
X0408468Y0022257D01*
X0408617Y0022452D01*
X0408770Y0022644D01*
X0408928Y0022832D01*
X0409090Y0023016D01*
X0409258Y0023195D01*
X0409429Y0023371D01*
X0409605Y0023542D01*
X0409784Y0023710D01*
X0409968Y0023872D01*
X0410156Y0024030D01*
X0410348Y0024183D01*
X0410543Y0024332D01*
X0410742Y0024476D01*
X0410944Y0024615D01*
X0411150Y0024749D01*
X0411359Y0024877D01*
X0411571Y0025001D01*
X0411786Y0025119D01*
X0412004Y0025232D01*
X0412224Y0025340D01*
X0412448Y0025442D01*
X0412673Y0025539D01*
X0412901Y0025630D01*
X0413131Y0025715D01*
X0413363Y0025795D01*
X0413597Y0025869D01*
X0413833Y0025938D01*
X0414070Y0026000D01*
X0414309Y0026057D01*
X0414549Y0026108D01*
X0414790Y0026153D01*
X0415033Y0026192D01*
X0415276Y0026225D01*
X0415520Y0026252D01*
X0415764Y0026273D01*
X0416009Y0026288D01*
X0416255Y0026297D01*
X0416500Y0026300D01*
X0416745Y0026297D01*
X0416991Y0026288D01*
X0417236Y0026273D01*
X0417480Y0026252D01*
X0417724Y0026225D01*
X0417967Y0026192D01*
X0418210Y0026153D01*
X0418451Y0026108D01*
X0418691Y0026057D01*
X0418930Y0026000D01*
X0419167Y0025938D01*
X0419403Y0025869D01*
X0419637Y0025795D01*
X0419869Y0025715D01*
X0420099Y0025630D01*
X0420327Y0025539D01*
X0420552Y0025442D01*
X0420776Y0025340D01*
X0420996Y0025232D01*
X0421214Y0025119D01*
X0421429Y0025001D01*
X0421641Y0024877D01*
X0421850Y0024749D01*
X0422056Y0024615D01*
X0422258Y0024476D01*
X0422457Y0024332D01*
X0422652Y0024183D01*
X0422844Y0024030D01*
X0423032Y0023872D01*
X0423216Y0023710D01*
X0423395Y0023542D01*
X0423571Y0023371D01*
X0423742Y0023195D01*
X0423910Y0023016D01*
X0424072Y0022832D01*
X0424230Y0022644D01*
X0424383Y0022452D01*
X0424532Y0022257D01*
X0424676Y0022058D01*
X0424815Y0021856D01*
X0424949Y0021650D01*
X0425077Y0021441D01*
X0425201Y0021229D01*
X0425319Y0021014D01*
X0425432Y0020796D01*
X0425540Y0020576D01*
X0425642Y0020352D01*
X0425739Y0020127D01*
X0425830Y0019899D01*
X0425915Y0019669D01*
X0425995Y0019437D01*
X0426069Y0019203D01*
X0426138Y0018967D01*
X0426200Y0018730D01*
X0426257Y0018491D01*
X0426308Y0018251D01*
X0426353Y0018010D01*
X0426392Y0017767D01*
X0426425Y0017524D01*
X0426452Y0017280D01*
X0426473Y0017036D01*
X0426488Y0016791D01*
X0426497Y0016545D01*
X0426500Y0016300D01*
X0426497Y0016055D01*
X0426488Y0015809D01*
X0426473Y0015564D01*
X0426452Y0015320D01*
X0426425Y0015076D01*
X0426392Y0014833D01*
X0426353Y0014590D01*
X0426308Y0014349D01*
X0426257Y0014109D01*
X0426200Y0013870D01*
X0426138Y0013633D01*
X0426069Y0013397D01*
X0425995Y0013163D01*
X0425915Y0012931D01*
X0425830Y0012701D01*
X0425739Y0012473D01*
X0425642Y0012248D01*
X0425540Y0012024D01*
X0425432Y0011804D01*
X0425319Y0011586D01*
X0425201Y0011371D01*
X0425077Y0011159D01*
X0424949Y0010950D01*
X0424815Y0010744D01*
X0424676Y0010542D01*
X0424532Y0010343D01*
X0424383Y0010148D01*
X0424230Y0009956D01*
X0424072Y0009768D01*
X0423910Y0009584D01*
X0423742Y0009405D01*
X0423571Y0009229D01*
X0423395Y0009058D01*
X0423216Y0008890D01*
X0423032Y0008728D01*
X0422844Y0008570D01*
X0422652Y0008417D01*
X0422457Y0008268D01*
X0422258Y0008124D01*
X0422056Y0007985D01*
X0421850Y0007851D01*
X0421641Y0007723D01*
X0421429Y0007599D01*
X0421214Y0007481D01*
X0420996Y0007368D01*
X0420776Y0007260D01*
X0420552Y0007158D01*
X0420327Y0007061D01*
X0420099Y0006970D01*
X0419869Y0006885D01*
X0419637Y0006805D01*
X0419403Y0006731D01*
X0419167Y0006662D01*
X0418930Y0006600D01*
X0418691Y0006543D01*
X0418451Y0006492D01*
X0418210Y0006447D01*
X0417967Y0006408D01*
X0417724Y0006375D01*
X0417480Y0006348D01*
X0417236Y0006327D01*
X0416991Y0006312D01*
X0416745Y0006303D01*
X0416500Y0006300D01*
X0416255Y0006303D01*
X0416009Y0006312D01*
X0415764Y0006327D01*
X0415520Y0006348D01*
X0415276Y0006375D01*
X0415033Y0006408D01*
X0414790Y0006447D01*
X0414549Y0006492D01*
X0414309Y0006543D01*
X0414070Y0006600D01*
X0413833Y0006662D01*
X0413597Y0006731D01*
X0413363Y0006805D01*
X0413131Y0006885D01*
X0412901Y0006970D01*
X0412673Y0007061D01*
X0412448Y0007158D01*
X0412224Y0007260D01*
X0412004Y0007368D01*
X0411786Y0007481D01*
X0411571Y0007599D01*
X0411359Y0007723D01*
X0411150Y0007851D01*
X0410944Y0007985D01*
X0410742Y0008124D01*
X0410543Y0008268D01*
X0410348Y0008417D01*
X0410156Y0008570D01*
X0409968Y0008728D01*
X0409784Y0008890D01*
X0409605Y0009058D01*
X0409429Y0009229D01*
X0409258Y0009405D01*
X0409090Y0009584D01*
X0408928Y0009768D01*
X0408770Y0009956D01*
X0408617Y0010148D01*
X0408468Y0010343D01*
X0408324Y0010542D01*
X0408185Y0010744D01*
X0408051Y0010950D01*
X0407923Y0011159D01*
X0407799Y0011371D01*
X0407681Y0011586D01*
X0407568Y0011804D01*
X0407460Y0012024D01*
X0407358Y0012248D01*
X0407261Y0012473D01*
X0407170Y0012701D01*
X0407085Y0012931D01*
X0407005Y0013163D01*
X0406931Y0013397D01*
X0406862Y0013633D01*
X0406800Y0013870D01*
X0406743Y0014109D01*
X0406692Y0014349D01*
X0406647Y0014590D01*
X0406608Y0014833D01*
X0406575Y0015076D01*
X0406548Y0015320D01*
X0406527Y0015564D01*
X0406512Y0015809D01*
X0406503Y0016055D01*
X0406500Y0016300D01*
D12*
X0402649Y0013203D02*
X0402649Y0011702D01*
X0401898Y0010951D01*
X0399646Y0010951D01*
X0399646Y0009450D02*
X0399646Y0013954D01*
X0401898Y0013954D01*
X0402649Y0013203D01*
X0401147Y0010951D02*
X0402649Y0009450D01*
X0398045Y0009450D02*
X0398045Y0013954D01*
X0395042Y0013954D02*
X0395042Y0009450D01*
X0396543Y0010951D01*
X0398045Y0009450D01*
X0393441Y0011702D02*
X0392690Y0010951D01*
X0390438Y0010951D01*
X0390438Y0009450D02*
X0390438Y0013954D01*
X0392690Y0013954D01*
X0393441Y0013203D01*
X0393441Y0011702D01*
X0405746Y0044550D02*
X0405746Y0046802D01*
X0406497Y0047553D01*
X0407998Y0047553D01*
X0408749Y0046802D01*
X0408749Y0044550D01*
X0410250Y0044550D02*
X0405746Y0044550D01*
X0408749Y0046051D02*
X0410250Y0047553D01*
X0410250Y0049154D02*
X0410250Y0052156D01*
X0410250Y0050655D02*
X0405746Y0050655D01*
X0407247Y0049154D01*
X0280250Y0037656D02*
X0280250Y0034654D01*
X0280250Y0036155D02*
X0275746Y0036155D01*
X0277247Y0034654D01*
X0276497Y0033053D02*
X0275746Y0032302D01*
X0275746Y0030801D01*
X0276497Y0030050D01*
X0279499Y0030050D01*
X0280250Y0030801D01*
X0280250Y0032302D01*
X0279499Y0033053D01*
X0279499Y0080050D02*
X0276497Y0080050D01*
X0275746Y0080801D01*
X0275746Y0082302D01*
X0276497Y0083053D01*
X0277247Y0084654D02*
X0275746Y0086155D01*
X0280250Y0086155D01*
X0280250Y0084654D02*
X0280250Y0087656D01*
X0280250Y0089258D02*
X0280250Y0092260D01*
X0280250Y0090759D02*
X0275746Y0090759D01*
X0277247Y0089258D01*
X0279499Y0083053D02*
X0280250Y0082302D01*
X0280250Y0080801D01*
X0279499Y0080050D01*
X0279499Y0130050D02*
X0276497Y0130050D01*
X0275746Y0130801D01*
X0275746Y0132302D01*
X0276497Y0133053D01*
X0277247Y0134654D02*
X0275746Y0136155D01*
X0280250Y0136155D01*
X0280250Y0134654D02*
X0280250Y0137656D01*
X0277998Y0139258D02*
X0277998Y0142260D01*
X0280250Y0141510D02*
X0275746Y0141510D01*
X0277998Y0139258D01*
X0279499Y0133053D02*
X0280250Y0132302D01*
X0280250Y0130801D01*
X0279499Y0130050D01*
X0279499Y0180050D02*
X0276497Y0180050D01*
X0275746Y0180801D01*
X0275746Y0182302D01*
X0276497Y0183053D01*
X0277247Y0184654D02*
X0275746Y0186155D01*
X0280250Y0186155D01*
X0280250Y0184654D02*
X0280250Y0187656D01*
X0279499Y0189258D02*
X0280250Y0190008D01*
X0280250Y0191510D01*
X0279499Y0192260D01*
X0277998Y0192260D01*
X0277247Y0191510D01*
X0277247Y0190759D01*
X0277998Y0189258D01*
X0275746Y0189258D01*
X0275746Y0192260D01*
X0279499Y0183053D02*
X0280250Y0182302D01*
X0280250Y0180801D01*
X0279499Y0180050D01*
X0279499Y0235050D02*
X0276497Y0235050D01*
X0275746Y0235801D01*
X0275746Y0237302D01*
X0276497Y0238053D01*
X0277247Y0239654D02*
X0275746Y0241155D01*
X0280250Y0241155D01*
X0280250Y0239654D02*
X0280250Y0242656D01*
X0279499Y0244258D02*
X0280250Y0245008D01*
X0280250Y0246510D01*
X0279499Y0247260D01*
X0278749Y0247260D01*
X0277998Y0246510D01*
X0277998Y0244258D01*
X0279499Y0244258D01*
X0277998Y0244258D02*
X0276497Y0245759D01*
X0275746Y0247260D01*
X0279499Y0238053D02*
X0280250Y0237302D01*
X0280250Y0235801D01*
X0279499Y0235050D01*
X0279499Y0285050D02*
X0276497Y0285050D01*
X0275746Y0285801D01*
X0275746Y0287302D01*
X0276497Y0288053D01*
X0277247Y0289654D02*
X0275746Y0291155D01*
X0280250Y0291155D01*
X0280250Y0289654D02*
X0280250Y0292656D01*
X0280250Y0294258D02*
X0279499Y0294258D01*
X0276497Y0297260D01*
X0275746Y0297260D01*
X0275746Y0294258D01*
X0279499Y0288053D02*
X0280250Y0287302D01*
X0280250Y0285801D01*
X0279499Y0285050D01*
X0279499Y0335050D02*
X0276497Y0335050D01*
X0275746Y0335801D01*
X0275746Y0337302D01*
X0276497Y0338053D01*
X0277247Y0339654D02*
X0275746Y0341155D01*
X0280250Y0341155D01*
X0280250Y0339654D02*
X0280250Y0342656D01*
X0279499Y0344258D02*
X0278749Y0344258D01*
X0277998Y0345008D01*
X0277998Y0346510D01*
X0278749Y0347260D01*
X0279499Y0347260D01*
X0280250Y0346510D01*
X0280250Y0345008D01*
X0279499Y0344258D01*
X0277998Y0345008D02*
X0277247Y0344258D01*
X0276497Y0344258D01*
X0275746Y0345008D01*
X0275746Y0346510D01*
X0276497Y0347260D01*
X0277247Y0347260D01*
X0277998Y0346510D01*
X0279499Y0338053D02*
X0280250Y0337302D01*
X0280250Y0335801D01*
X0279499Y0335050D01*
X0279499Y0385050D02*
X0276497Y0385050D01*
X0275746Y0385801D01*
X0275746Y0387302D01*
X0276497Y0388053D01*
X0277247Y0389654D02*
X0275746Y0391155D01*
X0280250Y0391155D01*
X0280250Y0389654D02*
X0280250Y0392656D01*
X0279499Y0394258D02*
X0280250Y0395008D01*
X0280250Y0396510D01*
X0279499Y0397260D01*
X0276497Y0397260D01*
X0275746Y0396510D01*
X0275746Y0395008D01*
X0276497Y0394258D01*
X0277247Y0394258D01*
X0277998Y0395008D01*
X0277998Y0397260D01*
X0279499Y0388053D02*
X0280250Y0387302D01*
X0280250Y0385801D01*
X0279499Y0385050D01*
X0189750Y0405050D02*
X0189750Y0406551D01*
X0189750Y0405801D02*
X0185246Y0405801D01*
X0185246Y0406551D02*
X0185246Y0405050D01*
X0185997Y0408119D02*
X0185246Y0408870D01*
X0185246Y0410371D01*
X0185997Y0411122D01*
X0185997Y0412723D02*
X0185246Y0413474D01*
X0185246Y0414975D01*
X0185997Y0415726D01*
X0186747Y0415726D01*
X0187498Y0414975D01*
X0188249Y0415726D01*
X0188999Y0415726D01*
X0189750Y0414975D01*
X0189750Y0413474D01*
X0188999Y0412723D01*
X0188999Y0411122D02*
X0189750Y0410371D01*
X0189750Y0408870D01*
X0188999Y0408119D01*
X0185997Y0408119D01*
X0187498Y0414224D02*
X0187498Y0414975D01*
X0179499Y0397260D02*
X0176497Y0397260D01*
X0179499Y0394258D01*
X0180250Y0395008D01*
X0180250Y0396510D01*
X0179499Y0397260D01*
X0179499Y0394258D02*
X0176497Y0394258D01*
X0175746Y0395008D01*
X0175746Y0396510D01*
X0176497Y0397260D01*
X0176497Y0392656D02*
X0175746Y0391906D01*
X0175746Y0390405D01*
X0176497Y0389654D01*
X0176497Y0388053D02*
X0175746Y0387302D01*
X0175746Y0385801D01*
X0176497Y0385050D01*
X0179499Y0385050D01*
X0180250Y0385801D01*
X0180250Y0387302D01*
X0179499Y0388053D01*
X0180250Y0389654D02*
X0177247Y0392656D01*
X0176497Y0392656D01*
X0180250Y0392656D02*
X0180250Y0389654D01*
X0187498Y0365726D02*
X0187498Y0362723D01*
X0185246Y0364975D01*
X0189750Y0364975D01*
X0188999Y0361122D02*
X0189750Y0360371D01*
X0189750Y0358870D01*
X0188999Y0358119D01*
X0185997Y0358119D01*
X0185246Y0358870D01*
X0185246Y0360371D01*
X0185997Y0361122D01*
X0185246Y0356551D02*
X0185246Y0355050D01*
X0185246Y0355801D02*
X0189750Y0355801D01*
X0189750Y0356551D02*
X0189750Y0355050D01*
X0179499Y0342656D02*
X0180250Y0341906D01*
X0180250Y0340405D01*
X0179499Y0339654D01*
X0178749Y0339654D01*
X0177998Y0340405D01*
X0177998Y0341906D01*
X0178749Y0342656D01*
X0179499Y0342656D01*
X0177998Y0341906D02*
X0177247Y0342656D01*
X0176497Y0342656D01*
X0175746Y0341906D01*
X0175746Y0340405D01*
X0176497Y0339654D01*
X0177247Y0339654D01*
X0177998Y0340405D01*
X0176497Y0338053D02*
X0175746Y0337302D01*
X0175746Y0335801D01*
X0176497Y0335050D01*
X0179499Y0335050D01*
X0180250Y0335801D01*
X0180250Y0337302D01*
X0179499Y0338053D01*
X0185246Y0315726D02*
X0185246Y0312723D01*
X0187498Y0312723D01*
X0186747Y0314224D01*
X0186747Y0314975D01*
X0187498Y0315726D01*
X0188999Y0315726D01*
X0189750Y0314975D01*
X0189750Y0313474D01*
X0188999Y0312723D01*
X0188999Y0311122D02*
X0189750Y0310371D01*
X0189750Y0308870D01*
X0188999Y0308119D01*
X0185997Y0308119D01*
X0185246Y0308870D01*
X0185246Y0310371D01*
X0185997Y0311122D01*
X0185246Y0306551D02*
X0185246Y0305050D01*
X0185246Y0305801D02*
X0189750Y0305801D01*
X0189750Y0306551D02*
X0189750Y0305050D01*
X0180250Y0289654D02*
X0179499Y0289654D01*
X0176497Y0292656D01*
X0175746Y0292656D01*
X0175746Y0289654D01*
X0176497Y0288053D02*
X0175746Y0287302D01*
X0175746Y0285801D01*
X0176497Y0285050D01*
X0179499Y0285050D01*
X0180250Y0285801D01*
X0180250Y0287302D01*
X0179499Y0288053D01*
X0185246Y0265726D02*
X0185997Y0264224D01*
X0187498Y0262723D01*
X0187498Y0264975D01*
X0188249Y0265726D01*
X0188999Y0265726D01*
X0189750Y0264975D01*
X0189750Y0263474D01*
X0188999Y0262723D01*
X0187498Y0262723D01*
X0185997Y0261122D02*
X0185246Y0260371D01*
X0185246Y0258870D01*
X0185997Y0258119D01*
X0188999Y0258119D01*
X0189750Y0258870D01*
X0189750Y0260371D01*
X0188999Y0261122D01*
X0189750Y0256551D02*
X0189750Y0255050D01*
X0189750Y0255801D02*
X0185246Y0255801D01*
X0185246Y0256551D02*
X0185246Y0255050D01*
X0179499Y0242656D02*
X0178749Y0242656D01*
X0177998Y0241906D01*
X0177998Y0239654D01*
X0179499Y0239654D01*
X0180250Y0240405D01*
X0180250Y0241906D01*
X0179499Y0242656D01*
X0176497Y0241155D02*
X0177998Y0239654D01*
X0176497Y0241155D02*
X0175746Y0242656D01*
X0176497Y0238053D02*
X0175746Y0237302D01*
X0175746Y0235801D01*
X0176497Y0235050D01*
X0179499Y0235050D01*
X0180250Y0235801D01*
X0180250Y0237302D01*
X0179499Y0238053D01*
X0185997Y0215330D02*
X0185246Y0214579D01*
X0185246Y0213078D01*
X0185997Y0212327D01*
X0187498Y0213828D02*
X0187498Y0214579D01*
X0188249Y0215330D01*
X0188999Y0215330D01*
X0189750Y0214579D01*
X0189750Y0213078D01*
X0188999Y0212327D01*
X0189750Y0210726D02*
X0189750Y0207723D01*
X0189750Y0209224D02*
X0185246Y0209224D01*
X0186747Y0207723D01*
X0185997Y0206122D02*
X0185246Y0205371D01*
X0185246Y0203870D01*
X0185997Y0203119D01*
X0188999Y0203119D01*
X0189750Y0203870D01*
X0189750Y0205371D01*
X0188999Y0206122D01*
X0189750Y0201551D02*
X0189750Y0200050D01*
X0189750Y0200801D02*
X0185246Y0200801D01*
X0185246Y0201551D02*
X0185246Y0200050D01*
X0179499Y0187656D02*
X0180250Y0186906D01*
X0180250Y0185405D01*
X0179499Y0184654D01*
X0177998Y0184654D02*
X0177247Y0186155D01*
X0177247Y0186906D01*
X0177998Y0187656D01*
X0179499Y0187656D01*
X0177998Y0184654D02*
X0175746Y0184654D01*
X0175746Y0187656D01*
X0176497Y0183053D02*
X0175746Y0182302D01*
X0175746Y0180801D01*
X0176497Y0180050D01*
X0179499Y0180050D01*
X0180250Y0180801D01*
X0180250Y0182302D01*
X0179499Y0183053D01*
X0185246Y0164579D02*
X0187498Y0162327D01*
X0187498Y0165330D01*
X0189750Y0164579D02*
X0185246Y0164579D01*
X0185246Y0159224D02*
X0189750Y0159224D01*
X0189750Y0157723D02*
X0189750Y0160726D01*
X0186747Y0157723D02*
X0185246Y0159224D01*
X0185997Y0156122D02*
X0185246Y0155371D01*
X0185246Y0153870D01*
X0185997Y0153119D01*
X0188999Y0153119D01*
X0189750Y0153870D01*
X0189750Y0155371D01*
X0188999Y0156122D01*
X0189750Y0151551D02*
X0189750Y0150050D01*
X0189750Y0150801D02*
X0185246Y0150801D01*
X0185246Y0151551D02*
X0185246Y0150050D01*
X0180250Y0136906D02*
X0175746Y0136906D01*
X0177998Y0134654D01*
X0177998Y0137656D01*
X0176497Y0133053D02*
X0175746Y0132302D01*
X0175746Y0130801D01*
X0176497Y0130050D01*
X0179499Y0130050D01*
X0180250Y0130801D01*
X0180250Y0132302D01*
X0179499Y0133053D01*
X0185246Y0115330D02*
X0185246Y0112327D01*
X0187498Y0112327D01*
X0186747Y0113828D01*
X0186747Y0114579D01*
X0187498Y0115330D01*
X0188999Y0115330D01*
X0189750Y0114579D01*
X0189750Y0113078D01*
X0188999Y0112327D01*
X0189750Y0110726D02*
X0189750Y0107723D01*
X0189750Y0109224D02*
X0185246Y0109224D01*
X0186747Y0107723D01*
X0185997Y0106122D02*
X0185246Y0105371D01*
X0185246Y0103870D01*
X0185997Y0103119D01*
X0188999Y0103119D01*
X0189750Y0103870D01*
X0189750Y0105371D01*
X0188999Y0106122D01*
X0189750Y0101551D02*
X0189750Y0100050D01*
X0189750Y0100801D02*
X0185246Y0100801D01*
X0185246Y0101551D02*
X0185246Y0100050D01*
X0179499Y0087656D02*
X0180250Y0086906D01*
X0180250Y0085405D01*
X0179499Y0084654D01*
X0179499Y0083053D02*
X0180250Y0082302D01*
X0180250Y0080801D01*
X0179499Y0080050D01*
X0176497Y0080050D01*
X0175746Y0080801D01*
X0175746Y0082302D01*
X0176497Y0083053D01*
X0176497Y0084654D02*
X0175746Y0085405D01*
X0175746Y0086906D01*
X0176497Y0087656D01*
X0177247Y0087656D01*
X0177998Y0086906D01*
X0178749Y0087656D01*
X0179499Y0087656D01*
X0177998Y0086906D02*
X0177998Y0086155D01*
X0185246Y0065330D02*
X0185997Y0063828D01*
X0187498Y0062327D01*
X0187498Y0064579D01*
X0188249Y0065330D01*
X0188999Y0065330D01*
X0189750Y0064579D01*
X0189750Y0063078D01*
X0188999Y0062327D01*
X0187498Y0062327D01*
X0189750Y0060726D02*
X0189750Y0057723D01*
X0189750Y0059224D02*
X0185246Y0059224D01*
X0186747Y0057723D01*
X0185997Y0056122D02*
X0185246Y0055371D01*
X0185246Y0053870D01*
X0185997Y0053119D01*
X0188999Y0053119D01*
X0189750Y0053870D01*
X0189750Y0055371D01*
X0188999Y0056122D01*
X0189750Y0051551D02*
X0189750Y0050050D01*
X0189750Y0050801D02*
X0185246Y0050801D01*
X0185246Y0051551D02*
X0185246Y0050050D01*
X0180250Y0037656D02*
X0180250Y0034654D01*
X0177247Y0037656D01*
X0176497Y0037656D01*
X0175746Y0036906D01*
X0175746Y0035405D01*
X0176497Y0034654D01*
X0176497Y0033053D02*
X0175746Y0032302D01*
X0175746Y0030801D01*
X0176497Y0030050D01*
X0179499Y0030050D01*
X0180250Y0030801D01*
X0180250Y0032302D01*
X0179499Y0033053D01*
X0104750Y0049550D02*
X0104750Y0051051D01*
X0104750Y0050301D02*
X0100246Y0050301D01*
X0100246Y0051051D02*
X0100246Y0049550D01*
X0100997Y0052619D02*
X0103999Y0052619D01*
X0104750Y0053370D01*
X0104750Y0054871D01*
X0103999Y0055622D01*
X0104750Y0057223D02*
X0101747Y0060226D01*
X0100997Y0060226D01*
X0100246Y0059475D01*
X0100246Y0057974D01*
X0100997Y0057223D01*
X0100997Y0055622D02*
X0100246Y0054871D01*
X0100246Y0053370D01*
X0100997Y0052619D01*
X0104750Y0057223D02*
X0104750Y0060226D01*
X0089499Y0042260D02*
X0090250Y0041510D01*
X0090250Y0040008D01*
X0089499Y0039258D01*
X0086497Y0042260D01*
X0089499Y0042260D01*
X0089499Y0039258D02*
X0086497Y0039258D01*
X0085746Y0040008D01*
X0085746Y0041510D01*
X0086497Y0042260D01*
X0090250Y0037656D02*
X0090250Y0034654D01*
X0090250Y0036155D02*
X0085746Y0036155D01*
X0087247Y0034654D01*
X0086497Y0033053D02*
X0085746Y0032302D01*
X0085746Y0030801D01*
X0086497Y0030050D01*
X0089499Y0030050D01*
X0090250Y0030801D01*
X0090250Y0032302D01*
X0089499Y0033053D01*
X0072149Y0061550D02*
X0069897Y0061550D01*
X0069146Y0062301D01*
X0069146Y0063802D01*
X0069897Y0064553D01*
X0072149Y0064553D01*
X0062149Y0063802D02*
X0062149Y0062301D01*
X0061398Y0061550D01*
X0059146Y0061550D01*
X0059146Y0066054D01*
X0059146Y0064553D02*
X0061398Y0064553D01*
X0062149Y0063802D01*
X0052149Y0063802D02*
X0052149Y0061550D01*
X0049897Y0061550D01*
X0049146Y0062301D01*
X0049897Y0063051D01*
X0052149Y0063051D01*
X0052149Y0063802D02*
X0051398Y0064553D01*
X0049897Y0064553D01*
X0085746Y0080801D02*
X0086497Y0080050D01*
X0089499Y0080050D01*
X0090250Y0080801D01*
X0090250Y0082302D01*
X0089499Y0083053D01*
X0090250Y0084654D02*
X0090250Y0087656D01*
X0090250Y0086155D02*
X0085746Y0086155D01*
X0087247Y0084654D01*
X0086497Y0083053D02*
X0085746Y0082302D01*
X0085746Y0080801D01*
X0086497Y0089258D02*
X0085746Y0090008D01*
X0085746Y0091510D01*
X0086497Y0092260D01*
X0087247Y0092260D01*
X0090250Y0089258D01*
X0090250Y0092260D01*
X0095246Y0099550D02*
X0095246Y0101051D01*
X0095246Y0100301D02*
X0099750Y0100301D01*
X0099750Y0101051D02*
X0099750Y0099550D01*
X0098999Y0102619D02*
X0099750Y0103370D01*
X0099750Y0104871D01*
X0098999Y0105622D01*
X0099750Y0107223D02*
X0099750Y0110226D01*
X0099750Y0108724D02*
X0095246Y0108724D01*
X0096747Y0107223D01*
X0095997Y0105622D02*
X0095246Y0104871D01*
X0095246Y0103370D01*
X0095997Y0102619D01*
X0098999Y0102619D01*
X0099750Y0111827D02*
X0096747Y0114830D01*
X0095997Y0114830D01*
X0095246Y0114079D01*
X0095246Y0112578D01*
X0095997Y0111827D01*
X0099750Y0111827D02*
X0099750Y0114830D01*
X0089499Y0130050D02*
X0090250Y0130801D01*
X0090250Y0132302D01*
X0089499Y0133053D01*
X0090250Y0134654D02*
X0090250Y0137656D01*
X0090250Y0136155D02*
X0085746Y0136155D01*
X0087247Y0134654D01*
X0086497Y0133053D02*
X0085746Y0132302D01*
X0085746Y0130801D01*
X0086497Y0130050D01*
X0089499Y0130050D01*
X0089499Y0139258D02*
X0090250Y0140008D01*
X0090250Y0141510D01*
X0089499Y0142260D01*
X0088749Y0142260D01*
X0087998Y0141510D01*
X0087998Y0140759D01*
X0087998Y0141510D02*
X0087247Y0142260D01*
X0086497Y0142260D01*
X0085746Y0141510D01*
X0085746Y0140008D01*
X0086497Y0139258D01*
X0095246Y0149550D02*
X0095246Y0151051D01*
X0095246Y0150301D02*
X0099750Y0150301D01*
X0099750Y0151051D02*
X0099750Y0149550D01*
X0098999Y0152619D02*
X0099750Y0153370D01*
X0099750Y0154871D01*
X0098999Y0155622D01*
X0099750Y0157223D02*
X0099750Y0160226D01*
X0099750Y0158724D02*
X0095246Y0158724D01*
X0096747Y0157223D01*
X0095997Y0155622D02*
X0095246Y0154871D01*
X0095246Y0153370D01*
X0095997Y0152619D01*
X0098999Y0152619D01*
X0099750Y0161827D02*
X0099750Y0164830D01*
X0099750Y0163328D02*
X0095246Y0163328D01*
X0096747Y0161827D01*
X0089499Y0180050D02*
X0090250Y0180801D01*
X0090250Y0182302D01*
X0089499Y0183053D01*
X0089499Y0184654D02*
X0090250Y0185405D01*
X0090250Y0186906D01*
X0089499Y0187656D01*
X0086497Y0187656D01*
X0085746Y0186906D01*
X0085746Y0185405D01*
X0086497Y0184654D01*
X0087247Y0184654D01*
X0087998Y0185405D01*
X0087998Y0187656D01*
X0086497Y0183053D02*
X0085746Y0182302D01*
X0085746Y0180801D01*
X0086497Y0180050D01*
X0089499Y0180050D01*
X0095246Y0199550D02*
X0095246Y0201051D01*
X0095246Y0200301D02*
X0099750Y0200301D01*
X0099750Y0201051D02*
X0099750Y0199550D01*
X0098999Y0202619D02*
X0099750Y0203370D01*
X0099750Y0204871D01*
X0098999Y0205622D01*
X0099750Y0207223D02*
X0099750Y0210226D01*
X0099750Y0208724D02*
X0095246Y0208724D01*
X0096747Y0207223D01*
X0095997Y0205622D02*
X0095246Y0204871D01*
X0095246Y0203370D01*
X0095997Y0202619D01*
X0098999Y0202619D01*
X0013750Y0134949D02*
X0012249Y0133447D01*
X0012249Y0134198D02*
X0012249Y0131946D01*
X0013750Y0131946D02*
X0009246Y0131946D01*
X0009246Y0134198D01*
X0009997Y0134949D01*
X0011498Y0134949D01*
X0012249Y0134198D01*
X0011498Y0130345D02*
X0011498Y0127342D01*
X0010747Y0125741D02*
X0009997Y0125741D01*
X0009246Y0124990D01*
X0009246Y0123489D01*
X0009997Y0122738D01*
X0010747Y0125741D02*
X0013750Y0122738D01*
X0013750Y0125741D01*
X0013750Y0121137D02*
X0013750Y0118134D01*
X0013750Y0119635D02*
X0009246Y0119635D01*
X0010747Y0118134D01*
X0009246Y0116533D02*
X0009997Y0115032D01*
X0011498Y0113530D01*
X0011498Y0115782D01*
X0012249Y0116533D01*
X0012999Y0116533D01*
X0013750Y0115782D01*
X0013750Y0114281D01*
X0012999Y0113530D01*
X0011498Y0113530D01*
X0013750Y0111929D02*
X0013750Y0108926D01*
X0013750Y0110428D02*
X0009246Y0110428D01*
X0010747Y0108926D01*
X0011498Y0107325D02*
X0011498Y0104322D01*
X0009246Y0106574D01*
X0013750Y0106574D01*
X0013750Y0102721D02*
X0009246Y0102721D01*
X0009246Y0099719D02*
X0013750Y0102721D01*
X0013750Y0099719D02*
X0009246Y0099719D01*
X0009246Y0098151D02*
X0009246Y0096649D01*
X0009246Y0097400D02*
X0013750Y0097400D01*
X0013750Y0096649D02*
X0013750Y0098151D01*
X0012999Y0095048D02*
X0009997Y0095048D01*
X0009246Y0094297D01*
X0009246Y0092045D01*
X0013750Y0092045D01*
X0013750Y0094297D01*
X0012999Y0095048D01*
X0185997Y0215330D02*
X0186747Y0215330D01*
X0187498Y0214579D01*
X0038750Y0352342D02*
X0034246Y0355345D01*
X0035747Y0356946D02*
X0034246Y0358447D01*
X0038750Y0358447D01*
X0038750Y0356946D02*
X0038750Y0359949D01*
X0038750Y0355345D02*
X0034246Y0352342D01*
X0424246Y0333447D02*
X0428750Y0333447D01*
X0428750Y0331946D02*
X0428750Y0334949D01*
X0425747Y0331946D02*
X0424246Y0333447D01*
X0424997Y0330345D02*
X0426498Y0330345D01*
X0427249Y0329594D01*
X0427249Y0327342D01*
X0428750Y0327342D02*
X0424246Y0327342D01*
X0424246Y0329594D01*
X0424997Y0330345D01*
X0424246Y0325741D02*
X0424246Y0324239D01*
X0424246Y0324990D02*
X0427999Y0324990D01*
X0428750Y0324239D01*
X0428750Y0323489D01*
X0427999Y0322738D01*
D13*
X0289800Y0314475D02*
X0289033Y0315242D01*
X0285963Y0315242D01*
X0285196Y0314475D01*
X0285196Y0312941D01*
X0285963Y0312173D01*
X0286731Y0312173D01*
X0287498Y0312941D01*
X0287498Y0315242D01*
X0289800Y0314475D02*
X0289800Y0312941D01*
X0289033Y0312173D01*
X0289033Y0310639D02*
X0289800Y0309871D01*
X0289800Y0308337D01*
X0289033Y0307569D01*
X0285963Y0307569D01*
X0285196Y0308337D01*
X0285196Y0309871D01*
X0285963Y0310639D01*
X0285196Y0306035D02*
X0285196Y0304500D01*
X0285196Y0305267D02*
X0289800Y0305267D01*
X0289800Y0304500D02*
X0289800Y0306035D01*
X0289033Y0269846D02*
X0289800Y0269079D01*
X0289800Y0267544D01*
X0289033Y0266777D01*
X0285963Y0269846D01*
X0289033Y0269846D01*
X0289033Y0266777D02*
X0285963Y0266777D01*
X0285196Y0267544D01*
X0285196Y0269079D01*
X0285963Y0269846D01*
X0289800Y0265242D02*
X0289800Y0262173D01*
X0289800Y0263708D02*
X0285196Y0263708D01*
X0286731Y0262173D01*
X0285963Y0260639D02*
X0285196Y0259871D01*
X0285196Y0258337D01*
X0285963Y0257569D01*
X0289033Y0257569D01*
X0289800Y0258337D01*
X0289800Y0259871D01*
X0289033Y0260639D01*
X0289800Y0256035D02*
X0289800Y0254500D01*
X0289800Y0255267D02*
X0285196Y0255267D01*
X0285196Y0254500D02*
X0285196Y0256035D01*
X0285196Y0214846D02*
X0285963Y0214846D01*
X0289033Y0211777D01*
X0289800Y0211777D01*
X0289800Y0210242D02*
X0289800Y0207173D01*
X0289800Y0208708D02*
X0285196Y0208708D01*
X0286731Y0207173D01*
X0285963Y0205639D02*
X0285196Y0204871D01*
X0285196Y0203337D01*
X0285963Y0202569D01*
X0289033Y0202569D01*
X0289800Y0203337D01*
X0289800Y0204871D01*
X0289033Y0205639D01*
X0289800Y0201035D02*
X0289800Y0199500D01*
X0289800Y0200267D02*
X0285196Y0200267D01*
X0285196Y0199500D02*
X0285196Y0201035D01*
X0285196Y0211777D02*
X0285196Y0214846D01*
X0285963Y0164846D02*
X0285196Y0164079D01*
X0285196Y0162544D01*
X0285963Y0161777D01*
X0286731Y0161777D01*
X0287498Y0162544D01*
X0287498Y0164079D01*
X0288265Y0164846D01*
X0289033Y0164846D01*
X0289800Y0164079D01*
X0289800Y0162544D01*
X0289033Y0161777D01*
X0288265Y0161777D01*
X0287498Y0162544D01*
X0287498Y0164079D02*
X0286731Y0164846D01*
X0285963Y0164846D01*
X0289800Y0160242D02*
X0289800Y0157173D01*
X0289800Y0158708D02*
X0285196Y0158708D01*
X0286731Y0157173D01*
X0285963Y0155639D02*
X0285196Y0154871D01*
X0285196Y0153337D01*
X0285963Y0152569D01*
X0289033Y0152569D01*
X0289800Y0153337D01*
X0289800Y0154871D01*
X0289033Y0155639D01*
X0289800Y0151035D02*
X0289800Y0149500D01*
X0289800Y0150267D02*
X0285196Y0150267D01*
X0285196Y0149500D02*
X0285196Y0151035D01*
X0285963Y0114846D02*
X0285196Y0114079D01*
X0285196Y0112544D01*
X0285963Y0111777D01*
X0286731Y0111777D01*
X0287498Y0112544D01*
X0287498Y0114846D01*
X0289033Y0114846D02*
X0285963Y0114846D01*
X0289033Y0114846D02*
X0289800Y0114079D01*
X0289800Y0112544D01*
X0289033Y0111777D01*
X0289800Y0110242D02*
X0289800Y0107173D01*
X0289800Y0108708D02*
X0285196Y0108708D01*
X0286731Y0107173D01*
X0285963Y0105639D02*
X0285196Y0104871D01*
X0285196Y0103337D01*
X0285963Y0102569D01*
X0289033Y0102569D01*
X0289800Y0103337D01*
X0289800Y0104871D01*
X0289033Y0105639D01*
X0289800Y0101035D02*
X0289800Y0099500D01*
X0289800Y0100267D02*
X0285196Y0100267D01*
X0285196Y0099500D02*
X0285196Y0101035D01*
X0285963Y0064846D02*
X0285196Y0064079D01*
X0285196Y0062544D01*
X0285963Y0061777D01*
X0289033Y0061777D01*
X0285963Y0064846D01*
X0289033Y0064846D01*
X0289800Y0064079D01*
X0289800Y0062544D01*
X0289033Y0061777D01*
X0289800Y0060242D02*
X0289800Y0057173D01*
X0286731Y0060242D01*
X0285963Y0060242D01*
X0285196Y0059475D01*
X0285196Y0057941D01*
X0285963Y0057173D01*
X0285963Y0055639D02*
X0285196Y0054871D01*
X0285196Y0053337D01*
X0285963Y0052569D01*
X0289033Y0052569D01*
X0289800Y0053337D01*
X0289800Y0054871D01*
X0289033Y0055639D01*
X0289800Y0051035D02*
X0289800Y0049500D01*
X0289800Y0050267D02*
X0285196Y0050267D01*
X0285196Y0049500D02*
X0285196Y0051035D01*
X0285196Y0354500D02*
X0285196Y0356035D01*
X0285196Y0355267D02*
X0289800Y0355267D01*
X0289800Y0354500D02*
X0289800Y0356035D01*
X0289033Y0357569D02*
X0289800Y0358337D01*
X0289800Y0359871D01*
X0289033Y0360639D01*
X0289033Y0362173D02*
X0288265Y0362173D01*
X0287498Y0362941D01*
X0287498Y0364475D01*
X0288265Y0365242D01*
X0289033Y0365242D01*
X0289800Y0364475D01*
X0289800Y0362941D01*
X0289033Y0362173D01*
X0287498Y0362941D02*
X0286731Y0362173D01*
X0285963Y0362173D01*
X0285196Y0362941D01*
X0285196Y0364475D01*
X0285963Y0365242D01*
X0286731Y0365242D01*
X0287498Y0364475D01*
X0285963Y0360639D02*
X0285196Y0359871D01*
X0285196Y0358337D01*
X0285963Y0357569D01*
X0289033Y0357569D01*
X0289800Y0404500D02*
X0289800Y0406035D01*
X0289800Y0405267D02*
X0285196Y0405267D01*
X0285196Y0404500D02*
X0285196Y0406035D01*
X0285963Y0407569D02*
X0285196Y0408337D01*
X0285196Y0409871D01*
X0285963Y0410639D01*
X0285196Y0412173D02*
X0285196Y0415242D01*
X0285963Y0415242D01*
X0289033Y0412173D01*
X0289800Y0412173D01*
X0289033Y0410639D02*
X0289800Y0409871D01*
X0289800Y0408337D01*
X0289033Y0407569D01*
X0285963Y0407569D01*
D14*
X0051500Y0041457D02*
X0026500Y0041457D01*
X0026539Y0041812D02*
X0026539Y0411288D01*
X0026500Y0411300D02*
X0031000Y0411300D01*
X0031000Y0396300D01*
X0036500Y0391300D01*
X0046500Y0391300D01*
X0046500Y0061300D01*
X0036500Y0061300D01*
X0031000Y0056300D01*
X0031000Y0041800D01*
X0036500Y0051275D02*
X0036502Y0051416D01*
X0036508Y0051557D01*
X0036518Y0051697D01*
X0036532Y0051837D01*
X0036550Y0051977D01*
X0036571Y0052116D01*
X0036597Y0052255D01*
X0036626Y0052393D01*
X0036660Y0052529D01*
X0036697Y0052665D01*
X0036738Y0052800D01*
X0036783Y0052934D01*
X0036832Y0053066D01*
X0036884Y0053197D01*
X0036940Y0053326D01*
X0037000Y0053453D01*
X0037063Y0053579D01*
X0037129Y0053703D01*
X0037200Y0053826D01*
X0037273Y0053946D01*
X0037350Y0054064D01*
X0037430Y0054180D01*
X0037514Y0054293D01*
X0037600Y0054404D01*
X0037690Y0054513D01*
X0037783Y0054619D01*
X0037878Y0054722D01*
X0037977Y0054823D01*
X0038078Y0054921D01*
X0038182Y0055016D01*
X0038289Y0055108D01*
X0038398Y0055197D01*
X0038510Y0055282D01*
X0038624Y0055365D01*
X0038740Y0055445D01*
X0038859Y0055521D01*
X0038980Y0055593D01*
X0039102Y0055663D01*
X0039227Y0055728D01*
X0039353Y0055791D01*
X0039481Y0055849D01*
X0039611Y0055904D01*
X0039742Y0055956D01*
X0039875Y0056003D01*
X0040009Y0056047D01*
X0040144Y0056088D01*
X0040280Y0056124D01*
X0040417Y0056156D01*
X0040555Y0056185D01*
X0040693Y0056210D01*
X0040833Y0056230D01*
X0040973Y0056247D01*
X0041113Y0056260D01*
X0041254Y0056269D01*
X0041394Y0056274D01*
X0041535Y0056275D01*
X0041676Y0056272D01*
X0041817Y0056265D01*
X0041957Y0056254D01*
X0042097Y0056239D01*
X0042237Y0056220D01*
X0042376Y0056198D01*
X0042514Y0056171D01*
X0042652Y0056141D01*
X0042788Y0056106D01*
X0042924Y0056068D01*
X0043058Y0056026D01*
X0043192Y0055980D01*
X0043324Y0055931D01*
X0043454Y0055877D01*
X0043583Y0055820D01*
X0043710Y0055760D01*
X0043836Y0055696D01*
X0043959Y0055628D01*
X0044081Y0055557D01*
X0044201Y0055483D01*
X0044318Y0055405D01*
X0044433Y0055324D01*
X0044546Y0055240D01*
X0044657Y0055153D01*
X0044765Y0055062D01*
X0044870Y0054969D01*
X0044973Y0054872D01*
X0045073Y0054773D01*
X0045170Y0054671D01*
X0045264Y0054566D01*
X0045355Y0054459D01*
X0045443Y0054349D01*
X0045528Y0054237D01*
X0045610Y0054122D01*
X0045689Y0054005D01*
X0045764Y0053886D01*
X0045836Y0053765D01*
X0045904Y0053642D01*
X0045969Y0053517D01*
X0046031Y0053390D01*
X0046088Y0053261D01*
X0046143Y0053131D01*
X0046193Y0053000D01*
X0046240Y0052867D01*
X0046283Y0052733D01*
X0046322Y0052597D01*
X0046357Y0052461D01*
X0046389Y0052324D01*
X0046416Y0052186D01*
X0046440Y0052047D01*
X0046460Y0051907D01*
X0046476Y0051767D01*
X0046488Y0051627D01*
X0046496Y0051486D01*
X0046500Y0051345D01*
X0046500Y0051205D01*
X0046496Y0051064D01*
X0046488Y0050923D01*
X0046476Y0050783D01*
X0046460Y0050643D01*
X0046440Y0050503D01*
X0046416Y0050364D01*
X0046389Y0050226D01*
X0046357Y0050089D01*
X0046322Y0049953D01*
X0046283Y0049817D01*
X0046240Y0049683D01*
X0046193Y0049550D01*
X0046143Y0049419D01*
X0046088Y0049289D01*
X0046031Y0049160D01*
X0045969Y0049033D01*
X0045904Y0048908D01*
X0045836Y0048785D01*
X0045764Y0048664D01*
X0045689Y0048545D01*
X0045610Y0048428D01*
X0045528Y0048313D01*
X0045443Y0048201D01*
X0045355Y0048091D01*
X0045264Y0047984D01*
X0045170Y0047879D01*
X0045073Y0047777D01*
X0044973Y0047678D01*
X0044870Y0047581D01*
X0044765Y0047488D01*
X0044657Y0047397D01*
X0044546Y0047310D01*
X0044433Y0047226D01*
X0044318Y0047145D01*
X0044201Y0047067D01*
X0044081Y0046993D01*
X0043959Y0046922D01*
X0043836Y0046854D01*
X0043710Y0046790D01*
X0043583Y0046730D01*
X0043454Y0046673D01*
X0043324Y0046619D01*
X0043192Y0046570D01*
X0043058Y0046524D01*
X0042924Y0046482D01*
X0042788Y0046444D01*
X0042652Y0046409D01*
X0042514Y0046379D01*
X0042376Y0046352D01*
X0042237Y0046330D01*
X0042097Y0046311D01*
X0041957Y0046296D01*
X0041817Y0046285D01*
X0041676Y0046278D01*
X0041535Y0046275D01*
X0041394Y0046276D01*
X0041254Y0046281D01*
X0041113Y0046290D01*
X0040973Y0046303D01*
X0040833Y0046320D01*
X0040693Y0046340D01*
X0040555Y0046365D01*
X0040417Y0046394D01*
X0040280Y0046426D01*
X0040144Y0046462D01*
X0040009Y0046503D01*
X0039875Y0046547D01*
X0039742Y0046594D01*
X0039611Y0046646D01*
X0039481Y0046701D01*
X0039353Y0046759D01*
X0039227Y0046822D01*
X0039102Y0046887D01*
X0038980Y0046957D01*
X0038859Y0047029D01*
X0038740Y0047105D01*
X0038624Y0047185D01*
X0038510Y0047268D01*
X0038398Y0047353D01*
X0038289Y0047442D01*
X0038182Y0047534D01*
X0038078Y0047629D01*
X0037977Y0047727D01*
X0037878Y0047828D01*
X0037783Y0047931D01*
X0037690Y0048037D01*
X0037600Y0048146D01*
X0037514Y0048257D01*
X0037430Y0048370D01*
X0037350Y0048486D01*
X0037273Y0048604D01*
X0037200Y0048724D01*
X0037129Y0048847D01*
X0037063Y0048971D01*
X0037000Y0049097D01*
X0036940Y0049224D01*
X0036884Y0049353D01*
X0036832Y0049484D01*
X0036783Y0049616D01*
X0036738Y0049750D01*
X0036697Y0049885D01*
X0036660Y0050021D01*
X0036626Y0050157D01*
X0036597Y0050295D01*
X0036571Y0050434D01*
X0036550Y0050573D01*
X0036532Y0050713D01*
X0036518Y0050853D01*
X0036508Y0050993D01*
X0036502Y0051134D01*
X0036500Y0051275D01*
X0026500Y0058800D02*
X0005000Y0058800D01*
X0005000Y0062800D01*
X0005000Y0389800D01*
X0001500Y0385800D01*
X0001500Y0066800D01*
X0005000Y0062800D01*
X0026000Y0062800D01*
X0046500Y0061300D02*
X0051500Y0061300D01*
X0051500Y0041457D01*
X0051500Y0041300D01*
X0093500Y0037300D02*
X0096500Y0037300D01*
X0099500Y0037300D01*
X0099500Y0035300D02*
X0096500Y0035300D01*
X0093500Y0035300D01*
X0093500Y0085300D02*
X0096500Y0085300D01*
X0099500Y0085300D01*
X0099500Y0087300D02*
X0096500Y0087300D01*
X0093500Y0087300D01*
X0093500Y0135300D02*
X0096500Y0135300D01*
X0099500Y0135300D01*
X0099500Y0137300D02*
X0096500Y0137300D01*
X0093500Y0137300D01*
X0093500Y0185300D02*
X0096500Y0185300D01*
X0099500Y0185300D01*
X0099500Y0187300D02*
X0096500Y0187300D01*
X0093500Y0187300D01*
X0183500Y0187300D02*
X0186500Y0187300D01*
X0189500Y0187300D01*
X0189500Y0185300D02*
X0186500Y0185300D01*
X0183500Y0185300D01*
X0183500Y0137300D02*
X0186500Y0137300D01*
X0189500Y0137300D01*
X0189500Y0135300D02*
X0186500Y0135300D01*
X0183500Y0135300D01*
X0183500Y0087300D02*
X0186500Y0087300D01*
X0189500Y0087300D01*
X0189500Y0085300D02*
X0186500Y0085300D01*
X0183500Y0085300D01*
X0183500Y0037300D02*
X0186500Y0037300D01*
X0189500Y0037300D01*
X0189500Y0035300D02*
X0186500Y0035300D01*
X0183500Y0035300D01*
X0283500Y0035300D02*
X0286500Y0035300D01*
X0289500Y0035300D01*
X0289500Y0037300D02*
X0286500Y0037300D01*
X0283500Y0037300D01*
X0283500Y0085300D02*
X0286500Y0085300D01*
X0289500Y0085300D01*
X0289500Y0087300D02*
X0286500Y0087300D01*
X0283500Y0087300D01*
X0283500Y0135300D02*
X0286500Y0135300D01*
X0289500Y0135300D01*
X0289500Y0137300D02*
X0286500Y0137300D01*
X0283500Y0137300D01*
X0283500Y0185300D02*
X0286500Y0185300D01*
X0289500Y0185300D01*
X0289500Y0187300D02*
X0286500Y0187300D01*
X0283500Y0187300D01*
X0283500Y0240300D02*
X0286500Y0240300D01*
X0289500Y0240300D01*
X0289500Y0242300D02*
X0286500Y0242300D01*
X0283500Y0242300D01*
X0283500Y0290300D02*
X0286500Y0290300D01*
X0289500Y0290300D01*
X0289500Y0292300D02*
X0286500Y0292300D01*
X0283500Y0292300D01*
X0283500Y0340300D02*
X0286500Y0340300D01*
X0289500Y0340300D01*
X0289500Y0342300D02*
X0286500Y0342300D01*
X0283500Y0342300D01*
X0283500Y0390300D02*
X0286500Y0390300D01*
X0289500Y0390300D01*
X0289500Y0392300D02*
X0286500Y0392300D01*
X0283500Y0392300D01*
X0189500Y0392300D02*
X0186500Y0392300D01*
X0183500Y0392300D01*
X0183500Y0390300D02*
X0186500Y0390300D01*
X0189500Y0390300D01*
X0189500Y0342300D02*
X0186500Y0342300D01*
X0183500Y0342300D01*
X0183500Y0340300D02*
X0186500Y0340300D01*
X0189500Y0340300D01*
X0189500Y0292300D02*
X0186500Y0292300D01*
X0183500Y0292300D01*
X0183500Y0290300D02*
X0186500Y0290300D01*
X0189500Y0290300D01*
X0189500Y0242300D02*
X0186500Y0242300D01*
X0183500Y0242300D01*
X0183500Y0240300D02*
X0186500Y0240300D01*
X0189500Y0240300D01*
X0051500Y0391300D02*
X0046500Y0391300D01*
X0051500Y0391300D02*
X0051500Y0411300D01*
X0031000Y0411300D01*
X0036500Y0401325D02*
X0036502Y0401466D01*
X0036508Y0401607D01*
X0036518Y0401747D01*
X0036532Y0401887D01*
X0036550Y0402027D01*
X0036571Y0402166D01*
X0036597Y0402305D01*
X0036626Y0402443D01*
X0036660Y0402579D01*
X0036697Y0402715D01*
X0036738Y0402850D01*
X0036783Y0402984D01*
X0036832Y0403116D01*
X0036884Y0403247D01*
X0036940Y0403376D01*
X0037000Y0403503D01*
X0037063Y0403629D01*
X0037129Y0403753D01*
X0037200Y0403876D01*
X0037273Y0403996D01*
X0037350Y0404114D01*
X0037430Y0404230D01*
X0037514Y0404343D01*
X0037600Y0404454D01*
X0037690Y0404563D01*
X0037783Y0404669D01*
X0037878Y0404772D01*
X0037977Y0404873D01*
X0038078Y0404971D01*
X0038182Y0405066D01*
X0038289Y0405158D01*
X0038398Y0405247D01*
X0038510Y0405332D01*
X0038624Y0405415D01*
X0038740Y0405495D01*
X0038859Y0405571D01*
X0038980Y0405643D01*
X0039102Y0405713D01*
X0039227Y0405778D01*
X0039353Y0405841D01*
X0039481Y0405899D01*
X0039611Y0405954D01*
X0039742Y0406006D01*
X0039875Y0406053D01*
X0040009Y0406097D01*
X0040144Y0406138D01*
X0040280Y0406174D01*
X0040417Y0406206D01*
X0040555Y0406235D01*
X0040693Y0406260D01*
X0040833Y0406280D01*
X0040973Y0406297D01*
X0041113Y0406310D01*
X0041254Y0406319D01*
X0041394Y0406324D01*
X0041535Y0406325D01*
X0041676Y0406322D01*
X0041817Y0406315D01*
X0041957Y0406304D01*
X0042097Y0406289D01*
X0042237Y0406270D01*
X0042376Y0406248D01*
X0042514Y0406221D01*
X0042652Y0406191D01*
X0042788Y0406156D01*
X0042924Y0406118D01*
X0043058Y0406076D01*
X0043192Y0406030D01*
X0043324Y0405981D01*
X0043454Y0405927D01*
X0043583Y0405870D01*
X0043710Y0405810D01*
X0043836Y0405746D01*
X0043959Y0405678D01*
X0044081Y0405607D01*
X0044201Y0405533D01*
X0044318Y0405455D01*
X0044433Y0405374D01*
X0044546Y0405290D01*
X0044657Y0405203D01*
X0044765Y0405112D01*
X0044870Y0405019D01*
X0044973Y0404922D01*
X0045073Y0404823D01*
X0045170Y0404721D01*
X0045264Y0404616D01*
X0045355Y0404509D01*
X0045443Y0404399D01*
X0045528Y0404287D01*
X0045610Y0404172D01*
X0045689Y0404055D01*
X0045764Y0403936D01*
X0045836Y0403815D01*
X0045904Y0403692D01*
X0045969Y0403567D01*
X0046031Y0403440D01*
X0046088Y0403311D01*
X0046143Y0403181D01*
X0046193Y0403050D01*
X0046240Y0402917D01*
X0046283Y0402783D01*
X0046322Y0402647D01*
X0046357Y0402511D01*
X0046389Y0402374D01*
X0046416Y0402236D01*
X0046440Y0402097D01*
X0046460Y0401957D01*
X0046476Y0401817D01*
X0046488Y0401677D01*
X0046496Y0401536D01*
X0046500Y0401395D01*
X0046500Y0401255D01*
X0046496Y0401114D01*
X0046488Y0400973D01*
X0046476Y0400833D01*
X0046460Y0400693D01*
X0046440Y0400553D01*
X0046416Y0400414D01*
X0046389Y0400276D01*
X0046357Y0400139D01*
X0046322Y0400003D01*
X0046283Y0399867D01*
X0046240Y0399733D01*
X0046193Y0399600D01*
X0046143Y0399469D01*
X0046088Y0399339D01*
X0046031Y0399210D01*
X0045969Y0399083D01*
X0045904Y0398958D01*
X0045836Y0398835D01*
X0045764Y0398714D01*
X0045689Y0398595D01*
X0045610Y0398478D01*
X0045528Y0398363D01*
X0045443Y0398251D01*
X0045355Y0398141D01*
X0045264Y0398034D01*
X0045170Y0397929D01*
X0045073Y0397827D01*
X0044973Y0397728D01*
X0044870Y0397631D01*
X0044765Y0397538D01*
X0044657Y0397447D01*
X0044546Y0397360D01*
X0044433Y0397276D01*
X0044318Y0397195D01*
X0044201Y0397117D01*
X0044081Y0397043D01*
X0043959Y0396972D01*
X0043836Y0396904D01*
X0043710Y0396840D01*
X0043583Y0396780D01*
X0043454Y0396723D01*
X0043324Y0396669D01*
X0043192Y0396620D01*
X0043058Y0396574D01*
X0042924Y0396532D01*
X0042788Y0396494D01*
X0042652Y0396459D01*
X0042514Y0396429D01*
X0042376Y0396402D01*
X0042237Y0396380D01*
X0042097Y0396361D01*
X0041957Y0396346D01*
X0041817Y0396335D01*
X0041676Y0396328D01*
X0041535Y0396325D01*
X0041394Y0396326D01*
X0041254Y0396331D01*
X0041113Y0396340D01*
X0040973Y0396353D01*
X0040833Y0396370D01*
X0040693Y0396390D01*
X0040555Y0396415D01*
X0040417Y0396444D01*
X0040280Y0396476D01*
X0040144Y0396512D01*
X0040009Y0396553D01*
X0039875Y0396597D01*
X0039742Y0396644D01*
X0039611Y0396696D01*
X0039481Y0396751D01*
X0039353Y0396809D01*
X0039227Y0396872D01*
X0039102Y0396937D01*
X0038980Y0397007D01*
X0038859Y0397079D01*
X0038740Y0397155D01*
X0038624Y0397235D01*
X0038510Y0397318D01*
X0038398Y0397403D01*
X0038289Y0397492D01*
X0038182Y0397584D01*
X0038078Y0397679D01*
X0037977Y0397777D01*
X0037878Y0397878D01*
X0037783Y0397981D01*
X0037690Y0398087D01*
X0037600Y0398196D01*
X0037514Y0398307D01*
X0037430Y0398420D01*
X0037350Y0398536D01*
X0037273Y0398654D01*
X0037200Y0398774D01*
X0037129Y0398897D01*
X0037063Y0399021D01*
X0037000Y0399147D01*
X0036940Y0399274D01*
X0036884Y0399403D01*
X0036832Y0399534D01*
X0036783Y0399666D01*
X0036738Y0399800D01*
X0036697Y0399935D01*
X0036660Y0400071D01*
X0036626Y0400207D01*
X0036597Y0400345D01*
X0036571Y0400484D01*
X0036550Y0400623D01*
X0036532Y0400763D01*
X0036518Y0400903D01*
X0036508Y0401043D01*
X0036502Y0401184D01*
X0036500Y0401325D01*
X0026500Y0393800D02*
X0005000Y0393800D01*
X0005000Y0389800D01*
X0026000Y0389800D01*
X0005000Y0393800D02*
X0001500Y0389800D01*
X0001500Y0385800D01*
X0001500Y0066800D02*
X0001500Y0062800D01*
X0005000Y0058800D01*
X0406500Y0023800D02*
X0406687Y0024043D01*
X0406879Y0024281D01*
X0407078Y0024514D01*
X0407282Y0024742D01*
X0407491Y0024965D01*
X0407706Y0025183D01*
X0407926Y0025396D01*
X0408151Y0025603D01*
X0408382Y0025805D01*
X0408617Y0026001D01*
X0408857Y0026191D01*
X0409101Y0026375D01*
X0409350Y0026553D01*
X0409604Y0026725D01*
X0409861Y0026891D01*
X0410122Y0027051D01*
X0410387Y0027204D01*
X0410656Y0027350D01*
X0410929Y0027490D01*
X0411204Y0027623D01*
X0411483Y0027749D01*
X0411765Y0027869D01*
X0412050Y0027981D01*
X0412337Y0028086D01*
X0412627Y0028185D01*
X0412919Y0028276D01*
X0413214Y0028360D01*
X0413510Y0028437D01*
X0413808Y0028507D01*
X0414108Y0028569D01*
X0414409Y0028624D01*
X0414711Y0028671D01*
X0415015Y0028711D01*
X0415319Y0028744D01*
X0415624Y0028769D01*
X0415930Y0028787D01*
X0416236Y0028797D01*
X0416542Y0028800D01*
X0416848Y0028795D01*
X0417154Y0028783D01*
X0417460Y0028763D01*
X0417764Y0028736D01*
X0418069Y0028701D01*
X0418372Y0028659D01*
X0418674Y0028610D01*
X0418975Y0028553D01*
X0419274Y0028488D01*
X0419572Y0028417D01*
X0419867Y0028338D01*
X0420161Y0028252D01*
X0420453Y0028159D01*
X0420742Y0028058D01*
X0421029Y0027951D01*
X0421313Y0027836D01*
X0421594Y0027715D01*
X0421872Y0027587D01*
X0422147Y0027452D01*
X0422418Y0027310D01*
X0422686Y0027162D01*
X0422950Y0027007D01*
X0423210Y0026846D01*
X0423466Y0026679D01*
X0423719Y0026505D01*
X0423966Y0026325D01*
X0424210Y0026139D01*
X0424448Y0025948D01*
X0424682Y0025750D01*
X0424911Y0025547D01*
X0425135Y0025338D01*
X0425354Y0025124D01*
X0425567Y0024904D01*
X0425775Y0024680D01*
X0425978Y0024450D01*
X0426174Y0024216D01*
X0426365Y0023976D01*
X0426550Y0023733D01*
X0426729Y0023484D01*
X0426902Y0023232D01*
X0427069Y0022975D01*
X0427229Y0022714D01*
X0427383Y0022449D01*
X0427530Y0022181D01*
X0427671Y0021909D01*
X0427805Y0021634D01*
X0427932Y0021355D01*
X0428053Y0021074D01*
X0428166Y0020789D01*
X0428272Y0020502D01*
X0428372Y0020213D01*
X0428464Y0019921D01*
X0428549Y0019627D01*
X0428627Y0019331D01*
X0428698Y0019033D01*
X0428761Y0018733D01*
X0428817Y0018432D01*
X0428865Y0018130D01*
X0428906Y0017827D01*
X0428940Y0017523D01*
X0428966Y0017218D01*
X0428985Y0016912D01*
X0428996Y0016606D01*
X0429000Y0016300D01*
X0428996Y0015994D01*
X0428985Y0015688D01*
X0428966Y0015382D01*
X0428940Y0015077D01*
X0428906Y0014773D01*
X0428865Y0014470D01*
X0428817Y0014168D01*
X0428761Y0013867D01*
X0428698Y0013567D01*
X0428627Y0013269D01*
X0428549Y0012973D01*
X0428464Y0012679D01*
X0428372Y0012387D01*
X0428272Y0012098D01*
X0428166Y0011811D01*
X0428053Y0011526D01*
X0427932Y0011245D01*
X0427805Y0010966D01*
X0427671Y0010691D01*
X0427530Y0010419D01*
X0427383Y0010151D01*
X0427229Y0009886D01*
X0427069Y0009625D01*
X0426902Y0009368D01*
X0426729Y0009116D01*
X0426550Y0008867D01*
X0426365Y0008624D01*
X0426174Y0008384D01*
X0425978Y0008150D01*
X0425775Y0007920D01*
X0425567Y0007696D01*
X0425354Y0007476D01*
X0425135Y0007262D01*
X0424911Y0007053D01*
X0424682Y0006850D01*
X0424448Y0006652D01*
X0424210Y0006461D01*
X0423966Y0006275D01*
X0423719Y0006095D01*
X0423466Y0005921D01*
X0423210Y0005754D01*
X0422950Y0005593D01*
X0422686Y0005438D01*
X0422418Y0005290D01*
X0422147Y0005148D01*
X0421872Y0005013D01*
X0421594Y0004885D01*
X0421313Y0004764D01*
X0421029Y0004649D01*
X0420742Y0004542D01*
X0420453Y0004441D01*
X0420161Y0004348D01*
X0419867Y0004262D01*
X0419572Y0004183D01*
X0419274Y0004112D01*
X0418975Y0004047D01*
X0418674Y0003990D01*
X0418372Y0003941D01*
X0418069Y0003899D01*
X0417764Y0003864D01*
X0417460Y0003837D01*
X0417154Y0003817D01*
X0416848Y0003805D01*
X0416542Y0003800D01*
X0416236Y0003803D01*
X0415930Y0003813D01*
X0415624Y0003831D01*
X0415319Y0003856D01*
X0415015Y0003889D01*
X0414711Y0003929D01*
X0414409Y0003976D01*
X0414108Y0004031D01*
X0413808Y0004093D01*
X0413510Y0004163D01*
X0413214Y0004240D01*
X0412919Y0004324D01*
X0412627Y0004415D01*
X0412337Y0004514D01*
X0412050Y0004619D01*
X0411765Y0004731D01*
X0411483Y0004851D01*
X0411204Y0004977D01*
X0410929Y0005110D01*
X0410656Y0005250D01*
X0410387Y0005396D01*
X0410122Y0005549D01*
X0409861Y0005709D01*
X0409604Y0005875D01*
X0409350Y0006047D01*
X0409101Y0006225D01*
X0408857Y0006409D01*
X0408617Y0006599D01*
X0408382Y0006795D01*
X0408151Y0006997D01*
X0407926Y0007204D01*
X0407706Y0007417D01*
X0407491Y0007635D01*
X0407282Y0007858D01*
X0407078Y0008086D01*
X0406879Y0008319D01*
X0406687Y0008557D01*
X0406500Y0008800D01*
D15*
X0030634Y0041812D02*
X0030634Y0411288D01*
D16*
X0042131Y0382938D02*
X0041648Y0382455D01*
X0041648Y0381487D01*
X0042131Y0381003D01*
X0042131Y0379992D02*
X0042615Y0379992D01*
X0043099Y0379508D01*
X0043583Y0379992D01*
X0044066Y0379992D01*
X0044550Y0379508D01*
X0044550Y0378541D01*
X0044066Y0378057D01*
X0043099Y0379024D02*
X0043099Y0379508D01*
X0042131Y0379992D02*
X0041648Y0379508D01*
X0041648Y0378541D01*
X0042131Y0378057D01*
X0044550Y0381003D02*
X0042615Y0382938D01*
X0042131Y0382938D01*
X0044550Y0382938D02*
X0044550Y0381003D01*
X0044550Y0071438D02*
X0044550Y0069503D01*
X0044550Y0070471D02*
X0041648Y0070471D01*
X0042615Y0069503D01*
D17*
X0416500Y0070500D03*
X0416500Y0042100D03*
M02*
