G75*
%MOIN*%
%OFA0B0*%
%FSLAX25Y25*%
%IPPOS*%
%LPD*%
%AMOC8*
5,1,8,0,0,1.08239X$1,22.5*
%
%ADD10OC8,0.05400*%
%ADD11C,0.05400*%
%ADD12C,0.06600*%
%ADD13OC8,0.06600*%
%ADD14C,0.11600*%
%ADD15C,0.08000*%
%ADD16C,0.03300*%
D10*
X0101500Y0046000D03*
X0101500Y0056000D03*
X0101500Y0096000D03*
X0101500Y0106000D03*
X0101500Y0146000D03*
X0101500Y0156000D03*
X0101500Y0196000D03*
X0101500Y0206000D03*
X0101500Y0246000D03*
X0101500Y0256000D03*
X0101500Y0296000D03*
X0101500Y0306000D03*
X0101500Y0346000D03*
X0101500Y0356000D03*
X0101500Y0396000D03*
X0101500Y0406000D03*
X0206500Y0416000D03*
X0216500Y0416000D03*
X0251500Y0416000D03*
X0261500Y0416000D03*
X0301500Y0416000D03*
X0311500Y0416000D03*
X0351500Y0416000D03*
X0361500Y0416000D03*
X0401500Y0416000D03*
X0411500Y0416000D03*
X0451500Y0416000D03*
X0461500Y0416000D03*
X0501500Y0416000D03*
X0511500Y0416000D03*
X0551500Y0416000D03*
X0561500Y0416000D03*
X0591500Y0436000D03*
X0601500Y0416000D03*
X0611500Y0416000D03*
X0631500Y0436000D03*
X0651500Y0416000D03*
X0661500Y0416000D03*
X0661500Y0281000D03*
X0651500Y0281000D03*
X0611500Y0251000D03*
X0601500Y0251000D03*
X0561500Y0251000D03*
X0551500Y0251000D03*
X0511500Y0251000D03*
X0501500Y0251000D03*
X0461500Y0251000D03*
X0451500Y0251000D03*
X0411500Y0251000D03*
X0401500Y0251000D03*
X0361500Y0251000D03*
X0351500Y0251000D03*
X0311500Y0251000D03*
X0301500Y0251000D03*
X0261500Y0251000D03*
X0251500Y0251000D03*
X0251500Y0146000D03*
X0261500Y0146000D03*
X0301500Y0146000D03*
X0311500Y0146000D03*
X0351500Y0146000D03*
X0361500Y0146000D03*
X0401500Y0146000D03*
X0411500Y0146000D03*
X0451500Y0146000D03*
X0461500Y0146000D03*
X0501500Y0146000D03*
X0511500Y0146000D03*
X0551500Y0146000D03*
X0561500Y0146000D03*
X0601500Y0146000D03*
X0611500Y0146000D03*
X0651500Y0146000D03*
X0661500Y0146000D03*
X0701500Y0146000D03*
X0711500Y0146000D03*
X0716500Y0021000D03*
X0716500Y0011000D03*
X0681500Y0011000D03*
X0641500Y0011000D03*
X0216500Y0046000D03*
X0216500Y0086000D03*
D11*
X0239100Y0081000D02*
X0243900Y0081000D01*
X0243900Y0071000D02*
X0239100Y0071000D01*
X0239100Y0061000D02*
X0243900Y0061000D01*
X0243900Y0051000D02*
X0239100Y0051000D01*
X0239100Y0041000D02*
X0243900Y0041000D01*
X0269100Y0041000D02*
X0273900Y0041000D01*
X0273900Y0051000D02*
X0269100Y0051000D01*
X0269100Y0061000D02*
X0273900Y0061000D01*
X0273900Y0071000D02*
X0269100Y0071000D01*
X0269100Y0081000D02*
X0273900Y0081000D01*
X0289100Y0081000D02*
X0293900Y0081000D01*
X0293900Y0071000D02*
X0289100Y0071000D01*
X0289100Y0061000D02*
X0293900Y0061000D01*
X0293900Y0051000D02*
X0289100Y0051000D01*
X0289100Y0041000D02*
X0293900Y0041000D01*
X0319100Y0041000D02*
X0323900Y0041000D01*
X0323900Y0051000D02*
X0319100Y0051000D01*
X0319100Y0061000D02*
X0323900Y0061000D01*
X0323900Y0071000D02*
X0319100Y0071000D01*
X0319100Y0081000D02*
X0323900Y0081000D01*
X0339100Y0081000D02*
X0343900Y0081000D01*
X0343900Y0071000D02*
X0339100Y0071000D01*
X0339100Y0061000D02*
X0343900Y0061000D01*
X0343900Y0051000D02*
X0339100Y0051000D01*
X0339100Y0041000D02*
X0343900Y0041000D01*
X0369100Y0041000D02*
X0373900Y0041000D01*
X0373900Y0051000D02*
X0369100Y0051000D01*
X0369100Y0061000D02*
X0373900Y0061000D01*
X0373900Y0071000D02*
X0369100Y0071000D01*
X0369100Y0081000D02*
X0373900Y0081000D01*
X0389100Y0081000D02*
X0393900Y0081000D01*
X0393900Y0071000D02*
X0389100Y0071000D01*
X0389100Y0061000D02*
X0393900Y0061000D01*
X0393900Y0051000D02*
X0389100Y0051000D01*
X0389100Y0041000D02*
X0393900Y0041000D01*
X0419100Y0041000D02*
X0423900Y0041000D01*
X0423900Y0051000D02*
X0419100Y0051000D01*
X0419100Y0061000D02*
X0423900Y0061000D01*
X0423900Y0071000D02*
X0419100Y0071000D01*
X0419100Y0081000D02*
X0423900Y0081000D01*
X0439100Y0081000D02*
X0443900Y0081000D01*
X0443900Y0071000D02*
X0439100Y0071000D01*
X0439100Y0061000D02*
X0443900Y0061000D01*
X0443900Y0051000D02*
X0439100Y0051000D01*
X0439100Y0041000D02*
X0443900Y0041000D01*
X0469100Y0041000D02*
X0473900Y0041000D01*
X0473900Y0051000D02*
X0469100Y0051000D01*
X0469100Y0061000D02*
X0473900Y0061000D01*
X0473900Y0071000D02*
X0469100Y0071000D01*
X0469100Y0081000D02*
X0473900Y0081000D01*
X0489100Y0081000D02*
X0493900Y0081000D01*
X0493900Y0071000D02*
X0489100Y0071000D01*
X0489100Y0061000D02*
X0493900Y0061000D01*
X0493900Y0051000D02*
X0489100Y0051000D01*
X0489100Y0041000D02*
X0493900Y0041000D01*
X0519100Y0041000D02*
X0523900Y0041000D01*
X0523900Y0051000D02*
X0519100Y0051000D01*
X0519100Y0061000D02*
X0523900Y0061000D01*
X0523900Y0071000D02*
X0519100Y0071000D01*
X0519100Y0081000D02*
X0523900Y0081000D01*
X0539100Y0081000D02*
X0543900Y0081000D01*
X0543900Y0071000D02*
X0539100Y0071000D01*
X0539100Y0061000D02*
X0543900Y0061000D01*
X0543900Y0051000D02*
X0539100Y0051000D01*
X0539100Y0041000D02*
X0543900Y0041000D01*
X0569100Y0041000D02*
X0573900Y0041000D01*
X0573900Y0051000D02*
X0569100Y0051000D01*
X0569100Y0061000D02*
X0573900Y0061000D01*
X0573900Y0071000D02*
X0569100Y0071000D01*
X0569100Y0081000D02*
X0573900Y0081000D01*
X0589100Y0081000D02*
X0593900Y0081000D01*
X0593900Y0071000D02*
X0589100Y0071000D01*
X0589100Y0061000D02*
X0593900Y0061000D01*
X0593900Y0051000D02*
X0589100Y0051000D01*
X0589100Y0041000D02*
X0593900Y0041000D01*
X0619100Y0041000D02*
X0623900Y0041000D01*
X0623900Y0051000D02*
X0619100Y0051000D01*
X0619100Y0061000D02*
X0623900Y0061000D01*
X0623900Y0071000D02*
X0619100Y0071000D01*
X0619100Y0081000D02*
X0623900Y0081000D01*
X0639100Y0081000D02*
X0643900Y0081000D01*
X0643900Y0071000D02*
X0639100Y0071000D01*
X0639100Y0061000D02*
X0643900Y0061000D01*
X0643900Y0051000D02*
X0639100Y0051000D01*
X0639100Y0041000D02*
X0643900Y0041000D01*
X0669100Y0041000D02*
X0673900Y0041000D01*
X0673900Y0051000D02*
X0669100Y0051000D01*
X0669100Y0061000D02*
X0673900Y0061000D01*
X0673900Y0071000D02*
X0669100Y0071000D01*
X0669100Y0081000D02*
X0673900Y0081000D01*
X0689100Y0081000D02*
X0693900Y0081000D01*
X0693900Y0071000D02*
X0689100Y0071000D01*
X0689100Y0061000D02*
X0693900Y0061000D01*
X0693900Y0051000D02*
X0689100Y0051000D01*
X0689100Y0041000D02*
X0693900Y0041000D01*
X0719100Y0041000D02*
X0723900Y0041000D01*
X0723900Y0051000D02*
X0719100Y0051000D01*
X0719100Y0061000D02*
X0723900Y0061000D01*
X0723900Y0071000D02*
X0719100Y0071000D01*
X0719100Y0081000D02*
X0723900Y0081000D01*
X0723900Y0091000D02*
X0719100Y0091000D01*
X0719100Y0101000D02*
X0723900Y0101000D01*
X0723900Y0111000D02*
X0719100Y0111000D01*
X0719100Y0121000D02*
X0723900Y0121000D01*
X0723900Y0131000D02*
X0719100Y0131000D01*
X0693900Y0131000D02*
X0689100Y0131000D01*
X0673900Y0131000D02*
X0669100Y0131000D01*
X0669100Y0121000D02*
X0673900Y0121000D01*
X0673900Y0111000D02*
X0669100Y0111000D01*
X0669100Y0101000D02*
X0673900Y0101000D01*
X0673900Y0091000D02*
X0669100Y0091000D01*
X0689100Y0091000D02*
X0693900Y0091000D01*
X0693900Y0101000D02*
X0689100Y0101000D01*
X0689100Y0111000D02*
X0693900Y0111000D01*
X0693900Y0121000D02*
X0689100Y0121000D01*
X0643900Y0121000D02*
X0639100Y0121000D01*
X0639100Y0111000D02*
X0643900Y0111000D01*
X0643900Y0101000D02*
X0639100Y0101000D01*
X0639100Y0091000D02*
X0643900Y0091000D01*
X0623900Y0091000D02*
X0619100Y0091000D01*
X0619100Y0101000D02*
X0623900Y0101000D01*
X0623900Y0111000D02*
X0619100Y0111000D01*
X0619100Y0121000D02*
X0623900Y0121000D01*
X0623900Y0131000D02*
X0619100Y0131000D01*
X0639100Y0131000D02*
X0643900Y0131000D01*
X0593900Y0131000D02*
X0589100Y0131000D01*
X0573900Y0131000D02*
X0569100Y0131000D01*
X0569100Y0121000D02*
X0573900Y0121000D01*
X0573900Y0111000D02*
X0569100Y0111000D01*
X0569100Y0101000D02*
X0573900Y0101000D01*
X0573900Y0091000D02*
X0569100Y0091000D01*
X0589100Y0091000D02*
X0593900Y0091000D01*
X0593900Y0101000D02*
X0589100Y0101000D01*
X0589100Y0111000D02*
X0593900Y0111000D01*
X0593900Y0121000D02*
X0589100Y0121000D01*
X0543900Y0121000D02*
X0539100Y0121000D01*
X0539100Y0111000D02*
X0543900Y0111000D01*
X0543900Y0101000D02*
X0539100Y0101000D01*
X0539100Y0091000D02*
X0543900Y0091000D01*
X0523900Y0091000D02*
X0519100Y0091000D01*
X0519100Y0101000D02*
X0523900Y0101000D01*
X0523900Y0111000D02*
X0519100Y0111000D01*
X0519100Y0121000D02*
X0523900Y0121000D01*
X0523900Y0131000D02*
X0519100Y0131000D01*
X0539100Y0131000D02*
X0543900Y0131000D01*
X0493900Y0131000D02*
X0489100Y0131000D01*
X0473900Y0131000D02*
X0469100Y0131000D01*
X0469100Y0121000D02*
X0473900Y0121000D01*
X0473900Y0111000D02*
X0469100Y0111000D01*
X0469100Y0101000D02*
X0473900Y0101000D01*
X0473900Y0091000D02*
X0469100Y0091000D01*
X0489100Y0091000D02*
X0493900Y0091000D01*
X0493900Y0101000D02*
X0489100Y0101000D01*
X0489100Y0111000D02*
X0493900Y0111000D01*
X0493900Y0121000D02*
X0489100Y0121000D01*
X0443900Y0121000D02*
X0439100Y0121000D01*
X0439100Y0111000D02*
X0443900Y0111000D01*
X0443900Y0101000D02*
X0439100Y0101000D01*
X0439100Y0091000D02*
X0443900Y0091000D01*
X0423900Y0091000D02*
X0419100Y0091000D01*
X0419100Y0101000D02*
X0423900Y0101000D01*
X0423900Y0111000D02*
X0419100Y0111000D01*
X0419100Y0121000D02*
X0423900Y0121000D01*
X0423900Y0131000D02*
X0419100Y0131000D01*
X0439100Y0131000D02*
X0443900Y0131000D01*
X0393900Y0131000D02*
X0389100Y0131000D01*
X0373900Y0131000D02*
X0369100Y0131000D01*
X0369100Y0121000D02*
X0373900Y0121000D01*
X0373900Y0111000D02*
X0369100Y0111000D01*
X0369100Y0101000D02*
X0373900Y0101000D01*
X0373900Y0091000D02*
X0369100Y0091000D01*
X0389100Y0091000D02*
X0393900Y0091000D01*
X0393900Y0101000D02*
X0389100Y0101000D01*
X0389100Y0111000D02*
X0393900Y0111000D01*
X0393900Y0121000D02*
X0389100Y0121000D01*
X0343900Y0121000D02*
X0339100Y0121000D01*
X0339100Y0111000D02*
X0343900Y0111000D01*
X0343900Y0101000D02*
X0339100Y0101000D01*
X0339100Y0091000D02*
X0343900Y0091000D01*
X0323900Y0091000D02*
X0319100Y0091000D01*
X0319100Y0101000D02*
X0323900Y0101000D01*
X0323900Y0111000D02*
X0319100Y0111000D01*
X0319100Y0121000D02*
X0323900Y0121000D01*
X0323900Y0131000D02*
X0319100Y0131000D01*
X0339100Y0131000D02*
X0343900Y0131000D01*
X0293900Y0131000D02*
X0289100Y0131000D01*
X0273900Y0131000D02*
X0269100Y0131000D01*
X0269100Y0121000D02*
X0273900Y0121000D01*
X0273900Y0111000D02*
X0269100Y0111000D01*
X0269100Y0101000D02*
X0273900Y0101000D01*
X0273900Y0091000D02*
X0269100Y0091000D01*
X0289100Y0091000D02*
X0293900Y0091000D01*
X0293900Y0101000D02*
X0289100Y0101000D01*
X0289100Y0111000D02*
X0293900Y0111000D01*
X0293900Y0121000D02*
X0289100Y0121000D01*
X0243900Y0121000D02*
X0239100Y0121000D01*
X0239100Y0111000D02*
X0243900Y0111000D01*
X0243900Y0101000D02*
X0239100Y0101000D01*
X0239100Y0091000D02*
X0243900Y0091000D01*
X0186500Y0088400D02*
X0186500Y0083600D01*
X0176500Y0083600D02*
X0176500Y0088400D01*
X0166500Y0088400D02*
X0166500Y0083600D01*
X0156500Y0083600D02*
X0156500Y0088400D01*
X0146500Y0088400D02*
X0146500Y0083600D01*
X0136500Y0083600D02*
X0136500Y0088400D01*
X0126500Y0088400D02*
X0126500Y0083600D01*
X0116500Y0083600D02*
X0116500Y0088400D01*
X0116500Y0068400D02*
X0116500Y0063600D01*
X0126500Y0063600D02*
X0126500Y0068400D01*
X0136500Y0068400D02*
X0136500Y0063600D01*
X0146500Y0063600D02*
X0146500Y0068400D01*
X0156500Y0068400D02*
X0156500Y0063600D01*
X0166500Y0063600D02*
X0166500Y0068400D01*
X0176500Y0068400D02*
X0176500Y0063600D01*
X0186500Y0063600D02*
X0186500Y0068400D01*
X0186500Y0038400D02*
X0186500Y0033600D01*
X0176500Y0033600D02*
X0176500Y0038400D01*
X0166500Y0038400D02*
X0166500Y0033600D01*
X0156500Y0033600D02*
X0156500Y0038400D01*
X0146500Y0038400D02*
X0146500Y0033600D01*
X0136500Y0033600D02*
X0136500Y0038400D01*
X0126500Y0038400D02*
X0126500Y0033600D01*
X0116500Y0033600D02*
X0116500Y0038400D01*
X0116500Y0113600D02*
X0116500Y0118400D01*
X0126500Y0118400D02*
X0126500Y0113600D01*
X0136500Y0113600D02*
X0136500Y0118400D01*
X0146500Y0118400D02*
X0146500Y0113600D01*
X0156500Y0113600D02*
X0156500Y0118400D01*
X0166500Y0118400D02*
X0166500Y0113600D01*
X0176500Y0113600D02*
X0176500Y0118400D01*
X0186500Y0118400D02*
X0186500Y0113600D01*
X0176500Y0133600D02*
X0176500Y0138400D01*
X0166500Y0138400D02*
X0166500Y0133600D01*
X0156500Y0133600D02*
X0156500Y0138400D01*
X0146500Y0138400D02*
X0146500Y0133600D01*
X0136500Y0133600D02*
X0136500Y0138400D01*
X0126500Y0138400D02*
X0126500Y0133600D01*
X0116500Y0133600D02*
X0116500Y0138400D01*
X0116500Y0163600D02*
X0116500Y0168400D01*
X0126500Y0168400D02*
X0126500Y0163600D01*
X0136500Y0163600D02*
X0136500Y0168400D01*
X0146500Y0168400D02*
X0146500Y0163600D01*
X0156500Y0163600D02*
X0156500Y0168400D01*
X0166500Y0168400D02*
X0166500Y0163600D01*
X0176500Y0163600D02*
X0176500Y0168400D01*
X0176500Y0183600D02*
X0176500Y0188400D01*
X0166500Y0188400D02*
X0166500Y0183600D01*
X0156500Y0183600D02*
X0156500Y0188400D01*
X0146500Y0188400D02*
X0146500Y0183600D01*
X0136500Y0183600D02*
X0136500Y0188400D01*
X0126500Y0188400D02*
X0126500Y0183600D01*
X0116500Y0183600D02*
X0116500Y0188400D01*
X0116500Y0213600D02*
X0116500Y0218400D01*
X0126500Y0218400D02*
X0126500Y0213600D01*
X0136500Y0213600D02*
X0136500Y0218400D01*
X0146500Y0218400D02*
X0146500Y0213600D01*
X0156500Y0213600D02*
X0156500Y0218400D01*
X0166500Y0218400D02*
X0166500Y0213600D01*
X0176500Y0213600D02*
X0176500Y0218400D01*
X0186500Y0218400D02*
X0186500Y0213600D01*
X0196500Y0213600D02*
X0196500Y0218400D01*
X0206500Y0218400D02*
X0206500Y0213600D01*
X0206500Y0233600D02*
X0206500Y0238400D01*
X0196500Y0238400D02*
X0196500Y0233600D01*
X0186500Y0233600D02*
X0186500Y0238400D01*
X0176500Y0238400D02*
X0176500Y0233600D01*
X0166500Y0233600D02*
X0166500Y0238400D01*
X0156500Y0238400D02*
X0156500Y0233600D01*
X0146500Y0233600D02*
X0146500Y0238400D01*
X0136500Y0238400D02*
X0136500Y0233600D01*
X0126500Y0233600D02*
X0126500Y0238400D01*
X0116500Y0238400D02*
X0116500Y0233600D01*
X0116500Y0263600D02*
X0116500Y0268400D01*
X0126500Y0268400D02*
X0126500Y0263600D01*
X0136500Y0263600D02*
X0136500Y0268400D01*
X0146500Y0268400D02*
X0146500Y0263600D01*
X0156500Y0263600D02*
X0156500Y0268400D01*
X0166500Y0268400D02*
X0166500Y0263600D01*
X0176500Y0263600D02*
X0176500Y0268400D01*
X0186500Y0268400D02*
X0186500Y0263600D01*
X0196500Y0263600D02*
X0196500Y0268400D01*
X0206500Y0268400D02*
X0206500Y0263600D01*
X0206500Y0283600D02*
X0206500Y0288400D01*
X0196500Y0288400D02*
X0196500Y0283600D01*
X0186500Y0283600D02*
X0186500Y0288400D01*
X0176500Y0288400D02*
X0176500Y0283600D01*
X0166500Y0283600D02*
X0166500Y0288400D01*
X0156500Y0288400D02*
X0156500Y0283600D01*
X0146500Y0283600D02*
X0146500Y0288400D01*
X0136500Y0288400D02*
X0136500Y0283600D01*
X0126500Y0283600D02*
X0126500Y0288400D01*
X0116500Y0288400D02*
X0116500Y0283600D01*
X0116500Y0313600D02*
X0116500Y0318400D01*
X0126500Y0318400D02*
X0126500Y0313600D01*
X0136500Y0313600D02*
X0136500Y0318400D01*
X0146500Y0318400D02*
X0146500Y0313600D01*
X0156500Y0313600D02*
X0156500Y0318400D01*
X0166500Y0318400D02*
X0166500Y0313600D01*
X0176500Y0313600D02*
X0176500Y0318400D01*
X0186500Y0318400D02*
X0186500Y0313600D01*
X0196500Y0313600D02*
X0196500Y0318400D01*
X0206500Y0318400D02*
X0206500Y0313600D01*
X0176500Y0333600D02*
X0176500Y0338400D01*
X0166500Y0338400D02*
X0166500Y0333600D01*
X0156500Y0333600D02*
X0156500Y0338400D01*
X0146500Y0338400D02*
X0146500Y0333600D01*
X0136500Y0333600D02*
X0136500Y0338400D01*
X0126500Y0338400D02*
X0126500Y0333600D01*
X0116500Y0333600D02*
X0116500Y0338400D01*
X0116500Y0363600D02*
X0116500Y0368400D01*
X0126500Y0368400D02*
X0126500Y0363600D01*
X0136500Y0363600D02*
X0136500Y0368400D01*
X0146500Y0368400D02*
X0146500Y0363600D01*
X0156500Y0363600D02*
X0156500Y0368400D01*
X0166500Y0368400D02*
X0166500Y0363600D01*
X0176500Y0363600D02*
X0176500Y0368400D01*
X0194100Y0371000D02*
X0198900Y0371000D01*
X0198900Y0361000D02*
X0194100Y0361000D01*
X0194100Y0351000D02*
X0198900Y0351000D01*
X0198900Y0341000D02*
X0194100Y0341000D01*
X0224100Y0341000D02*
X0228900Y0341000D01*
X0239100Y0341000D02*
X0243900Y0341000D01*
X0243900Y0331000D02*
X0239100Y0331000D01*
X0239100Y0321000D02*
X0243900Y0321000D01*
X0243900Y0311000D02*
X0239100Y0311000D01*
X0269100Y0311000D02*
X0273900Y0311000D01*
X0289100Y0311000D02*
X0293900Y0311000D01*
X0293900Y0321000D02*
X0289100Y0321000D01*
X0289100Y0331000D02*
X0293900Y0331000D01*
X0293900Y0341000D02*
X0289100Y0341000D01*
X0289100Y0351000D02*
X0293900Y0351000D01*
X0273900Y0351000D02*
X0269100Y0351000D01*
X0269100Y0341000D02*
X0273900Y0341000D01*
X0273900Y0331000D02*
X0269100Y0331000D01*
X0269100Y0321000D02*
X0273900Y0321000D01*
X0243900Y0351000D02*
X0239100Y0351000D01*
X0228900Y0351000D02*
X0224100Y0351000D01*
X0224100Y0361000D02*
X0228900Y0361000D01*
X0239100Y0361000D02*
X0243900Y0361000D01*
X0243900Y0371000D02*
X0239100Y0371000D01*
X0228900Y0371000D02*
X0224100Y0371000D01*
X0224100Y0381000D02*
X0228900Y0381000D01*
X0239100Y0381000D02*
X0243900Y0381000D01*
X0243900Y0391000D02*
X0239100Y0391000D01*
X0228900Y0391000D02*
X0224100Y0391000D01*
X0224100Y0401000D02*
X0228900Y0401000D01*
X0239100Y0401000D02*
X0243900Y0401000D01*
X0269100Y0401000D02*
X0273900Y0401000D01*
X0273900Y0391000D02*
X0269100Y0391000D01*
X0269100Y0381000D02*
X0273900Y0381000D01*
X0273900Y0371000D02*
X0269100Y0371000D01*
X0269100Y0361000D02*
X0273900Y0361000D01*
X0289100Y0361000D02*
X0293900Y0361000D01*
X0293900Y0371000D02*
X0289100Y0371000D01*
X0289100Y0381000D02*
X0293900Y0381000D01*
X0293900Y0391000D02*
X0289100Y0391000D01*
X0289100Y0401000D02*
X0293900Y0401000D01*
X0319100Y0401000D02*
X0323900Y0401000D01*
X0323900Y0391000D02*
X0319100Y0391000D01*
X0319100Y0381000D02*
X0323900Y0381000D01*
X0323900Y0371000D02*
X0319100Y0371000D01*
X0319100Y0361000D02*
X0323900Y0361000D01*
X0339100Y0361000D02*
X0343900Y0361000D01*
X0343900Y0371000D02*
X0339100Y0371000D01*
X0339100Y0381000D02*
X0343900Y0381000D01*
X0343900Y0391000D02*
X0339100Y0391000D01*
X0339100Y0401000D02*
X0343900Y0401000D01*
X0369100Y0401000D02*
X0373900Y0401000D01*
X0373900Y0391000D02*
X0369100Y0391000D01*
X0369100Y0381000D02*
X0373900Y0381000D01*
X0373900Y0371000D02*
X0369100Y0371000D01*
X0369100Y0361000D02*
X0373900Y0361000D01*
X0389100Y0361000D02*
X0393900Y0361000D01*
X0393900Y0371000D02*
X0389100Y0371000D01*
X0389100Y0381000D02*
X0393900Y0381000D01*
X0393900Y0391000D02*
X0389100Y0391000D01*
X0389100Y0401000D02*
X0393900Y0401000D01*
X0419100Y0401000D02*
X0423900Y0401000D01*
X0423900Y0391000D02*
X0419100Y0391000D01*
X0419100Y0381000D02*
X0423900Y0381000D01*
X0423900Y0371000D02*
X0419100Y0371000D01*
X0419100Y0361000D02*
X0423900Y0361000D01*
X0439100Y0361000D02*
X0443900Y0361000D01*
X0443900Y0371000D02*
X0439100Y0371000D01*
X0439100Y0381000D02*
X0443900Y0381000D01*
X0443900Y0391000D02*
X0439100Y0391000D01*
X0439100Y0401000D02*
X0443900Y0401000D01*
X0469100Y0401000D02*
X0473900Y0401000D01*
X0473900Y0391000D02*
X0469100Y0391000D01*
X0469100Y0381000D02*
X0473900Y0381000D01*
X0473900Y0371000D02*
X0469100Y0371000D01*
X0469100Y0361000D02*
X0473900Y0361000D01*
X0489100Y0361000D02*
X0493900Y0361000D01*
X0493900Y0371000D02*
X0489100Y0371000D01*
X0489100Y0381000D02*
X0493900Y0381000D01*
X0493900Y0391000D02*
X0489100Y0391000D01*
X0489100Y0401000D02*
X0493900Y0401000D01*
X0519100Y0401000D02*
X0523900Y0401000D01*
X0523900Y0391000D02*
X0519100Y0391000D01*
X0519100Y0381000D02*
X0523900Y0381000D01*
X0523900Y0371000D02*
X0519100Y0371000D01*
X0519100Y0361000D02*
X0523900Y0361000D01*
X0539100Y0361000D02*
X0543900Y0361000D01*
X0543900Y0371000D02*
X0539100Y0371000D01*
X0539100Y0381000D02*
X0543900Y0381000D01*
X0543900Y0391000D02*
X0539100Y0391000D01*
X0539100Y0401000D02*
X0543900Y0401000D01*
X0569100Y0401000D02*
X0573900Y0401000D01*
X0573900Y0391000D02*
X0569100Y0391000D01*
X0569100Y0381000D02*
X0573900Y0381000D01*
X0573900Y0371000D02*
X0569100Y0371000D01*
X0569100Y0361000D02*
X0573900Y0361000D01*
X0589100Y0361000D02*
X0593900Y0361000D01*
X0593900Y0371000D02*
X0589100Y0371000D01*
X0589100Y0381000D02*
X0593900Y0381000D01*
X0593900Y0391000D02*
X0589100Y0391000D01*
X0589100Y0401000D02*
X0593900Y0401000D01*
X0619100Y0401000D02*
X0623900Y0401000D01*
X0623900Y0391000D02*
X0619100Y0391000D01*
X0619100Y0381000D02*
X0623900Y0381000D01*
X0623900Y0371000D02*
X0619100Y0371000D01*
X0619100Y0361000D02*
X0623900Y0361000D01*
X0639100Y0361000D02*
X0643900Y0361000D01*
X0643900Y0371000D02*
X0639100Y0371000D01*
X0639100Y0381000D02*
X0643900Y0381000D01*
X0643900Y0391000D02*
X0639100Y0391000D01*
X0639100Y0401000D02*
X0643900Y0401000D01*
X0669100Y0401000D02*
X0673900Y0401000D01*
X0673900Y0391000D02*
X0669100Y0391000D01*
X0669100Y0381000D02*
X0673900Y0381000D01*
X0673900Y0371000D02*
X0669100Y0371000D01*
X0669100Y0361000D02*
X0673900Y0361000D01*
X0673900Y0351000D02*
X0669100Y0351000D01*
X0669100Y0341000D02*
X0673900Y0341000D01*
X0673900Y0331000D02*
X0669100Y0331000D01*
X0669100Y0321000D02*
X0673900Y0321000D01*
X0673900Y0311000D02*
X0669100Y0311000D01*
X0643900Y0311000D02*
X0639100Y0311000D01*
X0623900Y0311000D02*
X0619100Y0311000D01*
X0619100Y0321000D02*
X0623900Y0321000D01*
X0623900Y0331000D02*
X0619100Y0331000D01*
X0619100Y0341000D02*
X0623900Y0341000D01*
X0623900Y0351000D02*
X0619100Y0351000D01*
X0639100Y0351000D02*
X0643900Y0351000D01*
X0643900Y0341000D02*
X0639100Y0341000D01*
X0639100Y0331000D02*
X0643900Y0331000D01*
X0643900Y0321000D02*
X0639100Y0321000D01*
X0593900Y0321000D02*
X0589100Y0321000D01*
X0589100Y0331000D02*
X0593900Y0331000D01*
X0593900Y0341000D02*
X0589100Y0341000D01*
X0589100Y0351000D02*
X0593900Y0351000D01*
X0573900Y0351000D02*
X0569100Y0351000D01*
X0569100Y0341000D02*
X0573900Y0341000D01*
X0573900Y0331000D02*
X0569100Y0331000D01*
X0569100Y0321000D02*
X0573900Y0321000D01*
X0573900Y0311000D02*
X0569100Y0311000D01*
X0589100Y0311000D02*
X0593900Y0311000D01*
X0543900Y0311000D02*
X0539100Y0311000D01*
X0523900Y0311000D02*
X0519100Y0311000D01*
X0519100Y0321000D02*
X0523900Y0321000D01*
X0523900Y0331000D02*
X0519100Y0331000D01*
X0519100Y0341000D02*
X0523900Y0341000D01*
X0523900Y0351000D02*
X0519100Y0351000D01*
X0539100Y0351000D02*
X0543900Y0351000D01*
X0543900Y0341000D02*
X0539100Y0341000D01*
X0539100Y0331000D02*
X0543900Y0331000D01*
X0543900Y0321000D02*
X0539100Y0321000D01*
X0493900Y0321000D02*
X0489100Y0321000D01*
X0489100Y0331000D02*
X0493900Y0331000D01*
X0493900Y0341000D02*
X0489100Y0341000D01*
X0489100Y0351000D02*
X0493900Y0351000D01*
X0473900Y0351000D02*
X0469100Y0351000D01*
X0469100Y0341000D02*
X0473900Y0341000D01*
X0473900Y0331000D02*
X0469100Y0331000D01*
X0469100Y0321000D02*
X0473900Y0321000D01*
X0473900Y0311000D02*
X0469100Y0311000D01*
X0489100Y0311000D02*
X0493900Y0311000D01*
X0443900Y0311000D02*
X0439100Y0311000D01*
X0423900Y0311000D02*
X0419100Y0311000D01*
X0419100Y0321000D02*
X0423900Y0321000D01*
X0423900Y0331000D02*
X0419100Y0331000D01*
X0419100Y0341000D02*
X0423900Y0341000D01*
X0423900Y0351000D02*
X0419100Y0351000D01*
X0439100Y0351000D02*
X0443900Y0351000D01*
X0443900Y0341000D02*
X0439100Y0341000D01*
X0439100Y0331000D02*
X0443900Y0331000D01*
X0443900Y0321000D02*
X0439100Y0321000D01*
X0393900Y0321000D02*
X0389100Y0321000D01*
X0389100Y0331000D02*
X0393900Y0331000D01*
X0393900Y0341000D02*
X0389100Y0341000D01*
X0389100Y0351000D02*
X0393900Y0351000D01*
X0373900Y0351000D02*
X0369100Y0351000D01*
X0369100Y0341000D02*
X0373900Y0341000D01*
X0373900Y0331000D02*
X0369100Y0331000D01*
X0369100Y0321000D02*
X0373900Y0321000D01*
X0373900Y0311000D02*
X0369100Y0311000D01*
X0389100Y0311000D02*
X0393900Y0311000D01*
X0396500Y0283400D02*
X0396500Y0278600D01*
X0386500Y0278600D02*
X0386500Y0283400D01*
X0376500Y0283400D02*
X0376500Y0278600D01*
X0366500Y0278600D02*
X0366500Y0283400D01*
X0356500Y0283400D02*
X0356500Y0278600D01*
X0316500Y0278600D02*
X0316500Y0283400D01*
X0306500Y0283400D02*
X0306500Y0278600D01*
X0296500Y0278600D02*
X0296500Y0283400D01*
X0286500Y0283400D02*
X0286500Y0278600D01*
X0276500Y0278600D02*
X0276500Y0283400D01*
X0266500Y0283400D02*
X0266500Y0278600D01*
X0256500Y0278600D02*
X0256500Y0283400D01*
X0246500Y0283400D02*
X0246500Y0278600D01*
X0236500Y0278600D02*
X0236500Y0283400D01*
X0239100Y0236000D02*
X0243900Y0236000D01*
X0243900Y0226000D02*
X0239100Y0226000D01*
X0239100Y0216000D02*
X0243900Y0216000D01*
X0243900Y0206000D02*
X0239100Y0206000D01*
X0239100Y0196000D02*
X0243900Y0196000D01*
X0243900Y0186000D02*
X0239100Y0186000D01*
X0239100Y0176000D02*
X0243900Y0176000D01*
X0269100Y0176000D02*
X0273900Y0176000D01*
X0273900Y0186000D02*
X0269100Y0186000D01*
X0269100Y0196000D02*
X0273900Y0196000D01*
X0273900Y0206000D02*
X0269100Y0206000D01*
X0269100Y0216000D02*
X0273900Y0216000D01*
X0289100Y0216000D02*
X0293900Y0216000D01*
X0293900Y0206000D02*
X0289100Y0206000D01*
X0289100Y0196000D02*
X0293900Y0196000D01*
X0293900Y0186000D02*
X0289100Y0186000D01*
X0289100Y0176000D02*
X0293900Y0176000D01*
X0319100Y0176000D02*
X0323900Y0176000D01*
X0323900Y0186000D02*
X0319100Y0186000D01*
X0319100Y0196000D02*
X0323900Y0196000D01*
X0323900Y0206000D02*
X0319100Y0206000D01*
X0319100Y0216000D02*
X0323900Y0216000D01*
X0339100Y0216000D02*
X0343900Y0216000D01*
X0343900Y0206000D02*
X0339100Y0206000D01*
X0339100Y0196000D02*
X0343900Y0196000D01*
X0343900Y0186000D02*
X0339100Y0186000D01*
X0339100Y0176000D02*
X0343900Y0176000D01*
X0369100Y0176000D02*
X0373900Y0176000D01*
X0373900Y0186000D02*
X0369100Y0186000D01*
X0369100Y0196000D02*
X0373900Y0196000D01*
X0373900Y0206000D02*
X0369100Y0206000D01*
X0369100Y0216000D02*
X0373900Y0216000D01*
X0389100Y0216000D02*
X0393900Y0216000D01*
X0393900Y0206000D02*
X0389100Y0206000D01*
X0389100Y0196000D02*
X0393900Y0196000D01*
X0393900Y0186000D02*
X0389100Y0186000D01*
X0389100Y0176000D02*
X0393900Y0176000D01*
X0419100Y0176000D02*
X0423900Y0176000D01*
X0423900Y0186000D02*
X0419100Y0186000D01*
X0419100Y0196000D02*
X0423900Y0196000D01*
X0423900Y0206000D02*
X0419100Y0206000D01*
X0419100Y0216000D02*
X0423900Y0216000D01*
X0439100Y0216000D02*
X0443900Y0216000D01*
X0443900Y0206000D02*
X0439100Y0206000D01*
X0439100Y0196000D02*
X0443900Y0196000D01*
X0443900Y0186000D02*
X0439100Y0186000D01*
X0439100Y0176000D02*
X0443900Y0176000D01*
X0469100Y0176000D02*
X0473900Y0176000D01*
X0473900Y0186000D02*
X0469100Y0186000D01*
X0469100Y0196000D02*
X0473900Y0196000D01*
X0473900Y0206000D02*
X0469100Y0206000D01*
X0469100Y0216000D02*
X0473900Y0216000D01*
X0489100Y0216000D02*
X0493900Y0216000D01*
X0493900Y0206000D02*
X0489100Y0206000D01*
X0489100Y0196000D02*
X0493900Y0196000D01*
X0493900Y0186000D02*
X0489100Y0186000D01*
X0489100Y0176000D02*
X0493900Y0176000D01*
X0519100Y0176000D02*
X0523900Y0176000D01*
X0523900Y0186000D02*
X0519100Y0186000D01*
X0519100Y0196000D02*
X0523900Y0196000D01*
X0523900Y0206000D02*
X0519100Y0206000D01*
X0519100Y0216000D02*
X0523900Y0216000D01*
X0539100Y0216000D02*
X0543900Y0216000D01*
X0543900Y0206000D02*
X0539100Y0206000D01*
X0539100Y0196000D02*
X0543900Y0196000D01*
X0543900Y0186000D02*
X0539100Y0186000D01*
X0539100Y0176000D02*
X0543900Y0176000D01*
X0569100Y0176000D02*
X0573900Y0176000D01*
X0573900Y0186000D02*
X0569100Y0186000D01*
X0569100Y0196000D02*
X0573900Y0196000D01*
X0573900Y0206000D02*
X0569100Y0206000D01*
X0569100Y0216000D02*
X0573900Y0216000D01*
X0589100Y0216000D02*
X0593900Y0216000D01*
X0593900Y0206000D02*
X0589100Y0206000D01*
X0589100Y0196000D02*
X0593900Y0196000D01*
X0593900Y0186000D02*
X0589100Y0186000D01*
X0589100Y0176000D02*
X0593900Y0176000D01*
X0619100Y0176000D02*
X0623900Y0176000D01*
X0623900Y0186000D02*
X0619100Y0186000D01*
X0619100Y0196000D02*
X0623900Y0196000D01*
X0623900Y0206000D02*
X0619100Y0206000D01*
X0619100Y0216000D02*
X0623900Y0216000D01*
X0639100Y0216000D02*
X0643900Y0216000D01*
X0643900Y0206000D02*
X0639100Y0206000D01*
X0639100Y0196000D02*
X0643900Y0196000D01*
X0643900Y0186000D02*
X0639100Y0186000D01*
X0639100Y0176000D02*
X0643900Y0176000D01*
X0669100Y0176000D02*
X0673900Y0176000D01*
X0673900Y0186000D02*
X0669100Y0186000D01*
X0669100Y0196000D02*
X0673900Y0196000D01*
X0673900Y0206000D02*
X0669100Y0206000D01*
X0669100Y0216000D02*
X0673900Y0216000D01*
X0673900Y0226000D02*
X0669100Y0226000D01*
X0669100Y0236000D02*
X0673900Y0236000D01*
X0673900Y0246000D02*
X0669100Y0246000D01*
X0669100Y0256000D02*
X0673900Y0256000D01*
X0673900Y0266000D02*
X0669100Y0266000D01*
X0643900Y0266000D02*
X0639100Y0266000D01*
X0639100Y0256000D02*
X0643900Y0256000D01*
X0643900Y0246000D02*
X0639100Y0246000D01*
X0639100Y0236000D02*
X0643900Y0236000D01*
X0643900Y0226000D02*
X0639100Y0226000D01*
X0623900Y0226000D02*
X0619100Y0226000D01*
X0619100Y0236000D02*
X0623900Y0236000D01*
X0593900Y0236000D02*
X0589100Y0236000D01*
X0589100Y0226000D02*
X0593900Y0226000D01*
X0573900Y0226000D02*
X0569100Y0226000D01*
X0569100Y0236000D02*
X0573900Y0236000D01*
X0543900Y0236000D02*
X0539100Y0236000D01*
X0539100Y0226000D02*
X0543900Y0226000D01*
X0523900Y0226000D02*
X0519100Y0226000D01*
X0519100Y0236000D02*
X0523900Y0236000D01*
X0493900Y0236000D02*
X0489100Y0236000D01*
X0489100Y0226000D02*
X0493900Y0226000D01*
X0473900Y0226000D02*
X0469100Y0226000D01*
X0469100Y0236000D02*
X0473900Y0236000D01*
X0443900Y0236000D02*
X0439100Y0236000D01*
X0439100Y0226000D02*
X0443900Y0226000D01*
X0423900Y0226000D02*
X0419100Y0226000D01*
X0419100Y0236000D02*
X0423900Y0236000D01*
X0393900Y0236000D02*
X0389100Y0236000D01*
X0389100Y0226000D02*
X0393900Y0226000D01*
X0373900Y0226000D02*
X0369100Y0226000D01*
X0369100Y0236000D02*
X0373900Y0236000D01*
X0343900Y0236000D02*
X0339100Y0236000D01*
X0339100Y0226000D02*
X0343900Y0226000D01*
X0323900Y0226000D02*
X0319100Y0226000D01*
X0319100Y0236000D02*
X0323900Y0236000D01*
X0293900Y0236000D02*
X0289100Y0236000D01*
X0289100Y0226000D02*
X0293900Y0226000D01*
X0273900Y0226000D02*
X0269100Y0226000D01*
X0269100Y0236000D02*
X0273900Y0236000D01*
X0206500Y0188400D02*
X0206500Y0183600D01*
X0196500Y0183600D02*
X0196500Y0188400D01*
X0186500Y0188400D02*
X0186500Y0183600D01*
X0239100Y0131000D02*
X0243900Y0131000D01*
X0406500Y0278600D02*
X0406500Y0283400D01*
X0416500Y0283400D02*
X0416500Y0278600D01*
X0426500Y0278600D02*
X0426500Y0283400D01*
X0436500Y0283400D02*
X0436500Y0278600D01*
X0343900Y0311000D02*
X0339100Y0311000D01*
X0323900Y0311000D02*
X0319100Y0311000D01*
X0319100Y0321000D02*
X0323900Y0321000D01*
X0323900Y0331000D02*
X0319100Y0331000D01*
X0319100Y0341000D02*
X0323900Y0341000D01*
X0323900Y0351000D02*
X0319100Y0351000D01*
X0339100Y0351000D02*
X0343900Y0351000D01*
X0343900Y0341000D02*
X0339100Y0341000D01*
X0339100Y0331000D02*
X0343900Y0331000D01*
X0343900Y0321000D02*
X0339100Y0321000D01*
X0198900Y0381000D02*
X0194100Y0381000D01*
X0194100Y0391000D02*
X0198900Y0391000D01*
X0198900Y0401000D02*
X0194100Y0401000D01*
X0176500Y0388400D02*
X0176500Y0383600D01*
X0166500Y0383600D02*
X0166500Y0388400D01*
X0156500Y0388400D02*
X0156500Y0383600D01*
X0146500Y0383600D02*
X0146500Y0388400D01*
X0136500Y0388400D02*
X0136500Y0383600D01*
X0126500Y0383600D02*
X0126500Y0388400D01*
X0116500Y0388400D02*
X0116500Y0383600D01*
X0116500Y0413600D02*
X0116500Y0418400D01*
X0126500Y0418400D02*
X0126500Y0413600D01*
X0136500Y0413600D02*
X0136500Y0418400D01*
X0146500Y0418400D02*
X0146500Y0413600D01*
X0156500Y0413600D02*
X0156500Y0418400D01*
X0166500Y0418400D02*
X0166500Y0413600D01*
X0176500Y0413600D02*
X0176500Y0418400D01*
D12*
X0106500Y0433000D02*
X0106500Y0439000D01*
X0096500Y0439000D02*
X0096500Y0433000D01*
X0086500Y0433000D02*
X0086500Y0439000D01*
X0066500Y0439000D02*
X0066500Y0433000D01*
X0056500Y0433000D02*
X0056500Y0439000D01*
X0046500Y0439000D02*
X0046500Y0433000D01*
D13*
X0051500Y0381000D03*
X0051500Y0371000D03*
X0051500Y0361000D03*
X0061500Y0361000D03*
X0071500Y0361000D03*
X0071500Y0371000D03*
X0061500Y0371000D03*
X0061500Y0381000D03*
X0071500Y0381000D03*
X0071500Y0351000D03*
X0061500Y0351000D03*
X0061500Y0341000D03*
X0071500Y0341000D03*
X0071500Y0331000D03*
X0061500Y0331000D03*
X0061500Y0321000D03*
X0071500Y0321000D03*
X0071500Y0311000D03*
X0061500Y0311000D03*
X0061500Y0301000D03*
X0071500Y0301000D03*
X0071500Y0291000D03*
X0061500Y0291000D03*
X0061500Y0281000D03*
X0071500Y0281000D03*
X0071500Y0271000D03*
X0061500Y0271000D03*
X0051500Y0271000D03*
X0051500Y0281000D03*
X0051500Y0291000D03*
X0051500Y0301000D03*
X0051500Y0311000D03*
X0051500Y0321000D03*
X0051500Y0331000D03*
X0051500Y0341000D03*
X0051500Y0351000D03*
X0051500Y0261000D03*
X0051500Y0251000D03*
X0051500Y0241000D03*
X0051500Y0231000D03*
X0051500Y0221000D03*
X0061500Y0221000D03*
X0071500Y0221000D03*
X0071500Y0231000D03*
X0061500Y0231000D03*
X0061500Y0241000D03*
X0071500Y0241000D03*
X0071500Y0251000D03*
X0061500Y0251000D03*
X0061500Y0261000D03*
X0071500Y0261000D03*
X0071500Y0211000D03*
X0061500Y0211000D03*
X0061500Y0201000D03*
X0071500Y0201000D03*
X0071500Y0191000D03*
X0061500Y0191000D03*
X0061500Y0181000D03*
X0071500Y0181000D03*
X0071500Y0171000D03*
X0061500Y0171000D03*
X0061500Y0161000D03*
X0071500Y0161000D03*
X0071500Y0151000D03*
X0061500Y0151000D03*
X0061500Y0141000D03*
X0071500Y0141000D03*
X0071500Y0131000D03*
X0061500Y0131000D03*
X0051500Y0131000D03*
X0051500Y0141000D03*
X0051500Y0151000D03*
X0051500Y0161000D03*
X0051500Y0171000D03*
X0051500Y0181000D03*
X0051500Y0191000D03*
X0051500Y0201000D03*
X0051500Y0211000D03*
X0051500Y0121000D03*
X0051500Y0111000D03*
X0051500Y0101000D03*
X0051500Y0091000D03*
X0061500Y0091000D03*
X0071500Y0091000D03*
X0071500Y0101000D03*
X0061500Y0101000D03*
X0061500Y0111000D03*
X0071500Y0111000D03*
X0071500Y0121000D03*
X0061500Y0121000D03*
X0061500Y0081000D03*
X0071500Y0081000D03*
X0071500Y0071000D03*
X0061500Y0071000D03*
X0051500Y0071000D03*
X0051500Y0081000D03*
X0706500Y0216000D03*
X0716500Y0216000D03*
X0716500Y0226000D03*
X0716500Y0236000D03*
X0716500Y0246000D03*
X0716500Y0256000D03*
X0716500Y0266000D03*
X0706500Y0266000D03*
X0706500Y0256000D03*
X0706500Y0246000D03*
X0706500Y0236000D03*
X0706500Y0226000D03*
X0706500Y0276000D03*
X0706500Y0286000D03*
X0706500Y0296000D03*
X0706500Y0306000D03*
X0716500Y0306000D03*
X0716500Y0296000D03*
X0716500Y0286000D03*
X0716500Y0276000D03*
X0716500Y0316000D03*
X0716500Y0326000D03*
X0716500Y0336000D03*
X0716500Y0346000D03*
X0716500Y0356000D03*
X0706500Y0356000D03*
X0706500Y0346000D03*
X0706500Y0336000D03*
X0706500Y0326000D03*
X0706500Y0316000D03*
X0706500Y0366000D03*
X0706500Y0376000D03*
X0706500Y0386000D03*
X0706500Y0396000D03*
X0716500Y0396000D03*
X0716500Y0386000D03*
X0716500Y0376000D03*
X0716500Y0366000D03*
X0716500Y0406000D03*
X0706500Y0406000D03*
D14*
X0041500Y0050975D03*
X0041500Y0401025D03*
D15*
X0696500Y0436000D03*
X0706500Y0436000D03*
D16*
X0685250Y0377250D03*
X0687750Y0374750D03*
X0694000Y0363500D03*
X0694000Y0358500D03*
X0701500Y0353500D03*
X0694000Y0349750D03*
X0691500Y0337250D03*
X0700250Y0314750D03*
X0687750Y0293500D03*
X0680250Y0273500D03*
X0695250Y0261000D03*
X0700250Y0253500D03*
X0697750Y0244750D03*
X0677750Y0249750D03*
X0652750Y0268500D03*
X0657750Y0273500D03*
X0647750Y0284750D03*
X0632750Y0271000D03*
X0605250Y0279750D03*
X0620250Y0249750D03*
X0627750Y0249750D03*
X0630250Y0222250D03*
X0630250Y0194750D03*
X0585250Y0201000D03*
X0582750Y0217250D03*
X0565250Y0229750D03*
X0549000Y0206000D03*
X0532750Y0192250D03*
X0535250Y0169750D03*
X0541500Y0164750D03*
X0569000Y0167250D03*
X0620250Y0154750D03*
X0665250Y0134750D03*
X0687750Y0148500D03*
X0687750Y0152250D03*
X0712750Y0133500D03*
X0717750Y0139750D03*
X0700250Y0122250D03*
X0682750Y0114750D03*
X0682750Y0111000D03*
X0682750Y0099750D03*
X0680250Y0097250D03*
X0694000Y0106000D03*
X0707750Y0104750D03*
X0664000Y0087250D03*
X0660250Y0112250D03*
X0615250Y0074750D03*
X0580250Y0114750D03*
X0510250Y0127250D03*
X0482750Y0137250D03*
X0457750Y0132250D03*
X0432750Y0114750D03*
X0410250Y0127250D03*
X0410250Y0132250D03*
X0377750Y0157250D03*
X0360250Y0169750D03*
X0349000Y0159750D03*
X0327750Y0152250D03*
X0317750Y0159750D03*
X0297750Y0154750D03*
X0297750Y0179750D03*
X0305250Y0182250D03*
X0307750Y0202250D03*
X0282750Y0213500D03*
X0285250Y0229750D03*
X0277750Y0254750D03*
X0280250Y0261000D03*
X0287750Y0264750D03*
X0297750Y0267250D03*
X0315250Y0257250D03*
X0332750Y0272250D03*
X0340250Y0274750D03*
X0349000Y0289750D03*
X0342750Y0306000D03*
X0329000Y0299750D03*
X0324000Y0302250D03*
X0315250Y0304750D03*
X0295250Y0289750D03*
X0275250Y0289750D03*
X0276500Y0273500D03*
X0255250Y0269750D03*
X0247750Y0257250D03*
X0220250Y0279750D03*
X0211500Y0292250D03*
X0205250Y0294750D03*
X0195250Y0299750D03*
X0165250Y0297250D03*
X0167750Y0277250D03*
X0155250Y0277250D03*
X0135250Y0274750D03*
X0137750Y0254750D03*
X0135250Y0244750D03*
X0124000Y0227250D03*
X0122750Y0222250D03*
X0131500Y0217250D03*
X0122750Y0194750D03*
X0099000Y0189750D03*
X0092750Y0192250D03*
X0095250Y0163500D03*
X0105250Y0163500D03*
X0130250Y0159750D03*
X0149000Y0156000D03*
X0146500Y0146000D03*
X0112750Y0146000D03*
X0107750Y0136000D03*
X0092750Y0129750D03*
X0092750Y0142250D03*
X0059000Y0096000D03*
X0110250Y0093500D03*
X0131500Y0083500D03*
X0191500Y0117250D03*
X0212750Y0124750D03*
X0227750Y0143500D03*
X0255250Y0124750D03*
X0281500Y0127250D03*
X0310250Y0094750D03*
X0327750Y0084750D03*
X0332750Y0139750D03*
X0355250Y0184750D03*
X0382750Y0194750D03*
X0357750Y0222250D03*
X0332750Y0222250D03*
X0250250Y0177250D03*
X0232750Y0189750D03*
X0220250Y0194750D03*
X0200250Y0192250D03*
X0180250Y0192250D03*
X0172750Y0192250D03*
X0187750Y0167250D03*
X0185250Y0153500D03*
X0215250Y0167250D03*
X0217750Y0224750D03*
X0165250Y0244750D03*
X0092750Y0249750D03*
X0084000Y0252250D03*
X0081500Y0274750D03*
X0092750Y0279750D03*
X0095250Y0288500D03*
X0086500Y0288500D03*
X0110250Y0302250D03*
X0114000Y0294750D03*
X0125250Y0302250D03*
X0135250Y0302250D03*
X0107750Y0327250D03*
X0081500Y0338500D03*
X0165250Y0327250D03*
X0182750Y0327250D03*
X0190250Y0327250D03*
X0209000Y0337250D03*
X0235250Y0346000D03*
X0256500Y0349750D03*
X0265250Y0344750D03*
X0297750Y0347250D03*
X0285250Y0317250D03*
X0387750Y0289750D03*
X0397750Y0301000D03*
X0410250Y0292250D03*
X0442750Y0293500D03*
X0402750Y0317250D03*
X0402750Y0344750D03*
X0415250Y0397250D03*
X0580250Y0313500D03*
X0652750Y0344750D03*
X0615250Y0364750D03*
X0612750Y0367250D03*
X0721500Y0268500D03*
X0695250Y0219750D03*
X0707750Y0207250D03*
X0500250Y0192250D03*
X0452750Y0192250D03*
X0482750Y0159750D03*
X0487750Y0154750D03*
X0497750Y0097250D03*
X0430250Y0094750D03*
X0415250Y0027250D03*
X0392750Y0024750D03*
X0500250Y0024750D03*
X0512750Y0022250D03*
X0521500Y0027250D03*
X0682750Y0029750D03*
X0694000Y0032250D03*
X0462750Y0232250D03*
X0452750Y0234750D03*
X0480250Y0244750D03*
X0235250Y0422250D03*
X0199000Y0438500D03*
X0181500Y0388500D03*
X0041500Y0194750D03*
X0162750Y0024750D03*
M02*
