%
M48
M72
T01C0.01300
T02C0.03200
T03C0.04000
T04C0.11000
%
T01
X181500Y388500
X135250Y244750
X124000Y227250
X86500Y288500
X92750Y249750
X329000Y299750
X285250Y317250
X342750Y306000
X265250Y344750
X297750Y347250
X315250Y304750
X615250Y364750
X701500Y353500
X694000Y349750
X694000Y358500
X694000Y363500
X687750Y374750
X685250Y377250
X402750Y344750
X397750Y301000
X275250Y289750
X220250Y279750
X256500Y349750
X199000Y438500
X235250Y422250
X84000Y252250
X332750Y222250
X332750Y272250
X340250Y274750
X276500Y273500
X295250Y289750
X410250Y292250
X382750Y194750
X305250Y182250
X297750Y267250
X287750Y264750
X280250Y261000
X277750Y254750
X315250Y257250
X232750Y189750
X217750Y224750
X235250Y346000
X110250Y302250
X165250Y297250
X105250Y163500
X122750Y222250
X165250Y327250
X324000Y302250
X387750Y289750
X349000Y289750
X209000Y337250
X190250Y327250
X182750Y327250
X81500Y338500
X107750Y327250
X41500Y194750
X195250Y299750
X255250Y269750
X247750Y257250
X355250Y184750
X462750Y232250
X452750Y234750
X480250Y244750
X415250Y397250
X612750Y367250
X620250Y249750
X721500Y268500
X700250Y314750
X687750Y293500
X695250Y261000
X700250Y253500
X691500Y337250
X442750Y293500
X402750Y317250
X297750Y179750
X250250Y177250
X215250Y167250
X59000Y96000
X92750Y129750
X81500Y274750
X165250Y244750
X285250Y229750
X317750Y159750
X327750Y152250
X620250Y154750
X652750Y344750
X680250Y273500
X657750Y273500
X652750Y268500
X647750Y284750
X580250Y313500
X605250Y279750
X694000Y106000
X585250Y201000
X707750Y207250
X695250Y219750
X697750Y244750
X677750Y249750
X565250Y229750
X630250Y222250
X627750Y249750
X632750Y271000
X582750Y217250
X307750Y202250
X282750Y213500
X332750Y139750
X377750Y157250
X500250Y192250
X532750Y192250
X569000Y167250
X549000Y206000
X452750Y192250
X220250Y194750
X200250Y192250
X212750Y124750
X281500Y127250
X432750Y114750
X615250Y74750
X630250Y194750
X482750Y159750
X357750Y222250
X535250Y169750
X541500Y164750
X487750Y154750
X297750Y154750
X227750Y143500
X255250Y124750
X497750Y97250
X410250Y132250
X410250Y127250
X430250Y94750
X457750Y132250
X580250Y114750
X660250Y112250
X510250Y127250
X482750Y137250
X500250Y24750
X392750Y24750
X521500Y27250
X512750Y22250
X665250Y134750
X717750Y139750
X360250Y169750
X349000Y159750
X415250Y27250
X327750Y84750
X310250Y94750
X92750Y192250
X155250Y277250
X191500Y117250
X187750Y167250
X185250Y153500
X180250Y192250
X172750Y192250
X99000Y189750
X95250Y288500
X92750Y279750
X110250Y93500
X95250Y163500
X114000Y294750
X125250Y302250
X135250Y302250
X135250Y274750
X167750Y277250
X131500Y217250
X122750Y194750
X137750Y254750
X205250Y294750
X211500Y292250
X107750Y136000
X92750Y142250
X112750Y146000
X130250Y159750
X149000Y156000
X146500Y146000
X162750Y24750
X131500Y83500
X687750Y152250
X687750Y148500
X682750Y114750
X682750Y111000
X664000Y87250
X680250Y97250
X682750Y99750
X682750Y29750
X694000Y32250
X707750Y104750
X712750Y133500
X700250Y122250
T02
X196500Y401000
X196500Y391000
X196500Y381000
X196500Y371000
X196500Y361000
X196500Y351000
X101500Y406000
X101500Y256000
X136500Y236000
X146500Y236000
X116500Y336000
X126500Y336000
X136500Y386000
X176500Y236000
X176500Y316000
X321500Y321000
X371500Y321000
X291500Y311000
X291500Y381000
X341500Y381000
X341500Y371000
X341500Y361000
X341500Y351000
X321500Y351000
X321500Y341000
X321500Y331000
X271500Y311000
X271500Y321000
X271500Y331000
X291500Y321000
X341500Y321000
X341500Y331000
X341500Y341000
X341500Y311000
X421500Y311000
X421500Y361000
X421500Y371000
X271500Y361000
X271500Y371000
X271500Y351000
X391500Y341000
X391500Y351000
X371500Y361000
X371500Y371000
X391500Y361000
X391500Y371000
X371500Y351000
X291500Y351000
X291500Y361000
X291500Y371000
X321500Y371000
X321500Y361000
X321500Y381000
X321500Y391000
X371500Y391000
X521500Y391000
X521500Y381000
X521500Y371000
X521500Y361000
X621500Y361000
X621500Y371000
X671500Y371000
X621500Y381000
X441500Y381000
X441500Y391000
X441500Y371000
X441500Y361000
X471500Y371000
X471500Y361000
X471500Y351000
X471500Y341000
X471500Y331000
X471500Y321000
X391500Y331000
X391500Y321000
X241500Y321000
X271500Y341000
X291500Y341000
X291500Y331000
X321500Y311000
X321500Y401000
X351500Y416000
X261500Y416000
X251500Y416000
X116500Y416000
X206500Y416000
X226500Y401000
X126500Y416000
X136500Y416000
X146500Y416000
X156500Y416000
X166500Y416000
X216500Y416000
X241500Y401000
X241500Y391000
X226500Y391000
X226500Y381000
X226500Y371000
X241500Y381000
X246500Y281000
X241500Y371000
X226500Y361000
X226500Y351000
X241500Y331000
X241500Y351000
X241500Y341000
X226500Y341000
X196500Y341000
X176500Y336000
X176500Y416000
X176500Y386000
X166500Y386000
X156500Y386000
X146500Y386000
X116500Y366000
X101500Y396000
X101500Y346000
X101500Y356000
X146500Y166000
X146500Y86000
X156500Y86000
X166500Y36000
X216500Y46000
X241500Y41000
X241500Y51000
X241500Y61000
X216500Y86000
X116500Y66000
X101500Y246000
X116500Y236000
X126500Y236000
X126500Y216000
X176500Y366000
X166500Y366000
X156500Y366000
X146500Y366000
X136500Y366000
X126500Y366000
X116500Y386000
X126500Y386000
X196500Y236000
X186500Y236000
X241500Y236000
X356500Y281000
X366500Y281000
X371500Y341000
X421500Y341000
X421500Y351000
X421500Y381000
X421500Y391000
X271500Y391000
X316500Y281000
X306500Y281000
X291500Y391000
X291500Y401000
X271500Y401000
X301500Y416000
X311500Y416000
X341500Y401000
X341500Y391000
X371500Y401000
X371500Y381000
X391500Y401000
X391500Y391000
X391500Y381000
X401500Y416000
X411500Y416000
X421500Y401000
X441500Y401000
X471500Y391000
X471500Y401000
X521500Y401000
X551500Y416000
X461500Y416000
X501500Y416000
X511500Y416000
X541500Y401000
X541500Y391000
X541500Y381000
X541500Y371000
X541500Y361000
X541500Y351000
X441500Y341000
X441500Y351000
X441500Y331000
X441500Y321000
X441500Y311000
X421500Y61000
X421500Y51000
X441500Y196000
X441500Y186000
X491500Y401000
X491500Y391000
X591500Y391000
X571500Y401000
X591500Y436000
X561500Y416000
X571500Y391000
X591500Y381000
X591500Y371000
X591500Y361000
X591500Y351000
X591500Y341000
X591500Y331000
X591500Y321000
X641500Y311000
X571500Y311000
X491500Y311000
X471500Y311000
X491500Y321000
X491500Y331000
X491500Y341000
X491500Y351000
X491500Y361000
X491500Y371000
X491500Y381000
X471500Y381000
X451500Y416000
X361500Y416000
X271500Y381000
X241500Y361000
X256500Y281000
X236500Y281000
X266500Y281000
X276500Y281000
X286500Y281000
X296500Y281000
X301500Y251000
X311500Y251000
X271500Y236000
X271500Y196000
X241500Y196000
X241500Y186000
X241500Y176000
X241500Y216000
X241500Y226000
X196500Y316000
X206500Y316000
X371500Y311000
X391500Y311000
X376500Y281000
X386500Y281000
X396500Y281000
X421500Y321000
X406500Y281000
X416500Y281000
X426500Y281000
X436500Y281000
X451500Y251000
X461500Y251000
X441500Y236000
X441500Y216000
X441500Y226000
X421500Y196000
X421500Y186000
X471500Y186000
X471500Y236000
X491500Y236000
X541500Y226000
X541500Y216000
X541500Y186000
X291500Y186000
X241500Y101000
X391500Y101000
X391500Y91000
X391500Y81000
X391500Y71000
X391500Y61000
X391500Y51000
X291500Y41000
X341500Y51000
X341500Y61000
X341500Y41000
X371500Y186000
X321500Y176000
X321500Y186000
X291500Y236000
X291500Y226000
X341500Y226000
X341500Y186000
X341500Y176000
X371500Y176000
X571500Y176000
X571500Y196000
X571500Y216000
X571500Y226000
X641500Y196000
X621500Y341000
X621500Y351000
X621500Y331000
X621500Y321000
X641500Y236000
X641500Y226000
X671500Y246000
X371500Y236000
X351500Y146000
X301500Y146000
X261500Y146000
X271500Y186000
X621500Y196000
X621500Y186000
X621500Y176000
X641500Y351000
X671500Y341000
X671500Y331000
X671500Y321000
X671500Y311000
X661500Y281000
X671500Y266000
X671500Y391000
X671500Y401000
X641500Y391000
X591500Y401000
X571500Y381000
X571500Y371000
X571500Y361000
X571500Y351000
X571500Y341000
X571500Y331000
X571500Y321000
X591500Y311000
X611500Y416000
X601500Y416000
X621500Y401000
X621500Y391000
X641500Y371000
X671500Y381000
X671500Y361000
X671500Y351000
X641500Y341000
X641500Y321000
X641500Y331000
X641500Y361000
X641500Y381000
X641500Y401000
X651500Y416000
X661500Y416000
X631500Y436000
X621500Y311000
X601500Y251000
X551500Y251000
X521500Y311000
X521500Y321000
X421500Y331000
X371500Y331000
X251500Y251000
X206500Y186000
X166500Y336000
X156500Y336000
X166500Y316000
X156500Y316000
X146500Y316000
X136500Y316000
X116500Y316000
X116500Y166000
X156500Y236000
X206500Y236000
X206500Y286000
X101500Y56000
X166500Y236000
X166500Y216000
X156500Y216000
X146500Y216000
X176500Y216000
X186500Y216000
X196500Y216000
X186500Y316000
X206500Y266000
X196500Y266000
X196500Y286000
X101500Y156000
X101500Y206000
X101500Y196000
X116500Y216000
X136500Y216000
X261500Y251000
X271500Y226000
X271500Y216000
X421500Y216000
X421500Y206000
X441500Y206000
X421500Y226000
X421500Y236000
X411500Y251000
X411500Y146000
X361500Y146000
X371500Y226000
X371500Y216000
X291500Y196000
X291500Y206000
X291500Y176000
X321500Y236000
X341500Y236000
X361500Y251000
X351500Y251000
X391500Y236000
X391500Y196000
X371500Y196000
X391500Y186000
X401500Y251000
X391500Y226000
X391500Y216000
X391500Y206000
X371500Y206000
X341500Y216000
X341500Y206000
X341500Y196000
X321500Y206000
X321500Y216000
X321500Y226000
X291500Y216000
X241500Y206000
X196500Y186000
X186500Y186000
X271500Y206000
X321500Y196000
X271500Y176000
X311500Y146000
X321500Y131000
X371500Y121000
X521500Y111000
X521500Y121000
X621500Y121000
X621500Y111000
X621500Y101000
X621500Y91000
X571500Y91000
X571500Y101000
X571500Y81000
X571500Y71000
X471500Y71000
X471500Y81000
X421500Y81000
X421500Y71000
X441500Y61000
X441500Y51000
X441500Y41000
X421500Y41000
X391500Y176000
X591500Y176000
X591500Y186000
X591500Y196000
X621500Y206000
X621500Y216000
X641500Y266000
X671500Y256000
X671500Y236000
X671500Y226000
X621500Y226000
X621500Y236000
X571500Y236000
X541500Y311000
X541500Y321000
X541500Y331000
X521500Y331000
X521500Y341000
X521500Y351000
X541500Y341000
X471500Y196000
X471500Y176000
X491500Y176000
X491500Y186000
X521500Y196000
X521500Y186000
X521500Y216000
X521500Y176000
X591500Y206000
X471500Y216000
X471500Y206000
X491500Y196000
X521500Y206000
X541500Y206000
X591500Y236000
X591500Y226000
X591500Y216000
X571500Y206000
X541500Y196000
X441500Y176000
X421500Y176000
X401500Y146000
X371500Y131000
X391500Y131000
X421500Y131000
X441500Y131000
X491500Y131000
X491500Y206000
X511500Y251000
X521500Y236000
X521500Y226000
X521500Y41000
X721500Y41000
X721500Y51000
X701500Y146000
X651500Y146000
X621500Y131000
X611500Y146000
X541500Y176000
X561500Y146000
X551500Y146000
X571500Y131000
X571500Y121000
X591500Y111000
X591500Y121000
X591500Y101000
X591500Y91000
X571500Y111000
X471500Y111000
X471500Y121000
X421500Y121000
X421500Y111000
X421500Y101000
X421500Y91000
X471500Y91000
X471500Y101000
X521500Y131000
X521500Y101000
X521500Y91000
X451500Y146000
X461500Y146000
X471500Y131000
X491500Y121000
X491500Y111000
X501500Y146000
X541500Y236000
X561500Y251000
X611500Y251000
X641500Y246000
X641500Y256000
X651500Y281000
X711500Y146000
X641500Y131000
X671500Y121000
X541500Y101000
X391500Y111000
X391500Y121000
X371500Y111000
X491500Y101000
X491500Y91000
X491500Y81000
X591500Y71000
X591500Y81000
X571500Y61000
X471500Y51000
X471500Y61000
X471500Y41000
X621500Y61000
X621500Y51000
X621500Y41000
X641500Y186000
X641500Y176000
X671500Y186000
X671500Y176000
X601500Y146000
X591500Y131000
X541500Y121000
X441500Y121000
X441500Y111000
X441500Y101000
X441500Y91000
X441500Y81000
X441500Y71000
X491500Y71000
X371500Y41000
X371500Y51000
X491500Y61000
X491500Y51000
X491500Y41000
X511500Y146000
X541500Y131000
X541500Y111000
X541500Y91000
X541500Y81000
X621500Y81000
X621500Y71000
X541500Y61000
X541500Y71000
X521500Y71000
X521500Y81000
X521500Y61000
X521500Y51000
X541500Y41000
X541500Y51000
X571500Y51000
X571500Y41000
X591500Y41000
X591500Y51000
X391500Y41000
X371500Y61000
X371500Y71000
X371500Y81000
X341500Y131000
X341500Y121000
X341500Y111000
X321500Y111000
X321500Y121000
X291500Y111000
X291500Y121000
X291500Y131000
X271500Y131000
X251500Y146000
X176500Y166000
X206500Y216000
X116500Y186000
X101500Y46000
X116500Y36000
X101500Y146000
X116500Y136000
X126500Y136000
X126500Y186000
X136500Y186000
X146500Y186000
X156500Y186000
X166500Y186000
X176500Y186000
X166500Y166000
X156500Y166000
X146500Y136000
X136500Y136000
X126500Y166000
X136500Y166000
X176500Y136000
X166500Y136000
X156500Y136000
X166500Y116000
X186500Y116000
X176500Y116000
X321500Y101000
X371500Y101000
X371500Y91000
X341500Y91000
X341500Y101000
X321500Y91000
X291500Y91000
X291500Y101000
X271500Y101000
X271500Y111000
X271500Y121000
X241500Y121000
X241500Y131000
X241500Y111000
X241500Y91000
X341500Y81000
X341500Y71000
X321500Y71000
X321500Y81000
X291500Y71000
X291500Y81000
X271500Y81000
X271500Y91000
X241500Y81000
X241500Y71000
X186500Y36000
X271500Y41000
X291500Y51000
X291500Y61000
X271500Y61000
X271500Y51000
X271500Y71000
X321500Y51000
X321500Y61000
X321500Y41000
X186500Y86000
X176500Y86000
X166500Y86000
X166500Y66000
X186500Y66000
X176500Y36000
X156500Y36000
X146500Y36000
X126500Y66000
X136500Y66000
X146500Y66000
X156500Y66000
X176500Y66000
X136500Y86000
X126500Y116000
X126500Y86000
X101500Y106000
X116500Y116000
X136500Y116000
X156500Y116000
X146500Y116000
X186500Y286000
X176500Y286000
X166500Y286000
X116500Y286000
X101500Y306000
X101500Y296000
X126500Y286000
X126500Y316000
X136500Y336000
X146500Y336000
X146500Y286000
X136500Y286000
X136500Y266000
X156500Y266000
X166500Y266000
X176500Y266000
X186500Y266000
X156500Y286000
X126500Y266000
X116500Y266000
X146500Y266000
X241500Y311000
X471500Y226000
X491500Y226000
X491500Y216000
X501500Y251000
X571500Y186000
X641500Y206000
X671500Y216000
X641500Y216000
X671500Y206000
X721500Y131000
X691500Y111000
X641500Y121000
X641500Y111000
X641500Y101000
X641500Y91000
X641500Y81000
X641500Y71000
X641500Y61000
X641500Y51000
X641500Y41000
X591500Y61000
X661500Y146000
X721500Y121000
X721500Y111000
X721500Y101000
X691500Y131000
X671500Y131000
X691500Y121000
X671500Y111000
X671500Y101000
X671500Y81000
X671500Y71000
X671500Y61000
X681500Y11000
X716500Y11000
X716500Y21000
X691500Y41000
X691500Y51000
X691500Y61000
X671500Y51000
X671500Y41000
X691500Y71000
X671500Y91000
X691500Y101000
X691500Y91000
X721500Y91000
X691500Y81000
X721500Y81000
X721500Y71000
X721500Y61000
X641500Y11000
X671500Y196000
X136500Y36000
X126500Y36000
X116500Y86000
X101500Y96000
T03
X56500Y436000
X46500Y436000
X71500Y311000
X71500Y301000
X706500Y356000
X706500Y366000
X716500Y366000
X706500Y396000
X716500Y396000
X716500Y386000
X706500Y386000
X706500Y376000
X716500Y376000
X716500Y326000
X716500Y356000
X716500Y346000
X86500Y436000
X96500Y436000
X106500Y436000
X66500Y436000
X71500Y371000
X61500Y371000
X61500Y381000
X71500Y381000
X71500Y361000
X71500Y351000
X51500Y351000
X61500Y351000
X61500Y341000
X71500Y341000
X61500Y201000
X61500Y211000
X71500Y211000
X61500Y231000
X71500Y231000
X61500Y251000
X61500Y261000
X51500Y341000
X51500Y331000
X71500Y221000
X51500Y211000
X51500Y201000
X51500Y191000
X51500Y381000
X51500Y371000
X51500Y361000
X61500Y361000
X61500Y331000
X71500Y331000
X71500Y321000
X716500Y266000
X706500Y276000
X716500Y276000
X706500Y296000
X716500Y296000
X716500Y306000
X716500Y316000
X706500Y316000
X706500Y346000
X706500Y336000
X716500Y336000
X706500Y326000
X706500Y306000
X706500Y286000
X716500Y286000
X706500Y266000
X716500Y256000
X61500Y111000
X61500Y101000
X71500Y101000
X51500Y101000
X51500Y91000
X61500Y91000
X71500Y91000
X61500Y81000
X71500Y81000
X71500Y71000
X61500Y71000
X51500Y71000
X51500Y81000
X71500Y111000
X61500Y121000
X71500Y121000
X61500Y271000
X71500Y271000
X61500Y291000
X51500Y301000
X706500Y406000
X716500Y406000
X706500Y436000
X696500Y436000
X706500Y246000
X716500Y246000
X716500Y236000
X706500Y236000
X706500Y226000
X716500Y226000
X716500Y216000
X706500Y216000
X706500Y256000
X61500Y281000
X71500Y281000
X61500Y191000
X71500Y191000
X71500Y181000
X51500Y291000
X71500Y291000
X61500Y301000
X51500Y311000
X61500Y241000
X71500Y241000
X71500Y251000
X71500Y261000
X51500Y261000
X71500Y171000
X71500Y161000
X71500Y151000
X71500Y141000
X71500Y201000
X51500Y181000
X61500Y181000
X61500Y171000
X61500Y161000
X61500Y151000
X61500Y141000
X61500Y131000
X71500Y131000
X51500Y111000
X51500Y121000
X51500Y131000
X51500Y141000
X51500Y151000
X51500Y161000
X51500Y171000
X51500Y221000
X51500Y321000
X61500Y321000
X61500Y311000
X51500Y281000
X51500Y271000
X51500Y251000
X51500Y241000
X51500Y231000
X61500Y221000
T04
X41500Y401025
X41500Y50975
M30
