M48
;GenerationSoftware,Autodesk,EAGLE,9.6.2*%
;CreationDate,2020-08-23T19:36:11Z*%
FMAT,2
ICI,OFF
METRIC,TZ,000.000
T11C0.330
T10C0.800
T9C0.813
T8C0.914
T7C1.000
T6C1.016
T5C1.118
T4C1.143
T3C1.200
T2C1.803
T1C2.794
%
G90
M71
T1
X48254Y20320
X137166Y20320
T2
X41910Y146939
X41910Y142240
X41910Y137541
X53340Y146939
X53340Y142240
X53340Y137541
X140970Y137541
X140970Y142240
X140970Y146939
X121920Y137541
X121920Y142240
X121920Y146939
X110490Y137541
X110490Y142240
X110490Y146939
X99060Y137541
X99060Y142240
X99060Y146939
X87630Y137541
X87630Y142240
X87630Y146939
X76200Y137541
X76200Y142240
X76200Y146939
X64770Y137541
X64770Y142240
X64770Y146939
T3
X39680Y190540
X46680Y190540
T4
X141680Y102580
X141680Y98080
X135180Y102580
X135180Y98080
T5
X52070Y189230
X57150Y189230
X62230Y189230
X67310Y189230
T6
X58420Y27940
X60960Y27940
X63500Y27940
X66040Y27940
X68580Y27940
X71120Y27940
X73660Y27940
X76200Y27940
X78740Y27940
X81280Y27940
X83820Y27940
X86360Y27940
X88900Y27940
X91440Y27940
X53340Y25400
X55880Y25400
X58420Y25400
X60960Y25400
X63500Y25400
X66040Y25400
X68580Y25400
X71120Y25400
X73660Y25400
X76200Y25400
X78740Y25400
X81280Y25400
X83820Y25400
X86360Y25400
X88900Y25400
X91440Y25400
X53340Y22860
X55880Y22860
X58420Y22860
X60960Y22860
X63500Y22860
X106680Y27940
X68580Y22860
X71120Y22860
X73660Y22860
X76200Y22860
X78740Y22860
X81280Y22860
X83820Y22860
X86360Y22860
X88900Y22860
X91440Y22860
X93980Y27940
X96520Y27940
X99060Y27940
X101600Y27940
X104140Y27940
X66040Y22860
X109220Y27940
X111760Y27940
X114300Y27940
X116840Y27940
X119380Y27940
X121920Y27940
X124460Y27940
X127000Y27940
X129540Y27940
X132080Y27940
X93980Y25400
X96520Y25400
X99060Y25400
X101600Y25400
X104140Y25400
X106680Y25400
X109220Y25400
X111760Y25400
X114300Y25400
X116840Y25400
X119380Y25400
X121920Y25400
X124460Y25400
X127000Y25400
X129540Y25400
X132080Y25400
X93980Y22860
X96520Y22860
X99060Y22860
X101600Y22860
X104140Y22860
X106680Y22860
X109220Y22860
X111760Y22860
X114300Y22860
X116840Y22860
X119380Y22860
X121920Y22860
X124460Y22860
X127000Y22860
X129540Y22860
X132080Y22860
X129540Y102870
X129540Y100330
X129540Y97790
X55880Y27940
X53340Y27940
X128270Y191770
X125730Y191770
X118110Y191770
X120650Y191770
X123190Y191770
T7
X130810Y191770
T8
X130810Y182880
X128270Y182880
X130810Y176530
X128270Y176530
T9
X45720Y116840
X146050Y57150
X55880Y116840
X72390Y59690
X146050Y193040
X146050Y190500
X100330Y115570
X100330Y118110
X63500Y115570
X63500Y118110
X86360Y88900
X83820Y88900
X106680Y120650
X109220Y120650
X111760Y120650
X114300Y120650
X116840Y120650
X119380Y120650
X121920Y120650
X124460Y120650
X127000Y120650
X129540Y120650
X129540Y113030
X127000Y113030
X116840Y113030
X119380Y113030
X114300Y113030
X87122Y102743
X87122Y97917
X48260Y96520
X50800Y96520
X53340Y96520
X55880Y96520
X58420Y96520
X60960Y96520
X63500Y96520
X66040Y96520
X68580Y96520
X71120Y96520
X73660Y96520
X76200Y96520
X78740Y96520
X81280Y96520
X81280Y104140
X78740Y104140
X76200Y104140
X73660Y104140
X71120Y104140
X68580Y104140
X66040Y104140
X63500Y104140
X60960Y104140
X58420Y104140
X55880Y104140
X53340Y104140
X50800Y104140
X48260Y104140
X95250Y98044
X92710Y98044
X95504Y102616
X92964Y102616
X119380Y182880
X116840Y182880
X53340Y110490
X55880Y110490
X46990Y110490
X49530Y110490
X138430Y52070
X138430Y54610
X138430Y57150
X138430Y59690
X138430Y62230
X138430Y64770
X138430Y67310
X138430Y69850
X138430Y72390
X138430Y74930
X138430Y77470
X138430Y80010
X138430Y82550
X138430Y85090
X130810Y85090
X130810Y82550
X130810Y80010
X130810Y77470
X130810Y74930
X130810Y72390
X130810Y69850
X130810Y67310
X130810Y64770
X130810Y62230
X130810Y59690
X130810Y57150
X130810Y54610
X130810Y52070
X88900Y52070
X88900Y54610
X88900Y57150
X88900Y59690
X88900Y62230
X88900Y64770
X88900Y67310
X88900Y69850
X88900Y72390
X88900Y74930
X88900Y77470
X88900Y80010
X88900Y82550
X88900Y85090
X81280Y85090
X81280Y82550
X81280Y80010
X81280Y77470
X81280Y74930
X81280Y72390
X81280Y69850
X81280Y67310
X81280Y64770
X81280Y62230
X81280Y59690
X81280Y57150
X81280Y54610
X81280Y52070
X55880Y52070
X55880Y54610
X55880Y57150
X55880Y59690
X55880Y62230
X55880Y64770
X55880Y67310
X55880Y69850
X55880Y72390
X55880Y74930
X55880Y77470
X55880Y80010
X55880Y82550
X55880Y85090
X48260Y85090
X48260Y82550
X48260Y80010
X48260Y77470
X48260Y74930
X48260Y72390
X48260Y69850
X48260Y67310
X48260Y64770
X48260Y62230
X48260Y59690
X48260Y57150
X48260Y54610
X48260Y52070
X114300Y96520
X116840Y96520
X119380Y96520
X121920Y96520
X121920Y104140
X119380Y104140
X116840Y104140
X114300Y104140
X111760Y113030
X124460Y113030
X121920Y113030
X109220Y113030
X106680Y113030
X69850Y120650
X133350Y110490
X143510Y110490
X109220Y102870
X99060Y102870
X93980Y74930
X93980Y85090
X60960Y74930
X60960Y85090
X127000Y74930
X127000Y85090
X109220Y97790
X99060Y97790
X105410Y52070
X105410Y54610
X105410Y57150
X105410Y59690
X105410Y62230
X105410Y64770
X105410Y67310
X105410Y69850
X105410Y72390
X105410Y74930
X105410Y77470
X105410Y80010
X105410Y82550
X105410Y85090
X97790Y85090
X97790Y82550
X97790Y80010
X97790Y77470
X97790Y74930
X97790Y72390
X97790Y69850
X97790Y67310
X97790Y64770
X97790Y62230
X97790Y59690
X97790Y57150
X97790Y54610
X97790Y52070
X110490Y74930
X110490Y85090
X72390Y52070
X72390Y54610
X72390Y57150
X72390Y120650
X72390Y62230
X72390Y64770
X72390Y67310
X72390Y69850
X72390Y72390
X72390Y74930
X72390Y77470
X72390Y80010
X72390Y82550
X72390Y85090
X64770Y85090
X64770Y82550
X64770Y80010
X64770Y77470
X64770Y74930
X64770Y72390
X64770Y69850
X64770Y67310
X64770Y64770
X64770Y62230
X64770Y59690
X64770Y57150
X64770Y54610
X64770Y52070
X44450Y74930
X44450Y85090
X76200Y193040
X76200Y190500
X99060Y193040
X99060Y190500
X83820Y193040
X83820Y190500
X106680Y193040
X106680Y190500
X91440Y193040
X91440Y190500
X91440Y185420
X91440Y175260
X83820Y185420
X83820Y175260
X76200Y185420
X76200Y175260
X99060Y185420
X99060Y175260
X106680Y185420
X106680Y175260
X50800Y88900
X53340Y88900
X67310Y88900
X69850Y88900
X100330Y88900
X102870Y88900
X116840Y88900
X119380Y88900
X133350Y88900
X135890Y88900
X52070Y184150
X54610Y184150
X57150Y184150
X74930Y120650
X77470Y120650
X62230Y184150
X64770Y184150
X67310Y184150
X80010Y120650
X82550Y120650
X85090Y120650
X87630Y120650
X90170Y120650
X146050Y44450
X146050Y46990
X146050Y49530
X146050Y52070
X146050Y54610
X92710Y120650
X146050Y59690
X146050Y62230
X146050Y64770
X146050Y20320
X146050Y22860
X146050Y25400
X146050Y27940
X146050Y30480
X146050Y33020
X146050Y35560
X146050Y38100
X146050Y40640
X39370Y44450
X39370Y46990
X39370Y49530
X39370Y52070
X39370Y54610
X39370Y57150
X39370Y59690
X39370Y62230
X39370Y64770
X39370Y20320
X39370Y22860
X39370Y25400
X39370Y27940
X39370Y30480
X39370Y33020
X39370Y35560
X39370Y38100
X39370Y40640
X92710Y113030
X90170Y113030
X80010Y113030
X82550Y113030
X77470Y113030
X74930Y113030
X87630Y113030
X85090Y113030
X72390Y113030
X69850Y113030
X140970Y171958
X140970Y161798
X140970Y158496
X140970Y155956
X121920Y171704
X121920Y161544
X121920Y158750
X121920Y156210
X110490Y171704
X110490Y161544
X110490Y158750
X110490Y156210
X99060Y171704
X99060Y161544
X99060Y158750
X99060Y156210
X87630Y171704
X87630Y161544
X87630Y158496
X87630Y155956
X76200Y171704
X76200Y161544
X76200Y158750
X76200Y156210
X64770Y171704
X64770Y161544
X64770Y158750
X64770Y156210
X53340Y171704
X53340Y161544
X53340Y158496
X53340Y155956
X41910Y171704
X41910Y161544
X41910Y158496
X41910Y155956
X77470Y85090
X77470Y74930
X114300Y52070
X114300Y54610
X114300Y57150
X114300Y59690
X114300Y62230
X114300Y64770
X114300Y67310
X114300Y69850
X114300Y72390
X114300Y74930
X114300Y77470
X114300Y80010
X114300Y82550
X114300Y85090
X121920Y85090
X121920Y82550
X121920Y80010
X121920Y77470
X121920Y74930
X121920Y72390
X121920Y69850
X121920Y67310
X121920Y64770
X121920Y62230
X121920Y59690
X121920Y57150
X121920Y54610
X121920Y52070
X146050Y173990
X146050Y184150
T10
X45680Y193040
X40680Y193040
T11
X90805Y47625
X86995Y46355
X48895Y34925
X59690Y172085
X78740Y40005
X78740Y53975
X69850Y40005
X84455Y36195
X84455Y56515
X74295Y32385
X78105Y39370
X78740Y59055
X57150Y36195
X76835Y36195
X76835Y61595
X54610Y20320
X52070Y48260
X92710Y48260
X86360Y50165
X125730Y34290
X86360Y36195
X125730Y20955
X93345Y29845
X127635Y31115
X127635Y71755
X114935Y29210
X114935Y38735
X93980Y38735
X67945Y110490
X76835Y106680
X89535Y107950
X99695Y108585
X103505Y106680
X117475Y29210
X111125Y29210
X111125Y56515
X116205Y45085
X107950Y43180
X100330Y55880
X99060Y48895
X95885Y47625
X97790Y48260
X97155Y29845
X119380Y48260
X90170Y46990
X123825Y43815
X88265Y40640
X88900Y43815
X88900Y29845
X86995Y66040
X53975Y26670
X78740Y38735
X48260Y36830
X82550Y41910
X37465Y40640
X135890Y32385
X128270Y32385
X126365Y20320
X135890Y29845
X99695Y39370
X99695Y29845
X147955Y31115
X102870Y19050
X109220Y43815
X107315Y31750
X123190Y45085
X144145Y51435
X123825Y40640
X123825Y34925
X142240Y50800
X110490Y39370
X132080Y41275
X130810Y34290
X128270Y19685
X114935Y19685
X136525Y50165
X139700Y40005
X85725Y29210
X84455Y63500
X83185Y29210
X69215Y30480
X68580Y29845
X67945Y29210
X61595Y59055
X61595Y30480
X60960Y54610
X60960Y31115
X60325Y53975
X99695Y68580
X95250Y51435
X81280Y49530
X80645Y29210
X81280Y50800
X81915Y40640
X125095Y38100
X124460Y55880
X73660Y37465
X120015Y36830
X74295Y38100
X119380Y37465
X74930Y41275
X114935Y41275
X69850Y45085
X113665Y41910
X70485Y45720
X111760Y42545
X76835Y69215
X103505Y69850
X92075Y56515
X91440Y53975
X90170Y50165
X60960Y63500
X50800Y34925
X93345Y68580
X93345Y35560
X107315Y46355
X71755Y45720
X107950Y45720
X75565Y44450
X76200Y56515
X103505Y35560
X101600Y56515
X102235Y31750
X76200Y58420
X81915Y30480
X100965Y53975
X100965Y31750
X61595Y110490
X60960Y67945
X114300Y109220
X74930Y109220
X84455Y110490
X85090Y66040
X85090Y109855
X62230Y97155
X90170Y101600
X85725Y60960
X90805Y126365
X59055Y90170
X80010Y93345
X52070Y61595
X88265Y48895
X72390Y46990
X88265Y46990
X80010Y40640
X67310Y40640
X116205Y138430
X69850Y135255
X113665Y138430
X73660Y135890
X94615Y113665
X116840Y139700
X71755Y154305
X81280Y154940
X72390Y154940
X81915Y155575
X80645Y122555
X42545Y85090
X48895Y147320
X128270Y33655
X128270Y54610
X116205Y33655
X124460Y60960
X118745Y33020
X133350Y30480
X41910Y123190
X102870Y60325
X133350Y59690
X121285Y30480
X135255Y67310
X75565Y115570
X78105Y116205
X146685Y26670
M30