G75*
%MOIN*%
%OFA0B0*%
%FSLAX26Y26*%
%IPPOS*%
%LPD*%
%AMOC8*
5,1,8,0,0,1.08239X$1,22.5*
%
%ADD10C,0.054000*%
%ADD11OC8,0.066000*%
%ADD12C,0.116000*%
%ADD13C,0.033000*%
D10*
X01800000Y00176000D02*
X01800000Y00224000D01*
X01900000Y00224000D02*
X01900000Y00176000D01*
X02000000Y00176000D02*
X02000000Y00224000D01*
X02100000Y00224000D02*
X02100000Y00176000D01*
X02200000Y00176000D02*
X02200000Y00224000D01*
X02300000Y00224000D02*
X02300000Y00176000D01*
X02400000Y00176000D02*
X02400000Y00224000D01*
X02500000Y00224000D02*
X02500000Y00176000D01*
X02600000Y00176000D02*
X02600000Y00224000D01*
X02700000Y00224000D02*
X02700000Y00176000D01*
X02900000Y00176000D02*
X02900000Y00224000D01*
X03000000Y00224000D02*
X03000000Y00176000D01*
X03100000Y00176000D02*
X03100000Y00224000D01*
X03200000Y00224000D02*
X03200000Y00176000D01*
X03300000Y00176000D02*
X03300000Y00224000D01*
X03400000Y00224000D02*
X03400000Y00176000D01*
X03500000Y00176000D02*
X03500000Y00224000D01*
X03600000Y00224000D02*
X03600000Y00176000D01*
X03800000Y00176000D02*
X03800000Y00224000D01*
X03900000Y00224000D02*
X03900000Y00176000D01*
X04000000Y00176000D02*
X04000000Y00224000D01*
X04100000Y00224000D02*
X04100000Y00176000D01*
X04200000Y00176000D02*
X04200000Y00224000D01*
X04300000Y00224000D02*
X04300000Y00176000D01*
X04400000Y00176000D02*
X04400000Y00224000D01*
X04500000Y00224000D02*
X04500000Y00176000D01*
X04600000Y00176000D02*
X04600000Y00224000D01*
X04700000Y00224000D02*
X04700000Y00176000D01*
X05000000Y00176000D02*
X05000000Y00224000D01*
X05100000Y00224000D02*
X05100000Y00176000D01*
X05200000Y00176000D02*
X05200000Y00224000D01*
X05300000Y00224000D02*
X05300000Y00176000D01*
X05400000Y00176000D02*
X05400000Y00224000D01*
X05500000Y00224000D02*
X05500000Y00176000D01*
X05600000Y00176000D02*
X05600000Y00224000D01*
X05600000Y00476000D02*
X05600000Y00524000D01*
X05500000Y00524000D02*
X05500000Y00476000D01*
X05400000Y00476000D02*
X05400000Y00524000D01*
X05300000Y00524000D02*
X05300000Y00476000D01*
X05200000Y00476000D02*
X05200000Y00524000D01*
X05100000Y00524000D02*
X05100000Y00476000D01*
X05000000Y00476000D02*
X05000000Y00524000D01*
X04700000Y00524000D02*
X04700000Y00476000D01*
X04600000Y00476000D02*
X04600000Y00524000D01*
X04500000Y00524000D02*
X04500000Y00476000D01*
X04400000Y00476000D02*
X04400000Y00524000D01*
X04300000Y00524000D02*
X04300000Y00476000D01*
X04200000Y00476000D02*
X04200000Y00524000D01*
X04100000Y00524000D02*
X04100000Y00476000D01*
X04000000Y00476000D02*
X04000000Y00524000D01*
X03900000Y00524000D02*
X03900000Y00476000D01*
X03800000Y00476000D02*
X03800000Y00524000D01*
X03600000Y00524000D02*
X03600000Y00476000D01*
X03500000Y00476000D02*
X03500000Y00524000D01*
X03400000Y00524000D02*
X03400000Y00476000D01*
X03300000Y00476000D02*
X03300000Y00524000D01*
X03200000Y00524000D02*
X03200000Y00476000D01*
X03100000Y00476000D02*
X03100000Y00524000D01*
X03000000Y00524000D02*
X03000000Y00476000D01*
X02900000Y00476000D02*
X02900000Y00524000D01*
X02700000Y00524000D02*
X02700000Y00476000D01*
X02600000Y00476000D02*
X02600000Y00524000D01*
X02500000Y00524000D02*
X02500000Y00476000D01*
X02400000Y00476000D02*
X02400000Y00524000D01*
X02300000Y00524000D02*
X02300000Y00476000D01*
X02200000Y00476000D02*
X02200000Y00524000D01*
X02100000Y00524000D02*
X02100000Y00476000D01*
X02000000Y00476000D02*
X02000000Y00524000D01*
X01900000Y00524000D02*
X01900000Y00476000D01*
X01800000Y00476000D02*
X01800000Y00524000D01*
X01800000Y00726000D02*
X01800000Y00774000D01*
X01900000Y00774000D02*
X01900000Y00726000D01*
X02000000Y00726000D02*
X02000000Y00774000D01*
X02100000Y00774000D02*
X02100000Y00726000D01*
X02200000Y00726000D02*
X02200000Y00774000D01*
X02300000Y00774000D02*
X02300000Y00726000D01*
X02400000Y00726000D02*
X02400000Y00774000D01*
X02500000Y00774000D02*
X02500000Y00726000D01*
X02600000Y00726000D02*
X02600000Y00774000D01*
X02700000Y00774000D02*
X02700000Y00726000D01*
X02900000Y00726000D02*
X02900000Y00774000D01*
X03000000Y00774000D02*
X03000000Y00726000D01*
X03100000Y00726000D02*
X03100000Y00774000D01*
X03200000Y00774000D02*
X03200000Y00726000D01*
X03300000Y00726000D02*
X03300000Y00774000D01*
X03400000Y00774000D02*
X03400000Y00726000D01*
X03500000Y00726000D02*
X03500000Y00774000D01*
X03600000Y00774000D02*
X03600000Y00726000D01*
X03800000Y00726000D02*
X03800000Y00774000D01*
X03900000Y00774000D02*
X03900000Y00726000D01*
X04000000Y00726000D02*
X04000000Y00774000D01*
X04100000Y00774000D02*
X04100000Y00726000D01*
X04200000Y00726000D02*
X04200000Y00774000D01*
X04300000Y00774000D02*
X04300000Y00726000D01*
X04400000Y00726000D02*
X04400000Y00774000D01*
X04500000Y00774000D02*
X04500000Y00726000D01*
X04600000Y00726000D02*
X04600000Y00774000D01*
X04700000Y00774000D02*
X04700000Y00726000D01*
X05000000Y00726000D02*
X05000000Y00774000D01*
X05100000Y00774000D02*
X05100000Y00726000D01*
X05200000Y00726000D02*
X05200000Y00774000D01*
X05300000Y00774000D02*
X05300000Y00726000D01*
X05400000Y00726000D02*
X05400000Y00774000D01*
X05500000Y00774000D02*
X05500000Y00726000D01*
X05600000Y00726000D02*
X05600000Y00774000D01*
X05600000Y01026000D02*
X05600000Y01074000D01*
X05500000Y01074000D02*
X05500000Y01026000D01*
X05400000Y01026000D02*
X05400000Y01074000D01*
X05300000Y01074000D02*
X05300000Y01026000D01*
X05200000Y01026000D02*
X05200000Y01074000D01*
X05100000Y01074000D02*
X05100000Y01026000D01*
X05000000Y01026000D02*
X05000000Y01074000D01*
X04700000Y01074000D02*
X04700000Y01026000D01*
X04600000Y01026000D02*
X04600000Y01074000D01*
X04500000Y01074000D02*
X04500000Y01026000D01*
X04400000Y01026000D02*
X04400000Y01074000D01*
X04300000Y01074000D02*
X04300000Y01026000D01*
X04200000Y01026000D02*
X04200000Y01074000D01*
X04100000Y01074000D02*
X04100000Y01026000D01*
X04000000Y01026000D02*
X04000000Y01074000D01*
X03900000Y01074000D02*
X03900000Y01026000D01*
X03800000Y01026000D02*
X03800000Y01074000D01*
X03600000Y01074000D02*
X03600000Y01026000D01*
X03500000Y01026000D02*
X03500000Y01074000D01*
X03400000Y01074000D02*
X03400000Y01026000D01*
X03300000Y01026000D02*
X03300000Y01074000D01*
X03200000Y01074000D02*
X03200000Y01026000D01*
X03100000Y01026000D02*
X03100000Y01074000D01*
X03000000Y01074000D02*
X03000000Y01026000D01*
X02900000Y01026000D02*
X02900000Y01074000D01*
X02700000Y01074000D02*
X02700000Y01026000D01*
X02600000Y01026000D02*
X02600000Y01074000D01*
X02500000Y01074000D02*
X02500000Y01026000D01*
X02400000Y01026000D02*
X02400000Y01074000D01*
X02300000Y01074000D02*
X02300000Y01026000D01*
X02200000Y01026000D02*
X02200000Y01074000D01*
X02100000Y01074000D02*
X02100000Y01026000D01*
X02000000Y01026000D02*
X02000000Y01074000D01*
X01900000Y01074000D02*
X01900000Y01026000D01*
X01800000Y01026000D02*
X01800000Y01074000D01*
X01800000Y01226000D02*
X01800000Y01274000D01*
X01900000Y01274000D02*
X01900000Y01226000D01*
X02000000Y01226000D02*
X02000000Y01274000D01*
X02100000Y01274000D02*
X02100000Y01226000D01*
X02200000Y01226000D02*
X02200000Y01274000D01*
X02300000Y01274000D02*
X02300000Y01226000D01*
X02400000Y01226000D02*
X02400000Y01274000D01*
X02500000Y01274000D02*
X02500000Y01226000D01*
X02600000Y01226000D02*
X02600000Y01274000D01*
X02700000Y01274000D02*
X02700000Y01226000D01*
X02900000Y01226000D02*
X02900000Y01274000D01*
X03000000Y01274000D02*
X03000000Y01226000D01*
X03100000Y01226000D02*
X03100000Y01274000D01*
X03200000Y01274000D02*
X03200000Y01226000D01*
X03300000Y01226000D02*
X03300000Y01274000D01*
X03400000Y01274000D02*
X03400000Y01226000D01*
X03500000Y01226000D02*
X03500000Y01274000D01*
X03600000Y01274000D02*
X03600000Y01226000D01*
X03800000Y01326000D02*
X03800000Y01374000D01*
X03900000Y01374000D02*
X03900000Y01326000D01*
X04000000Y01326000D02*
X04000000Y01374000D01*
X04100000Y01374000D02*
X04100000Y01326000D01*
X04200000Y01326000D02*
X04200000Y01374000D01*
X04300000Y01374000D02*
X04300000Y01326000D01*
X04400000Y01326000D02*
X04400000Y01374000D01*
X04500000Y01374000D02*
X04500000Y01326000D01*
X04700000Y01326000D02*
X04700000Y01374000D01*
X04800000Y01374000D02*
X04800000Y01326000D01*
X04900000Y01326000D02*
X04900000Y01374000D01*
X05000000Y01374000D02*
X05000000Y01326000D01*
X05100000Y01326000D02*
X05100000Y01374000D01*
X05200000Y01374000D02*
X05200000Y01326000D01*
X05300000Y01326000D02*
X05300000Y01374000D01*
X05400000Y01374000D02*
X05400000Y01326000D01*
X05500000Y01326000D02*
X05500000Y01374000D01*
X05600000Y01374000D02*
X05600000Y01326000D01*
X05850000Y01326000D02*
X05850000Y01374000D01*
X05950000Y01374000D02*
X05950000Y01326000D01*
X06050000Y01326000D02*
X06050000Y01374000D01*
X06150000Y01374000D02*
X06150000Y01326000D01*
X06250000Y01326000D02*
X06250000Y01374000D01*
X06350000Y01374000D02*
X06350000Y01326000D01*
X06450000Y01326000D02*
X06450000Y01374000D01*
X06550000Y01374000D02*
X06550000Y01326000D01*
X06650000Y01326000D02*
X06650000Y01374000D01*
X06750000Y01374000D02*
X06750000Y01326000D01*
X06750000Y01074000D02*
X06750000Y01026000D01*
X06650000Y01026000D02*
X06650000Y01074000D01*
X06550000Y01074000D02*
X06550000Y01026000D01*
X06450000Y01026000D02*
X06450000Y01074000D01*
X06350000Y01074000D02*
X06350000Y01026000D01*
X06250000Y01026000D02*
X06250000Y01074000D01*
X06150000Y01074000D02*
X06150000Y01026000D01*
X06150000Y00774000D02*
X06150000Y00726000D01*
X06250000Y00726000D02*
X06250000Y00774000D01*
X06350000Y00774000D02*
X06350000Y00726000D01*
X06450000Y00726000D02*
X06450000Y00774000D01*
X06550000Y00774000D02*
X06550000Y00726000D01*
X06650000Y00726000D02*
X06650000Y00774000D01*
X06750000Y00774000D02*
X06750000Y00726000D01*
X06750000Y00524000D02*
X06750000Y00476000D01*
X06650000Y00476000D02*
X06650000Y00524000D01*
X06550000Y00524000D02*
X06550000Y00476000D01*
X06450000Y00476000D02*
X06450000Y00524000D01*
X06350000Y00524000D02*
X06350000Y00476000D01*
X06250000Y00476000D02*
X06250000Y00524000D01*
X06150000Y00524000D02*
X06150000Y00476000D01*
X06150000Y00224000D02*
X06150000Y00176000D01*
X06250000Y00176000D02*
X06250000Y00224000D01*
X06350000Y00224000D02*
X06350000Y00176000D01*
X06450000Y00176000D02*
X06450000Y00224000D01*
X06550000Y00224000D02*
X06550000Y00176000D01*
X06650000Y00176000D02*
X06650000Y00224000D01*
X06750000Y00224000D02*
X06750000Y00176000D01*
X06750000Y01626000D02*
X06750000Y01674000D01*
X06650000Y01674000D02*
X06650000Y01626000D01*
X06550000Y01626000D02*
X06550000Y01674000D01*
X06450000Y01674000D02*
X06450000Y01626000D01*
X06350000Y01626000D02*
X06350000Y01674000D01*
X06250000Y01674000D02*
X06250000Y01626000D01*
X06150000Y01626000D02*
X06150000Y01674000D01*
X06050000Y01674000D02*
X06050000Y01626000D01*
X05950000Y01626000D02*
X05950000Y01674000D01*
X05850000Y01674000D02*
X05850000Y01626000D01*
X05600000Y01626000D02*
X05600000Y01674000D01*
X05500000Y01674000D02*
X05500000Y01626000D01*
X05400000Y01626000D02*
X05400000Y01674000D01*
X05300000Y01674000D02*
X05300000Y01626000D01*
X05200000Y01626000D02*
X05200000Y01674000D01*
X05100000Y01674000D02*
X05100000Y01626000D01*
X05000000Y01626000D02*
X05000000Y01674000D01*
X04900000Y01674000D02*
X04900000Y01626000D01*
X04800000Y01626000D02*
X04800000Y01674000D01*
X04700000Y01674000D02*
X04700000Y01626000D01*
X04500000Y01626000D02*
X04500000Y01674000D01*
X04400000Y01674000D02*
X04400000Y01626000D01*
X04300000Y01626000D02*
X04300000Y01674000D01*
X04200000Y01674000D02*
X04200000Y01626000D01*
X04100000Y01626000D02*
X04100000Y01674000D01*
X04000000Y01674000D02*
X04000000Y01626000D01*
X03900000Y01626000D02*
X03900000Y01674000D01*
X03800000Y01674000D02*
X03800000Y01626000D01*
X03600000Y01574000D02*
X03600000Y01526000D01*
X03500000Y01526000D02*
X03500000Y01574000D01*
X03400000Y01574000D02*
X03400000Y01526000D01*
X03300000Y01526000D02*
X03300000Y01574000D01*
X03200000Y01574000D02*
X03200000Y01526000D01*
X03100000Y01526000D02*
X03100000Y01574000D01*
X03000000Y01574000D02*
X03000000Y01526000D01*
X02900000Y01526000D02*
X02900000Y01574000D01*
X02700000Y01574000D02*
X02700000Y01526000D01*
X02600000Y01526000D02*
X02600000Y01574000D01*
X02500000Y01574000D02*
X02500000Y01526000D01*
X02400000Y01526000D02*
X02400000Y01574000D01*
X02300000Y01574000D02*
X02300000Y01526000D01*
X02200000Y01526000D02*
X02200000Y01574000D01*
X02100000Y01574000D02*
X02100000Y01526000D01*
X02000000Y01526000D02*
X02000000Y01574000D01*
X01900000Y01574000D02*
X01900000Y01526000D01*
X01800000Y01526000D02*
X01800000Y01574000D01*
X01800000Y01876000D02*
X01800000Y01924000D01*
X01900000Y01924000D02*
X01900000Y01876000D01*
X02000000Y01876000D02*
X02000000Y01924000D01*
X02100000Y01924000D02*
X02100000Y01876000D01*
X02200000Y01876000D02*
X02200000Y01924000D01*
X02300000Y01924000D02*
X02300000Y01876000D01*
X02400000Y01876000D02*
X02400000Y01924000D01*
X02500000Y01924000D02*
X02500000Y01876000D01*
X02600000Y01876000D02*
X02600000Y01924000D01*
X02700000Y01924000D02*
X02700000Y01876000D01*
X02900000Y01876000D02*
X02900000Y01924000D01*
X03000000Y01924000D02*
X03000000Y01876000D01*
X03100000Y01876000D02*
X03100000Y01924000D01*
X03200000Y01924000D02*
X03200000Y01876000D01*
X03300000Y01876000D02*
X03300000Y01924000D01*
X03400000Y01924000D02*
X03400000Y01876000D01*
X03500000Y01876000D02*
X03500000Y01924000D01*
X03600000Y01924000D02*
X03600000Y01876000D01*
X03800000Y01876000D02*
X03800000Y01924000D01*
X03900000Y01924000D02*
X03900000Y01876000D01*
X04000000Y01876000D02*
X04000000Y01924000D01*
X04100000Y01924000D02*
X04100000Y01876000D01*
X04200000Y01876000D02*
X04200000Y01924000D01*
X04300000Y01924000D02*
X04300000Y01876000D01*
X04400000Y01876000D02*
X04400000Y01924000D01*
X04500000Y01924000D02*
X04500000Y01876000D01*
X04700000Y01876000D02*
X04700000Y01924000D01*
X04800000Y01924000D02*
X04800000Y01876000D01*
X04900000Y01876000D02*
X04900000Y01924000D01*
X05000000Y01924000D02*
X05000000Y01876000D01*
X05100000Y01876000D02*
X05100000Y01924000D01*
X05200000Y01924000D02*
X05200000Y01876000D01*
X05300000Y01876000D02*
X05300000Y01924000D01*
X05400000Y01924000D02*
X05400000Y01876000D01*
X05500000Y01876000D02*
X05500000Y01924000D01*
X05600000Y01924000D02*
X05600000Y01876000D01*
X05850000Y01876000D02*
X05850000Y01924000D01*
X05950000Y01924000D02*
X05950000Y01876000D01*
X06050000Y01876000D02*
X06050000Y01924000D01*
X06150000Y01924000D02*
X06150000Y01876000D01*
X06250000Y01876000D02*
X06250000Y01924000D01*
X06350000Y01924000D02*
X06350000Y01876000D01*
X06450000Y01876000D02*
X06450000Y01924000D01*
X06550000Y01924000D02*
X06550000Y01876000D01*
X06650000Y01876000D02*
X06650000Y01924000D01*
X06750000Y01924000D02*
X06750000Y01876000D01*
X06750000Y02176000D02*
X06750000Y02224000D01*
X06650000Y02224000D02*
X06650000Y02176000D01*
X06550000Y02176000D02*
X06550000Y02224000D01*
X06450000Y02224000D02*
X06450000Y02176000D01*
X06350000Y02176000D02*
X06350000Y02224000D01*
X06250000Y02224000D02*
X06250000Y02176000D01*
X06150000Y02176000D02*
X06150000Y02224000D01*
X06050000Y02224000D02*
X06050000Y02176000D01*
X05950000Y02176000D02*
X05950000Y02224000D01*
X05850000Y02224000D02*
X05850000Y02176000D01*
X05600000Y02176000D02*
X05600000Y02224000D01*
X05500000Y02224000D02*
X05500000Y02176000D01*
X05400000Y02176000D02*
X05400000Y02224000D01*
X05300000Y02224000D02*
X05300000Y02176000D01*
X05200000Y02176000D02*
X05200000Y02224000D01*
X05100000Y02224000D02*
X05100000Y02176000D01*
X05000000Y02176000D02*
X05000000Y02224000D01*
X04900000Y02224000D02*
X04900000Y02176000D01*
X04800000Y02176000D02*
X04800000Y02224000D01*
X04700000Y02224000D02*
X04700000Y02176000D01*
X04500000Y02176000D02*
X04500000Y02224000D01*
X04400000Y02224000D02*
X04400000Y02176000D01*
X04300000Y02176000D02*
X04300000Y02224000D01*
X04200000Y02224000D02*
X04200000Y02176000D01*
X04100000Y02176000D02*
X04100000Y02224000D01*
X04000000Y02224000D02*
X04000000Y02176000D01*
X03900000Y02176000D02*
X03900000Y02224000D01*
X03800000Y02224000D02*
X03800000Y02176000D01*
X03600000Y02176000D02*
X03600000Y02224000D01*
X03500000Y02224000D02*
X03500000Y02176000D01*
X03400000Y02176000D02*
X03400000Y02224000D01*
X03300000Y02224000D02*
X03300000Y02176000D01*
X03200000Y02176000D02*
X03200000Y02224000D01*
X03100000Y02224000D02*
X03100000Y02176000D01*
X03000000Y02176000D02*
X03000000Y02224000D01*
X02900000Y02224000D02*
X02900000Y02176000D01*
X02700000Y02176000D02*
X02700000Y02224000D01*
X02600000Y02224000D02*
X02600000Y02176000D01*
X02500000Y02176000D02*
X02500000Y02224000D01*
X02400000Y02224000D02*
X02400000Y02176000D01*
X02300000Y02176000D02*
X02300000Y02224000D01*
X02200000Y02224000D02*
X02200000Y02176000D01*
X02100000Y02176000D02*
X02100000Y02224000D01*
X02000000Y02224000D02*
X02000000Y02176000D01*
X01900000Y02176000D02*
X01900000Y02224000D01*
X01800000Y02224000D02*
X01800000Y02176000D01*
X01750000Y02426000D02*
X01750000Y02474000D01*
X01850000Y02474000D02*
X01850000Y02426000D01*
X01950000Y02426000D02*
X01950000Y02474000D01*
X02050000Y02474000D02*
X02050000Y02426000D01*
X02150000Y02426000D02*
X02150000Y02474000D01*
X02250000Y02474000D02*
X02250000Y02426000D01*
X02350000Y02426000D02*
X02350000Y02474000D01*
X02450000Y02474000D02*
X02450000Y02426000D01*
X02550000Y02426000D02*
X02550000Y02474000D01*
X02700000Y02474000D02*
X02700000Y02426000D01*
X02800000Y02426000D02*
X02800000Y02474000D01*
X02900000Y02474000D02*
X02900000Y02426000D01*
X03000000Y02426000D02*
X03000000Y02474000D01*
X03100000Y02474000D02*
X03100000Y02426000D01*
X03200000Y02426000D02*
X03200000Y02474000D01*
X03300000Y02474000D02*
X03300000Y02426000D01*
X03400000Y02426000D02*
X03400000Y02474000D01*
X03600000Y02474000D02*
X03600000Y02426000D01*
X03700000Y02426000D02*
X03700000Y02474000D01*
X03800000Y02474000D02*
X03800000Y02426000D01*
X03900000Y02426000D02*
X03900000Y02474000D01*
X04000000Y02474000D02*
X04000000Y02426000D01*
X04100000Y02426000D02*
X04100000Y02474000D01*
X04200000Y02474000D02*
X04200000Y02426000D01*
X04300000Y02426000D02*
X04300000Y02474000D01*
X04400000Y02474000D02*
X04400000Y02426000D01*
X04500000Y02426000D02*
X04500000Y02474000D01*
X04500000Y02726000D02*
X04500000Y02774000D01*
X04400000Y02774000D02*
X04400000Y02726000D01*
X04300000Y02726000D02*
X04300000Y02774000D01*
X04200000Y02774000D02*
X04200000Y02726000D01*
X04100000Y02726000D02*
X04100000Y02774000D01*
X04000000Y02774000D02*
X04000000Y02726000D01*
X03900000Y02726000D02*
X03900000Y02774000D01*
X03800000Y02774000D02*
X03800000Y02726000D01*
X03700000Y02726000D02*
X03700000Y02774000D01*
X03600000Y02774000D02*
X03600000Y02726000D01*
X03400000Y02726000D02*
X03400000Y02774000D01*
X03300000Y02774000D02*
X03300000Y02726000D01*
X03200000Y02726000D02*
X03200000Y02774000D01*
X03100000Y02774000D02*
X03100000Y02726000D01*
X03000000Y02726000D02*
X03000000Y02774000D01*
X02900000Y02774000D02*
X02900000Y02726000D01*
X02800000Y02726000D02*
X02800000Y02774000D01*
X02700000Y02774000D02*
X02700000Y02726000D01*
X02550000Y02726000D02*
X02550000Y02774000D01*
X02450000Y02774000D02*
X02450000Y02726000D01*
X02350000Y02726000D02*
X02350000Y02774000D01*
X02250000Y02774000D02*
X02250000Y02726000D01*
X02150000Y02726000D02*
X02150000Y02774000D01*
X02050000Y02774000D02*
X02050000Y02726000D01*
X01950000Y02726000D02*
X01950000Y02774000D01*
X01850000Y02774000D02*
X01850000Y02726000D01*
X01750000Y02726000D02*
X01750000Y02774000D01*
X01650000Y02774000D02*
X01650000Y02726000D01*
X01650000Y02474000D02*
X01650000Y02426000D01*
X02000000Y02926000D02*
X02000000Y02974000D01*
X02100000Y02974000D02*
X02100000Y02926000D01*
X02200000Y02926000D02*
X02200000Y02974000D01*
X02300000Y02974000D02*
X02300000Y02926000D01*
X02400000Y02926000D02*
X02400000Y02974000D01*
X02500000Y02974000D02*
X02500000Y02926000D01*
X02600000Y02926000D02*
X02600000Y02974000D01*
X02700000Y02974000D02*
X02700000Y02926000D01*
X02900000Y02926000D02*
X02900000Y02974000D01*
X03000000Y02974000D02*
X03000000Y02926000D01*
X03100000Y02926000D02*
X03100000Y02974000D01*
X03200000Y02974000D02*
X03200000Y02926000D01*
X03300000Y02926000D02*
X03300000Y02974000D01*
X03400000Y02974000D02*
X03400000Y02926000D01*
X03500000Y02926000D02*
X03500000Y02974000D01*
X03600000Y02974000D02*
X03600000Y02926000D01*
X03800000Y02926000D02*
X03800000Y02974000D01*
X03900000Y02974000D02*
X03900000Y02926000D01*
X04000000Y02926000D02*
X04000000Y02974000D01*
X04100000Y02974000D02*
X04100000Y02926000D01*
X04200000Y02926000D02*
X04200000Y02974000D01*
X04300000Y02974000D02*
X04300000Y02926000D01*
X04400000Y02926000D02*
X04400000Y02974000D01*
X04500000Y02974000D02*
X04500000Y02926000D01*
X04500000Y03226000D02*
X04500000Y03274000D01*
X04400000Y03274000D02*
X04400000Y03226000D01*
X04300000Y03226000D02*
X04300000Y03274000D01*
X04200000Y03274000D02*
X04200000Y03226000D01*
X04100000Y03226000D02*
X04100000Y03274000D01*
X04000000Y03274000D02*
X04000000Y03226000D01*
X03900000Y03226000D02*
X03900000Y03274000D01*
X03800000Y03274000D02*
X03800000Y03226000D01*
X03600000Y03226000D02*
X03600000Y03274000D01*
X03500000Y03274000D02*
X03500000Y03226000D01*
X03400000Y03226000D02*
X03400000Y03274000D01*
X03300000Y03274000D02*
X03300000Y03226000D01*
X03200000Y03226000D02*
X03200000Y03274000D01*
X03100000Y03274000D02*
X03100000Y03226000D01*
X03000000Y03226000D02*
X03000000Y03274000D01*
X02900000Y03274000D02*
X02900000Y03226000D01*
X02700000Y03226000D02*
X02700000Y03274000D01*
X02600000Y03274000D02*
X02600000Y03226000D01*
X02500000Y03226000D02*
X02500000Y03274000D01*
X02400000Y03274000D02*
X02400000Y03226000D01*
X02300000Y03226000D02*
X02300000Y03274000D01*
X02200000Y03274000D02*
X02200000Y03226000D01*
X02100000Y03226000D02*
X02100000Y03274000D01*
X02000000Y03274000D02*
X02000000Y03226000D01*
X02150000Y03426000D02*
X02150000Y03474000D01*
X02250000Y03474000D02*
X02250000Y03426000D01*
X02350000Y03426000D02*
X02350000Y03474000D01*
X02450000Y03474000D02*
X02450000Y03426000D01*
X02550000Y03426000D02*
X02550000Y03474000D01*
X02650000Y03474000D02*
X02650000Y03426000D01*
X02750000Y03426000D02*
X02750000Y03474000D01*
X02850000Y03474000D02*
X02850000Y03426000D01*
X03100000Y03426000D02*
X03100000Y03474000D01*
X03200000Y03474000D02*
X03200000Y03426000D01*
X03300000Y03426000D02*
X03300000Y03474000D01*
X03400000Y03474000D02*
X03400000Y03426000D01*
X03500000Y03426000D02*
X03500000Y03474000D01*
X03600000Y03474000D02*
X03600000Y03426000D01*
X03700000Y03426000D02*
X03700000Y03474000D01*
X03900000Y03474000D02*
X03900000Y03426000D01*
X04000000Y03426000D02*
X04000000Y03474000D01*
X04100000Y03474000D02*
X04100000Y03426000D01*
X04200000Y03426000D02*
X04200000Y03474000D01*
X04300000Y03474000D02*
X04300000Y03426000D01*
X04400000Y03426000D02*
X04400000Y03474000D01*
X04500000Y03474000D02*
X04500000Y03426000D01*
X04500000Y03726000D02*
X04500000Y03774000D01*
X04400000Y03774000D02*
X04400000Y03726000D01*
X04300000Y03726000D02*
X04300000Y03774000D01*
X04200000Y03774000D02*
X04200000Y03726000D01*
X04100000Y03726000D02*
X04100000Y03774000D01*
X04000000Y03774000D02*
X04000000Y03726000D01*
X03900000Y03726000D02*
X03900000Y03774000D01*
X03700000Y03774000D02*
X03700000Y03726000D01*
X03600000Y03726000D02*
X03600000Y03774000D01*
X03500000Y03774000D02*
X03500000Y03726000D01*
X03400000Y03726000D02*
X03400000Y03774000D01*
X03300000Y03774000D02*
X03300000Y03726000D01*
X03200000Y03726000D02*
X03200000Y03774000D01*
X03100000Y03774000D02*
X03100000Y03726000D01*
X02850000Y03726000D02*
X02850000Y03774000D01*
X02750000Y03774000D02*
X02750000Y03726000D01*
X02650000Y03726000D02*
X02650000Y03774000D01*
X02550000Y03774000D02*
X02550000Y03726000D01*
X02450000Y03726000D02*
X02450000Y03774000D01*
X02350000Y03774000D02*
X02350000Y03726000D01*
X02250000Y03726000D02*
X02250000Y03774000D01*
X02150000Y03774000D02*
X02150000Y03726000D01*
X02100000Y04026000D02*
X02100000Y04074000D01*
X02000000Y04074000D02*
X02000000Y04026000D01*
X01900000Y04026000D02*
X01900000Y04074000D01*
X02200000Y04074000D02*
X02200000Y04026000D01*
X02300000Y04026000D02*
X02300000Y04074000D01*
X02400000Y04074000D02*
X02400000Y04026000D01*
X02500000Y04026000D02*
X02500000Y04074000D01*
X02700000Y04074000D02*
X02700000Y04026000D01*
X02800000Y04026000D02*
X02800000Y04074000D01*
X02900000Y04074000D02*
X02900000Y04026000D01*
X03000000Y04026000D02*
X03000000Y04074000D01*
X03100000Y04074000D02*
X03100000Y04026000D01*
X03200000Y04026000D02*
X03200000Y04074000D01*
X03300000Y04074000D02*
X03300000Y04026000D01*
X03500000Y04026000D02*
X03500000Y04074000D01*
X03600000Y04074000D02*
X03600000Y04026000D01*
X03700000Y04026000D02*
X03700000Y04074000D01*
X03800000Y04074000D02*
X03800000Y04026000D01*
X03900000Y04026000D02*
X03900000Y04074000D01*
X04000000Y04074000D02*
X04000000Y04026000D01*
X04100000Y04026000D02*
X04100000Y04074000D01*
X04250000Y04074000D02*
X04250000Y04026000D01*
X04350000Y04026000D02*
X04350000Y04074000D01*
X04450000Y04074000D02*
X04450000Y04026000D01*
X04550000Y04026000D02*
X04550000Y04074000D01*
X04650000Y04074000D02*
X04650000Y04026000D01*
X04750000Y04026000D02*
X04750000Y04074000D01*
X04850000Y04074000D02*
X04850000Y04026000D01*
X05000000Y04026000D02*
X05000000Y04074000D01*
X05100000Y04074000D02*
X05100000Y04026000D01*
X05200000Y04026000D02*
X05200000Y04074000D01*
X05300000Y04074000D02*
X05300000Y04026000D01*
X05400000Y04026000D02*
X05400000Y04074000D01*
X05500000Y04074000D02*
X05500000Y04026000D01*
X05600000Y04026000D02*
X05600000Y04074000D01*
X05850000Y04074000D02*
X05850000Y04026000D01*
X05950000Y04026000D02*
X05950000Y04074000D01*
X06050000Y04074000D02*
X06050000Y04026000D01*
X06150000Y04026000D02*
X06150000Y04074000D01*
X06250000Y04074000D02*
X06250000Y04026000D01*
X06350000Y04026000D02*
X06350000Y04074000D01*
X06450000Y04074000D02*
X06450000Y04026000D01*
X06550000Y04026000D02*
X06550000Y04074000D01*
X06650000Y04074000D02*
X06650000Y04026000D01*
X06750000Y04026000D02*
X06750000Y04074000D01*
X06750000Y03824000D02*
X06750000Y03776000D01*
X06650000Y03776000D02*
X06650000Y03824000D01*
X06550000Y03824000D02*
X06550000Y03776000D01*
X06450000Y03776000D02*
X06450000Y03824000D01*
X06350000Y03824000D02*
X06350000Y03776000D01*
X06250000Y03776000D02*
X06250000Y03824000D01*
X06150000Y03824000D02*
X06150000Y03776000D01*
X06050000Y03776000D02*
X06050000Y03824000D01*
X05950000Y03824000D02*
X05950000Y03776000D01*
X05850000Y03776000D02*
X05850000Y03824000D01*
X05600000Y03824000D02*
X05600000Y03776000D01*
X05500000Y03776000D02*
X05500000Y03824000D01*
X05400000Y03824000D02*
X05400000Y03776000D01*
X05300000Y03776000D02*
X05300000Y03824000D01*
X05200000Y03824000D02*
X05200000Y03776000D01*
X05100000Y03776000D02*
X05100000Y03824000D01*
X05000000Y03824000D02*
X05000000Y03776000D01*
X05000000Y03524000D02*
X05000000Y03476000D01*
X05100000Y03476000D02*
X05100000Y03524000D01*
X05200000Y03524000D02*
X05200000Y03476000D01*
X05300000Y03476000D02*
X05300000Y03524000D01*
X05400000Y03524000D02*
X05400000Y03476000D01*
X05500000Y03476000D02*
X05500000Y03524000D01*
X05600000Y03524000D02*
X05600000Y03476000D01*
X05600000Y03324000D02*
X05600000Y03276000D01*
X05500000Y03276000D02*
X05500000Y03324000D01*
X05400000Y03324000D02*
X05400000Y03276000D01*
X05300000Y03276000D02*
X05300000Y03324000D01*
X05200000Y03324000D02*
X05200000Y03276000D01*
X05100000Y03276000D02*
X05100000Y03324000D01*
X05000000Y03324000D02*
X05000000Y03276000D01*
X04900000Y03276000D02*
X04900000Y03324000D01*
X04900000Y03024000D02*
X04900000Y02976000D01*
X05000000Y02976000D02*
X05000000Y03024000D01*
X05100000Y03024000D02*
X05100000Y02976000D01*
X05200000Y02976000D02*
X05200000Y03024000D01*
X05300000Y03024000D02*
X05300000Y02976000D01*
X05400000Y02976000D02*
X05400000Y03024000D01*
X05500000Y03024000D02*
X05500000Y02976000D01*
X05600000Y02976000D02*
X05600000Y03024000D01*
X05600000Y02774000D02*
X05600000Y02726000D01*
X05500000Y02726000D02*
X05500000Y02774000D01*
X05400000Y02774000D02*
X05400000Y02726000D01*
X05300000Y02726000D02*
X05300000Y02774000D01*
X05200000Y02774000D02*
X05200000Y02726000D01*
X05100000Y02726000D02*
X05100000Y02774000D01*
X05000000Y02774000D02*
X05000000Y02726000D01*
X04900000Y02726000D02*
X04900000Y02774000D01*
X04900000Y02474000D02*
X04900000Y02426000D01*
X05000000Y02426000D02*
X05000000Y02474000D01*
X05100000Y02474000D02*
X05100000Y02426000D01*
X05200000Y02426000D02*
X05200000Y02474000D01*
X05300000Y02474000D02*
X05300000Y02426000D01*
X05400000Y02426000D02*
X05400000Y02474000D01*
X05500000Y02474000D02*
X05500000Y02426000D01*
X05600000Y02426000D02*
X05600000Y02474000D01*
X06150000Y02474000D02*
X06150000Y02426000D01*
X06250000Y02426000D02*
X06250000Y02474000D01*
X06350000Y02474000D02*
X06350000Y02426000D01*
X06450000Y02426000D02*
X06450000Y02474000D01*
X06550000Y02474000D02*
X06550000Y02426000D01*
X06650000Y02426000D02*
X06650000Y02474000D01*
X06750000Y02474000D02*
X06750000Y02426000D01*
X06750000Y02726000D02*
X06750000Y02774000D01*
X06650000Y02774000D02*
X06650000Y02726000D01*
X06550000Y02726000D02*
X06550000Y02774000D01*
X06450000Y02774000D02*
X06450000Y02726000D01*
X06350000Y02726000D02*
X06350000Y02774000D01*
X06250000Y02774000D02*
X06250000Y02726000D01*
X06150000Y02726000D02*
X06150000Y02774000D01*
X06150000Y02976000D02*
X06150000Y03024000D01*
X06250000Y03024000D02*
X06250000Y02976000D01*
X06350000Y02976000D02*
X06350000Y03024000D01*
X06450000Y03024000D02*
X06450000Y02976000D01*
X06550000Y02976000D02*
X06550000Y03024000D01*
X06650000Y03024000D02*
X06650000Y02976000D01*
X06750000Y02976000D02*
X06750000Y03024000D01*
X06750000Y03276000D02*
X06750000Y03324000D01*
X06650000Y03324000D02*
X06650000Y03276000D01*
X06550000Y03276000D02*
X06550000Y03324000D01*
X06450000Y03324000D02*
X06450000Y03276000D01*
X06350000Y03276000D02*
X06350000Y03324000D01*
X06250000Y03324000D02*
X06250000Y03276000D01*
X06150000Y03276000D02*
X06150000Y03324000D01*
X06150000Y03476000D02*
X06150000Y03524000D01*
X06250000Y03524000D02*
X06250000Y03476000D01*
X06350000Y03476000D02*
X06350000Y03524000D01*
X06450000Y03524000D02*
X06450000Y03476000D01*
X06550000Y03476000D02*
X06550000Y03524000D01*
X06650000Y03524000D02*
X06650000Y03476000D01*
X06750000Y03476000D02*
X06750000Y03524000D01*
X06050000Y03524000D02*
X06050000Y03476000D01*
X05950000Y03476000D02*
X05950000Y03524000D01*
X05850000Y03524000D02*
X05850000Y03476000D01*
X05850000Y04326000D02*
X05850000Y04374000D01*
X05950000Y04374000D02*
X05950000Y04326000D01*
X06050000Y04326000D02*
X06050000Y04374000D01*
X06150000Y04374000D02*
X06150000Y04326000D01*
X06250000Y04326000D02*
X06250000Y04374000D01*
X06350000Y04374000D02*
X06350000Y04326000D01*
X06450000Y04326000D02*
X06450000Y04374000D01*
X06550000Y04374000D02*
X06550000Y04326000D01*
X06650000Y04326000D02*
X06650000Y04374000D01*
X06750000Y04374000D02*
X06750000Y04326000D01*
X05600000Y04326000D02*
X05600000Y04374000D01*
X05500000Y04374000D02*
X05500000Y04326000D01*
X05400000Y04326000D02*
X05400000Y04374000D01*
X05300000Y04374000D02*
X05300000Y04326000D01*
X05200000Y04326000D02*
X05200000Y04374000D01*
X05100000Y04374000D02*
X05100000Y04326000D01*
X05000000Y04326000D02*
X05000000Y04374000D01*
X04850000Y04374000D02*
X04850000Y04326000D01*
X04750000Y04326000D02*
X04750000Y04374000D01*
X04650000Y04374000D02*
X04650000Y04326000D01*
X04550000Y04326000D02*
X04550000Y04374000D01*
X04450000Y04374000D02*
X04450000Y04326000D01*
X04350000Y04326000D02*
X04350000Y04374000D01*
X04250000Y04374000D02*
X04250000Y04326000D01*
X04100000Y04326000D02*
X04100000Y04374000D01*
X04000000Y04374000D02*
X04000000Y04326000D01*
X03900000Y04326000D02*
X03900000Y04374000D01*
X03800000Y04374000D02*
X03800000Y04326000D01*
X03700000Y04326000D02*
X03700000Y04374000D01*
X03600000Y04374000D02*
X03600000Y04326000D01*
X03500000Y04326000D02*
X03500000Y04374000D01*
X03300000Y04374000D02*
X03300000Y04326000D01*
X03200000Y04326000D02*
X03200000Y04374000D01*
X03100000Y04374000D02*
X03100000Y04326000D01*
X03000000Y04326000D02*
X03000000Y04374000D01*
X02900000Y04374000D02*
X02900000Y04326000D01*
X02800000Y04326000D02*
X02800000Y04374000D01*
X02700000Y04374000D02*
X02700000Y04326000D01*
X02500000Y04326000D02*
X02500000Y04374000D01*
X02400000Y04374000D02*
X02400000Y04326000D01*
X02300000Y04326000D02*
X02300000Y04374000D01*
X02200000Y04374000D02*
X02200000Y04326000D01*
X02100000Y04326000D02*
X02100000Y04374000D01*
X02000000Y04374000D02*
X02000000Y04326000D01*
X01900000Y04326000D02*
X01900000Y04374000D01*
X01600000Y04376000D02*
X01600000Y04424000D01*
X01500000Y04424000D02*
X01500000Y04376000D01*
X01400000Y04376000D02*
X01400000Y04424000D01*
X01300000Y04424000D02*
X01300000Y04376000D01*
X01200000Y04376000D02*
X01200000Y04424000D01*
X01100000Y04424000D02*
X01100000Y04376000D01*
X01000000Y04376000D02*
X01000000Y04424000D01*
X00900000Y04424000D02*
X00900000Y04376000D01*
X00800000Y04376000D02*
X00800000Y04424000D01*
X00800000Y04224000D02*
X00800000Y04176000D01*
X00900000Y04176000D02*
X00900000Y04224000D01*
X01000000Y04224000D02*
X01000000Y04176000D01*
X01100000Y04176000D02*
X01100000Y04224000D01*
X01200000Y04224000D02*
X01200000Y04176000D01*
X01300000Y04176000D02*
X01300000Y04224000D01*
X01400000Y04224000D02*
X01400000Y04176000D01*
X01500000Y04176000D02*
X01500000Y04224000D01*
X01600000Y04224000D02*
X01600000Y04176000D01*
X01600000Y03924000D02*
X01600000Y03876000D01*
X01500000Y03876000D02*
X01500000Y03924000D01*
X01400000Y03924000D02*
X01400000Y03876000D01*
X01300000Y03876000D02*
X01300000Y03924000D01*
X01200000Y03924000D02*
X01200000Y03876000D01*
X01100000Y03876000D02*
X01100000Y03924000D01*
X01000000Y03924000D02*
X01000000Y03876000D01*
X00900000Y03876000D02*
X00900000Y03924000D01*
X00800000Y03924000D02*
X00800000Y03876000D01*
X00700000Y03876000D02*
X00700000Y03924000D01*
X00800000Y03724000D02*
X00800000Y03676000D01*
X00900000Y03676000D02*
X00900000Y03724000D01*
X01000000Y03724000D02*
X01000000Y03676000D01*
X01100000Y03676000D02*
X01100000Y03724000D01*
X01200000Y03724000D02*
X01200000Y03676000D01*
X01300000Y03676000D02*
X01300000Y03724000D01*
X01400000Y03724000D02*
X01400000Y03676000D01*
X01500000Y03676000D02*
X01500000Y03724000D01*
X01600000Y03724000D02*
X01600000Y03676000D01*
X01600000Y03524000D02*
X01600000Y03476000D01*
X01500000Y03476000D02*
X01500000Y03524000D01*
X01400000Y03524000D02*
X01400000Y03476000D01*
X01300000Y03476000D02*
X01300000Y03524000D01*
X01200000Y03524000D02*
X01200000Y03476000D01*
X01100000Y03476000D02*
X01100000Y03524000D01*
X01000000Y03524000D02*
X01000000Y03476000D01*
X00900000Y03476000D02*
X00900000Y03524000D01*
X00800000Y03524000D02*
X00800000Y03476000D01*
X00700000Y03476000D02*
X00700000Y03524000D01*
X00700000Y03224000D02*
X00700000Y03176000D01*
X00800000Y03176000D02*
X00800000Y03224000D01*
X00900000Y03224000D02*
X00900000Y03176000D01*
X01000000Y03176000D02*
X01000000Y03224000D01*
X01100000Y03224000D02*
X01100000Y03176000D01*
X01200000Y03176000D02*
X01200000Y03224000D01*
X01300000Y03224000D02*
X01300000Y03176000D01*
X01400000Y03176000D02*
X01400000Y03224000D01*
X01500000Y03224000D02*
X01500000Y03176000D01*
X01600000Y03176000D02*
X01600000Y03224000D01*
X00700000Y04176000D02*
X00700000Y04224000D01*
D11*
X00400000Y03800000D03*
X00300000Y03800000D03*
X00200000Y03800000D03*
X00200000Y03700000D03*
X00300000Y03700000D03*
X00400000Y03700000D03*
X00400000Y03600000D03*
X00300000Y03600000D03*
X00200000Y03600000D03*
X00200000Y03500000D03*
X00300000Y03500000D03*
X00400000Y03500000D03*
X00400000Y03400000D03*
X00300000Y03400000D03*
X00200000Y03400000D03*
X00200000Y03300000D03*
X00300000Y03300000D03*
X00400000Y03300000D03*
X00400000Y03200000D03*
X00300000Y03200000D03*
X00200000Y03200000D03*
X00200000Y03100000D03*
X00300000Y03100000D03*
X00400000Y03100000D03*
X00400000Y03000000D03*
X00300000Y03000000D03*
X00200000Y03000000D03*
X00200000Y02900000D03*
X00300000Y02900000D03*
X00400000Y02900000D03*
X00400000Y02800000D03*
X00300000Y02800000D03*
X00200000Y02800000D03*
X00200000Y02700000D03*
X00300000Y02700000D03*
X00400000Y02700000D03*
X00400000Y02600000D03*
X00300000Y02600000D03*
X00200000Y02600000D03*
X00200000Y02500000D03*
X00300000Y02500000D03*
X00400000Y02500000D03*
X00400000Y02400000D03*
X00300000Y02400000D03*
X00200000Y02400000D03*
X00200000Y02300000D03*
X00300000Y02300000D03*
X00400000Y02300000D03*
X00400000Y02200000D03*
X00300000Y02200000D03*
X00200000Y02200000D03*
X00200000Y02100000D03*
X00300000Y02100000D03*
X00400000Y02100000D03*
X00400000Y02000000D03*
X00300000Y02000000D03*
X00200000Y02000000D03*
X00200000Y01900000D03*
X00300000Y01900000D03*
X00400000Y01900000D03*
X00400000Y01800000D03*
X00300000Y01800000D03*
X00200000Y01800000D03*
X00200000Y01700000D03*
X00300000Y01700000D03*
X00400000Y01700000D03*
X00400000Y01600000D03*
X00300000Y01600000D03*
X00200000Y01600000D03*
X00200000Y01500000D03*
X00300000Y01500000D03*
X00400000Y01500000D03*
X00400000Y01400000D03*
X00300000Y01400000D03*
X00200000Y01400000D03*
X00200000Y01300000D03*
X00300000Y01300000D03*
X00400000Y01300000D03*
X00400000Y01200000D03*
X00300000Y01200000D03*
X00200000Y01200000D03*
X00200000Y01100000D03*
X00300000Y01100000D03*
X00400000Y01100000D03*
X00400000Y01000000D03*
X00300000Y01000000D03*
X00200000Y01000000D03*
X00200000Y00900000D03*
X00300000Y00900000D03*
X00400000Y00900000D03*
X00400000Y00800000D03*
X00300000Y00800000D03*
X00200000Y00800000D03*
X00200000Y00700000D03*
X00300000Y00700000D03*
X00400000Y00700000D03*
D12*
X00100000Y00499748D03*
X00100000Y04000252D03*
D13*
X00343000Y03738000D03*
X00455000Y03696000D03*
X00434000Y03640000D03*
X00462000Y03577000D03*
X00490000Y03528000D03*
X00518000Y03556000D03*
X00595000Y03549000D03*
X00595000Y03605000D03*
X00623000Y03717000D03*
X00700000Y03829000D03*
X00147000Y03605000D03*
X00063000Y03423000D03*
X00112000Y03318000D03*
X00490000Y03388000D03*
X00518000Y03416000D03*
X00609000Y03402000D03*
X00546000Y03332000D03*
X00630000Y03311000D03*
X00623000Y03269000D03*
X00518000Y03185000D03*
X00483000Y03185000D03*
X00490000Y03073000D03*
X00658000Y03094000D03*
X00791000Y03094000D03*
X00791000Y03024000D03*
X00665000Y02933000D03*
X00700000Y02863000D03*
X00553000Y02856000D03*
X00336000Y02863000D03*
X00112000Y02527000D03*
X00056000Y02513000D03*
X00056000Y02478000D03*
X00700000Y02429000D03*
X00742000Y02527000D03*
X01043000Y02618000D03*
X01043000Y02653000D03*
X01015000Y02709000D03*
X01183000Y02681000D03*
X01295000Y02681000D03*
X01274000Y02737000D03*
X01274000Y02772000D03*
X01407000Y02835000D03*
X01540000Y02737000D03*
X01785000Y02891000D03*
X01848000Y02989000D03*
X01687000Y03017000D03*
X01540000Y03038000D03*
X01512000Y02996000D03*
X01428000Y02961000D03*
X01400000Y03024000D03*
X01505000Y03108000D03*
X01554000Y03185000D03*
X01687000Y03241000D03*
X01736000Y03367000D03*
X01708000Y03451000D03*
X01491000Y03346000D03*
X01449000Y03290000D03*
X01421000Y03339000D03*
X01043000Y03255000D03*
X01015000Y03332000D03*
X00994000Y03416000D03*
X01267000Y03052000D03*
X01183000Y03024000D03*
X01890000Y03213000D03*
X02009000Y03178000D03*
X02009000Y03073000D03*
X02065000Y03087000D03*
X02037000Y03017000D03*
X02268000Y03122000D03*
X02408000Y03038000D03*
X02331000Y02891000D03*
X02163000Y02835000D03*
X02065000Y02835000D03*
X01974000Y02660000D03*
X01974000Y02562000D03*
X01988000Y02527000D03*
X02037000Y02541000D03*
X02156000Y02520000D03*
X02282000Y02569000D03*
X02296000Y02632000D03*
X02401000Y02611000D03*
X02436000Y02618000D03*
X02506000Y02632000D03*
X02499000Y02723000D03*
X02646000Y02702000D03*
X02674000Y02632000D03*
X02723000Y02576000D03*
X02856000Y02569000D03*
X02877000Y02681000D03*
X02968000Y02807000D03*
X02884000Y02856000D03*
X02835000Y02842000D03*
X02793000Y02940000D03*
X02807000Y03017000D03*
X02947000Y03017000D03*
X02989000Y03059000D03*
X02954000Y03185000D03*
X02828000Y03157000D03*
X02730000Y03185000D03*
X02639000Y03185000D03*
X02646000Y03227000D03*
X02541000Y03199000D03*
X02646000Y03094000D03*
X02842000Y03311000D03*
X02758000Y03360000D03*
X02639000Y03360000D03*
X02534000Y03325000D03*
X02478000Y03388000D03*
X02401000Y03423000D03*
X02317000Y03542000D03*
X02317000Y03584000D03*
X02261000Y03542000D03*
X02065000Y03416000D03*
X02030000Y03416000D03*
X01974000Y03437000D03*
X02002000Y03556000D03*
X01890000Y03668000D03*
X01862000Y03696000D03*
X01918000Y03745000D03*
X01946000Y03773000D03*
X02002000Y03773000D03*
X01995000Y03815000D03*
X02030000Y03892000D03*
X02107000Y03822000D03*
X02177000Y03822000D03*
X02366000Y03941000D03*
X02443000Y03871000D03*
X02555000Y03864000D03*
X02450000Y04130000D03*
X02268000Y04158000D03*
X02191000Y04179000D03*
X02051000Y04179000D03*
X02030000Y04256000D03*
X02030000Y04291000D03*
X01869000Y04263000D03*
X01764000Y04312000D03*
X01806000Y04354000D03*
X01834000Y04158000D03*
X01694000Y04158000D03*
X01666000Y04186000D03*
X01715000Y04018000D03*
X01687000Y03969000D03*
X01820000Y04004000D03*
X01848000Y03976000D03*
X01820000Y03913000D03*
X01715000Y03808000D03*
X01603000Y03829000D03*
X01708000Y03605000D03*
X01974000Y03724000D03*
X02079000Y03976000D03*
X02331000Y04256000D03*
X02331000Y04291000D03*
X02457000Y04431000D03*
X02492000Y04424000D03*
X02611000Y04291000D03*
X03150000Y04095000D03*
X03220000Y03927000D03*
X03304000Y03843000D03*
X03521000Y03843000D03*
X03675000Y03850000D03*
X03731000Y03941000D03*
X03857000Y03997000D03*
X03906000Y03906000D03*
X03822000Y03766000D03*
X03822000Y03654000D03*
X03668000Y03570000D03*
X03626000Y03514000D03*
X03577000Y03381000D03*
X03507000Y03346000D03*
X03374000Y03318000D03*
X03437000Y03171000D03*
X03528000Y03143000D03*
X03612000Y03073000D03*
X03689000Y03066000D03*
X03801000Y03073000D03*
X03801000Y03157000D03*
X04060000Y03073000D03*
X04256000Y03003000D03*
X04326000Y03115000D03*
X04284000Y03157000D03*
X04256000Y03185000D03*
X04354000Y03185000D03*
X04368000Y03311000D03*
X04571000Y03353000D03*
X04578000Y03388000D03*
X04592000Y03297000D03*
X04690000Y03255000D03*
X04725000Y03227000D03*
X04676000Y03101000D03*
X04592000Y03031000D03*
X04578000Y02996000D03*
X04592000Y02947000D03*
X04620000Y02905000D03*
X04648000Y02940000D03*
X04746000Y02996000D03*
X04536000Y03052000D03*
X04522000Y03017000D03*
X04340000Y02877000D03*
X04452000Y02772000D03*
X04718000Y02807000D03*
X04690000Y02520000D03*
X04655000Y02492000D03*
X04620000Y02450000D03*
X04753000Y02394000D03*
X04809000Y02401000D03*
X04865000Y02366000D03*
X04921000Y02338000D03*
X04872000Y02268000D03*
X04732000Y02093000D03*
X04592000Y02170000D03*
X04564000Y02212000D03*
X04536000Y02275000D03*
X04459000Y02359000D03*
X04165000Y02275000D03*
X04074000Y02289000D03*
X04137000Y02373000D03*
X04109000Y02520000D03*
X04067000Y02562000D03*
X04046000Y02597000D03*
X04130000Y02674000D03*
X04200000Y02674000D03*
X04207000Y02632000D03*
X04172000Y02597000D03*
X04291000Y02569000D03*
X04109000Y02821000D03*
X04025000Y02842000D03*
X03836000Y02674000D03*
X03724000Y02576000D03*
X03647000Y02548000D03*
X03563000Y02590000D03*
X03486000Y02555000D03*
X03486000Y02520000D03*
X03437000Y02611000D03*
X03535000Y02660000D03*
X03612000Y02660000D03*
X03507000Y02737000D03*
X03605000Y02842000D03*
X03661000Y02842000D03*
X03416000Y03073000D03*
X03346000Y03143000D03*
X03220000Y03171000D03*
X03157000Y03192000D03*
X03017000Y03346000D03*
X02919000Y03402000D03*
X03052000Y03423000D03*
X03017000Y03486000D03*
X02954000Y03514000D03*
X02982000Y03682000D03*
X03052000Y03752000D03*
X03577000Y03661000D03*
X03794000Y03479000D03*
X04088000Y03542000D03*
X04354000Y03556000D03*
X04571000Y03570000D03*
X04648000Y03542000D03*
X04690000Y03542000D03*
X05173000Y03633000D03*
X05306000Y03570000D03*
X05432000Y03563000D03*
X05432000Y03647000D03*
X05460000Y03703000D03*
X05488000Y03675000D03*
X05551000Y03780000D03*
X05572000Y03871000D03*
X05621000Y03976000D03*
X05551000Y04179000D03*
X05747000Y04277000D03*
X05859000Y04151000D03*
X05915000Y04410000D03*
X06307000Y04438000D03*
X06440000Y04438000D03*
X06314000Y04151000D03*
X06748000Y03871000D03*
X06398000Y03731000D03*
X06027000Y03647000D03*
X05936000Y03619000D03*
X06013000Y03591000D03*
X05908000Y03717000D03*
X05740000Y03556000D03*
X05782000Y03507000D03*
X05712000Y03500000D03*
X05838000Y03381000D03*
X05915000Y03381000D03*
X06111000Y03206000D03*
X06181000Y03157000D03*
X06153000Y03115000D03*
X06209000Y03073000D03*
X06489000Y03122000D03*
X06727000Y03199000D03*
X06776000Y03178000D03*
X06832000Y02968000D03*
X06804000Y02905000D03*
X06741000Y02877000D03*
X06545000Y02821000D03*
X06328000Y02821000D03*
X06202000Y02723000D03*
X06272000Y02681000D03*
X06342000Y02674000D03*
X06216000Y02625000D03*
X06146000Y02646000D03*
X06111000Y02618000D03*
X06111000Y02674000D03*
X06027000Y02660000D03*
X06125000Y02534000D03*
X06202000Y02457000D03*
X06286000Y02506000D03*
X06447000Y02632000D03*
X06496000Y02506000D03*
X06587000Y02373000D03*
X06860000Y02247000D03*
X06888000Y02205000D03*
X06727000Y01988000D03*
X06699000Y01925000D03*
X06587000Y01785000D03*
X06209000Y01848000D03*
X06139000Y01743000D03*
X05943000Y01743000D03*
X06076000Y01582000D03*
X05978000Y01421000D03*
X05943000Y01421000D03*
X05887000Y01477000D03*
X06013000Y01239000D03*
X06216000Y01295000D03*
X06258000Y01253000D03*
X05817000Y00973000D03*
X05943000Y00784000D03*
X05845000Y00756000D03*
X05901000Y00602000D03*
X05754000Y00546000D03*
X05698000Y00574000D03*
X05670000Y00546000D03*
X05698000Y00490000D03*
X05621000Y00378000D03*
X05600000Y00301000D03*
X05754000Y00301000D03*
X06020000Y00329000D03*
X06076000Y00350000D03*
X06377000Y00287000D03*
X06496000Y00224000D03*
X06398000Y00378000D03*
X06699000Y00406000D03*
X06328000Y00630000D03*
X06419000Y00686000D03*
X06125000Y00644000D03*
X06069000Y00644000D03*
X06069000Y00721000D03*
X05425000Y00686000D03*
X05201000Y00826000D03*
X05250000Y00945000D03*
X05117000Y00938000D03*
X04984000Y00840000D03*
X04795000Y00805000D03*
X05103000Y00616000D03*
X05173000Y00658000D03*
X05362000Y00448000D03*
X05040000Y00315000D03*
X04998000Y00273000D03*
X04970000Y00371000D03*
X05271000Y00070000D03*
X04466000Y00280000D03*
X04473000Y00364000D03*
X04340000Y00399000D03*
X04319000Y00280000D03*
X04326000Y00133000D03*
X04081000Y00287000D03*
X04109000Y00378000D03*
X04074000Y00413000D03*
X04039000Y00413000D03*
X03955000Y00441000D03*
X04046000Y00546000D03*
X04004000Y00588000D03*
X04039000Y00637000D03*
X04053000Y00672000D03*
X04179000Y00679000D03*
X04158000Y00567000D03*
X04333000Y00560000D03*
X04193000Y00406000D03*
X03878000Y00287000D03*
X03773000Y00273000D03*
X03675000Y00196000D03*
X03731000Y00154000D03*
X03682000Y00126000D03*
X03843000Y00098000D03*
X03514000Y00392000D03*
X03633000Y00420000D03*
X03647000Y00469000D03*
X03661000Y00504000D03*
X03822000Y00574000D03*
X03675000Y00672000D03*
X03507000Y00658000D03*
X03444000Y00686000D03*
X03430000Y00602000D03*
X03493000Y00574000D03*
X03213000Y00658000D03*
X03031000Y00602000D03*
X02933000Y00574000D03*
X02835000Y00574000D03*
X02737000Y00672000D03*
X02765000Y00700000D03*
X02632000Y00693000D03*
X02520000Y00672000D03*
X02443000Y00700000D03*
X02394000Y00644000D03*
X02548000Y00476000D03*
X02702000Y00427000D03*
X02611000Y00336000D03*
X02485000Y00350000D03*
X02450000Y00350000D03*
X02415000Y00364000D03*
X02345000Y00385000D03*
X02464000Y00266000D03*
X02324000Y00112000D03*
X02583000Y00049000D03*
X02639000Y00063000D03*
X02821000Y00238000D03*
X02716000Y00308000D03*
X03101000Y00063000D03*
X03150000Y00140000D03*
X03248000Y00231000D03*
X03157000Y00441000D03*
X03710000Y00784000D03*
X03738000Y00812000D03*
X03773000Y00812000D03*
X03829000Y00854000D03*
X03689000Y00924000D03*
X03591000Y00826000D03*
X03227000Y00924000D03*
X03108000Y00980000D03*
X03052000Y01022000D03*
X02835000Y01127000D03*
X02793000Y01155000D03*
X02793000Y00973000D03*
X02793000Y00861000D03*
X02681000Y00973000D03*
X02310000Y00903000D03*
X02107000Y00924000D03*
X02037000Y00931000D03*
X01848000Y01022000D03*
X01792000Y01127000D03*
X01918000Y01155000D03*
X01694000Y01316000D03*
X01638000Y01372000D03*
X01750000Y01540000D03*
X02023000Y02002000D03*
X02037000Y02051000D03*
X01946000Y02072000D03*
X01750000Y02135000D03*
X01694000Y02205000D03*
X01526000Y02135000D03*
X01414000Y02282000D03*
X01631000Y02317000D03*
X01659000Y02380000D03*
X01722000Y02345000D03*
X01596000Y02534000D03*
X01442000Y02534000D03*
X02051000Y02373000D03*
X02170000Y02345000D03*
X02296000Y02275000D03*
X02338000Y02268000D03*
X02415000Y02345000D03*
X02450000Y02345000D03*
X02499000Y02275000D03*
X02569000Y02359000D03*
X02702000Y02275000D03*
X02765000Y02303000D03*
X02849000Y02163000D03*
X02793000Y02100000D03*
X02730000Y02128000D03*
X02737000Y02016000D03*
X02975000Y02135000D03*
X02996000Y02100000D03*
X03080000Y02093000D03*
X03199000Y02009000D03*
X03262000Y01981000D03*
X03311000Y02030000D03*
X03402000Y02037000D03*
X03339000Y02121000D03*
X03374000Y02135000D03*
X03269000Y02107000D03*
X03164000Y02254000D03*
X03143000Y02310000D03*
X03087000Y02331000D03*
X03136000Y02380000D03*
X03269000Y02387000D03*
X03311000Y02324000D03*
X03430000Y02387000D03*
X03458000Y02331000D03*
X03633000Y02387000D03*
X03864000Y02296000D03*
X03731000Y02135000D03*
X03892000Y02128000D03*
X03948000Y02121000D03*
X04025000Y02121000D03*
X04053000Y02170000D03*
X04221000Y02051000D03*
X04326000Y02023000D03*
X04333000Y02121000D03*
X04466000Y01981000D03*
X04536000Y01820000D03*
X04508000Y01792000D03*
X04263000Y01848000D03*
X04221000Y01743000D03*
X04158000Y01701000D03*
X04053000Y01680000D03*
X03955000Y01561000D03*
X03857000Y01533000D03*
X03871000Y01414000D03*
X04011000Y01449000D03*
X03997000Y01274000D03*
X04025000Y01246000D03*
X03976000Y01204000D03*
X03941000Y01169000D03*
X03976000Y01127000D03*
X04018000Y01162000D03*
X04095000Y01197000D03*
X04130000Y01197000D03*
X04186000Y01253000D03*
X04333000Y01281000D03*
X04494000Y01232000D03*
X04480000Y01190000D03*
X04767000Y01183000D03*
X04935000Y01092000D03*
X04795000Y01064000D03*
X05138000Y01267000D03*
X05208000Y01141000D03*
X05362000Y01218000D03*
X05523000Y01274000D03*
X05236000Y01407000D03*
X05124000Y01519000D03*
X05082000Y01526000D03*
X04823000Y01582000D03*
X04676000Y01568000D03*
X04606000Y01568000D03*
X04536000Y01596000D03*
X04480000Y01575000D03*
X04438000Y01596000D03*
X04368000Y01568000D03*
X04333000Y01568000D03*
X04235000Y01533000D03*
X04277000Y01435000D03*
X04501000Y01463000D03*
X04536000Y01449000D03*
X04536000Y01484000D03*
X04704000Y01421000D03*
X04732000Y01449000D03*
X05110000Y01722000D03*
X05187000Y01778000D03*
X05208000Y01827000D03*
X05362000Y01722000D03*
X05649000Y01988000D03*
X05705000Y01967000D03*
X05565000Y02037000D03*
X05551000Y02184000D03*
X05285000Y02016000D03*
X05187000Y02023000D03*
X04977000Y02079000D03*
X04802000Y01757000D03*
X04865000Y01729000D03*
X03948000Y01876000D03*
X03556000Y01638000D03*
X03549000Y01575000D03*
X03332000Y01379000D03*
X03402000Y01351000D03*
X03108000Y01337000D03*
X03094000Y01176000D03*
X03248000Y01078000D03*
X03689000Y01162000D03*
X03773000Y01246000D03*
X03731000Y01358000D03*
X03262000Y01694000D03*
X03136000Y01750000D03*
X03059000Y01666000D03*
X02975000Y01785000D03*
X02940000Y01785000D03*
X02870000Y01792000D03*
X02681000Y01785000D03*
X02604000Y01624000D03*
X02548000Y01484000D03*
X02667000Y01463000D03*
X02751000Y01470000D03*
X02849000Y01568000D03*
X03437000Y01778000D03*
X03437000Y01841000D03*
X03024000Y01981000D03*
X02310000Y02401000D03*
X02597000Y02520000D03*
X02947000Y02478000D03*
X03045000Y02520000D03*
X03136000Y02520000D03*
X03206000Y02520000D03*
X03269000Y02548000D03*
X03234000Y02639000D03*
X03269000Y02653000D03*
X03346000Y02471000D03*
X03115000Y02877000D03*
X03003000Y02877000D03*
X02674000Y02863000D03*
X04151000Y03234000D03*
X04753000Y03829000D03*
X04683000Y03948000D03*
X04921000Y03997000D03*
X04900000Y04095000D03*
X05040000Y03941000D03*
X04550000Y04263000D03*
X04494000Y04242000D03*
X04466000Y04270000D03*
X04620000Y04291000D03*
X04424000Y04417000D03*
X04200000Y04375000D03*
X03955000Y04214000D03*
X04130000Y04123000D03*
X04165000Y04123000D03*
X04179000Y04053000D03*
X04179000Y04018000D03*
X04130000Y03920000D03*
X04291000Y04172000D03*
X03647000Y04081000D03*
X04928000Y04410000D03*
X05348000Y04340000D03*
X05397000Y03374000D03*
X05537000Y03241000D03*
X05537000Y03206000D03*
X05537000Y03136000D03*
X05628000Y03115000D03*
X05691000Y03087000D03*
X05887000Y02975000D03*
X05740000Y02912000D03*
X05810000Y02807000D03*
X06055000Y02898000D03*
X05887000Y02506000D03*
X05999000Y02373000D03*
X05964000Y02331000D03*
X05964000Y02275000D03*
X06167000Y02352000D03*
X06314000Y02345000D03*
X05971000Y02128000D03*
X05887000Y02072000D03*
X05887000Y02023000D03*
X05915000Y01995000D03*
X06013000Y01953000D03*
X06062000Y01974000D03*
X06097000Y01974000D03*
X05404000Y02590000D03*
X05362000Y02548000D03*
X05334000Y02646000D03*
X05292000Y02674000D03*
X05110000Y02674000D03*
X05432000Y02821000D03*
X05159000Y02926000D03*
X05292000Y03206000D03*
X06398000Y03325000D03*
X06615000Y03395000D03*
X06916000Y03549000D03*
X06762000Y02632000D03*
X06818000Y02576000D03*
X06818000Y01113000D03*
X06846000Y00700000D03*
X04361000Y00896000D03*
X04277000Y00868000D03*
X04172000Y00812000D03*
X04137000Y00812000D03*
X03990000Y00882000D03*
X02156000Y00441000D03*
X02079000Y00399000D03*
X02037000Y00392000D03*
X01995000Y00427000D03*
X01953000Y00560000D03*
X02065000Y00574000D03*
X01771000Y00588000D03*
X01743000Y00637000D03*
X01666000Y00749000D03*
X01568000Y00882000D03*
X01526000Y00959000D03*
X01365000Y00098000D03*
M02*
