G75*
%MOIN*%
%OFA0B0*%
%FSLAX26Y26*%
%IPPOS*%
%LPD*%
%AMOC8*
5,1,8,0,0,1.08239X$1,22.5*
%
%ADD10C,0.000000*%
%ADD11C,0.006000*%
%ADD12C,0.005000*%
%ADD13C,0.004000*%
%ADD14C,0.010000*%
%ADD15C,0.002000*%
%ADD16C,0.003000*%
D10*
X00000000Y00000000D02*
X00000000Y04487008D01*
X06999213Y04487008D01*
X06999213Y00000000D01*
X00000000Y00000000D01*
X-00010000Y00281000D02*
X-00010000Y04219000D01*
X00045000Y04000252D02*
X00045017Y04001602D01*
X00045066Y04002951D01*
X00045149Y04004298D01*
X00045265Y04005643D01*
X00045414Y04006985D01*
X00045595Y04008322D01*
X00045810Y04009655D01*
X00046057Y04010982D01*
X00046336Y04012303D01*
X00046648Y04013616D01*
X00046992Y04014921D01*
X00047368Y04016218D01*
X00047776Y04017504D01*
X00048215Y04018781D01*
X00048685Y04020046D01*
X00049187Y04021300D01*
X00049718Y04022540D01*
X00050281Y04023768D01*
X00050873Y04024981D01*
X00051494Y04026179D01*
X00052145Y04027361D01*
X00052825Y04028528D01*
X00053533Y04029677D01*
X00054269Y04030808D01*
X00055033Y04031921D01*
X00055824Y04033015D01*
X00056641Y04034090D01*
X00057484Y04035144D01*
X00058354Y04036177D01*
X00059248Y04037188D01*
X00060166Y04038177D01*
X00061109Y04039143D01*
X00062075Y04040086D01*
X00063064Y04041004D01*
X00064075Y04041898D01*
X00065108Y04042768D01*
X00066162Y04043611D01*
X00067237Y04044428D01*
X00068331Y04045219D01*
X00069444Y04045983D01*
X00070575Y04046719D01*
X00071724Y04047427D01*
X00072891Y04048107D01*
X00074073Y04048758D01*
X00075271Y04049379D01*
X00076484Y04049971D01*
X00077712Y04050534D01*
X00078952Y04051065D01*
X00080206Y04051567D01*
X00081471Y04052037D01*
X00082748Y04052476D01*
X00084034Y04052884D01*
X00085331Y04053260D01*
X00086636Y04053604D01*
X00087949Y04053916D01*
X00089270Y04054195D01*
X00090597Y04054442D01*
X00091930Y04054657D01*
X00093267Y04054838D01*
X00094609Y04054987D01*
X00095954Y04055103D01*
X00097301Y04055186D01*
X00098650Y04055235D01*
X00100000Y04055252D01*
X00101350Y04055235D01*
X00102699Y04055186D01*
X00104046Y04055103D01*
X00105391Y04054987D01*
X00106733Y04054838D01*
X00108070Y04054657D01*
X00109403Y04054442D01*
X00110730Y04054195D01*
X00112051Y04053916D01*
X00113364Y04053604D01*
X00114669Y04053260D01*
X00115966Y04052884D01*
X00117252Y04052476D01*
X00118529Y04052037D01*
X00119794Y04051567D01*
X00121048Y04051065D01*
X00122288Y04050534D01*
X00123516Y04049971D01*
X00124729Y04049379D01*
X00125927Y04048758D01*
X00127109Y04048107D01*
X00128276Y04047427D01*
X00129425Y04046719D01*
X00130556Y04045983D01*
X00131669Y04045219D01*
X00132763Y04044428D01*
X00133838Y04043611D01*
X00134892Y04042768D01*
X00135925Y04041898D01*
X00136936Y04041004D01*
X00137925Y04040086D01*
X00138891Y04039143D01*
X00139834Y04038177D01*
X00140752Y04037188D01*
X00141646Y04036177D01*
X00142516Y04035144D01*
X00143359Y04034090D01*
X00144176Y04033015D01*
X00144967Y04031921D01*
X00145731Y04030808D01*
X00146467Y04029677D01*
X00147175Y04028528D01*
X00147855Y04027361D01*
X00148506Y04026179D01*
X00149127Y04024981D01*
X00149719Y04023768D01*
X00150282Y04022540D01*
X00150813Y04021300D01*
X00151315Y04020046D01*
X00151785Y04018781D01*
X00152224Y04017504D01*
X00152632Y04016218D01*
X00153008Y04014921D01*
X00153352Y04013616D01*
X00153664Y04012303D01*
X00153943Y04010982D01*
X00154190Y04009655D01*
X00154405Y04008322D01*
X00154586Y04006985D01*
X00154735Y04005643D01*
X00154851Y04004298D01*
X00154934Y04002951D01*
X00154983Y04001602D01*
X00155000Y04000252D01*
X00154983Y03998902D01*
X00154934Y03997553D01*
X00154851Y03996206D01*
X00154735Y03994861D01*
X00154586Y03993519D01*
X00154405Y03992182D01*
X00154190Y03990849D01*
X00153943Y03989522D01*
X00153664Y03988201D01*
X00153352Y03986888D01*
X00153008Y03985583D01*
X00152632Y03984286D01*
X00152224Y03983000D01*
X00151785Y03981723D01*
X00151315Y03980458D01*
X00150813Y03979204D01*
X00150282Y03977964D01*
X00149719Y03976736D01*
X00149127Y03975523D01*
X00148506Y03974325D01*
X00147855Y03973143D01*
X00147175Y03971976D01*
X00146467Y03970827D01*
X00145731Y03969696D01*
X00144967Y03968583D01*
X00144176Y03967489D01*
X00143359Y03966414D01*
X00142516Y03965360D01*
X00141646Y03964327D01*
X00140752Y03963316D01*
X00139834Y03962327D01*
X00138891Y03961361D01*
X00137925Y03960418D01*
X00136936Y03959500D01*
X00135925Y03958606D01*
X00134892Y03957736D01*
X00133838Y03956893D01*
X00132763Y03956076D01*
X00131669Y03955285D01*
X00130556Y03954521D01*
X00129425Y03953785D01*
X00128276Y03953077D01*
X00127109Y03952397D01*
X00125927Y03951746D01*
X00124729Y03951125D01*
X00123516Y03950533D01*
X00122288Y03949970D01*
X00121048Y03949439D01*
X00119794Y03948937D01*
X00118529Y03948467D01*
X00117252Y03948028D01*
X00115966Y03947620D01*
X00114669Y03947244D01*
X00113364Y03946900D01*
X00112051Y03946588D01*
X00110730Y03946309D01*
X00109403Y03946062D01*
X00108070Y03945847D01*
X00106733Y03945666D01*
X00105391Y03945517D01*
X00104046Y03945401D01*
X00102699Y03945318D01*
X00101350Y03945269D01*
X00100000Y03945252D01*
X00098650Y03945269D01*
X00097301Y03945318D01*
X00095954Y03945401D01*
X00094609Y03945517D01*
X00093267Y03945666D01*
X00091930Y03945847D01*
X00090597Y03946062D01*
X00089270Y03946309D01*
X00087949Y03946588D01*
X00086636Y03946900D01*
X00085331Y03947244D01*
X00084034Y03947620D01*
X00082748Y03948028D01*
X00081471Y03948467D01*
X00080206Y03948937D01*
X00078952Y03949439D01*
X00077712Y03949970D01*
X00076484Y03950533D01*
X00075271Y03951125D01*
X00074073Y03951746D01*
X00072891Y03952397D01*
X00071724Y03953077D01*
X00070575Y03953785D01*
X00069444Y03954521D01*
X00068331Y03955285D01*
X00067237Y03956076D01*
X00066162Y03956893D01*
X00065108Y03957736D01*
X00064075Y03958606D01*
X00063064Y03959500D01*
X00062075Y03960418D01*
X00061109Y03961361D01*
X00060166Y03962327D01*
X00059248Y03963316D01*
X00058354Y03964327D01*
X00057484Y03965360D01*
X00056641Y03966414D01*
X00055824Y03967489D01*
X00055033Y03968583D01*
X00054269Y03969696D01*
X00053533Y03970827D01*
X00052825Y03971976D01*
X00052145Y03973143D01*
X00051494Y03974325D01*
X00050873Y03975523D01*
X00050281Y03976736D01*
X00049718Y03977964D01*
X00049187Y03979204D01*
X00048685Y03980458D01*
X00048215Y03981723D01*
X00047776Y03983000D01*
X00047368Y03984286D01*
X00046992Y03985583D01*
X00046648Y03986888D01*
X00046336Y03988201D01*
X00046057Y03989522D01*
X00045810Y03990849D01*
X00045595Y03992182D01*
X00045414Y03993519D01*
X00045265Y03994861D01*
X00045149Y03996206D01*
X00045066Y03997553D01*
X00045017Y03998902D01*
X00045000Y04000252D01*
X00045000Y00499748D02*
X00045017Y00501098D01*
X00045066Y00502447D01*
X00045149Y00503794D01*
X00045265Y00505139D01*
X00045414Y00506481D01*
X00045595Y00507818D01*
X00045810Y00509151D01*
X00046057Y00510478D01*
X00046336Y00511799D01*
X00046648Y00513112D01*
X00046992Y00514417D01*
X00047368Y00515714D01*
X00047776Y00517000D01*
X00048215Y00518277D01*
X00048685Y00519542D01*
X00049187Y00520796D01*
X00049718Y00522036D01*
X00050281Y00523264D01*
X00050873Y00524477D01*
X00051494Y00525675D01*
X00052145Y00526857D01*
X00052825Y00528024D01*
X00053533Y00529173D01*
X00054269Y00530304D01*
X00055033Y00531417D01*
X00055824Y00532511D01*
X00056641Y00533586D01*
X00057484Y00534640D01*
X00058354Y00535673D01*
X00059248Y00536684D01*
X00060166Y00537673D01*
X00061109Y00538639D01*
X00062075Y00539582D01*
X00063064Y00540500D01*
X00064075Y00541394D01*
X00065108Y00542264D01*
X00066162Y00543107D01*
X00067237Y00543924D01*
X00068331Y00544715D01*
X00069444Y00545479D01*
X00070575Y00546215D01*
X00071724Y00546923D01*
X00072891Y00547603D01*
X00074073Y00548254D01*
X00075271Y00548875D01*
X00076484Y00549467D01*
X00077712Y00550030D01*
X00078952Y00550561D01*
X00080206Y00551063D01*
X00081471Y00551533D01*
X00082748Y00551972D01*
X00084034Y00552380D01*
X00085331Y00552756D01*
X00086636Y00553100D01*
X00087949Y00553412D01*
X00089270Y00553691D01*
X00090597Y00553938D01*
X00091930Y00554153D01*
X00093267Y00554334D01*
X00094609Y00554483D01*
X00095954Y00554599D01*
X00097301Y00554682D01*
X00098650Y00554731D01*
X00100000Y00554748D01*
X00101350Y00554731D01*
X00102699Y00554682D01*
X00104046Y00554599D01*
X00105391Y00554483D01*
X00106733Y00554334D01*
X00108070Y00554153D01*
X00109403Y00553938D01*
X00110730Y00553691D01*
X00112051Y00553412D01*
X00113364Y00553100D01*
X00114669Y00552756D01*
X00115966Y00552380D01*
X00117252Y00551972D01*
X00118529Y00551533D01*
X00119794Y00551063D01*
X00121048Y00550561D01*
X00122288Y00550030D01*
X00123516Y00549467D01*
X00124729Y00548875D01*
X00125927Y00548254D01*
X00127109Y00547603D01*
X00128276Y00546923D01*
X00129425Y00546215D01*
X00130556Y00545479D01*
X00131669Y00544715D01*
X00132763Y00543924D01*
X00133838Y00543107D01*
X00134892Y00542264D01*
X00135925Y00541394D01*
X00136936Y00540500D01*
X00137925Y00539582D01*
X00138891Y00538639D01*
X00139834Y00537673D01*
X00140752Y00536684D01*
X00141646Y00535673D01*
X00142516Y00534640D01*
X00143359Y00533586D01*
X00144176Y00532511D01*
X00144967Y00531417D01*
X00145731Y00530304D01*
X00146467Y00529173D01*
X00147175Y00528024D01*
X00147855Y00526857D01*
X00148506Y00525675D01*
X00149127Y00524477D01*
X00149719Y00523264D01*
X00150282Y00522036D01*
X00150813Y00520796D01*
X00151315Y00519542D01*
X00151785Y00518277D01*
X00152224Y00517000D01*
X00152632Y00515714D01*
X00153008Y00514417D01*
X00153352Y00513112D01*
X00153664Y00511799D01*
X00153943Y00510478D01*
X00154190Y00509151D01*
X00154405Y00507818D01*
X00154586Y00506481D01*
X00154735Y00505139D01*
X00154851Y00503794D01*
X00154934Y00502447D01*
X00154983Y00501098D01*
X00155000Y00499748D01*
X00154983Y00498398D01*
X00154934Y00497049D01*
X00154851Y00495702D01*
X00154735Y00494357D01*
X00154586Y00493015D01*
X00154405Y00491678D01*
X00154190Y00490345D01*
X00153943Y00489018D01*
X00153664Y00487697D01*
X00153352Y00486384D01*
X00153008Y00485079D01*
X00152632Y00483782D01*
X00152224Y00482496D01*
X00151785Y00481219D01*
X00151315Y00479954D01*
X00150813Y00478700D01*
X00150282Y00477460D01*
X00149719Y00476232D01*
X00149127Y00475019D01*
X00148506Y00473821D01*
X00147855Y00472639D01*
X00147175Y00471472D01*
X00146467Y00470323D01*
X00145731Y00469192D01*
X00144967Y00468079D01*
X00144176Y00466985D01*
X00143359Y00465910D01*
X00142516Y00464856D01*
X00141646Y00463823D01*
X00140752Y00462812D01*
X00139834Y00461823D01*
X00138891Y00460857D01*
X00137925Y00459914D01*
X00136936Y00458996D01*
X00135925Y00458102D01*
X00134892Y00457232D01*
X00133838Y00456389D01*
X00132763Y00455572D01*
X00131669Y00454781D01*
X00130556Y00454017D01*
X00129425Y00453281D01*
X00128276Y00452573D01*
X00127109Y00451893D01*
X00125927Y00451242D01*
X00124729Y00450621D01*
X00123516Y00450029D01*
X00122288Y00449466D01*
X00121048Y00448935D01*
X00119794Y00448433D01*
X00118529Y00447963D01*
X00117252Y00447524D01*
X00115966Y00447116D01*
X00114669Y00446740D01*
X00113364Y00446396D01*
X00112051Y00446084D01*
X00110730Y00445805D01*
X00109403Y00445558D01*
X00108070Y00445343D01*
X00106733Y00445162D01*
X00105391Y00445013D01*
X00104046Y00444897D01*
X00102699Y00444814D01*
X00101350Y00444765D01*
X00100000Y00444748D01*
X00098650Y00444765D01*
X00097301Y00444814D01*
X00095954Y00444897D01*
X00094609Y00445013D01*
X00093267Y00445162D01*
X00091930Y00445343D01*
X00090597Y00445558D01*
X00089270Y00445805D01*
X00087949Y00446084D01*
X00086636Y00446396D01*
X00085331Y00446740D01*
X00084034Y00447116D01*
X00082748Y00447524D01*
X00081471Y00447963D01*
X00080206Y00448433D01*
X00078952Y00448935D01*
X00077712Y00449466D01*
X00076484Y00450029D01*
X00075271Y00450621D01*
X00074073Y00451242D01*
X00072891Y00451893D01*
X00071724Y00452573D01*
X00070575Y00453281D01*
X00069444Y00454017D01*
X00068331Y00454781D01*
X00067237Y00455572D01*
X00066162Y00456389D01*
X00065108Y00457232D01*
X00064075Y00458102D01*
X00063064Y00458996D01*
X00062075Y00459914D01*
X00061109Y00460857D01*
X00060166Y00461823D01*
X00059248Y00462812D01*
X00058354Y00463823D01*
X00057484Y00464856D01*
X00056641Y00465910D01*
X00055824Y00466985D01*
X00055033Y00468079D01*
X00054269Y00469192D01*
X00053533Y00470323D01*
X00052825Y00471472D01*
X00052145Y00472639D01*
X00051494Y00473821D01*
X00050873Y00475019D01*
X00050281Y00476232D01*
X00049718Y00477460D01*
X00049187Y00478700D01*
X00048685Y00479954D01*
X00048215Y00481219D01*
X00047776Y00482496D01*
X00047368Y00483782D01*
X00046992Y00485079D01*
X00046648Y00486384D01*
X00046336Y00487697D01*
X00046057Y00489018D01*
X00045810Y00490345D01*
X00045595Y00491678D01*
X00045414Y00493015D01*
X00045265Y00494357D01*
X00045149Y00495702D01*
X00045066Y00497049D01*
X00045017Y00498398D01*
X00045000Y00499748D01*
D11*
X01750000Y00465000D02*
X01750000Y00390000D01*
X01750974Y00389988D01*
X01751948Y00389953D01*
X01752920Y00389893D01*
X01753890Y00389810D01*
X01754859Y00389704D01*
X01755824Y00389574D01*
X01756786Y00389420D01*
X01757744Y00389243D01*
X01758697Y00389043D01*
X01759645Y00388820D01*
X01760588Y00388573D01*
X01761524Y00388304D01*
X01762453Y00388012D01*
X01763375Y00387698D01*
X01764289Y00387361D01*
X01765195Y00387002D01*
X01766091Y00386621D01*
X01766978Y00386218D01*
X01767855Y00385794D01*
X01768721Y00385348D01*
X01769577Y00384882D01*
X01770420Y00384395D01*
X01771252Y00383887D01*
X01772071Y00383360D01*
X01772877Y00382813D01*
X01773669Y00382246D01*
X01774447Y00381660D01*
X01775211Y00381055D01*
X01775959Y00380432D01*
X01776693Y00379791D01*
X01777410Y00379132D01*
X01778112Y00378456D01*
X01778796Y00377763D01*
X01779464Y00377054D01*
X01780114Y00376328D01*
X01780746Y00375587D01*
X01781360Y00374831D01*
X01781955Y00374060D01*
X01782532Y00373274D01*
X01783089Y00372475D01*
X01783626Y00371663D01*
X01784144Y00370838D01*
X01784641Y00370000D01*
X01785118Y00369151D01*
X01785574Y00368290D01*
X01786009Y00367418D01*
X01786422Y00366536D01*
X01786814Y00365644D01*
X01787184Y00364743D01*
X01787532Y00363833D01*
X01787858Y00362915D01*
X01788161Y00361990D01*
X01788442Y00361057D01*
X01788699Y00360117D01*
X01788934Y00359172D01*
X01789146Y00358221D01*
X01789335Y00357265D01*
X01789500Y00356305D01*
X01789642Y00355342D01*
X01789760Y00354375D01*
X01789855Y00353405D01*
X01789926Y00352434D01*
X01789973Y00351461D01*
X01789997Y00350487D01*
X01789997Y00349513D01*
X01789973Y00348539D01*
X01789926Y00347566D01*
X01789855Y00346595D01*
X01789760Y00345625D01*
X01789642Y00344658D01*
X01789500Y00343695D01*
X01789335Y00342735D01*
X01789146Y00341779D01*
X01788934Y00340828D01*
X01788699Y00339883D01*
X01788442Y00338943D01*
X01788161Y00338010D01*
X01787858Y00337085D01*
X01787532Y00336167D01*
X01787184Y00335257D01*
X01786814Y00334356D01*
X01786422Y00333464D01*
X01786009Y00332582D01*
X01785574Y00331710D01*
X01785118Y00330849D01*
X01784641Y00330000D01*
X01784144Y00329162D01*
X01783626Y00328337D01*
X01783089Y00327525D01*
X01782532Y00326726D01*
X01781955Y00325940D01*
X01781360Y00325169D01*
X01780746Y00324413D01*
X01780114Y00323672D01*
X01779464Y00322946D01*
X01778796Y00322237D01*
X01778112Y00321544D01*
X01777410Y00320868D01*
X01776693Y00320209D01*
X01775959Y00319568D01*
X01775211Y00318945D01*
X01774447Y00318340D01*
X01773669Y00317754D01*
X01772877Y00317187D01*
X01772071Y00316640D01*
X01771252Y00316113D01*
X01770420Y00315605D01*
X01769577Y00315118D01*
X01768721Y00314652D01*
X01767855Y00314206D01*
X01766978Y00313782D01*
X01766091Y00313379D01*
X01765195Y00312998D01*
X01764289Y00312639D01*
X01763375Y00312302D01*
X01762453Y00311988D01*
X01761524Y00311696D01*
X01760588Y00311427D01*
X01759645Y00311180D01*
X01758697Y00310957D01*
X01757744Y00310757D01*
X01756786Y00310580D01*
X01755824Y00310426D01*
X01754859Y00310296D01*
X01753890Y00310190D01*
X01752920Y00310107D01*
X01751948Y00310047D01*
X01750974Y00310012D01*
X01750000Y00310000D01*
X01750000Y00235000D01*
X02750000Y00235000D01*
X02750000Y00465000D01*
X01750000Y00465000D01*
X01750000Y00785000D02*
X01750000Y00860000D01*
X01750974Y00860012D01*
X01751948Y00860047D01*
X01752920Y00860107D01*
X01753890Y00860190D01*
X01754859Y00860296D01*
X01755824Y00860426D01*
X01756786Y00860580D01*
X01757744Y00860757D01*
X01758697Y00860957D01*
X01759645Y00861180D01*
X01760588Y00861427D01*
X01761524Y00861696D01*
X01762453Y00861988D01*
X01763375Y00862302D01*
X01764289Y00862639D01*
X01765195Y00862998D01*
X01766091Y00863379D01*
X01766978Y00863782D01*
X01767855Y00864206D01*
X01768721Y00864652D01*
X01769577Y00865118D01*
X01770420Y00865605D01*
X01771252Y00866113D01*
X01772071Y00866640D01*
X01772877Y00867187D01*
X01773669Y00867754D01*
X01774447Y00868340D01*
X01775211Y00868945D01*
X01775959Y00869568D01*
X01776693Y00870209D01*
X01777410Y00870868D01*
X01778112Y00871544D01*
X01778796Y00872237D01*
X01779464Y00872946D01*
X01780114Y00873672D01*
X01780746Y00874413D01*
X01781360Y00875169D01*
X01781955Y00875940D01*
X01782532Y00876726D01*
X01783089Y00877525D01*
X01783626Y00878337D01*
X01784144Y00879162D01*
X01784641Y00880000D01*
X01785118Y00880849D01*
X01785574Y00881710D01*
X01786009Y00882582D01*
X01786422Y00883464D01*
X01786814Y00884356D01*
X01787184Y00885257D01*
X01787532Y00886167D01*
X01787858Y00887085D01*
X01788161Y00888010D01*
X01788442Y00888943D01*
X01788699Y00889883D01*
X01788934Y00890828D01*
X01789146Y00891779D01*
X01789335Y00892735D01*
X01789500Y00893695D01*
X01789642Y00894658D01*
X01789760Y00895625D01*
X01789855Y00896595D01*
X01789926Y00897566D01*
X01789973Y00898539D01*
X01789997Y00899513D01*
X01789997Y00900487D01*
X01789973Y00901461D01*
X01789926Y00902434D01*
X01789855Y00903405D01*
X01789760Y00904375D01*
X01789642Y00905342D01*
X01789500Y00906305D01*
X01789335Y00907265D01*
X01789146Y00908221D01*
X01788934Y00909172D01*
X01788699Y00910117D01*
X01788442Y00911057D01*
X01788161Y00911990D01*
X01787858Y00912915D01*
X01787532Y00913833D01*
X01787184Y00914743D01*
X01786814Y00915644D01*
X01786422Y00916536D01*
X01786009Y00917418D01*
X01785574Y00918290D01*
X01785118Y00919151D01*
X01784641Y00920000D01*
X01784144Y00920838D01*
X01783626Y00921663D01*
X01783089Y00922475D01*
X01782532Y00923274D01*
X01781955Y00924060D01*
X01781360Y00924831D01*
X01780746Y00925587D01*
X01780114Y00926328D01*
X01779464Y00927054D01*
X01778796Y00927763D01*
X01778112Y00928456D01*
X01777410Y00929132D01*
X01776693Y00929791D01*
X01775959Y00930432D01*
X01775211Y00931055D01*
X01774447Y00931660D01*
X01773669Y00932246D01*
X01772877Y00932813D01*
X01772071Y00933360D01*
X01771252Y00933887D01*
X01770420Y00934395D01*
X01769577Y00934882D01*
X01768721Y00935348D01*
X01767855Y00935794D01*
X01766978Y00936218D01*
X01766091Y00936621D01*
X01765195Y00937002D01*
X01764289Y00937361D01*
X01763375Y00937698D01*
X01762453Y00938012D01*
X01761524Y00938304D01*
X01760588Y00938573D01*
X01759645Y00938820D01*
X01758697Y00939043D01*
X01757744Y00939243D01*
X01756786Y00939420D01*
X01755824Y00939574D01*
X01754859Y00939704D01*
X01753890Y00939810D01*
X01752920Y00939893D01*
X01751948Y00939953D01*
X01750974Y00939988D01*
X01750000Y00940000D01*
X01750000Y01015000D01*
X02750000Y01015000D01*
X02750000Y00785000D01*
X01750000Y00785000D01*
X01750000Y01285000D02*
X01750000Y01360000D01*
X01750974Y01360012D01*
X01751948Y01360047D01*
X01752920Y01360107D01*
X01753890Y01360190D01*
X01754859Y01360296D01*
X01755824Y01360426D01*
X01756786Y01360580D01*
X01757744Y01360757D01*
X01758697Y01360957D01*
X01759645Y01361180D01*
X01760588Y01361427D01*
X01761524Y01361696D01*
X01762453Y01361988D01*
X01763375Y01362302D01*
X01764289Y01362639D01*
X01765195Y01362998D01*
X01766091Y01363379D01*
X01766978Y01363782D01*
X01767855Y01364206D01*
X01768721Y01364652D01*
X01769577Y01365118D01*
X01770420Y01365605D01*
X01771252Y01366113D01*
X01772071Y01366640D01*
X01772877Y01367187D01*
X01773669Y01367754D01*
X01774447Y01368340D01*
X01775211Y01368945D01*
X01775959Y01369568D01*
X01776693Y01370209D01*
X01777410Y01370868D01*
X01778112Y01371544D01*
X01778796Y01372237D01*
X01779464Y01372946D01*
X01780114Y01373672D01*
X01780746Y01374413D01*
X01781360Y01375169D01*
X01781955Y01375940D01*
X01782532Y01376726D01*
X01783089Y01377525D01*
X01783626Y01378337D01*
X01784144Y01379162D01*
X01784641Y01380000D01*
X01785118Y01380849D01*
X01785574Y01381710D01*
X01786009Y01382582D01*
X01786422Y01383464D01*
X01786814Y01384356D01*
X01787184Y01385257D01*
X01787532Y01386167D01*
X01787858Y01387085D01*
X01788161Y01388010D01*
X01788442Y01388943D01*
X01788699Y01389883D01*
X01788934Y01390828D01*
X01789146Y01391779D01*
X01789335Y01392735D01*
X01789500Y01393695D01*
X01789642Y01394658D01*
X01789760Y01395625D01*
X01789855Y01396595D01*
X01789926Y01397566D01*
X01789973Y01398539D01*
X01789997Y01399513D01*
X01789997Y01400487D01*
X01789973Y01401461D01*
X01789926Y01402434D01*
X01789855Y01403405D01*
X01789760Y01404375D01*
X01789642Y01405342D01*
X01789500Y01406305D01*
X01789335Y01407265D01*
X01789146Y01408221D01*
X01788934Y01409172D01*
X01788699Y01410117D01*
X01788442Y01411057D01*
X01788161Y01411990D01*
X01787858Y01412915D01*
X01787532Y01413833D01*
X01787184Y01414743D01*
X01786814Y01415644D01*
X01786422Y01416536D01*
X01786009Y01417418D01*
X01785574Y01418290D01*
X01785118Y01419151D01*
X01784641Y01420000D01*
X01784144Y01420838D01*
X01783626Y01421663D01*
X01783089Y01422475D01*
X01782532Y01423274D01*
X01781955Y01424060D01*
X01781360Y01424831D01*
X01780746Y01425587D01*
X01780114Y01426328D01*
X01779464Y01427054D01*
X01778796Y01427763D01*
X01778112Y01428456D01*
X01777410Y01429132D01*
X01776693Y01429791D01*
X01775959Y01430432D01*
X01775211Y01431055D01*
X01774447Y01431660D01*
X01773669Y01432246D01*
X01772877Y01432813D01*
X01772071Y01433360D01*
X01771252Y01433887D01*
X01770420Y01434395D01*
X01769577Y01434882D01*
X01768721Y01435348D01*
X01767855Y01435794D01*
X01766978Y01436218D01*
X01766091Y01436621D01*
X01765195Y01437002D01*
X01764289Y01437361D01*
X01763375Y01437698D01*
X01762453Y01438012D01*
X01761524Y01438304D01*
X01760588Y01438573D01*
X01759645Y01438820D01*
X01758697Y01439043D01*
X01757744Y01439243D01*
X01756786Y01439420D01*
X01755824Y01439574D01*
X01754859Y01439704D01*
X01753890Y01439810D01*
X01752920Y01439893D01*
X01751948Y01439953D01*
X01750974Y01439988D01*
X01750000Y01440000D01*
X01750000Y01515000D01*
X02750000Y01515000D01*
X02750000Y01285000D01*
X01750000Y01285000D01*
X01750000Y01935000D02*
X01750000Y02010000D01*
X01750974Y02010012D01*
X01751948Y02010047D01*
X01752920Y02010107D01*
X01753890Y02010190D01*
X01754859Y02010296D01*
X01755824Y02010426D01*
X01756786Y02010580D01*
X01757744Y02010757D01*
X01758697Y02010957D01*
X01759645Y02011180D01*
X01760588Y02011427D01*
X01761524Y02011696D01*
X01762453Y02011988D01*
X01763375Y02012302D01*
X01764289Y02012639D01*
X01765195Y02012998D01*
X01766091Y02013379D01*
X01766978Y02013782D01*
X01767855Y02014206D01*
X01768721Y02014652D01*
X01769577Y02015118D01*
X01770420Y02015605D01*
X01771252Y02016113D01*
X01772071Y02016640D01*
X01772877Y02017187D01*
X01773669Y02017754D01*
X01774447Y02018340D01*
X01775211Y02018945D01*
X01775959Y02019568D01*
X01776693Y02020209D01*
X01777410Y02020868D01*
X01778112Y02021544D01*
X01778796Y02022237D01*
X01779464Y02022946D01*
X01780114Y02023672D01*
X01780746Y02024413D01*
X01781360Y02025169D01*
X01781955Y02025940D01*
X01782532Y02026726D01*
X01783089Y02027525D01*
X01783626Y02028337D01*
X01784144Y02029162D01*
X01784641Y02030000D01*
X01785118Y02030849D01*
X01785574Y02031710D01*
X01786009Y02032582D01*
X01786422Y02033464D01*
X01786814Y02034356D01*
X01787184Y02035257D01*
X01787532Y02036167D01*
X01787858Y02037085D01*
X01788161Y02038010D01*
X01788442Y02038943D01*
X01788699Y02039883D01*
X01788934Y02040828D01*
X01789146Y02041779D01*
X01789335Y02042735D01*
X01789500Y02043695D01*
X01789642Y02044658D01*
X01789760Y02045625D01*
X01789855Y02046595D01*
X01789926Y02047566D01*
X01789973Y02048539D01*
X01789997Y02049513D01*
X01789997Y02050487D01*
X01789973Y02051461D01*
X01789926Y02052434D01*
X01789855Y02053405D01*
X01789760Y02054375D01*
X01789642Y02055342D01*
X01789500Y02056305D01*
X01789335Y02057265D01*
X01789146Y02058221D01*
X01788934Y02059172D01*
X01788699Y02060117D01*
X01788442Y02061057D01*
X01788161Y02061990D01*
X01787858Y02062915D01*
X01787532Y02063833D01*
X01787184Y02064743D01*
X01786814Y02065644D01*
X01786422Y02066536D01*
X01786009Y02067418D01*
X01785574Y02068290D01*
X01785118Y02069151D01*
X01784641Y02070000D01*
X01784144Y02070838D01*
X01783626Y02071663D01*
X01783089Y02072475D01*
X01782532Y02073274D01*
X01781955Y02074060D01*
X01781360Y02074831D01*
X01780746Y02075587D01*
X01780114Y02076328D01*
X01779464Y02077054D01*
X01778796Y02077763D01*
X01778112Y02078456D01*
X01777410Y02079132D01*
X01776693Y02079791D01*
X01775959Y02080432D01*
X01775211Y02081055D01*
X01774447Y02081660D01*
X01773669Y02082246D01*
X01772877Y02082813D01*
X01772071Y02083360D01*
X01771252Y02083887D01*
X01770420Y02084395D01*
X01769577Y02084882D01*
X01768721Y02085348D01*
X01767855Y02085794D01*
X01766978Y02086218D01*
X01766091Y02086621D01*
X01765195Y02087002D01*
X01764289Y02087361D01*
X01763375Y02087698D01*
X01762453Y02088012D01*
X01761524Y02088304D01*
X01760588Y02088573D01*
X01759645Y02088820D01*
X01758697Y02089043D01*
X01757744Y02089243D01*
X01756786Y02089420D01*
X01755824Y02089574D01*
X01754859Y02089704D01*
X01753890Y02089810D01*
X01752920Y02089893D01*
X01751948Y02089953D01*
X01750974Y02089988D01*
X01750000Y02090000D01*
X01750000Y02165000D01*
X02750000Y02165000D01*
X02750000Y01935000D01*
X01750000Y01935000D01*
X01600000Y02485000D02*
X01600000Y02560000D01*
X01600974Y02560012D01*
X01601948Y02560047D01*
X01602920Y02560107D01*
X01603890Y02560190D01*
X01604859Y02560296D01*
X01605824Y02560426D01*
X01606786Y02560580D01*
X01607744Y02560757D01*
X01608697Y02560957D01*
X01609645Y02561180D01*
X01610588Y02561427D01*
X01611524Y02561696D01*
X01612453Y02561988D01*
X01613375Y02562302D01*
X01614289Y02562639D01*
X01615195Y02562998D01*
X01616091Y02563379D01*
X01616978Y02563782D01*
X01617855Y02564206D01*
X01618721Y02564652D01*
X01619577Y02565118D01*
X01620420Y02565605D01*
X01621252Y02566113D01*
X01622071Y02566640D01*
X01622877Y02567187D01*
X01623669Y02567754D01*
X01624447Y02568340D01*
X01625211Y02568945D01*
X01625959Y02569568D01*
X01626693Y02570209D01*
X01627410Y02570868D01*
X01628112Y02571544D01*
X01628796Y02572237D01*
X01629464Y02572946D01*
X01630114Y02573672D01*
X01630746Y02574413D01*
X01631360Y02575169D01*
X01631955Y02575940D01*
X01632532Y02576726D01*
X01633089Y02577525D01*
X01633626Y02578337D01*
X01634144Y02579162D01*
X01634641Y02580000D01*
X01635118Y02580849D01*
X01635574Y02581710D01*
X01636009Y02582582D01*
X01636422Y02583464D01*
X01636814Y02584356D01*
X01637184Y02585257D01*
X01637532Y02586167D01*
X01637858Y02587085D01*
X01638161Y02588010D01*
X01638442Y02588943D01*
X01638699Y02589883D01*
X01638934Y02590828D01*
X01639146Y02591779D01*
X01639335Y02592735D01*
X01639500Y02593695D01*
X01639642Y02594658D01*
X01639760Y02595625D01*
X01639855Y02596595D01*
X01639926Y02597566D01*
X01639973Y02598539D01*
X01639997Y02599513D01*
X01639997Y02600487D01*
X01639973Y02601461D01*
X01639926Y02602434D01*
X01639855Y02603405D01*
X01639760Y02604375D01*
X01639642Y02605342D01*
X01639500Y02606305D01*
X01639335Y02607265D01*
X01639146Y02608221D01*
X01638934Y02609172D01*
X01638699Y02610117D01*
X01638442Y02611057D01*
X01638161Y02611990D01*
X01637858Y02612915D01*
X01637532Y02613833D01*
X01637184Y02614743D01*
X01636814Y02615644D01*
X01636422Y02616536D01*
X01636009Y02617418D01*
X01635574Y02618290D01*
X01635118Y02619151D01*
X01634641Y02620000D01*
X01634144Y02620838D01*
X01633626Y02621663D01*
X01633089Y02622475D01*
X01632532Y02623274D01*
X01631955Y02624060D01*
X01631360Y02624831D01*
X01630746Y02625587D01*
X01630114Y02626328D01*
X01629464Y02627054D01*
X01628796Y02627763D01*
X01628112Y02628456D01*
X01627410Y02629132D01*
X01626693Y02629791D01*
X01625959Y02630432D01*
X01625211Y02631055D01*
X01624447Y02631660D01*
X01623669Y02632246D01*
X01622877Y02632813D01*
X01622071Y02633360D01*
X01621252Y02633887D01*
X01620420Y02634395D01*
X01619577Y02634882D01*
X01618721Y02635348D01*
X01617855Y02635794D01*
X01616978Y02636218D01*
X01616091Y02636621D01*
X01615195Y02637002D01*
X01614289Y02637361D01*
X01613375Y02637698D01*
X01612453Y02638012D01*
X01611524Y02638304D01*
X01610588Y02638573D01*
X01609645Y02638820D01*
X01608697Y02639043D01*
X01607744Y02639243D01*
X01606786Y02639420D01*
X01605824Y02639574D01*
X01604859Y02639704D01*
X01603890Y02639810D01*
X01602920Y02639893D01*
X01601948Y02639953D01*
X01600974Y02639988D01*
X01600000Y02640000D01*
X01600000Y02715000D01*
X02600000Y02715000D01*
X02600000Y02485000D01*
X01600000Y02485000D01*
X01950000Y02985000D02*
X01950000Y03060000D01*
X01950974Y03060012D01*
X01951948Y03060047D01*
X01952920Y03060107D01*
X01953890Y03060190D01*
X01954859Y03060296D01*
X01955824Y03060426D01*
X01956786Y03060580D01*
X01957744Y03060757D01*
X01958697Y03060957D01*
X01959645Y03061180D01*
X01960588Y03061427D01*
X01961524Y03061696D01*
X01962453Y03061988D01*
X01963375Y03062302D01*
X01964289Y03062639D01*
X01965195Y03062998D01*
X01966091Y03063379D01*
X01966978Y03063782D01*
X01967855Y03064206D01*
X01968721Y03064652D01*
X01969577Y03065118D01*
X01970420Y03065605D01*
X01971252Y03066113D01*
X01972071Y03066640D01*
X01972877Y03067187D01*
X01973669Y03067754D01*
X01974447Y03068340D01*
X01975211Y03068945D01*
X01975959Y03069568D01*
X01976693Y03070209D01*
X01977410Y03070868D01*
X01978112Y03071544D01*
X01978796Y03072237D01*
X01979464Y03072946D01*
X01980114Y03073672D01*
X01980746Y03074413D01*
X01981360Y03075169D01*
X01981955Y03075940D01*
X01982532Y03076726D01*
X01983089Y03077525D01*
X01983626Y03078337D01*
X01984144Y03079162D01*
X01984641Y03080000D01*
X01985118Y03080849D01*
X01985574Y03081710D01*
X01986009Y03082582D01*
X01986422Y03083464D01*
X01986814Y03084356D01*
X01987184Y03085257D01*
X01987532Y03086167D01*
X01987858Y03087085D01*
X01988161Y03088010D01*
X01988442Y03088943D01*
X01988699Y03089883D01*
X01988934Y03090828D01*
X01989146Y03091779D01*
X01989335Y03092735D01*
X01989500Y03093695D01*
X01989642Y03094658D01*
X01989760Y03095625D01*
X01989855Y03096595D01*
X01989926Y03097566D01*
X01989973Y03098539D01*
X01989997Y03099513D01*
X01989997Y03100487D01*
X01989973Y03101461D01*
X01989926Y03102434D01*
X01989855Y03103405D01*
X01989760Y03104375D01*
X01989642Y03105342D01*
X01989500Y03106305D01*
X01989335Y03107265D01*
X01989146Y03108221D01*
X01988934Y03109172D01*
X01988699Y03110117D01*
X01988442Y03111057D01*
X01988161Y03111990D01*
X01987858Y03112915D01*
X01987532Y03113833D01*
X01987184Y03114743D01*
X01986814Y03115644D01*
X01986422Y03116536D01*
X01986009Y03117418D01*
X01985574Y03118290D01*
X01985118Y03119151D01*
X01984641Y03120000D01*
X01984144Y03120838D01*
X01983626Y03121663D01*
X01983089Y03122475D01*
X01982532Y03123274D01*
X01981955Y03124060D01*
X01981360Y03124831D01*
X01980746Y03125587D01*
X01980114Y03126328D01*
X01979464Y03127054D01*
X01978796Y03127763D01*
X01978112Y03128456D01*
X01977410Y03129132D01*
X01976693Y03129791D01*
X01975959Y03130432D01*
X01975211Y03131055D01*
X01974447Y03131660D01*
X01973669Y03132246D01*
X01972877Y03132813D01*
X01972071Y03133360D01*
X01971252Y03133887D01*
X01970420Y03134395D01*
X01969577Y03134882D01*
X01968721Y03135348D01*
X01967855Y03135794D01*
X01966978Y03136218D01*
X01966091Y03136621D01*
X01965195Y03137002D01*
X01964289Y03137361D01*
X01963375Y03137698D01*
X01962453Y03138012D01*
X01961524Y03138304D01*
X01960588Y03138573D01*
X01959645Y03138820D01*
X01958697Y03139043D01*
X01957744Y03139243D01*
X01956786Y03139420D01*
X01955824Y03139574D01*
X01954859Y03139704D01*
X01953890Y03139810D01*
X01952920Y03139893D01*
X01951948Y03139953D01*
X01950974Y03139988D01*
X01950000Y03140000D01*
X01950000Y03215000D01*
X02750000Y03215000D01*
X02750000Y02985000D01*
X01950000Y02985000D01*
X01650000Y03235000D02*
X01650000Y03465000D01*
X00650000Y03465000D01*
X00650000Y03390000D01*
X00650974Y03389988D01*
X00651948Y03389953D01*
X00652920Y03389893D01*
X00653890Y03389810D01*
X00654859Y03389704D01*
X00655824Y03389574D01*
X00656786Y03389420D01*
X00657744Y03389243D01*
X00658697Y03389043D01*
X00659645Y03388820D01*
X00660588Y03388573D01*
X00661524Y03388304D01*
X00662453Y03388012D01*
X00663375Y03387698D01*
X00664289Y03387361D01*
X00665195Y03387002D01*
X00666091Y03386621D01*
X00666978Y03386218D01*
X00667855Y03385794D01*
X00668721Y03385348D01*
X00669577Y03384882D01*
X00670420Y03384395D01*
X00671252Y03383887D01*
X00672071Y03383360D01*
X00672877Y03382813D01*
X00673669Y03382246D01*
X00674447Y03381660D01*
X00675211Y03381055D01*
X00675959Y03380432D01*
X00676693Y03379791D01*
X00677410Y03379132D01*
X00678112Y03378456D01*
X00678796Y03377763D01*
X00679464Y03377054D01*
X00680114Y03376328D01*
X00680746Y03375587D01*
X00681360Y03374831D01*
X00681955Y03374060D01*
X00682532Y03373274D01*
X00683089Y03372475D01*
X00683626Y03371663D01*
X00684144Y03370838D01*
X00684641Y03370000D01*
X00685118Y03369151D01*
X00685574Y03368290D01*
X00686009Y03367418D01*
X00686422Y03366536D01*
X00686814Y03365644D01*
X00687184Y03364743D01*
X00687532Y03363833D01*
X00687858Y03362915D01*
X00688161Y03361990D01*
X00688442Y03361057D01*
X00688699Y03360117D01*
X00688934Y03359172D01*
X00689146Y03358221D01*
X00689335Y03357265D01*
X00689500Y03356305D01*
X00689642Y03355342D01*
X00689760Y03354375D01*
X00689855Y03353405D01*
X00689926Y03352434D01*
X00689973Y03351461D01*
X00689997Y03350487D01*
X00689997Y03349513D01*
X00689973Y03348539D01*
X00689926Y03347566D01*
X00689855Y03346595D01*
X00689760Y03345625D01*
X00689642Y03344658D01*
X00689500Y03343695D01*
X00689335Y03342735D01*
X00689146Y03341779D01*
X00688934Y03340828D01*
X00688699Y03339883D01*
X00688442Y03338943D01*
X00688161Y03338010D01*
X00687858Y03337085D01*
X00687532Y03336167D01*
X00687184Y03335257D01*
X00686814Y03334356D01*
X00686422Y03333464D01*
X00686009Y03332582D01*
X00685574Y03331710D01*
X00685118Y03330849D01*
X00684641Y03330000D01*
X00684144Y03329162D01*
X00683626Y03328337D01*
X00683089Y03327525D01*
X00682532Y03326726D01*
X00681955Y03325940D01*
X00681360Y03325169D01*
X00680746Y03324413D01*
X00680114Y03323672D01*
X00679464Y03322946D01*
X00678796Y03322237D01*
X00678112Y03321544D01*
X00677410Y03320868D01*
X00676693Y03320209D01*
X00675959Y03319568D01*
X00675211Y03318945D01*
X00674447Y03318340D01*
X00673669Y03317754D01*
X00672877Y03317187D01*
X00672071Y03316640D01*
X00671252Y03316113D01*
X00670420Y03315605D01*
X00669577Y03315118D01*
X00668721Y03314652D01*
X00667855Y03314206D01*
X00666978Y03313782D01*
X00666091Y03313379D01*
X00665195Y03312998D01*
X00664289Y03312639D01*
X00663375Y03312302D01*
X00662453Y03311988D01*
X00661524Y03311696D01*
X00660588Y03311427D01*
X00659645Y03311180D01*
X00658697Y03310957D01*
X00657744Y03310757D01*
X00656786Y03310580D01*
X00655824Y03310426D01*
X00654859Y03310296D01*
X00653890Y03310190D01*
X00652920Y03310107D01*
X00651948Y03310047D01*
X00650974Y03310012D01*
X00650000Y03310000D01*
X00650000Y03235000D01*
X01650000Y03235000D01*
X02100000Y03485000D02*
X02100000Y03560000D01*
X02100974Y03560012D01*
X02101948Y03560047D01*
X02102920Y03560107D01*
X02103890Y03560190D01*
X02104859Y03560296D01*
X02105824Y03560426D01*
X02106786Y03560580D01*
X02107744Y03560757D01*
X02108697Y03560957D01*
X02109645Y03561180D01*
X02110588Y03561427D01*
X02111524Y03561696D01*
X02112453Y03561988D01*
X02113375Y03562302D01*
X02114289Y03562639D01*
X02115195Y03562998D01*
X02116091Y03563379D01*
X02116978Y03563782D01*
X02117855Y03564206D01*
X02118721Y03564652D01*
X02119577Y03565118D01*
X02120420Y03565605D01*
X02121252Y03566113D01*
X02122071Y03566640D01*
X02122877Y03567187D01*
X02123669Y03567754D01*
X02124447Y03568340D01*
X02125211Y03568945D01*
X02125959Y03569568D01*
X02126693Y03570209D01*
X02127410Y03570868D01*
X02128112Y03571544D01*
X02128796Y03572237D01*
X02129464Y03572946D01*
X02130114Y03573672D01*
X02130746Y03574413D01*
X02131360Y03575169D01*
X02131955Y03575940D01*
X02132532Y03576726D01*
X02133089Y03577525D01*
X02133626Y03578337D01*
X02134144Y03579162D01*
X02134641Y03580000D01*
X02135118Y03580849D01*
X02135574Y03581710D01*
X02136009Y03582582D01*
X02136422Y03583464D01*
X02136814Y03584356D01*
X02137184Y03585257D01*
X02137532Y03586167D01*
X02137858Y03587085D01*
X02138161Y03588010D01*
X02138442Y03588943D01*
X02138699Y03589883D01*
X02138934Y03590828D01*
X02139146Y03591779D01*
X02139335Y03592735D01*
X02139500Y03593695D01*
X02139642Y03594658D01*
X02139760Y03595625D01*
X02139855Y03596595D01*
X02139926Y03597566D01*
X02139973Y03598539D01*
X02139997Y03599513D01*
X02139997Y03600487D01*
X02139973Y03601461D01*
X02139926Y03602434D01*
X02139855Y03603405D01*
X02139760Y03604375D01*
X02139642Y03605342D01*
X02139500Y03606305D01*
X02139335Y03607265D01*
X02139146Y03608221D01*
X02138934Y03609172D01*
X02138699Y03610117D01*
X02138442Y03611057D01*
X02138161Y03611990D01*
X02137858Y03612915D01*
X02137532Y03613833D01*
X02137184Y03614743D01*
X02136814Y03615644D01*
X02136422Y03616536D01*
X02136009Y03617418D01*
X02135574Y03618290D01*
X02135118Y03619151D01*
X02134641Y03620000D01*
X02134144Y03620838D01*
X02133626Y03621663D01*
X02133089Y03622475D01*
X02132532Y03623274D01*
X02131955Y03624060D01*
X02131360Y03624831D01*
X02130746Y03625587D01*
X02130114Y03626328D01*
X02129464Y03627054D01*
X02128796Y03627763D01*
X02128112Y03628456D01*
X02127410Y03629132D01*
X02126693Y03629791D01*
X02125959Y03630432D01*
X02125211Y03631055D01*
X02124447Y03631660D01*
X02123669Y03632246D01*
X02122877Y03632813D01*
X02122071Y03633360D01*
X02121252Y03633887D01*
X02120420Y03634395D01*
X02119577Y03634882D01*
X02118721Y03635348D01*
X02117855Y03635794D01*
X02116978Y03636218D01*
X02116091Y03636621D01*
X02115195Y03637002D01*
X02114289Y03637361D01*
X02113375Y03637698D01*
X02112453Y03638012D01*
X02111524Y03638304D01*
X02110588Y03638573D01*
X02109645Y03638820D01*
X02108697Y03639043D01*
X02107744Y03639243D01*
X02106786Y03639420D01*
X02105824Y03639574D01*
X02104859Y03639704D01*
X02103890Y03639810D01*
X02102920Y03639893D01*
X02101948Y03639953D01*
X02100974Y03639988D01*
X02100000Y03640000D01*
X02100000Y03715000D01*
X02900000Y03715000D01*
X02900000Y03485000D01*
X02100000Y03485000D01*
X01650000Y03650000D02*
X01650000Y03750000D01*
X00850000Y03750000D01*
X00750000Y03750000D01*
X00775000Y03725000D01*
X00750000Y03750000D02*
X00750000Y03650000D01*
X00850000Y03650000D01*
X01650000Y03650000D01*
X01650000Y03935000D02*
X01650000Y04165000D01*
X00650000Y04165000D01*
X00650000Y04090000D01*
X00650974Y04089988D01*
X00651948Y04089953D01*
X00652920Y04089893D01*
X00653890Y04089810D01*
X00654859Y04089704D01*
X00655824Y04089574D01*
X00656786Y04089420D01*
X00657744Y04089243D01*
X00658697Y04089043D01*
X00659645Y04088820D01*
X00660588Y04088573D01*
X00661524Y04088304D01*
X00662453Y04088012D01*
X00663375Y04087698D01*
X00664289Y04087361D01*
X00665195Y04087002D01*
X00666091Y04086621D01*
X00666978Y04086218D01*
X00667855Y04085794D01*
X00668721Y04085348D01*
X00669577Y04084882D01*
X00670420Y04084395D01*
X00671252Y04083887D01*
X00672071Y04083360D01*
X00672877Y04082813D01*
X00673669Y04082246D01*
X00674447Y04081660D01*
X00675211Y04081055D01*
X00675959Y04080432D01*
X00676693Y04079791D01*
X00677410Y04079132D01*
X00678112Y04078456D01*
X00678796Y04077763D01*
X00679464Y04077054D01*
X00680114Y04076328D01*
X00680746Y04075587D01*
X00681360Y04074831D01*
X00681955Y04074060D01*
X00682532Y04073274D01*
X00683089Y04072475D01*
X00683626Y04071663D01*
X00684144Y04070838D01*
X00684641Y04070000D01*
X00685118Y04069151D01*
X00685574Y04068290D01*
X00686009Y04067418D01*
X00686422Y04066536D01*
X00686814Y04065644D01*
X00687184Y04064743D01*
X00687532Y04063833D01*
X00687858Y04062915D01*
X00688161Y04061990D01*
X00688442Y04061057D01*
X00688699Y04060117D01*
X00688934Y04059172D01*
X00689146Y04058221D01*
X00689335Y04057265D01*
X00689500Y04056305D01*
X00689642Y04055342D01*
X00689760Y04054375D01*
X00689855Y04053405D01*
X00689926Y04052434D01*
X00689973Y04051461D01*
X00689997Y04050487D01*
X00689997Y04049513D01*
X00689973Y04048539D01*
X00689926Y04047566D01*
X00689855Y04046595D01*
X00689760Y04045625D01*
X00689642Y04044658D01*
X00689500Y04043695D01*
X00689335Y04042735D01*
X00689146Y04041779D01*
X00688934Y04040828D01*
X00688699Y04039883D01*
X00688442Y04038943D01*
X00688161Y04038010D01*
X00687858Y04037085D01*
X00687532Y04036167D01*
X00687184Y04035257D01*
X00686814Y04034356D01*
X00686422Y04033464D01*
X00686009Y04032582D01*
X00685574Y04031710D01*
X00685118Y04030849D01*
X00684641Y04030000D01*
X00684144Y04029162D01*
X00683626Y04028337D01*
X00683089Y04027525D01*
X00682532Y04026726D01*
X00681955Y04025940D01*
X00681360Y04025169D01*
X00680746Y04024413D01*
X00680114Y04023672D01*
X00679464Y04022946D01*
X00678796Y04022237D01*
X00678112Y04021544D01*
X00677410Y04020868D01*
X00676693Y04020209D01*
X00675959Y04019568D01*
X00675211Y04018945D01*
X00674447Y04018340D01*
X00673669Y04017754D01*
X00672877Y04017187D01*
X00672071Y04016640D01*
X00671252Y04016113D01*
X00670420Y04015605D01*
X00669577Y04015118D01*
X00668721Y04014652D01*
X00667855Y04014206D01*
X00666978Y04013782D01*
X00666091Y04013379D01*
X00665195Y04012998D01*
X00664289Y04012639D01*
X00663375Y04012302D01*
X00662453Y04011988D01*
X00661524Y04011696D01*
X00660588Y04011427D01*
X00659645Y04011180D01*
X00658697Y04010957D01*
X00657744Y04010757D01*
X00656786Y04010580D01*
X00655824Y04010426D01*
X00654859Y04010296D01*
X00653890Y04010190D01*
X00652920Y04010107D01*
X00651948Y04010047D01*
X00650974Y04010012D01*
X00650000Y04010000D01*
X00650000Y03935000D01*
X01650000Y03935000D01*
X01850000Y04085000D02*
X01850000Y04160000D01*
X01850974Y04160012D01*
X01851948Y04160047D01*
X01852920Y04160107D01*
X01853890Y04160190D01*
X01854859Y04160296D01*
X01855824Y04160426D01*
X01856786Y04160580D01*
X01857744Y04160757D01*
X01858697Y04160957D01*
X01859645Y04161180D01*
X01860588Y04161427D01*
X01861524Y04161696D01*
X01862453Y04161988D01*
X01863375Y04162302D01*
X01864289Y04162639D01*
X01865195Y04162998D01*
X01866091Y04163379D01*
X01866978Y04163782D01*
X01867855Y04164206D01*
X01868721Y04164652D01*
X01869577Y04165118D01*
X01870420Y04165605D01*
X01871252Y04166113D01*
X01872071Y04166640D01*
X01872877Y04167187D01*
X01873669Y04167754D01*
X01874447Y04168340D01*
X01875211Y04168945D01*
X01875959Y04169568D01*
X01876693Y04170209D01*
X01877410Y04170868D01*
X01878112Y04171544D01*
X01878796Y04172237D01*
X01879464Y04172946D01*
X01880114Y04173672D01*
X01880746Y04174413D01*
X01881360Y04175169D01*
X01881955Y04175940D01*
X01882532Y04176726D01*
X01883089Y04177525D01*
X01883626Y04178337D01*
X01884144Y04179162D01*
X01884641Y04180000D01*
X01885118Y04180849D01*
X01885574Y04181710D01*
X01886009Y04182582D01*
X01886422Y04183464D01*
X01886814Y04184356D01*
X01887184Y04185257D01*
X01887532Y04186167D01*
X01887858Y04187085D01*
X01888161Y04188010D01*
X01888442Y04188943D01*
X01888699Y04189883D01*
X01888934Y04190828D01*
X01889146Y04191779D01*
X01889335Y04192735D01*
X01889500Y04193695D01*
X01889642Y04194658D01*
X01889760Y04195625D01*
X01889855Y04196595D01*
X01889926Y04197566D01*
X01889973Y04198539D01*
X01889997Y04199513D01*
X01889997Y04200487D01*
X01889973Y04201461D01*
X01889926Y04202434D01*
X01889855Y04203405D01*
X01889760Y04204375D01*
X01889642Y04205342D01*
X01889500Y04206305D01*
X01889335Y04207265D01*
X01889146Y04208221D01*
X01888934Y04209172D01*
X01888699Y04210117D01*
X01888442Y04211057D01*
X01888161Y04211990D01*
X01887858Y04212915D01*
X01887532Y04213833D01*
X01887184Y04214743D01*
X01886814Y04215644D01*
X01886422Y04216536D01*
X01886009Y04217418D01*
X01885574Y04218290D01*
X01885118Y04219151D01*
X01884641Y04220000D01*
X01884144Y04220838D01*
X01883626Y04221663D01*
X01883089Y04222475D01*
X01882532Y04223274D01*
X01881955Y04224060D01*
X01881360Y04224831D01*
X01880746Y04225587D01*
X01880114Y04226328D01*
X01879464Y04227054D01*
X01878796Y04227763D01*
X01878112Y04228456D01*
X01877410Y04229132D01*
X01876693Y04229791D01*
X01875959Y04230432D01*
X01875211Y04231055D01*
X01874447Y04231660D01*
X01873669Y04232246D01*
X01872877Y04232813D01*
X01872071Y04233360D01*
X01871252Y04233887D01*
X01870420Y04234395D01*
X01869577Y04234882D01*
X01868721Y04235348D01*
X01867855Y04235794D01*
X01866978Y04236218D01*
X01866091Y04236621D01*
X01865195Y04237002D01*
X01864289Y04237361D01*
X01863375Y04237698D01*
X01862453Y04238012D01*
X01861524Y04238304D01*
X01860588Y04238573D01*
X01859645Y04238820D01*
X01858697Y04239043D01*
X01857744Y04239243D01*
X01856786Y04239420D01*
X01855824Y04239574D01*
X01854859Y04239704D01*
X01853890Y04239810D01*
X01852920Y04239893D01*
X01851948Y04239953D01*
X01850974Y04239988D01*
X01850000Y04240000D01*
X01850000Y04315000D01*
X02550000Y04315000D01*
X02550000Y04085000D01*
X01850000Y04085000D01*
X01650000Y04350000D02*
X00850000Y04350000D01*
X00850000Y04450000D01*
X00750000Y04450000D01*
X00775000Y04425000D01*
X00750000Y04450000D02*
X00750000Y04350000D01*
X00850000Y04350000D01*
X00825000Y04375000D01*
X00775000Y04375000D02*
X00750000Y04350000D01*
X00825000Y04425000D02*
X00850000Y04450000D01*
X01650000Y04450000D01*
X01650000Y04350000D01*
X00850000Y03750000D02*
X00850000Y03650000D01*
X00825000Y03675000D01*
X00825000Y03725000D02*
X00850000Y03750000D01*
X00775000Y03675000D02*
X00750000Y03650000D01*
X02650000Y04085000D02*
X02650000Y04160000D01*
X02650974Y04160012D01*
X02651948Y04160047D01*
X02652920Y04160107D01*
X02653890Y04160190D01*
X02654859Y04160296D01*
X02655824Y04160426D01*
X02656786Y04160580D01*
X02657744Y04160757D01*
X02658697Y04160957D01*
X02659645Y04161180D01*
X02660588Y04161427D01*
X02661524Y04161696D01*
X02662453Y04161988D01*
X02663375Y04162302D01*
X02664289Y04162639D01*
X02665195Y04162998D01*
X02666091Y04163379D01*
X02666978Y04163782D01*
X02667855Y04164206D01*
X02668721Y04164652D01*
X02669577Y04165118D01*
X02670420Y04165605D01*
X02671252Y04166113D01*
X02672071Y04166640D01*
X02672877Y04167187D01*
X02673669Y04167754D01*
X02674447Y04168340D01*
X02675211Y04168945D01*
X02675959Y04169568D01*
X02676693Y04170209D01*
X02677410Y04170868D01*
X02678112Y04171544D01*
X02678796Y04172237D01*
X02679464Y04172946D01*
X02680114Y04173672D01*
X02680746Y04174413D01*
X02681360Y04175169D01*
X02681955Y04175940D01*
X02682532Y04176726D01*
X02683089Y04177525D01*
X02683626Y04178337D01*
X02684144Y04179162D01*
X02684641Y04180000D01*
X02685118Y04180849D01*
X02685574Y04181710D01*
X02686009Y04182582D01*
X02686422Y04183464D01*
X02686814Y04184356D01*
X02687184Y04185257D01*
X02687532Y04186167D01*
X02687858Y04187085D01*
X02688161Y04188010D01*
X02688442Y04188943D01*
X02688699Y04189883D01*
X02688934Y04190828D01*
X02689146Y04191779D01*
X02689335Y04192735D01*
X02689500Y04193695D01*
X02689642Y04194658D01*
X02689760Y04195625D01*
X02689855Y04196595D01*
X02689926Y04197566D01*
X02689973Y04198539D01*
X02689997Y04199513D01*
X02689997Y04200487D01*
X02689973Y04201461D01*
X02689926Y04202434D01*
X02689855Y04203405D01*
X02689760Y04204375D01*
X02689642Y04205342D01*
X02689500Y04206305D01*
X02689335Y04207265D01*
X02689146Y04208221D01*
X02688934Y04209172D01*
X02688699Y04210117D01*
X02688442Y04211057D01*
X02688161Y04211990D01*
X02687858Y04212915D01*
X02687532Y04213833D01*
X02687184Y04214743D01*
X02686814Y04215644D01*
X02686422Y04216536D01*
X02686009Y04217418D01*
X02685574Y04218290D01*
X02685118Y04219151D01*
X02684641Y04220000D01*
X02684144Y04220838D01*
X02683626Y04221663D01*
X02683089Y04222475D01*
X02682532Y04223274D01*
X02681955Y04224060D01*
X02681360Y04224831D01*
X02680746Y04225587D01*
X02680114Y04226328D01*
X02679464Y04227054D01*
X02678796Y04227763D01*
X02678112Y04228456D01*
X02677410Y04229132D01*
X02676693Y04229791D01*
X02675959Y04230432D01*
X02675211Y04231055D01*
X02674447Y04231660D01*
X02673669Y04232246D01*
X02672877Y04232813D01*
X02672071Y04233360D01*
X02671252Y04233887D01*
X02670420Y04234395D01*
X02669577Y04234882D01*
X02668721Y04235348D01*
X02667855Y04235794D01*
X02666978Y04236218D01*
X02666091Y04236621D01*
X02665195Y04237002D01*
X02664289Y04237361D01*
X02663375Y04237698D01*
X02662453Y04238012D01*
X02661524Y04238304D01*
X02660588Y04238573D01*
X02659645Y04238820D01*
X02658697Y04239043D01*
X02657744Y04239243D01*
X02656786Y04239420D01*
X02655824Y04239574D01*
X02654859Y04239704D01*
X02653890Y04239810D01*
X02652920Y04239893D01*
X02651948Y04239953D01*
X02650974Y04239988D01*
X02650000Y04240000D01*
X02650000Y04315000D01*
X03350000Y04315000D01*
X03350000Y04085000D01*
X02650000Y04085000D01*
X03050000Y03715000D02*
X03050000Y03640000D01*
X03050974Y03639988D01*
X03051948Y03639953D01*
X03052920Y03639893D01*
X03053890Y03639810D01*
X03054859Y03639704D01*
X03055824Y03639574D01*
X03056786Y03639420D01*
X03057744Y03639243D01*
X03058697Y03639043D01*
X03059645Y03638820D01*
X03060588Y03638573D01*
X03061524Y03638304D01*
X03062453Y03638012D01*
X03063375Y03637698D01*
X03064289Y03637361D01*
X03065195Y03637002D01*
X03066091Y03636621D01*
X03066978Y03636218D01*
X03067855Y03635794D01*
X03068721Y03635348D01*
X03069577Y03634882D01*
X03070420Y03634395D01*
X03071252Y03633887D01*
X03072071Y03633360D01*
X03072877Y03632813D01*
X03073669Y03632246D01*
X03074447Y03631660D01*
X03075211Y03631055D01*
X03075959Y03630432D01*
X03076693Y03629791D01*
X03077410Y03629132D01*
X03078112Y03628456D01*
X03078796Y03627763D01*
X03079464Y03627054D01*
X03080114Y03626328D01*
X03080746Y03625587D01*
X03081360Y03624831D01*
X03081955Y03624060D01*
X03082532Y03623274D01*
X03083089Y03622475D01*
X03083626Y03621663D01*
X03084144Y03620838D01*
X03084641Y03620000D01*
X03085118Y03619151D01*
X03085574Y03618290D01*
X03086009Y03617418D01*
X03086422Y03616536D01*
X03086814Y03615644D01*
X03087184Y03614743D01*
X03087532Y03613833D01*
X03087858Y03612915D01*
X03088161Y03611990D01*
X03088442Y03611057D01*
X03088699Y03610117D01*
X03088934Y03609172D01*
X03089146Y03608221D01*
X03089335Y03607265D01*
X03089500Y03606305D01*
X03089642Y03605342D01*
X03089760Y03604375D01*
X03089855Y03603405D01*
X03089926Y03602434D01*
X03089973Y03601461D01*
X03089997Y03600487D01*
X03089997Y03599513D01*
X03089973Y03598539D01*
X03089926Y03597566D01*
X03089855Y03596595D01*
X03089760Y03595625D01*
X03089642Y03594658D01*
X03089500Y03593695D01*
X03089335Y03592735D01*
X03089146Y03591779D01*
X03088934Y03590828D01*
X03088699Y03589883D01*
X03088442Y03588943D01*
X03088161Y03588010D01*
X03087858Y03587085D01*
X03087532Y03586167D01*
X03087184Y03585257D01*
X03086814Y03584356D01*
X03086422Y03583464D01*
X03086009Y03582582D01*
X03085574Y03581710D01*
X03085118Y03580849D01*
X03084641Y03580000D01*
X03084144Y03579162D01*
X03083626Y03578337D01*
X03083089Y03577525D01*
X03082532Y03576726D01*
X03081955Y03575940D01*
X03081360Y03575169D01*
X03080746Y03574413D01*
X03080114Y03573672D01*
X03079464Y03572946D01*
X03078796Y03572237D01*
X03078112Y03571544D01*
X03077410Y03570868D01*
X03076693Y03570209D01*
X03075959Y03569568D01*
X03075211Y03568945D01*
X03074447Y03568340D01*
X03073669Y03567754D01*
X03072877Y03567187D01*
X03072071Y03566640D01*
X03071252Y03566113D01*
X03070420Y03565605D01*
X03069577Y03565118D01*
X03068721Y03564652D01*
X03067855Y03564206D01*
X03066978Y03563782D01*
X03066091Y03563379D01*
X03065195Y03562998D01*
X03064289Y03562639D01*
X03063375Y03562302D01*
X03062453Y03561988D01*
X03061524Y03561696D01*
X03060588Y03561427D01*
X03059645Y03561180D01*
X03058697Y03560957D01*
X03057744Y03560757D01*
X03056786Y03560580D01*
X03055824Y03560426D01*
X03054859Y03560296D01*
X03053890Y03560190D01*
X03052920Y03560107D01*
X03051948Y03560047D01*
X03050974Y03560012D01*
X03050000Y03560000D01*
X03050000Y03485000D01*
X03750000Y03485000D01*
X03750000Y03715000D01*
X03050000Y03715000D01*
X03450000Y04085000D02*
X03450000Y04160000D01*
X03450974Y04160012D01*
X03451948Y04160047D01*
X03452920Y04160107D01*
X03453890Y04160190D01*
X03454859Y04160296D01*
X03455824Y04160426D01*
X03456786Y04160580D01*
X03457744Y04160757D01*
X03458697Y04160957D01*
X03459645Y04161180D01*
X03460588Y04161427D01*
X03461524Y04161696D01*
X03462453Y04161988D01*
X03463375Y04162302D01*
X03464289Y04162639D01*
X03465195Y04162998D01*
X03466091Y04163379D01*
X03466978Y04163782D01*
X03467855Y04164206D01*
X03468721Y04164652D01*
X03469577Y04165118D01*
X03470420Y04165605D01*
X03471252Y04166113D01*
X03472071Y04166640D01*
X03472877Y04167187D01*
X03473669Y04167754D01*
X03474447Y04168340D01*
X03475211Y04168945D01*
X03475959Y04169568D01*
X03476693Y04170209D01*
X03477410Y04170868D01*
X03478112Y04171544D01*
X03478796Y04172237D01*
X03479464Y04172946D01*
X03480114Y04173672D01*
X03480746Y04174413D01*
X03481360Y04175169D01*
X03481955Y04175940D01*
X03482532Y04176726D01*
X03483089Y04177525D01*
X03483626Y04178337D01*
X03484144Y04179162D01*
X03484641Y04180000D01*
X03485118Y04180849D01*
X03485574Y04181710D01*
X03486009Y04182582D01*
X03486422Y04183464D01*
X03486814Y04184356D01*
X03487184Y04185257D01*
X03487532Y04186167D01*
X03487858Y04187085D01*
X03488161Y04188010D01*
X03488442Y04188943D01*
X03488699Y04189883D01*
X03488934Y04190828D01*
X03489146Y04191779D01*
X03489335Y04192735D01*
X03489500Y04193695D01*
X03489642Y04194658D01*
X03489760Y04195625D01*
X03489855Y04196595D01*
X03489926Y04197566D01*
X03489973Y04198539D01*
X03489997Y04199513D01*
X03489997Y04200487D01*
X03489973Y04201461D01*
X03489926Y04202434D01*
X03489855Y04203405D01*
X03489760Y04204375D01*
X03489642Y04205342D01*
X03489500Y04206305D01*
X03489335Y04207265D01*
X03489146Y04208221D01*
X03488934Y04209172D01*
X03488699Y04210117D01*
X03488442Y04211057D01*
X03488161Y04211990D01*
X03487858Y04212915D01*
X03487532Y04213833D01*
X03487184Y04214743D01*
X03486814Y04215644D01*
X03486422Y04216536D01*
X03486009Y04217418D01*
X03485574Y04218290D01*
X03485118Y04219151D01*
X03484641Y04220000D01*
X03484144Y04220838D01*
X03483626Y04221663D01*
X03483089Y04222475D01*
X03482532Y04223274D01*
X03481955Y04224060D01*
X03481360Y04224831D01*
X03480746Y04225587D01*
X03480114Y04226328D01*
X03479464Y04227054D01*
X03478796Y04227763D01*
X03478112Y04228456D01*
X03477410Y04229132D01*
X03476693Y04229791D01*
X03475959Y04230432D01*
X03475211Y04231055D01*
X03474447Y04231660D01*
X03473669Y04232246D01*
X03472877Y04232813D01*
X03472071Y04233360D01*
X03471252Y04233887D01*
X03470420Y04234395D01*
X03469577Y04234882D01*
X03468721Y04235348D01*
X03467855Y04235794D01*
X03466978Y04236218D01*
X03466091Y04236621D01*
X03465195Y04237002D01*
X03464289Y04237361D01*
X03463375Y04237698D01*
X03462453Y04238012D01*
X03461524Y04238304D01*
X03460588Y04238573D01*
X03459645Y04238820D01*
X03458697Y04239043D01*
X03457744Y04239243D01*
X03456786Y04239420D01*
X03455824Y04239574D01*
X03454859Y04239704D01*
X03453890Y04239810D01*
X03452920Y04239893D01*
X03451948Y04239953D01*
X03450974Y04239988D01*
X03450000Y04240000D01*
X03450000Y04315000D01*
X04150000Y04315000D01*
X04150000Y04085000D01*
X03450000Y04085000D01*
X03850000Y03715000D02*
X03850000Y03640000D01*
X03850974Y03639988D01*
X03851948Y03639953D01*
X03852920Y03639893D01*
X03853890Y03639810D01*
X03854859Y03639704D01*
X03855824Y03639574D01*
X03856786Y03639420D01*
X03857744Y03639243D01*
X03858697Y03639043D01*
X03859645Y03638820D01*
X03860588Y03638573D01*
X03861524Y03638304D01*
X03862453Y03638012D01*
X03863375Y03637698D01*
X03864289Y03637361D01*
X03865195Y03637002D01*
X03866091Y03636621D01*
X03866978Y03636218D01*
X03867855Y03635794D01*
X03868721Y03635348D01*
X03869577Y03634882D01*
X03870420Y03634395D01*
X03871252Y03633887D01*
X03872071Y03633360D01*
X03872877Y03632813D01*
X03873669Y03632246D01*
X03874447Y03631660D01*
X03875211Y03631055D01*
X03875959Y03630432D01*
X03876693Y03629791D01*
X03877410Y03629132D01*
X03878112Y03628456D01*
X03878796Y03627763D01*
X03879464Y03627054D01*
X03880114Y03626328D01*
X03880746Y03625587D01*
X03881360Y03624831D01*
X03881955Y03624060D01*
X03882532Y03623274D01*
X03883089Y03622475D01*
X03883626Y03621663D01*
X03884144Y03620838D01*
X03884641Y03620000D01*
X03885118Y03619151D01*
X03885574Y03618290D01*
X03886009Y03617418D01*
X03886422Y03616536D01*
X03886814Y03615644D01*
X03887184Y03614743D01*
X03887532Y03613833D01*
X03887858Y03612915D01*
X03888161Y03611990D01*
X03888442Y03611057D01*
X03888699Y03610117D01*
X03888934Y03609172D01*
X03889146Y03608221D01*
X03889335Y03607265D01*
X03889500Y03606305D01*
X03889642Y03605342D01*
X03889760Y03604375D01*
X03889855Y03603405D01*
X03889926Y03602434D01*
X03889973Y03601461D01*
X03889997Y03600487D01*
X03889997Y03599513D01*
X03889973Y03598539D01*
X03889926Y03597566D01*
X03889855Y03596595D01*
X03889760Y03595625D01*
X03889642Y03594658D01*
X03889500Y03593695D01*
X03889335Y03592735D01*
X03889146Y03591779D01*
X03888934Y03590828D01*
X03888699Y03589883D01*
X03888442Y03588943D01*
X03888161Y03588010D01*
X03887858Y03587085D01*
X03887532Y03586167D01*
X03887184Y03585257D01*
X03886814Y03584356D01*
X03886422Y03583464D01*
X03886009Y03582582D01*
X03885574Y03581710D01*
X03885118Y03580849D01*
X03884641Y03580000D01*
X03884144Y03579162D01*
X03883626Y03578337D01*
X03883089Y03577525D01*
X03882532Y03576726D01*
X03881955Y03575940D01*
X03881360Y03575169D01*
X03880746Y03574413D01*
X03880114Y03573672D01*
X03879464Y03572946D01*
X03878796Y03572237D01*
X03878112Y03571544D01*
X03877410Y03570868D01*
X03876693Y03570209D01*
X03875959Y03569568D01*
X03875211Y03568945D01*
X03874447Y03568340D01*
X03873669Y03567754D01*
X03872877Y03567187D01*
X03872071Y03566640D01*
X03871252Y03566113D01*
X03870420Y03565605D01*
X03869577Y03565118D01*
X03868721Y03564652D01*
X03867855Y03564206D01*
X03866978Y03563782D01*
X03866091Y03563379D01*
X03865195Y03562998D01*
X03864289Y03562639D01*
X03863375Y03562302D01*
X03862453Y03561988D01*
X03861524Y03561696D01*
X03860588Y03561427D01*
X03859645Y03561180D01*
X03858697Y03560957D01*
X03857744Y03560757D01*
X03856786Y03560580D01*
X03855824Y03560426D01*
X03854859Y03560296D01*
X03853890Y03560190D01*
X03852920Y03560107D01*
X03851948Y03560047D01*
X03850974Y03560012D01*
X03850000Y03560000D01*
X03850000Y03485000D01*
X04550000Y03485000D01*
X04550000Y03715000D01*
X03850000Y03715000D01*
X04200000Y04085000D02*
X04200000Y04160000D01*
X04200974Y04160012D01*
X04201948Y04160047D01*
X04202920Y04160107D01*
X04203890Y04160190D01*
X04204859Y04160296D01*
X04205824Y04160426D01*
X04206786Y04160580D01*
X04207744Y04160757D01*
X04208697Y04160957D01*
X04209645Y04161180D01*
X04210588Y04161427D01*
X04211524Y04161696D01*
X04212453Y04161988D01*
X04213375Y04162302D01*
X04214289Y04162639D01*
X04215195Y04162998D01*
X04216091Y04163379D01*
X04216978Y04163782D01*
X04217855Y04164206D01*
X04218721Y04164652D01*
X04219577Y04165118D01*
X04220420Y04165605D01*
X04221252Y04166113D01*
X04222071Y04166640D01*
X04222877Y04167187D01*
X04223669Y04167754D01*
X04224447Y04168340D01*
X04225211Y04168945D01*
X04225959Y04169568D01*
X04226693Y04170209D01*
X04227410Y04170868D01*
X04228112Y04171544D01*
X04228796Y04172237D01*
X04229464Y04172946D01*
X04230114Y04173672D01*
X04230746Y04174413D01*
X04231360Y04175169D01*
X04231955Y04175940D01*
X04232532Y04176726D01*
X04233089Y04177525D01*
X04233626Y04178337D01*
X04234144Y04179162D01*
X04234641Y04180000D01*
X04235118Y04180849D01*
X04235574Y04181710D01*
X04236009Y04182582D01*
X04236422Y04183464D01*
X04236814Y04184356D01*
X04237184Y04185257D01*
X04237532Y04186167D01*
X04237858Y04187085D01*
X04238161Y04188010D01*
X04238442Y04188943D01*
X04238699Y04189883D01*
X04238934Y04190828D01*
X04239146Y04191779D01*
X04239335Y04192735D01*
X04239500Y04193695D01*
X04239642Y04194658D01*
X04239760Y04195625D01*
X04239855Y04196595D01*
X04239926Y04197566D01*
X04239973Y04198539D01*
X04239997Y04199513D01*
X04239997Y04200487D01*
X04239973Y04201461D01*
X04239926Y04202434D01*
X04239855Y04203405D01*
X04239760Y04204375D01*
X04239642Y04205342D01*
X04239500Y04206305D01*
X04239335Y04207265D01*
X04239146Y04208221D01*
X04238934Y04209172D01*
X04238699Y04210117D01*
X04238442Y04211057D01*
X04238161Y04211990D01*
X04237858Y04212915D01*
X04237532Y04213833D01*
X04237184Y04214743D01*
X04236814Y04215644D01*
X04236422Y04216536D01*
X04236009Y04217418D01*
X04235574Y04218290D01*
X04235118Y04219151D01*
X04234641Y04220000D01*
X04234144Y04220838D01*
X04233626Y04221663D01*
X04233089Y04222475D01*
X04232532Y04223274D01*
X04231955Y04224060D01*
X04231360Y04224831D01*
X04230746Y04225587D01*
X04230114Y04226328D01*
X04229464Y04227054D01*
X04228796Y04227763D01*
X04228112Y04228456D01*
X04227410Y04229132D01*
X04226693Y04229791D01*
X04225959Y04230432D01*
X04225211Y04231055D01*
X04224447Y04231660D01*
X04223669Y04232246D01*
X04222877Y04232813D01*
X04222071Y04233360D01*
X04221252Y04233887D01*
X04220420Y04234395D01*
X04219577Y04234882D01*
X04218721Y04235348D01*
X04217855Y04235794D01*
X04216978Y04236218D01*
X04216091Y04236621D01*
X04215195Y04237002D01*
X04214289Y04237361D01*
X04213375Y04237698D01*
X04212453Y04238012D01*
X04211524Y04238304D01*
X04210588Y04238573D01*
X04209645Y04238820D01*
X04208697Y04239043D01*
X04207744Y04239243D01*
X04206786Y04239420D01*
X04205824Y04239574D01*
X04204859Y04239704D01*
X04203890Y04239810D01*
X04202920Y04239893D01*
X04201948Y04239953D01*
X04200974Y04239988D01*
X04200000Y04240000D01*
X04200000Y04315000D01*
X04900000Y04315000D01*
X04900000Y04085000D01*
X04200000Y04085000D01*
X04950000Y04085000D02*
X04950000Y04160000D01*
X04950974Y04160012D01*
X04951948Y04160047D01*
X04952920Y04160107D01*
X04953890Y04160190D01*
X04954859Y04160296D01*
X04955824Y04160426D01*
X04956786Y04160580D01*
X04957744Y04160757D01*
X04958697Y04160957D01*
X04959645Y04161180D01*
X04960588Y04161427D01*
X04961524Y04161696D01*
X04962453Y04161988D01*
X04963375Y04162302D01*
X04964289Y04162639D01*
X04965195Y04162998D01*
X04966091Y04163379D01*
X04966978Y04163782D01*
X04967855Y04164206D01*
X04968721Y04164652D01*
X04969577Y04165118D01*
X04970420Y04165605D01*
X04971252Y04166113D01*
X04972071Y04166640D01*
X04972877Y04167187D01*
X04973669Y04167754D01*
X04974447Y04168340D01*
X04975211Y04168945D01*
X04975959Y04169568D01*
X04976693Y04170209D01*
X04977410Y04170868D01*
X04978112Y04171544D01*
X04978796Y04172237D01*
X04979464Y04172946D01*
X04980114Y04173672D01*
X04980746Y04174413D01*
X04981360Y04175169D01*
X04981955Y04175940D01*
X04982532Y04176726D01*
X04983089Y04177525D01*
X04983626Y04178337D01*
X04984144Y04179162D01*
X04984641Y04180000D01*
X04985118Y04180849D01*
X04985574Y04181710D01*
X04986009Y04182582D01*
X04986422Y04183464D01*
X04986814Y04184356D01*
X04987184Y04185257D01*
X04987532Y04186167D01*
X04987858Y04187085D01*
X04988161Y04188010D01*
X04988442Y04188943D01*
X04988699Y04189883D01*
X04988934Y04190828D01*
X04989146Y04191779D01*
X04989335Y04192735D01*
X04989500Y04193695D01*
X04989642Y04194658D01*
X04989760Y04195625D01*
X04989855Y04196595D01*
X04989926Y04197566D01*
X04989973Y04198539D01*
X04989997Y04199513D01*
X04989997Y04200487D01*
X04989973Y04201461D01*
X04989926Y04202434D01*
X04989855Y04203405D01*
X04989760Y04204375D01*
X04989642Y04205342D01*
X04989500Y04206305D01*
X04989335Y04207265D01*
X04989146Y04208221D01*
X04988934Y04209172D01*
X04988699Y04210117D01*
X04988442Y04211057D01*
X04988161Y04211990D01*
X04987858Y04212915D01*
X04987532Y04213833D01*
X04987184Y04214743D01*
X04986814Y04215644D01*
X04986422Y04216536D01*
X04986009Y04217418D01*
X04985574Y04218290D01*
X04985118Y04219151D01*
X04984641Y04220000D01*
X04984144Y04220838D01*
X04983626Y04221663D01*
X04983089Y04222475D01*
X04982532Y04223274D01*
X04981955Y04224060D01*
X04981360Y04224831D01*
X04980746Y04225587D01*
X04980114Y04226328D01*
X04979464Y04227054D01*
X04978796Y04227763D01*
X04978112Y04228456D01*
X04977410Y04229132D01*
X04976693Y04229791D01*
X04975959Y04230432D01*
X04975211Y04231055D01*
X04974447Y04231660D01*
X04973669Y04232246D01*
X04972877Y04232813D01*
X04972071Y04233360D01*
X04971252Y04233887D01*
X04970420Y04234395D01*
X04969577Y04234882D01*
X04968721Y04235348D01*
X04967855Y04235794D01*
X04966978Y04236218D01*
X04966091Y04236621D01*
X04965195Y04237002D01*
X04964289Y04237361D01*
X04963375Y04237698D01*
X04962453Y04238012D01*
X04961524Y04238304D01*
X04960588Y04238573D01*
X04959645Y04238820D01*
X04958697Y04239043D01*
X04957744Y04239243D01*
X04956786Y04239420D01*
X04955824Y04239574D01*
X04954859Y04239704D01*
X04953890Y04239810D01*
X04952920Y04239893D01*
X04951948Y04239953D01*
X04950974Y04239988D01*
X04950000Y04240000D01*
X04950000Y04315000D01*
X05650000Y04315000D01*
X05650000Y04085000D01*
X04950000Y04085000D01*
X04950000Y03765000D02*
X04950000Y03690000D01*
X04950974Y03689988D01*
X04951948Y03689953D01*
X04952920Y03689893D01*
X04953890Y03689810D01*
X04954859Y03689704D01*
X04955824Y03689574D01*
X04956786Y03689420D01*
X04957744Y03689243D01*
X04958697Y03689043D01*
X04959645Y03688820D01*
X04960588Y03688573D01*
X04961524Y03688304D01*
X04962453Y03688012D01*
X04963375Y03687698D01*
X04964289Y03687361D01*
X04965195Y03687002D01*
X04966091Y03686621D01*
X04966978Y03686218D01*
X04967855Y03685794D01*
X04968721Y03685348D01*
X04969577Y03684882D01*
X04970420Y03684395D01*
X04971252Y03683887D01*
X04972071Y03683360D01*
X04972877Y03682813D01*
X04973669Y03682246D01*
X04974447Y03681660D01*
X04975211Y03681055D01*
X04975959Y03680432D01*
X04976693Y03679791D01*
X04977410Y03679132D01*
X04978112Y03678456D01*
X04978796Y03677763D01*
X04979464Y03677054D01*
X04980114Y03676328D01*
X04980746Y03675587D01*
X04981360Y03674831D01*
X04981955Y03674060D01*
X04982532Y03673274D01*
X04983089Y03672475D01*
X04983626Y03671663D01*
X04984144Y03670838D01*
X04984641Y03670000D01*
X04985118Y03669151D01*
X04985574Y03668290D01*
X04986009Y03667418D01*
X04986422Y03666536D01*
X04986814Y03665644D01*
X04987184Y03664743D01*
X04987532Y03663833D01*
X04987858Y03662915D01*
X04988161Y03661990D01*
X04988442Y03661057D01*
X04988699Y03660117D01*
X04988934Y03659172D01*
X04989146Y03658221D01*
X04989335Y03657265D01*
X04989500Y03656305D01*
X04989642Y03655342D01*
X04989760Y03654375D01*
X04989855Y03653405D01*
X04989926Y03652434D01*
X04989973Y03651461D01*
X04989997Y03650487D01*
X04989997Y03649513D01*
X04989973Y03648539D01*
X04989926Y03647566D01*
X04989855Y03646595D01*
X04989760Y03645625D01*
X04989642Y03644658D01*
X04989500Y03643695D01*
X04989335Y03642735D01*
X04989146Y03641779D01*
X04988934Y03640828D01*
X04988699Y03639883D01*
X04988442Y03638943D01*
X04988161Y03638010D01*
X04987858Y03637085D01*
X04987532Y03636167D01*
X04987184Y03635257D01*
X04986814Y03634356D01*
X04986422Y03633464D01*
X04986009Y03632582D01*
X04985574Y03631710D01*
X04985118Y03630849D01*
X04984641Y03630000D01*
X04984144Y03629162D01*
X04983626Y03628337D01*
X04983089Y03627525D01*
X04982532Y03626726D01*
X04981955Y03625940D01*
X04981360Y03625169D01*
X04980746Y03624413D01*
X04980114Y03623672D01*
X04979464Y03622946D01*
X04978796Y03622237D01*
X04978112Y03621544D01*
X04977410Y03620868D01*
X04976693Y03620209D01*
X04975959Y03619568D01*
X04975211Y03618945D01*
X04974447Y03618340D01*
X04973669Y03617754D01*
X04972877Y03617187D01*
X04972071Y03616640D01*
X04971252Y03616113D01*
X04970420Y03615605D01*
X04969577Y03615118D01*
X04968721Y03614652D01*
X04967855Y03614206D01*
X04966978Y03613782D01*
X04966091Y03613379D01*
X04965195Y03612998D01*
X04964289Y03612639D01*
X04963375Y03612302D01*
X04962453Y03611988D01*
X04961524Y03611696D01*
X04960588Y03611427D01*
X04959645Y03611180D01*
X04958697Y03610957D01*
X04957744Y03610757D01*
X04956786Y03610580D01*
X04955824Y03610426D01*
X04954859Y03610296D01*
X04953890Y03610190D01*
X04952920Y03610107D01*
X04951948Y03610047D01*
X04950974Y03610012D01*
X04950000Y03610000D01*
X04950000Y03535000D01*
X05650000Y03535000D01*
X05650000Y03765000D01*
X04950000Y03765000D01*
X04850000Y03265000D02*
X04850000Y03190000D01*
X04850974Y03189988D01*
X04851948Y03189953D01*
X04852920Y03189893D01*
X04853890Y03189810D01*
X04854859Y03189704D01*
X04855824Y03189574D01*
X04856786Y03189420D01*
X04857744Y03189243D01*
X04858697Y03189043D01*
X04859645Y03188820D01*
X04860588Y03188573D01*
X04861524Y03188304D01*
X04862453Y03188012D01*
X04863375Y03187698D01*
X04864289Y03187361D01*
X04865195Y03187002D01*
X04866091Y03186621D01*
X04866978Y03186218D01*
X04867855Y03185794D01*
X04868721Y03185348D01*
X04869577Y03184882D01*
X04870420Y03184395D01*
X04871252Y03183887D01*
X04872071Y03183360D01*
X04872877Y03182813D01*
X04873669Y03182246D01*
X04874447Y03181660D01*
X04875211Y03181055D01*
X04875959Y03180432D01*
X04876693Y03179791D01*
X04877410Y03179132D01*
X04878112Y03178456D01*
X04878796Y03177763D01*
X04879464Y03177054D01*
X04880114Y03176328D01*
X04880746Y03175587D01*
X04881360Y03174831D01*
X04881955Y03174060D01*
X04882532Y03173274D01*
X04883089Y03172475D01*
X04883626Y03171663D01*
X04884144Y03170838D01*
X04884641Y03170000D01*
X04885118Y03169151D01*
X04885574Y03168290D01*
X04886009Y03167418D01*
X04886422Y03166536D01*
X04886814Y03165644D01*
X04887184Y03164743D01*
X04887532Y03163833D01*
X04887858Y03162915D01*
X04888161Y03161990D01*
X04888442Y03161057D01*
X04888699Y03160117D01*
X04888934Y03159172D01*
X04889146Y03158221D01*
X04889335Y03157265D01*
X04889500Y03156305D01*
X04889642Y03155342D01*
X04889760Y03154375D01*
X04889855Y03153405D01*
X04889926Y03152434D01*
X04889973Y03151461D01*
X04889997Y03150487D01*
X04889997Y03149513D01*
X04889973Y03148539D01*
X04889926Y03147566D01*
X04889855Y03146595D01*
X04889760Y03145625D01*
X04889642Y03144658D01*
X04889500Y03143695D01*
X04889335Y03142735D01*
X04889146Y03141779D01*
X04888934Y03140828D01*
X04888699Y03139883D01*
X04888442Y03138943D01*
X04888161Y03138010D01*
X04887858Y03137085D01*
X04887532Y03136167D01*
X04887184Y03135257D01*
X04886814Y03134356D01*
X04886422Y03133464D01*
X04886009Y03132582D01*
X04885574Y03131710D01*
X04885118Y03130849D01*
X04884641Y03130000D01*
X04884144Y03129162D01*
X04883626Y03128337D01*
X04883089Y03127525D01*
X04882532Y03126726D01*
X04881955Y03125940D01*
X04881360Y03125169D01*
X04880746Y03124413D01*
X04880114Y03123672D01*
X04879464Y03122946D01*
X04878796Y03122237D01*
X04878112Y03121544D01*
X04877410Y03120868D01*
X04876693Y03120209D01*
X04875959Y03119568D01*
X04875211Y03118945D01*
X04874447Y03118340D01*
X04873669Y03117754D01*
X04872877Y03117187D01*
X04872071Y03116640D01*
X04871252Y03116113D01*
X04870420Y03115605D01*
X04869577Y03115118D01*
X04868721Y03114652D01*
X04867855Y03114206D01*
X04866978Y03113782D01*
X04866091Y03113379D01*
X04865195Y03112998D01*
X04864289Y03112639D01*
X04863375Y03112302D01*
X04862453Y03111988D01*
X04861524Y03111696D01*
X04860588Y03111427D01*
X04859645Y03111180D01*
X04858697Y03110957D01*
X04857744Y03110757D01*
X04856786Y03110580D01*
X04855824Y03110426D01*
X04854859Y03110296D01*
X04853890Y03110190D01*
X04852920Y03110107D01*
X04851948Y03110047D01*
X04850974Y03110012D01*
X04850000Y03110000D01*
X04850000Y03035000D01*
X05650000Y03035000D01*
X05650000Y03265000D01*
X04850000Y03265000D01*
X04550000Y03215000D02*
X04550000Y02985000D01*
X03750000Y02985000D01*
X03750000Y03060000D01*
X03750974Y03060012D01*
X03751948Y03060047D01*
X03752920Y03060107D01*
X03753890Y03060190D01*
X03754859Y03060296D01*
X03755824Y03060426D01*
X03756786Y03060580D01*
X03757744Y03060757D01*
X03758697Y03060957D01*
X03759645Y03061180D01*
X03760588Y03061427D01*
X03761524Y03061696D01*
X03762453Y03061988D01*
X03763375Y03062302D01*
X03764289Y03062639D01*
X03765195Y03062998D01*
X03766091Y03063379D01*
X03766978Y03063782D01*
X03767855Y03064206D01*
X03768721Y03064652D01*
X03769577Y03065118D01*
X03770420Y03065605D01*
X03771252Y03066113D01*
X03772071Y03066640D01*
X03772877Y03067187D01*
X03773669Y03067754D01*
X03774447Y03068340D01*
X03775211Y03068945D01*
X03775959Y03069568D01*
X03776693Y03070209D01*
X03777410Y03070868D01*
X03778112Y03071544D01*
X03778796Y03072237D01*
X03779464Y03072946D01*
X03780114Y03073672D01*
X03780746Y03074413D01*
X03781360Y03075169D01*
X03781955Y03075940D01*
X03782532Y03076726D01*
X03783089Y03077525D01*
X03783626Y03078337D01*
X03784144Y03079162D01*
X03784641Y03080000D01*
X03785118Y03080849D01*
X03785574Y03081710D01*
X03786009Y03082582D01*
X03786422Y03083464D01*
X03786814Y03084356D01*
X03787184Y03085257D01*
X03787532Y03086167D01*
X03787858Y03087085D01*
X03788161Y03088010D01*
X03788442Y03088943D01*
X03788699Y03089883D01*
X03788934Y03090828D01*
X03789146Y03091779D01*
X03789335Y03092735D01*
X03789500Y03093695D01*
X03789642Y03094658D01*
X03789760Y03095625D01*
X03789855Y03096595D01*
X03789926Y03097566D01*
X03789973Y03098539D01*
X03789997Y03099513D01*
X03789997Y03100487D01*
X03789973Y03101461D01*
X03789926Y03102434D01*
X03789855Y03103405D01*
X03789760Y03104375D01*
X03789642Y03105342D01*
X03789500Y03106305D01*
X03789335Y03107265D01*
X03789146Y03108221D01*
X03788934Y03109172D01*
X03788699Y03110117D01*
X03788442Y03111057D01*
X03788161Y03111990D01*
X03787858Y03112915D01*
X03787532Y03113833D01*
X03787184Y03114743D01*
X03786814Y03115644D01*
X03786422Y03116536D01*
X03786009Y03117418D01*
X03785574Y03118290D01*
X03785118Y03119151D01*
X03784641Y03120000D01*
X03784144Y03120838D01*
X03783626Y03121663D01*
X03783089Y03122475D01*
X03782532Y03123274D01*
X03781955Y03124060D01*
X03781360Y03124831D01*
X03780746Y03125587D01*
X03780114Y03126328D01*
X03779464Y03127054D01*
X03778796Y03127763D01*
X03778112Y03128456D01*
X03777410Y03129132D01*
X03776693Y03129791D01*
X03775959Y03130432D01*
X03775211Y03131055D01*
X03774447Y03131660D01*
X03773669Y03132246D01*
X03772877Y03132813D01*
X03772071Y03133360D01*
X03771252Y03133887D01*
X03770420Y03134395D01*
X03769577Y03134882D01*
X03768721Y03135348D01*
X03767855Y03135794D01*
X03766978Y03136218D01*
X03766091Y03136621D01*
X03765195Y03137002D01*
X03764289Y03137361D01*
X03763375Y03137698D01*
X03762453Y03138012D01*
X03761524Y03138304D01*
X03760588Y03138573D01*
X03759645Y03138820D01*
X03758697Y03139043D01*
X03757744Y03139243D01*
X03756786Y03139420D01*
X03755824Y03139574D01*
X03754859Y03139704D01*
X03753890Y03139810D01*
X03752920Y03139893D01*
X03751948Y03139953D01*
X03750974Y03139988D01*
X03750000Y03140000D01*
X03750000Y03215000D01*
X04550000Y03215000D01*
X04550000Y02715000D02*
X04550000Y02485000D01*
X03550000Y02485000D01*
X03550000Y02560000D01*
X03550974Y02560012D01*
X03551948Y02560047D01*
X03552920Y02560107D01*
X03553890Y02560190D01*
X03554859Y02560296D01*
X03555824Y02560426D01*
X03556786Y02560580D01*
X03557744Y02560757D01*
X03558697Y02560957D01*
X03559645Y02561180D01*
X03560588Y02561427D01*
X03561524Y02561696D01*
X03562453Y02561988D01*
X03563375Y02562302D01*
X03564289Y02562639D01*
X03565195Y02562998D01*
X03566091Y02563379D01*
X03566978Y02563782D01*
X03567855Y02564206D01*
X03568721Y02564652D01*
X03569577Y02565118D01*
X03570420Y02565605D01*
X03571252Y02566113D01*
X03572071Y02566640D01*
X03572877Y02567187D01*
X03573669Y02567754D01*
X03574447Y02568340D01*
X03575211Y02568945D01*
X03575959Y02569568D01*
X03576693Y02570209D01*
X03577410Y02570868D01*
X03578112Y02571544D01*
X03578796Y02572237D01*
X03579464Y02572946D01*
X03580114Y02573672D01*
X03580746Y02574413D01*
X03581360Y02575169D01*
X03581955Y02575940D01*
X03582532Y02576726D01*
X03583089Y02577525D01*
X03583626Y02578337D01*
X03584144Y02579162D01*
X03584641Y02580000D01*
X03585118Y02580849D01*
X03585574Y02581710D01*
X03586009Y02582582D01*
X03586422Y02583464D01*
X03586814Y02584356D01*
X03587184Y02585257D01*
X03587532Y02586167D01*
X03587858Y02587085D01*
X03588161Y02588010D01*
X03588442Y02588943D01*
X03588699Y02589883D01*
X03588934Y02590828D01*
X03589146Y02591779D01*
X03589335Y02592735D01*
X03589500Y02593695D01*
X03589642Y02594658D01*
X03589760Y02595625D01*
X03589855Y02596595D01*
X03589926Y02597566D01*
X03589973Y02598539D01*
X03589997Y02599513D01*
X03589997Y02600487D01*
X03589973Y02601461D01*
X03589926Y02602434D01*
X03589855Y02603405D01*
X03589760Y02604375D01*
X03589642Y02605342D01*
X03589500Y02606305D01*
X03589335Y02607265D01*
X03589146Y02608221D01*
X03588934Y02609172D01*
X03588699Y02610117D01*
X03588442Y02611057D01*
X03588161Y02611990D01*
X03587858Y02612915D01*
X03587532Y02613833D01*
X03587184Y02614743D01*
X03586814Y02615644D01*
X03586422Y02616536D01*
X03586009Y02617418D01*
X03585574Y02618290D01*
X03585118Y02619151D01*
X03584641Y02620000D01*
X03584144Y02620838D01*
X03583626Y02621663D01*
X03583089Y02622475D01*
X03582532Y02623274D01*
X03581955Y02624060D01*
X03581360Y02624831D01*
X03580746Y02625587D01*
X03580114Y02626328D01*
X03579464Y02627054D01*
X03578796Y02627763D01*
X03578112Y02628456D01*
X03577410Y02629132D01*
X03576693Y02629791D01*
X03575959Y02630432D01*
X03575211Y02631055D01*
X03574447Y02631660D01*
X03573669Y02632246D01*
X03572877Y02632813D01*
X03572071Y02633360D01*
X03571252Y02633887D01*
X03570420Y02634395D01*
X03569577Y02634882D01*
X03568721Y02635348D01*
X03567855Y02635794D01*
X03566978Y02636218D01*
X03566091Y02636621D01*
X03565195Y02637002D01*
X03564289Y02637361D01*
X03563375Y02637698D01*
X03562453Y02638012D01*
X03561524Y02638304D01*
X03560588Y02638573D01*
X03559645Y02638820D01*
X03558697Y02639043D01*
X03557744Y02639243D01*
X03556786Y02639420D01*
X03555824Y02639574D01*
X03554859Y02639704D01*
X03553890Y02639810D01*
X03552920Y02639893D01*
X03551948Y02639953D01*
X03550974Y02639988D01*
X03550000Y02640000D01*
X03550000Y02715000D01*
X04550000Y02715000D01*
X04850000Y02715000D02*
X04850000Y02640000D01*
X04850974Y02639988D01*
X04851948Y02639953D01*
X04852920Y02639893D01*
X04853890Y02639810D01*
X04854859Y02639704D01*
X04855824Y02639574D01*
X04856786Y02639420D01*
X04857744Y02639243D01*
X04858697Y02639043D01*
X04859645Y02638820D01*
X04860588Y02638573D01*
X04861524Y02638304D01*
X04862453Y02638012D01*
X04863375Y02637698D01*
X04864289Y02637361D01*
X04865195Y02637002D01*
X04866091Y02636621D01*
X04866978Y02636218D01*
X04867855Y02635794D01*
X04868721Y02635348D01*
X04869577Y02634882D01*
X04870420Y02634395D01*
X04871252Y02633887D01*
X04872071Y02633360D01*
X04872877Y02632813D01*
X04873669Y02632246D01*
X04874447Y02631660D01*
X04875211Y02631055D01*
X04875959Y02630432D01*
X04876693Y02629791D01*
X04877410Y02629132D01*
X04878112Y02628456D01*
X04878796Y02627763D01*
X04879464Y02627054D01*
X04880114Y02626328D01*
X04880746Y02625587D01*
X04881360Y02624831D01*
X04881955Y02624060D01*
X04882532Y02623274D01*
X04883089Y02622475D01*
X04883626Y02621663D01*
X04884144Y02620838D01*
X04884641Y02620000D01*
X04885118Y02619151D01*
X04885574Y02618290D01*
X04886009Y02617418D01*
X04886422Y02616536D01*
X04886814Y02615644D01*
X04887184Y02614743D01*
X04887532Y02613833D01*
X04887858Y02612915D01*
X04888161Y02611990D01*
X04888442Y02611057D01*
X04888699Y02610117D01*
X04888934Y02609172D01*
X04889146Y02608221D01*
X04889335Y02607265D01*
X04889500Y02606305D01*
X04889642Y02605342D01*
X04889760Y02604375D01*
X04889855Y02603405D01*
X04889926Y02602434D01*
X04889973Y02601461D01*
X04889997Y02600487D01*
X04889997Y02599513D01*
X04889973Y02598539D01*
X04889926Y02597566D01*
X04889855Y02596595D01*
X04889760Y02595625D01*
X04889642Y02594658D01*
X04889500Y02593695D01*
X04889335Y02592735D01*
X04889146Y02591779D01*
X04888934Y02590828D01*
X04888699Y02589883D01*
X04888442Y02588943D01*
X04888161Y02588010D01*
X04887858Y02587085D01*
X04887532Y02586167D01*
X04887184Y02585257D01*
X04886814Y02584356D01*
X04886422Y02583464D01*
X04886009Y02582582D01*
X04885574Y02581710D01*
X04885118Y02580849D01*
X04884641Y02580000D01*
X04884144Y02579162D01*
X04883626Y02578337D01*
X04883089Y02577525D01*
X04882532Y02576726D01*
X04881955Y02575940D01*
X04881360Y02575169D01*
X04880746Y02574413D01*
X04880114Y02573672D01*
X04879464Y02572946D01*
X04878796Y02572237D01*
X04878112Y02571544D01*
X04877410Y02570868D01*
X04876693Y02570209D01*
X04875959Y02569568D01*
X04875211Y02568945D01*
X04874447Y02568340D01*
X04873669Y02567754D01*
X04872877Y02567187D01*
X04872071Y02566640D01*
X04871252Y02566113D01*
X04870420Y02565605D01*
X04869577Y02565118D01*
X04868721Y02564652D01*
X04867855Y02564206D01*
X04866978Y02563782D01*
X04866091Y02563379D01*
X04865195Y02562998D01*
X04864289Y02562639D01*
X04863375Y02562302D01*
X04862453Y02561988D01*
X04861524Y02561696D01*
X04860588Y02561427D01*
X04859645Y02561180D01*
X04858697Y02560957D01*
X04857744Y02560757D01*
X04856786Y02560580D01*
X04855824Y02560426D01*
X04854859Y02560296D01*
X04853890Y02560190D01*
X04852920Y02560107D01*
X04851948Y02560047D01*
X04850974Y02560012D01*
X04850000Y02560000D01*
X04850000Y02485000D01*
X05650000Y02485000D01*
X05650000Y02715000D01*
X04850000Y02715000D01*
X04650000Y02165000D02*
X04650000Y02090000D01*
X04650974Y02089988D01*
X04651948Y02089953D01*
X04652920Y02089893D01*
X04653890Y02089810D01*
X04654859Y02089704D01*
X04655824Y02089574D01*
X04656786Y02089420D01*
X04657744Y02089243D01*
X04658697Y02089043D01*
X04659645Y02088820D01*
X04660588Y02088573D01*
X04661524Y02088304D01*
X04662453Y02088012D01*
X04663375Y02087698D01*
X04664289Y02087361D01*
X04665195Y02087002D01*
X04666091Y02086621D01*
X04666978Y02086218D01*
X04667855Y02085794D01*
X04668721Y02085348D01*
X04669577Y02084882D01*
X04670420Y02084395D01*
X04671252Y02083887D01*
X04672071Y02083360D01*
X04672877Y02082813D01*
X04673669Y02082246D01*
X04674447Y02081660D01*
X04675211Y02081055D01*
X04675959Y02080432D01*
X04676693Y02079791D01*
X04677410Y02079132D01*
X04678112Y02078456D01*
X04678796Y02077763D01*
X04679464Y02077054D01*
X04680114Y02076328D01*
X04680746Y02075587D01*
X04681360Y02074831D01*
X04681955Y02074060D01*
X04682532Y02073274D01*
X04683089Y02072475D01*
X04683626Y02071663D01*
X04684144Y02070838D01*
X04684641Y02070000D01*
X04685118Y02069151D01*
X04685574Y02068290D01*
X04686009Y02067418D01*
X04686422Y02066536D01*
X04686814Y02065644D01*
X04687184Y02064743D01*
X04687532Y02063833D01*
X04687858Y02062915D01*
X04688161Y02061990D01*
X04688442Y02061057D01*
X04688699Y02060117D01*
X04688934Y02059172D01*
X04689146Y02058221D01*
X04689335Y02057265D01*
X04689500Y02056305D01*
X04689642Y02055342D01*
X04689760Y02054375D01*
X04689855Y02053405D01*
X04689926Y02052434D01*
X04689973Y02051461D01*
X04689997Y02050487D01*
X04689997Y02049513D01*
X04689973Y02048539D01*
X04689926Y02047566D01*
X04689855Y02046595D01*
X04689760Y02045625D01*
X04689642Y02044658D01*
X04689500Y02043695D01*
X04689335Y02042735D01*
X04689146Y02041779D01*
X04688934Y02040828D01*
X04688699Y02039883D01*
X04688442Y02038943D01*
X04688161Y02038010D01*
X04687858Y02037085D01*
X04687532Y02036167D01*
X04687184Y02035257D01*
X04686814Y02034356D01*
X04686422Y02033464D01*
X04686009Y02032582D01*
X04685574Y02031710D01*
X04685118Y02030849D01*
X04684641Y02030000D01*
X04684144Y02029162D01*
X04683626Y02028337D01*
X04683089Y02027525D01*
X04682532Y02026726D01*
X04681955Y02025940D01*
X04681360Y02025169D01*
X04680746Y02024413D01*
X04680114Y02023672D01*
X04679464Y02022946D01*
X04678796Y02022237D01*
X04678112Y02021544D01*
X04677410Y02020868D01*
X04676693Y02020209D01*
X04675959Y02019568D01*
X04675211Y02018945D01*
X04674447Y02018340D01*
X04673669Y02017754D01*
X04672877Y02017187D01*
X04672071Y02016640D01*
X04671252Y02016113D01*
X04670420Y02015605D01*
X04669577Y02015118D01*
X04668721Y02014652D01*
X04667855Y02014206D01*
X04666978Y02013782D01*
X04666091Y02013379D01*
X04665195Y02012998D01*
X04664289Y02012639D01*
X04663375Y02012302D01*
X04662453Y02011988D01*
X04661524Y02011696D01*
X04660588Y02011427D01*
X04659645Y02011180D01*
X04658697Y02010957D01*
X04657744Y02010757D01*
X04656786Y02010580D01*
X04655824Y02010426D01*
X04654859Y02010296D01*
X04653890Y02010190D01*
X04652920Y02010107D01*
X04651948Y02010047D01*
X04650974Y02010012D01*
X04650000Y02010000D01*
X04650000Y01935000D01*
X05650000Y01935000D01*
X05650000Y02165000D01*
X04650000Y02165000D01*
X04550000Y02165000D02*
X04550000Y01935000D01*
X03750000Y01935000D01*
X03750000Y02010000D01*
X03750974Y02010012D01*
X03751948Y02010047D01*
X03752920Y02010107D01*
X03753890Y02010190D01*
X03754859Y02010296D01*
X03755824Y02010426D01*
X03756786Y02010580D01*
X03757744Y02010757D01*
X03758697Y02010957D01*
X03759645Y02011180D01*
X03760588Y02011427D01*
X03761524Y02011696D01*
X03762453Y02011988D01*
X03763375Y02012302D01*
X03764289Y02012639D01*
X03765195Y02012998D01*
X03766091Y02013379D01*
X03766978Y02013782D01*
X03767855Y02014206D01*
X03768721Y02014652D01*
X03769577Y02015118D01*
X03770420Y02015605D01*
X03771252Y02016113D01*
X03772071Y02016640D01*
X03772877Y02017187D01*
X03773669Y02017754D01*
X03774447Y02018340D01*
X03775211Y02018945D01*
X03775959Y02019568D01*
X03776693Y02020209D01*
X03777410Y02020868D01*
X03778112Y02021544D01*
X03778796Y02022237D01*
X03779464Y02022946D01*
X03780114Y02023672D01*
X03780746Y02024413D01*
X03781360Y02025169D01*
X03781955Y02025940D01*
X03782532Y02026726D01*
X03783089Y02027525D01*
X03783626Y02028337D01*
X03784144Y02029162D01*
X03784641Y02030000D01*
X03785118Y02030849D01*
X03785574Y02031710D01*
X03786009Y02032582D01*
X03786422Y02033464D01*
X03786814Y02034356D01*
X03787184Y02035257D01*
X03787532Y02036167D01*
X03787858Y02037085D01*
X03788161Y02038010D01*
X03788442Y02038943D01*
X03788699Y02039883D01*
X03788934Y02040828D01*
X03789146Y02041779D01*
X03789335Y02042735D01*
X03789500Y02043695D01*
X03789642Y02044658D01*
X03789760Y02045625D01*
X03789855Y02046595D01*
X03789926Y02047566D01*
X03789973Y02048539D01*
X03789997Y02049513D01*
X03789997Y02050487D01*
X03789973Y02051461D01*
X03789926Y02052434D01*
X03789855Y02053405D01*
X03789760Y02054375D01*
X03789642Y02055342D01*
X03789500Y02056305D01*
X03789335Y02057265D01*
X03789146Y02058221D01*
X03788934Y02059172D01*
X03788699Y02060117D01*
X03788442Y02061057D01*
X03788161Y02061990D01*
X03787858Y02062915D01*
X03787532Y02063833D01*
X03787184Y02064743D01*
X03786814Y02065644D01*
X03786422Y02066536D01*
X03786009Y02067418D01*
X03785574Y02068290D01*
X03785118Y02069151D01*
X03784641Y02070000D01*
X03784144Y02070838D01*
X03783626Y02071663D01*
X03783089Y02072475D01*
X03782532Y02073274D01*
X03781955Y02074060D01*
X03781360Y02074831D01*
X03780746Y02075587D01*
X03780114Y02076328D01*
X03779464Y02077054D01*
X03778796Y02077763D01*
X03778112Y02078456D01*
X03777410Y02079132D01*
X03776693Y02079791D01*
X03775959Y02080432D01*
X03775211Y02081055D01*
X03774447Y02081660D01*
X03773669Y02082246D01*
X03772877Y02082813D01*
X03772071Y02083360D01*
X03771252Y02083887D01*
X03770420Y02084395D01*
X03769577Y02084882D01*
X03768721Y02085348D01*
X03767855Y02085794D01*
X03766978Y02086218D01*
X03766091Y02086621D01*
X03765195Y02087002D01*
X03764289Y02087361D01*
X03763375Y02087698D01*
X03762453Y02088012D01*
X03761524Y02088304D01*
X03760588Y02088573D01*
X03759645Y02088820D01*
X03758697Y02089043D01*
X03757744Y02089243D01*
X03756786Y02089420D01*
X03755824Y02089574D01*
X03754859Y02089704D01*
X03753890Y02089810D01*
X03752920Y02089893D01*
X03751948Y02089953D01*
X03750974Y02089988D01*
X03750000Y02090000D01*
X03750000Y02165000D01*
X04550000Y02165000D01*
X04550000Y01615000D02*
X03750000Y01615000D01*
X03750000Y01540000D01*
X03750974Y01539988D01*
X03751948Y01539953D01*
X03752920Y01539893D01*
X03753890Y01539810D01*
X03754859Y01539704D01*
X03755824Y01539574D01*
X03756786Y01539420D01*
X03757744Y01539243D01*
X03758697Y01539043D01*
X03759645Y01538820D01*
X03760588Y01538573D01*
X03761524Y01538304D01*
X03762453Y01538012D01*
X03763375Y01537698D01*
X03764289Y01537361D01*
X03765195Y01537002D01*
X03766091Y01536621D01*
X03766978Y01536218D01*
X03767855Y01535794D01*
X03768721Y01535348D01*
X03769577Y01534882D01*
X03770420Y01534395D01*
X03771252Y01533887D01*
X03772071Y01533360D01*
X03772877Y01532813D01*
X03773669Y01532246D01*
X03774447Y01531660D01*
X03775211Y01531055D01*
X03775959Y01530432D01*
X03776693Y01529791D01*
X03777410Y01529132D01*
X03778112Y01528456D01*
X03778796Y01527763D01*
X03779464Y01527054D01*
X03780114Y01526328D01*
X03780746Y01525587D01*
X03781360Y01524831D01*
X03781955Y01524060D01*
X03782532Y01523274D01*
X03783089Y01522475D01*
X03783626Y01521663D01*
X03784144Y01520838D01*
X03784641Y01520000D01*
X03785118Y01519151D01*
X03785574Y01518290D01*
X03786009Y01517418D01*
X03786422Y01516536D01*
X03786814Y01515644D01*
X03787184Y01514743D01*
X03787532Y01513833D01*
X03787858Y01512915D01*
X03788161Y01511990D01*
X03788442Y01511057D01*
X03788699Y01510117D01*
X03788934Y01509172D01*
X03789146Y01508221D01*
X03789335Y01507265D01*
X03789500Y01506305D01*
X03789642Y01505342D01*
X03789760Y01504375D01*
X03789855Y01503405D01*
X03789926Y01502434D01*
X03789973Y01501461D01*
X03789997Y01500487D01*
X03789997Y01499513D01*
X03789973Y01498539D01*
X03789926Y01497566D01*
X03789855Y01496595D01*
X03789760Y01495625D01*
X03789642Y01494658D01*
X03789500Y01493695D01*
X03789335Y01492735D01*
X03789146Y01491779D01*
X03788934Y01490828D01*
X03788699Y01489883D01*
X03788442Y01488943D01*
X03788161Y01488010D01*
X03787858Y01487085D01*
X03787532Y01486167D01*
X03787184Y01485257D01*
X03786814Y01484356D01*
X03786422Y01483464D01*
X03786009Y01482582D01*
X03785574Y01481710D01*
X03785118Y01480849D01*
X03784641Y01480000D01*
X03784144Y01479162D01*
X03783626Y01478337D01*
X03783089Y01477525D01*
X03782532Y01476726D01*
X03781955Y01475940D01*
X03781360Y01475169D01*
X03780746Y01474413D01*
X03780114Y01473672D01*
X03779464Y01472946D01*
X03778796Y01472237D01*
X03778112Y01471544D01*
X03777410Y01470868D01*
X03776693Y01470209D01*
X03775959Y01469568D01*
X03775211Y01468945D01*
X03774447Y01468340D01*
X03773669Y01467754D01*
X03772877Y01467187D01*
X03772071Y01466640D01*
X03771252Y01466113D01*
X03770420Y01465605D01*
X03769577Y01465118D01*
X03768721Y01464652D01*
X03767855Y01464206D01*
X03766978Y01463782D01*
X03766091Y01463379D01*
X03765195Y01462998D01*
X03764289Y01462639D01*
X03763375Y01462302D01*
X03762453Y01461988D01*
X03761524Y01461696D01*
X03760588Y01461427D01*
X03759645Y01461180D01*
X03758697Y01460957D01*
X03757744Y01460757D01*
X03756786Y01460580D01*
X03755824Y01460426D01*
X03754859Y01460296D01*
X03753890Y01460190D01*
X03752920Y01460107D01*
X03751948Y01460047D01*
X03750974Y01460012D01*
X03750000Y01460000D01*
X03750000Y01385000D01*
X04550000Y01385000D01*
X04550000Y01615000D01*
X04650000Y01615000D02*
X04650000Y01540000D01*
X04650974Y01539988D01*
X04651948Y01539953D01*
X04652920Y01539893D01*
X04653890Y01539810D01*
X04654859Y01539704D01*
X04655824Y01539574D01*
X04656786Y01539420D01*
X04657744Y01539243D01*
X04658697Y01539043D01*
X04659645Y01538820D01*
X04660588Y01538573D01*
X04661524Y01538304D01*
X04662453Y01538012D01*
X04663375Y01537698D01*
X04664289Y01537361D01*
X04665195Y01537002D01*
X04666091Y01536621D01*
X04666978Y01536218D01*
X04667855Y01535794D01*
X04668721Y01535348D01*
X04669577Y01534882D01*
X04670420Y01534395D01*
X04671252Y01533887D01*
X04672071Y01533360D01*
X04672877Y01532813D01*
X04673669Y01532246D01*
X04674447Y01531660D01*
X04675211Y01531055D01*
X04675959Y01530432D01*
X04676693Y01529791D01*
X04677410Y01529132D01*
X04678112Y01528456D01*
X04678796Y01527763D01*
X04679464Y01527054D01*
X04680114Y01526328D01*
X04680746Y01525587D01*
X04681360Y01524831D01*
X04681955Y01524060D01*
X04682532Y01523274D01*
X04683089Y01522475D01*
X04683626Y01521663D01*
X04684144Y01520838D01*
X04684641Y01520000D01*
X04685118Y01519151D01*
X04685574Y01518290D01*
X04686009Y01517418D01*
X04686422Y01516536D01*
X04686814Y01515644D01*
X04687184Y01514743D01*
X04687532Y01513833D01*
X04687858Y01512915D01*
X04688161Y01511990D01*
X04688442Y01511057D01*
X04688699Y01510117D01*
X04688934Y01509172D01*
X04689146Y01508221D01*
X04689335Y01507265D01*
X04689500Y01506305D01*
X04689642Y01505342D01*
X04689760Y01504375D01*
X04689855Y01503405D01*
X04689926Y01502434D01*
X04689973Y01501461D01*
X04689997Y01500487D01*
X04689997Y01499513D01*
X04689973Y01498539D01*
X04689926Y01497566D01*
X04689855Y01496595D01*
X04689760Y01495625D01*
X04689642Y01494658D01*
X04689500Y01493695D01*
X04689335Y01492735D01*
X04689146Y01491779D01*
X04688934Y01490828D01*
X04688699Y01489883D01*
X04688442Y01488943D01*
X04688161Y01488010D01*
X04687858Y01487085D01*
X04687532Y01486167D01*
X04687184Y01485257D01*
X04686814Y01484356D01*
X04686422Y01483464D01*
X04686009Y01482582D01*
X04685574Y01481710D01*
X04685118Y01480849D01*
X04684641Y01480000D01*
X04684144Y01479162D01*
X04683626Y01478337D01*
X04683089Y01477525D01*
X04682532Y01476726D01*
X04681955Y01475940D01*
X04681360Y01475169D01*
X04680746Y01474413D01*
X04680114Y01473672D01*
X04679464Y01472946D01*
X04678796Y01472237D01*
X04678112Y01471544D01*
X04677410Y01470868D01*
X04676693Y01470209D01*
X04675959Y01469568D01*
X04675211Y01468945D01*
X04674447Y01468340D01*
X04673669Y01467754D01*
X04672877Y01467187D01*
X04672071Y01466640D01*
X04671252Y01466113D01*
X04670420Y01465605D01*
X04669577Y01465118D01*
X04668721Y01464652D01*
X04667855Y01464206D01*
X04666978Y01463782D01*
X04666091Y01463379D01*
X04665195Y01462998D01*
X04664289Y01462639D01*
X04663375Y01462302D01*
X04662453Y01461988D01*
X04661524Y01461696D01*
X04660588Y01461427D01*
X04659645Y01461180D01*
X04658697Y01460957D01*
X04657744Y01460757D01*
X04656786Y01460580D01*
X04655824Y01460426D01*
X04654859Y01460296D01*
X04653890Y01460190D01*
X04652920Y01460107D01*
X04651948Y01460047D01*
X04650974Y01460012D01*
X04650000Y01460000D01*
X04650000Y01385000D01*
X05650000Y01385000D01*
X05650000Y01615000D01*
X04650000Y01615000D01*
X04750000Y01015000D02*
X03750000Y01015000D01*
X03750000Y00940000D01*
X03750974Y00939988D01*
X03751948Y00939953D01*
X03752920Y00939893D01*
X03753890Y00939810D01*
X03754859Y00939704D01*
X03755824Y00939574D01*
X03756786Y00939420D01*
X03757744Y00939243D01*
X03758697Y00939043D01*
X03759645Y00938820D01*
X03760588Y00938573D01*
X03761524Y00938304D01*
X03762453Y00938012D01*
X03763375Y00937698D01*
X03764289Y00937361D01*
X03765195Y00937002D01*
X03766091Y00936621D01*
X03766978Y00936218D01*
X03767855Y00935794D01*
X03768721Y00935348D01*
X03769577Y00934882D01*
X03770420Y00934395D01*
X03771252Y00933887D01*
X03772071Y00933360D01*
X03772877Y00932813D01*
X03773669Y00932246D01*
X03774447Y00931660D01*
X03775211Y00931055D01*
X03775959Y00930432D01*
X03776693Y00929791D01*
X03777410Y00929132D01*
X03778112Y00928456D01*
X03778796Y00927763D01*
X03779464Y00927054D01*
X03780114Y00926328D01*
X03780746Y00925587D01*
X03781360Y00924831D01*
X03781955Y00924060D01*
X03782532Y00923274D01*
X03783089Y00922475D01*
X03783626Y00921663D01*
X03784144Y00920838D01*
X03784641Y00920000D01*
X03785118Y00919151D01*
X03785574Y00918290D01*
X03786009Y00917418D01*
X03786422Y00916536D01*
X03786814Y00915644D01*
X03787184Y00914743D01*
X03787532Y00913833D01*
X03787858Y00912915D01*
X03788161Y00911990D01*
X03788442Y00911057D01*
X03788699Y00910117D01*
X03788934Y00909172D01*
X03789146Y00908221D01*
X03789335Y00907265D01*
X03789500Y00906305D01*
X03789642Y00905342D01*
X03789760Y00904375D01*
X03789855Y00903405D01*
X03789926Y00902434D01*
X03789973Y00901461D01*
X03789997Y00900487D01*
X03789997Y00899513D01*
X03789973Y00898539D01*
X03789926Y00897566D01*
X03789855Y00896595D01*
X03789760Y00895625D01*
X03789642Y00894658D01*
X03789500Y00893695D01*
X03789335Y00892735D01*
X03789146Y00891779D01*
X03788934Y00890828D01*
X03788699Y00889883D01*
X03788442Y00888943D01*
X03788161Y00888010D01*
X03787858Y00887085D01*
X03787532Y00886167D01*
X03787184Y00885257D01*
X03786814Y00884356D01*
X03786422Y00883464D01*
X03786009Y00882582D01*
X03785574Y00881710D01*
X03785118Y00880849D01*
X03784641Y00880000D01*
X03784144Y00879162D01*
X03783626Y00878337D01*
X03783089Y00877525D01*
X03782532Y00876726D01*
X03781955Y00875940D01*
X03781360Y00875169D01*
X03780746Y00874413D01*
X03780114Y00873672D01*
X03779464Y00872946D01*
X03778796Y00872237D01*
X03778112Y00871544D01*
X03777410Y00870868D01*
X03776693Y00870209D01*
X03775959Y00869568D01*
X03775211Y00868945D01*
X03774447Y00868340D01*
X03773669Y00867754D01*
X03772877Y00867187D01*
X03772071Y00866640D01*
X03771252Y00866113D01*
X03770420Y00865605D01*
X03769577Y00865118D01*
X03768721Y00864652D01*
X03767855Y00864206D01*
X03766978Y00863782D01*
X03766091Y00863379D01*
X03765195Y00862998D01*
X03764289Y00862639D01*
X03763375Y00862302D01*
X03762453Y00861988D01*
X03761524Y00861696D01*
X03760588Y00861427D01*
X03759645Y00861180D01*
X03758697Y00860957D01*
X03757744Y00860757D01*
X03756786Y00860580D01*
X03755824Y00860426D01*
X03754859Y00860296D01*
X03753890Y00860190D01*
X03752920Y00860107D01*
X03751948Y00860047D01*
X03750974Y00860012D01*
X03750000Y00860000D01*
X03750000Y00785000D01*
X04750000Y00785000D01*
X04750000Y01015000D01*
X04950000Y01015000D02*
X04950000Y00940000D01*
X04950974Y00939988D01*
X04951948Y00939953D01*
X04952920Y00939893D01*
X04953890Y00939810D01*
X04954859Y00939704D01*
X04955824Y00939574D01*
X04956786Y00939420D01*
X04957744Y00939243D01*
X04958697Y00939043D01*
X04959645Y00938820D01*
X04960588Y00938573D01*
X04961524Y00938304D01*
X04962453Y00938012D01*
X04963375Y00937698D01*
X04964289Y00937361D01*
X04965195Y00937002D01*
X04966091Y00936621D01*
X04966978Y00936218D01*
X04967855Y00935794D01*
X04968721Y00935348D01*
X04969577Y00934882D01*
X04970420Y00934395D01*
X04971252Y00933887D01*
X04972071Y00933360D01*
X04972877Y00932813D01*
X04973669Y00932246D01*
X04974447Y00931660D01*
X04975211Y00931055D01*
X04975959Y00930432D01*
X04976693Y00929791D01*
X04977410Y00929132D01*
X04978112Y00928456D01*
X04978796Y00927763D01*
X04979464Y00927054D01*
X04980114Y00926328D01*
X04980746Y00925587D01*
X04981360Y00924831D01*
X04981955Y00924060D01*
X04982532Y00923274D01*
X04983089Y00922475D01*
X04983626Y00921663D01*
X04984144Y00920838D01*
X04984641Y00920000D01*
X04985118Y00919151D01*
X04985574Y00918290D01*
X04986009Y00917418D01*
X04986422Y00916536D01*
X04986814Y00915644D01*
X04987184Y00914743D01*
X04987532Y00913833D01*
X04987858Y00912915D01*
X04988161Y00911990D01*
X04988442Y00911057D01*
X04988699Y00910117D01*
X04988934Y00909172D01*
X04989146Y00908221D01*
X04989335Y00907265D01*
X04989500Y00906305D01*
X04989642Y00905342D01*
X04989760Y00904375D01*
X04989855Y00903405D01*
X04989926Y00902434D01*
X04989973Y00901461D01*
X04989997Y00900487D01*
X04989997Y00899513D01*
X04989973Y00898539D01*
X04989926Y00897566D01*
X04989855Y00896595D01*
X04989760Y00895625D01*
X04989642Y00894658D01*
X04989500Y00893695D01*
X04989335Y00892735D01*
X04989146Y00891779D01*
X04988934Y00890828D01*
X04988699Y00889883D01*
X04988442Y00888943D01*
X04988161Y00888010D01*
X04987858Y00887085D01*
X04987532Y00886167D01*
X04987184Y00885257D01*
X04986814Y00884356D01*
X04986422Y00883464D01*
X04986009Y00882582D01*
X04985574Y00881710D01*
X04985118Y00880849D01*
X04984641Y00880000D01*
X04984144Y00879162D01*
X04983626Y00878337D01*
X04983089Y00877525D01*
X04982532Y00876726D01*
X04981955Y00875940D01*
X04981360Y00875169D01*
X04980746Y00874413D01*
X04980114Y00873672D01*
X04979464Y00872946D01*
X04978796Y00872237D01*
X04978112Y00871544D01*
X04977410Y00870868D01*
X04976693Y00870209D01*
X04975959Y00869568D01*
X04975211Y00868945D01*
X04974447Y00868340D01*
X04973669Y00867754D01*
X04972877Y00867187D01*
X04972071Y00866640D01*
X04971252Y00866113D01*
X04970420Y00865605D01*
X04969577Y00865118D01*
X04968721Y00864652D01*
X04967855Y00864206D01*
X04966978Y00863782D01*
X04966091Y00863379D01*
X04965195Y00862998D01*
X04964289Y00862639D01*
X04963375Y00862302D01*
X04962453Y00861988D01*
X04961524Y00861696D01*
X04960588Y00861427D01*
X04959645Y00861180D01*
X04958697Y00860957D01*
X04957744Y00860757D01*
X04956786Y00860580D01*
X04955824Y00860426D01*
X04954859Y00860296D01*
X04953890Y00860190D01*
X04952920Y00860107D01*
X04951948Y00860047D01*
X04950974Y00860012D01*
X04950000Y00860000D01*
X04950000Y00785000D01*
X05650000Y00785000D01*
X05650000Y01015000D01*
X04950000Y01015000D01*
X04950000Y00465000D02*
X04950000Y00390000D01*
X04950974Y00389988D01*
X04951948Y00389953D01*
X04952920Y00389893D01*
X04953890Y00389810D01*
X04954859Y00389704D01*
X04955824Y00389574D01*
X04956786Y00389420D01*
X04957744Y00389243D01*
X04958697Y00389043D01*
X04959645Y00388820D01*
X04960588Y00388573D01*
X04961524Y00388304D01*
X04962453Y00388012D01*
X04963375Y00387698D01*
X04964289Y00387361D01*
X04965195Y00387002D01*
X04966091Y00386621D01*
X04966978Y00386218D01*
X04967855Y00385794D01*
X04968721Y00385348D01*
X04969577Y00384882D01*
X04970420Y00384395D01*
X04971252Y00383887D01*
X04972071Y00383360D01*
X04972877Y00382813D01*
X04973669Y00382246D01*
X04974447Y00381660D01*
X04975211Y00381055D01*
X04975959Y00380432D01*
X04976693Y00379791D01*
X04977410Y00379132D01*
X04978112Y00378456D01*
X04978796Y00377763D01*
X04979464Y00377054D01*
X04980114Y00376328D01*
X04980746Y00375587D01*
X04981360Y00374831D01*
X04981955Y00374060D01*
X04982532Y00373274D01*
X04983089Y00372475D01*
X04983626Y00371663D01*
X04984144Y00370838D01*
X04984641Y00370000D01*
X04985118Y00369151D01*
X04985574Y00368290D01*
X04986009Y00367418D01*
X04986422Y00366536D01*
X04986814Y00365644D01*
X04987184Y00364743D01*
X04987532Y00363833D01*
X04987858Y00362915D01*
X04988161Y00361990D01*
X04988442Y00361057D01*
X04988699Y00360117D01*
X04988934Y00359172D01*
X04989146Y00358221D01*
X04989335Y00357265D01*
X04989500Y00356305D01*
X04989642Y00355342D01*
X04989760Y00354375D01*
X04989855Y00353405D01*
X04989926Y00352434D01*
X04989973Y00351461D01*
X04989997Y00350487D01*
X04989997Y00349513D01*
X04989973Y00348539D01*
X04989926Y00347566D01*
X04989855Y00346595D01*
X04989760Y00345625D01*
X04989642Y00344658D01*
X04989500Y00343695D01*
X04989335Y00342735D01*
X04989146Y00341779D01*
X04988934Y00340828D01*
X04988699Y00339883D01*
X04988442Y00338943D01*
X04988161Y00338010D01*
X04987858Y00337085D01*
X04987532Y00336167D01*
X04987184Y00335257D01*
X04986814Y00334356D01*
X04986422Y00333464D01*
X04986009Y00332582D01*
X04985574Y00331710D01*
X04985118Y00330849D01*
X04984641Y00330000D01*
X04984144Y00329162D01*
X04983626Y00328337D01*
X04983089Y00327525D01*
X04982532Y00326726D01*
X04981955Y00325940D01*
X04981360Y00325169D01*
X04980746Y00324413D01*
X04980114Y00323672D01*
X04979464Y00322946D01*
X04978796Y00322237D01*
X04978112Y00321544D01*
X04977410Y00320868D01*
X04976693Y00320209D01*
X04975959Y00319568D01*
X04975211Y00318945D01*
X04974447Y00318340D01*
X04973669Y00317754D01*
X04972877Y00317187D01*
X04972071Y00316640D01*
X04971252Y00316113D01*
X04970420Y00315605D01*
X04969577Y00315118D01*
X04968721Y00314652D01*
X04967855Y00314206D01*
X04966978Y00313782D01*
X04966091Y00313379D01*
X04965195Y00312998D01*
X04964289Y00312639D01*
X04963375Y00312302D01*
X04962453Y00311988D01*
X04961524Y00311696D01*
X04960588Y00311427D01*
X04959645Y00311180D01*
X04958697Y00310957D01*
X04957744Y00310757D01*
X04956786Y00310580D01*
X04955824Y00310426D01*
X04954859Y00310296D01*
X04953890Y00310190D01*
X04952920Y00310107D01*
X04951948Y00310047D01*
X04950974Y00310012D01*
X04950000Y00310000D01*
X04950000Y00235000D01*
X05650000Y00235000D01*
X05650000Y00465000D01*
X04950000Y00465000D01*
X04750000Y00465000D02*
X04750000Y00235000D01*
X03750000Y00235000D01*
X03750000Y00310000D01*
X03750974Y00310012D01*
X03751948Y00310047D01*
X03752920Y00310107D01*
X03753890Y00310190D01*
X03754859Y00310296D01*
X03755824Y00310426D01*
X03756786Y00310580D01*
X03757744Y00310757D01*
X03758697Y00310957D01*
X03759645Y00311180D01*
X03760588Y00311427D01*
X03761524Y00311696D01*
X03762453Y00311988D01*
X03763375Y00312302D01*
X03764289Y00312639D01*
X03765195Y00312998D01*
X03766091Y00313379D01*
X03766978Y00313782D01*
X03767855Y00314206D01*
X03768721Y00314652D01*
X03769577Y00315118D01*
X03770420Y00315605D01*
X03771252Y00316113D01*
X03772071Y00316640D01*
X03772877Y00317187D01*
X03773669Y00317754D01*
X03774447Y00318340D01*
X03775211Y00318945D01*
X03775959Y00319568D01*
X03776693Y00320209D01*
X03777410Y00320868D01*
X03778112Y00321544D01*
X03778796Y00322237D01*
X03779464Y00322946D01*
X03780114Y00323672D01*
X03780746Y00324413D01*
X03781360Y00325169D01*
X03781955Y00325940D01*
X03782532Y00326726D01*
X03783089Y00327525D01*
X03783626Y00328337D01*
X03784144Y00329162D01*
X03784641Y00330000D01*
X03785118Y00330849D01*
X03785574Y00331710D01*
X03786009Y00332582D01*
X03786422Y00333464D01*
X03786814Y00334356D01*
X03787184Y00335257D01*
X03787532Y00336167D01*
X03787858Y00337085D01*
X03788161Y00338010D01*
X03788442Y00338943D01*
X03788699Y00339883D01*
X03788934Y00340828D01*
X03789146Y00341779D01*
X03789335Y00342735D01*
X03789500Y00343695D01*
X03789642Y00344658D01*
X03789760Y00345625D01*
X03789855Y00346595D01*
X03789926Y00347566D01*
X03789973Y00348539D01*
X03789997Y00349513D01*
X03789997Y00350487D01*
X03789973Y00351461D01*
X03789926Y00352434D01*
X03789855Y00353405D01*
X03789760Y00354375D01*
X03789642Y00355342D01*
X03789500Y00356305D01*
X03789335Y00357265D01*
X03789146Y00358221D01*
X03788934Y00359172D01*
X03788699Y00360117D01*
X03788442Y00361057D01*
X03788161Y00361990D01*
X03787858Y00362915D01*
X03787532Y00363833D01*
X03787184Y00364743D01*
X03786814Y00365644D01*
X03786422Y00366536D01*
X03786009Y00367418D01*
X03785574Y00368290D01*
X03785118Y00369151D01*
X03784641Y00370000D01*
X03784144Y00370838D01*
X03783626Y00371663D01*
X03783089Y00372475D01*
X03782532Y00373274D01*
X03781955Y00374060D01*
X03781360Y00374831D01*
X03780746Y00375587D01*
X03780114Y00376328D01*
X03779464Y00377054D01*
X03778796Y00377763D01*
X03778112Y00378456D01*
X03777410Y00379132D01*
X03776693Y00379791D01*
X03775959Y00380432D01*
X03775211Y00381055D01*
X03774447Y00381660D01*
X03773669Y00382246D01*
X03772877Y00382813D01*
X03772071Y00383360D01*
X03771252Y00383887D01*
X03770420Y00384395D01*
X03769577Y00384882D01*
X03768721Y00385348D01*
X03767855Y00385794D01*
X03766978Y00386218D01*
X03766091Y00386621D01*
X03765195Y00387002D01*
X03764289Y00387361D01*
X03763375Y00387698D01*
X03762453Y00388012D01*
X03761524Y00388304D01*
X03760588Y00388573D01*
X03759645Y00388820D01*
X03758697Y00389043D01*
X03757744Y00389243D01*
X03756786Y00389420D01*
X03755824Y00389574D01*
X03754859Y00389704D01*
X03753890Y00389810D01*
X03752920Y00389893D01*
X03751948Y00389953D01*
X03750974Y00389988D01*
X03750000Y00390000D01*
X03750000Y00465000D01*
X04750000Y00465000D01*
X03650000Y00465000D02*
X03650000Y00235000D01*
X02850000Y00235000D01*
X02850000Y00310000D01*
X02850974Y00310012D01*
X02851948Y00310047D01*
X02852920Y00310107D01*
X02853890Y00310190D01*
X02854859Y00310296D01*
X02855824Y00310426D01*
X02856786Y00310580D01*
X02857744Y00310757D01*
X02858697Y00310957D01*
X02859645Y00311180D01*
X02860588Y00311427D01*
X02861524Y00311696D01*
X02862453Y00311988D01*
X02863375Y00312302D01*
X02864289Y00312639D01*
X02865195Y00312998D01*
X02866091Y00313379D01*
X02866978Y00313782D01*
X02867855Y00314206D01*
X02868721Y00314652D01*
X02869577Y00315118D01*
X02870420Y00315605D01*
X02871252Y00316113D01*
X02872071Y00316640D01*
X02872877Y00317187D01*
X02873669Y00317754D01*
X02874447Y00318340D01*
X02875211Y00318945D01*
X02875959Y00319568D01*
X02876693Y00320209D01*
X02877410Y00320868D01*
X02878112Y00321544D01*
X02878796Y00322237D01*
X02879464Y00322946D01*
X02880114Y00323672D01*
X02880746Y00324413D01*
X02881360Y00325169D01*
X02881955Y00325940D01*
X02882532Y00326726D01*
X02883089Y00327525D01*
X02883626Y00328337D01*
X02884144Y00329162D01*
X02884641Y00330000D01*
X02885118Y00330849D01*
X02885574Y00331710D01*
X02886009Y00332582D01*
X02886422Y00333464D01*
X02886814Y00334356D01*
X02887184Y00335257D01*
X02887532Y00336167D01*
X02887858Y00337085D01*
X02888161Y00338010D01*
X02888442Y00338943D01*
X02888699Y00339883D01*
X02888934Y00340828D01*
X02889146Y00341779D01*
X02889335Y00342735D01*
X02889500Y00343695D01*
X02889642Y00344658D01*
X02889760Y00345625D01*
X02889855Y00346595D01*
X02889926Y00347566D01*
X02889973Y00348539D01*
X02889997Y00349513D01*
X02889997Y00350487D01*
X02889973Y00351461D01*
X02889926Y00352434D01*
X02889855Y00353405D01*
X02889760Y00354375D01*
X02889642Y00355342D01*
X02889500Y00356305D01*
X02889335Y00357265D01*
X02889146Y00358221D01*
X02888934Y00359172D01*
X02888699Y00360117D01*
X02888442Y00361057D01*
X02888161Y00361990D01*
X02887858Y00362915D01*
X02887532Y00363833D01*
X02887184Y00364743D01*
X02886814Y00365644D01*
X02886422Y00366536D01*
X02886009Y00367418D01*
X02885574Y00368290D01*
X02885118Y00369151D01*
X02884641Y00370000D01*
X02884144Y00370838D01*
X02883626Y00371663D01*
X02883089Y00372475D01*
X02882532Y00373274D01*
X02881955Y00374060D01*
X02881360Y00374831D01*
X02880746Y00375587D01*
X02880114Y00376328D01*
X02879464Y00377054D01*
X02878796Y00377763D01*
X02878112Y00378456D01*
X02877410Y00379132D01*
X02876693Y00379791D01*
X02875959Y00380432D01*
X02875211Y00381055D01*
X02874447Y00381660D01*
X02873669Y00382246D01*
X02872877Y00382813D01*
X02872071Y00383360D01*
X02871252Y00383887D01*
X02870420Y00384395D01*
X02869577Y00384882D01*
X02868721Y00385348D01*
X02867855Y00385794D01*
X02866978Y00386218D01*
X02866091Y00386621D01*
X02865195Y00387002D01*
X02864289Y00387361D01*
X02863375Y00387698D01*
X02862453Y00388012D01*
X02861524Y00388304D01*
X02860588Y00388573D01*
X02859645Y00388820D01*
X02858697Y00389043D01*
X02857744Y00389243D01*
X02856786Y00389420D01*
X02855824Y00389574D01*
X02854859Y00389704D01*
X02853890Y00389810D01*
X02852920Y00389893D01*
X02851948Y00389953D01*
X02850974Y00389988D01*
X02850000Y00390000D01*
X02850000Y00465000D01*
X03650000Y00465000D01*
X03650000Y00785000D02*
X03650000Y01015000D01*
X02850000Y01015000D01*
X02850000Y00940000D01*
X02850974Y00939988D01*
X02851948Y00939953D01*
X02852920Y00939893D01*
X02853890Y00939810D01*
X02854859Y00939704D01*
X02855824Y00939574D01*
X02856786Y00939420D01*
X02857744Y00939243D01*
X02858697Y00939043D01*
X02859645Y00938820D01*
X02860588Y00938573D01*
X02861524Y00938304D01*
X02862453Y00938012D01*
X02863375Y00937698D01*
X02864289Y00937361D01*
X02865195Y00937002D01*
X02866091Y00936621D01*
X02866978Y00936218D01*
X02867855Y00935794D01*
X02868721Y00935348D01*
X02869577Y00934882D01*
X02870420Y00934395D01*
X02871252Y00933887D01*
X02872071Y00933360D01*
X02872877Y00932813D01*
X02873669Y00932246D01*
X02874447Y00931660D01*
X02875211Y00931055D01*
X02875959Y00930432D01*
X02876693Y00929791D01*
X02877410Y00929132D01*
X02878112Y00928456D01*
X02878796Y00927763D01*
X02879464Y00927054D01*
X02880114Y00926328D01*
X02880746Y00925587D01*
X02881360Y00924831D01*
X02881955Y00924060D01*
X02882532Y00923274D01*
X02883089Y00922475D01*
X02883626Y00921663D01*
X02884144Y00920838D01*
X02884641Y00920000D01*
X02885118Y00919151D01*
X02885574Y00918290D01*
X02886009Y00917418D01*
X02886422Y00916536D01*
X02886814Y00915644D01*
X02887184Y00914743D01*
X02887532Y00913833D01*
X02887858Y00912915D01*
X02888161Y00911990D01*
X02888442Y00911057D01*
X02888699Y00910117D01*
X02888934Y00909172D01*
X02889146Y00908221D01*
X02889335Y00907265D01*
X02889500Y00906305D01*
X02889642Y00905342D01*
X02889760Y00904375D01*
X02889855Y00903405D01*
X02889926Y00902434D01*
X02889973Y00901461D01*
X02889997Y00900487D01*
X02889997Y00899513D01*
X02889973Y00898539D01*
X02889926Y00897566D01*
X02889855Y00896595D01*
X02889760Y00895625D01*
X02889642Y00894658D01*
X02889500Y00893695D01*
X02889335Y00892735D01*
X02889146Y00891779D01*
X02888934Y00890828D01*
X02888699Y00889883D01*
X02888442Y00888943D01*
X02888161Y00888010D01*
X02887858Y00887085D01*
X02887532Y00886167D01*
X02887184Y00885257D01*
X02886814Y00884356D01*
X02886422Y00883464D01*
X02886009Y00882582D01*
X02885574Y00881710D01*
X02885118Y00880849D01*
X02884641Y00880000D01*
X02884144Y00879162D01*
X02883626Y00878337D01*
X02883089Y00877525D01*
X02882532Y00876726D01*
X02881955Y00875940D01*
X02881360Y00875169D01*
X02880746Y00874413D01*
X02880114Y00873672D01*
X02879464Y00872946D01*
X02878796Y00872237D01*
X02878112Y00871544D01*
X02877410Y00870868D01*
X02876693Y00870209D01*
X02875959Y00869568D01*
X02875211Y00868945D01*
X02874447Y00868340D01*
X02873669Y00867754D01*
X02872877Y00867187D01*
X02872071Y00866640D01*
X02871252Y00866113D01*
X02870420Y00865605D01*
X02869577Y00865118D01*
X02868721Y00864652D01*
X02867855Y00864206D01*
X02866978Y00863782D01*
X02866091Y00863379D01*
X02865195Y00862998D01*
X02864289Y00862639D01*
X02863375Y00862302D01*
X02862453Y00861988D01*
X02861524Y00861696D01*
X02860588Y00861427D01*
X02859645Y00861180D01*
X02858697Y00860957D01*
X02857744Y00860757D01*
X02856786Y00860580D01*
X02855824Y00860426D01*
X02854859Y00860296D01*
X02853890Y00860190D01*
X02852920Y00860107D01*
X02851948Y00860047D01*
X02850974Y00860012D01*
X02850000Y00860000D01*
X02850000Y00785000D01*
X03650000Y00785000D01*
X03650000Y01285000D02*
X02850000Y01285000D01*
X02850000Y01360000D01*
X02850974Y01360012D01*
X02851948Y01360047D01*
X02852920Y01360107D01*
X02853890Y01360190D01*
X02854859Y01360296D01*
X02855824Y01360426D01*
X02856786Y01360580D01*
X02857744Y01360757D01*
X02858697Y01360957D01*
X02859645Y01361180D01*
X02860588Y01361427D01*
X02861524Y01361696D01*
X02862453Y01361988D01*
X02863375Y01362302D01*
X02864289Y01362639D01*
X02865195Y01362998D01*
X02866091Y01363379D01*
X02866978Y01363782D01*
X02867855Y01364206D01*
X02868721Y01364652D01*
X02869577Y01365118D01*
X02870420Y01365605D01*
X02871252Y01366113D01*
X02872071Y01366640D01*
X02872877Y01367187D01*
X02873669Y01367754D01*
X02874447Y01368340D01*
X02875211Y01368945D01*
X02875959Y01369568D01*
X02876693Y01370209D01*
X02877410Y01370868D01*
X02878112Y01371544D01*
X02878796Y01372237D01*
X02879464Y01372946D01*
X02880114Y01373672D01*
X02880746Y01374413D01*
X02881360Y01375169D01*
X02881955Y01375940D01*
X02882532Y01376726D01*
X02883089Y01377525D01*
X02883626Y01378337D01*
X02884144Y01379162D01*
X02884641Y01380000D01*
X02885118Y01380849D01*
X02885574Y01381710D01*
X02886009Y01382582D01*
X02886422Y01383464D01*
X02886814Y01384356D01*
X02887184Y01385257D01*
X02887532Y01386167D01*
X02887858Y01387085D01*
X02888161Y01388010D01*
X02888442Y01388943D01*
X02888699Y01389883D01*
X02888934Y01390828D01*
X02889146Y01391779D01*
X02889335Y01392735D01*
X02889500Y01393695D01*
X02889642Y01394658D01*
X02889760Y01395625D01*
X02889855Y01396595D01*
X02889926Y01397566D01*
X02889973Y01398539D01*
X02889997Y01399513D01*
X02889997Y01400487D01*
X02889973Y01401461D01*
X02889926Y01402434D01*
X02889855Y01403405D01*
X02889760Y01404375D01*
X02889642Y01405342D01*
X02889500Y01406305D01*
X02889335Y01407265D01*
X02889146Y01408221D01*
X02888934Y01409172D01*
X02888699Y01410117D01*
X02888442Y01411057D01*
X02888161Y01411990D01*
X02887858Y01412915D01*
X02887532Y01413833D01*
X02887184Y01414743D01*
X02886814Y01415644D01*
X02886422Y01416536D01*
X02886009Y01417418D01*
X02885574Y01418290D01*
X02885118Y01419151D01*
X02884641Y01420000D01*
X02884144Y01420838D01*
X02883626Y01421663D01*
X02883089Y01422475D01*
X02882532Y01423274D01*
X02881955Y01424060D01*
X02881360Y01424831D01*
X02880746Y01425587D01*
X02880114Y01426328D01*
X02879464Y01427054D01*
X02878796Y01427763D01*
X02878112Y01428456D01*
X02877410Y01429132D01*
X02876693Y01429791D01*
X02875959Y01430432D01*
X02875211Y01431055D01*
X02874447Y01431660D01*
X02873669Y01432246D01*
X02872877Y01432813D01*
X02872071Y01433360D01*
X02871252Y01433887D01*
X02870420Y01434395D01*
X02869577Y01434882D01*
X02868721Y01435348D01*
X02867855Y01435794D01*
X02866978Y01436218D01*
X02866091Y01436621D01*
X02865195Y01437002D01*
X02864289Y01437361D01*
X02863375Y01437698D01*
X02862453Y01438012D01*
X02861524Y01438304D01*
X02860588Y01438573D01*
X02859645Y01438820D01*
X02858697Y01439043D01*
X02857744Y01439243D01*
X02856786Y01439420D01*
X02855824Y01439574D01*
X02854859Y01439704D01*
X02853890Y01439810D01*
X02852920Y01439893D01*
X02851948Y01439953D01*
X02850974Y01439988D01*
X02850000Y01440000D01*
X02850000Y01515000D01*
X03650000Y01515000D01*
X03650000Y01285000D01*
X03650000Y01935000D02*
X02850000Y01935000D01*
X02850000Y02010000D01*
X02850974Y02010012D01*
X02851948Y02010047D01*
X02852920Y02010107D01*
X02853890Y02010190D01*
X02854859Y02010296D01*
X02855824Y02010426D01*
X02856786Y02010580D01*
X02857744Y02010757D01*
X02858697Y02010957D01*
X02859645Y02011180D01*
X02860588Y02011427D01*
X02861524Y02011696D01*
X02862453Y02011988D01*
X02863375Y02012302D01*
X02864289Y02012639D01*
X02865195Y02012998D01*
X02866091Y02013379D01*
X02866978Y02013782D01*
X02867855Y02014206D01*
X02868721Y02014652D01*
X02869577Y02015118D01*
X02870420Y02015605D01*
X02871252Y02016113D01*
X02872071Y02016640D01*
X02872877Y02017187D01*
X02873669Y02017754D01*
X02874447Y02018340D01*
X02875211Y02018945D01*
X02875959Y02019568D01*
X02876693Y02020209D01*
X02877410Y02020868D01*
X02878112Y02021544D01*
X02878796Y02022237D01*
X02879464Y02022946D01*
X02880114Y02023672D01*
X02880746Y02024413D01*
X02881360Y02025169D01*
X02881955Y02025940D01*
X02882532Y02026726D01*
X02883089Y02027525D01*
X02883626Y02028337D01*
X02884144Y02029162D01*
X02884641Y02030000D01*
X02885118Y02030849D01*
X02885574Y02031710D01*
X02886009Y02032582D01*
X02886422Y02033464D01*
X02886814Y02034356D01*
X02887184Y02035257D01*
X02887532Y02036167D01*
X02887858Y02037085D01*
X02888161Y02038010D01*
X02888442Y02038943D01*
X02888699Y02039883D01*
X02888934Y02040828D01*
X02889146Y02041779D01*
X02889335Y02042735D01*
X02889500Y02043695D01*
X02889642Y02044658D01*
X02889760Y02045625D01*
X02889855Y02046595D01*
X02889926Y02047566D01*
X02889973Y02048539D01*
X02889997Y02049513D01*
X02889997Y02050487D01*
X02889973Y02051461D01*
X02889926Y02052434D01*
X02889855Y02053405D01*
X02889760Y02054375D01*
X02889642Y02055342D01*
X02889500Y02056305D01*
X02889335Y02057265D01*
X02889146Y02058221D01*
X02888934Y02059172D01*
X02888699Y02060117D01*
X02888442Y02061057D01*
X02888161Y02061990D01*
X02887858Y02062915D01*
X02887532Y02063833D01*
X02887184Y02064743D01*
X02886814Y02065644D01*
X02886422Y02066536D01*
X02886009Y02067418D01*
X02885574Y02068290D01*
X02885118Y02069151D01*
X02884641Y02070000D01*
X02884144Y02070838D01*
X02883626Y02071663D01*
X02883089Y02072475D01*
X02882532Y02073274D01*
X02881955Y02074060D01*
X02881360Y02074831D01*
X02880746Y02075587D01*
X02880114Y02076328D01*
X02879464Y02077054D01*
X02878796Y02077763D01*
X02878112Y02078456D01*
X02877410Y02079132D01*
X02876693Y02079791D01*
X02875959Y02080432D01*
X02875211Y02081055D01*
X02874447Y02081660D01*
X02873669Y02082246D01*
X02872877Y02082813D01*
X02872071Y02083360D01*
X02871252Y02083887D01*
X02870420Y02084395D01*
X02869577Y02084882D01*
X02868721Y02085348D01*
X02867855Y02085794D01*
X02866978Y02086218D01*
X02866091Y02086621D01*
X02865195Y02087002D01*
X02864289Y02087361D01*
X02863375Y02087698D01*
X02862453Y02088012D01*
X02861524Y02088304D01*
X02860588Y02088573D01*
X02859645Y02088820D01*
X02858697Y02089043D01*
X02857744Y02089243D01*
X02856786Y02089420D01*
X02855824Y02089574D01*
X02854859Y02089704D01*
X02853890Y02089810D01*
X02852920Y02089893D01*
X02851948Y02089953D01*
X02850974Y02089988D01*
X02850000Y02090000D01*
X02850000Y02165000D01*
X03650000Y02165000D01*
X03650000Y01935000D01*
X03450000Y02485000D02*
X03450000Y02715000D01*
X02650000Y02715000D01*
X02650000Y02640000D01*
X02650974Y02639988D01*
X02651948Y02639953D01*
X02652920Y02639893D01*
X02653890Y02639810D01*
X02654859Y02639704D01*
X02655824Y02639574D01*
X02656786Y02639420D01*
X02657744Y02639243D01*
X02658697Y02639043D01*
X02659645Y02638820D01*
X02660588Y02638573D01*
X02661524Y02638304D01*
X02662453Y02638012D01*
X02663375Y02637698D01*
X02664289Y02637361D01*
X02665195Y02637002D01*
X02666091Y02636621D01*
X02666978Y02636218D01*
X02667855Y02635794D01*
X02668721Y02635348D01*
X02669577Y02634882D01*
X02670420Y02634395D01*
X02671252Y02633887D01*
X02672071Y02633360D01*
X02672877Y02632813D01*
X02673669Y02632246D01*
X02674447Y02631660D01*
X02675211Y02631055D01*
X02675959Y02630432D01*
X02676693Y02629791D01*
X02677410Y02629132D01*
X02678112Y02628456D01*
X02678796Y02627763D01*
X02679464Y02627054D01*
X02680114Y02626328D01*
X02680746Y02625587D01*
X02681360Y02624831D01*
X02681955Y02624060D01*
X02682532Y02623274D01*
X02683089Y02622475D01*
X02683626Y02621663D01*
X02684144Y02620838D01*
X02684641Y02620000D01*
X02685118Y02619151D01*
X02685574Y02618290D01*
X02686009Y02617418D01*
X02686422Y02616536D01*
X02686814Y02615644D01*
X02687184Y02614743D01*
X02687532Y02613833D01*
X02687858Y02612915D01*
X02688161Y02611990D01*
X02688442Y02611057D01*
X02688699Y02610117D01*
X02688934Y02609172D01*
X02689146Y02608221D01*
X02689335Y02607265D01*
X02689500Y02606305D01*
X02689642Y02605342D01*
X02689760Y02604375D01*
X02689855Y02603405D01*
X02689926Y02602434D01*
X02689973Y02601461D01*
X02689997Y02600487D01*
X02689997Y02599513D01*
X02689973Y02598539D01*
X02689926Y02597566D01*
X02689855Y02596595D01*
X02689760Y02595625D01*
X02689642Y02594658D01*
X02689500Y02593695D01*
X02689335Y02592735D01*
X02689146Y02591779D01*
X02688934Y02590828D01*
X02688699Y02589883D01*
X02688442Y02588943D01*
X02688161Y02588010D01*
X02687858Y02587085D01*
X02687532Y02586167D01*
X02687184Y02585257D01*
X02686814Y02584356D01*
X02686422Y02583464D01*
X02686009Y02582582D01*
X02685574Y02581710D01*
X02685118Y02580849D01*
X02684641Y02580000D01*
X02684144Y02579162D01*
X02683626Y02578337D01*
X02683089Y02577525D01*
X02682532Y02576726D01*
X02681955Y02575940D01*
X02681360Y02575169D01*
X02680746Y02574413D01*
X02680114Y02573672D01*
X02679464Y02572946D01*
X02678796Y02572237D01*
X02678112Y02571544D01*
X02677410Y02570868D01*
X02676693Y02570209D01*
X02675959Y02569568D01*
X02675211Y02568945D01*
X02674447Y02568340D01*
X02673669Y02567754D01*
X02672877Y02567187D01*
X02672071Y02566640D01*
X02671252Y02566113D01*
X02670420Y02565605D01*
X02669577Y02565118D01*
X02668721Y02564652D01*
X02667855Y02564206D01*
X02666978Y02563782D01*
X02666091Y02563379D01*
X02665195Y02562998D01*
X02664289Y02562639D01*
X02663375Y02562302D01*
X02662453Y02561988D01*
X02661524Y02561696D01*
X02660588Y02561427D01*
X02659645Y02561180D01*
X02658697Y02560957D01*
X02657744Y02560757D01*
X02656786Y02560580D01*
X02655824Y02560426D01*
X02654859Y02560296D01*
X02653890Y02560190D01*
X02652920Y02560107D01*
X02651948Y02560047D01*
X02650974Y02560012D01*
X02650000Y02560000D01*
X02650000Y02485000D01*
X03450000Y02485000D01*
X03650000Y02985000D02*
X02850000Y02985000D01*
X02850000Y03060000D01*
X02850974Y03060012D01*
X02851948Y03060047D01*
X02852920Y03060107D01*
X02853890Y03060190D01*
X02854859Y03060296D01*
X02855824Y03060426D01*
X02856786Y03060580D01*
X02857744Y03060757D01*
X02858697Y03060957D01*
X02859645Y03061180D01*
X02860588Y03061427D01*
X02861524Y03061696D01*
X02862453Y03061988D01*
X02863375Y03062302D01*
X02864289Y03062639D01*
X02865195Y03062998D01*
X02866091Y03063379D01*
X02866978Y03063782D01*
X02867855Y03064206D01*
X02868721Y03064652D01*
X02869577Y03065118D01*
X02870420Y03065605D01*
X02871252Y03066113D01*
X02872071Y03066640D01*
X02872877Y03067187D01*
X02873669Y03067754D01*
X02874447Y03068340D01*
X02875211Y03068945D01*
X02875959Y03069568D01*
X02876693Y03070209D01*
X02877410Y03070868D01*
X02878112Y03071544D01*
X02878796Y03072237D01*
X02879464Y03072946D01*
X02880114Y03073672D01*
X02880746Y03074413D01*
X02881360Y03075169D01*
X02881955Y03075940D01*
X02882532Y03076726D01*
X02883089Y03077525D01*
X02883626Y03078337D01*
X02884144Y03079162D01*
X02884641Y03080000D01*
X02885118Y03080849D01*
X02885574Y03081710D01*
X02886009Y03082582D01*
X02886422Y03083464D01*
X02886814Y03084356D01*
X02887184Y03085257D01*
X02887532Y03086167D01*
X02887858Y03087085D01*
X02888161Y03088010D01*
X02888442Y03088943D01*
X02888699Y03089883D01*
X02888934Y03090828D01*
X02889146Y03091779D01*
X02889335Y03092735D01*
X02889500Y03093695D01*
X02889642Y03094658D01*
X02889760Y03095625D01*
X02889855Y03096595D01*
X02889926Y03097566D01*
X02889973Y03098539D01*
X02889997Y03099513D01*
X02889997Y03100487D01*
X02889973Y03101461D01*
X02889926Y03102434D01*
X02889855Y03103405D01*
X02889760Y03104375D01*
X02889642Y03105342D01*
X02889500Y03106305D01*
X02889335Y03107265D01*
X02889146Y03108221D01*
X02888934Y03109172D01*
X02888699Y03110117D01*
X02888442Y03111057D01*
X02888161Y03111990D01*
X02887858Y03112915D01*
X02887532Y03113833D01*
X02887184Y03114743D01*
X02886814Y03115644D01*
X02886422Y03116536D01*
X02886009Y03117418D01*
X02885574Y03118290D01*
X02885118Y03119151D01*
X02884641Y03120000D01*
X02884144Y03120838D01*
X02883626Y03121663D01*
X02883089Y03122475D01*
X02882532Y03123274D01*
X02881955Y03124060D01*
X02881360Y03124831D01*
X02880746Y03125587D01*
X02880114Y03126328D01*
X02879464Y03127054D01*
X02878796Y03127763D01*
X02878112Y03128456D01*
X02877410Y03129132D01*
X02876693Y03129791D01*
X02875959Y03130432D01*
X02875211Y03131055D01*
X02874447Y03131660D01*
X02873669Y03132246D01*
X02872877Y03132813D01*
X02872071Y03133360D01*
X02871252Y03133887D01*
X02870420Y03134395D01*
X02869577Y03134882D01*
X02868721Y03135348D01*
X02867855Y03135794D01*
X02866978Y03136218D01*
X02866091Y03136621D01*
X02865195Y03137002D01*
X02864289Y03137361D01*
X02863375Y03137698D01*
X02862453Y03138012D01*
X02861524Y03138304D01*
X02860588Y03138573D01*
X02859645Y03138820D01*
X02858697Y03139043D01*
X02857744Y03139243D01*
X02856786Y03139420D01*
X02855824Y03139574D01*
X02854859Y03139704D01*
X02853890Y03139810D01*
X02852920Y03139893D01*
X02851948Y03139953D01*
X02850974Y03139988D01*
X02850000Y03140000D01*
X02850000Y03215000D01*
X03650000Y03215000D01*
X03650000Y02985000D01*
X05800000Y03535000D02*
X05800000Y03610000D01*
X05800974Y03610012D01*
X05801948Y03610047D01*
X05802920Y03610107D01*
X05803890Y03610190D01*
X05804859Y03610296D01*
X05805824Y03610426D01*
X05806786Y03610580D01*
X05807744Y03610757D01*
X05808697Y03610957D01*
X05809645Y03611180D01*
X05810588Y03611427D01*
X05811524Y03611696D01*
X05812453Y03611988D01*
X05813375Y03612302D01*
X05814289Y03612639D01*
X05815195Y03612998D01*
X05816091Y03613379D01*
X05816978Y03613782D01*
X05817855Y03614206D01*
X05818721Y03614652D01*
X05819577Y03615118D01*
X05820420Y03615605D01*
X05821252Y03616113D01*
X05822071Y03616640D01*
X05822877Y03617187D01*
X05823669Y03617754D01*
X05824447Y03618340D01*
X05825211Y03618945D01*
X05825959Y03619568D01*
X05826693Y03620209D01*
X05827410Y03620868D01*
X05828112Y03621544D01*
X05828796Y03622237D01*
X05829464Y03622946D01*
X05830114Y03623672D01*
X05830746Y03624413D01*
X05831360Y03625169D01*
X05831955Y03625940D01*
X05832532Y03626726D01*
X05833089Y03627525D01*
X05833626Y03628337D01*
X05834144Y03629162D01*
X05834641Y03630000D01*
X05835118Y03630849D01*
X05835574Y03631710D01*
X05836009Y03632582D01*
X05836422Y03633464D01*
X05836814Y03634356D01*
X05837184Y03635257D01*
X05837532Y03636167D01*
X05837858Y03637085D01*
X05838161Y03638010D01*
X05838442Y03638943D01*
X05838699Y03639883D01*
X05838934Y03640828D01*
X05839146Y03641779D01*
X05839335Y03642735D01*
X05839500Y03643695D01*
X05839642Y03644658D01*
X05839760Y03645625D01*
X05839855Y03646595D01*
X05839926Y03647566D01*
X05839973Y03648539D01*
X05839997Y03649513D01*
X05839997Y03650487D01*
X05839973Y03651461D01*
X05839926Y03652434D01*
X05839855Y03653405D01*
X05839760Y03654375D01*
X05839642Y03655342D01*
X05839500Y03656305D01*
X05839335Y03657265D01*
X05839146Y03658221D01*
X05838934Y03659172D01*
X05838699Y03660117D01*
X05838442Y03661057D01*
X05838161Y03661990D01*
X05837858Y03662915D01*
X05837532Y03663833D01*
X05837184Y03664743D01*
X05836814Y03665644D01*
X05836422Y03666536D01*
X05836009Y03667418D01*
X05835574Y03668290D01*
X05835118Y03669151D01*
X05834641Y03670000D01*
X05834144Y03670838D01*
X05833626Y03671663D01*
X05833089Y03672475D01*
X05832532Y03673274D01*
X05831955Y03674060D01*
X05831360Y03674831D01*
X05830746Y03675587D01*
X05830114Y03676328D01*
X05829464Y03677054D01*
X05828796Y03677763D01*
X05828112Y03678456D01*
X05827410Y03679132D01*
X05826693Y03679791D01*
X05825959Y03680432D01*
X05825211Y03681055D01*
X05824447Y03681660D01*
X05823669Y03682246D01*
X05822877Y03682813D01*
X05822071Y03683360D01*
X05821252Y03683887D01*
X05820420Y03684395D01*
X05819577Y03684882D01*
X05818721Y03685348D01*
X05817855Y03685794D01*
X05816978Y03686218D01*
X05816091Y03686621D01*
X05815195Y03687002D01*
X05814289Y03687361D01*
X05813375Y03687698D01*
X05812453Y03688012D01*
X05811524Y03688304D01*
X05810588Y03688573D01*
X05809645Y03688820D01*
X05808697Y03689043D01*
X05807744Y03689243D01*
X05806786Y03689420D01*
X05805824Y03689574D01*
X05804859Y03689704D01*
X05803890Y03689810D01*
X05802920Y03689893D01*
X05801948Y03689953D01*
X05800974Y03689988D01*
X05800000Y03690000D01*
X05800000Y03765000D01*
X06800000Y03765000D01*
X06800000Y03535000D01*
X05800000Y03535000D01*
X06100000Y03265000D02*
X06100000Y03190000D01*
X06100974Y03189988D01*
X06101948Y03189953D01*
X06102920Y03189893D01*
X06103890Y03189810D01*
X06104859Y03189704D01*
X06105824Y03189574D01*
X06106786Y03189420D01*
X06107744Y03189243D01*
X06108697Y03189043D01*
X06109645Y03188820D01*
X06110588Y03188573D01*
X06111524Y03188304D01*
X06112453Y03188012D01*
X06113375Y03187698D01*
X06114289Y03187361D01*
X06115195Y03187002D01*
X06116091Y03186621D01*
X06116978Y03186218D01*
X06117855Y03185794D01*
X06118721Y03185348D01*
X06119577Y03184882D01*
X06120420Y03184395D01*
X06121252Y03183887D01*
X06122071Y03183360D01*
X06122877Y03182813D01*
X06123669Y03182246D01*
X06124447Y03181660D01*
X06125211Y03181055D01*
X06125959Y03180432D01*
X06126693Y03179791D01*
X06127410Y03179132D01*
X06128112Y03178456D01*
X06128796Y03177763D01*
X06129464Y03177054D01*
X06130114Y03176328D01*
X06130746Y03175587D01*
X06131360Y03174831D01*
X06131955Y03174060D01*
X06132532Y03173274D01*
X06133089Y03172475D01*
X06133626Y03171663D01*
X06134144Y03170838D01*
X06134641Y03170000D01*
X06135118Y03169151D01*
X06135574Y03168290D01*
X06136009Y03167418D01*
X06136422Y03166536D01*
X06136814Y03165644D01*
X06137184Y03164743D01*
X06137532Y03163833D01*
X06137858Y03162915D01*
X06138161Y03161990D01*
X06138442Y03161057D01*
X06138699Y03160117D01*
X06138934Y03159172D01*
X06139146Y03158221D01*
X06139335Y03157265D01*
X06139500Y03156305D01*
X06139642Y03155342D01*
X06139760Y03154375D01*
X06139855Y03153405D01*
X06139926Y03152434D01*
X06139973Y03151461D01*
X06139997Y03150487D01*
X06139997Y03149513D01*
X06139973Y03148539D01*
X06139926Y03147566D01*
X06139855Y03146595D01*
X06139760Y03145625D01*
X06139642Y03144658D01*
X06139500Y03143695D01*
X06139335Y03142735D01*
X06139146Y03141779D01*
X06138934Y03140828D01*
X06138699Y03139883D01*
X06138442Y03138943D01*
X06138161Y03138010D01*
X06137858Y03137085D01*
X06137532Y03136167D01*
X06137184Y03135257D01*
X06136814Y03134356D01*
X06136422Y03133464D01*
X06136009Y03132582D01*
X06135574Y03131710D01*
X06135118Y03130849D01*
X06134641Y03130000D01*
X06134144Y03129162D01*
X06133626Y03128337D01*
X06133089Y03127525D01*
X06132532Y03126726D01*
X06131955Y03125940D01*
X06131360Y03125169D01*
X06130746Y03124413D01*
X06130114Y03123672D01*
X06129464Y03122946D01*
X06128796Y03122237D01*
X06128112Y03121544D01*
X06127410Y03120868D01*
X06126693Y03120209D01*
X06125959Y03119568D01*
X06125211Y03118945D01*
X06124447Y03118340D01*
X06123669Y03117754D01*
X06122877Y03117187D01*
X06122071Y03116640D01*
X06121252Y03116113D01*
X06120420Y03115605D01*
X06119577Y03115118D01*
X06118721Y03114652D01*
X06117855Y03114206D01*
X06116978Y03113782D01*
X06116091Y03113379D01*
X06115195Y03112998D01*
X06114289Y03112639D01*
X06113375Y03112302D01*
X06112453Y03111988D01*
X06111524Y03111696D01*
X06110588Y03111427D01*
X06109645Y03111180D01*
X06108697Y03110957D01*
X06107744Y03110757D01*
X06106786Y03110580D01*
X06105824Y03110426D01*
X06104859Y03110296D01*
X06103890Y03110190D01*
X06102920Y03110107D01*
X06101948Y03110047D01*
X06100974Y03110012D01*
X06100000Y03110000D01*
X06100000Y03035000D01*
X06800000Y03035000D01*
X06800000Y03265000D01*
X06100000Y03265000D01*
X06100000Y02715000D02*
X06100000Y02640000D01*
X06100974Y02639988D01*
X06101948Y02639953D01*
X06102920Y02639893D01*
X06103890Y02639810D01*
X06104859Y02639704D01*
X06105824Y02639574D01*
X06106786Y02639420D01*
X06107744Y02639243D01*
X06108697Y02639043D01*
X06109645Y02638820D01*
X06110588Y02638573D01*
X06111524Y02638304D01*
X06112453Y02638012D01*
X06113375Y02637698D01*
X06114289Y02637361D01*
X06115195Y02637002D01*
X06116091Y02636621D01*
X06116978Y02636218D01*
X06117855Y02635794D01*
X06118721Y02635348D01*
X06119577Y02634882D01*
X06120420Y02634395D01*
X06121252Y02633887D01*
X06122071Y02633360D01*
X06122877Y02632813D01*
X06123669Y02632246D01*
X06124447Y02631660D01*
X06125211Y02631055D01*
X06125959Y02630432D01*
X06126693Y02629791D01*
X06127410Y02629132D01*
X06128112Y02628456D01*
X06128796Y02627763D01*
X06129464Y02627054D01*
X06130114Y02626328D01*
X06130746Y02625587D01*
X06131360Y02624831D01*
X06131955Y02624060D01*
X06132532Y02623274D01*
X06133089Y02622475D01*
X06133626Y02621663D01*
X06134144Y02620838D01*
X06134641Y02620000D01*
X06135118Y02619151D01*
X06135574Y02618290D01*
X06136009Y02617418D01*
X06136422Y02616536D01*
X06136814Y02615644D01*
X06137184Y02614743D01*
X06137532Y02613833D01*
X06137858Y02612915D01*
X06138161Y02611990D01*
X06138442Y02611057D01*
X06138699Y02610117D01*
X06138934Y02609172D01*
X06139146Y02608221D01*
X06139335Y02607265D01*
X06139500Y02606305D01*
X06139642Y02605342D01*
X06139760Y02604375D01*
X06139855Y02603405D01*
X06139926Y02602434D01*
X06139973Y02601461D01*
X06139997Y02600487D01*
X06139997Y02599513D01*
X06139973Y02598539D01*
X06139926Y02597566D01*
X06139855Y02596595D01*
X06139760Y02595625D01*
X06139642Y02594658D01*
X06139500Y02593695D01*
X06139335Y02592735D01*
X06139146Y02591779D01*
X06138934Y02590828D01*
X06138699Y02589883D01*
X06138442Y02588943D01*
X06138161Y02588010D01*
X06137858Y02587085D01*
X06137532Y02586167D01*
X06137184Y02585257D01*
X06136814Y02584356D01*
X06136422Y02583464D01*
X06136009Y02582582D01*
X06135574Y02581710D01*
X06135118Y02580849D01*
X06134641Y02580000D01*
X06134144Y02579162D01*
X06133626Y02578337D01*
X06133089Y02577525D01*
X06132532Y02576726D01*
X06131955Y02575940D01*
X06131360Y02575169D01*
X06130746Y02574413D01*
X06130114Y02573672D01*
X06129464Y02572946D01*
X06128796Y02572237D01*
X06128112Y02571544D01*
X06127410Y02570868D01*
X06126693Y02570209D01*
X06125959Y02569568D01*
X06125211Y02568945D01*
X06124447Y02568340D01*
X06123669Y02567754D01*
X06122877Y02567187D01*
X06122071Y02566640D01*
X06121252Y02566113D01*
X06120420Y02565605D01*
X06119577Y02565118D01*
X06118721Y02564652D01*
X06117855Y02564206D01*
X06116978Y02563782D01*
X06116091Y02563379D01*
X06115195Y02562998D01*
X06114289Y02562639D01*
X06113375Y02562302D01*
X06112453Y02561988D01*
X06111524Y02561696D01*
X06110588Y02561427D01*
X06109645Y02561180D01*
X06108697Y02560957D01*
X06107744Y02560757D01*
X06106786Y02560580D01*
X06105824Y02560426D01*
X06104859Y02560296D01*
X06103890Y02560190D01*
X06102920Y02560107D01*
X06101948Y02560047D01*
X06100974Y02560012D01*
X06100000Y02560000D01*
X06100000Y02485000D01*
X06800000Y02485000D01*
X06800000Y02715000D01*
X06100000Y02715000D01*
X05800000Y02165000D02*
X05800000Y02090000D01*
X05800974Y02089988D01*
X05801948Y02089953D01*
X05802920Y02089893D01*
X05803890Y02089810D01*
X05804859Y02089704D01*
X05805824Y02089574D01*
X05806786Y02089420D01*
X05807744Y02089243D01*
X05808697Y02089043D01*
X05809645Y02088820D01*
X05810588Y02088573D01*
X05811524Y02088304D01*
X05812453Y02088012D01*
X05813375Y02087698D01*
X05814289Y02087361D01*
X05815195Y02087002D01*
X05816091Y02086621D01*
X05816978Y02086218D01*
X05817855Y02085794D01*
X05818721Y02085348D01*
X05819577Y02084882D01*
X05820420Y02084395D01*
X05821252Y02083887D01*
X05822071Y02083360D01*
X05822877Y02082813D01*
X05823669Y02082246D01*
X05824447Y02081660D01*
X05825211Y02081055D01*
X05825959Y02080432D01*
X05826693Y02079791D01*
X05827410Y02079132D01*
X05828112Y02078456D01*
X05828796Y02077763D01*
X05829464Y02077054D01*
X05830114Y02076328D01*
X05830746Y02075587D01*
X05831360Y02074831D01*
X05831955Y02074060D01*
X05832532Y02073274D01*
X05833089Y02072475D01*
X05833626Y02071663D01*
X05834144Y02070838D01*
X05834641Y02070000D01*
X05835118Y02069151D01*
X05835574Y02068290D01*
X05836009Y02067418D01*
X05836422Y02066536D01*
X05836814Y02065644D01*
X05837184Y02064743D01*
X05837532Y02063833D01*
X05837858Y02062915D01*
X05838161Y02061990D01*
X05838442Y02061057D01*
X05838699Y02060117D01*
X05838934Y02059172D01*
X05839146Y02058221D01*
X05839335Y02057265D01*
X05839500Y02056305D01*
X05839642Y02055342D01*
X05839760Y02054375D01*
X05839855Y02053405D01*
X05839926Y02052434D01*
X05839973Y02051461D01*
X05839997Y02050487D01*
X05839997Y02049513D01*
X05839973Y02048539D01*
X05839926Y02047566D01*
X05839855Y02046595D01*
X05839760Y02045625D01*
X05839642Y02044658D01*
X05839500Y02043695D01*
X05839335Y02042735D01*
X05839146Y02041779D01*
X05838934Y02040828D01*
X05838699Y02039883D01*
X05838442Y02038943D01*
X05838161Y02038010D01*
X05837858Y02037085D01*
X05837532Y02036167D01*
X05837184Y02035257D01*
X05836814Y02034356D01*
X05836422Y02033464D01*
X05836009Y02032582D01*
X05835574Y02031710D01*
X05835118Y02030849D01*
X05834641Y02030000D01*
X05834144Y02029162D01*
X05833626Y02028337D01*
X05833089Y02027525D01*
X05832532Y02026726D01*
X05831955Y02025940D01*
X05831360Y02025169D01*
X05830746Y02024413D01*
X05830114Y02023672D01*
X05829464Y02022946D01*
X05828796Y02022237D01*
X05828112Y02021544D01*
X05827410Y02020868D01*
X05826693Y02020209D01*
X05825959Y02019568D01*
X05825211Y02018945D01*
X05824447Y02018340D01*
X05823669Y02017754D01*
X05822877Y02017187D01*
X05822071Y02016640D01*
X05821252Y02016113D01*
X05820420Y02015605D01*
X05819577Y02015118D01*
X05818721Y02014652D01*
X05817855Y02014206D01*
X05816978Y02013782D01*
X05816091Y02013379D01*
X05815195Y02012998D01*
X05814289Y02012639D01*
X05813375Y02012302D01*
X05812453Y02011988D01*
X05811524Y02011696D01*
X05810588Y02011427D01*
X05809645Y02011180D01*
X05808697Y02010957D01*
X05807744Y02010757D01*
X05806786Y02010580D01*
X05805824Y02010426D01*
X05804859Y02010296D01*
X05803890Y02010190D01*
X05802920Y02010107D01*
X05801948Y02010047D01*
X05800974Y02010012D01*
X05800000Y02010000D01*
X05800000Y01935000D01*
X06800000Y01935000D01*
X06800000Y02165000D01*
X05800000Y02165000D01*
X05800000Y01615000D02*
X05800000Y01540000D01*
X05800974Y01539988D01*
X05801948Y01539953D01*
X05802920Y01539893D01*
X05803890Y01539810D01*
X05804859Y01539704D01*
X05805824Y01539574D01*
X05806786Y01539420D01*
X05807744Y01539243D01*
X05808697Y01539043D01*
X05809645Y01538820D01*
X05810588Y01538573D01*
X05811524Y01538304D01*
X05812453Y01538012D01*
X05813375Y01537698D01*
X05814289Y01537361D01*
X05815195Y01537002D01*
X05816091Y01536621D01*
X05816978Y01536218D01*
X05817855Y01535794D01*
X05818721Y01535348D01*
X05819577Y01534882D01*
X05820420Y01534395D01*
X05821252Y01533887D01*
X05822071Y01533360D01*
X05822877Y01532813D01*
X05823669Y01532246D01*
X05824447Y01531660D01*
X05825211Y01531055D01*
X05825959Y01530432D01*
X05826693Y01529791D01*
X05827410Y01529132D01*
X05828112Y01528456D01*
X05828796Y01527763D01*
X05829464Y01527054D01*
X05830114Y01526328D01*
X05830746Y01525587D01*
X05831360Y01524831D01*
X05831955Y01524060D01*
X05832532Y01523274D01*
X05833089Y01522475D01*
X05833626Y01521663D01*
X05834144Y01520838D01*
X05834641Y01520000D01*
X05835118Y01519151D01*
X05835574Y01518290D01*
X05836009Y01517418D01*
X05836422Y01516536D01*
X05836814Y01515644D01*
X05837184Y01514743D01*
X05837532Y01513833D01*
X05837858Y01512915D01*
X05838161Y01511990D01*
X05838442Y01511057D01*
X05838699Y01510117D01*
X05838934Y01509172D01*
X05839146Y01508221D01*
X05839335Y01507265D01*
X05839500Y01506305D01*
X05839642Y01505342D01*
X05839760Y01504375D01*
X05839855Y01503405D01*
X05839926Y01502434D01*
X05839973Y01501461D01*
X05839997Y01500487D01*
X05839997Y01499513D01*
X05839973Y01498539D01*
X05839926Y01497566D01*
X05839855Y01496595D01*
X05839760Y01495625D01*
X05839642Y01494658D01*
X05839500Y01493695D01*
X05839335Y01492735D01*
X05839146Y01491779D01*
X05838934Y01490828D01*
X05838699Y01489883D01*
X05838442Y01488943D01*
X05838161Y01488010D01*
X05837858Y01487085D01*
X05837532Y01486167D01*
X05837184Y01485257D01*
X05836814Y01484356D01*
X05836422Y01483464D01*
X05836009Y01482582D01*
X05835574Y01481710D01*
X05835118Y01480849D01*
X05834641Y01480000D01*
X05834144Y01479162D01*
X05833626Y01478337D01*
X05833089Y01477525D01*
X05832532Y01476726D01*
X05831955Y01475940D01*
X05831360Y01475169D01*
X05830746Y01474413D01*
X05830114Y01473672D01*
X05829464Y01472946D01*
X05828796Y01472237D01*
X05828112Y01471544D01*
X05827410Y01470868D01*
X05826693Y01470209D01*
X05825959Y01469568D01*
X05825211Y01468945D01*
X05824447Y01468340D01*
X05823669Y01467754D01*
X05822877Y01467187D01*
X05822071Y01466640D01*
X05821252Y01466113D01*
X05820420Y01465605D01*
X05819577Y01465118D01*
X05818721Y01464652D01*
X05817855Y01464206D01*
X05816978Y01463782D01*
X05816091Y01463379D01*
X05815195Y01462998D01*
X05814289Y01462639D01*
X05813375Y01462302D01*
X05812453Y01461988D01*
X05811524Y01461696D01*
X05810588Y01461427D01*
X05809645Y01461180D01*
X05808697Y01460957D01*
X05807744Y01460757D01*
X05806786Y01460580D01*
X05805824Y01460426D01*
X05804859Y01460296D01*
X05803890Y01460190D01*
X05802920Y01460107D01*
X05801948Y01460047D01*
X05800974Y01460012D01*
X05800000Y01460000D01*
X05800000Y01385000D01*
X06800000Y01385000D01*
X06800000Y01615000D01*
X05800000Y01615000D01*
X06100000Y01015000D02*
X06100000Y00940000D01*
X06100974Y00939988D01*
X06101948Y00939953D01*
X06102920Y00939893D01*
X06103890Y00939810D01*
X06104859Y00939704D01*
X06105824Y00939574D01*
X06106786Y00939420D01*
X06107744Y00939243D01*
X06108697Y00939043D01*
X06109645Y00938820D01*
X06110588Y00938573D01*
X06111524Y00938304D01*
X06112453Y00938012D01*
X06113375Y00937698D01*
X06114289Y00937361D01*
X06115195Y00937002D01*
X06116091Y00936621D01*
X06116978Y00936218D01*
X06117855Y00935794D01*
X06118721Y00935348D01*
X06119577Y00934882D01*
X06120420Y00934395D01*
X06121252Y00933887D01*
X06122071Y00933360D01*
X06122877Y00932813D01*
X06123669Y00932246D01*
X06124447Y00931660D01*
X06125211Y00931055D01*
X06125959Y00930432D01*
X06126693Y00929791D01*
X06127410Y00929132D01*
X06128112Y00928456D01*
X06128796Y00927763D01*
X06129464Y00927054D01*
X06130114Y00926328D01*
X06130746Y00925587D01*
X06131360Y00924831D01*
X06131955Y00924060D01*
X06132532Y00923274D01*
X06133089Y00922475D01*
X06133626Y00921663D01*
X06134144Y00920838D01*
X06134641Y00920000D01*
X06135118Y00919151D01*
X06135574Y00918290D01*
X06136009Y00917418D01*
X06136422Y00916536D01*
X06136814Y00915644D01*
X06137184Y00914743D01*
X06137532Y00913833D01*
X06137858Y00912915D01*
X06138161Y00911990D01*
X06138442Y00911057D01*
X06138699Y00910117D01*
X06138934Y00909172D01*
X06139146Y00908221D01*
X06139335Y00907265D01*
X06139500Y00906305D01*
X06139642Y00905342D01*
X06139760Y00904375D01*
X06139855Y00903405D01*
X06139926Y00902434D01*
X06139973Y00901461D01*
X06139997Y00900487D01*
X06139997Y00899513D01*
X06139973Y00898539D01*
X06139926Y00897566D01*
X06139855Y00896595D01*
X06139760Y00895625D01*
X06139642Y00894658D01*
X06139500Y00893695D01*
X06139335Y00892735D01*
X06139146Y00891779D01*
X06138934Y00890828D01*
X06138699Y00889883D01*
X06138442Y00888943D01*
X06138161Y00888010D01*
X06137858Y00887085D01*
X06137532Y00886167D01*
X06137184Y00885257D01*
X06136814Y00884356D01*
X06136422Y00883464D01*
X06136009Y00882582D01*
X06135574Y00881710D01*
X06135118Y00880849D01*
X06134641Y00880000D01*
X06134144Y00879162D01*
X06133626Y00878337D01*
X06133089Y00877525D01*
X06132532Y00876726D01*
X06131955Y00875940D01*
X06131360Y00875169D01*
X06130746Y00874413D01*
X06130114Y00873672D01*
X06129464Y00872946D01*
X06128796Y00872237D01*
X06128112Y00871544D01*
X06127410Y00870868D01*
X06126693Y00870209D01*
X06125959Y00869568D01*
X06125211Y00868945D01*
X06124447Y00868340D01*
X06123669Y00867754D01*
X06122877Y00867187D01*
X06122071Y00866640D01*
X06121252Y00866113D01*
X06120420Y00865605D01*
X06119577Y00865118D01*
X06118721Y00864652D01*
X06117855Y00864206D01*
X06116978Y00863782D01*
X06116091Y00863379D01*
X06115195Y00862998D01*
X06114289Y00862639D01*
X06113375Y00862302D01*
X06112453Y00861988D01*
X06111524Y00861696D01*
X06110588Y00861427D01*
X06109645Y00861180D01*
X06108697Y00860957D01*
X06107744Y00860757D01*
X06106786Y00860580D01*
X06105824Y00860426D01*
X06104859Y00860296D01*
X06103890Y00860190D01*
X06102920Y00860107D01*
X06101948Y00860047D01*
X06100974Y00860012D01*
X06100000Y00860000D01*
X06100000Y00785000D01*
X06800000Y00785000D01*
X06800000Y01015000D01*
X06100000Y01015000D01*
X06100000Y00465000D02*
X06100000Y00390000D01*
X06100974Y00389988D01*
X06101948Y00389953D01*
X06102920Y00389893D01*
X06103890Y00389810D01*
X06104859Y00389704D01*
X06105824Y00389574D01*
X06106786Y00389420D01*
X06107744Y00389243D01*
X06108697Y00389043D01*
X06109645Y00388820D01*
X06110588Y00388573D01*
X06111524Y00388304D01*
X06112453Y00388012D01*
X06113375Y00387698D01*
X06114289Y00387361D01*
X06115195Y00387002D01*
X06116091Y00386621D01*
X06116978Y00386218D01*
X06117855Y00385794D01*
X06118721Y00385348D01*
X06119577Y00384882D01*
X06120420Y00384395D01*
X06121252Y00383887D01*
X06122071Y00383360D01*
X06122877Y00382813D01*
X06123669Y00382246D01*
X06124447Y00381660D01*
X06125211Y00381055D01*
X06125959Y00380432D01*
X06126693Y00379791D01*
X06127410Y00379132D01*
X06128112Y00378456D01*
X06128796Y00377763D01*
X06129464Y00377054D01*
X06130114Y00376328D01*
X06130746Y00375587D01*
X06131360Y00374831D01*
X06131955Y00374060D01*
X06132532Y00373274D01*
X06133089Y00372475D01*
X06133626Y00371663D01*
X06134144Y00370838D01*
X06134641Y00370000D01*
X06135118Y00369151D01*
X06135574Y00368290D01*
X06136009Y00367418D01*
X06136422Y00366536D01*
X06136814Y00365644D01*
X06137184Y00364743D01*
X06137532Y00363833D01*
X06137858Y00362915D01*
X06138161Y00361990D01*
X06138442Y00361057D01*
X06138699Y00360117D01*
X06138934Y00359172D01*
X06139146Y00358221D01*
X06139335Y00357265D01*
X06139500Y00356305D01*
X06139642Y00355342D01*
X06139760Y00354375D01*
X06139855Y00353405D01*
X06139926Y00352434D01*
X06139973Y00351461D01*
X06139997Y00350487D01*
X06139997Y00349513D01*
X06139973Y00348539D01*
X06139926Y00347566D01*
X06139855Y00346595D01*
X06139760Y00345625D01*
X06139642Y00344658D01*
X06139500Y00343695D01*
X06139335Y00342735D01*
X06139146Y00341779D01*
X06138934Y00340828D01*
X06138699Y00339883D01*
X06138442Y00338943D01*
X06138161Y00338010D01*
X06137858Y00337085D01*
X06137532Y00336167D01*
X06137184Y00335257D01*
X06136814Y00334356D01*
X06136422Y00333464D01*
X06136009Y00332582D01*
X06135574Y00331710D01*
X06135118Y00330849D01*
X06134641Y00330000D01*
X06134144Y00329162D01*
X06133626Y00328337D01*
X06133089Y00327525D01*
X06132532Y00326726D01*
X06131955Y00325940D01*
X06131360Y00325169D01*
X06130746Y00324413D01*
X06130114Y00323672D01*
X06129464Y00322946D01*
X06128796Y00322237D01*
X06128112Y00321544D01*
X06127410Y00320868D01*
X06126693Y00320209D01*
X06125959Y00319568D01*
X06125211Y00318945D01*
X06124447Y00318340D01*
X06123669Y00317754D01*
X06122877Y00317187D01*
X06122071Y00316640D01*
X06121252Y00316113D01*
X06120420Y00315605D01*
X06119577Y00315118D01*
X06118721Y00314652D01*
X06117855Y00314206D01*
X06116978Y00313782D01*
X06116091Y00313379D01*
X06115195Y00312998D01*
X06114289Y00312639D01*
X06113375Y00312302D01*
X06112453Y00311988D01*
X06111524Y00311696D01*
X06110588Y00311427D01*
X06109645Y00311180D01*
X06108697Y00310957D01*
X06107744Y00310757D01*
X06106786Y00310580D01*
X06105824Y00310426D01*
X06104859Y00310296D01*
X06103890Y00310190D01*
X06102920Y00310107D01*
X06101948Y00310047D01*
X06100974Y00310012D01*
X06100000Y00310000D01*
X06100000Y00235000D01*
X06800000Y00235000D01*
X06800000Y00465000D01*
X06100000Y00465000D01*
X05800000Y04085000D02*
X05800000Y04160000D01*
X05800974Y04160012D01*
X05801948Y04160047D01*
X05802920Y04160107D01*
X05803890Y04160190D01*
X05804859Y04160296D01*
X05805824Y04160426D01*
X05806786Y04160580D01*
X05807744Y04160757D01*
X05808697Y04160957D01*
X05809645Y04161180D01*
X05810588Y04161427D01*
X05811524Y04161696D01*
X05812453Y04161988D01*
X05813375Y04162302D01*
X05814289Y04162639D01*
X05815195Y04162998D01*
X05816091Y04163379D01*
X05816978Y04163782D01*
X05817855Y04164206D01*
X05818721Y04164652D01*
X05819577Y04165118D01*
X05820420Y04165605D01*
X05821252Y04166113D01*
X05822071Y04166640D01*
X05822877Y04167187D01*
X05823669Y04167754D01*
X05824447Y04168340D01*
X05825211Y04168945D01*
X05825959Y04169568D01*
X05826693Y04170209D01*
X05827410Y04170868D01*
X05828112Y04171544D01*
X05828796Y04172237D01*
X05829464Y04172946D01*
X05830114Y04173672D01*
X05830746Y04174413D01*
X05831360Y04175169D01*
X05831955Y04175940D01*
X05832532Y04176726D01*
X05833089Y04177525D01*
X05833626Y04178337D01*
X05834144Y04179162D01*
X05834641Y04180000D01*
X05835118Y04180849D01*
X05835574Y04181710D01*
X05836009Y04182582D01*
X05836422Y04183464D01*
X05836814Y04184356D01*
X05837184Y04185257D01*
X05837532Y04186167D01*
X05837858Y04187085D01*
X05838161Y04188010D01*
X05838442Y04188943D01*
X05838699Y04189883D01*
X05838934Y04190828D01*
X05839146Y04191779D01*
X05839335Y04192735D01*
X05839500Y04193695D01*
X05839642Y04194658D01*
X05839760Y04195625D01*
X05839855Y04196595D01*
X05839926Y04197566D01*
X05839973Y04198539D01*
X05839997Y04199513D01*
X05839997Y04200487D01*
X05839973Y04201461D01*
X05839926Y04202434D01*
X05839855Y04203405D01*
X05839760Y04204375D01*
X05839642Y04205342D01*
X05839500Y04206305D01*
X05839335Y04207265D01*
X05839146Y04208221D01*
X05838934Y04209172D01*
X05838699Y04210117D01*
X05838442Y04211057D01*
X05838161Y04211990D01*
X05837858Y04212915D01*
X05837532Y04213833D01*
X05837184Y04214743D01*
X05836814Y04215644D01*
X05836422Y04216536D01*
X05836009Y04217418D01*
X05835574Y04218290D01*
X05835118Y04219151D01*
X05834641Y04220000D01*
X05834144Y04220838D01*
X05833626Y04221663D01*
X05833089Y04222475D01*
X05832532Y04223274D01*
X05831955Y04224060D01*
X05831360Y04224831D01*
X05830746Y04225587D01*
X05830114Y04226328D01*
X05829464Y04227054D01*
X05828796Y04227763D01*
X05828112Y04228456D01*
X05827410Y04229132D01*
X05826693Y04229791D01*
X05825959Y04230432D01*
X05825211Y04231055D01*
X05824447Y04231660D01*
X05823669Y04232246D01*
X05822877Y04232813D01*
X05822071Y04233360D01*
X05821252Y04233887D01*
X05820420Y04234395D01*
X05819577Y04234882D01*
X05818721Y04235348D01*
X05817855Y04235794D01*
X05816978Y04236218D01*
X05816091Y04236621D01*
X05815195Y04237002D01*
X05814289Y04237361D01*
X05813375Y04237698D01*
X05812453Y04238012D01*
X05811524Y04238304D01*
X05810588Y04238573D01*
X05809645Y04238820D01*
X05808697Y04239043D01*
X05807744Y04239243D01*
X05806786Y04239420D01*
X05805824Y04239574D01*
X05804859Y04239704D01*
X05803890Y04239810D01*
X05802920Y04239893D01*
X05801948Y04239953D01*
X05800974Y04239988D01*
X05800000Y04240000D01*
X05800000Y04315000D01*
X06800000Y04315000D01*
X06800000Y04085000D01*
X05800000Y04085000D01*
D12*
X04932500Y04082500D02*
X04932500Y04097513D01*
X04932500Y04090006D02*
X04887462Y04090006D01*
X04887462Y04082500D02*
X04887462Y04097513D01*
X04894968Y04113193D02*
X04924994Y04113193D01*
X04932500Y04120699D01*
X04932500Y04135712D01*
X04924994Y04143218D01*
X04932500Y04159232D02*
X04932500Y04189258D01*
X04932500Y04174245D02*
X04887462Y04174245D01*
X04902474Y04159232D01*
X04894968Y04143218D02*
X04887462Y04135712D01*
X04887462Y04120699D01*
X04894968Y04113193D01*
X04894968Y04205271D02*
X04887462Y04212778D01*
X04887462Y04227790D01*
X04894968Y04235297D01*
X04902474Y04235297D01*
X04932500Y04205271D01*
X04932500Y04235297D01*
X04182500Y04158565D02*
X04182500Y04128539D01*
X04182500Y04143552D02*
X04137462Y04143552D01*
X04152474Y04128539D01*
X04137462Y04112526D02*
X04167487Y04112526D01*
X04182500Y04097513D01*
X04167487Y04082500D01*
X04137462Y04082500D01*
X03432500Y04082500D02*
X03432500Y04097513D01*
X03432500Y04090006D02*
X03387462Y04090006D01*
X03387462Y04082500D02*
X03387462Y04097513D01*
X03394968Y04113193D02*
X03424994Y04113193D01*
X03432500Y04120699D01*
X03432500Y04135712D01*
X03424994Y04143218D01*
X03432500Y04159232D02*
X03402474Y04189258D01*
X03394968Y04189258D01*
X03387462Y04181751D01*
X03387462Y04166738D01*
X03394968Y04159232D01*
X03394968Y04143218D02*
X03387462Y04135712D01*
X03387462Y04120699D01*
X03394968Y04113193D01*
X03432500Y04159232D02*
X03432500Y04189258D01*
X03409981Y04205271D02*
X03409981Y04235297D01*
X03432500Y04227790D02*
X03387462Y04227790D01*
X03409981Y04205271D01*
X02632500Y04212778D02*
X02624994Y04205271D01*
X02632500Y04212778D02*
X02632500Y04227790D01*
X02624994Y04235297D01*
X02609981Y04235297D01*
X02602474Y04227790D01*
X02602474Y04220284D01*
X02609981Y04205271D01*
X02587462Y04205271D01*
X02587462Y04235297D01*
X02594968Y04189258D02*
X02587462Y04181751D01*
X02587462Y04166738D01*
X02594968Y04159232D01*
X02594968Y04143218D02*
X02587462Y04135712D01*
X02587462Y04120699D01*
X02594968Y04113193D01*
X02624994Y04113193D01*
X02632500Y04120699D01*
X02632500Y04135712D01*
X02624994Y04143218D01*
X02632500Y04159232D02*
X02602474Y04189258D01*
X02594968Y04189258D01*
X02632500Y04189258D02*
X02632500Y04159232D01*
X02632500Y04097513D02*
X02632500Y04082500D01*
X02632500Y04090006D02*
X02587462Y04090006D01*
X02587462Y04082500D02*
X02587462Y04097513D01*
X01832500Y04097513D02*
X01832500Y04082500D01*
X01832500Y04090006D02*
X01787462Y04090006D01*
X01787462Y04082500D02*
X01787462Y04097513D01*
X01794968Y04113193D02*
X01824994Y04113193D01*
X01832500Y04120699D01*
X01832500Y04135712D01*
X01824994Y04143218D01*
X01824994Y04159232D02*
X01832500Y04166738D01*
X01832500Y04181751D01*
X01824994Y04189258D01*
X01817487Y04189258D01*
X01809981Y04181751D01*
X01809981Y04174245D01*
X01809981Y04181751D02*
X01802474Y04189258D01*
X01794968Y04189258D01*
X01787462Y04181751D01*
X01787462Y04166738D01*
X01794968Y04159232D01*
X01794968Y04143218D02*
X01787462Y04135712D01*
X01787462Y04120699D01*
X01794968Y04113193D01*
X01794968Y04205271D02*
X01802474Y04205271D01*
X01809981Y04212778D01*
X01809981Y04235297D01*
X01824994Y04235297D02*
X01794968Y04235297D01*
X01787462Y04227790D01*
X01787462Y04212778D01*
X01794968Y04205271D01*
X01824994Y04205271D02*
X01832500Y04212778D01*
X01832500Y04227790D01*
X01824994Y04235297D01*
X00974604Y04485006D02*
X00967098Y04477500D01*
X00952085Y04477500D01*
X00944578Y04485006D01*
X00928565Y04477500D02*
X00928565Y04522538D01*
X00944578Y04515032D02*
X00952085Y04522538D01*
X00967098Y04522538D01*
X00974604Y04515032D01*
X00974604Y04507526D01*
X00967098Y04500019D01*
X00974604Y04492513D01*
X00974604Y04485006D01*
X00967098Y04500019D02*
X00959591Y04500019D01*
X00928565Y04477500D02*
X00898539Y04522538D01*
X00898539Y04477500D01*
X00882526Y04477500D02*
X00867513Y04492513D01*
X00875019Y04492513D02*
X00852500Y04492513D01*
X00852500Y04477500D02*
X00852500Y04522538D01*
X00875019Y04522538D01*
X00882526Y04515032D01*
X00882526Y04500019D01*
X00875019Y04492513D01*
X00875019Y03822538D02*
X00852500Y03822538D01*
X00852500Y03777500D01*
X00852500Y03792513D02*
X00875019Y03792513D01*
X00882526Y03800019D01*
X00882526Y03815032D01*
X00875019Y03822538D01*
X00898539Y03822538D02*
X00928565Y03777500D01*
X00928565Y03822538D01*
X00944578Y03800019D02*
X00974604Y03800019D01*
X00967098Y03777500D02*
X00967098Y03822538D01*
X00944578Y03800019D01*
X00898539Y03777500D02*
X00898539Y03822538D01*
X00867513Y03792513D02*
X00882526Y03777500D01*
X00072500Y03586486D02*
X00072500Y03556461D01*
X00072500Y03571473D02*
X00027462Y03571473D01*
X00042474Y03556461D01*
X00027462Y03540447D02*
X00072500Y03510421D01*
X00072500Y03540447D02*
X00027462Y03510421D01*
X01887462Y03132790D02*
X01894968Y03140297D01*
X01924994Y03110271D01*
X01932500Y03117778D01*
X01932500Y03132790D01*
X01924994Y03140297D01*
X01894968Y03140297D01*
X01887462Y03132790D02*
X01887462Y03117778D01*
X01894968Y03110271D01*
X01924994Y03110271D01*
X01909981Y03094258D02*
X01909981Y03064232D01*
X01887462Y03086751D01*
X01932500Y03086751D01*
X01924994Y03048218D02*
X01932500Y03040712D01*
X01932500Y03025699D01*
X01924994Y03018193D01*
X01894968Y03018193D01*
X01887462Y03025699D01*
X01887462Y03040712D01*
X01894968Y03048218D01*
X01887462Y03002513D02*
X01887462Y02987500D01*
X01887462Y02995006D02*
X01932500Y02995006D01*
X01932500Y02987500D02*
X01932500Y03002513D01*
X02587462Y02632790D02*
X02594968Y02640297D01*
X02602474Y02640297D01*
X02609981Y02632790D01*
X02617487Y02640297D01*
X02624994Y02640297D01*
X02632500Y02632790D01*
X02632500Y02617778D01*
X02624994Y02610271D01*
X02632500Y02594258D02*
X02632500Y02564232D01*
X02602474Y02594258D01*
X02594968Y02594258D01*
X02587462Y02586751D01*
X02587462Y02571738D01*
X02594968Y02564232D01*
X02594968Y02548218D02*
X02587462Y02540712D01*
X02587462Y02525699D01*
X02594968Y02518193D01*
X02624994Y02518193D01*
X02632500Y02525699D01*
X02632500Y02540712D01*
X02624994Y02548218D01*
X02632500Y02502513D02*
X02632500Y02487500D01*
X02632500Y02495006D02*
X02587462Y02495006D01*
X02587462Y02487500D02*
X02587462Y02502513D01*
X02594968Y02610271D02*
X02587462Y02617778D01*
X02587462Y02632790D01*
X02609981Y02632790D02*
X02609981Y02625284D01*
X02787462Y02987500D02*
X02787462Y03002513D01*
X02787462Y02995006D02*
X02832500Y02995006D01*
X02832500Y02987500D02*
X02832500Y03002513D01*
X02824994Y03018193D02*
X02832500Y03025699D01*
X02832500Y03040712D01*
X02824994Y03048218D01*
X02824994Y03064232D02*
X02832500Y03071738D01*
X02832500Y03086751D01*
X02824994Y03094258D01*
X02817487Y03094258D01*
X02809981Y03086751D01*
X02809981Y03079245D01*
X02809981Y03086751D02*
X02802474Y03094258D01*
X02794968Y03094258D01*
X02787462Y03086751D01*
X02787462Y03071738D01*
X02794968Y03064232D01*
X02794968Y03048218D02*
X02787462Y03040712D01*
X02787462Y03025699D01*
X02794968Y03018193D01*
X02824994Y03018193D01*
X02824994Y03110271D02*
X02832500Y03110271D01*
X02824994Y03110271D02*
X02794968Y03140297D01*
X02787462Y03140297D01*
X02787462Y03110271D01*
X02987462Y03482500D02*
X02987462Y03497513D01*
X02987462Y03490006D02*
X03032500Y03490006D01*
X03032500Y03482500D02*
X03032500Y03497513D01*
X03024994Y03513193D02*
X03032500Y03520699D01*
X03032500Y03535712D01*
X03024994Y03543218D01*
X03032500Y03559232D02*
X03002474Y03589258D01*
X02994968Y03589258D01*
X02987462Y03581751D01*
X02987462Y03566738D01*
X02994968Y03559232D01*
X02994968Y03543218D02*
X02987462Y03535712D01*
X02987462Y03520699D01*
X02994968Y03513193D01*
X03024994Y03513193D01*
X03032500Y03559232D02*
X03032500Y03589258D01*
X03032500Y03605271D02*
X03024994Y03605271D01*
X02994968Y03635297D01*
X02987462Y03635297D01*
X02987462Y03605271D01*
X03787462Y03551058D02*
X03787462Y03536046D01*
X03794968Y03528539D01*
X03787462Y03512526D02*
X03817487Y03512526D01*
X03832500Y03497513D01*
X03817487Y03482500D01*
X03787462Y03482500D01*
X03832500Y03528539D02*
X03802474Y03558565D01*
X03794968Y03558565D01*
X03787462Y03551058D01*
X03832500Y03558565D02*
X03832500Y03528539D01*
X03732500Y03094258D02*
X03732500Y03064232D01*
X03702474Y03094258D01*
X03694968Y03094258D01*
X03687462Y03086751D01*
X03687462Y03071738D01*
X03694968Y03064232D01*
X03694968Y03048218D02*
X03687462Y03040712D01*
X03687462Y03025699D01*
X03694968Y03018193D01*
X03724994Y03018193D01*
X03732500Y03025699D01*
X03732500Y03040712D01*
X03724994Y03048218D01*
X03732500Y03002513D02*
X03732500Y02987500D01*
X03732500Y02995006D02*
X03687462Y02995006D01*
X03687462Y02987500D02*
X03687462Y03002513D01*
X04787462Y03037500D02*
X04787462Y03052513D01*
X04787462Y03045006D02*
X04832500Y03045006D01*
X04832500Y03037500D02*
X04832500Y03052513D01*
X04824994Y03068193D02*
X04832500Y03075699D01*
X04832500Y03090712D01*
X04824994Y03098218D01*
X04824994Y03114232D02*
X04832500Y03121738D01*
X04832500Y03136751D01*
X04824994Y03144258D01*
X04817487Y03144258D01*
X04809981Y03136751D01*
X04809981Y03129245D01*
X04809981Y03136751D02*
X04802474Y03144258D01*
X04794968Y03144258D01*
X04787462Y03136751D01*
X04787462Y03121738D01*
X04794968Y03114232D01*
X04794968Y03098218D02*
X04787462Y03090712D01*
X04787462Y03075699D01*
X04794968Y03068193D01*
X04824994Y03068193D01*
X04824994Y03160271D02*
X04809981Y03160271D01*
X04809981Y03182790D01*
X04817487Y03190297D01*
X04824994Y03190297D01*
X04832500Y03182790D01*
X04832500Y03167778D01*
X04824994Y03160271D01*
X04809981Y03160271D02*
X04794968Y03175284D01*
X04787462Y03190297D01*
X04887462Y03532500D02*
X04887462Y03547513D01*
X04887462Y03540006D02*
X04932500Y03540006D01*
X04932500Y03532500D02*
X04932500Y03547513D01*
X04924994Y03563193D02*
X04932500Y03570699D01*
X04932500Y03585712D01*
X04924994Y03593218D01*
X04932500Y03609232D02*
X04932500Y03639258D01*
X04932500Y03624245D02*
X04887462Y03624245D01*
X04902474Y03609232D01*
X04894968Y03593218D02*
X04887462Y03585712D01*
X04887462Y03570699D01*
X04894968Y03563193D01*
X04924994Y03563193D01*
X04932500Y03655271D02*
X04932500Y03685297D01*
X04932500Y03670284D02*
X04887462Y03670284D01*
X04902474Y03655271D01*
X06037462Y03139258D02*
X06037462Y03109232D01*
X06059981Y03109232D01*
X06052474Y03124245D01*
X06052474Y03131751D01*
X06059981Y03139258D01*
X06074994Y03139258D01*
X06082500Y03131751D01*
X06082500Y03116738D01*
X06074994Y03109232D01*
X06074994Y03093218D02*
X06082500Y03085712D01*
X06082500Y03070699D01*
X06074994Y03063193D01*
X06044968Y03063193D01*
X06037462Y03070699D01*
X06037462Y03085712D01*
X06044968Y03093218D01*
X06037462Y03047513D02*
X06037462Y03032500D01*
X06037462Y03040006D02*
X06082500Y03040006D01*
X06082500Y03032500D02*
X06082500Y03047513D01*
X06074994Y02589258D02*
X06067487Y02589258D01*
X06059981Y02581751D01*
X06059981Y02559232D01*
X06074994Y02559232D01*
X06082500Y02566738D01*
X06082500Y02581751D01*
X06074994Y02589258D01*
X06044968Y02574245D02*
X06059981Y02559232D01*
X06044968Y02574245D02*
X06037462Y02589258D01*
X06044968Y02543218D02*
X06037462Y02535712D01*
X06037462Y02520699D01*
X06044968Y02513193D01*
X06074994Y02513193D01*
X06082500Y02520699D01*
X06082500Y02535712D01*
X06074994Y02543218D01*
X06082500Y02497513D02*
X06082500Y02482500D01*
X06082500Y02490006D02*
X06037462Y02490006D01*
X06037462Y02482500D02*
X06037462Y02497513D01*
X04832500Y02495006D02*
X04787462Y02495006D01*
X04787462Y02487500D02*
X04787462Y02502513D01*
X04794968Y02518193D02*
X04824994Y02518193D01*
X04832500Y02525699D01*
X04832500Y02540712D01*
X04824994Y02548218D01*
X04832500Y02564232D02*
X04832500Y02594258D01*
X04832500Y02579245D02*
X04787462Y02579245D01*
X04802474Y02564232D01*
X04794968Y02548218D02*
X04787462Y02540712D01*
X04787462Y02525699D01*
X04794968Y02518193D01*
X04832500Y02502513D02*
X04832500Y02487500D01*
X03732500Y02082790D02*
X03724994Y02090297D01*
X03717487Y02090297D01*
X03709981Y02082790D01*
X03709981Y02060271D01*
X03724994Y02060271D01*
X03732500Y02067778D01*
X03732500Y02082790D01*
X03709981Y02060271D02*
X03694968Y02075284D01*
X03687462Y02090297D01*
X03694968Y02044258D02*
X03687462Y02036751D01*
X03687462Y02021738D01*
X03694968Y02014232D01*
X03694968Y01998218D02*
X03687462Y01990712D01*
X03687462Y01975699D01*
X03694968Y01968193D01*
X03724994Y01968193D01*
X03732500Y01975699D01*
X03732500Y01990712D01*
X03724994Y01998218D01*
X03732500Y02014232D02*
X03702474Y02044258D01*
X03694968Y02044258D01*
X03732500Y02044258D02*
X03732500Y02014232D01*
X03732500Y01952513D02*
X03732500Y01937500D01*
X03732500Y01945006D02*
X03687462Y01945006D01*
X03687462Y01937500D02*
X03687462Y01952513D01*
X03694968Y01540297D02*
X03702474Y01540297D01*
X03709981Y01532790D01*
X03709981Y01517778D01*
X03702474Y01510271D01*
X03694968Y01510271D01*
X03687462Y01517778D01*
X03687462Y01532790D01*
X03694968Y01540297D01*
X03709981Y01532790D02*
X03717487Y01540297D01*
X03724994Y01540297D01*
X03732500Y01532790D01*
X03732500Y01517778D01*
X03724994Y01510271D01*
X03717487Y01510271D01*
X03709981Y01517778D01*
X03702474Y01494258D02*
X03694968Y01494258D01*
X03687462Y01486751D01*
X03687462Y01471738D01*
X03694968Y01464232D01*
X03694968Y01448218D02*
X03687462Y01440712D01*
X03687462Y01425699D01*
X03694968Y01418193D01*
X03724994Y01418193D01*
X03732500Y01425699D01*
X03732500Y01440712D01*
X03724994Y01448218D01*
X03732500Y01464232D02*
X03702474Y01494258D01*
X03732500Y01494258D02*
X03732500Y01464232D01*
X03732500Y01402513D02*
X03732500Y01387500D01*
X03732500Y01395006D02*
X03687462Y01395006D01*
X03687462Y01387500D02*
X03687462Y01402513D01*
X02832500Y01394258D02*
X02832500Y01364232D01*
X02802474Y01394258D01*
X02794968Y01394258D01*
X02787462Y01386751D01*
X02787462Y01371738D01*
X02794968Y01364232D01*
X02794968Y01348218D02*
X02787462Y01340712D01*
X02787462Y01325699D01*
X02794968Y01318193D01*
X02824994Y01318193D01*
X02832500Y01325699D01*
X02832500Y01340712D01*
X02824994Y01348218D01*
X02832500Y01302513D02*
X02832500Y01287500D01*
X02832500Y01295006D02*
X02787462Y01295006D01*
X02787462Y01287500D02*
X02787462Y01302513D01*
X02794968Y01410271D02*
X02802474Y01410271D01*
X02809981Y01417778D01*
X02809981Y01440297D01*
X02824994Y01440297D02*
X02794968Y01440297D01*
X02787462Y01432790D01*
X02787462Y01417778D01*
X02794968Y01410271D01*
X02824994Y01410271D02*
X02832500Y01417778D01*
X02832500Y01432790D01*
X02824994Y01440297D01*
X02832500Y01937500D02*
X02832500Y01952513D01*
X02832500Y01945006D02*
X02787462Y01945006D01*
X02787462Y01937500D02*
X02787462Y01952513D01*
X02794968Y01968193D02*
X02824994Y01968193D01*
X02832500Y01975699D01*
X02832500Y01990712D01*
X02824994Y01998218D01*
X02832500Y02014232D02*
X02802474Y02044258D01*
X02794968Y02044258D01*
X02787462Y02036751D01*
X02787462Y02021738D01*
X02794968Y02014232D01*
X02794968Y01998218D02*
X02787462Y01990712D01*
X02787462Y01975699D01*
X02794968Y01968193D01*
X02832500Y02014232D02*
X02832500Y02044258D01*
X02832500Y02060271D02*
X02802474Y02090297D01*
X02794968Y02090297D01*
X02787462Y02082790D01*
X02787462Y02067778D01*
X02794968Y02060271D01*
X02832500Y02060271D02*
X02832500Y02090297D01*
X02824994Y00940297D02*
X02832500Y00932790D01*
X02832500Y00917778D01*
X02824994Y00910271D01*
X02794968Y00940297D01*
X02824994Y00940297D01*
X02824994Y00910271D02*
X02794968Y00910271D01*
X02787462Y00917778D01*
X02787462Y00932790D01*
X02794968Y00940297D01*
X02794968Y00894258D02*
X02802474Y00894258D01*
X02809981Y00886751D01*
X02817487Y00894258D01*
X02824994Y00894258D01*
X02832500Y00886751D01*
X02832500Y00871738D01*
X02824994Y00864232D01*
X02824994Y00848218D02*
X02832500Y00840712D01*
X02832500Y00825699D01*
X02824994Y00818193D01*
X02794968Y00818193D01*
X02787462Y00825699D01*
X02787462Y00840712D01*
X02794968Y00848218D01*
X02794968Y00864232D02*
X02787462Y00871738D01*
X02787462Y00886751D01*
X02794968Y00894258D01*
X02809981Y00886751D02*
X02809981Y00879245D01*
X02832500Y00802513D02*
X02832500Y00787500D01*
X02832500Y00795006D02*
X02787462Y00795006D01*
X02787462Y00787500D02*
X02787462Y00802513D01*
X02832500Y00390297D02*
X02832500Y00360271D01*
X02832500Y00375284D02*
X02787462Y00375284D01*
X02802474Y00360271D01*
X02802474Y00344258D02*
X02809981Y00336751D01*
X02817487Y00344258D01*
X02824994Y00344258D01*
X02832500Y00336751D01*
X02832500Y00321738D01*
X02824994Y00314232D01*
X02824994Y00298218D02*
X02832500Y00290712D01*
X02832500Y00275699D01*
X02824994Y00268193D01*
X02794968Y00268193D01*
X02787462Y00275699D01*
X02787462Y00290712D01*
X02794968Y00298218D01*
X02794968Y00314232D02*
X02787462Y00321738D01*
X02787462Y00336751D01*
X02794968Y00344258D01*
X02802474Y00344258D01*
X02809981Y00336751D02*
X02809981Y00329245D01*
X02832500Y00252513D02*
X02832500Y00237500D01*
X02832500Y00245006D02*
X02787462Y00245006D01*
X02787462Y00237500D02*
X02787462Y00252513D01*
X04887462Y00247513D02*
X04887462Y00232500D01*
X04887462Y00240006D02*
X04932500Y00240006D01*
X04932500Y00232500D02*
X04932500Y00247513D01*
X04924994Y00263193D02*
X04932500Y00270699D01*
X04932500Y00285712D01*
X04924994Y00293218D01*
X04924994Y00309232D02*
X04917487Y00309232D01*
X04909981Y00316738D01*
X04909981Y00331751D01*
X04917487Y00339258D01*
X04924994Y00339258D01*
X04932500Y00331751D01*
X04932500Y00316738D01*
X04924994Y00309232D01*
X04909981Y00316738D02*
X04902474Y00309232D01*
X04894968Y00309232D01*
X04887462Y00316738D01*
X04887462Y00331751D01*
X04894968Y00339258D01*
X04902474Y00339258D01*
X04909981Y00331751D01*
X04894968Y00293218D02*
X04887462Y00285712D01*
X04887462Y00270699D01*
X04894968Y00263193D01*
X04924994Y00263193D01*
X04932500Y00782500D02*
X04932500Y00797513D01*
X04932500Y00790006D02*
X04887462Y00790006D01*
X04887462Y00782500D02*
X04887462Y00797513D01*
X04894968Y00813193D02*
X04924994Y00813193D01*
X04932500Y00820699D01*
X04932500Y00835712D01*
X04924994Y00843218D01*
X04924994Y00859232D02*
X04932500Y00866738D01*
X04932500Y00881751D01*
X04924994Y00889258D01*
X04894968Y00889258D01*
X04887462Y00881751D01*
X04887462Y00866738D01*
X04894968Y00859232D01*
X04902474Y00859232D01*
X04909981Y00866738D01*
X04909981Y00889258D01*
X04894968Y00843218D02*
X04887462Y00835712D01*
X04887462Y00820699D01*
X04894968Y00813193D01*
X06037462Y00820699D02*
X06044968Y00813193D01*
X06074994Y00813193D01*
X06082500Y00820699D01*
X06082500Y00835712D01*
X06074994Y00843218D01*
X06074994Y00859232D02*
X06044968Y00889258D01*
X06037462Y00889258D01*
X06037462Y00859232D01*
X06044968Y00843218D02*
X06037462Y00835712D01*
X06037462Y00820699D01*
X06037462Y00797513D02*
X06037462Y00782500D01*
X06037462Y00790006D02*
X06082500Y00790006D01*
X06082500Y00782500D02*
X06082500Y00797513D01*
X06082500Y00859232D02*
X06074994Y00859232D01*
X06074994Y00385297D02*
X06044968Y00385297D01*
X06074994Y00355271D01*
X06082500Y00362778D01*
X06082500Y00377790D01*
X06074994Y00385297D01*
X06074994Y00355271D02*
X06044968Y00355271D01*
X06037462Y00362778D01*
X06037462Y00377790D01*
X06044968Y00385297D01*
X06082500Y00339258D02*
X06082500Y00309232D01*
X06082500Y00324245D02*
X06037462Y00324245D01*
X06052474Y00309232D01*
X06044968Y00293218D02*
X06037462Y00285712D01*
X06037462Y00270699D01*
X06044968Y00263193D01*
X06074994Y00263193D01*
X06082500Y00270699D01*
X06082500Y00285712D01*
X06074994Y00293218D01*
X06082500Y00247513D02*
X06082500Y00232500D01*
X06082500Y00240006D02*
X06037462Y00240006D01*
X06037462Y00232500D02*
X06037462Y00247513D01*
X02082500Y03487500D02*
X02082500Y03502513D01*
X02082500Y03495006D02*
X02037462Y03495006D01*
X02037462Y03487500D02*
X02037462Y03502513D01*
X02044968Y03518193D02*
X02074994Y03518193D01*
X02082500Y03525699D01*
X02082500Y03540712D01*
X02074994Y03548218D01*
X02059981Y03564232D02*
X02059981Y03594258D01*
X02082500Y03586751D02*
X02037462Y03586751D01*
X02059981Y03564232D01*
X02044968Y03548218D02*
X02037462Y03540712D01*
X02037462Y03525699D01*
X02044968Y03518193D01*
X-00177500Y01336485D02*
X-00192513Y01321473D01*
X-00192513Y01328979D02*
X-00192513Y01306460D01*
X-00177500Y01306460D02*
X-00222538Y01306460D01*
X-00222538Y01328979D01*
X-00215032Y01336485D01*
X-00200019Y01336485D01*
X-00192513Y01328979D01*
X-00200019Y01290446D02*
X-00200019Y01260421D01*
X-00207526Y01244407D02*
X-00215032Y01244407D01*
X-00222538Y01236900D01*
X-00222538Y01221888D01*
X-00215032Y01214381D01*
X-00207526Y01244407D02*
X-00177500Y01214381D01*
X-00177500Y01244407D01*
X-00177500Y01198368D02*
X-00177500Y01168342D01*
X-00177500Y01183355D02*
X-00222538Y01183355D01*
X-00207526Y01168342D01*
X-00222538Y01152328D02*
X-00215032Y01137316D01*
X-00200019Y01122303D01*
X-00200019Y01144822D01*
X-00192513Y01152328D01*
X-00185006Y01152328D01*
X-00177500Y01144822D01*
X-00177500Y01129809D01*
X-00185006Y01122303D01*
X-00200019Y01122303D01*
X-00177500Y01106289D02*
X-00177500Y01076264D01*
X-00177500Y01091276D02*
X-00222538Y01091276D01*
X-00207526Y01076264D01*
X-00200019Y01060250D02*
X-00200019Y01030224D01*
X-00222538Y01052743D01*
X-00177500Y01052743D01*
X-00177500Y01014211D02*
X-00222538Y01014211D01*
X-00222538Y00984185D02*
X-00177500Y01014211D01*
X-00177500Y00984185D02*
X-00222538Y00984185D01*
X-00222538Y00968505D02*
X-00222538Y00953492D01*
X-00222538Y00960999D02*
X-00177500Y00960999D01*
X-00177500Y00968505D02*
X-00177500Y00953492D01*
X-00185006Y00937479D02*
X-00215032Y00937479D01*
X-00222538Y00929972D01*
X-00222538Y00907453D01*
X-00177500Y00907453D01*
X-00177500Y00929972D01*
X-00185006Y00937479D01*
X00183967Y00632526D02*
X00198980Y00632526D01*
X00206486Y00625019D01*
X00206486Y00602500D01*
X00183967Y00602500D01*
X00176461Y00610006D01*
X00183967Y00617513D01*
X00206486Y00617513D01*
X00276461Y00632526D02*
X00298980Y00632526D01*
X00306486Y00625019D01*
X00306486Y00610006D01*
X00298980Y00602500D01*
X00276461Y00602500D01*
X00276461Y00647538D01*
X00376461Y00625019D02*
X00376461Y00610006D01*
X00383967Y00602500D01*
X00406486Y00602500D01*
X00406486Y00632526D02*
X00383967Y00632526D01*
X00376461Y00625019D01*
D13*
X01686961Y00782000D02*
X01686961Y00797346D01*
X01686961Y00789673D02*
X01733000Y00789673D01*
X01733000Y00782000D02*
X01733000Y00797346D01*
X01725327Y00812693D02*
X01733000Y00820366D01*
X01733000Y00835712D01*
X01725327Y00843386D01*
X01733000Y00858732D02*
X01733000Y00889425D01*
X01733000Y00874078D02*
X01686961Y00874078D01*
X01702307Y00858732D01*
X01694634Y00843386D02*
X01686961Y00835712D01*
X01686961Y00820366D01*
X01694634Y00812693D01*
X01725327Y00812693D01*
X01725327Y00904771D02*
X01733000Y00912444D01*
X01733000Y00927791D01*
X01725327Y00935464D01*
X01694634Y00935464D01*
X01686961Y00927791D01*
X01686961Y00912444D01*
X01694634Y00904771D01*
X01702307Y00904771D01*
X01709980Y00912444D01*
X01709980Y00935464D01*
X01686961Y01282000D02*
X01686961Y01297346D01*
X01686961Y01289673D02*
X01733000Y01289673D01*
X01733000Y01282000D02*
X01733000Y01297346D01*
X01725327Y01312693D02*
X01733000Y01320366D01*
X01733000Y01335712D01*
X01725327Y01343386D01*
X01733000Y01358732D02*
X01733000Y01389425D01*
X01733000Y01374078D02*
X01686961Y01374078D01*
X01702307Y01358732D01*
X01694634Y01343386D02*
X01686961Y01335712D01*
X01686961Y01320366D01*
X01694634Y01312693D01*
X01725327Y01312693D01*
X01725327Y01404771D02*
X01717654Y01404771D01*
X01709980Y01412444D01*
X01709980Y01427791D01*
X01717654Y01435464D01*
X01725327Y01435464D01*
X01733000Y01427791D01*
X01733000Y01412444D01*
X01725327Y01404771D01*
X01709980Y01412444D02*
X01702307Y01404771D01*
X01694634Y01404771D01*
X01686961Y01412444D01*
X01686961Y01427791D01*
X01694634Y01435464D01*
X01702307Y01435464D01*
X01709980Y01427791D01*
X01686961Y01932000D02*
X01686961Y01947346D01*
X01686961Y01939673D02*
X01733000Y01939673D01*
X01733000Y01932000D02*
X01733000Y01947346D01*
X01725327Y01962693D02*
X01733000Y01970366D01*
X01733000Y01985712D01*
X01725327Y01993386D01*
X01733000Y02008732D02*
X01733000Y02039425D01*
X01733000Y02024078D02*
X01686961Y02024078D01*
X01702307Y02008732D01*
X01694634Y01993386D02*
X01686961Y01985712D01*
X01686961Y01970366D01*
X01694634Y01962693D01*
X01725327Y01962693D01*
X01725327Y02054771D02*
X01733000Y02062444D01*
X01733000Y02077791D01*
X01725327Y02085464D01*
X01717654Y02085464D01*
X01709980Y02077791D01*
X01709980Y02054771D01*
X01725327Y02054771D01*
X01709980Y02054771D02*
X01694634Y02070118D01*
X01686961Y02085464D01*
X01583000Y02482000D02*
X01583000Y02497346D01*
X01583000Y02489673D02*
X01536961Y02489673D01*
X01536961Y02482000D02*
X01536961Y02497346D01*
X01544634Y02512693D02*
X01575327Y02512693D01*
X01583000Y02520366D01*
X01583000Y02535712D01*
X01575327Y02543386D01*
X01559980Y02558732D02*
X01559980Y02589425D01*
X01552307Y02604771D02*
X01536961Y02620118D01*
X01583000Y02620118D01*
X01583000Y02635464D02*
X01583000Y02604771D01*
X01583000Y02581752D02*
X01536961Y02581752D01*
X01559980Y02558732D01*
X01544634Y02543386D02*
X01536961Y02535712D01*
X01536961Y02520366D01*
X01544634Y02512693D01*
X00633000Y03232000D02*
X00633000Y03247346D01*
X00633000Y03239673D02*
X00586961Y03239673D01*
X00586961Y03232000D02*
X00586961Y03247346D01*
X00594634Y03262693D02*
X00625327Y03262693D01*
X00633000Y03270366D01*
X00633000Y03285712D01*
X00625327Y03293386D01*
X00625327Y03308732D02*
X00633000Y03316405D01*
X00633000Y03331752D01*
X00625327Y03339425D01*
X00617654Y03339425D01*
X00609980Y03331752D01*
X00609980Y03324078D01*
X00609980Y03331752D02*
X00602307Y03339425D01*
X00594634Y03339425D01*
X00586961Y03331752D01*
X00586961Y03316405D01*
X00594634Y03308732D01*
X00594634Y03293386D02*
X00586961Y03285712D01*
X00586961Y03270366D01*
X00594634Y03262693D01*
X00594634Y03354771D02*
X00586961Y03362444D01*
X00586961Y03377791D01*
X00594634Y03385464D01*
X00602307Y03385464D01*
X00609980Y03377791D01*
X00617654Y03385464D01*
X00625327Y03385464D01*
X00633000Y03377791D01*
X00633000Y03362444D01*
X00625327Y03354771D01*
X00609980Y03370118D02*
X00609980Y03377791D01*
X00586961Y03932000D02*
X00586961Y03947346D01*
X00586961Y03939673D02*
X00633000Y03939673D01*
X00633000Y03932000D02*
X00633000Y03947346D01*
X00625327Y03962693D02*
X00633000Y03970366D01*
X00633000Y03985712D01*
X00625327Y03993386D01*
X00625327Y04008732D02*
X00633000Y04016405D01*
X00633000Y04031752D01*
X00625327Y04039425D01*
X00617654Y04039425D01*
X00609980Y04031752D01*
X00609980Y04024078D01*
X00609980Y04031752D02*
X00602307Y04039425D01*
X00594634Y04039425D01*
X00586961Y04031752D01*
X00586961Y04016405D01*
X00594634Y04008732D01*
X00594634Y03993386D02*
X00586961Y03985712D01*
X00586961Y03970366D01*
X00594634Y03962693D01*
X00625327Y03962693D01*
X00625327Y04054771D02*
X00633000Y04062444D01*
X00633000Y04077791D01*
X00625327Y04085464D01*
X00609980Y04085464D01*
X00602307Y04077791D01*
X00602307Y04070118D01*
X00609980Y04054771D01*
X00586961Y04054771D01*
X00586961Y04085464D01*
X03486961Y02627791D02*
X03494634Y02635464D01*
X03502307Y02635464D01*
X03509980Y02627791D01*
X03509980Y02612444D01*
X03502307Y02604771D01*
X03494634Y02604771D01*
X03486961Y02612444D01*
X03486961Y02627791D01*
X03509980Y02627791D02*
X03517654Y02635464D01*
X03525327Y02635464D01*
X03533000Y02627791D01*
X03533000Y02612444D01*
X03525327Y02604771D01*
X03517654Y02604771D01*
X03509980Y02612444D01*
X03502307Y02589425D02*
X03509980Y02581752D01*
X03517654Y02589425D01*
X03525327Y02589425D01*
X03533000Y02581752D01*
X03533000Y02566405D01*
X03525327Y02558732D01*
X03525327Y02543386D02*
X03533000Y02535712D01*
X03533000Y02520366D01*
X03525327Y02512693D01*
X03494634Y02512693D01*
X03486961Y02520366D01*
X03486961Y02535712D01*
X03494634Y02543386D01*
X03494634Y02558732D02*
X03486961Y02566405D01*
X03486961Y02581752D01*
X03494634Y02589425D01*
X03502307Y02589425D01*
X03509980Y02581752D02*
X03509980Y02574078D01*
X03486961Y02497346D02*
X03486961Y02482000D01*
X03486961Y02489673D02*
X03533000Y02489673D01*
X03533000Y02482000D02*
X03533000Y02497346D01*
X04586961Y02031752D02*
X04594634Y02039425D01*
X04602307Y02039425D01*
X04609980Y02031752D01*
X04617654Y02039425D01*
X04625327Y02039425D01*
X04633000Y02031752D01*
X04633000Y02016405D01*
X04625327Y02008732D01*
X04625327Y01993386D02*
X04633000Y01985712D01*
X04633000Y01970366D01*
X04625327Y01962693D01*
X04594634Y01962693D01*
X04586961Y01970366D01*
X04586961Y01985712D01*
X04594634Y01993386D01*
X04594634Y02008732D02*
X04586961Y02016405D01*
X04586961Y02031752D01*
X04609980Y02031752D02*
X04609980Y02024078D01*
X04586961Y01947346D02*
X04586961Y01932000D01*
X04586961Y01939673D02*
X04633000Y01939673D01*
X04633000Y01932000D02*
X04633000Y01947346D01*
X04594634Y01535464D02*
X04586961Y01535464D01*
X04586961Y01504771D01*
X04586961Y01474078D02*
X04633000Y01474078D01*
X04633000Y01458732D02*
X04633000Y01489425D01*
X04633000Y01504771D02*
X04625327Y01504771D01*
X04594634Y01535464D01*
X04586961Y01474078D02*
X04602307Y01458732D01*
X04594634Y01443386D02*
X04586961Y01435712D01*
X04586961Y01420366D01*
X04594634Y01412693D01*
X04625327Y01412693D01*
X04633000Y01420366D01*
X04633000Y01435712D01*
X04625327Y01443386D01*
X04633000Y01397346D02*
X04633000Y01382000D01*
X04633000Y01389673D02*
X04586961Y01389673D01*
X04586961Y01382000D02*
X04586961Y01397346D01*
X03733000Y00927791D02*
X03686961Y00927791D01*
X03709980Y00904771D01*
X03709980Y00935464D01*
X03702307Y00889425D02*
X03709980Y00881752D01*
X03717654Y00889425D01*
X03725327Y00889425D01*
X03733000Y00881752D01*
X03733000Y00866405D01*
X03725327Y00858732D01*
X03725327Y00843386D02*
X03733000Y00835712D01*
X03733000Y00820366D01*
X03725327Y00812693D01*
X03694634Y00812693D01*
X03686961Y00820366D01*
X03686961Y00835712D01*
X03694634Y00843386D01*
X03694634Y00858732D02*
X03686961Y00866405D01*
X03686961Y00881752D01*
X03694634Y00889425D01*
X03702307Y00889425D01*
X03709980Y00881752D02*
X03709980Y00874078D01*
X03686961Y00797346D02*
X03686961Y00782000D01*
X03686961Y00789673D02*
X03733000Y00789673D01*
X03733000Y00782000D02*
X03733000Y00797346D01*
X03733000Y00385464D02*
X03733000Y00354771D01*
X03702307Y00385464D01*
X03694634Y00385464D01*
X03686961Y00377791D01*
X03686961Y00362444D01*
X03694634Y00354771D01*
X03694634Y00339425D02*
X03702307Y00339425D01*
X03709980Y00331752D01*
X03717654Y00339425D01*
X03725327Y00339425D01*
X03733000Y00331752D01*
X03733000Y00316405D01*
X03725327Y00308732D01*
X03725327Y00293386D02*
X03733000Y00285712D01*
X03733000Y00270366D01*
X03725327Y00262693D01*
X03694634Y00262693D01*
X03686961Y00270366D01*
X03686961Y00285712D01*
X03694634Y00293386D01*
X03694634Y00308732D02*
X03686961Y00316405D01*
X03686961Y00331752D01*
X03694634Y00339425D01*
X03709980Y00331752D02*
X03709980Y00324078D01*
X03686961Y00247346D02*
X03686961Y00232000D01*
X03686961Y00239673D02*
X03733000Y00239673D01*
X03733000Y00232000D02*
X03733000Y00247346D01*
X05736961Y01382000D02*
X05736961Y01397346D01*
X05736961Y01389673D02*
X05783000Y01389673D01*
X05783000Y01382000D02*
X05783000Y01397346D01*
X05775327Y01412693D02*
X05744634Y01412693D01*
X05736961Y01420366D01*
X05736961Y01435712D01*
X05744634Y01443386D01*
X05752307Y01458732D02*
X05736961Y01474078D01*
X05783000Y01474078D01*
X05783000Y01458732D02*
X05783000Y01489425D01*
X05775327Y01504771D02*
X05783000Y01512444D01*
X05783000Y01527791D01*
X05775327Y01535464D01*
X05767654Y01535464D01*
X05759980Y01527791D01*
X05759980Y01520118D01*
X05759980Y01527791D02*
X05752307Y01535464D01*
X05744634Y01535464D01*
X05736961Y01527791D01*
X05736961Y01512444D01*
X05744634Y01504771D01*
X05775327Y01443386D02*
X05783000Y01435712D01*
X05783000Y01420366D01*
X05775327Y01412693D01*
X05783000Y01932000D02*
X05783000Y01947346D01*
X05783000Y01939673D02*
X05736961Y01939673D01*
X05736961Y01932000D02*
X05736961Y01947346D01*
X05744634Y01962693D02*
X05775327Y01962693D01*
X05783000Y01970366D01*
X05783000Y01985712D01*
X05775327Y01993386D01*
X05783000Y02008732D02*
X05783000Y02039425D01*
X05783000Y02024078D02*
X05736961Y02024078D01*
X05752307Y02008732D01*
X05744634Y01993386D02*
X05736961Y01985712D01*
X05736961Y01970366D01*
X05744634Y01962693D01*
X05736961Y02054771D02*
X05759980Y02054771D01*
X05752307Y02070118D01*
X05752307Y02077791D01*
X05759980Y02085464D01*
X05775327Y02085464D01*
X05783000Y02077791D01*
X05783000Y02062444D01*
X05775327Y02054771D01*
X05736961Y02054771D02*
X05736961Y02085464D01*
X05736961Y03532000D02*
X05736961Y03547346D01*
X05736961Y03539673D02*
X05783000Y03539673D01*
X05783000Y03532000D02*
X05783000Y03547346D01*
X05775327Y03562693D02*
X05744634Y03562693D01*
X05736961Y03570366D01*
X05736961Y03585712D01*
X05744634Y03593386D01*
X05744634Y03608732D02*
X05736961Y03616405D01*
X05736961Y03631752D01*
X05744634Y03639425D01*
X05752307Y03639425D01*
X05783000Y03608732D01*
X05783000Y03639425D01*
X05775327Y03654771D02*
X05744634Y03685464D01*
X05775327Y03685464D01*
X05783000Y03677791D01*
X05783000Y03662444D01*
X05775327Y03654771D01*
X05744634Y03654771D01*
X05736961Y03662444D01*
X05736961Y03677791D01*
X05744634Y03685464D01*
X05775327Y03593386D02*
X05783000Y03585712D01*
X05783000Y03570366D01*
X05775327Y03562693D01*
X05783000Y04082000D02*
X05783000Y04097346D01*
X05783000Y04089673D02*
X05736961Y04089673D01*
X05736961Y04082000D02*
X05736961Y04097346D01*
X05744634Y04112693D02*
X05775327Y04112693D01*
X05783000Y04120366D01*
X05783000Y04135712D01*
X05775327Y04143386D01*
X05783000Y04158732D02*
X05783000Y04189425D01*
X05783000Y04174078D02*
X05736961Y04174078D01*
X05752307Y04158732D01*
X05744634Y04143386D02*
X05736961Y04135712D01*
X05736961Y04120366D01*
X05744634Y04112693D01*
X05759980Y04204771D02*
X05759980Y04235464D01*
X05736961Y04227791D02*
X05759980Y04204771D01*
X05736961Y04227791D02*
X05783000Y04227791D01*
X01733000Y00385464D02*
X01733000Y00354771D01*
X01733000Y00339425D02*
X01733000Y00308732D01*
X01702307Y00339425D01*
X01694634Y00339425D01*
X01686961Y00331752D01*
X01686961Y00316405D01*
X01694634Y00308732D01*
X01694634Y00293386D02*
X01686961Y00285712D01*
X01686961Y00270366D01*
X01694634Y00262693D01*
X01725327Y00262693D01*
X01733000Y00270366D01*
X01733000Y00285712D01*
X01725327Y00293386D01*
X01733000Y00247346D02*
X01733000Y00232000D01*
X01733000Y00239673D02*
X01686961Y00239673D01*
X01686961Y00232000D02*
X01686961Y00247346D01*
X01702307Y00354771D02*
X01686961Y00370118D01*
X01733000Y00370118D01*
D14*
X00200000Y00400004D02*
X00200000Y00401571D01*
X00200000Y00600000D01*
X00150000Y00600000D01*
X00150000Y03900000D01*
X00050000Y03900000D01*
X-00005000Y03950000D01*
X-00005000Y04100000D01*
X-00050000Y04100000D01*
X-00049606Y04099882D02*
X-00049606Y00405118D01*
X-00050000Y00401575D02*
X00200000Y00401571D01*
X00050000Y00499748D02*
X00050015Y00500975D01*
X00050060Y00502201D01*
X00050135Y00503426D01*
X00050241Y00504649D01*
X00050376Y00505869D01*
X00050541Y00507085D01*
X00050736Y00508296D01*
X00050961Y00509503D01*
X00051215Y00510703D01*
X00051498Y00511897D01*
X00051811Y00513084D01*
X00052153Y00514262D01*
X00052524Y00515432D01*
X00052923Y00516592D01*
X00053350Y00517743D01*
X00053806Y00518882D01*
X00054290Y00520010D01*
X00054801Y00521126D01*
X00055339Y00522229D01*
X00055904Y00523318D01*
X00056496Y00524393D01*
X00057114Y00525453D01*
X00057757Y00526498D01*
X00058427Y00527527D01*
X00059121Y00528538D01*
X00059840Y00529533D01*
X00060583Y00530510D01*
X00061349Y00531468D01*
X00062140Y00532407D01*
X00062952Y00533326D01*
X00063788Y00534225D01*
X00064645Y00535103D01*
X00065523Y00535960D01*
X00066422Y00536796D01*
X00067341Y00537608D01*
X00068280Y00538399D01*
X00069238Y00539165D01*
X00070215Y00539908D01*
X00071210Y00540627D01*
X00072221Y00541321D01*
X00073250Y00541991D01*
X00074295Y00542634D01*
X00075355Y00543252D01*
X00076430Y00543844D01*
X00077519Y00544409D01*
X00078622Y00544947D01*
X00079738Y00545458D01*
X00080866Y00545942D01*
X00082005Y00546398D01*
X00083156Y00546825D01*
X00084316Y00547224D01*
X00085486Y00547595D01*
X00086664Y00547937D01*
X00087851Y00548250D01*
X00089045Y00548533D01*
X00090245Y00548787D01*
X00091452Y00549012D01*
X00092663Y00549207D01*
X00093879Y00549372D01*
X00095099Y00549507D01*
X00096322Y00549613D01*
X00097547Y00549688D01*
X00098773Y00549733D01*
X00100000Y00549748D01*
X00101227Y00549733D01*
X00102453Y00549688D01*
X00103678Y00549613D01*
X00104901Y00549507D01*
X00106121Y00549372D01*
X00107337Y00549207D01*
X00108548Y00549012D01*
X00109755Y00548787D01*
X00110955Y00548533D01*
X00112149Y00548250D01*
X00113336Y00547937D01*
X00114514Y00547595D01*
X00115684Y00547224D01*
X00116844Y00546825D01*
X00117995Y00546398D01*
X00119134Y00545942D01*
X00120262Y00545458D01*
X00121378Y00544947D01*
X00122481Y00544409D01*
X00123570Y00543844D01*
X00124645Y00543252D01*
X00125705Y00542634D01*
X00126750Y00541991D01*
X00127779Y00541321D01*
X00128790Y00540627D01*
X00129785Y00539908D01*
X00130762Y00539165D01*
X00131720Y00538399D01*
X00132659Y00537608D01*
X00133578Y00536796D01*
X00134477Y00535960D01*
X00135355Y00535103D01*
X00136212Y00534225D01*
X00137048Y00533326D01*
X00137860Y00532407D01*
X00138651Y00531468D01*
X00139417Y00530510D01*
X00140160Y00529533D01*
X00140879Y00528538D01*
X00141573Y00527527D01*
X00142243Y00526498D01*
X00142886Y00525453D01*
X00143504Y00524393D01*
X00144096Y00523318D01*
X00144661Y00522229D01*
X00145199Y00521126D01*
X00145710Y00520010D01*
X00146194Y00518882D01*
X00146650Y00517743D01*
X00147077Y00516592D01*
X00147476Y00515432D01*
X00147847Y00514262D01*
X00148189Y00513084D01*
X00148502Y00511897D01*
X00148785Y00510703D01*
X00149039Y00509503D01*
X00149264Y00508296D01*
X00149459Y00507085D01*
X00149624Y00505869D01*
X00149759Y00504649D01*
X00149865Y00503426D01*
X00149940Y00502201D01*
X00149985Y00500975D01*
X00150000Y00499748D01*
X00149985Y00498521D01*
X00149940Y00497295D01*
X00149865Y00496070D01*
X00149759Y00494847D01*
X00149624Y00493627D01*
X00149459Y00492411D01*
X00149264Y00491200D01*
X00149039Y00489993D01*
X00148785Y00488793D01*
X00148502Y00487599D01*
X00148189Y00486412D01*
X00147847Y00485234D01*
X00147476Y00484064D01*
X00147077Y00482904D01*
X00146650Y00481753D01*
X00146194Y00480614D01*
X00145710Y00479486D01*
X00145199Y00478370D01*
X00144661Y00477267D01*
X00144096Y00476178D01*
X00143504Y00475103D01*
X00142886Y00474043D01*
X00142243Y00472998D01*
X00141573Y00471969D01*
X00140879Y00470958D01*
X00140160Y00469963D01*
X00139417Y00468986D01*
X00138651Y00468028D01*
X00137860Y00467089D01*
X00137048Y00466170D01*
X00136212Y00465271D01*
X00135355Y00464393D01*
X00134477Y00463536D01*
X00133578Y00462700D01*
X00132659Y00461888D01*
X00131720Y00461097D01*
X00130762Y00460331D01*
X00129785Y00459588D01*
X00128790Y00458869D01*
X00127779Y00458175D01*
X00126750Y00457505D01*
X00125705Y00456862D01*
X00124645Y00456244D01*
X00123570Y00455652D01*
X00122481Y00455087D01*
X00121378Y00454549D01*
X00120262Y00454038D01*
X00119134Y00453554D01*
X00117995Y00453098D01*
X00116844Y00452671D01*
X00115684Y00452272D01*
X00114514Y00451901D01*
X00113336Y00451559D01*
X00112149Y00451246D01*
X00110955Y00450963D01*
X00109755Y00450709D01*
X00108548Y00450484D01*
X00107337Y00450289D01*
X00106121Y00450124D01*
X00104901Y00449989D01*
X00103678Y00449883D01*
X00102453Y00449808D01*
X00101227Y00449763D01*
X00100000Y00449748D01*
X00098773Y00449763D01*
X00097547Y00449808D01*
X00096322Y00449883D01*
X00095099Y00449989D01*
X00093879Y00450124D01*
X00092663Y00450289D01*
X00091452Y00450484D01*
X00090245Y00450709D01*
X00089045Y00450963D01*
X00087851Y00451246D01*
X00086664Y00451559D01*
X00085486Y00451901D01*
X00084316Y00452272D01*
X00083156Y00452671D01*
X00082005Y00453098D01*
X00080866Y00453554D01*
X00079738Y00454038D01*
X00078622Y00454549D01*
X00077519Y00455087D01*
X00076430Y00455652D01*
X00075355Y00456244D01*
X00074295Y00456862D01*
X00073250Y00457505D01*
X00072221Y00458175D01*
X00071210Y00458869D01*
X00070215Y00459588D01*
X00069238Y00460331D01*
X00068280Y00461097D01*
X00067341Y00461888D01*
X00066422Y00462700D01*
X00065523Y00463536D01*
X00064645Y00464393D01*
X00063788Y00465271D01*
X00062952Y00466170D01*
X00062140Y00467089D01*
X00061349Y00468028D01*
X00060583Y00468986D01*
X00059840Y00469963D01*
X00059121Y00470958D01*
X00058427Y00471969D01*
X00057757Y00472998D01*
X00057114Y00474043D01*
X00056496Y00475103D01*
X00055904Y00476178D01*
X00055339Y00477267D01*
X00054801Y00478370D01*
X00054290Y00479486D01*
X00053806Y00480614D01*
X00053350Y00481753D01*
X00052923Y00482904D01*
X00052524Y00484064D01*
X00052153Y00485234D01*
X00051811Y00486412D01*
X00051498Y00487599D01*
X00051215Y00488793D01*
X00050961Y00489993D01*
X00050736Y00491200D01*
X00050541Y00492411D01*
X00050376Y00493627D01*
X00050241Y00494847D01*
X00050135Y00496070D01*
X00050060Y00497295D01*
X00050015Y00498521D01*
X00050000Y00499748D01*
X-00005000Y00550000D02*
X-00005000Y00405000D01*
X-00005000Y00550000D02*
X00050000Y00600000D01*
X00150000Y00600000D01*
X-00050000Y00575000D02*
X-00265000Y00575000D01*
X-00265000Y00615000D01*
X-00265000Y03885000D01*
X-00300000Y03845000D01*
X-00300000Y00655000D01*
X-00265000Y00615000D01*
X-00055000Y00615000D01*
X-00265000Y00575000D02*
X-00300000Y00615000D01*
X-00300000Y00655000D01*
X-00300000Y03845000D02*
X-00300000Y03885000D01*
X-00265000Y03925000D01*
X-00265000Y03885000D01*
X-00055000Y03885000D01*
X-00050000Y03925000D02*
X-00265000Y03925000D01*
X-00005000Y04100000D02*
X00200000Y04100000D01*
X00200000Y03900000D01*
X00150000Y03900000D01*
X00050000Y04000252D02*
X00050015Y04001479D01*
X00050060Y04002705D01*
X00050135Y04003930D01*
X00050241Y04005153D01*
X00050376Y04006373D01*
X00050541Y04007589D01*
X00050736Y04008800D01*
X00050961Y04010007D01*
X00051215Y04011207D01*
X00051498Y04012401D01*
X00051811Y04013588D01*
X00052153Y04014766D01*
X00052524Y04015936D01*
X00052923Y04017096D01*
X00053350Y04018247D01*
X00053806Y04019386D01*
X00054290Y04020514D01*
X00054801Y04021630D01*
X00055339Y04022733D01*
X00055904Y04023822D01*
X00056496Y04024897D01*
X00057114Y04025957D01*
X00057757Y04027002D01*
X00058427Y04028031D01*
X00059121Y04029042D01*
X00059840Y04030037D01*
X00060583Y04031014D01*
X00061349Y04031972D01*
X00062140Y04032911D01*
X00062952Y04033830D01*
X00063788Y04034729D01*
X00064645Y04035607D01*
X00065523Y04036464D01*
X00066422Y04037300D01*
X00067341Y04038112D01*
X00068280Y04038903D01*
X00069238Y04039669D01*
X00070215Y04040412D01*
X00071210Y04041131D01*
X00072221Y04041825D01*
X00073250Y04042495D01*
X00074295Y04043138D01*
X00075355Y04043756D01*
X00076430Y04044348D01*
X00077519Y04044913D01*
X00078622Y04045451D01*
X00079738Y04045962D01*
X00080866Y04046446D01*
X00082005Y04046902D01*
X00083156Y04047329D01*
X00084316Y04047728D01*
X00085486Y04048099D01*
X00086664Y04048441D01*
X00087851Y04048754D01*
X00089045Y04049037D01*
X00090245Y04049291D01*
X00091452Y04049516D01*
X00092663Y04049711D01*
X00093879Y04049876D01*
X00095099Y04050011D01*
X00096322Y04050117D01*
X00097547Y04050192D01*
X00098773Y04050237D01*
X00100000Y04050252D01*
X00101227Y04050237D01*
X00102453Y04050192D01*
X00103678Y04050117D01*
X00104901Y04050011D01*
X00106121Y04049876D01*
X00107337Y04049711D01*
X00108548Y04049516D01*
X00109755Y04049291D01*
X00110955Y04049037D01*
X00112149Y04048754D01*
X00113336Y04048441D01*
X00114514Y04048099D01*
X00115684Y04047728D01*
X00116844Y04047329D01*
X00117995Y04046902D01*
X00119134Y04046446D01*
X00120262Y04045962D01*
X00121378Y04045451D01*
X00122481Y04044913D01*
X00123570Y04044348D01*
X00124645Y04043756D01*
X00125705Y04043138D01*
X00126750Y04042495D01*
X00127779Y04041825D01*
X00128790Y04041131D01*
X00129785Y04040412D01*
X00130762Y04039669D01*
X00131720Y04038903D01*
X00132659Y04038112D01*
X00133578Y04037300D01*
X00134477Y04036464D01*
X00135355Y04035607D01*
X00136212Y04034729D01*
X00137048Y04033830D01*
X00137860Y04032911D01*
X00138651Y04031972D01*
X00139417Y04031014D01*
X00140160Y04030037D01*
X00140879Y04029042D01*
X00141573Y04028031D01*
X00142243Y04027002D01*
X00142886Y04025957D01*
X00143504Y04024897D01*
X00144096Y04023822D01*
X00144661Y04022733D01*
X00145199Y04021630D01*
X00145710Y04020514D01*
X00146194Y04019386D01*
X00146650Y04018247D01*
X00147077Y04017096D01*
X00147476Y04015936D01*
X00147847Y04014766D01*
X00148189Y04013588D01*
X00148502Y04012401D01*
X00148785Y04011207D01*
X00149039Y04010007D01*
X00149264Y04008800D01*
X00149459Y04007589D01*
X00149624Y04006373D01*
X00149759Y04005153D01*
X00149865Y04003930D01*
X00149940Y04002705D01*
X00149985Y04001479D01*
X00150000Y04000252D01*
X00149985Y03999025D01*
X00149940Y03997799D01*
X00149865Y03996574D01*
X00149759Y03995351D01*
X00149624Y03994131D01*
X00149459Y03992915D01*
X00149264Y03991704D01*
X00149039Y03990497D01*
X00148785Y03989297D01*
X00148502Y03988103D01*
X00148189Y03986916D01*
X00147847Y03985738D01*
X00147476Y03984568D01*
X00147077Y03983408D01*
X00146650Y03982257D01*
X00146194Y03981118D01*
X00145710Y03979990D01*
X00145199Y03978874D01*
X00144661Y03977771D01*
X00144096Y03976682D01*
X00143504Y03975607D01*
X00142886Y03974547D01*
X00142243Y03973502D01*
X00141573Y03972473D01*
X00140879Y03971462D01*
X00140160Y03970467D01*
X00139417Y03969490D01*
X00138651Y03968532D01*
X00137860Y03967593D01*
X00137048Y03966674D01*
X00136212Y03965775D01*
X00135355Y03964897D01*
X00134477Y03964040D01*
X00133578Y03963204D01*
X00132659Y03962392D01*
X00131720Y03961601D01*
X00130762Y03960835D01*
X00129785Y03960092D01*
X00128790Y03959373D01*
X00127779Y03958679D01*
X00126750Y03958009D01*
X00125705Y03957366D01*
X00124645Y03956748D01*
X00123570Y03956156D01*
X00122481Y03955591D01*
X00121378Y03955053D01*
X00120262Y03954542D01*
X00119134Y03954058D01*
X00117995Y03953602D01*
X00116844Y03953175D01*
X00115684Y03952776D01*
X00114514Y03952405D01*
X00113336Y03952063D01*
X00112149Y03951750D01*
X00110955Y03951467D01*
X00109755Y03951213D01*
X00108548Y03950988D01*
X00107337Y03950793D01*
X00106121Y03950628D01*
X00104901Y03950493D01*
X00103678Y03950387D01*
X00102453Y03950312D01*
X00101227Y03950267D01*
X00100000Y03950252D01*
X00098773Y03950267D01*
X00097547Y03950312D01*
X00096322Y03950387D01*
X00095099Y03950493D01*
X00093879Y03950628D01*
X00092663Y03950793D01*
X00091452Y03950988D01*
X00090245Y03951213D01*
X00089045Y03951467D01*
X00087851Y03951750D01*
X00086664Y03952063D01*
X00085486Y03952405D01*
X00084316Y03952776D01*
X00083156Y03953175D01*
X00082005Y03953602D01*
X00080866Y03954058D01*
X00079738Y03954542D01*
X00078622Y03955053D01*
X00077519Y03955591D01*
X00076430Y03956156D01*
X00075355Y03956748D01*
X00074295Y03957366D01*
X00073250Y03958009D01*
X00072221Y03958679D01*
X00071210Y03959373D01*
X00070215Y03960092D01*
X00069238Y03960835D01*
X00068280Y03961601D01*
X00067341Y03962392D01*
X00066422Y03963204D01*
X00065523Y03964040D01*
X00064645Y03964897D01*
X00063788Y03965775D01*
X00062952Y03966674D01*
X00062140Y03967593D01*
X00061349Y03968532D01*
X00060583Y03969490D01*
X00059840Y03970467D01*
X00059121Y03971462D01*
X00058427Y03972473D01*
X00057757Y03973502D01*
X00057114Y03974547D01*
X00056496Y03975607D01*
X00055904Y03976682D01*
X00055339Y03977771D01*
X00054801Y03978874D01*
X00054290Y03979990D01*
X00053806Y03981118D01*
X00053350Y03982257D01*
X00052923Y03983408D01*
X00052524Y03984568D01*
X00052153Y03985738D01*
X00051811Y03986916D01*
X00051498Y03988103D01*
X00051215Y03989297D01*
X00050961Y03990497D01*
X00050736Y03991704D01*
X00050541Y03992915D01*
X00050376Y03994131D01*
X00050241Y03995351D01*
X00050135Y03996574D01*
X00050060Y03997799D01*
X00050015Y03999025D01*
X00050000Y04000252D01*
D15*
X-00008661Y04099882D02*
X-00008661Y00405118D01*
D16*
X00111150Y00682035D02*
X00101475Y00691710D01*
X00130500Y00691710D01*
X00130500Y00682035D02*
X00130500Y00701385D01*
X00125663Y03767570D02*
X00130500Y03772407D01*
X00130500Y03782082D01*
X00125663Y03786919D01*
X00120825Y03786919D01*
X00115988Y03782082D01*
X00115988Y03777244D01*
X00115988Y03782082D02*
X00111150Y03786919D01*
X00106313Y03786919D01*
X00101475Y03782082D01*
X00101475Y03772407D01*
X00106313Y03767570D01*
X00106313Y03797035D02*
X00101475Y03801872D01*
X00101475Y03811547D01*
X00106313Y03816385D01*
X00111150Y03816385D01*
X00130500Y03797035D01*
X00130500Y03816385D01*
M02*
