G75*
%MOIN*%
%OFA0B0*%
%FSLAX26Y26*%
%IPPOS*%
%LPD*%
%AMOC8*
5,1,8,0,0,1.08239X$1,22.5*
%
%ADD10C,0.048000*%
%ADD11OC8,0.060000*%
%ADD12C,0.006000*%
%ADD13C,0.027000*%
D10*
X01800000Y00176000D02*
X01800000Y00224000D01*
X01900000Y00224000D02*
X01900000Y00176000D01*
X02000000Y00176000D02*
X02000000Y00224000D01*
X02100000Y00224000D02*
X02100000Y00176000D01*
X02200000Y00176000D02*
X02200000Y00224000D01*
X02300000Y00224000D02*
X02300000Y00176000D01*
X02400000Y00176000D02*
X02400000Y00224000D01*
X02500000Y00224000D02*
X02500000Y00176000D01*
X02600000Y00176000D02*
X02600000Y00224000D01*
X02700000Y00224000D02*
X02700000Y00176000D01*
X02900000Y00176000D02*
X02900000Y00224000D01*
X03000000Y00224000D02*
X03000000Y00176000D01*
X03100000Y00176000D02*
X03100000Y00224000D01*
X03200000Y00224000D02*
X03200000Y00176000D01*
X03300000Y00176000D02*
X03300000Y00224000D01*
X03400000Y00224000D02*
X03400000Y00176000D01*
X03500000Y00176000D02*
X03500000Y00224000D01*
X03600000Y00224000D02*
X03600000Y00176000D01*
X03800000Y00176000D02*
X03800000Y00224000D01*
X03900000Y00224000D02*
X03900000Y00176000D01*
X04000000Y00176000D02*
X04000000Y00224000D01*
X04100000Y00224000D02*
X04100000Y00176000D01*
X04200000Y00176000D02*
X04200000Y00224000D01*
X04300000Y00224000D02*
X04300000Y00176000D01*
X04400000Y00176000D02*
X04400000Y00224000D01*
X04500000Y00224000D02*
X04500000Y00176000D01*
X04600000Y00176000D02*
X04600000Y00224000D01*
X04700000Y00224000D02*
X04700000Y00176000D01*
X05000000Y00176000D02*
X05000000Y00224000D01*
X05100000Y00224000D02*
X05100000Y00176000D01*
X05200000Y00176000D02*
X05200000Y00224000D01*
X05300000Y00224000D02*
X05300000Y00176000D01*
X05400000Y00176000D02*
X05400000Y00224000D01*
X05500000Y00224000D02*
X05500000Y00176000D01*
X05600000Y00176000D02*
X05600000Y00224000D01*
X05600000Y00476000D02*
X05600000Y00524000D01*
X05500000Y00524000D02*
X05500000Y00476000D01*
X05400000Y00476000D02*
X05400000Y00524000D01*
X05300000Y00524000D02*
X05300000Y00476000D01*
X05200000Y00476000D02*
X05200000Y00524000D01*
X05100000Y00524000D02*
X05100000Y00476000D01*
X05000000Y00476000D02*
X05000000Y00524000D01*
X04700000Y00524000D02*
X04700000Y00476000D01*
X04600000Y00476000D02*
X04600000Y00524000D01*
X04500000Y00524000D02*
X04500000Y00476000D01*
X04400000Y00476000D02*
X04400000Y00524000D01*
X04300000Y00524000D02*
X04300000Y00476000D01*
X04200000Y00476000D02*
X04200000Y00524000D01*
X04100000Y00524000D02*
X04100000Y00476000D01*
X04000000Y00476000D02*
X04000000Y00524000D01*
X03900000Y00524000D02*
X03900000Y00476000D01*
X03800000Y00476000D02*
X03800000Y00524000D01*
X03600000Y00524000D02*
X03600000Y00476000D01*
X03500000Y00476000D02*
X03500000Y00524000D01*
X03400000Y00524000D02*
X03400000Y00476000D01*
X03300000Y00476000D02*
X03300000Y00524000D01*
X03200000Y00524000D02*
X03200000Y00476000D01*
X03100000Y00476000D02*
X03100000Y00524000D01*
X03000000Y00524000D02*
X03000000Y00476000D01*
X02900000Y00476000D02*
X02900000Y00524000D01*
X02700000Y00524000D02*
X02700000Y00476000D01*
X02600000Y00476000D02*
X02600000Y00524000D01*
X02500000Y00524000D02*
X02500000Y00476000D01*
X02400000Y00476000D02*
X02400000Y00524000D01*
X02300000Y00524000D02*
X02300000Y00476000D01*
X02200000Y00476000D02*
X02200000Y00524000D01*
X02100000Y00524000D02*
X02100000Y00476000D01*
X02000000Y00476000D02*
X02000000Y00524000D01*
X01900000Y00524000D02*
X01900000Y00476000D01*
X01800000Y00476000D02*
X01800000Y00524000D01*
X01800000Y00726000D02*
X01800000Y00774000D01*
X01900000Y00774000D02*
X01900000Y00726000D01*
X02000000Y00726000D02*
X02000000Y00774000D01*
X02100000Y00774000D02*
X02100000Y00726000D01*
X02200000Y00726000D02*
X02200000Y00774000D01*
X02300000Y00774000D02*
X02300000Y00726000D01*
X02400000Y00726000D02*
X02400000Y00774000D01*
X02500000Y00774000D02*
X02500000Y00726000D01*
X02600000Y00726000D02*
X02600000Y00774000D01*
X02700000Y00774000D02*
X02700000Y00726000D01*
X02900000Y00726000D02*
X02900000Y00774000D01*
X03000000Y00774000D02*
X03000000Y00726000D01*
X03100000Y00726000D02*
X03100000Y00774000D01*
X03200000Y00774000D02*
X03200000Y00726000D01*
X03300000Y00726000D02*
X03300000Y00774000D01*
X03400000Y00774000D02*
X03400000Y00726000D01*
X03500000Y00726000D02*
X03500000Y00774000D01*
X03600000Y00774000D02*
X03600000Y00726000D01*
X03800000Y00726000D02*
X03800000Y00774000D01*
X03900000Y00774000D02*
X03900000Y00726000D01*
X04000000Y00726000D02*
X04000000Y00774000D01*
X04100000Y00774000D02*
X04100000Y00726000D01*
X04200000Y00726000D02*
X04200000Y00774000D01*
X04300000Y00774000D02*
X04300000Y00726000D01*
X04400000Y00726000D02*
X04400000Y00774000D01*
X04500000Y00774000D02*
X04500000Y00726000D01*
X04600000Y00726000D02*
X04600000Y00774000D01*
X04700000Y00774000D02*
X04700000Y00726000D01*
X05000000Y00726000D02*
X05000000Y00774000D01*
X05100000Y00774000D02*
X05100000Y00726000D01*
X05200000Y00726000D02*
X05200000Y00774000D01*
X05300000Y00774000D02*
X05300000Y00726000D01*
X05400000Y00726000D02*
X05400000Y00774000D01*
X05500000Y00774000D02*
X05500000Y00726000D01*
X05600000Y00726000D02*
X05600000Y00774000D01*
X05600000Y01026000D02*
X05600000Y01074000D01*
X05500000Y01074000D02*
X05500000Y01026000D01*
X05400000Y01026000D02*
X05400000Y01074000D01*
X05300000Y01074000D02*
X05300000Y01026000D01*
X05200000Y01026000D02*
X05200000Y01074000D01*
X05100000Y01074000D02*
X05100000Y01026000D01*
X05000000Y01026000D02*
X05000000Y01074000D01*
X04700000Y01074000D02*
X04700000Y01026000D01*
X04600000Y01026000D02*
X04600000Y01074000D01*
X04500000Y01074000D02*
X04500000Y01026000D01*
X04400000Y01026000D02*
X04400000Y01074000D01*
X04300000Y01074000D02*
X04300000Y01026000D01*
X04200000Y01026000D02*
X04200000Y01074000D01*
X04100000Y01074000D02*
X04100000Y01026000D01*
X04000000Y01026000D02*
X04000000Y01074000D01*
X03900000Y01074000D02*
X03900000Y01026000D01*
X03800000Y01026000D02*
X03800000Y01074000D01*
X03600000Y01074000D02*
X03600000Y01026000D01*
X03500000Y01026000D02*
X03500000Y01074000D01*
X03400000Y01074000D02*
X03400000Y01026000D01*
X03300000Y01026000D02*
X03300000Y01074000D01*
X03200000Y01074000D02*
X03200000Y01026000D01*
X03100000Y01026000D02*
X03100000Y01074000D01*
X03000000Y01074000D02*
X03000000Y01026000D01*
X02900000Y01026000D02*
X02900000Y01074000D01*
X02700000Y01074000D02*
X02700000Y01026000D01*
X02600000Y01026000D02*
X02600000Y01074000D01*
X02500000Y01074000D02*
X02500000Y01026000D01*
X02400000Y01026000D02*
X02400000Y01074000D01*
X02300000Y01074000D02*
X02300000Y01026000D01*
X02200000Y01026000D02*
X02200000Y01074000D01*
X02100000Y01074000D02*
X02100000Y01026000D01*
X02000000Y01026000D02*
X02000000Y01074000D01*
X01900000Y01074000D02*
X01900000Y01026000D01*
X01800000Y01026000D02*
X01800000Y01074000D01*
X01800000Y01226000D02*
X01800000Y01274000D01*
X01900000Y01274000D02*
X01900000Y01226000D01*
X02000000Y01226000D02*
X02000000Y01274000D01*
X02100000Y01274000D02*
X02100000Y01226000D01*
X02200000Y01226000D02*
X02200000Y01274000D01*
X02300000Y01274000D02*
X02300000Y01226000D01*
X02400000Y01226000D02*
X02400000Y01274000D01*
X02500000Y01274000D02*
X02500000Y01226000D01*
X02600000Y01226000D02*
X02600000Y01274000D01*
X02700000Y01274000D02*
X02700000Y01226000D01*
X02900000Y01226000D02*
X02900000Y01274000D01*
X03000000Y01274000D02*
X03000000Y01226000D01*
X03100000Y01226000D02*
X03100000Y01274000D01*
X03200000Y01274000D02*
X03200000Y01226000D01*
X03300000Y01226000D02*
X03300000Y01274000D01*
X03400000Y01274000D02*
X03400000Y01226000D01*
X03500000Y01226000D02*
X03500000Y01274000D01*
X03600000Y01274000D02*
X03600000Y01226000D01*
X03800000Y01326000D02*
X03800000Y01374000D01*
X03900000Y01374000D02*
X03900000Y01326000D01*
X04000000Y01326000D02*
X04000000Y01374000D01*
X04100000Y01374000D02*
X04100000Y01326000D01*
X04200000Y01326000D02*
X04200000Y01374000D01*
X04300000Y01374000D02*
X04300000Y01326000D01*
X04400000Y01326000D02*
X04400000Y01374000D01*
X04500000Y01374000D02*
X04500000Y01326000D01*
X04700000Y01326000D02*
X04700000Y01374000D01*
X04800000Y01374000D02*
X04800000Y01326000D01*
X04900000Y01326000D02*
X04900000Y01374000D01*
X05000000Y01374000D02*
X05000000Y01326000D01*
X05100000Y01326000D02*
X05100000Y01374000D01*
X05200000Y01374000D02*
X05200000Y01326000D01*
X05300000Y01326000D02*
X05300000Y01374000D01*
X05400000Y01374000D02*
X05400000Y01326000D01*
X05500000Y01326000D02*
X05500000Y01374000D01*
X05600000Y01374000D02*
X05600000Y01326000D01*
X05850000Y01326000D02*
X05850000Y01374000D01*
X05950000Y01374000D02*
X05950000Y01326000D01*
X06050000Y01326000D02*
X06050000Y01374000D01*
X06150000Y01374000D02*
X06150000Y01326000D01*
X06250000Y01326000D02*
X06250000Y01374000D01*
X06350000Y01374000D02*
X06350000Y01326000D01*
X06450000Y01326000D02*
X06450000Y01374000D01*
X06550000Y01374000D02*
X06550000Y01326000D01*
X06650000Y01326000D02*
X06650000Y01374000D01*
X06750000Y01374000D02*
X06750000Y01326000D01*
X06750000Y01074000D02*
X06750000Y01026000D01*
X06650000Y01026000D02*
X06650000Y01074000D01*
X06550000Y01074000D02*
X06550000Y01026000D01*
X06450000Y01026000D02*
X06450000Y01074000D01*
X06350000Y01074000D02*
X06350000Y01026000D01*
X06250000Y01026000D02*
X06250000Y01074000D01*
X06150000Y01074000D02*
X06150000Y01026000D01*
X06150000Y00774000D02*
X06150000Y00726000D01*
X06250000Y00726000D02*
X06250000Y00774000D01*
X06350000Y00774000D02*
X06350000Y00726000D01*
X06450000Y00726000D02*
X06450000Y00774000D01*
X06550000Y00774000D02*
X06550000Y00726000D01*
X06650000Y00726000D02*
X06650000Y00774000D01*
X06750000Y00774000D02*
X06750000Y00726000D01*
X06750000Y00524000D02*
X06750000Y00476000D01*
X06650000Y00476000D02*
X06650000Y00524000D01*
X06550000Y00524000D02*
X06550000Y00476000D01*
X06450000Y00476000D02*
X06450000Y00524000D01*
X06350000Y00524000D02*
X06350000Y00476000D01*
X06250000Y00476000D02*
X06250000Y00524000D01*
X06150000Y00524000D02*
X06150000Y00476000D01*
X06150000Y00224000D02*
X06150000Y00176000D01*
X06250000Y00176000D02*
X06250000Y00224000D01*
X06350000Y00224000D02*
X06350000Y00176000D01*
X06450000Y00176000D02*
X06450000Y00224000D01*
X06550000Y00224000D02*
X06550000Y00176000D01*
X06650000Y00176000D02*
X06650000Y00224000D01*
X06750000Y00224000D02*
X06750000Y00176000D01*
X06750000Y01626000D02*
X06750000Y01674000D01*
X06650000Y01674000D02*
X06650000Y01626000D01*
X06550000Y01626000D02*
X06550000Y01674000D01*
X06450000Y01674000D02*
X06450000Y01626000D01*
X06350000Y01626000D02*
X06350000Y01674000D01*
X06250000Y01674000D02*
X06250000Y01626000D01*
X06150000Y01626000D02*
X06150000Y01674000D01*
X06050000Y01674000D02*
X06050000Y01626000D01*
X05950000Y01626000D02*
X05950000Y01674000D01*
X05850000Y01674000D02*
X05850000Y01626000D01*
X05600000Y01626000D02*
X05600000Y01674000D01*
X05500000Y01674000D02*
X05500000Y01626000D01*
X05400000Y01626000D02*
X05400000Y01674000D01*
X05300000Y01674000D02*
X05300000Y01626000D01*
X05200000Y01626000D02*
X05200000Y01674000D01*
X05100000Y01674000D02*
X05100000Y01626000D01*
X05000000Y01626000D02*
X05000000Y01674000D01*
X04900000Y01674000D02*
X04900000Y01626000D01*
X04800000Y01626000D02*
X04800000Y01674000D01*
X04700000Y01674000D02*
X04700000Y01626000D01*
X04500000Y01626000D02*
X04500000Y01674000D01*
X04400000Y01674000D02*
X04400000Y01626000D01*
X04300000Y01626000D02*
X04300000Y01674000D01*
X04200000Y01674000D02*
X04200000Y01626000D01*
X04100000Y01626000D02*
X04100000Y01674000D01*
X04000000Y01674000D02*
X04000000Y01626000D01*
X03900000Y01626000D02*
X03900000Y01674000D01*
X03800000Y01674000D02*
X03800000Y01626000D01*
X03600000Y01574000D02*
X03600000Y01526000D01*
X03500000Y01526000D02*
X03500000Y01574000D01*
X03400000Y01574000D02*
X03400000Y01526000D01*
X03300000Y01526000D02*
X03300000Y01574000D01*
X03200000Y01574000D02*
X03200000Y01526000D01*
X03100000Y01526000D02*
X03100000Y01574000D01*
X03000000Y01574000D02*
X03000000Y01526000D01*
X02900000Y01526000D02*
X02900000Y01574000D01*
X02700000Y01574000D02*
X02700000Y01526000D01*
X02600000Y01526000D02*
X02600000Y01574000D01*
X02500000Y01574000D02*
X02500000Y01526000D01*
X02400000Y01526000D02*
X02400000Y01574000D01*
X02300000Y01574000D02*
X02300000Y01526000D01*
X02200000Y01526000D02*
X02200000Y01574000D01*
X02100000Y01574000D02*
X02100000Y01526000D01*
X02000000Y01526000D02*
X02000000Y01574000D01*
X01900000Y01574000D02*
X01900000Y01526000D01*
X01800000Y01526000D02*
X01800000Y01574000D01*
X01800000Y01876000D02*
X01800000Y01924000D01*
X01900000Y01924000D02*
X01900000Y01876000D01*
X02000000Y01876000D02*
X02000000Y01924000D01*
X02100000Y01924000D02*
X02100000Y01876000D01*
X02200000Y01876000D02*
X02200000Y01924000D01*
X02300000Y01924000D02*
X02300000Y01876000D01*
X02400000Y01876000D02*
X02400000Y01924000D01*
X02500000Y01924000D02*
X02500000Y01876000D01*
X02600000Y01876000D02*
X02600000Y01924000D01*
X02700000Y01924000D02*
X02700000Y01876000D01*
X02900000Y01876000D02*
X02900000Y01924000D01*
X03000000Y01924000D02*
X03000000Y01876000D01*
X03100000Y01876000D02*
X03100000Y01924000D01*
X03200000Y01924000D02*
X03200000Y01876000D01*
X03300000Y01876000D02*
X03300000Y01924000D01*
X03400000Y01924000D02*
X03400000Y01876000D01*
X03500000Y01876000D02*
X03500000Y01924000D01*
X03600000Y01924000D02*
X03600000Y01876000D01*
X03800000Y01876000D02*
X03800000Y01924000D01*
X03900000Y01924000D02*
X03900000Y01876000D01*
X04000000Y01876000D02*
X04000000Y01924000D01*
X04100000Y01924000D02*
X04100000Y01876000D01*
X04200000Y01876000D02*
X04200000Y01924000D01*
X04300000Y01924000D02*
X04300000Y01876000D01*
X04400000Y01876000D02*
X04400000Y01924000D01*
X04500000Y01924000D02*
X04500000Y01876000D01*
X04700000Y01876000D02*
X04700000Y01924000D01*
X04800000Y01924000D02*
X04800000Y01876000D01*
X04900000Y01876000D02*
X04900000Y01924000D01*
X05000000Y01924000D02*
X05000000Y01876000D01*
X05100000Y01876000D02*
X05100000Y01924000D01*
X05200000Y01924000D02*
X05200000Y01876000D01*
X05300000Y01876000D02*
X05300000Y01924000D01*
X05400000Y01924000D02*
X05400000Y01876000D01*
X05500000Y01876000D02*
X05500000Y01924000D01*
X05600000Y01924000D02*
X05600000Y01876000D01*
X05850000Y01876000D02*
X05850000Y01924000D01*
X05950000Y01924000D02*
X05950000Y01876000D01*
X06050000Y01876000D02*
X06050000Y01924000D01*
X06150000Y01924000D02*
X06150000Y01876000D01*
X06250000Y01876000D02*
X06250000Y01924000D01*
X06350000Y01924000D02*
X06350000Y01876000D01*
X06450000Y01876000D02*
X06450000Y01924000D01*
X06550000Y01924000D02*
X06550000Y01876000D01*
X06650000Y01876000D02*
X06650000Y01924000D01*
X06750000Y01924000D02*
X06750000Y01876000D01*
X06750000Y02176000D02*
X06750000Y02224000D01*
X06650000Y02224000D02*
X06650000Y02176000D01*
X06550000Y02176000D02*
X06550000Y02224000D01*
X06450000Y02224000D02*
X06450000Y02176000D01*
X06350000Y02176000D02*
X06350000Y02224000D01*
X06250000Y02224000D02*
X06250000Y02176000D01*
X06150000Y02176000D02*
X06150000Y02224000D01*
X06050000Y02224000D02*
X06050000Y02176000D01*
X05950000Y02176000D02*
X05950000Y02224000D01*
X05850000Y02224000D02*
X05850000Y02176000D01*
X05600000Y02176000D02*
X05600000Y02224000D01*
X05500000Y02224000D02*
X05500000Y02176000D01*
X05400000Y02176000D02*
X05400000Y02224000D01*
X05300000Y02224000D02*
X05300000Y02176000D01*
X05200000Y02176000D02*
X05200000Y02224000D01*
X05100000Y02224000D02*
X05100000Y02176000D01*
X05000000Y02176000D02*
X05000000Y02224000D01*
X04900000Y02224000D02*
X04900000Y02176000D01*
X04800000Y02176000D02*
X04800000Y02224000D01*
X04700000Y02224000D02*
X04700000Y02176000D01*
X04500000Y02176000D02*
X04500000Y02224000D01*
X04400000Y02224000D02*
X04400000Y02176000D01*
X04300000Y02176000D02*
X04300000Y02224000D01*
X04200000Y02224000D02*
X04200000Y02176000D01*
X04100000Y02176000D02*
X04100000Y02224000D01*
X04000000Y02224000D02*
X04000000Y02176000D01*
X03900000Y02176000D02*
X03900000Y02224000D01*
X03800000Y02224000D02*
X03800000Y02176000D01*
X03600000Y02176000D02*
X03600000Y02224000D01*
X03500000Y02224000D02*
X03500000Y02176000D01*
X03400000Y02176000D02*
X03400000Y02224000D01*
X03300000Y02224000D02*
X03300000Y02176000D01*
X03200000Y02176000D02*
X03200000Y02224000D01*
X03100000Y02224000D02*
X03100000Y02176000D01*
X03000000Y02176000D02*
X03000000Y02224000D01*
X02900000Y02224000D02*
X02900000Y02176000D01*
X02700000Y02176000D02*
X02700000Y02224000D01*
X02600000Y02224000D02*
X02600000Y02176000D01*
X02500000Y02176000D02*
X02500000Y02224000D01*
X02400000Y02224000D02*
X02400000Y02176000D01*
X02300000Y02176000D02*
X02300000Y02224000D01*
X02200000Y02224000D02*
X02200000Y02176000D01*
X02100000Y02176000D02*
X02100000Y02224000D01*
X02000000Y02224000D02*
X02000000Y02176000D01*
X01900000Y02176000D02*
X01900000Y02224000D01*
X01800000Y02224000D02*
X01800000Y02176000D01*
X01750000Y02426000D02*
X01750000Y02474000D01*
X01850000Y02474000D02*
X01850000Y02426000D01*
X01950000Y02426000D02*
X01950000Y02474000D01*
X02050000Y02474000D02*
X02050000Y02426000D01*
X02150000Y02426000D02*
X02150000Y02474000D01*
X02250000Y02474000D02*
X02250000Y02426000D01*
X02350000Y02426000D02*
X02350000Y02474000D01*
X02450000Y02474000D02*
X02450000Y02426000D01*
X02550000Y02426000D02*
X02550000Y02474000D01*
X02700000Y02474000D02*
X02700000Y02426000D01*
X02800000Y02426000D02*
X02800000Y02474000D01*
X02900000Y02474000D02*
X02900000Y02426000D01*
X03000000Y02426000D02*
X03000000Y02474000D01*
X03100000Y02474000D02*
X03100000Y02426000D01*
X03200000Y02426000D02*
X03200000Y02474000D01*
X03300000Y02474000D02*
X03300000Y02426000D01*
X03400000Y02426000D02*
X03400000Y02474000D01*
X03600000Y02474000D02*
X03600000Y02426000D01*
X03700000Y02426000D02*
X03700000Y02474000D01*
X03800000Y02474000D02*
X03800000Y02426000D01*
X03900000Y02426000D02*
X03900000Y02474000D01*
X04000000Y02474000D02*
X04000000Y02426000D01*
X04100000Y02426000D02*
X04100000Y02474000D01*
X04200000Y02474000D02*
X04200000Y02426000D01*
X04300000Y02426000D02*
X04300000Y02474000D01*
X04400000Y02474000D02*
X04400000Y02426000D01*
X04500000Y02426000D02*
X04500000Y02474000D01*
X04500000Y02726000D02*
X04500000Y02774000D01*
X04400000Y02774000D02*
X04400000Y02726000D01*
X04300000Y02726000D02*
X04300000Y02774000D01*
X04200000Y02774000D02*
X04200000Y02726000D01*
X04100000Y02726000D02*
X04100000Y02774000D01*
X04000000Y02774000D02*
X04000000Y02726000D01*
X03900000Y02726000D02*
X03900000Y02774000D01*
X03800000Y02774000D02*
X03800000Y02726000D01*
X03700000Y02726000D02*
X03700000Y02774000D01*
X03600000Y02774000D02*
X03600000Y02726000D01*
X03400000Y02726000D02*
X03400000Y02774000D01*
X03300000Y02774000D02*
X03300000Y02726000D01*
X03200000Y02726000D02*
X03200000Y02774000D01*
X03100000Y02774000D02*
X03100000Y02726000D01*
X03000000Y02726000D02*
X03000000Y02774000D01*
X02900000Y02774000D02*
X02900000Y02726000D01*
X02800000Y02726000D02*
X02800000Y02774000D01*
X02700000Y02774000D02*
X02700000Y02726000D01*
X02550000Y02726000D02*
X02550000Y02774000D01*
X02450000Y02774000D02*
X02450000Y02726000D01*
X02350000Y02726000D02*
X02350000Y02774000D01*
X02250000Y02774000D02*
X02250000Y02726000D01*
X02150000Y02726000D02*
X02150000Y02774000D01*
X02050000Y02774000D02*
X02050000Y02726000D01*
X01950000Y02726000D02*
X01950000Y02774000D01*
X01850000Y02774000D02*
X01850000Y02726000D01*
X01750000Y02726000D02*
X01750000Y02774000D01*
X01650000Y02774000D02*
X01650000Y02726000D01*
X01650000Y02474000D02*
X01650000Y02426000D01*
X02000000Y02926000D02*
X02000000Y02974000D01*
X02100000Y02974000D02*
X02100000Y02926000D01*
X02200000Y02926000D02*
X02200000Y02974000D01*
X02300000Y02974000D02*
X02300000Y02926000D01*
X02400000Y02926000D02*
X02400000Y02974000D01*
X02500000Y02974000D02*
X02500000Y02926000D01*
X02600000Y02926000D02*
X02600000Y02974000D01*
X02700000Y02974000D02*
X02700000Y02926000D01*
X02900000Y02926000D02*
X02900000Y02974000D01*
X03000000Y02974000D02*
X03000000Y02926000D01*
X03100000Y02926000D02*
X03100000Y02974000D01*
X03200000Y02974000D02*
X03200000Y02926000D01*
X03300000Y02926000D02*
X03300000Y02974000D01*
X03400000Y02974000D02*
X03400000Y02926000D01*
X03500000Y02926000D02*
X03500000Y02974000D01*
X03600000Y02974000D02*
X03600000Y02926000D01*
X03800000Y02926000D02*
X03800000Y02974000D01*
X03900000Y02974000D02*
X03900000Y02926000D01*
X04000000Y02926000D02*
X04000000Y02974000D01*
X04100000Y02974000D02*
X04100000Y02926000D01*
X04200000Y02926000D02*
X04200000Y02974000D01*
X04300000Y02974000D02*
X04300000Y02926000D01*
X04400000Y02926000D02*
X04400000Y02974000D01*
X04500000Y02974000D02*
X04500000Y02926000D01*
X04500000Y03226000D02*
X04500000Y03274000D01*
X04400000Y03274000D02*
X04400000Y03226000D01*
X04300000Y03226000D02*
X04300000Y03274000D01*
X04200000Y03274000D02*
X04200000Y03226000D01*
X04100000Y03226000D02*
X04100000Y03274000D01*
X04000000Y03274000D02*
X04000000Y03226000D01*
X03900000Y03226000D02*
X03900000Y03274000D01*
X03800000Y03274000D02*
X03800000Y03226000D01*
X03600000Y03226000D02*
X03600000Y03274000D01*
X03500000Y03274000D02*
X03500000Y03226000D01*
X03400000Y03226000D02*
X03400000Y03274000D01*
X03300000Y03274000D02*
X03300000Y03226000D01*
X03200000Y03226000D02*
X03200000Y03274000D01*
X03100000Y03274000D02*
X03100000Y03226000D01*
X03000000Y03226000D02*
X03000000Y03274000D01*
X02900000Y03274000D02*
X02900000Y03226000D01*
X02700000Y03226000D02*
X02700000Y03274000D01*
X02600000Y03274000D02*
X02600000Y03226000D01*
X02500000Y03226000D02*
X02500000Y03274000D01*
X02400000Y03274000D02*
X02400000Y03226000D01*
X02300000Y03226000D02*
X02300000Y03274000D01*
X02200000Y03274000D02*
X02200000Y03226000D01*
X02100000Y03226000D02*
X02100000Y03274000D01*
X02000000Y03274000D02*
X02000000Y03226000D01*
X02150000Y03426000D02*
X02150000Y03474000D01*
X02250000Y03474000D02*
X02250000Y03426000D01*
X02350000Y03426000D02*
X02350000Y03474000D01*
X02450000Y03474000D02*
X02450000Y03426000D01*
X02550000Y03426000D02*
X02550000Y03474000D01*
X02650000Y03474000D02*
X02650000Y03426000D01*
X02750000Y03426000D02*
X02750000Y03474000D01*
X02850000Y03474000D02*
X02850000Y03426000D01*
X03100000Y03426000D02*
X03100000Y03474000D01*
X03200000Y03474000D02*
X03200000Y03426000D01*
X03300000Y03426000D02*
X03300000Y03474000D01*
X03400000Y03474000D02*
X03400000Y03426000D01*
X03500000Y03426000D02*
X03500000Y03474000D01*
X03600000Y03474000D02*
X03600000Y03426000D01*
X03700000Y03426000D02*
X03700000Y03474000D01*
X03900000Y03474000D02*
X03900000Y03426000D01*
X04000000Y03426000D02*
X04000000Y03474000D01*
X04100000Y03474000D02*
X04100000Y03426000D01*
X04200000Y03426000D02*
X04200000Y03474000D01*
X04300000Y03474000D02*
X04300000Y03426000D01*
X04400000Y03426000D02*
X04400000Y03474000D01*
X04500000Y03474000D02*
X04500000Y03426000D01*
X04500000Y03726000D02*
X04500000Y03774000D01*
X04400000Y03774000D02*
X04400000Y03726000D01*
X04300000Y03726000D02*
X04300000Y03774000D01*
X04200000Y03774000D02*
X04200000Y03726000D01*
X04100000Y03726000D02*
X04100000Y03774000D01*
X04000000Y03774000D02*
X04000000Y03726000D01*
X03900000Y03726000D02*
X03900000Y03774000D01*
X03700000Y03774000D02*
X03700000Y03726000D01*
X03600000Y03726000D02*
X03600000Y03774000D01*
X03500000Y03774000D02*
X03500000Y03726000D01*
X03400000Y03726000D02*
X03400000Y03774000D01*
X03300000Y03774000D02*
X03300000Y03726000D01*
X03200000Y03726000D02*
X03200000Y03774000D01*
X03100000Y03774000D02*
X03100000Y03726000D01*
X02850000Y03726000D02*
X02850000Y03774000D01*
X02750000Y03774000D02*
X02750000Y03726000D01*
X02650000Y03726000D02*
X02650000Y03774000D01*
X02550000Y03774000D02*
X02550000Y03726000D01*
X02450000Y03726000D02*
X02450000Y03774000D01*
X02350000Y03774000D02*
X02350000Y03726000D01*
X02250000Y03726000D02*
X02250000Y03774000D01*
X02150000Y03774000D02*
X02150000Y03726000D01*
X02100000Y04026000D02*
X02100000Y04074000D01*
X02000000Y04074000D02*
X02000000Y04026000D01*
X01900000Y04026000D02*
X01900000Y04074000D01*
X02200000Y04074000D02*
X02200000Y04026000D01*
X02300000Y04026000D02*
X02300000Y04074000D01*
X02400000Y04074000D02*
X02400000Y04026000D01*
X02500000Y04026000D02*
X02500000Y04074000D01*
X02700000Y04074000D02*
X02700000Y04026000D01*
X02800000Y04026000D02*
X02800000Y04074000D01*
X02900000Y04074000D02*
X02900000Y04026000D01*
X03000000Y04026000D02*
X03000000Y04074000D01*
X03100000Y04074000D02*
X03100000Y04026000D01*
X03200000Y04026000D02*
X03200000Y04074000D01*
X03300000Y04074000D02*
X03300000Y04026000D01*
X03500000Y04026000D02*
X03500000Y04074000D01*
X03600000Y04074000D02*
X03600000Y04026000D01*
X03700000Y04026000D02*
X03700000Y04074000D01*
X03800000Y04074000D02*
X03800000Y04026000D01*
X03900000Y04026000D02*
X03900000Y04074000D01*
X04000000Y04074000D02*
X04000000Y04026000D01*
X04100000Y04026000D02*
X04100000Y04074000D01*
X04250000Y04074000D02*
X04250000Y04026000D01*
X04350000Y04026000D02*
X04350000Y04074000D01*
X04450000Y04074000D02*
X04450000Y04026000D01*
X04550000Y04026000D02*
X04550000Y04074000D01*
X04650000Y04074000D02*
X04650000Y04026000D01*
X04750000Y04026000D02*
X04750000Y04074000D01*
X04850000Y04074000D02*
X04850000Y04026000D01*
X05000000Y04026000D02*
X05000000Y04074000D01*
X05100000Y04074000D02*
X05100000Y04026000D01*
X05200000Y04026000D02*
X05200000Y04074000D01*
X05300000Y04074000D02*
X05300000Y04026000D01*
X05400000Y04026000D02*
X05400000Y04074000D01*
X05500000Y04074000D02*
X05500000Y04026000D01*
X05600000Y04026000D02*
X05600000Y04074000D01*
X05850000Y04074000D02*
X05850000Y04026000D01*
X05950000Y04026000D02*
X05950000Y04074000D01*
X06050000Y04074000D02*
X06050000Y04026000D01*
X06150000Y04026000D02*
X06150000Y04074000D01*
X06250000Y04074000D02*
X06250000Y04026000D01*
X06350000Y04026000D02*
X06350000Y04074000D01*
X06450000Y04074000D02*
X06450000Y04026000D01*
X06550000Y04026000D02*
X06550000Y04074000D01*
X06650000Y04074000D02*
X06650000Y04026000D01*
X06750000Y04026000D02*
X06750000Y04074000D01*
X06750000Y03824000D02*
X06750000Y03776000D01*
X06650000Y03776000D02*
X06650000Y03824000D01*
X06550000Y03824000D02*
X06550000Y03776000D01*
X06450000Y03776000D02*
X06450000Y03824000D01*
X06350000Y03824000D02*
X06350000Y03776000D01*
X06250000Y03776000D02*
X06250000Y03824000D01*
X06150000Y03824000D02*
X06150000Y03776000D01*
X06050000Y03776000D02*
X06050000Y03824000D01*
X05950000Y03824000D02*
X05950000Y03776000D01*
X05850000Y03776000D02*
X05850000Y03824000D01*
X05600000Y03824000D02*
X05600000Y03776000D01*
X05500000Y03776000D02*
X05500000Y03824000D01*
X05400000Y03824000D02*
X05400000Y03776000D01*
X05300000Y03776000D02*
X05300000Y03824000D01*
X05200000Y03824000D02*
X05200000Y03776000D01*
X05100000Y03776000D02*
X05100000Y03824000D01*
X05000000Y03824000D02*
X05000000Y03776000D01*
X05000000Y03524000D02*
X05000000Y03476000D01*
X05100000Y03476000D02*
X05100000Y03524000D01*
X05200000Y03524000D02*
X05200000Y03476000D01*
X05300000Y03476000D02*
X05300000Y03524000D01*
X05400000Y03524000D02*
X05400000Y03476000D01*
X05500000Y03476000D02*
X05500000Y03524000D01*
X05600000Y03524000D02*
X05600000Y03476000D01*
X05600000Y03324000D02*
X05600000Y03276000D01*
X05500000Y03276000D02*
X05500000Y03324000D01*
X05400000Y03324000D02*
X05400000Y03276000D01*
X05300000Y03276000D02*
X05300000Y03324000D01*
X05200000Y03324000D02*
X05200000Y03276000D01*
X05100000Y03276000D02*
X05100000Y03324000D01*
X05000000Y03324000D02*
X05000000Y03276000D01*
X04900000Y03276000D02*
X04900000Y03324000D01*
X04900000Y03024000D02*
X04900000Y02976000D01*
X05000000Y02976000D02*
X05000000Y03024000D01*
X05100000Y03024000D02*
X05100000Y02976000D01*
X05200000Y02976000D02*
X05200000Y03024000D01*
X05300000Y03024000D02*
X05300000Y02976000D01*
X05400000Y02976000D02*
X05400000Y03024000D01*
X05500000Y03024000D02*
X05500000Y02976000D01*
X05600000Y02976000D02*
X05600000Y03024000D01*
X05600000Y02774000D02*
X05600000Y02726000D01*
X05500000Y02726000D02*
X05500000Y02774000D01*
X05400000Y02774000D02*
X05400000Y02726000D01*
X05300000Y02726000D02*
X05300000Y02774000D01*
X05200000Y02774000D02*
X05200000Y02726000D01*
X05100000Y02726000D02*
X05100000Y02774000D01*
X05000000Y02774000D02*
X05000000Y02726000D01*
X04900000Y02726000D02*
X04900000Y02774000D01*
X04900000Y02474000D02*
X04900000Y02426000D01*
X05000000Y02426000D02*
X05000000Y02474000D01*
X05100000Y02474000D02*
X05100000Y02426000D01*
X05200000Y02426000D02*
X05200000Y02474000D01*
X05300000Y02474000D02*
X05300000Y02426000D01*
X05400000Y02426000D02*
X05400000Y02474000D01*
X05500000Y02474000D02*
X05500000Y02426000D01*
X05600000Y02426000D02*
X05600000Y02474000D01*
X06150000Y02474000D02*
X06150000Y02426000D01*
X06250000Y02426000D02*
X06250000Y02474000D01*
X06350000Y02474000D02*
X06350000Y02426000D01*
X06450000Y02426000D02*
X06450000Y02474000D01*
X06550000Y02474000D02*
X06550000Y02426000D01*
X06650000Y02426000D02*
X06650000Y02474000D01*
X06750000Y02474000D02*
X06750000Y02426000D01*
X06750000Y02726000D02*
X06750000Y02774000D01*
X06650000Y02774000D02*
X06650000Y02726000D01*
X06550000Y02726000D02*
X06550000Y02774000D01*
X06450000Y02774000D02*
X06450000Y02726000D01*
X06350000Y02726000D02*
X06350000Y02774000D01*
X06250000Y02774000D02*
X06250000Y02726000D01*
X06150000Y02726000D02*
X06150000Y02774000D01*
X06150000Y02976000D02*
X06150000Y03024000D01*
X06250000Y03024000D02*
X06250000Y02976000D01*
X06350000Y02976000D02*
X06350000Y03024000D01*
X06450000Y03024000D02*
X06450000Y02976000D01*
X06550000Y02976000D02*
X06550000Y03024000D01*
X06650000Y03024000D02*
X06650000Y02976000D01*
X06750000Y02976000D02*
X06750000Y03024000D01*
X06750000Y03276000D02*
X06750000Y03324000D01*
X06650000Y03324000D02*
X06650000Y03276000D01*
X06550000Y03276000D02*
X06550000Y03324000D01*
X06450000Y03324000D02*
X06450000Y03276000D01*
X06350000Y03276000D02*
X06350000Y03324000D01*
X06250000Y03324000D02*
X06250000Y03276000D01*
X06150000Y03276000D02*
X06150000Y03324000D01*
X06150000Y03476000D02*
X06150000Y03524000D01*
X06250000Y03524000D02*
X06250000Y03476000D01*
X06350000Y03476000D02*
X06350000Y03524000D01*
X06450000Y03524000D02*
X06450000Y03476000D01*
X06550000Y03476000D02*
X06550000Y03524000D01*
X06650000Y03524000D02*
X06650000Y03476000D01*
X06750000Y03476000D02*
X06750000Y03524000D01*
X06050000Y03524000D02*
X06050000Y03476000D01*
X05950000Y03476000D02*
X05950000Y03524000D01*
X05850000Y03524000D02*
X05850000Y03476000D01*
X05850000Y04326000D02*
X05850000Y04374000D01*
X05950000Y04374000D02*
X05950000Y04326000D01*
X06050000Y04326000D02*
X06050000Y04374000D01*
X06150000Y04374000D02*
X06150000Y04326000D01*
X06250000Y04326000D02*
X06250000Y04374000D01*
X06350000Y04374000D02*
X06350000Y04326000D01*
X06450000Y04326000D02*
X06450000Y04374000D01*
X06550000Y04374000D02*
X06550000Y04326000D01*
X06650000Y04326000D02*
X06650000Y04374000D01*
X06750000Y04374000D02*
X06750000Y04326000D01*
X05600000Y04326000D02*
X05600000Y04374000D01*
X05500000Y04374000D02*
X05500000Y04326000D01*
X05400000Y04326000D02*
X05400000Y04374000D01*
X05300000Y04374000D02*
X05300000Y04326000D01*
X05200000Y04326000D02*
X05200000Y04374000D01*
X05100000Y04374000D02*
X05100000Y04326000D01*
X05000000Y04326000D02*
X05000000Y04374000D01*
X04850000Y04374000D02*
X04850000Y04326000D01*
X04750000Y04326000D02*
X04750000Y04374000D01*
X04650000Y04374000D02*
X04650000Y04326000D01*
X04550000Y04326000D02*
X04550000Y04374000D01*
X04450000Y04374000D02*
X04450000Y04326000D01*
X04350000Y04326000D02*
X04350000Y04374000D01*
X04250000Y04374000D02*
X04250000Y04326000D01*
X04100000Y04326000D02*
X04100000Y04374000D01*
X04000000Y04374000D02*
X04000000Y04326000D01*
X03900000Y04326000D02*
X03900000Y04374000D01*
X03800000Y04374000D02*
X03800000Y04326000D01*
X03700000Y04326000D02*
X03700000Y04374000D01*
X03600000Y04374000D02*
X03600000Y04326000D01*
X03500000Y04326000D02*
X03500000Y04374000D01*
X03300000Y04374000D02*
X03300000Y04326000D01*
X03200000Y04326000D02*
X03200000Y04374000D01*
X03100000Y04374000D02*
X03100000Y04326000D01*
X03000000Y04326000D02*
X03000000Y04374000D01*
X02900000Y04374000D02*
X02900000Y04326000D01*
X02800000Y04326000D02*
X02800000Y04374000D01*
X02700000Y04374000D02*
X02700000Y04326000D01*
X02500000Y04326000D02*
X02500000Y04374000D01*
X02400000Y04374000D02*
X02400000Y04326000D01*
X02300000Y04326000D02*
X02300000Y04374000D01*
X02200000Y04374000D02*
X02200000Y04326000D01*
X02100000Y04326000D02*
X02100000Y04374000D01*
X02000000Y04374000D02*
X02000000Y04326000D01*
X01900000Y04326000D02*
X01900000Y04374000D01*
X01600000Y04376000D02*
X01600000Y04424000D01*
X01500000Y04424000D02*
X01500000Y04376000D01*
X01400000Y04376000D02*
X01400000Y04424000D01*
X01300000Y04424000D02*
X01300000Y04376000D01*
X01200000Y04376000D02*
X01200000Y04424000D01*
X01100000Y04424000D02*
X01100000Y04376000D01*
X01000000Y04376000D02*
X01000000Y04424000D01*
X00900000Y04424000D02*
X00900000Y04376000D01*
X00800000Y04376000D02*
X00800000Y04424000D01*
X00800000Y04224000D02*
X00800000Y04176000D01*
X00900000Y04176000D02*
X00900000Y04224000D01*
X01000000Y04224000D02*
X01000000Y04176000D01*
X01100000Y04176000D02*
X01100000Y04224000D01*
X01200000Y04224000D02*
X01200000Y04176000D01*
X01300000Y04176000D02*
X01300000Y04224000D01*
X01400000Y04224000D02*
X01400000Y04176000D01*
X01500000Y04176000D02*
X01500000Y04224000D01*
X01600000Y04224000D02*
X01600000Y04176000D01*
X01600000Y03924000D02*
X01600000Y03876000D01*
X01500000Y03876000D02*
X01500000Y03924000D01*
X01400000Y03924000D02*
X01400000Y03876000D01*
X01300000Y03876000D02*
X01300000Y03924000D01*
X01200000Y03924000D02*
X01200000Y03876000D01*
X01100000Y03876000D02*
X01100000Y03924000D01*
X01000000Y03924000D02*
X01000000Y03876000D01*
X00900000Y03876000D02*
X00900000Y03924000D01*
X00800000Y03924000D02*
X00800000Y03876000D01*
X00700000Y03876000D02*
X00700000Y03924000D01*
X00800000Y03724000D02*
X00800000Y03676000D01*
X00900000Y03676000D02*
X00900000Y03724000D01*
X01000000Y03724000D02*
X01000000Y03676000D01*
X01100000Y03676000D02*
X01100000Y03724000D01*
X01200000Y03724000D02*
X01200000Y03676000D01*
X01300000Y03676000D02*
X01300000Y03724000D01*
X01400000Y03724000D02*
X01400000Y03676000D01*
X01500000Y03676000D02*
X01500000Y03724000D01*
X01600000Y03724000D02*
X01600000Y03676000D01*
X01600000Y03524000D02*
X01600000Y03476000D01*
X01500000Y03476000D02*
X01500000Y03524000D01*
X01400000Y03524000D02*
X01400000Y03476000D01*
X01300000Y03476000D02*
X01300000Y03524000D01*
X01200000Y03524000D02*
X01200000Y03476000D01*
X01100000Y03476000D02*
X01100000Y03524000D01*
X01000000Y03524000D02*
X01000000Y03476000D01*
X00900000Y03476000D02*
X00900000Y03524000D01*
X00800000Y03524000D02*
X00800000Y03476000D01*
X00700000Y03476000D02*
X00700000Y03524000D01*
X00700000Y03224000D02*
X00700000Y03176000D01*
X00800000Y03176000D02*
X00800000Y03224000D01*
X00900000Y03224000D02*
X00900000Y03176000D01*
X01000000Y03176000D02*
X01000000Y03224000D01*
X01100000Y03224000D02*
X01100000Y03176000D01*
X01200000Y03176000D02*
X01200000Y03224000D01*
X01300000Y03224000D02*
X01300000Y03176000D01*
X01400000Y03176000D02*
X01400000Y03224000D01*
X01500000Y03224000D02*
X01500000Y03176000D01*
X01600000Y03176000D02*
X01600000Y03224000D01*
X00700000Y04176000D02*
X00700000Y04224000D01*
D11*
X00400000Y03800000D03*
X00300000Y03800000D03*
X00200000Y03800000D03*
X00200000Y03700000D03*
X00300000Y03700000D03*
X00400000Y03700000D03*
X00400000Y03600000D03*
X00300000Y03600000D03*
X00200000Y03600000D03*
X00200000Y03500000D03*
X00300000Y03500000D03*
X00400000Y03500000D03*
X00400000Y03400000D03*
X00300000Y03400000D03*
X00200000Y03400000D03*
X00200000Y03300000D03*
X00300000Y03300000D03*
X00400000Y03300000D03*
X00400000Y03200000D03*
X00300000Y03200000D03*
X00200000Y03200000D03*
X00200000Y03100000D03*
X00300000Y03100000D03*
X00400000Y03100000D03*
X00400000Y03000000D03*
X00300000Y03000000D03*
X00200000Y03000000D03*
X00200000Y02900000D03*
X00300000Y02900000D03*
X00400000Y02900000D03*
X00400000Y02800000D03*
X00300000Y02800000D03*
X00200000Y02800000D03*
X00200000Y02700000D03*
X00300000Y02700000D03*
X00400000Y02700000D03*
X00400000Y02600000D03*
X00300000Y02600000D03*
X00200000Y02600000D03*
X00200000Y02500000D03*
X00300000Y02500000D03*
X00400000Y02500000D03*
X00400000Y02400000D03*
X00300000Y02400000D03*
X00200000Y02400000D03*
X00200000Y02300000D03*
X00300000Y02300000D03*
X00400000Y02300000D03*
X00400000Y02200000D03*
X00300000Y02200000D03*
X00200000Y02200000D03*
X00200000Y02100000D03*
X00300000Y02100000D03*
X00400000Y02100000D03*
X00400000Y02000000D03*
X00300000Y02000000D03*
X00200000Y02000000D03*
X00200000Y01900000D03*
X00300000Y01900000D03*
X00400000Y01900000D03*
X00400000Y01800000D03*
X00300000Y01800000D03*
X00200000Y01800000D03*
X00200000Y01700000D03*
X00300000Y01700000D03*
X00400000Y01700000D03*
X00400000Y01600000D03*
X00300000Y01600000D03*
X00200000Y01600000D03*
X00200000Y01500000D03*
X00300000Y01500000D03*
X00400000Y01500000D03*
X00400000Y01400000D03*
X00300000Y01400000D03*
X00200000Y01400000D03*
X00200000Y01300000D03*
X00300000Y01300000D03*
X00400000Y01300000D03*
X00400000Y01200000D03*
X00300000Y01200000D03*
X00200000Y01200000D03*
X00200000Y01100000D03*
X00300000Y01100000D03*
X00400000Y01100000D03*
X00400000Y01000000D03*
X00300000Y01000000D03*
X00200000Y01000000D03*
X00200000Y00900000D03*
X00300000Y00900000D03*
X00400000Y00900000D03*
X00400000Y00800000D03*
X00300000Y00800000D03*
X00200000Y00800000D03*
X00200000Y00700000D03*
X00300000Y00700000D03*
X00400000Y00700000D03*
D12*
X00200000Y00700000D02*
X00196000Y00700000D01*
X00196000Y00742000D01*
X00084000Y00854000D01*
X00084000Y03409000D01*
X00119000Y03444000D01*
X00119000Y03717000D01*
X00196000Y03794000D01*
X00200000Y03800000D01*
X00245000Y03787000D02*
X00245000Y03829000D01*
X00616000Y04200000D01*
X00700000Y04200000D01*
X00602000Y04263000D02*
X00028000Y03689000D01*
X00028000Y02506000D01*
X00056000Y02478000D01*
X00056000Y02513000D02*
X00063000Y02520000D01*
X00063000Y03423000D01*
X00112000Y03395000D02*
X00112000Y03318000D01*
X00154000Y03318000D02*
X00189000Y03353000D01*
X00217000Y03353000D01*
X00259000Y03395000D01*
X00259000Y03423000D01*
X00294000Y03458000D01*
X00322000Y03458000D01*
X00343000Y03479000D01*
X00343000Y03556000D01*
X00301000Y03598000D01*
X00300000Y03600000D01*
X00357000Y03619000D02*
X00385000Y03647000D01*
X00406000Y03647000D01*
X00455000Y03696000D01*
X00400000Y03700000D02*
X00399000Y03703000D01*
X00301000Y03703000D01*
X00300000Y03700000D01*
X00343000Y03738000D02*
X00343000Y03801000D01*
X00504000Y03962000D01*
X00714000Y03962000D01*
X00770000Y03906000D01*
X00798000Y03906000D01*
X00800000Y03900000D01*
X00700000Y03829000D02*
X01106000Y03829000D01*
X01176000Y03899000D01*
X01197000Y03899000D01*
X01200000Y03900000D01*
X01379000Y03801000D02*
X01463000Y03885000D01*
X01463000Y03941000D01*
X01484000Y03962000D01*
X01540000Y03962000D01*
X01596000Y03906000D01*
X01600000Y03900000D01*
X01659000Y03906000D02*
X01792000Y04039000D01*
X01792000Y04186000D01*
X01869000Y04263000D01*
X01897000Y04256000D02*
X01806000Y04165000D01*
X01806000Y04025000D01*
X01673000Y03892000D01*
X01673000Y03864000D01*
X01666000Y03857000D01*
X01715000Y03808000D01*
X01708000Y03766000D02*
X01848000Y03906000D01*
X01848000Y03976000D01*
X01904000Y03976000D01*
X01939000Y04011000D01*
X01939000Y04067000D01*
X02051000Y04179000D01*
X02030000Y04256000D02*
X01820000Y04046000D01*
X01820000Y04004000D01*
X01820000Y03913000D01*
X01764000Y04032000D02*
X01701000Y03969000D01*
X01687000Y03969000D01*
X01715000Y04018000D02*
X01722000Y04025000D01*
X01722000Y04165000D01*
X01673000Y04214000D01*
X01603000Y04214000D01*
X01600000Y04200000D01*
X01603000Y04200000D01*
X01603000Y04214000D01*
X01603000Y04396000D01*
X01600000Y04400000D01*
X01652000Y04459000D02*
X01260000Y04459000D01*
X01204000Y04403000D01*
X01200000Y04400000D01*
X01204000Y04396000D01*
X01204000Y04200000D01*
X01200000Y04200000D01*
X01100000Y04200000D02*
X01099000Y04200000D01*
X01099000Y04396000D01*
X01100000Y04400000D01*
X01300000Y04400000D02*
X01302000Y04396000D01*
X01302000Y04200000D01*
X01300000Y04200000D01*
X01400000Y04200000D02*
X01400000Y04400000D01*
X01498000Y04396000D02*
X01500000Y04400000D01*
X01498000Y04396000D02*
X01498000Y04200000D01*
X01500000Y04200000D01*
X01617000Y04137000D02*
X01666000Y04186000D01*
X01659000Y04158000D02*
X01694000Y04158000D01*
X01659000Y04158000D02*
X01477000Y03976000D01*
X00413000Y03976000D01*
X00259000Y03822000D01*
X00259000Y03556000D01*
X00203000Y03500000D01*
X00200000Y03500000D01*
X00203000Y03444000D02*
X00259000Y03500000D01*
X00300000Y03500000D01*
X00357000Y03444000D02*
X00399000Y03402000D01*
X00400000Y03400000D01*
X00392000Y03353000D02*
X00490000Y03353000D01*
X00511000Y03374000D01*
X01596000Y03374000D01*
X01890000Y03668000D01*
X01862000Y03661000D02*
X01862000Y03696000D01*
X01862000Y03661000D02*
X01589000Y03388000D01*
X00623000Y03388000D01*
X00609000Y03402000D01*
X00602000Y03339000D02*
X00406000Y03143000D01*
X00385000Y03143000D01*
X00343000Y03101000D01*
X00343000Y02982000D01*
X00308000Y02947000D01*
X00287000Y02947000D01*
X00245000Y02905000D01*
X00245000Y02842000D01*
X00203000Y02800000D01*
X00200000Y02800000D01*
X00182000Y02758000D02*
X00154000Y02786000D01*
X00154000Y03052000D01*
X00196000Y03094000D01*
X00200000Y03100000D01*
X00217000Y03157000D02*
X00182000Y03157000D01*
X00154000Y03185000D01*
X00154000Y03318000D01*
X00252000Y03255000D02*
X00203000Y03206000D01*
X00200000Y03200000D01*
X00245000Y03206000D02*
X00245000Y03185000D01*
X00217000Y03157000D01*
X00245000Y03206000D02*
X00280000Y03241000D01*
X00420000Y03241000D01*
X00511000Y03332000D01*
X00546000Y03332000D01*
X00518000Y03360000D02*
X00413000Y03255000D01*
X00252000Y03255000D01*
X00300000Y03300000D02*
X00301000Y03304000D01*
X00343000Y03304000D01*
X00392000Y03353000D01*
X00490000Y03388000D02*
X00490000Y03528000D01*
X00518000Y03556000D02*
X00518000Y03416000D01*
X00609000Y03500000D02*
X00700000Y03500000D01*
X00609000Y03500000D02*
X00525000Y03584000D01*
X00511000Y03584000D01*
X00504000Y03577000D01*
X00462000Y03577000D01*
X00406000Y03605000D02*
X00400000Y03600000D01*
X00406000Y03605000D02*
X00546000Y03605000D01*
X00714000Y03773000D01*
X01372000Y03773000D01*
X01498000Y03899000D01*
X01500000Y03900000D01*
X01603000Y03829000D02*
X01659000Y03885000D01*
X01659000Y03906000D01*
X01666000Y03857000D02*
X01568000Y03759000D01*
X00861000Y03759000D01*
X00805000Y03703000D01*
X00800000Y03700000D01*
X00900000Y03700000D02*
X00903000Y03696000D01*
X00903000Y03500000D01*
X00900000Y03500000D01*
X01000000Y03500000D02*
X01001000Y03500000D01*
X01001000Y03696000D01*
X01000000Y03700000D01*
X01099000Y03696000D02*
X01100000Y03700000D01*
X01099000Y03696000D02*
X01099000Y03500000D01*
X01100000Y03500000D01*
X01099000Y03500000D02*
X01015000Y03416000D01*
X00994000Y03416000D01*
X01015000Y03332000D02*
X01246000Y03332000D01*
X01337000Y03241000D01*
X01337000Y03157000D01*
X01316000Y03136000D01*
X01260000Y03136000D01*
X01155000Y03031000D01*
X01155000Y03017000D01*
X01197000Y02975000D01*
X01197000Y02779000D01*
X01295000Y02681000D01*
X01211000Y02618000D02*
X01064000Y02765000D01*
X01064000Y03241000D01*
X01071000Y03248000D01*
X01071000Y03262000D01*
X01050000Y03283000D01*
X01036000Y03283000D01*
X00987000Y03234000D01*
X01000000Y03200000D01*
X00994000Y03206000D01*
X00994000Y03227000D01*
X00987000Y03234000D01*
X00882000Y03339000D01*
X00602000Y03339000D01*
X00630000Y03311000D02*
X00630000Y03297000D01*
X00700000Y03227000D01*
X00700000Y03206000D01*
X00700000Y03200000D01*
X00700000Y03206000D02*
X00728000Y03206000D01*
X00798000Y03276000D01*
X00924000Y03276000D01*
X00959000Y03241000D01*
X00959000Y02765000D01*
X01015000Y02709000D01*
X01043000Y02653000D02*
X01043000Y03255000D01*
X00945000Y03234000D02*
X00945000Y02716000D01*
X01043000Y02618000D01*
X01036000Y02590000D02*
X00714000Y02912000D01*
X00896000Y03094000D01*
X00896000Y03199000D01*
X00900000Y03200000D01*
X00861000Y03185000D02*
X00861000Y03241000D01*
X00882000Y03262000D01*
X00917000Y03262000D01*
X00945000Y03234000D01*
X00861000Y03185000D02*
X00812000Y03136000D01*
X00686000Y03136000D01*
X00623000Y03199000D01*
X00623000Y03269000D01*
X00518000Y03185000D02*
X00518000Y03136000D01*
X00406000Y03024000D01*
X00406000Y03003000D01*
X00400000Y03000000D01*
X00490000Y03073000D02*
X00539000Y03024000D01*
X00791000Y03024000D01*
X00791000Y03094000D02*
X00658000Y03094000D01*
X00483000Y03185000D02*
X00399000Y03101000D01*
X00400000Y03100000D01*
X00665000Y02933000D02*
X00490000Y02758000D01*
X00182000Y02758000D01*
X00203000Y02702000D02*
X00200000Y02700000D01*
X00203000Y02702000D02*
X00245000Y02744000D01*
X00546000Y02744000D01*
X00714000Y02912000D01*
X00700000Y02863000D02*
X00987000Y02576000D01*
X01701000Y02576000D01*
X01785000Y02492000D01*
X01785000Y02436000D01*
X01834000Y02387000D01*
X01967000Y02387000D01*
X01988000Y02408000D01*
X01988000Y02527000D01*
X01974000Y02562000D02*
X01834000Y02562000D01*
X01764000Y02632000D01*
X01610000Y02632000D01*
X01407000Y02835000D01*
X01463000Y02961000D02*
X01274000Y02772000D01*
X01274000Y02737000D02*
X01512000Y02975000D01*
X01512000Y02996000D01*
X01540000Y03038000D02*
X01540000Y02737000D01*
X01568000Y02758000D02*
X01568000Y03045000D01*
X01505000Y03108000D01*
X01449000Y03150000D02*
X01449000Y03290000D01*
X01421000Y03255000D02*
X01435000Y03241000D01*
X01435000Y03157000D01*
X01330000Y03052000D01*
X01267000Y03052000D01*
X01183000Y03024000D02*
X01400000Y03024000D01*
X01428000Y02961000D02*
X01428000Y03129000D01*
X01449000Y03150000D01*
X01400000Y03200000D02*
X01400000Y03206000D01*
X01246000Y03360000D01*
X00518000Y03360000D01*
X00357000Y03444000D02*
X00357000Y03619000D01*
X00434000Y03640000D02*
X00511000Y03717000D01*
X00623000Y03717000D01*
X00595000Y03605000D02*
X00595000Y03549000D01*
X00406000Y03801000D02*
X00400000Y03800000D01*
X00406000Y03801000D02*
X01379000Y03801000D01*
X01400000Y03700000D02*
X01400000Y03500000D01*
X01302000Y03500000D02*
X01300000Y03500000D01*
X01302000Y03500000D02*
X01302000Y03696000D01*
X01300000Y03700000D01*
X01204000Y03696000D02*
X01200000Y03700000D01*
X01204000Y03696000D02*
X01204000Y03500000D01*
X01200000Y03500000D01*
X01421000Y03339000D02*
X01421000Y03255000D01*
X01463000Y03241000D02*
X01463000Y02961000D01*
X01687000Y03017000D02*
X01505000Y03199000D01*
X01500000Y03200000D01*
X01463000Y03241000D02*
X01491000Y03269000D01*
X01491000Y03346000D01*
X01582000Y03262000D02*
X01554000Y03234000D01*
X01554000Y03185000D01*
X01582000Y03262000D02*
X01617000Y03262000D01*
X01638000Y03241000D01*
X01687000Y03241000D01*
X01715000Y03353000D02*
X01708000Y03360000D01*
X01708000Y03451000D01*
X01736000Y03367000D02*
X01890000Y03213000D01*
X01918000Y03206000D02*
X01918000Y03710000D01*
X01890000Y03738000D01*
X01890000Y03752000D01*
X02002000Y03864000D01*
X02037000Y03864000D01*
X02163000Y03990000D01*
X02163000Y04312000D01*
X02198000Y04347000D01*
X02200000Y04350000D01*
X02184000Y04410000D02*
X02240000Y04410000D01*
X02300000Y04350000D01*
X02303000Y04347000D01*
X02303000Y04053000D01*
X02300000Y04050000D01*
X02338000Y04067000D02*
X02338000Y03934000D01*
X02156000Y03752000D01*
X02150000Y03750000D01*
X02149000Y03745000D01*
X02114000Y03710000D01*
X02114000Y03430000D01*
X02002000Y03318000D01*
X02002000Y03255000D01*
X02000000Y03250000D01*
X02002000Y03248000D01*
X02002000Y03220000D01*
X02135000Y03087000D01*
X02135000Y02814000D01*
X02086000Y02765000D01*
X02086000Y02709000D01*
X01988000Y02611000D01*
X01939000Y02660000D01*
X01736000Y02660000D01*
X01652000Y02744000D01*
X01650000Y02750000D01*
X01715000Y02709000D02*
X01715000Y03353000D01*
X01617000Y03437000D02*
X01589000Y03437000D01*
X01526000Y03500000D01*
X01500000Y03500000D01*
X01498000Y03500000D01*
X01498000Y03696000D01*
X01500000Y03700000D01*
X01600000Y03700000D02*
X01603000Y03696000D01*
X01603000Y03500000D01*
X01600000Y03500000D01*
X01617000Y03437000D02*
X01834000Y03654000D01*
X01834000Y03731000D01*
X02079000Y03976000D01*
X02135000Y03997000D02*
X02135000Y04235000D01*
X02037000Y04333000D01*
X02037000Y04389000D01*
X02072000Y04424000D01*
X02401000Y04424000D01*
X02422000Y04403000D01*
X02471000Y04403000D01*
X02492000Y04424000D01*
X02478000Y04452000D02*
X02457000Y04431000D01*
X02478000Y04452000D02*
X03976000Y04452000D01*
X04074000Y04354000D01*
X04095000Y04354000D01*
X04100000Y04350000D01*
X04200000Y04375000D02*
X04242000Y04417000D01*
X04424000Y04417000D01*
X04410000Y04466000D02*
X04494000Y04382000D01*
X04494000Y04242000D01*
X04501000Y04214000D02*
X04550000Y04263000D01*
X04550000Y04350000D01*
X04585000Y04361000D02*
X04585000Y04263000D01*
X04522000Y04200000D01*
X03976000Y04200000D01*
X03836000Y04060000D01*
X03836000Y04011000D01*
X03675000Y03850000D01*
X03700000Y03750000D02*
X03696000Y03745000D01*
X03675000Y03745000D01*
X03619000Y03689000D01*
X03010000Y03689000D01*
X02884000Y03815000D01*
X02436000Y03815000D01*
X02387000Y03766000D01*
X02387000Y03654000D01*
X02317000Y03584000D01*
X02317000Y03542000D02*
X02779000Y03542000D01*
X02807000Y03514000D01*
X02954000Y03514000D01*
X02947000Y03556000D02*
X03017000Y03486000D01*
X03052000Y03423000D02*
X03150000Y03325000D01*
X03367000Y03325000D01*
X03374000Y03318000D01*
X03402000Y03276000D02*
X03535000Y03409000D01*
X03535000Y03486000D01*
X03668000Y03619000D01*
X03710000Y03619000D01*
X03864000Y03773000D01*
X03864000Y03794000D01*
X03885000Y03815000D01*
X04011000Y03815000D01*
X04060000Y03766000D01*
X04060000Y03710000D01*
X04263000Y03507000D01*
X04263000Y03290000D01*
X04298000Y03255000D01*
X04300000Y03250000D01*
X04340000Y03234000D02*
X04340000Y03535000D01*
X04137000Y03738000D01*
X04137000Y03787000D01*
X04095000Y03829000D01*
X03850000Y03829000D01*
X03738000Y03717000D01*
X03738000Y03710000D01*
X03689000Y03661000D01*
X03577000Y03661000D01*
X03689000Y03633000D02*
X03822000Y03766000D01*
X03815000Y03815000D02*
X03906000Y03906000D01*
X03934000Y03920000D02*
X03857000Y03997000D01*
X03738000Y04011000D02*
X03738000Y04088000D01*
X03535000Y04291000D01*
X03437000Y04291000D01*
X03318000Y04410000D01*
X02660000Y04410000D01*
X02506000Y04256000D01*
X02331000Y04256000D01*
X02331000Y04291000D02*
X02520000Y04291000D01*
X02653000Y04424000D01*
X03906000Y04424000D01*
X03976000Y04354000D01*
X03997000Y04354000D01*
X04000000Y04350000D01*
X03976000Y04270000D02*
X04466000Y04270000D01*
X04501000Y04214000D02*
X03955000Y04214000D01*
X03976000Y04270000D02*
X03801000Y04095000D01*
X03801000Y04053000D01*
X03800000Y04050000D01*
X03738000Y04011000D02*
X03731000Y04004000D01*
X03731000Y03941000D01*
X03696000Y04046000D02*
X03700000Y04050000D01*
X03696000Y04046000D02*
X03675000Y04046000D01*
X03619000Y03990000D01*
X03584000Y03990000D01*
X03535000Y04039000D01*
X03535000Y04095000D01*
X03521000Y04109000D01*
X03437000Y04109000D01*
X03318000Y03990000D01*
X02856000Y03990000D01*
X02800000Y04046000D01*
X02800000Y04050000D01*
X02800000Y04046000D02*
X02744000Y03990000D01*
X02646000Y03990000D01*
X02499000Y03843000D01*
X02443000Y03843000D01*
X02350000Y03750000D01*
X02289000Y03766000D02*
X02289000Y03318000D01*
X02240000Y03269000D01*
X02240000Y02814000D01*
X02191000Y02765000D01*
X02191000Y02590000D01*
X02100000Y02499000D01*
X02100000Y02366000D01*
X02009000Y02275000D01*
X01974000Y02275000D01*
X01904000Y02205000D01*
X01900000Y02200000D01*
X01939000Y02219000D02*
X01939000Y02163000D01*
X01911000Y02135000D01*
X01750000Y02135000D01*
X01800000Y02200000D02*
X01806000Y02205000D01*
X01890000Y02289000D01*
X02002000Y02289000D01*
X02086000Y02373000D01*
X02086000Y02527000D01*
X02044000Y02569000D01*
X02030000Y02569000D01*
X01988000Y02611000D01*
X01974000Y02660000D02*
X01960000Y02660000D01*
X01932000Y02688000D01*
X01736000Y02688000D01*
X01715000Y02709000D01*
X01750000Y02750000D02*
X01750000Y03038000D01*
X01918000Y03206000D01*
X01932000Y03199000D02*
X01932000Y03731000D01*
X01918000Y03745000D01*
X01946000Y03773000D02*
X01946000Y03479000D01*
X01974000Y03451000D01*
X01974000Y03437000D01*
X01974000Y03472000D02*
X02030000Y03416000D01*
X02065000Y03416000D02*
X01960000Y03311000D01*
X01960000Y03066000D01*
X01785000Y02891000D01*
X01848000Y02989000D02*
X01848000Y03115000D01*
X01932000Y03199000D01*
X01981000Y03150000D02*
X02009000Y03178000D01*
X01981000Y03150000D02*
X01981000Y03066000D01*
X01960000Y03045000D01*
X01960000Y02905000D01*
X02044000Y02821000D01*
X02044000Y02751000D01*
X02050000Y02750000D01*
X02065000Y02835000D02*
X02065000Y03087000D01*
X02009000Y03073000D02*
X02009000Y03045000D01*
X02037000Y03017000D01*
X02261000Y03115000D02*
X02261000Y02912000D01*
X02345000Y02828000D01*
X02345000Y02751000D01*
X02350000Y02750000D01*
X02387000Y02709000D02*
X02387000Y02863000D01*
X02436000Y02912000D01*
X02436000Y03262000D01*
X02534000Y03360000D01*
X02639000Y03360000D01*
X02618000Y03374000D02*
X02632000Y03388000D01*
X02646000Y03388000D01*
X02737000Y03297000D01*
X02737000Y03192000D01*
X02730000Y03185000D01*
X02758000Y03171000D02*
X02758000Y03360000D01*
X02765000Y03388000D02*
X02737000Y03388000D01*
X02681000Y03444000D01*
X02653000Y03444000D01*
X02650000Y03450000D01*
X02590000Y03465000D02*
X02590000Y03416000D01*
X02562000Y03388000D01*
X02478000Y03388000D01*
X02464000Y03360000D02*
X02513000Y03360000D01*
X02527000Y03374000D01*
X02618000Y03374000D01*
X02604000Y03325000D02*
X02534000Y03325000D01*
X02604000Y03325000D02*
X02646000Y03283000D01*
X02646000Y03227000D01*
X02639000Y03185000D02*
X02555000Y03185000D01*
X02541000Y03199000D01*
X02569000Y03094000D02*
X02450000Y02975000D01*
X02450000Y02849000D01*
X02401000Y02800000D01*
X02401000Y02611000D01*
X02436000Y02618000D02*
X02436000Y02688000D01*
X02415000Y02709000D01*
X02415000Y02793000D01*
X02513000Y02891000D01*
X02520000Y02891000D01*
X02548000Y02919000D01*
X02548000Y02996000D01*
X02618000Y03066000D01*
X02653000Y03066000D01*
X02758000Y03171000D01*
X02828000Y03157000D02*
X02625000Y02954000D01*
X02604000Y02954000D01*
X02600000Y02950000D01*
X02562000Y02912000D02*
X02562000Y02989000D01*
X02625000Y03052000D01*
X02660000Y03052000D01*
X02863000Y03255000D01*
X02863000Y03290000D01*
X03206000Y03633000D01*
X03689000Y03633000D01*
X03668000Y03570000D02*
X04095000Y03570000D01*
X04200000Y03465000D01*
X04200000Y03450000D01*
X04151000Y03479000D02*
X04151000Y03234000D01*
X04235000Y03241000D02*
X04235000Y03514000D01*
X04004000Y03745000D01*
X04000000Y03750000D01*
X03900000Y03750000D02*
X03899000Y03745000D01*
X03822000Y03668000D01*
X03822000Y03654000D01*
X03815000Y03815000D02*
X03087000Y03815000D01*
X03052000Y03780000D01*
X03052000Y03752000D01*
X02982000Y03682000D02*
X02639000Y03682000D01*
X02576000Y03745000D01*
X02555000Y03745000D01*
X02550000Y03750000D01*
X02478000Y03745000D02*
X02667000Y03556000D01*
X02947000Y03556000D01*
X02850000Y03450000D02*
X02772000Y03528000D01*
X02632000Y03528000D01*
X02555000Y03451000D01*
X02550000Y03450000D01*
X02548000Y03451000D01*
X02450000Y03451000D01*
X02450000Y03450000D01*
X02401000Y03423000D02*
X02464000Y03360000D01*
X02350000Y03450000D02*
X02345000Y03444000D01*
X02345000Y03038000D01*
X02408000Y03038000D01*
X02345000Y03038000D02*
X02345000Y02905000D01*
X02331000Y02891000D01*
X02163000Y02835000D02*
X02163000Y03290000D01*
X02191000Y03318000D01*
X02191000Y03472000D01*
X02261000Y03542000D01*
X02065000Y03416000D02*
X02065000Y03745000D01*
X01995000Y03815000D01*
X02002000Y03773000D02*
X02002000Y03556000D01*
X01974000Y03472000D02*
X01974000Y03724000D01*
X02107000Y03822000D02*
X02177000Y03822000D01*
X02289000Y03766000D02*
X02450000Y03927000D01*
X02450000Y04074000D01*
X02513000Y04137000D01*
X03514000Y04137000D01*
X03598000Y04053000D01*
X03600000Y04050000D01*
X03647000Y04081000D02*
X03577000Y04151000D01*
X02506000Y04151000D01*
X02436000Y04081000D01*
X02436000Y04011000D01*
X02366000Y03941000D01*
X02443000Y03871000D02*
X02681000Y04109000D01*
X03136000Y04109000D01*
X03150000Y04095000D01*
X03206000Y04123000D02*
X02576000Y04123000D01*
X02506000Y04053000D01*
X02500000Y04050000D01*
X02450000Y04130000D02*
X02611000Y04291000D01*
X02618000Y04347000D02*
X02338000Y04067000D01*
X02268000Y04158000D02*
X02212000Y04158000D01*
X02191000Y04179000D01*
X02030000Y04291000D02*
X01967000Y04291000D01*
X01834000Y04158000D01*
X01897000Y04256000D02*
X01897000Y04347000D01*
X01900000Y04350000D01*
X01883000Y04410000D02*
X01834000Y04361000D01*
X01834000Y04347000D01*
X01813000Y04326000D01*
X01785000Y04326000D01*
X01652000Y04459000D01*
X01806000Y04354000D02*
X01918000Y04466000D01*
X04410000Y04466000D01*
X04250000Y04350000D02*
X04249000Y04347000D01*
X04193000Y04291000D01*
X03584000Y04291000D01*
X03528000Y04347000D01*
X03500000Y04347000D01*
X03500000Y04350000D01*
X03206000Y04123000D02*
X03276000Y04053000D01*
X03297000Y04053000D01*
X03300000Y04050000D01*
X03220000Y03927000D02*
X03304000Y03843000D01*
X03500000Y03864000D02*
X03521000Y03843000D01*
X03500000Y03864000D02*
X03500000Y03955000D01*
X02646000Y03955000D01*
X02555000Y03864000D01*
X02478000Y03745000D02*
X02450000Y03745000D01*
X02450000Y03750000D01*
X02639000Y03514000D02*
X02590000Y03465000D01*
X02639000Y03514000D02*
X02765000Y03514000D01*
X02786000Y03493000D01*
X02786000Y03437000D01*
X02835000Y03388000D01*
X02863000Y03388000D01*
X02877000Y03402000D01*
X02919000Y03402000D01*
X03017000Y03346000D02*
X02940000Y03269000D01*
X02940000Y03206000D01*
X02779000Y03045000D01*
X02779000Y02954000D01*
X02793000Y02940000D01*
X02765000Y02891000D02*
X02765000Y03052000D01*
X02898000Y03185000D01*
X02898000Y03248000D01*
X02900000Y03250000D01*
X02842000Y03311000D02*
X02765000Y03388000D01*
X02954000Y03185000D02*
X02954000Y03094000D01*
X02989000Y03059000D01*
X02947000Y03017000D02*
X02807000Y03017000D01*
X02900000Y02950000D02*
X02898000Y02947000D01*
X02842000Y02891000D01*
X02765000Y02891000D01*
X02667000Y02891000D01*
X02646000Y02870000D01*
X02646000Y02856000D01*
X02695000Y02807000D01*
X02695000Y02751000D01*
X02700000Y02750000D01*
X02723000Y02814000D02*
X02674000Y02863000D01*
X02646000Y02835000D02*
X02632000Y02849000D01*
X02632000Y02884000D01*
X02695000Y02947000D01*
X02700000Y02950000D01*
X02646000Y02835000D02*
X02646000Y02702000D01*
X02660000Y02688000D01*
X02814000Y02688000D01*
X02849000Y02653000D01*
X02884000Y02653000D01*
X02912000Y02681000D01*
X03409000Y02681000D01*
X03465000Y02737000D01*
X03507000Y02737000D01*
X03584000Y02814000D01*
X03612000Y02814000D01*
X03633000Y02835000D01*
X03633000Y02919000D01*
X03605000Y02947000D01*
X03600000Y02950000D01*
X03619000Y03010000D02*
X03444000Y03010000D01*
X03206000Y03248000D01*
X03200000Y03250000D01*
X03185000Y03311000D02*
X03129000Y03255000D01*
X03101000Y03255000D01*
X03100000Y03250000D01*
X03157000Y03192000D02*
X02961000Y02996000D01*
X02961000Y02933000D01*
X02884000Y02856000D01*
X02863000Y02842000D02*
X02877000Y02828000D01*
X02933000Y02828000D01*
X02954000Y02849000D01*
X03122000Y02849000D01*
X03164000Y02891000D01*
X03339000Y02891000D01*
X03395000Y02947000D01*
X03400000Y02950000D01*
X03300000Y02950000D02*
X03297000Y02954000D01*
X03241000Y03010000D01*
X03080000Y03010000D01*
X03059000Y02989000D01*
X03059000Y02933000D01*
X03003000Y02877000D01*
X02961000Y02835000D02*
X02940000Y02814000D01*
X02723000Y02814000D01*
X02800000Y02750000D02*
X02800000Y02744000D01*
X02814000Y02744000D01*
X02877000Y02681000D01*
X02828000Y02632000D02*
X02870000Y02590000D01*
X03423000Y02590000D01*
X03458000Y02555000D01*
X03486000Y02555000D01*
X03486000Y02520000D02*
X03472000Y02520000D01*
X03416000Y02576000D01*
X02905000Y02576000D01*
X02870000Y02541000D01*
X02723000Y02541000D01*
X02702000Y02562000D01*
X02583000Y02562000D01*
X02513000Y02492000D01*
X02513000Y02436000D01*
X02464000Y02387000D01*
X02338000Y02387000D01*
X02324000Y02401000D01*
X02310000Y02401000D01*
X02310000Y02436000D02*
X02268000Y02394000D01*
X02268000Y02268000D01*
X02296000Y02240000D01*
X02296000Y02205000D01*
X02300000Y02200000D01*
X02359000Y02184000D02*
X02359000Y02254000D01*
X02450000Y02345000D01*
X02415000Y02345000D02*
X02338000Y02268000D01*
X02310000Y02275000D02*
X02408000Y02373000D01*
X02555000Y02373000D01*
X02569000Y02359000D01*
X02499000Y02275000D02*
X02436000Y02212000D01*
X02436000Y02016000D01*
X02338000Y01918000D01*
X02338000Y01183000D01*
X02205000Y01050000D01*
X02200000Y01050000D01*
X02205000Y01050000D02*
X02240000Y01015000D01*
X02240000Y00735000D01*
X02296000Y00679000D01*
X02296000Y00504000D01*
X02300000Y00500000D01*
X02303000Y00497000D01*
X02303000Y00392000D01*
X02338000Y00357000D01*
X02408000Y00357000D01*
X02415000Y00364000D01*
X02436000Y00336000D02*
X02338000Y00336000D01*
X02212000Y00462000D01*
X02200000Y00500000D01*
X02205000Y00497000D01*
X02205000Y00469000D01*
X02212000Y00462000D01*
X02100000Y00350000D01*
X01813000Y00350000D01*
X01414000Y00749000D01*
X01414000Y02282000D01*
X01568000Y02275000D02*
X01568000Y00882000D01*
X01526000Y00959000D02*
X01526000Y02135000D01*
X01610000Y02261000D02*
X01659000Y02310000D01*
X01659000Y02373000D01*
X01659000Y02380000D01*
X01659000Y02373000D02*
X02051000Y02373000D01*
X02170000Y02345000D02*
X02065000Y02240000D01*
X02065000Y02191000D01*
X01946000Y02072000D01*
X02023000Y02002000D02*
X01939000Y01918000D01*
X01939000Y01764000D01*
X01694000Y01519000D01*
X01694000Y01316000D01*
X01764000Y01288000D02*
X01764000Y01085000D01*
X01799000Y01050000D01*
X01800000Y01050000D01*
X01799000Y01050000D02*
X01764000Y01015000D01*
X01764000Y00693000D01*
X01799000Y00658000D01*
X01799000Y00504000D01*
X01800000Y00500000D01*
X01771000Y00588000D02*
X01771000Y00665000D01*
X01750000Y00686000D01*
X01750000Y01540000D01*
X01799000Y01547000D02*
X01800000Y01550000D01*
X01799000Y01547000D02*
X01799000Y01323000D01*
X01764000Y01288000D01*
X01806000Y01309000D02*
X01897000Y01400000D01*
X01897000Y01547000D01*
X01900000Y01550000D01*
X02100000Y01550000D02*
X02100000Y01330000D01*
X02135000Y01295000D01*
X02135000Y00917000D01*
X02065000Y00847000D01*
X02065000Y00574000D01*
X02100000Y00504000D02*
X02100000Y00500000D01*
X02100000Y00504000D02*
X01939000Y00665000D01*
X01939000Y01015000D01*
X01904000Y01050000D01*
X01900000Y01050000D01*
X01848000Y01078000D02*
X01848000Y01022000D01*
X01848000Y01078000D02*
X01883000Y01113000D01*
X01911000Y01113000D01*
X01960000Y01064000D01*
X01960000Y01008000D01*
X02037000Y00931000D01*
X02107000Y00924000D02*
X02107000Y00966000D01*
X02037000Y01036000D01*
X02037000Y01092000D01*
X02002000Y01127000D01*
X01792000Y01127000D01*
X01918000Y01155000D02*
X01939000Y01176000D01*
X01939000Y01267000D01*
X02051000Y01379000D01*
X02051000Y02009000D01*
X02037000Y02023000D01*
X02037000Y02051000D01*
X02065000Y02163000D02*
X02100000Y02198000D01*
X02100000Y02200000D01*
X02065000Y02163000D02*
X02065000Y01855000D01*
X02100000Y01820000D01*
X02100000Y01550000D01*
X02163000Y01512000D02*
X02198000Y01547000D01*
X02200000Y01550000D01*
X02198000Y01554000D01*
X02163000Y01589000D01*
X02163000Y01939000D01*
X02198000Y01974000D01*
X02198000Y02198000D01*
X02200000Y02200000D01*
X02296000Y02275000D02*
X02310000Y02275000D01*
X02359000Y02184000D02*
X02303000Y02128000D01*
X02303000Y01904000D01*
X02300000Y01900000D01*
X02296000Y01897000D01*
X02261000Y01862000D01*
X02261000Y01512000D01*
X02296000Y01477000D01*
X02296000Y01253000D01*
X02300000Y01250000D01*
X02400000Y01250000D02*
X02401000Y01253000D01*
X02436000Y01288000D01*
X02436000Y01589000D01*
X02401000Y01624000D01*
X02401000Y01897000D01*
X02400000Y01900000D01*
X02464000Y01862000D02*
X02464000Y02163000D01*
X02499000Y02198000D01*
X02500000Y02200000D01*
X02506000Y02198000D01*
X02527000Y02198000D01*
X02590000Y02135000D01*
X02611000Y02135000D01*
X02639000Y02163000D01*
X02639000Y02478000D01*
X02597000Y02520000D01*
X02590000Y02548000D02*
X02569000Y02527000D01*
X02569000Y02513000D01*
X02597000Y02485000D01*
X02597000Y02205000D01*
X02600000Y02200000D01*
X02700000Y02200000D02*
X02702000Y02198000D01*
X02702000Y02121000D01*
X02765000Y02058000D01*
X02765000Y01834000D01*
X02702000Y01771000D01*
X02702000Y01554000D01*
X02700000Y01550000D01*
X02653000Y01603000D02*
X02600000Y01550000D01*
X02562000Y01512000D02*
X02541000Y01512000D01*
X02541000Y01862000D01*
X02506000Y01897000D01*
X02500000Y01900000D01*
X02464000Y01862000D02*
X02499000Y01827000D01*
X02499000Y01554000D01*
X02500000Y01550000D01*
X02541000Y01512000D02*
X02506000Y01477000D01*
X02506000Y01253000D01*
X02500000Y01250000D01*
X02562000Y01358000D02*
X02667000Y01463000D01*
X02702000Y01456000D02*
X03003000Y01757000D01*
X03003000Y01897000D01*
X03000000Y01900000D01*
X02996000Y01904000D01*
X02996000Y01981000D01*
X02765000Y02212000D01*
X02765000Y02303000D01*
X02702000Y02275000D02*
X02835000Y02408000D01*
X02835000Y02464000D01*
X02891000Y02520000D01*
X03045000Y02520000D01*
X02947000Y02478000D02*
X02947000Y02114000D01*
X02989000Y02072000D01*
X03003000Y02072000D01*
X03024000Y02093000D01*
X03080000Y02093000D01*
X03010000Y02135000D02*
X03059000Y02184000D01*
X03059000Y02303000D01*
X03087000Y02331000D01*
X03143000Y02310000D02*
X03003000Y02450000D01*
X03000000Y02450000D01*
X03136000Y02520000D02*
X03136000Y02380000D01*
X03200000Y02450000D02*
X03206000Y02450000D01*
X03269000Y02513000D01*
X03416000Y02513000D01*
X03640000Y02289000D01*
X03640000Y02163000D01*
X03899000Y01904000D01*
X03900000Y01900000D01*
X03864000Y01911000D02*
X03864000Y01862000D01*
X03997000Y01729000D01*
X04116000Y01729000D01*
X04151000Y01694000D01*
X04158000Y01701000D01*
X04151000Y01694000D02*
X04165000Y01680000D01*
X04165000Y01610000D01*
X04214000Y01561000D01*
X04242000Y01561000D01*
X04340000Y01463000D01*
X04501000Y01463000D01*
X04522000Y01449000D02*
X04508000Y01435000D01*
X04277000Y01435000D01*
X04158000Y01372000D02*
X04158000Y00833000D01*
X04137000Y00812000D01*
X04165000Y00805000D02*
X04172000Y00812000D01*
X04165000Y00805000D02*
X04165000Y00728000D01*
X04025000Y00588000D01*
X04004000Y00588000D01*
X04018000Y00560000D02*
X03983000Y00560000D01*
X03962000Y00539000D01*
X03962000Y00462000D01*
X03955000Y00455000D01*
X03955000Y00441000D01*
X03948000Y00469000D02*
X03948000Y01134000D01*
X04053000Y01239000D01*
X04053000Y01295000D01*
X04004000Y01344000D01*
X04000000Y01350000D01*
X03962000Y01337000D02*
X03962000Y01386000D01*
X03990000Y01414000D01*
X04011000Y01414000D01*
X04060000Y01365000D01*
X04060000Y01309000D01*
X04095000Y01274000D01*
X04095000Y01197000D01*
X04095000Y01162000D02*
X04130000Y01197000D01*
X04095000Y01162000D02*
X04018000Y01162000D01*
X03976000Y01127000D02*
X03976000Y01106000D01*
X03962000Y01092000D01*
X03962000Y00714000D01*
X04039000Y00637000D01*
X04053000Y00672000D02*
X04053000Y00777000D01*
X03990000Y00840000D01*
X03990000Y00882000D01*
X03899000Y00840000D02*
X03899000Y00756000D01*
X03900000Y00750000D01*
X03836000Y00791000D02*
X03836000Y00588000D01*
X03822000Y00574000D01*
X03794000Y00574000D02*
X03759000Y00539000D01*
X03759000Y00455000D01*
X03808000Y00406000D01*
X03801000Y00399000D01*
X03801000Y00203000D01*
X03800000Y00200000D01*
X03864000Y00189000D02*
X03864000Y00273000D01*
X03878000Y00287000D01*
X03948000Y00245000D02*
X04039000Y00336000D01*
X04445000Y00336000D01*
X04473000Y00364000D01*
X04466000Y00322000D02*
X04536000Y00392000D01*
X04536000Y01015000D01*
X04501000Y01050000D01*
X04500000Y01050000D01*
X04459000Y01029000D02*
X04459000Y01113000D01*
X04648000Y01302000D01*
X04648000Y01400000D01*
X04725000Y01477000D01*
X04774000Y01477000D01*
X04900000Y01351000D01*
X04900000Y01350000D01*
X04935000Y01393000D02*
X04935000Y01092000D01*
X04963000Y01092000D02*
X04963000Y01064000D01*
X04886000Y01064000D01*
X04767000Y01183000D01*
X04662000Y01295000D02*
X04662000Y01386000D01*
X04697000Y01421000D01*
X04704000Y01421000D01*
X04732000Y01393000D02*
X04732000Y01449000D01*
X04732000Y01393000D02*
X04739000Y01386000D01*
X04739000Y00791000D01*
X04704000Y00756000D01*
X04700000Y00750000D01*
X04600000Y00750000D02*
X04564000Y00714000D01*
X04564000Y00399000D01*
X04473000Y00308000D01*
X04312000Y00308000D01*
X04291000Y00287000D01*
X04081000Y00287000D01*
X04060000Y00259000D02*
X04004000Y00203000D01*
X04000000Y00200000D01*
X03997000Y00196000D01*
X03997000Y00175000D01*
X03864000Y00042000D01*
X03157000Y00042000D01*
X03108000Y00091000D01*
X02933000Y00091000D01*
X02821000Y00203000D01*
X02821000Y00238000D01*
X02793000Y00217000D02*
X02688000Y00112000D01*
X02324000Y00112000D01*
X02324000Y00077000D02*
X02590000Y00077000D01*
X02639000Y00028000D01*
X04032000Y00028000D01*
X04200000Y00196000D01*
X04200000Y00200000D01*
X04200000Y00196000D02*
X04326000Y00070000D01*
X05271000Y00070000D01*
X06594000Y00070000D01*
X06685000Y00161000D01*
X06685000Y00245000D01*
X06671000Y00259000D01*
X06944000Y00532000D01*
X06944000Y03682000D01*
X06755000Y03871000D01*
X06748000Y03871000D01*
X06650000Y03800000D02*
X06650000Y03794000D01*
X06832000Y03612000D01*
X06832000Y02968000D01*
X06755000Y03003000D02*
X06750000Y03000000D01*
X06755000Y03003000D02*
X06755000Y03122000D01*
X06804000Y03171000D01*
X06804000Y03451000D01*
X06755000Y03500000D01*
X06750000Y03500000D01*
X06762000Y03563000D02*
X06818000Y03507000D01*
X06818000Y03164000D01*
X06804000Y03150000D01*
X06804000Y02905000D01*
X06804000Y02891000D01*
X06916000Y02779000D01*
X06916000Y00567000D01*
X06608000Y00259000D01*
X06531000Y00259000D01*
X06496000Y00224000D01*
X06450000Y00200000D02*
X06377000Y00273000D01*
X06377000Y00287000D01*
X06349000Y00203000D02*
X06350000Y00200000D01*
X06349000Y00203000D02*
X06349000Y00427000D01*
X06300000Y00476000D01*
X06300000Y01400000D01*
X06550000Y01650000D01*
X06601000Y01673000D02*
X06559000Y01715000D01*
X06335000Y01715000D01*
X06314000Y01694000D01*
X06314000Y01638000D01*
X06195000Y01519000D01*
X06111000Y01603000D01*
X06111000Y01750000D01*
X06132000Y01771000D01*
X06195000Y01771000D01*
X06286000Y01862000D01*
X06286000Y02506000D01*
X06146000Y02646000D01*
X06139000Y02681000D02*
X06272000Y02681000D01*
X06300000Y02674000D02*
X06251000Y02625000D01*
X06216000Y02625000D01*
X06139000Y02681000D02*
X06111000Y02709000D01*
X06111000Y02786000D01*
X06125000Y02800000D01*
X06125000Y02919000D01*
X06146000Y02940000D01*
X06146000Y02996000D01*
X06150000Y03000000D01*
X06188000Y02961000D02*
X06188000Y03045000D01*
X06125000Y03108000D01*
X06125000Y03164000D01*
X06153000Y03192000D01*
X06153000Y03297000D01*
X06150000Y03300000D01*
X06139000Y03234000D02*
X06055000Y03318000D01*
X06055000Y03500000D01*
X06050000Y03500000D01*
X06048000Y03500000D01*
X06048000Y03591000D01*
X05999000Y03640000D01*
X05999000Y03997000D01*
X06048000Y04046000D01*
X06050000Y04050000D01*
X06090000Y04011000D02*
X06090000Y04109000D01*
X06034000Y04109000D01*
X05985000Y04060000D01*
X05985000Y03668000D01*
X05936000Y03619000D01*
X06013000Y03591000D02*
X06013000Y03339000D01*
X06055000Y03297000D01*
X06055000Y02898000D01*
X06083000Y02891000D02*
X06055000Y02863000D01*
X06055000Y02464000D01*
X05964000Y02373000D01*
X05964000Y02331000D01*
X05957000Y02303000D02*
X05915000Y02261000D01*
X05915000Y02051000D01*
X05887000Y02023000D01*
X05915000Y01995000D02*
X06055000Y02135000D01*
X06062000Y02135000D01*
X06111000Y02184000D01*
X06111000Y02240000D01*
X06244000Y02373000D01*
X06244000Y02450000D01*
X06250000Y02450000D01*
X06244000Y02450000D02*
X06160000Y02534000D01*
X06125000Y02534000D01*
X06111000Y02555000D02*
X06097000Y02541000D01*
X06097000Y02499000D01*
X06146000Y02450000D01*
X06150000Y02450000D01*
X06202000Y02457000D02*
X06202000Y02352000D01*
X06174000Y02324000D01*
X06097000Y02324000D01*
X06013000Y02240000D01*
X06013000Y02184000D01*
X05971000Y02142000D01*
X05971000Y02128000D01*
X05887000Y02163000D02*
X05887000Y02072000D01*
X05957000Y02002000D02*
X05922000Y01967000D01*
X05810000Y01967000D01*
X05810000Y02261000D01*
X05915000Y02366000D01*
X05915000Y03381000D01*
X05908000Y03423000D02*
X05908000Y03717000D01*
X05852000Y03696000D02*
X05950000Y03794000D01*
X05950000Y03800000D01*
X05950000Y03801000D01*
X05915000Y03836000D01*
X05915000Y04060000D01*
X05859000Y04116000D01*
X05859000Y04151000D01*
X05831000Y04158000D02*
X05831000Y04067000D01*
X05845000Y04053000D01*
X05850000Y04050000D01*
X05810000Y04011000D02*
X05810000Y04312000D01*
X05845000Y04347000D01*
X05850000Y04350000D01*
X05915000Y04410000D02*
X06069000Y04410000D01*
X06111000Y04368000D01*
X06111000Y03619000D01*
X06209000Y03521000D01*
X06209000Y03444000D01*
X06349000Y03304000D01*
X06350000Y03300000D01*
X06356000Y03297000D01*
X06489000Y03164000D01*
X06489000Y03122000D01*
X06510000Y03136000D02*
X06587000Y03059000D01*
X06587000Y02863000D01*
X06545000Y02821000D01*
X06615000Y02793000D02*
X06615000Y02590000D01*
X06475000Y02450000D01*
X06552000Y02373000D01*
X06587000Y02373000D01*
X06594000Y02331000D02*
X06468000Y02331000D01*
X06349000Y02450000D01*
X06350000Y02450000D01*
X06412000Y02464000D02*
X06412000Y02408000D01*
X06475000Y02345000D01*
X06685000Y02345000D01*
X06790000Y02240000D01*
X06790000Y02016000D01*
X06699000Y01925000D01*
X06650000Y01911000D02*
X06650000Y01900000D01*
X06650000Y01911000D02*
X06727000Y01988000D01*
X06804000Y01953000D02*
X06755000Y01904000D01*
X06750000Y01900000D01*
X06748000Y01897000D01*
X06748000Y01722000D01*
X06713000Y01687000D01*
X06713000Y01386000D01*
X06748000Y01351000D01*
X06750000Y01350000D01*
X06615000Y01281000D02*
X06804000Y01092000D01*
X06804000Y00553000D01*
X06755000Y00504000D01*
X06750000Y00500000D01*
X06699000Y00525000D02*
X06748000Y00574000D01*
X06748000Y00749000D01*
X06750000Y00750000D01*
X06846000Y00700000D02*
X06846000Y02226000D01*
X06832000Y02240000D01*
X06832000Y02555000D01*
X06846000Y02569000D01*
X06846000Y02807000D01*
X06699000Y02954000D01*
X06699000Y03346000D01*
X06622000Y03423000D01*
X06496000Y03423000D01*
X06398000Y03325000D01*
X06314000Y03311000D02*
X06314000Y03234000D01*
X06545000Y03003000D01*
X06550000Y03000000D01*
X06601000Y03066000D02*
X06601000Y02611000D01*
X06496000Y02506000D01*
X06412000Y02464000D02*
X06342000Y02534000D01*
X06342000Y02674000D01*
X06300000Y02674000D02*
X06300000Y02835000D01*
X06370000Y02905000D01*
X06314000Y02961000D01*
X06314000Y03010000D01*
X06181000Y03143000D01*
X06181000Y03157000D01*
X06153000Y03164000D02*
X06153000Y03115000D01*
X06153000Y03164000D02*
X06244000Y03255000D01*
X06244000Y03297000D01*
X06250000Y03300000D01*
X06314000Y03311000D02*
X06153000Y03472000D01*
X06153000Y03500000D01*
X06150000Y03500000D01*
X06146000Y03500000D01*
X06146000Y03528000D01*
X06027000Y03647000D01*
X05852000Y03696000D02*
X05852000Y03500000D01*
X05850000Y03500000D01*
X05810000Y03521000D02*
X05810000Y02807000D01*
X05635000Y02709000D02*
X05635000Y02961000D01*
X05621000Y02975000D01*
X05600000Y03000000D01*
X05600000Y02996000D01*
X05621000Y02975000D01*
X05719000Y03073000D01*
X05719000Y03381000D01*
X05600000Y03500000D01*
X05600000Y03556000D01*
X05649000Y03605000D01*
X05649000Y03997000D01*
X05600000Y04046000D01*
X05600000Y04050000D01*
X05663000Y04109000D02*
X05439000Y04333000D01*
X05439000Y04389000D01*
X05418000Y04410000D01*
X05257000Y04410000D01*
X05201000Y04354000D01*
X05200000Y04350000D01*
X05194000Y04354000D01*
X05124000Y04424000D01*
X05075000Y04424000D01*
X05061000Y04410000D01*
X04928000Y04410000D01*
X05000000Y04350000D02*
X05005000Y04354000D01*
X05026000Y04354000D01*
X05082000Y04410000D01*
X05117000Y04410000D01*
X05138000Y04389000D01*
X05138000Y04312000D01*
X04998000Y04172000D01*
X04291000Y04172000D01*
X04277000Y04151000D02*
X04284000Y04144000D01*
X05173000Y04144000D01*
X05348000Y04319000D01*
X05348000Y04340000D01*
X05400000Y04350000D02*
X05404000Y04347000D01*
X05404000Y04053000D01*
X05400000Y04050000D01*
X05383000Y03990000D02*
X05327000Y04046000D01*
X05306000Y04046000D01*
X05300000Y04050000D01*
X05264000Y04060000D02*
X05264000Y04011000D01*
X05299000Y03976000D01*
X05621000Y03976000D01*
X05579000Y03899000D02*
X05635000Y03843000D01*
X05635000Y03612000D01*
X05537000Y03514000D01*
X05537000Y03416000D01*
X05460000Y03339000D01*
X05460000Y02604000D01*
X05306000Y02450000D01*
X05300000Y02450000D01*
X05264000Y02408000D02*
X05320000Y02352000D01*
X05523000Y02352000D01*
X05635000Y02240000D01*
X05635000Y02156000D01*
X05558000Y02079000D01*
X05481000Y02079000D01*
X05306000Y01904000D01*
X05300000Y01900000D01*
X05306000Y01897000D01*
X05362000Y01841000D01*
X05362000Y01722000D01*
X05390000Y01715000D02*
X05460000Y01715000D01*
X05460000Y01610000D01*
X05495000Y01575000D01*
X05495000Y01351000D01*
X05500000Y01350000D01*
X05502000Y01344000D01*
X05558000Y01288000D01*
X05866000Y01288000D01*
X05887000Y01309000D01*
X05887000Y01393000D01*
X05859000Y01421000D01*
X05859000Y01484000D01*
X05880000Y01505000D01*
X05894000Y01505000D01*
X05978000Y01421000D01*
X05943000Y01421000D02*
X05915000Y01393000D01*
X05915000Y01316000D01*
X05873000Y01274000D01*
X05523000Y01274000D01*
X05600000Y01350000D02*
X05600000Y01351000D01*
X05565000Y01386000D01*
X05565000Y01694000D01*
X05600000Y01729000D01*
X05600000Y01900000D01*
X05565000Y01890000D02*
X05565000Y01960000D01*
X05614000Y01960000D01*
X05831000Y01743000D01*
X05943000Y01743000D01*
X05971000Y01750000D02*
X05971000Y01673000D01*
X05950000Y01652000D01*
X05950000Y01650000D01*
X05950000Y01645000D01*
X05845000Y01540000D01*
X05845000Y01351000D01*
X05850000Y01350000D01*
X05887000Y01267000D02*
X05866000Y01246000D01*
X05327000Y01246000D01*
X05236000Y01337000D01*
X05236000Y01407000D01*
X05159000Y01407000D02*
X05397000Y01645000D01*
X05400000Y01650000D01*
X05362000Y01638000D02*
X05362000Y01687000D01*
X05390000Y01715000D01*
X05460000Y01715000D02*
X05460000Y01862000D01*
X05495000Y01897000D01*
X05500000Y01900000D01*
X05565000Y01890000D02*
X05502000Y01827000D01*
X05502000Y01652000D01*
X05500000Y01650000D01*
X05362000Y01638000D02*
X05313000Y01589000D01*
X05285000Y01589000D01*
X05250000Y01624000D01*
X05250000Y01925000D01*
X05215000Y01960000D01*
X05082000Y01960000D01*
X05061000Y01939000D01*
X05061000Y01883000D01*
X05019000Y01841000D01*
X04781000Y01841000D01*
X04760000Y01862000D01*
X04760000Y02219000D01*
X04620000Y02359000D01*
X04620000Y02450000D01*
X04592000Y02464000D02*
X04592000Y02310000D01*
X04697000Y02205000D01*
X04700000Y02200000D01*
X04655000Y02170000D02*
X04732000Y02093000D01*
X04802000Y02128000D02*
X04837000Y02163000D01*
X04837000Y02611000D01*
X04963000Y02737000D01*
X04963000Y02793000D01*
X05096000Y02926000D01*
X05124000Y02926000D01*
X05194000Y02996000D01*
X05200000Y03000000D01*
X05159000Y02982000D02*
X05117000Y02940000D01*
X05089000Y02940000D01*
X05061000Y02912000D01*
X04984000Y02912000D01*
X04879000Y02807000D01*
X04718000Y02807000D01*
X04690000Y02814000D02*
X04802000Y02926000D01*
X05005000Y02926000D01*
X05040000Y02961000D01*
X05040000Y03038000D01*
X04914000Y03164000D01*
X04746000Y03164000D01*
X04662000Y03248000D01*
X04662000Y03262000D01*
X04697000Y03297000D01*
X04900000Y03297000D01*
X04900000Y03300000D01*
X04865000Y03255000D02*
X04914000Y03206000D01*
X05292000Y03206000D01*
X05299000Y03178000D02*
X04774000Y03178000D01*
X04725000Y03227000D01*
X04690000Y03255000D02*
X04865000Y03255000D01*
X04998000Y03304000D02*
X05000000Y03300000D01*
X04998000Y03304000D02*
X04760000Y03542000D01*
X04690000Y03542000D01*
X04648000Y03542000D02*
X04648000Y03234000D01*
X04746000Y03136000D01*
X04746000Y02996000D01*
X04648000Y02940000D02*
X04914000Y02940000D01*
X04970000Y02996000D01*
X04998000Y02996000D01*
X05000000Y03000000D01*
X05100000Y03000000D02*
X05264000Y03164000D01*
X05341000Y03164000D01*
X05446000Y03269000D01*
X05446000Y03451000D01*
X05495000Y03500000D01*
X05500000Y03500000D01*
X05460000Y03486000D02*
X05460000Y03612000D01*
X05600000Y03752000D01*
X05600000Y03800000D01*
X05551000Y03780000D02*
X05537000Y03766000D01*
X05537000Y03759000D01*
X05516000Y03738000D01*
X05061000Y03738000D01*
X05005000Y03794000D01*
X05000000Y03800000D01*
X05005000Y03801000D01*
X05040000Y03836000D01*
X05040000Y03941000D01*
X05103000Y03864000D02*
X05313000Y03864000D01*
X05376000Y03801000D01*
X05397000Y03801000D01*
X05400000Y03800000D01*
X05348000Y03899000D02*
X05579000Y03899000D01*
X05565000Y03878000D02*
X05572000Y03871000D01*
X05565000Y03878000D02*
X05292000Y03878000D01*
X05159000Y04011000D01*
X05159000Y04067000D01*
X05117000Y04109000D01*
X04984000Y04109000D01*
X04970000Y04095000D01*
X04900000Y04095000D01*
X04850000Y04050000D02*
X04844000Y04053000D01*
X04788000Y04109000D01*
X04711000Y04109000D01*
X04711000Y03787000D01*
X04795000Y03703000D01*
X05460000Y03703000D01*
X05488000Y03675000D02*
X04620000Y03675000D01*
X04543000Y03598000D01*
X04543000Y03346000D01*
X04592000Y03297000D01*
X04592000Y03031000D01*
X04564000Y03017000D02*
X04501000Y02954000D01*
X04500000Y02950000D01*
X04501000Y02947000D01*
X04550000Y02898000D01*
X04550000Y02555000D01*
X04501000Y02506000D01*
X04501000Y02450000D01*
X04500000Y02450000D01*
X04438000Y02464000D02*
X04438000Y02373000D01*
X04361000Y02296000D01*
X04361000Y02044000D01*
X04368000Y02037000D01*
X04368000Y01946000D01*
X04340000Y01918000D01*
X04340000Y01855000D01*
X04277000Y01792000D01*
X04235000Y01834000D01*
X04235000Y01932000D01*
X04263000Y01960000D01*
X04263000Y02065000D01*
X04235000Y02093000D01*
X04207000Y02093000D01*
X04179000Y02121000D01*
X04025000Y02121000D01*
X03997000Y02128000D02*
X03962000Y02163000D01*
X03962000Y02310000D01*
X03836000Y02436000D01*
X03836000Y02499000D01*
X03675000Y02660000D01*
X03612000Y02660000D01*
X03570000Y02660000D02*
X03535000Y02660000D01*
X03521000Y02639000D02*
X03542000Y02618000D01*
X03577000Y02618000D01*
X03647000Y02548000D01*
X03724000Y02527000D02*
X03759000Y02492000D01*
X03759000Y02401000D01*
X03864000Y02296000D01*
X03836000Y02303000D02*
X03738000Y02401000D01*
X03738000Y02492000D01*
X03570000Y02660000D01*
X03528000Y02688000D02*
X03766000Y02688000D01*
X03892000Y02562000D01*
X04067000Y02562000D01*
X04074000Y02534000D02*
X04004000Y02534000D01*
X03920000Y02450000D01*
X03900000Y02450000D01*
X03801000Y02450000D02*
X03801000Y02394000D01*
X03948000Y02247000D01*
X03948000Y02156000D01*
X03983000Y02121000D01*
X03983000Y02107000D01*
X04039000Y02051000D01*
X04221000Y02051000D01*
X04228000Y02079000D02*
X04032000Y02079000D01*
X03997000Y02114000D01*
X03997000Y02128000D01*
X03948000Y02121000D02*
X03927000Y02100000D01*
X03885000Y02100000D01*
X03850000Y02135000D01*
X03731000Y02135000D01*
X03661000Y02170000D02*
X03871000Y01960000D01*
X04018000Y01960000D01*
X04060000Y01918000D01*
X04060000Y01862000D01*
X04151000Y01771000D01*
X04256000Y01771000D01*
X04340000Y01687000D01*
X04340000Y01610000D01*
X04305000Y01575000D01*
X04305000Y01561000D01*
X04340000Y01526000D01*
X04501000Y01526000D01*
X04515000Y01540000D01*
X04690000Y01540000D01*
X04800000Y01650000D01*
X04837000Y01610000D02*
X04837000Y01722000D01*
X04802000Y01757000D01*
X04802000Y01792000D02*
X04865000Y01729000D01*
X04802000Y01792000D02*
X04508000Y01792000D01*
X04494000Y01813000D02*
X04480000Y01799000D01*
X04480000Y01764000D01*
X04676000Y01568000D01*
X04606000Y01568000D02*
X04529000Y01645000D01*
X04501000Y01645000D01*
X04500000Y01650000D01*
X04536000Y01596000D02*
X04480000Y01540000D01*
X04361000Y01540000D01*
X04333000Y01568000D01*
X04368000Y01568000D02*
X04473000Y01568000D01*
X04480000Y01575000D01*
X04438000Y01596000D02*
X04424000Y01596000D01*
X04417000Y01589000D01*
X04382000Y01589000D01*
X04354000Y01617000D01*
X04354000Y01694000D01*
X04207000Y01841000D01*
X04179000Y01841000D01*
X04165000Y01855000D01*
X04165000Y01960000D01*
X04249000Y02044000D01*
X04249000Y02058000D01*
X04228000Y02079000D01*
X04242000Y02107000D02*
X04214000Y02107000D01*
X04137000Y02184000D01*
X04137000Y02282000D01*
X04165000Y02310000D01*
X04165000Y02464000D01*
X04109000Y02520000D01*
X04074000Y02534000D02*
X04158000Y02618000D01*
X04158000Y02814000D01*
X04060000Y02912000D01*
X04060000Y03073000D01*
X04158000Y03101000D02*
X04256000Y03003000D01*
X04298000Y02996000D02*
X04179000Y03115000D01*
X03493000Y03115000D01*
X03437000Y03171000D01*
X03465000Y03206000D02*
X03465000Y03290000D01*
X03493000Y03318000D01*
X03514000Y03318000D01*
X03577000Y03381000D01*
X03549000Y03388000D02*
X03507000Y03346000D01*
X03549000Y03388000D02*
X03549000Y03479000D01*
X03612000Y03542000D01*
X03983000Y03542000D01*
X04074000Y03451000D01*
X04095000Y03451000D01*
X04100000Y03450000D01*
X04151000Y03479000D02*
X04088000Y03542000D01*
X04000000Y03450000D02*
X03997000Y03451000D01*
X03976000Y03451000D01*
X03913000Y03514000D01*
X03626000Y03514000D01*
X03794000Y03479000D02*
X03871000Y03479000D01*
X03900000Y03450000D01*
X04235000Y03241000D02*
X04326000Y03150000D01*
X04326000Y03115000D01*
X04284000Y03157000D02*
X03801000Y03157000D01*
X03801000Y03073000D02*
X03857000Y03073000D01*
X03962000Y02968000D01*
X03962000Y02905000D01*
X04025000Y02842000D01*
X04039000Y02821000D02*
X04032000Y02814000D01*
X03857000Y02814000D01*
X03612000Y03059000D01*
X03612000Y03073000D01*
X03563000Y03087000D02*
X03465000Y03087000D01*
X03304000Y03248000D01*
X03300000Y03250000D01*
X03360000Y03269000D02*
X03318000Y03311000D01*
X03185000Y03311000D01*
X03220000Y03171000D02*
X03003000Y02954000D01*
X03000000Y02950000D01*
X03115000Y02877000D02*
X03129000Y02877000D01*
X03199000Y02947000D01*
X03200000Y02950000D01*
X03136000Y02842000D02*
X03129000Y02835000D01*
X02961000Y02835000D01*
X02975000Y02814000D02*
X02968000Y02807000D01*
X02975000Y02814000D02*
X03115000Y02814000D01*
X03178000Y02751000D01*
X03199000Y02751000D01*
X03200000Y02750000D01*
X03136000Y02842000D02*
X03605000Y02842000D01*
X03661000Y02842000D02*
X03682000Y02842000D01*
X03738000Y02786000D01*
X03738000Y02737000D01*
X03878000Y02597000D01*
X04046000Y02597000D01*
X04130000Y02674000D02*
X03836000Y02674000D01*
X03864000Y02709000D02*
X03885000Y02688000D01*
X04039000Y02688000D01*
X04095000Y02744000D01*
X04100000Y02750000D01*
X04200000Y02750000D02*
X04200000Y02751000D01*
X04221000Y02751000D01*
X04284000Y02814000D01*
X04410000Y02814000D01*
X04452000Y02772000D01*
X04473000Y02744000D02*
X04403000Y02674000D01*
X04200000Y02674000D01*
X04207000Y02632000D02*
X04284000Y02632000D01*
X04396000Y02520000D01*
X04396000Y02450000D01*
X04400000Y02450000D01*
X04438000Y02464000D02*
X04536000Y02562000D01*
X04536000Y02793000D01*
X04515000Y02814000D01*
X04459000Y02814000D01*
X04368000Y02905000D01*
X04354000Y02905000D01*
X04354000Y03185000D01*
X04382000Y03192000D02*
X04340000Y03234000D01*
X04382000Y03192000D02*
X04382000Y03171000D01*
X04522000Y03031000D01*
X04522000Y03017000D01*
X04536000Y03052000D02*
X04536000Y03290000D01*
X04438000Y03388000D01*
X04438000Y03535000D01*
X04235000Y03738000D01*
X04235000Y03850000D01*
X04095000Y03990000D01*
X04060000Y03990000D01*
X04000000Y04050000D01*
X04100000Y04050000D02*
X04102000Y04053000D01*
X04144000Y04053000D01*
X04200000Y04109000D01*
X04711000Y04109000D01*
X04921000Y03997000D02*
X04753000Y03829000D01*
X04711000Y03787000D02*
X04501000Y03577000D01*
X04501000Y03451000D01*
X04500000Y03450000D01*
X04501000Y03444000D01*
X04501000Y03346000D01*
X04564000Y03283000D01*
X04564000Y03017000D01*
X04578000Y02996000D02*
X04564000Y02982000D01*
X04564000Y02548000D01*
X04536000Y02520000D01*
X04536000Y02275000D01*
X04536000Y02240000D02*
X04578000Y02282000D01*
X04578000Y02933000D01*
X04592000Y02947000D01*
X04620000Y02905000D02*
X04620000Y03304000D01*
X04571000Y03353000D01*
X04578000Y03388000D02*
X04634000Y03332000D01*
X04634000Y03157000D01*
X04676000Y03115000D01*
X04676000Y03101000D01*
X04368000Y03311000D02*
X04354000Y03325000D01*
X04354000Y03556000D01*
X04571000Y03570000D02*
X05306000Y03570000D01*
X05334000Y03563000D02*
X05306000Y03535000D01*
X05306000Y03500000D01*
X05300000Y03500000D01*
X05334000Y03437000D02*
X05187000Y03437000D01*
X05124000Y03500000D01*
X05100000Y03500000D01*
X05005000Y03500000D02*
X05000000Y03500000D01*
X05005000Y03500000D02*
X05005000Y03374000D01*
X05061000Y03318000D01*
X05061000Y03262000D01*
X05082000Y03241000D01*
X05320000Y03241000D01*
X05362000Y03283000D01*
X05362000Y03339000D01*
X05397000Y03374000D01*
X05397000Y03423000D02*
X05460000Y03486000D01*
X05400000Y03500000D02*
X05397000Y03500000D01*
X05334000Y03437000D01*
X05397000Y03423000D02*
X05243000Y03423000D01*
X05124000Y03304000D01*
X05103000Y03304000D01*
X05100000Y03300000D01*
X05299000Y03178000D02*
X05397000Y03276000D01*
X05397000Y03297000D01*
X05400000Y03300000D01*
X05500000Y03300000D02*
X05502000Y03297000D01*
X05502000Y03206000D01*
X05565000Y03143000D01*
X05565000Y02408000D01*
X05649000Y02324000D01*
X05649000Y02149000D01*
X05565000Y02065000D01*
X05558000Y02065000D01*
X05537000Y02044000D01*
X05537000Y02037000D01*
X05400000Y01900000D01*
X05299000Y01827000D02*
X05264000Y01862000D01*
X05264000Y01995000D01*
X05285000Y02016000D01*
X05278000Y02044000D02*
X05208000Y01974000D01*
X04970000Y01974000D01*
X04900000Y01904000D01*
X04900000Y01900000D01*
X04802000Y01904000D02*
X04800000Y01900000D01*
X04802000Y01904000D02*
X04802000Y02128000D01*
X04900000Y02184000D02*
X04900000Y02200000D01*
X04900000Y02184000D02*
X04977000Y02107000D01*
X04977000Y02079000D01*
X04963000Y02163000D02*
X05103000Y02023000D01*
X05187000Y02023000D01*
X05208000Y01995000D02*
X05110000Y01995000D01*
X04949000Y02156000D01*
X04949000Y02226000D01*
X04907000Y02268000D01*
X04872000Y02268000D01*
X04865000Y02331000D02*
X04963000Y02233000D01*
X04963000Y02163000D01*
X05000000Y02200000D02*
X04998000Y02205000D01*
X04998000Y02226000D01*
X04893000Y02331000D01*
X04893000Y02380000D01*
X04865000Y02408000D01*
X04865000Y02492000D01*
X05005000Y02632000D01*
X05320000Y02632000D01*
X05334000Y02646000D01*
X05292000Y02674000D02*
X05264000Y02646000D01*
X05103000Y02646000D01*
X05005000Y02744000D01*
X05000000Y02750000D01*
X04900000Y02750000D02*
X04900000Y02744000D01*
X04872000Y02744000D01*
X04809000Y02681000D01*
X04690000Y02800000D01*
X04690000Y02814000D01*
X04809000Y02681000D02*
X04592000Y02464000D01*
X04655000Y02492000D02*
X04753000Y02394000D01*
X04809000Y02401000D02*
X04690000Y02520000D01*
X04900000Y02450000D02*
X04963000Y02387000D01*
X05187000Y02387000D01*
X05369000Y02205000D01*
X05397000Y02205000D01*
X05400000Y02200000D01*
X05432000Y02135000D02*
X05348000Y02135000D01*
X05208000Y01995000D01*
X05278000Y02044000D02*
X05418000Y02044000D01*
X05537000Y02163000D01*
X05537000Y02170000D01*
X05551000Y02184000D01*
X05572000Y02205000D02*
X05439000Y02338000D01*
X05313000Y02338000D01*
X05201000Y02450000D01*
X05200000Y02450000D01*
X05264000Y02408000D02*
X05264000Y02492000D01*
X05362000Y02590000D01*
X05362000Y02765000D01*
X05264000Y02863000D01*
X05264000Y03010000D01*
X05215000Y03059000D01*
X05180000Y03059000D01*
X05159000Y03038000D01*
X05159000Y02982000D01*
X05159000Y02926000D02*
X05159000Y02723000D01*
X05110000Y02674000D01*
X05362000Y02548000D02*
X05404000Y02590000D01*
X05502000Y02674000D02*
X05537000Y02709000D01*
X05537000Y03136000D01*
X05537000Y03206000D02*
X05628000Y03115000D01*
X05691000Y03087000D02*
X05537000Y03241000D01*
X05712000Y03500000D02*
X05712000Y03598000D01*
X05663000Y03647000D01*
X05663000Y04109000D01*
X05551000Y04179000D02*
X05460000Y04088000D01*
X05460000Y04032000D01*
X05418000Y03990000D01*
X05383000Y03990000D01*
X05348000Y03899000D02*
X05201000Y04046000D01*
X05200000Y04050000D01*
X05264000Y04060000D02*
X05201000Y04123000D01*
X04165000Y04123000D01*
X04158000Y04151000D02*
X04277000Y04151000D01*
X04158000Y04151000D02*
X04130000Y04123000D01*
X04179000Y04053000D02*
X04214000Y04018000D01*
X04214000Y04011000D01*
X04277000Y03948000D01*
X04683000Y03948000D01*
X04396000Y03801000D02*
X04396000Y03752000D01*
X04400000Y03750000D01*
X04396000Y03801000D02*
X04179000Y04018000D01*
X04130000Y03920000D02*
X03934000Y03920000D01*
X03500000Y03955000D02*
X03500000Y04050000D01*
X02700000Y04350000D02*
X02695000Y04347000D01*
X02618000Y04347000D01*
X02184000Y04410000D02*
X02128000Y04354000D01*
X02100000Y04354000D01*
X02100000Y04350000D01*
X02037000Y04389000D02*
X02016000Y04410000D01*
X01883000Y04410000D01*
X01764000Y04312000D02*
X01764000Y04032000D01*
X01617000Y04137000D02*
X00889000Y04137000D01*
X00826000Y04200000D01*
X00800000Y04200000D01*
X00812000Y04263000D02*
X00602000Y04263000D01*
X00812000Y04263000D02*
X00875000Y04200000D01*
X00900000Y04200000D01*
X00245000Y03787000D02*
X00203000Y03745000D01*
X00203000Y03703000D01*
X00200000Y03700000D01*
X00147000Y03605000D02*
X00147000Y03430000D01*
X00112000Y03395000D01*
X00140000Y03402000D02*
X00182000Y03444000D01*
X00203000Y03444000D01*
X00140000Y03402000D02*
X00140000Y02597000D01*
X00182000Y02555000D01*
X00749000Y02555000D01*
X01400000Y01904000D01*
X01400000Y00602000D01*
X01799000Y00203000D01*
X01800000Y00200000D01*
X01862000Y00238000D02*
X01862000Y00161000D01*
X01883000Y00140000D01*
X01918000Y00140000D01*
X01974000Y00196000D01*
X01995000Y00196000D01*
X02000000Y00200000D01*
X01925000Y00203000D02*
X02030000Y00308000D01*
X02618000Y00308000D01*
X02639000Y00329000D01*
X02639000Y00686000D01*
X02632000Y00693000D01*
X02660000Y00700000D02*
X02604000Y00756000D01*
X02600000Y00750000D01*
X02562000Y00714000D02*
X02520000Y00672000D01*
X02562000Y00714000D02*
X02562000Y01358000D01*
X02702000Y01456000D02*
X02702000Y01253000D01*
X02700000Y01250000D01*
X02695000Y01246000D01*
X02653000Y01204000D01*
X02653000Y00966000D01*
X02695000Y00924000D01*
X02695000Y00756000D01*
X02700000Y00750000D01*
X02737000Y00707000D02*
X02702000Y00672000D01*
X02702000Y00504000D01*
X02700000Y00500000D01*
X02737000Y00462000D02*
X02737000Y00672000D01*
X02737000Y00707000D02*
X02737000Y00903000D01*
X02681000Y00959000D01*
X02681000Y00973000D01*
X02702000Y00987000D02*
X02765000Y00924000D01*
X02765000Y00735000D01*
X02793000Y00707000D01*
X02793000Y00217000D01*
X02700000Y00200000D02*
X02695000Y00203000D01*
X02695000Y00294000D01*
X02688000Y00301000D01*
X02688000Y00413000D01*
X02702000Y00427000D01*
X02737000Y00462000D01*
X02765000Y00455000D02*
X02716000Y00406000D01*
X02716000Y00308000D01*
X02611000Y00336000D02*
X02597000Y00322000D01*
X01946000Y00322000D01*
X01862000Y00238000D01*
X01900000Y00200000D02*
X01904000Y00203000D01*
X01925000Y00203000D01*
X01799000Y00126000D02*
X02100000Y00126000D01*
X02163000Y00189000D01*
X02163000Y00238000D01*
X02219000Y00294000D01*
X02506000Y00294000D01*
X02600000Y00200000D01*
X02583000Y00140000D02*
X02618000Y00140000D01*
X02660000Y00182000D01*
X02660000Y00700000D01*
X02597000Y00679000D02*
X02562000Y00714000D01*
X02597000Y00679000D02*
X02597000Y00504000D01*
X02600000Y00500000D01*
X02548000Y00476000D02*
X02548000Y00595000D01*
X02443000Y00700000D01*
X02400000Y00750000D02*
X02394000Y00756000D01*
X02394000Y00980000D01*
X02359000Y01015000D01*
X02359000Y01512000D01*
X02394000Y01547000D01*
X02400000Y01550000D01*
X02548000Y01484000D02*
X02548000Y01022000D01*
X02506000Y00980000D01*
X02506000Y00756000D01*
X02500000Y00750000D01*
X02359000Y00714000D02*
X02499000Y00574000D01*
X02499000Y00504000D01*
X02500000Y00500000D01*
X02485000Y00441000D02*
X02436000Y00490000D01*
X02436000Y00602000D01*
X02394000Y00644000D01*
X02359000Y00714000D02*
X02359000Y00889000D01*
X02303000Y00945000D01*
X02303000Y01050000D01*
X02300000Y01050000D01*
X02310000Y00903000D02*
X02310000Y00763000D01*
X02303000Y00756000D01*
X02300000Y00750000D01*
X02303000Y00749000D01*
X02345000Y00707000D01*
X02345000Y00385000D01*
X02436000Y00336000D02*
X02450000Y00350000D01*
X02485000Y00350000D02*
X02485000Y00441000D01*
X02464000Y00266000D02*
X02401000Y00203000D01*
X02400000Y00200000D01*
X02500000Y00200000D02*
X02506000Y00196000D01*
X02527000Y00196000D01*
X02583000Y00140000D01*
X02583000Y00049000D02*
X01855000Y00049000D01*
X00805000Y01099000D01*
X00406000Y01099000D01*
X00400000Y01100000D01*
X00406000Y01057000D02*
X00385000Y01057000D01*
X00343000Y01099000D01*
X00343000Y02317000D01*
X00301000Y02359000D01*
X00280000Y02359000D01*
X00245000Y02394000D01*
X00245000Y02415000D01*
X00203000Y02457000D01*
X00182000Y02457000D01*
X00112000Y02527000D01*
X00200000Y02600000D02*
X00203000Y02604000D01*
X00245000Y02646000D01*
X00679000Y02646000D01*
X00763000Y02562000D01*
X01617000Y02562000D01*
X01729000Y02450000D01*
X01750000Y02450000D01*
X01848000Y02450000D02*
X01850000Y02450000D01*
X01848000Y02450000D02*
X01708000Y02590000D01*
X01036000Y02590000D01*
X01183000Y02681000D02*
X01183000Y02968000D01*
X01141000Y03010000D01*
X01141000Y03045000D01*
X01295000Y03199000D01*
X01300000Y03200000D01*
X01708000Y03605000D02*
X01708000Y03766000D01*
X02030000Y03892000D02*
X02135000Y03997000D01*
X03360000Y03269000D02*
X03360000Y03213000D01*
X03472000Y03101000D01*
X04158000Y03101000D01*
X04256000Y03185000D02*
X03591000Y03185000D01*
X03528000Y03248000D01*
X03500000Y03248000D01*
X03500000Y03250000D01*
X03465000Y03206000D02*
X03528000Y03143000D01*
X03563000Y03087000D02*
X03900000Y02750000D01*
X03864000Y02765000D02*
X03864000Y02709000D01*
X03864000Y02765000D02*
X03619000Y03010000D01*
X03689000Y03066000D02*
X03773000Y03066000D01*
X03885000Y02954000D01*
X03899000Y02954000D01*
X03900000Y02950000D01*
X04039000Y02821000D02*
X04109000Y02821000D01*
X04172000Y02877000D02*
X04102000Y02947000D01*
X04100000Y02950000D01*
X04200000Y02950000D02*
X04200000Y02947000D01*
X04228000Y02947000D01*
X04284000Y02891000D01*
X04319000Y02891000D01*
X04333000Y02905000D01*
X04354000Y02905000D01*
X04340000Y02877000D02*
X04172000Y02877000D01*
X04300000Y02950000D02*
X04298000Y02954000D01*
X04298000Y02996000D01*
X04473000Y02744000D02*
X04494000Y02744000D01*
X04500000Y02750000D01*
X04340000Y02555000D02*
X04298000Y02597000D01*
X04172000Y02597000D01*
X04263000Y02541000D02*
X04291000Y02569000D01*
X04263000Y02541000D02*
X04263000Y02387000D01*
X04165000Y02289000D01*
X04165000Y02275000D01*
X04137000Y02352000D02*
X04074000Y02289000D01*
X04053000Y02226000D02*
X04053000Y02170000D01*
X04053000Y02226000D02*
X04004000Y02275000D01*
X04004000Y02450000D01*
X04000000Y02450000D01*
X04137000Y02373000D02*
X04137000Y02352000D01*
X04300000Y02200000D02*
X04305000Y02198000D01*
X04305000Y02079000D01*
X04354000Y02030000D01*
X04354000Y02016000D01*
X04298000Y01960000D01*
X04284000Y01960000D01*
X04263000Y01939000D01*
X04263000Y01848000D01*
X04277000Y01792000D02*
X04396000Y01673000D01*
X04396000Y01652000D01*
X04400000Y01650000D01*
X04263000Y01687000D02*
X04263000Y01582000D01*
X04333000Y01512000D01*
X04508000Y01512000D01*
X04522000Y01526000D01*
X05082000Y01526000D01*
X05124000Y01519000D02*
X05054000Y01589000D01*
X04956000Y01589000D01*
X04900000Y01645000D01*
X04900000Y01650000D01*
X04837000Y01610000D02*
X04823000Y01596000D01*
X04823000Y01582000D01*
X04816000Y01512000D02*
X04935000Y01393000D01*
X04816000Y01512000D02*
X04529000Y01512000D01*
X04515000Y01498000D01*
X04326000Y01498000D01*
X04249000Y01575000D01*
X04249000Y01680000D01*
X04186000Y01743000D01*
X04081000Y01743000D01*
X03948000Y01876000D01*
X03864000Y01911000D02*
X03605000Y02170000D01*
X03605000Y02198000D01*
X03600000Y02200000D01*
X03661000Y02170000D02*
X03661000Y02464000D01*
X03563000Y02562000D01*
X03563000Y02590000D01*
X03437000Y02611000D02*
X02870000Y02611000D01*
X02807000Y02674000D01*
X02625000Y02674000D01*
X02555000Y02744000D01*
X02550000Y02750000D01*
X02555000Y02751000D01*
X02555000Y02905000D01*
X02562000Y02912000D01*
X02569000Y03094000D02*
X02646000Y03094000D01*
X02268000Y03122000D02*
X02261000Y03115000D01*
X02450000Y02750000D02*
X02450000Y02639000D01*
X02464000Y02625000D01*
X02464000Y02611000D01*
X02436000Y02583000D01*
X02345000Y02583000D01*
X02296000Y02632000D01*
X02268000Y02632000D02*
X02268000Y02639000D01*
X02317000Y02688000D01*
X02366000Y02688000D01*
X02387000Y02709000D01*
X02499000Y02723000D02*
X02618000Y02604000D01*
X02730000Y02604000D01*
X02765000Y02569000D01*
X02856000Y02569000D01*
X02898000Y02548000D02*
X03178000Y02548000D01*
X03206000Y02520000D01*
X03269000Y02548000D02*
X03423000Y02548000D01*
X03584000Y02387000D01*
X03633000Y02387000D01*
X03458000Y02331000D02*
X03458000Y02247000D01*
X03500000Y02205000D01*
X03500000Y02200000D01*
X03500000Y02121000D01*
X03899000Y01722000D01*
X03899000Y01715000D01*
X04109000Y01715000D01*
X04137000Y01687000D01*
X04137000Y01596000D01*
X04235000Y01498000D01*
X04235000Y00700000D01*
X04130000Y00595000D01*
X04130000Y00560000D01*
X04137000Y00553000D01*
X04137000Y00462000D01*
X04193000Y00406000D01*
X04137000Y00462000D02*
X04116000Y00441000D01*
X04081000Y00441000D01*
X04025000Y00497000D01*
X04004000Y00497000D01*
X04000000Y00500000D01*
X03948000Y00469000D02*
X03906000Y00427000D01*
X03906000Y00203000D01*
X03900000Y00200000D01*
X03864000Y00189000D02*
X03801000Y00126000D01*
X03724000Y00126000D01*
X03703000Y00147000D01*
X03703000Y00203000D01*
X03647000Y00259000D01*
X03563000Y00259000D01*
X03360000Y00462000D01*
X03360000Y00518000D01*
X03318000Y00560000D01*
X03080000Y00560000D01*
X03024000Y00504000D01*
X03003000Y00504000D01*
X03000000Y00500000D01*
X02933000Y00574000D02*
X03402000Y00574000D01*
X03472000Y00504000D01*
X03500000Y00504000D01*
X03500000Y00500000D01*
X03493000Y00574000D02*
X03437000Y00630000D01*
X02968000Y00630000D01*
X02940000Y00658000D01*
X02940000Y00910000D01*
X02807000Y01043000D01*
X02807000Y01134000D01*
X02828000Y01155000D01*
X02842000Y01155000D01*
X02842000Y01267000D01*
X02898000Y01323000D01*
X02898000Y01547000D01*
X02900000Y01550000D01*
X02905000Y01554000D01*
X03101000Y01750000D01*
X03101000Y01897000D01*
X03100000Y01900000D01*
X03094000Y01904000D01*
X03094000Y01946000D01*
X02905000Y02135000D01*
X02905000Y02198000D01*
X02900000Y02200000D01*
X02849000Y02163000D02*
X03024000Y01988000D01*
X03024000Y01981000D01*
X02940000Y01953000D02*
X02793000Y02100000D01*
X02793000Y02065000D02*
X02730000Y02128000D01*
X02793000Y02065000D02*
X02793000Y01932000D01*
X02940000Y01785000D01*
X02975000Y01785000D02*
X02975000Y01848000D01*
X02940000Y01883000D01*
X02940000Y01953000D01*
X02996000Y02100000D02*
X03094000Y02198000D01*
X03100000Y02200000D01*
X03136000Y02261000D02*
X03136000Y01750000D01*
X03101000Y01750000D02*
X03157000Y01694000D01*
X03262000Y01694000D01*
X03283000Y01610000D02*
X03241000Y01568000D01*
X03241000Y01512000D01*
X03038000Y01309000D01*
X02982000Y01309000D01*
X02961000Y01288000D01*
X02961000Y01211000D01*
X02982000Y01190000D01*
X03038000Y01190000D01*
X03094000Y01246000D01*
X03100000Y01250000D01*
X03108000Y01190000D02*
X03115000Y01190000D01*
X03164000Y01239000D01*
X03164000Y01288000D01*
X03199000Y01323000D01*
X03451000Y01323000D01*
X03591000Y01463000D01*
X03752000Y01463000D01*
X03794000Y01505000D01*
X03934000Y01505000D01*
X04053000Y01624000D01*
X04053000Y01680000D01*
X04100000Y01650000D02*
X03941000Y01491000D01*
X03801000Y01491000D01*
X03759000Y01449000D01*
X03598000Y01449000D01*
X03458000Y01309000D01*
X03283000Y01309000D01*
X03227000Y01253000D01*
X03206000Y01253000D01*
X03200000Y01250000D01*
X03143000Y01309000D02*
X03059000Y01309000D01*
X03000000Y01250000D01*
X03094000Y01176000D02*
X03108000Y01190000D01*
X03129000Y01176000D02*
X03101000Y01148000D01*
X03003000Y01148000D01*
X02905000Y01246000D01*
X02900000Y01250000D01*
X02842000Y01155000D02*
X02898000Y01099000D01*
X02898000Y01050000D01*
X02900000Y01050000D01*
X02835000Y01036000D02*
X02975000Y00896000D01*
X03234000Y00896000D01*
X03255000Y00917000D01*
X03255000Y00931000D01*
X03234000Y00952000D01*
X03101000Y00952000D01*
X03080000Y00973000D01*
X03080000Y01036000D01*
X03094000Y01050000D01*
X03100000Y01050000D01*
X03052000Y01078000D02*
X03052000Y01022000D01*
X03003000Y01029000D02*
X03003000Y01050000D01*
X03000000Y01050000D01*
X03003000Y01029000D02*
X03108000Y00924000D01*
X03227000Y00924000D01*
X03269000Y00987000D02*
X03206000Y01050000D01*
X03200000Y01050000D01*
X03164000Y01036000D02*
X03164000Y01092000D01*
X03220000Y01148000D01*
X03619000Y01148000D01*
X03759000Y01288000D01*
X03913000Y01288000D01*
X03962000Y01337000D01*
X03997000Y01274000D02*
X03766000Y01274000D01*
X03605000Y01113000D01*
X03605000Y01050000D01*
X03600000Y01050000D01*
X03584000Y00987000D02*
X03535000Y01036000D01*
X03535000Y01092000D01*
X03514000Y01113000D01*
X03283000Y01113000D01*
X03248000Y01078000D01*
X03164000Y01036000D02*
X03108000Y00980000D01*
X03052000Y01078000D02*
X03136000Y01162000D01*
X03612000Y01162000D01*
X03759000Y01309000D01*
X03759000Y01386000D01*
X03787000Y01414000D01*
X03871000Y01414000D01*
X03801000Y01449000D02*
X04011000Y01449000D01*
X04053000Y01477000D02*
X04158000Y01372000D01*
X04200000Y01350000D02*
X04200000Y01267000D01*
X04186000Y01253000D01*
X04333000Y01281000D02*
X04347000Y01281000D01*
X04438000Y01190000D01*
X04480000Y01190000D01*
X04494000Y01232000D02*
X04417000Y01232000D01*
X04305000Y01344000D01*
X04300000Y01350000D01*
X04522000Y01449000D02*
X04536000Y01449000D01*
X04564000Y01456000D02*
X04536000Y01484000D01*
X04564000Y01456000D02*
X04564000Y01239000D01*
X04403000Y01078000D01*
X04403000Y01050000D01*
X04400000Y01050000D01*
X04396000Y01050000D01*
X04277000Y00931000D01*
X04277000Y00868000D01*
X04361000Y00896000D02*
X04361000Y00931000D01*
X04459000Y01029000D01*
X04600000Y01050000D02*
X04606000Y01050000D01*
X04606000Y01239000D01*
X04662000Y01295000D01*
X04795000Y01064000D02*
X04795000Y00805000D01*
X04984000Y00770000D02*
X04998000Y00756000D01*
X05000000Y00750000D01*
X04984000Y00770000D02*
X04984000Y00840000D01*
X04963000Y00938000D02*
X04963000Y01064000D01*
X04963000Y01092000D02*
X04984000Y01113000D01*
X05033000Y01113000D01*
X05138000Y01218000D01*
X05138000Y01267000D01*
X05166000Y01309000D02*
X05166000Y01225000D01*
X05145000Y01204000D01*
X05145000Y00476000D01*
X05194000Y00427000D01*
X05194000Y00203000D01*
X05200000Y00200000D01*
X05159000Y00161000D02*
X05180000Y00140000D01*
X05215000Y00140000D01*
X05264000Y00189000D01*
X05264000Y00350000D01*
X05362000Y00448000D01*
X05400000Y00500000D02*
X05404000Y00497000D01*
X05600000Y00301000D01*
X05607000Y00273000D02*
X05670000Y00336000D01*
X05670000Y00546000D01*
X05698000Y00574000D02*
X05299000Y00574000D01*
X05264000Y00609000D01*
X05264000Y00763000D01*
X05201000Y00826000D01*
X05222000Y00910000D02*
X05299000Y00833000D01*
X05299000Y00756000D01*
X05300000Y00750000D01*
X05397000Y00749000D02*
X05397000Y00679000D01*
X05474000Y00602000D01*
X05726000Y00602000D01*
X05726000Y00252000D01*
X05586000Y00112000D01*
X04347000Y00112000D01*
X04326000Y00133000D01*
X04326000Y00098000D02*
X04235000Y00189000D01*
X04235000Y00245000D01*
X04221000Y00259000D01*
X04060000Y00259000D01*
X04046000Y00322000D02*
X03962000Y00238000D01*
X03962000Y00161000D01*
X03857000Y00056000D01*
X03164000Y00056000D01*
X03024000Y00196000D01*
X03003000Y00196000D01*
X03000000Y00200000D01*
X02982000Y00259000D02*
X02982000Y00343000D01*
X02807000Y00518000D01*
X02807000Y00847000D01*
X02793000Y00861000D01*
X02793000Y00973000D02*
X02793000Y01155000D01*
X02835000Y01127000D02*
X02835000Y01036000D01*
X02702000Y01050000D02*
X02702000Y00987000D01*
X02702000Y01050000D02*
X02700000Y01050000D01*
X03129000Y01176000D02*
X03605000Y01176000D01*
X03731000Y01302000D01*
X03731000Y01358000D01*
X03696000Y01421000D02*
X03773000Y01421000D01*
X03801000Y01449000D01*
X03808000Y01477000D02*
X04053000Y01477000D01*
X03955000Y01561000D02*
X03689000Y01561000D01*
X03619000Y01491000D01*
X03479000Y01491000D01*
X03437000Y01533000D01*
X03437000Y01589000D01*
X03416000Y01610000D01*
X03283000Y01610000D01*
X03400000Y01550000D02*
X03402000Y01547000D01*
X03402000Y01477000D01*
X03626000Y01477000D01*
X03682000Y01533000D01*
X03857000Y01533000D01*
X03808000Y01477000D02*
X03766000Y01435000D01*
X03605000Y01435000D01*
X03423000Y01253000D01*
X03402000Y01253000D01*
X03400000Y01250000D01*
X03381000Y01190000D02*
X03514000Y01190000D01*
X03563000Y01239000D01*
X03563000Y01288000D01*
X03696000Y01421000D01*
X03600000Y01550000D02*
X03605000Y01554000D01*
X03437000Y01722000D01*
X03437000Y01778000D01*
X03437000Y01841000D02*
X03437000Y01939000D01*
X03269000Y02107000D01*
X03241000Y02135000D02*
X03241000Y02051000D01*
X03199000Y02009000D01*
X03164000Y02009000D02*
X03213000Y01960000D01*
X03241000Y01960000D01*
X03297000Y01904000D01*
X03300000Y01900000D01*
X03290000Y01813000D02*
X03206000Y01897000D01*
X03200000Y01900000D01*
X03262000Y01981000D02*
X03311000Y02030000D01*
X03339000Y02065000D02*
X03500000Y01904000D01*
X03500000Y01900000D01*
X03577000Y01897000D02*
X03493000Y01813000D01*
X03290000Y01813000D01*
X03458000Y01666000D02*
X03059000Y01666000D01*
X02870000Y01645000D02*
X02870000Y01792000D01*
X02737000Y01862000D02*
X02737000Y02016000D01*
X02737000Y01862000D02*
X02681000Y01806000D01*
X02681000Y01785000D01*
X02604000Y01897000D02*
X02600000Y01900000D01*
X02604000Y01897000D02*
X02604000Y01624000D01*
X02653000Y01603000D02*
X02653000Y02499000D01*
X02604000Y02548000D01*
X02590000Y02548000D01*
X02576000Y02576000D02*
X02723000Y02576000D01*
X02674000Y02632000D02*
X02828000Y02632000D01*
X02898000Y02548000D02*
X02800000Y02450000D01*
X02576000Y02576000D02*
X02555000Y02555000D01*
X02380000Y02555000D01*
X02310000Y02485000D01*
X02310000Y02436000D01*
X02250000Y02450000D02*
X02226000Y02450000D01*
X02037000Y02261000D01*
X01981000Y02261000D01*
X01939000Y02219000D01*
X01694000Y02205000D02*
X01694000Y01778000D01*
X01638000Y01722000D01*
X01638000Y01372000D01*
X01638000Y00742000D01*
X01743000Y00637000D01*
X01806000Y00672000D02*
X01960000Y00518000D01*
X01960000Y00462000D01*
X01995000Y00427000D01*
X02002000Y00399000D02*
X02023000Y00420000D01*
X02023000Y00434000D01*
X02002000Y00455000D01*
X02002000Y00497000D01*
X02000000Y00500000D01*
X01953000Y00560000D02*
X01953000Y00630000D01*
X01904000Y00679000D01*
X01904000Y00749000D01*
X01900000Y00750000D01*
X01806000Y00749000D02*
X01806000Y00672000D01*
X01806000Y00749000D02*
X01800000Y00750000D01*
X01666000Y00749000D02*
X01666000Y01729000D01*
X01722000Y01785000D01*
X01722000Y02345000D01*
X01631000Y02317000D02*
X01596000Y02282000D01*
X01596000Y00609000D01*
X01820000Y00385000D01*
X02009000Y00385000D01*
X02016000Y00392000D01*
X02037000Y00392000D01*
X02002000Y00399000D02*
X01827000Y00399000D01*
X01610000Y00616000D01*
X01610000Y02261000D01*
X01568000Y02275000D02*
X01596000Y02303000D01*
X01596000Y02534000D01*
X01757000Y02618000D02*
X01211000Y02618000D01*
X01442000Y02534000D02*
X01442000Y00742000D01*
X01820000Y00364000D01*
X02079000Y00364000D01*
X02156000Y00441000D01*
X02163000Y00483000D02*
X02079000Y00399000D01*
X02163000Y00483000D02*
X02163000Y00714000D01*
X02198000Y00749000D01*
X02200000Y00750000D01*
X02100000Y00750000D02*
X02100000Y00861000D01*
X02163000Y00924000D01*
X02163000Y01512000D01*
X01806000Y01309000D02*
X01806000Y01253000D01*
X01800000Y01250000D01*
X02562000Y01512000D02*
X02583000Y01491000D01*
X02716000Y01491000D01*
X02870000Y01645000D01*
X02849000Y01568000D02*
X02751000Y01470000D01*
X03108000Y01337000D02*
X03150000Y01337000D01*
X03220000Y01407000D01*
X03402000Y01407000D01*
X03402000Y01477000D01*
X03402000Y01407000D02*
X03402000Y01351000D01*
X03332000Y01379000D02*
X03213000Y01379000D01*
X03143000Y01309000D01*
X03300000Y01250000D02*
X03304000Y01246000D01*
X03325000Y01246000D01*
X03381000Y01190000D01*
X03500000Y01050000D02*
X03696000Y00854000D01*
X03829000Y00854000D01*
X03857000Y00861000D02*
X03822000Y00896000D01*
X03682000Y00896000D01*
X03661000Y00917000D01*
X03661000Y00931000D01*
X03780000Y01050000D01*
X03800000Y01050000D01*
X03794000Y01169000D02*
X03612000Y00987000D01*
X03584000Y00987000D01*
X03689000Y00924000D02*
X03815000Y00924000D01*
X03899000Y00840000D01*
X03857000Y00861000D02*
X03857000Y00574000D01*
X03801000Y00518000D01*
X03801000Y00504000D01*
X03800000Y00500000D01*
X03794000Y00574000D02*
X03794000Y00749000D01*
X03800000Y00750000D01*
X03836000Y00791000D02*
X03815000Y00812000D01*
X03773000Y00812000D01*
X03738000Y00812000D02*
X03738000Y00756000D01*
X03745000Y00749000D01*
X03745000Y00301000D01*
X03773000Y00273000D01*
X03675000Y00196000D02*
X03619000Y00140000D01*
X03381000Y00140000D01*
X03360000Y00161000D01*
X03360000Y00217000D01*
X03318000Y00259000D01*
X02982000Y00259000D01*
X02926000Y00203000D01*
X02905000Y00203000D01*
X02900000Y00200000D01*
X03100000Y00200000D02*
X03101000Y00196000D01*
X03129000Y00196000D01*
X03227000Y00098000D01*
X03843000Y00098000D01*
X03850000Y00070000D02*
X03948000Y00168000D01*
X03948000Y00245000D01*
X04046000Y00322000D02*
X04466000Y00322000D01*
X04466000Y00280000D02*
X04599000Y00413000D01*
X04991000Y00413000D01*
X05040000Y00462000D01*
X05040000Y00539000D01*
X05103000Y00602000D01*
X05103000Y00616000D01*
X05131000Y00609000D02*
X05061000Y00539000D01*
X05061000Y00399000D01*
X04620000Y00399000D01*
X04473000Y00252000D01*
X04424000Y00252000D01*
X04396000Y00280000D01*
X04319000Y00280000D01*
X04326000Y00350000D02*
X04459000Y00483000D01*
X04459000Y00714000D01*
X04494000Y00749000D01*
X04500000Y00750000D01*
X04396000Y00574000D02*
X04249000Y00721000D01*
X04249000Y01519000D01*
X04235000Y01533000D01*
X04263000Y01687000D02*
X04221000Y01729000D01*
X04221000Y01743000D01*
X04494000Y01813000D02*
X04494000Y01897000D01*
X04500000Y01900000D01*
X04536000Y01820000D02*
X04620000Y01904000D01*
X04564000Y01960000D01*
X04480000Y01960000D01*
X04473000Y01953000D01*
X04459000Y01953000D01*
X04438000Y01974000D01*
X04438000Y02079000D01*
X04459000Y02100000D01*
X04459000Y02359000D01*
X04536000Y02240000D02*
X04536000Y02156000D01*
X04466000Y02086000D01*
X04466000Y01981000D01*
X04326000Y02023000D02*
X04242000Y02107000D01*
X04333000Y02121000D02*
X04333000Y02156000D01*
X04340000Y02163000D01*
X04340000Y02555000D01*
X03801000Y02450000D02*
X03800000Y02450000D01*
X03724000Y02527000D02*
X03724000Y02576000D01*
X03521000Y02639000D02*
X03430000Y02639000D01*
X03416000Y02625000D01*
X03262000Y02625000D01*
X03248000Y02639000D01*
X03234000Y02639000D01*
X03269000Y02653000D02*
X03493000Y02653000D01*
X03528000Y02688000D01*
X03346000Y02471000D02*
X03346000Y02324000D01*
X03241000Y02219000D01*
X03241000Y02135000D01*
X03318000Y02135000D01*
X03332000Y02149000D01*
X03360000Y02149000D01*
X03374000Y02135000D01*
X03339000Y02121000D02*
X03339000Y02065000D01*
X03402000Y02037000D02*
X03402000Y02198000D01*
X03400000Y02200000D01*
X03437000Y02163000D02*
X03437000Y02317000D01*
X03430000Y02324000D01*
X03430000Y02387000D01*
X03311000Y02324000D02*
X03206000Y02219000D01*
X03206000Y02205000D01*
X03200000Y02200000D01*
X03164000Y02254000D02*
X03164000Y02009000D01*
X03010000Y02135000D02*
X02975000Y02135000D01*
X03136000Y02261000D02*
X03157000Y02282000D01*
X03164000Y02282000D01*
X03269000Y02387000D01*
X03437000Y02163000D02*
X03640000Y01960000D01*
X03640000Y01862000D01*
X03556000Y01778000D01*
X03556000Y01638000D01*
X03549000Y01575000D02*
X03458000Y01666000D01*
X03577000Y01897000D02*
X03598000Y01897000D01*
X03600000Y01900000D01*
X03899000Y01715000D02*
X03899000Y01652000D01*
X03900000Y01650000D01*
X04025000Y01246000D02*
X03773000Y01246000D01*
X03731000Y01204000D02*
X03689000Y01162000D01*
X03731000Y01204000D02*
X03976000Y01204000D01*
X03941000Y01169000D02*
X03794000Y01169000D01*
X03465000Y00987000D02*
X03269000Y00987000D01*
X03199000Y00826000D02*
X03591000Y00826000D01*
X03710000Y00784000D02*
X03710000Y00763000D01*
X03731000Y00742000D01*
X03731000Y00154000D01*
X03682000Y00126000D02*
X03297000Y00126000D01*
X03248000Y00175000D01*
X03248000Y00231000D01*
X03164000Y00140000D02*
X03234000Y00070000D01*
X03850000Y00070000D01*
X04102000Y00350000D02*
X04326000Y00350000D01*
X04340000Y00399000D02*
X04340000Y00539000D01*
X04333000Y00546000D01*
X04333000Y00560000D01*
X04396000Y00574000D02*
X04396000Y00504000D01*
X04400000Y00500000D01*
X04200000Y00500000D02*
X04200000Y00504000D01*
X04158000Y00546000D01*
X04158000Y00567000D01*
X04179000Y00679000D02*
X04046000Y00546000D01*
X04018000Y00560000D02*
X04200000Y00742000D01*
X04200000Y00750000D01*
X03900000Y00500000D02*
X03899000Y00497000D01*
X03808000Y00406000D01*
X03717000Y00469000D02*
X03717000Y00735000D01*
X03465000Y00987000D01*
X03199000Y00826000D02*
X03129000Y00756000D01*
X03101000Y00756000D01*
X03100000Y00750000D01*
X03087000Y00686000D02*
X03444000Y00686000D01*
X03500000Y00700000D02*
X03500000Y00750000D01*
X03500000Y00700000D02*
X03661000Y00539000D01*
X03661000Y00504000D01*
X03689000Y00497000D02*
X03689000Y00658000D01*
X03675000Y00672000D01*
X03703000Y00679000D02*
X03703000Y00490000D01*
X03633000Y00420000D01*
X03640000Y00392000D02*
X03514000Y00392000D01*
X03640000Y00392000D02*
X03717000Y00469000D01*
X03689000Y00497000D02*
X03661000Y00469000D01*
X03647000Y00469000D01*
X03600000Y00500000D02*
X03598000Y00504000D01*
X03598000Y00567000D01*
X03507000Y00658000D01*
X03213000Y00658000D01*
X03087000Y00686000D02*
X03024000Y00749000D01*
X03003000Y00749000D01*
X03000000Y00750000D01*
X02900000Y00750000D02*
X02898000Y00749000D01*
X02898000Y00637000D01*
X02835000Y00574000D01*
X02905000Y00623000D02*
X02905000Y00504000D01*
X02900000Y00500000D01*
X02765000Y00455000D02*
X02765000Y00700000D01*
X02905000Y00623000D02*
X02940000Y00658000D01*
X03031000Y00602000D02*
X03430000Y00602000D01*
X03600000Y00750000D02*
X03605000Y00749000D01*
X03633000Y00749000D01*
X03703000Y00679000D01*
X04039000Y00413000D02*
X04102000Y00350000D01*
X04109000Y00378000D02*
X04074000Y00413000D01*
X04400000Y00200000D02*
X04403000Y00196000D01*
X04424000Y00196000D01*
X04480000Y00140000D01*
X05040000Y00140000D01*
X05100000Y00200000D01*
X05138000Y00161000D02*
X05138000Y00252000D01*
X05047000Y00343000D01*
X04844000Y00343000D01*
X04704000Y00203000D01*
X04700000Y00200000D01*
X04627000Y00203000D02*
X04795000Y00371000D01*
X04970000Y00371000D01*
X05040000Y00315000D02*
X04998000Y00273000D01*
X05061000Y00350000D02*
X05159000Y00252000D01*
X05159000Y00161000D01*
X05138000Y00161000D02*
X05173000Y00126000D01*
X05502000Y00126000D01*
X05572000Y00196000D01*
X05600000Y00196000D01*
X05600000Y00200000D01*
X05600000Y00203000D01*
X05698000Y00301000D01*
X05698000Y00490000D01*
X05754000Y00546000D02*
X05754000Y00301000D01*
X05754000Y00259000D01*
X05593000Y00098000D01*
X04326000Y00098000D01*
X04600000Y00200000D02*
X04606000Y00203000D01*
X04627000Y00203000D01*
X05061000Y00350000D02*
X05061000Y00399000D01*
X05000000Y00500000D02*
X05005000Y00504000D01*
X05005000Y00679000D01*
X05040000Y00714000D01*
X05040000Y00938000D01*
X05117000Y00938000D01*
X05040000Y00938000D02*
X05040000Y01015000D01*
X05005000Y01050000D01*
X05000000Y01050000D01*
X05033000Y01113000D02*
X05096000Y01050000D01*
X05100000Y01050000D01*
X05159000Y01085000D02*
X05159000Y00672000D01*
X05173000Y00658000D01*
X05131000Y00623000D02*
X05131000Y00609000D01*
X05131000Y00623000D02*
X05103000Y00651000D01*
X05103000Y00749000D01*
X05100000Y00750000D01*
X05222000Y00910000D02*
X05222000Y00952000D01*
X05243000Y00973000D01*
X05460000Y00973000D01*
X05649000Y00784000D01*
X05943000Y00784000D01*
X05950000Y00812000D02*
X06041000Y00721000D01*
X06041000Y00672000D01*
X06069000Y00644000D01*
X06111000Y00630000D02*
X06125000Y00644000D01*
X06111000Y00630000D02*
X06111000Y00399000D01*
X06076000Y00364000D01*
X06076000Y00350000D01*
X06020000Y00329000D02*
X06097000Y00406000D01*
X06097000Y01071000D01*
X06258000Y01232000D01*
X06258000Y01253000D01*
X06216000Y01211000D02*
X05964000Y00959000D01*
X05964000Y00826000D01*
X06069000Y00721000D01*
X06153000Y00679000D02*
X06188000Y00714000D01*
X06188000Y01015000D01*
X06153000Y01050000D01*
X06150000Y01050000D01*
X06314000Y01015000D02*
X06349000Y01050000D01*
X06350000Y01050000D01*
X06314000Y01015000D02*
X06314000Y00707000D01*
X06328000Y00693000D01*
X06328000Y00630000D01*
X06419000Y00686000D02*
X06419000Y00707000D01*
X06412000Y00714000D01*
X06412000Y00917000D01*
X06545000Y01050000D01*
X06550000Y01050000D01*
X06650000Y01050000D02*
X06713000Y00987000D01*
X06762000Y00987000D01*
X06790000Y01015000D01*
X06790000Y01085000D01*
X06601000Y01274000D01*
X06601000Y01673000D01*
X06615000Y01680000D02*
X06615000Y01281000D01*
X06489000Y01288000D02*
X06412000Y01288000D01*
X06350000Y01350000D01*
X06250000Y01350000D02*
X06244000Y01344000D01*
X06223000Y01344000D01*
X05852000Y00973000D01*
X05817000Y00973000D01*
X05796000Y00987000D02*
X06111000Y01302000D01*
X06111000Y01435000D01*
X06195000Y01519000D01*
X06090000Y01498000D02*
X06090000Y01316000D01*
X06041000Y01267000D01*
X05887000Y01267000D01*
X05880000Y01239000D02*
X05859000Y01218000D01*
X05362000Y01218000D01*
X05355000Y01190000D02*
X05201000Y01344000D01*
X05200000Y01350000D01*
X05159000Y01316000D02*
X05166000Y01309000D01*
X05159000Y01316000D02*
X05159000Y01407000D01*
X05200000Y01650000D02*
X05194000Y01652000D01*
X05187000Y01659000D01*
X05187000Y01778000D01*
X05159000Y01785000D02*
X05159000Y01736000D01*
X05103000Y01680000D01*
X05100000Y01650000D01*
X05103000Y01652000D01*
X05103000Y01680000D01*
X04977000Y01806000D01*
X04718000Y01806000D01*
X04620000Y01904000D01*
X04746000Y01932000D02*
X04746000Y01855000D01*
X04774000Y01827000D01*
X05110000Y01827000D01*
X05110000Y01722000D01*
X05159000Y01785000D02*
X05201000Y01827000D01*
X05208000Y01827000D01*
X05299000Y01827000D02*
X05299000Y01652000D01*
X05300000Y01650000D01*
X05110000Y01827000D02*
X05110000Y01890000D01*
X05100000Y01900000D01*
X04746000Y01932000D02*
X04564000Y02114000D01*
X04564000Y02212000D01*
X04592000Y02170000D02*
X04655000Y02170000D01*
X04865000Y02331000D02*
X04865000Y02366000D01*
X04921000Y02338000D02*
X05166000Y02338000D01*
X05299000Y02205000D01*
X05300000Y02200000D01*
X05432000Y02135000D02*
X05495000Y02198000D01*
X05500000Y02200000D01*
X05572000Y02205000D02*
X05600000Y02205000D01*
X05600000Y02200000D01*
X05565000Y02037000D02*
X05565000Y01960000D01*
X05649000Y01988000D02*
X05866000Y01771000D01*
X05950000Y01771000D01*
X05971000Y01750000D01*
X06055000Y01827000D02*
X06055000Y01652000D01*
X06050000Y01650000D01*
X06048000Y01645000D01*
X06048000Y01540000D01*
X06090000Y01498000D01*
X06048000Y01519000D02*
X06013000Y01554000D01*
X06013000Y01862000D01*
X06048000Y01897000D01*
X06050000Y01900000D01*
X06090000Y01862000D02*
X06055000Y01827000D01*
X06090000Y01862000D02*
X06090000Y01946000D01*
X06062000Y01974000D01*
X06097000Y01974000D02*
X06097000Y01960000D01*
X06104000Y01953000D01*
X06104000Y01764000D01*
X06090000Y01750000D01*
X06090000Y01596000D01*
X06076000Y01582000D01*
X06048000Y01519000D02*
X06048000Y01351000D01*
X06050000Y01350000D01*
X06013000Y01239000D02*
X05880000Y01239000D01*
X05943000Y01421000D02*
X05887000Y01477000D01*
X06150000Y01650000D02*
X06153000Y01652000D01*
X06174000Y01652000D01*
X06251000Y01729000D01*
X06566000Y01729000D01*
X06615000Y01680000D01*
X06650000Y01650000D02*
X06650000Y01743000D01*
X06139000Y01743000D01*
X06209000Y01848000D02*
X06209000Y02002000D01*
X05957000Y02002000D01*
X06013000Y01953000D02*
X05964000Y01904000D01*
X05950000Y01904000D01*
X05950000Y01900000D01*
X05810000Y01967000D02*
X05705000Y01967000D01*
X05887000Y02163000D02*
X05850000Y02200000D01*
X05852000Y02205000D01*
X05852000Y02282000D01*
X06027000Y02457000D01*
X06027000Y02660000D01*
X06027000Y03304000D01*
X05908000Y03423000D01*
X05838000Y03381000D02*
X05887000Y03332000D01*
X05887000Y02975000D01*
X05740000Y02912000D02*
X05740000Y03556000D01*
X05747000Y03584000D02*
X05810000Y03521000D01*
X05782000Y03507000D02*
X05782000Y02611000D01*
X05887000Y02506000D01*
X05999000Y02387000D02*
X06069000Y02457000D01*
X06069000Y02856000D01*
X06111000Y02898000D01*
X06111000Y03171000D01*
X06139000Y03199000D01*
X06139000Y03234000D01*
X06111000Y03206000D02*
X06111000Y03192000D01*
X06083000Y03164000D01*
X06083000Y02891000D01*
X06153000Y02926000D02*
X06188000Y02961000D01*
X06153000Y02926000D02*
X06153000Y02751000D01*
X06150000Y02750000D01*
X06202000Y02723000D02*
X06209000Y02730000D01*
X06209000Y03073000D01*
X06370000Y02905000D02*
X06524000Y02751000D01*
X06545000Y02751000D01*
X06550000Y02750000D01*
X06615000Y02793000D02*
X06685000Y02863000D01*
X06685000Y03339000D01*
X06629000Y03395000D01*
X06615000Y03395000D01*
X06636000Y03437000D02*
X06587000Y03486000D01*
X06587000Y03759000D01*
X06552000Y03794000D01*
X06550000Y03800000D01*
X06545000Y03801000D01*
X06503000Y03843000D01*
X06503000Y04375000D01*
X06440000Y04438000D01*
X06447000Y04354000D02*
X06450000Y04350000D01*
X06454000Y04347000D01*
X06489000Y04312000D01*
X06489000Y04011000D01*
X06454000Y03976000D01*
X06454000Y03801000D01*
X06450000Y03800000D01*
X06412000Y03759000D02*
X06412000Y04011000D01*
X06447000Y04046000D01*
X06450000Y04050000D01*
X06286000Y04011000D02*
X06286000Y04312000D01*
X06251000Y04347000D01*
X06250000Y04350000D01*
X06307000Y04438000D02*
X04760000Y04438000D01*
X04676000Y04354000D01*
X04655000Y04354000D01*
X04650000Y04350000D01*
X04585000Y04361000D02*
X04690000Y04466000D01*
X06314000Y04466000D01*
X06426000Y04354000D01*
X06447000Y04354000D01*
X06615000Y04389000D02*
X06615000Y04305000D01*
X06650000Y04270000D01*
X06650000Y04050000D01*
X06650000Y04046000D01*
X06615000Y04011000D01*
X06615000Y03759000D01*
X06650000Y03724000D01*
X06650000Y03500000D01*
X06685000Y03514000D02*
X06685000Y03458000D01*
X06664000Y03437000D01*
X06636000Y03437000D01*
X06685000Y03514000D02*
X06734000Y03563000D01*
X06762000Y03563000D01*
X06916000Y03549000D02*
X06713000Y03752000D01*
X06713000Y04361000D01*
X06664000Y04410000D01*
X06636000Y04410000D01*
X06615000Y04389000D01*
X06650000Y04350000D02*
X06650000Y04347000D01*
X06685000Y04312000D01*
X06685000Y04011000D01*
X06650000Y03976000D01*
X06650000Y03800000D01*
X06447000Y03724000D02*
X06412000Y03759000D01*
X06398000Y03731000D02*
X06398000Y03829000D01*
X06314000Y03913000D01*
X06314000Y04151000D01*
X06250000Y04050000D02*
X06244000Y04046000D01*
X06209000Y04011000D01*
X06209000Y03766000D01*
X06244000Y03731000D01*
X06244000Y03500000D01*
X06250000Y03500000D01*
X06447000Y03500000D02*
X06450000Y03500000D01*
X06447000Y03500000D02*
X06447000Y03724000D01*
X06251000Y03801000D02*
X06250000Y03800000D01*
X06251000Y03801000D02*
X06251000Y03976000D01*
X06286000Y04011000D01*
X06090000Y04011000D02*
X06055000Y03976000D01*
X06055000Y03801000D01*
X06050000Y03800000D01*
X05850000Y03800000D02*
X05845000Y03801000D01*
X05845000Y03976000D01*
X05810000Y04011000D01*
X05831000Y04158000D02*
X05950000Y04277000D01*
X05950000Y04350000D01*
X06050000Y04350000D02*
X06055000Y04347000D01*
X06090000Y04312000D01*
X06090000Y04109000D01*
X05747000Y04277000D02*
X05747000Y03584000D01*
X05432000Y03563000D02*
X05362000Y03633000D01*
X05173000Y03633000D01*
X05145000Y03640000D02*
X05145000Y03626000D01*
X05166000Y03605000D01*
X05306000Y03605000D01*
X05334000Y03577000D01*
X05334000Y03563000D01*
X05432000Y03647000D02*
X05418000Y03661000D01*
X05166000Y03661000D01*
X05145000Y03640000D01*
X05100000Y03800000D02*
X05103000Y03801000D01*
X05103000Y03864000D01*
X05103000Y04046000D01*
X05100000Y04050000D01*
X05040000Y04291000D02*
X05096000Y04347000D01*
X05100000Y04350000D01*
X05040000Y04291000D02*
X04620000Y04291000D01*
X03402000Y03276000D02*
X03402000Y03255000D01*
X03400000Y03250000D01*
X03346000Y03143000D02*
X03416000Y03073000D01*
X02863000Y02842000D02*
X02835000Y02842000D01*
X02506000Y02632000D02*
X02443000Y02569000D01*
X02282000Y02569000D01*
X02268000Y02632000D02*
X02156000Y02520000D01*
X02037000Y02541000D02*
X01932000Y02646000D01*
X01680000Y02646000D01*
X01568000Y02758000D01*
X01757000Y02618000D02*
X01925000Y02450000D01*
X01950000Y02450000D01*
X00742000Y02527000D02*
X00742000Y01183000D01*
X01799000Y00126000D01*
X02200000Y00200000D02*
X02205000Y00196000D01*
X02324000Y00077000D01*
X02639000Y00063000D02*
X03101000Y00063000D01*
X03150000Y00140000D02*
X03164000Y00140000D01*
X03395000Y00203000D02*
X03400000Y00200000D01*
X03395000Y00203000D02*
X03157000Y00441000D01*
X04600000Y00500000D02*
X04606000Y00504000D01*
X04606000Y00581000D01*
X04963000Y00938000D01*
X05200000Y01050000D02*
X05222000Y01050000D01*
X05285000Y00987000D01*
X05467000Y00987000D01*
X05642000Y00812000D01*
X05950000Y00812000D01*
X05964000Y00826000D02*
X05649000Y00826000D01*
X05425000Y01050000D01*
X05400000Y01050000D01*
X05376000Y01050000D01*
X05313000Y01113000D01*
X05187000Y01113000D01*
X05159000Y01085000D01*
X05208000Y01141000D02*
X05404000Y01141000D01*
X05495000Y01050000D01*
X05500000Y01050000D01*
X05523000Y01050000D01*
X05586000Y00987000D01*
X05796000Y00987000D01*
X05600000Y01050000D02*
X05579000Y01050000D01*
X05439000Y01190000D01*
X05355000Y01190000D01*
X05250000Y00945000D02*
X05250000Y00903000D01*
X05397000Y00756000D01*
X05400000Y00750000D01*
X05397000Y00749000D01*
X05425000Y00686000D02*
X05845000Y00686000D01*
X05845000Y00756000D01*
X05845000Y00686000D02*
X05852000Y00686000D01*
X05929000Y00609000D01*
X05929000Y00343000D01*
X06132000Y00140000D01*
X06167000Y00140000D01*
X06188000Y00161000D01*
X06188000Y00217000D01*
X06244000Y00273000D01*
X06244000Y00497000D01*
X06250000Y00500000D01*
X06153000Y00504000D02*
X06150000Y00500000D01*
X06153000Y00504000D02*
X06153000Y00679000D01*
X05901000Y00602000D02*
X05726000Y00602000D01*
X05502000Y00497000D02*
X05500000Y00500000D01*
X05502000Y00497000D02*
X05621000Y00378000D01*
X05607000Y00273000D02*
X05593000Y00273000D01*
X05523000Y00203000D01*
X05502000Y00203000D01*
X05500000Y00200000D01*
X05229000Y00504000D02*
X05299000Y00574000D01*
X05229000Y00504000D02*
X05201000Y00504000D01*
X05200000Y00500000D01*
X06020000Y00329000D02*
X06146000Y00203000D01*
X06150000Y00200000D01*
X06286000Y00189000D02*
X06335000Y00140000D01*
X06594000Y00140000D01*
X06650000Y00196000D01*
X06650000Y00200000D01*
X06671000Y00259000D02*
X06629000Y00259000D01*
X06573000Y00203000D01*
X06552000Y00203000D01*
X06550000Y00200000D01*
X06286000Y00189000D02*
X06286000Y01407000D01*
X06349000Y01470000D01*
X06349000Y01645000D01*
X06350000Y01650000D01*
X06587000Y01785000D02*
X06587000Y02065000D01*
X06454000Y02198000D01*
X06450000Y02200000D01*
X06412000Y02282000D02*
X06412000Y02037000D01*
X06545000Y01904000D01*
X06550000Y01900000D01*
X06615000Y01855000D02*
X06615000Y02163000D01*
X06650000Y02198000D01*
X06650000Y02200000D01*
X06720000Y02205000D02*
X06594000Y02331000D01*
X06755000Y02296000D02*
X06755000Y02450000D01*
X06750000Y02450000D01*
X06755000Y02450000D02*
X06790000Y02485000D01*
X06790000Y02786000D01*
X06741000Y02835000D01*
X06741000Y02877000D01*
X06713000Y02961000D02*
X06713000Y03185000D01*
X06727000Y03199000D01*
X06776000Y03178000D02*
X06776000Y03276000D01*
X06755000Y03297000D01*
X06750000Y03300000D01*
X06650000Y03300000D02*
X06650000Y03304000D01*
X06622000Y03304000D01*
X06566000Y03360000D01*
X06531000Y03360000D01*
X06510000Y03339000D01*
X06510000Y03136000D01*
X06552000Y03115000D02*
X06601000Y03066000D01*
X06552000Y03115000D02*
X06552000Y03297000D01*
X06550000Y03300000D01*
X06713000Y02961000D02*
X06888000Y02786000D01*
X06888000Y02205000D01*
X06860000Y02247000D02*
X06860000Y00721000D01*
X06874000Y00707000D01*
X06874000Y00546000D01*
X06706000Y00378000D01*
X06692000Y00378000D01*
X06671000Y00399000D01*
X06671000Y00441000D01*
X06685000Y00455000D01*
X06685000Y00539000D01*
X06475000Y00749000D01*
X06454000Y00749000D01*
X06450000Y00750000D01*
X06650000Y00500000D02*
X06650000Y00497000D01*
X06531000Y00378000D01*
X06398000Y00378000D01*
X06699000Y00406000D02*
X06699000Y00525000D01*
X06727000Y01050000D02*
X06489000Y01288000D01*
X06216000Y01295000D02*
X06216000Y01211000D01*
X06727000Y01050000D02*
X06750000Y01050000D01*
X06818000Y01113000D02*
X06818000Y02576000D01*
X06762000Y02632000D02*
X06650000Y02744000D01*
X06650000Y02750000D01*
X06450000Y02750000D02*
X06447000Y02744000D01*
X06447000Y02632000D01*
X06450000Y02450000D02*
X06475000Y02450000D01*
X06314000Y02380000D02*
X06412000Y02282000D01*
X06314000Y02345000D02*
X06314000Y02114000D01*
X06447000Y01981000D01*
X06447000Y01904000D01*
X06450000Y01900000D01*
X06615000Y01855000D02*
X06650000Y01820000D01*
X06650000Y01743000D01*
X06804000Y01953000D02*
X06804000Y02247000D01*
X06755000Y02296000D01*
X06748000Y02205000D02*
X06750000Y02200000D01*
X06748000Y02205000D02*
X06720000Y02205000D01*
X06314000Y02380000D02*
X06314000Y02793000D01*
X06328000Y02807000D01*
X06328000Y02821000D01*
X06111000Y02674000D02*
X06111000Y02653000D01*
X06083000Y02625000D01*
X06083000Y02415000D01*
X05971000Y02303000D01*
X05957000Y02303000D01*
X05964000Y02275000D02*
X06041000Y02352000D01*
X06167000Y02352000D01*
X05999000Y02373000D02*
X05999000Y02387000D01*
X06111000Y02555000D02*
X06111000Y02618000D01*
X05635000Y02709000D02*
X05600000Y02674000D01*
X05600000Y02450000D01*
X05502000Y02450000D02*
X05500000Y02450000D01*
X05502000Y02450000D02*
X05502000Y02674000D01*
X05432000Y02821000D02*
X05404000Y02849000D01*
X05404000Y02996000D01*
X05400000Y03000000D01*
X06209000Y02163000D02*
X06244000Y02198000D01*
X06250000Y02200000D01*
X06209000Y02163000D02*
X06209000Y02002000D01*
X03892000Y02128000D02*
X03836000Y02184000D01*
X03836000Y02303000D01*
X06748000Y04053000D02*
X06750000Y04050000D01*
X06748000Y04053000D02*
X06748000Y04347000D01*
X06750000Y04350000D01*
X00700000Y02429000D02*
X00700000Y01694000D01*
X00406000Y01400000D01*
X00400000Y01400000D01*
X00406000Y01057000D02*
X01365000Y00098000D01*
X00553000Y02856000D02*
X00343000Y02856000D01*
X00336000Y02863000D01*
D13*
X00336000Y02863000D03*
X00553000Y02856000D03*
X00665000Y02933000D03*
X00700000Y02863000D03*
X00791000Y03024000D03*
X00791000Y03094000D03*
X00658000Y03094000D03*
X00518000Y03185000D03*
X00483000Y03185000D03*
X00623000Y03269000D03*
X00630000Y03311000D03*
X00546000Y03332000D03*
X00490000Y03388000D03*
X00518000Y03416000D03*
X00609000Y03402000D03*
X00490000Y03528000D03*
X00518000Y03556000D03*
X00462000Y03577000D03*
X00434000Y03640000D03*
X00455000Y03696000D03*
X00343000Y03738000D03*
X00147000Y03605000D03*
X00063000Y03423000D03*
X00112000Y03318000D03*
X00490000Y03073000D03*
X01043000Y03255000D03*
X01015000Y03332000D03*
X00994000Y03416000D03*
X00595000Y03549000D03*
X00595000Y03605000D03*
X00623000Y03717000D03*
X00700000Y03829000D03*
X01421000Y03339000D03*
X01449000Y03290000D03*
X01491000Y03346000D03*
X01554000Y03185000D03*
X01505000Y03108000D03*
X01540000Y03038000D03*
X01512000Y02996000D03*
X01428000Y02961000D03*
X01400000Y03024000D03*
X01267000Y03052000D03*
X01183000Y03024000D03*
X01407000Y02835000D03*
X01274000Y02772000D03*
X01274000Y02737000D03*
X01295000Y02681000D03*
X01183000Y02681000D03*
X01043000Y02653000D03*
X01043000Y02618000D03*
X01015000Y02709000D03*
X00742000Y02527000D03*
X00700000Y02429000D03*
X00112000Y02527000D03*
X00056000Y02513000D03*
X00056000Y02478000D03*
X01414000Y02282000D03*
X01526000Y02135000D03*
X01694000Y02205000D03*
X01750000Y02135000D03*
X01946000Y02072000D03*
X02023000Y02002000D03*
X02037000Y02051000D03*
X02338000Y02268000D03*
X02296000Y02275000D03*
X02310000Y02401000D03*
X02415000Y02345000D03*
X02450000Y02345000D03*
X02499000Y02275000D03*
X02569000Y02359000D03*
X02702000Y02275000D03*
X02765000Y02303000D03*
X02849000Y02163000D03*
X02793000Y02100000D03*
X02730000Y02128000D03*
X02737000Y02016000D03*
X02975000Y02135000D03*
X02996000Y02100000D03*
X03080000Y02093000D03*
X03199000Y02009000D03*
X03262000Y01981000D03*
X03311000Y02030000D03*
X03402000Y02037000D03*
X03339000Y02121000D03*
X03374000Y02135000D03*
X03269000Y02107000D03*
X03164000Y02254000D03*
X03143000Y02310000D03*
X03087000Y02331000D03*
X03136000Y02380000D03*
X03269000Y02387000D03*
X03311000Y02324000D03*
X03430000Y02387000D03*
X03458000Y02331000D03*
X03633000Y02387000D03*
X03486000Y02520000D03*
X03486000Y02555000D03*
X03437000Y02611000D03*
X03535000Y02660000D03*
X03612000Y02660000D03*
X03563000Y02590000D03*
X03647000Y02548000D03*
X03724000Y02576000D03*
X03836000Y02674000D03*
X04046000Y02597000D03*
X04067000Y02562000D03*
X04109000Y02520000D03*
X04172000Y02597000D03*
X04207000Y02632000D03*
X04200000Y02674000D03*
X04130000Y02674000D03*
X04291000Y02569000D03*
X04137000Y02373000D03*
X04165000Y02275000D03*
X04074000Y02289000D03*
X03864000Y02296000D03*
X03731000Y02135000D03*
X03892000Y02128000D03*
X03948000Y02121000D03*
X04025000Y02121000D03*
X04053000Y02170000D03*
X04221000Y02051000D03*
X04326000Y02023000D03*
X04333000Y02121000D03*
X04466000Y01981000D03*
X04536000Y01820000D03*
X04508000Y01792000D03*
X04263000Y01848000D03*
X04221000Y01743000D03*
X04158000Y01701000D03*
X04053000Y01680000D03*
X03955000Y01561000D03*
X03857000Y01533000D03*
X03871000Y01414000D03*
X04011000Y01449000D03*
X03997000Y01274000D03*
X04025000Y01246000D03*
X03976000Y01204000D03*
X03941000Y01169000D03*
X03976000Y01127000D03*
X04018000Y01162000D03*
X04095000Y01197000D03*
X04130000Y01197000D03*
X04186000Y01253000D03*
X04333000Y01281000D03*
X04494000Y01232000D03*
X04480000Y01190000D03*
X04767000Y01183000D03*
X04935000Y01092000D03*
X04795000Y01064000D03*
X04984000Y00840000D03*
X05117000Y00938000D03*
X05250000Y00945000D03*
X05201000Y00826000D03*
X05425000Y00686000D03*
X05670000Y00546000D03*
X05698000Y00574000D03*
X05754000Y00546000D03*
X05698000Y00490000D03*
X05621000Y00378000D03*
X05600000Y00301000D03*
X05754000Y00301000D03*
X06020000Y00329000D03*
X06076000Y00350000D03*
X06377000Y00287000D03*
X06496000Y00224000D03*
X06398000Y00378000D03*
X06699000Y00406000D03*
X06328000Y00630000D03*
X06419000Y00686000D03*
X06125000Y00644000D03*
X06069000Y00644000D03*
X06069000Y00721000D03*
X05943000Y00784000D03*
X05845000Y00756000D03*
X05901000Y00602000D03*
X05362000Y00448000D03*
X05173000Y00658000D03*
X05103000Y00616000D03*
X04795000Y00805000D03*
X04361000Y00896000D03*
X04277000Y00868000D03*
X04172000Y00812000D03*
X04137000Y00812000D03*
X03990000Y00882000D03*
X03829000Y00854000D03*
X03773000Y00812000D03*
X03738000Y00812000D03*
X03710000Y00784000D03*
X03591000Y00826000D03*
X03689000Y00924000D03*
X03689000Y01162000D03*
X03773000Y01246000D03*
X03731000Y01358000D03*
X03549000Y01575000D03*
X03556000Y01638000D03*
X03437000Y01778000D03*
X03437000Y01841000D03*
X03262000Y01694000D03*
X03136000Y01750000D03*
X03059000Y01666000D03*
X02975000Y01785000D03*
X02940000Y01785000D03*
X02870000Y01792000D03*
X02681000Y01785000D03*
X02604000Y01624000D03*
X02548000Y01484000D03*
X02667000Y01463000D03*
X02751000Y01470000D03*
X02849000Y01568000D03*
X03108000Y01337000D03*
X03332000Y01379000D03*
X03402000Y01351000D03*
X03094000Y01176000D03*
X03248000Y01078000D03*
X03108000Y00980000D03*
X03052000Y01022000D03*
X02835000Y01127000D03*
X02793000Y01155000D03*
X02793000Y00973000D03*
X02793000Y00861000D03*
X02681000Y00973000D03*
X02310000Y00903000D03*
X02107000Y00924000D03*
X02037000Y00931000D03*
X01848000Y01022000D03*
X01792000Y01127000D03*
X01918000Y01155000D03*
X01694000Y01316000D03*
X01638000Y01372000D03*
X01750000Y01540000D03*
X01526000Y00959000D03*
X01568000Y00882000D03*
X01666000Y00749000D03*
X01743000Y00637000D03*
X01771000Y00588000D03*
X01953000Y00560000D03*
X02065000Y00574000D03*
X02156000Y00441000D03*
X02079000Y00399000D03*
X02037000Y00392000D03*
X01995000Y00427000D03*
X02345000Y00385000D03*
X02415000Y00364000D03*
X02450000Y00350000D03*
X02485000Y00350000D03*
X02464000Y00266000D03*
X02611000Y00336000D03*
X02716000Y00308000D03*
X02821000Y00238000D03*
X02702000Y00427000D03*
X02548000Y00476000D03*
X02520000Y00672000D03*
X02443000Y00700000D03*
X02394000Y00644000D03*
X02632000Y00693000D03*
X02737000Y00672000D03*
X02765000Y00700000D03*
X02835000Y00574000D03*
X02933000Y00574000D03*
X03031000Y00602000D03*
X03213000Y00658000D03*
X03430000Y00602000D03*
X03493000Y00574000D03*
X03507000Y00658000D03*
X03444000Y00686000D03*
X03675000Y00672000D03*
X03822000Y00574000D03*
X03661000Y00504000D03*
X03647000Y00469000D03*
X03633000Y00420000D03*
X03514000Y00392000D03*
X03773000Y00273000D03*
X03878000Y00287000D03*
X03955000Y00441000D03*
X04039000Y00413000D03*
X04074000Y00413000D03*
X04109000Y00378000D03*
X04193000Y00406000D03*
X04340000Y00399000D03*
X04319000Y00280000D03*
X04466000Y00280000D03*
X04473000Y00364000D03*
X04333000Y00560000D03*
X04158000Y00567000D03*
X04046000Y00546000D03*
X04004000Y00588000D03*
X04039000Y00637000D03*
X04053000Y00672000D03*
X04179000Y00679000D03*
X04081000Y00287000D03*
X04326000Y00133000D03*
X03843000Y00098000D03*
X03731000Y00154000D03*
X03682000Y00126000D03*
X03675000Y00196000D03*
X03248000Y00231000D03*
X03150000Y00140000D03*
X03101000Y00063000D03*
X02639000Y00063000D03*
X02583000Y00049000D03*
X02324000Y00112000D03*
X03157000Y00441000D03*
X03227000Y00924000D03*
X04277000Y01435000D03*
X04235000Y01533000D03*
X04333000Y01568000D03*
X04368000Y01568000D03*
X04438000Y01596000D03*
X04480000Y01575000D03*
X04536000Y01596000D03*
X04606000Y01568000D03*
X04676000Y01568000D03*
X04823000Y01582000D03*
X04732000Y01449000D03*
X04704000Y01421000D03*
X04536000Y01449000D03*
X04536000Y01484000D03*
X04501000Y01463000D03*
X04802000Y01757000D03*
X04865000Y01729000D03*
X05110000Y01722000D03*
X05187000Y01778000D03*
X05208000Y01827000D03*
X05362000Y01722000D03*
X05124000Y01519000D03*
X05082000Y01526000D03*
X05236000Y01407000D03*
X05138000Y01267000D03*
X05208000Y01141000D03*
X05362000Y01218000D03*
X05523000Y01274000D03*
X05887000Y01477000D03*
X05943000Y01421000D03*
X05978000Y01421000D03*
X06076000Y01582000D03*
X06139000Y01743000D03*
X06209000Y01848000D03*
X06097000Y01974000D03*
X06062000Y01974000D03*
X06013000Y01953000D03*
X05915000Y01995000D03*
X05887000Y02023000D03*
X05887000Y02072000D03*
X05971000Y02128000D03*
X05705000Y01967000D03*
X05649000Y01988000D03*
X05565000Y02037000D03*
X05551000Y02184000D03*
X05285000Y02016000D03*
X05187000Y02023000D03*
X04977000Y02079000D03*
X04872000Y02268000D03*
X04921000Y02338000D03*
X04865000Y02366000D03*
X04809000Y02401000D03*
X04753000Y02394000D03*
X04655000Y02492000D03*
X04690000Y02520000D03*
X04620000Y02450000D03*
X04459000Y02359000D03*
X04536000Y02275000D03*
X04564000Y02212000D03*
X04592000Y02170000D03*
X04732000Y02093000D03*
X05362000Y02548000D03*
X05404000Y02590000D03*
X05334000Y02646000D03*
X05292000Y02674000D03*
X05110000Y02674000D03*
X05432000Y02821000D03*
X05159000Y02926000D03*
X04746000Y02996000D03*
X04648000Y02940000D03*
X04620000Y02905000D03*
X04592000Y02947000D03*
X04578000Y02996000D03*
X04592000Y03031000D03*
X04536000Y03052000D03*
X04522000Y03017000D03*
X04676000Y03101000D03*
X04725000Y03227000D03*
X04690000Y03255000D03*
X04592000Y03297000D03*
X04571000Y03353000D03*
X04578000Y03388000D03*
X04648000Y03542000D03*
X04690000Y03542000D03*
X04571000Y03570000D03*
X04354000Y03556000D03*
X04088000Y03542000D03*
X03822000Y03654000D03*
X03822000Y03766000D03*
X03675000Y03850000D03*
X03731000Y03941000D03*
X03857000Y03997000D03*
X03906000Y03906000D03*
X04130000Y03920000D03*
X04179000Y04018000D03*
X04179000Y04053000D03*
X04165000Y04123000D03*
X04130000Y04123000D03*
X04291000Y04172000D03*
X04466000Y04270000D03*
X04494000Y04242000D03*
X04550000Y04263000D03*
X04620000Y04291000D03*
X04424000Y04417000D03*
X04200000Y04375000D03*
X03955000Y04214000D03*
X03647000Y04081000D03*
X03521000Y03843000D03*
X03304000Y03843000D03*
X03220000Y03927000D03*
X03150000Y04095000D03*
X03052000Y03752000D03*
X02982000Y03682000D03*
X02954000Y03514000D03*
X03017000Y03486000D03*
X03052000Y03423000D03*
X02919000Y03402000D03*
X03017000Y03346000D03*
X02842000Y03311000D03*
X02758000Y03360000D03*
X02639000Y03360000D03*
X02534000Y03325000D03*
X02478000Y03388000D03*
X02401000Y03423000D03*
X02317000Y03542000D03*
X02317000Y03584000D03*
X02261000Y03542000D03*
X02065000Y03416000D03*
X02030000Y03416000D03*
X01974000Y03437000D03*
X02002000Y03556000D03*
X01890000Y03668000D03*
X01862000Y03696000D03*
X01918000Y03745000D03*
X01946000Y03773000D03*
X02002000Y03773000D03*
X01995000Y03815000D03*
X02030000Y03892000D03*
X02107000Y03822000D03*
X02177000Y03822000D03*
X02366000Y03941000D03*
X02443000Y03871000D03*
X02555000Y03864000D03*
X02450000Y04130000D03*
X02268000Y04158000D03*
X02191000Y04179000D03*
X02051000Y04179000D03*
X02030000Y04256000D03*
X02030000Y04291000D03*
X01869000Y04263000D03*
X01764000Y04312000D03*
X01806000Y04354000D03*
X01834000Y04158000D03*
X01694000Y04158000D03*
X01666000Y04186000D03*
X01715000Y04018000D03*
X01687000Y03969000D03*
X01820000Y04004000D03*
X01848000Y03976000D03*
X01820000Y03913000D03*
X01715000Y03808000D03*
X01603000Y03829000D03*
X01708000Y03605000D03*
X01708000Y03451000D03*
X01736000Y03367000D03*
X01687000Y03241000D03*
X01890000Y03213000D03*
X02009000Y03178000D03*
X02009000Y03073000D03*
X02065000Y03087000D03*
X02037000Y03017000D03*
X01848000Y02989000D03*
X01785000Y02891000D03*
X01687000Y03017000D03*
X02065000Y02835000D03*
X02163000Y02835000D03*
X02331000Y02891000D03*
X02408000Y03038000D03*
X02268000Y03122000D03*
X02541000Y03199000D03*
X02639000Y03185000D03*
X02646000Y03227000D03*
X02730000Y03185000D03*
X02828000Y03157000D03*
X02954000Y03185000D03*
X02989000Y03059000D03*
X02947000Y03017000D03*
X02807000Y03017000D03*
X02793000Y02940000D03*
X02835000Y02842000D03*
X02884000Y02856000D03*
X02968000Y02807000D03*
X03003000Y02877000D03*
X03115000Y02877000D03*
X03416000Y03073000D03*
X03346000Y03143000D03*
X03220000Y03171000D03*
X03157000Y03192000D03*
X03374000Y03318000D03*
X03507000Y03346000D03*
X03577000Y03381000D03*
X03626000Y03514000D03*
X03668000Y03570000D03*
X03577000Y03661000D03*
X03794000Y03479000D03*
X04151000Y03234000D03*
X04256000Y03185000D03*
X04284000Y03157000D03*
X04326000Y03115000D03*
X04354000Y03185000D03*
X04368000Y03311000D03*
X04060000Y03073000D03*
X04256000Y03003000D03*
X04340000Y02877000D03*
X04452000Y02772000D03*
X04718000Y02807000D03*
X04109000Y02821000D03*
X04025000Y02842000D03*
X03801000Y03073000D03*
X03801000Y03157000D03*
X03689000Y03066000D03*
X03612000Y03073000D03*
X03528000Y03143000D03*
X03437000Y03171000D03*
X03605000Y02842000D03*
X03661000Y02842000D03*
X03507000Y02737000D03*
X03269000Y02653000D03*
X03234000Y02639000D03*
X03269000Y02548000D03*
X03206000Y02520000D03*
X03136000Y02520000D03*
X03045000Y02520000D03*
X02947000Y02478000D03*
X02856000Y02569000D03*
X02877000Y02681000D03*
X02723000Y02576000D03*
X02674000Y02632000D03*
X02646000Y02702000D03*
X02499000Y02723000D03*
X02506000Y02632000D03*
X02436000Y02618000D03*
X02401000Y02611000D03*
X02296000Y02632000D03*
X02282000Y02569000D03*
X02156000Y02520000D03*
X02037000Y02541000D03*
X01988000Y02527000D03*
X01974000Y02562000D03*
X01974000Y02660000D03*
X01596000Y02534000D03*
X01442000Y02534000D03*
X01659000Y02380000D03*
X01631000Y02317000D03*
X01722000Y02345000D03*
X02051000Y02373000D03*
X02170000Y02345000D03*
X02597000Y02520000D03*
X02674000Y02863000D03*
X02646000Y03094000D03*
X01974000Y03724000D03*
X02079000Y03976000D03*
X02331000Y04256000D03*
X02331000Y04291000D03*
X02457000Y04431000D03*
X02492000Y04424000D03*
X02611000Y04291000D03*
X04683000Y03948000D03*
X04753000Y03829000D03*
X04921000Y03997000D03*
X04900000Y04095000D03*
X05040000Y03941000D03*
X05460000Y03703000D03*
X05488000Y03675000D03*
X05432000Y03647000D03*
X05432000Y03563000D03*
X05306000Y03570000D03*
X05173000Y03633000D03*
X05397000Y03374000D03*
X05537000Y03241000D03*
X05537000Y03206000D03*
X05537000Y03136000D03*
X05628000Y03115000D03*
X05691000Y03087000D03*
X05887000Y02975000D03*
X05740000Y02912000D03*
X05810000Y02807000D03*
X06055000Y02898000D03*
X06202000Y02723000D03*
X06272000Y02681000D03*
X06342000Y02674000D03*
X06216000Y02625000D03*
X06146000Y02646000D03*
X06111000Y02618000D03*
X06111000Y02674000D03*
X06027000Y02660000D03*
X06125000Y02534000D03*
X06202000Y02457000D03*
X06286000Y02506000D03*
X06447000Y02632000D03*
X06496000Y02506000D03*
X06587000Y02373000D03*
X06860000Y02247000D03*
X06888000Y02205000D03*
X06727000Y01988000D03*
X06699000Y01925000D03*
X06587000Y01785000D03*
X05943000Y01743000D03*
X06216000Y01295000D03*
X06258000Y01253000D03*
X06013000Y01239000D03*
X05817000Y00973000D03*
X04970000Y00371000D03*
X05040000Y00315000D03*
X04998000Y00273000D03*
X05271000Y00070000D03*
X06846000Y00700000D03*
X06818000Y01113000D03*
X05964000Y02275000D03*
X05964000Y02331000D03*
X05999000Y02373000D03*
X06167000Y02352000D03*
X06314000Y02345000D03*
X05887000Y02506000D03*
X06328000Y02821000D03*
X06545000Y02821000D03*
X06741000Y02877000D03*
X06804000Y02905000D03*
X06832000Y02968000D03*
X06776000Y03178000D03*
X06727000Y03199000D03*
X06615000Y03395000D03*
X06398000Y03325000D03*
X06181000Y03157000D03*
X06153000Y03115000D03*
X06209000Y03073000D03*
X06111000Y03206000D03*
X05915000Y03381000D03*
X05838000Y03381000D03*
X05712000Y03500000D03*
X05782000Y03507000D03*
X05740000Y03556000D03*
X05936000Y03619000D03*
X06013000Y03591000D03*
X06027000Y03647000D03*
X05908000Y03717000D03*
X05551000Y03780000D03*
X05572000Y03871000D03*
X05621000Y03976000D03*
X05551000Y04179000D03*
X05747000Y04277000D03*
X05859000Y04151000D03*
X05915000Y04410000D03*
X06307000Y04438000D03*
X06440000Y04438000D03*
X06314000Y04151000D03*
X06748000Y03871000D03*
X06398000Y03731000D03*
X06916000Y03549000D03*
X06489000Y03122000D03*
X06762000Y02632000D03*
X06818000Y02576000D03*
X05292000Y03206000D03*
X05348000Y04340000D03*
X04928000Y04410000D03*
X03346000Y02471000D03*
X03024000Y01981000D03*
X03948000Y01876000D03*
X01540000Y02737000D03*
X01365000Y00098000D03*
M02*
