%
M48
M72
T01C0.01000
T02C0.02756
T03C0.03150
T04C0.03200
T05C0.04000
T06C0.04400
T07C0.04724
T08C0.11000
T09C0.12598
%
T01
X652750Y31361
X650250Y145111
X664000Y150111
X669000Y145111
X671500Y125111
X680250Y127611
X681500Y187611
X692750Y168861
X674000Y58861
X699000Y98861
X701500Y163861
X724000Y193861
X726500Y198861
X724000Y201361
X682750Y227611
X677750Y235111
X657750Y303861
X657750Y82611
X619000Y391361
X624000Y298861
X621500Y377611
X629000Y113861
X635250Y112611
X636500Y197611
X661500Y158861
X694000Y138861
X677750Y76361
X677750Y73861
X655250Y95111
X652750Y106361
X655250Y101361
X647750Y122611
X647750Y240111
X619000Y265111
X629000Y292611
X610250Y231361
X607750Y185111
X655250Y181361
X652750Y182611
X619000Y237611
X604000Y237611
X584000Y287611
X599000Y177611
X591500Y213861
X596500Y158861
X571500Y38861
X631500Y96361
X629000Y101361
X629000Y65111
X626500Y58861
X584000Y108861
X592750Y86361
X576500Y241361
X564000Y398861
X570250Y245111
X517750Y176361
X435250Y273861
X430250Y277611
X436500Y263861
X435250Y260111
X469000Y391361
X431500Y313861
X425250Y360111
X427750Y355111
X400250Y395111
X420250Y377611
X391500Y378861
X420250Y397611
X420250Y425111
X536500Y198861
X547750Y263861
X521500Y317611
X505250Y340111
X495250Y340111
X496500Y276361
X507750Y313861
X570250Y390111
X559000Y272611
X495250Y246361
X509000Y257611
X514000Y261361
X522750Y242611
X502750Y233861
X499000Y212611
X494000Y208861
X489000Y260111
X476500Y212611
X479000Y151361
X470250Y180111
X461500Y161361
X449000Y162611
X430250Y210111
X410250Y415111
X400250Y405111
X394000Y350111
X410250Y297611
X412750Y285111
X412750Y187611
X420250Y185111
X412750Y175111
X427750Y287611
X421500Y242611
X425250Y233861
X424000Y217611
X427750Y147611
X430250Y153861
X410250Y137611
X427750Y132611
X429000Y130111
X431500Y135111
X436500Y123861
X449000Y151361
X445250Y142611
X435250Y82611
X451500Y101361
X457750Y101361
X461500Y106361
X474000Y151361
X476500Y81361
X491500Y180111
X465250Y201361
X466500Y230111
X437750Y333861
X437750Y325111
X427750Y307611
X400250Y310111
X391500Y303861
X374000Y365111
X370250Y366361
X375250Y275111
X387750Y228861
X394000Y225111
X396500Y231361
X399000Y236361
X400250Y112611
X394000Y133861
X391500Y130111
X389000Y187611
X361500Y217611
X365250Y212611
X351500Y75111
X349000Y80111
X344000Y158861
X357750Y153861
X341500Y147611
X357750Y135111
X370250Y163861
X391500Y147611
X396500Y116361
X420250Y115111
X435250Y108861
X447750Y80111
X446500Y58861
X505250Y58861
X499000Y60111
X506500Y137611
X521500Y135111
X509000Y127611
X476500Y47611
X469000Y60111
X440250Y287611
X454000Y273861
X521500Y270111
X524000Y272611
X516500Y287611
X505250Y376361
X491500Y401361
X564000Y375111
X580250Y421361
X386500Y340111
X392750Y333861
X372750Y202611
X367750Y202611
X367750Y287611
X357750Y205111
X357750Y371361
X364000Y411361
X364000Y413861
X364000Y416361
X364000Y418861
X359000Y438861
X361500Y438861
X341500Y387611
X331500Y407611
X314000Y382611
X309000Y206361
X306500Y206361
X304000Y192611
X307750Y25111
X307750Y27611
X312750Y16361
X314000Y151361
X342750Y177611
X345250Y198861
X329000Y342611
X286500Y212611
X274000Y226361
X236500Y162611
X220250Y182611
X245250Y401361
X251500Y337611
X236500Y302611
X234000Y356361
X220250Y298861
X216500Y323861
X216500Y270111
X211500Y275111
X205250Y263861
X205250Y257611
X211500Y253861
X204000Y286361
X182750Y317611
X190250Y382611
X200250Y390111
X87750Y245111
X85250Y308861
X67750Y300111
X67750Y292611
X77750Y203861
X676500Y306361
X680250Y312611
X469000Y337611
X476500Y231361
X470250Y232611
X452750Y235111
X419000Y217611
X401500Y216361
X401500Y238861
X395250Y241361
X386500Y247611
X376500Y318861
X379000Y325111
X391500Y270111
X391500Y275111
X397750Y262611
X397750Y253861
X361500Y265111
X345250Y253861
X334000Y318861
X319000Y312611
X340250Y290111
X337750Y290111
X337750Y283861
X312750Y206361
X296500Y198861
X300250Y228861
X277750Y171361
X319000Y222611
X306500Y225111
X294000Y226361
X295250Y236361
X302750Y236361
X314000Y292611
X309000Y282611
X279000Y320111
X281500Y337611
X289000Y332611
X276500Y406361
X285250Y236361
X286500Y351361
X304000Y383861
X292750Y360111
X329000Y428861
X327750Y195111
X327750Y192611
X335250Y162611
X340250Y240111
X339000Y93861
X370250Y243861
X267750Y335111
X255250Y230111
X249000Y312611
X246500Y311361
X246500Y226361
X255250Y227611
X260250Y230111
X275250Y236361
X274000Y240111
X267750Y241361
X229000Y315111
X234000Y315111
X225250Y360111
X216500Y360111
X187750Y173861
X194000Y147611
X194000Y205111
X190250Y77611
X221500Y133861
X216500Y237611
X199000Y231361
X190250Y232611
X174000Y387611
X162750Y408861
X182750Y442611
X179000Y441361
X160250Y447611
X150250Y440111
X149000Y408861
X141500Y431361
X101500Y273861
X97750Y370111
X99000Y220111
X101500Y295111
X101500Y303861
X115250Y306361
X124000Y305111
X121500Y128861
X266500Y175111
X264000Y172611
X259000Y127611
X252750Y127611
X242750Y127611
X226500Y141361
X224000Y141361
X225250Y270111
X216500Y260111
X224000Y251361
X232750Y257611
X231500Y266361
X252750Y258861
X260250Y237611
X211500Y221361
X204000Y198861
X214000Y196361
X200250Y286361
X172750Y281361
X161500Y348861
X161500Y282611
X177750Y175111
X172750Y181361
X249000Y180111
X234000Y172611
X211500Y170111
X184000Y160111
X180250Y258861
X172750Y236361
X182750Y211361
X189000Y228861
X172750Y233861
X169000Y222611
X154000Y268861
X154000Y175111
X160250Y175111
X206500Y128861
X212750Y140111
X217750Y152611
X167750Y127611
X151500Y195111
X149000Y195111
X140250Y336361
X137750Y337611
X130250Y335111
X96500Y210111
X94000Y205111
X112750Y253861
X149000Y367611
X102750Y345111
X94000Y388861
X91500Y228861
X82750Y247611
X65250Y241361
X56500Y300111
X77750Y285111
X82750Y270111
X82750Y347611
X44000Y318861
X80250Y423861
X75250Y421361
X75250Y131361
X36500Y293861
X77750Y290111
X110250Y280111
X110250Y275111
X119000Y268861
X134000Y311361
X129000Y290111
X152750Y311361
X136500Y356361
X176500Y335111
X200250Y332611
X242750Y307611
X225250Y281361
X139000Y261361
X110250Y240111
X82750Y237611
X80250Y220111
X55250Y192611
X81500Y187611
X94000Y120111
X142750Y10111
X132750Y25111
X44000Y152611
X64000Y251361
X121500Y256361
X134000Y231361
X137750Y225111
X149000Y225111
X159000Y222611
X164000Y202611
X97750Y190111
X124000Y205111
X107750Y177611
X114000Y145111
X132750Y81361
X170250Y71361
X184000Y48861
X262750Y101361
X270250Y101361
X326500Y12611
X324000Y123861
X357750Y12611
X357750Y187611
X372750Y93861
X391500Y175111
X499000Y147611
X490250Y162611
X522750Y207611
X527750Y96361
X559000Y197611
X559000Y185111
X564000Y180111
X575250Y132611
X596500Y200111
X629000Y211361
X680250Y220111
X682750Y260111
X565250Y162611
X516500Y160111
X539000Y145111
X557750Y106361
X605250Y103861
X559000Y130111
X531500Y101361
X497750Y111361
X496500Y96361
X540250Y78861
X487750Y28861
X490250Y82611
X449000Y52611
X436500Y48861
X466500Y45111
X489000Y50111
X490250Y31361
X464000Y25111
X474000Y35111
X462750Y18861
X457750Y16361
X452750Y13861
X436500Y23861
X385250Y60111
X384000Y75111
X369000Y83861
X356500Y105111
X332750Y81361
X332750Y92611
X311500Y96361
X305250Y75111
X330250Y21361
X339000Y12611
X594000Y11361
X460250Y292611
X469000Y287611
X446500Y335111
X387750Y408861
X370250Y407611
X324000Y438861
X329000Y445111
X264000Y386361
X247750Y351361
X226500Y378861
X236500Y391361
X119000Y417611
X99000Y398861
X96500Y391361
X99000Y393861
X91500Y432611
X116500Y451361
X140250Y121361
X370250Y130111
X422750Y120111
X420250Y135111
X466500Y130111
X324000Y93861
X262750Y75111
X369000Y22611
X369000Y30111
X364000Y50111
X284000Y53861
X291500Y48861
X290250Y151361
X244000Y196361
X110250Y57611
X179000Y60111
X94000Y91361
X97750Y113861
X109000Y101361
X110250Y98861
X279000Y51361
T02
X526500Y321361
X441500Y271361
X441500Y261361
X441500Y371361
X441500Y361361
X526500Y311361
X566500Y51361
X566500Y61361
X531500Y416361
X531500Y426361
X536500Y261361
X536500Y271361
X441500Y161361
X441500Y151361
X441500Y321361
X441500Y311361
X221500Y156361
X221500Y306361
X221500Y406361
X221500Y416361
X526500Y371361
X526500Y361361
X441500Y201361
X441500Y211361
X441500Y111361
X441500Y101361
X371500Y321361
X361500Y321361
X221500Y356361
X221500Y366361
X106500Y266361
X106500Y306361
X221500Y266361
X221500Y256361
X221500Y206361
X221500Y196361
X221500Y146361
X181500Y106361
X106500Y366361
X106500Y206361
X106500Y196361
X106500Y356361
X106500Y316361
X221500Y316361
X106500Y256361
X96500Y46361
X96500Y56361
X106500Y156361
X106500Y146361
X266500Y106361
X266500Y96361
X441500Y61361
X361500Y446361
X371500Y446361
X106500Y406361
X106500Y416361
X541500Y211361
X541500Y201361
X541500Y161361
X441500Y51361
X566500Y101361
X541500Y151361
X566500Y111361
X371500Y191361
X361500Y191361
X311500Y56361
X311500Y46361
X196500Y46361
X196500Y56361
X96500Y96361
X96500Y106361
X181500Y96361
T03
X496343Y16361
X476657Y16361
X561343Y16361
X541657Y16361
T04
X41500Y21361
X51500Y21361
X76500Y16361
X106500Y36361
X116500Y36361
X126500Y36361
X136500Y36361
X146500Y36361
X156500Y36361
X511500Y221361
X491500Y381361
X451500Y251361
X461500Y251361
X471500Y251361
X471500Y381361
X461500Y381361
X451500Y381361
X381500Y376361
X511500Y171361
X501500Y251361
X491500Y251361
X481500Y251361
X461500Y221361
X471500Y221361
X471500Y171361
X461500Y171361
X451500Y171361
X461500Y91361
X471500Y141361
X471500Y91361
X481500Y91361
X491500Y221361
X501500Y331361
X491500Y281361
X481500Y281361
X471500Y281361
X471500Y351361
X461500Y351361
X381500Y366361
X381500Y356361
X381500Y346361
X381500Y221361
X381500Y231361
X381500Y241361
X351500Y376361
X351500Y311361
X351500Y301361
X686500Y191361
X636500Y41361
X626500Y41361
X601500Y406361
X611500Y406361
X631500Y401361
X631500Y386361
X636500Y316361
X636500Y306361
X636500Y296361
X641500Y221361
X606500Y331361
X596500Y331361
X586500Y331361
X576500Y331361
X566500Y331361
X556500Y331361
X546500Y331361
X536500Y331361
X511500Y331361
X501500Y301361
X491500Y301361
X481500Y191361
X491500Y191361
X501500Y191361
X511500Y191361
X536500Y351361
X546500Y351361
X556500Y351361
X566500Y351361
X576500Y351361
X586500Y351361
X581500Y406361
X581500Y436361
X591500Y436361
X601500Y436361
X611500Y436361
X616500Y121361
X626500Y121361
X636500Y121361
X631500Y221361
X621500Y221361
X636500Y266361
X636500Y256361
X636500Y286361
X636500Y276361
X611500Y191361
X591500Y406361
X571500Y406361
X561500Y406361
X616500Y41361
X606500Y41361
X596500Y41361
X586500Y41361
X576500Y41361
X576500Y71361
X571500Y221361
X581500Y221361
X596500Y301361
X606500Y301361
X586500Y301361
X576500Y301361
X566500Y301361
X556500Y301361
X546500Y301361
X536500Y301361
X511500Y301361
X501500Y221361
X481500Y221361
X451500Y221361
X381500Y251361
X351500Y241361
X321500Y396361
X311500Y396361
X301500Y186361
X311500Y136361
X301500Y136361
X291500Y136361
X281500Y216361
X271500Y216361
X261500Y216361
X251500Y216361
X241500Y216361
X231500Y186361
X241500Y166361
X231500Y166361
X241500Y396361
X231500Y396361
X206500Y426361
X196500Y376361
X206500Y376361
X206500Y276361
X196500Y326361
X206500Y326361
X156500Y396361
X166500Y396361
X176500Y396361
X176500Y376361
X186500Y376361
X196500Y396361
X206500Y396361
X186500Y396361
X166500Y376361
X156500Y376361
X146500Y376361
X136500Y376361
X126500Y376361
X146500Y346361
X156500Y346361
X166500Y346361
X176500Y186361
X186500Y166361
X176500Y326361
X186500Y326361
X196500Y346361
X186500Y346361
X176500Y346361
X116500Y376361
X126500Y216361
X206500Y36361
X251500Y136361
X261500Y346361
X271500Y346361
X281500Y346361
X291500Y326361
X291500Y346361
X291500Y396361
X301500Y396361
X301500Y376361
X291500Y186361
X281500Y136361
X271500Y166361
X271500Y136361
X261500Y186361
X251500Y186361
X241500Y136361
X206500Y296361
X196500Y296361
X186500Y186361
X201500Y116361
X211500Y116361
X221500Y116361
X196500Y276361
X166500Y326361
X156500Y326361
X136500Y186361
X116500Y296361
X126500Y296361
X126500Y346361
X116500Y346361
X116500Y396361
X126500Y396361
X136500Y426361
X126500Y426361
X116500Y276361
X126500Y276361
X136500Y276361
X136500Y326361
X146500Y426361
X156500Y426361
X176500Y426361
X166500Y426361
X186500Y426361
X196500Y426361
X231500Y426361
X241500Y426361
X251500Y426361
X261500Y426361
X686500Y436361
X686500Y426361
X686500Y296361
X666500Y306361
X666500Y296361
X686500Y286361
X686500Y276361
X666500Y276361
X666500Y286361
X666500Y266361
X666500Y256361
X586500Y281361
X596500Y281361
X606500Y281361
X576500Y281361
X576500Y251361
X586500Y251361
X581500Y191361
X591500Y191361
X591500Y171361
X581500Y171361
X581500Y141361
X556500Y251361
X551500Y406361
X541500Y406361
X541500Y436361
X551500Y436361
X571500Y436361
X561500Y436361
X566500Y381361
X566500Y281361
X556500Y281361
X546500Y281361
X521500Y281361
X511500Y281361
X501500Y281361
X546500Y251361
X521500Y251361
X511500Y251361
X461500Y191361
X451500Y191361
X381500Y151361
X381500Y161361
X381500Y171361
X351500Y161361
X321500Y166361
X311500Y216361
X321500Y216361
X291500Y216361
X301500Y216361
X281500Y186361
X271500Y186361
X261500Y166361
X251500Y166361
X271500Y296361
X281500Y296361
X291500Y246361
X281500Y246361
X271500Y246361
X261500Y246361
X271500Y276361
X281500Y326361
X271500Y326361
X261500Y326361
X251500Y326361
X231500Y346361
X231500Y296361
X231500Y326361
X241500Y296361
X251500Y296361
X261500Y296361
X291500Y296361
X311500Y346361
X301500Y346361
X271500Y426361
X281500Y426361
X291500Y426361
X311500Y376361
X321500Y376361
X351500Y386361
X351500Y396361
X381500Y406361
X381500Y416361
X381500Y426361
X351500Y291361
X351500Y281361
X351500Y271361
X381500Y311361
X381500Y301361
X381500Y291361
X381500Y281361
X381500Y271361
X381500Y261361
X351500Y261361
X351500Y251361
X321500Y246361
X311500Y276361
X301500Y246361
X311500Y246361
X251500Y246361
X241500Y246361
X206500Y246361
X196500Y246361
X186500Y296361
X176500Y296361
X186500Y276361
X176500Y276361
X166500Y276361
X156500Y276361
X156500Y296361
X146500Y296361
X146500Y326361
X136500Y346361
X126500Y326361
X116500Y326361
X166500Y296361
X156500Y166361
X146500Y166361
X146500Y246361
X136500Y246361
X136500Y296361
X146500Y276361
X156500Y246361
X166500Y246361
X176500Y246361
X186500Y246361
X241500Y326361
X251500Y346361
X251500Y396361
X261500Y396361
X271500Y396361
X281500Y396361
X301500Y426361
X311500Y426361
X321500Y426361
X321500Y276361
X301500Y276361
X291500Y276361
X281500Y276361
X261500Y276361
X251500Y276361
X241500Y276361
X231500Y276361
X231500Y246361
X186500Y216361
X176500Y216361
X166500Y216361
X156500Y216361
X146500Y216361
X116500Y246361
X126500Y246361
X116500Y216361
X136500Y216361
X156500Y186361
X146500Y186361
X126500Y186361
X116500Y136361
X76500Y56361
X106500Y66361
X166500Y36361
X176500Y36361
X216500Y36361
X226500Y36361
X241500Y186361
X206500Y216361
X196500Y216361
X196500Y186361
X206500Y186361
X206500Y166361
X196500Y166361
X176500Y166361
X166500Y166361
X136500Y166361
X126500Y166361
X116500Y166361
X126500Y136361
X166500Y66361
X201500Y86361
X231500Y136361
X206500Y136361
X196500Y136361
X186500Y136361
X176500Y136361
X166500Y136361
X156500Y136361
X146500Y136361
X136500Y136361
X136500Y116361
X126500Y116361
X116500Y66361
X156500Y66361
X146500Y66361
X136500Y66361
X126500Y66361
X116500Y86361
X106500Y86361
X126500Y86361
X146500Y86361
X136500Y86361
X156500Y86361
X166500Y86361
X191500Y86361
X176500Y66361
X206500Y66361
X216500Y66361
X226500Y66361
X236500Y66361
X246500Y66361
X256500Y66361
X266500Y66361
X276500Y66361
X296500Y66361
X286500Y66361
X321500Y346361
X351500Y346361
X351500Y356361
X351500Y366361
X381500Y386361
X381500Y396361
X351500Y406361
X351500Y416361
X351500Y426361
X351500Y436361
X381500Y436361
X261500Y376361
X251500Y376361
X241500Y346361
X206500Y346361
X231500Y376361
X241500Y376361
X271500Y376361
X281500Y376361
X291500Y376361
X146500Y396361
X136500Y396361
X116500Y186361
X166500Y186361
X261500Y136361
X251500Y116361
X241500Y116361
X231500Y116361
X191500Y116361
X166500Y116361
X156500Y116361
X146500Y116361
X116500Y116361
X106500Y116361
X211500Y86361
X221500Y86361
X231500Y86361
X241500Y86361
X251500Y86361
X331500Y36361
X371500Y66361
X381500Y66361
X381500Y181361
X351500Y171361
X351500Y181361
X351500Y221361
X351500Y231361
X321500Y186361
X311500Y186361
X311500Y166361
X301500Y166361
X291500Y166361
X281500Y166361
X321500Y136361
X451500Y41361
X451500Y91361
X501500Y71361
X491500Y71361
X491500Y121361
X501500Y121361
X511500Y121361
X501500Y141361
X511500Y141361
X551500Y191361
X561500Y221361
X566500Y251361
X551500Y221361
X561500Y191361
X571500Y191361
X601500Y191361
X621500Y191361
X641500Y191361
X631500Y191361
X636500Y91361
X626500Y91361
X616500Y91361
X606500Y91361
X611500Y141361
X611500Y171361
X621500Y171361
X631500Y171361
X641500Y171361
X641500Y141361
X631500Y141361
X621500Y141361
X601500Y141361
X596500Y91361
X586500Y91361
X586500Y121361
X576500Y121361
X561500Y171361
X551500Y171361
X501500Y171361
X491500Y171361
X471500Y191361
X481500Y171361
X491500Y141361
X481500Y141361
X461500Y301361
X501500Y381361
X511500Y381361
X511500Y406361
X511500Y351361
X501500Y351361
X491500Y351361
X481500Y331361
X481500Y301361
X471500Y301361
X461500Y281361
X451500Y281361
X451500Y301361
X451500Y331361
X461500Y331361
X471500Y331361
X491500Y331361
X481500Y351361
X451500Y351361
X481500Y381361
X451500Y406361
X451500Y436361
X511500Y436361
X586500Y381361
X596500Y381361
X576500Y381361
X556500Y381361
X546500Y381361
X536500Y381361
X596500Y351361
X631500Y356361
X631500Y371361
X686500Y66361
X686500Y81361
X686500Y231361
X686500Y176361
X686500Y136361
X686500Y121361
X636500Y71361
X626500Y71361
X616500Y71361
X606500Y71361
X596500Y71361
X591500Y141361
X571500Y141361
X561500Y141361
X551500Y141361
X541500Y121361
X531500Y121361
X521500Y91361
X511500Y91361
X481500Y121361
X471500Y71361
X451500Y121361
X461500Y121361
X461500Y41361
X471500Y41361
X481500Y41361
X481500Y71361
X501500Y91361
X491500Y91361
X511500Y71361
X521500Y71361
X531500Y71361
X541500Y71361
X541500Y91361
X531500Y91361
X576500Y91361
X586500Y71361
X606500Y121361
X596500Y121361
X601500Y171361
X571500Y171361
X521500Y121361
X471500Y121361
X461500Y141361
X451500Y141361
X381500Y121361
X381500Y131361
X381500Y141361
X351500Y151361
X351500Y141361
X351500Y131361
X351500Y121361
X351500Y111361
X351500Y101361
X336500Y116361
X326500Y116361
X316500Y116361
X306500Y116361
X296500Y116361
X286500Y116361
X276500Y116361
X276500Y86361
X286500Y86361
X296500Y86361
X296500Y36361
X286500Y36361
X276500Y36361
X266500Y36361
X256500Y36361
X246500Y36361
X236500Y36361
X321500Y66361
X331500Y66361
X341500Y66361
X351500Y66361
X351500Y91361
X336500Y86361
X326500Y86361
X316500Y86361
X306500Y86361
X361500Y66361
X501500Y41361
X511500Y41361
X521500Y41361
X531500Y41361
X541500Y41361
X686500Y26361
X721500Y21361
X711500Y21361
X491500Y41361
X461500Y71361
X451500Y71361
X361500Y36361
X381500Y36361
X231500Y216361
X381500Y111361
X381500Y101361
X381500Y91361
X341500Y36361
X351500Y36361
X371500Y36361
X321500Y36361
X591500Y221361
X601500Y221361
X611500Y221361
X606500Y251361
X596500Y251361
X666500Y316361
X686500Y346361
X671500Y386361
X671500Y371361
X686500Y366361
X686500Y356361
X671500Y356361
X671500Y401361
X671500Y416361
X671500Y431361
X686500Y416361
X631500Y431361
X631500Y416361
X116500Y426361
T05
X61500Y306361
X61500Y316361
X71500Y316361
X71500Y306361
X61500Y266361
X71500Y296361
X61500Y326361
X71500Y326361
X71500Y206361
X71500Y196361
X71500Y256361
X71500Y356361
X636500Y16361
X646500Y16361
X626500Y16361
X616500Y16361
X606500Y16361
X706000Y191361
X716000Y191361
X716000Y171361
X717000Y161361
X706000Y151361
X716000Y151361
X707000Y161361
X707000Y81361
X716000Y91361
X706000Y91361
X717000Y81361
X716000Y71361
X717000Y61361
X716000Y51361
X706000Y51361
X707000Y61361
X706000Y71361
X416500Y351361
X406500Y351361
X406500Y341361
X406500Y391361
X416500Y391361
X416500Y381361
X416500Y371361
X406500Y361361
X416500Y361361
X406500Y371361
X406500Y381361
X406500Y401361
X416500Y401361
X416500Y411361
X416500Y421361
X666500Y171361
X666500Y181361
X717000Y201361
X707000Y201361
X706000Y211361
X716000Y211361
X416500Y251361
X406500Y411361
X406500Y201361
X416500Y201361
X416500Y191361
X406500Y261361
X406500Y301361
X406500Y291361
X406500Y191361
X416500Y181361
X416500Y171361
X416500Y291361
X416500Y281361
X416500Y271361
X416500Y261361
X406500Y251361
X416500Y141361
X416500Y151361
X406500Y151361
X406500Y141361
X406500Y131361
X416500Y131361
X416500Y311361
X416500Y301361
X406500Y311361
X406500Y331361
X416500Y321361
X406500Y321361
X406500Y101361
X406500Y121361
X416500Y121361
X416500Y111361
X416500Y101361
X416500Y91361
X406500Y91361
X416500Y71361
X416500Y61361
X416500Y51361
X416500Y41361
X416500Y211361
X406500Y211361
X416500Y331361
X416500Y341361
X71500Y246361
X71500Y286361
X61500Y286361
X61500Y296361
X51500Y296361
X51500Y306361
X61500Y146361
X61500Y136361
X71500Y136361
X71500Y106361
X51500Y176361
X61500Y176361
X71500Y176361
X71500Y186361
X61500Y196361
X51500Y196361
X51500Y186361
X61500Y186361
X61500Y206361
X51500Y206361
X51500Y216361
X61500Y216361
X71500Y216361
X71500Y226361
X71500Y236361
X61500Y246361
X51500Y256361
X61500Y256361
X71500Y266361
X71500Y346361
X71500Y336361
X61500Y336361
X51500Y336361
X51500Y326361
X51500Y316361
X51500Y286361
X51500Y276361
X61500Y276361
X71500Y276361
X51500Y266361
X51500Y246361
X51500Y236361
X61500Y236361
X61500Y226361
X51500Y226361
X406500Y281361
X406500Y271361
X406500Y181361
X406500Y171361
X406500Y161361
X416500Y161361
X416500Y441361
X416500Y431361
X406500Y421361
X406500Y431361
X406500Y441361
X61500Y156361
X51500Y126361
X61500Y126361
X71500Y126361
X71500Y116361
X61500Y116361
X61500Y106361
X61500Y96361
X71500Y96361
X71500Y86361
X71500Y76361
X61500Y76361
X61500Y86361
X51500Y86361
X51500Y76361
X51500Y96361
X51500Y106361
X51500Y116361
X51500Y136361
X51500Y146361
X51500Y156361
X51500Y166361
X61500Y166361
X71500Y166361
X71500Y156361
X71500Y146361
X416500Y21361
X416500Y31361
X406500Y31361
X406500Y21361
X406500Y71361
X406500Y81361
X416500Y81361
X406500Y61361
X406500Y51361
X406500Y41361
X406500Y111361
X666500Y206361
X666500Y216361
X707000Y221361
X717000Y221361
X716000Y231361
X706000Y231361
X707000Y241361
X717000Y241361
X717000Y181361
X707000Y181361
X706000Y171361
X707000Y101361
X717000Y101361
X716000Y111361
X706000Y111361
X707000Y121361
X717000Y121361
X716000Y131361
X706000Y131361
X707000Y141361
X717000Y141361
X71500Y366361
X61500Y366361
X61500Y356361
X61500Y346361
X51500Y346361
X51500Y356361
X51500Y366361
X51500Y376361
X61500Y376361
X71500Y376361
X71500Y386361
X61500Y386361
X51500Y386361
T06
X706500Y276361
X706500Y296361
X706500Y346361
X706500Y366361
X706500Y416361
X706500Y436361
T07
X500280Y26203
X472720Y26203
X537720Y26203
X565280Y26203
T08
X41500Y406386
X41500Y56335
T09
X671500Y16361
X91500Y16361
X671500Y446361
X91500Y446361
M30
