G75*
%MOIN*%
%OFA0B0*%
%FSLAX25Y25*%
%IPPOS*%
%LPD*%
%AMOC8*
5,1,8,0,0,1.08239X$1,22.5*
%
%ADD10C,0.13098*%
%ADD11C,0.05300*%
%ADD12C,0.05300*%
%ADD13OC8,0.06500*%
%ADD14C,0.11500*%
%ADD15OC8,0.05300*%
%ADD16OC8,0.07100*%
%ADD17C,0.07500*%
%ADD18C,0.07071*%
%ADD19C,0.07211*%
%ADD20C,0.06500*%
%ADD21OC8,0.07900*%
%ADD22C,0.09000*%
%ADD23C,0.07000*%
%ADD24C,0.02300*%
D10*
X0091500Y0016361D03*
X0671500Y0016361D03*
X0671500Y0446361D03*
X0091500Y0446361D03*
D11*
X0116500Y0428761D02*
X0116500Y0423961D01*
X0126500Y0423961D02*
X0126500Y0428761D01*
X0136500Y0428761D02*
X0136500Y0423961D01*
X0146500Y0423961D02*
X0146500Y0428761D01*
X0156500Y0428761D02*
X0156500Y0423961D01*
X0166500Y0423961D02*
X0166500Y0428761D01*
X0176500Y0428761D02*
X0176500Y0423961D01*
X0186500Y0423961D02*
X0186500Y0428761D01*
X0196500Y0428761D02*
X0196500Y0423961D01*
X0206500Y0423961D02*
X0206500Y0428761D01*
X0231500Y0428761D02*
X0231500Y0423961D01*
X0241500Y0423961D02*
X0241500Y0428761D01*
X0251500Y0428761D02*
X0251500Y0423961D01*
X0261500Y0423961D02*
X0261500Y0428761D01*
X0271500Y0428761D02*
X0271500Y0423961D01*
X0281500Y0423961D02*
X0281500Y0428761D01*
X0291500Y0428761D02*
X0291500Y0423961D01*
X0301500Y0423961D02*
X0301500Y0428761D01*
X0311500Y0428761D02*
X0311500Y0423961D01*
X0321500Y0423961D02*
X0321500Y0428761D01*
X0349100Y0426361D02*
X0353900Y0426361D01*
X0353900Y0436361D02*
X0349100Y0436361D01*
X0349100Y0416361D02*
X0353900Y0416361D01*
X0353900Y0406361D02*
X0349100Y0406361D01*
X0349100Y0396361D02*
X0353900Y0396361D01*
X0353900Y0386361D02*
X0349100Y0386361D01*
X0349100Y0376361D02*
X0353900Y0376361D01*
X0353900Y0366361D02*
X0349100Y0366361D01*
X0349100Y0356361D02*
X0353900Y0356361D01*
X0353900Y0346361D02*
X0349100Y0346361D01*
X0321500Y0343961D02*
X0321500Y0348761D01*
X0311500Y0348761D02*
X0311500Y0343961D01*
X0301500Y0343961D02*
X0301500Y0348761D01*
X0291500Y0348761D02*
X0291500Y0343961D01*
X0281500Y0343961D02*
X0281500Y0348761D01*
X0271500Y0348761D02*
X0271500Y0343961D01*
X0261500Y0343961D02*
X0261500Y0348761D01*
X0251500Y0348761D02*
X0251500Y0343961D01*
X0241500Y0343961D02*
X0241500Y0348761D01*
X0231500Y0348761D02*
X0231500Y0343961D01*
X0231500Y0328761D02*
X0231500Y0323961D01*
X0241500Y0323961D02*
X0241500Y0328761D01*
X0251500Y0328761D02*
X0251500Y0323961D01*
X0261500Y0323961D02*
X0261500Y0328761D01*
X0271500Y0328761D02*
X0271500Y0323961D01*
X0281500Y0323961D02*
X0281500Y0328761D01*
X0291500Y0328761D02*
X0291500Y0323961D01*
X0291500Y0298761D02*
X0291500Y0293961D01*
X0281500Y0293961D02*
X0281500Y0298761D01*
X0271500Y0298761D02*
X0271500Y0293961D01*
X0261500Y0293961D02*
X0261500Y0298761D01*
X0251500Y0298761D02*
X0251500Y0293961D01*
X0241500Y0293961D02*
X0241500Y0298761D01*
X0231500Y0298761D02*
X0231500Y0293961D01*
X0231500Y0278761D02*
X0231500Y0273961D01*
X0241500Y0273961D02*
X0241500Y0278761D01*
X0251500Y0278761D02*
X0251500Y0273961D01*
X0261500Y0273961D02*
X0261500Y0278761D01*
X0271500Y0278761D02*
X0271500Y0273961D01*
X0281500Y0273961D02*
X0281500Y0278761D01*
X0291500Y0278761D02*
X0291500Y0273961D01*
X0301500Y0273961D02*
X0301500Y0278761D01*
X0311500Y0278761D02*
X0311500Y0273961D01*
X0321500Y0273961D02*
X0321500Y0278761D01*
X0349100Y0281361D02*
X0353900Y0281361D01*
X0353900Y0291361D02*
X0349100Y0291361D01*
X0349100Y0301361D02*
X0353900Y0301361D01*
X0353900Y0311361D02*
X0349100Y0311361D01*
X0379100Y0311361D02*
X0383900Y0311361D01*
X0383900Y0301361D02*
X0379100Y0301361D01*
X0379100Y0291361D02*
X0383900Y0291361D01*
X0383900Y0281361D02*
X0379100Y0281361D01*
X0379100Y0271361D02*
X0383900Y0271361D01*
X0383900Y0261361D02*
X0379100Y0261361D01*
X0379100Y0251361D02*
X0383900Y0251361D01*
X0383900Y0241361D02*
X0379100Y0241361D01*
X0379100Y0231361D02*
X0383900Y0231361D01*
X0383900Y0221361D02*
X0379100Y0221361D01*
X0353900Y0221361D02*
X0349100Y0221361D01*
X0349100Y0231361D02*
X0353900Y0231361D01*
X0353900Y0241361D02*
X0349100Y0241361D01*
X0349100Y0251361D02*
X0353900Y0251361D01*
X0353900Y0261361D02*
X0349100Y0261361D01*
X0349100Y0271361D02*
X0353900Y0271361D01*
X0321500Y0248761D02*
X0321500Y0243961D01*
X0311500Y0243961D02*
X0311500Y0248761D01*
X0301500Y0248761D02*
X0301500Y0243961D01*
X0291500Y0243961D02*
X0291500Y0248761D01*
X0281500Y0248761D02*
X0281500Y0243961D01*
X0271500Y0243961D02*
X0271500Y0248761D01*
X0261500Y0248761D02*
X0261500Y0243961D01*
X0251500Y0243961D02*
X0251500Y0248761D01*
X0241500Y0248761D02*
X0241500Y0243961D01*
X0231500Y0243961D02*
X0231500Y0248761D01*
X0206500Y0248761D02*
X0206500Y0243961D01*
X0196500Y0243961D02*
X0196500Y0248761D01*
X0186500Y0248761D02*
X0186500Y0243961D01*
X0176500Y0243961D02*
X0176500Y0248761D01*
X0166500Y0248761D02*
X0166500Y0243961D01*
X0156500Y0243961D02*
X0156500Y0248761D01*
X0146500Y0248761D02*
X0146500Y0243961D01*
X0136500Y0243961D02*
X0136500Y0248761D01*
X0126500Y0248761D02*
X0126500Y0243961D01*
X0116500Y0243961D02*
X0116500Y0248761D01*
X0116500Y0273961D02*
X0116500Y0278761D01*
X0126500Y0278761D02*
X0126500Y0273961D01*
X0136500Y0273961D02*
X0136500Y0278761D01*
X0146500Y0278761D02*
X0146500Y0273961D01*
X0156500Y0273961D02*
X0156500Y0278761D01*
X0166500Y0278761D02*
X0166500Y0273961D01*
X0176500Y0273961D02*
X0176500Y0278761D01*
X0186500Y0278761D02*
X0186500Y0273961D01*
X0196500Y0273961D02*
X0196500Y0278761D01*
X0206500Y0278761D02*
X0206500Y0273961D01*
X0206500Y0293961D02*
X0206500Y0298761D01*
X0196500Y0298761D02*
X0196500Y0293961D01*
X0186500Y0293961D02*
X0186500Y0298761D01*
X0176500Y0298761D02*
X0176500Y0293961D01*
X0166500Y0293961D02*
X0166500Y0298761D01*
X0156500Y0298761D02*
X0156500Y0293961D01*
X0146500Y0293961D02*
X0146500Y0298761D01*
X0136500Y0298761D02*
X0136500Y0293961D01*
X0126500Y0293961D02*
X0126500Y0298761D01*
X0116500Y0298761D02*
X0116500Y0293961D01*
X0116500Y0323961D02*
X0116500Y0328761D01*
X0126500Y0328761D02*
X0126500Y0323961D01*
X0136500Y0323961D02*
X0136500Y0328761D01*
X0146500Y0328761D02*
X0146500Y0323961D01*
X0156500Y0323961D02*
X0156500Y0328761D01*
X0166500Y0328761D02*
X0166500Y0323961D01*
X0176500Y0323961D02*
X0176500Y0328761D01*
X0186500Y0328761D02*
X0186500Y0323961D01*
X0196500Y0323961D02*
X0196500Y0328761D01*
X0206500Y0328761D02*
X0206500Y0323961D01*
X0206500Y0343961D02*
X0206500Y0348761D01*
X0196500Y0348761D02*
X0196500Y0343961D01*
X0186500Y0343961D02*
X0186500Y0348761D01*
X0176500Y0348761D02*
X0176500Y0343961D01*
X0166500Y0343961D02*
X0166500Y0348761D01*
X0156500Y0348761D02*
X0156500Y0343961D01*
X0146500Y0343961D02*
X0146500Y0348761D01*
X0136500Y0348761D02*
X0136500Y0343961D01*
X0126500Y0343961D02*
X0126500Y0348761D01*
X0116500Y0348761D02*
X0116500Y0343961D01*
X0116500Y0373961D02*
X0116500Y0378761D01*
X0126500Y0378761D02*
X0126500Y0373961D01*
X0136500Y0373961D02*
X0136500Y0378761D01*
X0146500Y0378761D02*
X0146500Y0373961D01*
X0156500Y0373961D02*
X0156500Y0378761D01*
X0166500Y0378761D02*
X0166500Y0373961D01*
X0176500Y0373961D02*
X0176500Y0378761D01*
X0186500Y0378761D02*
X0186500Y0373961D01*
X0196500Y0373961D02*
X0196500Y0378761D01*
X0206500Y0378761D02*
X0206500Y0373961D01*
X0231500Y0373961D02*
X0231500Y0378761D01*
X0241500Y0378761D02*
X0241500Y0373961D01*
X0251500Y0373961D02*
X0251500Y0378761D01*
X0261500Y0378761D02*
X0261500Y0373961D01*
X0271500Y0373961D02*
X0271500Y0378761D01*
X0281500Y0378761D02*
X0281500Y0373961D01*
X0291500Y0373961D02*
X0291500Y0378761D01*
X0301500Y0378761D02*
X0301500Y0373961D01*
X0311500Y0373961D02*
X0311500Y0378761D01*
X0321500Y0378761D02*
X0321500Y0373961D01*
X0321500Y0393961D02*
X0321500Y0398761D01*
X0311500Y0398761D02*
X0311500Y0393961D01*
X0301500Y0393961D02*
X0301500Y0398761D01*
X0291500Y0398761D02*
X0291500Y0393961D01*
X0281500Y0393961D02*
X0281500Y0398761D01*
X0271500Y0398761D02*
X0271500Y0393961D01*
X0261500Y0393961D02*
X0261500Y0398761D01*
X0251500Y0398761D02*
X0251500Y0393961D01*
X0241500Y0393961D02*
X0241500Y0398761D01*
X0231500Y0398761D02*
X0231500Y0393961D01*
X0206500Y0393961D02*
X0206500Y0398761D01*
X0196500Y0398761D02*
X0196500Y0393961D01*
X0186500Y0393961D02*
X0186500Y0398761D01*
X0176500Y0398761D02*
X0176500Y0393961D01*
X0166500Y0393961D02*
X0166500Y0398761D01*
X0156500Y0398761D02*
X0156500Y0393961D01*
X0146500Y0393961D02*
X0146500Y0398761D01*
X0136500Y0398761D02*
X0136500Y0393961D01*
X0126500Y0393961D02*
X0126500Y0398761D01*
X0116500Y0398761D02*
X0116500Y0393961D01*
X0379100Y0396361D02*
X0383900Y0396361D01*
X0383900Y0406361D02*
X0379100Y0406361D01*
X0379100Y0416361D02*
X0383900Y0416361D01*
X0383900Y0426361D02*
X0379100Y0426361D01*
X0379100Y0436361D02*
X0383900Y0436361D01*
X0383900Y0386361D02*
X0379100Y0386361D01*
X0379100Y0376361D02*
X0383900Y0376361D01*
X0383900Y0366361D02*
X0379100Y0366361D01*
X0379100Y0356361D02*
X0383900Y0356361D01*
X0383900Y0346361D02*
X0379100Y0346361D01*
X0451500Y0348961D02*
X0451500Y0353761D01*
X0461500Y0353761D02*
X0461500Y0348961D01*
X0471500Y0348961D02*
X0471500Y0353761D01*
X0481500Y0353761D02*
X0481500Y0348961D01*
X0491500Y0348961D02*
X0491500Y0353761D01*
X0501500Y0353761D02*
X0501500Y0348961D01*
X0511500Y0348961D02*
X0511500Y0353761D01*
X0536500Y0353761D02*
X0536500Y0348961D01*
X0546500Y0348961D02*
X0546500Y0353761D01*
X0556500Y0353761D02*
X0556500Y0348961D01*
X0566500Y0348961D02*
X0566500Y0353761D01*
X0576500Y0353761D02*
X0576500Y0348961D01*
X0586500Y0348961D02*
X0586500Y0353761D01*
X0596500Y0353761D02*
X0596500Y0348961D01*
X0596500Y0333761D02*
X0596500Y0328961D01*
X0606500Y0328961D02*
X0606500Y0333761D01*
X0586500Y0333761D02*
X0586500Y0328961D01*
X0576500Y0328961D02*
X0576500Y0333761D01*
X0566500Y0333761D02*
X0566500Y0328961D01*
X0556500Y0328961D02*
X0556500Y0333761D01*
X0546500Y0333761D02*
X0546500Y0328961D01*
X0536500Y0328961D02*
X0536500Y0333761D01*
X0511500Y0333761D02*
X0511500Y0328961D01*
X0501500Y0328961D02*
X0501500Y0333761D01*
X0491500Y0333761D02*
X0491500Y0328961D01*
X0481500Y0328961D02*
X0481500Y0333761D01*
X0471500Y0333761D02*
X0471500Y0328961D01*
X0461500Y0328961D02*
X0461500Y0333761D01*
X0451500Y0333761D02*
X0451500Y0328961D01*
X0451500Y0303761D02*
X0451500Y0298961D01*
X0461500Y0298961D02*
X0461500Y0303761D01*
X0471500Y0303761D02*
X0471500Y0298961D01*
X0481500Y0298961D02*
X0481500Y0303761D01*
X0491500Y0303761D02*
X0491500Y0298961D01*
X0501500Y0298961D02*
X0501500Y0303761D01*
X0511500Y0303761D02*
X0511500Y0298961D01*
X0536500Y0298961D02*
X0536500Y0303761D01*
X0546500Y0303761D02*
X0546500Y0298961D01*
X0556500Y0298961D02*
X0556500Y0303761D01*
X0566500Y0303761D02*
X0566500Y0298961D01*
X0576500Y0298961D02*
X0576500Y0303761D01*
X0586500Y0303761D02*
X0586500Y0298961D01*
X0596500Y0298961D02*
X0596500Y0303761D01*
X0606500Y0303761D02*
X0606500Y0298961D01*
X0634100Y0296361D02*
X0638900Y0296361D01*
X0638900Y0306361D02*
X0634100Y0306361D01*
X0634100Y0316361D02*
X0638900Y0316361D01*
X0664100Y0316361D02*
X0668900Y0316361D01*
X0668900Y0306361D02*
X0664100Y0306361D01*
X0664100Y0296361D02*
X0668900Y0296361D01*
X0668900Y0286361D02*
X0664100Y0286361D01*
X0664100Y0276361D02*
X0668900Y0276361D01*
X0684100Y0276361D02*
X0688900Y0276361D01*
X0688900Y0286361D02*
X0684100Y0286361D01*
X0684100Y0296361D02*
X0688900Y0296361D01*
X0638900Y0286361D02*
X0634100Y0286361D01*
X0634100Y0276361D02*
X0638900Y0276361D01*
X0638900Y0266361D02*
X0634100Y0266361D01*
X0634100Y0256361D02*
X0638900Y0256361D01*
X0664100Y0256361D02*
X0668900Y0256361D01*
X0668900Y0266361D02*
X0664100Y0266361D01*
X0606500Y0278961D02*
X0606500Y0283761D01*
X0596500Y0283761D02*
X0596500Y0278961D01*
X0586500Y0278961D02*
X0586500Y0283761D01*
X0576500Y0283761D02*
X0576500Y0278961D01*
X0566500Y0278961D02*
X0566500Y0283761D01*
X0556500Y0283761D02*
X0556500Y0278961D01*
X0546500Y0278961D02*
X0546500Y0283761D01*
X0521500Y0283761D02*
X0521500Y0278961D01*
X0511500Y0278961D02*
X0511500Y0283761D01*
X0501500Y0283761D02*
X0501500Y0278961D01*
X0491500Y0278961D02*
X0491500Y0283761D01*
X0481500Y0283761D02*
X0481500Y0278961D01*
X0471500Y0278961D02*
X0471500Y0283761D01*
X0461500Y0283761D02*
X0461500Y0278961D01*
X0451500Y0278961D02*
X0451500Y0283761D01*
X0451500Y0253761D02*
X0451500Y0248961D01*
X0461500Y0248961D02*
X0461500Y0253761D01*
X0471500Y0253761D02*
X0471500Y0248961D01*
X0481500Y0248961D02*
X0481500Y0253761D01*
X0491500Y0253761D02*
X0491500Y0248961D01*
X0501500Y0248961D02*
X0501500Y0253761D01*
X0511500Y0253761D02*
X0511500Y0248961D01*
X0521500Y0248961D02*
X0521500Y0253761D01*
X0546500Y0253761D02*
X0546500Y0248961D01*
X0556500Y0248961D02*
X0556500Y0253761D01*
X0566500Y0253761D02*
X0566500Y0248961D01*
X0576500Y0248961D02*
X0576500Y0253761D01*
X0586500Y0253761D02*
X0586500Y0248961D01*
X0596500Y0248961D02*
X0596500Y0253761D01*
X0606500Y0253761D02*
X0606500Y0248961D01*
X0601500Y0223761D02*
X0601500Y0218961D01*
X0591500Y0218961D02*
X0591500Y0223761D01*
X0581500Y0223761D02*
X0581500Y0218961D01*
X0571500Y0218961D02*
X0571500Y0223761D01*
X0561500Y0223761D02*
X0561500Y0218961D01*
X0551500Y0218961D02*
X0551500Y0223761D01*
X0511500Y0223761D02*
X0511500Y0218961D01*
X0501500Y0218961D02*
X0501500Y0223761D01*
X0491500Y0223761D02*
X0491500Y0218961D01*
X0481500Y0218961D02*
X0481500Y0223761D01*
X0471500Y0223761D02*
X0471500Y0218961D01*
X0461500Y0218961D02*
X0461500Y0223761D01*
X0451500Y0223761D02*
X0451500Y0218961D01*
X0451500Y0193761D02*
X0451500Y0188961D01*
X0461500Y0188961D02*
X0461500Y0193761D01*
X0471500Y0193761D02*
X0471500Y0188961D01*
X0481500Y0188961D02*
X0481500Y0193761D01*
X0491500Y0193761D02*
X0491500Y0188961D01*
X0501500Y0188961D02*
X0501500Y0193761D01*
X0511500Y0193761D02*
X0511500Y0188961D01*
X0511500Y0173761D02*
X0511500Y0168961D01*
X0501500Y0168961D02*
X0501500Y0173761D01*
X0491500Y0173761D02*
X0491500Y0168961D01*
X0481500Y0168961D02*
X0481500Y0173761D01*
X0471500Y0173761D02*
X0471500Y0168961D01*
X0461500Y0168961D02*
X0461500Y0173761D01*
X0451500Y0173761D02*
X0451500Y0168961D01*
X0451500Y0143761D02*
X0451500Y0138961D01*
X0461500Y0138961D02*
X0461500Y0143761D01*
X0471500Y0143761D02*
X0471500Y0138961D01*
X0481500Y0138961D02*
X0481500Y0143761D01*
X0491500Y0143761D02*
X0491500Y0138961D01*
X0501500Y0138961D02*
X0501500Y0143761D01*
X0511500Y0143761D02*
X0511500Y0138961D01*
X0511500Y0123761D02*
X0511500Y0118961D01*
X0501500Y0118961D02*
X0501500Y0123761D01*
X0491500Y0123761D02*
X0491500Y0118961D01*
X0481500Y0118961D02*
X0481500Y0123761D01*
X0471500Y0123761D02*
X0471500Y0118961D01*
X0461500Y0118961D02*
X0461500Y0123761D01*
X0451500Y0123761D02*
X0451500Y0118961D01*
X0451500Y0093761D02*
X0451500Y0088961D01*
X0461500Y0088961D02*
X0461500Y0093761D01*
X0471500Y0093761D02*
X0471500Y0088961D01*
X0481500Y0088961D02*
X0481500Y0093761D01*
X0491500Y0093761D02*
X0491500Y0088961D01*
X0501500Y0088961D02*
X0501500Y0093761D01*
X0511500Y0093761D02*
X0511500Y0088961D01*
X0521500Y0088961D02*
X0521500Y0093761D01*
X0531500Y0093761D02*
X0531500Y0088961D01*
X0541500Y0088961D02*
X0541500Y0093761D01*
X0541500Y0073761D02*
X0541500Y0068961D01*
X0531500Y0068961D02*
X0531500Y0073761D01*
X0521500Y0073761D02*
X0521500Y0068961D01*
X0511500Y0068961D02*
X0511500Y0073761D01*
X0501500Y0073761D02*
X0501500Y0068961D01*
X0491500Y0068961D02*
X0491500Y0073761D01*
X0481500Y0073761D02*
X0481500Y0068961D01*
X0471500Y0068961D02*
X0471500Y0073761D01*
X0461500Y0073761D02*
X0461500Y0068961D01*
X0451500Y0068961D02*
X0451500Y0073761D01*
X0451500Y0043761D02*
X0451500Y0038961D01*
X0461500Y0038961D02*
X0461500Y0043761D01*
X0471500Y0043761D02*
X0471500Y0038961D01*
X0481500Y0038961D02*
X0481500Y0043761D01*
X0491500Y0043761D02*
X0491500Y0038961D01*
X0501500Y0038961D02*
X0501500Y0043761D01*
X0511500Y0043761D02*
X0511500Y0038961D01*
X0521500Y0038961D02*
X0521500Y0043761D01*
X0531500Y0043761D02*
X0531500Y0038961D01*
X0541500Y0038961D02*
X0541500Y0043761D01*
X0576500Y0043761D02*
X0576500Y0038961D01*
X0586500Y0038961D02*
X0586500Y0043761D01*
X0596500Y0043761D02*
X0596500Y0038961D01*
X0606500Y0038961D02*
X0606500Y0043761D01*
X0616500Y0043761D02*
X0616500Y0038961D01*
X0626500Y0038961D02*
X0626500Y0043761D01*
X0636500Y0043761D02*
X0636500Y0038961D01*
X0636500Y0068961D02*
X0636500Y0073761D01*
X0626500Y0073761D02*
X0626500Y0068961D01*
X0616500Y0068961D02*
X0616500Y0073761D01*
X0606500Y0073761D02*
X0606500Y0068961D01*
X0596500Y0068961D02*
X0596500Y0073761D01*
X0586500Y0073761D02*
X0586500Y0068961D01*
X0576500Y0068961D02*
X0576500Y0073761D01*
X0576500Y0088961D02*
X0576500Y0093761D01*
X0586500Y0093761D02*
X0586500Y0088961D01*
X0596500Y0088961D02*
X0596500Y0093761D01*
X0606500Y0093761D02*
X0606500Y0088961D01*
X0616500Y0088961D02*
X0616500Y0093761D01*
X0626500Y0093761D02*
X0626500Y0088961D01*
X0636500Y0088961D02*
X0636500Y0093761D01*
X0636500Y0118961D02*
X0636500Y0123761D01*
X0626500Y0123761D02*
X0626500Y0118961D01*
X0616500Y0118961D02*
X0616500Y0123761D01*
X0606500Y0123761D02*
X0606500Y0118961D01*
X0596500Y0118961D02*
X0596500Y0123761D01*
X0586500Y0123761D02*
X0586500Y0118961D01*
X0576500Y0118961D02*
X0576500Y0123761D01*
X0571500Y0138961D02*
X0571500Y0143761D01*
X0561500Y0143761D02*
X0561500Y0138961D01*
X0551500Y0138961D02*
X0551500Y0143761D01*
X0581500Y0143761D02*
X0581500Y0138961D01*
X0591500Y0138961D02*
X0591500Y0143761D01*
X0601500Y0143761D02*
X0601500Y0138961D01*
X0611500Y0138961D02*
X0611500Y0143761D01*
X0621500Y0143761D02*
X0621500Y0138961D01*
X0631500Y0138961D02*
X0631500Y0143761D01*
X0641500Y0143761D02*
X0641500Y0138961D01*
X0641500Y0168961D02*
X0641500Y0173761D01*
X0631500Y0173761D02*
X0631500Y0168961D01*
X0621500Y0168961D02*
X0621500Y0173761D01*
X0611500Y0173761D02*
X0611500Y0168961D01*
X0601500Y0168961D02*
X0601500Y0173761D01*
X0591500Y0173761D02*
X0591500Y0168961D01*
X0581500Y0168961D02*
X0581500Y0173761D01*
X0571500Y0173761D02*
X0571500Y0168961D01*
X0561500Y0168961D02*
X0561500Y0173761D01*
X0551500Y0173761D02*
X0551500Y0168961D01*
X0551500Y0188961D02*
X0551500Y0193761D01*
X0561500Y0193761D02*
X0561500Y0188961D01*
X0571500Y0188961D02*
X0571500Y0193761D01*
X0581500Y0193761D02*
X0581500Y0188961D01*
X0591500Y0188961D02*
X0591500Y0193761D01*
X0601500Y0193761D02*
X0601500Y0188961D01*
X0611500Y0188961D02*
X0611500Y0193761D01*
X0621500Y0193761D02*
X0621500Y0188961D01*
X0631500Y0188961D02*
X0631500Y0193761D01*
X0641500Y0193761D02*
X0641500Y0188961D01*
X0641500Y0218961D02*
X0641500Y0223761D01*
X0631500Y0223761D02*
X0631500Y0218961D01*
X0621500Y0218961D02*
X0621500Y0223761D01*
X0611500Y0223761D02*
X0611500Y0218961D01*
X0541500Y0123761D02*
X0541500Y0118961D01*
X0531500Y0118961D02*
X0531500Y0123761D01*
X0521500Y0123761D02*
X0521500Y0118961D01*
X0383900Y0121361D02*
X0379100Y0121361D01*
X0379100Y0131361D02*
X0383900Y0131361D01*
X0383900Y0141361D02*
X0379100Y0141361D01*
X0379100Y0151361D02*
X0383900Y0151361D01*
X0383900Y0161361D02*
X0379100Y0161361D01*
X0379100Y0171361D02*
X0383900Y0171361D01*
X0383900Y0181361D02*
X0379100Y0181361D01*
X0353900Y0181361D02*
X0349100Y0181361D01*
X0349100Y0171361D02*
X0353900Y0171361D01*
X0353900Y0161361D02*
X0349100Y0161361D01*
X0349100Y0151361D02*
X0353900Y0151361D01*
X0353900Y0141361D02*
X0349100Y0141361D01*
X0349100Y0131361D02*
X0353900Y0131361D01*
X0353900Y0121361D02*
X0349100Y0121361D01*
X0349100Y0111361D02*
X0353900Y0111361D01*
X0353900Y0101361D02*
X0349100Y0101361D01*
X0336500Y0113961D02*
X0336500Y0118761D01*
X0326500Y0118761D02*
X0326500Y0113961D01*
X0316500Y0113961D02*
X0316500Y0118761D01*
X0306500Y0118761D02*
X0306500Y0113961D01*
X0296500Y0113961D02*
X0296500Y0118761D01*
X0286500Y0118761D02*
X0286500Y0113961D01*
X0276500Y0113961D02*
X0276500Y0118761D01*
X0251500Y0118761D02*
X0251500Y0113961D01*
X0241500Y0113961D02*
X0241500Y0118761D01*
X0231500Y0118761D02*
X0231500Y0113961D01*
X0221500Y0113961D02*
X0221500Y0118761D01*
X0211500Y0118761D02*
X0211500Y0113961D01*
X0201500Y0113961D02*
X0201500Y0118761D01*
X0191500Y0118761D02*
X0191500Y0113961D01*
X0166500Y0113961D02*
X0166500Y0118761D01*
X0156500Y0118761D02*
X0156500Y0113961D01*
X0146500Y0113961D02*
X0146500Y0118761D01*
X0136500Y0118761D02*
X0136500Y0113961D01*
X0126500Y0113961D02*
X0126500Y0118761D01*
X0116500Y0118761D02*
X0116500Y0113961D01*
X0106500Y0113961D02*
X0106500Y0118761D01*
X0116500Y0133961D02*
X0116500Y0138761D01*
X0126500Y0138761D02*
X0126500Y0133961D01*
X0136500Y0133961D02*
X0136500Y0138761D01*
X0146500Y0138761D02*
X0146500Y0133961D01*
X0156500Y0133961D02*
X0156500Y0138761D01*
X0166500Y0138761D02*
X0166500Y0133961D01*
X0176500Y0133961D02*
X0176500Y0138761D01*
X0186500Y0138761D02*
X0186500Y0133961D01*
X0196500Y0133961D02*
X0196500Y0138761D01*
X0206500Y0138761D02*
X0206500Y0133961D01*
X0231500Y0133961D02*
X0231500Y0138761D01*
X0241500Y0138761D02*
X0241500Y0133961D01*
X0251500Y0133961D02*
X0251500Y0138761D01*
X0261500Y0138761D02*
X0261500Y0133961D01*
X0271500Y0133961D02*
X0271500Y0138761D01*
X0281500Y0138761D02*
X0281500Y0133961D01*
X0291500Y0133961D02*
X0291500Y0138761D01*
X0301500Y0138761D02*
X0301500Y0133961D01*
X0311500Y0133961D02*
X0311500Y0138761D01*
X0321500Y0138761D02*
X0321500Y0133961D01*
X0321500Y0163961D02*
X0321500Y0168761D01*
X0311500Y0168761D02*
X0311500Y0163961D01*
X0301500Y0163961D02*
X0301500Y0168761D01*
X0291500Y0168761D02*
X0291500Y0163961D01*
X0281500Y0163961D02*
X0281500Y0168761D01*
X0271500Y0168761D02*
X0271500Y0163961D01*
X0261500Y0163961D02*
X0261500Y0168761D01*
X0251500Y0168761D02*
X0251500Y0163961D01*
X0241500Y0163961D02*
X0241500Y0168761D01*
X0231500Y0168761D02*
X0231500Y0163961D01*
X0206500Y0163961D02*
X0206500Y0168761D01*
X0196500Y0168761D02*
X0196500Y0163961D01*
X0186500Y0163961D02*
X0186500Y0168761D01*
X0176500Y0168761D02*
X0176500Y0163961D01*
X0166500Y0163961D02*
X0166500Y0168761D01*
X0156500Y0168761D02*
X0156500Y0163961D01*
X0146500Y0163961D02*
X0146500Y0168761D01*
X0136500Y0168761D02*
X0136500Y0163961D01*
X0126500Y0163961D02*
X0126500Y0168761D01*
X0116500Y0168761D02*
X0116500Y0163961D01*
X0116500Y0183961D02*
X0116500Y0188761D01*
X0126500Y0188761D02*
X0126500Y0183961D01*
X0136500Y0183961D02*
X0136500Y0188761D01*
X0146500Y0188761D02*
X0146500Y0183961D01*
X0156500Y0183961D02*
X0156500Y0188761D01*
X0166500Y0188761D02*
X0166500Y0183961D01*
X0176500Y0183961D02*
X0176500Y0188761D01*
X0186500Y0188761D02*
X0186500Y0183961D01*
X0196500Y0183961D02*
X0196500Y0188761D01*
X0206500Y0188761D02*
X0206500Y0183961D01*
X0231500Y0183961D02*
X0231500Y0188761D01*
X0241500Y0188761D02*
X0241500Y0183961D01*
X0251500Y0183961D02*
X0251500Y0188761D01*
X0261500Y0188761D02*
X0261500Y0183961D01*
X0271500Y0183961D02*
X0271500Y0188761D01*
X0281500Y0188761D02*
X0281500Y0183961D01*
X0291500Y0183961D02*
X0291500Y0188761D01*
X0301500Y0188761D02*
X0301500Y0183961D01*
X0311500Y0183961D02*
X0311500Y0188761D01*
X0321500Y0188761D02*
X0321500Y0183961D01*
X0321500Y0213961D02*
X0321500Y0218761D01*
X0311500Y0218761D02*
X0311500Y0213961D01*
X0301500Y0213961D02*
X0301500Y0218761D01*
X0291500Y0218761D02*
X0291500Y0213961D01*
X0281500Y0213961D02*
X0281500Y0218761D01*
X0271500Y0218761D02*
X0271500Y0213961D01*
X0261500Y0213961D02*
X0261500Y0218761D01*
X0251500Y0218761D02*
X0251500Y0213961D01*
X0241500Y0213961D02*
X0241500Y0218761D01*
X0231500Y0218761D02*
X0231500Y0213961D01*
X0206500Y0213961D02*
X0206500Y0218761D01*
X0196500Y0218761D02*
X0196500Y0213961D01*
X0186500Y0213961D02*
X0186500Y0218761D01*
X0176500Y0218761D02*
X0176500Y0213961D01*
X0166500Y0213961D02*
X0166500Y0218761D01*
X0156500Y0218761D02*
X0156500Y0213961D01*
X0146500Y0213961D02*
X0146500Y0218761D01*
X0136500Y0218761D02*
X0136500Y0213961D01*
X0126500Y0213961D02*
X0126500Y0218761D01*
X0116500Y0218761D02*
X0116500Y0213961D01*
X0116500Y0088761D02*
X0116500Y0083961D01*
X0106500Y0083961D02*
X0106500Y0088761D01*
X0126500Y0088761D02*
X0126500Y0083961D01*
X0136500Y0083961D02*
X0136500Y0088761D01*
X0146500Y0088761D02*
X0146500Y0083961D01*
X0156500Y0083961D02*
X0156500Y0088761D01*
X0166500Y0088761D02*
X0166500Y0083961D01*
X0191500Y0083961D02*
X0191500Y0088761D01*
X0201500Y0088761D02*
X0201500Y0083961D01*
X0211500Y0083961D02*
X0211500Y0088761D01*
X0221500Y0088761D02*
X0221500Y0083961D01*
X0231500Y0083961D02*
X0231500Y0088761D01*
X0241500Y0088761D02*
X0241500Y0083961D01*
X0251500Y0083961D02*
X0251500Y0088761D01*
X0276500Y0088761D02*
X0276500Y0083961D01*
X0286500Y0083961D02*
X0286500Y0088761D01*
X0296500Y0088761D02*
X0296500Y0083961D01*
X0306500Y0083961D02*
X0306500Y0088761D01*
X0316500Y0088761D02*
X0316500Y0083961D01*
X0326500Y0083961D02*
X0326500Y0088761D01*
X0336500Y0088761D02*
X0336500Y0083961D01*
X0349100Y0091361D02*
X0353900Y0091361D01*
X0379100Y0091361D02*
X0383900Y0091361D01*
X0383900Y0101361D02*
X0379100Y0101361D01*
X0379100Y0111361D02*
X0383900Y0111361D01*
X0381500Y0068761D02*
X0381500Y0063961D01*
X0371500Y0063961D02*
X0371500Y0068761D01*
X0361500Y0068761D02*
X0361500Y0063961D01*
X0351500Y0063961D02*
X0351500Y0068761D01*
X0341500Y0068761D02*
X0341500Y0063961D01*
X0331500Y0063961D02*
X0331500Y0068761D01*
X0321500Y0068761D02*
X0321500Y0063961D01*
X0296500Y0063961D02*
X0296500Y0068761D01*
X0286500Y0068761D02*
X0286500Y0063961D01*
X0276500Y0063961D02*
X0276500Y0068761D01*
X0266500Y0068761D02*
X0266500Y0063961D01*
X0256500Y0063961D02*
X0256500Y0068761D01*
X0246500Y0068761D02*
X0246500Y0063961D01*
X0236500Y0063961D02*
X0236500Y0068761D01*
X0226500Y0068761D02*
X0226500Y0063961D01*
X0216500Y0063961D02*
X0216500Y0068761D01*
X0206500Y0068761D02*
X0206500Y0063961D01*
X0176500Y0063961D02*
X0176500Y0068761D01*
X0166500Y0068761D02*
X0166500Y0063961D01*
X0156500Y0063961D02*
X0156500Y0068761D01*
X0146500Y0068761D02*
X0146500Y0063961D01*
X0136500Y0063961D02*
X0136500Y0068761D01*
X0126500Y0068761D02*
X0126500Y0063961D01*
X0116500Y0063961D02*
X0116500Y0068761D01*
X0106500Y0068761D02*
X0106500Y0063961D01*
X0106500Y0038761D02*
X0106500Y0033961D01*
X0116500Y0033961D02*
X0116500Y0038761D01*
X0126500Y0038761D02*
X0126500Y0033961D01*
X0136500Y0033961D02*
X0136500Y0038761D01*
X0146500Y0038761D02*
X0146500Y0033961D01*
X0156500Y0033961D02*
X0156500Y0038761D01*
X0166500Y0038761D02*
X0166500Y0033961D01*
X0176500Y0033961D02*
X0176500Y0038761D01*
X0206500Y0038761D02*
X0206500Y0033961D01*
X0216500Y0033961D02*
X0216500Y0038761D01*
X0226500Y0038761D02*
X0226500Y0033961D01*
X0236500Y0033961D02*
X0236500Y0038761D01*
X0246500Y0038761D02*
X0246500Y0033961D01*
X0256500Y0033961D02*
X0256500Y0038761D01*
X0266500Y0038761D02*
X0266500Y0033961D01*
X0276500Y0033961D02*
X0276500Y0038761D01*
X0286500Y0038761D02*
X0286500Y0033961D01*
X0296500Y0033961D02*
X0296500Y0038761D01*
X0321500Y0038761D02*
X0321500Y0033961D01*
X0331500Y0033961D02*
X0331500Y0038761D01*
X0341500Y0038761D02*
X0341500Y0033961D01*
X0351500Y0033961D02*
X0351500Y0038761D01*
X0361500Y0038761D02*
X0361500Y0033961D01*
X0371500Y0033961D02*
X0371500Y0038761D01*
X0381500Y0038761D02*
X0381500Y0033961D01*
X0684100Y0346361D02*
X0688900Y0346361D01*
X0688900Y0356361D02*
X0684100Y0356361D01*
X0684100Y0366361D02*
X0688900Y0366361D01*
X0611500Y0403961D02*
X0611500Y0408761D01*
X0601500Y0408761D02*
X0601500Y0403961D01*
X0591500Y0403961D02*
X0591500Y0408761D01*
X0581500Y0408761D02*
X0581500Y0403961D01*
X0571500Y0403961D02*
X0571500Y0408761D01*
X0561500Y0408761D02*
X0561500Y0403961D01*
X0551500Y0403961D02*
X0551500Y0408761D01*
X0541500Y0408761D02*
X0541500Y0403961D01*
X0536500Y0383761D02*
X0536500Y0378961D01*
X0546500Y0378961D02*
X0546500Y0383761D01*
X0556500Y0383761D02*
X0556500Y0378961D01*
X0566500Y0378961D02*
X0566500Y0383761D01*
X0576500Y0383761D02*
X0576500Y0378961D01*
X0586500Y0378961D02*
X0586500Y0383761D01*
X0596500Y0383761D02*
X0596500Y0378961D01*
X0511500Y0378961D02*
X0511500Y0383761D01*
X0501500Y0383761D02*
X0501500Y0378961D01*
X0491500Y0378961D02*
X0491500Y0383761D01*
X0481500Y0383761D02*
X0481500Y0378961D01*
X0471500Y0378961D02*
X0471500Y0383761D01*
X0461500Y0383761D02*
X0461500Y0378961D01*
X0451500Y0378961D02*
X0451500Y0383761D01*
X0541500Y0433961D02*
X0541500Y0438761D01*
X0551500Y0438761D02*
X0551500Y0433961D01*
X0561500Y0433961D02*
X0561500Y0438761D01*
X0571500Y0438761D02*
X0571500Y0433961D01*
X0581500Y0433961D02*
X0581500Y0438761D01*
X0591500Y0438761D02*
X0591500Y0433961D01*
X0601500Y0433961D02*
X0601500Y0438761D01*
X0611500Y0438761D02*
X0611500Y0433961D01*
X0684100Y0436361D02*
X0688900Y0436361D01*
X0688900Y0426361D02*
X0684100Y0426361D01*
X0684100Y0416361D02*
X0688900Y0416361D01*
D12*
X0511500Y0406361D03*
X0511500Y0436361D03*
X0451500Y0436361D03*
X0451500Y0406361D03*
D13*
X0416500Y0411361D03*
X0416500Y0421361D03*
X0416500Y0431361D03*
X0406500Y0431361D03*
X0406500Y0421361D03*
X0406500Y0411361D03*
X0406500Y0401361D03*
X0416500Y0401361D03*
X0416500Y0391361D03*
X0406500Y0391361D03*
X0406500Y0381361D03*
X0416500Y0381361D03*
X0416500Y0371361D03*
X0406500Y0371361D03*
X0406500Y0361361D03*
X0416500Y0361361D03*
X0416500Y0351361D03*
X0406500Y0351361D03*
X0406500Y0341361D03*
X0416500Y0341361D03*
X0416500Y0331361D03*
X0406500Y0331361D03*
X0406500Y0321361D03*
X0416500Y0321361D03*
X0416500Y0311361D03*
X0406500Y0311361D03*
X0406500Y0301361D03*
X0416500Y0301361D03*
X0416500Y0291361D03*
X0406500Y0291361D03*
X0406500Y0281361D03*
X0416500Y0281361D03*
X0416500Y0271361D03*
X0406500Y0271361D03*
X0406500Y0261361D03*
X0416500Y0261361D03*
X0416500Y0251361D03*
X0406500Y0251361D03*
X0406500Y0211361D03*
X0416500Y0211361D03*
X0416500Y0201361D03*
X0406500Y0201361D03*
X0406500Y0191361D03*
X0416500Y0191361D03*
X0416500Y0181361D03*
X0406500Y0181361D03*
X0406500Y0171361D03*
X0416500Y0171361D03*
X0416500Y0161361D03*
X0406500Y0161361D03*
X0406500Y0151361D03*
X0416500Y0151361D03*
X0416500Y0141361D03*
X0406500Y0141361D03*
X0406500Y0131361D03*
X0416500Y0131361D03*
X0416500Y0121361D03*
X0406500Y0121361D03*
X0406500Y0111361D03*
X0416500Y0111361D03*
X0416500Y0101361D03*
X0406500Y0101361D03*
X0406500Y0091361D03*
X0416500Y0091361D03*
X0416500Y0081361D03*
X0406500Y0081361D03*
X0406500Y0071361D03*
X0416500Y0071361D03*
X0416500Y0061361D03*
X0406500Y0061361D03*
X0406500Y0051361D03*
X0416500Y0051361D03*
X0416500Y0041361D03*
X0406500Y0041361D03*
X0406500Y0031361D03*
X0416500Y0031361D03*
X0416500Y0021361D03*
X0406500Y0021361D03*
X0071500Y0076361D03*
X0071500Y0086361D03*
X0071500Y0096361D03*
X0061500Y0096361D03*
X0051500Y0096361D03*
X0051500Y0086361D03*
X0061500Y0086361D03*
X0061500Y0076361D03*
X0051500Y0076361D03*
X0051500Y0106361D03*
X0061500Y0106361D03*
X0061500Y0116361D03*
X0051500Y0116361D03*
X0051500Y0126361D03*
X0061500Y0126361D03*
X0061500Y0136361D03*
X0051500Y0136361D03*
X0051500Y0146361D03*
X0061500Y0146361D03*
X0071500Y0146361D03*
X0071500Y0136361D03*
X0071500Y0126361D03*
X0071500Y0116361D03*
X0071500Y0106361D03*
X0071500Y0156361D03*
X0071500Y0166361D03*
X0071500Y0176361D03*
X0071500Y0186361D03*
X0071500Y0196361D03*
X0071500Y0206361D03*
X0061500Y0206361D03*
X0051500Y0206361D03*
X0051500Y0196361D03*
X0061500Y0196361D03*
X0061500Y0186361D03*
X0051500Y0186361D03*
X0051500Y0176361D03*
X0061500Y0176361D03*
X0061500Y0166361D03*
X0051500Y0166361D03*
X0051500Y0156361D03*
X0061500Y0156361D03*
X0061500Y0216361D03*
X0051500Y0216361D03*
X0051500Y0226361D03*
X0061500Y0226361D03*
X0061500Y0236361D03*
X0051500Y0236361D03*
X0051500Y0246361D03*
X0061500Y0246361D03*
X0061500Y0256361D03*
X0051500Y0256361D03*
X0051500Y0266361D03*
X0061500Y0266361D03*
X0071500Y0266361D03*
X0071500Y0256361D03*
X0071500Y0246361D03*
X0071500Y0236361D03*
X0071500Y0226361D03*
X0071500Y0216361D03*
X0071500Y0276361D03*
X0071500Y0286361D03*
X0071500Y0296361D03*
X0071500Y0306361D03*
X0071500Y0316361D03*
X0061500Y0316361D03*
X0051500Y0316361D03*
X0051500Y0306361D03*
X0061500Y0306361D03*
X0061500Y0296361D03*
X0051500Y0296361D03*
X0051500Y0286361D03*
X0061500Y0286361D03*
X0061500Y0276361D03*
X0051500Y0276361D03*
X0051500Y0326361D03*
X0061500Y0326361D03*
X0061500Y0336361D03*
X0051500Y0336361D03*
X0051500Y0346361D03*
X0061500Y0346361D03*
X0061500Y0356361D03*
X0051500Y0356361D03*
X0051500Y0366361D03*
X0061500Y0366361D03*
X0061500Y0376361D03*
X0051500Y0376361D03*
X0051500Y0386361D03*
X0061500Y0386361D03*
X0071500Y0386361D03*
X0071500Y0376361D03*
X0071500Y0366361D03*
X0071500Y0356361D03*
X0071500Y0346361D03*
X0071500Y0336361D03*
X0071500Y0326361D03*
X0406500Y0441361D03*
X0416500Y0441361D03*
D14*
X0041500Y0406386D03*
X0041500Y0056335D03*
D15*
X0041500Y0021361D03*
X0051500Y0021361D03*
X0076500Y0016361D03*
X0076500Y0056361D03*
X0686500Y0066361D03*
X0686500Y0026361D03*
X0711500Y0021361D03*
X0721500Y0021361D03*
D16*
X0686500Y0081361D03*
X0686500Y0121361D03*
X0686500Y0136361D03*
X0686500Y0176361D03*
X0686500Y0191361D03*
X0686500Y0231361D03*
X0671500Y0356361D03*
X0671500Y0371361D03*
X0671500Y0386361D03*
X0671500Y0401361D03*
X0671500Y0416361D03*
X0671500Y0431361D03*
X0631500Y0431361D03*
X0631500Y0416361D03*
X0631500Y0401361D03*
X0631500Y0386361D03*
X0631500Y0371361D03*
X0631500Y0356361D03*
D17*
X0706500Y0366361D03*
X0706500Y0346361D03*
X0706500Y0296361D03*
X0706500Y0276361D03*
X0706500Y0416361D03*
X0706500Y0436361D03*
D18*
X0531500Y0426361D03*
X0526500Y0371361D03*
X0526500Y0321361D03*
X0536500Y0271361D03*
X0441500Y0271361D03*
X0441500Y0321361D03*
X0361500Y0321361D03*
X0441500Y0371361D03*
X0371500Y0446361D03*
X0221500Y0416361D03*
X0221500Y0366361D03*
X0221500Y0316361D03*
X0221500Y0266361D03*
X0221500Y0206361D03*
X0221500Y0156361D03*
X0181500Y0106361D03*
X0196500Y0056361D03*
X0266500Y0096361D03*
X0311500Y0046361D03*
X0441500Y0061361D03*
X0441500Y0111361D03*
X0441500Y0161361D03*
X0361500Y0191361D03*
X0441500Y0211361D03*
X0541500Y0211361D03*
X0541500Y0161361D03*
X0566500Y0111361D03*
X0566500Y0061361D03*
X0106500Y0156361D03*
X0106500Y0206361D03*
X0106500Y0266361D03*
X0106500Y0316361D03*
X0106500Y0366361D03*
X0106500Y0416361D03*
X0096500Y0106361D03*
X0096500Y0056361D03*
D19*
X0096500Y0046361D03*
X0096500Y0096361D03*
X0106500Y0146361D03*
X0106500Y0196361D03*
X0106500Y0256361D03*
X0106500Y0306361D03*
X0106500Y0356361D03*
X0106500Y0406361D03*
X0221500Y0406361D03*
X0221500Y0356361D03*
X0221500Y0306361D03*
X0221500Y0256361D03*
X0221500Y0196361D03*
X0221500Y0146361D03*
X0266500Y0106361D03*
X0311500Y0056361D03*
X0196500Y0046361D03*
X0181500Y0096361D03*
X0371500Y0191361D03*
X0441500Y0201361D03*
X0441500Y0151361D03*
X0441500Y0101361D03*
X0441500Y0051361D03*
X0566500Y0051361D03*
X0566500Y0101361D03*
X0541500Y0151361D03*
X0541500Y0201361D03*
X0536500Y0261361D03*
X0526500Y0311361D03*
X0526500Y0361361D03*
X0441500Y0361361D03*
X0371500Y0321361D03*
X0441500Y0311361D03*
X0441500Y0261361D03*
X0531500Y0416361D03*
X0361500Y0446361D03*
D20*
X0663500Y0216361D02*
X0669500Y0216361D01*
X0669500Y0206361D02*
X0663500Y0206361D01*
X0663500Y0181361D02*
X0669500Y0181361D01*
X0669500Y0171361D02*
X0663500Y0171361D01*
X0646500Y0019361D02*
X0646500Y0013361D01*
X0636500Y0013361D02*
X0636500Y0019361D01*
X0626500Y0019361D02*
X0626500Y0013361D01*
X0616500Y0013361D02*
X0616500Y0019361D01*
X0606500Y0019361D02*
X0606500Y0013361D01*
D21*
X0706000Y0051361D03*
X0716000Y0051361D03*
X0717000Y0061361D03*
X0707000Y0061361D03*
X0706000Y0071361D03*
X0716000Y0071361D03*
X0717000Y0081361D03*
X0707000Y0081361D03*
X0706000Y0091361D03*
X0716000Y0091361D03*
X0717000Y0101361D03*
X0707000Y0101361D03*
X0706000Y0111361D03*
X0716000Y0111361D03*
X0717000Y0121361D03*
X0707000Y0121361D03*
X0706000Y0131361D03*
X0716000Y0131361D03*
X0717000Y0141361D03*
X0707000Y0141361D03*
X0706000Y0151361D03*
X0716000Y0151361D03*
X0717000Y0161361D03*
X0707000Y0161361D03*
X0706000Y0171361D03*
X0716000Y0171361D03*
X0717000Y0181361D03*
X0707000Y0181361D03*
X0706000Y0191361D03*
X0716000Y0191361D03*
X0717000Y0201361D03*
X0707000Y0201361D03*
X0706000Y0211361D03*
X0716000Y0211361D03*
X0717000Y0221361D03*
X0707000Y0221361D03*
X0706000Y0231361D03*
X0716000Y0231361D03*
X0717000Y0241361D03*
X0707000Y0241361D03*
D22*
X0565280Y0026203D03*
X0537720Y0026203D03*
X0500280Y0026203D03*
X0472720Y0026203D03*
D23*
X0476657Y0016361D03*
X0496343Y0016361D03*
X0541657Y0016361D03*
X0561343Y0016361D03*
D24*
X0594000Y0011361D03*
X0571500Y0038861D03*
X0626500Y0058861D03*
X0629000Y0065111D03*
X0657750Y0082611D03*
X0655250Y0095111D03*
X0655250Y0101361D03*
X0652750Y0106361D03*
X0635250Y0112611D03*
X0629000Y0113861D03*
X0629000Y0101361D03*
X0631500Y0096361D03*
X0605250Y0103861D03*
X0584000Y0108861D03*
X0557750Y0106361D03*
X0531500Y0101361D03*
X0527750Y0096361D03*
X0540250Y0078861D03*
X0505250Y0058861D03*
X0499000Y0060111D03*
X0489000Y0050111D03*
X0476500Y0047611D03*
X0466500Y0045111D03*
X0474000Y0035111D03*
X0464000Y0025111D03*
X0462750Y0018861D03*
X0457750Y0016361D03*
X0452750Y0013861D03*
X0436500Y0023861D03*
X0436500Y0048861D03*
X0449000Y0052611D03*
X0446500Y0058861D03*
X0469000Y0060111D03*
X0476500Y0081361D03*
X0490250Y0082611D03*
X0496500Y0096361D03*
X0497750Y0111361D03*
X0509000Y0127611D03*
X0506500Y0137611D03*
X0521500Y0135111D03*
X0539000Y0145111D03*
X0559000Y0130111D03*
X0575250Y0132611D03*
X0596500Y0158861D03*
X0599000Y0177611D03*
X0607750Y0185111D03*
X0596500Y0200111D03*
X0591500Y0213861D03*
X0610250Y0231361D03*
X0604000Y0237611D03*
X0619000Y0237611D03*
X0647750Y0240111D03*
X0677750Y0235111D03*
X0682750Y0227611D03*
X0680250Y0220111D03*
X0636500Y0197611D03*
X0629000Y0211361D03*
X0652750Y0182611D03*
X0655250Y0181361D03*
X0681500Y0187611D03*
X0692750Y0168861D03*
X0701500Y0163861D03*
X0669000Y0145111D03*
X0664000Y0150111D03*
X0650250Y0145111D03*
X0661500Y0158861D03*
X0694000Y0138861D03*
X0680250Y0127611D03*
X0671500Y0125111D03*
X0647750Y0122611D03*
X0699000Y0098861D03*
X0677750Y0076361D03*
X0677750Y0073861D03*
X0674000Y0058861D03*
X0652750Y0031361D03*
X0592750Y0086361D03*
X0490250Y0031361D03*
X0487750Y0028861D03*
X0447750Y0080111D03*
X0435250Y0082611D03*
X0451500Y0101361D03*
X0457750Y0101361D03*
X0461500Y0106361D03*
X0435250Y0108861D03*
X0420250Y0115111D03*
X0422750Y0120111D03*
X0429000Y0130111D03*
X0427750Y0132611D03*
X0431500Y0135111D03*
X0420250Y0135111D03*
X0410250Y0137611D03*
X0394000Y0133861D03*
X0391500Y0130111D03*
X0370250Y0130111D03*
X0357750Y0135111D03*
X0341500Y0147611D03*
X0344000Y0158861D03*
X0335250Y0162611D03*
X0342750Y0177611D03*
X0357750Y0187611D03*
X0345250Y0198861D03*
X0357750Y0205111D03*
X0367750Y0202611D03*
X0372750Y0202611D03*
X0365250Y0212611D03*
X0361500Y0217611D03*
X0387750Y0228861D03*
X0394000Y0225111D03*
X0396500Y0231361D03*
X0399000Y0236361D03*
X0401500Y0238861D03*
X0395250Y0241361D03*
X0386500Y0247611D03*
X0397750Y0253861D03*
X0397750Y0262611D03*
X0391500Y0270111D03*
X0391500Y0275111D03*
X0375250Y0275111D03*
X0361500Y0265111D03*
X0345250Y0253861D03*
X0340250Y0240111D03*
X0319000Y0222611D03*
X0306500Y0225111D03*
X0300250Y0228861D03*
X0294000Y0226361D03*
X0295250Y0236361D03*
X0302750Y0236361D03*
X0285250Y0236361D03*
X0275250Y0236361D03*
X0274000Y0240111D03*
X0267750Y0241361D03*
X0260250Y0237611D03*
X0260250Y0230111D03*
X0255250Y0230111D03*
X0255250Y0227611D03*
X0246500Y0226361D03*
X0274000Y0226361D03*
X0286500Y0212611D03*
X0296500Y0198861D03*
X0304000Y0192611D03*
X0306500Y0206361D03*
X0309000Y0206361D03*
X0312750Y0206361D03*
X0327750Y0195111D03*
X0327750Y0192611D03*
X0370250Y0163861D03*
X0357750Y0153861D03*
X0391500Y0147611D03*
X0427750Y0147611D03*
X0430250Y0153861D03*
X0445250Y0142611D03*
X0449000Y0151361D03*
X0449000Y0162611D03*
X0461500Y0161361D03*
X0474000Y0151361D03*
X0479000Y0151361D03*
X0499000Y0147611D03*
X0516500Y0160111D03*
X0490250Y0162611D03*
X0491500Y0180111D03*
X0470250Y0180111D03*
X0465250Y0201361D03*
X0476500Y0212611D03*
X0494000Y0208861D03*
X0499000Y0212611D03*
X0522750Y0207611D03*
X0536500Y0198861D03*
X0559000Y0197611D03*
X0559000Y0185111D03*
X0564000Y0180111D03*
X0565250Y0162611D03*
X0517750Y0176361D03*
X0466500Y0130111D03*
X0436500Y0123861D03*
X0400250Y0112611D03*
X0396500Y0116361D03*
X0372750Y0093861D03*
X0369000Y0083861D03*
X0384000Y0075111D03*
X0385250Y0060111D03*
X0364000Y0050111D03*
X0369000Y0030111D03*
X0369000Y0022611D03*
X0357750Y0012611D03*
X0339000Y0012611D03*
X0330250Y0021361D03*
X0326500Y0012611D03*
X0312750Y0016361D03*
X0307750Y0025111D03*
X0307750Y0027611D03*
X0291500Y0048861D03*
X0284000Y0053861D03*
X0279000Y0051361D03*
X0262750Y0075111D03*
X0305250Y0075111D03*
X0311500Y0096361D03*
X0324000Y0093861D03*
X0332750Y0092611D03*
X0339000Y0093861D03*
X0356500Y0105111D03*
X0324000Y0123861D03*
X0314000Y0151361D03*
X0290250Y0151361D03*
X0277750Y0171361D03*
X0266500Y0175111D03*
X0264000Y0172611D03*
X0249000Y0180111D03*
X0234000Y0172611D03*
X0236500Y0162611D03*
X0217750Y0152611D03*
X0224000Y0141361D03*
X0226500Y0141361D03*
X0221500Y0133861D03*
X0212750Y0140111D03*
X0206500Y0128861D03*
X0194000Y0147611D03*
X0184000Y0160111D03*
X0187750Y0173861D03*
X0177750Y0175111D03*
X0172750Y0181361D03*
X0160250Y0175111D03*
X0154000Y0175111D03*
X0151500Y0195111D03*
X0149000Y0195111D03*
X0164000Y0202611D03*
X0182750Y0211361D03*
X0194000Y0205111D03*
X0204000Y0198861D03*
X0214000Y0196361D03*
X0220250Y0182611D03*
X0211500Y0170111D03*
X0244000Y0196361D03*
X0211500Y0221361D03*
X0199000Y0231361D03*
X0190250Y0232611D03*
X0189000Y0228861D03*
X0172750Y0233861D03*
X0172750Y0236361D03*
X0169000Y0222611D03*
X0159000Y0222611D03*
X0149000Y0225111D03*
X0137750Y0225111D03*
X0134000Y0231361D03*
X0110250Y0240111D03*
X0112750Y0253861D03*
X0121500Y0256361D03*
X0139000Y0261361D03*
X0154000Y0268861D03*
X0161500Y0282611D03*
X0172750Y0281361D03*
X0200250Y0286361D03*
X0204000Y0286361D03*
X0225250Y0281361D03*
X0211500Y0275111D03*
X0216500Y0270111D03*
X0225250Y0270111D03*
X0231500Y0266361D03*
X0232750Y0257611D03*
X0224000Y0251361D03*
X0211500Y0253861D03*
X0205250Y0257611D03*
X0205250Y0263861D03*
X0216500Y0260111D03*
X0180250Y0258861D03*
X0216500Y0237611D03*
X0252750Y0258861D03*
X0309000Y0282611D03*
X0314000Y0292611D03*
X0337750Y0290111D03*
X0340250Y0290111D03*
X0337750Y0283861D03*
X0367750Y0287611D03*
X0391500Y0303861D03*
X0400250Y0310111D03*
X0410250Y0297611D03*
X0412750Y0285111D03*
X0427750Y0287611D03*
X0430250Y0277611D03*
X0435250Y0273861D03*
X0436500Y0263861D03*
X0435250Y0260111D03*
X0454000Y0273861D03*
X0440250Y0287611D03*
X0460250Y0292611D03*
X0469000Y0287611D03*
X0496500Y0276361D03*
X0516500Y0287611D03*
X0524000Y0272611D03*
X0521500Y0270111D03*
X0514000Y0261361D03*
X0509000Y0257611D03*
X0489000Y0260111D03*
X0495250Y0246361D03*
X0502750Y0233861D03*
X0522750Y0242611D03*
X0547750Y0263861D03*
X0559000Y0272611D03*
X0584000Y0287611D03*
X0624000Y0298861D03*
X0629000Y0292611D03*
X0657750Y0303861D03*
X0676500Y0306361D03*
X0680250Y0312611D03*
X0619000Y0265111D03*
X0576500Y0241361D03*
X0570250Y0245111D03*
X0476500Y0231361D03*
X0470250Y0232611D03*
X0466500Y0230111D03*
X0452750Y0235111D03*
X0425250Y0233861D03*
X0421500Y0242611D03*
X0419000Y0217611D03*
X0424000Y0217611D03*
X0430250Y0210111D03*
X0401500Y0216361D03*
X0370250Y0243861D03*
X0389000Y0187611D03*
X0391500Y0175111D03*
X0412750Y0175111D03*
X0412750Y0187611D03*
X0420250Y0185111D03*
X0270250Y0101361D03*
X0262750Y0101361D03*
X0259000Y0127611D03*
X0252750Y0127611D03*
X0242750Y0127611D03*
X0167750Y0127611D03*
X0140250Y0121361D03*
X0121500Y0128861D03*
X0114000Y0145111D03*
X0094000Y0120111D03*
X0097750Y0113861D03*
X0109000Y0101361D03*
X0110250Y0098861D03*
X0094000Y0091361D03*
X0132750Y0081361D03*
X0110250Y0057611D03*
X0132750Y0025111D03*
X0142750Y0010111D03*
X0184000Y0048861D03*
X0179000Y0060111D03*
X0170250Y0071361D03*
X0190250Y0077611D03*
X0075250Y0131361D03*
X0044000Y0152611D03*
X0081500Y0187611D03*
X0097750Y0190111D03*
X0094000Y0205111D03*
X0096500Y0210111D03*
X0099000Y0220111D03*
X0091500Y0228861D03*
X0082750Y0237611D03*
X0087750Y0245111D03*
X0082750Y0247611D03*
X0065250Y0241361D03*
X0064000Y0251361D03*
X0082750Y0270111D03*
X0101500Y0273861D03*
X0110250Y0275111D03*
X0110250Y0280111D03*
X0119000Y0268861D03*
X0129000Y0290111D03*
X0124000Y0305111D03*
X0115250Y0306361D03*
X0101500Y0303861D03*
X0101500Y0295111D03*
X0085250Y0308861D03*
X0067750Y0300111D03*
X0056500Y0300111D03*
X0067750Y0292611D03*
X0077750Y0290111D03*
X0077750Y0285111D03*
X0036500Y0293861D03*
X0044000Y0318861D03*
X0082750Y0347611D03*
X0102750Y0345111D03*
X0130250Y0335111D03*
X0137750Y0337611D03*
X0140250Y0336361D03*
X0161500Y0348861D03*
X0176500Y0335111D03*
X0182750Y0317611D03*
X0200250Y0332611D03*
X0216500Y0323861D03*
X0229000Y0315111D03*
X0234000Y0315111D03*
X0242750Y0307611D03*
X0246500Y0311361D03*
X0249000Y0312611D03*
X0236500Y0302611D03*
X0220250Y0298861D03*
X0267750Y0335111D03*
X0281500Y0337611D03*
X0289000Y0332611D03*
X0279000Y0320111D03*
X0251500Y0337611D03*
X0247750Y0351361D03*
X0234000Y0356361D03*
X0225250Y0360111D03*
X0216500Y0360111D03*
X0226500Y0378861D03*
X0236500Y0391361D03*
X0245250Y0401361D03*
X0264000Y0386361D03*
X0276500Y0406361D03*
X0304000Y0383861D03*
X0314000Y0382611D03*
X0341500Y0387611D03*
X0331500Y0407611D03*
X0364000Y0411361D03*
X0364000Y0413861D03*
X0364000Y0416361D03*
X0364000Y0418861D03*
X0370250Y0407611D03*
X0387750Y0408861D03*
X0400250Y0405111D03*
X0400250Y0395111D03*
X0420250Y0397611D03*
X0420250Y0377611D03*
X0425250Y0360111D03*
X0427750Y0355111D03*
X0394000Y0350111D03*
X0386500Y0340111D03*
X0392750Y0333861D03*
X0379000Y0325111D03*
X0376500Y0318861D03*
X0334000Y0318861D03*
X0319000Y0312611D03*
X0329000Y0342611D03*
X0292750Y0360111D03*
X0286500Y0351361D03*
X0357750Y0371361D03*
X0370250Y0366361D03*
X0374000Y0365111D03*
X0391500Y0378861D03*
X0410250Y0415111D03*
X0420250Y0425111D03*
X0469000Y0391361D03*
X0491500Y0401361D03*
X0505250Y0376361D03*
X0505250Y0340111D03*
X0495250Y0340111D03*
X0469000Y0337611D03*
X0446500Y0335111D03*
X0437750Y0333861D03*
X0437750Y0325111D03*
X0431500Y0313861D03*
X0427750Y0307611D03*
X0507750Y0313861D03*
X0521500Y0317611D03*
X0564000Y0375111D03*
X0570250Y0390111D03*
X0564000Y0398861D03*
X0580250Y0421361D03*
X0619000Y0391361D03*
X0621500Y0377611D03*
X0682750Y0260111D03*
X0724000Y0201361D03*
X0726500Y0198861D03*
X0724000Y0193861D03*
X0351500Y0075111D03*
X0349000Y0080111D03*
X0332750Y0081361D03*
X0124000Y0205111D03*
X0080250Y0220111D03*
X0077750Y0203861D03*
X0055250Y0192611D03*
X0107750Y0177611D03*
X0134000Y0311361D03*
X0152750Y0311361D03*
X0136500Y0356361D03*
X0149000Y0367611D03*
X0174000Y0387611D03*
X0190250Y0382611D03*
X0200250Y0390111D03*
X0162750Y0408861D03*
X0149000Y0408861D03*
X0141500Y0431361D03*
X0150250Y0440111D03*
X0160250Y0447611D03*
X0179000Y0441361D03*
X0182750Y0442611D03*
X0119000Y0417611D03*
X0099000Y0398861D03*
X0099000Y0393861D03*
X0096500Y0391361D03*
X0094000Y0388861D03*
X0097750Y0370111D03*
X0075250Y0421361D03*
X0080250Y0423861D03*
X0091500Y0432611D03*
X0116500Y0451361D03*
X0324000Y0438861D03*
X0329000Y0445111D03*
X0329000Y0428861D03*
X0359000Y0438861D03*
X0361500Y0438861D03*
M02*
