M48
; DRILL file KiCad 10.0.6 date 2026-09-24T00:43:21
; FORMAT={-:-/ absolute / metric / decimal}
; #@! TF.CreationDate,2026-09-24T00:43:21-04:00
; #@! TF.GenerationSoftware,Kicad,Pcbnew,10.0.6
; #@! TF.FileFunction,MixedPlating,1,2
FMAT,2
METRIC
; #@! TA.AperFunction,Plated,PTH,ViaDrill
T1C0.254
; #@! TA.AperFunction,Plated,PTH,ComponentDrill
T2C0.700
; #@! TA.AperFunction,Plated,PTH,ComponentDrill
T3C0.800
; #@! TA.AperFunction,Plated,PTH,ComponentDrill
T4C0.813
; #@! TA.AperFunction,Plated,PTH,ComponentDrill
T5C0.900
; #@! TA.AperFunction,Plated,PTH,ComponentDrill
T6C1.000
; #@! TA.AperFunction,Plated,PTH,ComponentDrill
T7C1.016
; #@! TA.AperFunction,Plated,PTH,ComponentDrill
T8C1.803
; #@! TA.AperFunction,Plated,PTH,ComponentDrill
T9C3.302
; #@! TA.AperFunction,NonPlated,NPTH,ComponentDrill
T10C2.794
; #@! TA.AperFunction,NonPlated,NPTH,ComponentDrill
T11C2.800
%
G90
G05
T1
X20.459Y-97.325
X22.192Y-89.705
X22.192Y-94.785
X23.636Y-97.325
X24.732Y-69.385
X29.812Y-86.53
X30.0Y-34.326
X31.082Y-70.02
X31.93Y-36.916
X32.352Y-84.625
X32.454Y-42.004
X32.581Y-20.033
X33.782Y-49.543
X34.867Y-43.401
X37.432Y-87.165
X38.042Y-14.064
X38.702Y-122.725
X38.751Y-57.713
X38.804Y-104.234
X39.499Y-57.723
X39.972Y-82.72
X39.972Y-122.725
X40.455Y-11.651
X42.002Y-37.463
X42.049Y-42.877
X42.099Y-43.525
X42.512Y-81.45
X44.845Y-37.466
X46.424Y-25.875
X46.551Y-36.416
X47.087Y-35.957
X47.567Y-59.53
X48.456Y-35.4
X48.71Y-36.416
X49.091Y-29.304
X49.726Y-34.13
X50.132Y-46.525
X50.615Y-20.414
X51.402Y-46.681
X51.891Y-30.865
X52.594Y-46.693
X52.647Y-53.434
X52.672Y-54.145
X53.663Y-17.239
X53.79Y-39.972
X53.942Y-67.48
X53.942Y-105.58
X54.044Y-59.911
X54.171Y-13.302
X54.298Y-34.13
X54.806Y-20.287
X55.068Y-46.681
X55.187Y-18.382
X55.187Y-62.07
X55.314Y-19.398
X55.314Y-87.724
X55.847Y-52.24
X56.076Y-42.258
X56.33Y-19.525
X56.482Y-96.69
X57.337Y-46.692
X57.56Y-19.473
X57.613Y-27.018
X57.74Y-21.002
X57.752Y-83.99
X58.108Y-38.956
X58.387Y-69.385
X58.387Y-102.405
X59.022Y-47.795
X59.022Y-52.875
X59.657Y-63.67
X60.648Y-48.354
X60.902Y-40.988
X60.902Y-96.741
X60.927Y-93.515
X60.927Y-97.325
X60.951Y-33.49
X61.283Y-18.382
X61.41Y-25.748
X61.562Y-53.51
X61.791Y-16.35
X62.117Y-43.725
X62.197Y-66.845
X62.204Y-25.759
X62.299Y-21.303
X62.299Y-42.385
X62.317Y-33.03
X62.832Y-82.085
X63.036Y-18.884
X63.411Y-28.387
X63.823Y-76.294
X64.247Y-62.552
X64.42Y-46.678
X64.737Y-52.875
X64.737Y-102.405
X64.966Y-17.874
X65.22Y-21.557
X65.347Y-46.576
X65.372Y-90.34
X65.474Y-54.704
X65.474Y-85.184
X66.007Y-82.085
X66.007Y-110.66
X66.642Y-75.735
X66.871Y-54.069
X67.252Y-32.606
X67.252Y-33.749
X67.371Y-23.665
X67.887Y-73.373
X67.912Y-54.145
X67.912Y-104.31
X68.014Y-84.549
X68.547Y-55.415
X68.547Y-83.355
X68.547Y-110.66
X69.182Y-52.875
X69.182Y-104.945
X69.284Y-64.229
X69.284Y-70.071
X69.792Y-48.862
X69.792Y-54.704
X69.817Y-61.13
X70.359Y-19.311
X70.452Y-96.69
X70.554Y-47.211
X71.087Y-87.165
X71.087Y-95.42
X71.316Y-22.065
X72.205Y-54.831
X72.357Y-80.815
X72.586Y-15.842
X72.713Y-26.891
X72.967Y-22.065
X72.967Y-85.311
X72.992Y-61.13
X72.992Y-82.72
X74.022Y-61.472
X74.237Y-15.969
X74.237Y-92.804
X74.262Y-54.145
X74.262Y-83.355
X74.491Y-69.182
X74.618Y-13.683
X75.233Y-68.115
X75.351Y-33.66
X75.38Y-29.05
X75.532Y-53.51
X75.888Y-35.908
X75.888Y-41.115
X76.809Y-47.323
X77.031Y-33.749
X77.031Y-45.052
X77.285Y-16.604
X77.412Y-59.911
X77.539Y-41.115
X77.666Y-16.223
X78.047Y-15.842
X78.174Y-70.579
X78.555Y-17.874
X78.682Y-15.842
X78.707Y-64.305
X79.571Y-44.417
X79.825Y-30.574
X79.825Y-36.543
X80.048Y-86.505
X80.587Y-30.574
X80.587Y-84.549
X81.73Y-34.384
X81.882Y-103.04
X82.238Y-36.289
X82.517Y-53.51
X82.517Y-96.69
X82.794Y-32.066
X82.873Y-69.182
X83.152Y-87.8
X83.889Y-37.94
X84.422Y-69.385
X84.651Y-27.78
X84.778Y-37.94
X84.778Y-76.294
X85.286Y-19.144
X85.692Y-104.31
X85.794Y-68.801
X86.429Y-62.959
X86.962Y-61.13
X87.064Y-36.924
X87.191Y-26.764
X87.265Y-27.917
X87.572Y-33.749
X88.08Y-42.893
X88.232Y-54.145
X88.766Y-13.075
X88.867Y-75.1
X88.867Y-77.005
X89.35Y-28.923
X89.477Y-68.801
X89.604Y-33.749
X89.604Y-48.989
X89.731Y-21.811
X89.868Y-32.138
X89.985Y-36.924
X90.112Y-37.94
X90.366Y-31.59
X90.772Y-111.93
X91.382Y-21.684
X92.042Y-62.4
X92.042Y-75.1
X92.144Y-51.656
X92.398Y-20.668
X92.525Y-24.097
X92.677Y-82.085
X92.906Y-21.176
X93.5Y-11.262
X93.877Y-11.786
X94.303Y-26.637
X94.582Y-44.62
X94.684Y-54.069
X94.684Y-104.234
X95.065Y-22.192
X95.105Y-15.602
X95.217Y-49.065
X95.852Y-67.48
X96.368Y-27.641
X96.589Y-20.668
X97.097Y-27.526
X97.122Y-70.02
X97.351Y-32.733
X98.621Y-54.069
X99.002Y-12.921
X99.256Y-20.668
X99.309Y-21.47
X99.662Y-53.51
X99.891Y-18.89
X100.145Y-20.795
X100.265Y-39.683
X100.297Y-77.005
X100.306Y-12.247
X100.853Y-59.393
X100.932Y-74.465
X100.932Y-75.735
X101.093Y-82.254
X101.346Y-22.584
X101.415Y-68.801
X101.567Y-37.0
X101.796Y-59.276
X102.177Y-46.068
X102.837Y-82.72
X102.939Y-16.477
X102.939Y-76.675
X102.978Y-36.224
X103.193Y-13.429
X103.193Y-71.214
X103.279Y-77.662
X103.447Y-14.699
X103.574Y-39.591
X103.701Y-59.149
X103.701Y-67.531
X103.945Y-98.771
X104.336Y-17.239
X104.336Y-21.557
X104.407Y-98.31
X104.528Y-37.071
X104.717Y-28.923
X104.742Y-65.575
X104.844Y-52.291
X104.844Y-72.103
X104.894Y-101.151
X105.002Y-49.146
X105.153Y-85.091
X105.606Y-20.795
X105.606Y-40.861
X105.606Y-42.639
X105.606Y-95.471
X105.606Y-96.868
X105.845Y-102.815
X106.114Y-55.72
X106.495Y-66.388
X106.622Y-33.368
X106.622Y-73.881
X106.749Y-61.689
X106.801Y-65.41
X106.876Y-86.708
X107.003Y-14.699
X107.022Y-28.826
X107.13Y-31.336
X107.13Y-43.147
X107.257Y-72.357
X107.511Y-25.24
X107.638Y-55.212
X107.765Y-22.319
X108.527Y-71.976
X108.908Y-22.192
X109.035Y-55.72
X109.162Y-72.357
X109.222Y-85.301
X109.276Y-15.202
X109.289Y-27.526
X109.289Y-66.388
X109.289Y-74.516
X109.416Y-44.925
X109.543Y-13.429
X109.543Y-17.112
X109.543Y-62.832
X109.797Y-16.604
X110.119Y-52.401
X110.178Y-77.945
X110.49Y-16.597
X110.559Y-54.577
X111.067Y-18.89
X111.194Y-52.291
X112.605Y-85.084
X113.091Y-15.661
X113.353Y-32.733
X113.607Y-70.706
X113.734Y-63.467
X113.861Y-30.447
X114.496Y-53.434
X114.725Y-30.51
X114.73Y-13.637
X115.131Y-40.353
X115.512Y-63.721
X116.02Y-65.88
X116.655Y-55.72
X116.655Y-83.025
X117.29Y-96.527
X117.389Y-14.703
X117.919Y-100.67
X117.997Y-84.15
X118.035Y-99.896
X118.035Y-99.245
X118.179Y-41.369
X119.044Y-64.611
X119.068Y-72.23
X119.449Y-44.671
X119.576Y-51.783
X119.669Y-23.138
X119.683Y-71.548
X120.084Y-52.291
X120.193Y-23.672
X120.719Y-51.783
X120.76Y-62.557
X120.91Y-95.574
X121.222Y-23.131
X121.481Y-51.783
X121.481Y-76.675
X121.989Y-94.963
X122.198Y-23.136
X122.243Y-70.579
X122.37Y-51.402
X122.531Y-19.856
X122.63Y-96.529
X122.843Y-85.747
X123.132Y-97.884
X123.62Y-44.101
X124.398Y-51.368
X124.687Y-13.836
X126.003Y-71.539
X126.467Y-45.7
X126.467Y-51.368
X126.467Y-87.409
X126.582Y-21.088
X127.223Y-94.132
X127.367Y-44.101
X127.672Y-14.236
X129.35Y-43.9
X129.863Y-97.503
X130.017Y-23.136
X130.585Y-40.872
X130.698Y-51.081
X131.5Y-19.864
X131.5Y-23.139
X131.566Y-40.229
X138.744Y-98.031
X164.039Y-94.927
X164.085Y-95.568
X164.118Y-101.626
X166.084Y-99.245
X168.217Y-51.148
X168.217Y-62.324
X168.384Y-99.896
X168.725Y-49.878
X169.673Y-106.682
X169.741Y-49.624
X170.434Y-29.002
X170.756Y-59.444
X171.893Y-108.594
X172.151Y-36.839
X184.117Y-101.135
T2
X35.527Y-38.905
X35.527Y-46.525
X43.147Y-38.905
X43.147Y-46.525
T3
X21.5Y-14.3
X24.04Y-14.3
X26.58Y-14.3
X29.12Y-14.3
X31.0Y-53.0
X31.0Y-56.1
X31.0Y-59.2
X31.0Y-62.3
X31.66Y-14.3
X34.2Y-14.3
X36.74Y-14.3
X39.28Y-14.3
X41.16Y-53.0
X41.16Y-56.1
X41.16Y-59.2
X41.16Y-62.3
X41.82Y-14.3
X42.8Y-67.5
X44.8Y-67.5
X108.3Y-14.0
X108.3Y-16.54
X108.3Y-19.08
X108.3Y-21.62
X108.3Y-24.16
X108.3Y-26.7
X108.3Y-29.24
X108.3Y-31.78
X108.3Y-34.32
X108.3Y-36.86
X108.3Y-44.0
X108.3Y-46.54
X108.3Y-49.08
X108.3Y-51.62
X108.3Y-54.16
X108.3Y-56.7
X108.3Y-59.24
X108.3Y-61.78
X108.3Y-68.2
X108.3Y-70.74
X108.3Y-73.28
X108.3Y-75.82
X108.3Y-78.36
X108.3Y-80.9
X108.3Y-83.44
X108.3Y-89.8
X108.3Y-92.34
X108.3Y-94.88
X108.3Y-97.42
X108.3Y-99.96
X108.3Y-102.5
X108.3Y-105.04
X108.8Y-40.2
X108.8Y-65.0
X108.8Y-86.6
X108.8Y-108.3
X113.8Y-40.2
X113.8Y-65.0
X113.8Y-86.6
X113.8Y-108.3
X115.92Y-14.0
X115.92Y-16.54
X115.92Y-19.08
X115.92Y-21.62
X115.92Y-24.16
X115.92Y-26.7
X115.92Y-29.24
X115.92Y-31.78
X115.92Y-34.32
X115.92Y-36.86
X115.92Y-44.0
X115.92Y-46.54
X115.92Y-49.08
X115.92Y-51.62
X115.92Y-54.16
X115.92Y-56.7
X115.92Y-59.24
X115.92Y-61.78
X115.92Y-68.2
X115.92Y-70.74
X115.92Y-73.28
X115.92Y-75.82
X115.92Y-78.36
X115.92Y-80.9
X115.92Y-83.44
X115.92Y-89.8
X115.92Y-92.34
X115.92Y-94.88
X115.92Y-97.42
X115.92Y-99.96
X115.92Y-102.5
X115.92Y-105.04
X165.507Y-21.505
X165.507Y-24.045
X165.507Y-26.585
X165.507Y-29.125
X165.507Y-31.665
X165.507Y-34.205
X165.507Y-36.745
X165.507Y-39.285
X165.507Y-41.825
X165.507Y-44.365
X165.507Y-46.905
X165.507Y-49.445
X165.507Y-51.985
X165.507Y-54.525
X165.507Y-57.065
X165.507Y-59.605
X172.0Y-113.2
X182.16Y-113.2
T4
X34.257Y-74.465
X34.257Y-77.005
X36.797Y-71.925
X36.797Y-79.545
X38.067Y-26.205
X38.067Y-28.745
X39.337Y-71.925
X39.337Y-79.545
X40.607Y-23.665
X40.607Y-31.285
X41.877Y-71.925
X41.877Y-79.545
X43.147Y-23.665
X43.147Y-31.285
X44.417Y-71.925
X44.417Y-79.545
X45.687Y-23.665
X45.687Y-31.285
X46.957Y-71.925
X46.957Y-79.545
X48.227Y-23.665
X48.227Y-31.285
X48.227Y-60.495
X48.227Y-63.035
X49.497Y-71.925
X49.497Y-79.545
X50.767Y-23.665
X50.767Y-31.285
X50.767Y-35.095
X50.767Y-50.335
X50.767Y-57.955
X50.767Y-65.575
X52.037Y-71.925
X52.037Y-79.545
X52.037Y-102.405
X52.037Y-104.945
X53.307Y-23.665
X53.307Y-31.285
X53.307Y-35.095
X53.307Y-50.335
X53.307Y-57.955
X53.307Y-65.575
X54.577Y-99.865
X54.577Y-107.485
X55.847Y-23.665
X55.847Y-31.285
X55.847Y-35.095
X55.847Y-50.335
X55.847Y-57.955
X55.847Y-65.575
X55.847Y-74.465
X55.847Y-77.005
X57.117Y-99.865
X57.117Y-107.485
X58.387Y-23.665
X58.387Y-31.285
X58.387Y-35.095
X58.387Y-50.335
X58.387Y-57.955
X58.387Y-65.575
X58.387Y-71.925
X58.387Y-79.545
X58.387Y-115.105
X59.657Y-88.435
X59.657Y-90.975
X59.657Y-99.865
X59.657Y-107.485
X60.927Y-23.665
X60.927Y-31.285
X60.927Y-35.095
X60.927Y-50.335
X60.927Y-57.955
X60.927Y-65.575
X60.927Y-71.925
X60.927Y-79.545
X60.927Y-115.105
X62.197Y-85.895
X62.197Y-93.515
X62.197Y-99.865
X62.197Y-107.485
X63.467Y-23.665
X63.467Y-31.285
X63.467Y-35.095
X63.467Y-50.335
X63.467Y-57.955
X63.467Y-65.575
X63.467Y-71.925
X63.467Y-79.545
X63.467Y-115.105
X64.737Y-85.895
X64.737Y-93.515
X64.737Y-99.865
X64.737Y-107.485
X66.007Y-35.095
X66.007Y-50.335
X66.007Y-57.955
X66.007Y-65.575
X66.007Y-71.925
X66.007Y-79.545
X66.007Y-115.105
X67.277Y-85.895
X67.277Y-93.515
X67.277Y-99.865
X67.277Y-107.485
X68.547Y-35.095
X68.547Y-50.335
X68.547Y-57.955
X68.547Y-65.575
X68.547Y-71.925
X68.547Y-79.545
X68.547Y-115.105
X69.817Y-85.895
X69.817Y-93.515
X69.817Y-99.865
X69.817Y-107.485
X71.087Y-35.095
X71.087Y-50.335
X71.087Y-57.955
X71.087Y-65.575
X71.087Y-71.925
X71.087Y-79.545
X71.087Y-115.105
X72.357Y-85.895
X72.357Y-93.515
X72.357Y-99.865
X72.357Y-107.485
X73.627Y-26.205
X73.627Y-28.745
X73.627Y-35.095
X73.627Y-50.335
X73.627Y-57.955
X73.627Y-65.575
X73.627Y-71.925
X73.627Y-79.545
X73.627Y-115.105
X74.897Y-85.895
X74.897Y-93.515
X74.897Y-99.865
X74.897Y-107.485
X76.167Y-23.665
X76.167Y-31.285
X76.167Y-35.095
X76.167Y-50.335
X76.167Y-71.925
X76.167Y-79.545
X77.437Y-85.895
X77.437Y-93.515
X77.437Y-99.865
X77.437Y-107.485
X78.707Y-23.665
X78.707Y-31.285
X78.707Y-35.095
X78.707Y-50.335
X78.707Y-60.495
X78.707Y-63.035
X81.247Y-23.665
X81.247Y-31.285
X81.247Y-35.095
X81.247Y-50.335
X81.247Y-57.955
X81.247Y-65.575
X81.247Y-74.465
X81.247Y-77.005
X81.247Y-88.435
X81.247Y-90.975
X83.787Y-23.665
X83.787Y-31.285
X83.787Y-35.095
X83.787Y-50.335
X83.787Y-57.955
X83.787Y-65.575
X83.787Y-71.925
X83.787Y-79.545
X83.787Y-85.895
X83.787Y-93.515
X86.327Y-23.665
X86.327Y-31.285
X86.327Y-35.095
X86.327Y-50.335
X86.327Y-57.955
X86.327Y-65.575
X86.327Y-71.925
X86.327Y-79.545
X86.327Y-85.895
X86.327Y-93.515
X88.867Y-23.665
X88.867Y-31.285
X88.867Y-35.095
X88.867Y-50.335
X88.867Y-57.955
X88.867Y-65.575
X88.867Y-71.925
X88.867Y-79.545
X88.867Y-85.895
X88.867Y-93.515
X91.407Y-23.665
X91.407Y-31.285
X91.407Y-35.095
X91.407Y-50.335
X91.407Y-57.955
X91.407Y-65.575
X91.407Y-71.925
X91.407Y-79.545
X91.407Y-85.895
X91.407Y-93.515
X93.947Y-23.665
X93.947Y-31.285
X93.947Y-35.095
X93.947Y-50.335
X93.947Y-57.955
X93.947Y-65.575
X93.947Y-71.925
X93.947Y-79.545
X93.947Y-85.895
X93.947Y-93.515
X96.487Y-23.665
X96.487Y-31.285
X96.487Y-35.095
X96.487Y-50.335
X96.487Y-57.955
X96.487Y-65.575
X96.487Y-71.925
X96.487Y-79.545
X96.487Y-85.895
X96.487Y-93.515
X99.027Y-23.665
X99.027Y-31.285
X99.027Y-35.095
X99.027Y-50.335
X99.027Y-57.955
X99.027Y-65.575
X99.027Y-71.925
X99.027Y-79.545
X99.027Y-85.895
X99.027Y-93.515
X102.837Y-41.445
X102.837Y-43.985
X102.837Y-50.335
X102.837Y-56.685
X102.837Y-63.035
X102.837Y-69.385
X105.377Y-50.335
X105.377Y-56.685
X105.377Y-63.035
X105.377Y-69.385
X170.147Y-80.815
X170.147Y-83.355
X170.147Y-92.245
X170.147Y-94.785
X171.417Y-14.775
X171.417Y-22.395
X171.417Y-30.015
X171.417Y-37.635
X171.417Y-46.525
X171.417Y-54.145
X171.417Y-61.765
X171.417Y-69.385
X171.417Y-106.215
X172.687Y-120.185
X175.227Y-78.275
X175.227Y-85.895
X175.227Y-89.705
X175.227Y-97.325
X180.307Y-78.275
X180.307Y-85.895
X180.307Y-89.705
X180.307Y-97.325
X181.577Y-14.775
X181.577Y-22.395
X181.577Y-30.015
X181.577Y-37.635
X181.577Y-46.525
X181.577Y-54.145
X181.577Y-61.765
X181.577Y-69.385
X181.577Y-106.215
X182.847Y-78.275
X182.847Y-89.705
X182.847Y-120.185
X185.387Y-14.775
X185.387Y-22.395
X185.387Y-30.015
X185.387Y-37.635
X185.387Y-46.525
X185.387Y-54.145
X185.387Y-61.765
X185.387Y-69.385
X185.387Y-78.275
X185.387Y-85.895
X185.387Y-89.705
X185.387Y-97.325
X185.387Y-106.215
X187.927Y-14.775
X187.927Y-22.395
X187.927Y-30.015
X187.927Y-37.635
X187.927Y-46.525
X187.927Y-54.145
X187.927Y-61.765
X187.927Y-69.385
X187.927Y-78.275
X187.927Y-85.895
X187.927Y-89.705
X187.927Y-97.325
X187.927Y-106.215
X190.467Y-78.275
X190.467Y-85.895
X190.467Y-89.705
X190.467Y-97.325
X190.467Y-120.185
X193.007Y-120.185
T5
X88.549Y-101.135
X88.549Y-103.675
X88.549Y-106.215
X185.4Y-113.2
X187.94Y-113.2
T6
X31.0Y-17.8
X31.0Y-20.34
X31.0Y-67.5
X33.54Y-67.5
X36.08Y-67.5
X38.62Y-67.5
X52.74Y-14.5
X52.74Y-17.04
X55.28Y-14.5
X55.28Y-17.04
X57.82Y-14.5
X57.82Y-17.04
X60.36Y-14.5
X60.36Y-17.04
X62.9Y-14.5
X62.9Y-17.04
X65.44Y-14.5
X65.44Y-17.04
X67.98Y-14.5
X67.98Y-17.04
X70.52Y-14.5
X70.52Y-17.04
X73.06Y-14.5
X73.06Y-17.04
X75.6Y-14.5
X75.6Y-17.04
X78.14Y-14.5
X78.14Y-17.04
X80.68Y-14.5
X80.68Y-17.04
X83.22Y-14.5
X83.22Y-17.04
X85.76Y-14.5
X85.76Y-17.04
X88.3Y-14.5
X88.3Y-17.04
X90.84Y-14.5
X90.84Y-17.04
X93.38Y-14.5
X93.38Y-17.04
X95.92Y-14.5
X95.92Y-17.04
X98.46Y-14.5
X98.46Y-17.04
X101.0Y-14.5
X101.0Y-17.04
T7
X21.557Y-117.645
X21.557Y-120.185
X22.827Y-27.475
X22.827Y-30.015
X22.827Y-32.555
X22.827Y-35.095
X22.827Y-37.635
X22.827Y-40.175
X22.827Y-42.715
X22.827Y-45.255
X22.827Y-47.795
X22.827Y-50.335
X22.827Y-52.875
X22.827Y-55.415
X22.827Y-57.955
X22.827Y-60.495
X22.827Y-63.035
X22.827Y-65.575
X22.827Y-68.115
X22.827Y-70.655
X22.827Y-73.195
X22.827Y-75.735
X22.827Y-78.275
X22.827Y-80.815
X22.827Y-83.355
X22.827Y-85.895
X22.827Y-88.435
X22.827Y-90.975
X22.827Y-93.515
X22.827Y-96.055
X22.827Y-98.595
X22.827Y-101.135
X22.827Y-103.675
X22.827Y-106.215
X24.097Y-117.645
X24.097Y-120.185
X25.367Y-27.475
X25.367Y-30.015
X25.367Y-32.555
X25.367Y-35.095
X25.367Y-37.635
X25.367Y-40.175
X25.367Y-42.715
X25.367Y-45.255
X25.367Y-47.795
X25.367Y-50.335
X25.367Y-52.875
X25.367Y-55.415
X25.367Y-57.955
X25.367Y-60.495
X25.367Y-63.035
X25.367Y-65.575
X25.367Y-68.115
X25.367Y-70.655
X25.367Y-73.195
X25.367Y-75.735
X25.367Y-78.275
X25.367Y-80.815
X25.367Y-83.355
X25.367Y-85.895
X25.367Y-88.435
X25.367Y-90.975
X25.367Y-93.515
X25.367Y-96.055
X25.367Y-98.595
X25.367Y-101.135
X25.367Y-103.675
X25.367Y-106.215
X26.637Y-117.645
X26.637Y-120.185
X27.907Y-27.475
X27.907Y-30.015
X27.907Y-32.555
X27.907Y-35.095
X27.907Y-37.635
X27.907Y-40.175
X27.907Y-42.715
X27.907Y-45.255
X27.907Y-47.795
X27.907Y-50.335
X27.907Y-52.875
X27.907Y-55.415
X27.907Y-57.955
X27.907Y-60.495
X27.907Y-63.035
X27.907Y-65.575
X27.907Y-68.115
X27.907Y-70.655
X27.907Y-73.195
X27.907Y-75.735
X27.907Y-78.275
X27.907Y-80.815
X27.907Y-83.355
X27.907Y-85.895
X27.907Y-88.435
X27.907Y-90.975
X27.907Y-93.515
X27.907Y-96.055
X27.907Y-98.595
X27.907Y-101.135
X27.907Y-103.675
X27.907Y-106.215
X29.177Y-117.645
X29.177Y-120.185
X31.717Y-117.645
X31.717Y-120.185
X32.987Y-111.295
X32.987Y-113.835
X34.257Y-117.645
X34.257Y-120.185
X35.527Y-111.295
X35.527Y-113.835
X36.797Y-117.645
X36.797Y-120.185
X38.067Y-111.295
X38.067Y-113.835
X39.337Y-117.645
X39.337Y-120.185
X44.417Y-112.565
X46.957Y-112.565
X86.327Y-117.645
X86.327Y-120.185
X88.867Y-117.645
X88.867Y-120.185
X91.407Y-117.645
X91.407Y-120.185
X93.947Y-117.645
X93.947Y-120.185
X96.487Y-117.645
X96.487Y-120.185
X99.027Y-117.645
X99.027Y-120.185
X101.567Y-117.645
X101.567Y-120.185
X104.107Y-117.645
X104.107Y-120.185
X124.417Y-116.375
X124.417Y-118.915
X144.287Y-112.415
X145.677Y-115.255
X147.057Y-112.415
X147.287Y-102.405
X147.287Y-104.945
X148.447Y-115.255
X149.827Y-102.405
X149.827Y-104.945
X149.827Y-112.415
X151.207Y-115.255
X152.367Y-102.405
X152.367Y-104.945
X152.597Y-112.415
X153.977Y-115.255
X155.367Y-112.415
T8
X119.718Y-17.315
X119.718Y-27.475
X119.718Y-37.635
X119.718Y-47.795
X119.718Y-57.955
X119.718Y-68.115
X119.718Y-78.275
X119.718Y-88.435
X119.718Y-106.85
X124.417Y-17.315
X124.417Y-27.475
X124.417Y-37.635
X124.417Y-47.795
X124.417Y-57.955
X124.417Y-68.115
X124.417Y-78.275
X124.417Y-88.435
X124.417Y-106.85
X129.116Y-17.315
X129.116Y-27.475
X129.116Y-37.635
X129.116Y-47.795
X129.116Y-57.955
X129.116Y-68.115
X129.116Y-78.275
X129.116Y-88.435
X129.116Y-106.85
T9
X137.327Y-113.835
X162.327Y-113.835
T10
X20.287Y-22.389
X20.287Y-111.301
T11
X134.587Y-16.045
X134.587Y-90.965
X165.507Y-16.045
X165.507Y-90.965
M30
