%TF.GenerationSoftware,KiCad,Pcbnew,10.0.6*%
%TF.CreationDate,2026-09-24T00:43:21-04:00*%
%TF.ProjectId,io-v2.0,696f2d76-322e-4302-9e6b-696361645f70,rev?*%
%TF.SameCoordinates,Original*%
%TF.FileFunction,Soldermask,Bot*%
%TF.FilePolarity,Negative*%
%FSLAX46Y46*%
G04 Gerber Fmt 4.6, Leading zero omitted, Abs format (unit mm)*
G04 Created by KiCad (PCBNEW 10.0.6) date 2026-09-24 00:43:21*
%MOMM*%
%LPD*%
G01*
G04 APERTURE LIST*
G04 Aperture macros list*
%AMRoundRect*
0 Rectangle with rounded corners*
0 $1 Rounding radius*
0 $2 $3 $4 $5 $6 $7 $8 $9 X,Y pos of 4 corners*
0 Add a 4 corners polygon primitive as box body*
4,1,4,$2,$3,$4,$5,$6,$7,$8,$9,$2,$3,0*
0 Add four circle primitives for the rounded corners*
1,1,$1+$1,$2,$3*
1,1,$1+$1,$4,$5*
1,1,$1+$1,$6,$7*
1,1,$1+$1,$8,$9*
0 Add four rect primitives between the rounded corners*
20,1,$1+$1,$2,$3,$4,$5,0*
20,1,$1+$1,$4,$5,$6,$7,0*
20,1,$1+$1,$6,$7,$8,$9,0*
20,1,$1+$1,$8,$9,$2,$3,0*%
%AMFreePoly0*
4,1,17,0.339490,0.756101,0.756101,0.339490,0.774700,0.294589,0.774700,-0.294589,0.756101,-0.339490,0.339490,-0.756101,0.294589,-0.774700,-0.294589,-0.774700,-0.339490,-0.756101,-0.756101,-0.339490,-0.774700,-0.294589,-0.774700,0.294589,-0.756101,0.339490,-0.339490,0.756101,-0.294589,0.774700,0.294589,0.774700,0.339490,0.756101,0.339490,0.756101,$1*%
%AMFreePoly1*
4,1,17,0.392095,0.883101,0.883101,0.392095,0.901700,0.347194,0.901700,-0.347194,0.883101,-0.392095,0.392095,-0.883101,0.347194,-0.901700,-0.347194,-0.901700,-0.392095,-0.883101,-0.883101,-0.392095,-0.901700,-0.347194,-0.901700,0.347194,-0.883101,0.392095,-0.392095,0.883101,-0.347194,0.901700,0.347194,0.901700,0.392095,0.883101,0.392095,0.883101,$1*%
%AMFreePoly2*
4,1,17,0.297406,0.654501,0.654501,0.297406,0.673100,0.252505,0.673100,-0.252505,0.654501,-0.297406,0.297406,-0.654501,0.252505,-0.673100,-0.252505,-0.673100,-0.297406,-0.654501,-0.654501,-0.297406,-0.673100,-0.252505,-0.673100,0.252505,-0.654501,0.297406,-0.297406,0.654501,-0.252505,0.673100,0.252505,0.673100,0.297406,0.654501,0.297406,0.654501,$1*%
%AMFreePoly3*
4,1,17,0.371053,0.832301,0.832301,0.371053,0.850900,0.326152,0.850900,-0.326152,0.832301,-0.371053,0.371053,-0.832301,0.326152,-0.850900,-0.326152,-0.850900,-0.371053,-0.832301,-0.832301,-0.371053,-0.850900,-0.326152,-0.850900,0.326152,-0.832301,0.371053,-0.371053,0.832301,-0.326152,0.850900,0.326152,0.850900,0.371053,0.832301,0.371053,0.832301,$1*%
%AMFreePoly4*
4,1,17,0.360532,0.806901,0.806901,0.360532,0.825500,0.315631,0.825500,-0.315631,0.806901,-0.360532,0.360532,-0.806901,0.315631,-0.825500,-0.315631,-0.825500,-0.360532,-0.806901,-0.806901,-0.360532,-0.825500,-0.315631,-0.825500,0.315631,-0.806901,0.360532,-0.360532,0.806901,-0.315631,0.825500,0.315631,0.825500,0.360532,0.806901,0.360532,0.806901,$1*%
G04 Aperture macros list end*
%ADD10R,1.600000X1.600000*%
%ADD11C,1.600000*%
%ADD12FreePoly0,90.000000*%
%ADD13O,2.832100X5.537200*%
%ADD14RoundRect,0.250000X-0.550000X-0.550000X0.550000X-0.550000X0.550000X0.550000X-0.550000X0.550000X0*%
%ADD15FreePoly1,0.000000*%
%ADD16C,3.054000*%
%ADD17O,2.527000X1.327000*%
%ADD18FreePoly2,180.000000*%
%ADD19C,1.701800*%
%ADD20FreePoly3,0.000000*%
%ADD21O,1.346200X2.565400*%
%ADD22FreePoly4,0.000000*%
%ADD23O,1.651000X3.175000*%
%ADD24RoundRect,0.063500X-0.525000X-0.525000X0.525000X-0.525000X0.525000X0.525000X-0.525000X0.525000X0*%
%ADD25C,1.177000*%
%ADD26C,1.905000*%
%ADD27R,1.700000X1.700000*%
%ADD28C,1.700000*%
%ADD29FreePoly4,180.000000*%
%ADD30C,3.048000*%
%ADD31R,1.800000X1.800000*%
%ADD32C,1.800000*%
%ADD33O,3.175000X1.651000*%
%ADD34RoundRect,0.063500X0.939800X0.939800X-0.939800X0.939800X-0.939800X-0.939800X0.939800X-0.939800X0*%
%ADD35C,2.006600*%
%ADD36C,5.207000*%
%ADD37RoundRect,0.250000X-0.600000X0.600000X-0.600000X-0.600000X0.600000X-0.600000X0.600000X0.600000X0*%
G04 APERTURE END LIST*
D10*
%TO.C,RN3*%
X21500000Y-14300000D03*
D11*
X24040000Y-14300000D03*
X26580000Y-14300000D03*
X29120000Y-14300000D03*
X31660000Y-14300000D03*
X34200000Y-14300000D03*
X36740000Y-14300000D03*
X39280000Y-14300000D03*
X41820000Y-14300000D03*
%TD*%
D12*
%TO.C,C15*%
X73627000Y-28745000D03*
X73627000Y-26205000D03*
%TD*%
D13*
%TO.C,S1*%
X119718000Y-78275000D03*
X124417000Y-78275000D03*
X129116000Y-78275000D03*
%TD*%
D14*
%TO.C,IC13*%
X108300000Y-44000000D03*
D11*
X108300000Y-46540000D03*
X108300000Y-49080000D03*
X108300000Y-51620000D03*
X108300000Y-54160000D03*
X108300000Y-56700000D03*
X108300000Y-59240000D03*
X108300000Y-61780000D03*
X115920000Y-61780000D03*
X115920000Y-59240000D03*
X115920000Y-56700000D03*
X115920000Y-54160000D03*
X115920000Y-51620000D03*
X115920000Y-49080000D03*
X115920000Y-46540000D03*
X115920000Y-44000000D03*
%TD*%
D15*
%TO.C,UNK5*%
X185387000Y-30015000D03*
X187927000Y-30015000D03*
%TD*%
D13*
%TO.C,S0*%
X119718000Y-88435000D03*
X124417000Y-88435000D03*
X129116000Y-88435000D03*
%TD*%
D16*
%TO.C,X2*%
X165507000Y-16045000D03*
X134587000Y-16045000D03*
X165507000Y-90965000D03*
X134587000Y-90965000D03*
D17*
X165507000Y-21505000D03*
X165507000Y-24045000D03*
X165507000Y-26585000D03*
X165507000Y-29125000D03*
X165507000Y-31665000D03*
X165507000Y-34205000D03*
X165507000Y-36745000D03*
X165507000Y-39285000D03*
X165507000Y-41825000D03*
X165507000Y-44365000D03*
X165507000Y-46905000D03*
X165507000Y-49445000D03*
X165507000Y-51985000D03*
X165507000Y-54525000D03*
X165507000Y-57065000D03*
X165507000Y-59605000D03*
%TD*%
D15*
%TO.C,UNK2*%
X185387000Y-54145000D03*
X187927000Y-54145000D03*
%TD*%
D18*
%TO.C,PWR0*%
X193007000Y-120185000D03*
X190467000Y-120185000D03*
%TD*%
D19*
%TO.C,C3*%
X102837000Y-69385000D03*
D20*
X105377000Y-69385000D03*
%TD*%
D18*
%TO.C,R6*%
X181577000Y-46525000D03*
X171417000Y-46525000D03*
%TD*%
D21*
%TO.C,IC4*%
X50767000Y-65575000D03*
X53307000Y-65575000D03*
X55847000Y-65575000D03*
X58387000Y-65575000D03*
X60927000Y-65575000D03*
X63467000Y-65575000D03*
X66007000Y-65575000D03*
X68547000Y-65575000D03*
X71087000Y-65575000D03*
X73627000Y-65575000D03*
X73627000Y-57955000D03*
X71087000Y-57955000D03*
X68547000Y-57955000D03*
X66007000Y-57955000D03*
X63467000Y-57955000D03*
X60927000Y-57955000D03*
X58387000Y-57955000D03*
X55847000Y-57955000D03*
X53307000Y-57955000D03*
X50767000Y-57955000D03*
%TD*%
D22*
%TO.C,JP1*%
X147287000Y-104945000D03*
X147287000Y-102405000D03*
X149827000Y-104945000D03*
X149827000Y-102405000D03*
X152367000Y-104945000D03*
X152367000Y-102405000D03*
%TD*%
D23*
%TO.C,INT0*%
X44417000Y-112565000D03*
X46957000Y-112565000D03*
%TD*%
D13*
%TO.C,S4*%
X119718000Y-47795000D03*
X124417000Y-47795000D03*
X129116000Y-47795000D03*
%TD*%
D14*
%TO.C,IC15*%
X108300000Y-14000000D03*
D11*
X108300000Y-16540000D03*
X108300000Y-19080000D03*
X108300000Y-21620000D03*
X108300000Y-24160000D03*
X108300000Y-26700000D03*
X108300000Y-29240000D03*
X108300000Y-31780000D03*
X108300000Y-34320000D03*
X108300000Y-36860000D03*
X115920000Y-36860000D03*
X115920000Y-34320000D03*
X115920000Y-31780000D03*
X115920000Y-29240000D03*
X115920000Y-26700000D03*
X115920000Y-24160000D03*
X115920000Y-21620000D03*
X115920000Y-19080000D03*
X115920000Y-16540000D03*
X115920000Y-14000000D03*
%TD*%
D21*
%TO.C,HI0*%
X190467000Y-78275000D03*
X187927000Y-78275000D03*
X185387000Y-78275000D03*
X182847000Y-78275000D03*
X180307000Y-78275000D03*
X175227000Y-78275000D03*
X175227000Y-85895000D03*
X180307000Y-85895000D03*
X185387000Y-85895000D03*
X187927000Y-85895000D03*
X190467000Y-85895000D03*
%TD*%
D12*
%TO.C,C8*%
X78707000Y-63035000D03*
X78707000Y-60495000D03*
%TD*%
D21*
%TO.C,IC11*%
X36797000Y-79545000D03*
X39337000Y-79545000D03*
X41877000Y-79545000D03*
X44417000Y-79545000D03*
X46957000Y-79545000D03*
X49497000Y-79545000D03*
X52037000Y-79545000D03*
X52037000Y-71925000D03*
X49497000Y-71925000D03*
X46957000Y-71925000D03*
X44417000Y-71925000D03*
X41877000Y-71925000D03*
X39337000Y-71925000D03*
X36797000Y-71925000D03*
%TD*%
D18*
%TO.C,R4*%
X181577000Y-61765000D03*
X171417000Y-61765000D03*
%TD*%
D13*
%TO.C,S5*%
X119718000Y-37635000D03*
X124417000Y-37635000D03*
X129116000Y-37635000D03*
%TD*%
D11*
%TO.C,C19*%
X108800000Y-65000000D03*
X113800000Y-65000000D03*
%TD*%
D18*
%TO.C,R2*%
X182847000Y-120185000D03*
X172687000Y-120185000D03*
%TD*%
D19*
%TO.C,C4*%
X102837000Y-50335000D03*
D20*
X105377000Y-50335000D03*
%TD*%
D24*
%TO.C,Y1*%
X35527000Y-46525000D03*
D25*
X43147000Y-46525000D03*
X43147000Y-38905000D03*
X35527000Y-38905000D03*
%TD*%
D21*
%TO.C,IC6*%
X62197000Y-93515000D03*
X64737000Y-93515000D03*
X67277000Y-93515000D03*
X69817000Y-93515000D03*
X72357000Y-93515000D03*
X74897000Y-93515000D03*
X77437000Y-93515000D03*
X77437000Y-85895000D03*
X74897000Y-85895000D03*
X72357000Y-85895000D03*
X69817000Y-85895000D03*
X67277000Y-85895000D03*
X64737000Y-85895000D03*
X62197000Y-85895000D03*
%TD*%
D13*
%TO.C,S2*%
X119718000Y-68115000D03*
X124417000Y-68115000D03*
X129116000Y-68115000D03*
%TD*%
D21*
%TO.C,IC5*%
X58387000Y-79545000D03*
X60927000Y-79545000D03*
X63467000Y-79545000D03*
X66007000Y-79545000D03*
X68547000Y-79545000D03*
X71087000Y-79545000D03*
X73627000Y-79545000D03*
X76167000Y-79545000D03*
X76167000Y-71925000D03*
X73627000Y-71925000D03*
X71087000Y-71925000D03*
X68547000Y-71925000D03*
X66007000Y-71925000D03*
X63467000Y-71925000D03*
X60927000Y-71925000D03*
X58387000Y-71925000D03*
%TD*%
D13*
%TO.C,S6*%
X119718000Y-27475000D03*
X124417000Y-27475000D03*
X129116000Y-27475000D03*
%TD*%
D12*
%TO.C,C17*%
X34257000Y-77005000D03*
X34257000Y-74465000D03*
%TD*%
D26*
%TO.C,TM1*%
X88549500Y-101135000D03*
X88549500Y-103675000D03*
X88549500Y-106215000D03*
%TD*%
D18*
%TO.C,R8*%
X181577000Y-30015000D03*
X171417000Y-30015000D03*
%TD*%
D19*
%TO.C,C1*%
X102837000Y-56685000D03*
D20*
X105377000Y-56685000D03*
%TD*%
D27*
%TO.C,J3*%
X31000000Y-67500000D03*
D28*
X33540000Y-67500000D03*
X36080000Y-67500000D03*
X38620000Y-67500000D03*
%TD*%
D21*
%TO.C,IC10*%
X76167000Y-31285000D03*
X78707000Y-31285000D03*
X81247000Y-31285000D03*
X83787000Y-31285000D03*
X86327000Y-31285000D03*
X88867000Y-31285000D03*
X91407000Y-31285000D03*
X93947000Y-31285000D03*
X96487000Y-31285000D03*
X99027000Y-31285000D03*
X99027000Y-23665000D03*
X96487000Y-23665000D03*
X93947000Y-23665000D03*
X91407000Y-23665000D03*
X88867000Y-23665000D03*
X86327000Y-23665000D03*
X83787000Y-23665000D03*
X81247000Y-23665000D03*
X78707000Y-23665000D03*
X76167000Y-23665000D03*
%TD*%
D15*
%TO.C,UNK6*%
X185387000Y-22395000D03*
X187927000Y-22395000D03*
%TD*%
D11*
%TO.C,R15*%
X172000000Y-113200000D03*
X182160000Y-113200000D03*
%TD*%
D14*
%TO.C,C22*%
X42800000Y-67500000D03*
D11*
X44800000Y-67500000D03*
%TD*%
D18*
%TO.C,R10*%
X181577000Y-14775000D03*
X171417000Y-14775000D03*
%TD*%
D21*
%TO.C,IC7*%
X83787000Y-93515000D03*
X86327000Y-93515000D03*
X88867000Y-93515000D03*
X91407000Y-93515000D03*
X93947000Y-93515000D03*
X96487000Y-93515000D03*
X99027000Y-93515000D03*
X99027000Y-85895000D03*
X96487000Y-85895000D03*
X93947000Y-85895000D03*
X91407000Y-85895000D03*
X88867000Y-85895000D03*
X86327000Y-85895000D03*
X83787000Y-85895000D03*
%TD*%
D29*
%TO.C,DATA-ADDR0*%
X104107000Y-117645000D03*
X104107000Y-120185000D03*
X101567000Y-117645000D03*
X101567000Y-120185000D03*
X99027000Y-117645000D03*
X99027000Y-120185000D03*
X96487000Y-117645000D03*
X96487000Y-120185000D03*
X93947000Y-117645000D03*
X93947000Y-120185000D03*
X91407000Y-117645000D03*
X91407000Y-120185000D03*
X88867000Y-117645000D03*
X88867000Y-120185000D03*
X86327000Y-117645000D03*
X86327000Y-120185000D03*
%TD*%
D11*
%TO.C,C18*%
X108800000Y-86600000D03*
X113800000Y-86600000D03*
%TD*%
D13*
%TO.C,S7*%
X119718000Y-17315000D03*
X124417000Y-17315000D03*
X129116000Y-17315000D03*
%TD*%
D21*
%TO.C,IC9*%
X54577000Y-107485000D03*
X57117000Y-107485000D03*
X59657000Y-107485000D03*
X62197000Y-107485000D03*
X64737000Y-107485000D03*
X67277000Y-107485000D03*
X69817000Y-107485000D03*
X72357000Y-107485000D03*
X74897000Y-107485000D03*
X77437000Y-107485000D03*
X77437000Y-99865000D03*
X74897000Y-99865000D03*
X72357000Y-99865000D03*
X69817000Y-99865000D03*
X67277000Y-99865000D03*
X64737000Y-99865000D03*
X62197000Y-99865000D03*
X59657000Y-99865000D03*
X57117000Y-99865000D03*
X54577000Y-99865000D03*
%TD*%
D12*
%TO.C,C11*%
X81247000Y-90975000D03*
X81247000Y-88435000D03*
%TD*%
D11*
%TO.C,C21*%
X108800000Y-40200000D03*
X113800000Y-40200000D03*
%TD*%
D15*
%TO.C,UNK0*%
X185387000Y-69385000D03*
X187927000Y-69385000D03*
%TD*%
D21*
%TO.C,IC1*%
X50767000Y-50335000D03*
X53307000Y-50335000D03*
X55847000Y-50335000D03*
X58387000Y-50335000D03*
X60927000Y-50335000D03*
X63467000Y-50335000D03*
X66007000Y-50335000D03*
X68547000Y-50335000D03*
X71087000Y-50335000D03*
X73627000Y-50335000D03*
X76167000Y-50335000D03*
X78707000Y-50335000D03*
X81247000Y-50335000D03*
X83787000Y-50335000D03*
X86327000Y-50335000D03*
X88867000Y-50335000D03*
X91407000Y-50335000D03*
X93947000Y-50335000D03*
X96487000Y-50335000D03*
X99027000Y-50335000D03*
X99027000Y-35095000D03*
X96487000Y-35095000D03*
X93947000Y-35095000D03*
X91407000Y-35095000D03*
X88867000Y-35095000D03*
X86327000Y-35095000D03*
X83787000Y-35095000D03*
X81247000Y-35095000D03*
X78707000Y-35095000D03*
X76167000Y-35095000D03*
X73627000Y-35095000D03*
X71087000Y-35095000D03*
X68547000Y-35095000D03*
X66007000Y-35095000D03*
X63467000Y-35095000D03*
X60927000Y-35095000D03*
X58387000Y-35095000D03*
X55847000Y-35095000D03*
X53307000Y-35095000D03*
X50767000Y-35095000D03*
%TD*%
D30*
%TO.C,X1*%
X20287000Y-111301400D03*
X20287000Y-22388600D03*
D29*
X22827000Y-106215000D03*
X22827000Y-103675000D03*
X22827000Y-101135000D03*
X22827000Y-98595000D03*
X22827000Y-96055000D03*
X22827000Y-93515000D03*
X22827000Y-90975000D03*
X22827000Y-88435000D03*
X22827000Y-85895000D03*
X22827000Y-83355000D03*
X22827000Y-80815000D03*
X22827000Y-78275000D03*
X22827000Y-75735000D03*
X22827000Y-73195000D03*
X22827000Y-70655000D03*
X22827000Y-68115000D03*
X22827000Y-65575000D03*
X22827000Y-63035000D03*
X22827000Y-60495000D03*
X22827000Y-57955000D03*
X22827000Y-55415000D03*
X22827000Y-52875000D03*
X22827000Y-50335000D03*
X22827000Y-47795000D03*
X22827000Y-45255000D03*
X22827000Y-42715000D03*
X22827000Y-40175000D03*
X22827000Y-37635000D03*
X22827000Y-35095000D03*
X22827000Y-32555000D03*
X22827000Y-30015000D03*
X22827000Y-27475000D03*
X25367000Y-106215000D03*
X25367000Y-103675000D03*
X25367000Y-101135000D03*
X25367000Y-98595000D03*
X25367000Y-96055000D03*
X25367000Y-93515000D03*
X25367000Y-90975000D03*
X25367000Y-88435000D03*
X25367000Y-85895000D03*
X25367000Y-83355000D03*
X25367000Y-80815000D03*
X25367000Y-78275000D03*
X25367000Y-75735000D03*
X25367000Y-73195000D03*
X25367000Y-70655000D03*
X25367000Y-68115000D03*
X25367000Y-65575000D03*
X25367000Y-63035000D03*
X25367000Y-60495000D03*
X25367000Y-57955000D03*
X25367000Y-55415000D03*
X25367000Y-52875000D03*
X25367000Y-50335000D03*
X25367000Y-47795000D03*
X25367000Y-45255000D03*
X25367000Y-42715000D03*
X25367000Y-40175000D03*
X25367000Y-37635000D03*
X25367000Y-35095000D03*
X25367000Y-32555000D03*
X25367000Y-30015000D03*
X25367000Y-27475000D03*
X27907000Y-106215000D03*
X27907000Y-103675000D03*
X27907000Y-101135000D03*
X27907000Y-98595000D03*
X27907000Y-96055000D03*
X27907000Y-93515000D03*
X27907000Y-90975000D03*
X27907000Y-88435000D03*
X27907000Y-85895000D03*
X27907000Y-83355000D03*
X27907000Y-80815000D03*
X27907000Y-78275000D03*
X27907000Y-75735000D03*
X27907000Y-73195000D03*
X27907000Y-70655000D03*
X27907000Y-68115000D03*
X27907000Y-65575000D03*
X27907000Y-63035000D03*
X27907000Y-60495000D03*
X27907000Y-57955000D03*
X27907000Y-55415000D03*
X27907000Y-52875000D03*
X27907000Y-50335000D03*
X27907000Y-47795000D03*
X27907000Y-45255000D03*
X27907000Y-42715000D03*
X27907000Y-40175000D03*
X27907000Y-37635000D03*
X27907000Y-35095000D03*
X27907000Y-32555000D03*
X27907000Y-30015000D03*
X27907000Y-27475000D03*
%TD*%
D22*
%TO.C,IO-ADDR-HL0*%
X32987000Y-113835000D03*
X32987000Y-111295000D03*
X35527000Y-113835000D03*
X35527000Y-111295000D03*
X38067000Y-113835000D03*
X38067000Y-111295000D03*
%TD*%
D15*
%TO.C,UNK4*%
X185387000Y-37635000D03*
X187927000Y-37635000D03*
%TD*%
D29*
%TO.C,IO-ADDR0*%
X39337000Y-117645000D03*
X39337000Y-120185000D03*
X36797000Y-117645000D03*
X36797000Y-120185000D03*
X34257000Y-117645000D03*
X34257000Y-120185000D03*
X31717000Y-117645000D03*
X31717000Y-120185000D03*
X29177000Y-117645000D03*
X29177000Y-120185000D03*
X26637000Y-117645000D03*
X26637000Y-120185000D03*
X24097000Y-117645000D03*
X24097000Y-120185000D03*
X21557000Y-117645000D03*
X21557000Y-120185000D03*
%TD*%
D27*
%TO.C,JP2*%
X31000000Y-17800000D03*
D28*
X31000000Y-20340000D03*
%TD*%
D21*
%TO.C,IC3*%
X40607000Y-31285000D03*
X43147000Y-31285000D03*
X45687000Y-31285000D03*
X48227000Y-31285000D03*
X50767000Y-31285000D03*
X53307000Y-31285000D03*
X55847000Y-31285000D03*
X58387000Y-31285000D03*
X60927000Y-31285000D03*
X63467000Y-31285000D03*
X63467000Y-23665000D03*
X60927000Y-23665000D03*
X58387000Y-23665000D03*
X55847000Y-23665000D03*
X53307000Y-23665000D03*
X50767000Y-23665000D03*
X48227000Y-23665000D03*
X45687000Y-23665000D03*
X43147000Y-23665000D03*
X40607000Y-23665000D03*
%TD*%
D12*
%TO.C,C7*%
X102837000Y-43985000D03*
X102837000Y-41445000D03*
%TD*%
D11*
%TO.C,R13*%
X31000000Y-59200000D03*
X41160000Y-59200000D03*
%TD*%
%TO.C,R11*%
X31000000Y-53000000D03*
X41160000Y-53000000D03*
%TD*%
D31*
%TO.C,LED1*%
X185400000Y-113200000D03*
D32*
X187940000Y-113200000D03*
%TD*%
D12*
%TO.C,C10*%
X81247000Y-77005000D03*
X81247000Y-74465000D03*
%TD*%
D14*
%TO.C,IC14*%
X108300000Y-89800000D03*
D11*
X108300000Y-92340000D03*
X108300000Y-94880000D03*
X108300000Y-97420000D03*
X108300000Y-99960000D03*
X108300000Y-102500000D03*
X108300000Y-105040000D03*
X115920000Y-105040000D03*
X115920000Y-102500000D03*
X115920000Y-99960000D03*
X115920000Y-97420000D03*
X115920000Y-94880000D03*
X115920000Y-92340000D03*
X115920000Y-89800000D03*
%TD*%
D18*
%TO.C,R5*%
X181577000Y-54145000D03*
X171417000Y-54145000D03*
%TD*%
D11*
%TO.C,R14*%
X31000000Y-62300000D03*
X41160000Y-62300000D03*
%TD*%
D33*
%TO.C,INPUT0*%
X124417000Y-118915000D03*
X124417000Y-116375000D03*
%TD*%
D18*
%TO.C,R7*%
X181577000Y-37635000D03*
X171417000Y-37635000D03*
%TD*%
D21*
%TO.C,IC2*%
X81247000Y-65575000D03*
X83787000Y-65575000D03*
X86327000Y-65575000D03*
X88867000Y-65575000D03*
X91407000Y-65575000D03*
X93947000Y-65575000D03*
X96487000Y-65575000D03*
X99027000Y-65575000D03*
X99027000Y-57955000D03*
X96487000Y-57955000D03*
X93947000Y-57955000D03*
X91407000Y-57955000D03*
X88867000Y-57955000D03*
X86327000Y-57955000D03*
X83787000Y-57955000D03*
X81247000Y-57955000D03*
%TD*%
%TO.C,IC8*%
X83787000Y-79545000D03*
X86327000Y-79545000D03*
X88867000Y-79545000D03*
X91407000Y-79545000D03*
X93947000Y-79545000D03*
X96487000Y-79545000D03*
X99027000Y-79545000D03*
X99027000Y-71925000D03*
X96487000Y-71925000D03*
X93947000Y-71925000D03*
X91407000Y-71925000D03*
X88867000Y-71925000D03*
X86327000Y-71925000D03*
X83787000Y-71925000D03*
%TD*%
D15*
%TO.C,UNK1*%
X185387000Y-61765000D03*
X187927000Y-61765000D03*
%TD*%
D18*
%TO.C,R3*%
X181577000Y-69385000D03*
X171417000Y-69385000D03*
%TD*%
D12*
%TO.C,C12*%
X59657000Y-90975000D03*
X59657000Y-88435000D03*
%TD*%
D21*
%TO.C,LO0*%
X190467000Y-89705000D03*
X187927000Y-89705000D03*
X185387000Y-89705000D03*
X182847000Y-89705000D03*
X180307000Y-89705000D03*
X175227000Y-89705000D03*
X175227000Y-97325000D03*
X180307000Y-97325000D03*
X185387000Y-97325000D03*
X187927000Y-97325000D03*
X190467000Y-97325000D03*
%TD*%
D15*
%TO.C,OUT0*%
X185387000Y-106215000D03*
X187927000Y-106215000D03*
%TD*%
D34*
%TO.C,J1*%
X155367000Y-112415000D03*
D35*
X152597000Y-112415000D03*
X149827000Y-112415000D03*
X147057000Y-112415000D03*
X144287000Y-112415000D03*
X153977000Y-115255000D03*
X151207000Y-115255000D03*
X148447000Y-115255000D03*
X145677000Y-115255000D03*
D36*
X162327000Y-113835000D03*
X137327000Y-113835000D03*
%TD*%
D12*
%TO.C,C5*%
X170147000Y-83355000D03*
X170147000Y-80815000D03*
%TD*%
%TO.C,C13*%
X52037000Y-104945000D03*
X52037000Y-102405000D03*
%TD*%
D37*
%TO.C,J2*%
X101000000Y-14500000D03*
D28*
X101000000Y-17040000D03*
X98460000Y-14500000D03*
X98460000Y-17040000D03*
X95920000Y-14500000D03*
X95920000Y-17040000D03*
X93380000Y-14500000D03*
X93380000Y-17040000D03*
X90840000Y-14500000D03*
X90840000Y-17040000D03*
X88300000Y-14500000D03*
X88300000Y-17040000D03*
X85760000Y-14500000D03*
X85760000Y-17040000D03*
X83220000Y-14500000D03*
X83220000Y-17040000D03*
X80680000Y-14500000D03*
X80680000Y-17040000D03*
X78140000Y-14500000D03*
X78140000Y-17040000D03*
X75600000Y-14500000D03*
X75600000Y-17040000D03*
X73060000Y-14500000D03*
X73060000Y-17040000D03*
X70520000Y-14500000D03*
X70520000Y-17040000D03*
X67980000Y-14500000D03*
X67980000Y-17040000D03*
X65440000Y-14500000D03*
X65440000Y-17040000D03*
X62900000Y-14500000D03*
X62900000Y-17040000D03*
X60360000Y-14500000D03*
X60360000Y-17040000D03*
X57820000Y-14500000D03*
X57820000Y-17040000D03*
X55280000Y-14500000D03*
X55280000Y-17040000D03*
X52740000Y-14500000D03*
X52740000Y-17040000D03*
%TD*%
D18*
%TO.C,R9*%
X181577000Y-22395000D03*
X171417000Y-22395000D03*
%TD*%
D12*
%TO.C,C6*%
X170147000Y-94785000D03*
X170147000Y-92245000D03*
%TD*%
D13*
%TO.C,S3*%
X119718000Y-57955000D03*
X124417000Y-57955000D03*
X129116000Y-57955000D03*
%TD*%
D21*
%TO.C,RN2*%
X58387000Y-115105000D03*
X60927000Y-115105000D03*
X63467000Y-115105000D03*
X66007000Y-115105000D03*
X68547000Y-115105000D03*
X71087000Y-115105000D03*
X73627000Y-115105000D03*
%TD*%
D11*
%TO.C,C20*%
X108800000Y-108300000D03*
X113800000Y-108300000D03*
%TD*%
D15*
%TO.C,UNK3*%
X185387000Y-46525000D03*
X187927000Y-46525000D03*
%TD*%
D19*
%TO.C,C2*%
X102837000Y-63035000D03*
D20*
X105377000Y-63035000D03*
%TD*%
D13*
%TO.C,IN0*%
X119718000Y-106850000D03*
X124417000Y-106850000D03*
X129116000Y-106850000D03*
%TD*%
D12*
%TO.C,C14*%
X48227000Y-63035000D03*
X48227000Y-60495000D03*
%TD*%
%TO.C,C16*%
X38067000Y-28745000D03*
X38067000Y-26205000D03*
%TD*%
D11*
%TO.C,R12*%
X31000000Y-56100000D03*
X41160000Y-56100000D03*
%TD*%
D18*
%TO.C,R1*%
X181577000Y-106215000D03*
X171417000Y-106215000D03*
%TD*%
D15*
%TO.C,UNK7*%
X185387000Y-14775000D03*
X187927000Y-14775000D03*
%TD*%
D12*
%TO.C,C9*%
X55847000Y-77005000D03*
X55847000Y-74465000D03*
%TD*%
D14*
%TO.C,IC12*%
X108300000Y-68200000D03*
D11*
X108300000Y-70740000D03*
X108300000Y-73280000D03*
X108300000Y-75820000D03*
X108300000Y-78360000D03*
X108300000Y-80900000D03*
X108300000Y-83440000D03*
X115920000Y-83440000D03*
X115920000Y-80900000D03*
X115920000Y-78360000D03*
X115920000Y-75820000D03*
X115920000Y-73280000D03*
X115920000Y-70740000D03*
X115920000Y-68200000D03*
%TD*%
M02*
