%TF.GenerationSoftware,KiCad,Pcbnew,10.0.6*%
%TF.CreationDate,2026-09-24T00:43:21-04:00*%
%TF.ProjectId,io-v2.0,696f2d76-322e-4302-9e6b-696361645f70,rev?*%
%TF.SameCoordinates,Original*%
%TF.FileFunction,Copper,L1,Top*%
%TF.FilePolarity,Positive*%
%FSLAX46Y46*%
G04 Gerber Fmt 4.6, Leading zero omitted, Abs format (unit mm)*
G04 Created by KiCad (PCBNEW 10.0.6) date 2026-09-24 00:43:21*
%MOMM*%
%LPD*%
G01*
G04 APERTURE LIST*
G04 Aperture macros list*
%AMRoundRect*
0 Rectangle with rounded corners*
0 $1 Rounding radius*
0 $2 $3 $4 $5 $6 $7 $8 $9 X,Y pos of 4 corners*
0 Add a 4 corners polygon primitive as box body*
4,1,4,$2,$3,$4,$5,$6,$7,$8,$9,$2,$3,0*
0 Add four circle primitives for the rounded corners*
1,1,$1+$1,$2,$3*
1,1,$1+$1,$4,$5*
1,1,$1+$1,$6,$7*
1,1,$1+$1,$8,$9*
0 Add four rect primitives between the rounded corners*
20,1,$1+$1,$2,$3,$4,$5,0*
20,1,$1+$1,$4,$5,$6,$7,0*
20,1,$1+$1,$6,$7,$8,$9,0*
20,1,$1+$1,$8,$9,$2,$3,0*%
%AMOutline5P*
0 Free polygon, 5 corners , with rotation*
0 The origin of the aperture is its center*
0 number of corners: always 5*
0 $1 to $10 corner X, Y*
0 $11 Rotation angle, in degrees counterclockwise*
0 create outline with 5 corners*
4,1,5,$1,$2,$3,$4,$5,$6,$7,$8,$9,$10,$1,$2,$11*%
%AMOutline6P*
0 Free polygon, 6 corners , with rotation*
0 The origin of the aperture is its center*
0 number of corners: always 6*
0 $1 to $12 corner X, Y*
0 $13 Rotation angle, in degrees counterclockwise*
0 create outline with 6 corners*
4,1,6,$1,$2,$3,$4,$5,$6,$7,$8,$9,$10,$11,$12,$1,$2,$13*%
%AMOutline7P*
0 Free polygon, 7 corners , with rotation*
0 The origin of the aperture is its center*
0 number of corners: always 7*
0 $1 to $14 corner X, Y*
0 $15 Rotation angle, in degrees counterclockwise*
0 create outline with 7 corners*
4,1,7,$1,$2,$3,$4,$5,$6,$7,$8,$9,$10,$11,$12,$13,$14,$1,$2,$15*%
%AMOutline8P*
0 Free polygon, 8 corners , with rotation*
0 The origin of the aperture is its center*
0 number of corners: always 8*
0 $1 to $16 corner X, Y*
0 $17 Rotation angle, in degrees counterclockwise*
0 create outline with 8 corners*
4,1,8,$1,$2,$3,$4,$5,$6,$7,$8,$9,$10,$11,$12,$13,$14,$15,$16,$1,$2,$17*%
G04 Aperture macros list end*
%TA.AperFunction,ComponentPad*%
%ADD10R,1.600000X1.600000*%
%TD*%
%TA.AperFunction,ComponentPad*%
%ADD11C,1.600000*%
%TD*%
%TA.AperFunction,ComponentPad*%
%ADD12Outline8P,-0.711200X0.294589X-0.294589X0.711200X0.294589X0.711200X0.711200X0.294589X0.711200X-0.294589X0.294589X-0.711200X-0.294589X-0.711200X-0.711200X-0.294589X90.000000*%
%TD*%
%TA.AperFunction,ComponentPad*%
%ADD13O,2.705100X5.410200*%
%TD*%
%TA.AperFunction,ComponentPad*%
%ADD14RoundRect,0.250000X-0.550000X-0.550000X0.550000X-0.550000X0.550000X0.550000X-0.550000X0.550000X0*%
%TD*%
%TA.AperFunction,ComponentPad*%
%ADD15Outline8P,-0.838200X0.347194X-0.347194X0.838200X0.347194X0.838200X0.838200X0.347194X0.838200X-0.347194X0.347194X-0.838200X-0.347194X-0.838200X-0.838200X-0.347194X0.000000*%
%TD*%
%TA.AperFunction,WasherPad*%
%ADD16C,3.054000*%
%TD*%
%TA.AperFunction,ComponentPad*%
%ADD17O,2.400000X1.200000*%
%TD*%
%TA.AperFunction,ComponentPad*%
%ADD18Outline8P,-0.609600X0.252505X-0.252505X0.609600X0.252505X0.609600X0.609600X0.252505X0.609600X-0.252505X0.252505X-0.609600X-0.252505X-0.609600X-0.609600X-0.252505X180.000000*%
%TD*%
%TA.AperFunction,ComponentPad*%
%ADD19C,1.574800*%
%TD*%
%TA.AperFunction,ComponentPad*%
%ADD20Outline8P,-0.787400X0.326152X-0.326152X0.787400X0.326152X0.787400X0.787400X0.326152X0.787400X-0.326152X0.326152X-0.787400X-0.326152X-0.787400X-0.787400X-0.326152X0.000000*%
%TD*%
%TA.AperFunction,ComponentPad*%
%ADD21O,1.219200X2.438400*%
%TD*%
%TA.AperFunction,ComponentPad*%
%ADD22Outline8P,-0.762000X0.315631X-0.315631X0.762000X0.315631X0.762000X0.762000X0.315631X0.762000X-0.315631X0.315631X-0.762000X-0.315631X-0.762000X-0.762000X-0.315631X0.000000*%
%TD*%
%TA.AperFunction,ComponentPad*%
%ADD23O,1.524000X3.048000*%
%TD*%
%TA.AperFunction,ComponentPad*%
%ADD24R,1.050000X1.050000*%
%TD*%
%TA.AperFunction,ComponentPad*%
%ADD25C,1.050000*%
%TD*%
%TA.AperFunction,ComponentPad*%
%ADD26C,1.778000*%
%TD*%
%TA.AperFunction,ComponentPad*%
%ADD27R,1.700000X1.700000*%
%TD*%
%TA.AperFunction,ComponentPad*%
%ADD28C,1.700000*%
%TD*%
%TA.AperFunction,ComponentPad*%
%ADD29Outline8P,-0.762000X0.315631X-0.315631X0.762000X0.315631X0.762000X0.762000X0.315631X0.762000X-0.315631X0.315631X-0.762000X-0.315631X-0.762000X-0.762000X-0.315631X180.000000*%
%TD*%
%TA.AperFunction,WasherPad*%
%ADD30C,3.048000*%
%TD*%
%TA.AperFunction,ComponentPad*%
%ADD31R,1.800000X1.800000*%
%TD*%
%TA.AperFunction,ComponentPad*%
%ADD32C,1.800000*%
%TD*%
%TA.AperFunction,ComponentPad*%
%ADD33O,3.048000X1.524000*%
%TD*%
%TA.AperFunction,ComponentPad*%
%ADD34R,1.879600X1.879600*%
%TD*%
%TA.AperFunction,ComponentPad*%
%ADD35C,1.879600*%
%TD*%
%TA.AperFunction,ComponentPad*%
%ADD36C,5.080000*%
%TD*%
%TA.AperFunction,ComponentPad*%
%ADD37RoundRect,0.250000X-0.600000X0.600000X-0.600000X-0.600000X0.600000X-0.600000X0.600000X0.600000X0*%
%TD*%
%TA.AperFunction,ViaPad*%
%ADD38C,0.508000*%
%TD*%
%TA.AperFunction,Conductor*%
%ADD39C,0.152400*%
%TD*%
%TA.AperFunction,Conductor*%
%ADD40C,0.304800*%
%TD*%
G04 APERTURE END LIST*
D10*
%TO.P,RN3,1*%
%TO.N,VCC*%
X21500000Y-14300000D03*
D11*
%TO.P,RN3,2*%
%TO.N,/Sheet 7/CFD0*%
X24040000Y-14300000D03*
%TO.P,RN3,3*%
%TO.N,/Sheet 7/CFD1*%
X26580000Y-14300000D03*
%TO.P,RN3,4*%
%TO.N,/Sheet 7/CFD2*%
X29120000Y-14300000D03*
%TO.P,RN3,5*%
%TO.N,/Sheet 7/CFD3*%
X31660000Y-14300000D03*
%TO.P,RN3,6*%
%TO.N,/Sheet 7/CFD4*%
X34200000Y-14300000D03*
%TO.P,RN3,7*%
%TO.N,/Sheet 7/CFD5*%
X36740000Y-14300000D03*
%TO.P,RN3,8*%
%TO.N,/Sheet 7/CFD6*%
X39280000Y-14300000D03*
%TO.P,RN3,9*%
%TO.N,/Sheet 7/CFD7*%
X41820000Y-14300000D03*
%TD*%
D12*
%TO.P,C15,1*%
%TO.N,VCC*%
X73627000Y-28745000D03*
%TO.P,C15,2*%
%TO.N,GND*%
X73627000Y-26205000D03*
%TD*%
D13*
%TO.P,S1,1*%
%TO.N,VCC*%
X119718000Y-78275000D03*
%TO.P,S1,2*%
%TO.N,Net-(IC3A-A2)*%
X124417000Y-78275000D03*
%TO.P,S1,3*%
%TO.N,GND*%
X129116000Y-78275000D03*
%TD*%
D14*
%TO.P,IC13,1*%
%TO.N,-RESET*%
X108300000Y-44000000D03*
D11*
%TO.P,IC13,2*%
%TO.N,/Sheet 7/DA0*%
X108300000Y-46540000D03*
%TO.P,IC13,3*%
%TO.N,unconnected-(IC13-~{Q0}-Pad3)*%
X108300000Y-49080000D03*
%TO.P,IC13,4*%
%TO.N,DATA0*%
X108300000Y-51620000D03*
%TO.P,IC13,5*%
%TO.N,DATA1*%
X108300000Y-54160000D03*
%TO.P,IC13,6*%
%TO.N,unconnected-(IC13-~{Q1}-Pad6)*%
X108300000Y-56700000D03*
%TO.P,IC13,7*%
%TO.N,/Sheet 7/DA1*%
X108300000Y-59240000D03*
%TO.P,IC13,8*%
%TO.N,GND*%
X108300000Y-61780000D03*
%TO.P,IC13,9*%
%TO.N,/Sheet 7/LATCHCLK*%
X115920000Y-61780000D03*
%TO.P,IC13,10*%
%TO.N,/Sheet 7/DA2*%
X115920000Y-59240000D03*
%TO.P,IC13,11*%
%TO.N,unconnected-(IC13-~{Q2}-Pad11)*%
X115920000Y-56700000D03*
%TO.P,IC13,12*%
%TO.N,DATA2*%
X115920000Y-54160000D03*
%TO.P,IC13,13*%
%TO.N,DATA3*%
X115920000Y-51620000D03*
%TO.P,IC13,14*%
%TO.N,/Sheet 7/-SRST*%
X115920000Y-49080000D03*
%TO.P,IC13,15*%
%TO.N,/Sheet 7/SRST*%
X115920000Y-46540000D03*
%TO.P,IC13,16*%
%TO.N,VCC*%
X115920000Y-44000000D03*
%TD*%
D15*
%TO.P,UNK5,A*%
%TO.N,Net-(R8-Pad1)*%
X185387000Y-30015000D03*
%TO.P,UNK5,K*%
%TO.N,GND*%
X187927000Y-30015000D03*
%TD*%
D13*
%TO.P,S0,1*%
%TO.N,VCC*%
X119718000Y-88435000D03*
%TO.P,S0,2*%
%TO.N,Net-(IC3A-A1)*%
X124417000Y-88435000D03*
%TO.P,S0,3*%
%TO.N,GND*%
X129116000Y-88435000D03*
%TD*%
D16*
%TO.P,X2,*%
%TO.N,*%
X165507000Y-16045000D03*
X134587000Y-16045000D03*
X165507000Y-90965000D03*
X134587000Y-90965000D03*
D17*
%TO.P,X2,1*%
%TO.N,GND*%
X165507000Y-21505000D03*
%TO.P,X2,2*%
%TO.N,VCC*%
X165507000Y-24045000D03*
%TO.P,X2,3*%
%TO.N,Net-(TM1-S)*%
X165507000Y-26585000D03*
%TO.P,X2,4*%
%TO.N,LCD-REGISTER*%
X165507000Y-29125000D03*
%TO.P,X2,5*%
%TO.N,GND*%
X165507000Y-31665000D03*
%TO.P,X2,6*%
%TO.N,Net-(IC7A-O)*%
X165507000Y-34205000D03*
%TO.P,X2,7*%
%TO.N,DATA0*%
X165507000Y-36745000D03*
%TO.P,X2,8*%
%TO.N,DATA1*%
X165507000Y-39285000D03*
%TO.P,X2,9*%
%TO.N,DATA2*%
X165507000Y-41825000D03*
%TO.P,X2,10*%
%TO.N,DATA3*%
X165507000Y-44365000D03*
%TO.P,X2,11*%
%TO.N,DATA4*%
X165507000Y-46905000D03*
%TO.P,X2,12*%
%TO.N,DATA5*%
X165507000Y-49445000D03*
%TO.P,X2,13*%
%TO.N,DATA6*%
X165507000Y-51985000D03*
%TO.P,X2,14*%
%TO.N,DATA7*%
X165507000Y-54525000D03*
%TO.P,X2,15*%
%TO.N,VCC*%
X165507000Y-57065000D03*
%TO.P,X2,16*%
%TO.N,GND*%
X165507000Y-59605000D03*
%TD*%
D15*
%TO.P,UNK2,A*%
%TO.N,Net-(R5-Pad1)*%
X185387000Y-54145000D03*
%TO.P,UNK2,K*%
%TO.N,GND*%
X187927000Y-54145000D03*
%TD*%
D18*
%TO.P,PWR0,A*%
%TO.N,Net-(PWR0-PadA)*%
X193007000Y-120185000D03*
%TO.P,PWR0,K*%
%TO.N,GND*%
X190467000Y-120185000D03*
%TD*%
D19*
%TO.P,C3,+*%
%TO.N,Net-(IC2-V+)*%
X102837000Y-69385000D03*
D20*
%TO.P,C3,-*%
%TO.N,VCC*%
X105377000Y-69385000D03*
%TD*%
D18*
%TO.P,R6,1*%
%TO.N,Net-(R6-Pad1)*%
X181577000Y-46525000D03*
%TO.P,R6,2*%
%TO.N,Net-(IC4-Q4)*%
X171417000Y-46525000D03*
%TD*%
D21*
%TO.P,IC4,1*%
%TO.N,-B-RESET*%
X50767000Y-65575000D03*
%TO.P,IC4,2*%
%TO.N,Net-(IC4-Q1)*%
X53307000Y-65575000D03*
%TO.P,IC4,3*%
%TO.N,DATA0*%
X55847000Y-65575000D03*
%TO.P,IC4,4*%
%TO.N,DATA1*%
X58387000Y-65575000D03*
%TO.P,IC4,5*%
%TO.N,Net-(IC4-Q2)*%
X60927000Y-65575000D03*
%TO.P,IC4,6*%
%TO.N,Net-(IC4-Q3)*%
X63467000Y-65575000D03*
%TO.P,IC4,7*%
%TO.N,DATA2*%
X66007000Y-65575000D03*
%TO.P,IC4,8*%
%TO.N,DATA3*%
X68547000Y-65575000D03*
%TO.P,IC4,9*%
%TO.N,Net-(IC4-Q4)*%
X71087000Y-65575000D03*
%TO.P,IC4,10*%
%TO.N,GND*%
X73627000Y-65575000D03*
%TO.P,IC4,11*%
%TO.N,Net-(IC4-CLK)*%
X73627000Y-57955000D03*
%TO.P,IC4,12*%
%TO.N,Net-(IC4-Q5)*%
X71087000Y-57955000D03*
%TO.P,IC4,13*%
%TO.N,DATA4*%
X68547000Y-57955000D03*
%TO.P,IC4,14*%
%TO.N,DATA5*%
X66007000Y-57955000D03*
%TO.P,IC4,15*%
%TO.N,Net-(IC4-Q6)*%
X63467000Y-57955000D03*
%TO.P,IC4,16*%
%TO.N,Net-(IC4-Q7)*%
X60927000Y-57955000D03*
%TO.P,IC4,17*%
%TO.N,DATA6*%
X58387000Y-57955000D03*
%TO.P,IC4,18*%
%TO.N,DATA7*%
X55847000Y-57955000D03*
%TO.P,IC4,19*%
%TO.N,Net-(IC4-Q8)*%
X53307000Y-57955000D03*
%TO.P,IC4,20*%
%TO.N,VCC*%
X50767000Y-57955000D03*
%TD*%
D22*
%TO.P,JP1,1*%
%TO.N,/Sheet 2/RX-IN*%
X147287000Y-104945000D03*
%TO.P,JP1,2*%
%TO.N,/Sheet 2/TX-OUT*%
X147287000Y-102405000D03*
%TO.P,JP1,3*%
%TO.N,Net-(J1-Pad3)*%
X149827000Y-104945000D03*
%TO.P,JP1,4*%
%TO.N,Net-(J1-Pad2)*%
X149827000Y-102405000D03*
%TO.P,JP1,5*%
%TO.N,/Sheet 2/TX-OUT*%
X152367000Y-104945000D03*
%TO.P,JP1,6*%
%TO.N,/Sheet 2/RX-IN*%
X152367000Y-102405000D03*
%TD*%
D23*
%TO.P,INT0,1*%
%TO.N,Net-(IC1-INT)*%
X44417000Y-112565000D03*
%TO.P,INT0,2*%
%TO.N,Net-(IC8F-I)*%
X46957000Y-112565000D03*
%TD*%
D13*
%TO.P,S4,1*%
%TO.N,VCC*%
X119718000Y-47795000D03*
%TO.P,S4,2*%
%TO.N,Net-(IC3B-A1)*%
X124417000Y-47795000D03*
%TO.P,S4,3*%
%TO.N,GND*%
X129116000Y-47795000D03*
%TD*%
D14*
%TO.P,IC15,1*%
%TO.N,/Sheet 7/-IOR*%
X108300000Y-14000000D03*
D11*
%TO.P,IC15,2*%
%TO.N,DATA0*%
X108300000Y-16540000D03*
%TO.P,IC15,3*%
%TO.N,DATA1*%
X108300000Y-19080000D03*
%TO.P,IC15,4*%
%TO.N,DATA2*%
X108300000Y-21620000D03*
%TO.P,IC15,5*%
%TO.N,DATA3*%
X108300000Y-24160000D03*
%TO.P,IC15,6*%
%TO.N,DATA4*%
X108300000Y-26700000D03*
%TO.P,IC15,7*%
%TO.N,DATA5*%
X108300000Y-29240000D03*
%TO.P,IC15,8*%
%TO.N,DATA6*%
X108300000Y-31780000D03*
%TO.P,IC15,9*%
%TO.N,DATA7*%
X108300000Y-34320000D03*
%TO.P,IC15,10*%
%TO.N,GND*%
X108300000Y-36860000D03*
%TO.P,IC15,11*%
%TO.N,/Sheet 7/CFD7*%
X115920000Y-36860000D03*
%TO.P,IC15,12*%
%TO.N,/Sheet 7/CFD6*%
X115920000Y-34320000D03*
%TO.P,IC15,13*%
%TO.N,/Sheet 7/CFD5*%
X115920000Y-31780000D03*
%TO.P,IC15,14*%
%TO.N,/Sheet 7/CFD4*%
X115920000Y-29240000D03*
%TO.P,IC15,15*%
%TO.N,/Sheet 7/CFD3*%
X115920000Y-26700000D03*
%TO.P,IC15,16*%
%TO.N,/Sheet 7/CFD2*%
X115920000Y-24160000D03*
%TO.P,IC15,17*%
%TO.N,/Sheet 7/CFD1*%
X115920000Y-21620000D03*
%TO.P,IC15,18*%
%TO.N,/Sheet 7/CFD0*%
X115920000Y-19080000D03*
%TO.P,IC15,19*%
%TO.N,/Sheet 7/-CFOE*%
X115920000Y-16540000D03*
%TO.P,IC15,20*%
%TO.N,VCC*%
X115920000Y-14000000D03*
%TD*%
D21*
%TO.P,HI0,1*%
%TO.N,VCC*%
X190467000Y-78275000D03*
%TO.P,HI0,2*%
%TO.N,Net-(HI0A-D1)*%
X187927000Y-78275000D03*
%TO.P,HI0,3*%
%TO.N,Net-(HI0A-D0)*%
X185387000Y-78275000D03*
%TO.P,HI0,4*%
%TO.N,unconnected-(HI0A-DP-L-Pad4)*%
X182847000Y-78275000D03*
%TO.P,HI0,5*%
%TO.N,GND*%
X180307000Y-78275000D03*
%TO.P,HI0,7*%
X175227000Y-78275000D03*
%TO.P,HI0,8*%
X175227000Y-85895000D03*
%TO.P,HI0,10*%
%TO.N,unconnected-(HI0A-DP-R-Pad10)*%
X180307000Y-85895000D03*
%TO.P,HI0,12*%
%TO.N,Net-(HI0A-D3)*%
X185387000Y-85895000D03*
%TO.P,HI0,13*%
%TO.N,Net-(HI0A-D2)*%
X187927000Y-85895000D03*
%TO.P,HI0,14*%
%TO.N,VCC*%
X190467000Y-85895000D03*
%TD*%
D12*
%TO.P,C8,1*%
%TO.N,VCC*%
X78707000Y-63035000D03*
%TO.P,C8,2*%
%TO.N,GND*%
X78707000Y-60495000D03*
%TD*%
D21*
%TO.P,IC11,1*%
%TO.N,IO-WR*%
X36797000Y-79545000D03*
%TO.P,IC11,2*%
%TO.N,IO-SELDATA*%
X39337000Y-79545000D03*
%TO.P,IC11,3*%
%TO.N,GND*%
X41877000Y-79545000D03*
%TO.P,IC11,4*%
X44417000Y-79545000D03*
%TO.P,IC11,5*%
X46957000Y-79545000D03*
%TO.P,IC11,6*%
%TO.N,unconnected-(IC11B-O-Pad6)*%
X49497000Y-79545000D03*
%TO.P,IC11,7*%
%TO.N,GND*%
X52037000Y-79545000D03*
%TO.P,IC11,8*%
%TO.N,unconnected-(IC11C-O-Pad8)*%
X52037000Y-71925000D03*
%TO.P,IC11,9*%
%TO.N,GND*%
X49497000Y-71925000D03*
%TO.P,IC11,10*%
X46957000Y-71925000D03*
%TO.P,IC11,11*%
X44417000Y-71925000D03*
%TO.P,IC11,12*%
%TO.N,Net-(IC11A-O)*%
X41877000Y-71925000D03*
%TO.P,IC11,13*%
%TO.N,TIL311*%
X39337000Y-71925000D03*
%TO.P,IC11,14*%
%TO.N,VCC*%
X36797000Y-71925000D03*
%TD*%
D18*
%TO.P,R4,1*%
%TO.N,Net-(R4-Pad1)*%
X181577000Y-61765000D03*
%TO.P,R4,2*%
%TO.N,Net-(IC4-Q2)*%
X171417000Y-61765000D03*
%TD*%
D13*
%TO.P,S5,1*%
%TO.N,VCC*%
X119718000Y-37635000D03*
%TO.P,S5,2*%
%TO.N,Net-(IC3B-A2)*%
X124417000Y-37635000D03*
%TO.P,S5,3*%
%TO.N,GND*%
X129116000Y-37635000D03*
%TD*%
D11*
%TO.P,C19,1*%
%TO.N,VCC*%
X108800000Y-65000000D03*
%TO.P,C19,2*%
%TO.N,GND*%
X113800000Y-65000000D03*
%TD*%
D18*
%TO.P,R2,1*%
%TO.N,Net-(PWR0-PadA)*%
X182847000Y-120185000D03*
%TO.P,R2,2*%
%TO.N,VCC*%
X172687000Y-120185000D03*
%TD*%
D19*
%TO.P,C4,+*%
%TO.N,GND*%
X102837000Y-50335000D03*
D20*
%TO.P,C4,-*%
%TO.N,Net-(IC2-V-)*%
X105377000Y-50335000D03*
%TD*%
D24*
%TO.P,Y1,1*%
%TO.N,N/C*%
X35527000Y-46525000D03*
D25*
%TO.P,Y1,4*%
%TO.N,GND*%
X43147000Y-46525000D03*
%TO.P,Y1,5*%
%TO.N,Net-(IC1-XTAL1)*%
X43147000Y-38905000D03*
%TO.P,Y1,8*%
%TO.N,VCC*%
X35527000Y-38905000D03*
%TD*%
D21*
%TO.P,IC6,1*%
%TO.N,IO-WR*%
X62197000Y-93515000D03*
%TO.P,IC6,2*%
%TO.N,IO-SELDATA*%
X64737000Y-93515000D03*
%TO.P,IC6,3*%
%TO.N,IO-RD*%
X67277000Y-93515000D03*
%TO.P,IC6,4*%
%TO.N,IO-SELDATA*%
X69817000Y-93515000D03*
%TO.P,IC6,5*%
%TO.N,SWITCH-LED*%
X72357000Y-93515000D03*
%TO.P,IC6,6*%
%TO.N,Net-(IC3A-G)*%
X74897000Y-93515000D03*
%TO.P,IC6,7*%
%TO.N,GND*%
X77437000Y-93515000D03*
%TO.P,IC6,8*%
%TO.N,Net-(IC6C-O)*%
X77437000Y-85895000D03*
%TO.P,IC6,9*%
%TO.N,IO-SELDATA*%
X74897000Y-85895000D03*
%TO.P,IC6,10*%
%TO.N,LCD-ENABLE*%
X72357000Y-85895000D03*
%TO.P,IC6,11*%
%TO.N,IO-WR*%
X69817000Y-85895000D03*
%TO.P,IC6,12*%
%TO.N,Net-(IC4-CLK)*%
X67277000Y-85895000D03*
%TO.P,IC6,13*%
%TO.N,SWITCH-LED*%
X64737000Y-85895000D03*
%TO.P,IC6,14*%
%TO.N,VCC*%
X62197000Y-85895000D03*
%TD*%
D13*
%TO.P,S2,1*%
%TO.N,VCC*%
X119718000Y-68115000D03*
%TO.P,S2,2*%
%TO.N,Net-(IC3A-A3)*%
X124417000Y-68115000D03*
%TO.P,S2,3*%
%TO.N,GND*%
X129116000Y-68115000D03*
%TD*%
D21*
%TO.P,IC5,1*%
%TO.N,IO-ADDR0*%
X58387000Y-79545000D03*
%TO.P,IC5,2*%
%TO.N,IO-ADDR1*%
X60927000Y-79545000D03*
%TO.P,IC5,3*%
%TO.N,IO-ADDR2*%
X63467000Y-79545000D03*
%TO.P,IC5,4*%
%TO.N,Net-(IC5-G2A)*%
X66007000Y-79545000D03*
%TO.P,IC5,5*%
%TO.N,GND*%
X68547000Y-79545000D03*
%TO.P,IC5,6*%
%TO.N,Net-(IC5-G1)*%
X71087000Y-79545000D03*
%TO.P,IC5,7*%
%TO.N,/Sheet 5/-IO-SEL7*%
X73627000Y-79545000D03*
%TO.P,IC5,8*%
%TO.N,GND*%
X76167000Y-79545000D03*
%TO.P,IC5,9*%
%TO.N,/Sheet 5/-IO-SEL6*%
X76167000Y-71925000D03*
%TO.P,IC5,10*%
%TO.N,-IO-SEL5*%
X73627000Y-71925000D03*
%TO.P,IC5,11*%
%TO.N,-IO-SEL4*%
X71087000Y-71925000D03*
%TO.P,IC5,12*%
%TO.N,/Sheet 5/-IO-SEL3*%
X68547000Y-71925000D03*
%TO.P,IC5,13*%
%TO.N,/Sheet 5/-IO-SEL2*%
X66007000Y-71925000D03*
%TO.P,IC5,14*%
%TO.N,/Sheet 5/-IO-SEL1*%
X63467000Y-71925000D03*
%TO.P,IC5,15*%
%TO.N,/Sheet 5/-IO-SEL0*%
X60927000Y-71925000D03*
%TO.P,IC5,16*%
%TO.N,VCC*%
X58387000Y-71925000D03*
%TD*%
D13*
%TO.P,S6,1*%
%TO.N,VCC*%
X119718000Y-27475000D03*
%TO.P,S6,2*%
%TO.N,Net-(IC3B-A3)*%
X124417000Y-27475000D03*
%TO.P,S6,3*%
%TO.N,GND*%
X129116000Y-27475000D03*
%TD*%
D12*
%TO.P,C17,1*%
%TO.N,VCC*%
X34257000Y-77005000D03*
%TO.P,C17,2*%
%TO.N,GND*%
X34257000Y-74465000D03*
%TD*%
D26*
%TO.P,TM1,1*%
%TO.N,VCC*%
X88549500Y-101135000D03*
%TO.P,TM1,2*%
%TO.N,Net-(TM1-S)*%
X88549500Y-103675000D03*
%TO.P,TM1,3*%
%TO.N,GND*%
X88549500Y-106215000D03*
%TD*%
D18*
%TO.P,R8,1*%
%TO.N,Net-(R8-Pad1)*%
X181577000Y-30015000D03*
%TO.P,R8,2*%
%TO.N,Net-(IC4-Q6)*%
X171417000Y-30015000D03*
%TD*%
D19*
%TO.P,C1,+*%
%TO.N,Net-(IC2-C1+)*%
X102837000Y-56685000D03*
D20*
%TO.P,C1,-*%
%TO.N,Net-(IC2-C1-)*%
X105377000Y-56685000D03*
%TD*%
D27*
%TO.P,J3,1*%
%TO.N,VCC*%
X31000000Y-67500000D03*
D28*
%TO.P,J3,2*%
%TO.N,GND*%
X33540000Y-67500000D03*
%TO.P,J3,3*%
X36080000Y-67500000D03*
%TO.P,J3,4*%
%TO.N,unconnected-(J3-Pin_4-Pad4)*%
X38620000Y-67500000D03*
%TD*%
D21*
%TO.P,IC10,1*%
%TO.N,-B-RESET*%
X76167000Y-31285000D03*
%TO.P,IC10,2*%
%TO.N,SWITCH-LED*%
X78707000Y-31285000D03*
%TO.P,IC10,3*%
%TO.N,DATA0*%
X81247000Y-31285000D03*
%TO.P,IC10,4*%
%TO.N,DATA1*%
X83787000Y-31285000D03*
%TO.P,IC10,5*%
%TO.N,LCD-ENABLE*%
X86327000Y-31285000D03*
%TO.P,IC10,6*%
%TO.N,LCD-REGISTER*%
X88867000Y-31285000D03*
%TO.P,IC10,7*%
%TO.N,DATA2*%
X91407000Y-31285000D03*
%TO.P,IC10,8*%
%TO.N,DATA3*%
X93947000Y-31285000D03*
%TO.P,IC10,9*%
%TO.N,UART-A0*%
X96487000Y-31285000D03*
%TO.P,IC10,10*%
%TO.N,GND*%
X99027000Y-31285000D03*
%TO.P,IC10,11*%
%TO.N,Net-(IC10-CLK)*%
X99027000Y-23665000D03*
%TO.P,IC10,12*%
%TO.N,UART-A1*%
X96487000Y-23665000D03*
%TO.P,IC10,13*%
%TO.N,DATA4*%
X93947000Y-23665000D03*
%TO.P,IC10,14*%
%TO.N,DATA5*%
X91407000Y-23665000D03*
%TO.P,IC10,15*%
%TO.N,UART-A2*%
X88867000Y-23665000D03*
%TO.P,IC10,16*%
%TO.N,UART-CS*%
X86327000Y-23665000D03*
%TO.P,IC10,17*%
%TO.N,DATA6*%
X83787000Y-23665000D03*
%TO.P,IC10,18*%
%TO.N,DATA7*%
X81247000Y-23665000D03*
%TO.P,IC10,19*%
%TO.N,TIL311*%
X78707000Y-23665000D03*
%TO.P,IC10,20*%
%TO.N,VCC*%
X76167000Y-23665000D03*
%TD*%
D15*
%TO.P,UNK6,A*%
%TO.N,Net-(R9-Pad1)*%
X185387000Y-22395000D03*
%TO.P,UNK6,K*%
%TO.N,GND*%
X187927000Y-22395000D03*
%TD*%
D11*
%TO.P,R15,1*%
%TO.N,VCC*%
X172000000Y-113200000D03*
%TO.P,R15,2*%
%TO.N,/Sheet 7/LEDA2*%
X182160000Y-113200000D03*
%TD*%
D14*
%TO.P,C22,1*%
%TO.N,VCC*%
X42800000Y-67500000D03*
D11*
%TO.P,C22,2*%
%TO.N,GND*%
X44800000Y-67500000D03*
%TD*%
D18*
%TO.P,R10,1*%
%TO.N,Net-(R10-Pad1)*%
X181577000Y-14775000D03*
%TO.P,R10,2*%
%TO.N,Net-(IC4-Q8)*%
X171417000Y-14775000D03*
%TD*%
D21*
%TO.P,IC7,1*%
%TO.N,Net-(IC6C-O)*%
X83787000Y-93515000D03*
%TO.P,IC7,2*%
X86327000Y-93515000D03*
%TO.P,IC7,3*%
%TO.N,Net-(IC7A-O)*%
X88867000Y-93515000D03*
%TO.P,IC7,4*%
%TO.N,Net-(IC7B-I0)*%
X91407000Y-93515000D03*
%TO.P,IC7,5*%
%TO.N,IO-WR*%
X93947000Y-93515000D03*
%TO.P,IC7,6*%
%TO.N,Net-(IC10-CLK)*%
X96487000Y-93515000D03*
%TO.P,IC7,7*%
%TO.N,GND*%
X99027000Y-93515000D03*
%TO.P,IC7,8*%
%TO.N,unconnected-(IC7C-O-Pad8)*%
X99027000Y-85895000D03*
%TO.P,IC7,9*%
%TO.N,GND*%
X96487000Y-85895000D03*
%TO.P,IC7,10*%
X93947000Y-85895000D03*
%TO.P,IC7,11*%
%TO.N,Net-(IC7B-I0)*%
X91407000Y-85895000D03*
%TO.P,IC7,12*%
%TO.N,/Sheet 5/-IO-ADDRSEL*%
X88867000Y-85895000D03*
%TO.P,IC7,13*%
X86327000Y-85895000D03*
%TO.P,IC7,14*%
%TO.N,VCC*%
X83787000Y-85895000D03*
%TD*%
D29*
%TO.P,DATA-ADDR0,1*%
%TO.N,/Sheet 5/-IO-DATASEL*%
X104107000Y-117645000D03*
%TO.P,DATA-ADDR0,2*%
%TO.N,/Sheet 5/-IO-SEL7*%
X104107000Y-120185000D03*
%TO.P,DATA-ADDR0,3*%
%TO.N,/Sheet 5/-IO-DATASEL*%
X101567000Y-117645000D03*
%TO.P,DATA-ADDR0,4*%
%TO.N,/Sheet 5/-IO-SEL6*%
X101567000Y-120185000D03*
%TO.P,DATA-ADDR0,5*%
%TO.N,/Sheet 5/-IO-DATASEL*%
X99027000Y-117645000D03*
%TO.P,DATA-ADDR0,6*%
%TO.N,-IO-SEL5*%
X99027000Y-120185000D03*
%TO.P,DATA-ADDR0,7*%
%TO.N,/Sheet 5/-IO-DATASEL*%
X96487000Y-117645000D03*
%TO.P,DATA-ADDR0,8*%
%TO.N,-IO-SEL4*%
X96487000Y-120185000D03*
%TO.P,DATA-ADDR0,9*%
%TO.N,/Sheet 5/-IO-DATASEL*%
X93947000Y-117645000D03*
%TO.P,DATA-ADDR0,10*%
%TO.N,/Sheet 5/-IO-SEL3*%
X93947000Y-120185000D03*
%TO.P,DATA-ADDR0,11*%
%TO.N,/Sheet 5/-IO-DATASEL*%
X91407000Y-117645000D03*
%TO.P,DATA-ADDR0,12*%
%TO.N,/Sheet 5/-IO-SEL2*%
X91407000Y-120185000D03*
%TO.P,DATA-ADDR0,13*%
%TO.N,/Sheet 5/-IO-DATASEL*%
X88867000Y-117645000D03*
%TO.P,DATA-ADDR0,14*%
%TO.N,/Sheet 5/-IO-SEL1*%
X88867000Y-120185000D03*
%TO.P,DATA-ADDR0,15*%
%TO.N,/Sheet 5/-IO-DATASEL*%
X86327000Y-117645000D03*
%TO.P,DATA-ADDR0,16*%
%TO.N,/Sheet 5/-IO-SEL0*%
X86327000Y-120185000D03*
%TD*%
D11*
%TO.P,C18,1*%
%TO.N,VCC*%
X108800000Y-86600000D03*
%TO.P,C18,2*%
%TO.N,GND*%
X113800000Y-86600000D03*
%TD*%
D13*
%TO.P,S7,1*%
%TO.N,VCC*%
X119718000Y-17315000D03*
%TO.P,S7,2*%
%TO.N,Net-(IC3B-A4)*%
X124417000Y-17315000D03*
%TO.P,S7,3*%
%TO.N,GND*%
X129116000Y-17315000D03*
%TD*%
D21*
%TO.P,IC9,1*%
%TO.N,-B-RESET*%
X54577000Y-107485000D03*
%TO.P,IC9,2*%
%TO.N,Net-(IC9-Q1)*%
X57117000Y-107485000D03*
%TO.P,IC9,3*%
%TO.N,DATA0*%
X59657000Y-107485000D03*
%TO.P,IC9,4*%
%TO.N,DATA1*%
X62197000Y-107485000D03*
%TO.P,IC9,5*%
%TO.N,Net-(IC9-Q2)*%
X64737000Y-107485000D03*
%TO.P,IC9,6*%
%TO.N,Net-(IC9-Q3)*%
X67277000Y-107485000D03*
%TO.P,IC9,7*%
%TO.N,DATA2*%
X69817000Y-107485000D03*
%TO.P,IC9,8*%
%TO.N,DATA3*%
X72357000Y-107485000D03*
%TO.P,IC9,9*%
%TO.N,Net-(IC9-Q4)*%
X74897000Y-107485000D03*
%TO.P,IC9,10*%
%TO.N,GND*%
X77437000Y-107485000D03*
%TO.P,IC9,11*%
%TO.N,Net-(IC11A-O)*%
X77437000Y-99865000D03*
%TO.P,IC9,12*%
%TO.N,Net-(HI0A-D0)*%
X74897000Y-99865000D03*
%TO.P,IC9,13*%
%TO.N,DATA4*%
X72357000Y-99865000D03*
%TO.P,IC9,14*%
%TO.N,DATA5*%
X69817000Y-99865000D03*
%TO.P,IC9,15*%
%TO.N,Net-(HI0A-D1)*%
X67277000Y-99865000D03*
%TO.P,IC9,16*%
%TO.N,Net-(HI0A-D2)*%
X64737000Y-99865000D03*
%TO.P,IC9,17*%
%TO.N,DATA6*%
X62197000Y-99865000D03*
%TO.P,IC9,18*%
%TO.N,DATA7*%
X59657000Y-99865000D03*
%TO.P,IC9,19*%
%TO.N,Net-(HI0A-D3)*%
X57117000Y-99865000D03*
%TO.P,IC9,20*%
%TO.N,VCC*%
X54577000Y-99865000D03*
%TD*%
D12*
%TO.P,C11,1*%
%TO.N,VCC*%
X81247000Y-90975000D03*
%TO.P,C11,2*%
%TO.N,GND*%
X81247000Y-88435000D03*
%TD*%
D11*
%TO.P,C21,1*%
%TO.N,VCC*%
X108800000Y-40200000D03*
%TO.P,C21,2*%
%TO.N,GND*%
X113800000Y-40200000D03*
%TD*%
D15*
%TO.P,UNK0,A*%
%TO.N,Net-(R3-Pad1)*%
X185387000Y-69385000D03*
%TO.P,UNK0,K*%
%TO.N,GND*%
X187927000Y-69385000D03*
%TD*%
D21*
%TO.P,IC1,1*%
%TO.N,DATA0*%
X50767000Y-50335000D03*
%TO.P,IC1,2*%
%TO.N,DATA1*%
X53307000Y-50335000D03*
%TO.P,IC1,3*%
%TO.N,DATA2*%
X55847000Y-50335000D03*
%TO.P,IC1,4*%
%TO.N,DATA3*%
X58387000Y-50335000D03*
%TO.P,IC1,5*%
%TO.N,DATA4*%
X60927000Y-50335000D03*
%TO.P,IC1,6*%
%TO.N,DATA5*%
X63467000Y-50335000D03*
%TO.P,IC1,7*%
%TO.N,DATA6*%
X66007000Y-50335000D03*
%TO.P,IC1,8*%
%TO.N,DATA7*%
X68547000Y-50335000D03*
%TO.P,IC1,9*%
%TO.N,/Sheet 2/ICLK*%
X71087000Y-50335000D03*
%TO.P,IC1,10*%
%TO.N,/Sheet 2/RX*%
X73627000Y-50335000D03*
%TO.P,IC1,11*%
%TO.N,Net-(IC1-TX)*%
X76167000Y-50335000D03*
%TO.P,IC1,12*%
%TO.N,IO-SELDATA*%
X78707000Y-50335000D03*
%TO.P,IC1,13*%
%TO.N,UART-CS*%
X81247000Y-50335000D03*
%TO.P,IC1,14*%
%TO.N,GND*%
X83787000Y-50335000D03*
%TO.P,IC1,15*%
%TO.N,/Sheet 2/ICLK*%
X86327000Y-50335000D03*
%TO.P,IC1,16*%
%TO.N,Net-(IC1-XTAL1)*%
X88867000Y-50335000D03*
%TO.P,IC1,17*%
%TO.N,unconnected-(IC1-XTAL2-Pad17)*%
X91407000Y-50335000D03*
%TO.P,IC1,18*%
%TO.N,VCC*%
X93947000Y-50335000D03*
%TO.P,IC1,19*%
%TO.N,IO-WR*%
X96487000Y-50335000D03*
%TO.P,IC1,20*%
%TO.N,GND*%
X99027000Y-50335000D03*
%TO.P,IC1,21*%
%TO.N,VCC*%
X99027000Y-35095000D03*
%TO.P,IC1,22*%
%TO.N,IO-RD*%
X96487000Y-35095000D03*
%TO.P,IC1,23*%
%TO.N,unconnected-(IC1-DDIS~-Pad23)*%
X93947000Y-35095000D03*
%TO.P,IC1,24*%
%TO.N,unconnected-(IC1-TXRDY~-Pad24)*%
X91407000Y-35095000D03*
%TO.P,IC1,25*%
%TO.N,GND*%
X88867000Y-35095000D03*
%TO.P,IC1,26*%
%TO.N,UART-A2*%
X86327000Y-35095000D03*
%TO.P,IC1,27*%
%TO.N,UART-A1*%
X83787000Y-35095000D03*
%TO.P,IC1,28*%
%TO.N,UART-A0*%
X81247000Y-35095000D03*
%TO.P,IC1,29*%
%TO.N,unconnected-(IC1-RXRDY~-Pad29)*%
X78707000Y-35095000D03*
%TO.P,IC1,30*%
%TO.N,Net-(IC1-INT)*%
X76167000Y-35095000D03*
%TO.P,IC1,31*%
%TO.N,unconnected-(IC1-OP2~-Pad31)*%
X73627000Y-35095000D03*
%TO.P,IC1,32*%
%TO.N,unconnected-(IC1-RTS~-Pad32)*%
X71087000Y-35095000D03*
%TO.P,IC1,33*%
%TO.N,unconnected-(IC1-DTR~-Pad33)*%
X68547000Y-35095000D03*
%TO.P,IC1,34*%
%TO.N,unconnected-(IC1-OP1~-Pad34)*%
X66007000Y-35095000D03*
%TO.P,IC1,35*%
%TO.N,RESET*%
X63467000Y-35095000D03*
%TO.P,IC1,36*%
%TO.N,VCC*%
X60927000Y-35095000D03*
%TO.P,IC1,37*%
X58387000Y-35095000D03*
%TO.P,IC1,38*%
X55847000Y-35095000D03*
%TO.P,IC1,39*%
X53307000Y-35095000D03*
%TO.P,IC1,40*%
X50767000Y-35095000D03*
%TD*%
D30*
%TO.P,X1,*%
%TO.N,*%
X20287000Y-111301400D03*
X20287000Y-22388600D03*
D29*
%TO.P,X1,A1*%
%TO.N,GND*%
X22827000Y-106215000D03*
%TO.P,X1,A2*%
%TO.N,VCC*%
X22827000Y-103675000D03*
%TO.P,X1,A3*%
%TO.N,/Sheet 1/ADDR0*%
X22827000Y-101135000D03*
%TO.P,X1,A4*%
%TO.N,/Sheet 1/ADDR1*%
X22827000Y-98595000D03*
%TO.P,X1,A5*%
%TO.N,/Sheet 1/ADDR2*%
X22827000Y-96055000D03*
%TO.P,X1,A6*%
%TO.N,/Sheet 1/ADDR3*%
X22827000Y-93515000D03*
%TO.P,X1,A7*%
%TO.N,/Sheet 1/ADDR4*%
X22827000Y-90975000D03*
%TO.P,X1,A8*%
%TO.N,/Sheet 1/ADDR5*%
X22827000Y-88435000D03*
%TO.P,X1,A9*%
%TO.N,/Sheet 1/ADDR6*%
X22827000Y-85895000D03*
%TO.P,X1,A10*%
%TO.N,/Sheet 1/ADDR7*%
X22827000Y-83355000D03*
%TO.P,X1,A11*%
%TO.N,/Sheet 1/ADDR8*%
X22827000Y-80815000D03*
%TO.P,X1,A12*%
%TO.N,/Sheet 1/ADDR9*%
X22827000Y-78275000D03*
%TO.P,X1,A13*%
%TO.N,/Sheet 1/ADDR10*%
X22827000Y-75735000D03*
%TO.P,X1,A14*%
%TO.N,/Sheet 1/ADDR11*%
X22827000Y-73195000D03*
%TO.P,X1,A15*%
%TO.N,/Sheet 1/ADDR12*%
X22827000Y-70655000D03*
%TO.P,X1,A16*%
%TO.N,/Sheet 1/ADDR13*%
X22827000Y-68115000D03*
%TO.P,X1,A17*%
%TO.N,/Sheet 1/ADDR14*%
X22827000Y-65575000D03*
%TO.P,X1,A18*%
%TO.N,/Sheet 1/ADDR15*%
X22827000Y-63035000D03*
%TO.P,X1,A19*%
%TO.N,DATA0*%
X22827000Y-60495000D03*
%TO.P,X1,A20*%
%TO.N,DATA1*%
X22827000Y-57955000D03*
%TO.P,X1,A21*%
%TO.N,DATA2*%
X22827000Y-55415000D03*
%TO.P,X1,A22*%
%TO.N,DATA3*%
X22827000Y-52875000D03*
%TO.P,X1,A23*%
%TO.N,DATA4*%
X22827000Y-50335000D03*
%TO.P,X1,A24*%
%TO.N,DATA5*%
X22827000Y-47795000D03*
%TO.P,X1,A25*%
%TO.N,DATA6*%
X22827000Y-45255000D03*
%TO.P,X1,A26*%
%TO.N,DATA7*%
X22827000Y-42715000D03*
%TO.P,X1,A27*%
%TO.N,/Sheet 1/DATA8*%
X22827000Y-40175000D03*
%TO.P,X1,A28*%
%TO.N,/Sheet 1/DATA9*%
X22827000Y-37635000D03*
%TO.P,X1,A29*%
%TO.N,/Sheet 1/DATA10*%
X22827000Y-35095000D03*
%TO.P,X1,A30*%
%TO.N,/Sheet 1/DATA11*%
X22827000Y-32555000D03*
%TO.P,X1,A31*%
%TO.N,VCC*%
X22827000Y-30015000D03*
%TO.P,X1,A32*%
%TO.N,GND*%
X22827000Y-27475000D03*
%TO.P,X1,B1*%
X25367000Y-106215000D03*
%TO.P,X1,B2*%
%TO.N,VCC*%
X25367000Y-103675000D03*
%TO.P,X1,B3*%
%TO.N,/Sheet 1/DATA12*%
X25367000Y-101135000D03*
%TO.P,X1,B4*%
%TO.N,/Sheet 1/DATA13*%
X25367000Y-98595000D03*
%TO.P,X1,B5*%
%TO.N,/Sheet 1/DATA14*%
X25367000Y-96055000D03*
%TO.P,X1,B6*%
%TO.N,/Sheet 1/DATA15*%
X25367000Y-93515000D03*
%TO.P,X1,B7*%
%TO.N,/Sheet 1/-REG-FUNC-RD*%
X25367000Y-90975000D03*
%TO.P,X1,B8*%
%TO.N,/Sheet 1/-REG-FUNC-LD*%
X25367000Y-88435000D03*
%TO.P,X1,B9*%
%TO.N,/Sheet 1/REG-RD-ID0*%
X25367000Y-85895000D03*
%TO.P,X1,B10*%
%TO.N,/Sheet 1/REG-RD-ID1*%
X25367000Y-83355000D03*
%TO.P,X1,B11*%
%TO.N,/Sheet 1/REG-RD-ID2*%
X25367000Y-80815000D03*
%TO.P,X1,B12*%
%TO.N,/Sheet 1/REG-RD-ID3*%
X25367000Y-78275000D03*
%TO.P,X1,B13*%
%TO.N,/Sheet 1/REG-LD-ID0*%
X25367000Y-75735000D03*
%TO.P,X1,B14*%
%TO.N,/Sheet 1/REG-LD-ID1*%
X25367000Y-73195000D03*
%TO.P,X1,B15*%
%TO.N,/Sheet 1/REG-LD-ID2*%
X25367000Y-70655000D03*
%TO.P,X1,B16*%
%TO.N,/Sheet 1/REG-LD-ID3*%
X25367000Y-68115000D03*
%TO.P,X1,B17*%
%TO.N,/Sheet 1/-REG-RD-LO*%
X25367000Y-65575000D03*
%TO.P,X1,B18*%
%TO.N,/Sheet 1/-REG-LD-LO*%
X25367000Y-63035000D03*
%TO.P,X1,B19*%
%TO.N,/Sheet 1/-REG-RD-HI*%
X25367000Y-60495000D03*
%TO.P,X1,B20*%
%TO.N,/Sheet 1/-REG-LD-HI*%
X25367000Y-57955000D03*
%TO.P,X1,B21*%
%TO.N,/Sheet 1/-REG-DN*%
X25367000Y-55415000D03*
%TO.P,X1,B22*%
%TO.N,/Sheet 1/-REG-UP*%
X25367000Y-52875000D03*
%TO.P,X1,B23*%
%TO.N,/Sheet 1/-MEM-RD*%
X25367000Y-50335000D03*
%TO.P,X1,B24*%
%TO.N,/Sheet 1/-MEM-WR*%
X25367000Y-47795000D03*
%TO.P,X1,B25*%
%TO.N,-IO-RD*%
X25367000Y-45255000D03*
%TO.P,X1,B26*%
%TO.N,-IO-WR*%
X25367000Y-42715000D03*
%TO.P,X1,B27*%
%TO.N,/Sheet 1/-TMP-REG-RD0*%
X25367000Y-40175000D03*
%TO.P,X1,B28*%
%TO.N,/Sheet 1/-TMP-REG-LD0*%
X25367000Y-37635000D03*
%TO.P,X1,B29*%
%TO.N,/Sheet 1/-TMP-REG-RD1*%
X25367000Y-35095000D03*
%TO.P,X1,B30*%
%TO.N,/Sheet 1/-TMP-REG-LD1*%
X25367000Y-32555000D03*
%TO.P,X1,B31*%
%TO.N,VCC*%
X25367000Y-30015000D03*
%TO.P,X1,B32*%
%TO.N,GND*%
X25367000Y-27475000D03*
%TO.P,X1,C1*%
X27907000Y-106215000D03*
%TO.P,X1,C2*%
%TO.N,VCC*%
X27907000Y-103675000D03*
%TO.P,X1,C3*%
%TO.N,/Sheet 1/ADDR-REG-ID0*%
X27907000Y-101135000D03*
%TO.P,X1,C4*%
%TO.N,/Sheet 1/ADDR-REG-ID1*%
X27907000Y-98595000D03*
%TO.P,X1,C5*%
%TO.N,/Sheet 1/ADDR-REG-ID2*%
X27907000Y-96055000D03*
%TO.P,X1,C6*%
%TO.N,/Sheet 1/ADDR-REG-ID3*%
X27907000Y-93515000D03*
%TO.P,X1,C7*%
%TO.N,IO-ADDR0*%
X27907000Y-90975000D03*
%TO.P,X1,C8*%
%TO.N,IO-ADDR1*%
X27907000Y-88435000D03*
%TO.P,X1,C9*%
%TO.N,IO-ADDR2*%
X27907000Y-85895000D03*
%TO.P,X1,C10*%
%TO.N,IO-ADDR3*%
X27907000Y-83355000D03*
%TO.P,X1,C11*%
%TO.N,/Sheet 1/-IO-ADDR-LD*%
X27907000Y-80815000D03*
%TO.P,X1,C12*%
%TO.N,/Sheet 1/-VMA*%
X27907000Y-78275000D03*
%TO.P,X1,C13*%
%TO.N,-INT*%
X27907000Y-75735000D03*
%TO.P,X1,C14*%
%TO.N,/Sheet 1/-INTA*%
X27907000Y-73195000D03*
%TO.P,X1,C15*%
%TO.N,/Sheet 1/-ALU-FUNC*%
X27907000Y-70655000D03*
%TO.P,X1,C16*%
%TO.N,/Sheet 1/ALU0*%
X27907000Y-68115000D03*
%TO.P,X1,C17*%
%TO.N,/Sheet 1/ALU1*%
X27907000Y-65575000D03*
%TO.P,X1,C18*%
%TO.N,/Sheet 1/ALU2*%
X27907000Y-63035000D03*
%TO.P,X1,C19*%
%TO.N,/Sheet 1/ALU3*%
X27907000Y-60495000D03*
%TO.P,X1,C20*%
%TO.N,/Sheet 1/-AC-LD-INV*%
X27907000Y-57955000D03*
%TO.P,X1,C21*%
%TO.N,/Sheet 1/-AC-RD*%
X27907000Y-55415000D03*
%TO.P,X1,C22*%
%TO.N,/Sheet 1/-AC-LD*%
X27907000Y-52875000D03*
%TO.P,X1,C23*%
%TO.N,/Sheet 1/-SR-LD*%
X27907000Y-50335000D03*
%TO.P,X1,C24*%
%TO.N,/Sheet 1/BR-COND*%
X27907000Y-47795000D03*
%TO.P,X1,C25*%
%TO.N,/Sheet 1/-HL-SWAP*%
X27907000Y-45255000D03*
%TO.P,X1,C26*%
%TO.N,IN*%
X27907000Y-42715000D03*
%TO.P,X1,C27*%
%TO.N,OUT*%
X27907000Y-40175000D03*
%TO.P,X1,C28*%
%TO.N,/Sheet 1/-BUS-EN*%
X27907000Y-37635000D03*
%TO.P,X1,C29*%
%TO.N,/Sheet 1/-RUN*%
X27907000Y-35095000D03*
%TO.P,X1,C30*%
%TO.N,-RESET*%
X27907000Y-32555000D03*
%TO.P,X1,C31*%
%TO.N,VCC*%
X27907000Y-30015000D03*
%TO.P,X1,C32*%
%TO.N,GND*%
X27907000Y-27475000D03*
%TD*%
D22*
%TO.P,IO-ADDR-HL0,1*%
%TO.N,GND*%
X32987000Y-113835000D03*
%TO.P,IO-ADDR-HL0,2*%
%TO.N,IO-ADDR3*%
X32987000Y-111295000D03*
%TO.P,IO-ADDR-HL0,3*%
%TO.N,Net-(IC5-G2A)*%
X35527000Y-113835000D03*
%TO.P,IO-ADDR-HL0,4*%
%TO.N,Net-(IC5-G1)*%
X35527000Y-111295000D03*
%TO.P,IO-ADDR-HL0,5*%
%TO.N,IO-ADDR3*%
X38067000Y-113835000D03*
%TO.P,IO-ADDR-HL0,6*%
%TO.N,VCC*%
X38067000Y-111295000D03*
%TD*%
D15*
%TO.P,UNK4,A*%
%TO.N,Net-(R7-Pad1)*%
X185387000Y-37635000D03*
%TO.P,UNK4,K*%
%TO.N,GND*%
X187927000Y-37635000D03*
%TD*%
D29*
%TO.P,IO-ADDR0,1*%
%TO.N,/Sheet 5/-IO-ADDRSEL*%
X39337000Y-117645000D03*
%TO.P,IO-ADDR0,2*%
%TO.N,/Sheet 5/-IO-SEL7*%
X39337000Y-120185000D03*
%TO.P,IO-ADDR0,3*%
%TO.N,/Sheet 5/-IO-ADDRSEL*%
X36797000Y-117645000D03*
%TO.P,IO-ADDR0,4*%
%TO.N,/Sheet 5/-IO-SEL6*%
X36797000Y-120185000D03*
%TO.P,IO-ADDR0,5*%
%TO.N,/Sheet 5/-IO-ADDRSEL*%
X34257000Y-117645000D03*
%TO.P,IO-ADDR0,6*%
%TO.N,-IO-SEL5*%
X34257000Y-120185000D03*
%TO.P,IO-ADDR0,7*%
%TO.N,/Sheet 5/-IO-ADDRSEL*%
X31717000Y-117645000D03*
%TO.P,IO-ADDR0,8*%
%TO.N,-IO-SEL4*%
X31717000Y-120185000D03*
%TO.P,IO-ADDR0,9*%
%TO.N,/Sheet 5/-IO-ADDRSEL*%
X29177000Y-117645000D03*
%TO.P,IO-ADDR0,10*%
%TO.N,/Sheet 5/-IO-SEL3*%
X29177000Y-120185000D03*
%TO.P,IO-ADDR0,11*%
%TO.N,/Sheet 5/-IO-ADDRSEL*%
X26637000Y-117645000D03*
%TO.P,IO-ADDR0,12*%
%TO.N,/Sheet 5/-IO-SEL2*%
X26637000Y-120185000D03*
%TO.P,IO-ADDR0,13*%
%TO.N,/Sheet 5/-IO-ADDRSEL*%
X24097000Y-117645000D03*
%TO.P,IO-ADDR0,14*%
%TO.N,/Sheet 5/-IO-SEL1*%
X24097000Y-120185000D03*
%TO.P,IO-ADDR0,15*%
%TO.N,/Sheet 5/-IO-ADDRSEL*%
X21557000Y-117645000D03*
%TO.P,IO-ADDR0,16*%
%TO.N,/Sheet 5/-IO-SEL0*%
X21557000Y-120185000D03*
%TD*%
D27*
%TO.P,JP2,1*%
%TO.N,VCC*%
X31000000Y-17800000D03*
D28*
%TO.P,JP2,2*%
%TO.N,/Sheet 7/PIN20*%
X31000000Y-20340000D03*
%TD*%
D21*
%TO.P,IC3,1*%
%TO.N,Net-(IC3A-G)*%
X40607000Y-31285000D03*
%TO.P,IC3,2*%
%TO.N,Net-(IC3A-A1)*%
X43147000Y-31285000D03*
%TO.P,IC3,3*%
%TO.N,DATA7*%
X45687000Y-31285000D03*
%TO.P,IC3,4*%
%TO.N,Net-(IC3A-A2)*%
X48227000Y-31285000D03*
%TO.P,IC3,5*%
%TO.N,DATA6*%
X50767000Y-31285000D03*
%TO.P,IC3,6*%
%TO.N,Net-(IC3A-A3)*%
X53307000Y-31285000D03*
%TO.P,IC3,7*%
%TO.N,DATA5*%
X55847000Y-31285000D03*
%TO.P,IC3,8*%
%TO.N,Net-(IC3A-A4)*%
X58387000Y-31285000D03*
%TO.P,IC3,9*%
%TO.N,DATA4*%
X60927000Y-31285000D03*
%TO.P,IC3,10*%
%TO.N,GND*%
X63467000Y-31285000D03*
%TO.P,IC3,11*%
%TO.N,Net-(IC3B-A1)*%
X63467000Y-23665000D03*
%TO.P,IC3,12*%
%TO.N,DATA3*%
X60927000Y-23665000D03*
%TO.P,IC3,13*%
%TO.N,Net-(IC3B-A2)*%
X58387000Y-23665000D03*
%TO.P,IC3,14*%
%TO.N,DATA2*%
X55847000Y-23665000D03*
%TO.P,IC3,15*%
%TO.N,Net-(IC3B-A3)*%
X53307000Y-23665000D03*
%TO.P,IC3,16*%
%TO.N,DATA1*%
X50767000Y-23665000D03*
%TO.P,IC3,17*%
%TO.N,Net-(IC3B-A4)*%
X48227000Y-23665000D03*
%TO.P,IC3,18*%
%TO.N,DATA0*%
X45687000Y-23665000D03*
%TO.P,IC3,19*%
%TO.N,Net-(IC3A-G)*%
X43147000Y-23665000D03*
%TO.P,IC3,20*%
%TO.N,VCC*%
X40607000Y-23665000D03*
%TD*%
D12*
%TO.P,C7,1*%
%TO.N,VCC*%
X102837000Y-43985000D03*
%TO.P,C7,2*%
%TO.N,GND*%
X102837000Y-41445000D03*
%TD*%
D11*
%TO.P,R13,1*%
%TO.N,VCC*%
X31000000Y-59200000D03*
%TO.P,R13,2*%
%TO.N,/Sheet 7/-DASP*%
X41160000Y-59200000D03*
%TD*%
%TO.P,R11,1*%
%TO.N,VCC*%
X31000000Y-53000000D03*
%TO.P,R11,2*%
%TO.N,/Sheet 7/IORDY*%
X41160000Y-53000000D03*
%TD*%
D31*
%TO.P,LED1,1*%
%TO.N,/Sheet 7/ACTK*%
X185400000Y-113200000D03*
D32*
%TO.P,LED1,2*%
%TO.N,/Sheet 7/LEDA2*%
X187940000Y-113200000D03*
%TD*%
D12*
%TO.P,C10,1*%
%TO.N,VCC*%
X81247000Y-77005000D03*
%TO.P,C10,2*%
%TO.N,GND*%
X81247000Y-74465000D03*
%TD*%
D14*
%TO.P,IC14,1*%
%TO.N,/Sheet 7/-IOR*%
X108300000Y-89800000D03*
D11*
%TO.P,IC14,2*%
%TO.N,/Sheet 7/-IOW*%
X108300000Y-92340000D03*
%TO.P,IC14,3*%
%TO.N,/Sheet 7/-CFOE*%
X108300000Y-94880000D03*
%TO.P,IC14,4*%
%TO.N,-RESET*%
X108300000Y-97420000D03*
%TO.P,IC14,5*%
%TO.N,/Sheet 7/-SRST*%
X108300000Y-99960000D03*
%TO.P,IC14,6*%
%TO.N,/Sheet 7/-CFRESET*%
X108300000Y-102500000D03*
%TO.P,IC14,7*%
%TO.N,GND*%
X108300000Y-105040000D03*
%TO.P,IC14,8*%
%TO.N,/Sheet 7/ACTK*%
X115920000Y-105040000D03*
%TO.P,IC14,9*%
%TO.N,/Sheet 7/-CFOE*%
X115920000Y-102500000D03*
%TO.P,IC14,10*%
X115920000Y-99960000D03*
%TO.P,IC14,11*%
%TO.N,unconnected-(IC14-Pad11)*%
X115920000Y-97420000D03*
%TO.P,IC14,12*%
%TO.N,GND*%
X115920000Y-94880000D03*
%TO.P,IC14,13*%
X115920000Y-92340000D03*
%TO.P,IC14,14*%
%TO.N,VCC*%
X115920000Y-89800000D03*
%TD*%
D18*
%TO.P,R5,1*%
%TO.N,Net-(R5-Pad1)*%
X181577000Y-54145000D03*
%TO.P,R5,2*%
%TO.N,Net-(IC4-Q3)*%
X171417000Y-54145000D03*
%TD*%
D11*
%TO.P,R14,1*%
%TO.N,VCC*%
X31000000Y-62300000D03*
%TO.P,R14,2*%
%TO.N,/Sheet 7/-DMACK*%
X41160000Y-62300000D03*
%TD*%
D33*
%TO.P,INPUT0,1*%
%TO.N,IN*%
X124417000Y-118915000D03*
%TO.P,INPUT0,2*%
%TO.N,Net-(IN0-P)*%
X124417000Y-116375000D03*
%TD*%
D18*
%TO.P,R7,1*%
%TO.N,Net-(R7-Pad1)*%
X181577000Y-37635000D03*
%TO.P,R7,2*%
%TO.N,Net-(IC4-Q5)*%
X171417000Y-37635000D03*
%TD*%
D21*
%TO.P,IC2,1*%
%TO.N,Net-(IC2-C1+)*%
X81247000Y-65575000D03*
%TO.P,IC2,2*%
%TO.N,Net-(IC2-V+)*%
X83787000Y-65575000D03*
%TO.P,IC2,3*%
%TO.N,Net-(IC2-C1-)*%
X86327000Y-65575000D03*
%TO.P,IC2,4*%
%TO.N,Net-(IC2-C2+)*%
X88867000Y-65575000D03*
%TO.P,IC2,5*%
%TO.N,Net-(IC2-C2-)*%
X91407000Y-65575000D03*
%TO.P,IC2,6*%
%TO.N,Net-(IC2-V-)*%
X93947000Y-65575000D03*
%TO.P,IC2,7*%
%TO.N,unconnected-(IC2-T2OUT-Pad7)*%
X96487000Y-65575000D03*
%TO.P,IC2,8*%
%TO.N,unconnected-(IC2-R2IN-Pad8)*%
X99027000Y-65575000D03*
%TO.P,IC2,9*%
%TO.N,unconnected-(IC2-R2OUT-Pad9)*%
X99027000Y-57955000D03*
%TO.P,IC2,10*%
%TO.N,unconnected-(IC2-T2IN-Pad10)*%
X96487000Y-57955000D03*
%TO.P,IC2,11*%
%TO.N,Net-(IC1-TX)*%
X93947000Y-57955000D03*
%TO.P,IC2,12*%
%TO.N,/Sheet 2/RX*%
X91407000Y-57955000D03*
%TO.P,IC2,13*%
%TO.N,/Sheet 2/RX-IN*%
X88867000Y-57955000D03*
%TO.P,IC2,14*%
%TO.N,/Sheet 2/TX-OUT*%
X86327000Y-57955000D03*
%TO.P,IC2,15*%
%TO.N,GND*%
X83787000Y-57955000D03*
%TO.P,IC2,16*%
%TO.N,VCC*%
X81247000Y-57955000D03*
%TD*%
%TO.P,IC8,1*%
%TO.N,-IO-RD*%
X83787000Y-79545000D03*
%TO.P,IC8,2*%
%TO.N,IO-RD*%
X86327000Y-79545000D03*
%TO.P,IC8,3*%
%TO.N,-IO-WR*%
X88867000Y-79545000D03*
%TO.P,IC8,4*%
%TO.N,IO-WR*%
X91407000Y-79545000D03*
%TO.P,IC8,5*%
%TO.N,-RESET*%
X93947000Y-79545000D03*
%TO.P,IC8,6*%
%TO.N,RESET*%
X96487000Y-79545000D03*
%TO.P,IC8,7*%
%TO.N,GND*%
X99027000Y-79545000D03*
%TO.P,IC8,8*%
%TO.N,-B-RESET*%
X99027000Y-71925000D03*
%TO.P,IC8,9*%
%TO.N,RESET*%
X96487000Y-71925000D03*
%TO.P,IC8,10*%
%TO.N,IO-SELDATA*%
X93947000Y-71925000D03*
%TO.P,IC8,11*%
%TO.N,/Sheet 5/-IO-DATASEL*%
X91407000Y-71925000D03*
%TO.P,IC8,12*%
%TO.N,-INT*%
X88867000Y-71925000D03*
%TO.P,IC8,13*%
%TO.N,Net-(IC8F-I)*%
X86327000Y-71925000D03*
%TO.P,IC8,14*%
%TO.N,VCC*%
X83787000Y-71925000D03*
%TD*%
D15*
%TO.P,UNK1,A*%
%TO.N,Net-(R4-Pad1)*%
X185387000Y-61765000D03*
%TO.P,UNK1,K*%
%TO.N,GND*%
X187927000Y-61765000D03*
%TD*%
D18*
%TO.P,R3,1*%
%TO.N,Net-(R3-Pad1)*%
X181577000Y-69385000D03*
%TO.P,R3,2*%
%TO.N,Net-(IC4-Q1)*%
X171417000Y-69385000D03*
%TD*%
D12*
%TO.P,C12,1*%
%TO.N,VCC*%
X59657000Y-90975000D03*
%TO.P,C12,2*%
%TO.N,GND*%
X59657000Y-88435000D03*
%TD*%
D21*
%TO.P,LO0,1*%
%TO.N,VCC*%
X190467000Y-89705000D03*
%TO.P,LO0,2*%
%TO.N,Net-(IC9-Q2)*%
X187927000Y-89705000D03*
%TO.P,LO0,3*%
%TO.N,Net-(IC9-Q1)*%
X185387000Y-89705000D03*
%TO.P,LO0,4*%
%TO.N,unconnected-(LO0A-DP-L-Pad4)*%
X182847000Y-89705000D03*
%TO.P,LO0,5*%
%TO.N,GND*%
X180307000Y-89705000D03*
%TO.P,LO0,7*%
X175227000Y-89705000D03*
%TO.P,LO0,8*%
X175227000Y-97325000D03*
%TO.P,LO0,10*%
%TO.N,unconnected-(LO0A-DP-R-Pad10)*%
X180307000Y-97325000D03*
%TO.P,LO0,12*%
%TO.N,Net-(IC9-Q4)*%
X185387000Y-97325000D03*
%TO.P,LO0,13*%
%TO.N,Net-(IC9-Q3)*%
X187927000Y-97325000D03*
%TO.P,LO0,14*%
%TO.N,VCC*%
X190467000Y-97325000D03*
%TD*%
D15*
%TO.P,OUT0,A*%
%TO.N,Net-(OUT0-PadA)*%
X185387000Y-106215000D03*
%TO.P,OUT0,K*%
%TO.N,GND*%
X187927000Y-106215000D03*
%TD*%
D34*
%TO.P,J1,1*%
%TO.N,unconnected-(J1-Pad1)*%
X155367000Y-112415000D03*
D35*
%TO.P,J1,2*%
%TO.N,Net-(J1-Pad2)*%
X152597000Y-112415000D03*
%TO.P,J1,3*%
%TO.N,Net-(J1-Pad3)*%
X149827000Y-112415000D03*
%TO.P,J1,4*%
%TO.N,unconnected-(J1-Pad4)*%
X147057000Y-112415000D03*
%TO.P,J1,5*%
%TO.N,GND*%
X144287000Y-112415000D03*
%TO.P,J1,6*%
%TO.N,unconnected-(J1-Pad6)*%
X153977000Y-115255000D03*
%TO.P,J1,7*%
%TO.N,unconnected-(J1-Pad7)*%
X151207000Y-115255000D03*
%TO.P,J1,8*%
%TO.N,unconnected-(J1-Pad8)*%
X148447000Y-115255000D03*
%TO.P,J1,9*%
%TO.N,unconnected-(J1-Pad9)*%
X145677000Y-115255000D03*
D36*
%TO.P,J1,G1*%
%TO.N,N/C*%
X162327000Y-113835000D03*
%TO.P,J1,G2*%
X137327000Y-113835000D03*
%TD*%
D12*
%TO.P,C5,1*%
%TO.N,VCC*%
X170147000Y-83355000D03*
%TO.P,C5,2*%
%TO.N,GND*%
X170147000Y-80815000D03*
%TD*%
%TO.P,C13,1*%
%TO.N,VCC*%
X52037000Y-104945000D03*
%TO.P,C13,2*%
%TO.N,GND*%
X52037000Y-102405000D03*
%TD*%
D37*
%TO.P,J2,1*%
%TO.N,/Sheet 7/-CFRESET*%
X101000000Y-14500000D03*
D28*
%TO.P,J2,2*%
%TO.N,GND*%
X101000000Y-17040000D03*
%TO.P,J2,3*%
%TO.N,/Sheet 7/CFD7*%
X98460000Y-14500000D03*
%TO.P,J2,4*%
%TO.N,unconnected-(J2-Pin_4-Pad4)*%
X98460000Y-17040000D03*
%TO.P,J2,5*%
%TO.N,/Sheet 7/CFD6*%
X95920000Y-14500000D03*
%TO.P,J2,6*%
%TO.N,unconnected-(J2-Pin_6-Pad6)*%
X95920000Y-17040000D03*
%TO.P,J2,7*%
%TO.N,/Sheet 7/CFD5*%
X93380000Y-14500000D03*
%TO.P,J2,8*%
%TO.N,unconnected-(J2-Pin_8-Pad8)*%
X93380000Y-17040000D03*
%TO.P,J2,9*%
%TO.N,/Sheet 7/CFD4*%
X90840000Y-14500000D03*
%TO.P,J2,10*%
%TO.N,unconnected-(J2-Pin_10-Pad10)*%
X90840000Y-17040000D03*
%TO.P,J2,11*%
%TO.N,/Sheet 7/CFD3*%
X88300000Y-14500000D03*
%TO.P,J2,12*%
%TO.N,unconnected-(J2-Pin_12-Pad12)*%
X88300000Y-17040000D03*
%TO.P,J2,13*%
%TO.N,/Sheet 7/CFD2*%
X85760000Y-14500000D03*
%TO.P,J2,14*%
%TO.N,unconnected-(J2-Pin_14-Pad14)*%
X85760000Y-17040000D03*
%TO.P,J2,15*%
%TO.N,/Sheet 7/CFD1*%
X83220000Y-14500000D03*
%TO.P,J2,16*%
%TO.N,unconnected-(J2-Pin_16-Pad16)*%
X83220000Y-17040000D03*
%TO.P,J2,17*%
%TO.N,/Sheet 7/CFD0*%
X80680000Y-14500000D03*
%TO.P,J2,18*%
%TO.N,unconnected-(J2-Pin_18-Pad18)*%
X80680000Y-17040000D03*
%TO.P,J2,19*%
%TO.N,GND*%
X78140000Y-14500000D03*
%TO.P,J2,20*%
%TO.N,/Sheet 7/PIN20*%
X78140000Y-17040000D03*
%TO.P,J2,21*%
%TO.N,unconnected-(J2-Pin_21-Pad21)*%
X75600000Y-14500000D03*
%TO.P,J2,22*%
%TO.N,GND*%
X75600000Y-17040000D03*
%TO.P,J2,23*%
%TO.N,/Sheet 7/-IOW*%
X73060000Y-14500000D03*
%TO.P,J2,24*%
%TO.N,GND*%
X73060000Y-17040000D03*
%TO.P,J2,25*%
%TO.N,/Sheet 7/-IOR*%
X70520000Y-14500000D03*
%TO.P,J2,26*%
%TO.N,GND*%
X70520000Y-17040000D03*
%TO.P,J2,27*%
%TO.N,/Sheet 7/IORDY*%
X67980000Y-14500000D03*
%TO.P,J2,28*%
%TO.N,GND*%
X67980000Y-17040000D03*
%TO.P,J2,29*%
%TO.N,/Sheet 7/-DMACK*%
X65440000Y-14500000D03*
%TO.P,J2,30*%
%TO.N,GND*%
X65440000Y-17040000D03*
%TO.P,J2,31*%
%TO.N,unconnected-(J2-Pin_31-Pad31)*%
X62900000Y-14500000D03*
%TO.P,J2,32*%
%TO.N,unconnected-(J2-Pin_32-Pad32)*%
X62900000Y-17040000D03*
%TO.P,J2,33*%
%TO.N,/Sheet 7/DA1*%
X60360000Y-14500000D03*
%TO.P,J2,34*%
%TO.N,/Sheet 7/-PDIAG*%
X60360000Y-17040000D03*
%TO.P,J2,35*%
%TO.N,/Sheet 7/DA0*%
X57820000Y-14500000D03*
%TO.P,J2,36*%
%TO.N,/Sheet 7/DA2*%
X57820000Y-17040000D03*
%TO.P,J2,37*%
%TO.N,GND*%
X55280000Y-14500000D03*
%TO.P,J2,38*%
%TO.N,VCC*%
X55280000Y-17040000D03*
%TO.P,J2,39*%
%TO.N,/Sheet 7/-DASP*%
X52740000Y-14500000D03*
%TO.P,J2,40*%
%TO.N,GND*%
X52740000Y-17040000D03*
%TD*%
D18*
%TO.P,R9,1*%
%TO.N,Net-(R9-Pad1)*%
X181577000Y-22395000D03*
%TO.P,R9,2*%
%TO.N,Net-(IC4-Q7)*%
X171417000Y-22395000D03*
%TD*%
D12*
%TO.P,C6,1*%
%TO.N,VCC*%
X170147000Y-94785000D03*
%TO.P,C6,2*%
%TO.N,GND*%
X170147000Y-92245000D03*
%TD*%
D13*
%TO.P,S3,1*%
%TO.N,VCC*%
X119718000Y-57955000D03*
%TO.P,S3,2*%
%TO.N,Net-(IC3A-A4)*%
X124417000Y-57955000D03*
%TO.P,S3,3*%
%TO.N,GND*%
X129116000Y-57955000D03*
%TD*%
D21*
%TO.P,RN2,1*%
%TO.N,VCC*%
X58387000Y-115105000D03*
%TO.P,RN2,2*%
%TO.N,-INT*%
X60927000Y-115105000D03*
%TO.P,RN2,3*%
%TO.N,IO-SELDATA*%
X63467000Y-115105000D03*
%TO.P,RN2,4*%
%TO.N,-B-RESET*%
X66007000Y-115105000D03*
%TO.P,RN2,5*%
%TO.N,RESET*%
X68547000Y-115105000D03*
%TO.P,RN2,6*%
%TO.N,IO-WR*%
X71087000Y-115105000D03*
%TO.P,RN2,7*%
%TO.N,IO-RD*%
X73627000Y-115105000D03*
%TD*%
D11*
%TO.P,C20,1*%
%TO.N,VCC*%
X108800000Y-108300000D03*
%TO.P,C20,2*%
%TO.N,GND*%
X113800000Y-108300000D03*
%TD*%
D15*
%TO.P,UNK3,A*%
%TO.N,Net-(R6-Pad1)*%
X185387000Y-46525000D03*
%TO.P,UNK3,K*%
%TO.N,GND*%
X187927000Y-46525000D03*
%TD*%
D19*
%TO.P,C2,+*%
%TO.N,Net-(IC2-C2+)*%
X102837000Y-63035000D03*
D20*
%TO.P,C2,-*%
%TO.N,Net-(IC2-C2-)*%
X105377000Y-63035000D03*
%TD*%
D13*
%TO.P,IN0,1*%
%TO.N,VCC*%
X119718000Y-106850000D03*
%TO.P,IN0,2*%
%TO.N,Net-(IN0-P)*%
X124417000Y-106850000D03*
%TO.P,IN0,3*%
%TO.N,GND*%
X129116000Y-106850000D03*
%TD*%
D12*
%TO.P,C14,1*%
%TO.N,VCC*%
X48227000Y-63035000D03*
%TO.P,C14,2*%
%TO.N,GND*%
X48227000Y-60495000D03*
%TD*%
%TO.P,C16,1*%
%TO.N,VCC*%
X38067000Y-28745000D03*
%TO.P,C16,2*%
%TO.N,GND*%
X38067000Y-26205000D03*
%TD*%
D11*
%TO.P,R12,1*%
%TO.N,VCC*%
X31000000Y-56100000D03*
%TO.P,R12,2*%
%TO.N,/Sheet 7/-PDIAG*%
X41160000Y-56100000D03*
%TD*%
D18*
%TO.P,R1,1*%
%TO.N,Net-(OUT0-PadA)*%
X181577000Y-106215000D03*
%TO.P,R1,2*%
%TO.N,OUT*%
X171417000Y-106215000D03*
%TD*%
D15*
%TO.P,UNK7,A*%
%TO.N,Net-(R10-Pad1)*%
X185387000Y-14775000D03*
%TO.P,UNK7,K*%
%TO.N,GND*%
X187927000Y-14775000D03*
%TD*%
D12*
%TO.P,C9,1*%
%TO.N,VCC*%
X55847000Y-77005000D03*
%TO.P,C9,2*%
%TO.N,GND*%
X55847000Y-74465000D03*
%TD*%
D14*
%TO.P,IC12,1*%
%TO.N,-IO-SEL4*%
X108300000Y-68200000D03*
D11*
%TO.P,IC12,2*%
%TO.N,-IO-WR*%
X108300000Y-70740000D03*
%TO.P,IC12,3*%
%TO.N,/Sheet 7/LATCHCLK*%
X108300000Y-73280000D03*
%TO.P,IC12,4*%
%TO.N,-IO-SEL5*%
X108300000Y-75820000D03*
%TO.P,IC12,5*%
%TO.N,-IO-RD*%
X108300000Y-78360000D03*
%TO.P,IC12,6*%
%TO.N,/Sheet 7/-IOR*%
X108300000Y-80900000D03*
%TO.P,IC12,7*%
%TO.N,GND*%
X108300000Y-83440000D03*
%TO.P,IC12,8*%
%TO.N,/Sheet 7/-IOW*%
X115920000Y-83440000D03*
%TO.P,IC12,9*%
%TO.N,-IO-SEL5*%
X115920000Y-80900000D03*
%TO.P,IC12,10*%
%TO.N,-IO-WR*%
X115920000Y-78360000D03*
%TO.P,IC12,11*%
%TO.N,unconnected-(IC12-Pad11)*%
X115920000Y-75820000D03*
%TO.P,IC12,12*%
%TO.N,GND*%
X115920000Y-73280000D03*
%TO.P,IC12,13*%
X115920000Y-70740000D03*
%TO.P,IC12,14*%
%TO.N,VCC*%
X115920000Y-68200000D03*
%TD*%
D38*
%TO.N,VCC*%
X57560000Y-19473000D03*
X119682900Y-71548200D03*
X121221600Y-23130600D03*
X170434400Y-29002400D03*
X63410800Y-28387000D03*
X123132000Y-97884000D03*
X94582000Y-44620000D03*
X120760400Y-62557500D03*
X81882000Y-103040000D03*
X106801500Y-65409900D03*
X70359400Y-19310600D03*
X121989000Y-94963000D03*
X100265500Y-39683000D03*
X32454000Y-42004000D03*
X172150700Y-36838700D03*
X122531100Y-19856000D03*
X127223400Y-94132000D03*
X104528300Y-37070600D03*
X122842900Y-85747100D03*
X118179000Y-41369000D03*
X80047600Y-86504900D03*
X120719000Y-51783000D03*
X119044100Y-64611000D03*
X58387000Y-102405000D03*
X114724700Y-30510000D03*
X67370800Y-23665000D03*
%TO.N,/Sheet 7/CFD0*%
X113091000Y-15661200D03*
X54171000Y-13302000D03*
%TO.N,/Sheet 7/CFD1*%
X126581600Y-21088200D03*
X93500200Y-11262400D03*
%TO.N,/Sheet 7/CFD2*%
X110490500Y-16597300D03*
X119669300Y-23138200D03*
X109276400Y-15202300D03*
X95104800Y-15601900D03*
%TO.N,/Sheet 7/CFD3*%
X93877000Y-11786100D03*
X120192800Y-23671800D03*
%TO.N,/Sheet 7/CFD4*%
X100306500Y-12246600D03*
X122197700Y-23136100D03*
%TO.N,/Sheet 7/CFD6*%
X92398000Y-20668000D03*
%TO.N,/Sheet 7/CFD7*%
X99002000Y-12921000D03*
X111067000Y-18890000D03*
X109543000Y-13429000D03*
X88765700Y-13075400D03*
X113860999Y-30447000D03*
%TO.N,GND*%
X62204000Y-25758600D03*
X55187000Y-18381999D03*
X109289000Y-66388000D03*
X62299000Y-21303000D03*
X101567000Y-37000000D03*
X170756100Y-59444200D03*
X56330000Y-19525000D03*
X113607000Y-70706000D03*
X122630400Y-96528700D03*
X64966000Y-17874000D03*
X171893100Y-108593700D03*
X106749000Y-61689000D03*
X102978200Y-36224200D03*
X53663000Y-17239000D03*
%TO.N,Net-(IC3A-A2)*%
X48456000Y-35400000D03*
%TO.N,-RESET*%
X57739900Y-21002200D03*
X102939000Y-76675000D03*
X107257000Y-72357000D03*
X105606000Y-40861000D03*
X104336000Y-21557000D03*
X103278600Y-77661900D03*
%TO.N,/Sheet 7/DA0*%
X71316000Y-22064999D03*
X72967000Y-22064999D03*
X107130000Y-43147000D03*
X103574000Y-39591000D03*
X97097000Y-27526000D03*
X89731000Y-21811000D03*
X91382000Y-21684000D03*
%TO.N,DATA0*%
X80587000Y-30574000D03*
X51891300Y-30864900D03*
X51402000Y-46681400D03*
X106622000Y-33368000D03*
X97351000Y-32733000D03*
X53942000Y-67480000D03*
%TO.N,DATA1*%
X55847000Y-52240000D03*
X60902000Y-96741000D03*
X57612800Y-27018400D03*
X52593600Y-46692700D03*
X87264900Y-27917400D03*
X107021900Y-28825700D03*
X60927000Y-97325000D03*
X110119100Y-52400700D03*
X22192000Y-89705000D03*
%TO.N,/Sheet 7/DA1*%
X82238000Y-36289000D03*
X103701000Y-59149000D03*
X61410000Y-25748000D03*
X98621000Y-54069000D03*
X61791000Y-16350000D03*
X72713000Y-26891000D03*
X83889000Y-37940000D03*
X75380000Y-29050000D03*
X94684000Y-54069000D03*
%TO.N,/Sheet 7/LATCHCLK*%
X116020000Y-65879999D03*
%TO.N,/Sheet 7/DA2*%
X56076000Y-42258000D03*
X106114000Y-55720000D03*
X60648000Y-48354000D03*
X104844000Y-52291000D03*
X46424000Y-25875000D03*
X53790000Y-39972000D03*
X49726000Y-34129999D03*
X54806000Y-20287000D03*
%TO.N,DATA2*%
X130697700Y-51081200D03*
X100145000Y-20795000D03*
X99309000Y-21470500D03*
X108908000Y-22192000D03*
X87064000Y-36924000D03*
X69792000Y-54704000D03*
X67912000Y-104310000D03*
X55067900Y-46681000D03*
X64737000Y-52875000D03*
X69182000Y-104945000D03*
X52672000Y-54145000D03*
X105606000Y-20795000D03*
X79571000Y-44417000D03*
X107765000Y-22319000D03*
X65474000Y-54704000D03*
%TO.N,DATA3*%
X57337400Y-46692300D03*
X59022000Y-52875000D03*
X59657000Y-63670000D03*
X101346300Y-22583900D03*
X78707000Y-64305000D03*
X122370000Y-51402000D03*
X119576000Y-51783000D03*
%TO.N,/Sheet 7/-SRST*%
X106876000Y-86708000D03*
X114496000Y-53434000D03*
X110559000Y-54577000D03*
X109162000Y-72357000D03*
X110178000Y-77945000D03*
X105606000Y-95471000D03*
X105606000Y-96868000D03*
%TO.N,Net-(IC3A-A1)*%
X109289000Y-27526000D03*
X111194000Y-52291000D03*
%TO.N,Net-(TM1-S)*%
X118034800Y-99244900D03*
X166083800Y-99244900D03*
%TO.N,DATA4*%
X61562000Y-53510000D03*
X95065000Y-22192000D03*
X62116600Y-43725100D03*
X67912000Y-54145000D03*
X75532000Y-53510000D03*
X107511000Y-25240000D03*
%TO.N,DATA5*%
X94303000Y-26637000D03*
X90366000Y-31590000D03*
X131566100Y-40229400D03*
X33781900Y-49543200D03*
X64420400Y-46677900D03*
X89604000Y-33748999D03*
X88080000Y-42893000D03*
%TO.N,DATA6*%
X69792000Y-48862000D03*
X22192000Y-94785000D03*
X84651000Y-27780000D03*
X77539000Y-41115000D03*
X79825000Y-30574000D03*
X59022000Y-47795000D03*
X79825000Y-36543000D03*
X130584700Y-40872100D03*
%TO.N,DATA7*%
X56482000Y-96690000D03*
X67252000Y-32606000D03*
X70554000Y-47211000D03*
X62317500Y-33030200D03*
X68547000Y-55415000D03*
X67252000Y-33748999D03*
X69182000Y-52875000D03*
%TO.N,Net-(IC2-V+)*%
X84422000Y-69385000D03*
%TO.N,Net-(IC4-Q4)*%
X74021800Y-61472300D03*
%TO.N,-B-RESET*%
X75232700Y-68115000D03*
X75351100Y-33659900D03*
X76809000Y-47323000D03*
%TO.N,Net-(IC4-Q1)*%
X106622000Y-73881000D03*
X54044000Y-59911000D03*
X121481000Y-76675000D03*
X109289000Y-74516000D03*
X104844000Y-72103000D03*
X78174000Y-70579000D03*
X77412000Y-59911000D03*
%TO.N,Net-(IC4-Q3)*%
X64247400Y-62552200D03*
%TO.N,Net-(IC4-CLK)*%
X69817000Y-61130000D03*
X72992000Y-61130000D03*
%TO.N,Net-(IC4-Q5)*%
X169741000Y-49624000D03*
X72205000Y-54831000D03*
X116655000Y-55720000D03*
X168217000Y-51148000D03*
X120084000Y-52291000D03*
X109035000Y-55720000D03*
X107638000Y-55212000D03*
%TO.N,Net-(IC4-Q6)*%
X103701000Y-67531000D03*
X101795999Y-59276000D03*
X168217000Y-62324000D03*
%TO.N,Net-(IC4-Q7)*%
X168725000Y-49878000D03*
%TO.N,Net-(IC4-Q8)*%
X49091000Y-29304000D03*
X52647000Y-53434000D03*
X48710000Y-36416000D03*
X92906000Y-21176000D03*
%TO.N,/Sheet 2/RX-IN*%
X138743700Y-98031200D03*
X100853400Y-59392900D03*
%TO.N,/Sheet 2/TX-OUT*%
X129863000Y-97503000D03*
X106495000Y-66388000D03*
X86429000Y-62959000D03*
%TO.N,Net-(IC1-INT)*%
X66871000Y-54069000D03*
X75888000Y-35908000D03*
X47567000Y-59530000D03*
X75888000Y-41115000D03*
%TO.N,Net-(IC8F-I)*%
X53942000Y-105580000D03*
X85692000Y-104310000D03*
%TO.N,Net-(IC3B-A1)*%
X115131000Y-40353000D03*
X119449000Y-44671000D03*
X87191000Y-26764000D03*
X89350000Y-28923000D03*
X65220000Y-21557000D03*
%TO.N,/Sheet 7/-IOR*%
X72586000Y-15842000D03*
X127366800Y-44100900D03*
X117996700Y-84150500D03*
X130016700Y-23136400D03*
X124397800Y-51367800D03*
X99890999Y-18890000D03*
X126003100Y-71539400D03*
X117388900Y-14703400D03*
X127672200Y-14235500D03*
X74237000Y-15969000D03*
X123620200Y-44100900D03*
X109221700Y-85300900D03*
%TO.N,/Sheet 7/-CFOE*%
X131499800Y-19864400D03*
X126466800Y-87408700D03*
X124687400Y-13836500D03*
X114730100Y-13637000D03*
X129349900Y-43899700D03*
X126466800Y-51367800D03*
X131499800Y-23138800D03*
X117919200Y-100669600D03*
X120910000Y-95574400D03*
X117289600Y-96527400D03*
X126466800Y-45700300D03*
%TO.N,Net-(HI0A-D1)*%
X68547000Y-110660000D03*
X184117000Y-101135000D03*
%TO.N,Net-(HI0A-D0)*%
X164038800Y-94926900D03*
X104407400Y-98310300D03*
%TO.N,Net-(HI0A-D3)*%
X164084600Y-95568400D03*
X103945300Y-98771200D03*
%TO.N,Net-(HI0A-D2)*%
X66007000Y-110660000D03*
%TO.N,IO-WR*%
X71087000Y-95420000D03*
%TO.N,IO-SELDATA*%
X92677000Y-82085000D03*
X68547000Y-83355000D03*
X74262000Y-83355000D03*
%TO.N,TIL311*%
X60951000Y-33490300D03*
%TO.N,Net-(IC3B-A2)*%
X61283000Y-18381999D03*
%TO.N,Net-(IC2-V-)*%
X95217000Y-49065000D03*
%TO.N,Net-(IC1-XTAL1)*%
X50132000Y-46525000D03*
%TO.N,IO-RD*%
X82517000Y-96690000D03*
X70452000Y-96690000D03*
X100297000Y-77005000D03*
%TO.N,SWITCH-LED*%
X77031000Y-45052000D03*
X68014000Y-84549000D03*
X77031000Y-33748999D03*
X65474000Y-85184000D03*
X65372000Y-90340000D03*
%TO.N,Net-(IC3A-G)*%
X46551000Y-36416000D03*
X55314000Y-87724000D03*
X74237000Y-92804000D03*
%TO.N,Net-(IC6C-O)*%
X83152000Y-87800000D03*
%TO.N,LCD-ENABLE*%
X87572000Y-33748999D03*
X72967000Y-85311000D03*
X80587000Y-84549000D03*
X89604000Y-48989000D03*
%TO.N,Net-(IC3A-A3)*%
X65347000Y-46576000D03*
X62299000Y-42385000D03*
X109543000Y-62832000D03*
X58108000Y-38956000D03*
X60902000Y-40988000D03*
X69283999Y-64229000D03*
X113734000Y-63467000D03*
X54298000Y-34129999D03*
X122243000Y-70579000D03*
X115512000Y-63721000D03*
%TO.N,IO-ADDR0*%
X57752000Y-83990000D03*
X29812000Y-86530000D03*
%TO.N,IO-ADDR1*%
X60927000Y-93515000D03*
%TO.N,IO-ADDR2*%
X62832000Y-82085000D03*
%TO.N,Net-(IC5-G2A)*%
X39972000Y-82720000D03*
X66007000Y-82085000D03*
%TO.N,Net-(IC5-G1)*%
X71087000Y-87165000D03*
X37432000Y-87165000D03*
%TO.N,/Sheet 5/-IO-SEL7*%
X102837000Y-82720000D03*
X39972000Y-122725000D03*
X72992000Y-82720000D03*
%TO.N,/Sheet 5/-IO-SEL6*%
X38702000Y-122725000D03*
X100932000Y-74465000D03*
%TO.N,-IO-SEL5*%
X97122000Y-70020000D03*
X101093000Y-82253500D03*
%TO.N,-IO-SEL4*%
X74491000Y-69182000D03*
X84777999Y-76294000D03*
X108527000Y-71976000D03*
X82872999Y-69182000D03*
X72357000Y-80815000D03*
X42512000Y-81450000D03*
%TO.N,/Sheet 5/-IO-SEL3*%
X31082000Y-70020000D03*
%TO.N,/Sheet 5/-IO-SEL2*%
X88867000Y-77005000D03*
X66642000Y-75735000D03*
%TO.N,/Sheet 5/-IO-SEL0*%
X58387000Y-69385000D03*
X24732000Y-69385000D03*
%TO.N,Net-(IC3B-A3)*%
X55314000Y-19398000D03*
X85286000Y-19144000D03*
%TO.N,Net-(IC2-C1+)*%
X82517000Y-53510000D03*
X99662000Y-53510000D03*
%TO.N,Net-(IC2-C1-)*%
X86962000Y-61130000D03*
%TO.N,UART-A0*%
X90112000Y-37940000D03*
X89985000Y-36924000D03*
X81729999Y-34384000D03*
X84777999Y-37940000D03*
%TO.N,Net-(IC10-CLK)*%
X105153200Y-85091000D03*
X105002200Y-49145700D03*
%TO.N,UART-A1*%
X89868400Y-32137800D03*
%TO.N,UART-A2*%
X82794400Y-32065800D03*
%TO.N,UART-CS*%
X96368000Y-27640800D03*
%TO.N,/Sheet 5/-IO-DATASEL*%
X92042000Y-75100000D03*
X100932000Y-75735000D03*
%TO.N,Net-(IC3B-A4)*%
X109797000Y-16604000D03*
X109543000Y-17112000D03*
X107003000Y-14699000D03*
X103193000Y-13429000D03*
X50615000Y-20414000D03*
%TO.N,Net-(IC9-Q2)*%
X64737000Y-102405000D03*
%TO.N,Net-(IC9-Q3)*%
X168383900Y-99896400D03*
X118034700Y-99896400D03*
%TO.N,Net-(IC9-Q4)*%
X164118000Y-101626400D03*
X105845000Y-102815000D03*
%TO.N,/Sheet 2/RX*%
X88232000Y-54145000D03*
X74262000Y-54145000D03*
%TO.N,RESET*%
X95852000Y-67480000D03*
X90772000Y-111930000D03*
X62197000Y-66845000D03*
%TO.N,-IO-RD*%
X55187000Y-62070000D03*
X63823000Y-76294000D03*
%TO.N,-IO-WR*%
X103193000Y-71214000D03*
X101414999Y-68801000D03*
X69283999Y-70071000D03*
X67887000Y-73372999D03*
X89477000Y-68801000D03*
X85794000Y-68801000D03*
%TO.N,IO-ADDR3*%
X32352000Y-84625000D03*
%TO.N,-INT*%
X88867000Y-75100000D03*
%TO.N,IN*%
X38804000Y-104234000D03*
X34867000Y-43401000D03*
%TO.N,OUT*%
X20459400Y-97325000D03*
X104894500Y-101151300D03*
X169673200Y-106681800D03*
X23635800Y-97325000D03*
%TO.N,/Sheet 7/PIN20*%
X40455000Y-11651000D03*
X77666000Y-16222999D03*
X38042000Y-14064000D03*
X78047000Y-15842000D03*
X78555000Y-17874000D03*
X78682000Y-15842000D03*
X77285000Y-16604000D03*
X32581000Y-20033000D03*
%TO.N,Net-(IC3A-A4)*%
X121481000Y-51783000D03*
X113353000Y-32733000D03*
X92525000Y-24097000D03*
%TO.N,/Sheet 7/-DASP*%
X39499000Y-57723500D03*
X31930500Y-36915500D03*
%TO.N,/Sheet 7/IORDY*%
X63036000Y-18883700D03*
X42001900Y-37462700D03*
X42049000Y-42876500D03*
%TO.N,/Sheet 7/-IOW*%
X104717000Y-28923000D03*
X107130000Y-31336000D03*
X112604800Y-85083900D03*
X74618000Y-13683000D03*
X99256000Y-20668000D03*
X109416000Y-44925000D03*
X96589000Y-20668000D03*
X119068000Y-72230000D03*
X116655000Y-83025000D03*
%TO.N,/Sheet 7/-CFRESET*%
X92144000Y-51656000D03*
X104336000Y-17239000D03*
X102939000Y-16477000D03*
X102176999Y-46068000D03*
X105606000Y-42639000D03*
X103447000Y-14699000D03*
X94684000Y-104234000D03*
%TO.N,/Sheet 7/-DMACK*%
X30000100Y-34326500D03*
X38751400Y-57712900D03*
%TO.N,Net-(IC2-C2+)*%
X92042000Y-62400000D03*
%TO.N,Net-(IC2-C2-)*%
X104742000Y-65575000D03*
%TO.N,/Sheet 7/-PDIAG*%
X47086800Y-35957100D03*
X42099100Y-43525300D03*
X44844700Y-37465800D03*
%TD*%
%TO.N,VCC*%
D39*
X58387000Y-89705000D02*
X58387000Y-102405000D01*
X56482000Y-77640000D02*
X62197000Y-77640000D01*
D40*
X32454000Y-42004000D02*
X32454000Y-42258000D01*
X171712500Y-29002400D02*
X170434400Y-29002400D01*
X118179000Y-41369000D02*
X115639000Y-43909000D01*
D39*
X94582000Y-49700000D02*
X93947000Y-50335000D01*
D40*
X122842900Y-85747100D02*
X119718000Y-82622200D01*
X32454000Y-42258000D02*
X28009000Y-46703000D01*
X120760400Y-61983700D02*
X120760400Y-62557500D01*
D39*
X58387000Y-102405000D02*
X58387000Y-115105000D01*
X170147000Y-94785000D02*
X170147000Y-117645000D01*
D40*
X105377000Y-69385000D02*
X105377000Y-66338900D01*
X29787000Y-51783000D02*
X30930000Y-52926000D01*
D39*
X190467000Y-89705000D02*
X190467000Y-97325000D01*
D40*
X119718000Y-65128700D02*
X119200300Y-64611000D01*
X108800000Y-40200000D02*
X107657700Y-40200000D01*
X31000000Y-17800000D02*
X25946000Y-17800000D01*
D39*
X57117000Y-78275000D02*
X57117000Y-88435000D01*
D40*
X22675000Y-51783000D02*
X29787000Y-51783000D01*
X119718000Y-66642800D02*
X119718000Y-68115000D01*
X121989000Y-94963000D02*
X123259000Y-96233000D01*
D39*
X79977000Y-61765000D02*
X79977000Y-59225000D01*
D40*
X25946000Y-17800000D02*
X22581100Y-14435100D01*
X118084300Y-27475000D02*
X118084300Y-28617900D01*
X172150700Y-36838700D02*
X172308900Y-36680500D01*
D39*
X58387000Y-89705000D02*
X59657000Y-90975000D01*
D40*
X31000000Y-53000000D02*
X31000000Y-56100000D01*
X54010000Y-14109900D02*
X54010000Y-15770000D01*
X21500000Y-14300000D02*
X22581100Y-14300000D01*
X30930000Y-52926000D02*
X31000000Y-53000000D01*
D39*
X81247000Y-77005000D02*
X79977000Y-78275000D01*
X78707000Y-63035000D02*
X79342000Y-62400000D01*
D40*
X34257000Y-76011300D02*
X32131100Y-73885400D01*
X22581100Y-14435100D02*
X22581100Y-14300000D01*
D39*
X38067000Y-73195000D02*
X36797000Y-71925000D01*
D40*
X115639000Y-43909000D02*
X115639000Y-44000000D01*
X32131100Y-69762200D02*
X31000000Y-68631100D01*
X119718000Y-27475000D02*
X118084300Y-27475000D01*
D39*
X55847000Y-77005000D02*
X56482000Y-77640000D01*
D40*
X119718000Y-57955000D02*
X119718000Y-58357800D01*
X122531100Y-19856000D02*
X122531100Y-21821100D01*
D39*
X81247000Y-77005000D02*
X82517000Y-75735000D01*
X79342000Y-62400000D02*
X79977000Y-61765000D01*
D40*
X115920000Y-44000000D02*
X112600000Y-44000000D01*
D39*
X79342000Y-75100000D02*
X81247000Y-77005000D01*
D40*
X107657700Y-40200000D02*
X104528300Y-37070600D01*
D39*
X190467000Y-85895000D02*
X190467000Y-78275000D01*
D40*
X63768800Y-28745000D02*
X63410800Y-28387000D01*
D39*
X81247000Y-102405000D02*
X81882000Y-103040000D01*
X38067000Y-36365000D02*
X35527000Y-38905000D01*
D40*
X31000000Y-62300000D02*
X31000000Y-67500000D01*
X21659000Y-47338000D02*
X21659000Y-50767000D01*
X46673100Y-13364600D02*
X53264700Y-13364600D01*
X22294000Y-46703000D02*
X21659000Y-47338000D01*
X119718000Y-88435000D02*
X118084300Y-88435000D01*
D39*
X62197000Y-77640000D02*
X62197000Y-75735000D01*
X82517000Y-75735000D02*
X82517000Y-73195000D01*
D40*
X172308900Y-29598800D02*
X171712500Y-29002400D01*
X100265500Y-37833800D02*
X99027000Y-36595300D01*
X67370800Y-23665000D02*
X76167000Y-23665000D01*
X119718000Y-82622200D02*
X119718000Y-78275000D01*
X32131100Y-73885400D02*
X32131100Y-69762200D01*
D39*
X79977000Y-78275000D02*
X79977000Y-89705000D01*
D40*
X108800000Y-86600000D02*
X109931400Y-87731400D01*
D39*
X94582000Y-44620000D02*
X94582000Y-49700000D01*
D40*
X73627000Y-28745000D02*
X63768800Y-28745000D01*
X119718000Y-66642800D02*
X119718000Y-65128700D01*
X119718000Y-58357800D02*
X120567300Y-57508500D01*
D39*
X25367000Y-30015000D02*
X22827000Y-30015000D01*
D40*
X53264700Y-13364600D02*
X54010000Y-14109900D01*
D39*
X168877000Y-93515000D02*
X168877000Y-84625000D01*
X58387000Y-35095000D02*
X55847000Y-35095000D01*
D40*
X169494000Y-94132000D02*
X127223400Y-94132000D01*
D39*
X38067000Y-30015000D02*
X38067000Y-36365000D01*
X81247000Y-90975000D02*
X81247000Y-102405000D01*
D40*
X119718000Y-71513100D02*
X119682900Y-71548200D01*
X57560000Y-19473000D02*
X70197000Y-19473000D01*
D39*
X62197000Y-75735000D02*
X58387000Y-71925000D01*
X53307000Y-35095000D02*
X50767000Y-35095000D01*
D40*
X31000000Y-17800000D02*
X42237700Y-17800000D01*
D39*
X48227000Y-63035000D02*
X49497000Y-61765000D01*
D40*
X100265500Y-39683000D02*
X100265500Y-37833800D01*
X112600000Y-44000000D02*
X108800000Y-40200000D01*
D39*
X190467000Y-89705000D02*
X190467000Y-85895000D01*
X79977000Y-59225000D02*
X81247000Y-57955000D01*
D40*
X112000000Y-68200000D02*
X108800000Y-65000000D01*
X54010000Y-15770000D02*
X55280000Y-17040000D01*
D39*
X168877000Y-84625000D02*
X170147000Y-83355000D01*
X38067000Y-30015000D02*
X27907000Y-30015000D01*
D40*
X115920000Y-68200000D02*
X112000000Y-68200000D01*
D39*
X38067000Y-111295000D02*
X38067000Y-73195000D01*
D40*
X70197000Y-19473000D02*
X70359400Y-19310600D01*
X105377000Y-66338900D02*
X106306000Y-65409900D01*
X31000000Y-56100000D02*
X31000000Y-59200000D01*
D39*
X79977000Y-89705000D02*
X81247000Y-90975000D01*
D40*
X42237700Y-17800000D02*
X46673100Y-13364600D01*
X117380700Y-87731400D02*
X118084300Y-88435000D01*
X170147000Y-112634800D02*
X171434800Y-112634800D01*
X119718000Y-58357800D02*
X119718000Y-60941300D01*
X38067000Y-30015000D02*
X38067000Y-28745000D01*
X119718000Y-60941300D02*
X120760400Y-61983700D01*
X106306000Y-65409900D02*
X106801500Y-65409900D01*
X119200300Y-64611000D02*
X119044100Y-64611000D01*
X31000000Y-67500000D02*
X31000000Y-68631100D01*
X123259000Y-97757000D02*
X123132000Y-97884000D01*
X120567300Y-57508500D02*
X120719000Y-57498000D01*
X171434800Y-112634800D02*
X172000000Y-113200000D01*
X34257000Y-77005000D02*
X34257000Y-76011300D01*
D39*
X57117000Y-88435000D02*
X58387000Y-89705000D01*
X170147000Y-117645000D02*
X172687000Y-120185000D01*
D40*
X21659000Y-50767000D02*
X22675000Y-51783000D01*
X109931400Y-87731400D02*
X117380700Y-87731400D01*
X118084300Y-28617900D02*
X116192200Y-30510000D01*
D39*
X82517000Y-73195000D02*
X83787000Y-71925000D01*
D40*
X116192200Y-30510000D02*
X114724700Y-30510000D01*
D39*
X79342000Y-62400000D02*
X79342000Y-75100000D01*
D40*
X122531100Y-21821100D02*
X121221600Y-23130600D01*
X28009000Y-46703000D02*
X22294000Y-46703000D01*
D39*
X25367000Y-103675000D02*
X27907000Y-103675000D01*
D40*
X123259000Y-96233000D02*
X123259000Y-97757000D01*
D39*
X49497000Y-61765000D02*
X49497000Y-59225000D01*
D40*
X172308900Y-36680500D02*
X172308900Y-29598800D01*
X120719000Y-57498000D02*
X120719000Y-51783000D01*
D39*
X170147000Y-94785000D02*
X168877000Y-93515000D01*
X62197000Y-85895000D02*
X62197000Y-77640000D01*
D40*
X80047600Y-86504900D02*
X79977000Y-86504900D01*
X119718000Y-68115000D02*
X119718000Y-71513100D01*
X99027000Y-35095000D02*
X99027000Y-36595300D01*
D39*
X56482000Y-77640000D02*
X57117000Y-78275000D01*
X49497000Y-59225000D02*
X50767000Y-57955000D01*
%TO.N,/Sheet 7/CFD0*%
X82072600Y-15892600D02*
X94746500Y-15892600D01*
X74364000Y-13175000D02*
X79444000Y-13175000D01*
X80680000Y-14500000D02*
X82072600Y-15892600D01*
X80714000Y-14445000D02*
X80079000Y-13810000D01*
X54171000Y-13302000D02*
X74237000Y-13302000D01*
X74237000Y-13302000D02*
X74364000Y-13175000D01*
X94914700Y-16060800D02*
X95295000Y-16060800D01*
X108919200Y-15494100D02*
X109086300Y-15661200D01*
X107130300Y-15494100D02*
X108919200Y-15494100D01*
X106731800Y-15892600D02*
X107130300Y-15494100D01*
X109086300Y-15661200D02*
X113091000Y-15661200D01*
X94746500Y-15892600D02*
X94914700Y-16060800D01*
X95295000Y-16060800D02*
X95463200Y-15892600D01*
X95463200Y-15892600D02*
X106731800Y-15892600D01*
X79444000Y-13175000D02*
X80079000Y-13810000D01*
X80680000Y-14500000D02*
X80714000Y-14445000D01*
%TO.N,/Sheet 7/CFD1*%
X46408400Y-12724600D02*
X81444600Y-12724600D01*
X93701900Y-11060700D02*
X93500200Y-11262400D01*
X125227100Y-12534300D02*
X124902100Y-12534300D01*
X123428500Y-11060700D02*
X93701900Y-11060700D01*
X125989600Y-13621800D02*
X125989600Y-13296800D01*
X124902100Y-12534300D02*
X123428500Y-11060700D01*
X125989600Y-13296800D02*
X125227100Y-12534300D01*
X28588200Y-16308200D02*
X42824800Y-16308200D01*
X26580000Y-14300000D02*
X28588200Y-16308200D01*
X127148700Y-20521100D02*
X127148700Y-14780900D01*
X127148700Y-14780900D02*
X125989600Y-13621800D01*
X126581600Y-21088200D02*
X127148700Y-20521100D01*
X42824800Y-16308200D02*
X46408400Y-12724600D01*
X81444600Y-12724600D02*
X83220000Y-14500000D01*
%TO.N,/Sheet 7/CFD2*%
X119669300Y-22038300D02*
X119669300Y-23138200D01*
X122724700Y-19375100D02*
X122332500Y-19375100D01*
X125093700Y-20228000D02*
X123577600Y-20228000D01*
X118366300Y-14389300D02*
X125105600Y-14389300D01*
X125105600Y-14389300D02*
X126003100Y-15286800D01*
X30806500Y-15986500D02*
X42109700Y-15986500D01*
X95104800Y-15601900D02*
X103073100Y-15601900D01*
X29120000Y-14300000D02*
X30806500Y-15986500D01*
X117272300Y-15483300D02*
X118366300Y-14389300D01*
X123577600Y-20228000D02*
X122724700Y-19375100D01*
X103073100Y-15601900D02*
X103472700Y-15202300D01*
X45652700Y-12443500D02*
X83703500Y-12443500D01*
X114142200Y-16597300D02*
X115256200Y-15483300D01*
X115256200Y-15483300D02*
X117272300Y-15483300D01*
X110490500Y-16597300D02*
X114142200Y-16597300D01*
X83703500Y-12443500D02*
X85760000Y-14500000D01*
X103472700Y-15202300D02*
X109276400Y-15202300D01*
X126003100Y-19318600D02*
X125093700Y-20228000D01*
X122332500Y-19375100D02*
X119669300Y-22038300D01*
X42109700Y-15986500D02*
X45652700Y-12443500D01*
X126003100Y-15286800D02*
X126003100Y-19318600D01*
%TO.N,/Sheet 7/CFD3*%
X126583300Y-15012800D02*
X125427400Y-13856900D01*
X33042400Y-15682400D02*
X41995200Y-15682400D01*
X123550700Y-11980200D02*
X102649000Y-11980200D01*
X124994100Y-13096500D02*
X124667000Y-13096500D01*
X120192800Y-23671800D02*
X122452900Y-23671800D01*
X126583300Y-19541400D02*
X126583300Y-15012800D01*
X122452900Y-23671800D02*
X126583300Y-19541400D01*
X125427400Y-13529800D02*
X124994100Y-13096500D01*
X31660000Y-14300000D02*
X33042400Y-15682400D01*
X45515200Y-12162400D02*
X85962400Y-12162400D01*
X125427400Y-13856900D02*
X125427400Y-13529800D01*
X102649000Y-11980200D02*
X102454900Y-11786100D01*
X102454900Y-11786100D02*
X93877000Y-11786100D01*
X124667000Y-13096500D02*
X123550700Y-11980200D01*
X41995200Y-15682400D02*
X45515200Y-12162400D01*
X85962400Y-12162400D02*
X88300000Y-14500000D01*
%TO.N,/Sheet 7/CFD4*%
X90840000Y-14500000D02*
X87940200Y-11600200D01*
X126302200Y-19424900D02*
X126302200Y-15129300D01*
X100321200Y-12261300D02*
X100306500Y-12246600D01*
X122197700Y-23136100D02*
X122591000Y-23136100D01*
X43034800Y-11600200D02*
X40679000Y-13956000D01*
X40679000Y-14361500D02*
X39673700Y-15366800D01*
X123434200Y-12261300D02*
X100321200Y-12261300D01*
X40679000Y-13956000D02*
X40679000Y-14361500D01*
X125146300Y-13973400D02*
X125146300Y-13646300D01*
X124550500Y-13377600D02*
X123434200Y-12261300D01*
X125146300Y-13646300D02*
X124877600Y-13377600D01*
X122591000Y-23136100D02*
X126302200Y-19424900D01*
X35266800Y-15366800D02*
X34200000Y-14300000D01*
X126302200Y-15129300D02*
X125146300Y-13973400D01*
X39673700Y-15366800D02*
X35266800Y-15366800D01*
X124877600Y-13377600D02*
X124550500Y-13377600D01*
X87940200Y-11600200D02*
X43034800Y-11600200D01*
%TO.N,/Sheet 7/CFD5*%
X126270700Y-13180300D02*
X125343600Y-12253200D01*
X123545000Y-10779600D02*
X93026400Y-10779600D01*
X92255400Y-11550600D02*
X92255400Y-13375400D01*
X125343600Y-12253200D02*
X125018600Y-12253200D01*
X92255400Y-13375400D02*
X93380000Y-14500000D01*
X127429800Y-28035800D02*
X127429800Y-14664400D01*
X115920000Y-31780000D02*
X123685600Y-31780000D01*
X40002000Y-11038000D02*
X36740000Y-14300000D01*
X92255400Y-11550600D02*
X91742800Y-11038000D01*
X126270700Y-13505300D02*
X126270700Y-13180300D01*
X123685600Y-31780000D02*
X127429800Y-28035800D01*
X93026400Y-10779600D02*
X92255400Y-11550600D01*
X125018600Y-12253200D02*
X123545000Y-10779600D01*
X91742800Y-11038000D02*
X40002000Y-11038000D01*
X127429800Y-14664400D02*
X126270700Y-13505300D01*
%TO.N,/Sheet 7/CFD6*%
X92899600Y-15569500D02*
X92110100Y-14780000D01*
X110051000Y-24351000D02*
X108781000Y-23081000D01*
X97223999Y-22064999D02*
X95827000Y-20668000D01*
X115920000Y-34320000D02*
X115512000Y-33876000D01*
X92110100Y-14251200D02*
X89178000Y-11319100D01*
X115512000Y-33876000D02*
X110051000Y-28415000D01*
X106749000Y-22064999D02*
X97223999Y-22064999D01*
X95920000Y-14500000D02*
X95557800Y-14500000D01*
X94488300Y-15569500D02*
X92899600Y-15569500D01*
X108781000Y-23081000D02*
X107765000Y-23081000D01*
X42260900Y-11319100D02*
X39280000Y-14300000D01*
X95827000Y-20668000D02*
X92398000Y-20668000D01*
X95557800Y-14500000D02*
X94488300Y-15569500D01*
X89178000Y-11319100D02*
X42260900Y-11319100D01*
X107765000Y-23081000D02*
X106749000Y-22064999D01*
X92110100Y-14780000D02*
X92110100Y-14251200D01*
X110051000Y-28415000D02*
X110051000Y-24351000D01*
%TO.N,/Sheet 7/CFD7*%
X87571600Y-11881300D02*
X88765700Y-13075400D01*
X113860999Y-30447000D02*
X113860999Y-21684000D01*
X109543000Y-13429000D02*
X109035000Y-12921000D01*
X41820000Y-14300000D02*
X44238700Y-11881300D01*
X109035000Y-12921000D02*
X99002000Y-12921000D01*
X113860999Y-21684000D02*
X111067000Y-18890000D01*
X44238700Y-11881300D02*
X87571600Y-11881300D01*
%TO.N,GND*%
D40*
X111640000Y-40200000D02*
X108300000Y-36860000D01*
D39*
X46957000Y-61765000D02*
X48227000Y-60495000D01*
X175227000Y-89705000D02*
X175227000Y-85895000D01*
X101567000Y-49065000D02*
X101567000Y-42715000D01*
X187927000Y-46525000D02*
X187927000Y-54145000D01*
D40*
X108300000Y-105040000D02*
X109490600Y-103849400D01*
X57600000Y-21684000D02*
X56330000Y-20414000D01*
D39*
X96487000Y-90975000D02*
X99027000Y-93515000D01*
D40*
X125094300Y-103849400D02*
X127482300Y-106237400D01*
X101000000Y-17040000D02*
X99862800Y-18177200D01*
X131233700Y-48279000D02*
X131233700Y-57471000D01*
D39*
X83787000Y-59225000D02*
X82517000Y-60495000D01*
D40*
X105225000Y-48481000D02*
X104590000Y-48481000D01*
X70520000Y-17040000D02*
X73060000Y-17040000D01*
X113800000Y-40200000D02*
X111640000Y-40200000D01*
X44800000Y-67500000D02*
X46957000Y-67500000D01*
D39*
X26637000Y-27475000D02*
X25367000Y-27475000D01*
D40*
X175227000Y-107242200D02*
X173244600Y-107242200D01*
X57854000Y-21684000D02*
X57600000Y-21684000D01*
X52740000Y-17040000D02*
X45286800Y-17040000D01*
X104590000Y-48481000D02*
X102786500Y-50284500D01*
D39*
X46957000Y-71925000D02*
X46957000Y-61765000D01*
X34257000Y-41445000D02*
X27272000Y-41445000D01*
X48227000Y-60495000D02*
X48227000Y-51605000D01*
X81882000Y-67480000D02*
X81882000Y-73830000D01*
D40*
X107664200Y-36224200D02*
X102978200Y-36224200D01*
X80167500Y-18177200D02*
X79410000Y-17419700D01*
D39*
X78707000Y-106215000D02*
X77437000Y-107485000D01*
X187927000Y-37635000D02*
X187927000Y-46525000D01*
D40*
X129116000Y-78275000D02*
X129116000Y-81261300D01*
X129116000Y-106850000D02*
X127482300Y-106850000D01*
X173244600Y-107242200D02*
X171893100Y-108593700D01*
D39*
X187927000Y-70655000D02*
X180307000Y-78275000D01*
X46957000Y-79545000D02*
X46957000Y-71925000D01*
D40*
X58235000Y-21303000D02*
X57854000Y-21684000D01*
D39*
X46957000Y-97325000D02*
X52037000Y-102405000D01*
D40*
X138877000Y-106850000D02*
X129116000Y-106850000D01*
X36080000Y-67500000D02*
X33540000Y-67500000D01*
X129116000Y-68115000D02*
X129116000Y-78275000D01*
D39*
X175227000Y-89705000D02*
X180307000Y-89705000D01*
X25367000Y-106215000D02*
X27907000Y-106215000D01*
X27272000Y-41445000D02*
X26637000Y-40810000D01*
D40*
X187927000Y-57955000D02*
X186437800Y-59444200D01*
X45286800Y-17040000D02*
X38067000Y-24259800D01*
X55187000Y-18381999D02*
X54806000Y-18381999D01*
D39*
X27907000Y-27475000D02*
X26637000Y-27475000D01*
X82517000Y-66845000D02*
X81882000Y-67480000D01*
D40*
X144199500Y-112172500D02*
X138877000Y-106850000D01*
D39*
X46957000Y-79545000D02*
X46957000Y-97325000D01*
X102837000Y-41445000D02*
X102837000Y-38270000D01*
D40*
X79410000Y-15770000D02*
X78140000Y-14500000D01*
X129116000Y-57955000D02*
X130749700Y-57955000D01*
X127482300Y-106237400D02*
X127482300Y-106850000D01*
X99862800Y-18177200D02*
X80167500Y-18177200D01*
D39*
X26637000Y-40810000D02*
X26637000Y-27475000D01*
X68547000Y-79545000D02*
X69817000Y-78275000D01*
D40*
X109490600Y-103849400D02*
X125094300Y-103849400D01*
D39*
X78707000Y-94785000D02*
X78707000Y-106215000D01*
D40*
X129116000Y-57955000D02*
X129116000Y-68115000D01*
D39*
X175227000Y-85895000D02*
X175227000Y-78275000D01*
X96487000Y-85895000D02*
X96487000Y-82085000D01*
D40*
X65440000Y-17040000D02*
X67980000Y-17040000D01*
D39*
X187927000Y-54145000D02*
X187927000Y-61765000D01*
D40*
X186437800Y-59444200D02*
X170756100Y-59444200D01*
D39*
X102837000Y-50335000D02*
X101567000Y-49065000D01*
X144112000Y-111930000D02*
X144287000Y-112415000D01*
X187927000Y-14775000D02*
X187927000Y-22395000D01*
X83787000Y-57955000D02*
X83787000Y-50335000D01*
D40*
X38067000Y-24259800D02*
X38067000Y-26205000D01*
D39*
X46957000Y-71925000D02*
X49497000Y-71925000D01*
D40*
X129116000Y-47795000D02*
X130749700Y-47795000D01*
D39*
X72357000Y-66845000D02*
X73627000Y-65575000D01*
D40*
X122630400Y-96528700D02*
X120981700Y-94880000D01*
D39*
X46957000Y-71925000D02*
X44417000Y-71925000D01*
X48227000Y-51605000D02*
X43147000Y-46525000D01*
X96487000Y-82085000D02*
X99027000Y-79545000D01*
X187927000Y-69385000D02*
X187927000Y-70655000D01*
D40*
X62299000Y-21303000D02*
X58235000Y-21303000D01*
X131233700Y-57471000D02*
X130749700Y-57955000D01*
X129116000Y-88435000D02*
X129116000Y-85448700D01*
X72186900Y-25758600D02*
X62204000Y-25758600D01*
X73627000Y-26205000D02*
X72633300Y-26205000D01*
X108300000Y-83440000D02*
X111460000Y-86600000D01*
X27907000Y-27475000D02*
X35803300Y-27475000D01*
D39*
X34257000Y-74465000D02*
X34257000Y-41445000D01*
X187927000Y-61765000D02*
X187927000Y-69385000D01*
D40*
X33540000Y-60968500D02*
X33540000Y-67500000D01*
X54806000Y-18381999D02*
X53663000Y-17239000D01*
X79410000Y-17419700D02*
X79410000Y-15770000D01*
D39*
X175227000Y-89705000D02*
X175227000Y-97325000D01*
X69817000Y-69385000D02*
X72357000Y-66845000D01*
D40*
X38067000Y-26205000D02*
X37073300Y-26205000D01*
X111460000Y-86600000D02*
X113800000Y-86600000D01*
X35803300Y-27475000D02*
X37073300Y-26205000D01*
D39*
X187927000Y-30015000D02*
X187927000Y-37635000D01*
D40*
X34257000Y-60251500D02*
X33540000Y-60968500D01*
X108300000Y-36860000D02*
X107664200Y-36224200D01*
D39*
X81882000Y-73830000D02*
X81247000Y-74465000D01*
D40*
X129116000Y-17315000D02*
X129116000Y-27475000D01*
X120981700Y-94880000D02*
X115920000Y-94880000D01*
D39*
X77437000Y-93515000D02*
X78707000Y-94785000D01*
D40*
X106749000Y-50005000D02*
X105225000Y-48481000D01*
D39*
X187927000Y-106215000D02*
X187927000Y-107485000D01*
X69817000Y-78275000D02*
X69817000Y-69385000D01*
X83787000Y-57955000D02*
X83787000Y-59225000D01*
X175227000Y-107485000D02*
X187927000Y-107485000D01*
D40*
X72633300Y-26205000D02*
X72186900Y-25758600D01*
D39*
X187927000Y-22395000D02*
X187927000Y-30015000D01*
D40*
X106749000Y-61689000D02*
X106749000Y-50005000D01*
D39*
X96487000Y-85895000D02*
X96487000Y-90975000D01*
D40*
X73060000Y-17040000D02*
X75600000Y-17040000D01*
X129116000Y-81261300D02*
X129116000Y-85448700D01*
D39*
X102837000Y-38270000D02*
X101567000Y-37000000D01*
X82517000Y-60495000D02*
X82517000Y-66845000D01*
X25367000Y-27475000D02*
X22827000Y-27475000D01*
X101567000Y-42715000D02*
X102837000Y-41445000D01*
D40*
X109289000Y-66388000D02*
X113607000Y-70706000D01*
D39*
X180307000Y-78275000D02*
X175227000Y-78275000D01*
D40*
X70520000Y-17040000D02*
X67980000Y-17040000D01*
D39*
X175227000Y-97325000D02*
X175227000Y-107485000D01*
D40*
X130749700Y-47795000D02*
X131233700Y-48279000D01*
X56330000Y-20414000D02*
X56330000Y-19525000D01*
%TO.N,Net-(IC3A-A2)*%
D39*
X63061000Y-33622000D02*
X61791000Y-34891999D01*
X66490000Y-37432000D02*
X64331000Y-35272999D01*
X122751000Y-65245000D02*
X117036000Y-59530000D01*
X117036000Y-58768000D02*
X116020000Y-57752000D01*
X53536000Y-40480000D02*
X48456000Y-35400000D01*
X64331000Y-35272999D02*
X64331000Y-34129999D01*
X99383000Y-33622000D02*
X96080999Y-33622000D01*
X61791000Y-36035000D02*
X57346000Y-40480000D01*
X94811000Y-34891999D02*
X94811000Y-36035000D01*
X61791000Y-34891999D02*
X61791000Y-36035000D01*
X124148000Y-75659000D02*
X122751000Y-74262000D01*
X122751000Y-74262000D02*
X122751000Y-65245000D01*
X116020000Y-57752000D02*
X115512000Y-57752000D01*
X124148000Y-75659000D02*
X124417000Y-78275000D01*
X112336999Y-45941000D02*
X103193000Y-36797000D01*
X93414000Y-37432000D02*
X66490000Y-37432000D01*
X63823000Y-33622000D02*
X63061000Y-33622000D01*
X115512000Y-57752000D02*
X112336999Y-54577000D01*
X96080999Y-33622000D02*
X94811000Y-34891999D01*
X117036000Y-59530000D02*
X117036000Y-58768000D01*
X112336999Y-54577000D02*
X112336999Y-45941000D01*
X64331000Y-34129999D02*
X63823000Y-33622000D01*
X94811000Y-36035000D02*
X93414000Y-37432000D01*
X103193000Y-36797000D02*
X102558000Y-36797000D01*
X102558000Y-36797000D02*
X99383000Y-33622000D01*
X57346000Y-40480000D02*
X53536000Y-40480000D01*
%TO.N,-RESET*%
X57924300Y-20817800D02*
X57981000Y-20795000D01*
X57924300Y-20817800D02*
X57739900Y-21002200D01*
X58616000Y-20160000D02*
X102939000Y-20160000D01*
X102939000Y-77310000D02*
X102939000Y-76675000D01*
X107384000Y-65498999D02*
X107384000Y-62324000D01*
X102939000Y-20160000D02*
X104336000Y-21557000D01*
X108300000Y-44000000D02*
X107294100Y-45005900D01*
X108019000Y-44671000D02*
X107638000Y-44671000D01*
X110051000Y-53180000D02*
X110686000Y-52545000D01*
X105606000Y-40861000D02*
X107638000Y-42893000D01*
X108268499Y-44031500D02*
X108273000Y-44036000D01*
X107257000Y-72357000D02*
X107257000Y-65626000D01*
X103994100Y-78377400D02*
X103994100Y-93114100D01*
X107257000Y-65626000D02*
X107384000Y-65498999D01*
X107638000Y-42893000D02*
X107638000Y-44671000D01*
X103994100Y-93114100D02*
X108300000Y-97420000D01*
X107257000Y-62197000D02*
X107257000Y-58768000D01*
X110686000Y-52545000D02*
X110686000Y-47338000D01*
X57981000Y-20795000D02*
X58616000Y-20160000D01*
X107257000Y-58768000D02*
X108273000Y-57752000D01*
X107638000Y-44671000D02*
X107257000Y-45052000D01*
X110051000Y-56482000D02*
X110051000Y-53180000D01*
X107384000Y-62324000D02*
X107257000Y-62197000D01*
X108273000Y-57752000D02*
X108781000Y-57752000D01*
X103320000Y-77691000D02*
X102939000Y-77310000D01*
X103313850Y-77697150D02*
X103320000Y-77691000D01*
X108781000Y-57752000D02*
X110051000Y-56482000D01*
X103278600Y-77661900D02*
X103994100Y-78377400D01*
X107257000Y-45052000D02*
X107294100Y-45052000D01*
X110686000Y-47338000D02*
X108019000Y-44671000D01*
%TO.N,/Sheet 7/DA0*%
X103574000Y-39591000D02*
X107130000Y-43147000D01*
X92906000Y-27145000D02*
X96716000Y-27145000D01*
X96716000Y-27145000D02*
X97097000Y-27526000D01*
X71316000Y-22064999D02*
X72967000Y-22064999D01*
X89731000Y-21811000D02*
X90493000Y-22573000D01*
X90493000Y-24732000D02*
X92906000Y-27145000D01*
X90493000Y-22573000D02*
X90493000Y-24732000D01*
X91382000Y-21684000D02*
X90493000Y-22573000D01*
%TO.N,DATA0*%
X54151400Y-30303300D02*
X53709000Y-29860900D01*
X55847000Y-80180000D02*
X55847000Y-117010000D01*
X97478000Y-32860000D02*
X97351000Y-32733000D01*
X56691400Y-31154300D02*
X56691400Y-32266700D01*
X53307000Y-68115000D02*
X53942000Y-67480000D01*
X58269100Y-29576600D02*
X56691400Y-31154300D01*
X52895300Y-29860900D02*
X51891300Y-30864900D01*
X53709000Y-29860900D02*
X52895300Y-29860900D01*
X55847000Y-117010000D02*
X59022000Y-117010000D01*
X80587000Y-30574000D02*
X80587000Y-29812000D01*
X106114000Y-32860000D02*
X97478000Y-32860000D01*
X81247000Y-31285000D02*
X81247000Y-29860900D01*
X81247000Y-29860900D02*
X72509200Y-29860900D01*
X52037000Y-51605000D02*
X52037000Y-66845000D01*
X50767000Y-50335000D02*
X52037000Y-51605000D01*
X59022000Y-117010000D02*
X59657000Y-116375000D01*
X72224900Y-29576600D02*
X58269100Y-29576600D01*
X53307000Y-77640000D02*
X55847000Y-80180000D01*
X54151400Y-31350800D02*
X54151400Y-30303300D01*
X72509200Y-29860900D02*
X72224900Y-29576600D01*
X55509700Y-32709100D02*
X54151400Y-31350800D01*
X56249000Y-32709100D02*
X55509700Y-32709100D01*
X106622000Y-33368000D02*
X106114000Y-32860000D01*
X56691400Y-32266700D02*
X56249000Y-32709100D01*
X59657000Y-116375000D02*
X59657000Y-107485000D01*
X51402000Y-50970000D02*
X51402000Y-46681400D01*
X53307000Y-68115000D02*
X53307000Y-77640000D01*
X52037000Y-66845000D02*
X53307000Y-68115000D01*
X80587000Y-29812000D02*
X80587000Y-29860900D01*
%TO.N,DATA1*%
X55847000Y-52240000D02*
X57117000Y-53510000D01*
X64331000Y-80485000D02*
X64331000Y-70960000D01*
X108300000Y-54160000D02*
X108359800Y-54160000D01*
X21557000Y-59225000D02*
X21557000Y-89070000D01*
X57117000Y-56050000D02*
X57117000Y-64305000D01*
X58362000Y-65626000D02*
X58387000Y-65575000D01*
X60902000Y-96741000D02*
X63823000Y-93820000D01*
X60927000Y-97325000D02*
X60927000Y-106215000D01*
X83787000Y-30650000D02*
X84422000Y-31285000D01*
X108359800Y-54160000D02*
X110119100Y-52400700D01*
X53307000Y-47406100D02*
X52593600Y-46692700D01*
X53307000Y-50335000D02*
X53307000Y-47406100D01*
X58997000Y-65626000D02*
X58362000Y-65626000D01*
X21557000Y-89070000D02*
X22192000Y-89705000D01*
X58069400Y-27475000D02*
X80612000Y-27475000D01*
X64331000Y-70960000D02*
X58997000Y-65626000D01*
X60927000Y-106215000D02*
X62197000Y-107485000D01*
X107021900Y-28825700D02*
X106295900Y-28099700D01*
X106295900Y-28099700D02*
X87447200Y-28099700D01*
X80612000Y-27475000D02*
X83787000Y-30650000D01*
X57117000Y-64305000D02*
X58387000Y-65575000D01*
X57612800Y-27018400D02*
X58069400Y-27475000D01*
X87447200Y-28099700D02*
X87264900Y-27917400D01*
X84104500Y-30967500D02*
X83787000Y-31285000D01*
X63823000Y-80993000D02*
X64331000Y-80485000D01*
X22827000Y-57955000D02*
X21557000Y-59225000D01*
X57117000Y-53510000D02*
X57117000Y-56050000D01*
X63823000Y-93820000D02*
X63823000Y-80993000D01*
%TO.N,/Sheet 7/DA1*%
X93033000Y-47084000D02*
X93033000Y-52418000D01*
X93033000Y-52418000D02*
X94684000Y-54069000D01*
X61410000Y-25748000D02*
X62553000Y-26891000D01*
X82238000Y-30320000D02*
X82238000Y-36289000D01*
X62553000Y-26891000D02*
X72713000Y-26891000D01*
X75380000Y-29050000D02*
X80968000Y-29050000D01*
X80968000Y-29050000D02*
X82238000Y-30320000D01*
X98621000Y-54069000D02*
X103701000Y-59149000D01*
X60648000Y-15207000D02*
X61791000Y-16350000D01*
X60360000Y-14500000D02*
X60648000Y-15207000D01*
X83889000Y-37940000D02*
X93033000Y-47084000D01*
%TO.N,/Sheet 7/LATCHCLK*%
X117036000Y-66896000D02*
X116020000Y-65879999D01*
X112336999Y-72865000D02*
X115893000Y-69309000D01*
X117036000Y-68547000D02*
X117036000Y-66896000D01*
X115893000Y-69309000D02*
X116274000Y-69309000D01*
X108300000Y-73280000D02*
X108908000Y-72865000D01*
X108908000Y-72865000D02*
X112336999Y-72865000D01*
X116274000Y-69309000D02*
X117036000Y-68547000D01*
%TO.N,/Sheet 7/DA2*%
X52393000Y-23843000D02*
X50615000Y-25621000D01*
X104844000Y-52291000D02*
X106114000Y-53561000D01*
X54806000Y-20287000D02*
X52520000Y-22573000D01*
X49726000Y-34129999D02*
X49853000Y-34257000D01*
X49853000Y-34257000D02*
X49853000Y-35908000D01*
X46805000Y-25748000D02*
X46551000Y-25748000D01*
X49980000Y-36035000D02*
X49980000Y-36162000D01*
X56076000Y-42258000D02*
X60648000Y-46830000D01*
X50615000Y-25621000D02*
X46932000Y-25621000D01*
X106114000Y-53561000D02*
X106114000Y-55720000D01*
X49853000Y-35908000D02*
X49980000Y-36035000D01*
X60648000Y-46830000D02*
X60648000Y-48354000D01*
X49980000Y-36162000D02*
X53790000Y-39972000D01*
X52520000Y-22700000D02*
X52393000Y-22827000D01*
X52520000Y-22573000D02*
X52520000Y-22700000D01*
X52393000Y-22827000D02*
X52393000Y-23843000D01*
X46551000Y-25748000D02*
X46424000Y-25875000D01*
X46932000Y-25621000D02*
X46805000Y-25748000D01*
%TO.N,DATA2*%
X76904000Y-44417000D02*
X71951000Y-49370000D01*
X91407000Y-31285000D02*
X91509000Y-32352000D01*
X88842000Y-36924000D02*
X87064000Y-36924000D01*
X64737000Y-52875000D02*
X64737000Y-64305000D01*
X90112000Y-33748999D02*
X90112000Y-35654000D01*
X100145000Y-20795000D02*
X99383000Y-21557000D01*
X71951000Y-49370000D02*
X71951000Y-52545000D01*
X90112000Y-35654000D02*
X88842000Y-36924000D01*
X107765000Y-22319000D02*
X106241000Y-20795000D01*
X64737000Y-82085000D02*
X66007000Y-83355000D01*
X130525400Y-50908900D02*
X119171100Y-50908900D01*
X64737000Y-64305000D02*
X64737000Y-82085000D01*
X69182000Y-104945000D02*
X69182000Y-106850000D01*
X55067900Y-46681000D02*
X55846900Y-47460000D01*
X66007000Y-102405000D02*
X67912000Y-104310000D01*
X65474000Y-54704000D02*
X64712000Y-54704000D01*
X130697700Y-51081200D02*
X130525400Y-50908900D01*
X55847000Y-50335000D02*
X55847000Y-48910900D01*
X55847000Y-50970000D02*
X52672000Y-54145000D01*
X66007000Y-83355000D02*
X66007000Y-102405000D01*
X99383000Y-21557000D02*
X99389250Y-21550750D01*
X55846900Y-47460000D02*
X55846900Y-48910900D01*
X91509000Y-32352000D02*
X90112000Y-33748999D01*
X119171100Y-50908900D02*
X115920000Y-54160000D01*
X69182000Y-106850000D02*
X69817000Y-107485000D01*
X55847000Y-50335000D02*
X55847000Y-50970000D01*
X99256000Y-21430000D02*
X99309000Y-21470500D01*
X64737000Y-64305000D02*
X66007000Y-65575000D01*
X71951000Y-52545000D02*
X69792000Y-54704000D01*
X64712000Y-54704000D02*
X64736999Y-54704000D01*
X99458500Y-21620000D02*
X99309000Y-21470500D01*
X79571000Y-44417000D02*
X76904000Y-44417000D01*
X55846900Y-48910900D02*
X55847000Y-48910900D01*
X106241000Y-20795000D02*
X105606000Y-20795000D01*
%TO.N,DATA3*%
X80775400Y-25089100D02*
X60927000Y-25089100D01*
X120084000Y-51275000D02*
X122243000Y-51275000D01*
X106723900Y-22583900D02*
X101346300Y-22583900D01*
X76167000Y-101135000D02*
X72992000Y-104310000D01*
X76167000Y-89705000D02*
X76167000Y-101135000D01*
X58633100Y-46692300D02*
X57337400Y-46692300D01*
X93947000Y-31285000D02*
X93947000Y-29860900D01*
X72992000Y-106850000D02*
X72357000Y-107485000D01*
X59486800Y-49870200D02*
X59486800Y-47546000D01*
X59022000Y-56050000D02*
X59022000Y-52875000D01*
X78707000Y-87165000D02*
X76167000Y-89705000D01*
X78707000Y-64305000D02*
X78707000Y-87165000D01*
X93947000Y-29860900D02*
X85547200Y-29860900D01*
X59486800Y-47546000D02*
X58633100Y-46692300D01*
X59657000Y-63670000D02*
X59657000Y-56685000D01*
X60927000Y-23665000D02*
X60927000Y-25089100D01*
X119576000Y-51783000D02*
X120084000Y-51275000D01*
X122243000Y-51275000D02*
X122370000Y-51402000D01*
X85547200Y-29860900D02*
X80775400Y-25089100D01*
X72992000Y-104310000D02*
X72992000Y-106850000D01*
X59022000Y-52875000D02*
X59022000Y-50970000D01*
X59022000Y-50970000D02*
X58387000Y-50335000D01*
X108300000Y-24160000D02*
X106723900Y-22583900D01*
X58704500Y-50652500D02*
X59486800Y-49870200D01*
X59657000Y-56685000D02*
X59022000Y-56050000D01*
%TO.N,/Sheet 7/-SRST*%
X114496000Y-53434000D02*
X114496000Y-50894000D01*
X106876000Y-86708000D02*
X106876000Y-80866000D01*
X115639000Y-49751000D02*
X115920000Y-49080000D01*
X107765000Y-63848000D02*
X110559000Y-61054000D01*
X109797000Y-67658000D02*
X107765000Y-65626000D01*
X108273000Y-79469000D02*
X108654000Y-79469000D01*
X109162000Y-72357000D02*
X109797000Y-71722000D01*
X105606000Y-96868000D02*
X105606000Y-95471000D01*
X110559000Y-61054000D02*
X110559000Y-54577000D01*
X108654000Y-79469000D02*
X110178000Y-77945000D01*
X114496000Y-50894000D02*
X115639000Y-49751000D01*
X106876000Y-80866000D02*
X108273000Y-79469000D01*
X109797000Y-71722000D02*
X109797000Y-67658000D01*
X107765000Y-65626000D02*
X107765000Y-63848000D01*
%TO.N,Net-(R8-Pad1)*%
X185387000Y-30015000D02*
X181577000Y-30015000D01*
%TO.N,Net-(IC3A-A1)*%
X52901000Y-29431000D02*
X54425000Y-29431000D01*
X45281000Y-29812000D02*
X52393000Y-29812000D01*
X118179000Y-72611000D02*
X122751000Y-77183000D01*
X52393000Y-29812000D02*
X52647000Y-29558000D01*
X52774000Y-29558000D02*
X52901000Y-29431000D01*
X95573000Y-24605000D02*
X96970000Y-26002000D01*
X60521000Y-22192000D02*
X63823000Y-22192000D01*
X106241000Y-26129000D02*
X107892000Y-27780000D01*
X94303000Y-22192000D02*
X95573000Y-23462000D01*
X64966000Y-21049000D02*
X65474000Y-21049000D01*
X114877000Y-60165000D02*
X114877000Y-63848000D01*
X123132000Y-84803000D02*
X124148000Y-85819000D01*
X111194000Y-56482000D02*
X114877000Y-60165000D01*
X111194000Y-52291000D02*
X111194000Y-56482000D01*
X122751000Y-77183000D02*
X122751000Y-80231000D01*
X43147000Y-31285000D02*
X43630000Y-30447000D01*
X123132000Y-80612000D02*
X123132000Y-84803000D01*
X96970000Y-26002000D02*
X105987000Y-26002000D01*
X44646000Y-30447000D02*
X45281000Y-29812000D01*
X117670999Y-70198000D02*
X118179000Y-70706000D01*
X118179000Y-70706000D02*
X118179000Y-72611000D01*
X107892000Y-27780000D02*
X109035000Y-27780000D01*
X52647000Y-29558000D02*
X52774000Y-29558000D01*
X109035000Y-27780000D02*
X109289000Y-27526000D01*
X91636000Y-21176000D02*
X92652000Y-22192000D01*
X106114000Y-26129000D02*
X106241000Y-26129000D01*
X65601000Y-21176000D02*
X91636000Y-21176000D01*
X105987000Y-26002000D02*
X106114000Y-26129000D01*
X92652000Y-22192000D02*
X94303000Y-22192000D01*
X59759000Y-22954000D02*
X60521000Y-22192000D01*
X65474000Y-21049000D02*
X65601000Y-21176000D01*
X117670999Y-66641999D02*
X117670999Y-70198000D01*
X95573000Y-23462000D02*
X95573000Y-24605000D01*
X63823000Y-22192000D02*
X64966000Y-21049000D01*
X114877000Y-63848000D02*
X117670999Y-66641999D01*
X59759000Y-24097000D02*
X59759000Y-22954000D01*
X122751000Y-80231000D02*
X123132000Y-80612000D01*
X54425000Y-29431000D02*
X59759000Y-24097000D01*
X43630000Y-30447000D02*
X44646000Y-30447000D01*
X124148000Y-85819000D02*
X124417000Y-88435000D01*
%TO.N,Net-(TM1-S)*%
X118034800Y-99244900D02*
X166083800Y-99244900D01*
%TO.N,DATA4*%
X74897000Y-80815000D02*
X73627000Y-82085000D01*
X75532000Y-53510000D02*
X75532000Y-64305000D01*
X74897000Y-70655000D02*
X74897000Y-80815000D01*
X75532000Y-64305000D02*
X76802000Y-65575000D01*
X61562000Y-49700000D02*
X60927000Y-50335000D01*
X76802000Y-68750000D02*
X74897000Y-70655000D01*
X60927000Y-50335000D02*
X60927000Y-52875000D01*
X96842999Y-22192000D02*
X95065000Y-22192000D01*
X61244500Y-50017500D02*
X61244500Y-44597200D01*
X97351000Y-22700000D02*
X96842999Y-22192000D01*
X67912000Y-57320000D02*
X68547000Y-57955000D01*
X76802000Y-65575000D02*
X76802000Y-68750000D01*
X67912000Y-54145000D02*
X67912000Y-57320000D01*
X107511000Y-25240000D02*
X98747999Y-25240000D01*
X73627000Y-98595000D02*
X72357000Y-99865000D01*
X73627000Y-82085000D02*
X73627000Y-98595000D01*
X61244500Y-44597200D02*
X62116600Y-43725100D01*
X60927000Y-52875000D02*
X61562000Y-53510000D01*
X97351000Y-23843000D02*
X97351000Y-22700000D01*
X98747999Y-25240000D02*
X97351000Y-23843000D01*
%TO.N,DATA5*%
X70554000Y-40607000D02*
X85794000Y-40607000D01*
X66871000Y-58895000D02*
X65982000Y-58006000D01*
X63467000Y-50335000D02*
X63467000Y-47631300D01*
X64458000Y-46703000D02*
X70554000Y-40607000D01*
X69538000Y-98773000D02*
X66363000Y-95598000D01*
X108300000Y-29240000D02*
X110374000Y-31314000D01*
X110374000Y-31314000D02*
X110374000Y-32765400D01*
X66007000Y-52875000D02*
X64737000Y-51605000D01*
X64420400Y-46677900D02*
X64458000Y-46703000D01*
X105872000Y-26812000D02*
X93129900Y-26812000D01*
X66871000Y-82009000D02*
X66871000Y-76675000D01*
X91407000Y-23665000D02*
X91407000Y-25089100D01*
X63467000Y-47631300D02*
X64420400Y-46677900D01*
X130486300Y-40229400D02*
X131566100Y-40229400D01*
X90366000Y-32987000D02*
X90366000Y-31590000D01*
X66871000Y-66515000D02*
X66871000Y-58895000D01*
X89604000Y-33748999D02*
X90366000Y-32987000D01*
X22827000Y-47795000D02*
X24097000Y-49065000D01*
X108300000Y-29240000D02*
X105872000Y-26812000D01*
X93129900Y-26812000D02*
X91407000Y-25089100D01*
X110374000Y-32765400D02*
X118199600Y-40591000D01*
X65982000Y-58006000D02*
X66007000Y-57955000D01*
X66363000Y-95598000D02*
X66363000Y-82517000D01*
X66007000Y-57955000D02*
X66007000Y-52875000D01*
X92779000Y-25113000D02*
X91382000Y-25113000D01*
X66871000Y-76675000D02*
X65093000Y-74897000D01*
X33303700Y-49065000D02*
X33781900Y-49543200D01*
X65093000Y-74897000D02*
X65093000Y-68293000D01*
X24097000Y-49065000D02*
X33303700Y-49065000D01*
X69817000Y-99865000D02*
X69538000Y-98773000D01*
X85794000Y-40607000D02*
X88080000Y-42893000D01*
X130124700Y-40591000D02*
X130486300Y-40229400D01*
X94303000Y-26637000D02*
X92779000Y-25113000D01*
X66363000Y-82517000D02*
X66871000Y-82009000D01*
X91382000Y-25113000D02*
X91407000Y-25089100D01*
X118199600Y-40591000D02*
X130124700Y-40591000D01*
X65093000Y-68293000D02*
X66871000Y-66515000D01*
X64737000Y-51605000D02*
X63467000Y-50335000D01*
%TO.N,DATA6*%
X79825000Y-30574000D02*
X79825000Y-36543000D01*
X83787000Y-25089100D02*
X87078700Y-28380800D01*
X59022000Y-47795000D02*
X57117000Y-47795000D01*
X22827000Y-45255000D02*
X20922000Y-47160000D01*
X108300000Y-31780000D02*
X117392100Y-40872100D01*
X57117000Y-51605000D02*
X57752000Y-52240000D01*
X57117000Y-47795000D02*
X57117000Y-51605000D01*
X83787000Y-24306300D02*
X83787000Y-25089100D01*
X86429000Y-27780000D02*
X84651000Y-27780000D01*
X57752000Y-57320000D02*
X58387000Y-57955000D01*
X83787000Y-23665000D02*
X83787000Y-24109300D01*
X77539000Y-41115000D02*
X69792000Y-48862000D01*
X20922000Y-47160000D02*
X20922000Y-93515000D01*
X87064000Y-28415000D02*
X86429000Y-27780000D01*
X87078700Y-28380800D02*
X104900800Y-28380800D01*
X83787000Y-24306300D02*
X83787000Y-24109300D01*
X87078700Y-28380800D02*
X87064000Y-28415000D01*
X117392100Y-40872100D02*
X130584700Y-40872100D01*
X104900800Y-28380800D02*
X108300000Y-31780000D01*
X20922000Y-93515000D02*
X22192000Y-94785000D01*
X57752000Y-52240000D02*
X57752000Y-57320000D01*
%TO.N,DATA7*%
X57165500Y-33030200D02*
X62317500Y-33030200D01*
X85609300Y-29451400D02*
X81247000Y-25089100D01*
X68521999Y-49243000D02*
X68521999Y-50386000D01*
X68547000Y-50335000D02*
X68547000Y-52240000D01*
X67252000Y-32606000D02*
X67252000Y-33748999D01*
X54577000Y-59225000D02*
X54577000Y-77640000D01*
X69182000Y-54780000D02*
X68547000Y-55415000D01*
X56482000Y-79545000D02*
X56482000Y-96690000D01*
X55847000Y-57955000D02*
X54577000Y-59225000D01*
X69182000Y-52875000D02*
X69182000Y-54780000D01*
X56924400Y-33271300D02*
X57165500Y-33030200D01*
X45687000Y-31285000D02*
X45687000Y-32709100D01*
X81247000Y-23665000D02*
X81247000Y-25089100D01*
X108300000Y-34320000D02*
X103431400Y-29451400D01*
X54577000Y-77640000D02*
X56482000Y-79545000D01*
X70554000Y-47211000D02*
X68521999Y-49243000D01*
X46249200Y-33271300D02*
X56924400Y-33271300D01*
X45687000Y-32709100D02*
X46249200Y-33271300D01*
X103431400Y-29451400D02*
X85609300Y-29451400D01*
X68521999Y-50386000D02*
X68547000Y-50386000D01*
X68547000Y-52240000D02*
X69182000Y-52875000D01*
%TO.N,Net-(R5-Pad1)*%
X185387000Y-54145000D02*
X181577000Y-54145000D01*
%TO.N,Net-(IC2-V+)*%
X84422000Y-66210000D02*
X83787000Y-65575000D01*
X84422000Y-69385000D02*
X84422000Y-66210000D01*
%TO.N,Net-(R6-Pad1)*%
X185387000Y-46525000D02*
X181577000Y-46525000D01*
%TO.N,Net-(IC4-Q4)*%
X70452000Y-64940000D02*
X71087000Y-65575000D01*
X70553000Y-64941100D02*
X70453200Y-64941100D01*
X74021800Y-61472300D02*
X70553000Y-64941100D01*
%TO.N,-B-RESET*%
X75232700Y-68115000D02*
X75064000Y-67946300D01*
X54577000Y-107485000D02*
X54577000Y-103040000D01*
X76167000Y-32709100D02*
X75351100Y-33525000D01*
X54577000Y-103040000D02*
X50767000Y-99230000D01*
X75064000Y-49068000D02*
X76809000Y-47323000D01*
X50767000Y-99230000D02*
X50767000Y-65575000D01*
X75351100Y-33525000D02*
X75351100Y-33659900D01*
X75064000Y-67946300D02*
X75064000Y-49068000D01*
X76167000Y-31285000D02*
X76167000Y-32709100D01*
%TO.N,Net-(IC4-Q1)*%
X77412000Y-64355999D02*
X77412000Y-59911000D01*
X121227000Y-76421000D02*
X121227000Y-76167000D01*
X77793000Y-64736999D02*
X77412000Y-64355999D01*
X121481000Y-76675000D02*
X121227000Y-76421000D01*
X119576000Y-74516000D02*
X109289000Y-74516000D01*
X54044000Y-59911000D02*
X54044000Y-64736999D01*
X53917000Y-64991000D02*
X53904000Y-64977999D01*
X53942000Y-64940000D02*
X53307000Y-65575000D01*
X78174000Y-70579000D02*
X77793000Y-70198000D01*
X121227000Y-76167000D02*
X119576000Y-74516000D01*
X54044000Y-64736999D02*
X53917000Y-64864000D01*
X53917000Y-64864000D02*
X53917000Y-64991000D01*
X77793000Y-70198000D02*
X77793000Y-64736999D01*
X106622000Y-73881000D02*
X104844000Y-72103000D01*
%TO.N,Net-(IC4-Q2)*%
X61562000Y-66210000D02*
X60927000Y-65575000D01*
%TO.N,Net-(IC4-Q3)*%
X63784500Y-65892500D02*
X64247400Y-65429600D01*
X64102000Y-66210000D02*
X63467000Y-65575000D01*
X64247400Y-65429600D02*
X64247400Y-62552200D01*
%TO.N,Net-(IC4-CLK)*%
X69817000Y-61130000D02*
X69817000Y-66845000D01*
X73627000Y-57955000D02*
X73627000Y-60495000D01*
X67277000Y-69385000D02*
X67277000Y-85895000D01*
X73627000Y-60495000D02*
X72992000Y-61130000D01*
X69817000Y-66845000D02*
X67277000Y-69385000D01*
%TO.N,Net-(IC4-Q5)*%
X168217000Y-51148000D02*
X169741000Y-49624000D01*
X71316000Y-55720000D02*
X71316000Y-56863000D01*
X116655000Y-55720000D02*
X120084000Y-52291000D01*
X72205000Y-54831000D02*
X71316000Y-55720000D01*
X109035000Y-55720000D02*
X108527000Y-55212000D01*
X108527000Y-55212000D02*
X107638000Y-55212000D01*
X71087000Y-57955000D02*
X71316000Y-56863000D01*
%TO.N,Net-(IC4-Q6)*%
X171138000Y-30574000D02*
X171417000Y-30015000D01*
X103701000Y-65372000D02*
X103701000Y-67531000D01*
X170630000Y-31082000D02*
X171138000Y-30574000D01*
X170249000Y-37559000D02*
X170630000Y-37178000D01*
X170630000Y-37178000D02*
X170630000Y-31082000D01*
X101795999Y-59276000D02*
X101795999Y-63467000D01*
X101795999Y-63467000D02*
X103701000Y-65372000D01*
X170249000Y-60292000D02*
X170249000Y-37559000D01*
X168217000Y-62324000D02*
X170249000Y-60292000D01*
%TO.N,Net-(IC4-Q7)*%
X168725000Y-25367000D02*
X171138000Y-22954000D01*
X171138000Y-22954000D02*
X171417000Y-22395000D01*
X60292000Y-57320000D02*
X60927000Y-57955000D01*
X168725000Y-49878000D02*
X168725000Y-25367000D01*
%TO.N,Net-(IC4-Q8)*%
X60394000Y-21811000D02*
X60013000Y-22192000D01*
X51758000Y-39464000D02*
X51758000Y-46322000D01*
X54933000Y-23081000D02*
X54298000Y-23716000D01*
X52647000Y-51529000D02*
X52647000Y-53434000D01*
X52139000Y-46957000D02*
X52139000Y-51021000D01*
X51885000Y-46449000D02*
X51885000Y-46576000D01*
X92906000Y-21176000D02*
X92144000Y-21176000D01*
X55060000Y-22573000D02*
X55060000Y-22700000D01*
X55060000Y-22700000D02*
X54933000Y-22827000D01*
X54298000Y-24478000D02*
X49472000Y-29304000D01*
X51758000Y-46322000D02*
X51885000Y-46449000D01*
X91763000Y-20795000D02*
X65728000Y-20795000D01*
X60013000Y-22192000D02*
X55441000Y-22192000D01*
X48710000Y-36416000D02*
X51758000Y-39464000D01*
X54298000Y-23716000D02*
X54298000Y-24478000D01*
X54933000Y-22827000D02*
X54933000Y-23081000D01*
X49472000Y-29304000D02*
X49091000Y-29304000D01*
X52139000Y-51021000D02*
X52647000Y-51529000D01*
X64839000Y-20668000D02*
X63696000Y-21811000D01*
X92144000Y-21176000D02*
X91763000Y-20795000D01*
X52012000Y-46703000D02*
X52012000Y-46830000D01*
X52012000Y-46830000D02*
X52139000Y-46957000D01*
X63696000Y-21811000D02*
X60394000Y-21811000D01*
X51885000Y-46576000D02*
X52012000Y-46703000D01*
X65601000Y-20668000D02*
X64839000Y-20668000D01*
X65728000Y-20795000D02*
X65601000Y-20668000D01*
X55441000Y-22192000D02*
X55060000Y-22573000D01*
%TO.N,/Sheet 2/RX-IN*%
X125759100Y-98031200D02*
X116288900Y-88561000D01*
X138743700Y-98031200D02*
X125759100Y-98031200D01*
X104694300Y-85330500D02*
X104694300Y-78069400D01*
X116288900Y-88561000D02*
X107924800Y-88561000D01*
X103456200Y-76831300D02*
X103456200Y-75617600D01*
X107924800Y-88561000D02*
X104694300Y-85330500D01*
X100853400Y-73014800D02*
X100853400Y-59392900D01*
X103456200Y-75617600D02*
X100853400Y-73014800D01*
X104694300Y-78069400D02*
X103456200Y-76831300D01*
%TO.N,/Sheet 2/TX-OUT*%
X117289999Y-82390000D02*
X122497000Y-87597000D01*
X114877000Y-80866000D02*
X114877000Y-81374000D01*
X86429000Y-59022000D02*
X86429000Y-62959000D01*
X108781000Y-74770000D02*
X114877000Y-80866000D01*
X114877000Y-81374000D02*
X115893000Y-82390000D01*
X115893000Y-82390000D02*
X117289999Y-82390000D01*
X106495000Y-66388000D02*
X106495000Y-72992000D01*
X122497000Y-87597000D02*
X122497000Y-90137000D01*
X122497000Y-90137000D02*
X129863000Y-97503000D01*
X108273000Y-74770000D02*
X108781000Y-74770000D01*
X86327000Y-57955000D02*
X86429000Y-59022000D01*
X106495000Y-72992000D02*
X108273000Y-74770000D01*
%TO.N,Net-(J1-Pad3)*%
X149827000Y-112415000D02*
X149827000Y-104945000D01*
%TO.N,Net-(J1-Pad2)*%
X151097000Y-103675000D02*
X149827000Y-102405000D01*
X151097000Y-110660000D02*
X151097000Y-103675000D01*
X152367000Y-111930000D02*
X151097000Y-110660000D01*
X152367000Y-111930000D02*
X152597000Y-112415000D01*
%TO.N,Net-(IC1-INT)*%
X66871000Y-50132000D02*
X66871000Y-54069000D01*
X40963000Y-66134000D02*
X40963000Y-76802000D01*
X75532000Y-35730000D02*
X76167000Y-35095000D01*
X47567000Y-59530000D02*
X40963000Y-66134000D01*
X43376000Y-79215000D02*
X43376000Y-110584000D01*
X44011000Y-111219000D02*
X44417000Y-112565000D01*
X40963000Y-76802000D02*
X43376000Y-79215000D01*
X75888000Y-41115000D02*
X66871000Y-50132000D01*
X43376000Y-110584000D02*
X44011000Y-111219000D01*
X75621000Y-35641000D02*
X75888000Y-35908000D01*
%TO.N,Net-(IC8F-I)*%
X85692000Y-101770000D02*
X87597000Y-99865000D01*
X86962000Y-77640000D02*
X86962000Y-72560000D01*
X85692000Y-104310000D02*
X85692000Y-101770000D01*
X87597000Y-78275000D02*
X86962000Y-77640000D01*
X87597000Y-99865000D02*
X87597000Y-78275000D01*
X46957000Y-112565000D02*
X53942000Y-105580000D01*
X86962000Y-72560000D02*
X86327000Y-71925000D01*
%TO.N,Net-(IC3B-A1)*%
X85413000Y-24986000D02*
X87191000Y-26764000D01*
X85413000Y-23335000D02*
X85413000Y-24986000D01*
X83634999Y-21557000D02*
X85413000Y-23335000D01*
X108273000Y-33241000D02*
X109289000Y-33241000D01*
X121989000Y-44671000D02*
X123259000Y-45941000D01*
X115131000Y-39083000D02*
X115131000Y-40353000D01*
X103955000Y-28923000D02*
X108273000Y-33241000D01*
X109289000Y-33241000D02*
X115131000Y-39083000D01*
X65220000Y-21557000D02*
X83634999Y-21557000D01*
X119449000Y-44671000D02*
X121989000Y-44671000D01*
X89350000Y-28923000D02*
X103955000Y-28923000D01*
X123259000Y-45941000D02*
X124417000Y-47795000D01*
%TO.N,/Sheet 7/-IOR*%
X126003100Y-71539400D02*
X126003100Y-52973100D01*
X72586000Y-15842000D02*
X71316000Y-14572000D01*
X115178200Y-15004900D02*
X117087400Y-15004900D01*
X112313400Y-85596600D02*
X113293700Y-85596600D01*
X76777000Y-16604000D02*
X76015000Y-15842000D01*
X113293700Y-85596600D02*
X113754700Y-85135600D01*
X109221700Y-85300900D02*
X108729300Y-85300900D01*
X114173300Y-14000000D02*
X115178200Y-15004900D01*
X117087400Y-15004900D02*
X117388900Y-14703400D01*
X108957500Y-82240700D02*
X112313400Y-85596600D01*
X71316000Y-14572000D02*
X70520000Y-14500000D01*
X108300000Y-14000000D02*
X114173300Y-14000000D01*
X78174000Y-18636000D02*
X76777000Y-17239000D01*
X108300000Y-82240700D02*
X108957500Y-82240700D01*
X108048700Y-82240700D02*
X108300000Y-82240700D01*
X130678200Y-15247800D02*
X129664300Y-14233900D01*
X117011600Y-85135600D02*
X117996700Y-84150500D01*
X99890999Y-18890000D02*
X99637000Y-18636000D01*
X76777000Y-17239000D02*
X76777000Y-16604000D01*
X74364000Y-15842000D02*
X74237000Y-15969000D01*
X127672200Y-14233900D02*
X127672200Y-14235500D01*
X130016700Y-23136400D02*
X130678200Y-22474900D01*
X107295100Y-83866700D02*
X107295100Y-82994300D01*
X130678200Y-22474900D02*
X130678200Y-15247800D01*
X108729300Y-85300900D02*
X107295100Y-83866700D01*
X123620200Y-44100900D02*
X127366800Y-44100900D01*
X76015000Y-15842000D02*
X74364000Y-15842000D01*
X107295100Y-82994300D02*
X108048700Y-82240700D01*
X108300000Y-82240700D02*
X108300000Y-80900000D01*
X99637000Y-18636000D02*
X78174000Y-18636000D01*
X129664300Y-14233900D02*
X127672200Y-14233900D01*
X126003100Y-52973100D02*
X124397800Y-51367800D01*
X113754700Y-85135600D02*
X117011600Y-85135600D01*
%TO.N,/Sheet 7/-CFOE*%
X126466800Y-51367800D02*
X126466800Y-87408700D01*
X117225600Y-12972000D02*
X118090100Y-13836500D01*
X129349900Y-43899700D02*
X127549300Y-45700300D01*
X118090100Y-13836500D02*
X124687400Y-13836500D01*
X116629600Y-100669600D02*
X117919200Y-100669600D01*
X131499800Y-19864400D02*
X131499800Y-23138800D01*
X115920000Y-99960000D02*
X116629600Y-100669600D01*
X117289600Y-96527400D02*
X118242600Y-95574400D01*
X118242600Y-95574400D02*
X120910000Y-95574400D01*
X115395100Y-12972000D02*
X117225600Y-12972000D01*
X114730100Y-13637000D02*
X115395100Y-12972000D01*
X117289600Y-96527400D02*
X116897700Y-96135500D01*
X116897700Y-96135500D02*
X109555500Y-96135500D01*
X109555500Y-96135500D02*
X108300000Y-94880000D01*
X127549300Y-45700300D02*
X126466800Y-45700300D01*
%TO.N,Net-(HI0A-D1)*%
X68547000Y-101135000D02*
X67277000Y-99865000D01*
X186657000Y-98595000D02*
X184117000Y-101135000D01*
X186657000Y-79545000D02*
X186657000Y-98595000D01*
X68547000Y-110660000D02*
X68547000Y-101135000D01*
X187927000Y-78275000D02*
X186657000Y-79545000D01*
%TO.N,Net-(HI0A-D0)*%
X160475600Y-98490100D02*
X104587200Y-98490100D01*
X104587200Y-98490100D02*
X104407400Y-98310300D01*
X164038800Y-94926900D02*
X160475600Y-98490100D01*
%TO.N,Net-(HI0A-D3)*%
X160881800Y-98771200D02*
X103945300Y-98771200D01*
X164084600Y-95568400D02*
X160881800Y-98771200D01*
%TO.N,Net-(HI0A-D2)*%
X66007000Y-106215000D02*
X65372000Y-105580000D01*
X65372000Y-100500000D02*
X64737000Y-99865000D01*
X66007000Y-110660000D02*
X66007000Y-106215000D01*
X65372000Y-105580000D02*
X65372000Y-100500000D01*
%TO.N,IO-WR*%
X97757000Y-56685000D02*
X97122000Y-56050000D01*
X71087000Y-92245000D02*
X70452000Y-91610000D01*
X92042000Y-80180000D02*
X91407000Y-79545000D01*
X92042000Y-83990000D02*
X92042000Y-80180000D01*
X95217000Y-64305000D02*
X97757000Y-61765000D01*
X92677000Y-77005000D02*
X92677000Y-70655000D01*
X71087000Y-95420000D02*
X71087000Y-92245000D01*
X95217000Y-68115000D02*
X95217000Y-64305000D01*
X70452000Y-91610000D02*
X70452000Y-86530000D01*
X70452000Y-86530000D02*
X69817000Y-85895000D01*
X97757000Y-61765000D02*
X97757000Y-56685000D01*
X92677000Y-92245000D02*
X92677000Y-84625000D01*
X97122000Y-56050000D02*
X97122000Y-50970000D01*
X91407000Y-78275000D02*
X92677000Y-77005000D01*
X92677000Y-84625000D02*
X92042000Y-83990000D01*
X71087000Y-115105000D02*
X71087000Y-95420000D01*
X92677000Y-70655000D02*
X95217000Y-68115000D01*
X97122000Y-50970000D02*
X96487000Y-50335000D01*
X91407000Y-79545000D02*
X91407000Y-78275000D01*
X93947000Y-93515000D02*
X92677000Y-92245000D01*
%TO.N,IO-SELDATA*%
X63467000Y-94785000D02*
X63467000Y-115105000D01*
X74897000Y-83990000D02*
X74262000Y-83355000D01*
X64737000Y-93515000D02*
X63467000Y-94785000D01*
X74897000Y-83990000D02*
X77437000Y-81450000D01*
X68547000Y-83355000D02*
X68547000Y-92245000D01*
X93312000Y-72560000D02*
X93947000Y-71925000D01*
X74897000Y-85895000D02*
X74897000Y-83990000D01*
X93312000Y-77640000D02*
X93312000Y-72560000D01*
X68547000Y-92245000D02*
X69817000Y-93515000D01*
X77437000Y-81450000D02*
X77437000Y-64940000D01*
X92677000Y-78275000D02*
X93312000Y-77640000D01*
X76802000Y-64305000D02*
X76802000Y-52240000D01*
X77437000Y-64940000D02*
X76802000Y-64305000D01*
X92677000Y-82085000D02*
X92677000Y-78275000D01*
X76802000Y-52240000D02*
X78707000Y-50335000D01*
%TO.N,Net-(IC11A-O)*%
X45687000Y-113835000D02*
X45687000Y-75735000D01*
X45687000Y-75735000D02*
X41877000Y-71925000D01*
X77437000Y-101135000D02*
X73627000Y-104945000D01*
X72357000Y-117645000D02*
X49497000Y-117645000D01*
X72357000Y-110025000D02*
X72357000Y-117645000D01*
X73627000Y-108755000D02*
X72357000Y-110025000D01*
X73627000Y-104945000D02*
X73627000Y-108755000D01*
X49497000Y-117645000D02*
X45687000Y-113835000D01*
X77437000Y-99865000D02*
X77437000Y-101135000D01*
%TO.N,TIL311*%
X39972000Y-71290000D02*
X39972000Y-41030700D01*
X47450300Y-33552400D02*
X60888900Y-33552400D01*
X39972000Y-71290000D02*
X39337000Y-71925000D01*
X60888900Y-33552400D02*
X60951000Y-33490300D01*
X39972000Y-41030700D02*
X47450300Y-33552400D01*
%TO.N,Net-(R4-Pad1)*%
X185387000Y-61765000D02*
X181577000Y-61765000D01*
%TO.N,Net-(IC3B-A2)*%
X115765999Y-33114000D02*
X110940000Y-28288000D01*
X108400000Y-20160000D02*
X107384000Y-20160000D01*
X120592000Y-33114000D02*
X115765999Y-33114000D01*
X110940000Y-22700000D02*
X108400000Y-20160000D01*
X100271999Y-19779000D02*
X71570000Y-19779000D01*
X107384000Y-20160000D02*
X106368000Y-19144000D01*
X123259000Y-35781000D02*
X124417000Y-37635000D01*
X106368000Y-19144000D02*
X100907000Y-19144000D01*
X100907000Y-19144000D02*
X100271999Y-19779000D01*
X71570000Y-19779000D02*
X70173000Y-18381999D01*
X110940000Y-28288000D02*
X110940000Y-22700000D01*
X70173000Y-18381999D02*
X61283000Y-18381999D01*
X123259000Y-35781000D02*
X120592000Y-33114000D01*
%TO.N,Net-(IC2-V-)*%
X94582000Y-64940000D02*
X93947000Y-65575000D01*
X95217000Y-59225000D02*
X94582000Y-59860000D01*
X95217000Y-49065000D02*
X95217000Y-59225000D01*
X94582000Y-59860000D02*
X94582000Y-64940000D01*
%TO.N,Net-(IC1-XTAL1)*%
X50132000Y-46525000D02*
X50132000Y-45890000D01*
X50132000Y-45890000D02*
X43147000Y-38905000D01*
%TO.N,IO-RD*%
X82517000Y-110025000D02*
X77437000Y-115105000D01*
X100297000Y-56685000D02*
X97757000Y-54145000D01*
X97757000Y-54145000D02*
X97757000Y-36365000D01*
X70452000Y-96690000D02*
X67277000Y-93515000D01*
X86327000Y-79545000D02*
X82517000Y-83355000D01*
X97757000Y-36365000D02*
X96487000Y-35095000D01*
X82517000Y-83355000D02*
X82517000Y-96690000D01*
X100297000Y-77005000D02*
X100297000Y-56685000D01*
X77437000Y-115105000D02*
X73627000Y-115105000D01*
X82517000Y-96690000D02*
X82517000Y-110025000D01*
%TO.N,SWITCH-LED*%
X78707000Y-31285000D02*
X78428000Y-32352000D01*
X74618000Y-57117000D02*
X74618000Y-66515000D01*
X64712000Y-85946000D02*
X64736999Y-85946000D01*
X70173000Y-70960000D02*
X70173000Y-80993000D01*
X65474000Y-85184000D02*
X64712000Y-85946000D01*
X72713000Y-55212000D02*
X74618000Y-57117000D01*
X74618000Y-66515000D02*
X70173000Y-70960000D01*
X64737000Y-89705000D02*
X65372000Y-90340000D01*
X72713000Y-49370000D02*
X72713000Y-55212000D01*
X77031000Y-45052000D02*
X72713000Y-49370000D01*
X78428000Y-32352000D02*
X77031000Y-33748999D01*
X70173000Y-80993000D02*
X68014000Y-83152000D01*
X64737000Y-85895000D02*
X64737000Y-89705000D01*
X68014000Y-83152000D02*
X68014000Y-84549000D01*
%TO.N,Net-(IC3A-G)*%
X52901000Y-68166000D02*
X51631000Y-66896000D01*
X49853000Y-51275000D02*
X49853000Y-47592000D01*
X75532000Y-92880000D02*
X74897000Y-93515000D01*
X49853000Y-47592000D02*
X50742000Y-46703000D01*
X52901000Y-85311000D02*
X52901000Y-68166000D01*
X50742000Y-40607000D02*
X46551000Y-36416000D01*
X51631000Y-53053000D02*
X49853000Y-51275000D01*
X50742000Y-46703000D02*
X50742000Y-40607000D01*
X51631000Y-66896000D02*
X51631000Y-53053000D01*
X74922500Y-93489500D02*
X74237000Y-92804000D01*
X55314000Y-87724000D02*
X52901000Y-85311000D01*
%TO.N,Net-(IC6C-O)*%
X83787000Y-93515000D02*
X83787000Y-88435000D01*
X83787000Y-88435000D02*
X83152000Y-87800000D01*
%TO.N,LCD-ENABLE*%
X72332000Y-85946000D02*
X72967000Y-85311000D01*
X80587000Y-84549000D02*
X85286000Y-79850000D01*
X72318999Y-85933000D02*
X72332000Y-85946000D01*
X71722000Y-86530000D02*
X72357000Y-85895000D01*
X87572000Y-33748999D02*
X86175000Y-32352000D01*
X85286000Y-79850000D02*
X85286000Y-55720000D01*
X86175000Y-32352000D02*
X86327000Y-31285000D01*
X89731000Y-49116000D02*
X89604000Y-48989000D01*
X89731000Y-51275000D02*
X89731000Y-49116000D01*
X85286000Y-55720000D02*
X89731000Y-51275000D01*
%TO.N,Net-(IC3A-A3)*%
X67506000Y-55466000D02*
X67506000Y-57371000D01*
X118814000Y-72738000D02*
X119322000Y-72738000D01*
X118306000Y-70325000D02*
X118560000Y-70579000D01*
X57346000Y-38194000D02*
X58108000Y-38956000D01*
X55060000Y-36035000D02*
X55060000Y-36162000D01*
X65220000Y-49370000D02*
X65093000Y-49497000D01*
X121481000Y-70960000D02*
X121862000Y-70960000D01*
X118051999Y-69817000D02*
X118179000Y-69944000D01*
X60902000Y-40988000D02*
X62299000Y-42385000D01*
X118560000Y-70579000D02*
X118560000Y-72484000D01*
X67633000Y-57498000D02*
X67633000Y-58768000D01*
X118306000Y-70198000D02*
X118306000Y-70325000D01*
X66363000Y-52545000D02*
X66363000Y-54323000D01*
X110178000Y-63467000D02*
X113734000Y-63467000D01*
X67760000Y-59022000D02*
X69283999Y-60546000D01*
X54298000Y-34129999D02*
X54933000Y-34765000D01*
X119576000Y-72484000D02*
X119957000Y-72484000D01*
X119322000Y-72738000D02*
X119576000Y-72484000D01*
X55060000Y-36162000D02*
X57092000Y-38194000D01*
X65220000Y-51402000D02*
X66363000Y-52545000D01*
X65347000Y-49116000D02*
X65220000Y-49243000D01*
X115512000Y-63721000D02*
X118051999Y-66260999D01*
X118560000Y-72484000D02*
X118814000Y-72738000D01*
X65093000Y-51148000D02*
X65220000Y-51275000D01*
X65220000Y-49243000D02*
X65220000Y-49370000D01*
X65093000Y-49497000D02*
X65093000Y-51148000D01*
X69283999Y-60546000D02*
X69283999Y-64229000D01*
X54933000Y-35908000D02*
X55060000Y-36035000D01*
X119957000Y-72484000D02*
X121481000Y-70960000D01*
X67506000Y-57371000D02*
X67633000Y-57498000D01*
X65220000Y-51275000D02*
X65220000Y-51402000D01*
X118179000Y-70071000D02*
X118306000Y-70198000D01*
X57092000Y-38194000D02*
X57346000Y-38194000D01*
X54933000Y-34765000D02*
X54933000Y-35908000D01*
X67760000Y-58895000D02*
X67760000Y-59022000D01*
X109543000Y-62832000D02*
X110178000Y-63467000D01*
X118051999Y-66260999D02*
X118051999Y-69817000D01*
X66363000Y-54323000D02*
X67506000Y-55466000D01*
X118179000Y-69944000D02*
X118179000Y-70071000D01*
X121862000Y-70960000D02*
X122243000Y-70579000D01*
X67633000Y-58768000D02*
X67760000Y-58895000D01*
X65347000Y-46576000D02*
X65347000Y-49116000D01*
%TO.N,IO-ADDR0*%
X29177000Y-87165000D02*
X29812000Y-86530000D01*
X57752000Y-83990000D02*
X57752000Y-80180000D01*
X29177000Y-89705000D02*
X29177000Y-87165000D01*
X27907000Y-90975000D02*
X29177000Y-89705000D01*
X57752000Y-80180000D02*
X58387000Y-79545000D01*
%TO.N,IO-ADDR1*%
X60927000Y-93515000D02*
X60927000Y-79545000D01*
%TO.N,IO-ADDR2*%
X62832000Y-80180000D02*
X63467000Y-79545000D01*
X62832000Y-82085000D02*
X62832000Y-80180000D01*
%TO.N,Net-(IC5-G2A)*%
X39337000Y-111930000D02*
X39337000Y-83355000D01*
X38702000Y-112565000D02*
X39337000Y-111930000D01*
X39337000Y-83355000D02*
X39972000Y-82720000D01*
X35527000Y-113835000D02*
X35527000Y-112565000D01*
X35527000Y-112565000D02*
X38702000Y-112565000D01*
X66007000Y-82085000D02*
X66007000Y-79545000D01*
%TO.N,Net-(IC5-G1)*%
X35527000Y-111295000D02*
X35527000Y-89070000D01*
X71087000Y-87165000D02*
X71087000Y-79545000D01*
X35527000Y-89070000D02*
X37432000Y-87165000D01*
%TO.N,/Sheet 5/-IO-SEL7*%
X103472000Y-115105000D02*
X103472000Y-83355000D01*
X72992000Y-82720000D02*
X72992000Y-80180000D01*
X104107000Y-120185000D02*
X105377000Y-118915000D01*
X72992000Y-80180000D02*
X73627000Y-79545000D01*
X39972000Y-120820000D02*
X39337000Y-120185000D01*
X103472000Y-83355000D02*
X102837000Y-82720000D01*
X105377000Y-117010000D02*
X103472000Y-115105000D01*
X39972000Y-122725000D02*
X39972000Y-120820000D01*
X105377000Y-118915000D02*
X105377000Y-117010000D01*
%TO.N,/Sheet 5/-IO-SEL6*%
X38702000Y-122725000D02*
X38702000Y-122090000D01*
X102202000Y-116375000D02*
X102202000Y-75735000D01*
X101567000Y-120185000D02*
X102837000Y-118915000D01*
X38702000Y-122090000D02*
X36797000Y-120185000D01*
X102837000Y-117010000D02*
X102202000Y-116375000D01*
X102837000Y-118915000D02*
X102837000Y-117010000D01*
X102202000Y-75735000D02*
X100932000Y-74465000D01*
%TO.N,-IO-SEL5*%
X97757000Y-117010000D02*
X100297000Y-114470000D01*
X99027000Y-120185000D02*
X97757000Y-118915000D01*
X100297000Y-114470000D02*
X100297000Y-78275000D01*
X100297000Y-82253500D02*
X101093000Y-82253500D01*
X97757000Y-118915000D02*
X97757000Y-117010000D01*
X97757000Y-75735000D02*
X97757000Y-70655000D01*
X100297000Y-78275000D02*
X97757000Y-75735000D01*
X97757000Y-70655000D02*
X97122000Y-70020000D01*
%TO.N,-IO-SEL4*%
X35527000Y-116375000D02*
X37432000Y-116375000D01*
X72332000Y-71341000D02*
X74491000Y-69182000D01*
X34892000Y-118915000D02*
X35527000Y-118280000D01*
X84777999Y-71087000D02*
X84777999Y-76294000D01*
X109416000Y-71087000D02*
X109416000Y-69436000D01*
X72332000Y-73246000D02*
X72332000Y-71341000D01*
X39972000Y-83990000D02*
X42512000Y-81450000D01*
X39972000Y-113835000D02*
X39972000Y-83990000D01*
X109416000Y-69436000D02*
X108908000Y-68928000D01*
X108908000Y-68928000D02*
X108300000Y-68200000D01*
X82872999Y-69182000D02*
X84777999Y-71087000D01*
X31717000Y-118915000D02*
X34892000Y-118915000D01*
X31717000Y-120185000D02*
X31717000Y-118915000D01*
X35527000Y-118280000D02*
X35527000Y-116375000D01*
X108527000Y-71976000D02*
X109416000Y-71087000D01*
X37432000Y-116375000D02*
X39972000Y-113835000D01*
X72357000Y-80815000D02*
X72357000Y-73195000D01*
X72357000Y-73246000D02*
X72332000Y-73246000D01*
X72357000Y-73195000D02*
X71087000Y-71925000D01*
%TO.N,/Sheet 5/-IO-SEL3*%
X39972000Y-118915000D02*
X40607000Y-119550000D01*
X35527000Y-119550000D02*
X36162000Y-118915000D01*
X31082000Y-116375000D02*
X31082000Y-70020000D01*
X92677000Y-121455000D02*
X93947000Y-120185000D01*
X30447000Y-118915000D02*
X30447000Y-117010000D01*
X30447000Y-117010000D02*
X31082000Y-116375000D01*
X40607000Y-121455000D02*
X92677000Y-121455000D01*
X29177000Y-120185000D02*
X30447000Y-118915000D01*
X29177000Y-121455000D02*
X34892000Y-121455000D01*
X34892000Y-121455000D02*
X35527000Y-120820000D01*
X36162000Y-118915000D02*
X39972000Y-118915000D01*
X35527000Y-120820000D02*
X35527000Y-119550000D01*
X40607000Y-119550000D02*
X40607000Y-121455000D01*
X29177000Y-120185000D02*
X29177000Y-121455000D01*
%TO.N,/Sheet 5/-IO-SEL2*%
X90137000Y-118915000D02*
X94582000Y-118915000D01*
X91407000Y-120185000D02*
X90137000Y-118915000D01*
X90137000Y-118915000D02*
X90137000Y-78275000D01*
X94582000Y-118915000D02*
X95217000Y-119550000D01*
X66642000Y-72560000D02*
X66007000Y-71925000D01*
X66642000Y-75735000D02*
X66642000Y-72560000D01*
X29812000Y-123360000D02*
X26637000Y-120185000D01*
X90137000Y-78275000D02*
X88867000Y-77005000D01*
X95217000Y-123360000D02*
X29812000Y-123360000D01*
X95217000Y-119550000D02*
X95217000Y-123360000D01*
%TO.N,/Sheet 5/-IO-SEL0*%
X24097000Y-70020000D02*
X24732000Y-69385000D01*
X24097000Y-113200000D02*
X24097000Y-70020000D01*
X58387000Y-69385000D02*
X60927000Y-71925000D01*
X20287000Y-118915000D02*
X20287000Y-117010000D01*
X21557000Y-120185000D02*
X20287000Y-118915000D01*
X20287000Y-117010000D02*
X24097000Y-113200000D01*
%TO.N,Net-(IC3B-A3)*%
X111574999Y-18762999D02*
X111574999Y-18636000D01*
X101542000Y-18000999D02*
X100145000Y-19398000D01*
X115512000Y-22700000D02*
X111574999Y-18762999D01*
X121862000Y-24224000D02*
X117544000Y-24224000D01*
X123259000Y-25621000D02*
X121862000Y-24224000D01*
X99637000Y-19398000D02*
X99383000Y-19144000D01*
X116020000Y-22700000D02*
X115512000Y-22700000D01*
X117544000Y-24224000D02*
X116020000Y-22700000D01*
X110940000Y-18000999D02*
X101542000Y-18000999D01*
X55314000Y-20795000D02*
X53536000Y-22573000D01*
X111574999Y-18636000D02*
X110940000Y-18000999D01*
X123259000Y-25621000D02*
X124417000Y-27475000D01*
X99383000Y-19144000D02*
X85286000Y-19144000D01*
X55314000Y-19398000D02*
X55314000Y-20795000D01*
X100145000Y-19398000D02*
X99637000Y-19398000D01*
X53307000Y-23665000D02*
X53536000Y-22573000D01*
%TO.N,Net-(IC2-C1+)*%
X102837000Y-56685000D02*
X99662000Y-53510000D01*
X81882000Y-64940000D02*
X81247000Y-65575000D01*
X81882000Y-59860000D02*
X81882000Y-64940000D01*
X82517000Y-53510000D02*
X82517000Y-59225000D01*
X82517000Y-59225000D02*
X81882000Y-59860000D01*
%TO.N,Net-(IC2-C1-)*%
X86962000Y-64940000D02*
X86327000Y-65575000D01*
X86962000Y-61130000D02*
X86962000Y-64940000D01*
%TO.N,UART-A0*%
X90112000Y-37940000D02*
X84777999Y-37940000D01*
X91509000Y-36797000D02*
X90112000Y-36797000D01*
X92271000Y-36035000D02*
X91509000Y-36797000D01*
X81729999Y-34510999D02*
X81780500Y-34561500D01*
X90112000Y-36797000D02*
X89985000Y-36924000D01*
X96487000Y-31285000D02*
X95954000Y-31209000D01*
X95954000Y-31209000D02*
X92271000Y-34891999D01*
X92271000Y-34891999D02*
X92271000Y-36035000D01*
X81729999Y-34384000D02*
X81729999Y-34510999D01*
X81882000Y-34460000D02*
X81247000Y-35095000D01*
%TO.N,Net-(IC10-CLK)*%
X105153200Y-78130700D02*
X104256900Y-77234400D01*
X105153200Y-85091000D02*
X105153200Y-78130700D01*
X104256900Y-49891000D02*
X105002200Y-49145700D01*
X104256900Y-77234400D02*
X104256900Y-49891000D01*
%TO.N,UART-A1*%
X88052500Y-35132400D02*
X86664200Y-36520700D01*
X85212700Y-36520700D02*
X84422000Y-35730000D01*
X86664200Y-36520700D02*
X85212700Y-36520700D01*
X89868400Y-32137800D02*
X88052500Y-33953700D01*
X84422000Y-35730000D02*
X83787000Y-35095000D01*
X88052500Y-33953700D02*
X88052500Y-35132400D01*
%TO.N,UART-A2*%
X86327000Y-35095000D02*
X86327000Y-33670900D01*
X84399500Y-33670900D02*
X82794400Y-32065800D01*
X86327000Y-33670900D02*
X84399500Y-33670900D01*
%TO.N,UART-CS*%
X81882000Y-49700000D02*
X81247000Y-50335000D01*
X88878700Y-27640800D02*
X96368000Y-27640800D01*
X86327000Y-25089100D02*
X88878700Y-27640800D01*
X86327000Y-23665000D02*
X86327000Y-25089100D01*
%TO.N,Net-(R9-Pad1)*%
X185387000Y-22395000D02*
X181577000Y-22395000D01*
%TO.N,Net-(R10-Pad1)*%
X185387000Y-14775000D02*
X181577000Y-14775000D01*
%TO.N,Net-(IC7B-I0)*%
X91407000Y-85895000D02*
X91407000Y-93515000D01*
%TO.N,/Sheet 5/-IO-ADDRSEL*%
X85057000Y-87165000D02*
X86327000Y-85895000D01*
X39337000Y-117645000D02*
X39337000Y-118280000D01*
X24097000Y-117645000D02*
X26637000Y-117645000D01*
X34257000Y-117645000D02*
X31717000Y-117645000D01*
X85057000Y-108755000D02*
X85057000Y-87165000D01*
X39337000Y-117645000D02*
X36797000Y-117645000D01*
X39337000Y-118280000D02*
X75532000Y-118280000D01*
X75532000Y-118280000D02*
X85057000Y-108755000D01*
X26637000Y-117645000D02*
X29177000Y-117645000D01*
X24097000Y-117645000D02*
X21557000Y-117645000D01*
%TO.N,/Sheet 5/-IO-DATASEL*%
X101567000Y-76370000D02*
X100932000Y-75735000D01*
X93947000Y-117645000D02*
X96487000Y-117645000D01*
X93947000Y-117645000D02*
X91407000Y-117645000D01*
X101567000Y-117645000D02*
X99027000Y-117645000D01*
X101567000Y-117645000D02*
X101567000Y-76370000D01*
X92042000Y-72560000D02*
X91407000Y-71925000D01*
X88867000Y-117645000D02*
X86327000Y-117645000D01*
X92042000Y-75100000D02*
X92042000Y-72560000D01*
%TO.N,Net-(IC3B-A4)*%
X119068000Y-20287000D02*
X120973000Y-20287000D01*
X123132000Y-18128000D02*
X124417000Y-17315000D01*
X48227000Y-23665000D02*
X48456000Y-22573000D01*
X104463000Y-14699000D02*
X107003000Y-14699000D01*
X103193000Y-13429000D02*
X104463000Y-14699000D01*
X116401000Y-17620000D02*
X119068000Y-20287000D01*
X120973000Y-20287000D02*
X123132000Y-18128000D01*
X48456000Y-22573000D02*
X50615000Y-20414000D01*
X109543000Y-17112000D02*
X109924000Y-16731000D01*
X110813000Y-17620000D02*
X116401000Y-17620000D01*
X109797000Y-16604000D02*
X110813000Y-17620000D01*
%TO.N,Net-(IC9-Q2)*%
X64737000Y-102405000D02*
X64737000Y-107485000D01*
%TO.N,Net-(IC9-Q3)*%
X118034700Y-99896400D02*
X168383900Y-99896400D01*
%TO.N,Net-(IC9-Q4)*%
X164118000Y-101626400D02*
X163924000Y-101432400D01*
X163924000Y-101432400D02*
X107227600Y-101432400D01*
X107227600Y-101432400D02*
X105845000Y-102815000D01*
%TO.N,Net-(R3-Pad1)*%
X185387000Y-69385000D02*
X181577000Y-69385000D01*
%TO.N,/Sheet 2/RX*%
X91407000Y-57955000D02*
X91407000Y-57320000D01*
X91407000Y-57320000D02*
X88232000Y-54145000D01*
X74262000Y-50970000D02*
X73627000Y-50335000D01*
X74262000Y-54145000D02*
X74262000Y-50970000D01*
%TO.N,Net-(IC1-TX)*%
X83152000Y-48430000D02*
X82517000Y-49065000D01*
X78072000Y-48430000D02*
X76167000Y-50335000D01*
X92677000Y-48430000D02*
X83152000Y-48430000D01*
X93947000Y-57955000D02*
X92677000Y-56685000D01*
X80612000Y-52240000D02*
X79977000Y-51605000D01*
X92677000Y-56685000D02*
X92677000Y-48430000D01*
X79977000Y-51605000D02*
X79977000Y-48430000D01*
X79977000Y-48430000D02*
X78072000Y-48430000D01*
X82517000Y-52240000D02*
X80612000Y-52240000D01*
X82517000Y-49065000D02*
X82517000Y-52240000D01*
%TO.N,RESET*%
X62832000Y-48430000D02*
X62832000Y-35730000D01*
X95217000Y-80815000D02*
X95217000Y-107485000D01*
X96487000Y-71925000D02*
X96487000Y-68115000D01*
X96487000Y-79545000D02*
X96487000Y-71925000D01*
X96487000Y-79545000D02*
X95217000Y-80815000D01*
X96487000Y-68115000D02*
X95852000Y-67480000D01*
X62197000Y-66845000D02*
X62197000Y-49065000D01*
X62832000Y-35730000D02*
X63467000Y-35095000D01*
X95217000Y-107485000D02*
X90772000Y-111930000D01*
X62197000Y-49065000D02*
X62832000Y-48430000D01*
%TO.N,-IO-RD*%
X61791000Y-74262000D02*
X61791000Y-70833000D01*
X56711000Y-65753000D02*
X56711000Y-63594000D01*
X63823000Y-76294000D02*
X61791000Y-74262000D01*
X61791000Y-70833000D02*
X56711000Y-65753000D01*
X56711000Y-63594000D02*
X55187000Y-62070000D01*
%TO.N,-IO-WR*%
X101414999Y-68801000D02*
X101414999Y-69436000D01*
X88207000Y-78834000D02*
X88207000Y-78961000D01*
X67633000Y-71087000D02*
X67760000Y-70960000D01*
X68141000Y-70452000D02*
X68902999Y-70452000D01*
X68902999Y-70452000D02*
X69283999Y-70071000D01*
X87191000Y-70960000D02*
X87191000Y-72230000D01*
X87826000Y-76421000D02*
X87826000Y-77945000D01*
X85794000Y-68801000D02*
X85794000Y-69563000D01*
X101414999Y-69436000D02*
X103193000Y-71214000D01*
X67887000Y-73372999D02*
X67887000Y-73119000D01*
X88207000Y-78961000D02*
X88245000Y-78923000D01*
X87191000Y-72230000D02*
X87318000Y-72357000D01*
X87953000Y-78580000D02*
X88207000Y-78834000D01*
X67633000Y-72738000D02*
X67633000Y-71087000D01*
X87953000Y-78072000D02*
X87953000Y-78580000D01*
X87318000Y-72357000D02*
X87318000Y-70960000D01*
X67760000Y-72992000D02*
X67760000Y-72865000D01*
X87826000Y-77945000D02*
X87953000Y-78072000D01*
X87318000Y-72357000D02*
X87318000Y-75913000D01*
X85794000Y-69563000D02*
X87191000Y-70960000D01*
X67760000Y-72865000D02*
X67633000Y-72738000D01*
X67760000Y-70833000D02*
X68141000Y-70452000D01*
X88232000Y-78910000D02*
X88867000Y-79545000D01*
X67887000Y-73119000D02*
X67760000Y-72992000D01*
X67760000Y-70960000D02*
X67760000Y-70833000D01*
X87318000Y-75913000D02*
X87826000Y-76421000D01*
X87318000Y-70960000D02*
X89477000Y-68801000D01*
%TO.N,IO-ADDR3*%
X32987000Y-85260000D02*
X32352000Y-84625000D01*
X32987000Y-111295000D02*
X32987000Y-85260000D01*
%TO.N,-INT*%
X88867000Y-75100000D02*
X88867000Y-71925000D01*
%TO.N,IN*%
X38423000Y-103853000D02*
X38804000Y-104234000D01*
X34867000Y-43401000D02*
X37534000Y-46068000D01*
X37534000Y-70833000D02*
X38423000Y-71722000D01*
X38423000Y-71722000D02*
X38423000Y-103853000D01*
X37534000Y-46068000D02*
X37534000Y-70833000D01*
%TO.N,OUT*%
X23635800Y-97325000D02*
X20459400Y-97325000D01*
X169673200Y-106532500D02*
X164292000Y-101151300D01*
X164292000Y-101151300D02*
X104894500Y-101151300D01*
X169673200Y-106681800D02*
X169673200Y-106532500D01*
%TO.N,Net-(R7-Pad1)*%
X185387000Y-37635000D02*
X181577000Y-37635000D01*
%TO.N,/Sheet 7/PIN20*%
X77920000Y-15842000D02*
X78047000Y-15842000D01*
X77920000Y-15842000D02*
X78682000Y-15842000D01*
X31000000Y-20340000D02*
X31692000Y-20033000D01*
X40455000Y-11651000D02*
X38042000Y-14064000D01*
X32581000Y-20033000D02*
X31692000Y-20033000D01*
%TO.N,Net-(IC3A-A4)*%
X105987000Y-26510000D02*
X105860000Y-26383000D01*
X108781000Y-28161000D02*
X107765000Y-28161000D01*
X124148000Y-55339000D02*
X121481000Y-52672000D01*
X105860000Y-26383000D02*
X94811000Y-26383000D01*
X124148000Y-55339000D02*
X124417000Y-57955000D01*
X113353000Y-32733000D02*
X108781000Y-28161000D01*
X106114000Y-26510000D02*
X105987000Y-26510000D01*
X107765000Y-28161000D02*
X106114000Y-26510000D01*
X94811000Y-26383000D02*
X92525000Y-24097000D01*
X121481000Y-52672000D02*
X121481000Y-51783000D01*
%TO.N,/Sheet 7/-DASP*%
X39499000Y-44484000D02*
X31930500Y-36915500D01*
X39499000Y-57723500D02*
X39499000Y-44484000D01*
%TO.N,/Sheet 7/IORDY*%
X51130200Y-18883700D02*
X63036000Y-18883700D01*
X41160000Y-53000000D02*
X41160000Y-43765500D01*
X42001900Y-29305900D02*
X47026500Y-24281300D01*
X47026500Y-22987400D02*
X51130200Y-18883700D01*
X47026500Y-24281300D02*
X47026500Y-22987400D01*
X42001900Y-37462700D02*
X42001900Y-29305900D01*
X41160000Y-43765500D02*
X42049000Y-42876500D01*
%TO.N,/Sheet 7/ACTK*%
X123483700Y-117622900D02*
X115920000Y-110059200D01*
X137891600Y-121030400D02*
X134484100Y-117622900D01*
X134484100Y-117622900D02*
X123483700Y-117622900D01*
X185400000Y-113200000D02*
X184295100Y-113200000D01*
X176464700Y-121030400D02*
X137891600Y-121030400D01*
X115920000Y-110059200D02*
X115920000Y-105040000D01*
X184295100Y-113200000D02*
X176464700Y-121030400D01*
%TO.N,/Sheet 7/-IOW*%
X73094000Y-14445000D02*
X73088789Y-14502604D01*
X111829000Y-56609000D02*
X111829000Y-47338000D01*
X107130000Y-31336000D02*
X104717000Y-28923000D01*
X115920000Y-83440000D02*
X114248700Y-83440000D01*
X119068000Y-72230000D02*
X119195000Y-72103000D01*
X73729000Y-14572000D02*
X73730030Y-14560605D01*
X115893000Y-83406000D02*
X116274000Y-83025000D01*
X121354000Y-70579000D02*
X121354000Y-65626000D01*
X119195000Y-72103000D02*
X119830000Y-72103000D01*
X73856000Y-14572000D02*
X73060000Y-14500000D01*
X119830000Y-72103000D02*
X121354000Y-70579000D01*
X111829000Y-47338000D02*
X109416000Y-44925000D01*
X116274000Y-83025000D02*
X116655000Y-83025000D01*
X115893000Y-83440000D02*
X115893000Y-83406000D01*
X115512000Y-60292000D02*
X111829000Y-56609000D01*
X72967000Y-14318000D02*
X73094000Y-14445000D01*
X121354000Y-65626000D02*
X116020000Y-60292000D01*
X74618000Y-13683000D02*
X73729000Y-14572000D01*
X99256000Y-20668000D02*
X96589000Y-20668000D01*
X116020000Y-60292000D02*
X115512000Y-60292000D01*
X114248700Y-83440000D02*
X112604800Y-85083900D01*
%TO.N,/Sheet 7/-CFRESET*%
X91382000Y-59784000D02*
X91128000Y-59784000D01*
X93160000Y-94455000D02*
X93160000Y-94582000D01*
X87953000Y-66515000D02*
X90366000Y-68928000D01*
X90493000Y-77437000D02*
X90493000Y-80485000D01*
X92144000Y-51656000D02*
X92144000Y-56863000D01*
X92271000Y-92296000D02*
X93033000Y-93058000D01*
X92144000Y-56863000D02*
X92271000Y-56990000D01*
X91382000Y-81374000D02*
X91382000Y-83787000D01*
X88461000Y-61054000D02*
X87953000Y-61562000D01*
X89858000Y-61054000D02*
X88461000Y-61054000D01*
X101000000Y-14500000D02*
X101795999Y-14699000D01*
X87953000Y-61562000D02*
X87953000Y-66515000D01*
X90366000Y-68928000D02*
X90366000Y-77310000D01*
X91382000Y-83787000D02*
X92271000Y-84676000D01*
X90366000Y-77310000D02*
X90493000Y-77437000D01*
X103574000Y-16477000D02*
X102939000Y-16477000D01*
X92271000Y-84676000D02*
X92271000Y-92296000D01*
X93160000Y-94582000D02*
X94684000Y-96106000D01*
X104336000Y-17239000D02*
X103574000Y-16477000D01*
X105606000Y-42639000D02*
X102176999Y-46068000D01*
X93033000Y-94328000D02*
X93160000Y-94455000D01*
X91128000Y-59784000D02*
X89858000Y-61054000D01*
X103447000Y-14699000D02*
X101795999Y-14699000D01*
X92271000Y-58895000D02*
X91382000Y-59784000D01*
X90493000Y-80485000D02*
X91382000Y-81374000D01*
X93033000Y-93058000D02*
X93033000Y-94328000D01*
X94684000Y-96106000D02*
X94684000Y-104234000D01*
X92271000Y-56990000D02*
X92271000Y-58895000D01*
%TO.N,/Sheet 7/-DMACK*%
X30000100Y-36056900D02*
X38751400Y-44808200D01*
X38751400Y-44808200D02*
X38751400Y-57712900D01*
X30000100Y-34326500D02*
X30000100Y-36056900D01*
%TO.N,Net-(IN0-P)*%
X124417000Y-116375000D02*
X124417000Y-106850000D01*
%TO.N,Net-(IC2-C2+)*%
X92042000Y-62400000D02*
X88867000Y-65575000D01*
%TO.N,Net-(IC2-C2-)*%
X105377000Y-63035000D02*
X105377000Y-64940000D01*
X105377000Y-64940000D02*
X104742000Y-65575000D01*
%TO.N,Net-(OUT0-PadA)*%
X185387000Y-106215000D02*
X181577000Y-106215000D01*
%TO.N,/Sheet 7/-PDIAG*%
X41160000Y-56100000D02*
X42168300Y-55091700D01*
X44844700Y-37465800D02*
X46353400Y-35957100D01*
X42168300Y-55091700D02*
X42168300Y-43594500D01*
X42168300Y-43594500D02*
X42099100Y-43525300D01*
X46353400Y-35957100D02*
X47086800Y-35957100D01*
%TD*%
M02*
