G75*
%MOIN*%
%OFA0B0*%
%FSLAX25Y25*%
%IPPOS*%
%LPD*%
%AMOC8*
5,1,8,0,0,1.08239X$1,22.5*
%
%ADD10C,0.00000*%
D10*
X0031500Y0001000D02*
X0031500Y0449701D01*
X0731421Y0449701D01*
X0731421Y0001000D01*
X0031500Y0001000D01*
X0030500Y0029100D02*
X0030500Y0422900D01*
X0036000Y0401025D02*
X0036002Y0401173D01*
X0036008Y0401321D01*
X0036018Y0401469D01*
X0036032Y0401617D01*
X0036050Y0401764D01*
X0036072Y0401911D01*
X0036098Y0402057D01*
X0036127Y0402202D01*
X0036161Y0402347D01*
X0036199Y0402490D01*
X0036240Y0402633D01*
X0036285Y0402774D01*
X0036335Y0402914D01*
X0036387Y0403052D01*
X0036444Y0403190D01*
X0036504Y0403325D01*
X0036568Y0403459D01*
X0036635Y0403591D01*
X0036706Y0403721D01*
X0036781Y0403850D01*
X0036859Y0403976D01*
X0036940Y0404100D01*
X0037024Y0404222D01*
X0037112Y0404341D01*
X0037203Y0404458D01*
X0037297Y0404573D01*
X0037395Y0404685D01*
X0037495Y0404794D01*
X0037598Y0404901D01*
X0037704Y0405005D01*
X0037812Y0405106D01*
X0037924Y0405204D01*
X0038038Y0405299D01*
X0038154Y0405390D01*
X0038273Y0405479D01*
X0038394Y0405564D01*
X0038518Y0405646D01*
X0038644Y0405725D01*
X0038771Y0405800D01*
X0038901Y0405872D01*
X0039033Y0405941D01*
X0039166Y0406005D01*
X0039301Y0406066D01*
X0039438Y0406124D01*
X0039576Y0406178D01*
X0039716Y0406228D01*
X0039857Y0406274D01*
X0039999Y0406316D01*
X0040142Y0406355D01*
X0040286Y0406389D01*
X0040432Y0406420D01*
X0040577Y0406447D01*
X0040724Y0406470D01*
X0040871Y0406489D01*
X0041019Y0406504D01*
X0041166Y0406515D01*
X0041315Y0406522D01*
X0041463Y0406525D01*
X0041611Y0406524D01*
X0041759Y0406519D01*
X0041907Y0406510D01*
X0042055Y0406497D01*
X0042203Y0406480D01*
X0042349Y0406459D01*
X0042496Y0406434D01*
X0042641Y0406405D01*
X0042786Y0406373D01*
X0042929Y0406336D01*
X0043072Y0406296D01*
X0043214Y0406251D01*
X0043354Y0406203D01*
X0043493Y0406151D01*
X0043630Y0406096D01*
X0043766Y0406036D01*
X0043901Y0405973D01*
X0044033Y0405907D01*
X0044164Y0405837D01*
X0044293Y0405763D01*
X0044419Y0405686D01*
X0044544Y0405606D01*
X0044666Y0405522D01*
X0044787Y0405435D01*
X0044904Y0405345D01*
X0045020Y0405251D01*
X0045132Y0405155D01*
X0045242Y0405056D01*
X0045350Y0404953D01*
X0045454Y0404848D01*
X0045556Y0404740D01*
X0045654Y0404629D01*
X0045750Y0404516D01*
X0045843Y0404400D01*
X0045932Y0404282D01*
X0046018Y0404161D01*
X0046101Y0404038D01*
X0046181Y0403913D01*
X0046257Y0403786D01*
X0046330Y0403656D01*
X0046399Y0403525D01*
X0046464Y0403392D01*
X0046527Y0403258D01*
X0046585Y0403121D01*
X0046640Y0402983D01*
X0046690Y0402844D01*
X0046738Y0402703D01*
X0046781Y0402562D01*
X0046821Y0402419D01*
X0046856Y0402275D01*
X0046888Y0402130D01*
X0046916Y0401984D01*
X0046940Y0401838D01*
X0046960Y0401691D01*
X0046976Y0401543D01*
X0046988Y0401396D01*
X0046996Y0401247D01*
X0047000Y0401099D01*
X0047000Y0400951D01*
X0046996Y0400803D01*
X0046988Y0400654D01*
X0046976Y0400507D01*
X0046960Y0400359D01*
X0046940Y0400212D01*
X0046916Y0400066D01*
X0046888Y0399920D01*
X0046856Y0399775D01*
X0046821Y0399631D01*
X0046781Y0399488D01*
X0046738Y0399347D01*
X0046690Y0399206D01*
X0046640Y0399067D01*
X0046585Y0398929D01*
X0046527Y0398792D01*
X0046464Y0398658D01*
X0046399Y0398525D01*
X0046330Y0398394D01*
X0046257Y0398264D01*
X0046181Y0398137D01*
X0046101Y0398012D01*
X0046018Y0397889D01*
X0045932Y0397768D01*
X0045843Y0397650D01*
X0045750Y0397534D01*
X0045654Y0397421D01*
X0045556Y0397310D01*
X0045454Y0397202D01*
X0045350Y0397097D01*
X0045242Y0396994D01*
X0045132Y0396895D01*
X0045020Y0396799D01*
X0044904Y0396705D01*
X0044787Y0396615D01*
X0044666Y0396528D01*
X0044544Y0396444D01*
X0044419Y0396364D01*
X0044293Y0396287D01*
X0044164Y0396213D01*
X0044033Y0396143D01*
X0043901Y0396077D01*
X0043766Y0396014D01*
X0043630Y0395954D01*
X0043493Y0395899D01*
X0043354Y0395847D01*
X0043214Y0395799D01*
X0043072Y0395754D01*
X0042929Y0395714D01*
X0042786Y0395677D01*
X0042641Y0395645D01*
X0042496Y0395616D01*
X0042349Y0395591D01*
X0042203Y0395570D01*
X0042055Y0395553D01*
X0041907Y0395540D01*
X0041759Y0395531D01*
X0041611Y0395526D01*
X0041463Y0395525D01*
X0041315Y0395528D01*
X0041166Y0395535D01*
X0041019Y0395546D01*
X0040871Y0395561D01*
X0040724Y0395580D01*
X0040577Y0395603D01*
X0040432Y0395630D01*
X0040286Y0395661D01*
X0040142Y0395695D01*
X0039999Y0395734D01*
X0039857Y0395776D01*
X0039716Y0395822D01*
X0039576Y0395872D01*
X0039438Y0395926D01*
X0039301Y0395984D01*
X0039166Y0396045D01*
X0039033Y0396109D01*
X0038901Y0396178D01*
X0038771Y0396250D01*
X0038644Y0396325D01*
X0038518Y0396404D01*
X0038394Y0396486D01*
X0038273Y0396571D01*
X0038154Y0396660D01*
X0038038Y0396751D01*
X0037924Y0396846D01*
X0037812Y0396944D01*
X0037704Y0397045D01*
X0037598Y0397149D01*
X0037495Y0397256D01*
X0037395Y0397365D01*
X0037297Y0397477D01*
X0037203Y0397592D01*
X0037112Y0397709D01*
X0037024Y0397828D01*
X0036940Y0397950D01*
X0036859Y0398074D01*
X0036781Y0398200D01*
X0036706Y0398329D01*
X0036635Y0398459D01*
X0036568Y0398591D01*
X0036504Y0398725D01*
X0036444Y0398860D01*
X0036387Y0398998D01*
X0036335Y0399136D01*
X0036285Y0399276D01*
X0036240Y0399417D01*
X0036199Y0399560D01*
X0036161Y0399703D01*
X0036127Y0399848D01*
X0036098Y0399993D01*
X0036072Y0400139D01*
X0036050Y0400286D01*
X0036032Y0400433D01*
X0036018Y0400581D01*
X0036008Y0400729D01*
X0036002Y0400877D01*
X0036000Y0401025D01*
X0036000Y0050975D02*
X0036002Y0051123D01*
X0036008Y0051271D01*
X0036018Y0051419D01*
X0036032Y0051567D01*
X0036050Y0051714D01*
X0036072Y0051861D01*
X0036098Y0052007D01*
X0036127Y0052152D01*
X0036161Y0052297D01*
X0036199Y0052440D01*
X0036240Y0052583D01*
X0036285Y0052724D01*
X0036335Y0052864D01*
X0036387Y0053002D01*
X0036444Y0053140D01*
X0036504Y0053275D01*
X0036568Y0053409D01*
X0036635Y0053541D01*
X0036706Y0053671D01*
X0036781Y0053800D01*
X0036859Y0053926D01*
X0036940Y0054050D01*
X0037024Y0054172D01*
X0037112Y0054291D01*
X0037203Y0054408D01*
X0037297Y0054523D01*
X0037395Y0054635D01*
X0037495Y0054744D01*
X0037598Y0054851D01*
X0037704Y0054955D01*
X0037812Y0055056D01*
X0037924Y0055154D01*
X0038038Y0055249D01*
X0038154Y0055340D01*
X0038273Y0055429D01*
X0038394Y0055514D01*
X0038518Y0055596D01*
X0038644Y0055675D01*
X0038771Y0055750D01*
X0038901Y0055822D01*
X0039033Y0055891D01*
X0039166Y0055955D01*
X0039301Y0056016D01*
X0039438Y0056074D01*
X0039576Y0056128D01*
X0039716Y0056178D01*
X0039857Y0056224D01*
X0039999Y0056266D01*
X0040142Y0056305D01*
X0040286Y0056339D01*
X0040432Y0056370D01*
X0040577Y0056397D01*
X0040724Y0056420D01*
X0040871Y0056439D01*
X0041019Y0056454D01*
X0041166Y0056465D01*
X0041315Y0056472D01*
X0041463Y0056475D01*
X0041611Y0056474D01*
X0041759Y0056469D01*
X0041907Y0056460D01*
X0042055Y0056447D01*
X0042203Y0056430D01*
X0042349Y0056409D01*
X0042496Y0056384D01*
X0042641Y0056355D01*
X0042786Y0056323D01*
X0042929Y0056286D01*
X0043072Y0056246D01*
X0043214Y0056201D01*
X0043354Y0056153D01*
X0043493Y0056101D01*
X0043630Y0056046D01*
X0043766Y0055986D01*
X0043901Y0055923D01*
X0044033Y0055857D01*
X0044164Y0055787D01*
X0044293Y0055713D01*
X0044419Y0055636D01*
X0044544Y0055556D01*
X0044666Y0055472D01*
X0044787Y0055385D01*
X0044904Y0055295D01*
X0045020Y0055201D01*
X0045132Y0055105D01*
X0045242Y0055006D01*
X0045350Y0054903D01*
X0045454Y0054798D01*
X0045556Y0054690D01*
X0045654Y0054579D01*
X0045750Y0054466D01*
X0045843Y0054350D01*
X0045932Y0054232D01*
X0046018Y0054111D01*
X0046101Y0053988D01*
X0046181Y0053863D01*
X0046257Y0053736D01*
X0046330Y0053606D01*
X0046399Y0053475D01*
X0046464Y0053342D01*
X0046527Y0053208D01*
X0046585Y0053071D01*
X0046640Y0052933D01*
X0046690Y0052794D01*
X0046738Y0052653D01*
X0046781Y0052512D01*
X0046821Y0052369D01*
X0046856Y0052225D01*
X0046888Y0052080D01*
X0046916Y0051934D01*
X0046940Y0051788D01*
X0046960Y0051641D01*
X0046976Y0051493D01*
X0046988Y0051346D01*
X0046996Y0051197D01*
X0047000Y0051049D01*
X0047000Y0050901D01*
X0046996Y0050753D01*
X0046988Y0050604D01*
X0046976Y0050457D01*
X0046960Y0050309D01*
X0046940Y0050162D01*
X0046916Y0050016D01*
X0046888Y0049870D01*
X0046856Y0049725D01*
X0046821Y0049581D01*
X0046781Y0049438D01*
X0046738Y0049297D01*
X0046690Y0049156D01*
X0046640Y0049017D01*
X0046585Y0048879D01*
X0046527Y0048742D01*
X0046464Y0048608D01*
X0046399Y0048475D01*
X0046330Y0048344D01*
X0046257Y0048214D01*
X0046181Y0048087D01*
X0046101Y0047962D01*
X0046018Y0047839D01*
X0045932Y0047718D01*
X0045843Y0047600D01*
X0045750Y0047484D01*
X0045654Y0047371D01*
X0045556Y0047260D01*
X0045454Y0047152D01*
X0045350Y0047047D01*
X0045242Y0046944D01*
X0045132Y0046845D01*
X0045020Y0046749D01*
X0044904Y0046655D01*
X0044787Y0046565D01*
X0044666Y0046478D01*
X0044544Y0046394D01*
X0044419Y0046314D01*
X0044293Y0046237D01*
X0044164Y0046163D01*
X0044033Y0046093D01*
X0043901Y0046027D01*
X0043766Y0045964D01*
X0043630Y0045904D01*
X0043493Y0045849D01*
X0043354Y0045797D01*
X0043214Y0045749D01*
X0043072Y0045704D01*
X0042929Y0045664D01*
X0042786Y0045627D01*
X0042641Y0045595D01*
X0042496Y0045566D01*
X0042349Y0045541D01*
X0042203Y0045520D01*
X0042055Y0045503D01*
X0041907Y0045490D01*
X0041759Y0045481D01*
X0041611Y0045476D01*
X0041463Y0045475D01*
X0041315Y0045478D01*
X0041166Y0045485D01*
X0041019Y0045496D01*
X0040871Y0045511D01*
X0040724Y0045530D01*
X0040577Y0045553D01*
X0040432Y0045580D01*
X0040286Y0045611D01*
X0040142Y0045645D01*
X0039999Y0045684D01*
X0039857Y0045726D01*
X0039716Y0045772D01*
X0039576Y0045822D01*
X0039438Y0045876D01*
X0039301Y0045934D01*
X0039166Y0045995D01*
X0039033Y0046059D01*
X0038901Y0046128D01*
X0038771Y0046200D01*
X0038644Y0046275D01*
X0038518Y0046354D01*
X0038394Y0046436D01*
X0038273Y0046521D01*
X0038154Y0046610D01*
X0038038Y0046701D01*
X0037924Y0046796D01*
X0037812Y0046894D01*
X0037704Y0046995D01*
X0037598Y0047099D01*
X0037495Y0047206D01*
X0037395Y0047315D01*
X0037297Y0047427D01*
X0037203Y0047542D01*
X0037112Y0047659D01*
X0037024Y0047778D01*
X0036940Y0047900D01*
X0036859Y0048024D01*
X0036781Y0048150D01*
X0036706Y0048279D01*
X0036635Y0048409D01*
X0036568Y0048541D01*
X0036504Y0048675D01*
X0036444Y0048810D01*
X0036387Y0048948D01*
X0036335Y0049086D01*
X0036285Y0049226D01*
X0036240Y0049367D01*
X0036199Y0049510D01*
X0036161Y0049653D01*
X0036127Y0049798D01*
X0036098Y0049943D01*
X0036072Y0050089D01*
X0036050Y0050236D01*
X0036032Y0050383D01*
X0036018Y0050531D01*
X0036008Y0050679D01*
X0036002Y0050827D01*
X0036000Y0050975D01*
M02*
