G75*
%MOIN*%
%OFA0B0*%
%FSLAX25Y25*%
%IPPOS*%
%LPD*%
%AMOC8*
5,1,8,0,0,1.08239X$1,22.5*
%
%ADD10C,0.00800*%
%ADD11C,0.00600*%
%ADD12C,0.01000*%
%ADD13C,0.00500*%
%ADD14C,0.00400*%
%ADD15R,0.03400X0.02400*%
%ADD16C,0.00200*%
%ADD17C,0.00300*%
D10*
X0131900Y0007935D02*
X0133435Y0006400D01*
X0136504Y0006400D01*
X0138039Y0007935D01*
X0138039Y0011004D01*
X0136504Y0012539D01*
X0133435Y0012539D01*
X0131900Y0011004D01*
X0131900Y0007935D01*
X0141108Y0006400D02*
X0141108Y0012539D01*
X0145712Y0012539D01*
X0147246Y0011004D01*
X0147246Y0006400D01*
X0150316Y0007935D02*
X0150316Y0011004D01*
X0151850Y0012539D01*
X0154920Y0012539D01*
X0156454Y0011004D01*
X0156454Y0009469D01*
X0150316Y0009469D01*
X0150316Y0007935D02*
X0151850Y0006400D01*
X0154920Y0006400D01*
X0159524Y0006400D02*
X0164128Y0006400D01*
X0165662Y0007935D01*
X0165662Y0011004D01*
X0164128Y0012539D01*
X0159524Y0012539D01*
X0159524Y0003331D01*
X0168731Y0007935D02*
X0170266Y0009469D01*
X0174870Y0009469D01*
X0174870Y0011004D02*
X0174870Y0006400D01*
X0170266Y0006400D01*
X0168731Y0007935D01*
X0170266Y0012539D02*
X0173335Y0012539D01*
X0174870Y0011004D01*
X0177939Y0011004D02*
X0177939Y0007935D01*
X0179474Y0006400D01*
X0184078Y0006400D01*
X0184078Y0004865D02*
X0184078Y0012539D01*
X0179474Y0012539D01*
X0177939Y0011004D01*
X0184078Y0004865D02*
X0182543Y0003331D01*
X0181009Y0003331D01*
X0187147Y0007935D02*
X0187147Y0011004D01*
X0188682Y0012539D01*
X0191751Y0012539D01*
X0193286Y0011004D01*
X0193286Y0009469D01*
X0187147Y0009469D01*
X0187147Y0007935D02*
X0188682Y0006400D01*
X0191751Y0006400D01*
X0196355Y0007935D02*
X0196355Y0011004D01*
X0197890Y0012539D01*
X0202494Y0012539D01*
X0205563Y0011004D02*
X0205563Y0007935D01*
X0207098Y0006400D01*
X0210167Y0006400D01*
X0211701Y0007935D01*
X0211701Y0011004D01*
X0210167Y0012539D01*
X0207098Y0012539D01*
X0205563Y0011004D01*
X0202494Y0006400D02*
X0197890Y0006400D01*
X0196355Y0007935D01*
X0214771Y0006400D02*
X0214771Y0012539D01*
X0216305Y0012539D01*
X0217840Y0011004D01*
X0219375Y0012539D01*
X0220909Y0011004D01*
X0220909Y0006400D01*
X0217840Y0006400D02*
X0217840Y0011004D01*
X0223979Y0012539D02*
X0228583Y0012539D01*
X0230117Y0011004D01*
X0230117Y0007935D01*
X0228583Y0006400D01*
X0223979Y0006400D01*
X0223979Y0003331D02*
X0223979Y0012539D01*
X0233186Y0012539D02*
X0233186Y0007935D01*
X0234721Y0006400D01*
X0239325Y0006400D01*
X0239325Y0012539D01*
X0242394Y0012539D02*
X0245464Y0012539D01*
X0243929Y0014073D02*
X0243929Y0007935D01*
X0245464Y0006400D01*
X0248533Y0007935D02*
X0248533Y0011004D01*
X0250068Y0012539D01*
X0253137Y0012539D01*
X0254671Y0011004D01*
X0254671Y0009469D01*
X0248533Y0009469D01*
X0248533Y0007935D02*
X0250068Y0006400D01*
X0253137Y0006400D01*
X0257741Y0006400D02*
X0257741Y0012539D01*
X0260810Y0012539D02*
X0257741Y0009469D01*
X0260810Y0012539D02*
X0262345Y0012539D01*
X0265414Y0007935D02*
X0266949Y0007935D01*
X0266949Y0006400D01*
X0265414Y0006400D01*
X0265414Y0007935D01*
X0270018Y0007935D02*
X0270018Y0011004D01*
X0271553Y0012539D01*
X0276156Y0012539D01*
X0279226Y0011004D02*
X0279226Y0007935D01*
X0280760Y0006400D01*
X0283830Y0006400D01*
X0285364Y0007935D01*
X0285364Y0011004D01*
X0283830Y0012539D01*
X0280760Y0012539D01*
X0279226Y0011004D01*
X0276156Y0006400D02*
X0271553Y0006400D01*
X0270018Y0007935D01*
X0288434Y0006400D02*
X0288434Y0012539D01*
X0289968Y0012539D01*
X0291503Y0011004D01*
X0293038Y0012539D01*
X0294572Y0011004D01*
X0294572Y0006400D01*
X0291503Y0006400D02*
X0291503Y0011004D01*
X0706500Y0008500D02*
X0706500Y0023500D01*
X0704000Y0431000D02*
X0701500Y0433500D01*
X0699000Y0431000D01*
X0694000Y0431000D01*
X0691500Y0433500D01*
X0691500Y0438500D01*
X0694000Y0441000D01*
X0699000Y0441000D01*
X0701500Y0438500D01*
X0704000Y0441000D01*
X0709000Y0441000D01*
X0711500Y0438500D01*
X0711500Y0433500D01*
X0709000Y0431000D01*
X0704000Y0431000D01*
X0360562Y0437935D02*
X0359027Y0436400D01*
X0355958Y0436400D01*
X0354423Y0437935D01*
X0360562Y0444073D01*
X0360562Y0437935D01*
X0360562Y0444073D02*
X0359027Y0445608D01*
X0355958Y0445608D01*
X0354423Y0444073D01*
X0354423Y0437935D01*
X0351354Y0437935D02*
X0351354Y0436400D01*
X0349819Y0436400D01*
X0349819Y0437935D01*
X0351354Y0437935D01*
X0346750Y0437935D02*
X0345215Y0436400D01*
X0342146Y0436400D01*
X0340612Y0437935D01*
X0343681Y0441004D02*
X0345215Y0441004D01*
X0346750Y0439469D01*
X0346750Y0437935D01*
X0345215Y0441004D02*
X0346750Y0442539D01*
X0346750Y0444073D01*
X0345215Y0445608D01*
X0342146Y0445608D01*
X0340612Y0444073D01*
X0328334Y0441004D02*
X0322196Y0441004D01*
X0326800Y0445608D01*
X0326800Y0436400D01*
X0319127Y0441004D02*
X0312988Y0441004D01*
X0309919Y0437935D02*
X0309919Y0444073D01*
X0308384Y0445608D01*
X0303780Y0445608D01*
X0303780Y0436400D01*
X0308384Y0436400D01*
X0309919Y0437935D01*
X0300711Y0436400D02*
X0297641Y0439469D01*
X0299176Y0439469D02*
X0294572Y0439469D01*
X0294572Y0436400D02*
X0294572Y0445608D01*
X0299176Y0445608D01*
X0300711Y0444073D01*
X0300711Y0441004D01*
X0299176Y0439469D01*
X0291503Y0441004D02*
X0285364Y0441004D01*
X0285364Y0442539D02*
X0285364Y0436400D01*
X0282295Y0437935D02*
X0280760Y0436400D01*
X0277691Y0436400D01*
X0276156Y0437935D01*
X0276156Y0444073D01*
X0277691Y0445608D01*
X0280760Y0445608D01*
X0282295Y0444073D01*
X0282295Y0437935D01*
X0285364Y0442539D02*
X0288434Y0445608D01*
X0291503Y0442539D01*
X0291503Y0436400D01*
X0273087Y0437935D02*
X0271553Y0436400D01*
X0266949Y0436400D01*
X0266949Y0445608D01*
X0271553Y0445608D01*
X0273087Y0444073D01*
X0273087Y0442539D01*
X0271553Y0441004D01*
X0266949Y0441004D01*
X0271553Y0441004D02*
X0273087Y0439469D01*
X0273087Y0437935D01*
X0254671Y0436400D02*
X0251602Y0439469D01*
X0253137Y0439469D02*
X0248533Y0439469D01*
X0248533Y0436400D02*
X0248533Y0445608D01*
X0253137Y0445608D01*
X0254671Y0444073D01*
X0254671Y0441004D01*
X0253137Y0439469D01*
X0245464Y0436400D02*
X0239325Y0436400D01*
X0239325Y0445608D01*
X0245464Y0445608D01*
X0242394Y0441004D02*
X0239325Y0441004D01*
X0236256Y0445608D02*
X0230117Y0445608D01*
X0233186Y0445608D02*
X0233186Y0436400D01*
X0227048Y0437935D02*
X0225513Y0436400D01*
X0222444Y0436400D01*
X0220909Y0437935D01*
X0222444Y0441004D02*
X0220909Y0442539D01*
X0220909Y0444073D01*
X0222444Y0445608D01*
X0225513Y0445608D01*
X0227048Y0444073D01*
X0225513Y0441004D02*
X0227048Y0439469D01*
X0227048Y0437935D01*
X0225513Y0441004D02*
X0222444Y0441004D01*
X0217840Y0445608D02*
X0214771Y0445608D01*
X0216305Y0445608D02*
X0216305Y0436400D01*
X0214771Y0436400D02*
X0217840Y0436400D01*
X0211701Y0437935D02*
X0211701Y0441004D01*
X0208632Y0441004D01*
X0205563Y0444073D02*
X0205563Y0437935D01*
X0207098Y0436400D01*
X0210167Y0436400D01*
X0211701Y0437935D01*
X0211701Y0444073D02*
X0210167Y0445608D01*
X0207098Y0445608D01*
X0205563Y0444073D01*
X0202494Y0445608D02*
X0196355Y0445608D01*
X0196355Y0436400D01*
X0202494Y0436400D01*
X0199424Y0441004D02*
X0196355Y0441004D01*
X0193286Y0441004D02*
X0191751Y0439469D01*
X0187147Y0439469D01*
X0187147Y0436400D02*
X0187147Y0445608D01*
X0191751Y0445608D01*
X0193286Y0444073D01*
X0193286Y0441004D01*
X0190216Y0439469D02*
X0193286Y0436400D01*
X0174870Y0436400D02*
X0168731Y0436400D01*
X0171801Y0436400D02*
X0171801Y0445608D01*
X0168731Y0442539D01*
X0165662Y0444073D02*
X0164128Y0445608D01*
X0161058Y0445608D01*
X0159524Y0444073D01*
X0159524Y0437935D01*
X0161058Y0436400D01*
X0164128Y0436400D01*
X0165662Y0437935D01*
X0156454Y0437935D02*
X0154920Y0436400D01*
X0151850Y0436400D01*
X0150316Y0437935D01*
X0150316Y0444073D01*
X0151850Y0445608D01*
X0154920Y0445608D01*
X0156454Y0444073D01*
X0147246Y0442539D02*
X0147246Y0436400D01*
X0147246Y0441004D02*
X0141108Y0441004D01*
X0141108Y0442539D02*
X0141108Y0436400D01*
X0134969Y0436400D02*
X0134969Y0441004D01*
X0138039Y0444073D01*
X0138039Y0445608D01*
X0141108Y0442539D02*
X0144177Y0445608D01*
X0147246Y0442539D01*
X0134969Y0441004D02*
X0131900Y0444073D01*
X0131900Y0445608D01*
D11*
X0036500Y0023500D02*
X0036500Y0008500D01*
X0039000Y0006000D01*
X0044000Y0006000D01*
X0046500Y0008500D01*
X0049000Y0006000D01*
X0054000Y0006000D01*
X0056500Y0008500D01*
X0059000Y0006000D01*
X0064000Y0006000D01*
X0066500Y0008500D01*
X0069000Y0006000D01*
X0074000Y0006000D01*
X0076500Y0008500D01*
X0076500Y0023500D01*
X0074000Y0026000D01*
X0069000Y0026000D01*
X0066500Y0023500D01*
X0064000Y0026000D01*
X0059000Y0026000D01*
X0056500Y0023500D01*
X0054000Y0026000D01*
X0049000Y0026000D01*
X0046500Y0023500D01*
X0044000Y0026000D01*
X0039000Y0026000D01*
X0036500Y0023500D01*
X0037868Y0031300D02*
X0036800Y0032368D01*
X0041070Y0036638D01*
X0041070Y0032368D01*
X0040003Y0031300D01*
X0037868Y0031300D01*
X0036800Y0032368D02*
X0036800Y0036638D01*
X0037868Y0037705D01*
X0040003Y0037705D01*
X0041070Y0036638D01*
X0051800Y0037705D02*
X0051800Y0031300D01*
X0056070Y0031300D01*
X0058245Y0031300D02*
X0061448Y0031300D01*
X0062516Y0032368D01*
X0062516Y0036638D01*
X0061448Y0037705D01*
X0058245Y0037705D01*
X0058245Y0031300D01*
X0071800Y0032368D02*
X0072868Y0031300D01*
X0075003Y0031300D01*
X0076070Y0032368D01*
X0076070Y0033435D01*
X0075003Y0034503D01*
X0073935Y0034503D01*
X0075003Y0034503D02*
X0076070Y0035570D01*
X0076070Y0036638D01*
X0075003Y0037705D01*
X0072868Y0037705D01*
X0071800Y0036638D01*
X0094000Y0042500D02*
X0094000Y0059500D01*
X0094002Y0059560D01*
X0094007Y0059621D01*
X0094016Y0059680D01*
X0094029Y0059739D01*
X0094045Y0059798D01*
X0094065Y0059855D01*
X0094088Y0059910D01*
X0094115Y0059965D01*
X0094144Y0060017D01*
X0094177Y0060068D01*
X0094213Y0060117D01*
X0094251Y0060163D01*
X0094293Y0060207D01*
X0094337Y0060249D01*
X0094383Y0060287D01*
X0094432Y0060323D01*
X0094483Y0060356D01*
X0094535Y0060385D01*
X0094590Y0060412D01*
X0094645Y0060435D01*
X0094702Y0060455D01*
X0094761Y0060471D01*
X0094820Y0060484D01*
X0094879Y0060493D01*
X0094940Y0060498D01*
X0095000Y0060500D01*
X0108000Y0060500D01*
X0108060Y0060498D01*
X0108121Y0060493D01*
X0108180Y0060484D01*
X0108239Y0060471D01*
X0108298Y0060455D01*
X0108355Y0060435D01*
X0108410Y0060412D01*
X0108465Y0060385D01*
X0108517Y0060356D01*
X0108568Y0060323D01*
X0108617Y0060287D01*
X0108663Y0060249D01*
X0108707Y0060207D01*
X0108749Y0060163D01*
X0108787Y0060117D01*
X0108823Y0060068D01*
X0108856Y0060017D01*
X0108885Y0059965D01*
X0108912Y0059910D01*
X0108935Y0059855D01*
X0108955Y0059798D01*
X0108971Y0059739D01*
X0108984Y0059680D01*
X0108993Y0059621D01*
X0108998Y0059560D01*
X0109000Y0059500D01*
X0109000Y0042500D01*
X0108998Y0042440D01*
X0108993Y0042379D01*
X0108984Y0042320D01*
X0108971Y0042261D01*
X0108955Y0042202D01*
X0108935Y0042145D01*
X0108912Y0042090D01*
X0108885Y0042035D01*
X0108856Y0041983D01*
X0108823Y0041932D01*
X0108787Y0041883D01*
X0108749Y0041837D01*
X0108707Y0041793D01*
X0108663Y0041751D01*
X0108617Y0041713D01*
X0108568Y0041677D01*
X0108517Y0041644D01*
X0108465Y0041615D01*
X0108410Y0041588D01*
X0108355Y0041565D01*
X0108298Y0041545D01*
X0108239Y0041529D01*
X0108180Y0041516D01*
X0108121Y0041507D01*
X0108060Y0041502D01*
X0108000Y0041500D01*
X0095000Y0041500D01*
X0094940Y0041502D01*
X0094879Y0041507D01*
X0094820Y0041516D01*
X0094761Y0041529D01*
X0094702Y0041545D01*
X0094645Y0041565D01*
X0094590Y0041588D01*
X0094535Y0041615D01*
X0094483Y0041644D01*
X0094432Y0041677D01*
X0094383Y0041713D01*
X0094337Y0041751D01*
X0094293Y0041793D01*
X0094251Y0041837D01*
X0094213Y0041883D01*
X0094177Y0041932D01*
X0094144Y0041983D01*
X0094115Y0042035D01*
X0094088Y0042090D01*
X0094065Y0042145D01*
X0094045Y0042202D01*
X0094029Y0042261D01*
X0094016Y0042320D01*
X0094007Y0042379D01*
X0094002Y0042440D01*
X0094000Y0042500D01*
X0101500Y0049500D02*
X0101500Y0050000D01*
X0101500Y0052000D02*
X0101500Y0052500D01*
X0111500Y0055000D02*
X0111626Y0054998D01*
X0111751Y0054992D01*
X0111876Y0054982D01*
X0112001Y0054968D01*
X0112126Y0054951D01*
X0112250Y0054929D01*
X0112373Y0054904D01*
X0112495Y0054874D01*
X0112616Y0054841D01*
X0112736Y0054804D01*
X0112855Y0054764D01*
X0112972Y0054719D01*
X0113089Y0054671D01*
X0113203Y0054619D01*
X0113316Y0054564D01*
X0113427Y0054505D01*
X0113536Y0054443D01*
X0113643Y0054377D01*
X0113748Y0054308D01*
X0113851Y0054236D01*
X0113952Y0054161D01*
X0114050Y0054082D01*
X0114145Y0054000D01*
X0114238Y0053916D01*
X0114328Y0053828D01*
X0114416Y0053738D01*
X0114500Y0053645D01*
X0114582Y0053550D01*
X0114661Y0053452D01*
X0114736Y0053351D01*
X0114808Y0053248D01*
X0114877Y0053143D01*
X0114943Y0053036D01*
X0115005Y0052927D01*
X0115064Y0052816D01*
X0115119Y0052703D01*
X0115171Y0052589D01*
X0115219Y0052472D01*
X0115264Y0052355D01*
X0115304Y0052236D01*
X0115341Y0052116D01*
X0115374Y0051995D01*
X0115404Y0051873D01*
X0115429Y0051750D01*
X0115451Y0051626D01*
X0115468Y0051501D01*
X0115482Y0051376D01*
X0115492Y0051251D01*
X0115498Y0051126D01*
X0115500Y0051000D01*
X0115498Y0050874D01*
X0115492Y0050749D01*
X0115482Y0050624D01*
X0115468Y0050499D01*
X0115451Y0050374D01*
X0115429Y0050250D01*
X0115404Y0050127D01*
X0115374Y0050005D01*
X0115341Y0049884D01*
X0115304Y0049764D01*
X0115264Y0049645D01*
X0115219Y0049528D01*
X0115171Y0049411D01*
X0115119Y0049297D01*
X0115064Y0049184D01*
X0115005Y0049073D01*
X0114943Y0048964D01*
X0114877Y0048857D01*
X0114808Y0048752D01*
X0114736Y0048649D01*
X0114661Y0048548D01*
X0114582Y0048450D01*
X0114500Y0048355D01*
X0114416Y0048262D01*
X0114328Y0048172D01*
X0114238Y0048084D01*
X0114145Y0048000D01*
X0114050Y0047918D01*
X0113952Y0047839D01*
X0113851Y0047764D01*
X0113748Y0047692D01*
X0113643Y0047623D01*
X0113536Y0047557D01*
X0113427Y0047495D01*
X0113316Y0047436D01*
X0113203Y0047381D01*
X0113089Y0047329D01*
X0112972Y0047281D01*
X0112855Y0047236D01*
X0112736Y0047196D01*
X0112616Y0047159D01*
X0112495Y0047126D01*
X0112373Y0047096D01*
X0112250Y0047071D01*
X0112126Y0047049D01*
X0112001Y0047032D01*
X0111876Y0047018D01*
X0111751Y0047008D01*
X0111626Y0047002D01*
X0111500Y0047000D01*
X0111500Y0039500D01*
X0191500Y0039500D01*
X0191500Y0062500D01*
X0111500Y0062500D01*
X0111500Y0055000D01*
X0111500Y0089500D02*
X0111500Y0097000D01*
X0111626Y0097002D01*
X0111751Y0097008D01*
X0111876Y0097018D01*
X0112001Y0097032D01*
X0112126Y0097049D01*
X0112250Y0097071D01*
X0112373Y0097096D01*
X0112495Y0097126D01*
X0112616Y0097159D01*
X0112736Y0097196D01*
X0112855Y0097236D01*
X0112972Y0097281D01*
X0113089Y0097329D01*
X0113203Y0097381D01*
X0113316Y0097436D01*
X0113427Y0097495D01*
X0113536Y0097557D01*
X0113643Y0097623D01*
X0113748Y0097692D01*
X0113851Y0097764D01*
X0113952Y0097839D01*
X0114050Y0097918D01*
X0114145Y0098000D01*
X0114238Y0098084D01*
X0114328Y0098172D01*
X0114416Y0098262D01*
X0114500Y0098355D01*
X0114582Y0098450D01*
X0114661Y0098548D01*
X0114736Y0098649D01*
X0114808Y0098752D01*
X0114877Y0098857D01*
X0114943Y0098964D01*
X0115005Y0099073D01*
X0115064Y0099184D01*
X0115119Y0099297D01*
X0115171Y0099411D01*
X0115219Y0099528D01*
X0115264Y0099645D01*
X0115304Y0099764D01*
X0115341Y0099884D01*
X0115374Y0100005D01*
X0115404Y0100127D01*
X0115429Y0100250D01*
X0115451Y0100374D01*
X0115468Y0100499D01*
X0115482Y0100624D01*
X0115492Y0100749D01*
X0115498Y0100874D01*
X0115500Y0101000D01*
X0115498Y0101126D01*
X0115492Y0101251D01*
X0115482Y0101376D01*
X0115468Y0101501D01*
X0115451Y0101626D01*
X0115429Y0101750D01*
X0115404Y0101873D01*
X0115374Y0101995D01*
X0115341Y0102116D01*
X0115304Y0102236D01*
X0115264Y0102355D01*
X0115219Y0102472D01*
X0115171Y0102589D01*
X0115119Y0102703D01*
X0115064Y0102816D01*
X0115005Y0102927D01*
X0114943Y0103036D01*
X0114877Y0103143D01*
X0114808Y0103248D01*
X0114736Y0103351D01*
X0114661Y0103452D01*
X0114582Y0103550D01*
X0114500Y0103645D01*
X0114416Y0103738D01*
X0114328Y0103828D01*
X0114238Y0103916D01*
X0114145Y0104000D01*
X0114050Y0104082D01*
X0113952Y0104161D01*
X0113851Y0104236D01*
X0113748Y0104308D01*
X0113643Y0104377D01*
X0113536Y0104443D01*
X0113427Y0104505D01*
X0113316Y0104564D01*
X0113203Y0104619D01*
X0113089Y0104671D01*
X0112972Y0104719D01*
X0112855Y0104764D01*
X0112736Y0104804D01*
X0112616Y0104841D01*
X0112495Y0104874D01*
X0112373Y0104904D01*
X0112250Y0104929D01*
X0112126Y0104951D01*
X0112001Y0104968D01*
X0111876Y0104982D01*
X0111751Y0104992D01*
X0111626Y0104998D01*
X0111500Y0105000D01*
X0111500Y0112500D01*
X0181500Y0112500D01*
X0181500Y0089500D01*
X0111500Y0089500D01*
X0109000Y0092500D02*
X0109000Y0109500D01*
X0108998Y0109560D01*
X0108993Y0109621D01*
X0108984Y0109680D01*
X0108971Y0109739D01*
X0108955Y0109798D01*
X0108935Y0109855D01*
X0108912Y0109910D01*
X0108885Y0109965D01*
X0108856Y0110017D01*
X0108823Y0110068D01*
X0108787Y0110117D01*
X0108749Y0110163D01*
X0108707Y0110207D01*
X0108663Y0110249D01*
X0108617Y0110287D01*
X0108568Y0110323D01*
X0108517Y0110356D01*
X0108465Y0110385D01*
X0108410Y0110412D01*
X0108355Y0110435D01*
X0108298Y0110455D01*
X0108239Y0110471D01*
X0108180Y0110484D01*
X0108121Y0110493D01*
X0108060Y0110498D01*
X0108000Y0110500D01*
X0095000Y0110500D01*
X0094940Y0110498D01*
X0094879Y0110493D01*
X0094820Y0110484D01*
X0094761Y0110471D01*
X0094702Y0110455D01*
X0094645Y0110435D01*
X0094590Y0110412D01*
X0094535Y0110385D01*
X0094483Y0110356D01*
X0094432Y0110323D01*
X0094383Y0110287D01*
X0094337Y0110249D01*
X0094293Y0110207D01*
X0094251Y0110163D01*
X0094213Y0110117D01*
X0094177Y0110068D01*
X0094144Y0110017D01*
X0094115Y0109965D01*
X0094088Y0109910D01*
X0094065Y0109855D01*
X0094045Y0109798D01*
X0094029Y0109739D01*
X0094016Y0109680D01*
X0094007Y0109621D01*
X0094002Y0109560D01*
X0094000Y0109500D01*
X0094000Y0092500D01*
X0094002Y0092440D01*
X0094007Y0092379D01*
X0094016Y0092320D01*
X0094029Y0092261D01*
X0094045Y0092202D01*
X0094065Y0092145D01*
X0094088Y0092090D01*
X0094115Y0092035D01*
X0094144Y0091983D01*
X0094177Y0091932D01*
X0094213Y0091883D01*
X0094251Y0091837D01*
X0094293Y0091793D01*
X0094337Y0091751D01*
X0094383Y0091713D01*
X0094432Y0091677D01*
X0094483Y0091644D01*
X0094535Y0091615D01*
X0094590Y0091588D01*
X0094645Y0091565D01*
X0094702Y0091545D01*
X0094761Y0091529D01*
X0094820Y0091516D01*
X0094879Y0091507D01*
X0094940Y0091502D01*
X0095000Y0091500D01*
X0108000Y0091500D01*
X0108060Y0091502D01*
X0108121Y0091507D01*
X0108180Y0091516D01*
X0108239Y0091529D01*
X0108298Y0091545D01*
X0108355Y0091565D01*
X0108410Y0091588D01*
X0108465Y0091615D01*
X0108517Y0091644D01*
X0108568Y0091677D01*
X0108617Y0091713D01*
X0108663Y0091751D01*
X0108707Y0091793D01*
X0108749Y0091837D01*
X0108787Y0091883D01*
X0108823Y0091932D01*
X0108856Y0091983D01*
X0108885Y0092035D01*
X0108912Y0092090D01*
X0108935Y0092145D01*
X0108955Y0092202D01*
X0108971Y0092261D01*
X0108984Y0092320D01*
X0108993Y0092379D01*
X0108998Y0092440D01*
X0109000Y0092500D01*
X0101500Y0099500D02*
X0101500Y0100000D01*
X0101500Y0102000D02*
X0101500Y0102500D01*
X0111500Y0139500D02*
X0111500Y0147000D01*
X0111626Y0147002D01*
X0111751Y0147008D01*
X0111876Y0147018D01*
X0112001Y0147032D01*
X0112126Y0147049D01*
X0112250Y0147071D01*
X0112373Y0147096D01*
X0112495Y0147126D01*
X0112616Y0147159D01*
X0112736Y0147196D01*
X0112855Y0147236D01*
X0112972Y0147281D01*
X0113089Y0147329D01*
X0113203Y0147381D01*
X0113316Y0147436D01*
X0113427Y0147495D01*
X0113536Y0147557D01*
X0113643Y0147623D01*
X0113748Y0147692D01*
X0113851Y0147764D01*
X0113952Y0147839D01*
X0114050Y0147918D01*
X0114145Y0148000D01*
X0114238Y0148084D01*
X0114328Y0148172D01*
X0114416Y0148262D01*
X0114500Y0148355D01*
X0114582Y0148450D01*
X0114661Y0148548D01*
X0114736Y0148649D01*
X0114808Y0148752D01*
X0114877Y0148857D01*
X0114943Y0148964D01*
X0115005Y0149073D01*
X0115064Y0149184D01*
X0115119Y0149297D01*
X0115171Y0149411D01*
X0115219Y0149528D01*
X0115264Y0149645D01*
X0115304Y0149764D01*
X0115341Y0149884D01*
X0115374Y0150005D01*
X0115404Y0150127D01*
X0115429Y0150250D01*
X0115451Y0150374D01*
X0115468Y0150499D01*
X0115482Y0150624D01*
X0115492Y0150749D01*
X0115498Y0150874D01*
X0115500Y0151000D01*
X0115498Y0151126D01*
X0115492Y0151251D01*
X0115482Y0151376D01*
X0115468Y0151501D01*
X0115451Y0151626D01*
X0115429Y0151750D01*
X0115404Y0151873D01*
X0115374Y0151995D01*
X0115341Y0152116D01*
X0115304Y0152236D01*
X0115264Y0152355D01*
X0115219Y0152472D01*
X0115171Y0152589D01*
X0115119Y0152703D01*
X0115064Y0152816D01*
X0115005Y0152927D01*
X0114943Y0153036D01*
X0114877Y0153143D01*
X0114808Y0153248D01*
X0114736Y0153351D01*
X0114661Y0153452D01*
X0114582Y0153550D01*
X0114500Y0153645D01*
X0114416Y0153738D01*
X0114328Y0153828D01*
X0114238Y0153916D01*
X0114145Y0154000D01*
X0114050Y0154082D01*
X0113952Y0154161D01*
X0113851Y0154236D01*
X0113748Y0154308D01*
X0113643Y0154377D01*
X0113536Y0154443D01*
X0113427Y0154505D01*
X0113316Y0154564D01*
X0113203Y0154619D01*
X0113089Y0154671D01*
X0112972Y0154719D01*
X0112855Y0154764D01*
X0112736Y0154804D01*
X0112616Y0154841D01*
X0112495Y0154874D01*
X0112373Y0154904D01*
X0112250Y0154929D01*
X0112126Y0154951D01*
X0112001Y0154968D01*
X0111876Y0154982D01*
X0111751Y0154992D01*
X0111626Y0154998D01*
X0111500Y0155000D01*
X0111500Y0162500D01*
X0191500Y0162500D01*
X0191500Y0139500D01*
X0111500Y0139500D01*
X0109000Y0142500D02*
X0109000Y0159500D01*
X0108998Y0159560D01*
X0108993Y0159621D01*
X0108984Y0159680D01*
X0108971Y0159739D01*
X0108955Y0159798D01*
X0108935Y0159855D01*
X0108912Y0159910D01*
X0108885Y0159965D01*
X0108856Y0160017D01*
X0108823Y0160068D01*
X0108787Y0160117D01*
X0108749Y0160163D01*
X0108707Y0160207D01*
X0108663Y0160249D01*
X0108617Y0160287D01*
X0108568Y0160323D01*
X0108517Y0160356D01*
X0108465Y0160385D01*
X0108410Y0160412D01*
X0108355Y0160435D01*
X0108298Y0160455D01*
X0108239Y0160471D01*
X0108180Y0160484D01*
X0108121Y0160493D01*
X0108060Y0160498D01*
X0108000Y0160500D01*
X0095000Y0160500D01*
X0094940Y0160498D01*
X0094879Y0160493D01*
X0094820Y0160484D01*
X0094761Y0160471D01*
X0094702Y0160455D01*
X0094645Y0160435D01*
X0094590Y0160412D01*
X0094535Y0160385D01*
X0094483Y0160356D01*
X0094432Y0160323D01*
X0094383Y0160287D01*
X0094337Y0160249D01*
X0094293Y0160207D01*
X0094251Y0160163D01*
X0094213Y0160117D01*
X0094177Y0160068D01*
X0094144Y0160017D01*
X0094115Y0159965D01*
X0094088Y0159910D01*
X0094065Y0159855D01*
X0094045Y0159798D01*
X0094029Y0159739D01*
X0094016Y0159680D01*
X0094007Y0159621D01*
X0094002Y0159560D01*
X0094000Y0159500D01*
X0094000Y0142500D01*
X0094002Y0142440D01*
X0094007Y0142379D01*
X0094016Y0142320D01*
X0094029Y0142261D01*
X0094045Y0142202D01*
X0094065Y0142145D01*
X0094088Y0142090D01*
X0094115Y0142035D01*
X0094144Y0141983D01*
X0094177Y0141932D01*
X0094213Y0141883D01*
X0094251Y0141837D01*
X0094293Y0141793D01*
X0094337Y0141751D01*
X0094383Y0141713D01*
X0094432Y0141677D01*
X0094483Y0141644D01*
X0094535Y0141615D01*
X0094590Y0141588D01*
X0094645Y0141565D01*
X0094702Y0141545D01*
X0094761Y0141529D01*
X0094820Y0141516D01*
X0094879Y0141507D01*
X0094940Y0141502D01*
X0095000Y0141500D01*
X0108000Y0141500D01*
X0108060Y0141502D01*
X0108121Y0141507D01*
X0108180Y0141516D01*
X0108239Y0141529D01*
X0108298Y0141545D01*
X0108355Y0141565D01*
X0108410Y0141588D01*
X0108465Y0141615D01*
X0108517Y0141644D01*
X0108568Y0141677D01*
X0108617Y0141713D01*
X0108663Y0141751D01*
X0108707Y0141793D01*
X0108749Y0141837D01*
X0108787Y0141883D01*
X0108823Y0141932D01*
X0108856Y0141983D01*
X0108885Y0142035D01*
X0108912Y0142090D01*
X0108935Y0142145D01*
X0108955Y0142202D01*
X0108971Y0142261D01*
X0108984Y0142320D01*
X0108993Y0142379D01*
X0108998Y0142440D01*
X0109000Y0142500D01*
X0101500Y0149500D02*
X0101500Y0150000D01*
X0101500Y0152000D02*
X0101500Y0152500D01*
X0111500Y0189500D02*
X0111500Y0197000D01*
X0111626Y0197002D01*
X0111751Y0197008D01*
X0111876Y0197018D01*
X0112001Y0197032D01*
X0112126Y0197049D01*
X0112250Y0197071D01*
X0112373Y0197096D01*
X0112495Y0197126D01*
X0112616Y0197159D01*
X0112736Y0197196D01*
X0112855Y0197236D01*
X0112972Y0197281D01*
X0113089Y0197329D01*
X0113203Y0197381D01*
X0113316Y0197436D01*
X0113427Y0197495D01*
X0113536Y0197557D01*
X0113643Y0197623D01*
X0113748Y0197692D01*
X0113851Y0197764D01*
X0113952Y0197839D01*
X0114050Y0197918D01*
X0114145Y0198000D01*
X0114238Y0198084D01*
X0114328Y0198172D01*
X0114416Y0198262D01*
X0114500Y0198355D01*
X0114582Y0198450D01*
X0114661Y0198548D01*
X0114736Y0198649D01*
X0114808Y0198752D01*
X0114877Y0198857D01*
X0114943Y0198964D01*
X0115005Y0199073D01*
X0115064Y0199184D01*
X0115119Y0199297D01*
X0115171Y0199411D01*
X0115219Y0199528D01*
X0115264Y0199645D01*
X0115304Y0199764D01*
X0115341Y0199884D01*
X0115374Y0200005D01*
X0115404Y0200127D01*
X0115429Y0200250D01*
X0115451Y0200374D01*
X0115468Y0200499D01*
X0115482Y0200624D01*
X0115492Y0200749D01*
X0115498Y0200874D01*
X0115500Y0201000D01*
X0115498Y0201126D01*
X0115492Y0201251D01*
X0115482Y0201376D01*
X0115468Y0201501D01*
X0115451Y0201626D01*
X0115429Y0201750D01*
X0115404Y0201873D01*
X0115374Y0201995D01*
X0115341Y0202116D01*
X0115304Y0202236D01*
X0115264Y0202355D01*
X0115219Y0202472D01*
X0115171Y0202589D01*
X0115119Y0202703D01*
X0115064Y0202816D01*
X0115005Y0202927D01*
X0114943Y0203036D01*
X0114877Y0203143D01*
X0114808Y0203248D01*
X0114736Y0203351D01*
X0114661Y0203452D01*
X0114582Y0203550D01*
X0114500Y0203645D01*
X0114416Y0203738D01*
X0114328Y0203828D01*
X0114238Y0203916D01*
X0114145Y0204000D01*
X0114050Y0204082D01*
X0113952Y0204161D01*
X0113851Y0204236D01*
X0113748Y0204308D01*
X0113643Y0204377D01*
X0113536Y0204443D01*
X0113427Y0204505D01*
X0113316Y0204564D01*
X0113203Y0204619D01*
X0113089Y0204671D01*
X0112972Y0204719D01*
X0112855Y0204764D01*
X0112736Y0204804D01*
X0112616Y0204841D01*
X0112495Y0204874D01*
X0112373Y0204904D01*
X0112250Y0204929D01*
X0112126Y0204951D01*
X0112001Y0204968D01*
X0111876Y0204982D01*
X0111751Y0204992D01*
X0111626Y0204998D01*
X0111500Y0205000D01*
X0111500Y0212500D01*
X0211500Y0212500D01*
X0211500Y0189500D01*
X0111500Y0189500D01*
X0109000Y0192500D02*
X0109000Y0209500D01*
X0108998Y0209560D01*
X0108993Y0209621D01*
X0108984Y0209680D01*
X0108971Y0209739D01*
X0108955Y0209798D01*
X0108935Y0209855D01*
X0108912Y0209910D01*
X0108885Y0209965D01*
X0108856Y0210017D01*
X0108823Y0210068D01*
X0108787Y0210117D01*
X0108749Y0210163D01*
X0108707Y0210207D01*
X0108663Y0210249D01*
X0108617Y0210287D01*
X0108568Y0210323D01*
X0108517Y0210356D01*
X0108465Y0210385D01*
X0108410Y0210412D01*
X0108355Y0210435D01*
X0108298Y0210455D01*
X0108239Y0210471D01*
X0108180Y0210484D01*
X0108121Y0210493D01*
X0108060Y0210498D01*
X0108000Y0210500D01*
X0095000Y0210500D01*
X0094940Y0210498D01*
X0094879Y0210493D01*
X0094820Y0210484D01*
X0094761Y0210471D01*
X0094702Y0210455D01*
X0094645Y0210435D01*
X0094590Y0210412D01*
X0094535Y0210385D01*
X0094483Y0210356D01*
X0094432Y0210323D01*
X0094383Y0210287D01*
X0094337Y0210249D01*
X0094293Y0210207D01*
X0094251Y0210163D01*
X0094213Y0210117D01*
X0094177Y0210068D01*
X0094144Y0210017D01*
X0094115Y0209965D01*
X0094088Y0209910D01*
X0094065Y0209855D01*
X0094045Y0209798D01*
X0094029Y0209739D01*
X0094016Y0209680D01*
X0094007Y0209621D01*
X0094002Y0209560D01*
X0094000Y0209500D01*
X0094000Y0192500D01*
X0094002Y0192440D01*
X0094007Y0192379D01*
X0094016Y0192320D01*
X0094029Y0192261D01*
X0094045Y0192202D01*
X0094065Y0192145D01*
X0094088Y0192090D01*
X0094115Y0192035D01*
X0094144Y0191983D01*
X0094177Y0191932D01*
X0094213Y0191883D01*
X0094251Y0191837D01*
X0094293Y0191793D01*
X0094337Y0191751D01*
X0094383Y0191713D01*
X0094432Y0191677D01*
X0094483Y0191644D01*
X0094535Y0191615D01*
X0094590Y0191588D01*
X0094645Y0191565D01*
X0094702Y0191545D01*
X0094761Y0191529D01*
X0094820Y0191516D01*
X0094879Y0191507D01*
X0094940Y0191502D01*
X0095000Y0191500D01*
X0108000Y0191500D01*
X0108060Y0191502D01*
X0108121Y0191507D01*
X0108180Y0191516D01*
X0108239Y0191529D01*
X0108298Y0191545D01*
X0108355Y0191565D01*
X0108410Y0191588D01*
X0108465Y0191615D01*
X0108517Y0191644D01*
X0108568Y0191677D01*
X0108617Y0191713D01*
X0108663Y0191751D01*
X0108707Y0191793D01*
X0108749Y0191837D01*
X0108787Y0191883D01*
X0108823Y0191932D01*
X0108856Y0191983D01*
X0108885Y0192035D01*
X0108912Y0192090D01*
X0108935Y0192145D01*
X0108955Y0192202D01*
X0108971Y0192261D01*
X0108984Y0192320D01*
X0108993Y0192379D01*
X0108998Y0192440D01*
X0109000Y0192500D01*
X0101500Y0199500D02*
X0101500Y0200000D01*
X0101500Y0202000D02*
X0101500Y0202500D01*
X0111500Y0239500D02*
X0111500Y0247000D01*
X0111626Y0247002D01*
X0111751Y0247008D01*
X0111876Y0247018D01*
X0112001Y0247032D01*
X0112126Y0247049D01*
X0112250Y0247071D01*
X0112373Y0247096D01*
X0112495Y0247126D01*
X0112616Y0247159D01*
X0112736Y0247196D01*
X0112855Y0247236D01*
X0112972Y0247281D01*
X0113089Y0247329D01*
X0113203Y0247381D01*
X0113316Y0247436D01*
X0113427Y0247495D01*
X0113536Y0247557D01*
X0113643Y0247623D01*
X0113748Y0247692D01*
X0113851Y0247764D01*
X0113952Y0247839D01*
X0114050Y0247918D01*
X0114145Y0248000D01*
X0114238Y0248084D01*
X0114328Y0248172D01*
X0114416Y0248262D01*
X0114500Y0248355D01*
X0114582Y0248450D01*
X0114661Y0248548D01*
X0114736Y0248649D01*
X0114808Y0248752D01*
X0114877Y0248857D01*
X0114943Y0248964D01*
X0115005Y0249073D01*
X0115064Y0249184D01*
X0115119Y0249297D01*
X0115171Y0249411D01*
X0115219Y0249528D01*
X0115264Y0249645D01*
X0115304Y0249764D01*
X0115341Y0249884D01*
X0115374Y0250005D01*
X0115404Y0250127D01*
X0115429Y0250250D01*
X0115451Y0250374D01*
X0115468Y0250499D01*
X0115482Y0250624D01*
X0115492Y0250749D01*
X0115498Y0250874D01*
X0115500Y0251000D01*
X0115498Y0251126D01*
X0115492Y0251251D01*
X0115482Y0251376D01*
X0115468Y0251501D01*
X0115451Y0251626D01*
X0115429Y0251750D01*
X0115404Y0251873D01*
X0115374Y0251995D01*
X0115341Y0252116D01*
X0115304Y0252236D01*
X0115264Y0252355D01*
X0115219Y0252472D01*
X0115171Y0252589D01*
X0115119Y0252703D01*
X0115064Y0252816D01*
X0115005Y0252927D01*
X0114943Y0253036D01*
X0114877Y0253143D01*
X0114808Y0253248D01*
X0114736Y0253351D01*
X0114661Y0253452D01*
X0114582Y0253550D01*
X0114500Y0253645D01*
X0114416Y0253738D01*
X0114328Y0253828D01*
X0114238Y0253916D01*
X0114145Y0254000D01*
X0114050Y0254082D01*
X0113952Y0254161D01*
X0113851Y0254236D01*
X0113748Y0254308D01*
X0113643Y0254377D01*
X0113536Y0254443D01*
X0113427Y0254505D01*
X0113316Y0254564D01*
X0113203Y0254619D01*
X0113089Y0254671D01*
X0112972Y0254719D01*
X0112855Y0254764D01*
X0112736Y0254804D01*
X0112616Y0254841D01*
X0112495Y0254874D01*
X0112373Y0254904D01*
X0112250Y0254929D01*
X0112126Y0254951D01*
X0112001Y0254968D01*
X0111876Y0254982D01*
X0111751Y0254992D01*
X0111626Y0254998D01*
X0111500Y0255000D01*
X0111500Y0262500D01*
X0211500Y0262500D01*
X0211500Y0239500D01*
X0111500Y0239500D01*
X0109000Y0242500D02*
X0109000Y0259500D01*
X0108998Y0259560D01*
X0108993Y0259621D01*
X0108984Y0259680D01*
X0108971Y0259739D01*
X0108955Y0259798D01*
X0108935Y0259855D01*
X0108912Y0259910D01*
X0108885Y0259965D01*
X0108856Y0260017D01*
X0108823Y0260068D01*
X0108787Y0260117D01*
X0108749Y0260163D01*
X0108707Y0260207D01*
X0108663Y0260249D01*
X0108617Y0260287D01*
X0108568Y0260323D01*
X0108517Y0260356D01*
X0108465Y0260385D01*
X0108410Y0260412D01*
X0108355Y0260435D01*
X0108298Y0260455D01*
X0108239Y0260471D01*
X0108180Y0260484D01*
X0108121Y0260493D01*
X0108060Y0260498D01*
X0108000Y0260500D01*
X0095000Y0260500D01*
X0094940Y0260498D01*
X0094879Y0260493D01*
X0094820Y0260484D01*
X0094761Y0260471D01*
X0094702Y0260455D01*
X0094645Y0260435D01*
X0094590Y0260412D01*
X0094535Y0260385D01*
X0094483Y0260356D01*
X0094432Y0260323D01*
X0094383Y0260287D01*
X0094337Y0260249D01*
X0094293Y0260207D01*
X0094251Y0260163D01*
X0094213Y0260117D01*
X0094177Y0260068D01*
X0094144Y0260017D01*
X0094115Y0259965D01*
X0094088Y0259910D01*
X0094065Y0259855D01*
X0094045Y0259798D01*
X0094029Y0259739D01*
X0094016Y0259680D01*
X0094007Y0259621D01*
X0094002Y0259560D01*
X0094000Y0259500D01*
X0094000Y0242500D01*
X0094002Y0242440D01*
X0094007Y0242379D01*
X0094016Y0242320D01*
X0094029Y0242261D01*
X0094045Y0242202D01*
X0094065Y0242145D01*
X0094088Y0242090D01*
X0094115Y0242035D01*
X0094144Y0241983D01*
X0094177Y0241932D01*
X0094213Y0241883D01*
X0094251Y0241837D01*
X0094293Y0241793D01*
X0094337Y0241751D01*
X0094383Y0241713D01*
X0094432Y0241677D01*
X0094483Y0241644D01*
X0094535Y0241615D01*
X0094590Y0241588D01*
X0094645Y0241565D01*
X0094702Y0241545D01*
X0094761Y0241529D01*
X0094820Y0241516D01*
X0094879Y0241507D01*
X0094940Y0241502D01*
X0095000Y0241500D01*
X0108000Y0241500D01*
X0108060Y0241502D01*
X0108121Y0241507D01*
X0108180Y0241516D01*
X0108239Y0241529D01*
X0108298Y0241545D01*
X0108355Y0241565D01*
X0108410Y0241588D01*
X0108465Y0241615D01*
X0108517Y0241644D01*
X0108568Y0241677D01*
X0108617Y0241713D01*
X0108663Y0241751D01*
X0108707Y0241793D01*
X0108749Y0241837D01*
X0108787Y0241883D01*
X0108823Y0241932D01*
X0108856Y0241983D01*
X0108885Y0242035D01*
X0108912Y0242090D01*
X0108935Y0242145D01*
X0108955Y0242202D01*
X0108971Y0242261D01*
X0108984Y0242320D01*
X0108993Y0242379D01*
X0108998Y0242440D01*
X0109000Y0242500D01*
X0101500Y0249500D02*
X0101500Y0250000D01*
X0101500Y0252000D02*
X0101500Y0252500D01*
X0111500Y0289500D02*
X0111500Y0297000D01*
X0111626Y0297002D01*
X0111751Y0297008D01*
X0111876Y0297018D01*
X0112001Y0297032D01*
X0112126Y0297049D01*
X0112250Y0297071D01*
X0112373Y0297096D01*
X0112495Y0297126D01*
X0112616Y0297159D01*
X0112736Y0297196D01*
X0112855Y0297236D01*
X0112972Y0297281D01*
X0113089Y0297329D01*
X0113203Y0297381D01*
X0113316Y0297436D01*
X0113427Y0297495D01*
X0113536Y0297557D01*
X0113643Y0297623D01*
X0113748Y0297692D01*
X0113851Y0297764D01*
X0113952Y0297839D01*
X0114050Y0297918D01*
X0114145Y0298000D01*
X0114238Y0298084D01*
X0114328Y0298172D01*
X0114416Y0298262D01*
X0114500Y0298355D01*
X0114582Y0298450D01*
X0114661Y0298548D01*
X0114736Y0298649D01*
X0114808Y0298752D01*
X0114877Y0298857D01*
X0114943Y0298964D01*
X0115005Y0299073D01*
X0115064Y0299184D01*
X0115119Y0299297D01*
X0115171Y0299411D01*
X0115219Y0299528D01*
X0115264Y0299645D01*
X0115304Y0299764D01*
X0115341Y0299884D01*
X0115374Y0300005D01*
X0115404Y0300127D01*
X0115429Y0300250D01*
X0115451Y0300374D01*
X0115468Y0300499D01*
X0115482Y0300624D01*
X0115492Y0300749D01*
X0115498Y0300874D01*
X0115500Y0301000D01*
X0115498Y0301126D01*
X0115492Y0301251D01*
X0115482Y0301376D01*
X0115468Y0301501D01*
X0115451Y0301626D01*
X0115429Y0301750D01*
X0115404Y0301873D01*
X0115374Y0301995D01*
X0115341Y0302116D01*
X0115304Y0302236D01*
X0115264Y0302355D01*
X0115219Y0302472D01*
X0115171Y0302589D01*
X0115119Y0302703D01*
X0115064Y0302816D01*
X0115005Y0302927D01*
X0114943Y0303036D01*
X0114877Y0303143D01*
X0114808Y0303248D01*
X0114736Y0303351D01*
X0114661Y0303452D01*
X0114582Y0303550D01*
X0114500Y0303645D01*
X0114416Y0303738D01*
X0114328Y0303828D01*
X0114238Y0303916D01*
X0114145Y0304000D01*
X0114050Y0304082D01*
X0113952Y0304161D01*
X0113851Y0304236D01*
X0113748Y0304308D01*
X0113643Y0304377D01*
X0113536Y0304443D01*
X0113427Y0304505D01*
X0113316Y0304564D01*
X0113203Y0304619D01*
X0113089Y0304671D01*
X0112972Y0304719D01*
X0112855Y0304764D01*
X0112736Y0304804D01*
X0112616Y0304841D01*
X0112495Y0304874D01*
X0112373Y0304904D01*
X0112250Y0304929D01*
X0112126Y0304951D01*
X0112001Y0304968D01*
X0111876Y0304982D01*
X0111751Y0304992D01*
X0111626Y0304998D01*
X0111500Y0305000D01*
X0111500Y0312500D01*
X0211500Y0312500D01*
X0211500Y0289500D01*
X0111500Y0289500D01*
X0109000Y0292500D02*
X0109000Y0309500D01*
X0108998Y0309560D01*
X0108993Y0309621D01*
X0108984Y0309680D01*
X0108971Y0309739D01*
X0108955Y0309798D01*
X0108935Y0309855D01*
X0108912Y0309910D01*
X0108885Y0309965D01*
X0108856Y0310017D01*
X0108823Y0310068D01*
X0108787Y0310117D01*
X0108749Y0310163D01*
X0108707Y0310207D01*
X0108663Y0310249D01*
X0108617Y0310287D01*
X0108568Y0310323D01*
X0108517Y0310356D01*
X0108465Y0310385D01*
X0108410Y0310412D01*
X0108355Y0310435D01*
X0108298Y0310455D01*
X0108239Y0310471D01*
X0108180Y0310484D01*
X0108121Y0310493D01*
X0108060Y0310498D01*
X0108000Y0310500D01*
X0095000Y0310500D01*
X0094940Y0310498D01*
X0094879Y0310493D01*
X0094820Y0310484D01*
X0094761Y0310471D01*
X0094702Y0310455D01*
X0094645Y0310435D01*
X0094590Y0310412D01*
X0094535Y0310385D01*
X0094483Y0310356D01*
X0094432Y0310323D01*
X0094383Y0310287D01*
X0094337Y0310249D01*
X0094293Y0310207D01*
X0094251Y0310163D01*
X0094213Y0310117D01*
X0094177Y0310068D01*
X0094144Y0310017D01*
X0094115Y0309965D01*
X0094088Y0309910D01*
X0094065Y0309855D01*
X0094045Y0309798D01*
X0094029Y0309739D01*
X0094016Y0309680D01*
X0094007Y0309621D01*
X0094002Y0309560D01*
X0094000Y0309500D01*
X0094000Y0292500D01*
X0094002Y0292440D01*
X0094007Y0292379D01*
X0094016Y0292320D01*
X0094029Y0292261D01*
X0094045Y0292202D01*
X0094065Y0292145D01*
X0094088Y0292090D01*
X0094115Y0292035D01*
X0094144Y0291983D01*
X0094177Y0291932D01*
X0094213Y0291883D01*
X0094251Y0291837D01*
X0094293Y0291793D01*
X0094337Y0291751D01*
X0094383Y0291713D01*
X0094432Y0291677D01*
X0094483Y0291644D01*
X0094535Y0291615D01*
X0094590Y0291588D01*
X0094645Y0291565D01*
X0094702Y0291545D01*
X0094761Y0291529D01*
X0094820Y0291516D01*
X0094879Y0291507D01*
X0094940Y0291502D01*
X0095000Y0291500D01*
X0108000Y0291500D01*
X0108060Y0291502D01*
X0108121Y0291507D01*
X0108180Y0291516D01*
X0108239Y0291529D01*
X0108298Y0291545D01*
X0108355Y0291565D01*
X0108410Y0291588D01*
X0108465Y0291615D01*
X0108517Y0291644D01*
X0108568Y0291677D01*
X0108617Y0291713D01*
X0108663Y0291751D01*
X0108707Y0291793D01*
X0108749Y0291837D01*
X0108787Y0291883D01*
X0108823Y0291932D01*
X0108856Y0291983D01*
X0108885Y0292035D01*
X0108912Y0292090D01*
X0108935Y0292145D01*
X0108955Y0292202D01*
X0108971Y0292261D01*
X0108984Y0292320D01*
X0108993Y0292379D01*
X0108998Y0292440D01*
X0109000Y0292500D01*
X0101500Y0299500D02*
X0101500Y0300000D01*
X0101500Y0302000D02*
X0101500Y0302500D01*
X0111500Y0344500D02*
X0111500Y0352000D01*
X0111626Y0352002D01*
X0111751Y0352008D01*
X0111876Y0352018D01*
X0112001Y0352032D01*
X0112126Y0352049D01*
X0112250Y0352071D01*
X0112373Y0352096D01*
X0112495Y0352126D01*
X0112616Y0352159D01*
X0112736Y0352196D01*
X0112855Y0352236D01*
X0112972Y0352281D01*
X0113089Y0352329D01*
X0113203Y0352381D01*
X0113316Y0352436D01*
X0113427Y0352495D01*
X0113536Y0352557D01*
X0113643Y0352623D01*
X0113748Y0352692D01*
X0113851Y0352764D01*
X0113952Y0352839D01*
X0114050Y0352918D01*
X0114145Y0353000D01*
X0114238Y0353084D01*
X0114328Y0353172D01*
X0114416Y0353262D01*
X0114500Y0353355D01*
X0114582Y0353450D01*
X0114661Y0353548D01*
X0114736Y0353649D01*
X0114808Y0353752D01*
X0114877Y0353857D01*
X0114943Y0353964D01*
X0115005Y0354073D01*
X0115064Y0354184D01*
X0115119Y0354297D01*
X0115171Y0354411D01*
X0115219Y0354528D01*
X0115264Y0354645D01*
X0115304Y0354764D01*
X0115341Y0354884D01*
X0115374Y0355005D01*
X0115404Y0355127D01*
X0115429Y0355250D01*
X0115451Y0355374D01*
X0115468Y0355499D01*
X0115482Y0355624D01*
X0115492Y0355749D01*
X0115498Y0355874D01*
X0115500Y0356000D01*
X0115498Y0356126D01*
X0115492Y0356251D01*
X0115482Y0356376D01*
X0115468Y0356501D01*
X0115451Y0356626D01*
X0115429Y0356750D01*
X0115404Y0356873D01*
X0115374Y0356995D01*
X0115341Y0357116D01*
X0115304Y0357236D01*
X0115264Y0357355D01*
X0115219Y0357472D01*
X0115171Y0357589D01*
X0115119Y0357703D01*
X0115064Y0357816D01*
X0115005Y0357927D01*
X0114943Y0358036D01*
X0114877Y0358143D01*
X0114808Y0358248D01*
X0114736Y0358351D01*
X0114661Y0358452D01*
X0114582Y0358550D01*
X0114500Y0358645D01*
X0114416Y0358738D01*
X0114328Y0358828D01*
X0114238Y0358916D01*
X0114145Y0359000D01*
X0114050Y0359082D01*
X0113952Y0359161D01*
X0113851Y0359236D01*
X0113748Y0359308D01*
X0113643Y0359377D01*
X0113536Y0359443D01*
X0113427Y0359505D01*
X0113316Y0359564D01*
X0113203Y0359619D01*
X0113089Y0359671D01*
X0112972Y0359719D01*
X0112855Y0359764D01*
X0112736Y0359804D01*
X0112616Y0359841D01*
X0112495Y0359874D01*
X0112373Y0359904D01*
X0112250Y0359929D01*
X0112126Y0359951D01*
X0112001Y0359968D01*
X0111876Y0359982D01*
X0111751Y0359992D01*
X0111626Y0359998D01*
X0111500Y0360000D01*
X0111500Y0367500D01*
X0181500Y0367500D01*
X0181500Y0344500D01*
X0111500Y0344500D01*
X0109000Y0347500D02*
X0109000Y0364500D01*
X0108998Y0364560D01*
X0108993Y0364621D01*
X0108984Y0364680D01*
X0108971Y0364739D01*
X0108955Y0364798D01*
X0108935Y0364855D01*
X0108912Y0364910D01*
X0108885Y0364965D01*
X0108856Y0365017D01*
X0108823Y0365068D01*
X0108787Y0365117D01*
X0108749Y0365163D01*
X0108707Y0365207D01*
X0108663Y0365249D01*
X0108617Y0365287D01*
X0108568Y0365323D01*
X0108517Y0365356D01*
X0108465Y0365385D01*
X0108410Y0365412D01*
X0108355Y0365435D01*
X0108298Y0365455D01*
X0108239Y0365471D01*
X0108180Y0365484D01*
X0108121Y0365493D01*
X0108060Y0365498D01*
X0108000Y0365500D01*
X0095000Y0365500D01*
X0094940Y0365498D01*
X0094879Y0365493D01*
X0094820Y0365484D01*
X0094761Y0365471D01*
X0094702Y0365455D01*
X0094645Y0365435D01*
X0094590Y0365412D01*
X0094535Y0365385D01*
X0094483Y0365356D01*
X0094432Y0365323D01*
X0094383Y0365287D01*
X0094337Y0365249D01*
X0094293Y0365207D01*
X0094251Y0365163D01*
X0094213Y0365117D01*
X0094177Y0365068D01*
X0094144Y0365017D01*
X0094115Y0364965D01*
X0094088Y0364910D01*
X0094065Y0364855D01*
X0094045Y0364798D01*
X0094029Y0364739D01*
X0094016Y0364680D01*
X0094007Y0364621D01*
X0094002Y0364560D01*
X0094000Y0364500D01*
X0094000Y0347500D01*
X0094002Y0347440D01*
X0094007Y0347379D01*
X0094016Y0347320D01*
X0094029Y0347261D01*
X0094045Y0347202D01*
X0094065Y0347145D01*
X0094088Y0347090D01*
X0094115Y0347035D01*
X0094144Y0346983D01*
X0094177Y0346932D01*
X0094213Y0346883D01*
X0094251Y0346837D01*
X0094293Y0346793D01*
X0094337Y0346751D01*
X0094383Y0346713D01*
X0094432Y0346677D01*
X0094483Y0346644D01*
X0094535Y0346615D01*
X0094590Y0346588D01*
X0094645Y0346565D01*
X0094702Y0346545D01*
X0094761Y0346529D01*
X0094820Y0346516D01*
X0094879Y0346507D01*
X0094940Y0346502D01*
X0095000Y0346500D01*
X0108000Y0346500D01*
X0108060Y0346502D01*
X0108121Y0346507D01*
X0108180Y0346516D01*
X0108239Y0346529D01*
X0108298Y0346545D01*
X0108355Y0346565D01*
X0108410Y0346588D01*
X0108465Y0346615D01*
X0108517Y0346644D01*
X0108568Y0346677D01*
X0108617Y0346713D01*
X0108663Y0346751D01*
X0108707Y0346793D01*
X0108749Y0346837D01*
X0108787Y0346883D01*
X0108823Y0346932D01*
X0108856Y0346983D01*
X0108885Y0347035D01*
X0108912Y0347090D01*
X0108935Y0347145D01*
X0108955Y0347202D01*
X0108971Y0347261D01*
X0108984Y0347320D01*
X0108993Y0347379D01*
X0108998Y0347440D01*
X0109000Y0347500D01*
X0101500Y0354500D02*
X0101500Y0355000D01*
X0101500Y0357000D02*
X0101500Y0357500D01*
X0096500Y0386000D02*
X0106500Y0386000D01*
X0186500Y0386000D01*
X0186500Y0396000D01*
X0106500Y0396000D01*
X0096500Y0396000D01*
X0099000Y0393500D01*
X0096500Y0396000D02*
X0096500Y0386000D01*
X0099000Y0388500D01*
X0104000Y0388500D02*
X0106500Y0386000D01*
X0106500Y0396000D01*
X0104000Y0393500D01*
X0106500Y0411000D02*
X0096500Y0411000D01*
X0099000Y0413500D01*
X0096500Y0411000D02*
X0096500Y0421000D01*
X0106500Y0421000D01*
X0106500Y0411000D01*
X0186500Y0411000D01*
X0186500Y0421000D01*
X0106500Y0421000D01*
X0104000Y0418500D01*
X0099000Y0418500D02*
X0096500Y0421000D01*
X0104000Y0413500D02*
X0106500Y0411000D01*
X0076070Y0417368D02*
X0075003Y0416300D01*
X0072868Y0416300D01*
X0071800Y0417368D01*
X0073935Y0419503D02*
X0075003Y0419503D01*
X0076070Y0418435D01*
X0076070Y0417368D01*
X0075003Y0419503D02*
X0076070Y0420570D01*
X0076070Y0421638D01*
X0075003Y0422705D01*
X0072868Y0422705D01*
X0071800Y0421638D01*
X0074000Y0426000D02*
X0069000Y0426000D01*
X0066500Y0428500D01*
X0064000Y0426000D01*
X0059000Y0426000D01*
X0056500Y0428500D01*
X0054000Y0426000D01*
X0049000Y0426000D01*
X0046500Y0428500D01*
X0044000Y0426000D01*
X0039000Y0426000D01*
X0036500Y0428500D01*
X0036500Y0443500D01*
X0039000Y0446000D01*
X0044000Y0446000D01*
X0046500Y0443500D01*
X0049000Y0446000D01*
X0054000Y0446000D01*
X0056500Y0443500D01*
X0059000Y0446000D01*
X0064000Y0446000D01*
X0066500Y0443500D01*
X0069000Y0446000D01*
X0074000Y0446000D01*
X0076500Y0443500D01*
X0076500Y0428500D01*
X0074000Y0426000D01*
X0062516Y0421638D02*
X0062516Y0417368D01*
X0061448Y0416300D01*
X0058245Y0416300D01*
X0058245Y0422705D01*
X0061448Y0422705D01*
X0062516Y0421638D01*
X0056070Y0421638D02*
X0056070Y0419503D01*
X0055003Y0418435D01*
X0051800Y0418435D01*
X0051800Y0416300D02*
X0051800Y0422705D01*
X0055003Y0422705D01*
X0056070Y0421638D01*
X0053935Y0418435D02*
X0056070Y0416300D01*
X0041070Y0417368D02*
X0040003Y0416300D01*
X0037868Y0416300D01*
X0036800Y0417368D01*
X0041070Y0421638D01*
X0041070Y0417368D01*
X0041070Y0421638D02*
X0040003Y0422705D01*
X0037868Y0422705D01*
X0036800Y0421638D01*
X0036800Y0417368D01*
X0240000Y0406000D02*
X0240000Y0306000D01*
X0263000Y0306000D01*
X0263000Y0406000D01*
X0255500Y0406000D01*
X0255498Y0405874D01*
X0255492Y0405749D01*
X0255482Y0405624D01*
X0255468Y0405499D01*
X0255451Y0405374D01*
X0255429Y0405250D01*
X0255404Y0405127D01*
X0255374Y0405005D01*
X0255341Y0404884D01*
X0255304Y0404764D01*
X0255264Y0404645D01*
X0255219Y0404528D01*
X0255171Y0404411D01*
X0255119Y0404297D01*
X0255064Y0404184D01*
X0255005Y0404073D01*
X0254943Y0403964D01*
X0254877Y0403857D01*
X0254808Y0403752D01*
X0254736Y0403649D01*
X0254661Y0403548D01*
X0254582Y0403450D01*
X0254500Y0403355D01*
X0254416Y0403262D01*
X0254328Y0403172D01*
X0254238Y0403084D01*
X0254145Y0403000D01*
X0254050Y0402918D01*
X0253952Y0402839D01*
X0253851Y0402764D01*
X0253748Y0402692D01*
X0253643Y0402623D01*
X0253536Y0402557D01*
X0253427Y0402495D01*
X0253316Y0402436D01*
X0253203Y0402381D01*
X0253089Y0402329D01*
X0252972Y0402281D01*
X0252855Y0402236D01*
X0252736Y0402196D01*
X0252616Y0402159D01*
X0252495Y0402126D01*
X0252373Y0402096D01*
X0252250Y0402071D01*
X0252126Y0402049D01*
X0252001Y0402032D01*
X0251876Y0402018D01*
X0251751Y0402008D01*
X0251626Y0402002D01*
X0251500Y0402000D01*
X0251374Y0402002D01*
X0251249Y0402008D01*
X0251124Y0402018D01*
X0250999Y0402032D01*
X0250874Y0402049D01*
X0250750Y0402071D01*
X0250627Y0402096D01*
X0250505Y0402126D01*
X0250384Y0402159D01*
X0250264Y0402196D01*
X0250145Y0402236D01*
X0250028Y0402281D01*
X0249911Y0402329D01*
X0249797Y0402381D01*
X0249684Y0402436D01*
X0249573Y0402495D01*
X0249464Y0402557D01*
X0249357Y0402623D01*
X0249252Y0402692D01*
X0249149Y0402764D01*
X0249048Y0402839D01*
X0248950Y0402918D01*
X0248855Y0403000D01*
X0248762Y0403084D01*
X0248672Y0403172D01*
X0248584Y0403262D01*
X0248500Y0403355D01*
X0248418Y0403450D01*
X0248339Y0403548D01*
X0248264Y0403649D01*
X0248192Y0403752D01*
X0248123Y0403857D01*
X0248057Y0403964D01*
X0247995Y0404073D01*
X0247936Y0404184D01*
X0247881Y0404297D01*
X0247829Y0404411D01*
X0247781Y0404528D01*
X0247736Y0404645D01*
X0247696Y0404764D01*
X0247659Y0404884D01*
X0247626Y0405005D01*
X0247596Y0405127D01*
X0247571Y0405250D01*
X0247549Y0405374D01*
X0247532Y0405499D01*
X0247518Y0405624D01*
X0247508Y0405749D01*
X0247502Y0405874D01*
X0247500Y0406000D01*
X0240000Y0406000D01*
X0243000Y0408500D02*
X0260000Y0408500D01*
X0260060Y0408502D01*
X0260121Y0408507D01*
X0260180Y0408516D01*
X0260239Y0408529D01*
X0260298Y0408545D01*
X0260355Y0408565D01*
X0260410Y0408588D01*
X0260465Y0408615D01*
X0260517Y0408644D01*
X0260568Y0408677D01*
X0260617Y0408713D01*
X0260663Y0408751D01*
X0260707Y0408793D01*
X0260749Y0408837D01*
X0260787Y0408883D01*
X0260823Y0408932D01*
X0260856Y0408983D01*
X0260885Y0409035D01*
X0260912Y0409090D01*
X0260935Y0409145D01*
X0260955Y0409202D01*
X0260971Y0409261D01*
X0260984Y0409320D01*
X0260993Y0409379D01*
X0260998Y0409440D01*
X0261000Y0409500D01*
X0261000Y0422500D01*
X0260998Y0422560D01*
X0260993Y0422621D01*
X0260984Y0422680D01*
X0260971Y0422739D01*
X0260955Y0422798D01*
X0260935Y0422855D01*
X0260912Y0422910D01*
X0260885Y0422965D01*
X0260856Y0423017D01*
X0260823Y0423068D01*
X0260787Y0423117D01*
X0260749Y0423163D01*
X0260707Y0423207D01*
X0260663Y0423249D01*
X0260617Y0423287D01*
X0260568Y0423323D01*
X0260517Y0423356D01*
X0260465Y0423385D01*
X0260410Y0423412D01*
X0260355Y0423435D01*
X0260298Y0423455D01*
X0260239Y0423471D01*
X0260180Y0423484D01*
X0260121Y0423493D01*
X0260060Y0423498D01*
X0260000Y0423500D01*
X0243000Y0423500D01*
X0242940Y0423498D01*
X0242879Y0423493D01*
X0242820Y0423484D01*
X0242761Y0423471D01*
X0242702Y0423455D01*
X0242645Y0423435D01*
X0242590Y0423412D01*
X0242535Y0423385D01*
X0242483Y0423356D01*
X0242432Y0423323D01*
X0242383Y0423287D01*
X0242337Y0423249D01*
X0242293Y0423207D01*
X0242251Y0423163D01*
X0242213Y0423117D01*
X0242177Y0423068D01*
X0242144Y0423017D01*
X0242115Y0422965D01*
X0242088Y0422910D01*
X0242065Y0422855D01*
X0242045Y0422798D01*
X0242029Y0422739D01*
X0242016Y0422680D01*
X0242007Y0422621D01*
X0242002Y0422560D01*
X0242000Y0422500D01*
X0242000Y0409500D01*
X0242002Y0409440D01*
X0242007Y0409379D01*
X0242016Y0409320D01*
X0242029Y0409261D01*
X0242045Y0409202D01*
X0242065Y0409145D01*
X0242088Y0409090D01*
X0242115Y0409035D01*
X0242144Y0408983D01*
X0242177Y0408932D01*
X0242213Y0408883D01*
X0242251Y0408837D01*
X0242293Y0408793D01*
X0242337Y0408751D01*
X0242383Y0408713D01*
X0242432Y0408677D01*
X0242483Y0408644D01*
X0242535Y0408615D01*
X0242590Y0408588D01*
X0242645Y0408565D01*
X0242702Y0408545D01*
X0242761Y0408529D01*
X0242820Y0408516D01*
X0242879Y0408507D01*
X0242940Y0408502D01*
X0243000Y0408500D01*
X0250000Y0416000D02*
X0250500Y0416000D01*
X0252500Y0416000D02*
X0253000Y0416000D01*
X0310000Y0406000D02*
X0317500Y0406000D01*
X0317502Y0405874D01*
X0317508Y0405749D01*
X0317518Y0405624D01*
X0317532Y0405499D01*
X0317549Y0405374D01*
X0317571Y0405250D01*
X0317596Y0405127D01*
X0317626Y0405005D01*
X0317659Y0404884D01*
X0317696Y0404764D01*
X0317736Y0404645D01*
X0317781Y0404528D01*
X0317829Y0404411D01*
X0317881Y0404297D01*
X0317936Y0404184D01*
X0317995Y0404073D01*
X0318057Y0403964D01*
X0318123Y0403857D01*
X0318192Y0403752D01*
X0318264Y0403649D01*
X0318339Y0403548D01*
X0318418Y0403450D01*
X0318500Y0403355D01*
X0318584Y0403262D01*
X0318672Y0403172D01*
X0318762Y0403084D01*
X0318855Y0403000D01*
X0318950Y0402918D01*
X0319048Y0402839D01*
X0319149Y0402764D01*
X0319252Y0402692D01*
X0319357Y0402623D01*
X0319464Y0402557D01*
X0319573Y0402495D01*
X0319684Y0402436D01*
X0319797Y0402381D01*
X0319911Y0402329D01*
X0320028Y0402281D01*
X0320145Y0402236D01*
X0320264Y0402196D01*
X0320384Y0402159D01*
X0320505Y0402126D01*
X0320627Y0402096D01*
X0320750Y0402071D01*
X0320874Y0402049D01*
X0320999Y0402032D01*
X0321124Y0402018D01*
X0321249Y0402008D01*
X0321374Y0402002D01*
X0321500Y0402000D01*
X0321626Y0402002D01*
X0321751Y0402008D01*
X0321876Y0402018D01*
X0322001Y0402032D01*
X0322126Y0402049D01*
X0322250Y0402071D01*
X0322373Y0402096D01*
X0322495Y0402126D01*
X0322616Y0402159D01*
X0322736Y0402196D01*
X0322855Y0402236D01*
X0322972Y0402281D01*
X0323089Y0402329D01*
X0323203Y0402381D01*
X0323316Y0402436D01*
X0323427Y0402495D01*
X0323536Y0402557D01*
X0323643Y0402623D01*
X0323748Y0402692D01*
X0323851Y0402764D01*
X0323952Y0402839D01*
X0324050Y0402918D01*
X0324145Y0403000D01*
X0324238Y0403084D01*
X0324328Y0403172D01*
X0324416Y0403262D01*
X0324500Y0403355D01*
X0324582Y0403450D01*
X0324661Y0403548D01*
X0324736Y0403649D01*
X0324808Y0403752D01*
X0324877Y0403857D01*
X0324943Y0403964D01*
X0325005Y0404073D01*
X0325064Y0404184D01*
X0325119Y0404297D01*
X0325171Y0404411D01*
X0325219Y0404528D01*
X0325264Y0404645D01*
X0325304Y0404764D01*
X0325341Y0404884D01*
X0325374Y0405005D01*
X0325404Y0405127D01*
X0325429Y0405250D01*
X0325451Y0405374D01*
X0325468Y0405499D01*
X0325482Y0405624D01*
X0325492Y0405749D01*
X0325498Y0405874D01*
X0325500Y0406000D01*
X0333000Y0406000D01*
X0333000Y0306000D01*
X0310000Y0306000D01*
X0310000Y0406000D01*
X0313000Y0408500D02*
X0330000Y0408500D01*
X0330060Y0408502D01*
X0330121Y0408507D01*
X0330180Y0408516D01*
X0330239Y0408529D01*
X0330298Y0408545D01*
X0330355Y0408565D01*
X0330410Y0408588D01*
X0330465Y0408615D01*
X0330517Y0408644D01*
X0330568Y0408677D01*
X0330617Y0408713D01*
X0330663Y0408751D01*
X0330707Y0408793D01*
X0330749Y0408837D01*
X0330787Y0408883D01*
X0330823Y0408932D01*
X0330856Y0408983D01*
X0330885Y0409035D01*
X0330912Y0409090D01*
X0330935Y0409145D01*
X0330955Y0409202D01*
X0330971Y0409261D01*
X0330984Y0409320D01*
X0330993Y0409379D01*
X0330998Y0409440D01*
X0331000Y0409500D01*
X0331000Y0422500D01*
X0330998Y0422560D01*
X0330993Y0422621D01*
X0330984Y0422680D01*
X0330971Y0422739D01*
X0330955Y0422798D01*
X0330935Y0422855D01*
X0330912Y0422910D01*
X0330885Y0422965D01*
X0330856Y0423017D01*
X0330823Y0423068D01*
X0330787Y0423117D01*
X0330749Y0423163D01*
X0330707Y0423207D01*
X0330663Y0423249D01*
X0330617Y0423287D01*
X0330568Y0423323D01*
X0330517Y0423356D01*
X0330465Y0423385D01*
X0330410Y0423412D01*
X0330355Y0423435D01*
X0330298Y0423455D01*
X0330239Y0423471D01*
X0330180Y0423484D01*
X0330121Y0423493D01*
X0330060Y0423498D01*
X0330000Y0423500D01*
X0313000Y0423500D01*
X0312940Y0423498D01*
X0312879Y0423493D01*
X0312820Y0423484D01*
X0312761Y0423471D01*
X0312702Y0423455D01*
X0312645Y0423435D01*
X0312590Y0423412D01*
X0312535Y0423385D01*
X0312483Y0423356D01*
X0312432Y0423323D01*
X0312383Y0423287D01*
X0312337Y0423249D01*
X0312293Y0423207D01*
X0312251Y0423163D01*
X0312213Y0423117D01*
X0312177Y0423068D01*
X0312144Y0423017D01*
X0312115Y0422965D01*
X0312088Y0422910D01*
X0312065Y0422855D01*
X0312045Y0422798D01*
X0312029Y0422739D01*
X0312016Y0422680D01*
X0312007Y0422621D01*
X0312002Y0422560D01*
X0312000Y0422500D01*
X0312000Y0409500D01*
X0312002Y0409440D01*
X0312007Y0409379D01*
X0312016Y0409320D01*
X0312029Y0409261D01*
X0312045Y0409202D01*
X0312065Y0409145D01*
X0312088Y0409090D01*
X0312115Y0409035D01*
X0312144Y0408983D01*
X0312177Y0408932D01*
X0312213Y0408883D01*
X0312251Y0408837D01*
X0312293Y0408793D01*
X0312337Y0408751D01*
X0312383Y0408713D01*
X0312432Y0408677D01*
X0312483Y0408644D01*
X0312535Y0408615D01*
X0312590Y0408588D01*
X0312645Y0408565D01*
X0312702Y0408545D01*
X0312761Y0408529D01*
X0312820Y0408516D01*
X0312879Y0408507D01*
X0312940Y0408502D01*
X0313000Y0408500D01*
X0320000Y0416000D02*
X0320500Y0416000D01*
X0322500Y0416000D02*
X0323000Y0416000D01*
X0380000Y0406000D02*
X0387500Y0406000D01*
X0387502Y0405874D01*
X0387508Y0405749D01*
X0387518Y0405624D01*
X0387532Y0405499D01*
X0387549Y0405374D01*
X0387571Y0405250D01*
X0387596Y0405127D01*
X0387626Y0405005D01*
X0387659Y0404884D01*
X0387696Y0404764D01*
X0387736Y0404645D01*
X0387781Y0404528D01*
X0387829Y0404411D01*
X0387881Y0404297D01*
X0387936Y0404184D01*
X0387995Y0404073D01*
X0388057Y0403964D01*
X0388123Y0403857D01*
X0388192Y0403752D01*
X0388264Y0403649D01*
X0388339Y0403548D01*
X0388418Y0403450D01*
X0388500Y0403355D01*
X0388584Y0403262D01*
X0388672Y0403172D01*
X0388762Y0403084D01*
X0388855Y0403000D01*
X0388950Y0402918D01*
X0389048Y0402839D01*
X0389149Y0402764D01*
X0389252Y0402692D01*
X0389357Y0402623D01*
X0389464Y0402557D01*
X0389573Y0402495D01*
X0389684Y0402436D01*
X0389797Y0402381D01*
X0389911Y0402329D01*
X0390028Y0402281D01*
X0390145Y0402236D01*
X0390264Y0402196D01*
X0390384Y0402159D01*
X0390505Y0402126D01*
X0390627Y0402096D01*
X0390750Y0402071D01*
X0390874Y0402049D01*
X0390999Y0402032D01*
X0391124Y0402018D01*
X0391249Y0402008D01*
X0391374Y0402002D01*
X0391500Y0402000D01*
X0391626Y0402002D01*
X0391751Y0402008D01*
X0391876Y0402018D01*
X0392001Y0402032D01*
X0392126Y0402049D01*
X0392250Y0402071D01*
X0392373Y0402096D01*
X0392495Y0402126D01*
X0392616Y0402159D01*
X0392736Y0402196D01*
X0392855Y0402236D01*
X0392972Y0402281D01*
X0393089Y0402329D01*
X0393203Y0402381D01*
X0393316Y0402436D01*
X0393427Y0402495D01*
X0393536Y0402557D01*
X0393643Y0402623D01*
X0393748Y0402692D01*
X0393851Y0402764D01*
X0393952Y0402839D01*
X0394050Y0402918D01*
X0394145Y0403000D01*
X0394238Y0403084D01*
X0394328Y0403172D01*
X0394416Y0403262D01*
X0394500Y0403355D01*
X0394582Y0403450D01*
X0394661Y0403548D01*
X0394736Y0403649D01*
X0394808Y0403752D01*
X0394877Y0403857D01*
X0394943Y0403964D01*
X0395005Y0404073D01*
X0395064Y0404184D01*
X0395119Y0404297D01*
X0395171Y0404411D01*
X0395219Y0404528D01*
X0395264Y0404645D01*
X0395304Y0404764D01*
X0395341Y0404884D01*
X0395374Y0405005D01*
X0395404Y0405127D01*
X0395429Y0405250D01*
X0395451Y0405374D01*
X0395468Y0405499D01*
X0395482Y0405624D01*
X0395492Y0405749D01*
X0395498Y0405874D01*
X0395500Y0406000D01*
X0403000Y0406000D01*
X0403000Y0306000D01*
X0380000Y0306000D01*
X0380000Y0406000D01*
X0383000Y0408500D02*
X0400000Y0408500D01*
X0400060Y0408502D01*
X0400121Y0408507D01*
X0400180Y0408516D01*
X0400239Y0408529D01*
X0400298Y0408545D01*
X0400355Y0408565D01*
X0400410Y0408588D01*
X0400465Y0408615D01*
X0400517Y0408644D01*
X0400568Y0408677D01*
X0400617Y0408713D01*
X0400663Y0408751D01*
X0400707Y0408793D01*
X0400749Y0408837D01*
X0400787Y0408883D01*
X0400823Y0408932D01*
X0400856Y0408983D01*
X0400885Y0409035D01*
X0400912Y0409090D01*
X0400935Y0409145D01*
X0400955Y0409202D01*
X0400971Y0409261D01*
X0400984Y0409320D01*
X0400993Y0409379D01*
X0400998Y0409440D01*
X0401000Y0409500D01*
X0401000Y0422500D01*
X0400998Y0422560D01*
X0400993Y0422621D01*
X0400984Y0422680D01*
X0400971Y0422739D01*
X0400955Y0422798D01*
X0400935Y0422855D01*
X0400912Y0422910D01*
X0400885Y0422965D01*
X0400856Y0423017D01*
X0400823Y0423068D01*
X0400787Y0423117D01*
X0400749Y0423163D01*
X0400707Y0423207D01*
X0400663Y0423249D01*
X0400617Y0423287D01*
X0400568Y0423323D01*
X0400517Y0423356D01*
X0400465Y0423385D01*
X0400410Y0423412D01*
X0400355Y0423435D01*
X0400298Y0423455D01*
X0400239Y0423471D01*
X0400180Y0423484D01*
X0400121Y0423493D01*
X0400060Y0423498D01*
X0400000Y0423500D01*
X0383000Y0423500D01*
X0382940Y0423498D01*
X0382879Y0423493D01*
X0382820Y0423484D01*
X0382761Y0423471D01*
X0382702Y0423455D01*
X0382645Y0423435D01*
X0382590Y0423412D01*
X0382535Y0423385D01*
X0382483Y0423356D01*
X0382432Y0423323D01*
X0382383Y0423287D01*
X0382337Y0423249D01*
X0382293Y0423207D01*
X0382251Y0423163D01*
X0382213Y0423117D01*
X0382177Y0423068D01*
X0382144Y0423017D01*
X0382115Y0422965D01*
X0382088Y0422910D01*
X0382065Y0422855D01*
X0382045Y0422798D01*
X0382029Y0422739D01*
X0382016Y0422680D01*
X0382007Y0422621D01*
X0382002Y0422560D01*
X0382000Y0422500D01*
X0382000Y0409500D01*
X0382002Y0409440D01*
X0382007Y0409379D01*
X0382016Y0409320D01*
X0382029Y0409261D01*
X0382045Y0409202D01*
X0382065Y0409145D01*
X0382088Y0409090D01*
X0382115Y0409035D01*
X0382144Y0408983D01*
X0382177Y0408932D01*
X0382213Y0408883D01*
X0382251Y0408837D01*
X0382293Y0408793D01*
X0382337Y0408751D01*
X0382383Y0408713D01*
X0382432Y0408677D01*
X0382483Y0408644D01*
X0382535Y0408615D01*
X0382590Y0408588D01*
X0382645Y0408565D01*
X0382702Y0408545D01*
X0382761Y0408529D01*
X0382820Y0408516D01*
X0382879Y0408507D01*
X0382940Y0408502D01*
X0383000Y0408500D01*
X0390000Y0416000D02*
X0390500Y0416000D01*
X0392500Y0416000D02*
X0393000Y0416000D01*
X0450000Y0406000D02*
X0457500Y0406000D01*
X0457502Y0405874D01*
X0457508Y0405749D01*
X0457518Y0405624D01*
X0457532Y0405499D01*
X0457549Y0405374D01*
X0457571Y0405250D01*
X0457596Y0405127D01*
X0457626Y0405005D01*
X0457659Y0404884D01*
X0457696Y0404764D01*
X0457736Y0404645D01*
X0457781Y0404528D01*
X0457829Y0404411D01*
X0457881Y0404297D01*
X0457936Y0404184D01*
X0457995Y0404073D01*
X0458057Y0403964D01*
X0458123Y0403857D01*
X0458192Y0403752D01*
X0458264Y0403649D01*
X0458339Y0403548D01*
X0458418Y0403450D01*
X0458500Y0403355D01*
X0458584Y0403262D01*
X0458672Y0403172D01*
X0458762Y0403084D01*
X0458855Y0403000D01*
X0458950Y0402918D01*
X0459048Y0402839D01*
X0459149Y0402764D01*
X0459252Y0402692D01*
X0459357Y0402623D01*
X0459464Y0402557D01*
X0459573Y0402495D01*
X0459684Y0402436D01*
X0459797Y0402381D01*
X0459911Y0402329D01*
X0460028Y0402281D01*
X0460145Y0402236D01*
X0460264Y0402196D01*
X0460384Y0402159D01*
X0460505Y0402126D01*
X0460627Y0402096D01*
X0460750Y0402071D01*
X0460874Y0402049D01*
X0460999Y0402032D01*
X0461124Y0402018D01*
X0461249Y0402008D01*
X0461374Y0402002D01*
X0461500Y0402000D01*
X0461626Y0402002D01*
X0461751Y0402008D01*
X0461876Y0402018D01*
X0462001Y0402032D01*
X0462126Y0402049D01*
X0462250Y0402071D01*
X0462373Y0402096D01*
X0462495Y0402126D01*
X0462616Y0402159D01*
X0462736Y0402196D01*
X0462855Y0402236D01*
X0462972Y0402281D01*
X0463089Y0402329D01*
X0463203Y0402381D01*
X0463316Y0402436D01*
X0463427Y0402495D01*
X0463536Y0402557D01*
X0463643Y0402623D01*
X0463748Y0402692D01*
X0463851Y0402764D01*
X0463952Y0402839D01*
X0464050Y0402918D01*
X0464145Y0403000D01*
X0464238Y0403084D01*
X0464328Y0403172D01*
X0464416Y0403262D01*
X0464500Y0403355D01*
X0464582Y0403450D01*
X0464661Y0403548D01*
X0464736Y0403649D01*
X0464808Y0403752D01*
X0464877Y0403857D01*
X0464943Y0403964D01*
X0465005Y0404073D01*
X0465064Y0404184D01*
X0465119Y0404297D01*
X0465171Y0404411D01*
X0465219Y0404528D01*
X0465264Y0404645D01*
X0465304Y0404764D01*
X0465341Y0404884D01*
X0465374Y0405005D01*
X0465404Y0405127D01*
X0465429Y0405250D01*
X0465451Y0405374D01*
X0465468Y0405499D01*
X0465482Y0405624D01*
X0465492Y0405749D01*
X0465498Y0405874D01*
X0465500Y0406000D01*
X0473000Y0406000D01*
X0473000Y0306000D01*
X0450000Y0306000D01*
X0450000Y0406000D01*
X0453000Y0408500D02*
X0470000Y0408500D01*
X0470060Y0408502D01*
X0470121Y0408507D01*
X0470180Y0408516D01*
X0470239Y0408529D01*
X0470298Y0408545D01*
X0470355Y0408565D01*
X0470410Y0408588D01*
X0470465Y0408615D01*
X0470517Y0408644D01*
X0470568Y0408677D01*
X0470617Y0408713D01*
X0470663Y0408751D01*
X0470707Y0408793D01*
X0470749Y0408837D01*
X0470787Y0408883D01*
X0470823Y0408932D01*
X0470856Y0408983D01*
X0470885Y0409035D01*
X0470912Y0409090D01*
X0470935Y0409145D01*
X0470955Y0409202D01*
X0470971Y0409261D01*
X0470984Y0409320D01*
X0470993Y0409379D01*
X0470998Y0409440D01*
X0471000Y0409500D01*
X0471000Y0422500D01*
X0470998Y0422560D01*
X0470993Y0422621D01*
X0470984Y0422680D01*
X0470971Y0422739D01*
X0470955Y0422798D01*
X0470935Y0422855D01*
X0470912Y0422910D01*
X0470885Y0422965D01*
X0470856Y0423017D01*
X0470823Y0423068D01*
X0470787Y0423117D01*
X0470749Y0423163D01*
X0470707Y0423207D01*
X0470663Y0423249D01*
X0470617Y0423287D01*
X0470568Y0423323D01*
X0470517Y0423356D01*
X0470465Y0423385D01*
X0470410Y0423412D01*
X0470355Y0423435D01*
X0470298Y0423455D01*
X0470239Y0423471D01*
X0470180Y0423484D01*
X0470121Y0423493D01*
X0470060Y0423498D01*
X0470000Y0423500D01*
X0453000Y0423500D01*
X0452940Y0423498D01*
X0452879Y0423493D01*
X0452820Y0423484D01*
X0452761Y0423471D01*
X0452702Y0423455D01*
X0452645Y0423435D01*
X0452590Y0423412D01*
X0452535Y0423385D01*
X0452483Y0423356D01*
X0452432Y0423323D01*
X0452383Y0423287D01*
X0452337Y0423249D01*
X0452293Y0423207D01*
X0452251Y0423163D01*
X0452213Y0423117D01*
X0452177Y0423068D01*
X0452144Y0423017D01*
X0452115Y0422965D01*
X0452088Y0422910D01*
X0452065Y0422855D01*
X0452045Y0422798D01*
X0452029Y0422739D01*
X0452016Y0422680D01*
X0452007Y0422621D01*
X0452002Y0422560D01*
X0452000Y0422500D01*
X0452000Y0409500D01*
X0452002Y0409440D01*
X0452007Y0409379D01*
X0452016Y0409320D01*
X0452029Y0409261D01*
X0452045Y0409202D01*
X0452065Y0409145D01*
X0452088Y0409090D01*
X0452115Y0409035D01*
X0452144Y0408983D01*
X0452177Y0408932D01*
X0452213Y0408883D01*
X0452251Y0408837D01*
X0452293Y0408793D01*
X0452337Y0408751D01*
X0452383Y0408713D01*
X0452432Y0408677D01*
X0452483Y0408644D01*
X0452535Y0408615D01*
X0452590Y0408588D01*
X0452645Y0408565D01*
X0452702Y0408545D01*
X0452761Y0408529D01*
X0452820Y0408516D01*
X0452879Y0408507D01*
X0452940Y0408502D01*
X0453000Y0408500D01*
X0460000Y0416000D02*
X0460500Y0416000D01*
X0462500Y0416000D02*
X0463000Y0416000D01*
X0600000Y0406000D02*
X0607500Y0406000D01*
X0607502Y0405874D01*
X0607508Y0405749D01*
X0607518Y0405624D01*
X0607532Y0405499D01*
X0607549Y0405374D01*
X0607571Y0405250D01*
X0607596Y0405127D01*
X0607626Y0405005D01*
X0607659Y0404884D01*
X0607696Y0404764D01*
X0607736Y0404645D01*
X0607781Y0404528D01*
X0607829Y0404411D01*
X0607881Y0404297D01*
X0607936Y0404184D01*
X0607995Y0404073D01*
X0608057Y0403964D01*
X0608123Y0403857D01*
X0608192Y0403752D01*
X0608264Y0403649D01*
X0608339Y0403548D01*
X0608418Y0403450D01*
X0608500Y0403355D01*
X0608584Y0403262D01*
X0608672Y0403172D01*
X0608762Y0403084D01*
X0608855Y0403000D01*
X0608950Y0402918D01*
X0609048Y0402839D01*
X0609149Y0402764D01*
X0609252Y0402692D01*
X0609357Y0402623D01*
X0609464Y0402557D01*
X0609573Y0402495D01*
X0609684Y0402436D01*
X0609797Y0402381D01*
X0609911Y0402329D01*
X0610028Y0402281D01*
X0610145Y0402236D01*
X0610264Y0402196D01*
X0610384Y0402159D01*
X0610505Y0402126D01*
X0610627Y0402096D01*
X0610750Y0402071D01*
X0610874Y0402049D01*
X0610999Y0402032D01*
X0611124Y0402018D01*
X0611249Y0402008D01*
X0611374Y0402002D01*
X0611500Y0402000D01*
X0611626Y0402002D01*
X0611751Y0402008D01*
X0611876Y0402018D01*
X0612001Y0402032D01*
X0612126Y0402049D01*
X0612250Y0402071D01*
X0612373Y0402096D01*
X0612495Y0402126D01*
X0612616Y0402159D01*
X0612736Y0402196D01*
X0612855Y0402236D01*
X0612972Y0402281D01*
X0613089Y0402329D01*
X0613203Y0402381D01*
X0613316Y0402436D01*
X0613427Y0402495D01*
X0613536Y0402557D01*
X0613643Y0402623D01*
X0613748Y0402692D01*
X0613851Y0402764D01*
X0613952Y0402839D01*
X0614050Y0402918D01*
X0614145Y0403000D01*
X0614238Y0403084D01*
X0614328Y0403172D01*
X0614416Y0403262D01*
X0614500Y0403355D01*
X0614582Y0403450D01*
X0614661Y0403548D01*
X0614736Y0403649D01*
X0614808Y0403752D01*
X0614877Y0403857D01*
X0614943Y0403964D01*
X0615005Y0404073D01*
X0615064Y0404184D01*
X0615119Y0404297D01*
X0615171Y0404411D01*
X0615219Y0404528D01*
X0615264Y0404645D01*
X0615304Y0404764D01*
X0615341Y0404884D01*
X0615374Y0405005D01*
X0615404Y0405127D01*
X0615429Y0405250D01*
X0615451Y0405374D01*
X0615468Y0405499D01*
X0615482Y0405624D01*
X0615492Y0405749D01*
X0615498Y0405874D01*
X0615500Y0406000D01*
X0623000Y0406000D01*
X0623000Y0306000D01*
X0600000Y0306000D01*
X0600000Y0406000D01*
X0603000Y0408500D02*
X0620000Y0408500D01*
X0620060Y0408502D01*
X0620121Y0408507D01*
X0620180Y0408516D01*
X0620239Y0408529D01*
X0620298Y0408545D01*
X0620355Y0408565D01*
X0620410Y0408588D01*
X0620465Y0408615D01*
X0620517Y0408644D01*
X0620568Y0408677D01*
X0620617Y0408713D01*
X0620663Y0408751D01*
X0620707Y0408793D01*
X0620749Y0408837D01*
X0620787Y0408883D01*
X0620823Y0408932D01*
X0620856Y0408983D01*
X0620885Y0409035D01*
X0620912Y0409090D01*
X0620935Y0409145D01*
X0620955Y0409202D01*
X0620971Y0409261D01*
X0620984Y0409320D01*
X0620993Y0409379D01*
X0620998Y0409440D01*
X0621000Y0409500D01*
X0621000Y0422500D01*
X0620998Y0422560D01*
X0620993Y0422621D01*
X0620984Y0422680D01*
X0620971Y0422739D01*
X0620955Y0422798D01*
X0620935Y0422855D01*
X0620912Y0422910D01*
X0620885Y0422965D01*
X0620856Y0423017D01*
X0620823Y0423068D01*
X0620787Y0423117D01*
X0620749Y0423163D01*
X0620707Y0423207D01*
X0620663Y0423249D01*
X0620617Y0423287D01*
X0620568Y0423323D01*
X0620517Y0423356D01*
X0620465Y0423385D01*
X0620410Y0423412D01*
X0620355Y0423435D01*
X0620298Y0423455D01*
X0620239Y0423471D01*
X0620180Y0423484D01*
X0620121Y0423493D01*
X0620060Y0423498D01*
X0620000Y0423500D01*
X0603000Y0423500D01*
X0602940Y0423498D01*
X0602879Y0423493D01*
X0602820Y0423484D01*
X0602761Y0423471D01*
X0602702Y0423455D01*
X0602645Y0423435D01*
X0602590Y0423412D01*
X0602535Y0423385D01*
X0602483Y0423356D01*
X0602432Y0423323D01*
X0602383Y0423287D01*
X0602337Y0423249D01*
X0602293Y0423207D01*
X0602251Y0423163D01*
X0602213Y0423117D01*
X0602177Y0423068D01*
X0602144Y0423017D01*
X0602115Y0422965D01*
X0602088Y0422910D01*
X0602065Y0422855D01*
X0602045Y0422798D01*
X0602029Y0422739D01*
X0602016Y0422680D01*
X0602007Y0422621D01*
X0602002Y0422560D01*
X0602000Y0422500D01*
X0602000Y0409500D01*
X0602002Y0409440D01*
X0602007Y0409379D01*
X0602016Y0409320D01*
X0602029Y0409261D01*
X0602045Y0409202D01*
X0602065Y0409145D01*
X0602088Y0409090D01*
X0602115Y0409035D01*
X0602144Y0408983D01*
X0602177Y0408932D01*
X0602213Y0408883D01*
X0602251Y0408837D01*
X0602293Y0408793D01*
X0602337Y0408751D01*
X0602383Y0408713D01*
X0602432Y0408677D01*
X0602483Y0408644D01*
X0602535Y0408615D01*
X0602590Y0408588D01*
X0602645Y0408565D01*
X0602702Y0408545D01*
X0602761Y0408529D01*
X0602820Y0408516D01*
X0602879Y0408507D01*
X0602940Y0408502D01*
X0603000Y0408500D01*
X0610000Y0416000D02*
X0610500Y0416000D01*
X0612500Y0416000D02*
X0613000Y0416000D01*
X0649000Y0432500D02*
X0649000Y0439500D01*
X0649002Y0439560D01*
X0649007Y0439621D01*
X0649016Y0439680D01*
X0649029Y0439739D01*
X0649045Y0439798D01*
X0649065Y0439855D01*
X0649088Y0439910D01*
X0649115Y0439965D01*
X0649144Y0440017D01*
X0649177Y0440068D01*
X0649213Y0440117D01*
X0649251Y0440163D01*
X0649293Y0440207D01*
X0649337Y0440249D01*
X0649383Y0440287D01*
X0649432Y0440323D01*
X0649483Y0440356D01*
X0649535Y0440385D01*
X0649590Y0440412D01*
X0649645Y0440435D01*
X0649702Y0440455D01*
X0649761Y0440471D01*
X0649820Y0440484D01*
X0649879Y0440493D01*
X0649940Y0440498D01*
X0650000Y0440500D01*
X0651500Y0440500D01*
X0652000Y0440000D01*
X0671000Y0440000D01*
X0671500Y0440500D01*
X0673000Y0440500D01*
X0673060Y0440498D01*
X0673121Y0440493D01*
X0673180Y0440484D01*
X0673239Y0440471D01*
X0673298Y0440455D01*
X0673355Y0440435D01*
X0673410Y0440412D01*
X0673465Y0440385D01*
X0673517Y0440356D01*
X0673568Y0440323D01*
X0673617Y0440287D01*
X0673663Y0440249D01*
X0673707Y0440207D01*
X0673749Y0440163D01*
X0673787Y0440117D01*
X0673823Y0440068D01*
X0673856Y0440017D01*
X0673885Y0439965D01*
X0673912Y0439910D01*
X0673935Y0439855D01*
X0673955Y0439798D01*
X0673971Y0439739D01*
X0673984Y0439680D01*
X0673993Y0439621D01*
X0673998Y0439560D01*
X0674000Y0439500D01*
X0674000Y0432500D01*
X0673998Y0432440D01*
X0673993Y0432379D01*
X0673984Y0432320D01*
X0673971Y0432261D01*
X0673955Y0432202D01*
X0673935Y0432145D01*
X0673912Y0432090D01*
X0673885Y0432035D01*
X0673856Y0431983D01*
X0673823Y0431932D01*
X0673787Y0431883D01*
X0673749Y0431837D01*
X0673707Y0431793D01*
X0673663Y0431751D01*
X0673617Y0431713D01*
X0673568Y0431677D01*
X0673517Y0431644D01*
X0673465Y0431615D01*
X0673410Y0431588D01*
X0673355Y0431565D01*
X0673298Y0431545D01*
X0673239Y0431529D01*
X0673180Y0431516D01*
X0673121Y0431507D01*
X0673060Y0431502D01*
X0673000Y0431500D01*
X0671500Y0431500D01*
X0671000Y0432000D01*
X0652000Y0432000D01*
X0651500Y0431500D01*
X0650000Y0431500D01*
X0649940Y0431502D01*
X0649879Y0431507D01*
X0649820Y0431516D01*
X0649761Y0431529D01*
X0649702Y0431545D01*
X0649645Y0431565D01*
X0649590Y0431588D01*
X0649535Y0431615D01*
X0649483Y0431644D01*
X0649432Y0431677D01*
X0649383Y0431713D01*
X0649337Y0431751D01*
X0649293Y0431793D01*
X0649251Y0431837D01*
X0649213Y0431883D01*
X0649177Y0431932D01*
X0649144Y0431983D01*
X0649115Y0432035D01*
X0649088Y0432090D01*
X0649065Y0432145D01*
X0649045Y0432202D01*
X0649029Y0432261D01*
X0649016Y0432320D01*
X0649007Y0432379D01*
X0649002Y0432440D01*
X0649000Y0432500D01*
X0676800Y0427705D02*
X0676800Y0421300D01*
X0676800Y0424503D02*
X0678935Y0424503D01*
X0676800Y0427705D02*
X0681070Y0427705D01*
X0683245Y0427705D02*
X0686448Y0427705D01*
X0687516Y0426638D01*
X0687516Y0424503D01*
X0686448Y0423435D01*
X0683245Y0423435D01*
X0683245Y0421300D02*
X0683245Y0427705D01*
X0689691Y0424503D02*
X0693961Y0424503D01*
X0696136Y0424503D02*
X0698272Y0424503D01*
X0700407Y0427705D02*
X0696136Y0427705D01*
X0696136Y0421300D01*
X0700407Y0421300D01*
X0702582Y0421300D02*
X0702582Y0427705D01*
X0706852Y0421300D01*
X0706852Y0427705D01*
X0709027Y0425570D02*
X0709027Y0421300D01*
X0709027Y0424503D02*
X0713298Y0424503D01*
X0713298Y0425570D02*
X0713298Y0421300D01*
X0715473Y0421300D02*
X0718676Y0421300D01*
X0719743Y0422368D01*
X0719743Y0423435D01*
X0718676Y0424503D01*
X0715473Y0424503D01*
X0713298Y0425570D02*
X0711163Y0427705D01*
X0709027Y0425570D01*
X0715473Y0427705D02*
X0718676Y0427705D01*
X0719743Y0426638D01*
X0719743Y0425570D01*
X0718676Y0424503D01*
X0715473Y0421300D02*
X0715473Y0427705D01*
X0721918Y0427705D02*
X0721918Y0421300D01*
X0726189Y0421300D01*
X0728364Y0421300D02*
X0732634Y0421300D01*
X0730499Y0424503D02*
X0728364Y0424503D01*
X0728364Y0427705D02*
X0728364Y0421300D01*
X0728364Y0427705D02*
X0732634Y0427705D01*
X0719000Y0411000D02*
X0721500Y0408500D01*
X0721500Y0403500D01*
X0719000Y0401000D01*
X0704000Y0401000D01*
X0701500Y0398500D01*
X0701500Y0393500D01*
X0704000Y0391000D01*
X0719000Y0391000D01*
X0721500Y0388500D01*
X0721500Y0383500D01*
X0719000Y0381000D01*
X0704000Y0381000D01*
X0701500Y0378500D01*
X0701500Y0373500D01*
X0704000Y0371000D01*
X0719000Y0371000D01*
X0721500Y0368500D01*
X0721500Y0363500D01*
X0719000Y0361000D01*
X0704000Y0361000D01*
X0701500Y0358500D01*
X0701500Y0353500D01*
X0704000Y0351000D01*
X0719000Y0351000D01*
X0721500Y0348500D01*
X0721500Y0343500D01*
X0719000Y0341000D01*
X0704000Y0341000D01*
X0701500Y0343500D01*
X0701500Y0348500D01*
X0704000Y0351000D01*
X0704000Y0341000D02*
X0701500Y0338500D01*
X0701500Y0333500D01*
X0704000Y0331000D01*
X0719000Y0331000D01*
X0721500Y0328500D01*
X0721500Y0323500D01*
X0719000Y0321000D01*
X0704000Y0321000D01*
X0701500Y0323500D01*
X0701500Y0328500D01*
X0704000Y0331000D01*
X0704000Y0321000D02*
X0701500Y0318500D01*
X0701500Y0313500D01*
X0704000Y0311000D01*
X0719000Y0311000D01*
X0721500Y0308500D01*
X0721500Y0303500D01*
X0719000Y0301000D01*
X0704000Y0301000D01*
X0701500Y0303500D01*
X0701500Y0308500D01*
X0704000Y0311000D01*
X0704000Y0301000D02*
X0701500Y0298500D01*
X0701500Y0293500D01*
X0704000Y0291000D01*
X0719000Y0291000D01*
X0721500Y0288500D01*
X0721500Y0283500D01*
X0719000Y0281000D01*
X0704000Y0281000D01*
X0701500Y0283500D01*
X0701500Y0288500D01*
X0704000Y0291000D01*
X0704000Y0281000D02*
X0701500Y0278500D01*
X0701500Y0273500D01*
X0704000Y0271000D01*
X0719000Y0271000D01*
X0721500Y0268500D01*
X0721500Y0263500D01*
X0719000Y0261000D01*
X0704000Y0261000D01*
X0701500Y0263500D01*
X0701500Y0268500D01*
X0704000Y0271000D01*
X0719000Y0271000D02*
X0721500Y0273500D01*
X0721500Y0278500D01*
X0719000Y0281000D01*
X0719000Y0291000D02*
X0721500Y0293500D01*
X0721500Y0298500D01*
X0719000Y0301000D01*
X0719000Y0311000D02*
X0721500Y0313500D01*
X0721500Y0318500D01*
X0719000Y0321000D01*
X0719000Y0331000D02*
X0721500Y0333500D01*
X0721500Y0338500D01*
X0719000Y0341000D01*
X0719000Y0351000D02*
X0721500Y0353500D01*
X0721500Y0358500D01*
X0719000Y0361000D01*
X0719000Y0371000D02*
X0721500Y0373500D01*
X0721500Y0378500D01*
X0719000Y0381000D01*
X0719000Y0391000D02*
X0721500Y0393500D01*
X0721500Y0398500D01*
X0719000Y0401000D01*
X0704000Y0401000D02*
X0701500Y0403500D01*
X0701500Y0408500D01*
X0704000Y0411000D01*
X0719000Y0411000D01*
X0696200Y0411300D02*
X0696200Y0415570D01*
X0696200Y0413435D02*
X0689795Y0413435D01*
X0691930Y0411300D01*
X0704000Y0391000D02*
X0701500Y0388500D01*
X0701500Y0383500D01*
X0704000Y0381000D01*
X0704000Y0371000D02*
X0701500Y0368500D01*
X0701500Y0363500D01*
X0704000Y0361000D01*
X0620000Y0293500D02*
X0603000Y0293500D01*
X0602940Y0293498D01*
X0602879Y0293493D01*
X0602820Y0293484D01*
X0602761Y0293471D01*
X0602702Y0293455D01*
X0602645Y0293435D01*
X0602590Y0293412D01*
X0602535Y0293385D01*
X0602483Y0293356D01*
X0602432Y0293323D01*
X0602383Y0293287D01*
X0602337Y0293249D01*
X0602293Y0293207D01*
X0602251Y0293163D01*
X0602213Y0293117D01*
X0602177Y0293068D01*
X0602144Y0293017D01*
X0602115Y0292965D01*
X0602088Y0292910D01*
X0602065Y0292855D01*
X0602045Y0292798D01*
X0602029Y0292739D01*
X0602016Y0292680D01*
X0602007Y0292621D01*
X0602002Y0292560D01*
X0602000Y0292500D01*
X0602000Y0279500D01*
X0602002Y0279440D01*
X0602007Y0279379D01*
X0602016Y0279320D01*
X0602029Y0279261D01*
X0602045Y0279202D01*
X0602065Y0279145D01*
X0602088Y0279090D01*
X0602115Y0279035D01*
X0602144Y0278983D01*
X0602177Y0278932D01*
X0602213Y0278883D01*
X0602251Y0278837D01*
X0602293Y0278793D01*
X0602337Y0278751D01*
X0602383Y0278713D01*
X0602432Y0278677D01*
X0602483Y0278644D01*
X0602535Y0278615D01*
X0602590Y0278588D01*
X0602645Y0278565D01*
X0602702Y0278545D01*
X0602761Y0278529D01*
X0602820Y0278516D01*
X0602879Y0278507D01*
X0602940Y0278502D01*
X0603000Y0278500D01*
X0620000Y0278500D01*
X0620060Y0278502D01*
X0620121Y0278507D01*
X0620180Y0278516D01*
X0620239Y0278529D01*
X0620298Y0278545D01*
X0620355Y0278565D01*
X0620410Y0278588D01*
X0620465Y0278615D01*
X0620517Y0278644D01*
X0620568Y0278677D01*
X0620617Y0278713D01*
X0620663Y0278751D01*
X0620707Y0278793D01*
X0620749Y0278837D01*
X0620787Y0278883D01*
X0620823Y0278932D01*
X0620856Y0278983D01*
X0620885Y0279035D01*
X0620912Y0279090D01*
X0620935Y0279145D01*
X0620955Y0279202D01*
X0620971Y0279261D01*
X0620984Y0279320D01*
X0620993Y0279379D01*
X0620998Y0279440D01*
X0621000Y0279500D01*
X0621000Y0292500D01*
X0620998Y0292560D01*
X0620993Y0292621D01*
X0620984Y0292680D01*
X0620971Y0292739D01*
X0620955Y0292798D01*
X0620935Y0292855D01*
X0620912Y0292910D01*
X0620885Y0292965D01*
X0620856Y0293017D01*
X0620823Y0293068D01*
X0620787Y0293117D01*
X0620749Y0293163D01*
X0620707Y0293207D01*
X0620663Y0293249D01*
X0620617Y0293287D01*
X0620568Y0293323D01*
X0620517Y0293356D01*
X0620465Y0293385D01*
X0620410Y0293412D01*
X0620355Y0293435D01*
X0620298Y0293455D01*
X0620239Y0293471D01*
X0620180Y0293484D01*
X0620121Y0293493D01*
X0620060Y0293498D01*
X0620000Y0293500D01*
X0613000Y0286000D02*
X0612500Y0286000D01*
X0610500Y0286000D02*
X0610000Y0286000D01*
X0607500Y0276000D02*
X0607502Y0275874D01*
X0607508Y0275749D01*
X0607518Y0275624D01*
X0607532Y0275499D01*
X0607549Y0275374D01*
X0607571Y0275250D01*
X0607596Y0275127D01*
X0607626Y0275005D01*
X0607659Y0274884D01*
X0607696Y0274764D01*
X0607736Y0274645D01*
X0607781Y0274528D01*
X0607829Y0274411D01*
X0607881Y0274297D01*
X0607936Y0274184D01*
X0607995Y0274073D01*
X0608057Y0273964D01*
X0608123Y0273857D01*
X0608192Y0273752D01*
X0608264Y0273649D01*
X0608339Y0273548D01*
X0608418Y0273450D01*
X0608500Y0273355D01*
X0608584Y0273262D01*
X0608672Y0273172D01*
X0608762Y0273084D01*
X0608855Y0273000D01*
X0608950Y0272918D01*
X0609048Y0272839D01*
X0609149Y0272764D01*
X0609252Y0272692D01*
X0609357Y0272623D01*
X0609464Y0272557D01*
X0609573Y0272495D01*
X0609684Y0272436D01*
X0609797Y0272381D01*
X0609911Y0272329D01*
X0610028Y0272281D01*
X0610145Y0272236D01*
X0610264Y0272196D01*
X0610384Y0272159D01*
X0610505Y0272126D01*
X0610627Y0272096D01*
X0610750Y0272071D01*
X0610874Y0272049D01*
X0610999Y0272032D01*
X0611124Y0272018D01*
X0611249Y0272008D01*
X0611374Y0272002D01*
X0611500Y0272000D01*
X0611626Y0272002D01*
X0611751Y0272008D01*
X0611876Y0272018D01*
X0612001Y0272032D01*
X0612126Y0272049D01*
X0612250Y0272071D01*
X0612373Y0272096D01*
X0612495Y0272126D01*
X0612616Y0272159D01*
X0612736Y0272196D01*
X0612855Y0272236D01*
X0612972Y0272281D01*
X0613089Y0272329D01*
X0613203Y0272381D01*
X0613316Y0272436D01*
X0613427Y0272495D01*
X0613536Y0272557D01*
X0613643Y0272623D01*
X0613748Y0272692D01*
X0613851Y0272764D01*
X0613952Y0272839D01*
X0614050Y0272918D01*
X0614145Y0273000D01*
X0614238Y0273084D01*
X0614328Y0273172D01*
X0614416Y0273262D01*
X0614500Y0273355D01*
X0614582Y0273450D01*
X0614661Y0273548D01*
X0614736Y0273649D01*
X0614808Y0273752D01*
X0614877Y0273857D01*
X0614943Y0273964D01*
X0615005Y0274073D01*
X0615064Y0274184D01*
X0615119Y0274297D01*
X0615171Y0274411D01*
X0615219Y0274528D01*
X0615264Y0274645D01*
X0615304Y0274764D01*
X0615341Y0274884D01*
X0615374Y0275005D01*
X0615404Y0275127D01*
X0615429Y0275250D01*
X0615451Y0275374D01*
X0615468Y0275499D01*
X0615482Y0275624D01*
X0615492Y0275749D01*
X0615498Y0275874D01*
X0615500Y0276000D01*
X0623000Y0276000D01*
X0623000Y0176000D01*
X0600000Y0176000D01*
X0600000Y0276000D01*
X0607500Y0276000D01*
X0701500Y0258500D02*
X0701500Y0253500D01*
X0704000Y0251000D01*
X0719000Y0251000D01*
X0721500Y0248500D01*
X0721500Y0243500D01*
X0719000Y0241000D01*
X0704000Y0241000D01*
X0701500Y0243500D01*
X0701500Y0248500D01*
X0704000Y0251000D01*
X0701500Y0258500D02*
X0704000Y0261000D01*
X0719000Y0261000D02*
X0721500Y0258500D01*
X0721500Y0253500D01*
X0719000Y0251000D01*
X0719000Y0241000D02*
X0721500Y0238500D01*
X0721500Y0233500D01*
X0719000Y0231000D01*
X0704000Y0231000D01*
X0701500Y0233500D01*
X0701500Y0238500D01*
X0704000Y0241000D01*
X0704000Y0231000D02*
X0701500Y0228500D01*
X0701500Y0223500D01*
X0704000Y0221000D01*
X0701500Y0218500D01*
X0701500Y0213500D01*
X0704000Y0211000D01*
X0719000Y0211000D01*
X0721500Y0213500D01*
X0721500Y0218500D01*
X0719000Y0221000D01*
X0704000Y0221000D01*
X0719000Y0221000D02*
X0721500Y0223500D01*
X0721500Y0228500D01*
X0719000Y0231000D01*
X0621000Y0147500D02*
X0621000Y0134500D01*
X0620998Y0134440D01*
X0620993Y0134379D01*
X0620984Y0134320D01*
X0620971Y0134261D01*
X0620955Y0134202D01*
X0620935Y0134145D01*
X0620912Y0134090D01*
X0620885Y0134035D01*
X0620856Y0133983D01*
X0620823Y0133932D01*
X0620787Y0133883D01*
X0620749Y0133837D01*
X0620707Y0133793D01*
X0620663Y0133751D01*
X0620617Y0133713D01*
X0620568Y0133677D01*
X0620517Y0133644D01*
X0620465Y0133615D01*
X0620410Y0133588D01*
X0620355Y0133565D01*
X0620298Y0133545D01*
X0620239Y0133529D01*
X0620180Y0133516D01*
X0620121Y0133507D01*
X0620060Y0133502D01*
X0620000Y0133500D01*
X0603000Y0133500D01*
X0602940Y0133502D01*
X0602879Y0133507D01*
X0602820Y0133516D01*
X0602761Y0133529D01*
X0602702Y0133545D01*
X0602645Y0133565D01*
X0602590Y0133588D01*
X0602535Y0133615D01*
X0602483Y0133644D01*
X0602432Y0133677D01*
X0602383Y0133713D01*
X0602337Y0133751D01*
X0602293Y0133793D01*
X0602251Y0133837D01*
X0602213Y0133883D01*
X0602177Y0133932D01*
X0602144Y0133983D01*
X0602115Y0134035D01*
X0602088Y0134090D01*
X0602065Y0134145D01*
X0602045Y0134202D01*
X0602029Y0134261D01*
X0602016Y0134320D01*
X0602007Y0134379D01*
X0602002Y0134440D01*
X0602000Y0134500D01*
X0602000Y0147500D01*
X0602002Y0147560D01*
X0602007Y0147621D01*
X0602016Y0147680D01*
X0602029Y0147739D01*
X0602045Y0147798D01*
X0602065Y0147855D01*
X0602088Y0147910D01*
X0602115Y0147965D01*
X0602144Y0148017D01*
X0602177Y0148068D01*
X0602213Y0148117D01*
X0602251Y0148163D01*
X0602293Y0148207D01*
X0602337Y0148249D01*
X0602383Y0148287D01*
X0602432Y0148323D01*
X0602483Y0148356D01*
X0602535Y0148385D01*
X0602590Y0148412D01*
X0602645Y0148435D01*
X0602702Y0148455D01*
X0602761Y0148471D01*
X0602820Y0148484D01*
X0602879Y0148493D01*
X0602940Y0148498D01*
X0603000Y0148500D01*
X0620000Y0148500D01*
X0620060Y0148498D01*
X0620121Y0148493D01*
X0620180Y0148484D01*
X0620239Y0148471D01*
X0620298Y0148455D01*
X0620355Y0148435D01*
X0620410Y0148412D01*
X0620465Y0148385D01*
X0620517Y0148356D01*
X0620568Y0148323D01*
X0620617Y0148287D01*
X0620663Y0148249D01*
X0620707Y0148207D01*
X0620749Y0148163D01*
X0620787Y0148117D01*
X0620823Y0148068D01*
X0620856Y0148017D01*
X0620885Y0147965D01*
X0620912Y0147910D01*
X0620935Y0147855D01*
X0620955Y0147798D01*
X0620971Y0147739D01*
X0620984Y0147680D01*
X0620993Y0147621D01*
X0620998Y0147560D01*
X0621000Y0147500D01*
X0613000Y0141000D02*
X0612500Y0141000D01*
X0610500Y0141000D02*
X0610000Y0141000D01*
X0607500Y0131000D02*
X0607502Y0130874D01*
X0607508Y0130749D01*
X0607518Y0130624D01*
X0607532Y0130499D01*
X0607549Y0130374D01*
X0607571Y0130250D01*
X0607596Y0130127D01*
X0607626Y0130005D01*
X0607659Y0129884D01*
X0607696Y0129764D01*
X0607736Y0129645D01*
X0607781Y0129528D01*
X0607829Y0129411D01*
X0607881Y0129297D01*
X0607936Y0129184D01*
X0607995Y0129073D01*
X0608057Y0128964D01*
X0608123Y0128857D01*
X0608192Y0128752D01*
X0608264Y0128649D01*
X0608339Y0128548D01*
X0608418Y0128450D01*
X0608500Y0128355D01*
X0608584Y0128262D01*
X0608672Y0128172D01*
X0608762Y0128084D01*
X0608855Y0128000D01*
X0608950Y0127918D01*
X0609048Y0127839D01*
X0609149Y0127764D01*
X0609252Y0127692D01*
X0609357Y0127623D01*
X0609464Y0127557D01*
X0609573Y0127495D01*
X0609684Y0127436D01*
X0609797Y0127381D01*
X0609911Y0127329D01*
X0610028Y0127281D01*
X0610145Y0127236D01*
X0610264Y0127196D01*
X0610384Y0127159D01*
X0610505Y0127126D01*
X0610627Y0127096D01*
X0610750Y0127071D01*
X0610874Y0127049D01*
X0610999Y0127032D01*
X0611124Y0127018D01*
X0611249Y0127008D01*
X0611374Y0127002D01*
X0611500Y0127000D01*
X0611626Y0127002D01*
X0611751Y0127008D01*
X0611876Y0127018D01*
X0612001Y0127032D01*
X0612126Y0127049D01*
X0612250Y0127071D01*
X0612373Y0127096D01*
X0612495Y0127126D01*
X0612616Y0127159D01*
X0612736Y0127196D01*
X0612855Y0127236D01*
X0612972Y0127281D01*
X0613089Y0127329D01*
X0613203Y0127381D01*
X0613316Y0127436D01*
X0613427Y0127495D01*
X0613536Y0127557D01*
X0613643Y0127623D01*
X0613748Y0127692D01*
X0613851Y0127764D01*
X0613952Y0127839D01*
X0614050Y0127918D01*
X0614145Y0128000D01*
X0614238Y0128084D01*
X0614328Y0128172D01*
X0614416Y0128262D01*
X0614500Y0128355D01*
X0614582Y0128450D01*
X0614661Y0128548D01*
X0614736Y0128649D01*
X0614808Y0128752D01*
X0614877Y0128857D01*
X0614943Y0128964D01*
X0615005Y0129073D01*
X0615064Y0129184D01*
X0615119Y0129297D01*
X0615171Y0129411D01*
X0615219Y0129528D01*
X0615264Y0129645D01*
X0615304Y0129764D01*
X0615341Y0129884D01*
X0615374Y0130005D01*
X0615404Y0130127D01*
X0615429Y0130250D01*
X0615451Y0130374D01*
X0615468Y0130499D01*
X0615482Y0130624D01*
X0615492Y0130749D01*
X0615498Y0130874D01*
X0615500Y0131000D01*
X0623000Y0131000D01*
X0623000Y0031000D01*
X0600000Y0031000D01*
X0600000Y0131000D01*
X0607500Y0131000D01*
X0473000Y0131000D02*
X0465500Y0131000D01*
X0465498Y0130874D01*
X0465492Y0130749D01*
X0465482Y0130624D01*
X0465468Y0130499D01*
X0465451Y0130374D01*
X0465429Y0130250D01*
X0465404Y0130127D01*
X0465374Y0130005D01*
X0465341Y0129884D01*
X0465304Y0129764D01*
X0465264Y0129645D01*
X0465219Y0129528D01*
X0465171Y0129411D01*
X0465119Y0129297D01*
X0465064Y0129184D01*
X0465005Y0129073D01*
X0464943Y0128964D01*
X0464877Y0128857D01*
X0464808Y0128752D01*
X0464736Y0128649D01*
X0464661Y0128548D01*
X0464582Y0128450D01*
X0464500Y0128355D01*
X0464416Y0128262D01*
X0464328Y0128172D01*
X0464238Y0128084D01*
X0464145Y0128000D01*
X0464050Y0127918D01*
X0463952Y0127839D01*
X0463851Y0127764D01*
X0463748Y0127692D01*
X0463643Y0127623D01*
X0463536Y0127557D01*
X0463427Y0127495D01*
X0463316Y0127436D01*
X0463203Y0127381D01*
X0463089Y0127329D01*
X0462972Y0127281D01*
X0462855Y0127236D01*
X0462736Y0127196D01*
X0462616Y0127159D01*
X0462495Y0127126D01*
X0462373Y0127096D01*
X0462250Y0127071D01*
X0462126Y0127049D01*
X0462001Y0127032D01*
X0461876Y0127018D01*
X0461751Y0127008D01*
X0461626Y0127002D01*
X0461500Y0127000D01*
X0461374Y0127002D01*
X0461249Y0127008D01*
X0461124Y0127018D01*
X0460999Y0127032D01*
X0460874Y0127049D01*
X0460750Y0127071D01*
X0460627Y0127096D01*
X0460505Y0127126D01*
X0460384Y0127159D01*
X0460264Y0127196D01*
X0460145Y0127236D01*
X0460028Y0127281D01*
X0459911Y0127329D01*
X0459797Y0127381D01*
X0459684Y0127436D01*
X0459573Y0127495D01*
X0459464Y0127557D01*
X0459357Y0127623D01*
X0459252Y0127692D01*
X0459149Y0127764D01*
X0459048Y0127839D01*
X0458950Y0127918D01*
X0458855Y0128000D01*
X0458762Y0128084D01*
X0458672Y0128172D01*
X0458584Y0128262D01*
X0458500Y0128355D01*
X0458418Y0128450D01*
X0458339Y0128548D01*
X0458264Y0128649D01*
X0458192Y0128752D01*
X0458123Y0128857D01*
X0458057Y0128964D01*
X0457995Y0129073D01*
X0457936Y0129184D01*
X0457881Y0129297D01*
X0457829Y0129411D01*
X0457781Y0129528D01*
X0457736Y0129645D01*
X0457696Y0129764D01*
X0457659Y0129884D01*
X0457626Y0130005D01*
X0457596Y0130127D01*
X0457571Y0130250D01*
X0457549Y0130374D01*
X0457532Y0130499D01*
X0457518Y0130624D01*
X0457508Y0130749D01*
X0457502Y0130874D01*
X0457500Y0131000D01*
X0450000Y0131000D01*
X0450000Y0031000D01*
X0473000Y0031000D01*
X0473000Y0131000D01*
X0470000Y0133500D02*
X0453000Y0133500D01*
X0452940Y0133502D01*
X0452879Y0133507D01*
X0452820Y0133516D01*
X0452761Y0133529D01*
X0452702Y0133545D01*
X0452645Y0133565D01*
X0452590Y0133588D01*
X0452535Y0133615D01*
X0452483Y0133644D01*
X0452432Y0133677D01*
X0452383Y0133713D01*
X0452337Y0133751D01*
X0452293Y0133793D01*
X0452251Y0133837D01*
X0452213Y0133883D01*
X0452177Y0133932D01*
X0452144Y0133983D01*
X0452115Y0134035D01*
X0452088Y0134090D01*
X0452065Y0134145D01*
X0452045Y0134202D01*
X0452029Y0134261D01*
X0452016Y0134320D01*
X0452007Y0134379D01*
X0452002Y0134440D01*
X0452000Y0134500D01*
X0452000Y0147500D01*
X0452002Y0147560D01*
X0452007Y0147621D01*
X0452016Y0147680D01*
X0452029Y0147739D01*
X0452045Y0147798D01*
X0452065Y0147855D01*
X0452088Y0147910D01*
X0452115Y0147965D01*
X0452144Y0148017D01*
X0452177Y0148068D01*
X0452213Y0148117D01*
X0452251Y0148163D01*
X0452293Y0148207D01*
X0452337Y0148249D01*
X0452383Y0148287D01*
X0452432Y0148323D01*
X0452483Y0148356D01*
X0452535Y0148385D01*
X0452590Y0148412D01*
X0452645Y0148435D01*
X0452702Y0148455D01*
X0452761Y0148471D01*
X0452820Y0148484D01*
X0452879Y0148493D01*
X0452940Y0148498D01*
X0453000Y0148500D01*
X0470000Y0148500D01*
X0470060Y0148498D01*
X0470121Y0148493D01*
X0470180Y0148484D01*
X0470239Y0148471D01*
X0470298Y0148455D01*
X0470355Y0148435D01*
X0470410Y0148412D01*
X0470465Y0148385D01*
X0470517Y0148356D01*
X0470568Y0148323D01*
X0470617Y0148287D01*
X0470663Y0148249D01*
X0470707Y0148207D01*
X0470749Y0148163D01*
X0470787Y0148117D01*
X0470823Y0148068D01*
X0470856Y0148017D01*
X0470885Y0147965D01*
X0470912Y0147910D01*
X0470935Y0147855D01*
X0470955Y0147798D01*
X0470971Y0147739D01*
X0470984Y0147680D01*
X0470993Y0147621D01*
X0470998Y0147560D01*
X0471000Y0147500D01*
X0471000Y0134500D01*
X0470998Y0134440D01*
X0470993Y0134379D01*
X0470984Y0134320D01*
X0470971Y0134261D01*
X0470955Y0134202D01*
X0470935Y0134145D01*
X0470912Y0134090D01*
X0470885Y0134035D01*
X0470856Y0133983D01*
X0470823Y0133932D01*
X0470787Y0133883D01*
X0470749Y0133837D01*
X0470707Y0133793D01*
X0470663Y0133751D01*
X0470617Y0133713D01*
X0470568Y0133677D01*
X0470517Y0133644D01*
X0470465Y0133615D01*
X0470410Y0133588D01*
X0470355Y0133565D01*
X0470298Y0133545D01*
X0470239Y0133529D01*
X0470180Y0133516D01*
X0470121Y0133507D01*
X0470060Y0133502D01*
X0470000Y0133500D01*
X0463000Y0141000D02*
X0462500Y0141000D01*
X0460500Y0141000D02*
X0460000Y0141000D01*
X0450000Y0171000D02*
X0473000Y0171000D01*
X0473000Y0241000D01*
X0465500Y0241000D01*
X0465498Y0240874D01*
X0465492Y0240749D01*
X0465482Y0240624D01*
X0465468Y0240499D01*
X0465451Y0240374D01*
X0465429Y0240250D01*
X0465404Y0240127D01*
X0465374Y0240005D01*
X0465341Y0239884D01*
X0465304Y0239764D01*
X0465264Y0239645D01*
X0465219Y0239528D01*
X0465171Y0239411D01*
X0465119Y0239297D01*
X0465064Y0239184D01*
X0465005Y0239073D01*
X0464943Y0238964D01*
X0464877Y0238857D01*
X0464808Y0238752D01*
X0464736Y0238649D01*
X0464661Y0238548D01*
X0464582Y0238450D01*
X0464500Y0238355D01*
X0464416Y0238262D01*
X0464328Y0238172D01*
X0464238Y0238084D01*
X0464145Y0238000D01*
X0464050Y0237918D01*
X0463952Y0237839D01*
X0463851Y0237764D01*
X0463748Y0237692D01*
X0463643Y0237623D01*
X0463536Y0237557D01*
X0463427Y0237495D01*
X0463316Y0237436D01*
X0463203Y0237381D01*
X0463089Y0237329D01*
X0462972Y0237281D01*
X0462855Y0237236D01*
X0462736Y0237196D01*
X0462616Y0237159D01*
X0462495Y0237126D01*
X0462373Y0237096D01*
X0462250Y0237071D01*
X0462126Y0237049D01*
X0462001Y0237032D01*
X0461876Y0237018D01*
X0461751Y0237008D01*
X0461626Y0237002D01*
X0461500Y0237000D01*
X0461374Y0237002D01*
X0461249Y0237008D01*
X0461124Y0237018D01*
X0460999Y0237032D01*
X0460874Y0237049D01*
X0460750Y0237071D01*
X0460627Y0237096D01*
X0460505Y0237126D01*
X0460384Y0237159D01*
X0460264Y0237196D01*
X0460145Y0237236D01*
X0460028Y0237281D01*
X0459911Y0237329D01*
X0459797Y0237381D01*
X0459684Y0237436D01*
X0459573Y0237495D01*
X0459464Y0237557D01*
X0459357Y0237623D01*
X0459252Y0237692D01*
X0459149Y0237764D01*
X0459048Y0237839D01*
X0458950Y0237918D01*
X0458855Y0238000D01*
X0458762Y0238084D01*
X0458672Y0238172D01*
X0458584Y0238262D01*
X0458500Y0238355D01*
X0458418Y0238450D01*
X0458339Y0238548D01*
X0458264Y0238649D01*
X0458192Y0238752D01*
X0458123Y0238857D01*
X0458057Y0238964D01*
X0457995Y0239073D01*
X0457936Y0239184D01*
X0457881Y0239297D01*
X0457829Y0239411D01*
X0457781Y0239528D01*
X0457736Y0239645D01*
X0457696Y0239764D01*
X0457659Y0239884D01*
X0457626Y0240005D01*
X0457596Y0240127D01*
X0457571Y0240250D01*
X0457549Y0240374D01*
X0457532Y0240499D01*
X0457518Y0240624D01*
X0457508Y0240749D01*
X0457502Y0240874D01*
X0457500Y0241000D01*
X0450000Y0241000D01*
X0450000Y0171000D01*
X0403000Y0171000D02*
X0380000Y0171000D01*
X0380000Y0241000D01*
X0387500Y0241000D01*
X0387502Y0240874D01*
X0387508Y0240749D01*
X0387518Y0240624D01*
X0387532Y0240499D01*
X0387549Y0240374D01*
X0387571Y0240250D01*
X0387596Y0240127D01*
X0387626Y0240005D01*
X0387659Y0239884D01*
X0387696Y0239764D01*
X0387736Y0239645D01*
X0387781Y0239528D01*
X0387829Y0239411D01*
X0387881Y0239297D01*
X0387936Y0239184D01*
X0387995Y0239073D01*
X0388057Y0238964D01*
X0388123Y0238857D01*
X0388192Y0238752D01*
X0388264Y0238649D01*
X0388339Y0238548D01*
X0388418Y0238450D01*
X0388500Y0238355D01*
X0388584Y0238262D01*
X0388672Y0238172D01*
X0388762Y0238084D01*
X0388855Y0238000D01*
X0388950Y0237918D01*
X0389048Y0237839D01*
X0389149Y0237764D01*
X0389252Y0237692D01*
X0389357Y0237623D01*
X0389464Y0237557D01*
X0389573Y0237495D01*
X0389684Y0237436D01*
X0389797Y0237381D01*
X0389911Y0237329D01*
X0390028Y0237281D01*
X0390145Y0237236D01*
X0390264Y0237196D01*
X0390384Y0237159D01*
X0390505Y0237126D01*
X0390627Y0237096D01*
X0390750Y0237071D01*
X0390874Y0237049D01*
X0390999Y0237032D01*
X0391124Y0237018D01*
X0391249Y0237008D01*
X0391374Y0237002D01*
X0391500Y0237000D01*
X0391626Y0237002D01*
X0391751Y0237008D01*
X0391876Y0237018D01*
X0392001Y0237032D01*
X0392126Y0237049D01*
X0392250Y0237071D01*
X0392373Y0237096D01*
X0392495Y0237126D01*
X0392616Y0237159D01*
X0392736Y0237196D01*
X0392855Y0237236D01*
X0392972Y0237281D01*
X0393089Y0237329D01*
X0393203Y0237381D01*
X0393316Y0237436D01*
X0393427Y0237495D01*
X0393536Y0237557D01*
X0393643Y0237623D01*
X0393748Y0237692D01*
X0393851Y0237764D01*
X0393952Y0237839D01*
X0394050Y0237918D01*
X0394145Y0238000D01*
X0394238Y0238084D01*
X0394328Y0238172D01*
X0394416Y0238262D01*
X0394500Y0238355D01*
X0394582Y0238450D01*
X0394661Y0238548D01*
X0394736Y0238649D01*
X0394808Y0238752D01*
X0394877Y0238857D01*
X0394943Y0238964D01*
X0395005Y0239073D01*
X0395064Y0239184D01*
X0395119Y0239297D01*
X0395171Y0239411D01*
X0395219Y0239528D01*
X0395264Y0239645D01*
X0395304Y0239764D01*
X0395341Y0239884D01*
X0395374Y0240005D01*
X0395404Y0240127D01*
X0395429Y0240250D01*
X0395451Y0240374D01*
X0395468Y0240499D01*
X0395482Y0240624D01*
X0395492Y0240749D01*
X0395498Y0240874D01*
X0395500Y0241000D01*
X0403000Y0241000D01*
X0403000Y0171000D01*
X0400000Y0148500D02*
X0383000Y0148500D01*
X0382940Y0148498D01*
X0382879Y0148493D01*
X0382820Y0148484D01*
X0382761Y0148471D01*
X0382702Y0148455D01*
X0382645Y0148435D01*
X0382590Y0148412D01*
X0382535Y0148385D01*
X0382483Y0148356D01*
X0382432Y0148323D01*
X0382383Y0148287D01*
X0382337Y0148249D01*
X0382293Y0148207D01*
X0382251Y0148163D01*
X0382213Y0148117D01*
X0382177Y0148068D01*
X0382144Y0148017D01*
X0382115Y0147965D01*
X0382088Y0147910D01*
X0382065Y0147855D01*
X0382045Y0147798D01*
X0382029Y0147739D01*
X0382016Y0147680D01*
X0382007Y0147621D01*
X0382002Y0147560D01*
X0382000Y0147500D01*
X0382000Y0134500D01*
X0382002Y0134440D01*
X0382007Y0134379D01*
X0382016Y0134320D01*
X0382029Y0134261D01*
X0382045Y0134202D01*
X0382065Y0134145D01*
X0382088Y0134090D01*
X0382115Y0134035D01*
X0382144Y0133983D01*
X0382177Y0133932D01*
X0382213Y0133883D01*
X0382251Y0133837D01*
X0382293Y0133793D01*
X0382337Y0133751D01*
X0382383Y0133713D01*
X0382432Y0133677D01*
X0382483Y0133644D01*
X0382535Y0133615D01*
X0382590Y0133588D01*
X0382645Y0133565D01*
X0382702Y0133545D01*
X0382761Y0133529D01*
X0382820Y0133516D01*
X0382879Y0133507D01*
X0382940Y0133502D01*
X0383000Y0133500D01*
X0400000Y0133500D01*
X0400060Y0133502D01*
X0400121Y0133507D01*
X0400180Y0133516D01*
X0400239Y0133529D01*
X0400298Y0133545D01*
X0400355Y0133565D01*
X0400410Y0133588D01*
X0400465Y0133615D01*
X0400517Y0133644D01*
X0400568Y0133677D01*
X0400617Y0133713D01*
X0400663Y0133751D01*
X0400707Y0133793D01*
X0400749Y0133837D01*
X0400787Y0133883D01*
X0400823Y0133932D01*
X0400856Y0133983D01*
X0400885Y0134035D01*
X0400912Y0134090D01*
X0400935Y0134145D01*
X0400955Y0134202D01*
X0400971Y0134261D01*
X0400984Y0134320D01*
X0400993Y0134379D01*
X0400998Y0134440D01*
X0401000Y0134500D01*
X0401000Y0147500D01*
X0400998Y0147560D01*
X0400993Y0147621D01*
X0400984Y0147680D01*
X0400971Y0147739D01*
X0400955Y0147798D01*
X0400935Y0147855D01*
X0400912Y0147910D01*
X0400885Y0147965D01*
X0400856Y0148017D01*
X0400823Y0148068D01*
X0400787Y0148117D01*
X0400749Y0148163D01*
X0400707Y0148207D01*
X0400663Y0148249D01*
X0400617Y0148287D01*
X0400568Y0148323D01*
X0400517Y0148356D01*
X0400465Y0148385D01*
X0400410Y0148412D01*
X0400355Y0148435D01*
X0400298Y0148455D01*
X0400239Y0148471D01*
X0400180Y0148484D01*
X0400121Y0148493D01*
X0400060Y0148498D01*
X0400000Y0148500D01*
X0393000Y0141000D02*
X0392500Y0141000D01*
X0390500Y0141000D02*
X0390000Y0141000D01*
X0387500Y0131000D02*
X0387502Y0130874D01*
X0387508Y0130749D01*
X0387518Y0130624D01*
X0387532Y0130499D01*
X0387549Y0130374D01*
X0387571Y0130250D01*
X0387596Y0130127D01*
X0387626Y0130005D01*
X0387659Y0129884D01*
X0387696Y0129764D01*
X0387736Y0129645D01*
X0387781Y0129528D01*
X0387829Y0129411D01*
X0387881Y0129297D01*
X0387936Y0129184D01*
X0387995Y0129073D01*
X0388057Y0128964D01*
X0388123Y0128857D01*
X0388192Y0128752D01*
X0388264Y0128649D01*
X0388339Y0128548D01*
X0388418Y0128450D01*
X0388500Y0128355D01*
X0388584Y0128262D01*
X0388672Y0128172D01*
X0388762Y0128084D01*
X0388855Y0128000D01*
X0388950Y0127918D01*
X0389048Y0127839D01*
X0389149Y0127764D01*
X0389252Y0127692D01*
X0389357Y0127623D01*
X0389464Y0127557D01*
X0389573Y0127495D01*
X0389684Y0127436D01*
X0389797Y0127381D01*
X0389911Y0127329D01*
X0390028Y0127281D01*
X0390145Y0127236D01*
X0390264Y0127196D01*
X0390384Y0127159D01*
X0390505Y0127126D01*
X0390627Y0127096D01*
X0390750Y0127071D01*
X0390874Y0127049D01*
X0390999Y0127032D01*
X0391124Y0127018D01*
X0391249Y0127008D01*
X0391374Y0127002D01*
X0391500Y0127000D01*
X0391626Y0127002D01*
X0391751Y0127008D01*
X0391876Y0127018D01*
X0392001Y0127032D01*
X0392126Y0127049D01*
X0392250Y0127071D01*
X0392373Y0127096D01*
X0392495Y0127126D01*
X0392616Y0127159D01*
X0392736Y0127196D01*
X0392855Y0127236D01*
X0392972Y0127281D01*
X0393089Y0127329D01*
X0393203Y0127381D01*
X0393316Y0127436D01*
X0393427Y0127495D01*
X0393536Y0127557D01*
X0393643Y0127623D01*
X0393748Y0127692D01*
X0393851Y0127764D01*
X0393952Y0127839D01*
X0394050Y0127918D01*
X0394145Y0128000D01*
X0394238Y0128084D01*
X0394328Y0128172D01*
X0394416Y0128262D01*
X0394500Y0128355D01*
X0394582Y0128450D01*
X0394661Y0128548D01*
X0394736Y0128649D01*
X0394808Y0128752D01*
X0394877Y0128857D01*
X0394943Y0128964D01*
X0395005Y0129073D01*
X0395064Y0129184D01*
X0395119Y0129297D01*
X0395171Y0129411D01*
X0395219Y0129528D01*
X0395264Y0129645D01*
X0395304Y0129764D01*
X0395341Y0129884D01*
X0395374Y0130005D01*
X0395404Y0130127D01*
X0395429Y0130250D01*
X0395451Y0130374D01*
X0395468Y0130499D01*
X0395482Y0130624D01*
X0395492Y0130749D01*
X0395498Y0130874D01*
X0395500Y0131000D01*
X0403000Y0131000D01*
X0403000Y0031000D01*
X0380000Y0031000D01*
X0380000Y0131000D01*
X0387500Y0131000D01*
X0333000Y0131000D02*
X0325500Y0131000D01*
X0325498Y0130874D01*
X0325492Y0130749D01*
X0325482Y0130624D01*
X0325468Y0130499D01*
X0325451Y0130374D01*
X0325429Y0130250D01*
X0325404Y0130127D01*
X0325374Y0130005D01*
X0325341Y0129884D01*
X0325304Y0129764D01*
X0325264Y0129645D01*
X0325219Y0129528D01*
X0325171Y0129411D01*
X0325119Y0129297D01*
X0325064Y0129184D01*
X0325005Y0129073D01*
X0324943Y0128964D01*
X0324877Y0128857D01*
X0324808Y0128752D01*
X0324736Y0128649D01*
X0324661Y0128548D01*
X0324582Y0128450D01*
X0324500Y0128355D01*
X0324416Y0128262D01*
X0324328Y0128172D01*
X0324238Y0128084D01*
X0324145Y0128000D01*
X0324050Y0127918D01*
X0323952Y0127839D01*
X0323851Y0127764D01*
X0323748Y0127692D01*
X0323643Y0127623D01*
X0323536Y0127557D01*
X0323427Y0127495D01*
X0323316Y0127436D01*
X0323203Y0127381D01*
X0323089Y0127329D01*
X0322972Y0127281D01*
X0322855Y0127236D01*
X0322736Y0127196D01*
X0322616Y0127159D01*
X0322495Y0127126D01*
X0322373Y0127096D01*
X0322250Y0127071D01*
X0322126Y0127049D01*
X0322001Y0127032D01*
X0321876Y0127018D01*
X0321751Y0127008D01*
X0321626Y0127002D01*
X0321500Y0127000D01*
X0321374Y0127002D01*
X0321249Y0127008D01*
X0321124Y0127018D01*
X0320999Y0127032D01*
X0320874Y0127049D01*
X0320750Y0127071D01*
X0320627Y0127096D01*
X0320505Y0127126D01*
X0320384Y0127159D01*
X0320264Y0127196D01*
X0320145Y0127236D01*
X0320028Y0127281D01*
X0319911Y0127329D01*
X0319797Y0127381D01*
X0319684Y0127436D01*
X0319573Y0127495D01*
X0319464Y0127557D01*
X0319357Y0127623D01*
X0319252Y0127692D01*
X0319149Y0127764D01*
X0319048Y0127839D01*
X0318950Y0127918D01*
X0318855Y0128000D01*
X0318762Y0128084D01*
X0318672Y0128172D01*
X0318584Y0128262D01*
X0318500Y0128355D01*
X0318418Y0128450D01*
X0318339Y0128548D01*
X0318264Y0128649D01*
X0318192Y0128752D01*
X0318123Y0128857D01*
X0318057Y0128964D01*
X0317995Y0129073D01*
X0317936Y0129184D01*
X0317881Y0129297D01*
X0317829Y0129411D01*
X0317781Y0129528D01*
X0317736Y0129645D01*
X0317696Y0129764D01*
X0317659Y0129884D01*
X0317626Y0130005D01*
X0317596Y0130127D01*
X0317571Y0130250D01*
X0317549Y0130374D01*
X0317532Y0130499D01*
X0317518Y0130624D01*
X0317508Y0130749D01*
X0317502Y0130874D01*
X0317500Y0131000D01*
X0310000Y0131000D01*
X0310000Y0031000D01*
X0333000Y0031000D01*
X0333000Y0131000D01*
X0330000Y0133500D02*
X0313000Y0133500D01*
X0312940Y0133502D01*
X0312879Y0133507D01*
X0312820Y0133516D01*
X0312761Y0133529D01*
X0312702Y0133545D01*
X0312645Y0133565D01*
X0312590Y0133588D01*
X0312535Y0133615D01*
X0312483Y0133644D01*
X0312432Y0133677D01*
X0312383Y0133713D01*
X0312337Y0133751D01*
X0312293Y0133793D01*
X0312251Y0133837D01*
X0312213Y0133883D01*
X0312177Y0133932D01*
X0312144Y0133983D01*
X0312115Y0134035D01*
X0312088Y0134090D01*
X0312065Y0134145D01*
X0312045Y0134202D01*
X0312029Y0134261D01*
X0312016Y0134320D01*
X0312007Y0134379D01*
X0312002Y0134440D01*
X0312000Y0134500D01*
X0312000Y0147500D01*
X0312002Y0147560D01*
X0312007Y0147621D01*
X0312016Y0147680D01*
X0312029Y0147739D01*
X0312045Y0147798D01*
X0312065Y0147855D01*
X0312088Y0147910D01*
X0312115Y0147965D01*
X0312144Y0148017D01*
X0312177Y0148068D01*
X0312213Y0148117D01*
X0312251Y0148163D01*
X0312293Y0148207D01*
X0312337Y0148249D01*
X0312383Y0148287D01*
X0312432Y0148323D01*
X0312483Y0148356D01*
X0312535Y0148385D01*
X0312590Y0148412D01*
X0312645Y0148435D01*
X0312702Y0148455D01*
X0312761Y0148471D01*
X0312820Y0148484D01*
X0312879Y0148493D01*
X0312940Y0148498D01*
X0313000Y0148500D01*
X0330000Y0148500D01*
X0330060Y0148498D01*
X0330121Y0148493D01*
X0330180Y0148484D01*
X0330239Y0148471D01*
X0330298Y0148455D01*
X0330355Y0148435D01*
X0330410Y0148412D01*
X0330465Y0148385D01*
X0330517Y0148356D01*
X0330568Y0148323D01*
X0330617Y0148287D01*
X0330663Y0148249D01*
X0330707Y0148207D01*
X0330749Y0148163D01*
X0330787Y0148117D01*
X0330823Y0148068D01*
X0330856Y0148017D01*
X0330885Y0147965D01*
X0330912Y0147910D01*
X0330935Y0147855D01*
X0330955Y0147798D01*
X0330971Y0147739D01*
X0330984Y0147680D01*
X0330993Y0147621D01*
X0330998Y0147560D01*
X0331000Y0147500D01*
X0331000Y0134500D01*
X0330998Y0134440D01*
X0330993Y0134379D01*
X0330984Y0134320D01*
X0330971Y0134261D01*
X0330955Y0134202D01*
X0330935Y0134145D01*
X0330912Y0134090D01*
X0330885Y0134035D01*
X0330856Y0133983D01*
X0330823Y0133932D01*
X0330787Y0133883D01*
X0330749Y0133837D01*
X0330707Y0133793D01*
X0330663Y0133751D01*
X0330617Y0133713D01*
X0330568Y0133677D01*
X0330517Y0133644D01*
X0330465Y0133615D01*
X0330410Y0133588D01*
X0330355Y0133565D01*
X0330298Y0133545D01*
X0330239Y0133529D01*
X0330180Y0133516D01*
X0330121Y0133507D01*
X0330060Y0133502D01*
X0330000Y0133500D01*
X0323000Y0141000D02*
X0322500Y0141000D01*
X0320500Y0141000D02*
X0320000Y0141000D01*
X0310000Y0171000D02*
X0333000Y0171000D01*
X0333000Y0241000D01*
X0325500Y0241000D01*
X0325498Y0240874D01*
X0325492Y0240749D01*
X0325482Y0240624D01*
X0325468Y0240499D01*
X0325451Y0240374D01*
X0325429Y0240250D01*
X0325404Y0240127D01*
X0325374Y0240005D01*
X0325341Y0239884D01*
X0325304Y0239764D01*
X0325264Y0239645D01*
X0325219Y0239528D01*
X0325171Y0239411D01*
X0325119Y0239297D01*
X0325064Y0239184D01*
X0325005Y0239073D01*
X0324943Y0238964D01*
X0324877Y0238857D01*
X0324808Y0238752D01*
X0324736Y0238649D01*
X0324661Y0238548D01*
X0324582Y0238450D01*
X0324500Y0238355D01*
X0324416Y0238262D01*
X0324328Y0238172D01*
X0324238Y0238084D01*
X0324145Y0238000D01*
X0324050Y0237918D01*
X0323952Y0237839D01*
X0323851Y0237764D01*
X0323748Y0237692D01*
X0323643Y0237623D01*
X0323536Y0237557D01*
X0323427Y0237495D01*
X0323316Y0237436D01*
X0323203Y0237381D01*
X0323089Y0237329D01*
X0322972Y0237281D01*
X0322855Y0237236D01*
X0322736Y0237196D01*
X0322616Y0237159D01*
X0322495Y0237126D01*
X0322373Y0237096D01*
X0322250Y0237071D01*
X0322126Y0237049D01*
X0322001Y0237032D01*
X0321876Y0237018D01*
X0321751Y0237008D01*
X0321626Y0237002D01*
X0321500Y0237000D01*
X0321374Y0237002D01*
X0321249Y0237008D01*
X0321124Y0237018D01*
X0320999Y0237032D01*
X0320874Y0237049D01*
X0320750Y0237071D01*
X0320627Y0237096D01*
X0320505Y0237126D01*
X0320384Y0237159D01*
X0320264Y0237196D01*
X0320145Y0237236D01*
X0320028Y0237281D01*
X0319911Y0237329D01*
X0319797Y0237381D01*
X0319684Y0237436D01*
X0319573Y0237495D01*
X0319464Y0237557D01*
X0319357Y0237623D01*
X0319252Y0237692D01*
X0319149Y0237764D01*
X0319048Y0237839D01*
X0318950Y0237918D01*
X0318855Y0238000D01*
X0318762Y0238084D01*
X0318672Y0238172D01*
X0318584Y0238262D01*
X0318500Y0238355D01*
X0318418Y0238450D01*
X0318339Y0238548D01*
X0318264Y0238649D01*
X0318192Y0238752D01*
X0318123Y0238857D01*
X0318057Y0238964D01*
X0317995Y0239073D01*
X0317936Y0239184D01*
X0317881Y0239297D01*
X0317829Y0239411D01*
X0317781Y0239528D01*
X0317736Y0239645D01*
X0317696Y0239764D01*
X0317659Y0239884D01*
X0317626Y0240005D01*
X0317596Y0240127D01*
X0317571Y0240250D01*
X0317549Y0240374D01*
X0317532Y0240499D01*
X0317518Y0240624D01*
X0317508Y0240749D01*
X0317502Y0240874D01*
X0317500Y0241000D01*
X0310000Y0241000D01*
X0310000Y0171000D01*
X0263000Y0171000D02*
X0240000Y0171000D01*
X0240000Y0241000D01*
X0247500Y0241000D01*
X0247502Y0240874D01*
X0247508Y0240749D01*
X0247518Y0240624D01*
X0247532Y0240499D01*
X0247549Y0240374D01*
X0247571Y0240250D01*
X0247596Y0240127D01*
X0247626Y0240005D01*
X0247659Y0239884D01*
X0247696Y0239764D01*
X0247736Y0239645D01*
X0247781Y0239528D01*
X0247829Y0239411D01*
X0247881Y0239297D01*
X0247936Y0239184D01*
X0247995Y0239073D01*
X0248057Y0238964D01*
X0248123Y0238857D01*
X0248192Y0238752D01*
X0248264Y0238649D01*
X0248339Y0238548D01*
X0248418Y0238450D01*
X0248500Y0238355D01*
X0248584Y0238262D01*
X0248672Y0238172D01*
X0248762Y0238084D01*
X0248855Y0238000D01*
X0248950Y0237918D01*
X0249048Y0237839D01*
X0249149Y0237764D01*
X0249252Y0237692D01*
X0249357Y0237623D01*
X0249464Y0237557D01*
X0249573Y0237495D01*
X0249684Y0237436D01*
X0249797Y0237381D01*
X0249911Y0237329D01*
X0250028Y0237281D01*
X0250145Y0237236D01*
X0250264Y0237196D01*
X0250384Y0237159D01*
X0250505Y0237126D01*
X0250627Y0237096D01*
X0250750Y0237071D01*
X0250874Y0237049D01*
X0250999Y0237032D01*
X0251124Y0237018D01*
X0251249Y0237008D01*
X0251374Y0237002D01*
X0251500Y0237000D01*
X0251626Y0237002D01*
X0251751Y0237008D01*
X0251876Y0237018D01*
X0252001Y0237032D01*
X0252126Y0237049D01*
X0252250Y0237071D01*
X0252373Y0237096D01*
X0252495Y0237126D01*
X0252616Y0237159D01*
X0252736Y0237196D01*
X0252855Y0237236D01*
X0252972Y0237281D01*
X0253089Y0237329D01*
X0253203Y0237381D01*
X0253316Y0237436D01*
X0253427Y0237495D01*
X0253536Y0237557D01*
X0253643Y0237623D01*
X0253748Y0237692D01*
X0253851Y0237764D01*
X0253952Y0237839D01*
X0254050Y0237918D01*
X0254145Y0238000D01*
X0254238Y0238084D01*
X0254328Y0238172D01*
X0254416Y0238262D01*
X0254500Y0238355D01*
X0254582Y0238450D01*
X0254661Y0238548D01*
X0254736Y0238649D01*
X0254808Y0238752D01*
X0254877Y0238857D01*
X0254943Y0238964D01*
X0255005Y0239073D01*
X0255064Y0239184D01*
X0255119Y0239297D01*
X0255171Y0239411D01*
X0255219Y0239528D01*
X0255264Y0239645D01*
X0255304Y0239764D01*
X0255341Y0239884D01*
X0255374Y0240005D01*
X0255404Y0240127D01*
X0255429Y0240250D01*
X0255451Y0240374D01*
X0255468Y0240499D01*
X0255482Y0240624D01*
X0255492Y0240749D01*
X0255498Y0240874D01*
X0255500Y0241000D01*
X0263000Y0241000D01*
X0263000Y0171000D01*
X0260000Y0148500D02*
X0243000Y0148500D01*
X0242940Y0148498D01*
X0242879Y0148493D01*
X0242820Y0148484D01*
X0242761Y0148471D01*
X0242702Y0148455D01*
X0242645Y0148435D01*
X0242590Y0148412D01*
X0242535Y0148385D01*
X0242483Y0148356D01*
X0242432Y0148323D01*
X0242383Y0148287D01*
X0242337Y0148249D01*
X0242293Y0148207D01*
X0242251Y0148163D01*
X0242213Y0148117D01*
X0242177Y0148068D01*
X0242144Y0148017D01*
X0242115Y0147965D01*
X0242088Y0147910D01*
X0242065Y0147855D01*
X0242045Y0147798D01*
X0242029Y0147739D01*
X0242016Y0147680D01*
X0242007Y0147621D01*
X0242002Y0147560D01*
X0242000Y0147500D01*
X0242000Y0134500D01*
X0242002Y0134440D01*
X0242007Y0134379D01*
X0242016Y0134320D01*
X0242029Y0134261D01*
X0242045Y0134202D01*
X0242065Y0134145D01*
X0242088Y0134090D01*
X0242115Y0134035D01*
X0242144Y0133983D01*
X0242177Y0133932D01*
X0242213Y0133883D01*
X0242251Y0133837D01*
X0242293Y0133793D01*
X0242337Y0133751D01*
X0242383Y0133713D01*
X0242432Y0133677D01*
X0242483Y0133644D01*
X0242535Y0133615D01*
X0242590Y0133588D01*
X0242645Y0133565D01*
X0242702Y0133545D01*
X0242761Y0133529D01*
X0242820Y0133516D01*
X0242879Y0133507D01*
X0242940Y0133502D01*
X0243000Y0133500D01*
X0260000Y0133500D01*
X0260060Y0133502D01*
X0260121Y0133507D01*
X0260180Y0133516D01*
X0260239Y0133529D01*
X0260298Y0133545D01*
X0260355Y0133565D01*
X0260410Y0133588D01*
X0260465Y0133615D01*
X0260517Y0133644D01*
X0260568Y0133677D01*
X0260617Y0133713D01*
X0260663Y0133751D01*
X0260707Y0133793D01*
X0260749Y0133837D01*
X0260787Y0133883D01*
X0260823Y0133932D01*
X0260856Y0133983D01*
X0260885Y0134035D01*
X0260912Y0134090D01*
X0260935Y0134145D01*
X0260955Y0134202D01*
X0260971Y0134261D01*
X0260984Y0134320D01*
X0260993Y0134379D01*
X0260998Y0134440D01*
X0261000Y0134500D01*
X0261000Y0147500D01*
X0260998Y0147560D01*
X0260993Y0147621D01*
X0260984Y0147680D01*
X0260971Y0147739D01*
X0260955Y0147798D01*
X0260935Y0147855D01*
X0260912Y0147910D01*
X0260885Y0147965D01*
X0260856Y0148017D01*
X0260823Y0148068D01*
X0260787Y0148117D01*
X0260749Y0148163D01*
X0260707Y0148207D01*
X0260663Y0148249D01*
X0260617Y0148287D01*
X0260568Y0148323D01*
X0260517Y0148356D01*
X0260465Y0148385D01*
X0260410Y0148412D01*
X0260355Y0148435D01*
X0260298Y0148455D01*
X0260239Y0148471D01*
X0260180Y0148484D01*
X0260121Y0148493D01*
X0260060Y0148498D01*
X0260000Y0148500D01*
X0253000Y0141000D02*
X0252500Y0141000D01*
X0250500Y0141000D02*
X0250000Y0141000D01*
X0247500Y0131000D02*
X0247502Y0130874D01*
X0247508Y0130749D01*
X0247518Y0130624D01*
X0247532Y0130499D01*
X0247549Y0130374D01*
X0247571Y0130250D01*
X0247596Y0130127D01*
X0247626Y0130005D01*
X0247659Y0129884D01*
X0247696Y0129764D01*
X0247736Y0129645D01*
X0247781Y0129528D01*
X0247829Y0129411D01*
X0247881Y0129297D01*
X0247936Y0129184D01*
X0247995Y0129073D01*
X0248057Y0128964D01*
X0248123Y0128857D01*
X0248192Y0128752D01*
X0248264Y0128649D01*
X0248339Y0128548D01*
X0248418Y0128450D01*
X0248500Y0128355D01*
X0248584Y0128262D01*
X0248672Y0128172D01*
X0248762Y0128084D01*
X0248855Y0128000D01*
X0248950Y0127918D01*
X0249048Y0127839D01*
X0249149Y0127764D01*
X0249252Y0127692D01*
X0249357Y0127623D01*
X0249464Y0127557D01*
X0249573Y0127495D01*
X0249684Y0127436D01*
X0249797Y0127381D01*
X0249911Y0127329D01*
X0250028Y0127281D01*
X0250145Y0127236D01*
X0250264Y0127196D01*
X0250384Y0127159D01*
X0250505Y0127126D01*
X0250627Y0127096D01*
X0250750Y0127071D01*
X0250874Y0127049D01*
X0250999Y0127032D01*
X0251124Y0127018D01*
X0251249Y0127008D01*
X0251374Y0127002D01*
X0251500Y0127000D01*
X0251626Y0127002D01*
X0251751Y0127008D01*
X0251876Y0127018D01*
X0252001Y0127032D01*
X0252126Y0127049D01*
X0252250Y0127071D01*
X0252373Y0127096D01*
X0252495Y0127126D01*
X0252616Y0127159D01*
X0252736Y0127196D01*
X0252855Y0127236D01*
X0252972Y0127281D01*
X0253089Y0127329D01*
X0253203Y0127381D01*
X0253316Y0127436D01*
X0253427Y0127495D01*
X0253536Y0127557D01*
X0253643Y0127623D01*
X0253748Y0127692D01*
X0253851Y0127764D01*
X0253952Y0127839D01*
X0254050Y0127918D01*
X0254145Y0128000D01*
X0254238Y0128084D01*
X0254328Y0128172D01*
X0254416Y0128262D01*
X0254500Y0128355D01*
X0254582Y0128450D01*
X0254661Y0128548D01*
X0254736Y0128649D01*
X0254808Y0128752D01*
X0254877Y0128857D01*
X0254943Y0128964D01*
X0255005Y0129073D01*
X0255064Y0129184D01*
X0255119Y0129297D01*
X0255171Y0129411D01*
X0255219Y0129528D01*
X0255264Y0129645D01*
X0255304Y0129764D01*
X0255341Y0129884D01*
X0255374Y0130005D01*
X0255404Y0130127D01*
X0255429Y0130250D01*
X0255451Y0130374D01*
X0255468Y0130499D01*
X0255482Y0130624D01*
X0255492Y0130749D01*
X0255498Y0130874D01*
X0255500Y0131000D01*
X0263000Y0131000D01*
X0263000Y0031000D01*
X0240000Y0031000D01*
X0240000Y0131000D01*
X0247500Y0131000D01*
X0243000Y0243500D02*
X0260000Y0243500D01*
X0260060Y0243502D01*
X0260121Y0243507D01*
X0260180Y0243516D01*
X0260239Y0243529D01*
X0260298Y0243545D01*
X0260355Y0243565D01*
X0260410Y0243588D01*
X0260465Y0243615D01*
X0260517Y0243644D01*
X0260568Y0243677D01*
X0260617Y0243713D01*
X0260663Y0243751D01*
X0260707Y0243793D01*
X0260749Y0243837D01*
X0260787Y0243883D01*
X0260823Y0243932D01*
X0260856Y0243983D01*
X0260885Y0244035D01*
X0260912Y0244090D01*
X0260935Y0244145D01*
X0260955Y0244202D01*
X0260971Y0244261D01*
X0260984Y0244320D01*
X0260993Y0244379D01*
X0260998Y0244440D01*
X0261000Y0244500D01*
X0261000Y0257500D01*
X0260998Y0257560D01*
X0260993Y0257621D01*
X0260984Y0257680D01*
X0260971Y0257739D01*
X0260955Y0257798D01*
X0260935Y0257855D01*
X0260912Y0257910D01*
X0260885Y0257965D01*
X0260856Y0258017D01*
X0260823Y0258068D01*
X0260787Y0258117D01*
X0260749Y0258163D01*
X0260707Y0258207D01*
X0260663Y0258249D01*
X0260617Y0258287D01*
X0260568Y0258323D01*
X0260517Y0258356D01*
X0260465Y0258385D01*
X0260410Y0258412D01*
X0260355Y0258435D01*
X0260298Y0258455D01*
X0260239Y0258471D01*
X0260180Y0258484D01*
X0260121Y0258493D01*
X0260060Y0258498D01*
X0260000Y0258500D01*
X0243000Y0258500D01*
X0242940Y0258498D01*
X0242879Y0258493D01*
X0242820Y0258484D01*
X0242761Y0258471D01*
X0242702Y0258455D01*
X0242645Y0258435D01*
X0242590Y0258412D01*
X0242535Y0258385D01*
X0242483Y0258356D01*
X0242432Y0258323D01*
X0242383Y0258287D01*
X0242337Y0258249D01*
X0242293Y0258207D01*
X0242251Y0258163D01*
X0242213Y0258117D01*
X0242177Y0258068D01*
X0242144Y0258017D01*
X0242115Y0257965D01*
X0242088Y0257910D01*
X0242065Y0257855D01*
X0242045Y0257798D01*
X0242029Y0257739D01*
X0242016Y0257680D01*
X0242007Y0257621D01*
X0242002Y0257560D01*
X0242000Y0257500D01*
X0242000Y0244500D01*
X0242002Y0244440D01*
X0242007Y0244379D01*
X0242016Y0244320D01*
X0242029Y0244261D01*
X0242045Y0244202D01*
X0242065Y0244145D01*
X0242088Y0244090D01*
X0242115Y0244035D01*
X0242144Y0243983D01*
X0242177Y0243932D01*
X0242213Y0243883D01*
X0242251Y0243837D01*
X0242293Y0243793D01*
X0242337Y0243751D01*
X0242383Y0243713D01*
X0242432Y0243677D01*
X0242483Y0243644D01*
X0242535Y0243615D01*
X0242590Y0243588D01*
X0242645Y0243565D01*
X0242702Y0243545D01*
X0242761Y0243529D01*
X0242820Y0243516D01*
X0242879Y0243507D01*
X0242940Y0243502D01*
X0243000Y0243500D01*
X0250000Y0251000D02*
X0250500Y0251000D01*
X0252500Y0251000D02*
X0253000Y0251000D01*
X0312000Y0257500D02*
X0312000Y0244500D01*
X0312002Y0244440D01*
X0312007Y0244379D01*
X0312016Y0244320D01*
X0312029Y0244261D01*
X0312045Y0244202D01*
X0312065Y0244145D01*
X0312088Y0244090D01*
X0312115Y0244035D01*
X0312144Y0243983D01*
X0312177Y0243932D01*
X0312213Y0243883D01*
X0312251Y0243837D01*
X0312293Y0243793D01*
X0312337Y0243751D01*
X0312383Y0243713D01*
X0312432Y0243677D01*
X0312483Y0243644D01*
X0312535Y0243615D01*
X0312590Y0243588D01*
X0312645Y0243565D01*
X0312702Y0243545D01*
X0312761Y0243529D01*
X0312820Y0243516D01*
X0312879Y0243507D01*
X0312940Y0243502D01*
X0313000Y0243500D01*
X0330000Y0243500D01*
X0330060Y0243502D01*
X0330121Y0243507D01*
X0330180Y0243516D01*
X0330239Y0243529D01*
X0330298Y0243545D01*
X0330355Y0243565D01*
X0330410Y0243588D01*
X0330465Y0243615D01*
X0330517Y0243644D01*
X0330568Y0243677D01*
X0330617Y0243713D01*
X0330663Y0243751D01*
X0330707Y0243793D01*
X0330749Y0243837D01*
X0330787Y0243883D01*
X0330823Y0243932D01*
X0330856Y0243983D01*
X0330885Y0244035D01*
X0330912Y0244090D01*
X0330935Y0244145D01*
X0330955Y0244202D01*
X0330971Y0244261D01*
X0330984Y0244320D01*
X0330993Y0244379D01*
X0330998Y0244440D01*
X0331000Y0244500D01*
X0331000Y0257500D01*
X0330998Y0257560D01*
X0330993Y0257621D01*
X0330984Y0257680D01*
X0330971Y0257739D01*
X0330955Y0257798D01*
X0330935Y0257855D01*
X0330912Y0257910D01*
X0330885Y0257965D01*
X0330856Y0258017D01*
X0330823Y0258068D01*
X0330787Y0258117D01*
X0330749Y0258163D01*
X0330707Y0258207D01*
X0330663Y0258249D01*
X0330617Y0258287D01*
X0330568Y0258323D01*
X0330517Y0258356D01*
X0330465Y0258385D01*
X0330410Y0258412D01*
X0330355Y0258435D01*
X0330298Y0258455D01*
X0330239Y0258471D01*
X0330180Y0258484D01*
X0330121Y0258493D01*
X0330060Y0258498D01*
X0330000Y0258500D01*
X0313000Y0258500D01*
X0312940Y0258498D01*
X0312879Y0258493D01*
X0312820Y0258484D01*
X0312761Y0258471D01*
X0312702Y0258455D01*
X0312645Y0258435D01*
X0312590Y0258412D01*
X0312535Y0258385D01*
X0312483Y0258356D01*
X0312432Y0258323D01*
X0312383Y0258287D01*
X0312337Y0258249D01*
X0312293Y0258207D01*
X0312251Y0258163D01*
X0312213Y0258117D01*
X0312177Y0258068D01*
X0312144Y0258017D01*
X0312115Y0257965D01*
X0312088Y0257910D01*
X0312065Y0257855D01*
X0312045Y0257798D01*
X0312029Y0257739D01*
X0312016Y0257680D01*
X0312007Y0257621D01*
X0312002Y0257560D01*
X0312000Y0257500D01*
X0320000Y0251000D02*
X0320500Y0251000D01*
X0322500Y0251000D02*
X0323000Y0251000D01*
X0382000Y0257500D02*
X0382000Y0244500D01*
X0382002Y0244440D01*
X0382007Y0244379D01*
X0382016Y0244320D01*
X0382029Y0244261D01*
X0382045Y0244202D01*
X0382065Y0244145D01*
X0382088Y0244090D01*
X0382115Y0244035D01*
X0382144Y0243983D01*
X0382177Y0243932D01*
X0382213Y0243883D01*
X0382251Y0243837D01*
X0382293Y0243793D01*
X0382337Y0243751D01*
X0382383Y0243713D01*
X0382432Y0243677D01*
X0382483Y0243644D01*
X0382535Y0243615D01*
X0382590Y0243588D01*
X0382645Y0243565D01*
X0382702Y0243545D01*
X0382761Y0243529D01*
X0382820Y0243516D01*
X0382879Y0243507D01*
X0382940Y0243502D01*
X0383000Y0243500D01*
X0400000Y0243500D01*
X0400060Y0243502D01*
X0400121Y0243507D01*
X0400180Y0243516D01*
X0400239Y0243529D01*
X0400298Y0243545D01*
X0400355Y0243565D01*
X0400410Y0243588D01*
X0400465Y0243615D01*
X0400517Y0243644D01*
X0400568Y0243677D01*
X0400617Y0243713D01*
X0400663Y0243751D01*
X0400707Y0243793D01*
X0400749Y0243837D01*
X0400787Y0243883D01*
X0400823Y0243932D01*
X0400856Y0243983D01*
X0400885Y0244035D01*
X0400912Y0244090D01*
X0400935Y0244145D01*
X0400955Y0244202D01*
X0400971Y0244261D01*
X0400984Y0244320D01*
X0400993Y0244379D01*
X0400998Y0244440D01*
X0401000Y0244500D01*
X0401000Y0257500D01*
X0400998Y0257560D01*
X0400993Y0257621D01*
X0400984Y0257680D01*
X0400971Y0257739D01*
X0400955Y0257798D01*
X0400935Y0257855D01*
X0400912Y0257910D01*
X0400885Y0257965D01*
X0400856Y0258017D01*
X0400823Y0258068D01*
X0400787Y0258117D01*
X0400749Y0258163D01*
X0400707Y0258207D01*
X0400663Y0258249D01*
X0400617Y0258287D01*
X0400568Y0258323D01*
X0400517Y0258356D01*
X0400465Y0258385D01*
X0400410Y0258412D01*
X0400355Y0258435D01*
X0400298Y0258455D01*
X0400239Y0258471D01*
X0400180Y0258484D01*
X0400121Y0258493D01*
X0400060Y0258498D01*
X0400000Y0258500D01*
X0383000Y0258500D01*
X0382940Y0258498D01*
X0382879Y0258493D01*
X0382820Y0258484D01*
X0382761Y0258471D01*
X0382702Y0258455D01*
X0382645Y0258435D01*
X0382590Y0258412D01*
X0382535Y0258385D01*
X0382483Y0258356D01*
X0382432Y0258323D01*
X0382383Y0258287D01*
X0382337Y0258249D01*
X0382293Y0258207D01*
X0382251Y0258163D01*
X0382213Y0258117D01*
X0382177Y0258068D01*
X0382144Y0258017D01*
X0382115Y0257965D01*
X0382088Y0257910D01*
X0382065Y0257855D01*
X0382045Y0257798D01*
X0382029Y0257739D01*
X0382016Y0257680D01*
X0382007Y0257621D01*
X0382002Y0257560D01*
X0382000Y0257500D01*
X0390000Y0251000D02*
X0390500Y0251000D01*
X0392500Y0251000D02*
X0393000Y0251000D01*
X0452000Y0257500D02*
X0452000Y0244500D01*
X0452002Y0244440D01*
X0452007Y0244379D01*
X0452016Y0244320D01*
X0452029Y0244261D01*
X0452045Y0244202D01*
X0452065Y0244145D01*
X0452088Y0244090D01*
X0452115Y0244035D01*
X0452144Y0243983D01*
X0452177Y0243932D01*
X0452213Y0243883D01*
X0452251Y0243837D01*
X0452293Y0243793D01*
X0452337Y0243751D01*
X0452383Y0243713D01*
X0452432Y0243677D01*
X0452483Y0243644D01*
X0452535Y0243615D01*
X0452590Y0243588D01*
X0452645Y0243565D01*
X0452702Y0243545D01*
X0452761Y0243529D01*
X0452820Y0243516D01*
X0452879Y0243507D01*
X0452940Y0243502D01*
X0453000Y0243500D01*
X0470000Y0243500D01*
X0470060Y0243502D01*
X0470121Y0243507D01*
X0470180Y0243516D01*
X0470239Y0243529D01*
X0470298Y0243545D01*
X0470355Y0243565D01*
X0470410Y0243588D01*
X0470465Y0243615D01*
X0470517Y0243644D01*
X0470568Y0243677D01*
X0470617Y0243713D01*
X0470663Y0243751D01*
X0470707Y0243793D01*
X0470749Y0243837D01*
X0470787Y0243883D01*
X0470823Y0243932D01*
X0470856Y0243983D01*
X0470885Y0244035D01*
X0470912Y0244090D01*
X0470935Y0244145D01*
X0470955Y0244202D01*
X0470971Y0244261D01*
X0470984Y0244320D01*
X0470993Y0244379D01*
X0470998Y0244440D01*
X0471000Y0244500D01*
X0471000Y0257500D01*
X0470998Y0257560D01*
X0470993Y0257621D01*
X0470984Y0257680D01*
X0470971Y0257739D01*
X0470955Y0257798D01*
X0470935Y0257855D01*
X0470912Y0257910D01*
X0470885Y0257965D01*
X0470856Y0258017D01*
X0470823Y0258068D01*
X0470787Y0258117D01*
X0470749Y0258163D01*
X0470707Y0258207D01*
X0470663Y0258249D01*
X0470617Y0258287D01*
X0470568Y0258323D01*
X0470517Y0258356D01*
X0470465Y0258385D01*
X0470410Y0258412D01*
X0470355Y0258435D01*
X0470298Y0258455D01*
X0470239Y0258471D01*
X0470180Y0258484D01*
X0470121Y0258493D01*
X0470060Y0258498D01*
X0470000Y0258500D01*
X0453000Y0258500D01*
X0452940Y0258498D01*
X0452879Y0258493D01*
X0452820Y0258484D01*
X0452761Y0258471D01*
X0452702Y0258455D01*
X0452645Y0258435D01*
X0452590Y0258412D01*
X0452535Y0258385D01*
X0452483Y0258356D01*
X0452432Y0258323D01*
X0452383Y0258287D01*
X0452337Y0258249D01*
X0452293Y0258207D01*
X0452251Y0258163D01*
X0452213Y0258117D01*
X0452177Y0258068D01*
X0452144Y0258017D01*
X0452115Y0257965D01*
X0452088Y0257910D01*
X0452065Y0257855D01*
X0452045Y0257798D01*
X0452029Y0257739D01*
X0452016Y0257680D01*
X0452007Y0257621D01*
X0452002Y0257560D01*
X0452000Y0257500D01*
X0460000Y0251000D02*
X0460500Y0251000D01*
X0462500Y0251000D02*
X0463000Y0251000D01*
X0650000Y0020500D02*
X0651500Y0020500D01*
X0652000Y0020000D01*
X0671000Y0020000D01*
X0671500Y0020500D01*
X0673000Y0020500D01*
X0673060Y0020498D01*
X0673121Y0020493D01*
X0673180Y0020484D01*
X0673239Y0020471D01*
X0673298Y0020455D01*
X0673355Y0020435D01*
X0673410Y0020412D01*
X0673465Y0020385D01*
X0673517Y0020356D01*
X0673568Y0020323D01*
X0673617Y0020287D01*
X0673663Y0020249D01*
X0673707Y0020207D01*
X0673749Y0020163D01*
X0673787Y0020117D01*
X0673823Y0020068D01*
X0673856Y0020017D01*
X0673885Y0019965D01*
X0673912Y0019910D01*
X0673935Y0019855D01*
X0673955Y0019798D01*
X0673971Y0019739D01*
X0673984Y0019680D01*
X0673993Y0019621D01*
X0673998Y0019560D01*
X0674000Y0019500D01*
X0674000Y0012500D01*
X0673998Y0012440D01*
X0673993Y0012379D01*
X0673984Y0012320D01*
X0673971Y0012261D01*
X0673955Y0012202D01*
X0673935Y0012145D01*
X0673912Y0012090D01*
X0673885Y0012035D01*
X0673856Y0011983D01*
X0673823Y0011932D01*
X0673787Y0011883D01*
X0673749Y0011837D01*
X0673707Y0011793D01*
X0673663Y0011751D01*
X0673617Y0011713D01*
X0673568Y0011677D01*
X0673517Y0011644D01*
X0673465Y0011615D01*
X0673410Y0011588D01*
X0673355Y0011565D01*
X0673298Y0011545D01*
X0673239Y0011529D01*
X0673180Y0011516D01*
X0673121Y0011507D01*
X0673060Y0011502D01*
X0673000Y0011500D01*
X0671500Y0011500D01*
X0671000Y0012000D01*
X0652000Y0012000D01*
X0651500Y0011500D01*
X0650000Y0011500D01*
X0649940Y0011502D01*
X0649879Y0011507D01*
X0649820Y0011516D01*
X0649761Y0011529D01*
X0649702Y0011545D01*
X0649645Y0011565D01*
X0649590Y0011588D01*
X0649535Y0011615D01*
X0649483Y0011644D01*
X0649432Y0011677D01*
X0649383Y0011713D01*
X0649337Y0011751D01*
X0649293Y0011793D01*
X0649251Y0011837D01*
X0649213Y0011883D01*
X0649177Y0011932D01*
X0649144Y0011983D01*
X0649115Y0012035D01*
X0649088Y0012090D01*
X0649065Y0012145D01*
X0649045Y0012202D01*
X0649029Y0012261D01*
X0649016Y0012320D01*
X0649007Y0012379D01*
X0649002Y0012440D01*
X0649000Y0012500D01*
X0649000Y0019500D01*
X0649002Y0019560D01*
X0649007Y0019621D01*
X0649016Y0019680D01*
X0649029Y0019739D01*
X0649045Y0019798D01*
X0649065Y0019855D01*
X0649088Y0019910D01*
X0649115Y0019965D01*
X0649144Y0020017D01*
X0649177Y0020068D01*
X0649213Y0020117D01*
X0649251Y0020163D01*
X0649293Y0020207D01*
X0649337Y0020249D01*
X0649383Y0020287D01*
X0649432Y0020323D01*
X0649483Y0020356D01*
X0649535Y0020385D01*
X0649590Y0020412D01*
X0649645Y0020435D01*
X0649702Y0020455D01*
X0649761Y0020471D01*
X0649820Y0020484D01*
X0649879Y0020493D01*
X0649940Y0020498D01*
X0650000Y0020500D01*
X0706500Y0016000D02*
X0706503Y0016245D01*
X0706512Y0016491D01*
X0706527Y0016736D01*
X0706548Y0016980D01*
X0706575Y0017224D01*
X0706608Y0017467D01*
X0706647Y0017710D01*
X0706692Y0017951D01*
X0706743Y0018191D01*
X0706800Y0018430D01*
X0706862Y0018667D01*
X0706931Y0018903D01*
X0707005Y0019137D01*
X0707085Y0019369D01*
X0707170Y0019599D01*
X0707261Y0019827D01*
X0707358Y0020052D01*
X0707460Y0020276D01*
X0707568Y0020496D01*
X0707681Y0020714D01*
X0707799Y0020929D01*
X0707923Y0021141D01*
X0708051Y0021350D01*
X0708185Y0021556D01*
X0708324Y0021758D01*
X0708468Y0021957D01*
X0708617Y0022152D01*
X0708770Y0022344D01*
X0708928Y0022532D01*
X0709090Y0022716D01*
X0709258Y0022895D01*
X0709429Y0023071D01*
X0709605Y0023242D01*
X0709784Y0023410D01*
X0709968Y0023572D01*
X0710156Y0023730D01*
X0710348Y0023883D01*
X0710543Y0024032D01*
X0710742Y0024176D01*
X0710944Y0024315D01*
X0711150Y0024449D01*
X0711359Y0024577D01*
X0711571Y0024701D01*
X0711786Y0024819D01*
X0712004Y0024932D01*
X0712224Y0025040D01*
X0712448Y0025142D01*
X0712673Y0025239D01*
X0712901Y0025330D01*
X0713131Y0025415D01*
X0713363Y0025495D01*
X0713597Y0025569D01*
X0713833Y0025638D01*
X0714070Y0025700D01*
X0714309Y0025757D01*
X0714549Y0025808D01*
X0714790Y0025853D01*
X0715033Y0025892D01*
X0715276Y0025925D01*
X0715520Y0025952D01*
X0715764Y0025973D01*
X0716009Y0025988D01*
X0716255Y0025997D01*
X0716500Y0026000D01*
X0716745Y0025997D01*
X0716991Y0025988D01*
X0717236Y0025973D01*
X0717480Y0025952D01*
X0717724Y0025925D01*
X0717967Y0025892D01*
X0718210Y0025853D01*
X0718451Y0025808D01*
X0718691Y0025757D01*
X0718930Y0025700D01*
X0719167Y0025638D01*
X0719403Y0025569D01*
X0719637Y0025495D01*
X0719869Y0025415D01*
X0720099Y0025330D01*
X0720327Y0025239D01*
X0720552Y0025142D01*
X0720776Y0025040D01*
X0720996Y0024932D01*
X0721214Y0024819D01*
X0721429Y0024701D01*
X0721641Y0024577D01*
X0721850Y0024449D01*
X0722056Y0024315D01*
X0722258Y0024176D01*
X0722457Y0024032D01*
X0722652Y0023883D01*
X0722844Y0023730D01*
X0723032Y0023572D01*
X0723216Y0023410D01*
X0723395Y0023242D01*
X0723571Y0023071D01*
X0723742Y0022895D01*
X0723910Y0022716D01*
X0724072Y0022532D01*
X0724230Y0022344D01*
X0724383Y0022152D01*
X0724532Y0021957D01*
X0724676Y0021758D01*
X0724815Y0021556D01*
X0724949Y0021350D01*
X0725077Y0021141D01*
X0725201Y0020929D01*
X0725319Y0020714D01*
X0725432Y0020496D01*
X0725540Y0020276D01*
X0725642Y0020052D01*
X0725739Y0019827D01*
X0725830Y0019599D01*
X0725915Y0019369D01*
X0725995Y0019137D01*
X0726069Y0018903D01*
X0726138Y0018667D01*
X0726200Y0018430D01*
X0726257Y0018191D01*
X0726308Y0017951D01*
X0726353Y0017710D01*
X0726392Y0017467D01*
X0726425Y0017224D01*
X0726452Y0016980D01*
X0726473Y0016736D01*
X0726488Y0016491D01*
X0726497Y0016245D01*
X0726500Y0016000D01*
X0726497Y0015755D01*
X0726488Y0015509D01*
X0726473Y0015264D01*
X0726452Y0015020D01*
X0726425Y0014776D01*
X0726392Y0014533D01*
X0726353Y0014290D01*
X0726308Y0014049D01*
X0726257Y0013809D01*
X0726200Y0013570D01*
X0726138Y0013333D01*
X0726069Y0013097D01*
X0725995Y0012863D01*
X0725915Y0012631D01*
X0725830Y0012401D01*
X0725739Y0012173D01*
X0725642Y0011948D01*
X0725540Y0011724D01*
X0725432Y0011504D01*
X0725319Y0011286D01*
X0725201Y0011071D01*
X0725077Y0010859D01*
X0724949Y0010650D01*
X0724815Y0010444D01*
X0724676Y0010242D01*
X0724532Y0010043D01*
X0724383Y0009848D01*
X0724230Y0009656D01*
X0724072Y0009468D01*
X0723910Y0009284D01*
X0723742Y0009105D01*
X0723571Y0008929D01*
X0723395Y0008758D01*
X0723216Y0008590D01*
X0723032Y0008428D01*
X0722844Y0008270D01*
X0722652Y0008117D01*
X0722457Y0007968D01*
X0722258Y0007824D01*
X0722056Y0007685D01*
X0721850Y0007551D01*
X0721641Y0007423D01*
X0721429Y0007299D01*
X0721214Y0007181D01*
X0720996Y0007068D01*
X0720776Y0006960D01*
X0720552Y0006858D01*
X0720327Y0006761D01*
X0720099Y0006670D01*
X0719869Y0006585D01*
X0719637Y0006505D01*
X0719403Y0006431D01*
X0719167Y0006362D01*
X0718930Y0006300D01*
X0718691Y0006243D01*
X0718451Y0006192D01*
X0718210Y0006147D01*
X0717967Y0006108D01*
X0717724Y0006075D01*
X0717480Y0006048D01*
X0717236Y0006027D01*
X0716991Y0006012D01*
X0716745Y0006003D01*
X0716500Y0006000D01*
X0716255Y0006003D01*
X0716009Y0006012D01*
X0715764Y0006027D01*
X0715520Y0006048D01*
X0715276Y0006075D01*
X0715033Y0006108D01*
X0714790Y0006147D01*
X0714549Y0006192D01*
X0714309Y0006243D01*
X0714070Y0006300D01*
X0713833Y0006362D01*
X0713597Y0006431D01*
X0713363Y0006505D01*
X0713131Y0006585D01*
X0712901Y0006670D01*
X0712673Y0006761D01*
X0712448Y0006858D01*
X0712224Y0006960D01*
X0712004Y0007068D01*
X0711786Y0007181D01*
X0711571Y0007299D01*
X0711359Y0007423D01*
X0711150Y0007551D01*
X0710944Y0007685D01*
X0710742Y0007824D01*
X0710543Y0007968D01*
X0710348Y0008117D01*
X0710156Y0008270D01*
X0709968Y0008428D01*
X0709784Y0008590D01*
X0709605Y0008758D01*
X0709429Y0008929D01*
X0709258Y0009105D01*
X0709090Y0009284D01*
X0708928Y0009468D01*
X0708770Y0009656D01*
X0708617Y0009848D01*
X0708468Y0010043D01*
X0708324Y0010242D01*
X0708185Y0010444D01*
X0708051Y0010650D01*
X0707923Y0010859D01*
X0707799Y0011071D01*
X0707681Y0011286D01*
X0707568Y0011504D01*
X0707460Y0011724D01*
X0707358Y0011948D01*
X0707261Y0012173D01*
X0707170Y0012401D01*
X0707085Y0012631D01*
X0707005Y0012863D01*
X0706931Y0013097D01*
X0706862Y0013333D01*
X0706800Y0013570D01*
X0706743Y0013809D01*
X0706692Y0014049D01*
X0706647Y0014290D01*
X0706608Y0014533D01*
X0706575Y0014776D01*
X0706548Y0015020D01*
X0706527Y0015264D01*
X0706512Y0015509D01*
X0706503Y0015755D01*
X0706500Y0016000D01*
D12*
X0706500Y0008500D02*
X0706687Y0008257D01*
X0706879Y0008019D01*
X0707078Y0007786D01*
X0707282Y0007558D01*
X0707491Y0007335D01*
X0707706Y0007117D01*
X0707926Y0006904D01*
X0708151Y0006697D01*
X0708382Y0006495D01*
X0708617Y0006299D01*
X0708857Y0006109D01*
X0709101Y0005925D01*
X0709350Y0005747D01*
X0709604Y0005575D01*
X0709861Y0005409D01*
X0710122Y0005249D01*
X0710387Y0005096D01*
X0710656Y0004950D01*
X0710929Y0004810D01*
X0711204Y0004677D01*
X0711483Y0004551D01*
X0711765Y0004431D01*
X0712050Y0004319D01*
X0712337Y0004214D01*
X0712627Y0004115D01*
X0712919Y0004024D01*
X0713214Y0003940D01*
X0713510Y0003863D01*
X0713808Y0003793D01*
X0714108Y0003731D01*
X0714409Y0003676D01*
X0714711Y0003629D01*
X0715015Y0003589D01*
X0715319Y0003556D01*
X0715624Y0003531D01*
X0715930Y0003513D01*
X0716236Y0003503D01*
X0716542Y0003500D01*
X0716848Y0003505D01*
X0717154Y0003517D01*
X0717460Y0003537D01*
X0717764Y0003564D01*
X0718069Y0003599D01*
X0718372Y0003641D01*
X0718674Y0003690D01*
X0718975Y0003747D01*
X0719274Y0003812D01*
X0719572Y0003883D01*
X0719867Y0003962D01*
X0720161Y0004048D01*
X0720453Y0004141D01*
X0720742Y0004242D01*
X0721029Y0004349D01*
X0721313Y0004464D01*
X0721594Y0004585D01*
X0721872Y0004713D01*
X0722147Y0004848D01*
X0722418Y0004990D01*
X0722686Y0005138D01*
X0722950Y0005293D01*
X0723210Y0005454D01*
X0723466Y0005621D01*
X0723719Y0005795D01*
X0723966Y0005975D01*
X0724210Y0006161D01*
X0724448Y0006352D01*
X0724682Y0006550D01*
X0724911Y0006753D01*
X0725135Y0006962D01*
X0725354Y0007176D01*
X0725567Y0007396D01*
X0725775Y0007620D01*
X0725978Y0007850D01*
X0726174Y0008084D01*
X0726365Y0008324D01*
X0726550Y0008567D01*
X0726729Y0008816D01*
X0726902Y0009068D01*
X0727069Y0009325D01*
X0727229Y0009586D01*
X0727383Y0009851D01*
X0727530Y0010119D01*
X0727671Y0010391D01*
X0727805Y0010666D01*
X0727932Y0010945D01*
X0728053Y0011226D01*
X0728166Y0011511D01*
X0728272Y0011798D01*
X0728372Y0012087D01*
X0728464Y0012379D01*
X0728549Y0012673D01*
X0728627Y0012969D01*
X0728698Y0013267D01*
X0728761Y0013567D01*
X0728817Y0013868D01*
X0728865Y0014170D01*
X0728906Y0014473D01*
X0728940Y0014777D01*
X0728966Y0015082D01*
X0728985Y0015388D01*
X0728996Y0015694D01*
X0729000Y0016000D01*
X0728996Y0016306D01*
X0728985Y0016612D01*
X0728966Y0016918D01*
X0728940Y0017223D01*
X0728906Y0017527D01*
X0728865Y0017830D01*
X0728817Y0018132D01*
X0728761Y0018433D01*
X0728698Y0018733D01*
X0728627Y0019031D01*
X0728549Y0019327D01*
X0728464Y0019621D01*
X0728372Y0019913D01*
X0728272Y0020202D01*
X0728166Y0020489D01*
X0728053Y0020774D01*
X0727932Y0021055D01*
X0727805Y0021334D01*
X0727671Y0021609D01*
X0727530Y0021881D01*
X0727383Y0022149D01*
X0727229Y0022414D01*
X0727069Y0022675D01*
X0726902Y0022932D01*
X0726729Y0023184D01*
X0726550Y0023433D01*
X0726365Y0023676D01*
X0726174Y0023916D01*
X0725978Y0024150D01*
X0725775Y0024380D01*
X0725567Y0024604D01*
X0725354Y0024824D01*
X0725135Y0025038D01*
X0724911Y0025247D01*
X0724682Y0025450D01*
X0724448Y0025648D01*
X0724210Y0025839D01*
X0723966Y0026025D01*
X0723719Y0026205D01*
X0723466Y0026379D01*
X0723210Y0026546D01*
X0722950Y0026707D01*
X0722686Y0026862D01*
X0722418Y0027010D01*
X0722147Y0027152D01*
X0721872Y0027287D01*
X0721594Y0027415D01*
X0721313Y0027536D01*
X0721029Y0027651D01*
X0720742Y0027758D01*
X0720453Y0027859D01*
X0720161Y0027952D01*
X0719867Y0028038D01*
X0719572Y0028117D01*
X0719274Y0028188D01*
X0718975Y0028253D01*
X0718674Y0028310D01*
X0718372Y0028359D01*
X0718069Y0028401D01*
X0717764Y0028436D01*
X0717460Y0028463D01*
X0717154Y0028483D01*
X0716848Y0028495D01*
X0716542Y0028500D01*
X0716236Y0028497D01*
X0715930Y0028487D01*
X0715624Y0028469D01*
X0715319Y0028444D01*
X0715015Y0028411D01*
X0714711Y0028371D01*
X0714409Y0028324D01*
X0714108Y0028269D01*
X0713808Y0028207D01*
X0713510Y0028137D01*
X0713214Y0028060D01*
X0712919Y0027976D01*
X0712627Y0027885D01*
X0712337Y0027786D01*
X0712050Y0027681D01*
X0711765Y0027569D01*
X0711483Y0027449D01*
X0711204Y0027323D01*
X0710929Y0027190D01*
X0710656Y0027050D01*
X0710387Y0026904D01*
X0710122Y0026751D01*
X0709861Y0026591D01*
X0709604Y0026425D01*
X0709350Y0026253D01*
X0709101Y0026075D01*
X0708857Y0025891D01*
X0708617Y0025701D01*
X0708382Y0025505D01*
X0708151Y0025303D01*
X0707926Y0025096D01*
X0707706Y0024883D01*
X0707491Y0024665D01*
X0707282Y0024442D01*
X0707078Y0024214D01*
X0706879Y0023981D01*
X0706687Y0023743D01*
X0706500Y0023500D01*
X0612500Y0138000D02*
X0612500Y0141000D01*
X0612500Y0144000D01*
X0610500Y0144000D02*
X0610500Y0141000D01*
X0610500Y0138000D01*
X0462500Y0138000D02*
X0462500Y0141000D01*
X0462500Y0144000D01*
X0460500Y0144000D02*
X0460500Y0141000D01*
X0460500Y0138000D01*
X0392500Y0138000D02*
X0392500Y0141000D01*
X0392500Y0144000D01*
X0390500Y0144000D02*
X0390500Y0141000D01*
X0390500Y0138000D01*
X0322500Y0138000D02*
X0322500Y0141000D01*
X0322500Y0144000D01*
X0320500Y0144000D02*
X0320500Y0141000D01*
X0320500Y0138000D01*
X0252500Y0138000D02*
X0252500Y0141000D01*
X0252500Y0144000D01*
X0250500Y0144000D02*
X0250500Y0141000D01*
X0250500Y0138000D01*
X0104500Y0150000D02*
X0101500Y0150000D01*
X0098500Y0150000D01*
X0098500Y0152000D02*
X0101500Y0152000D01*
X0104500Y0152000D01*
X0104500Y0200000D02*
X0101500Y0200000D01*
X0098500Y0200000D01*
X0098500Y0202000D02*
X0101500Y0202000D01*
X0104500Y0202000D01*
X0104500Y0250000D02*
X0101500Y0250000D01*
X0098500Y0250000D01*
X0098500Y0252000D02*
X0101500Y0252000D01*
X0104500Y0252000D01*
X0104500Y0300000D02*
X0101500Y0300000D01*
X0098500Y0300000D01*
X0098500Y0302000D02*
X0101500Y0302000D01*
X0104500Y0302000D01*
X0104500Y0355000D02*
X0101500Y0355000D01*
X0098500Y0355000D01*
X0098500Y0357000D02*
X0101500Y0357000D01*
X0104500Y0357000D01*
X0051500Y0391000D02*
X0046500Y0391000D01*
X0046500Y0061000D01*
X0036500Y0061000D01*
X0031000Y0056000D01*
X0031000Y0041500D01*
X0026539Y0041512D02*
X0026539Y0410988D01*
X0026500Y0411000D02*
X0031000Y0411000D01*
X0031000Y0396000D01*
X0036500Y0391000D01*
X0046500Y0391000D01*
X0051500Y0391000D02*
X0051500Y0411000D01*
X0031000Y0411000D01*
X0036500Y0401025D02*
X0036502Y0401166D01*
X0036508Y0401307D01*
X0036518Y0401447D01*
X0036532Y0401587D01*
X0036550Y0401727D01*
X0036571Y0401866D01*
X0036597Y0402005D01*
X0036626Y0402143D01*
X0036660Y0402279D01*
X0036697Y0402415D01*
X0036738Y0402550D01*
X0036783Y0402684D01*
X0036832Y0402816D01*
X0036884Y0402947D01*
X0036940Y0403076D01*
X0037000Y0403203D01*
X0037063Y0403329D01*
X0037129Y0403453D01*
X0037200Y0403576D01*
X0037273Y0403696D01*
X0037350Y0403814D01*
X0037430Y0403930D01*
X0037514Y0404043D01*
X0037600Y0404154D01*
X0037690Y0404263D01*
X0037783Y0404369D01*
X0037878Y0404472D01*
X0037977Y0404573D01*
X0038078Y0404671D01*
X0038182Y0404766D01*
X0038289Y0404858D01*
X0038398Y0404947D01*
X0038510Y0405032D01*
X0038624Y0405115D01*
X0038740Y0405195D01*
X0038859Y0405271D01*
X0038980Y0405343D01*
X0039102Y0405413D01*
X0039227Y0405478D01*
X0039353Y0405541D01*
X0039481Y0405599D01*
X0039611Y0405654D01*
X0039742Y0405706D01*
X0039875Y0405753D01*
X0040009Y0405797D01*
X0040144Y0405838D01*
X0040280Y0405874D01*
X0040417Y0405906D01*
X0040555Y0405935D01*
X0040693Y0405960D01*
X0040833Y0405980D01*
X0040973Y0405997D01*
X0041113Y0406010D01*
X0041254Y0406019D01*
X0041394Y0406024D01*
X0041535Y0406025D01*
X0041676Y0406022D01*
X0041817Y0406015D01*
X0041957Y0406004D01*
X0042097Y0405989D01*
X0042237Y0405970D01*
X0042376Y0405948D01*
X0042514Y0405921D01*
X0042652Y0405891D01*
X0042788Y0405856D01*
X0042924Y0405818D01*
X0043058Y0405776D01*
X0043192Y0405730D01*
X0043324Y0405681D01*
X0043454Y0405627D01*
X0043583Y0405570D01*
X0043710Y0405510D01*
X0043836Y0405446D01*
X0043959Y0405378D01*
X0044081Y0405307D01*
X0044201Y0405233D01*
X0044318Y0405155D01*
X0044433Y0405074D01*
X0044546Y0404990D01*
X0044657Y0404903D01*
X0044765Y0404812D01*
X0044870Y0404719D01*
X0044973Y0404622D01*
X0045073Y0404523D01*
X0045170Y0404421D01*
X0045264Y0404316D01*
X0045355Y0404209D01*
X0045443Y0404099D01*
X0045528Y0403987D01*
X0045610Y0403872D01*
X0045689Y0403755D01*
X0045764Y0403636D01*
X0045836Y0403515D01*
X0045904Y0403392D01*
X0045969Y0403267D01*
X0046031Y0403140D01*
X0046088Y0403011D01*
X0046143Y0402881D01*
X0046193Y0402750D01*
X0046240Y0402617D01*
X0046283Y0402483D01*
X0046322Y0402347D01*
X0046357Y0402211D01*
X0046389Y0402074D01*
X0046416Y0401936D01*
X0046440Y0401797D01*
X0046460Y0401657D01*
X0046476Y0401517D01*
X0046488Y0401377D01*
X0046496Y0401236D01*
X0046500Y0401095D01*
X0046500Y0400955D01*
X0046496Y0400814D01*
X0046488Y0400673D01*
X0046476Y0400533D01*
X0046460Y0400393D01*
X0046440Y0400253D01*
X0046416Y0400114D01*
X0046389Y0399976D01*
X0046357Y0399839D01*
X0046322Y0399703D01*
X0046283Y0399567D01*
X0046240Y0399433D01*
X0046193Y0399300D01*
X0046143Y0399169D01*
X0046088Y0399039D01*
X0046031Y0398910D01*
X0045969Y0398783D01*
X0045904Y0398658D01*
X0045836Y0398535D01*
X0045764Y0398414D01*
X0045689Y0398295D01*
X0045610Y0398178D01*
X0045528Y0398063D01*
X0045443Y0397951D01*
X0045355Y0397841D01*
X0045264Y0397734D01*
X0045170Y0397629D01*
X0045073Y0397527D01*
X0044973Y0397428D01*
X0044870Y0397331D01*
X0044765Y0397238D01*
X0044657Y0397147D01*
X0044546Y0397060D01*
X0044433Y0396976D01*
X0044318Y0396895D01*
X0044201Y0396817D01*
X0044081Y0396743D01*
X0043959Y0396672D01*
X0043836Y0396604D01*
X0043710Y0396540D01*
X0043583Y0396480D01*
X0043454Y0396423D01*
X0043324Y0396369D01*
X0043192Y0396320D01*
X0043058Y0396274D01*
X0042924Y0396232D01*
X0042788Y0396194D01*
X0042652Y0396159D01*
X0042514Y0396129D01*
X0042376Y0396102D01*
X0042237Y0396080D01*
X0042097Y0396061D01*
X0041957Y0396046D01*
X0041817Y0396035D01*
X0041676Y0396028D01*
X0041535Y0396025D01*
X0041394Y0396026D01*
X0041254Y0396031D01*
X0041113Y0396040D01*
X0040973Y0396053D01*
X0040833Y0396070D01*
X0040693Y0396090D01*
X0040555Y0396115D01*
X0040417Y0396144D01*
X0040280Y0396176D01*
X0040144Y0396212D01*
X0040009Y0396253D01*
X0039875Y0396297D01*
X0039742Y0396344D01*
X0039611Y0396396D01*
X0039481Y0396451D01*
X0039353Y0396509D01*
X0039227Y0396572D01*
X0039102Y0396637D01*
X0038980Y0396707D01*
X0038859Y0396779D01*
X0038740Y0396855D01*
X0038624Y0396935D01*
X0038510Y0397018D01*
X0038398Y0397103D01*
X0038289Y0397192D01*
X0038182Y0397284D01*
X0038078Y0397379D01*
X0037977Y0397477D01*
X0037878Y0397578D01*
X0037783Y0397681D01*
X0037690Y0397787D01*
X0037600Y0397896D01*
X0037514Y0398007D01*
X0037430Y0398120D01*
X0037350Y0398236D01*
X0037273Y0398354D01*
X0037200Y0398474D01*
X0037129Y0398597D01*
X0037063Y0398721D01*
X0037000Y0398847D01*
X0036940Y0398974D01*
X0036884Y0399103D01*
X0036832Y0399234D01*
X0036783Y0399366D01*
X0036738Y0399500D01*
X0036697Y0399635D01*
X0036660Y0399771D01*
X0036626Y0399907D01*
X0036597Y0400045D01*
X0036571Y0400184D01*
X0036550Y0400323D01*
X0036532Y0400463D01*
X0036518Y0400603D01*
X0036508Y0400743D01*
X0036502Y0400884D01*
X0036500Y0401025D01*
X0026500Y0393500D02*
X0005000Y0393500D01*
X0005000Y0389500D01*
X0001500Y0385500D01*
X0001500Y0066500D01*
X0005000Y0062500D01*
X0005000Y0058500D01*
X0026500Y0058500D01*
X0026000Y0062500D02*
X0005000Y0062500D01*
X0005000Y0389500D01*
X0026000Y0389500D01*
X0005000Y0393500D02*
X0001500Y0389500D01*
X0001500Y0385500D01*
X0250500Y0413000D02*
X0250500Y0416000D01*
X0250500Y0419000D01*
X0252500Y0419000D02*
X0252500Y0416000D01*
X0252500Y0413000D01*
X0320500Y0413000D02*
X0320500Y0416000D01*
X0320500Y0419000D01*
X0322500Y0419000D02*
X0322500Y0416000D01*
X0322500Y0413000D01*
X0390500Y0413000D02*
X0390500Y0416000D01*
X0390500Y0419000D01*
X0392500Y0419000D02*
X0392500Y0416000D01*
X0392500Y0413000D01*
X0460500Y0413000D02*
X0460500Y0416000D01*
X0460500Y0419000D01*
X0462500Y0419000D02*
X0462500Y0416000D01*
X0462500Y0413000D01*
X0610500Y0413000D02*
X0610500Y0416000D01*
X0610500Y0419000D01*
X0612500Y0419000D02*
X0612500Y0416000D01*
X0612500Y0413000D01*
X0612500Y0289000D02*
X0612500Y0286000D01*
X0612500Y0283000D01*
X0610500Y0283000D02*
X0610500Y0286000D01*
X0610500Y0289000D01*
X0462500Y0254000D02*
X0462500Y0251000D01*
X0462500Y0248000D01*
X0460500Y0248000D02*
X0460500Y0251000D01*
X0460500Y0254000D01*
X0392500Y0254000D02*
X0392500Y0251000D01*
X0392500Y0248000D01*
X0390500Y0248000D02*
X0390500Y0251000D01*
X0390500Y0254000D01*
X0322500Y0254000D02*
X0322500Y0251000D01*
X0322500Y0248000D01*
X0320500Y0248000D02*
X0320500Y0251000D01*
X0320500Y0254000D01*
X0252500Y0254000D02*
X0252500Y0251000D01*
X0252500Y0248000D01*
X0250500Y0248000D02*
X0250500Y0251000D01*
X0250500Y0254000D01*
X0104500Y0102000D02*
X0101500Y0102000D01*
X0098500Y0102000D01*
X0098500Y0100000D02*
X0101500Y0100000D01*
X0104500Y0100000D01*
X0051500Y0061000D02*
X0046500Y0061000D01*
X0051500Y0061000D02*
X0051500Y0041157D01*
X0051500Y0041000D01*
X0051500Y0041157D02*
X0026500Y0041157D01*
X0036500Y0050975D02*
X0036502Y0051116D01*
X0036508Y0051257D01*
X0036518Y0051397D01*
X0036532Y0051537D01*
X0036550Y0051677D01*
X0036571Y0051816D01*
X0036597Y0051955D01*
X0036626Y0052093D01*
X0036660Y0052229D01*
X0036697Y0052365D01*
X0036738Y0052500D01*
X0036783Y0052634D01*
X0036832Y0052766D01*
X0036884Y0052897D01*
X0036940Y0053026D01*
X0037000Y0053153D01*
X0037063Y0053279D01*
X0037129Y0053403D01*
X0037200Y0053526D01*
X0037273Y0053646D01*
X0037350Y0053764D01*
X0037430Y0053880D01*
X0037514Y0053993D01*
X0037600Y0054104D01*
X0037690Y0054213D01*
X0037783Y0054319D01*
X0037878Y0054422D01*
X0037977Y0054523D01*
X0038078Y0054621D01*
X0038182Y0054716D01*
X0038289Y0054808D01*
X0038398Y0054897D01*
X0038510Y0054982D01*
X0038624Y0055065D01*
X0038740Y0055145D01*
X0038859Y0055221D01*
X0038980Y0055293D01*
X0039102Y0055363D01*
X0039227Y0055428D01*
X0039353Y0055491D01*
X0039481Y0055549D01*
X0039611Y0055604D01*
X0039742Y0055656D01*
X0039875Y0055703D01*
X0040009Y0055747D01*
X0040144Y0055788D01*
X0040280Y0055824D01*
X0040417Y0055856D01*
X0040555Y0055885D01*
X0040693Y0055910D01*
X0040833Y0055930D01*
X0040973Y0055947D01*
X0041113Y0055960D01*
X0041254Y0055969D01*
X0041394Y0055974D01*
X0041535Y0055975D01*
X0041676Y0055972D01*
X0041817Y0055965D01*
X0041957Y0055954D01*
X0042097Y0055939D01*
X0042237Y0055920D01*
X0042376Y0055898D01*
X0042514Y0055871D01*
X0042652Y0055841D01*
X0042788Y0055806D01*
X0042924Y0055768D01*
X0043058Y0055726D01*
X0043192Y0055680D01*
X0043324Y0055631D01*
X0043454Y0055577D01*
X0043583Y0055520D01*
X0043710Y0055460D01*
X0043836Y0055396D01*
X0043959Y0055328D01*
X0044081Y0055257D01*
X0044201Y0055183D01*
X0044318Y0055105D01*
X0044433Y0055024D01*
X0044546Y0054940D01*
X0044657Y0054853D01*
X0044765Y0054762D01*
X0044870Y0054669D01*
X0044973Y0054572D01*
X0045073Y0054473D01*
X0045170Y0054371D01*
X0045264Y0054266D01*
X0045355Y0054159D01*
X0045443Y0054049D01*
X0045528Y0053937D01*
X0045610Y0053822D01*
X0045689Y0053705D01*
X0045764Y0053586D01*
X0045836Y0053465D01*
X0045904Y0053342D01*
X0045969Y0053217D01*
X0046031Y0053090D01*
X0046088Y0052961D01*
X0046143Y0052831D01*
X0046193Y0052700D01*
X0046240Y0052567D01*
X0046283Y0052433D01*
X0046322Y0052297D01*
X0046357Y0052161D01*
X0046389Y0052024D01*
X0046416Y0051886D01*
X0046440Y0051747D01*
X0046460Y0051607D01*
X0046476Y0051467D01*
X0046488Y0051327D01*
X0046496Y0051186D01*
X0046500Y0051045D01*
X0046500Y0050905D01*
X0046496Y0050764D01*
X0046488Y0050623D01*
X0046476Y0050483D01*
X0046460Y0050343D01*
X0046440Y0050203D01*
X0046416Y0050064D01*
X0046389Y0049926D01*
X0046357Y0049789D01*
X0046322Y0049653D01*
X0046283Y0049517D01*
X0046240Y0049383D01*
X0046193Y0049250D01*
X0046143Y0049119D01*
X0046088Y0048989D01*
X0046031Y0048860D01*
X0045969Y0048733D01*
X0045904Y0048608D01*
X0045836Y0048485D01*
X0045764Y0048364D01*
X0045689Y0048245D01*
X0045610Y0048128D01*
X0045528Y0048013D01*
X0045443Y0047901D01*
X0045355Y0047791D01*
X0045264Y0047684D01*
X0045170Y0047579D01*
X0045073Y0047477D01*
X0044973Y0047378D01*
X0044870Y0047281D01*
X0044765Y0047188D01*
X0044657Y0047097D01*
X0044546Y0047010D01*
X0044433Y0046926D01*
X0044318Y0046845D01*
X0044201Y0046767D01*
X0044081Y0046693D01*
X0043959Y0046622D01*
X0043836Y0046554D01*
X0043710Y0046490D01*
X0043583Y0046430D01*
X0043454Y0046373D01*
X0043324Y0046319D01*
X0043192Y0046270D01*
X0043058Y0046224D01*
X0042924Y0046182D01*
X0042788Y0046144D01*
X0042652Y0046109D01*
X0042514Y0046079D01*
X0042376Y0046052D01*
X0042237Y0046030D01*
X0042097Y0046011D01*
X0041957Y0045996D01*
X0041817Y0045985D01*
X0041676Y0045978D01*
X0041535Y0045975D01*
X0041394Y0045976D01*
X0041254Y0045981D01*
X0041113Y0045990D01*
X0040973Y0046003D01*
X0040833Y0046020D01*
X0040693Y0046040D01*
X0040555Y0046065D01*
X0040417Y0046094D01*
X0040280Y0046126D01*
X0040144Y0046162D01*
X0040009Y0046203D01*
X0039875Y0046247D01*
X0039742Y0046294D01*
X0039611Y0046346D01*
X0039481Y0046401D01*
X0039353Y0046459D01*
X0039227Y0046522D01*
X0039102Y0046587D01*
X0038980Y0046657D01*
X0038859Y0046729D01*
X0038740Y0046805D01*
X0038624Y0046885D01*
X0038510Y0046968D01*
X0038398Y0047053D01*
X0038289Y0047142D01*
X0038182Y0047234D01*
X0038078Y0047329D01*
X0037977Y0047427D01*
X0037878Y0047528D01*
X0037783Y0047631D01*
X0037690Y0047737D01*
X0037600Y0047846D01*
X0037514Y0047957D01*
X0037430Y0048070D01*
X0037350Y0048186D01*
X0037273Y0048304D01*
X0037200Y0048424D01*
X0037129Y0048547D01*
X0037063Y0048671D01*
X0037000Y0048797D01*
X0036940Y0048924D01*
X0036884Y0049053D01*
X0036832Y0049184D01*
X0036783Y0049316D01*
X0036738Y0049450D01*
X0036697Y0049585D01*
X0036660Y0049721D01*
X0036626Y0049857D01*
X0036597Y0049995D01*
X0036571Y0050134D01*
X0036550Y0050273D01*
X0036532Y0050413D01*
X0036518Y0050553D01*
X0036508Y0050693D01*
X0036502Y0050834D01*
X0036500Y0050975D01*
X0005000Y0058500D02*
X0001500Y0062500D01*
X0001500Y0066500D01*
X0098500Y0052000D02*
X0101500Y0052000D01*
X0104500Y0052000D01*
X0104500Y0050000D02*
X0101500Y0050000D01*
X0098500Y0050000D01*
D13*
X0092750Y0049856D02*
X0092750Y0046854D01*
X0092750Y0048355D02*
X0088246Y0048355D01*
X0089747Y0046854D01*
X0088997Y0045253D02*
X0088246Y0044502D01*
X0088246Y0043001D01*
X0088997Y0042250D01*
X0091999Y0042250D01*
X0092750Y0043001D01*
X0092750Y0044502D01*
X0091999Y0045253D01*
X0090498Y0051458D02*
X0088246Y0053710D01*
X0092750Y0053710D01*
X0090498Y0054460D02*
X0090498Y0051458D01*
X0072149Y0061250D02*
X0069897Y0061250D01*
X0069146Y0062001D01*
X0069146Y0063502D01*
X0069897Y0064253D01*
X0072149Y0064253D01*
X0062149Y0063502D02*
X0062149Y0062001D01*
X0061398Y0061250D01*
X0059146Y0061250D01*
X0059146Y0065754D01*
X0059146Y0064253D02*
X0061398Y0064253D01*
X0062149Y0063502D01*
X0052149Y0063502D02*
X0052149Y0061250D01*
X0049897Y0061250D01*
X0049146Y0062001D01*
X0049897Y0062751D01*
X0052149Y0062751D01*
X0052149Y0063502D02*
X0051398Y0064253D01*
X0049897Y0064253D01*
X0013750Y0091745D02*
X0013750Y0093997D01*
X0012999Y0094748D01*
X0009997Y0094748D01*
X0009246Y0093997D01*
X0009246Y0091745D01*
X0013750Y0091745D01*
X0013750Y0096349D02*
X0013750Y0097851D01*
X0013750Y0097100D02*
X0009246Y0097100D01*
X0009246Y0096349D02*
X0009246Y0097851D01*
X0009246Y0099419D02*
X0013750Y0102421D01*
X0009246Y0102421D01*
X0011498Y0104022D02*
X0011498Y0107025D01*
X0010747Y0108626D02*
X0009246Y0110128D01*
X0013750Y0110128D01*
X0013750Y0111629D02*
X0013750Y0108626D01*
X0013750Y0106274D02*
X0009246Y0106274D01*
X0011498Y0104022D01*
X0013750Y0099419D02*
X0009246Y0099419D01*
X0011498Y0113230D02*
X0011498Y0115482D01*
X0012249Y0116233D01*
X0012999Y0116233D01*
X0013750Y0115482D01*
X0013750Y0113981D01*
X0012999Y0113230D01*
X0011498Y0113230D01*
X0009997Y0114732D01*
X0009246Y0116233D01*
X0010747Y0117834D02*
X0009246Y0119335D01*
X0013750Y0119335D01*
X0013750Y0117834D02*
X0013750Y0120837D01*
X0013750Y0122438D02*
X0010747Y0125441D01*
X0009997Y0125441D01*
X0009246Y0124690D01*
X0009246Y0123189D01*
X0009997Y0122438D01*
X0013750Y0122438D02*
X0013750Y0125441D01*
X0011498Y0127042D02*
X0011498Y0130045D01*
X0012249Y0131646D02*
X0012249Y0133898D01*
X0011498Y0134649D01*
X0009997Y0134649D01*
X0009246Y0133898D01*
X0009246Y0131646D01*
X0013750Y0131646D01*
X0012249Y0133147D02*
X0013750Y0134649D01*
X0088246Y0143001D02*
X0088997Y0142250D01*
X0091999Y0142250D01*
X0092750Y0143001D01*
X0092750Y0144502D01*
X0091999Y0145253D01*
X0092750Y0146854D02*
X0092750Y0149856D01*
X0092750Y0148355D02*
X0088246Y0148355D01*
X0089747Y0146854D01*
X0088997Y0145253D02*
X0088246Y0144502D01*
X0088246Y0143001D01*
X0088997Y0151458D02*
X0088246Y0152208D01*
X0088246Y0153710D01*
X0088997Y0154460D01*
X0089747Y0154460D01*
X0090498Y0153710D01*
X0090498Y0152208D01*
X0089747Y0151458D01*
X0088997Y0151458D01*
X0090498Y0152208D02*
X0091249Y0151458D01*
X0091999Y0151458D01*
X0092750Y0152208D01*
X0092750Y0153710D01*
X0091999Y0154460D01*
X0091249Y0154460D01*
X0090498Y0153710D01*
X0088997Y0192250D02*
X0088246Y0193001D01*
X0088246Y0194502D01*
X0088997Y0195253D01*
X0088997Y0196854D02*
X0088246Y0197605D01*
X0088246Y0199106D01*
X0088997Y0199856D01*
X0089747Y0199856D01*
X0092750Y0196854D01*
X0092750Y0199856D01*
X0091999Y0201458D02*
X0088997Y0204460D01*
X0091999Y0204460D01*
X0092750Y0203710D01*
X0092750Y0202208D01*
X0091999Y0201458D01*
X0088997Y0201458D01*
X0088246Y0202208D01*
X0088246Y0203710D01*
X0088997Y0204460D01*
X0091999Y0195253D02*
X0092750Y0194502D01*
X0092750Y0193001D01*
X0091999Y0192250D01*
X0088997Y0192250D01*
X0088997Y0242250D02*
X0088246Y0243001D01*
X0088246Y0244502D01*
X0088997Y0245253D01*
X0089747Y0246854D02*
X0088246Y0248355D01*
X0092750Y0248355D01*
X0092750Y0246854D02*
X0092750Y0249856D01*
X0092750Y0251458D02*
X0091999Y0251458D01*
X0088997Y0254460D01*
X0088246Y0254460D01*
X0088246Y0251458D01*
X0091999Y0245253D02*
X0092750Y0244502D01*
X0092750Y0243001D01*
X0091999Y0242250D01*
X0088997Y0242250D01*
X0088997Y0292250D02*
X0088246Y0293001D01*
X0088246Y0294502D01*
X0088997Y0295253D01*
X0090498Y0296854D02*
X0090498Y0299106D01*
X0091249Y0299856D01*
X0091999Y0299856D01*
X0092750Y0299106D01*
X0092750Y0297605D01*
X0091999Y0296854D01*
X0090498Y0296854D01*
X0088997Y0298355D01*
X0088246Y0299856D01*
X0091999Y0295253D02*
X0092750Y0294502D01*
X0092750Y0293001D01*
X0091999Y0292250D01*
X0088997Y0292250D01*
X0088997Y0347250D02*
X0088246Y0348001D01*
X0088246Y0349502D01*
X0088997Y0350253D01*
X0089747Y0351854D02*
X0088246Y0353355D01*
X0092750Y0353355D01*
X0092750Y0351854D02*
X0092750Y0354856D01*
X0092750Y0356458D02*
X0092750Y0359460D01*
X0092750Y0357959D02*
X0088246Y0357959D01*
X0089747Y0356458D01*
X0091999Y0350253D02*
X0092750Y0349502D01*
X0092750Y0348001D01*
X0091999Y0347250D01*
X0088997Y0347250D01*
X0038750Y0352042D02*
X0034246Y0355045D01*
X0035747Y0356646D02*
X0034246Y0358147D01*
X0038750Y0358147D01*
X0038750Y0356646D02*
X0038750Y0359649D01*
X0038750Y0355045D02*
X0034246Y0352042D01*
X0106750Y0398750D02*
X0106750Y0403254D01*
X0109002Y0403254D01*
X0109753Y0402503D01*
X0109753Y0401002D01*
X0109002Y0400251D01*
X0106750Y0400251D01*
X0108251Y0400251D02*
X0109753Y0398750D01*
X0111354Y0398750D02*
X0111354Y0403254D01*
X0114356Y0398750D01*
X0114356Y0403254D01*
X0115958Y0402503D02*
X0116708Y0403254D01*
X0118210Y0403254D01*
X0118960Y0402503D01*
X0118960Y0401753D01*
X0115958Y0398750D01*
X0118960Y0398750D01*
X0118960Y0423750D02*
X0115958Y0423750D01*
X0117459Y0423750D02*
X0117459Y0428254D01*
X0115958Y0426753D01*
X0114356Y0428254D02*
X0114356Y0423750D01*
X0111354Y0428254D01*
X0111354Y0423750D01*
X0109753Y0423750D02*
X0108251Y0425251D01*
X0109002Y0425251D02*
X0106750Y0425251D01*
X0106750Y0423750D02*
X0106750Y0428254D01*
X0109002Y0428254D01*
X0109753Y0427503D01*
X0109753Y0426002D01*
X0109002Y0425251D01*
X0049356Y0433750D02*
X0046354Y0433750D01*
X0049356Y0436753D01*
X0049356Y0437503D01*
X0048606Y0438254D01*
X0047105Y0438254D01*
X0046354Y0437503D01*
X0044753Y0438254D02*
X0043251Y0438254D01*
X0044002Y0438254D02*
X0044002Y0434501D01*
X0043251Y0433750D01*
X0042501Y0433750D01*
X0041750Y0434501D01*
X0185246Y0358424D02*
X0189750Y0358424D01*
X0189750Y0356923D02*
X0189750Y0359926D01*
X0186747Y0356923D02*
X0185246Y0358424D01*
X0185997Y0355322D02*
X0185246Y0354571D01*
X0185246Y0353070D01*
X0185997Y0352319D01*
X0188999Y0352319D01*
X0189750Y0353070D01*
X0189750Y0354571D01*
X0188999Y0355322D01*
X0189750Y0350751D02*
X0189750Y0349250D01*
X0189750Y0350001D02*
X0185246Y0350001D01*
X0185246Y0350751D02*
X0185246Y0349250D01*
X0243501Y0424750D02*
X0242750Y0425501D01*
X0242750Y0428503D01*
X0243501Y0429254D01*
X0245002Y0429254D01*
X0245753Y0428503D01*
X0247354Y0427753D02*
X0248855Y0429254D01*
X0248855Y0424750D01*
X0247354Y0424750D02*
X0250356Y0424750D01*
X0251958Y0424750D02*
X0254960Y0427753D01*
X0254960Y0428503D01*
X0254210Y0429254D01*
X0252708Y0429254D01*
X0251958Y0428503D01*
X0251958Y0424750D02*
X0254960Y0424750D01*
X0245753Y0425501D02*
X0245002Y0424750D01*
X0243501Y0424750D01*
X0312750Y0425501D02*
X0313501Y0424750D01*
X0315002Y0424750D01*
X0315753Y0425501D01*
X0317354Y0424750D02*
X0320356Y0424750D01*
X0318855Y0424750D02*
X0318855Y0429254D01*
X0317354Y0427753D01*
X0315753Y0428503D02*
X0315002Y0429254D01*
X0313501Y0429254D01*
X0312750Y0428503D01*
X0312750Y0425501D01*
X0321958Y0425501D02*
X0322708Y0424750D01*
X0324210Y0424750D01*
X0324960Y0425501D01*
X0324960Y0426251D01*
X0324210Y0427002D01*
X0323459Y0427002D01*
X0324210Y0427002D02*
X0324960Y0427753D01*
X0324960Y0428503D01*
X0324210Y0429254D01*
X0322708Y0429254D01*
X0321958Y0428503D01*
X0382750Y0428503D02*
X0382750Y0425501D01*
X0383501Y0424750D01*
X0385002Y0424750D01*
X0385753Y0425501D01*
X0387354Y0424750D02*
X0390356Y0424750D01*
X0388855Y0424750D02*
X0388855Y0429254D01*
X0387354Y0427753D01*
X0385753Y0428503D02*
X0385002Y0429254D01*
X0383501Y0429254D01*
X0382750Y0428503D01*
X0391958Y0429254D02*
X0391958Y0427002D01*
X0393459Y0427753D01*
X0394210Y0427753D01*
X0394960Y0427002D01*
X0394960Y0425501D01*
X0394210Y0424750D01*
X0392708Y0424750D01*
X0391958Y0425501D01*
X0391958Y0429254D02*
X0394960Y0429254D01*
X0452750Y0428503D02*
X0452750Y0425501D01*
X0453501Y0424750D01*
X0455002Y0424750D01*
X0455753Y0425501D01*
X0457354Y0427002D02*
X0460356Y0427002D01*
X0459606Y0424750D02*
X0459606Y0429254D01*
X0457354Y0427002D01*
X0455753Y0428503D02*
X0455002Y0429254D01*
X0453501Y0429254D01*
X0452750Y0428503D01*
X0602750Y0428503D02*
X0602750Y0425501D01*
X0603501Y0424750D01*
X0605002Y0424750D01*
X0605753Y0425501D01*
X0607354Y0424750D02*
X0610356Y0424750D01*
X0608855Y0424750D02*
X0608855Y0429254D01*
X0607354Y0427753D01*
X0605753Y0428503D02*
X0605002Y0429254D01*
X0603501Y0429254D01*
X0602750Y0428503D01*
X0664542Y0429754D02*
X0664542Y0425250D01*
X0664542Y0426751D02*
X0666794Y0426751D01*
X0667545Y0427502D01*
X0667545Y0429003D01*
X0666794Y0429754D01*
X0664542Y0429754D01*
X0666043Y0426751D02*
X0667545Y0425250D01*
X0669146Y0425250D02*
X0672149Y0425250D01*
X0670647Y0425250D02*
X0670647Y0429754D01*
X0669146Y0428253D01*
X0691450Y0444201D02*
X0692201Y0443450D01*
X0692951Y0443450D01*
X0693702Y0444201D01*
X0693702Y0447954D01*
X0692951Y0447954D02*
X0694453Y0447954D01*
X0696054Y0446453D02*
X0697555Y0447954D01*
X0697555Y0443450D01*
X0696054Y0443450D02*
X0699056Y0443450D01*
X0724246Y0408147D02*
X0728750Y0408147D01*
X0728750Y0406646D02*
X0728750Y0409649D01*
X0725747Y0406646D02*
X0724246Y0408147D01*
X0724997Y0405045D02*
X0726498Y0405045D01*
X0727249Y0404294D01*
X0727249Y0402042D01*
X0728750Y0402042D02*
X0724246Y0402042D01*
X0724246Y0404294D01*
X0724997Y0405045D01*
X0724246Y0400441D02*
X0724246Y0398939D01*
X0724246Y0399690D02*
X0727999Y0399690D01*
X0728750Y0398939D01*
X0728750Y0398189D01*
X0727999Y0397438D01*
X0610356Y0298503D02*
X0610356Y0297753D01*
X0609606Y0297002D01*
X0610356Y0296251D01*
X0610356Y0295501D01*
X0609606Y0294750D01*
X0608105Y0294750D01*
X0607354Y0295501D01*
X0605753Y0295501D02*
X0605002Y0294750D01*
X0603501Y0294750D01*
X0602750Y0295501D01*
X0602750Y0298503D01*
X0603501Y0299254D01*
X0605002Y0299254D01*
X0605753Y0298503D01*
X0607354Y0298503D02*
X0608105Y0299254D01*
X0609606Y0299254D01*
X0610356Y0298503D01*
X0609606Y0297002D02*
X0608855Y0297002D01*
X0464960Y0264254D02*
X0463459Y0263503D01*
X0461958Y0262002D01*
X0464210Y0262002D01*
X0464960Y0261251D01*
X0464960Y0260501D01*
X0464210Y0259750D01*
X0462708Y0259750D01*
X0461958Y0260501D01*
X0461958Y0262002D01*
X0460356Y0259750D02*
X0457354Y0259750D01*
X0458855Y0259750D02*
X0458855Y0264254D01*
X0457354Y0262753D01*
X0455753Y0263503D02*
X0455002Y0264254D01*
X0453501Y0264254D01*
X0452750Y0263503D01*
X0452750Y0260501D01*
X0453501Y0259750D01*
X0455002Y0259750D01*
X0455753Y0260501D01*
X0390356Y0260501D02*
X0390356Y0263503D01*
X0389606Y0264254D01*
X0388105Y0264254D01*
X0387354Y0263503D01*
X0387354Y0262753D01*
X0388105Y0262002D01*
X0390356Y0262002D01*
X0390356Y0260501D02*
X0389606Y0259750D01*
X0388105Y0259750D01*
X0387354Y0260501D01*
X0385753Y0260501D02*
X0385002Y0259750D01*
X0383501Y0259750D01*
X0382750Y0260501D01*
X0382750Y0263503D01*
X0383501Y0264254D01*
X0385002Y0264254D01*
X0385753Y0263503D01*
X0324960Y0263503D02*
X0324960Y0260501D01*
X0324210Y0259750D01*
X0322708Y0259750D01*
X0321958Y0260501D01*
X0322708Y0262002D02*
X0324960Y0262002D01*
X0324960Y0263503D02*
X0324210Y0264254D01*
X0322708Y0264254D01*
X0321958Y0263503D01*
X0321958Y0262753D01*
X0322708Y0262002D01*
X0320356Y0259750D02*
X0317354Y0259750D01*
X0318855Y0259750D02*
X0318855Y0264254D01*
X0317354Y0262753D01*
X0315753Y0263503D02*
X0315002Y0264254D01*
X0313501Y0264254D01*
X0312750Y0263503D01*
X0312750Y0260501D01*
X0313501Y0259750D01*
X0315002Y0259750D01*
X0315753Y0260501D01*
X0250356Y0260501D02*
X0249606Y0259750D01*
X0248105Y0259750D01*
X0247354Y0260501D01*
X0247354Y0262002D02*
X0248855Y0262753D01*
X0249606Y0262753D01*
X0250356Y0262002D01*
X0250356Y0260501D01*
X0247354Y0262002D02*
X0247354Y0264254D01*
X0250356Y0264254D01*
X0245753Y0263503D02*
X0245002Y0264254D01*
X0243501Y0264254D01*
X0242750Y0263503D01*
X0242750Y0260501D01*
X0243501Y0259750D01*
X0245002Y0259750D01*
X0245753Y0260501D01*
X0245501Y0167254D02*
X0245501Y0162750D01*
X0246251Y0162750D02*
X0244750Y0162750D01*
X0247819Y0163501D02*
X0248570Y0162750D01*
X0250071Y0162750D01*
X0250822Y0163501D01*
X0252423Y0163501D02*
X0253174Y0162750D01*
X0254675Y0162750D01*
X0255426Y0163501D01*
X0255426Y0164251D01*
X0254675Y0165002D01*
X0252423Y0165002D01*
X0252423Y0163501D01*
X0252423Y0165002D02*
X0253924Y0166503D01*
X0255426Y0167254D01*
X0250822Y0166503D02*
X0250071Y0167254D01*
X0248570Y0167254D01*
X0247819Y0166503D01*
X0247819Y0163501D01*
X0246251Y0167254D02*
X0244750Y0167254D01*
X0245002Y0154254D02*
X0243501Y0154254D01*
X0242750Y0153503D01*
X0242750Y0150501D01*
X0243501Y0149750D01*
X0245002Y0149750D01*
X0245753Y0150501D01*
X0247354Y0149750D02*
X0250356Y0152753D01*
X0250356Y0153503D01*
X0249606Y0154254D01*
X0248105Y0154254D01*
X0247354Y0153503D01*
X0245753Y0153503D02*
X0245002Y0154254D01*
X0247354Y0149750D02*
X0250356Y0149750D01*
X0251958Y0149750D02*
X0254960Y0152753D01*
X0254960Y0153503D01*
X0254210Y0154254D01*
X0252708Y0154254D01*
X0251958Y0153503D01*
X0251958Y0149750D02*
X0254960Y0149750D01*
X0199750Y0150071D02*
X0199750Y0148570D01*
X0198999Y0147819D01*
X0195997Y0147819D01*
X0195246Y0148570D01*
X0195246Y0150071D01*
X0195997Y0150822D01*
X0195997Y0152423D02*
X0195246Y0153174D01*
X0195246Y0154675D01*
X0195997Y0155426D01*
X0196747Y0155426D01*
X0199750Y0152423D01*
X0199750Y0155426D01*
X0199750Y0157027D02*
X0199750Y0160030D01*
X0199750Y0158528D02*
X0195246Y0158528D01*
X0196747Y0157027D01*
X0198999Y0150822D02*
X0199750Y0150071D01*
X0199750Y0146251D02*
X0199750Y0144750D01*
X0199750Y0145501D02*
X0195246Y0145501D01*
X0195246Y0146251D02*
X0195246Y0144750D01*
X0189750Y0104926D02*
X0189750Y0101923D01*
X0186747Y0104926D01*
X0185997Y0104926D01*
X0185246Y0104175D01*
X0185246Y0102674D01*
X0185997Y0101923D01*
X0185997Y0100322D02*
X0185246Y0099571D01*
X0185246Y0098070D01*
X0185997Y0097319D01*
X0188999Y0097319D01*
X0189750Y0098070D01*
X0189750Y0099571D01*
X0188999Y0100322D01*
X0189750Y0095751D02*
X0189750Y0094250D01*
X0189750Y0095001D02*
X0185246Y0095001D01*
X0185246Y0095751D02*
X0185246Y0094250D01*
X0195997Y0060030D02*
X0195246Y0059279D01*
X0195246Y0057778D01*
X0195997Y0057027D01*
X0195997Y0055426D02*
X0195246Y0054675D01*
X0195246Y0053174D01*
X0195997Y0052423D01*
X0195997Y0050822D02*
X0195246Y0050071D01*
X0195246Y0048570D01*
X0195997Y0047819D01*
X0198999Y0047819D01*
X0199750Y0048570D01*
X0199750Y0050071D01*
X0198999Y0050822D01*
X0199750Y0052423D02*
X0196747Y0055426D01*
X0195997Y0055426D01*
X0199750Y0055426D02*
X0199750Y0052423D01*
X0199750Y0057027D02*
X0196747Y0060030D01*
X0195997Y0060030D01*
X0199750Y0060030D02*
X0199750Y0057027D01*
X0199750Y0046251D02*
X0199750Y0044750D01*
X0199750Y0045501D02*
X0195246Y0045501D01*
X0195246Y0046251D02*
X0195246Y0044750D01*
X0092750Y0093001D02*
X0092750Y0094502D01*
X0091999Y0095253D01*
X0092750Y0096854D02*
X0092750Y0099856D01*
X0092750Y0098355D02*
X0088246Y0098355D01*
X0089747Y0096854D01*
X0088997Y0095253D02*
X0088246Y0094502D01*
X0088246Y0093001D01*
X0088997Y0092250D01*
X0091999Y0092250D01*
X0092750Y0093001D01*
X0091999Y0101458D02*
X0088997Y0104460D01*
X0091999Y0104460D01*
X0092750Y0103710D01*
X0092750Y0102208D01*
X0091999Y0101458D01*
X0088997Y0101458D01*
X0088246Y0102208D01*
X0088246Y0103710D01*
X0088997Y0104460D01*
X0048606Y0018254D02*
X0049356Y0017503D01*
X0049356Y0016753D01*
X0048606Y0016002D01*
X0049356Y0015251D01*
X0049356Y0014501D01*
X0048606Y0013750D01*
X0047105Y0013750D01*
X0046354Y0014501D01*
X0047855Y0016002D02*
X0048606Y0016002D01*
X0048606Y0018254D02*
X0047105Y0018254D01*
X0046354Y0017503D01*
X0044753Y0018254D02*
X0043251Y0018254D01*
X0044002Y0018254D02*
X0044002Y0014501D01*
X0043251Y0013750D01*
X0042501Y0013750D01*
X0041750Y0014501D01*
X0312750Y0150501D02*
X0313501Y0149750D01*
X0315002Y0149750D01*
X0315753Y0150501D01*
X0317354Y0149750D02*
X0320356Y0152753D01*
X0320356Y0153503D01*
X0319606Y0154254D01*
X0318105Y0154254D01*
X0317354Y0153503D01*
X0315753Y0153503D02*
X0315002Y0154254D01*
X0313501Y0154254D01*
X0312750Y0153503D01*
X0312750Y0150501D01*
X0317354Y0149750D02*
X0320356Y0149750D01*
X0321958Y0149750D02*
X0324960Y0149750D01*
X0323459Y0149750D02*
X0323459Y0154254D01*
X0321958Y0152753D01*
X0322423Y0162750D02*
X0322423Y0163501D01*
X0325426Y0166503D01*
X0325426Y0167254D01*
X0322423Y0167254D01*
X0320822Y0166503D02*
X0320071Y0167254D01*
X0318570Y0167254D01*
X0317819Y0166503D01*
X0317819Y0163501D01*
X0318570Y0162750D01*
X0320071Y0162750D01*
X0320822Y0163501D01*
X0316251Y0162750D02*
X0314750Y0162750D01*
X0315501Y0162750D02*
X0315501Y0167254D01*
X0316251Y0167254D02*
X0314750Y0167254D01*
X0382750Y0153503D02*
X0382750Y0150501D01*
X0383501Y0149750D01*
X0385002Y0149750D01*
X0385753Y0150501D01*
X0387354Y0150501D02*
X0387354Y0149750D01*
X0387354Y0150501D02*
X0390356Y0153503D01*
X0390356Y0154254D01*
X0387354Y0154254D01*
X0385753Y0153503D02*
X0385002Y0154254D01*
X0383501Y0154254D01*
X0382750Y0153503D01*
X0384750Y0162750D02*
X0386251Y0162750D01*
X0385501Y0162750D02*
X0385501Y0167254D01*
X0386251Y0167254D02*
X0384750Y0167254D01*
X0387819Y0166503D02*
X0388570Y0167254D01*
X0390071Y0167254D01*
X0390822Y0166503D01*
X0392423Y0165753D02*
X0393924Y0167254D01*
X0393924Y0162750D01*
X0392423Y0162750D02*
X0395426Y0162750D01*
X0397027Y0163501D02*
X0397778Y0162750D01*
X0399279Y0162750D01*
X0400030Y0163501D01*
X0400030Y0164251D01*
X0399279Y0165002D01*
X0398528Y0165002D01*
X0399279Y0165002D02*
X0400030Y0165753D01*
X0400030Y0166503D01*
X0399279Y0167254D01*
X0397778Y0167254D01*
X0397027Y0166503D01*
X0390822Y0163501D02*
X0390071Y0162750D01*
X0388570Y0162750D01*
X0387819Y0163501D01*
X0387819Y0166503D01*
X0452750Y0153503D02*
X0452750Y0150501D01*
X0453501Y0149750D01*
X0455002Y0149750D01*
X0455753Y0150501D01*
X0457354Y0149750D02*
X0460356Y0152753D01*
X0460356Y0153503D01*
X0459606Y0154254D01*
X0458105Y0154254D01*
X0457354Y0153503D01*
X0455753Y0153503D02*
X0455002Y0154254D01*
X0453501Y0154254D01*
X0452750Y0153503D01*
X0457354Y0149750D02*
X0460356Y0149750D01*
X0460071Y0162750D02*
X0460822Y0163501D01*
X0460071Y0162750D02*
X0458570Y0162750D01*
X0457819Y0163501D01*
X0457819Y0166503D01*
X0458570Y0167254D01*
X0460071Y0167254D01*
X0460822Y0166503D01*
X0462423Y0165753D02*
X0463924Y0167254D01*
X0463924Y0162750D01*
X0462423Y0162750D02*
X0465426Y0162750D01*
X0467027Y0162750D02*
X0470030Y0165753D01*
X0470030Y0166503D01*
X0469279Y0167254D01*
X0467778Y0167254D01*
X0467027Y0166503D01*
X0467027Y0162750D02*
X0470030Y0162750D01*
X0456251Y0162750D02*
X0454750Y0162750D01*
X0455501Y0162750D02*
X0455501Y0167254D01*
X0456251Y0167254D02*
X0454750Y0167254D01*
X0602750Y0153503D02*
X0602750Y0150501D01*
X0603501Y0149750D01*
X0605002Y0149750D01*
X0605753Y0150501D01*
X0607354Y0150501D02*
X0607354Y0151251D01*
X0608105Y0152002D01*
X0609606Y0152002D01*
X0610356Y0151251D01*
X0610356Y0150501D01*
X0609606Y0149750D01*
X0608105Y0149750D01*
X0607354Y0150501D01*
X0608105Y0152002D02*
X0607354Y0152753D01*
X0607354Y0153503D01*
X0608105Y0154254D01*
X0609606Y0154254D01*
X0610356Y0153503D01*
X0610356Y0152753D01*
X0609606Y0152002D01*
X0605753Y0153503D02*
X0605002Y0154254D01*
X0603501Y0154254D01*
X0602750Y0153503D01*
X0685834Y0013654D02*
X0685834Y0009150D01*
X0688837Y0009150D01*
X0690438Y0009150D02*
X0693441Y0009150D01*
X0695042Y0009150D02*
X0695042Y0013654D01*
X0697294Y0013654D01*
X0698045Y0012903D01*
X0698045Y0009901D01*
X0697294Y0009150D01*
X0695042Y0009150D01*
X0691939Y0011402D02*
X0690438Y0011402D01*
X0690438Y0013654D02*
X0690438Y0009150D01*
X0690438Y0013654D02*
X0693441Y0013654D01*
X0699646Y0012153D02*
X0701147Y0013654D01*
X0701147Y0009150D01*
X0699646Y0009150D02*
X0702649Y0009150D01*
X0672149Y0009003D02*
X0671398Y0009754D01*
X0669897Y0009754D01*
X0669146Y0009003D01*
X0667545Y0009003D02*
X0667545Y0007502D01*
X0666794Y0006751D01*
X0664542Y0006751D01*
X0664542Y0005250D02*
X0664542Y0009754D01*
X0666794Y0009754D01*
X0667545Y0009003D01*
X0666043Y0006751D02*
X0667545Y0005250D01*
X0669146Y0005250D02*
X0672149Y0008253D01*
X0672149Y0009003D01*
X0672149Y0005250D02*
X0669146Y0005250D01*
D14*
X0620046Y0023467D02*
X0619279Y0022700D01*
X0617744Y0022700D01*
X0616977Y0023467D01*
X0620046Y0026537D01*
X0620046Y0023467D01*
X0616977Y0023467D02*
X0616977Y0026537D01*
X0617744Y0027304D01*
X0619279Y0027304D01*
X0620046Y0026537D01*
X0615442Y0026537D02*
X0614675Y0027304D01*
X0613141Y0027304D01*
X0612373Y0026537D01*
X0610839Y0026537D02*
X0610071Y0027304D01*
X0608537Y0027304D01*
X0607769Y0026537D01*
X0607769Y0023467D01*
X0608537Y0022700D01*
X0610071Y0022700D01*
X0610839Y0023467D01*
X0612373Y0022700D02*
X0615442Y0025769D01*
X0615442Y0026537D01*
X0615442Y0022700D02*
X0612373Y0022700D01*
X0606235Y0022700D02*
X0604700Y0022700D01*
X0605467Y0022700D02*
X0605467Y0027304D01*
X0604700Y0027304D02*
X0606235Y0027304D01*
X0470046Y0027304D02*
X0470046Y0026537D01*
X0466977Y0023467D01*
X0466977Y0022700D01*
X0465442Y0022700D02*
X0462373Y0022700D01*
X0463908Y0022700D02*
X0463908Y0027304D01*
X0462373Y0025769D01*
X0460839Y0026537D02*
X0460071Y0027304D01*
X0458537Y0027304D01*
X0457769Y0026537D01*
X0457769Y0023467D01*
X0458537Y0022700D01*
X0460071Y0022700D01*
X0460839Y0023467D01*
X0456235Y0022700D02*
X0454700Y0022700D01*
X0455467Y0022700D02*
X0455467Y0027304D01*
X0454700Y0027304D02*
X0456235Y0027304D01*
X0466977Y0027304D02*
X0470046Y0027304D01*
X0400046Y0027304D02*
X0398512Y0026537D01*
X0396977Y0025002D01*
X0399279Y0025002D01*
X0400046Y0024235D01*
X0400046Y0023467D01*
X0399279Y0022700D01*
X0397744Y0022700D01*
X0396977Y0023467D01*
X0396977Y0025002D01*
X0395442Y0022700D02*
X0392373Y0022700D01*
X0393908Y0022700D02*
X0393908Y0027304D01*
X0392373Y0025769D01*
X0390839Y0026537D02*
X0390071Y0027304D01*
X0388537Y0027304D01*
X0387769Y0026537D01*
X0387769Y0023467D01*
X0388537Y0022700D01*
X0390071Y0022700D01*
X0390839Y0023467D01*
X0386235Y0022700D02*
X0384700Y0022700D01*
X0385467Y0022700D02*
X0385467Y0027304D01*
X0384700Y0027304D02*
X0386235Y0027304D01*
X0330046Y0022700D02*
X0326977Y0022700D01*
X0325442Y0022700D02*
X0322373Y0022700D01*
X0323908Y0022700D02*
X0323908Y0027304D01*
X0322373Y0025769D01*
X0320839Y0026537D02*
X0320071Y0027304D01*
X0318537Y0027304D01*
X0317769Y0026537D01*
X0317769Y0023467D01*
X0318537Y0022700D01*
X0320071Y0022700D01*
X0320839Y0023467D01*
X0316235Y0022700D02*
X0314700Y0022700D01*
X0315467Y0022700D02*
X0315467Y0027304D01*
X0314700Y0027304D02*
X0316235Y0027304D01*
X0326977Y0025769D02*
X0328512Y0027304D01*
X0328512Y0022700D01*
X0260046Y0023467D02*
X0259279Y0022700D01*
X0257744Y0022700D01*
X0256977Y0023467D01*
X0260046Y0026537D01*
X0260046Y0023467D01*
X0256977Y0023467D02*
X0256977Y0026537D01*
X0257744Y0027304D01*
X0259279Y0027304D01*
X0260046Y0026537D01*
X0255442Y0022700D02*
X0252373Y0022700D01*
X0253908Y0022700D02*
X0253908Y0027304D01*
X0252373Y0025769D01*
X0250839Y0026537D02*
X0250071Y0027304D01*
X0248537Y0027304D01*
X0247769Y0026537D01*
X0247769Y0023467D01*
X0248537Y0022700D01*
X0250071Y0022700D01*
X0250839Y0023467D01*
X0246235Y0022700D02*
X0244700Y0022700D01*
X0245467Y0022700D02*
X0245467Y0027304D01*
X0244700Y0027304D02*
X0246235Y0027304D01*
X0219800Y0194200D02*
X0219800Y0195735D01*
X0219800Y0194967D02*
X0215196Y0194967D01*
X0215196Y0194200D02*
X0215196Y0195735D01*
X0215963Y0197269D02*
X0219033Y0197269D01*
X0219800Y0198037D01*
X0219800Y0199571D01*
X0219033Y0200339D01*
X0219033Y0201873D02*
X0219800Y0202641D01*
X0219800Y0204175D01*
X0219033Y0204942D01*
X0217498Y0204942D01*
X0216731Y0204175D01*
X0216731Y0203408D01*
X0217498Y0201873D01*
X0215196Y0201873D01*
X0215196Y0204942D01*
X0215963Y0200339D02*
X0215196Y0199571D01*
X0215196Y0198037D01*
X0215963Y0197269D01*
X0215196Y0244200D02*
X0215196Y0245735D01*
X0215196Y0244967D02*
X0219800Y0244967D01*
X0219800Y0244200D02*
X0219800Y0245735D01*
X0219033Y0247269D02*
X0219800Y0248037D01*
X0219800Y0249571D01*
X0219033Y0250339D01*
X0219033Y0251873D02*
X0219800Y0252641D01*
X0219800Y0254175D01*
X0219033Y0254942D01*
X0218265Y0254942D01*
X0217498Y0254175D01*
X0217498Y0253408D01*
X0217498Y0254175D02*
X0216731Y0254942D01*
X0215963Y0254942D01*
X0215196Y0254175D01*
X0215196Y0252641D01*
X0215963Y0251873D01*
X0215963Y0250339D02*
X0215196Y0249571D01*
X0215196Y0248037D01*
X0215963Y0247269D01*
X0219033Y0247269D01*
X0219800Y0294200D02*
X0219800Y0295735D01*
X0219800Y0294967D02*
X0215196Y0294967D01*
X0215196Y0294200D02*
X0215196Y0295735D01*
X0215963Y0297269D02*
X0219033Y0297269D01*
X0219800Y0298037D01*
X0219800Y0299571D01*
X0219033Y0300339D01*
X0217498Y0301873D02*
X0217498Y0304942D01*
X0215196Y0304175D02*
X0217498Y0301873D01*
X0215963Y0300339D02*
X0215196Y0299571D01*
X0215196Y0298037D01*
X0215963Y0297269D01*
X0215196Y0304175D02*
X0219800Y0304175D01*
X0244700Y0302304D02*
X0246235Y0302304D01*
X0245467Y0302304D02*
X0245467Y0297700D01*
X0244700Y0297700D02*
X0246235Y0297700D01*
X0247769Y0298467D02*
X0248537Y0297700D01*
X0250071Y0297700D01*
X0250839Y0298467D01*
X0252373Y0298467D02*
X0252373Y0299235D01*
X0253141Y0300002D01*
X0254675Y0300002D01*
X0255442Y0299235D01*
X0255442Y0298467D01*
X0254675Y0297700D01*
X0253141Y0297700D01*
X0252373Y0298467D01*
X0253141Y0300002D02*
X0252373Y0300769D01*
X0252373Y0301537D01*
X0253141Y0302304D01*
X0254675Y0302304D01*
X0255442Y0301537D01*
X0255442Y0300769D01*
X0254675Y0300002D01*
X0250839Y0301537D02*
X0250071Y0302304D01*
X0248537Y0302304D01*
X0247769Y0301537D01*
X0247769Y0298467D01*
X0314700Y0297700D02*
X0316235Y0297700D01*
X0315467Y0297700D02*
X0315467Y0302304D01*
X0314700Y0302304D02*
X0316235Y0302304D01*
X0317769Y0301537D02*
X0317769Y0298467D01*
X0318537Y0297700D01*
X0320071Y0297700D01*
X0320839Y0298467D01*
X0322373Y0298467D02*
X0323141Y0297700D01*
X0324675Y0297700D01*
X0325442Y0298467D01*
X0325442Y0301537D01*
X0324675Y0302304D01*
X0323141Y0302304D01*
X0322373Y0301537D01*
X0322373Y0300769D01*
X0323141Y0300002D01*
X0325442Y0300002D01*
X0320839Y0301537D02*
X0320071Y0302304D01*
X0318537Y0302304D01*
X0317769Y0301537D01*
X0384700Y0302304D02*
X0386235Y0302304D01*
X0385467Y0302304D02*
X0385467Y0297700D01*
X0384700Y0297700D02*
X0386235Y0297700D01*
X0387769Y0298467D02*
X0388537Y0297700D01*
X0390071Y0297700D01*
X0390839Y0298467D01*
X0392373Y0297700D02*
X0395442Y0297700D01*
X0393908Y0297700D02*
X0393908Y0302304D01*
X0392373Y0300769D01*
X0390839Y0301537D02*
X0390071Y0302304D01*
X0388537Y0302304D01*
X0387769Y0301537D01*
X0387769Y0298467D01*
X0396977Y0300002D02*
X0400046Y0300002D01*
X0399279Y0297700D02*
X0399279Y0302304D01*
X0396977Y0300002D01*
X0454700Y0297700D02*
X0456235Y0297700D01*
X0455467Y0297700D02*
X0455467Y0302304D01*
X0454700Y0302304D02*
X0456235Y0302304D01*
X0457769Y0301537D02*
X0457769Y0298467D01*
X0458537Y0297700D01*
X0460071Y0297700D01*
X0460839Y0298467D01*
X0462373Y0297700D02*
X0465442Y0297700D01*
X0463908Y0297700D02*
X0463908Y0302304D01*
X0462373Y0300769D01*
X0460839Y0301537D02*
X0460071Y0302304D01*
X0458537Y0302304D01*
X0457769Y0301537D01*
X0466977Y0302304D02*
X0466977Y0300002D01*
X0468512Y0300769D01*
X0469279Y0300769D01*
X0470046Y0300002D01*
X0470046Y0298467D01*
X0469279Y0297700D01*
X0467744Y0297700D01*
X0466977Y0298467D01*
X0466977Y0302304D02*
X0470046Y0302304D01*
X0604700Y0302304D02*
X0606235Y0302304D01*
X0605467Y0302304D02*
X0605467Y0297700D01*
X0604700Y0297700D02*
X0606235Y0297700D01*
X0607769Y0298467D02*
X0608537Y0297700D01*
X0610071Y0297700D01*
X0610839Y0298467D01*
X0612373Y0297700D02*
X0615442Y0297700D01*
X0613908Y0297700D02*
X0613908Y0302304D01*
X0612373Y0300769D01*
X0610839Y0301537D02*
X0610071Y0302304D01*
X0608537Y0302304D01*
X0607769Y0301537D01*
X0607769Y0298467D01*
X0616977Y0298467D02*
X0616977Y0299235D01*
X0617744Y0300002D01*
X0619279Y0300002D01*
X0620046Y0299235D01*
X0620046Y0298467D01*
X0619279Y0297700D01*
X0617744Y0297700D01*
X0616977Y0298467D01*
X0617744Y0300002D02*
X0616977Y0300769D01*
X0616977Y0301537D01*
X0617744Y0302304D01*
X0619279Y0302304D01*
X0620046Y0301537D01*
X0620046Y0300769D01*
X0619279Y0300002D01*
X0619279Y0172304D02*
X0617744Y0172304D01*
X0616977Y0171537D01*
X0616977Y0170769D01*
X0617744Y0170002D01*
X0620046Y0170002D01*
X0620046Y0168467D02*
X0620046Y0171537D01*
X0619279Y0172304D01*
X0620046Y0168467D02*
X0619279Y0167700D01*
X0617744Y0167700D01*
X0616977Y0168467D01*
X0615442Y0167700D02*
X0612373Y0167700D01*
X0613908Y0167700D02*
X0613908Y0172304D01*
X0612373Y0170769D01*
X0610839Y0171537D02*
X0610071Y0172304D01*
X0608537Y0172304D01*
X0607769Y0171537D01*
X0607769Y0168467D01*
X0608537Y0167700D01*
X0610071Y0167700D01*
X0610839Y0168467D01*
X0606235Y0167700D02*
X0604700Y0167700D01*
X0605467Y0167700D02*
X0605467Y0172304D01*
X0604700Y0172304D02*
X0606235Y0172304D01*
D15*
X0647300Y0016000D03*
X0675700Y0016000D03*
X0675700Y0436000D03*
X0647300Y0436000D03*
D16*
X0030634Y0410988D02*
X0030634Y0041512D01*
D17*
X0042615Y0069203D02*
X0041648Y0070171D01*
X0044550Y0070171D01*
X0044550Y0071138D02*
X0044550Y0069203D01*
X0044066Y0377757D02*
X0044550Y0378241D01*
X0044550Y0379208D01*
X0044066Y0379692D01*
X0043583Y0379692D01*
X0043099Y0379208D01*
X0043099Y0378724D01*
X0043099Y0379208D02*
X0042615Y0379692D01*
X0042131Y0379692D01*
X0041648Y0379208D01*
X0041648Y0378241D01*
X0042131Y0377757D01*
X0042131Y0380703D02*
X0041648Y0381187D01*
X0041648Y0382155D01*
X0042131Y0382638D01*
X0042615Y0382638D01*
X0044550Y0380703D01*
X0044550Y0382638D01*
M02*
