%
M48
M72
T01C0.0100
T02C0.0320
T03C0.0400
T04C0.1100
%
T01
X8900Y7225
X8900Y7600
X8025Y7850
X4150Y9975
X3525Y8975
X6025Y11600
X9900Y13350
X9525Y14975
X12525Y15475
X13525Y15225
X14275Y14475
X15275Y14100
X13025Y12725
X12525Y10475
X15525Y9725
X16900Y10975
X21525Y14225
X21775Y13975
X24025Y15100
X27275Y14350
X25775Y12225
X27150Y10225
X23400Y9100
X18900Y5975
X14025Y3100
X31150Y11225
X36775Y9725
X40150Y12225
X41775Y14725
X42275Y14475
X38775Y15225
X38025Y14975
X36775Y16725
X38525Y18725
X39525Y20975
X38525Y21475
X42900Y22975
X43400Y20475
X45275Y18225
X42525Y17725
X47275Y13475
X43150Y9975
X45150Y5975
X58525Y10225
X63525Y9600
X63525Y7975
X72400Y16350
X72150Y17850
X71150Y18850
X58775Y20100
X48775Y23350
X40025Y29725
X38775Y29225
X38025Y29725
X36525Y28725
X32775Y31725
X33025Y33475
X27525Y35600
X29775Y38725
X23900Y40725
X22025Y40475
X22025Y37475
X19025Y36100
X16275Y38225
X14025Y35600
X15400Y34725
X15025Y33475
X14025Y32975
X16025Y32225
X16525Y32475
X17650Y32850
X19900Y32475
X20900Y33100
X21275Y32725
X18525Y30475
X19525Y29850
X21150Y29225
X21275Y29600
X21775Y27850
X22025Y27350
X22025Y25725
X21275Y23850
X22775Y22475
X24775Y23225
X25025Y21975
X24775Y20975
X25025Y19475
X25275Y18225
X27775Y16975
X28025Y17225
X29275Y17850
X29525Y19225
X28275Y18975
X31400Y20850
X33150Y19975
X30025Y22225
X32650Y22600
X30025Y25975
X25275Y27100
X30275Y29225
X25525Y31225
X17025Y27475
X16400Y25975
X17025Y25225
X15025Y27225
X13525Y27600
X15900Y29225
X13900Y29475
X14525Y30725
X11650Y32475
X10775Y32475
X7775Y32350
X8775Y29975
X9900Y27100
X8775Y26600
X7900Y26100
X8775Y24975
X5650Y24975
X7650Y22350
X7025Y20600
X7650Y19225
X8650Y18600
X8400Y17600
X9525Y20100
X13025Y19100
X13775Y20100
X15025Y17725
X12775Y17350
X20275Y19100
X20900Y20100
X22775Y19475
X18025Y22475
X12525Y25225
X4650Y14600
X41525Y31975
X60525Y33475
X61900Y36225
X65650Y37100
X70775Y30100
X69900Y28475
X69400Y27600
X60900Y27350
X12525Y39975
X9525Y37600
T02
X10150Y36100
X11650Y37100
X12650Y37100
X13650Y37100
X14650Y37100
X15650Y37100
X16650Y37100
X17650Y37100
X17150Y39100
X18150Y39100
X16150Y39100
X15150Y39100
X14150Y39100
X13150Y39100
X12150Y39100
X11150Y39100
X10150Y39100
X10150Y41600
X11150Y41600
X12150Y41600
X13150Y41600
X14150Y41600
X15150Y41600
X16150Y41600
X17150Y41600
X18150Y41600
X23650Y40100
X23650Y39100
X23650Y38100
X23650Y37100
X23650Y36100
X23650Y35100
X23650Y34100
X23650Y33100
X23650Y32100
X23650Y31100
X26650Y31100
X26650Y32100
X26650Y33100
X26650Y34100
X26650Y35100
X26650Y36100
X26650Y37100
X26650Y38100
X26650Y39100
X26650Y40100
X25650Y41600
X24650Y41600
X30650Y40100
X30650Y39100
X30650Y38100
X30650Y37100
X30650Y36100
X30650Y35100
X30650Y34100
X30650Y33100
X30650Y32100
X30650Y31100
X33650Y31100
X33650Y32100
X33650Y33100
X33650Y34100
X33650Y35100
X33650Y36100
X33650Y37100
X33650Y38100
X33650Y39100
X33650Y40100
X32650Y41600
X31650Y41600
X37650Y40100
X37650Y39100
X37650Y38100
X37650Y37100
X37650Y36100
X37650Y35100
X37650Y34100
X37650Y33100
X37650Y32100
X37650Y31100
X40650Y31100
X40650Y32100
X40650Y33100
X40650Y34100
X40650Y35100
X40650Y36100
X40650Y37100
X40650Y38100
X40650Y39100
X40650Y40100
X39650Y41600
X38650Y41600
X44650Y40100
X44650Y39100
X44650Y38100
X44650Y37100
X44650Y36100
X44650Y35100
X44650Y34100
X44650Y33100
X44650Y32100
X44650Y31100
X47650Y31100
X47650Y32100
X47650Y33100
X47650Y34100
X47650Y35100
X47650Y36100
X47650Y37100
X47650Y38100
X47650Y39100
X47650Y40100
X46650Y41600
X45650Y41600
X59650Y40100
X59650Y39100
X59650Y38100
X59650Y37100
X59650Y36100
X59650Y35100
X59650Y34100
X59650Y33100
X59650Y32100
X59650Y31100
X62650Y31100
X62650Y32100
X62650Y33100
X62650Y34100
X62650Y35100
X62650Y36100
X62650Y37100
X62650Y38100
X62650Y39100
X62650Y40100
X61650Y41600
X60650Y41600
X64150Y43600
X68150Y43600
X61650Y28600
X60650Y28600
X59650Y27100
X59650Y26100
X59650Y25100
X59650Y24100
X59650Y23100
X59650Y22100
X59650Y21100
X59650Y20100
X59650Y19100
X59650Y18100
X62650Y18100
X62650Y19100
X62650Y20100
X62650Y21100
X62650Y22100
X62650Y23100
X62650Y24100
X62650Y25100
X62650Y26100
X62650Y27100
X47650Y23600
X47650Y22600
X47650Y21600
X47650Y20600
X47650Y19600
X47650Y18600
X47650Y17600
X44650Y17600
X44650Y18600
X44650Y19600
X44650Y20600
X44650Y21600
X44650Y22600
X44650Y23600
X45650Y25100
X46650Y25100
X40650Y23600
X40650Y22600
X40650Y21600
X40650Y20600
X40650Y19600
X40650Y18600
X40650Y17600
X37650Y17600
X37650Y18600
X37650Y19600
X37650Y20600
X37650Y21600
X37650Y22600
X37650Y23600
X38650Y25100
X39650Y25100
X33650Y23600
X33650Y22600
X33650Y21600
X33650Y20600
X33650Y19600
X33650Y18600
X33650Y17600
X30650Y17600
X30650Y18600
X30650Y19600
X30650Y20600
X30650Y21600
X30650Y22600
X30650Y23600
X31650Y25100
X32650Y25100
X26650Y23600
X26650Y22600
X26650Y21600
X26650Y20600
X26650Y19600
X26650Y18600
X26650Y17600
X23650Y17600
X23650Y18600
X23650Y19600
X23650Y20600
X23650Y21600
X23650Y22600
X23650Y23600
X24650Y25100
X25650Y25100
X20650Y23600
X19650Y23600
X18650Y23600
X17650Y23600
X16650Y23600
X15650Y23600
X14650Y23600
X13650Y23600
X12650Y23600
X11650Y23600
X10150Y24600
X10150Y25600
X11650Y26600
X12650Y26600
X13650Y26600
X14650Y26600
X15650Y26600
X16650Y26600
X17650Y26600
X18650Y26600
X19650Y26600
X20650Y26600
X20650Y28600
X19650Y28600
X18650Y28600
X17650Y28600
X16650Y28600
X15650Y28600
X14650Y28600
X13650Y28600
X12650Y28600
X11650Y28600
X10150Y29600
X10150Y30600
X11650Y31600
X12650Y31600
X13650Y31600
X14650Y31600
X15650Y31600
X16650Y31600
X17650Y31600
X18650Y31600
X19650Y31600
X20650Y31600
X17650Y34100
X16650Y34100
X15650Y34100
X14650Y34100
X13650Y34100
X12650Y34100
X11650Y34100
X10150Y35100
X11650Y21600
X12650Y21600
X13650Y21600
X14650Y21600
X15650Y21600
X16650Y21600
X17650Y21600
X18650Y21600
X19650Y21600
X20650Y21600
X20650Y18600
X19650Y18600
X18650Y18600
X17650Y18600
X16650Y18600
X15650Y18600
X14650Y18600
X13650Y18600
X12650Y18600
X11650Y18600
X10150Y19600
X10150Y20600
X11650Y16600
X12650Y16600
X13650Y16600
X14650Y16600
X15650Y16600
X16650Y16600
X17650Y16600
X18650Y16600
X18650Y13600
X17650Y13600
X16650Y13600
X15650Y13600
X14650Y13600
X13650Y13600
X12650Y13600
X11650Y13600
X10150Y14600
X10150Y15600
X11650Y11600
X12650Y11600
X13650Y11600
X14650Y11600
X15650Y11600
X16650Y11600
X17650Y11600
X17650Y8600
X16650Y8600
X15650Y8600
X14650Y8600
X13650Y8600
X12650Y8600
X11650Y8600
X10150Y9600
X10150Y10600
X11650Y6600
X12650Y6600
X13650Y6600
X14650Y6600
X15650Y6600
X16650Y6600
X17650Y6600
X18650Y6600
X18650Y3600
X17650Y3600
X16650Y3600
X15650Y3600
X14650Y3600
X13650Y3600
X12650Y3600
X11650Y3600
X10150Y4600
X10150Y5600
X23650Y5600
X23650Y4600
X23650Y3600
X26650Y3600
X26650Y4600
X26650Y5600
X26650Y6600
X26650Y7600
X26650Y8600
X26650Y9600
X26650Y10600
X26650Y11600
X26650Y12600
X25650Y14100
X24650Y14100
X23650Y12600
X23650Y11600
X23650Y10600
X23650Y9600
X23650Y8600
X23650Y7600
X23650Y6600
X30650Y6600
X30650Y5600
X30650Y4600
X30650Y3600
X33650Y3600
X33650Y4600
X33650Y5600
X33650Y6600
X33650Y7600
X33650Y8600
X33650Y9600
X33650Y10600
X33650Y11600
X33650Y12600
X32650Y14100
X31650Y14100
X30650Y12600
X30650Y11600
X30650Y10600
X30650Y9600
X30650Y8600
X30650Y7600
X37650Y7600
X37650Y6600
X37650Y5600
X37650Y4600
X37650Y3600
X40650Y3600
X40650Y4600
X40650Y5600
X40650Y6600
X40650Y7600
X40650Y8600
X40650Y9600
X40650Y10600
X40650Y11600
X40650Y12600
X39650Y14100
X38650Y14100
X37650Y12600
X37650Y11600
X37650Y10600
X37650Y9600
X37650Y8600
X44650Y8600
X44650Y9600
X44650Y10600
X44650Y11600
X44650Y12600
X45650Y14100
X46650Y14100
X47650Y12600
X47650Y11600
X47650Y10600
X47650Y9600
X47650Y8600
X47650Y7600
X47650Y6600
X47650Y5600
X47650Y4600
X47650Y3600
X44650Y3600
X44650Y4600
X44650Y5600
X44650Y6600
X44650Y7600
X59650Y7600
X59650Y6600
X59650Y5600
X59650Y4600
X59650Y3600
X62650Y3600
X62650Y4600
X62650Y5600
X62650Y6600
X62650Y7600
X62650Y8600
X62650Y9600
X62650Y10600
X62650Y11600
X62650Y12600
X61650Y14100
X60650Y14100
X59650Y12600
X59650Y11600
X59650Y10600
X59650Y9600
X59650Y8600
X64150Y1600
X68150Y1600
X71150Y1600
X72150Y1600
T03
X4150Y1100
X5150Y1100
X5150Y2100
X4150Y2100
X6150Y2100
X7150Y2100
X7150Y1100
X6150Y1100
X6150Y7100
X7150Y7100
X7150Y8100
X6150Y8100
X5150Y8100
X5150Y7100
X5150Y9100
X5150Y10100
X5150Y11100
X5150Y12100
X6150Y12100
X7150Y12100
X7150Y11100
X6150Y11100
X6150Y10100
X7150Y10100
X7150Y9100
X6150Y9100
X6150Y13100
X7150Y13100
X7150Y14100
X6150Y14100
X6150Y15100
X7150Y15100
X7150Y16100
X6150Y16100
X6150Y17100
X7150Y17100
X7150Y18100
X6150Y18100
X6150Y19100
X7150Y19100
X7150Y20100
X6150Y20100
X6150Y21100
X7150Y21100
X7150Y22100
X6150Y22100
X6150Y23100
X7150Y23100
X7150Y24100
X6150Y24100
X6150Y25100
X7150Y25100
X7150Y26100
X6150Y26100
X5150Y26100
X5150Y25100
X5150Y24100
X5150Y23100
X5150Y22100
X5150Y21100
X5150Y20100
X5150Y19100
X5150Y18100
X5150Y17100
X5150Y16100
X5150Y15100
X5150Y14100
X5150Y13100
X5150Y27100
X5150Y28100
X5150Y29100
X5150Y30100
X5150Y31100
X6150Y31100
X7150Y31100
X7150Y30100
X6150Y30100
X6150Y29100
X7150Y29100
X7150Y28100
X6150Y28100
X6150Y27100
X7150Y27100
X7150Y32100
X6150Y32100
X6150Y33100
X7150Y33100
X7150Y34100
X6150Y34100
X6150Y35100
X7150Y35100
X7150Y36100
X6150Y36100
X6150Y37100
X7150Y37100
X7150Y38100
X6150Y38100
X5150Y38100
X5150Y37100
X5150Y36100
X5150Y35100
X5150Y34100
X5150Y33100
X5150Y32100
X5150Y43100
X4150Y43100
X4150Y44100
X5150Y44100
X6150Y44100
X7150Y44100
X7150Y43100
X6150Y43100
X69650Y43600
X70650Y43600
X70650Y40600
X71650Y40600
X71650Y39600
X71650Y38600
X71650Y37600
X71650Y36600
X70650Y36600
X70650Y37600
X70650Y38600
X70650Y39600
X70650Y35600
X70650Y34600
X70650Y33600
X70650Y32600
X70650Y31600
X71650Y31600
X71650Y32600
X71650Y33600
X71650Y34600
X71650Y35600
X71650Y30600
X71650Y29600
X71650Y28600
X71650Y27600
X70650Y27600
X70650Y28600
X70650Y29600
X70650Y30600
X70650Y26600
X70650Y25600
X70650Y24600
X70650Y23600
X70650Y22600
X71650Y22600
X71650Y23600
X71650Y24600
X71650Y25600
X71650Y26600
X71650Y21600
X70650Y21600
T04
X4150Y5097
X4150Y40103
M30
