G75*
%MOIN*%
%OFA0B0*%
%FSLAX25Y25*%
%IPPOS*%
%LPD*%
%AMOC8*
5,1,8,0,0,1.08239X$1,22.5*
%
%ADD10OC8,0.04800*%
%ADD11C,0.04800*%
%ADD12OC8,0.06000*%
%ADD13C,0.07400*%
%ADD14OC8,0.07400*%
%ADD15C,0.01000*%
%ADD16C,0.02200*%
D10*
X0101500Y0046000D03*
X0101500Y0056000D03*
X0101500Y0096000D03*
X0101500Y0106000D03*
X0101500Y0146000D03*
X0101500Y0156000D03*
X0101500Y0196000D03*
X0101500Y0206000D03*
X0101500Y0246000D03*
X0101500Y0256000D03*
X0101500Y0296000D03*
X0101500Y0306000D03*
X0101500Y0351000D03*
X0101500Y0361000D03*
X0246500Y0416000D03*
X0256500Y0416000D03*
X0316500Y0416000D03*
X0326500Y0416000D03*
X0386500Y0416000D03*
X0396500Y0416000D03*
X0456500Y0416000D03*
X0466500Y0416000D03*
X0606500Y0416000D03*
X0616500Y0416000D03*
X0641500Y0436000D03*
X0681500Y0436000D03*
X0616500Y0286000D03*
X0606500Y0286000D03*
X0466500Y0251000D03*
X0456500Y0251000D03*
X0396500Y0251000D03*
X0386500Y0251000D03*
X0326500Y0251000D03*
X0316500Y0251000D03*
X0256500Y0251000D03*
X0246500Y0251000D03*
X0246500Y0141000D03*
X0256500Y0141000D03*
X0316500Y0141000D03*
X0326500Y0141000D03*
X0386500Y0141000D03*
X0396500Y0141000D03*
X0456500Y0141000D03*
X0466500Y0141000D03*
X0606500Y0141000D03*
X0616500Y0141000D03*
X0641500Y0016000D03*
X0681500Y0016000D03*
X0711500Y0016000D03*
X0721500Y0016000D03*
D11*
X0628900Y0036000D02*
X0624100Y0036000D01*
X0624100Y0046000D02*
X0628900Y0046000D01*
X0628900Y0056000D02*
X0624100Y0056000D01*
X0624100Y0066000D02*
X0628900Y0066000D01*
X0628900Y0076000D02*
X0624100Y0076000D01*
X0624100Y0086000D02*
X0628900Y0086000D01*
X0628900Y0096000D02*
X0624100Y0096000D01*
X0624100Y0106000D02*
X0628900Y0106000D01*
X0628900Y0116000D02*
X0624100Y0116000D01*
X0624100Y0126000D02*
X0628900Y0126000D01*
X0598900Y0126000D02*
X0594100Y0126000D01*
X0594100Y0116000D02*
X0598900Y0116000D01*
X0598900Y0106000D02*
X0594100Y0106000D01*
X0594100Y0096000D02*
X0598900Y0096000D01*
X0598900Y0086000D02*
X0594100Y0086000D01*
X0594100Y0076000D02*
X0598900Y0076000D01*
X0598900Y0066000D02*
X0594100Y0066000D01*
X0594100Y0056000D02*
X0598900Y0056000D01*
X0598900Y0046000D02*
X0594100Y0046000D01*
X0594100Y0036000D02*
X0598900Y0036000D01*
X0478900Y0036000D02*
X0474100Y0036000D01*
X0474100Y0046000D02*
X0478900Y0046000D01*
X0478900Y0056000D02*
X0474100Y0056000D01*
X0474100Y0066000D02*
X0478900Y0066000D01*
X0478900Y0076000D02*
X0474100Y0076000D01*
X0474100Y0086000D02*
X0478900Y0086000D01*
X0478900Y0096000D02*
X0474100Y0096000D01*
X0474100Y0106000D02*
X0478900Y0106000D01*
X0478900Y0116000D02*
X0474100Y0116000D01*
X0474100Y0126000D02*
X0478900Y0126000D01*
X0448900Y0126000D02*
X0444100Y0126000D01*
X0444100Y0116000D02*
X0448900Y0116000D01*
X0448900Y0106000D02*
X0444100Y0106000D01*
X0444100Y0096000D02*
X0448900Y0096000D01*
X0448900Y0086000D02*
X0444100Y0086000D01*
X0444100Y0076000D02*
X0448900Y0076000D01*
X0448900Y0066000D02*
X0444100Y0066000D01*
X0444100Y0056000D02*
X0448900Y0056000D01*
X0448900Y0046000D02*
X0444100Y0046000D01*
X0444100Y0036000D02*
X0448900Y0036000D01*
X0408900Y0036000D02*
X0404100Y0036000D01*
X0404100Y0046000D02*
X0408900Y0046000D01*
X0408900Y0056000D02*
X0404100Y0056000D01*
X0404100Y0066000D02*
X0408900Y0066000D01*
X0408900Y0076000D02*
X0404100Y0076000D01*
X0404100Y0086000D02*
X0408900Y0086000D01*
X0408900Y0096000D02*
X0404100Y0096000D01*
X0404100Y0106000D02*
X0408900Y0106000D01*
X0408900Y0116000D02*
X0404100Y0116000D01*
X0404100Y0126000D02*
X0408900Y0126000D01*
X0378900Y0126000D02*
X0374100Y0126000D01*
X0374100Y0116000D02*
X0378900Y0116000D01*
X0378900Y0106000D02*
X0374100Y0106000D01*
X0374100Y0096000D02*
X0378900Y0096000D01*
X0378900Y0086000D02*
X0374100Y0086000D01*
X0374100Y0076000D02*
X0378900Y0076000D01*
X0378900Y0066000D02*
X0374100Y0066000D01*
X0374100Y0056000D02*
X0378900Y0056000D01*
X0378900Y0046000D02*
X0374100Y0046000D01*
X0374100Y0036000D02*
X0378900Y0036000D01*
X0338900Y0036000D02*
X0334100Y0036000D01*
X0334100Y0046000D02*
X0338900Y0046000D01*
X0338900Y0056000D02*
X0334100Y0056000D01*
X0334100Y0066000D02*
X0338900Y0066000D01*
X0338900Y0076000D02*
X0334100Y0076000D01*
X0334100Y0086000D02*
X0338900Y0086000D01*
X0338900Y0096000D02*
X0334100Y0096000D01*
X0334100Y0106000D02*
X0338900Y0106000D01*
X0338900Y0116000D02*
X0334100Y0116000D01*
X0334100Y0126000D02*
X0338900Y0126000D01*
X0308900Y0126000D02*
X0304100Y0126000D01*
X0304100Y0116000D02*
X0308900Y0116000D01*
X0308900Y0106000D02*
X0304100Y0106000D01*
X0304100Y0096000D02*
X0308900Y0096000D01*
X0308900Y0086000D02*
X0304100Y0086000D01*
X0304100Y0076000D02*
X0308900Y0076000D01*
X0308900Y0066000D02*
X0304100Y0066000D01*
X0304100Y0056000D02*
X0308900Y0056000D01*
X0308900Y0046000D02*
X0304100Y0046000D01*
X0304100Y0036000D02*
X0308900Y0036000D01*
X0268900Y0036000D02*
X0264100Y0036000D01*
X0264100Y0046000D02*
X0268900Y0046000D01*
X0268900Y0056000D02*
X0264100Y0056000D01*
X0264100Y0066000D02*
X0268900Y0066000D01*
X0268900Y0076000D02*
X0264100Y0076000D01*
X0264100Y0086000D02*
X0268900Y0086000D01*
X0268900Y0096000D02*
X0264100Y0096000D01*
X0264100Y0106000D02*
X0268900Y0106000D01*
X0268900Y0116000D02*
X0264100Y0116000D01*
X0264100Y0126000D02*
X0268900Y0126000D01*
X0238900Y0126000D02*
X0234100Y0126000D01*
X0234100Y0116000D02*
X0238900Y0116000D01*
X0238900Y0106000D02*
X0234100Y0106000D01*
X0234100Y0096000D02*
X0238900Y0096000D01*
X0238900Y0086000D02*
X0234100Y0086000D01*
X0234100Y0076000D02*
X0238900Y0076000D01*
X0238900Y0066000D02*
X0234100Y0066000D01*
X0234100Y0056000D02*
X0238900Y0056000D01*
X0238900Y0046000D02*
X0234100Y0046000D01*
X0234100Y0036000D02*
X0238900Y0036000D01*
X0186500Y0033600D02*
X0186500Y0038400D01*
X0176500Y0038400D02*
X0176500Y0033600D01*
X0166500Y0033600D02*
X0166500Y0038400D01*
X0156500Y0038400D02*
X0156500Y0033600D01*
X0146500Y0033600D02*
X0146500Y0038400D01*
X0136500Y0038400D02*
X0136500Y0033600D01*
X0126500Y0033600D02*
X0126500Y0038400D01*
X0116500Y0038400D02*
X0116500Y0033600D01*
X0116500Y0063600D02*
X0116500Y0068400D01*
X0126500Y0068400D02*
X0126500Y0063600D01*
X0136500Y0063600D02*
X0136500Y0068400D01*
X0146500Y0068400D02*
X0146500Y0063600D01*
X0156500Y0063600D02*
X0156500Y0068400D01*
X0166500Y0068400D02*
X0166500Y0063600D01*
X0176500Y0063600D02*
X0176500Y0068400D01*
X0186500Y0068400D02*
X0186500Y0063600D01*
X0176500Y0083600D02*
X0176500Y0088400D01*
X0166500Y0088400D02*
X0166500Y0083600D01*
X0156500Y0083600D02*
X0156500Y0088400D01*
X0146500Y0088400D02*
X0146500Y0083600D01*
X0136500Y0083600D02*
X0136500Y0088400D01*
X0126500Y0088400D02*
X0126500Y0083600D01*
X0116500Y0083600D02*
X0116500Y0088400D01*
X0116500Y0113600D02*
X0116500Y0118400D01*
X0126500Y0118400D02*
X0126500Y0113600D01*
X0136500Y0113600D02*
X0136500Y0118400D01*
X0146500Y0118400D02*
X0146500Y0113600D01*
X0156500Y0113600D02*
X0156500Y0118400D01*
X0166500Y0118400D02*
X0166500Y0113600D01*
X0176500Y0113600D02*
X0176500Y0118400D01*
X0176500Y0133600D02*
X0176500Y0138400D01*
X0166500Y0138400D02*
X0166500Y0133600D01*
X0156500Y0133600D02*
X0156500Y0138400D01*
X0146500Y0138400D02*
X0146500Y0133600D01*
X0136500Y0133600D02*
X0136500Y0138400D01*
X0126500Y0138400D02*
X0126500Y0133600D01*
X0116500Y0133600D02*
X0116500Y0138400D01*
X0116500Y0163600D02*
X0116500Y0168400D01*
X0126500Y0168400D02*
X0126500Y0163600D01*
X0136500Y0163600D02*
X0136500Y0168400D01*
X0146500Y0168400D02*
X0146500Y0163600D01*
X0156500Y0163600D02*
X0156500Y0168400D01*
X0166500Y0168400D02*
X0166500Y0163600D01*
X0176500Y0163600D02*
X0176500Y0168400D01*
X0186500Y0168400D02*
X0186500Y0163600D01*
X0186500Y0183600D02*
X0186500Y0188400D01*
X0196500Y0188400D02*
X0196500Y0183600D01*
X0206500Y0183600D02*
X0206500Y0188400D01*
X0234100Y0186000D02*
X0238900Y0186000D01*
X0238900Y0176000D02*
X0234100Y0176000D01*
X0234100Y0196000D02*
X0238900Y0196000D01*
X0238900Y0206000D02*
X0234100Y0206000D01*
X0234100Y0216000D02*
X0238900Y0216000D01*
X0238900Y0226000D02*
X0234100Y0226000D01*
X0234100Y0236000D02*
X0238900Y0236000D01*
X0264100Y0236000D02*
X0268900Y0236000D01*
X0268900Y0226000D02*
X0264100Y0226000D01*
X0264100Y0216000D02*
X0268900Y0216000D01*
X0268900Y0206000D02*
X0264100Y0206000D01*
X0264100Y0196000D02*
X0268900Y0196000D01*
X0268900Y0186000D02*
X0264100Y0186000D01*
X0264100Y0176000D02*
X0268900Y0176000D01*
X0304100Y0176000D02*
X0308900Y0176000D01*
X0308900Y0186000D02*
X0304100Y0186000D01*
X0304100Y0196000D02*
X0308900Y0196000D01*
X0308900Y0206000D02*
X0304100Y0206000D01*
X0304100Y0216000D02*
X0308900Y0216000D01*
X0308900Y0226000D02*
X0304100Y0226000D01*
X0304100Y0236000D02*
X0308900Y0236000D01*
X0334100Y0236000D02*
X0338900Y0236000D01*
X0338900Y0226000D02*
X0334100Y0226000D01*
X0334100Y0216000D02*
X0338900Y0216000D01*
X0338900Y0206000D02*
X0334100Y0206000D01*
X0334100Y0196000D02*
X0338900Y0196000D01*
X0338900Y0186000D02*
X0334100Y0186000D01*
X0334100Y0176000D02*
X0338900Y0176000D01*
X0374100Y0176000D02*
X0378900Y0176000D01*
X0378900Y0186000D02*
X0374100Y0186000D01*
X0374100Y0196000D02*
X0378900Y0196000D01*
X0378900Y0206000D02*
X0374100Y0206000D01*
X0374100Y0216000D02*
X0378900Y0216000D01*
X0378900Y0226000D02*
X0374100Y0226000D01*
X0374100Y0236000D02*
X0378900Y0236000D01*
X0404100Y0236000D02*
X0408900Y0236000D01*
X0408900Y0226000D02*
X0404100Y0226000D01*
X0404100Y0216000D02*
X0408900Y0216000D01*
X0408900Y0206000D02*
X0404100Y0206000D01*
X0404100Y0196000D02*
X0408900Y0196000D01*
X0408900Y0186000D02*
X0404100Y0186000D01*
X0404100Y0176000D02*
X0408900Y0176000D01*
X0444100Y0176000D02*
X0448900Y0176000D01*
X0448900Y0186000D02*
X0444100Y0186000D01*
X0444100Y0196000D02*
X0448900Y0196000D01*
X0448900Y0206000D02*
X0444100Y0206000D01*
X0444100Y0216000D02*
X0448900Y0216000D01*
X0448900Y0226000D02*
X0444100Y0226000D01*
X0444100Y0236000D02*
X0448900Y0236000D01*
X0474100Y0236000D02*
X0478900Y0236000D01*
X0478900Y0226000D02*
X0474100Y0226000D01*
X0474100Y0216000D02*
X0478900Y0216000D01*
X0478900Y0206000D02*
X0474100Y0206000D01*
X0474100Y0196000D02*
X0478900Y0196000D01*
X0478900Y0186000D02*
X0474100Y0186000D01*
X0474100Y0176000D02*
X0478900Y0176000D01*
X0594100Y0181000D02*
X0598900Y0181000D01*
X0598900Y0191000D02*
X0594100Y0191000D01*
X0594100Y0201000D02*
X0598900Y0201000D01*
X0598900Y0211000D02*
X0594100Y0211000D01*
X0594100Y0221000D02*
X0598900Y0221000D01*
X0598900Y0231000D02*
X0594100Y0231000D01*
X0594100Y0241000D02*
X0598900Y0241000D01*
X0598900Y0251000D02*
X0594100Y0251000D01*
X0594100Y0261000D02*
X0598900Y0261000D01*
X0598900Y0271000D02*
X0594100Y0271000D01*
X0624100Y0271000D02*
X0628900Y0271000D01*
X0628900Y0261000D02*
X0624100Y0261000D01*
X0624100Y0251000D02*
X0628900Y0251000D01*
X0628900Y0241000D02*
X0624100Y0241000D01*
X0624100Y0231000D02*
X0628900Y0231000D01*
X0628900Y0221000D02*
X0624100Y0221000D01*
X0624100Y0211000D02*
X0628900Y0211000D01*
X0628900Y0201000D02*
X0624100Y0201000D01*
X0624100Y0191000D02*
X0628900Y0191000D01*
X0628900Y0181000D02*
X0624100Y0181000D01*
X0624100Y0311000D02*
X0628900Y0311000D01*
X0628900Y0321000D02*
X0624100Y0321000D01*
X0624100Y0331000D02*
X0628900Y0331000D01*
X0628900Y0341000D02*
X0624100Y0341000D01*
X0624100Y0351000D02*
X0628900Y0351000D01*
X0628900Y0361000D02*
X0624100Y0361000D01*
X0624100Y0371000D02*
X0628900Y0371000D01*
X0628900Y0381000D02*
X0624100Y0381000D01*
X0624100Y0391000D02*
X0628900Y0391000D01*
X0628900Y0401000D02*
X0624100Y0401000D01*
X0598900Y0401000D02*
X0594100Y0401000D01*
X0594100Y0391000D02*
X0598900Y0391000D01*
X0598900Y0381000D02*
X0594100Y0381000D01*
X0594100Y0371000D02*
X0598900Y0371000D01*
X0598900Y0361000D02*
X0594100Y0361000D01*
X0594100Y0351000D02*
X0598900Y0351000D01*
X0598900Y0341000D02*
X0594100Y0341000D01*
X0594100Y0331000D02*
X0598900Y0331000D01*
X0598900Y0321000D02*
X0594100Y0321000D01*
X0594100Y0311000D02*
X0598900Y0311000D01*
X0478900Y0311000D02*
X0474100Y0311000D01*
X0474100Y0321000D02*
X0478900Y0321000D01*
X0478900Y0331000D02*
X0474100Y0331000D01*
X0474100Y0341000D02*
X0478900Y0341000D01*
X0478900Y0351000D02*
X0474100Y0351000D01*
X0474100Y0361000D02*
X0478900Y0361000D01*
X0478900Y0371000D02*
X0474100Y0371000D01*
X0474100Y0381000D02*
X0478900Y0381000D01*
X0478900Y0391000D02*
X0474100Y0391000D01*
X0474100Y0401000D02*
X0478900Y0401000D01*
X0448900Y0401000D02*
X0444100Y0401000D01*
X0444100Y0391000D02*
X0448900Y0391000D01*
X0448900Y0381000D02*
X0444100Y0381000D01*
X0444100Y0371000D02*
X0448900Y0371000D01*
X0448900Y0361000D02*
X0444100Y0361000D01*
X0444100Y0351000D02*
X0448900Y0351000D01*
X0448900Y0341000D02*
X0444100Y0341000D01*
X0444100Y0331000D02*
X0448900Y0331000D01*
X0448900Y0321000D02*
X0444100Y0321000D01*
X0444100Y0311000D02*
X0448900Y0311000D01*
X0408900Y0311000D02*
X0404100Y0311000D01*
X0404100Y0321000D02*
X0408900Y0321000D01*
X0408900Y0331000D02*
X0404100Y0331000D01*
X0404100Y0341000D02*
X0408900Y0341000D01*
X0408900Y0351000D02*
X0404100Y0351000D01*
X0404100Y0361000D02*
X0408900Y0361000D01*
X0408900Y0371000D02*
X0404100Y0371000D01*
X0404100Y0381000D02*
X0408900Y0381000D01*
X0408900Y0391000D02*
X0404100Y0391000D01*
X0404100Y0401000D02*
X0408900Y0401000D01*
X0378900Y0401000D02*
X0374100Y0401000D01*
X0374100Y0391000D02*
X0378900Y0391000D01*
X0378900Y0381000D02*
X0374100Y0381000D01*
X0374100Y0371000D02*
X0378900Y0371000D01*
X0378900Y0361000D02*
X0374100Y0361000D01*
X0374100Y0351000D02*
X0378900Y0351000D01*
X0378900Y0341000D02*
X0374100Y0341000D01*
X0374100Y0331000D02*
X0378900Y0331000D01*
X0378900Y0321000D02*
X0374100Y0321000D01*
X0374100Y0311000D02*
X0378900Y0311000D01*
X0338900Y0311000D02*
X0334100Y0311000D01*
X0334100Y0321000D02*
X0338900Y0321000D01*
X0338900Y0331000D02*
X0334100Y0331000D01*
X0334100Y0341000D02*
X0338900Y0341000D01*
X0338900Y0351000D02*
X0334100Y0351000D01*
X0334100Y0361000D02*
X0338900Y0361000D01*
X0338900Y0371000D02*
X0334100Y0371000D01*
X0334100Y0381000D02*
X0338900Y0381000D01*
X0338900Y0391000D02*
X0334100Y0391000D01*
X0334100Y0401000D02*
X0338900Y0401000D01*
X0308900Y0401000D02*
X0304100Y0401000D01*
X0304100Y0391000D02*
X0308900Y0391000D01*
X0308900Y0381000D02*
X0304100Y0381000D01*
X0304100Y0371000D02*
X0308900Y0371000D01*
X0308900Y0361000D02*
X0304100Y0361000D01*
X0304100Y0351000D02*
X0308900Y0351000D01*
X0308900Y0341000D02*
X0304100Y0341000D01*
X0304100Y0331000D02*
X0308900Y0331000D01*
X0308900Y0321000D02*
X0304100Y0321000D01*
X0304100Y0311000D02*
X0308900Y0311000D01*
X0268900Y0311000D02*
X0264100Y0311000D01*
X0264100Y0321000D02*
X0268900Y0321000D01*
X0268900Y0331000D02*
X0264100Y0331000D01*
X0264100Y0341000D02*
X0268900Y0341000D01*
X0268900Y0351000D02*
X0264100Y0351000D01*
X0264100Y0361000D02*
X0268900Y0361000D01*
X0268900Y0371000D02*
X0264100Y0371000D01*
X0264100Y0381000D02*
X0268900Y0381000D01*
X0268900Y0391000D02*
X0264100Y0391000D01*
X0264100Y0401000D02*
X0268900Y0401000D01*
X0238900Y0401000D02*
X0234100Y0401000D01*
X0234100Y0391000D02*
X0238900Y0391000D01*
X0238900Y0381000D02*
X0234100Y0381000D01*
X0234100Y0371000D02*
X0238900Y0371000D01*
X0238900Y0361000D02*
X0234100Y0361000D01*
X0234100Y0351000D02*
X0238900Y0351000D01*
X0238900Y0341000D02*
X0234100Y0341000D01*
X0234100Y0331000D02*
X0238900Y0331000D01*
X0238900Y0321000D02*
X0234100Y0321000D01*
X0234100Y0311000D02*
X0238900Y0311000D01*
X0206500Y0313600D02*
X0206500Y0318400D01*
X0196500Y0318400D02*
X0196500Y0313600D01*
X0186500Y0313600D02*
X0186500Y0318400D01*
X0176500Y0318400D02*
X0176500Y0313600D01*
X0166500Y0313600D02*
X0166500Y0318400D01*
X0156500Y0318400D02*
X0156500Y0313600D01*
X0146500Y0313600D02*
X0146500Y0318400D01*
X0136500Y0318400D02*
X0136500Y0313600D01*
X0126500Y0313600D02*
X0126500Y0318400D01*
X0116500Y0318400D02*
X0116500Y0313600D01*
X0116500Y0338600D02*
X0116500Y0343400D01*
X0126500Y0343400D02*
X0126500Y0338600D01*
X0136500Y0338600D02*
X0136500Y0343400D01*
X0146500Y0343400D02*
X0146500Y0338600D01*
X0156500Y0338600D02*
X0156500Y0343400D01*
X0166500Y0343400D02*
X0166500Y0338600D01*
X0176500Y0338600D02*
X0176500Y0343400D01*
X0176500Y0368600D02*
X0176500Y0373400D01*
X0166500Y0373400D02*
X0166500Y0368600D01*
X0156500Y0368600D02*
X0156500Y0373400D01*
X0146500Y0373400D02*
X0146500Y0368600D01*
X0136500Y0368600D02*
X0136500Y0373400D01*
X0126500Y0373400D02*
X0126500Y0368600D01*
X0116500Y0368600D02*
X0116500Y0373400D01*
X0111500Y0388600D02*
X0111500Y0393400D01*
X0121500Y0393400D02*
X0121500Y0388600D01*
X0131500Y0388600D02*
X0131500Y0393400D01*
X0141500Y0393400D02*
X0141500Y0388600D01*
X0151500Y0388600D02*
X0151500Y0393400D01*
X0161500Y0393400D02*
X0161500Y0388600D01*
X0171500Y0388600D02*
X0171500Y0393400D01*
X0181500Y0393400D02*
X0181500Y0388600D01*
X0181500Y0413600D02*
X0181500Y0418400D01*
X0171500Y0418400D02*
X0171500Y0413600D01*
X0161500Y0413600D02*
X0161500Y0418400D01*
X0151500Y0418400D02*
X0151500Y0413600D01*
X0141500Y0413600D02*
X0141500Y0418400D01*
X0131500Y0418400D02*
X0131500Y0413600D01*
X0121500Y0413600D02*
X0121500Y0418400D01*
X0111500Y0418400D02*
X0111500Y0413600D01*
X0101500Y0413600D02*
X0101500Y0418400D01*
X0101500Y0393400D02*
X0101500Y0388600D01*
X0116500Y0288400D02*
X0116500Y0283600D01*
X0126500Y0283600D02*
X0126500Y0288400D01*
X0136500Y0288400D02*
X0136500Y0283600D01*
X0146500Y0283600D02*
X0146500Y0288400D01*
X0156500Y0288400D02*
X0156500Y0283600D01*
X0166500Y0283600D02*
X0166500Y0288400D01*
X0176500Y0288400D02*
X0176500Y0283600D01*
X0186500Y0283600D02*
X0186500Y0288400D01*
X0196500Y0288400D02*
X0196500Y0283600D01*
X0206500Y0283600D02*
X0206500Y0288400D01*
X0206500Y0268400D02*
X0206500Y0263600D01*
X0196500Y0263600D02*
X0196500Y0268400D01*
X0186500Y0268400D02*
X0186500Y0263600D01*
X0176500Y0263600D02*
X0176500Y0268400D01*
X0166500Y0268400D02*
X0166500Y0263600D01*
X0156500Y0263600D02*
X0156500Y0268400D01*
X0146500Y0268400D02*
X0146500Y0263600D01*
X0136500Y0263600D02*
X0136500Y0268400D01*
X0126500Y0268400D02*
X0126500Y0263600D01*
X0116500Y0263600D02*
X0116500Y0268400D01*
X0116500Y0238400D02*
X0116500Y0233600D01*
X0126500Y0233600D02*
X0126500Y0238400D01*
X0136500Y0238400D02*
X0136500Y0233600D01*
X0146500Y0233600D02*
X0146500Y0238400D01*
X0156500Y0238400D02*
X0156500Y0233600D01*
X0166500Y0233600D02*
X0166500Y0238400D01*
X0176500Y0238400D02*
X0176500Y0233600D01*
X0186500Y0233600D02*
X0186500Y0238400D01*
X0196500Y0238400D02*
X0196500Y0233600D01*
X0206500Y0233600D02*
X0206500Y0238400D01*
X0206500Y0218400D02*
X0206500Y0213600D01*
X0196500Y0213600D02*
X0196500Y0218400D01*
X0186500Y0218400D02*
X0186500Y0213600D01*
X0176500Y0213600D02*
X0176500Y0218400D01*
X0166500Y0218400D02*
X0166500Y0213600D01*
X0156500Y0213600D02*
X0156500Y0218400D01*
X0146500Y0218400D02*
X0146500Y0213600D01*
X0136500Y0213600D02*
X0136500Y0218400D01*
X0126500Y0218400D02*
X0126500Y0213600D01*
X0116500Y0213600D02*
X0116500Y0218400D01*
X0116500Y0188400D02*
X0116500Y0183600D01*
X0126500Y0183600D02*
X0126500Y0188400D01*
X0136500Y0188400D02*
X0136500Y0183600D01*
X0146500Y0183600D02*
X0146500Y0188400D01*
X0156500Y0188400D02*
X0156500Y0183600D01*
X0166500Y0183600D02*
X0166500Y0188400D01*
X0176500Y0188400D02*
X0176500Y0183600D01*
X0186500Y0138400D02*
X0186500Y0133600D01*
D12*
X0071500Y0131000D03*
X0061500Y0131000D03*
X0061500Y0141000D03*
X0071500Y0141000D03*
X0071500Y0151000D03*
X0061500Y0151000D03*
X0061500Y0161000D03*
X0071500Y0161000D03*
X0071500Y0171000D03*
X0061500Y0171000D03*
X0051500Y0171000D03*
X0051500Y0161000D03*
X0051500Y0151000D03*
X0051500Y0141000D03*
X0051500Y0131000D03*
X0051500Y0121000D03*
X0051500Y0111000D03*
X0051500Y0101000D03*
X0051500Y0091000D03*
X0061500Y0091000D03*
X0071500Y0091000D03*
X0071500Y0101000D03*
X0061500Y0101000D03*
X0061500Y0111000D03*
X0071500Y0111000D03*
X0071500Y0121000D03*
X0061500Y0121000D03*
X0061500Y0081000D03*
X0071500Y0081000D03*
X0071500Y0071000D03*
X0061500Y0071000D03*
X0051500Y0071000D03*
X0051500Y0081000D03*
X0051500Y0181000D03*
X0051500Y0191000D03*
X0051500Y0201000D03*
X0051500Y0211000D03*
X0061500Y0211000D03*
X0071500Y0211000D03*
X0071500Y0201000D03*
X0061500Y0201000D03*
X0061500Y0191000D03*
X0071500Y0191000D03*
X0071500Y0181000D03*
X0061500Y0181000D03*
X0061500Y0221000D03*
X0071500Y0221000D03*
X0071500Y0231000D03*
X0061500Y0231000D03*
X0061500Y0241000D03*
X0071500Y0241000D03*
X0071500Y0251000D03*
X0061500Y0251000D03*
X0061500Y0261000D03*
X0071500Y0261000D03*
X0071500Y0271000D03*
X0061500Y0271000D03*
X0061500Y0281000D03*
X0071500Y0281000D03*
X0071500Y0291000D03*
X0061500Y0291000D03*
X0061500Y0301000D03*
X0071500Y0301000D03*
X0071500Y0311000D03*
X0061500Y0311000D03*
X0051500Y0311000D03*
X0051500Y0301000D03*
X0051500Y0291000D03*
X0051500Y0281000D03*
X0051500Y0271000D03*
X0051500Y0261000D03*
X0051500Y0251000D03*
X0051500Y0241000D03*
X0051500Y0231000D03*
X0051500Y0221000D03*
X0051500Y0321000D03*
X0051500Y0331000D03*
X0051500Y0341000D03*
X0051500Y0351000D03*
X0061500Y0351000D03*
X0071500Y0351000D03*
X0071500Y0341000D03*
X0061500Y0341000D03*
X0061500Y0331000D03*
X0071500Y0331000D03*
X0071500Y0321000D03*
X0061500Y0321000D03*
X0061500Y0361000D03*
X0071500Y0361000D03*
X0071500Y0371000D03*
X0061500Y0371000D03*
X0061500Y0381000D03*
X0071500Y0381000D03*
X0051500Y0381000D03*
X0051500Y0371000D03*
X0051500Y0361000D03*
X0706500Y0356000D03*
X0706500Y0346000D03*
X0706500Y0336000D03*
X0706500Y0326000D03*
X0706500Y0316000D03*
X0716500Y0316000D03*
X0716500Y0326000D03*
X0716500Y0336000D03*
X0716500Y0346000D03*
X0716500Y0356000D03*
X0716500Y0366000D03*
X0716500Y0376000D03*
X0716500Y0386000D03*
X0716500Y0396000D03*
X0706500Y0396000D03*
X0706500Y0386000D03*
X0706500Y0376000D03*
X0706500Y0366000D03*
X0706500Y0406000D03*
X0716500Y0406000D03*
X0716500Y0306000D03*
X0716500Y0296000D03*
X0716500Y0286000D03*
X0716500Y0276000D03*
X0706500Y0276000D03*
X0706500Y0286000D03*
X0706500Y0296000D03*
X0706500Y0306000D03*
X0706500Y0266000D03*
X0706500Y0256000D03*
X0706500Y0246000D03*
X0706500Y0236000D03*
X0706500Y0226000D03*
X0716500Y0226000D03*
X0716500Y0236000D03*
X0716500Y0246000D03*
X0716500Y0256000D03*
X0716500Y0266000D03*
X0716500Y0216000D03*
X0706500Y0216000D03*
D13*
X0706500Y0436000D03*
X0696500Y0436000D03*
D14*
X0041500Y0011000D03*
X0051500Y0011000D03*
X0051500Y0021000D03*
X0041500Y0021000D03*
X0061500Y0021000D03*
X0071500Y0021000D03*
X0071500Y0011000D03*
X0061500Y0011000D03*
X0061500Y0431000D03*
X0071500Y0431000D03*
X0071500Y0441000D03*
X0061500Y0441000D03*
X0051500Y0441000D03*
X0041500Y0441000D03*
X0041500Y0431000D03*
X0051500Y0431000D03*
D15*
X0041500Y0431000D02*
X0090250Y0382250D01*
X0090250Y0206000D01*
X0095250Y0201000D01*
X0101500Y0196000D02*
X0097750Y0192250D01*
X0097750Y0242250D01*
X0097750Y0258500D01*
X0101500Y0262250D01*
X0101500Y0296000D01*
X0105250Y0302250D02*
X0101500Y0306000D01*
X0097750Y0309750D01*
X0097750Y0357250D01*
X0101500Y0361000D01*
X0105250Y0371000D02*
X0105250Y0323500D01*
X0110250Y0318500D01*
X0110250Y0042250D01*
X0116500Y0036000D01*
X0101500Y0046000D02*
X0097750Y0049750D01*
X0097750Y0092250D01*
X0097750Y0108500D01*
X0101500Y0112250D01*
X0101500Y0146000D01*
X0097750Y0149750D01*
X0097750Y0192250D01*
X0105250Y0202250D02*
X0105250Y0252250D01*
X0105250Y0302250D01*
X0116500Y0316000D02*
X0120250Y0312250D01*
X0120250Y0367250D01*
X0116500Y0371000D01*
X0116500Y0397250D01*
X0107750Y0397250D01*
X0101500Y0391000D01*
X0111500Y0391000D02*
X0111500Y0328500D01*
X0107750Y0324750D01*
X0110250Y0323500D02*
X0116500Y0329750D01*
X0116500Y0341000D01*
X0122750Y0337250D02*
X0122750Y0069750D01*
X0126500Y0066000D01*
X0130250Y0061000D02*
X0129000Y0059750D01*
X0120250Y0059750D01*
X0120250Y0132250D01*
X0116500Y0136000D01*
X0125250Y0137250D02*
X0125250Y0154750D01*
X0130250Y0162250D02*
X0126500Y0166000D01*
X0130250Y0162250D02*
X0130250Y0133500D01*
X0140250Y0123500D01*
X0140250Y0112250D01*
X0155250Y0097250D01*
X0162750Y0091000D02*
X0162750Y0051000D01*
X0150250Y0038500D01*
X0150250Y0031000D01*
X0130250Y0011000D01*
X0071500Y0011000D01*
X0066500Y0016000D02*
X0061500Y0011000D01*
X0066500Y0016000D02*
X0066500Y0023500D01*
X0094000Y0051000D01*
X0094000Y0128500D01*
X0099000Y0133500D01*
X0091500Y0146000D02*
X0091500Y0068500D01*
X0046500Y0023500D01*
X0046500Y0016000D01*
X0041500Y0011000D01*
X0101500Y0056000D02*
X0105250Y0059750D01*
X0105250Y0109750D01*
X0105250Y0152250D01*
X0105250Y0202250D01*
X0101500Y0206000D01*
X0116500Y0216000D02*
X0120250Y0219750D01*
X0120250Y0169750D01*
X0116500Y0166000D01*
X0112750Y0162250D01*
X0112750Y0119750D01*
X0112750Y0069750D01*
X0116500Y0066000D01*
X0130250Y0061000D02*
X0130250Y0079750D01*
X0136500Y0086000D01*
X0126500Y0086000D02*
X0125250Y0087250D01*
X0125250Y0104750D01*
X0130250Y0112250D02*
X0130250Y0127250D01*
X0126500Y0136000D02*
X0125250Y0137250D01*
X0132750Y0139750D02*
X0132750Y0168500D01*
X0127750Y0173500D01*
X0130250Y0183500D02*
X0130250Y0191000D01*
X0127750Y0187250D02*
X0127750Y0208500D01*
X0130250Y0211000D01*
X0130250Y0226000D01*
X0126500Y0229750D01*
X0126500Y0236000D01*
X0126500Y0251000D01*
X0125250Y0252250D01*
X0105250Y0252250D02*
X0101500Y0256000D01*
X0101500Y0246000D02*
X0097750Y0242250D01*
X0087750Y0249750D02*
X0081500Y0243500D01*
X0081500Y0104750D01*
X0072750Y0096000D01*
X0061500Y0096000D01*
X0061500Y0091000D01*
X0072750Y0086000D02*
X0046500Y0086000D01*
X0046500Y0132250D01*
X0050250Y0136000D01*
X0066500Y0136000D01*
X0066500Y0156000D01*
X0061500Y0161000D01*
X0061500Y0151000D02*
X0061500Y0146000D01*
X0050250Y0146000D01*
X0044000Y0139750D01*
X0044000Y0098500D01*
X0035250Y0089750D01*
X0041500Y0099750D02*
X0041500Y0336000D01*
X0066500Y0336000D01*
X0071500Y0341000D01*
X0072750Y0346000D02*
X0051500Y0346000D01*
X0051500Y0351000D01*
X0051500Y0356000D02*
X0051500Y0361000D01*
X0051500Y0356000D02*
X0072750Y0356000D01*
X0080250Y0348500D01*
X0080250Y0307250D01*
X0087750Y0299750D01*
X0087750Y0296000D02*
X0087750Y0266000D01*
X0079000Y0261000D02*
X0079000Y0132250D01*
X0072750Y0126000D01*
X0061500Y0126000D01*
X0061500Y0121000D01*
X0056500Y0119750D02*
X0056500Y0126000D01*
X0061500Y0131000D01*
X0056500Y0119750D02*
X0060250Y0116000D01*
X0101500Y0106000D02*
X0105250Y0109750D01*
X0112750Y0119750D02*
X0116500Y0116000D01*
X0130250Y0112250D02*
X0156500Y0086000D01*
X0162750Y0091000D02*
X0182750Y0111000D01*
X0182750Y0162250D01*
X0186500Y0166000D01*
X0166500Y0166000D02*
X0160250Y0159750D01*
X0160250Y0058500D01*
X0140250Y0038500D01*
X0140250Y0031000D01*
X0176500Y0036000D02*
X0180250Y0032250D01*
X0180250Y0029750D01*
X0182750Y0027250D01*
X0260250Y0027250D01*
X0260250Y0131000D01*
X0272750Y0143500D01*
X0272750Y0151000D02*
X0272750Y0199750D01*
X0266500Y0206000D01*
X0260250Y0202250D02*
X0266500Y0196000D01*
X0260250Y0202250D02*
X0260250Y0219750D01*
X0266500Y0226000D01*
X0250250Y0219750D02*
X0250250Y0306000D01*
X0245250Y0311000D01*
X0245250Y0392250D01*
X0236500Y0401000D01*
X0230250Y0394750D02*
X0230250Y0314750D01*
X0236500Y0321000D01*
X0236500Y0331000D01*
X0236500Y0341000D02*
X0236500Y0351000D01*
X0236500Y0361000D02*
X0236500Y0371000D01*
X0242750Y0374750D02*
X0242750Y0122250D01*
X0236500Y0116000D01*
X0236500Y0106000D01*
X0227750Y0098500D02*
X0227750Y0194750D01*
X0227750Y0224750D01*
X0212750Y0238500D02*
X0212750Y0204750D01*
X0209000Y0201000D01*
X0206500Y0198500D02*
X0206500Y0207250D01*
X0210250Y0211000D01*
X0210250Y0239750D01*
X0210250Y0282250D01*
X0206500Y0286000D01*
X0206500Y0291000D01*
X0210250Y0294750D01*
X0210250Y0329750D01*
X0209000Y0331000D01*
X0212750Y0327250D02*
X0212750Y0296000D01*
X0211500Y0292250D02*
X0215250Y0288500D01*
X0215250Y0142250D01*
X0217750Y0139750D02*
X0217750Y0278500D01*
X0220250Y0273500D02*
X0220250Y0374750D01*
X0220250Y0401000D01*
X0199000Y0422250D01*
X0172750Y0422250D01*
X0172750Y0417250D01*
X0171500Y0416000D01*
X0167750Y0421000D02*
X0171500Y0424750D01*
X0260250Y0424750D01*
X0260250Y0397250D01*
X0266500Y0391000D01*
X0266500Y0381000D01*
X0272750Y0374750D01*
X0272750Y0291000D01*
X0252750Y0271000D01*
X0275250Y0248500D01*
X0275250Y0124750D01*
X0266500Y0116000D01*
X0266500Y0106000D01*
X0271500Y0102250D02*
X0292750Y0123500D01*
X0292750Y0178500D01*
X0280250Y0172250D02*
X0280250Y0413500D01*
X0261500Y0432250D01*
X0071500Y0432250D01*
X0071500Y0431000D01*
X0066500Y0436000D02*
X0066500Y0409750D01*
X0105250Y0371000D01*
X0095250Y0376000D02*
X0095250Y0274750D01*
X0099000Y0271000D01*
X0112750Y0282250D02*
X0112750Y0321000D01*
X0116500Y0324750D01*
X0110250Y0323500D02*
X0110250Y0318500D01*
X0120250Y0312250D02*
X0120250Y0262250D01*
X0116500Y0266000D01*
X0120250Y0262250D02*
X0120250Y0219750D01*
X0130250Y0229750D02*
X0130250Y0269750D01*
X0130250Y0312250D01*
X0126500Y0316000D01*
X0132750Y0312250D02*
X0136500Y0316000D01*
X0132750Y0312250D02*
X0132750Y0231000D01*
X0135250Y0228500D01*
X0135250Y0217250D01*
X0136500Y0216000D01*
X0132750Y0206000D02*
X0132750Y0227250D01*
X0130250Y0229750D01*
X0136500Y0236000D02*
X0140250Y0232250D01*
X0140250Y0271000D01*
X0135250Y0276000D01*
X0130250Y0269750D02*
X0126500Y0266000D01*
X0150250Y0272250D02*
X0150250Y0328500D01*
X0140250Y0338500D01*
X0140250Y0356000D01*
X0140250Y0358500D01*
X0132750Y0366000D01*
X0132750Y0383500D01*
X0135250Y0386000D01*
X0135250Y0412250D01*
X0131500Y0416000D01*
X0127750Y0421000D02*
X0129000Y0422250D01*
X0147750Y0422250D01*
X0147750Y0378500D01*
X0152750Y0373500D01*
X0152750Y0347250D01*
X0154000Y0347250D01*
X0152750Y0347250D02*
X0152750Y0312250D01*
X0156500Y0316000D01*
X0152750Y0312250D02*
X0152750Y0219750D01*
X0156500Y0216000D01*
X0162750Y0219750D02*
X0162750Y0259750D01*
X0164000Y0259750D01*
X0162750Y0259750D02*
X0162750Y0312250D01*
X0162750Y0382250D01*
X0167750Y0386000D02*
X0176500Y0377250D01*
X0181500Y0377250D01*
X0181500Y0373500D01*
X0192750Y0362250D01*
X0192750Y0332250D01*
X0176500Y0316000D01*
X0180250Y0312250D01*
X0180250Y0231000D01*
X0177750Y0228500D01*
X0177750Y0217250D01*
X0176500Y0216000D01*
X0182750Y0219750D02*
X0182750Y0312250D01*
X0186500Y0316000D01*
X0192750Y0312250D02*
X0196500Y0316000D01*
X0196500Y0366000D01*
X0171500Y0391000D01*
X0167750Y0386000D02*
X0167750Y0397250D01*
X0157750Y0397250D01*
X0151500Y0391000D01*
X0160250Y0389750D02*
X0160250Y0322250D01*
X0165250Y0324750D02*
X0165250Y0339750D01*
X0166500Y0341000D01*
X0150250Y0334750D02*
X0150250Y0367250D01*
X0146500Y0371000D01*
X0142750Y0364750D02*
X0136500Y0371000D01*
X0142750Y0364750D02*
X0142750Y0344750D01*
X0146500Y0341000D01*
X0139000Y0334750D02*
X0130250Y0334750D01*
X0130250Y0382250D01*
X0121500Y0391000D01*
X0127750Y0394750D02*
X0127750Y0421000D01*
X0111500Y0416000D02*
X0125250Y0402250D01*
X0125250Y0399750D01*
X0127750Y0394750D02*
X0131500Y0391000D01*
X0151500Y0407250D02*
X0151500Y0416000D01*
X0151500Y0407250D02*
X0174000Y0407250D01*
X0212750Y0368500D01*
X0212750Y0327250D01*
X0200250Y0323500D02*
X0200250Y0232250D01*
X0196500Y0236000D01*
X0200250Y0232250D02*
X0200250Y0211000D01*
X0197750Y0208500D01*
X0197750Y0187250D01*
X0196500Y0186000D01*
X0190250Y0189750D02*
X0190250Y0232250D01*
X0190250Y0299750D01*
X0185250Y0304750D01*
X0195250Y0298500D02*
X0195250Y0287250D01*
X0196500Y0286000D01*
X0170250Y0274750D02*
X0170250Y0326000D01*
X0190250Y0346000D01*
X0190250Y0361000D01*
X0206500Y0366000D02*
X0206500Y0316000D01*
X0202750Y0312250D01*
X0202750Y0219750D01*
X0206500Y0216000D01*
X0196500Y0216000D02*
X0192750Y0219750D01*
X0192750Y0312250D01*
X0200250Y0323500D02*
X0199000Y0324750D01*
X0176500Y0328500D02*
X0172750Y0324750D01*
X0172750Y0113500D01*
X0169000Y0109750D01*
X0176500Y0116000D02*
X0180250Y0119750D01*
X0180250Y0224750D01*
X0182750Y0219750D02*
X0186500Y0216000D01*
X0166500Y0216000D02*
X0162750Y0219750D01*
X0160250Y0232250D02*
X0160250Y0291000D01*
X0159000Y0292250D01*
X0166500Y0286000D02*
X0167750Y0284750D01*
X0167750Y0273500D01*
X0170250Y0271000D01*
X0170250Y0252250D01*
X0166500Y0236000D02*
X0170250Y0232250D01*
X0170250Y0189750D01*
X0166500Y0186000D01*
X0166500Y0179750D01*
X0144000Y0179750D01*
X0142750Y0181000D01*
X0142750Y0291000D01*
X0139000Y0294750D01*
X0136500Y0286000D02*
X0136500Y0307250D01*
X0140250Y0311000D01*
X0140250Y0329750D01*
X0142750Y0331000D02*
X0139000Y0334750D01*
X0142750Y0331000D02*
X0142750Y0319750D01*
X0146500Y0316000D01*
X0145250Y0307250D02*
X0145250Y0287250D01*
X0146500Y0286000D01*
X0116500Y0286000D02*
X0112750Y0282250D01*
X0112750Y0232250D01*
X0116500Y0236000D01*
X0112750Y0232250D02*
X0112750Y0189750D01*
X0116500Y0186000D01*
X0126500Y0186000D02*
X0127750Y0187250D01*
X0130250Y0183500D02*
X0140250Y0173500D01*
X0140250Y0163500D01*
X0145250Y0158500D01*
X0145250Y0137250D01*
X0146500Y0136000D01*
X0152750Y0141000D02*
X0152750Y0119750D01*
X0156500Y0116000D01*
X0150250Y0119750D02*
X0150250Y0177250D01*
X0146500Y0186000D02*
X0150250Y0189750D01*
X0150250Y0232250D01*
X0146500Y0236000D01*
X0140250Y0232250D02*
X0140250Y0189750D01*
X0136500Y0186000D01*
X0137750Y0201000D02*
X0132750Y0206000D01*
X0156500Y0186000D02*
X0160250Y0189750D01*
X0160250Y0232250D01*
X0156500Y0236000D01*
X0186500Y0236000D02*
X0190250Y0232250D01*
X0206500Y0236000D02*
X0210250Y0239750D01*
X0220250Y0257250D02*
X0230250Y0267250D01*
X0230250Y0062250D01*
X0236500Y0056000D01*
X0236500Y0046000D01*
X0252750Y0029750D02*
X0252750Y0182250D01*
X0266500Y0186000D02*
X0247750Y0204750D01*
X0247750Y0209750D01*
X0247750Y0232250D01*
X0206500Y0198500D02*
X0200250Y0192250D01*
X0200250Y0149750D01*
X0186500Y0136000D01*
X0186500Y0096000D01*
X0176500Y0086000D01*
X0182750Y0079750D01*
X0182750Y0053500D01*
X0186500Y0049750D01*
X0186500Y0036000D01*
X0182750Y0031000D02*
X0184000Y0029750D01*
X0252750Y0029750D01*
X0266500Y0036000D02*
X0295250Y0064750D01*
X0295250Y0192250D01*
X0306500Y0186000D02*
X0312750Y0179750D01*
X0312750Y0207250D01*
X0314000Y0208500D01*
X0312750Y0212250D02*
X0306500Y0206000D01*
X0295250Y0202250D02*
X0295250Y0389750D01*
X0306500Y0401000D01*
X0306500Y0391000D02*
X0306500Y0381000D01*
X0300250Y0377250D02*
X0306500Y0371000D01*
X0306500Y0361000D01*
X0300250Y0377250D02*
X0300250Y0384750D01*
X0297750Y0387250D01*
X0316500Y0416000D02*
X0331500Y0401000D01*
X0336500Y0401000D01*
X0336500Y0416000D01*
X0386500Y0416000D01*
X0401500Y0401000D01*
X0406500Y0401000D01*
X0406500Y0416000D01*
X0456500Y0416000D01*
X0471500Y0401000D01*
X0476500Y0401000D01*
X0476500Y0416000D01*
X0606500Y0416000D01*
X0607750Y0414750D01*
X0607750Y0287250D01*
X0606500Y0286000D01*
X0606500Y0141000D01*
X0602750Y0138500D02*
X0616500Y0124750D01*
X0616500Y0056000D01*
X0596500Y0036000D01*
X0596500Y0012250D01*
X0684000Y0012250D01*
X0685250Y0013500D01*
X0685250Y0016000D01*
X0711500Y0016000D01*
X0641500Y0016000D02*
X0632750Y0024750D01*
X0632750Y0119750D01*
X0626500Y0126000D01*
X0616500Y0124750D02*
X0616500Y0141000D01*
X0602750Y0138500D02*
X0602750Y0174750D01*
X0602750Y0304750D01*
X0596500Y0311000D01*
X0626500Y0321000D02*
X0677750Y0372250D01*
X0677750Y0383500D01*
X0705250Y0411000D01*
X0721500Y0411000D01*
X0721500Y0371000D01*
X0716500Y0366000D01*
X0706500Y0366000D02*
X0696500Y0356000D01*
X0696500Y0224750D01*
X0621500Y0224750D01*
X0620250Y0223500D01*
X0620250Y0207250D01*
X0629000Y0207250D01*
X0632750Y0203500D01*
X0632750Y0197250D01*
X0626500Y0191000D01*
X0620250Y0189750D02*
X0609000Y0201000D01*
X0609000Y0273500D01*
X0596500Y0271000D02*
X0590250Y0264750D01*
X0590250Y0394750D01*
X0596500Y0401000D01*
X0596500Y0381000D02*
X0605250Y0372250D01*
X0605250Y0334750D01*
X0626500Y0341000D02*
X0656500Y0371000D01*
X0680250Y0376000D02*
X0705250Y0401000D01*
X0711500Y0401000D01*
X0711500Y0391000D01*
X0706500Y0386000D01*
X0706500Y0376000D02*
X0694000Y0363500D01*
X0694000Y0276000D01*
X0699000Y0284750D02*
X0699000Y0348500D01*
X0706500Y0356000D01*
X0706500Y0346000D02*
X0711500Y0341000D01*
X0711500Y0304750D01*
X0707750Y0301000D01*
X0706500Y0306000D02*
X0701500Y0301000D01*
X0701500Y0146000D01*
X0635250Y0079750D01*
X0626500Y0076000D02*
X0620250Y0082250D01*
X0620250Y0189750D01*
X0602750Y0174750D02*
X0596500Y0181000D01*
X0591500Y0177250D02*
X0590250Y0178500D01*
X0590250Y0264750D01*
X0616500Y0286000D02*
X0616500Y0416000D01*
X0626500Y0421000D02*
X0626500Y0401000D01*
X0626500Y0391000D02*
X0636500Y0391000D01*
X0681500Y0436000D01*
X0641500Y0436000D02*
X0626500Y0421000D01*
X0691500Y0381000D02*
X0706500Y0396000D01*
X0691500Y0381000D02*
X0691500Y0227250D01*
X0621500Y0227250D01*
X0620250Y0228500D01*
X0620250Y0244750D01*
X0626500Y0251000D01*
X0626500Y0231000D02*
X0680250Y0284750D01*
X0680250Y0376000D01*
X0626500Y0351000D02*
X0619000Y0358500D01*
X0619000Y0362250D01*
X0716500Y0306000D02*
X0724000Y0298500D01*
X0724000Y0163500D01*
X0721500Y0178500D02*
X0721500Y0291000D01*
X0716500Y0296000D01*
X0716500Y0286000D02*
X0711500Y0281000D01*
X0711500Y0188500D01*
X0635250Y0212250D02*
X0635250Y0096000D01*
X0602750Y0089750D02*
X0602750Y0083500D01*
X0599000Y0079750D01*
X0484000Y0079750D01*
X0484000Y0074750D01*
X0481500Y0072250D01*
X0470250Y0072250D01*
X0470250Y0199750D01*
X0467750Y0202250D01*
X0467750Y0246000D01*
X0476500Y0254750D01*
X0476500Y0311000D01*
X0476500Y0321000D02*
X0462750Y0307250D01*
X0462750Y0069750D01*
X0476500Y0056000D01*
X0452750Y0061000D02*
X0452750Y0098500D01*
X0449000Y0102250D01*
X0440250Y0102250D01*
X0440250Y0189750D01*
X0440250Y0219750D01*
X0446500Y0226000D01*
X0429000Y0229750D02*
X0422750Y0236000D01*
X0422750Y0383500D01*
X0409000Y0397250D01*
X0376500Y0397250D01*
X0376500Y0401000D01*
X0376500Y0391000D02*
X0376500Y0381000D01*
X0382750Y0374750D01*
X0382750Y0297250D01*
X0387750Y0292250D01*
X0382750Y0287250D01*
X0382750Y0147250D01*
X0380250Y0144750D01*
X0380250Y0131000D01*
X0382750Y0128500D01*
X0382750Y0122250D01*
X0376500Y0116000D01*
X0376500Y0106000D01*
X0376500Y0096000D02*
X0376500Y0086000D01*
X0385250Y0084750D02*
X0376500Y0076000D01*
X0376500Y0066000D01*
X0370250Y0062250D02*
X0376500Y0056000D01*
X0376500Y0046000D01*
X0376500Y0036000D02*
X0342750Y0036000D01*
X0342750Y0033500D01*
X0341500Y0032250D01*
X0326500Y0032250D01*
X0326500Y0141000D01*
X0316500Y0141000D02*
X0316500Y0236000D01*
X0316500Y0251000D01*
X0314000Y0254750D02*
X0322750Y0254750D01*
X0322750Y0248500D01*
X0324000Y0247250D01*
X0336500Y0247250D01*
X0336500Y0311000D01*
X0336500Y0317250D02*
X0327750Y0317250D01*
X0336500Y0317250D02*
X0336500Y0321000D01*
X0336500Y0331000D01*
X0330250Y0334750D02*
X0336500Y0341000D01*
X0336500Y0351000D01*
X0336500Y0361000D02*
X0336500Y0371000D01*
X0342750Y0374750D02*
X0336500Y0381000D01*
X0342750Y0374750D02*
X0342750Y0122250D01*
X0336500Y0116000D01*
X0336500Y0106000D01*
X0336500Y0096000D02*
X0336500Y0086000D01*
X0336500Y0076000D02*
X0336500Y0066000D01*
X0336500Y0056000D02*
X0336500Y0046000D01*
X0330250Y0042250D02*
X0330250Y0178500D01*
X0324000Y0184750D01*
X0324000Y0227250D01*
X0325250Y0228500D01*
X0336500Y0228500D01*
X0336500Y0226000D01*
X0326500Y0226000D02*
X0326500Y0186000D01*
X0336500Y0176000D01*
X0336500Y0186000D02*
X0329000Y0193500D01*
X0329000Y0208500D01*
X0336500Y0216000D01*
X0336500Y0206000D02*
X0331500Y0201000D01*
X0331500Y0199750D01*
X0312750Y0212250D02*
X0312750Y0253500D01*
X0314000Y0254750D01*
X0326500Y0251000D02*
X0326500Y0291000D01*
X0312750Y0304750D01*
X0312750Y0422250D01*
X0320250Y0422250D01*
X0326500Y0416000D01*
X0260250Y0386000D02*
X0260250Y0334750D01*
X0266500Y0341000D01*
X0266500Y0351000D01*
X0275250Y0356000D02*
X0277750Y0353500D01*
X0277750Y0169750D01*
X0272750Y0151000D02*
X0257750Y0136000D01*
X0257750Y0122250D01*
X0240250Y0129750D02*
X0236500Y0126000D01*
X0240250Y0129750D02*
X0240250Y0151000D01*
X0206500Y0186000D02*
X0206500Y0198500D01*
X0202750Y0191000D02*
X0202750Y0082250D01*
X0186500Y0066000D01*
X0189000Y0059750D02*
X0227750Y0098500D01*
X0234000Y0091000D02*
X0250250Y0091000D01*
X0250250Y0194750D01*
X0282750Y0189750D02*
X0295250Y0202250D01*
X0300250Y0222250D02*
X0300250Y0102250D01*
X0306500Y0096000D01*
X0306500Y0086000D01*
X0297750Y0084750D02*
X0297750Y0332250D01*
X0306500Y0341000D01*
X0306500Y0331000D02*
X0306500Y0321000D01*
X0300250Y0314750D01*
X0300250Y0259750D01*
X0302750Y0239750D02*
X0302750Y0292250D01*
X0312750Y0304750D02*
X0306500Y0311000D01*
X0266500Y0321000D02*
X0266500Y0331000D01*
X0260250Y0334750D02*
X0260250Y0317250D01*
X0255250Y0312250D01*
X0230250Y0314750D02*
X0230250Y0267250D01*
X0302750Y0239750D02*
X0306500Y0236000D01*
X0316500Y0236000D02*
X0336500Y0236000D01*
X0376500Y0236000D02*
X0380250Y0239750D01*
X0380250Y0297250D01*
X0392750Y0297250D02*
X0406500Y0311000D01*
X0415250Y0319750D02*
X0420250Y0314750D01*
X0420250Y0142250D01*
X0422750Y0144750D01*
X0420250Y0142250D02*
X0417750Y0139750D01*
X0417750Y0067250D01*
X0406500Y0056000D01*
X0406500Y0046000D01*
X0406500Y0036000D02*
X0425250Y0036000D01*
X0425250Y0177250D01*
X0406500Y0186000D02*
X0400250Y0192250D01*
X0400250Y0209750D01*
X0406500Y0216000D01*
X0400250Y0214750D02*
X0400250Y0297250D01*
X0392750Y0297250D02*
X0392750Y0131000D01*
X0401500Y0122250D01*
X0406500Y0116000D02*
X0406500Y0106000D01*
X0412750Y0102250D02*
X0406500Y0096000D01*
X0406500Y0086000D01*
X0415250Y0084750D02*
X0406500Y0076000D01*
X0390250Y0092250D01*
X0390250Y0324750D01*
X0406500Y0341000D01*
X0406500Y0351000D01*
X0412750Y0354750D02*
X0412750Y0102250D01*
X0431500Y0099750D02*
X0431500Y0346000D01*
X0446500Y0361000D01*
X0446500Y0371000D01*
X0446500Y0381000D02*
X0446500Y0391000D01*
X0440250Y0397250D01*
X0440250Y0404750D01*
X0451500Y0404750D01*
X0460250Y0396000D01*
X0460250Y0129750D01*
X0446500Y0116000D01*
X0446500Y0106000D01*
X0446500Y0096000D02*
X0446500Y0086000D01*
X0476500Y0086000D02*
X0476500Y0096000D01*
X0482750Y0102250D01*
X0482750Y0354750D01*
X0476500Y0361000D01*
X0481500Y0364750D02*
X0470250Y0364750D01*
X0470250Y0357250D01*
X0476500Y0351000D01*
X0476500Y0341000D01*
X0476500Y0331000D02*
X0476500Y0321000D01*
X0446500Y0321000D02*
X0437750Y0312250D01*
X0437750Y0064750D01*
X0446500Y0056000D01*
X0451500Y0059750D02*
X0452750Y0061000D01*
X0435250Y0048500D02*
X0444000Y0039750D01*
X0476500Y0039750D01*
X0476500Y0036000D01*
X0441500Y0032250D02*
X0590250Y0032250D01*
X0590250Y0069750D01*
X0596500Y0076000D01*
X0596500Y0086000D02*
X0587750Y0094750D01*
X0587750Y0201000D01*
X0591500Y0177250D02*
X0591500Y0131000D01*
X0596500Y0126000D01*
X0585250Y0102250D02*
X0487750Y0199750D01*
X0487750Y0233500D01*
X0476500Y0226000D02*
X0470250Y0219750D01*
X0470250Y0203500D01*
X0476500Y0197250D01*
X0476500Y0196000D01*
X0452750Y0192250D02*
X0452750Y0394750D01*
X0446500Y0401000D01*
X0406500Y0391000D02*
X0406500Y0381000D01*
X0406500Y0371000D02*
X0406500Y0361000D01*
X0412750Y0354750D01*
X0376500Y0351000D02*
X0376500Y0341000D01*
X0367750Y0332250D01*
X0367750Y0167250D01*
X0370250Y0159750D02*
X0370250Y0314750D01*
X0376500Y0321000D01*
X0376500Y0331000D01*
X0365250Y0349750D02*
X0376500Y0361000D01*
X0376500Y0371000D01*
X0365250Y0349750D02*
X0365250Y0287250D01*
X0365250Y0099750D01*
X0367750Y0097250D01*
X0385250Y0084750D02*
X0385250Y0134750D01*
X0382750Y0137250D01*
X0382750Y0143500D01*
X0385250Y0146000D01*
X0385250Y0149750D01*
X0387750Y0152250D01*
X0380250Y0149750D02*
X0370250Y0159750D01*
X0380250Y0149750D02*
X0370250Y0139750D01*
X0370250Y0062250D01*
X0406500Y0066000D02*
X0406500Y0076000D01*
X0415250Y0084750D02*
X0415250Y0144750D01*
X0417750Y0147250D01*
X0446500Y0126000D02*
X0452750Y0132250D01*
X0452750Y0182250D01*
X0446500Y0186000D02*
X0452750Y0192250D01*
X0446500Y0196000D02*
X0440250Y0189750D01*
X0435250Y0203500D02*
X0435250Y0048500D01*
X0440250Y0036000D02*
X0425250Y0036000D01*
X0440250Y0036000D02*
X0440250Y0033500D01*
X0441500Y0032250D01*
X0476500Y0076000D02*
X0485250Y0084750D01*
X0485250Y0361000D01*
X0481500Y0364750D01*
X0446500Y0351000D02*
X0446500Y0341000D01*
X0266500Y0361000D02*
X0266500Y0371000D01*
X0260250Y0386000D02*
X0239000Y0407250D01*
X0230250Y0394750D02*
X0220250Y0404750D01*
X0236500Y0391000D02*
X0236500Y0381000D01*
X0242750Y0374750D01*
X0206500Y0366000D02*
X0181500Y0391000D01*
X0161500Y0391000D02*
X0160250Y0389750D01*
X0167750Y0409750D02*
X0167750Y0421000D01*
X0175250Y0409750D02*
X0181500Y0416000D01*
X0175250Y0409750D02*
X0167750Y0409750D01*
X0071500Y0441000D02*
X0066500Y0436000D01*
X0072750Y0346000D02*
X0076500Y0342250D01*
X0076500Y0324750D01*
X0077750Y0323500D01*
X0071500Y0311000D02*
X0071500Y0306000D01*
X0050250Y0306000D01*
X0046500Y0302250D01*
X0046500Y0146000D01*
X0091500Y0146000D02*
X0095250Y0149750D01*
X0101500Y0156000D02*
X0105250Y0152250D01*
X0132750Y0139750D02*
X0136500Y0136000D01*
X0142750Y0144750D02*
X0135250Y0152250D01*
X0150250Y0119750D02*
X0146500Y0116000D01*
X0101500Y0096000D02*
X0097750Y0092250D01*
X0086500Y0078500D02*
X0086500Y0186000D01*
X0076500Y0192250D02*
X0072750Y0196000D01*
X0066500Y0196000D01*
X0066500Y0206000D01*
X0061500Y0211000D01*
X0066500Y0209750D02*
X0070250Y0206000D01*
X0066500Y0209750D02*
X0066500Y0216000D01*
X0061500Y0221000D01*
X0076500Y0223500D02*
X0076500Y0246000D01*
X0066500Y0246000D01*
X0061500Y0251000D01*
X0056500Y0249750D02*
X0056500Y0266000D01*
X0051500Y0271000D01*
X0056500Y0296000D02*
X0087750Y0296000D01*
X0056500Y0296000D02*
X0051500Y0301000D01*
X0122750Y0337250D02*
X0126500Y0341000D01*
X0162750Y0312250D02*
X0166500Y0316000D01*
X0190250Y0189750D02*
X0186500Y0186000D01*
X0084000Y0176000D02*
X0084000Y0077250D01*
X0089000Y0072250D01*
X0089000Y0076000D02*
X0086500Y0078500D01*
X0080250Y0078500D02*
X0072750Y0086000D01*
X0166500Y0066000D02*
X0182750Y0049750D01*
X0182750Y0031000D01*
X0266500Y0046000D02*
X0266500Y0056000D01*
X0306500Y0056000D02*
X0306500Y0046000D01*
X0306500Y0036000D02*
X0306500Y0032250D01*
X0326500Y0032250D01*
X0330250Y0042250D02*
X0336500Y0036000D01*
X0306500Y0066000D02*
X0306500Y0076000D01*
X0297750Y0084750D01*
X0306500Y0106000D02*
X0306500Y0116000D01*
X0311500Y0112250D02*
X0312750Y0113500D01*
X0312750Y0179750D01*
X0385250Y0187250D02*
X0385250Y0214750D01*
X0395250Y0209750D02*
X0400250Y0214750D01*
X0434000Y0204750D02*
X0435250Y0203500D01*
X0476500Y0176000D02*
X0476500Y0138500D01*
X0472750Y0134750D01*
X0596500Y0096000D02*
X0602750Y0089750D01*
X0635250Y0212250D02*
X0626500Y0221000D01*
D16*
X0587750Y0201000D03*
X0487750Y0233500D03*
X0429000Y0229750D03*
X0434000Y0204750D03*
X0452750Y0182250D03*
X0425250Y0177250D03*
X0385250Y0187250D03*
X0367750Y0167250D03*
X0380250Y0149750D03*
X0387750Y0152250D03*
X0417750Y0147250D03*
X0422750Y0144750D03*
X0401500Y0122250D03*
X0431500Y0099750D03*
X0472750Y0134750D03*
X0367750Y0097250D03*
X0311500Y0112250D03*
X0271500Y0102250D03*
X0257750Y0122250D03*
X0272750Y0143500D03*
X0240250Y0151000D03*
X0217750Y0139750D03*
X0215250Y0142250D03*
X0169000Y0109750D03*
X0155250Y0097250D03*
X0125250Y0104750D03*
X0130250Y0127250D03*
X0152750Y0141000D03*
X0142750Y0144750D03*
X0135250Y0152250D03*
X0125250Y0154750D03*
X0127750Y0173500D03*
X0150250Y0177250D03*
X0130250Y0191000D03*
X0137750Y0201000D03*
X0095250Y0201000D03*
X0076500Y0192250D03*
X0086500Y0186000D03*
X0084000Y0176000D03*
X0095250Y0149750D03*
X0099000Y0133500D03*
X0060250Y0116000D03*
X0041500Y0099750D03*
X0035250Y0089750D03*
X0080250Y0078500D03*
X0089000Y0076000D03*
X0089000Y0072250D03*
X0140250Y0031000D03*
X0189000Y0059750D03*
X0234000Y0091000D03*
X0277750Y0169750D03*
X0280250Y0172250D03*
X0292750Y0178500D03*
X0295250Y0192250D03*
X0282750Y0189750D03*
X0252750Y0182250D03*
X0250250Y0194750D03*
X0247750Y0209750D03*
X0250250Y0219750D03*
X0247750Y0232250D03*
X0227750Y0224750D03*
X0212750Y0238500D03*
X0180250Y0224750D03*
X0209000Y0201000D03*
X0202750Y0191000D03*
X0227750Y0194750D03*
X0300250Y0222250D03*
X0314000Y0208500D03*
X0331500Y0199750D03*
X0326500Y0226000D03*
X0300250Y0259750D03*
X0252750Y0271000D03*
X0220250Y0273500D03*
X0217750Y0278500D03*
X0211500Y0292250D03*
X0212750Y0296000D03*
X0195250Y0298500D03*
X0185250Y0304750D03*
X0159000Y0292250D03*
X0139000Y0294750D03*
X0145250Y0307250D03*
X0160250Y0322250D03*
X0165250Y0324750D03*
X0176500Y0328500D03*
X0199000Y0324750D03*
X0209000Y0331000D03*
X0212750Y0327250D03*
X0255250Y0312250D03*
X0302750Y0292250D03*
X0327750Y0317250D03*
X0330250Y0334750D03*
X0275250Y0356000D03*
X0297750Y0387250D03*
X0239000Y0407250D03*
X0220250Y0404750D03*
X0220250Y0374750D03*
X0190250Y0361000D03*
X0162750Y0382250D03*
X0140250Y0356000D03*
X0154000Y0347250D03*
X0150250Y0334750D03*
X0140250Y0329750D03*
X0116500Y0324750D03*
X0107750Y0324750D03*
X0077750Y0323500D03*
X0087750Y0299750D03*
X0099000Y0271000D03*
X0087750Y0266000D03*
X0079000Y0261000D03*
X0087750Y0249750D03*
X0056500Y0249750D03*
X0076500Y0223500D03*
X0070250Y0206000D03*
X0125250Y0252250D03*
X0150250Y0272250D03*
X0135250Y0276000D03*
X0164000Y0259750D03*
X0170250Y0252250D03*
X0170250Y0274750D03*
X0220250Y0257250D03*
X0365250Y0287250D03*
X0380250Y0297250D03*
X0387750Y0292250D03*
X0400250Y0297250D03*
X0415250Y0319750D03*
X0385250Y0214750D03*
X0395250Y0209750D03*
X0585250Y0102250D03*
X0635250Y0096000D03*
X0635250Y0079750D03*
X0724000Y0163500D03*
X0721500Y0178500D03*
X0711500Y0188500D03*
X0609000Y0273500D03*
X0694000Y0276000D03*
X0699000Y0284750D03*
X0707750Y0301000D03*
X0605250Y0334750D03*
X0619000Y0362250D03*
X0656500Y0371000D03*
X0451500Y0059750D03*
X0046500Y0146000D03*
X0095250Y0376000D03*
X0125250Y0399750D03*
M02*
