%TF.GenerationSoftware,KiCad,Pcbnew,10.0.6*%
%TF.CreationDate,2026-09-24T18:27:42-04:00*%
%TF.ProjectId,memory-v2.0,6d656d6f-7279-42d7-9632-2e302e6b6963,2.0*%
%TF.SameCoordinates,Original*%
%TF.FileFunction,Soldermask,Bot*%
%TF.FilePolarity,Negative*%
%FSLAX46Y46*%
G04 Gerber Fmt 4.6, Leading zero omitted, Abs format (unit mm)*
G04 Created by KiCad (PCBNEW 10.0.6) date 2026-09-24 18:27:42*
%MOMM*%
%LPD*%
G01*
G04 APERTURE LIST*
G04 Aperture macros list*
%AMRoundRect*
0 Rectangle with rounded corners*
0 $1 Rounding radius*
0 $2 $3 $4 $5 $6 $7 $8 $9 X,Y pos of 4 corners*
0 Add a 4 corners polygon primitive as box body*
4,1,4,$2,$3,$4,$5,$6,$7,$8,$9,$2,$3,0*
0 Add four circle primitives for the rounded corners*
1,1,$1+$1,$2,$3*
1,1,$1+$1,$4,$5*
1,1,$1+$1,$6,$7*
1,1,$1+$1,$8,$9*
0 Add four rect primitives between the rounded corners*
20,1,$1+$1,$2,$3,$4,$5,0*
20,1,$1+$1,$4,$5,$6,$7,0*
20,1,$1+$1,$6,$7,$8,$9,0*
20,1,$1+$1,$8,$9,$2,$3,0*%
%AMFreePoly0*
4,1,17,0.360532,0.806901,0.806901,0.360532,0.825500,0.315631,0.825500,-0.315631,0.806901,-0.360532,0.360532,-0.806901,0.315631,-0.825500,-0.315631,-0.825500,-0.360532,-0.806901,-0.806901,-0.360532,-0.825500,-0.315631,-0.825500,0.315631,-0.806901,0.360532,-0.360532,0.806901,-0.315631,0.825500,0.315631,0.825500,0.360532,0.806901,0.360532,0.806901,$1*%
%AMFreePoly1*
4,1,17,0.392095,0.883101,0.883101,0.392095,0.901700,0.347194,0.901700,-0.347194,0.883101,-0.392095,0.392095,-0.883101,0.347194,-0.901700,-0.347194,-0.901700,-0.392095,-0.883101,-0.883101,-0.392095,-0.901700,-0.347194,-0.901700,0.347194,-0.883101,0.392095,-0.392095,0.883101,-0.347194,0.901700,0.347194,0.901700,0.392095,0.883101,0.392095,0.883101,$1*%
%AMFreePoly2*
4,1,17,0.297406,0.654501,0.654501,0.297406,0.673100,0.252505,0.673100,-0.252505,0.654501,-0.297406,0.297406,-0.654501,0.252505,-0.673100,-0.252505,-0.673100,-0.297406,-0.654501,-0.654501,-0.297406,-0.673100,-0.252505,-0.673100,0.252505,-0.654501,0.297406,-0.297406,0.654501,-0.252505,0.673100,0.252505,0.673100,0.297406,0.654501,0.297406,0.654501,$1*%
G04 Aperture macros list end*
%ADD10RoundRect,0.250000X0.550000X-0.550000X0.550000X0.550000X-0.550000X0.550000X-0.550000X-0.550000X0*%
%ADD11C,1.600000*%
%ADD12FreePoly0,0.000000*%
%ADD13FreePoly1,90.000000*%
%ADD14RoundRect,0.250000X-0.600000X-0.600000X0.600000X-0.600000X0.600000X0.600000X-0.600000X0.600000X0*%
%ADD15C,1.700000*%
%ADD16O,1.346200X2.565400*%
%ADD17R,1.600000X1.600000*%
%ADD18R,1.700000X1.700000*%
%ADD19RoundRect,0.250000X-0.550000X-0.550000X0.550000X-0.550000X0.550000X0.550000X-0.550000X0.550000X0*%
%ADD20FreePoly2,0.000000*%
%ADD21FreePoly2,180.000000*%
%ADD22C,2.997200*%
%ADD23FreePoly0,180.000000*%
%ADD24R,1.800000X1.800000*%
%ADD25C,1.800000*%
%ADD26O,1.651000X3.175000*%
G04 APERTURE END LIST*
D10*
%TO.C,IC32*%
X153640000Y-90980000D03*
D11*
X156180000Y-90980000D03*
X158720000Y-90980000D03*
X161260000Y-90980000D03*
X163800000Y-90980000D03*
X166340000Y-90980000D03*
X168880000Y-90980000D03*
X171420000Y-90980000D03*
X171420000Y-83360000D03*
X168880000Y-83360000D03*
X166340000Y-83360000D03*
X163800000Y-83360000D03*
X161260000Y-83360000D03*
X158720000Y-83360000D03*
X156180000Y-83360000D03*
X153640000Y-83360000D03*
%TD*%
D12*
%TO.C,U$1*%
X102840000Y-18590000D03*
X105380000Y-18590000D03*
X107920000Y-18590000D03*
X110460000Y-18590000D03*
X113000000Y-18590000D03*
X115540000Y-18590000D03*
X118080000Y-18590000D03*
X120620000Y-18590000D03*
X102840000Y-21130000D03*
X105380000Y-21130000D03*
X107920000Y-21130000D03*
X110460000Y-21130000D03*
X113000000Y-21130000D03*
X115540000Y-21130000D03*
X118080000Y-21130000D03*
X120620000Y-21130000D03*
X102840000Y-23670000D03*
X105380000Y-23670000D03*
X107920000Y-23670000D03*
X110460000Y-23670000D03*
X113000000Y-23670000D03*
X115540000Y-23670000D03*
X118080000Y-23670000D03*
X120620000Y-23670000D03*
%TD*%
D13*
%TO.C,C4*%
X35530000Y-80820000D03*
X35530000Y-78280000D03*
%TD*%
D14*
%TO.C,J2*%
X189200000Y-50340000D03*
D15*
X191740000Y-50340000D03*
X189200000Y-52880000D03*
X191740000Y-52880000D03*
X189200000Y-55420000D03*
X191740000Y-55420000D03*
X189200000Y-57960000D03*
X191740000Y-57960000D03*
X189200000Y-60500000D03*
X191740000Y-60500000D03*
X189200000Y-63040000D03*
X191740000Y-63040000D03*
X189200000Y-65580000D03*
X191740000Y-65580000D03*
X189200000Y-68120000D03*
X191740000Y-68120000D03*
X189200000Y-70660000D03*
X191740000Y-70660000D03*
X189200000Y-73200000D03*
X191740000Y-73200000D03*
X189200000Y-75740000D03*
X191740000Y-75740000D03*
X189200000Y-78280000D03*
X191740000Y-78280000D03*
X189200000Y-80820000D03*
X191740000Y-80820000D03*
X189200000Y-83360000D03*
X191740000Y-83360000D03*
X189200000Y-85900000D03*
X191740000Y-85900000D03*
X189200000Y-88440000D03*
X191740000Y-88440000D03*
X189200000Y-90980000D03*
X191740000Y-90980000D03*
X189200000Y-93520000D03*
X191740000Y-93520000D03*
X189200000Y-96060000D03*
X191740000Y-96060000D03*
X189200000Y-98600000D03*
X191740000Y-98600000D03*
%TD*%
D13*
%TO.C,C8*%
X148560000Y-18590000D03*
X148560000Y-16050000D03*
%TD*%
%TO.C,C16*%
X35530000Y-66850000D03*
X35530000Y-64310000D03*
%TD*%
D16*
%TO.C,IC12*%
X76170000Y-83360000D03*
X78710000Y-83360000D03*
X81250000Y-83360000D03*
X83790000Y-83360000D03*
X86330000Y-83360000D03*
X88870000Y-83360000D03*
X91410000Y-83360000D03*
X91410000Y-75740000D03*
X88870000Y-75740000D03*
X86330000Y-75740000D03*
X83790000Y-75740000D03*
X81250000Y-75740000D03*
X78710000Y-75740000D03*
X76170000Y-75740000D03*
%TD*%
%TO.C,IC27*%
X40610000Y-27480000D03*
X43150000Y-27480000D03*
X45690000Y-27480000D03*
X48230000Y-27480000D03*
X50770000Y-27480000D03*
X53310000Y-27480000D03*
X55850000Y-27480000D03*
X58390000Y-27480000D03*
X60930000Y-27480000D03*
X63470000Y-27480000D03*
X63470000Y-19860000D03*
X60930000Y-19860000D03*
X58390000Y-19860000D03*
X55850000Y-19860000D03*
X53310000Y-19860000D03*
X50770000Y-19860000D03*
X48230000Y-19860000D03*
X45690000Y-19860000D03*
X43150000Y-19860000D03*
X40610000Y-19860000D03*
%TD*%
D13*
%TO.C,C11*%
X71090000Y-66850000D03*
X71090000Y-64310000D03*
%TD*%
D11*
%TO.C,R13*%
X180310000Y-112570000D03*
X180310000Y-102410000D03*
%TD*%
%TO.C,C29*%
X148560000Y-61770000D03*
X148560000Y-56770000D03*
%TD*%
D13*
%TO.C,C10*%
X71090000Y-38910000D03*
X71090000Y-36370000D03*
%TD*%
D11*
%TO.C,R10*%
X176500000Y-98600000D03*
X176500000Y-88440000D03*
%TD*%
D16*
%TO.C,IC7*%
X153640000Y-21130000D03*
X156180000Y-21130000D03*
X158720000Y-21130000D03*
X161260000Y-21130000D03*
X163800000Y-21130000D03*
X166340000Y-21130000D03*
X168880000Y-21130000D03*
X171420000Y-21130000D03*
X171420000Y-13510000D03*
X168880000Y-13510000D03*
X166340000Y-13510000D03*
X163800000Y-13510000D03*
X161260000Y-13510000D03*
X158720000Y-13510000D03*
X156180000Y-13510000D03*
X153640000Y-13510000D03*
%TD*%
%TO.C,IC29*%
X40610000Y-41450000D03*
X43150000Y-41450000D03*
X45690000Y-41450000D03*
X48230000Y-41450000D03*
X50770000Y-41450000D03*
X53310000Y-41450000D03*
X55850000Y-41450000D03*
X58390000Y-41450000D03*
X60930000Y-41450000D03*
X63470000Y-41450000D03*
X63470000Y-33830000D03*
X60930000Y-33830000D03*
X58390000Y-33830000D03*
X55850000Y-33830000D03*
X53310000Y-33830000D03*
X50770000Y-33830000D03*
X48230000Y-33830000D03*
X45690000Y-33830000D03*
X43150000Y-33830000D03*
X40610000Y-33830000D03*
%TD*%
D11*
%TO.C,C27*%
X148560000Y-89710000D03*
X148560000Y-84710000D03*
%TD*%
D13*
%TO.C,C17*%
X35530000Y-38910000D03*
X35530000Y-36370000D03*
%TD*%
D17*
%TO.C,RN9*%
X181580000Y-71930000D03*
D11*
X181580000Y-69390000D03*
X181580000Y-66850000D03*
X181580000Y-64310000D03*
X181580000Y-61770000D03*
X181580000Y-59230000D03*
X181580000Y-56690000D03*
X181580000Y-54150000D03*
X181580000Y-51610000D03*
%TD*%
D16*
%TO.C,IC9*%
X40610000Y-83360000D03*
X43150000Y-83360000D03*
X45690000Y-83360000D03*
X48230000Y-83360000D03*
X50770000Y-83360000D03*
X53310000Y-83360000D03*
X55850000Y-83360000D03*
X58390000Y-83360000D03*
X60930000Y-83360000D03*
X63470000Y-83360000D03*
X63470000Y-75740000D03*
X60930000Y-75740000D03*
X58390000Y-75740000D03*
X55850000Y-75740000D03*
X53310000Y-75740000D03*
X50770000Y-75740000D03*
X48230000Y-75740000D03*
X45690000Y-75740000D03*
X43150000Y-75740000D03*
X40610000Y-75740000D03*
%TD*%
D13*
%TO.C,C1*%
X104110000Y-43990000D03*
X104110000Y-41450000D03*
%TD*%
D10*
%TO.C,IC33*%
X153640000Y-49070000D03*
D11*
X156180000Y-49070000D03*
X158720000Y-49070000D03*
X161260000Y-49070000D03*
X163800000Y-49070000D03*
X166340000Y-49070000D03*
X168880000Y-49070000D03*
X168880000Y-41450000D03*
X166340000Y-41450000D03*
X163800000Y-41450000D03*
X161260000Y-41450000D03*
X158720000Y-41450000D03*
X156180000Y-41450000D03*
X153640000Y-41450000D03*
%TD*%
%TO.C,C28*%
X148560000Y-47800000D03*
X148560000Y-42800000D03*
%TD*%
D13*
%TO.C,C2*%
X104110000Y-65580000D03*
X104110000Y-63040000D03*
%TD*%
D16*
%TO.C,IC14*%
X76170000Y-27480000D03*
X78710000Y-27480000D03*
X81250000Y-27480000D03*
X83790000Y-27480000D03*
X86330000Y-27480000D03*
X88870000Y-27480000D03*
X91410000Y-27480000D03*
X91410000Y-19860000D03*
X88870000Y-19860000D03*
X86330000Y-19860000D03*
X83790000Y-19860000D03*
X81250000Y-19860000D03*
X78710000Y-19860000D03*
X76170000Y-19860000D03*
%TD*%
%TO.C,RN8*%
X100300000Y-30020000D03*
X102840000Y-30020000D03*
X105380000Y-30020000D03*
X107920000Y-30020000D03*
X110460000Y-30020000D03*
X113000000Y-30020000D03*
X115540000Y-30020000D03*
X118080000Y-30020000D03*
X120620000Y-30020000D03*
%TD*%
D13*
%TO.C,C5*%
X35530000Y-94790000D03*
X35530000Y-92250000D03*
%TD*%
D11*
%TO.C,C26*%
X148560000Y-75740000D03*
X148560000Y-70740000D03*
%TD*%
D10*
%TO.C,IC31*%
X153640000Y-77010000D03*
D11*
X156180000Y-77010000D03*
X158720000Y-77010000D03*
X161260000Y-77010000D03*
X163800000Y-77010000D03*
X166340000Y-77010000D03*
X168880000Y-77010000D03*
X168880000Y-69390000D03*
X166340000Y-69390000D03*
X163800000Y-69390000D03*
X161260000Y-69390000D03*
X158720000Y-69390000D03*
X156180000Y-69390000D03*
X153640000Y-69390000D03*
%TD*%
D16*
%TO.C,IC18*%
X129510000Y-22400000D03*
X132050000Y-22400000D03*
X134590000Y-22400000D03*
X137130000Y-22400000D03*
X139670000Y-22400000D03*
X142210000Y-22400000D03*
X144750000Y-22400000D03*
X144750000Y-14780000D03*
X142210000Y-14780000D03*
X139670000Y-14780000D03*
X137130000Y-14780000D03*
X134590000Y-14780000D03*
X132050000Y-14780000D03*
X129510000Y-14780000D03*
%TD*%
%TO.C,IC10*%
X76170000Y-97330000D03*
X78710000Y-97330000D03*
X81250000Y-97330000D03*
X83790000Y-97330000D03*
X86330000Y-97330000D03*
X88870000Y-97330000D03*
X91410000Y-97330000D03*
X91410000Y-89710000D03*
X88870000Y-89710000D03*
X86330000Y-89710000D03*
X83790000Y-89710000D03*
X81250000Y-89710000D03*
X78710000Y-89710000D03*
X76170000Y-89710000D03*
%TD*%
%TO.C,IC11*%
X76170000Y-69390000D03*
X78710000Y-69390000D03*
X81250000Y-69390000D03*
X83790000Y-69390000D03*
X86330000Y-69390000D03*
X88870000Y-69390000D03*
X91410000Y-69390000D03*
X93950000Y-69390000D03*
X93950000Y-61770000D03*
X91410000Y-61770000D03*
X88870000Y-61770000D03*
X86330000Y-61770000D03*
X83790000Y-61770000D03*
X81250000Y-61770000D03*
X78710000Y-61770000D03*
X76170000Y-61770000D03*
%TD*%
%TO.C,IC6*%
X76170000Y-41450000D03*
X78710000Y-41450000D03*
X81250000Y-41450000D03*
X83790000Y-41450000D03*
X86330000Y-41450000D03*
X88870000Y-41450000D03*
X91410000Y-41450000D03*
X91410000Y-33830000D03*
X88870000Y-33830000D03*
X86330000Y-33830000D03*
X83790000Y-33830000D03*
X81250000Y-33830000D03*
X78710000Y-33830000D03*
X76170000Y-33830000D03*
%TD*%
D11*
%TO.C,C25*%
X148560000Y-103680000D03*
X148560000Y-98680000D03*
%TD*%
D16*
%TO.C,IC5*%
X76170000Y-55420000D03*
X78710000Y-55420000D03*
X81250000Y-55420000D03*
X83790000Y-55420000D03*
X86330000Y-55420000D03*
X88870000Y-55420000D03*
X91410000Y-55420000D03*
X93950000Y-55420000D03*
X96490000Y-55420000D03*
X99030000Y-55420000D03*
X99030000Y-47800000D03*
X96490000Y-47800000D03*
X93950000Y-47800000D03*
X91410000Y-47800000D03*
X88870000Y-47800000D03*
X86330000Y-47800000D03*
X83790000Y-47800000D03*
X81250000Y-47800000D03*
X78710000Y-47800000D03*
X76170000Y-47800000D03*
%TD*%
%TO.C,RN7*%
X120620000Y-13510000D03*
X118080000Y-13510000D03*
X115540000Y-13510000D03*
X113000000Y-13510000D03*
X110460000Y-13510000D03*
X107920000Y-13510000D03*
X105380000Y-13510000D03*
X102840000Y-13510000D03*
X100300000Y-13510000D03*
%TD*%
%TO.C,IC26*%
X40610000Y-55420000D03*
X43150000Y-55420000D03*
X45690000Y-55420000D03*
X48230000Y-55420000D03*
X50770000Y-55420000D03*
X53310000Y-55420000D03*
X55850000Y-55420000D03*
X58390000Y-55420000D03*
X60930000Y-55420000D03*
X63470000Y-55420000D03*
X63470000Y-47800000D03*
X60930000Y-47800000D03*
X58390000Y-47800000D03*
X55850000Y-47800000D03*
X53310000Y-47800000D03*
X50770000Y-47800000D03*
X48230000Y-47800000D03*
X45690000Y-47800000D03*
X43150000Y-47800000D03*
X40610000Y-47800000D03*
%TD*%
D13*
%TO.C,C15*%
X35530000Y-24940000D03*
X35530000Y-22400000D03*
%TD*%
D16*
%TO.C,IC28*%
X40610000Y-69390000D03*
X43150000Y-69390000D03*
X45690000Y-69390000D03*
X48230000Y-69390000D03*
X50770000Y-69390000D03*
X53310000Y-69390000D03*
X55850000Y-69390000D03*
X58390000Y-69390000D03*
X60930000Y-69390000D03*
X63470000Y-69390000D03*
X63470000Y-61770000D03*
X60930000Y-61770000D03*
X58390000Y-61770000D03*
X55850000Y-61770000D03*
X53310000Y-61770000D03*
X50770000Y-61770000D03*
X48230000Y-61770000D03*
X45690000Y-61770000D03*
X43150000Y-61770000D03*
X40610000Y-61770000D03*
%TD*%
D13*
%TO.C,C18*%
X71090000Y-108760000D03*
X71090000Y-106220000D03*
%TD*%
D11*
%TO.C,R12*%
X176500000Y-112570000D03*
X176500000Y-102410000D03*
%TD*%
D16*
%TO.C,RN5*%
X40610000Y-104950000D03*
X43150000Y-104950000D03*
X45690000Y-104950000D03*
X48230000Y-104950000D03*
X50770000Y-104950000D03*
X53310000Y-104950000D03*
X55850000Y-104950000D03*
X58390000Y-104950000D03*
X60930000Y-104950000D03*
%TD*%
D18*
%TO.C,J3*%
X191740000Y-23670000D03*
D15*
X191740000Y-26210000D03*
X191740000Y-28750000D03*
X191740000Y-31290000D03*
%TD*%
D13*
%TO.C,C7*%
X148560000Y-32560000D03*
X148560000Y-30020000D03*
%TD*%
%TO.C,C19*%
X104110000Y-104950000D03*
X104110000Y-102410000D03*
%TD*%
%TO.C,C3*%
X104110000Y-87170000D03*
X104110000Y-84630000D03*
%TD*%
%TO.C,C6*%
X71090000Y-52880000D03*
X71090000Y-50340000D03*
%TD*%
D19*
%TO.C,C30*%
X181580000Y-22400000D03*
D11*
X183580000Y-22400000D03*
%TD*%
D16*
%TO.C,IC3*%
X76170000Y-111300000D03*
X78710000Y-111300000D03*
X81250000Y-111300000D03*
X83790000Y-111300000D03*
X86330000Y-111300000D03*
X88870000Y-111300000D03*
X91410000Y-111300000D03*
X91410000Y-103680000D03*
X88870000Y-103680000D03*
X86330000Y-103680000D03*
X83790000Y-103680000D03*
X81250000Y-103680000D03*
X78710000Y-103680000D03*
X76170000Y-103680000D03*
%TD*%
D13*
%TO.C,C12*%
X71090000Y-80820000D03*
X71090000Y-78280000D03*
%TD*%
D20*
%TO.C,R2*%
X162530000Y-121460000D03*
X172690000Y-121460000D03*
%TD*%
D16*
%TO.C,IC1*%
X109190000Y-50340000D03*
X111730000Y-50340000D03*
X114270000Y-50340000D03*
X116810000Y-50340000D03*
X119350000Y-50340000D03*
X121890000Y-50340000D03*
X124430000Y-50340000D03*
X126970000Y-50340000D03*
X129510000Y-50340000D03*
X132050000Y-50340000D03*
X134590000Y-50340000D03*
X137130000Y-50340000D03*
X139670000Y-50340000D03*
X142210000Y-50340000D03*
X142210000Y-35100000D03*
X139670000Y-35100000D03*
X137130000Y-35100000D03*
X134590000Y-35100000D03*
X132050000Y-35100000D03*
X129510000Y-35100000D03*
X126970000Y-35100000D03*
X124430000Y-35100000D03*
X121890000Y-35100000D03*
X119350000Y-35100000D03*
X116810000Y-35100000D03*
X114270000Y-35100000D03*
X111730000Y-35100000D03*
X109190000Y-35100000D03*
%TD*%
D21*
%TO.C,PWR0*%
X193010000Y-120190000D03*
X190470000Y-120190000D03*
%TD*%
D13*
%TO.C,C13*%
X71090000Y-24940000D03*
X71090000Y-22400000D03*
%TD*%
%TO.C,C24*%
X125700000Y-19860000D03*
X125700000Y-17320000D03*
%TD*%
D22*
%TO.C,X1*%
X20287000Y-111301400D03*
X20287000Y-22388600D03*
D23*
X22827000Y-106215000D03*
X22827000Y-103675000D03*
X22827000Y-101135000D03*
X22827000Y-98595000D03*
X22827000Y-96055000D03*
X22827000Y-93515000D03*
X22827000Y-90975000D03*
X22827000Y-88435000D03*
X22827000Y-85895000D03*
X22827000Y-83355000D03*
X22827000Y-80815000D03*
X22827000Y-78275000D03*
X22827000Y-75735000D03*
X22827000Y-73195000D03*
X22827000Y-70655000D03*
X22827000Y-68115000D03*
X22827000Y-65575000D03*
X22827000Y-63035000D03*
X22827000Y-60495000D03*
X22827000Y-57955000D03*
X22827000Y-55415000D03*
X22827000Y-52875000D03*
X22827000Y-50335000D03*
X22827000Y-47795000D03*
X22827000Y-45255000D03*
X22827000Y-42715000D03*
X22827000Y-40175000D03*
X22827000Y-37635000D03*
X22827000Y-35095000D03*
X22827000Y-32555000D03*
X22827000Y-30015000D03*
X22827000Y-27475000D03*
X25367000Y-106215000D03*
X25367000Y-103675000D03*
X25367000Y-101135000D03*
X25367000Y-98595000D03*
X25367000Y-96055000D03*
X25367000Y-93515000D03*
X25367000Y-90975000D03*
X25367000Y-88435000D03*
X25367000Y-85895000D03*
X25367000Y-83355000D03*
X25367000Y-80815000D03*
X25367000Y-78275000D03*
X25367000Y-75735000D03*
X25367000Y-73195000D03*
X25367000Y-70655000D03*
X25367000Y-68115000D03*
X25367000Y-65575000D03*
X25367000Y-63035000D03*
X25367000Y-60495000D03*
X25367000Y-57955000D03*
X25367000Y-55415000D03*
X25367000Y-52875000D03*
X25367000Y-50335000D03*
X25367000Y-47795000D03*
X25367000Y-45255000D03*
X25367000Y-42715000D03*
X25367000Y-40175000D03*
X25367000Y-37635000D03*
X25367000Y-35095000D03*
X25367000Y-32555000D03*
X25367000Y-30015000D03*
X25367000Y-27475000D03*
X27907000Y-106215000D03*
X27907000Y-103675000D03*
X27907000Y-101135000D03*
X27907000Y-98595000D03*
X27907000Y-96055000D03*
X27907000Y-93515000D03*
X27907000Y-90975000D03*
X27907000Y-88435000D03*
X27907000Y-85895000D03*
X27907000Y-83355000D03*
X27907000Y-80815000D03*
X27907000Y-78275000D03*
X27907000Y-75735000D03*
X27907000Y-73195000D03*
X27907000Y-70655000D03*
X27907000Y-68115000D03*
X27907000Y-65575000D03*
X27907000Y-63035000D03*
X27907000Y-60495000D03*
X27907000Y-57955000D03*
X27907000Y-55415000D03*
X27907000Y-52875000D03*
X27907000Y-50335000D03*
X27907000Y-47795000D03*
X27907000Y-45255000D03*
X27907000Y-42715000D03*
X27907000Y-40175000D03*
X27907000Y-37635000D03*
X27907000Y-35095000D03*
X27907000Y-32555000D03*
X27907000Y-30015000D03*
X27907000Y-27475000D03*
%TD*%
D16*
%TO.C,IC8*%
X40610000Y-97330000D03*
X43150000Y-97330000D03*
X45690000Y-97330000D03*
X48230000Y-97330000D03*
X50770000Y-97330000D03*
X53310000Y-97330000D03*
X55850000Y-97330000D03*
X58390000Y-97330000D03*
X60930000Y-97330000D03*
X63470000Y-97330000D03*
X63470000Y-89710000D03*
X60930000Y-89710000D03*
X58390000Y-89710000D03*
X55850000Y-89710000D03*
X53310000Y-89710000D03*
X50770000Y-89710000D03*
X48230000Y-89710000D03*
X45690000Y-89710000D03*
X43150000Y-89710000D03*
X40610000Y-89710000D03*
%TD*%
D24*
%TO.C,LED1*%
X184120000Y-120190000D03*
D25*
X181580000Y-120190000D03*
%TD*%
D18*
%TO.C,JP2*%
X191740000Y-13510000D03*
D15*
X191740000Y-16050000D03*
%TD*%
D13*
%TO.C,C14*%
X35530000Y-52880000D03*
X35530000Y-50340000D03*
%TD*%
D11*
%TO.C,R11*%
X180310000Y-98600000D03*
X180310000Y-88440000D03*
%TD*%
D26*
%TO.C,JP1*%
X22830000Y-14780000D03*
X25370000Y-14780000D03*
X27910000Y-14780000D03*
%TD*%
D16*
%TO.C,IC13*%
X109190000Y-93520000D03*
X111730000Y-93520000D03*
X114270000Y-93520000D03*
X116810000Y-93520000D03*
X119350000Y-93520000D03*
X121890000Y-93520000D03*
X124430000Y-93520000D03*
X126970000Y-93520000D03*
X129510000Y-93520000D03*
X132050000Y-93520000D03*
X134590000Y-93520000D03*
X137130000Y-93520000D03*
X139670000Y-93520000D03*
X142210000Y-93520000D03*
X142210000Y-78280000D03*
X139670000Y-78280000D03*
X137130000Y-78280000D03*
X134590000Y-78280000D03*
X132050000Y-78280000D03*
X129510000Y-78280000D03*
X126970000Y-78280000D03*
X124430000Y-78280000D03*
X121890000Y-78280000D03*
X119350000Y-78280000D03*
X116810000Y-78280000D03*
X114270000Y-78280000D03*
X111730000Y-78280000D03*
X109190000Y-78280000D03*
%TD*%
D10*
%TO.C,IC34*%
X153640000Y-63040000D03*
D11*
X156180000Y-63040000D03*
X158720000Y-63040000D03*
X161260000Y-63040000D03*
X163800000Y-63040000D03*
X166340000Y-63040000D03*
X168880000Y-63040000D03*
X171420000Y-63040000D03*
X173960000Y-63040000D03*
X176500000Y-63040000D03*
X176500000Y-55420000D03*
X173960000Y-55420000D03*
X171420000Y-55420000D03*
X168880000Y-55420000D03*
X166340000Y-55420000D03*
X163800000Y-55420000D03*
X161260000Y-55420000D03*
X158720000Y-55420000D03*
X156180000Y-55420000D03*
X153640000Y-55420000D03*
%TD*%
D13*
%TO.C,C9*%
X71090000Y-94790000D03*
X71090000Y-92250000D03*
%TD*%
D10*
%TO.C,IC30*%
X153640000Y-104950000D03*
D11*
X156180000Y-104950000D03*
X158720000Y-104950000D03*
X161260000Y-104950000D03*
X163800000Y-104950000D03*
X166340000Y-104950000D03*
X168880000Y-104950000D03*
X171420000Y-104950000D03*
X171420000Y-97330000D03*
X168880000Y-97330000D03*
X166340000Y-97330000D03*
X163800000Y-97330000D03*
X161260000Y-97330000D03*
X158720000Y-97330000D03*
X156180000Y-97330000D03*
X153640000Y-97330000D03*
%TD*%
%TO.C,R14*%
X162530000Y-116380000D03*
X172690000Y-116380000D03*
%TD*%
D16*
%TO.C,RN6*%
X40610000Y-110030000D03*
X43150000Y-110030000D03*
X45690000Y-110030000D03*
X48230000Y-110030000D03*
X50770000Y-110030000D03*
X53310000Y-110030000D03*
X55850000Y-110030000D03*
X58390000Y-110030000D03*
X60930000Y-110030000D03*
%TD*%
%TO.C,IC15*%
X109190000Y-107490000D03*
X111730000Y-107490000D03*
X114270000Y-107490000D03*
X116810000Y-107490000D03*
X119350000Y-107490000D03*
X121890000Y-107490000D03*
X124430000Y-107490000D03*
X124430000Y-99870000D03*
X121890000Y-99870000D03*
X119350000Y-99870000D03*
X116810000Y-99870000D03*
X114270000Y-99870000D03*
X111730000Y-99870000D03*
X109190000Y-99870000D03*
%TD*%
%TO.C,IC4*%
X153640000Y-35100000D03*
X156180000Y-35100000D03*
X158720000Y-35100000D03*
X161260000Y-35100000D03*
X163800000Y-35100000D03*
X166340000Y-35100000D03*
X168880000Y-35100000D03*
X168880000Y-27480000D03*
X166340000Y-27480000D03*
X163800000Y-27480000D03*
X161260000Y-27480000D03*
X158720000Y-27480000D03*
X156180000Y-27480000D03*
X153640000Y-27480000D03*
%TD*%
%TO.C,IC2*%
X109190000Y-71930000D03*
X111730000Y-71930000D03*
X114270000Y-71930000D03*
X116810000Y-71930000D03*
X119350000Y-71930000D03*
X121890000Y-71930000D03*
X124430000Y-71930000D03*
X126970000Y-71930000D03*
X129510000Y-71930000D03*
X132050000Y-71930000D03*
X134590000Y-71930000D03*
X137130000Y-71930000D03*
X139670000Y-71930000D03*
X142210000Y-71930000D03*
X142210000Y-56690000D03*
X139670000Y-56690000D03*
X137130000Y-56690000D03*
X134590000Y-56690000D03*
X132050000Y-56690000D03*
X129510000Y-56690000D03*
X126970000Y-56690000D03*
X124430000Y-56690000D03*
X121890000Y-56690000D03*
X119350000Y-56690000D03*
X116810000Y-56690000D03*
X114270000Y-56690000D03*
X111730000Y-56690000D03*
X109190000Y-56690000D03*
%TD*%
M02*
