G75*
%MOIN*%
%OFA0B0*%
%FSLAX25Y25*%
%IPPOS*%
%LPD*%
%AMOC8*
5,1,8,0,0,1.08239X$1,22.5*
%
%ADD10OC8,0.04800*%
%ADD11OC8,0.05400*%
%ADD12C,0.06000*%
%ADD13C,0.02000*%
%ADD14C,0.00600*%
%ADD15C,0.02700*%
D10*
X0011000Y0026000D03*
X0051000Y0026000D03*
X0066000Y0036000D03*
X0076000Y0036000D03*
X0221000Y0036000D03*
X0231000Y0036000D03*
X0251000Y0026000D03*
X0291000Y0026000D03*
D11*
X0281000Y0071000D03*
X0281000Y0081000D03*
X0281000Y0091000D03*
X0281000Y0101000D03*
X0281000Y0111000D03*
X0281000Y0121000D03*
X0281000Y0131000D03*
X0281000Y0141000D03*
X0281000Y0151000D03*
X0281000Y0161000D03*
X0281000Y0171000D03*
X0281000Y0181000D03*
X0281000Y0191000D03*
X0281000Y0201000D03*
X0281000Y0211000D03*
X0281000Y0221000D03*
X0281000Y0231000D03*
X0281000Y0241000D03*
X0281000Y0251000D03*
X0281000Y0261000D03*
X0281000Y0271000D03*
X0281000Y0281000D03*
X0281000Y0291000D03*
X0281000Y0301000D03*
X0281000Y0311000D03*
X0281000Y0321000D03*
X0281000Y0331000D03*
X0281000Y0341000D03*
X0281000Y0351000D03*
X0281000Y0361000D03*
X0281000Y0371000D03*
X0281000Y0381000D03*
X0271000Y0381000D03*
X0271000Y0371000D03*
X0271000Y0361000D03*
X0271000Y0351000D03*
X0271000Y0341000D03*
X0271000Y0331000D03*
X0271000Y0321000D03*
X0271000Y0311000D03*
X0271000Y0301000D03*
X0271000Y0291000D03*
X0271000Y0281000D03*
X0271000Y0271000D03*
X0271000Y0261000D03*
X0271000Y0251000D03*
X0271000Y0241000D03*
X0271000Y0231000D03*
X0271000Y0221000D03*
X0271000Y0211000D03*
X0271000Y0201000D03*
X0271000Y0191000D03*
X0271000Y0181000D03*
X0271000Y0171000D03*
X0271000Y0161000D03*
X0271000Y0151000D03*
X0271000Y0141000D03*
X0271000Y0131000D03*
X0271000Y0121000D03*
X0271000Y0111000D03*
X0271000Y0101000D03*
X0271000Y0091000D03*
X0271000Y0081000D03*
X0271000Y0071000D03*
X0261000Y0071000D03*
X0261000Y0081000D03*
X0261000Y0091000D03*
X0261000Y0101000D03*
X0261000Y0111000D03*
X0261000Y0121000D03*
X0261000Y0131000D03*
X0261000Y0141000D03*
X0261000Y0151000D03*
X0261000Y0161000D03*
X0261000Y0171000D03*
X0261000Y0181000D03*
X0261000Y0191000D03*
X0261000Y0201000D03*
X0261000Y0211000D03*
X0261000Y0221000D03*
X0261000Y0231000D03*
X0261000Y0241000D03*
X0261000Y0251000D03*
X0261000Y0261000D03*
X0261000Y0271000D03*
X0261000Y0281000D03*
X0261000Y0291000D03*
X0261000Y0301000D03*
X0261000Y0311000D03*
X0261000Y0321000D03*
X0261000Y0331000D03*
X0261000Y0341000D03*
X0261000Y0351000D03*
X0261000Y0361000D03*
X0261000Y0371000D03*
X0261000Y0381000D03*
X0041000Y0381000D03*
X0041000Y0371000D03*
X0041000Y0361000D03*
X0041000Y0351000D03*
X0041000Y0341000D03*
X0041000Y0331000D03*
X0041000Y0321000D03*
X0041000Y0311000D03*
X0041000Y0301000D03*
X0041000Y0291000D03*
X0041000Y0281000D03*
X0041000Y0271000D03*
X0041000Y0261000D03*
X0041000Y0251000D03*
X0041000Y0241000D03*
X0041000Y0231000D03*
X0041000Y0221000D03*
X0041000Y0211000D03*
X0041000Y0201000D03*
X0041000Y0191000D03*
X0041000Y0181000D03*
X0041000Y0171000D03*
X0041000Y0161000D03*
X0041000Y0151000D03*
X0041000Y0141000D03*
X0041000Y0131000D03*
X0041000Y0121000D03*
X0041000Y0111000D03*
X0041000Y0101000D03*
X0041000Y0091000D03*
X0041000Y0081000D03*
X0041000Y0071000D03*
X0031000Y0071000D03*
X0031000Y0081000D03*
X0031000Y0091000D03*
X0031000Y0101000D03*
X0031000Y0111000D03*
X0031000Y0121000D03*
X0031000Y0131000D03*
X0031000Y0141000D03*
X0031000Y0151000D03*
X0031000Y0161000D03*
X0031000Y0171000D03*
X0031000Y0181000D03*
X0031000Y0191000D03*
X0031000Y0201000D03*
X0031000Y0211000D03*
X0031000Y0221000D03*
X0031000Y0231000D03*
X0031000Y0241000D03*
X0031000Y0251000D03*
X0031000Y0261000D03*
X0031000Y0271000D03*
X0031000Y0281000D03*
X0031000Y0291000D03*
X0031000Y0301000D03*
X0031000Y0311000D03*
X0031000Y0321000D03*
X0031000Y0331000D03*
X0031000Y0341000D03*
X0031000Y0351000D03*
X0031000Y0361000D03*
X0031000Y0371000D03*
X0031000Y0381000D03*
X0021000Y0381000D03*
X0021000Y0371000D03*
X0021000Y0361000D03*
X0021000Y0351000D03*
X0021000Y0341000D03*
X0021000Y0331000D03*
X0021000Y0321000D03*
X0021000Y0311000D03*
X0021000Y0301000D03*
X0021000Y0291000D03*
X0021000Y0281000D03*
X0021000Y0271000D03*
X0021000Y0261000D03*
X0021000Y0251000D03*
X0021000Y0241000D03*
X0021000Y0231000D03*
X0021000Y0221000D03*
X0021000Y0211000D03*
X0021000Y0201000D03*
X0021000Y0191000D03*
X0021000Y0181000D03*
X0021000Y0171000D03*
X0021000Y0161000D03*
X0021000Y0151000D03*
X0021000Y0141000D03*
X0021000Y0131000D03*
X0021000Y0121000D03*
X0021000Y0111000D03*
X0021000Y0101000D03*
X0021000Y0091000D03*
X0021000Y0081000D03*
X0021000Y0071000D03*
D12*
X0146000Y0049000D02*
X0146000Y0043000D01*
X0156000Y0043000D02*
X0156000Y0049000D01*
D13*
X0281000Y0071000D02*
X0287250Y0077250D01*
X0287250Y0374750D01*
X0281000Y0381000D01*
X0021000Y0371000D02*
X0007250Y0357250D01*
X0007250Y0094750D01*
X0021000Y0081000D01*
D14*
X0031000Y0091000D02*
X0037250Y0084750D01*
X0284750Y0084750D01*
X0284750Y0313500D01*
X0281000Y0317250D01*
X0264750Y0317250D01*
X0264750Y0327250D01*
X0261000Y0331000D01*
X0267250Y0324750D02*
X0271000Y0321000D01*
X0267250Y0324750D02*
X0267250Y0356000D01*
X0217250Y0356000D01*
X0104750Y0243500D01*
X0102250Y0242250D02*
X0193500Y0151000D01*
X0197250Y0147250D02*
X0237250Y0187250D01*
X0237250Y0231000D01*
X0239750Y0229750D02*
X0238500Y0228500D01*
X0238500Y0153500D01*
X0261000Y0131000D01*
X0264750Y0127250D02*
X0264750Y0137250D01*
X0261000Y0141000D01*
X0271000Y0151000D02*
X0267250Y0154750D01*
X0267250Y0164750D01*
X0273500Y0164750D01*
X0277250Y0161000D01*
X0277250Y0094750D01*
X0041000Y0094750D01*
X0037250Y0098500D01*
X0037250Y0104750D01*
X0027250Y0104750D01*
X0021000Y0111000D01*
X0027250Y0114750D02*
X0021000Y0121000D01*
X0027250Y0114750D02*
X0037250Y0114750D01*
X0037250Y0108500D01*
X0041000Y0104750D01*
X0228500Y0104750D01*
X0237250Y0096000D01*
X0276000Y0096000D01*
X0276000Y0156000D01*
X0271000Y0161000D01*
X0271000Y0171000D02*
X0274750Y0174750D01*
X0274750Y0314750D01*
X0261000Y0314750D01*
X0236000Y0339750D01*
X0242250Y0339750D02*
X0261000Y0321000D01*
X0271000Y0301000D02*
X0271000Y0297250D01*
X0261000Y0297250D01*
X0244750Y0281000D01*
X0244750Y0224750D01*
X0241000Y0221000D01*
X0241000Y0217250D02*
X0241000Y0178500D01*
X0248500Y0171000D01*
X0261000Y0171000D01*
X0252250Y0178500D02*
X0261000Y0187250D01*
X0267250Y0187250D01*
X0267250Y0193500D01*
X0271000Y0197250D01*
X0271000Y0201000D01*
X0267250Y0197250D02*
X0264750Y0199750D01*
X0264750Y0217250D01*
X0261000Y0221000D01*
X0258500Y0224750D02*
X0267250Y0224750D01*
X0267250Y0214750D01*
X0271000Y0211000D01*
X0257250Y0202250D02*
X0257250Y0223500D01*
X0258500Y0224750D01*
X0256000Y0223500D02*
X0256000Y0232250D01*
X0261000Y0237250D01*
X0271000Y0237250D01*
X0271000Y0241000D01*
X0261000Y0251000D02*
X0257250Y0254750D01*
X0257250Y0259750D01*
X0249750Y0267250D01*
X0247250Y0276000D02*
X0252250Y0281000D01*
X0261000Y0281000D01*
X0249750Y0282250D02*
X0246000Y0278500D01*
X0246000Y0222250D01*
X0241000Y0217250D01*
X0246000Y0218500D02*
X0247250Y0219750D01*
X0247250Y0276000D01*
X0237250Y0297250D02*
X0167250Y0227250D01*
X0136000Y0201000D02*
X0099750Y0237250D01*
X0099750Y0242250D01*
X0054750Y0287250D01*
X0054750Y0329750D01*
X0044750Y0339750D01*
X0044750Y0344750D01*
X0037250Y0344750D01*
X0031000Y0351000D01*
X0031000Y0347250D02*
X0027250Y0347250D01*
X0027250Y0353500D01*
X0031000Y0357250D01*
X0271000Y0357250D01*
X0271000Y0351000D01*
X0271000Y0361000D02*
X0271000Y0367250D01*
X0021000Y0367250D01*
X0016000Y0362250D01*
X0016000Y0266000D01*
X0021000Y0261000D01*
X0021000Y0264750D02*
X0024750Y0264750D01*
X0024750Y0208500D01*
X0021000Y0204750D01*
X0017250Y0204750D01*
X0017250Y0188500D01*
X0021000Y0184750D01*
X0024750Y0184750D01*
X0024750Y0148500D01*
X0021000Y0144750D01*
X0017250Y0144750D01*
X0017250Y0138500D01*
X0018500Y0137250D01*
X0198500Y0137250D01*
X0238500Y0097250D01*
X0274750Y0097250D01*
X0274750Y0113500D01*
X0271000Y0117250D01*
X0261000Y0117250D01*
X0261000Y0121000D01*
X0264750Y0127250D02*
X0213500Y0127250D01*
X0101000Y0239750D01*
X0101000Y0257250D01*
X0057250Y0301000D01*
X0057250Y0306000D02*
X0102250Y0261000D01*
X0102250Y0242250D01*
X0078500Y0241000D02*
X0078500Y0251000D01*
X0074750Y0251000D02*
X0074750Y0247250D01*
X0041000Y0247250D01*
X0037250Y0243500D01*
X0037250Y0234750D01*
X0041000Y0231000D01*
X0036000Y0236000D02*
X0036000Y0252250D01*
X0031000Y0254750D02*
X0027250Y0254750D01*
X0027250Y0208500D01*
X0031000Y0204750D01*
X0126000Y0204750D01*
X0126000Y0203500D01*
X0166000Y0163500D01*
X0177250Y0159750D02*
X0198500Y0138500D01*
X0199750Y0138500D01*
X0233500Y0104750D01*
X0271000Y0104750D01*
X0271000Y0101000D01*
X0243500Y0188500D02*
X0257250Y0202250D01*
X0248500Y0216000D02*
X0256000Y0223500D01*
X0239750Y0229750D02*
X0239750Y0332250D01*
X0218500Y0353500D01*
X0234750Y0233500D02*
X0234750Y0208500D01*
X0187250Y0161000D01*
X0152250Y0181000D02*
X0044750Y0288500D01*
X0044750Y0324750D01*
X0037250Y0324750D01*
X0031000Y0331000D01*
X0027250Y0333500D02*
X0031000Y0337250D01*
X0034750Y0337250D01*
X0034750Y0343500D01*
X0031000Y0347250D01*
X0026000Y0338500D02*
X0026000Y0316000D01*
X0021000Y0311000D01*
X0014750Y0318500D02*
X0013500Y0319750D01*
X0014750Y0318500D02*
X0014750Y0217250D01*
X0021000Y0211000D01*
X0013500Y0204750D02*
X0013500Y0188500D01*
X0021000Y0181000D01*
X0021000Y0191000D02*
X0026000Y0196000D01*
X0026000Y0268500D01*
X0021000Y0264750D02*
X0017250Y0268500D01*
X0017250Y0287250D01*
X0021000Y0291000D01*
X0027250Y0287250D02*
X0021000Y0281000D01*
X0027250Y0287250D02*
X0027250Y0333500D01*
X0041000Y0331000D02*
X0049750Y0322250D01*
X0049750Y0291000D01*
X0052250Y0296000D02*
X0052250Y0329750D01*
X0041000Y0341000D01*
X0041000Y0351000D02*
X0081000Y0311000D01*
X0049750Y0269750D02*
X0041000Y0261000D01*
X0034750Y0258500D02*
X0031000Y0254750D01*
X0034750Y0258500D02*
X0034750Y0307250D01*
X0031000Y0311000D01*
X0047250Y0277250D02*
X0041000Y0271000D01*
X0041000Y0251000D02*
X0058500Y0251000D01*
X0058500Y0257250D01*
X0064750Y0263500D01*
X0078500Y0241000D02*
X0041000Y0241000D01*
X0036000Y0236000D02*
X0031000Y0231000D01*
X0031000Y0201000D02*
X0037250Y0194750D01*
X0079750Y0194750D01*
X0079750Y0183500D01*
X0098500Y0198500D02*
X0061000Y0161000D01*
X0061000Y0147250D01*
X0027250Y0147250D01*
X0021000Y0141000D01*
X0021000Y0171000D02*
X0011000Y0181000D01*
X0011000Y0257250D01*
X0041000Y0161000D02*
X0047250Y0154750D01*
X0054750Y0134750D02*
X0041000Y0121000D01*
X0041000Y0111000D02*
X0056000Y0126000D01*
D15*
X0056000Y0126000D03*
X0054750Y0134750D03*
X0047250Y0154750D03*
X0079750Y0183500D03*
X0098500Y0198500D03*
X0104750Y0243500D03*
X0078500Y0251000D03*
X0074750Y0251000D03*
X0064750Y0263500D03*
X0049750Y0269750D03*
X0047250Y0277250D03*
X0049750Y0291000D03*
X0052250Y0296000D03*
X0057250Y0301000D03*
X0057250Y0306000D03*
X0081000Y0311000D03*
X0036000Y0252250D03*
X0026000Y0268500D03*
X0011000Y0257250D03*
X0013500Y0204750D03*
X0013500Y0319750D03*
X0026000Y0338500D03*
X0136000Y0201000D03*
X0152250Y0181000D03*
X0166000Y0163500D03*
X0177250Y0159750D03*
X0187250Y0161000D03*
X0193500Y0151000D03*
X0197250Y0147250D03*
X0243500Y0188500D03*
X0252250Y0178500D03*
X0267250Y0197250D03*
X0248500Y0216000D03*
X0246000Y0218500D03*
X0241000Y0221000D03*
X0237250Y0231000D03*
X0234750Y0233500D03*
X0249750Y0267250D03*
X0249750Y0282250D03*
X0237250Y0297250D03*
X0236000Y0339750D03*
X0242250Y0339750D03*
X0218500Y0353500D03*
X0167250Y0227250D03*
M02*
