%
M48
M72
T01C0.01300
T02C0.03200
T03C0.03600
T04C0.04000
T05C0.11000
%
T01
X242250Y339750
X236000Y339750
X218500Y353500
X237250Y297250
X249750Y282250
X267250Y197250
X252250Y178500
X243500Y188500
X249750Y267250
X237250Y231000
X234750Y233500
X241000Y221000
X246000Y218500
X248500Y216000
X167250Y227250
X136000Y201000
X152250Y181000
X177250Y159750
X187250Y161000
X193500Y151000
X197250Y147250
X166000Y163500
X104750Y243500
X78500Y251000
X74750Y251000
X64750Y263500
X49750Y269750
X47250Y277250
X49750Y291000
X52250Y296000
X81000Y311000
X57250Y306000
X57250Y301000
X36000Y252250
X98500Y198500
X79750Y183500
X47250Y154750
X56000Y126000
X54750Y134750
X26000Y268500
X13500Y319750
X26000Y338500
X11000Y257250
X13500Y204750
T02
X11000Y26000
X221000Y36000
X231000Y36000
X251000Y26000
X291000Y26000
X76000Y36000
X66000Y36000
X51000Y26000
T03
X281000Y361000
X281000Y81000
X281000Y91000
X281000Y101000
X271000Y101000
X281000Y111000
X271000Y111000
X271000Y121000
X281000Y121000
X281000Y131000
X281000Y141000
X271000Y141000
X281000Y151000
X281000Y161000
X281000Y171000
X281000Y181000
X281000Y191000
X261000Y211000
X281000Y221000
X281000Y231000
X281000Y351000
X271000Y341000
X281000Y341000
X281000Y331000
X271000Y331000
X271000Y321000
X281000Y321000
X281000Y311000
X271000Y311000
X261000Y311000
X261000Y321000
X261000Y331000
X261000Y341000
X261000Y351000
X271000Y351000
X271000Y361000
X261000Y371000
X271000Y371000
X271000Y381000
X261000Y381000
X261000Y361000
X31000Y361000
X41000Y361000
X271000Y291000
X281000Y301000
X281000Y291000
X271000Y281000
X281000Y281000
X281000Y271000
X281000Y261000
X281000Y241000
X271000Y231000
X271000Y221000
X271000Y211000
X281000Y211000
X281000Y201000
X271000Y201000
X271000Y191000
X271000Y181000
X271000Y171000
X271000Y161000
X271000Y151000
X271000Y131000
X261000Y131000
X261000Y121000
X261000Y111000
X261000Y101000
X261000Y91000
X271000Y91000
X271000Y81000
X261000Y81000
X261000Y71000
X271000Y71000
X281000Y71000
X41000Y81000
X31000Y81000
X21000Y81000
X21000Y91000
X21000Y361000
X31000Y351000
X41000Y351000
X41000Y371000
X31000Y371000
X31000Y381000
X41000Y381000
X21000Y381000
X21000Y371000
X21000Y351000
X261000Y191000
X261000Y201000
X261000Y181000
X261000Y171000
X261000Y161000
X261000Y151000
X261000Y141000
X261000Y221000
X261000Y231000
X261000Y241000
X271000Y241000
X271000Y251000
X281000Y251000
X271000Y261000
X271000Y271000
X261000Y271000
X261000Y261000
X261000Y281000
X261000Y291000
X261000Y301000
X271000Y301000
X281000Y371000
X281000Y381000
X261000Y251000
X41000Y291000
X41000Y301000
X31000Y291000
X31000Y281000
X21000Y291000
X21000Y301000
X21000Y311000
X41000Y281000
X31000Y271000
X31000Y261000
X31000Y251000
X41000Y261000
X41000Y271000
X41000Y251000
X41000Y241000
X41000Y231000
X41000Y221000
X41000Y211000
X41000Y151000
X41000Y141000
X41000Y131000
X41000Y121000
X41000Y111000
X41000Y101000
X41000Y91000
X31000Y91000
X31000Y101000
X31000Y111000
X21000Y191000
X21000Y181000
X21000Y171000
X21000Y161000
X31000Y151000
X21000Y131000
X21000Y141000
X31000Y131000
X31000Y121000
X21000Y121000
X21000Y111000
X21000Y101000
X21000Y71000
X31000Y71000
X41000Y71000
X31000Y141000
X21000Y151000
X31000Y161000
X31000Y171000
X41000Y171000
X41000Y181000
X31000Y191000
X41000Y191000
X41000Y201000
X31000Y201000
X31000Y211000
X31000Y221000
X31000Y231000
X31000Y241000
X21000Y241000
X21000Y231000
X21000Y221000
X21000Y251000
X21000Y261000
X21000Y271000
X21000Y331000
X21000Y341000
X31000Y341000
X41000Y341000
X41000Y331000
X41000Y321000
X41000Y311000
X31000Y311000
X31000Y301000
X21000Y281000
X21000Y211000
X21000Y201000
X31000Y181000
X41000Y161000
X21000Y321000
X31000Y321000
X31000Y331000
T04
X156000Y46000
X146000Y46000
T05
X272200Y48835
X32200Y403165
X272200Y403165
X32200Y48835
M30
