G75*
%MOIN*%
%OFA0B0*%
%FSLAX25Y25*%
%IPPOS*%
%LPD*%
%AMOC8*
5,1,8,0,0,1.08239X$1,22.5*
%
%ADD10C,0.00000*%
%ADD11C,0.00800*%
%ADD12C,0.01000*%
%ADD13C,0.00600*%
%ADD14C,0.00500*%
%ADD15R,0.03400X0.02400*%
D10*
X0001000Y0001000D02*
X0001000Y0449701D01*
X0300921Y0449701D01*
X0300921Y0001000D01*
X0001000Y0001000D01*
X0026700Y0048835D02*
X0026702Y0048983D01*
X0026708Y0049131D01*
X0026718Y0049279D01*
X0026732Y0049427D01*
X0026750Y0049574D01*
X0026772Y0049721D01*
X0026798Y0049867D01*
X0026827Y0050012D01*
X0026861Y0050157D01*
X0026899Y0050300D01*
X0026940Y0050443D01*
X0026985Y0050584D01*
X0027035Y0050724D01*
X0027087Y0050862D01*
X0027144Y0051000D01*
X0027204Y0051135D01*
X0027268Y0051269D01*
X0027335Y0051401D01*
X0027406Y0051531D01*
X0027481Y0051660D01*
X0027559Y0051786D01*
X0027640Y0051910D01*
X0027724Y0052032D01*
X0027812Y0052151D01*
X0027903Y0052268D01*
X0027997Y0052383D01*
X0028095Y0052495D01*
X0028195Y0052604D01*
X0028298Y0052711D01*
X0028404Y0052815D01*
X0028512Y0052916D01*
X0028624Y0053014D01*
X0028738Y0053109D01*
X0028854Y0053200D01*
X0028973Y0053289D01*
X0029094Y0053374D01*
X0029218Y0053456D01*
X0029344Y0053535D01*
X0029471Y0053610D01*
X0029601Y0053682D01*
X0029733Y0053751D01*
X0029866Y0053815D01*
X0030001Y0053876D01*
X0030138Y0053934D01*
X0030276Y0053988D01*
X0030416Y0054038D01*
X0030557Y0054084D01*
X0030699Y0054126D01*
X0030842Y0054165D01*
X0030986Y0054199D01*
X0031132Y0054230D01*
X0031277Y0054257D01*
X0031424Y0054280D01*
X0031571Y0054299D01*
X0031719Y0054314D01*
X0031866Y0054325D01*
X0032015Y0054332D01*
X0032163Y0054335D01*
X0032311Y0054334D01*
X0032459Y0054329D01*
X0032607Y0054320D01*
X0032755Y0054307D01*
X0032903Y0054290D01*
X0033049Y0054269D01*
X0033196Y0054244D01*
X0033341Y0054215D01*
X0033486Y0054183D01*
X0033629Y0054146D01*
X0033772Y0054106D01*
X0033914Y0054061D01*
X0034054Y0054013D01*
X0034193Y0053961D01*
X0034330Y0053906D01*
X0034466Y0053846D01*
X0034601Y0053783D01*
X0034733Y0053717D01*
X0034864Y0053647D01*
X0034993Y0053573D01*
X0035119Y0053496D01*
X0035244Y0053416D01*
X0035366Y0053332D01*
X0035487Y0053245D01*
X0035604Y0053155D01*
X0035720Y0053061D01*
X0035832Y0052965D01*
X0035942Y0052866D01*
X0036050Y0052763D01*
X0036154Y0052658D01*
X0036256Y0052550D01*
X0036354Y0052439D01*
X0036450Y0052326D01*
X0036543Y0052210D01*
X0036632Y0052092D01*
X0036718Y0051971D01*
X0036801Y0051848D01*
X0036881Y0051723D01*
X0036957Y0051596D01*
X0037030Y0051466D01*
X0037099Y0051335D01*
X0037164Y0051202D01*
X0037227Y0051068D01*
X0037285Y0050931D01*
X0037340Y0050793D01*
X0037390Y0050654D01*
X0037438Y0050513D01*
X0037481Y0050372D01*
X0037521Y0050229D01*
X0037556Y0050085D01*
X0037588Y0049940D01*
X0037616Y0049794D01*
X0037640Y0049648D01*
X0037660Y0049501D01*
X0037676Y0049353D01*
X0037688Y0049206D01*
X0037696Y0049057D01*
X0037700Y0048909D01*
X0037700Y0048761D01*
X0037696Y0048613D01*
X0037688Y0048464D01*
X0037676Y0048317D01*
X0037660Y0048169D01*
X0037640Y0048022D01*
X0037616Y0047876D01*
X0037588Y0047730D01*
X0037556Y0047585D01*
X0037521Y0047441D01*
X0037481Y0047298D01*
X0037438Y0047157D01*
X0037390Y0047016D01*
X0037340Y0046877D01*
X0037285Y0046739D01*
X0037227Y0046602D01*
X0037164Y0046468D01*
X0037099Y0046335D01*
X0037030Y0046204D01*
X0036957Y0046074D01*
X0036881Y0045947D01*
X0036801Y0045822D01*
X0036718Y0045699D01*
X0036632Y0045578D01*
X0036543Y0045460D01*
X0036450Y0045344D01*
X0036354Y0045231D01*
X0036256Y0045120D01*
X0036154Y0045012D01*
X0036050Y0044907D01*
X0035942Y0044804D01*
X0035832Y0044705D01*
X0035720Y0044609D01*
X0035604Y0044515D01*
X0035487Y0044425D01*
X0035366Y0044338D01*
X0035244Y0044254D01*
X0035119Y0044174D01*
X0034993Y0044097D01*
X0034864Y0044023D01*
X0034733Y0043953D01*
X0034601Y0043887D01*
X0034466Y0043824D01*
X0034330Y0043764D01*
X0034193Y0043709D01*
X0034054Y0043657D01*
X0033914Y0043609D01*
X0033772Y0043564D01*
X0033629Y0043524D01*
X0033486Y0043487D01*
X0033341Y0043455D01*
X0033196Y0043426D01*
X0033049Y0043401D01*
X0032903Y0043380D01*
X0032755Y0043363D01*
X0032607Y0043350D01*
X0032459Y0043341D01*
X0032311Y0043336D01*
X0032163Y0043335D01*
X0032015Y0043338D01*
X0031866Y0043345D01*
X0031719Y0043356D01*
X0031571Y0043371D01*
X0031424Y0043390D01*
X0031277Y0043413D01*
X0031132Y0043440D01*
X0030986Y0043471D01*
X0030842Y0043505D01*
X0030699Y0043544D01*
X0030557Y0043586D01*
X0030416Y0043632D01*
X0030276Y0043682D01*
X0030138Y0043736D01*
X0030001Y0043794D01*
X0029866Y0043855D01*
X0029733Y0043919D01*
X0029601Y0043988D01*
X0029471Y0044060D01*
X0029344Y0044135D01*
X0029218Y0044214D01*
X0029094Y0044296D01*
X0028973Y0044381D01*
X0028854Y0044470D01*
X0028738Y0044561D01*
X0028624Y0044656D01*
X0028512Y0044754D01*
X0028404Y0044855D01*
X0028298Y0044959D01*
X0028195Y0045066D01*
X0028095Y0045175D01*
X0027997Y0045287D01*
X0027903Y0045402D01*
X0027812Y0045519D01*
X0027724Y0045638D01*
X0027640Y0045760D01*
X0027559Y0045884D01*
X0027481Y0046010D01*
X0027406Y0046139D01*
X0027335Y0046269D01*
X0027268Y0046401D01*
X0027204Y0046535D01*
X0027144Y0046670D01*
X0027087Y0046808D01*
X0027035Y0046946D01*
X0026985Y0047086D01*
X0026940Y0047227D01*
X0026899Y0047370D01*
X0026861Y0047513D01*
X0026827Y0047658D01*
X0026798Y0047803D01*
X0026772Y0047949D01*
X0026750Y0048096D01*
X0026732Y0048243D01*
X0026718Y0048391D01*
X0026708Y0048539D01*
X0026702Y0048687D01*
X0026700Y0048835D01*
X0026700Y0403165D02*
X0026702Y0403313D01*
X0026708Y0403461D01*
X0026718Y0403609D01*
X0026732Y0403757D01*
X0026750Y0403904D01*
X0026772Y0404051D01*
X0026798Y0404197D01*
X0026827Y0404342D01*
X0026861Y0404487D01*
X0026899Y0404630D01*
X0026940Y0404773D01*
X0026985Y0404914D01*
X0027035Y0405054D01*
X0027087Y0405192D01*
X0027144Y0405330D01*
X0027204Y0405465D01*
X0027268Y0405599D01*
X0027335Y0405731D01*
X0027406Y0405861D01*
X0027481Y0405990D01*
X0027559Y0406116D01*
X0027640Y0406240D01*
X0027724Y0406362D01*
X0027812Y0406481D01*
X0027903Y0406598D01*
X0027997Y0406713D01*
X0028095Y0406825D01*
X0028195Y0406934D01*
X0028298Y0407041D01*
X0028404Y0407145D01*
X0028512Y0407246D01*
X0028624Y0407344D01*
X0028738Y0407439D01*
X0028854Y0407530D01*
X0028973Y0407619D01*
X0029094Y0407704D01*
X0029218Y0407786D01*
X0029344Y0407865D01*
X0029471Y0407940D01*
X0029601Y0408012D01*
X0029733Y0408081D01*
X0029866Y0408145D01*
X0030001Y0408206D01*
X0030138Y0408264D01*
X0030276Y0408318D01*
X0030416Y0408368D01*
X0030557Y0408414D01*
X0030699Y0408456D01*
X0030842Y0408495D01*
X0030986Y0408529D01*
X0031132Y0408560D01*
X0031277Y0408587D01*
X0031424Y0408610D01*
X0031571Y0408629D01*
X0031719Y0408644D01*
X0031866Y0408655D01*
X0032015Y0408662D01*
X0032163Y0408665D01*
X0032311Y0408664D01*
X0032459Y0408659D01*
X0032607Y0408650D01*
X0032755Y0408637D01*
X0032903Y0408620D01*
X0033049Y0408599D01*
X0033196Y0408574D01*
X0033341Y0408545D01*
X0033486Y0408513D01*
X0033629Y0408476D01*
X0033772Y0408436D01*
X0033914Y0408391D01*
X0034054Y0408343D01*
X0034193Y0408291D01*
X0034330Y0408236D01*
X0034466Y0408176D01*
X0034601Y0408113D01*
X0034733Y0408047D01*
X0034864Y0407977D01*
X0034993Y0407903D01*
X0035119Y0407826D01*
X0035244Y0407746D01*
X0035366Y0407662D01*
X0035487Y0407575D01*
X0035604Y0407485D01*
X0035720Y0407391D01*
X0035832Y0407295D01*
X0035942Y0407196D01*
X0036050Y0407093D01*
X0036154Y0406988D01*
X0036256Y0406880D01*
X0036354Y0406769D01*
X0036450Y0406656D01*
X0036543Y0406540D01*
X0036632Y0406422D01*
X0036718Y0406301D01*
X0036801Y0406178D01*
X0036881Y0406053D01*
X0036957Y0405926D01*
X0037030Y0405796D01*
X0037099Y0405665D01*
X0037164Y0405532D01*
X0037227Y0405398D01*
X0037285Y0405261D01*
X0037340Y0405123D01*
X0037390Y0404984D01*
X0037438Y0404843D01*
X0037481Y0404702D01*
X0037521Y0404559D01*
X0037556Y0404415D01*
X0037588Y0404270D01*
X0037616Y0404124D01*
X0037640Y0403978D01*
X0037660Y0403831D01*
X0037676Y0403683D01*
X0037688Y0403536D01*
X0037696Y0403387D01*
X0037700Y0403239D01*
X0037700Y0403091D01*
X0037696Y0402943D01*
X0037688Y0402794D01*
X0037676Y0402647D01*
X0037660Y0402499D01*
X0037640Y0402352D01*
X0037616Y0402206D01*
X0037588Y0402060D01*
X0037556Y0401915D01*
X0037521Y0401771D01*
X0037481Y0401628D01*
X0037438Y0401487D01*
X0037390Y0401346D01*
X0037340Y0401207D01*
X0037285Y0401069D01*
X0037227Y0400932D01*
X0037164Y0400798D01*
X0037099Y0400665D01*
X0037030Y0400534D01*
X0036957Y0400404D01*
X0036881Y0400277D01*
X0036801Y0400152D01*
X0036718Y0400029D01*
X0036632Y0399908D01*
X0036543Y0399790D01*
X0036450Y0399674D01*
X0036354Y0399561D01*
X0036256Y0399450D01*
X0036154Y0399342D01*
X0036050Y0399237D01*
X0035942Y0399134D01*
X0035832Y0399035D01*
X0035720Y0398939D01*
X0035604Y0398845D01*
X0035487Y0398755D01*
X0035366Y0398668D01*
X0035244Y0398584D01*
X0035119Y0398504D01*
X0034993Y0398427D01*
X0034864Y0398353D01*
X0034733Y0398283D01*
X0034601Y0398217D01*
X0034466Y0398154D01*
X0034330Y0398094D01*
X0034193Y0398039D01*
X0034054Y0397987D01*
X0033914Y0397939D01*
X0033772Y0397894D01*
X0033629Y0397854D01*
X0033486Y0397817D01*
X0033341Y0397785D01*
X0033196Y0397756D01*
X0033049Y0397731D01*
X0032903Y0397710D01*
X0032755Y0397693D01*
X0032607Y0397680D01*
X0032459Y0397671D01*
X0032311Y0397666D01*
X0032163Y0397665D01*
X0032015Y0397668D01*
X0031866Y0397675D01*
X0031719Y0397686D01*
X0031571Y0397701D01*
X0031424Y0397720D01*
X0031277Y0397743D01*
X0031132Y0397770D01*
X0030986Y0397801D01*
X0030842Y0397835D01*
X0030699Y0397874D01*
X0030557Y0397916D01*
X0030416Y0397962D01*
X0030276Y0398012D01*
X0030138Y0398066D01*
X0030001Y0398124D01*
X0029866Y0398185D01*
X0029733Y0398249D01*
X0029601Y0398318D01*
X0029471Y0398390D01*
X0029344Y0398465D01*
X0029218Y0398544D01*
X0029094Y0398626D01*
X0028973Y0398711D01*
X0028854Y0398800D01*
X0028738Y0398891D01*
X0028624Y0398986D01*
X0028512Y0399084D01*
X0028404Y0399185D01*
X0028298Y0399289D01*
X0028195Y0399396D01*
X0028095Y0399505D01*
X0027997Y0399617D01*
X0027903Y0399732D01*
X0027812Y0399849D01*
X0027724Y0399968D01*
X0027640Y0400090D01*
X0027559Y0400214D01*
X0027481Y0400340D01*
X0027406Y0400469D01*
X0027335Y0400599D01*
X0027268Y0400731D01*
X0027204Y0400865D01*
X0027144Y0401000D01*
X0027087Y0401138D01*
X0027035Y0401276D01*
X0026985Y0401416D01*
X0026940Y0401557D01*
X0026899Y0401700D01*
X0026861Y0401843D01*
X0026827Y0401988D01*
X0026798Y0402133D01*
X0026772Y0402279D01*
X0026750Y0402426D01*
X0026732Y0402573D01*
X0026718Y0402721D01*
X0026708Y0402869D01*
X0026702Y0403017D01*
X0026700Y0403165D01*
X0266700Y0403165D02*
X0266702Y0403313D01*
X0266708Y0403461D01*
X0266718Y0403609D01*
X0266732Y0403757D01*
X0266750Y0403904D01*
X0266772Y0404051D01*
X0266798Y0404197D01*
X0266827Y0404342D01*
X0266861Y0404487D01*
X0266899Y0404630D01*
X0266940Y0404773D01*
X0266985Y0404914D01*
X0267035Y0405054D01*
X0267087Y0405192D01*
X0267144Y0405330D01*
X0267204Y0405465D01*
X0267268Y0405599D01*
X0267335Y0405731D01*
X0267406Y0405861D01*
X0267481Y0405990D01*
X0267559Y0406116D01*
X0267640Y0406240D01*
X0267724Y0406362D01*
X0267812Y0406481D01*
X0267903Y0406598D01*
X0267997Y0406713D01*
X0268095Y0406825D01*
X0268195Y0406934D01*
X0268298Y0407041D01*
X0268404Y0407145D01*
X0268512Y0407246D01*
X0268624Y0407344D01*
X0268738Y0407439D01*
X0268854Y0407530D01*
X0268973Y0407619D01*
X0269094Y0407704D01*
X0269218Y0407786D01*
X0269344Y0407865D01*
X0269471Y0407940D01*
X0269601Y0408012D01*
X0269733Y0408081D01*
X0269866Y0408145D01*
X0270001Y0408206D01*
X0270138Y0408264D01*
X0270276Y0408318D01*
X0270416Y0408368D01*
X0270557Y0408414D01*
X0270699Y0408456D01*
X0270842Y0408495D01*
X0270986Y0408529D01*
X0271132Y0408560D01*
X0271277Y0408587D01*
X0271424Y0408610D01*
X0271571Y0408629D01*
X0271719Y0408644D01*
X0271866Y0408655D01*
X0272015Y0408662D01*
X0272163Y0408665D01*
X0272311Y0408664D01*
X0272459Y0408659D01*
X0272607Y0408650D01*
X0272755Y0408637D01*
X0272903Y0408620D01*
X0273049Y0408599D01*
X0273196Y0408574D01*
X0273341Y0408545D01*
X0273486Y0408513D01*
X0273629Y0408476D01*
X0273772Y0408436D01*
X0273914Y0408391D01*
X0274054Y0408343D01*
X0274193Y0408291D01*
X0274330Y0408236D01*
X0274466Y0408176D01*
X0274601Y0408113D01*
X0274733Y0408047D01*
X0274864Y0407977D01*
X0274993Y0407903D01*
X0275119Y0407826D01*
X0275244Y0407746D01*
X0275366Y0407662D01*
X0275487Y0407575D01*
X0275604Y0407485D01*
X0275720Y0407391D01*
X0275832Y0407295D01*
X0275942Y0407196D01*
X0276050Y0407093D01*
X0276154Y0406988D01*
X0276256Y0406880D01*
X0276354Y0406769D01*
X0276450Y0406656D01*
X0276543Y0406540D01*
X0276632Y0406422D01*
X0276718Y0406301D01*
X0276801Y0406178D01*
X0276881Y0406053D01*
X0276957Y0405926D01*
X0277030Y0405796D01*
X0277099Y0405665D01*
X0277164Y0405532D01*
X0277227Y0405398D01*
X0277285Y0405261D01*
X0277340Y0405123D01*
X0277390Y0404984D01*
X0277438Y0404843D01*
X0277481Y0404702D01*
X0277521Y0404559D01*
X0277556Y0404415D01*
X0277588Y0404270D01*
X0277616Y0404124D01*
X0277640Y0403978D01*
X0277660Y0403831D01*
X0277676Y0403683D01*
X0277688Y0403536D01*
X0277696Y0403387D01*
X0277700Y0403239D01*
X0277700Y0403091D01*
X0277696Y0402943D01*
X0277688Y0402794D01*
X0277676Y0402647D01*
X0277660Y0402499D01*
X0277640Y0402352D01*
X0277616Y0402206D01*
X0277588Y0402060D01*
X0277556Y0401915D01*
X0277521Y0401771D01*
X0277481Y0401628D01*
X0277438Y0401487D01*
X0277390Y0401346D01*
X0277340Y0401207D01*
X0277285Y0401069D01*
X0277227Y0400932D01*
X0277164Y0400798D01*
X0277099Y0400665D01*
X0277030Y0400534D01*
X0276957Y0400404D01*
X0276881Y0400277D01*
X0276801Y0400152D01*
X0276718Y0400029D01*
X0276632Y0399908D01*
X0276543Y0399790D01*
X0276450Y0399674D01*
X0276354Y0399561D01*
X0276256Y0399450D01*
X0276154Y0399342D01*
X0276050Y0399237D01*
X0275942Y0399134D01*
X0275832Y0399035D01*
X0275720Y0398939D01*
X0275604Y0398845D01*
X0275487Y0398755D01*
X0275366Y0398668D01*
X0275244Y0398584D01*
X0275119Y0398504D01*
X0274993Y0398427D01*
X0274864Y0398353D01*
X0274733Y0398283D01*
X0274601Y0398217D01*
X0274466Y0398154D01*
X0274330Y0398094D01*
X0274193Y0398039D01*
X0274054Y0397987D01*
X0273914Y0397939D01*
X0273772Y0397894D01*
X0273629Y0397854D01*
X0273486Y0397817D01*
X0273341Y0397785D01*
X0273196Y0397756D01*
X0273049Y0397731D01*
X0272903Y0397710D01*
X0272755Y0397693D01*
X0272607Y0397680D01*
X0272459Y0397671D01*
X0272311Y0397666D01*
X0272163Y0397665D01*
X0272015Y0397668D01*
X0271866Y0397675D01*
X0271719Y0397686D01*
X0271571Y0397701D01*
X0271424Y0397720D01*
X0271277Y0397743D01*
X0271132Y0397770D01*
X0270986Y0397801D01*
X0270842Y0397835D01*
X0270699Y0397874D01*
X0270557Y0397916D01*
X0270416Y0397962D01*
X0270276Y0398012D01*
X0270138Y0398066D01*
X0270001Y0398124D01*
X0269866Y0398185D01*
X0269733Y0398249D01*
X0269601Y0398318D01*
X0269471Y0398390D01*
X0269344Y0398465D01*
X0269218Y0398544D01*
X0269094Y0398626D01*
X0268973Y0398711D01*
X0268854Y0398800D01*
X0268738Y0398891D01*
X0268624Y0398986D01*
X0268512Y0399084D01*
X0268404Y0399185D01*
X0268298Y0399289D01*
X0268195Y0399396D01*
X0268095Y0399505D01*
X0267997Y0399617D01*
X0267903Y0399732D01*
X0267812Y0399849D01*
X0267724Y0399968D01*
X0267640Y0400090D01*
X0267559Y0400214D01*
X0267481Y0400340D01*
X0267406Y0400469D01*
X0267335Y0400599D01*
X0267268Y0400731D01*
X0267204Y0400865D01*
X0267144Y0401000D01*
X0267087Y0401138D01*
X0267035Y0401276D01*
X0266985Y0401416D01*
X0266940Y0401557D01*
X0266899Y0401700D01*
X0266861Y0401843D01*
X0266827Y0401988D01*
X0266798Y0402133D01*
X0266772Y0402279D01*
X0266750Y0402426D01*
X0266732Y0402573D01*
X0266718Y0402721D01*
X0266708Y0402869D01*
X0266702Y0403017D01*
X0266700Y0403165D01*
X0266700Y0048835D02*
X0266702Y0048983D01*
X0266708Y0049131D01*
X0266718Y0049279D01*
X0266732Y0049427D01*
X0266750Y0049574D01*
X0266772Y0049721D01*
X0266798Y0049867D01*
X0266827Y0050012D01*
X0266861Y0050157D01*
X0266899Y0050300D01*
X0266940Y0050443D01*
X0266985Y0050584D01*
X0267035Y0050724D01*
X0267087Y0050862D01*
X0267144Y0051000D01*
X0267204Y0051135D01*
X0267268Y0051269D01*
X0267335Y0051401D01*
X0267406Y0051531D01*
X0267481Y0051660D01*
X0267559Y0051786D01*
X0267640Y0051910D01*
X0267724Y0052032D01*
X0267812Y0052151D01*
X0267903Y0052268D01*
X0267997Y0052383D01*
X0268095Y0052495D01*
X0268195Y0052604D01*
X0268298Y0052711D01*
X0268404Y0052815D01*
X0268512Y0052916D01*
X0268624Y0053014D01*
X0268738Y0053109D01*
X0268854Y0053200D01*
X0268973Y0053289D01*
X0269094Y0053374D01*
X0269218Y0053456D01*
X0269344Y0053535D01*
X0269471Y0053610D01*
X0269601Y0053682D01*
X0269733Y0053751D01*
X0269866Y0053815D01*
X0270001Y0053876D01*
X0270138Y0053934D01*
X0270276Y0053988D01*
X0270416Y0054038D01*
X0270557Y0054084D01*
X0270699Y0054126D01*
X0270842Y0054165D01*
X0270986Y0054199D01*
X0271132Y0054230D01*
X0271277Y0054257D01*
X0271424Y0054280D01*
X0271571Y0054299D01*
X0271719Y0054314D01*
X0271866Y0054325D01*
X0272015Y0054332D01*
X0272163Y0054335D01*
X0272311Y0054334D01*
X0272459Y0054329D01*
X0272607Y0054320D01*
X0272755Y0054307D01*
X0272903Y0054290D01*
X0273049Y0054269D01*
X0273196Y0054244D01*
X0273341Y0054215D01*
X0273486Y0054183D01*
X0273629Y0054146D01*
X0273772Y0054106D01*
X0273914Y0054061D01*
X0274054Y0054013D01*
X0274193Y0053961D01*
X0274330Y0053906D01*
X0274466Y0053846D01*
X0274601Y0053783D01*
X0274733Y0053717D01*
X0274864Y0053647D01*
X0274993Y0053573D01*
X0275119Y0053496D01*
X0275244Y0053416D01*
X0275366Y0053332D01*
X0275487Y0053245D01*
X0275604Y0053155D01*
X0275720Y0053061D01*
X0275832Y0052965D01*
X0275942Y0052866D01*
X0276050Y0052763D01*
X0276154Y0052658D01*
X0276256Y0052550D01*
X0276354Y0052439D01*
X0276450Y0052326D01*
X0276543Y0052210D01*
X0276632Y0052092D01*
X0276718Y0051971D01*
X0276801Y0051848D01*
X0276881Y0051723D01*
X0276957Y0051596D01*
X0277030Y0051466D01*
X0277099Y0051335D01*
X0277164Y0051202D01*
X0277227Y0051068D01*
X0277285Y0050931D01*
X0277340Y0050793D01*
X0277390Y0050654D01*
X0277438Y0050513D01*
X0277481Y0050372D01*
X0277521Y0050229D01*
X0277556Y0050085D01*
X0277588Y0049940D01*
X0277616Y0049794D01*
X0277640Y0049648D01*
X0277660Y0049501D01*
X0277676Y0049353D01*
X0277688Y0049206D01*
X0277696Y0049057D01*
X0277700Y0048909D01*
X0277700Y0048761D01*
X0277696Y0048613D01*
X0277688Y0048464D01*
X0277676Y0048317D01*
X0277660Y0048169D01*
X0277640Y0048022D01*
X0277616Y0047876D01*
X0277588Y0047730D01*
X0277556Y0047585D01*
X0277521Y0047441D01*
X0277481Y0047298D01*
X0277438Y0047157D01*
X0277390Y0047016D01*
X0277340Y0046877D01*
X0277285Y0046739D01*
X0277227Y0046602D01*
X0277164Y0046468D01*
X0277099Y0046335D01*
X0277030Y0046204D01*
X0276957Y0046074D01*
X0276881Y0045947D01*
X0276801Y0045822D01*
X0276718Y0045699D01*
X0276632Y0045578D01*
X0276543Y0045460D01*
X0276450Y0045344D01*
X0276354Y0045231D01*
X0276256Y0045120D01*
X0276154Y0045012D01*
X0276050Y0044907D01*
X0275942Y0044804D01*
X0275832Y0044705D01*
X0275720Y0044609D01*
X0275604Y0044515D01*
X0275487Y0044425D01*
X0275366Y0044338D01*
X0275244Y0044254D01*
X0275119Y0044174D01*
X0274993Y0044097D01*
X0274864Y0044023D01*
X0274733Y0043953D01*
X0274601Y0043887D01*
X0274466Y0043824D01*
X0274330Y0043764D01*
X0274193Y0043709D01*
X0274054Y0043657D01*
X0273914Y0043609D01*
X0273772Y0043564D01*
X0273629Y0043524D01*
X0273486Y0043487D01*
X0273341Y0043455D01*
X0273196Y0043426D01*
X0273049Y0043401D01*
X0272903Y0043380D01*
X0272755Y0043363D01*
X0272607Y0043350D01*
X0272459Y0043341D01*
X0272311Y0043336D01*
X0272163Y0043335D01*
X0272015Y0043338D01*
X0271866Y0043345D01*
X0271719Y0043356D01*
X0271571Y0043371D01*
X0271424Y0043390D01*
X0271277Y0043413D01*
X0271132Y0043440D01*
X0270986Y0043471D01*
X0270842Y0043505D01*
X0270699Y0043544D01*
X0270557Y0043586D01*
X0270416Y0043632D01*
X0270276Y0043682D01*
X0270138Y0043736D01*
X0270001Y0043794D01*
X0269866Y0043855D01*
X0269733Y0043919D01*
X0269601Y0043988D01*
X0269471Y0044060D01*
X0269344Y0044135D01*
X0269218Y0044214D01*
X0269094Y0044296D01*
X0268973Y0044381D01*
X0268854Y0044470D01*
X0268738Y0044561D01*
X0268624Y0044656D01*
X0268512Y0044754D01*
X0268404Y0044855D01*
X0268298Y0044959D01*
X0268195Y0045066D01*
X0268095Y0045175D01*
X0267997Y0045287D01*
X0267903Y0045402D01*
X0267812Y0045519D01*
X0267724Y0045638D01*
X0267640Y0045760D01*
X0267559Y0045884D01*
X0267481Y0046010D01*
X0267406Y0046139D01*
X0267335Y0046269D01*
X0267268Y0046401D01*
X0267204Y0046535D01*
X0267144Y0046670D01*
X0267087Y0046808D01*
X0267035Y0046946D01*
X0266985Y0047086D01*
X0266940Y0047227D01*
X0266899Y0047370D01*
X0266861Y0047513D01*
X0266827Y0047658D01*
X0266798Y0047803D01*
X0266772Y0047949D01*
X0266750Y0048096D01*
X0266732Y0048243D01*
X0266718Y0048391D01*
X0266708Y0048539D01*
X0266702Y0048687D01*
X0266700Y0048835D01*
D11*
X0237538Y0012539D02*
X0239072Y0011004D01*
X0239072Y0006400D01*
X0236003Y0006400D02*
X0236003Y0011004D01*
X0237538Y0012539D01*
X0236003Y0011004D02*
X0234468Y0012539D01*
X0232934Y0012539D01*
X0232934Y0006400D01*
X0229864Y0007935D02*
X0229864Y0011004D01*
X0228330Y0012539D01*
X0225260Y0012539D01*
X0223726Y0011004D01*
X0223726Y0007935D01*
X0225260Y0006400D01*
X0228330Y0006400D01*
X0229864Y0007935D01*
X0220656Y0006400D02*
X0216053Y0006400D01*
X0214518Y0007935D01*
X0214518Y0011004D01*
X0216053Y0012539D01*
X0220656Y0012539D01*
X0211449Y0007935D02*
X0211449Y0006400D01*
X0209914Y0006400D01*
X0209914Y0007935D01*
X0211449Y0007935D01*
X0206845Y0012539D02*
X0205310Y0012539D01*
X0202241Y0009469D01*
X0202241Y0006400D02*
X0202241Y0012539D01*
X0199171Y0011004D02*
X0199171Y0009469D01*
X0193033Y0009469D01*
X0193033Y0007935D02*
X0193033Y0011004D01*
X0194568Y0012539D01*
X0197637Y0012539D01*
X0199171Y0011004D01*
X0197637Y0006400D02*
X0194568Y0006400D01*
X0193033Y0007935D01*
X0189964Y0006400D02*
X0188429Y0007935D01*
X0188429Y0014073D01*
X0186894Y0012539D02*
X0189964Y0012539D01*
X0183825Y0012539D02*
X0183825Y0006400D01*
X0179221Y0006400D01*
X0177686Y0007935D01*
X0177686Y0012539D01*
X0174617Y0011004D02*
X0174617Y0007935D01*
X0173083Y0006400D01*
X0168479Y0006400D01*
X0168479Y0003331D02*
X0168479Y0012539D01*
X0173083Y0012539D01*
X0174617Y0011004D01*
X0165409Y0011004D02*
X0165409Y0006400D01*
X0162340Y0006400D02*
X0162340Y0011004D01*
X0163875Y0012539D01*
X0165409Y0011004D01*
X0162340Y0011004D02*
X0160805Y0012539D01*
X0159271Y0012539D01*
X0159271Y0006400D01*
X0156201Y0007935D02*
X0156201Y0011004D01*
X0154667Y0012539D01*
X0151598Y0012539D01*
X0150063Y0011004D01*
X0150063Y0007935D01*
X0151598Y0006400D01*
X0154667Y0006400D01*
X0156201Y0007935D01*
X0146994Y0006400D02*
X0142390Y0006400D01*
X0140855Y0007935D01*
X0140855Y0011004D01*
X0142390Y0012539D01*
X0146994Y0012539D01*
X0137786Y0011004D02*
X0137786Y0009469D01*
X0131647Y0009469D01*
X0131647Y0007935D02*
X0131647Y0011004D01*
X0133182Y0012539D01*
X0136251Y0012539D01*
X0137786Y0011004D01*
X0136251Y0006400D02*
X0133182Y0006400D01*
X0131647Y0007935D01*
X0128578Y0006400D02*
X0123974Y0006400D01*
X0122439Y0007935D01*
X0122439Y0011004D01*
X0123974Y0012539D01*
X0128578Y0012539D01*
X0128578Y0004865D01*
X0127043Y0003331D01*
X0125509Y0003331D01*
X0119370Y0006400D02*
X0119370Y0011004D01*
X0117835Y0012539D01*
X0114766Y0012539D01*
X0114766Y0009469D02*
X0119370Y0009469D01*
X0119370Y0006400D02*
X0114766Y0006400D01*
X0113231Y0007935D01*
X0114766Y0009469D01*
X0110162Y0007935D02*
X0108628Y0006400D01*
X0104024Y0006400D01*
X0104024Y0003331D02*
X0104024Y0012539D01*
X0108628Y0012539D01*
X0110162Y0011004D01*
X0110162Y0007935D01*
X0100954Y0009469D02*
X0094816Y0009469D01*
X0094816Y0007935D02*
X0094816Y0011004D01*
X0096350Y0012539D01*
X0099420Y0012539D01*
X0100954Y0011004D01*
X0100954Y0009469D01*
X0099420Y0006400D02*
X0096350Y0006400D01*
X0094816Y0007935D01*
X0091746Y0006400D02*
X0091746Y0011004D01*
X0090212Y0012539D01*
X0085608Y0012539D01*
X0085608Y0006400D01*
X0082539Y0007935D02*
X0082539Y0011004D01*
X0081004Y0012539D01*
X0077935Y0012539D01*
X0076400Y0011004D01*
X0076400Y0007935D01*
X0077935Y0006400D01*
X0081004Y0006400D01*
X0082539Y0007935D01*
X0081000Y0028500D02*
X0081000Y0043500D01*
X0216000Y0043500D02*
X0216000Y0028500D01*
X0254469Y0416400D02*
X0257539Y0419469D01*
X0257539Y0425608D01*
X0260608Y0422539D02*
X0263677Y0425608D01*
X0263677Y0416400D01*
X0260608Y0416400D02*
X0266746Y0416400D01*
X0269816Y0416400D02*
X0271350Y0416400D01*
X0271350Y0417935D01*
X0269816Y0417935D01*
X0269816Y0416400D01*
X0274420Y0416400D02*
X0280558Y0416400D01*
X0277489Y0416400D02*
X0277489Y0425608D01*
X0274420Y0422539D01*
X0283628Y0422539D02*
X0286697Y0425608D01*
X0286697Y0416400D01*
X0283628Y0416400D02*
X0289766Y0416400D01*
X0288428Y0436400D02*
X0285359Y0436400D01*
X0283824Y0437935D01*
X0289963Y0444073D01*
X0289963Y0437935D01*
X0288428Y0436400D01*
X0283824Y0437935D02*
X0283824Y0444073D01*
X0285359Y0445608D01*
X0288428Y0445608D01*
X0289963Y0444073D01*
X0280755Y0437935D02*
X0280755Y0436400D01*
X0279220Y0436400D01*
X0279220Y0437935D01*
X0280755Y0437935D01*
X0276151Y0436400D02*
X0270012Y0436400D01*
X0273082Y0436400D02*
X0273082Y0445608D01*
X0270012Y0442539D01*
X0266943Y0439469D02*
X0266943Y0445608D01*
X0266943Y0439469D02*
X0263874Y0436400D01*
X0260804Y0439469D01*
X0260804Y0445608D01*
X0248527Y0444073D02*
X0248527Y0437935D01*
X0246993Y0436400D01*
X0242389Y0436400D01*
X0242389Y0445608D01*
X0246993Y0445608D01*
X0248527Y0444073D01*
X0239319Y0444073D02*
X0239319Y0441004D01*
X0237785Y0439469D01*
X0233181Y0439469D01*
X0233181Y0436400D02*
X0233181Y0445608D01*
X0237785Y0445608D01*
X0239319Y0444073D01*
X0236250Y0439469D02*
X0239319Y0436400D01*
X0230112Y0436400D02*
X0230112Y0442539D01*
X0227042Y0445608D01*
X0223973Y0442539D01*
X0223973Y0436400D01*
X0220904Y0437935D02*
X0220904Y0444073D01*
X0219369Y0445608D01*
X0216300Y0445608D01*
X0214765Y0444073D01*
X0214765Y0437935D01*
X0216300Y0436400D01*
X0219369Y0436400D01*
X0220904Y0437935D01*
X0223973Y0441004D02*
X0230112Y0441004D01*
X0211696Y0442539D02*
X0210161Y0441004D01*
X0205557Y0441004D01*
X0205557Y0436400D02*
X0205557Y0445608D01*
X0210161Y0445608D01*
X0211696Y0444073D01*
X0211696Y0442539D01*
X0210161Y0441004D02*
X0211696Y0439469D01*
X0211696Y0437935D01*
X0210161Y0436400D01*
X0205557Y0436400D01*
X0193280Y0436400D02*
X0190211Y0439469D01*
X0191745Y0439469D02*
X0187142Y0439469D01*
X0187142Y0436400D02*
X0187142Y0445608D01*
X0191745Y0445608D01*
X0193280Y0444073D01*
X0193280Y0441004D01*
X0191745Y0439469D01*
X0184072Y0436400D02*
X0177934Y0436400D01*
X0177934Y0445608D01*
X0184072Y0445608D01*
X0181003Y0441004D02*
X0177934Y0441004D01*
X0174864Y0445608D02*
X0168726Y0445608D01*
X0171795Y0445608D02*
X0171795Y0436400D01*
X0165656Y0436400D02*
X0162587Y0439469D01*
X0164122Y0439469D02*
X0159518Y0439469D01*
X0159518Y0436400D02*
X0159518Y0445608D01*
X0164122Y0445608D01*
X0165656Y0444073D01*
X0165656Y0441004D01*
X0164122Y0439469D01*
X0156449Y0436400D02*
X0150310Y0436400D01*
X0150310Y0445608D01*
X0156449Y0445608D01*
X0153379Y0441004D02*
X0150310Y0441004D01*
X0147241Y0439469D02*
X0147241Y0445608D01*
X0147241Y0439469D02*
X0144171Y0436400D01*
X0141102Y0439469D01*
X0141102Y0445608D01*
X0138033Y0445608D02*
X0138033Y0436400D01*
X0131894Y0445608D01*
X0131894Y0436400D01*
X0128825Y0437935D02*
X0128825Y0444073D01*
X0127290Y0445608D01*
X0124221Y0445608D01*
X0122686Y0444073D01*
X0122686Y0437935D01*
X0124221Y0436400D01*
X0127290Y0436400D01*
X0128825Y0437935D01*
X0119617Y0437935D02*
X0118083Y0436400D01*
X0115013Y0436400D01*
X0113479Y0437935D01*
X0113479Y0444073D01*
X0115013Y0445608D01*
X0118083Y0445608D01*
X0119617Y0444073D01*
X0101201Y0444073D02*
X0099667Y0445608D01*
X0096598Y0445608D01*
X0095063Y0444073D01*
X0095063Y0442539D01*
X0096598Y0441004D01*
X0099667Y0441004D01*
X0101201Y0439469D01*
X0101201Y0437935D01*
X0099667Y0436400D01*
X0096598Y0436400D01*
X0095063Y0437935D01*
X0091994Y0437935D02*
X0091994Y0445608D01*
X0091994Y0437935D02*
X0090459Y0436400D01*
X0087390Y0436400D01*
X0085855Y0437935D01*
X0085855Y0445608D01*
X0082786Y0444073D02*
X0082786Y0442539D01*
X0081251Y0441004D01*
X0076647Y0441004D01*
X0076647Y0436400D02*
X0076647Y0445608D01*
X0081251Y0445608D01*
X0082786Y0444073D01*
X0081251Y0441004D02*
X0082786Y0439469D01*
X0082786Y0437935D01*
X0081251Y0436400D01*
X0076647Y0436400D01*
X0064370Y0436400D02*
X0058231Y0436400D01*
X0061301Y0436400D02*
X0061301Y0445608D01*
X0058231Y0442539D01*
X0055162Y0444073D02*
X0053628Y0445608D01*
X0050558Y0445608D01*
X0049024Y0444073D01*
X0049024Y0437935D01*
X0050558Y0436400D01*
X0053628Y0436400D01*
X0055162Y0437935D01*
X0045954Y0437935D02*
X0044420Y0436400D01*
X0041350Y0436400D01*
X0039816Y0437935D01*
X0039816Y0444073D01*
X0041350Y0445608D01*
X0044420Y0445608D01*
X0045954Y0444073D01*
X0036746Y0442539D02*
X0036746Y0436400D01*
X0036746Y0441004D02*
X0030608Y0441004D01*
X0030608Y0442539D02*
X0030608Y0436400D01*
X0030608Y0442539D02*
X0033677Y0445608D01*
X0036746Y0442539D01*
X0027539Y0444073D02*
X0027539Y0445608D01*
X0027539Y0444073D02*
X0024469Y0441004D01*
X0024469Y0436400D01*
X0024469Y0441004D02*
X0021400Y0444073D01*
X0021400Y0445608D01*
X0023677Y0425608D02*
X0023677Y0416400D01*
X0020608Y0416400D02*
X0026746Y0416400D01*
X0029816Y0416400D02*
X0031350Y0416400D01*
X0031350Y0417935D01*
X0029816Y0417935D01*
X0029816Y0416400D01*
X0034420Y0416400D02*
X0040558Y0422539D01*
X0040558Y0424073D01*
X0039024Y0425608D01*
X0035954Y0425608D01*
X0034420Y0424073D01*
X0034420Y0416400D02*
X0040558Y0416400D01*
X0023677Y0425608D02*
X0020608Y0422539D01*
X0017539Y0419469D02*
X0017539Y0425608D01*
X0017539Y0419469D02*
X0014469Y0416400D01*
X0011400Y0419469D01*
X0011400Y0425608D01*
X0251400Y0425608D02*
X0251400Y0419469D01*
X0254469Y0416400D01*
D12*
X0252000Y0412000D02*
X0260500Y0412000D01*
X0260500Y0399500D01*
X0266500Y0392000D01*
X0265500Y0393500D01*
X0265500Y0391000D01*
X0253500Y0391000D01*
X0253500Y0061000D01*
X0265500Y0061000D01*
X0265500Y0059000D01*
X0266500Y0060000D02*
X0260500Y0052500D01*
X0260500Y0040000D01*
X0252000Y0040000D01*
X0251913Y0040002D01*
X0251826Y0040008D01*
X0251739Y0040017D01*
X0251653Y0040030D01*
X0251567Y0040047D01*
X0251482Y0040068D01*
X0251399Y0040093D01*
X0251316Y0040121D01*
X0251235Y0040152D01*
X0251155Y0040187D01*
X0251077Y0040226D01*
X0251000Y0040268D01*
X0250925Y0040313D01*
X0250853Y0040362D01*
X0250782Y0040413D01*
X0250714Y0040468D01*
X0250649Y0040525D01*
X0250586Y0040586D01*
X0250525Y0040649D01*
X0250468Y0040714D01*
X0250413Y0040782D01*
X0250362Y0040853D01*
X0250313Y0040925D01*
X0250268Y0041000D01*
X0250226Y0041077D01*
X0250187Y0041155D01*
X0250152Y0041235D01*
X0250121Y0041316D01*
X0250093Y0041399D01*
X0250068Y0041482D01*
X0250047Y0041567D01*
X0250030Y0041653D01*
X0250017Y0041739D01*
X0250008Y0041826D01*
X0250002Y0041913D01*
X0250000Y0042000D01*
X0250000Y0057500D01*
X0262000Y0057500D01*
X0262000Y0054500D01*
X0266500Y0060000D02*
X0277500Y0060000D01*
X0283500Y0052500D01*
X0292000Y0052500D01*
X0292000Y0042000D01*
X0291998Y0041913D01*
X0291992Y0041826D01*
X0291983Y0041739D01*
X0291970Y0041653D01*
X0291953Y0041567D01*
X0291932Y0041482D01*
X0291907Y0041399D01*
X0291879Y0041316D01*
X0291848Y0041235D01*
X0291813Y0041155D01*
X0291774Y0041077D01*
X0291732Y0041000D01*
X0291687Y0040925D01*
X0291638Y0040853D01*
X0291587Y0040782D01*
X0291532Y0040714D01*
X0291475Y0040649D01*
X0291414Y0040586D01*
X0291351Y0040525D01*
X0291286Y0040468D01*
X0291218Y0040413D01*
X0291147Y0040362D01*
X0291075Y0040313D01*
X0291000Y0040268D01*
X0290923Y0040226D01*
X0290845Y0040187D01*
X0290765Y0040152D01*
X0290684Y0040121D01*
X0290601Y0040093D01*
X0290518Y0040068D01*
X0290433Y0040047D01*
X0290347Y0040030D01*
X0290261Y0040017D01*
X0290174Y0040008D01*
X0290087Y0040002D01*
X0290000Y0040000D01*
X0283500Y0040000D01*
X0283500Y0052500D01*
X0282500Y0054000D02*
X0282500Y0056000D01*
X0288500Y0056000D01*
X0288500Y0396000D01*
X0282500Y0396000D01*
X0282500Y0398000D01*
X0283500Y0399500D02*
X0292000Y0399500D01*
X0292000Y0052500D01*
X0283500Y0040000D02*
X0260500Y0040000D01*
X0267200Y0048835D02*
X0267202Y0048976D01*
X0267208Y0049117D01*
X0267218Y0049257D01*
X0267232Y0049397D01*
X0267250Y0049537D01*
X0267271Y0049676D01*
X0267297Y0049815D01*
X0267326Y0049953D01*
X0267360Y0050089D01*
X0267397Y0050225D01*
X0267438Y0050360D01*
X0267483Y0050494D01*
X0267532Y0050626D01*
X0267584Y0050757D01*
X0267640Y0050886D01*
X0267700Y0051013D01*
X0267763Y0051139D01*
X0267829Y0051263D01*
X0267900Y0051386D01*
X0267973Y0051506D01*
X0268050Y0051624D01*
X0268130Y0051740D01*
X0268214Y0051853D01*
X0268300Y0051964D01*
X0268390Y0052073D01*
X0268483Y0052179D01*
X0268578Y0052282D01*
X0268677Y0052383D01*
X0268778Y0052481D01*
X0268882Y0052576D01*
X0268989Y0052668D01*
X0269098Y0052757D01*
X0269210Y0052842D01*
X0269324Y0052925D01*
X0269440Y0053005D01*
X0269559Y0053081D01*
X0269680Y0053153D01*
X0269802Y0053223D01*
X0269927Y0053288D01*
X0270053Y0053351D01*
X0270181Y0053409D01*
X0270311Y0053464D01*
X0270442Y0053516D01*
X0270575Y0053563D01*
X0270709Y0053607D01*
X0270844Y0053648D01*
X0270980Y0053684D01*
X0271117Y0053716D01*
X0271255Y0053745D01*
X0271393Y0053770D01*
X0271533Y0053790D01*
X0271673Y0053807D01*
X0271813Y0053820D01*
X0271954Y0053829D01*
X0272094Y0053834D01*
X0272235Y0053835D01*
X0272376Y0053832D01*
X0272517Y0053825D01*
X0272657Y0053814D01*
X0272797Y0053799D01*
X0272937Y0053780D01*
X0273076Y0053758D01*
X0273214Y0053731D01*
X0273352Y0053701D01*
X0273488Y0053666D01*
X0273624Y0053628D01*
X0273758Y0053586D01*
X0273892Y0053540D01*
X0274024Y0053491D01*
X0274154Y0053437D01*
X0274283Y0053380D01*
X0274410Y0053320D01*
X0274536Y0053256D01*
X0274659Y0053188D01*
X0274781Y0053117D01*
X0274901Y0053043D01*
X0275018Y0052965D01*
X0275133Y0052884D01*
X0275246Y0052800D01*
X0275357Y0052713D01*
X0275465Y0052622D01*
X0275570Y0052529D01*
X0275673Y0052432D01*
X0275773Y0052333D01*
X0275870Y0052231D01*
X0275964Y0052126D01*
X0276055Y0052019D01*
X0276143Y0051909D01*
X0276228Y0051797D01*
X0276310Y0051682D01*
X0276389Y0051565D01*
X0276464Y0051446D01*
X0276536Y0051325D01*
X0276604Y0051202D01*
X0276669Y0051077D01*
X0276731Y0050950D01*
X0276788Y0050821D01*
X0276843Y0050691D01*
X0276893Y0050560D01*
X0276940Y0050427D01*
X0276983Y0050293D01*
X0277022Y0050157D01*
X0277057Y0050021D01*
X0277089Y0049884D01*
X0277116Y0049746D01*
X0277140Y0049607D01*
X0277160Y0049467D01*
X0277176Y0049327D01*
X0277188Y0049187D01*
X0277196Y0049046D01*
X0277200Y0048905D01*
X0277200Y0048765D01*
X0277196Y0048624D01*
X0277188Y0048483D01*
X0277176Y0048343D01*
X0277160Y0048203D01*
X0277140Y0048063D01*
X0277116Y0047924D01*
X0277089Y0047786D01*
X0277057Y0047649D01*
X0277022Y0047513D01*
X0276983Y0047377D01*
X0276940Y0047243D01*
X0276893Y0047110D01*
X0276843Y0046979D01*
X0276788Y0046849D01*
X0276731Y0046720D01*
X0276669Y0046593D01*
X0276604Y0046468D01*
X0276536Y0046345D01*
X0276464Y0046224D01*
X0276389Y0046105D01*
X0276310Y0045988D01*
X0276228Y0045873D01*
X0276143Y0045761D01*
X0276055Y0045651D01*
X0275964Y0045544D01*
X0275870Y0045439D01*
X0275773Y0045337D01*
X0275673Y0045238D01*
X0275570Y0045141D01*
X0275465Y0045048D01*
X0275357Y0044957D01*
X0275246Y0044870D01*
X0275133Y0044786D01*
X0275018Y0044705D01*
X0274901Y0044627D01*
X0274781Y0044553D01*
X0274659Y0044482D01*
X0274536Y0044414D01*
X0274410Y0044350D01*
X0274283Y0044290D01*
X0274154Y0044233D01*
X0274024Y0044179D01*
X0273892Y0044130D01*
X0273758Y0044084D01*
X0273624Y0044042D01*
X0273488Y0044004D01*
X0273352Y0043969D01*
X0273214Y0043939D01*
X0273076Y0043912D01*
X0272937Y0043890D01*
X0272797Y0043871D01*
X0272657Y0043856D01*
X0272517Y0043845D01*
X0272376Y0043838D01*
X0272235Y0043835D01*
X0272094Y0043836D01*
X0271954Y0043841D01*
X0271813Y0043850D01*
X0271673Y0043863D01*
X0271533Y0043880D01*
X0271393Y0043900D01*
X0271255Y0043925D01*
X0271117Y0043954D01*
X0270980Y0043986D01*
X0270844Y0044022D01*
X0270709Y0044063D01*
X0270575Y0044107D01*
X0270442Y0044154D01*
X0270311Y0044206D01*
X0270181Y0044261D01*
X0270053Y0044319D01*
X0269927Y0044382D01*
X0269802Y0044447D01*
X0269680Y0044517D01*
X0269559Y0044589D01*
X0269440Y0044665D01*
X0269324Y0044745D01*
X0269210Y0044828D01*
X0269098Y0044913D01*
X0268989Y0045002D01*
X0268882Y0045094D01*
X0268778Y0045189D01*
X0268677Y0045287D01*
X0268578Y0045388D01*
X0268483Y0045491D01*
X0268390Y0045597D01*
X0268300Y0045706D01*
X0268214Y0045817D01*
X0268130Y0045930D01*
X0268050Y0046046D01*
X0267973Y0046164D01*
X0267900Y0046284D01*
X0267829Y0046407D01*
X0267763Y0046531D01*
X0267700Y0046657D01*
X0267640Y0046784D01*
X0267584Y0046913D01*
X0267532Y0047044D01*
X0267483Y0047176D01*
X0267438Y0047310D01*
X0267397Y0047445D01*
X0267360Y0047581D01*
X0267326Y0047717D01*
X0267297Y0047855D01*
X0267271Y0047994D01*
X0267250Y0048133D01*
X0267232Y0048273D01*
X0267218Y0048413D01*
X0267208Y0048553D01*
X0267202Y0048694D01*
X0267200Y0048835D01*
X0250000Y0057500D02*
X0250000Y0394500D01*
X0262000Y0394500D01*
X0262000Y0397500D01*
X0266500Y0392000D02*
X0277500Y0392000D01*
X0283500Y0399500D01*
X0283500Y0412000D01*
X0290000Y0412000D01*
X0290087Y0411998D01*
X0290174Y0411992D01*
X0290261Y0411983D01*
X0290347Y0411970D01*
X0290433Y0411953D01*
X0290518Y0411932D01*
X0290601Y0411907D01*
X0290684Y0411879D01*
X0290765Y0411848D01*
X0290845Y0411813D01*
X0290923Y0411774D01*
X0291000Y0411732D01*
X0291075Y0411687D01*
X0291147Y0411638D01*
X0291218Y0411587D01*
X0291286Y0411532D01*
X0291351Y0411475D01*
X0291414Y0411414D01*
X0291475Y0411351D01*
X0291532Y0411286D01*
X0291587Y0411218D01*
X0291638Y0411147D01*
X0291687Y0411075D01*
X0291732Y0411000D01*
X0291774Y0410923D01*
X0291813Y0410845D01*
X0291848Y0410765D01*
X0291879Y0410684D01*
X0291907Y0410601D01*
X0291932Y0410518D01*
X0291953Y0410433D01*
X0291970Y0410347D01*
X0291983Y0410261D01*
X0291992Y0410174D01*
X0291998Y0410087D01*
X0292000Y0410000D01*
X0292000Y0399500D01*
X0283500Y0412000D02*
X0260500Y0412000D01*
X0252000Y0412000D02*
X0251913Y0411998D01*
X0251826Y0411992D01*
X0251739Y0411983D01*
X0251653Y0411970D01*
X0251567Y0411953D01*
X0251482Y0411932D01*
X0251399Y0411907D01*
X0251316Y0411879D01*
X0251235Y0411848D01*
X0251155Y0411813D01*
X0251077Y0411774D01*
X0251000Y0411732D01*
X0250925Y0411687D01*
X0250853Y0411638D01*
X0250782Y0411587D01*
X0250714Y0411532D01*
X0250649Y0411475D01*
X0250586Y0411414D01*
X0250525Y0411351D01*
X0250468Y0411286D01*
X0250413Y0411218D01*
X0250362Y0411147D01*
X0250313Y0411075D01*
X0250268Y0411000D01*
X0250226Y0410923D01*
X0250187Y0410845D01*
X0250152Y0410765D01*
X0250121Y0410684D01*
X0250093Y0410601D01*
X0250068Y0410518D01*
X0250047Y0410433D01*
X0250030Y0410347D01*
X0250017Y0410261D01*
X0250008Y0410174D01*
X0250002Y0410087D01*
X0250000Y0410000D01*
X0250000Y0394500D01*
X0267200Y0403165D02*
X0267202Y0403306D01*
X0267208Y0403447D01*
X0267218Y0403587D01*
X0267232Y0403727D01*
X0267250Y0403867D01*
X0267271Y0404006D01*
X0267297Y0404145D01*
X0267326Y0404283D01*
X0267360Y0404419D01*
X0267397Y0404555D01*
X0267438Y0404690D01*
X0267483Y0404824D01*
X0267532Y0404956D01*
X0267584Y0405087D01*
X0267640Y0405216D01*
X0267700Y0405343D01*
X0267763Y0405469D01*
X0267829Y0405593D01*
X0267900Y0405716D01*
X0267973Y0405836D01*
X0268050Y0405954D01*
X0268130Y0406070D01*
X0268214Y0406183D01*
X0268300Y0406294D01*
X0268390Y0406403D01*
X0268483Y0406509D01*
X0268578Y0406612D01*
X0268677Y0406713D01*
X0268778Y0406811D01*
X0268882Y0406906D01*
X0268989Y0406998D01*
X0269098Y0407087D01*
X0269210Y0407172D01*
X0269324Y0407255D01*
X0269440Y0407335D01*
X0269559Y0407411D01*
X0269680Y0407483D01*
X0269802Y0407553D01*
X0269927Y0407618D01*
X0270053Y0407681D01*
X0270181Y0407739D01*
X0270311Y0407794D01*
X0270442Y0407846D01*
X0270575Y0407893D01*
X0270709Y0407937D01*
X0270844Y0407978D01*
X0270980Y0408014D01*
X0271117Y0408046D01*
X0271255Y0408075D01*
X0271393Y0408100D01*
X0271533Y0408120D01*
X0271673Y0408137D01*
X0271813Y0408150D01*
X0271954Y0408159D01*
X0272094Y0408164D01*
X0272235Y0408165D01*
X0272376Y0408162D01*
X0272517Y0408155D01*
X0272657Y0408144D01*
X0272797Y0408129D01*
X0272937Y0408110D01*
X0273076Y0408088D01*
X0273214Y0408061D01*
X0273352Y0408031D01*
X0273488Y0407996D01*
X0273624Y0407958D01*
X0273758Y0407916D01*
X0273892Y0407870D01*
X0274024Y0407821D01*
X0274154Y0407767D01*
X0274283Y0407710D01*
X0274410Y0407650D01*
X0274536Y0407586D01*
X0274659Y0407518D01*
X0274781Y0407447D01*
X0274901Y0407373D01*
X0275018Y0407295D01*
X0275133Y0407214D01*
X0275246Y0407130D01*
X0275357Y0407043D01*
X0275465Y0406952D01*
X0275570Y0406859D01*
X0275673Y0406762D01*
X0275773Y0406663D01*
X0275870Y0406561D01*
X0275964Y0406456D01*
X0276055Y0406349D01*
X0276143Y0406239D01*
X0276228Y0406127D01*
X0276310Y0406012D01*
X0276389Y0405895D01*
X0276464Y0405776D01*
X0276536Y0405655D01*
X0276604Y0405532D01*
X0276669Y0405407D01*
X0276731Y0405280D01*
X0276788Y0405151D01*
X0276843Y0405021D01*
X0276893Y0404890D01*
X0276940Y0404757D01*
X0276983Y0404623D01*
X0277022Y0404487D01*
X0277057Y0404351D01*
X0277089Y0404214D01*
X0277116Y0404076D01*
X0277140Y0403937D01*
X0277160Y0403797D01*
X0277176Y0403657D01*
X0277188Y0403517D01*
X0277196Y0403376D01*
X0277200Y0403235D01*
X0277200Y0403095D01*
X0277196Y0402954D01*
X0277188Y0402813D01*
X0277176Y0402673D01*
X0277160Y0402533D01*
X0277140Y0402393D01*
X0277116Y0402254D01*
X0277089Y0402116D01*
X0277057Y0401979D01*
X0277022Y0401843D01*
X0276983Y0401707D01*
X0276940Y0401573D01*
X0276893Y0401440D01*
X0276843Y0401309D01*
X0276788Y0401179D01*
X0276731Y0401050D01*
X0276669Y0400923D01*
X0276604Y0400798D01*
X0276536Y0400675D01*
X0276464Y0400554D01*
X0276389Y0400435D01*
X0276310Y0400318D01*
X0276228Y0400203D01*
X0276143Y0400091D01*
X0276055Y0399981D01*
X0275964Y0399874D01*
X0275870Y0399769D01*
X0275773Y0399667D01*
X0275673Y0399568D01*
X0275570Y0399471D01*
X0275465Y0399378D01*
X0275357Y0399287D01*
X0275246Y0399200D01*
X0275133Y0399116D01*
X0275018Y0399035D01*
X0274901Y0398957D01*
X0274781Y0398883D01*
X0274659Y0398812D01*
X0274536Y0398744D01*
X0274410Y0398680D01*
X0274283Y0398620D01*
X0274154Y0398563D01*
X0274024Y0398509D01*
X0273892Y0398460D01*
X0273758Y0398414D01*
X0273624Y0398372D01*
X0273488Y0398334D01*
X0273352Y0398299D01*
X0273214Y0398269D01*
X0273076Y0398242D01*
X0272937Y0398220D01*
X0272797Y0398201D01*
X0272657Y0398186D01*
X0272517Y0398175D01*
X0272376Y0398168D01*
X0272235Y0398165D01*
X0272094Y0398166D01*
X0271954Y0398171D01*
X0271813Y0398180D01*
X0271673Y0398193D01*
X0271533Y0398210D01*
X0271393Y0398230D01*
X0271255Y0398255D01*
X0271117Y0398284D01*
X0270980Y0398316D01*
X0270844Y0398352D01*
X0270709Y0398393D01*
X0270575Y0398437D01*
X0270442Y0398484D01*
X0270311Y0398536D01*
X0270181Y0398591D01*
X0270053Y0398649D01*
X0269927Y0398712D01*
X0269802Y0398777D01*
X0269680Y0398847D01*
X0269559Y0398919D01*
X0269440Y0398995D01*
X0269324Y0399075D01*
X0269210Y0399158D01*
X0269098Y0399243D01*
X0268989Y0399332D01*
X0268882Y0399424D01*
X0268778Y0399519D01*
X0268677Y0399617D01*
X0268578Y0399718D01*
X0268483Y0399821D01*
X0268390Y0399927D01*
X0268300Y0400036D01*
X0268214Y0400147D01*
X0268130Y0400260D01*
X0268050Y0400376D01*
X0267973Y0400494D01*
X0267900Y0400614D01*
X0267829Y0400737D01*
X0267763Y0400861D01*
X0267700Y0400987D01*
X0267640Y0401114D01*
X0267584Y0401243D01*
X0267532Y0401374D01*
X0267483Y0401506D01*
X0267438Y0401640D01*
X0267397Y0401775D01*
X0267360Y0401911D01*
X0267326Y0402047D01*
X0267297Y0402185D01*
X0267271Y0402324D01*
X0267250Y0402463D01*
X0267232Y0402603D01*
X0267218Y0402743D01*
X0267208Y0402883D01*
X0267202Y0403024D01*
X0267200Y0403165D01*
X0052000Y0399500D02*
X0043500Y0399500D01*
X0037500Y0392000D01*
X0026500Y0392000D01*
X0020500Y0399500D01*
X0020500Y0412000D01*
X0012000Y0412000D01*
X0011913Y0411998D01*
X0011826Y0411992D01*
X0011739Y0411983D01*
X0011653Y0411970D01*
X0011567Y0411953D01*
X0011482Y0411932D01*
X0011399Y0411907D01*
X0011316Y0411879D01*
X0011235Y0411848D01*
X0011155Y0411813D01*
X0011077Y0411774D01*
X0011000Y0411732D01*
X0010925Y0411687D01*
X0010853Y0411638D01*
X0010782Y0411587D01*
X0010714Y0411532D01*
X0010649Y0411475D01*
X0010586Y0411414D01*
X0010525Y0411351D01*
X0010468Y0411286D01*
X0010413Y0411218D01*
X0010362Y0411147D01*
X0010313Y0411075D01*
X0010268Y0411000D01*
X0010226Y0410923D01*
X0010187Y0410845D01*
X0010152Y0410765D01*
X0010121Y0410684D01*
X0010093Y0410601D01*
X0010068Y0410518D01*
X0010047Y0410433D01*
X0010030Y0410347D01*
X0010017Y0410261D01*
X0010008Y0410174D01*
X0010002Y0410087D01*
X0010000Y0410000D01*
X0010000Y0394500D01*
X0022000Y0394500D01*
X0022000Y0397500D01*
X0025500Y0393500D02*
X0026500Y0392000D01*
X0025500Y0391000D02*
X0013500Y0391000D01*
X0013500Y0061000D01*
X0025500Y0061000D01*
X0025500Y0059000D01*
X0026500Y0060000D02*
X0020500Y0052500D01*
X0020500Y0040000D01*
X0012000Y0040000D01*
X0011913Y0040002D01*
X0011826Y0040008D01*
X0011739Y0040017D01*
X0011653Y0040030D01*
X0011567Y0040047D01*
X0011482Y0040068D01*
X0011399Y0040093D01*
X0011316Y0040121D01*
X0011235Y0040152D01*
X0011155Y0040187D01*
X0011077Y0040226D01*
X0011000Y0040268D01*
X0010925Y0040313D01*
X0010853Y0040362D01*
X0010782Y0040413D01*
X0010714Y0040468D01*
X0010649Y0040525D01*
X0010586Y0040586D01*
X0010525Y0040649D01*
X0010468Y0040714D01*
X0010413Y0040782D01*
X0010362Y0040853D01*
X0010313Y0040925D01*
X0010268Y0041000D01*
X0010226Y0041077D01*
X0010187Y0041155D01*
X0010152Y0041235D01*
X0010121Y0041316D01*
X0010093Y0041399D01*
X0010068Y0041482D01*
X0010047Y0041567D01*
X0010030Y0041653D01*
X0010017Y0041739D01*
X0010008Y0041826D01*
X0010002Y0041913D01*
X0010000Y0042000D01*
X0010000Y0057500D01*
X0022000Y0057500D01*
X0022000Y0054500D01*
X0026500Y0060000D02*
X0037500Y0060000D01*
X0043500Y0052500D01*
X0052000Y0052500D01*
X0052000Y0042000D01*
X0051998Y0041913D01*
X0051992Y0041826D01*
X0051983Y0041739D01*
X0051970Y0041653D01*
X0051953Y0041567D01*
X0051932Y0041482D01*
X0051907Y0041399D01*
X0051879Y0041316D01*
X0051848Y0041235D01*
X0051813Y0041155D01*
X0051774Y0041077D01*
X0051732Y0041000D01*
X0051687Y0040925D01*
X0051638Y0040853D01*
X0051587Y0040782D01*
X0051532Y0040714D01*
X0051475Y0040649D01*
X0051414Y0040586D01*
X0051351Y0040525D01*
X0051286Y0040468D01*
X0051218Y0040413D01*
X0051147Y0040362D01*
X0051075Y0040313D01*
X0051000Y0040268D01*
X0050923Y0040226D01*
X0050845Y0040187D01*
X0050765Y0040152D01*
X0050684Y0040121D01*
X0050601Y0040093D01*
X0050518Y0040068D01*
X0050433Y0040047D01*
X0050347Y0040030D01*
X0050261Y0040017D01*
X0050174Y0040008D01*
X0050087Y0040002D01*
X0050000Y0040000D01*
X0043500Y0040000D01*
X0043500Y0052500D01*
X0042500Y0054000D02*
X0042500Y0056000D01*
X0048500Y0056000D01*
X0048500Y0396000D01*
X0042500Y0396000D01*
X0042500Y0398000D01*
X0043500Y0399500D02*
X0043500Y0412000D01*
X0050000Y0412000D01*
X0050087Y0411998D01*
X0050174Y0411992D01*
X0050261Y0411983D01*
X0050347Y0411970D01*
X0050433Y0411953D01*
X0050518Y0411932D01*
X0050601Y0411907D01*
X0050684Y0411879D01*
X0050765Y0411848D01*
X0050845Y0411813D01*
X0050923Y0411774D01*
X0051000Y0411732D01*
X0051075Y0411687D01*
X0051147Y0411638D01*
X0051218Y0411587D01*
X0051286Y0411532D01*
X0051351Y0411475D01*
X0051414Y0411414D01*
X0051475Y0411351D01*
X0051532Y0411286D01*
X0051587Y0411218D01*
X0051638Y0411147D01*
X0051687Y0411075D01*
X0051732Y0411000D01*
X0051774Y0410923D01*
X0051813Y0410845D01*
X0051848Y0410765D01*
X0051879Y0410684D01*
X0051907Y0410601D01*
X0051932Y0410518D01*
X0051953Y0410433D01*
X0051970Y0410347D01*
X0051983Y0410261D01*
X0051992Y0410174D01*
X0051998Y0410087D01*
X0052000Y0410000D01*
X0052000Y0399500D01*
X0052000Y0052500D01*
X0043500Y0040000D02*
X0020500Y0040000D01*
X0027200Y0048835D02*
X0027202Y0048976D01*
X0027208Y0049117D01*
X0027218Y0049257D01*
X0027232Y0049397D01*
X0027250Y0049537D01*
X0027271Y0049676D01*
X0027297Y0049815D01*
X0027326Y0049953D01*
X0027360Y0050089D01*
X0027397Y0050225D01*
X0027438Y0050360D01*
X0027483Y0050494D01*
X0027532Y0050626D01*
X0027584Y0050757D01*
X0027640Y0050886D01*
X0027700Y0051013D01*
X0027763Y0051139D01*
X0027829Y0051263D01*
X0027900Y0051386D01*
X0027973Y0051506D01*
X0028050Y0051624D01*
X0028130Y0051740D01*
X0028214Y0051853D01*
X0028300Y0051964D01*
X0028390Y0052073D01*
X0028483Y0052179D01*
X0028578Y0052282D01*
X0028677Y0052383D01*
X0028778Y0052481D01*
X0028882Y0052576D01*
X0028989Y0052668D01*
X0029098Y0052757D01*
X0029210Y0052842D01*
X0029324Y0052925D01*
X0029440Y0053005D01*
X0029559Y0053081D01*
X0029680Y0053153D01*
X0029802Y0053223D01*
X0029927Y0053288D01*
X0030053Y0053351D01*
X0030181Y0053409D01*
X0030311Y0053464D01*
X0030442Y0053516D01*
X0030575Y0053563D01*
X0030709Y0053607D01*
X0030844Y0053648D01*
X0030980Y0053684D01*
X0031117Y0053716D01*
X0031255Y0053745D01*
X0031393Y0053770D01*
X0031533Y0053790D01*
X0031673Y0053807D01*
X0031813Y0053820D01*
X0031954Y0053829D01*
X0032094Y0053834D01*
X0032235Y0053835D01*
X0032376Y0053832D01*
X0032517Y0053825D01*
X0032657Y0053814D01*
X0032797Y0053799D01*
X0032937Y0053780D01*
X0033076Y0053758D01*
X0033214Y0053731D01*
X0033352Y0053701D01*
X0033488Y0053666D01*
X0033624Y0053628D01*
X0033758Y0053586D01*
X0033892Y0053540D01*
X0034024Y0053491D01*
X0034154Y0053437D01*
X0034283Y0053380D01*
X0034410Y0053320D01*
X0034536Y0053256D01*
X0034659Y0053188D01*
X0034781Y0053117D01*
X0034901Y0053043D01*
X0035018Y0052965D01*
X0035133Y0052884D01*
X0035246Y0052800D01*
X0035357Y0052713D01*
X0035465Y0052622D01*
X0035570Y0052529D01*
X0035673Y0052432D01*
X0035773Y0052333D01*
X0035870Y0052231D01*
X0035964Y0052126D01*
X0036055Y0052019D01*
X0036143Y0051909D01*
X0036228Y0051797D01*
X0036310Y0051682D01*
X0036389Y0051565D01*
X0036464Y0051446D01*
X0036536Y0051325D01*
X0036604Y0051202D01*
X0036669Y0051077D01*
X0036731Y0050950D01*
X0036788Y0050821D01*
X0036843Y0050691D01*
X0036893Y0050560D01*
X0036940Y0050427D01*
X0036983Y0050293D01*
X0037022Y0050157D01*
X0037057Y0050021D01*
X0037089Y0049884D01*
X0037116Y0049746D01*
X0037140Y0049607D01*
X0037160Y0049467D01*
X0037176Y0049327D01*
X0037188Y0049187D01*
X0037196Y0049046D01*
X0037200Y0048905D01*
X0037200Y0048765D01*
X0037196Y0048624D01*
X0037188Y0048483D01*
X0037176Y0048343D01*
X0037160Y0048203D01*
X0037140Y0048063D01*
X0037116Y0047924D01*
X0037089Y0047786D01*
X0037057Y0047649D01*
X0037022Y0047513D01*
X0036983Y0047377D01*
X0036940Y0047243D01*
X0036893Y0047110D01*
X0036843Y0046979D01*
X0036788Y0046849D01*
X0036731Y0046720D01*
X0036669Y0046593D01*
X0036604Y0046468D01*
X0036536Y0046345D01*
X0036464Y0046224D01*
X0036389Y0046105D01*
X0036310Y0045988D01*
X0036228Y0045873D01*
X0036143Y0045761D01*
X0036055Y0045651D01*
X0035964Y0045544D01*
X0035870Y0045439D01*
X0035773Y0045337D01*
X0035673Y0045238D01*
X0035570Y0045141D01*
X0035465Y0045048D01*
X0035357Y0044957D01*
X0035246Y0044870D01*
X0035133Y0044786D01*
X0035018Y0044705D01*
X0034901Y0044627D01*
X0034781Y0044553D01*
X0034659Y0044482D01*
X0034536Y0044414D01*
X0034410Y0044350D01*
X0034283Y0044290D01*
X0034154Y0044233D01*
X0034024Y0044179D01*
X0033892Y0044130D01*
X0033758Y0044084D01*
X0033624Y0044042D01*
X0033488Y0044004D01*
X0033352Y0043969D01*
X0033214Y0043939D01*
X0033076Y0043912D01*
X0032937Y0043890D01*
X0032797Y0043871D01*
X0032657Y0043856D01*
X0032517Y0043845D01*
X0032376Y0043838D01*
X0032235Y0043835D01*
X0032094Y0043836D01*
X0031954Y0043841D01*
X0031813Y0043850D01*
X0031673Y0043863D01*
X0031533Y0043880D01*
X0031393Y0043900D01*
X0031255Y0043925D01*
X0031117Y0043954D01*
X0030980Y0043986D01*
X0030844Y0044022D01*
X0030709Y0044063D01*
X0030575Y0044107D01*
X0030442Y0044154D01*
X0030311Y0044206D01*
X0030181Y0044261D01*
X0030053Y0044319D01*
X0029927Y0044382D01*
X0029802Y0044447D01*
X0029680Y0044517D01*
X0029559Y0044589D01*
X0029440Y0044665D01*
X0029324Y0044745D01*
X0029210Y0044828D01*
X0029098Y0044913D01*
X0028989Y0045002D01*
X0028882Y0045094D01*
X0028778Y0045189D01*
X0028677Y0045287D01*
X0028578Y0045388D01*
X0028483Y0045491D01*
X0028390Y0045597D01*
X0028300Y0045706D01*
X0028214Y0045817D01*
X0028130Y0045930D01*
X0028050Y0046046D01*
X0027973Y0046164D01*
X0027900Y0046284D01*
X0027829Y0046407D01*
X0027763Y0046531D01*
X0027700Y0046657D01*
X0027640Y0046784D01*
X0027584Y0046913D01*
X0027532Y0047044D01*
X0027483Y0047176D01*
X0027438Y0047310D01*
X0027397Y0047445D01*
X0027360Y0047581D01*
X0027326Y0047717D01*
X0027297Y0047855D01*
X0027271Y0047994D01*
X0027250Y0048133D01*
X0027232Y0048273D01*
X0027218Y0048413D01*
X0027208Y0048553D01*
X0027202Y0048694D01*
X0027200Y0048835D01*
X0010000Y0057500D02*
X0010000Y0394500D01*
X0020500Y0412000D02*
X0043500Y0412000D01*
X0027200Y0403165D02*
X0027202Y0403306D01*
X0027208Y0403447D01*
X0027218Y0403587D01*
X0027232Y0403727D01*
X0027250Y0403867D01*
X0027271Y0404006D01*
X0027297Y0404145D01*
X0027326Y0404283D01*
X0027360Y0404419D01*
X0027397Y0404555D01*
X0027438Y0404690D01*
X0027483Y0404824D01*
X0027532Y0404956D01*
X0027584Y0405087D01*
X0027640Y0405216D01*
X0027700Y0405343D01*
X0027763Y0405469D01*
X0027829Y0405593D01*
X0027900Y0405716D01*
X0027973Y0405836D01*
X0028050Y0405954D01*
X0028130Y0406070D01*
X0028214Y0406183D01*
X0028300Y0406294D01*
X0028390Y0406403D01*
X0028483Y0406509D01*
X0028578Y0406612D01*
X0028677Y0406713D01*
X0028778Y0406811D01*
X0028882Y0406906D01*
X0028989Y0406998D01*
X0029098Y0407087D01*
X0029210Y0407172D01*
X0029324Y0407255D01*
X0029440Y0407335D01*
X0029559Y0407411D01*
X0029680Y0407483D01*
X0029802Y0407553D01*
X0029927Y0407618D01*
X0030053Y0407681D01*
X0030181Y0407739D01*
X0030311Y0407794D01*
X0030442Y0407846D01*
X0030575Y0407893D01*
X0030709Y0407937D01*
X0030844Y0407978D01*
X0030980Y0408014D01*
X0031117Y0408046D01*
X0031255Y0408075D01*
X0031393Y0408100D01*
X0031533Y0408120D01*
X0031673Y0408137D01*
X0031813Y0408150D01*
X0031954Y0408159D01*
X0032094Y0408164D01*
X0032235Y0408165D01*
X0032376Y0408162D01*
X0032517Y0408155D01*
X0032657Y0408144D01*
X0032797Y0408129D01*
X0032937Y0408110D01*
X0033076Y0408088D01*
X0033214Y0408061D01*
X0033352Y0408031D01*
X0033488Y0407996D01*
X0033624Y0407958D01*
X0033758Y0407916D01*
X0033892Y0407870D01*
X0034024Y0407821D01*
X0034154Y0407767D01*
X0034283Y0407710D01*
X0034410Y0407650D01*
X0034536Y0407586D01*
X0034659Y0407518D01*
X0034781Y0407447D01*
X0034901Y0407373D01*
X0035018Y0407295D01*
X0035133Y0407214D01*
X0035246Y0407130D01*
X0035357Y0407043D01*
X0035465Y0406952D01*
X0035570Y0406859D01*
X0035673Y0406762D01*
X0035773Y0406663D01*
X0035870Y0406561D01*
X0035964Y0406456D01*
X0036055Y0406349D01*
X0036143Y0406239D01*
X0036228Y0406127D01*
X0036310Y0406012D01*
X0036389Y0405895D01*
X0036464Y0405776D01*
X0036536Y0405655D01*
X0036604Y0405532D01*
X0036669Y0405407D01*
X0036731Y0405280D01*
X0036788Y0405151D01*
X0036843Y0405021D01*
X0036893Y0404890D01*
X0036940Y0404757D01*
X0036983Y0404623D01*
X0037022Y0404487D01*
X0037057Y0404351D01*
X0037089Y0404214D01*
X0037116Y0404076D01*
X0037140Y0403937D01*
X0037160Y0403797D01*
X0037176Y0403657D01*
X0037188Y0403517D01*
X0037196Y0403376D01*
X0037200Y0403235D01*
X0037200Y0403095D01*
X0037196Y0402954D01*
X0037188Y0402813D01*
X0037176Y0402673D01*
X0037160Y0402533D01*
X0037140Y0402393D01*
X0037116Y0402254D01*
X0037089Y0402116D01*
X0037057Y0401979D01*
X0037022Y0401843D01*
X0036983Y0401707D01*
X0036940Y0401573D01*
X0036893Y0401440D01*
X0036843Y0401309D01*
X0036788Y0401179D01*
X0036731Y0401050D01*
X0036669Y0400923D01*
X0036604Y0400798D01*
X0036536Y0400675D01*
X0036464Y0400554D01*
X0036389Y0400435D01*
X0036310Y0400318D01*
X0036228Y0400203D01*
X0036143Y0400091D01*
X0036055Y0399981D01*
X0035964Y0399874D01*
X0035870Y0399769D01*
X0035773Y0399667D01*
X0035673Y0399568D01*
X0035570Y0399471D01*
X0035465Y0399378D01*
X0035357Y0399287D01*
X0035246Y0399200D01*
X0035133Y0399116D01*
X0035018Y0399035D01*
X0034901Y0398957D01*
X0034781Y0398883D01*
X0034659Y0398812D01*
X0034536Y0398744D01*
X0034410Y0398680D01*
X0034283Y0398620D01*
X0034154Y0398563D01*
X0034024Y0398509D01*
X0033892Y0398460D01*
X0033758Y0398414D01*
X0033624Y0398372D01*
X0033488Y0398334D01*
X0033352Y0398299D01*
X0033214Y0398269D01*
X0033076Y0398242D01*
X0032937Y0398220D01*
X0032797Y0398201D01*
X0032657Y0398186D01*
X0032517Y0398175D01*
X0032376Y0398168D01*
X0032235Y0398165D01*
X0032094Y0398166D01*
X0031954Y0398171D01*
X0031813Y0398180D01*
X0031673Y0398193D01*
X0031533Y0398210D01*
X0031393Y0398230D01*
X0031255Y0398255D01*
X0031117Y0398284D01*
X0030980Y0398316D01*
X0030844Y0398352D01*
X0030709Y0398393D01*
X0030575Y0398437D01*
X0030442Y0398484D01*
X0030311Y0398536D01*
X0030181Y0398591D01*
X0030053Y0398649D01*
X0029927Y0398712D01*
X0029802Y0398777D01*
X0029680Y0398847D01*
X0029559Y0398919D01*
X0029440Y0398995D01*
X0029324Y0399075D01*
X0029210Y0399158D01*
X0029098Y0399243D01*
X0028989Y0399332D01*
X0028882Y0399424D01*
X0028778Y0399519D01*
X0028677Y0399617D01*
X0028578Y0399718D01*
X0028483Y0399821D01*
X0028390Y0399927D01*
X0028300Y0400036D01*
X0028214Y0400147D01*
X0028130Y0400260D01*
X0028050Y0400376D01*
X0027973Y0400494D01*
X0027900Y0400614D01*
X0027829Y0400737D01*
X0027763Y0400861D01*
X0027700Y0400987D01*
X0027640Y0401114D01*
X0027584Y0401243D01*
X0027532Y0401374D01*
X0027483Y0401506D01*
X0027438Y0401640D01*
X0027397Y0401775D01*
X0027360Y0401911D01*
X0027326Y0402047D01*
X0027297Y0402185D01*
X0027271Y0402324D01*
X0027250Y0402463D01*
X0027232Y0402603D01*
X0027218Y0402743D01*
X0027208Y0402883D01*
X0027202Y0403024D01*
X0027200Y0403165D01*
X0025500Y0393500D02*
X0025500Y0391000D01*
X0081000Y0043500D02*
X0080813Y0043743D01*
X0080621Y0043981D01*
X0080422Y0044214D01*
X0080218Y0044442D01*
X0080009Y0044665D01*
X0079794Y0044883D01*
X0079574Y0045096D01*
X0079349Y0045303D01*
X0079118Y0045505D01*
X0078883Y0045701D01*
X0078643Y0045891D01*
X0078399Y0046075D01*
X0078150Y0046253D01*
X0077896Y0046425D01*
X0077639Y0046591D01*
X0077378Y0046751D01*
X0077113Y0046904D01*
X0076844Y0047050D01*
X0076571Y0047190D01*
X0076296Y0047323D01*
X0076017Y0047449D01*
X0075735Y0047569D01*
X0075450Y0047681D01*
X0075163Y0047786D01*
X0074873Y0047885D01*
X0074581Y0047976D01*
X0074286Y0048060D01*
X0073990Y0048137D01*
X0073692Y0048207D01*
X0073392Y0048269D01*
X0073091Y0048324D01*
X0072789Y0048371D01*
X0072485Y0048411D01*
X0072181Y0048444D01*
X0071876Y0048469D01*
X0071570Y0048487D01*
X0071264Y0048497D01*
X0070958Y0048500D01*
X0070652Y0048495D01*
X0070346Y0048483D01*
X0070040Y0048463D01*
X0069736Y0048436D01*
X0069431Y0048401D01*
X0069128Y0048359D01*
X0068826Y0048310D01*
X0068525Y0048253D01*
X0068226Y0048188D01*
X0067928Y0048117D01*
X0067633Y0048038D01*
X0067339Y0047952D01*
X0067047Y0047859D01*
X0066758Y0047758D01*
X0066471Y0047651D01*
X0066187Y0047536D01*
X0065906Y0047415D01*
X0065628Y0047287D01*
X0065353Y0047152D01*
X0065082Y0047010D01*
X0064814Y0046862D01*
X0064550Y0046707D01*
X0064290Y0046546D01*
X0064034Y0046379D01*
X0063781Y0046205D01*
X0063534Y0046025D01*
X0063290Y0045839D01*
X0063052Y0045648D01*
X0062818Y0045450D01*
X0062589Y0045247D01*
X0062365Y0045038D01*
X0062146Y0044824D01*
X0061933Y0044604D01*
X0061725Y0044380D01*
X0061522Y0044150D01*
X0061326Y0043916D01*
X0061135Y0043676D01*
X0060950Y0043433D01*
X0060771Y0043184D01*
X0060598Y0042932D01*
X0060431Y0042675D01*
X0060271Y0042414D01*
X0060117Y0042149D01*
X0059970Y0041881D01*
X0059829Y0041609D01*
X0059695Y0041334D01*
X0059568Y0041055D01*
X0059447Y0040774D01*
X0059334Y0040489D01*
X0059228Y0040202D01*
X0059128Y0039913D01*
X0059036Y0039621D01*
X0058951Y0039327D01*
X0058873Y0039031D01*
X0058802Y0038733D01*
X0058739Y0038433D01*
X0058683Y0038132D01*
X0058635Y0037830D01*
X0058594Y0037527D01*
X0058560Y0037223D01*
X0058534Y0036918D01*
X0058515Y0036612D01*
X0058504Y0036306D01*
X0058500Y0036000D01*
X0058504Y0035694D01*
X0058515Y0035388D01*
X0058534Y0035082D01*
X0058560Y0034777D01*
X0058594Y0034473D01*
X0058635Y0034170D01*
X0058683Y0033868D01*
X0058739Y0033567D01*
X0058802Y0033267D01*
X0058873Y0032969D01*
X0058951Y0032673D01*
X0059036Y0032379D01*
X0059128Y0032087D01*
X0059228Y0031798D01*
X0059334Y0031511D01*
X0059447Y0031226D01*
X0059568Y0030945D01*
X0059695Y0030666D01*
X0059829Y0030391D01*
X0059970Y0030119D01*
X0060117Y0029851D01*
X0060271Y0029586D01*
X0060431Y0029325D01*
X0060598Y0029068D01*
X0060771Y0028816D01*
X0060950Y0028567D01*
X0061135Y0028324D01*
X0061326Y0028084D01*
X0061522Y0027850D01*
X0061725Y0027620D01*
X0061933Y0027396D01*
X0062146Y0027176D01*
X0062365Y0026962D01*
X0062589Y0026753D01*
X0062818Y0026550D01*
X0063052Y0026352D01*
X0063290Y0026161D01*
X0063534Y0025975D01*
X0063781Y0025795D01*
X0064034Y0025621D01*
X0064290Y0025454D01*
X0064550Y0025293D01*
X0064814Y0025138D01*
X0065082Y0024990D01*
X0065353Y0024848D01*
X0065628Y0024713D01*
X0065906Y0024585D01*
X0066187Y0024464D01*
X0066471Y0024349D01*
X0066758Y0024242D01*
X0067047Y0024141D01*
X0067339Y0024048D01*
X0067633Y0023962D01*
X0067928Y0023883D01*
X0068226Y0023812D01*
X0068525Y0023747D01*
X0068826Y0023690D01*
X0069128Y0023641D01*
X0069431Y0023599D01*
X0069736Y0023564D01*
X0070040Y0023537D01*
X0070346Y0023517D01*
X0070652Y0023505D01*
X0070958Y0023500D01*
X0071264Y0023503D01*
X0071570Y0023513D01*
X0071876Y0023531D01*
X0072181Y0023556D01*
X0072485Y0023589D01*
X0072789Y0023629D01*
X0073091Y0023676D01*
X0073392Y0023731D01*
X0073692Y0023793D01*
X0073990Y0023863D01*
X0074286Y0023940D01*
X0074581Y0024024D01*
X0074873Y0024115D01*
X0075163Y0024214D01*
X0075450Y0024319D01*
X0075735Y0024431D01*
X0076017Y0024551D01*
X0076296Y0024677D01*
X0076571Y0024810D01*
X0076844Y0024950D01*
X0077113Y0025096D01*
X0077378Y0025249D01*
X0077639Y0025409D01*
X0077896Y0025575D01*
X0078150Y0025747D01*
X0078399Y0025925D01*
X0078643Y0026109D01*
X0078883Y0026299D01*
X0079118Y0026495D01*
X0079349Y0026697D01*
X0079574Y0026904D01*
X0079794Y0027117D01*
X0080009Y0027335D01*
X0080218Y0027558D01*
X0080422Y0027786D01*
X0080621Y0028019D01*
X0080813Y0028257D01*
X0081000Y0028500D01*
X0216000Y0028500D02*
X0216187Y0028257D01*
X0216379Y0028019D01*
X0216578Y0027786D01*
X0216782Y0027558D01*
X0216991Y0027335D01*
X0217206Y0027117D01*
X0217426Y0026904D01*
X0217651Y0026697D01*
X0217882Y0026495D01*
X0218117Y0026299D01*
X0218357Y0026109D01*
X0218601Y0025925D01*
X0218850Y0025747D01*
X0219104Y0025575D01*
X0219361Y0025409D01*
X0219622Y0025249D01*
X0219887Y0025096D01*
X0220156Y0024950D01*
X0220429Y0024810D01*
X0220704Y0024677D01*
X0220983Y0024551D01*
X0221265Y0024431D01*
X0221550Y0024319D01*
X0221837Y0024214D01*
X0222127Y0024115D01*
X0222419Y0024024D01*
X0222714Y0023940D01*
X0223010Y0023863D01*
X0223308Y0023793D01*
X0223608Y0023731D01*
X0223909Y0023676D01*
X0224211Y0023629D01*
X0224515Y0023589D01*
X0224819Y0023556D01*
X0225124Y0023531D01*
X0225430Y0023513D01*
X0225736Y0023503D01*
X0226042Y0023500D01*
X0226348Y0023505D01*
X0226654Y0023517D01*
X0226960Y0023537D01*
X0227264Y0023564D01*
X0227569Y0023599D01*
X0227872Y0023641D01*
X0228174Y0023690D01*
X0228475Y0023747D01*
X0228774Y0023812D01*
X0229072Y0023883D01*
X0229367Y0023962D01*
X0229661Y0024048D01*
X0229953Y0024141D01*
X0230242Y0024242D01*
X0230529Y0024349D01*
X0230813Y0024464D01*
X0231094Y0024585D01*
X0231372Y0024713D01*
X0231647Y0024848D01*
X0231918Y0024990D01*
X0232186Y0025138D01*
X0232450Y0025293D01*
X0232710Y0025454D01*
X0232966Y0025621D01*
X0233219Y0025795D01*
X0233466Y0025975D01*
X0233710Y0026161D01*
X0233948Y0026352D01*
X0234182Y0026550D01*
X0234411Y0026753D01*
X0234635Y0026962D01*
X0234854Y0027176D01*
X0235067Y0027396D01*
X0235275Y0027620D01*
X0235478Y0027850D01*
X0235674Y0028084D01*
X0235865Y0028324D01*
X0236050Y0028567D01*
X0236229Y0028816D01*
X0236402Y0029068D01*
X0236569Y0029325D01*
X0236729Y0029586D01*
X0236883Y0029851D01*
X0237030Y0030119D01*
X0237171Y0030391D01*
X0237305Y0030666D01*
X0237432Y0030945D01*
X0237553Y0031226D01*
X0237666Y0031511D01*
X0237772Y0031798D01*
X0237872Y0032087D01*
X0237964Y0032379D01*
X0238049Y0032673D01*
X0238127Y0032969D01*
X0238198Y0033267D01*
X0238261Y0033567D01*
X0238317Y0033868D01*
X0238365Y0034170D01*
X0238406Y0034473D01*
X0238440Y0034777D01*
X0238466Y0035082D01*
X0238485Y0035388D01*
X0238496Y0035694D01*
X0238500Y0036000D01*
X0238496Y0036306D01*
X0238485Y0036612D01*
X0238466Y0036918D01*
X0238440Y0037223D01*
X0238406Y0037527D01*
X0238365Y0037830D01*
X0238317Y0038132D01*
X0238261Y0038433D01*
X0238198Y0038733D01*
X0238127Y0039031D01*
X0238049Y0039327D01*
X0237964Y0039621D01*
X0237872Y0039913D01*
X0237772Y0040202D01*
X0237666Y0040489D01*
X0237553Y0040774D01*
X0237432Y0041055D01*
X0237305Y0041334D01*
X0237171Y0041609D01*
X0237030Y0041881D01*
X0236883Y0042149D01*
X0236729Y0042414D01*
X0236569Y0042675D01*
X0236402Y0042932D01*
X0236229Y0043184D01*
X0236050Y0043433D01*
X0235865Y0043676D01*
X0235674Y0043916D01*
X0235478Y0044150D01*
X0235275Y0044380D01*
X0235067Y0044604D01*
X0234854Y0044824D01*
X0234635Y0045038D01*
X0234411Y0045247D01*
X0234182Y0045450D01*
X0233948Y0045648D01*
X0233710Y0045839D01*
X0233466Y0046025D01*
X0233219Y0046205D01*
X0232966Y0046379D01*
X0232710Y0046546D01*
X0232450Y0046707D01*
X0232186Y0046862D01*
X0231918Y0047010D01*
X0231647Y0047152D01*
X0231372Y0047287D01*
X0231094Y0047415D01*
X0230813Y0047536D01*
X0230529Y0047651D01*
X0230242Y0047758D01*
X0229953Y0047859D01*
X0229661Y0047952D01*
X0229367Y0048038D01*
X0229072Y0048117D01*
X0228774Y0048188D01*
X0228475Y0048253D01*
X0228174Y0048310D01*
X0227872Y0048359D01*
X0227569Y0048401D01*
X0227264Y0048436D01*
X0226960Y0048463D01*
X0226654Y0048483D01*
X0226348Y0048495D01*
X0226042Y0048500D01*
X0225736Y0048497D01*
X0225430Y0048487D01*
X0225124Y0048469D01*
X0224819Y0048444D01*
X0224515Y0048411D01*
X0224211Y0048371D01*
X0223909Y0048324D01*
X0223608Y0048269D01*
X0223308Y0048207D01*
X0223010Y0048137D01*
X0222714Y0048060D01*
X0222419Y0047976D01*
X0222127Y0047885D01*
X0221837Y0047786D01*
X0221550Y0047681D01*
X0221265Y0047569D01*
X0220983Y0047449D01*
X0220704Y0047323D01*
X0220429Y0047190D01*
X0220156Y0047050D01*
X0219887Y0046904D01*
X0219622Y0046751D01*
X0219361Y0046591D01*
X0219104Y0046425D01*
X0218850Y0046253D01*
X0218601Y0046075D01*
X0218357Y0045891D01*
X0218117Y0045701D01*
X0217882Y0045505D01*
X0217651Y0045303D01*
X0217426Y0045096D01*
X0217206Y0044883D01*
X0216991Y0044665D01*
X0216782Y0044442D01*
X0216578Y0044214D01*
X0216379Y0043981D01*
X0216187Y0043743D01*
X0216000Y0043500D01*
D13*
X0216000Y0036000D02*
X0216003Y0036245D01*
X0216012Y0036491D01*
X0216027Y0036736D01*
X0216048Y0036980D01*
X0216075Y0037224D01*
X0216108Y0037467D01*
X0216147Y0037710D01*
X0216192Y0037951D01*
X0216243Y0038191D01*
X0216300Y0038430D01*
X0216362Y0038667D01*
X0216431Y0038903D01*
X0216505Y0039137D01*
X0216585Y0039369D01*
X0216670Y0039599D01*
X0216761Y0039827D01*
X0216858Y0040052D01*
X0216960Y0040276D01*
X0217068Y0040496D01*
X0217181Y0040714D01*
X0217299Y0040929D01*
X0217423Y0041141D01*
X0217551Y0041350D01*
X0217685Y0041556D01*
X0217824Y0041758D01*
X0217968Y0041957D01*
X0218117Y0042152D01*
X0218270Y0042344D01*
X0218428Y0042532D01*
X0218590Y0042716D01*
X0218758Y0042895D01*
X0218929Y0043071D01*
X0219105Y0043242D01*
X0219284Y0043410D01*
X0219468Y0043572D01*
X0219656Y0043730D01*
X0219848Y0043883D01*
X0220043Y0044032D01*
X0220242Y0044176D01*
X0220444Y0044315D01*
X0220650Y0044449D01*
X0220859Y0044577D01*
X0221071Y0044701D01*
X0221286Y0044819D01*
X0221504Y0044932D01*
X0221724Y0045040D01*
X0221948Y0045142D01*
X0222173Y0045239D01*
X0222401Y0045330D01*
X0222631Y0045415D01*
X0222863Y0045495D01*
X0223097Y0045569D01*
X0223333Y0045638D01*
X0223570Y0045700D01*
X0223809Y0045757D01*
X0224049Y0045808D01*
X0224290Y0045853D01*
X0224533Y0045892D01*
X0224776Y0045925D01*
X0225020Y0045952D01*
X0225264Y0045973D01*
X0225509Y0045988D01*
X0225755Y0045997D01*
X0226000Y0046000D01*
X0226245Y0045997D01*
X0226491Y0045988D01*
X0226736Y0045973D01*
X0226980Y0045952D01*
X0227224Y0045925D01*
X0227467Y0045892D01*
X0227710Y0045853D01*
X0227951Y0045808D01*
X0228191Y0045757D01*
X0228430Y0045700D01*
X0228667Y0045638D01*
X0228903Y0045569D01*
X0229137Y0045495D01*
X0229369Y0045415D01*
X0229599Y0045330D01*
X0229827Y0045239D01*
X0230052Y0045142D01*
X0230276Y0045040D01*
X0230496Y0044932D01*
X0230714Y0044819D01*
X0230929Y0044701D01*
X0231141Y0044577D01*
X0231350Y0044449D01*
X0231556Y0044315D01*
X0231758Y0044176D01*
X0231957Y0044032D01*
X0232152Y0043883D01*
X0232344Y0043730D01*
X0232532Y0043572D01*
X0232716Y0043410D01*
X0232895Y0043242D01*
X0233071Y0043071D01*
X0233242Y0042895D01*
X0233410Y0042716D01*
X0233572Y0042532D01*
X0233730Y0042344D01*
X0233883Y0042152D01*
X0234032Y0041957D01*
X0234176Y0041758D01*
X0234315Y0041556D01*
X0234449Y0041350D01*
X0234577Y0041141D01*
X0234701Y0040929D01*
X0234819Y0040714D01*
X0234932Y0040496D01*
X0235040Y0040276D01*
X0235142Y0040052D01*
X0235239Y0039827D01*
X0235330Y0039599D01*
X0235415Y0039369D01*
X0235495Y0039137D01*
X0235569Y0038903D01*
X0235638Y0038667D01*
X0235700Y0038430D01*
X0235757Y0038191D01*
X0235808Y0037951D01*
X0235853Y0037710D01*
X0235892Y0037467D01*
X0235925Y0037224D01*
X0235952Y0036980D01*
X0235973Y0036736D01*
X0235988Y0036491D01*
X0235997Y0036245D01*
X0236000Y0036000D01*
X0235997Y0035755D01*
X0235988Y0035509D01*
X0235973Y0035264D01*
X0235952Y0035020D01*
X0235925Y0034776D01*
X0235892Y0034533D01*
X0235853Y0034290D01*
X0235808Y0034049D01*
X0235757Y0033809D01*
X0235700Y0033570D01*
X0235638Y0033333D01*
X0235569Y0033097D01*
X0235495Y0032863D01*
X0235415Y0032631D01*
X0235330Y0032401D01*
X0235239Y0032173D01*
X0235142Y0031948D01*
X0235040Y0031724D01*
X0234932Y0031504D01*
X0234819Y0031286D01*
X0234701Y0031071D01*
X0234577Y0030859D01*
X0234449Y0030650D01*
X0234315Y0030444D01*
X0234176Y0030242D01*
X0234032Y0030043D01*
X0233883Y0029848D01*
X0233730Y0029656D01*
X0233572Y0029468D01*
X0233410Y0029284D01*
X0233242Y0029105D01*
X0233071Y0028929D01*
X0232895Y0028758D01*
X0232716Y0028590D01*
X0232532Y0028428D01*
X0232344Y0028270D01*
X0232152Y0028117D01*
X0231957Y0027968D01*
X0231758Y0027824D01*
X0231556Y0027685D01*
X0231350Y0027551D01*
X0231141Y0027423D01*
X0230929Y0027299D01*
X0230714Y0027181D01*
X0230496Y0027068D01*
X0230276Y0026960D01*
X0230052Y0026858D01*
X0229827Y0026761D01*
X0229599Y0026670D01*
X0229369Y0026585D01*
X0229137Y0026505D01*
X0228903Y0026431D01*
X0228667Y0026362D01*
X0228430Y0026300D01*
X0228191Y0026243D01*
X0227951Y0026192D01*
X0227710Y0026147D01*
X0227467Y0026108D01*
X0227224Y0026075D01*
X0226980Y0026048D01*
X0226736Y0026027D01*
X0226491Y0026012D01*
X0226245Y0026003D01*
X0226000Y0026000D01*
X0225755Y0026003D01*
X0225509Y0026012D01*
X0225264Y0026027D01*
X0225020Y0026048D01*
X0224776Y0026075D01*
X0224533Y0026108D01*
X0224290Y0026147D01*
X0224049Y0026192D01*
X0223809Y0026243D01*
X0223570Y0026300D01*
X0223333Y0026362D01*
X0223097Y0026431D01*
X0222863Y0026505D01*
X0222631Y0026585D01*
X0222401Y0026670D01*
X0222173Y0026761D01*
X0221948Y0026858D01*
X0221724Y0026960D01*
X0221504Y0027068D01*
X0221286Y0027181D01*
X0221071Y0027299D01*
X0220859Y0027423D01*
X0220650Y0027551D01*
X0220444Y0027685D01*
X0220242Y0027824D01*
X0220043Y0027968D01*
X0219848Y0028117D01*
X0219656Y0028270D01*
X0219468Y0028428D01*
X0219284Y0028590D01*
X0219105Y0028758D01*
X0218929Y0028929D01*
X0218758Y0029105D01*
X0218590Y0029284D01*
X0218428Y0029468D01*
X0218270Y0029656D01*
X0218117Y0029848D01*
X0217968Y0030043D01*
X0217824Y0030242D01*
X0217685Y0030444D01*
X0217551Y0030650D01*
X0217423Y0030859D01*
X0217299Y0031071D01*
X0217181Y0031286D01*
X0217068Y0031504D01*
X0216960Y0031724D01*
X0216858Y0031948D01*
X0216761Y0032173D01*
X0216670Y0032401D01*
X0216585Y0032631D01*
X0216505Y0032863D01*
X0216431Y0033097D01*
X0216362Y0033333D01*
X0216300Y0033570D01*
X0216243Y0033809D01*
X0216192Y0034049D01*
X0216147Y0034290D01*
X0216108Y0034533D01*
X0216075Y0034776D01*
X0216048Y0035020D01*
X0216027Y0035264D01*
X0216012Y0035509D01*
X0216003Y0035755D01*
X0216000Y0036000D01*
X0258500Y0029500D02*
X0258500Y0022500D01*
X0258502Y0022440D01*
X0258507Y0022379D01*
X0258516Y0022320D01*
X0258529Y0022261D01*
X0258545Y0022202D01*
X0258565Y0022145D01*
X0258588Y0022090D01*
X0258615Y0022035D01*
X0258644Y0021983D01*
X0258677Y0021932D01*
X0258713Y0021883D01*
X0258751Y0021837D01*
X0258793Y0021793D01*
X0258837Y0021751D01*
X0258883Y0021713D01*
X0258932Y0021677D01*
X0258983Y0021644D01*
X0259035Y0021615D01*
X0259090Y0021588D01*
X0259145Y0021565D01*
X0259202Y0021545D01*
X0259261Y0021529D01*
X0259320Y0021516D01*
X0259379Y0021507D01*
X0259440Y0021502D01*
X0259500Y0021500D01*
X0261000Y0021500D01*
X0261500Y0022000D01*
X0280500Y0022000D01*
X0281000Y0021500D01*
X0282500Y0021500D01*
X0282560Y0021502D01*
X0282621Y0021507D01*
X0282680Y0021516D01*
X0282739Y0021529D01*
X0282798Y0021545D01*
X0282855Y0021565D01*
X0282910Y0021588D01*
X0282965Y0021615D01*
X0283017Y0021644D01*
X0283068Y0021677D01*
X0283117Y0021713D01*
X0283163Y0021751D01*
X0283207Y0021793D01*
X0283249Y0021837D01*
X0283287Y0021883D01*
X0283323Y0021932D01*
X0283356Y0021983D01*
X0283385Y0022035D01*
X0283412Y0022090D01*
X0283435Y0022145D01*
X0283455Y0022202D01*
X0283471Y0022261D01*
X0283484Y0022320D01*
X0283493Y0022379D01*
X0283498Y0022440D01*
X0283500Y0022500D01*
X0283500Y0029500D01*
X0283498Y0029560D01*
X0283493Y0029621D01*
X0283484Y0029680D01*
X0283471Y0029739D01*
X0283455Y0029798D01*
X0283435Y0029855D01*
X0283412Y0029910D01*
X0283385Y0029965D01*
X0283356Y0030017D01*
X0283323Y0030068D01*
X0283287Y0030117D01*
X0283249Y0030163D01*
X0283207Y0030207D01*
X0283163Y0030249D01*
X0283117Y0030287D01*
X0283068Y0030323D01*
X0283017Y0030356D01*
X0282965Y0030385D01*
X0282910Y0030412D01*
X0282855Y0030435D01*
X0282798Y0030455D01*
X0282739Y0030471D01*
X0282680Y0030484D01*
X0282621Y0030493D01*
X0282560Y0030498D01*
X0282500Y0030500D01*
X0281000Y0030500D01*
X0280500Y0030000D01*
X0261500Y0030000D01*
X0261000Y0030500D01*
X0259500Y0030500D01*
X0259440Y0030498D01*
X0259379Y0030493D01*
X0259320Y0030484D01*
X0259261Y0030471D01*
X0259202Y0030455D01*
X0259145Y0030435D01*
X0259090Y0030412D01*
X0259035Y0030385D01*
X0258983Y0030356D01*
X0258932Y0030323D01*
X0258883Y0030287D01*
X0258837Y0030249D01*
X0258793Y0030207D01*
X0258751Y0030163D01*
X0258713Y0030117D01*
X0258677Y0030068D01*
X0258644Y0030017D01*
X0258615Y0029965D01*
X0258588Y0029910D01*
X0258565Y0029855D01*
X0258545Y0029798D01*
X0258529Y0029739D01*
X0258516Y0029680D01*
X0258507Y0029621D01*
X0258502Y0029560D01*
X0258500Y0029500D01*
X0161000Y0043500D02*
X0158500Y0041000D01*
X0153500Y0041000D01*
X0151000Y0043500D01*
X0148500Y0041000D01*
X0143500Y0041000D01*
X0141000Y0043500D01*
X0141000Y0048500D01*
X0143500Y0051000D01*
X0148500Y0051000D01*
X0151000Y0048500D01*
X0153500Y0051000D01*
X0158500Y0051000D01*
X0161000Y0048500D01*
X0161000Y0043500D01*
X0151000Y0043500D02*
X0151000Y0048500D01*
X0061000Y0036000D02*
X0061003Y0036245D01*
X0061012Y0036491D01*
X0061027Y0036736D01*
X0061048Y0036980D01*
X0061075Y0037224D01*
X0061108Y0037467D01*
X0061147Y0037710D01*
X0061192Y0037951D01*
X0061243Y0038191D01*
X0061300Y0038430D01*
X0061362Y0038667D01*
X0061431Y0038903D01*
X0061505Y0039137D01*
X0061585Y0039369D01*
X0061670Y0039599D01*
X0061761Y0039827D01*
X0061858Y0040052D01*
X0061960Y0040276D01*
X0062068Y0040496D01*
X0062181Y0040714D01*
X0062299Y0040929D01*
X0062423Y0041141D01*
X0062551Y0041350D01*
X0062685Y0041556D01*
X0062824Y0041758D01*
X0062968Y0041957D01*
X0063117Y0042152D01*
X0063270Y0042344D01*
X0063428Y0042532D01*
X0063590Y0042716D01*
X0063758Y0042895D01*
X0063929Y0043071D01*
X0064105Y0043242D01*
X0064284Y0043410D01*
X0064468Y0043572D01*
X0064656Y0043730D01*
X0064848Y0043883D01*
X0065043Y0044032D01*
X0065242Y0044176D01*
X0065444Y0044315D01*
X0065650Y0044449D01*
X0065859Y0044577D01*
X0066071Y0044701D01*
X0066286Y0044819D01*
X0066504Y0044932D01*
X0066724Y0045040D01*
X0066948Y0045142D01*
X0067173Y0045239D01*
X0067401Y0045330D01*
X0067631Y0045415D01*
X0067863Y0045495D01*
X0068097Y0045569D01*
X0068333Y0045638D01*
X0068570Y0045700D01*
X0068809Y0045757D01*
X0069049Y0045808D01*
X0069290Y0045853D01*
X0069533Y0045892D01*
X0069776Y0045925D01*
X0070020Y0045952D01*
X0070264Y0045973D01*
X0070509Y0045988D01*
X0070755Y0045997D01*
X0071000Y0046000D01*
X0071245Y0045997D01*
X0071491Y0045988D01*
X0071736Y0045973D01*
X0071980Y0045952D01*
X0072224Y0045925D01*
X0072467Y0045892D01*
X0072710Y0045853D01*
X0072951Y0045808D01*
X0073191Y0045757D01*
X0073430Y0045700D01*
X0073667Y0045638D01*
X0073903Y0045569D01*
X0074137Y0045495D01*
X0074369Y0045415D01*
X0074599Y0045330D01*
X0074827Y0045239D01*
X0075052Y0045142D01*
X0075276Y0045040D01*
X0075496Y0044932D01*
X0075714Y0044819D01*
X0075929Y0044701D01*
X0076141Y0044577D01*
X0076350Y0044449D01*
X0076556Y0044315D01*
X0076758Y0044176D01*
X0076957Y0044032D01*
X0077152Y0043883D01*
X0077344Y0043730D01*
X0077532Y0043572D01*
X0077716Y0043410D01*
X0077895Y0043242D01*
X0078071Y0043071D01*
X0078242Y0042895D01*
X0078410Y0042716D01*
X0078572Y0042532D01*
X0078730Y0042344D01*
X0078883Y0042152D01*
X0079032Y0041957D01*
X0079176Y0041758D01*
X0079315Y0041556D01*
X0079449Y0041350D01*
X0079577Y0041141D01*
X0079701Y0040929D01*
X0079819Y0040714D01*
X0079932Y0040496D01*
X0080040Y0040276D01*
X0080142Y0040052D01*
X0080239Y0039827D01*
X0080330Y0039599D01*
X0080415Y0039369D01*
X0080495Y0039137D01*
X0080569Y0038903D01*
X0080638Y0038667D01*
X0080700Y0038430D01*
X0080757Y0038191D01*
X0080808Y0037951D01*
X0080853Y0037710D01*
X0080892Y0037467D01*
X0080925Y0037224D01*
X0080952Y0036980D01*
X0080973Y0036736D01*
X0080988Y0036491D01*
X0080997Y0036245D01*
X0081000Y0036000D01*
X0080997Y0035755D01*
X0080988Y0035509D01*
X0080973Y0035264D01*
X0080952Y0035020D01*
X0080925Y0034776D01*
X0080892Y0034533D01*
X0080853Y0034290D01*
X0080808Y0034049D01*
X0080757Y0033809D01*
X0080700Y0033570D01*
X0080638Y0033333D01*
X0080569Y0033097D01*
X0080495Y0032863D01*
X0080415Y0032631D01*
X0080330Y0032401D01*
X0080239Y0032173D01*
X0080142Y0031948D01*
X0080040Y0031724D01*
X0079932Y0031504D01*
X0079819Y0031286D01*
X0079701Y0031071D01*
X0079577Y0030859D01*
X0079449Y0030650D01*
X0079315Y0030444D01*
X0079176Y0030242D01*
X0079032Y0030043D01*
X0078883Y0029848D01*
X0078730Y0029656D01*
X0078572Y0029468D01*
X0078410Y0029284D01*
X0078242Y0029105D01*
X0078071Y0028929D01*
X0077895Y0028758D01*
X0077716Y0028590D01*
X0077532Y0028428D01*
X0077344Y0028270D01*
X0077152Y0028117D01*
X0076957Y0027968D01*
X0076758Y0027824D01*
X0076556Y0027685D01*
X0076350Y0027551D01*
X0076141Y0027423D01*
X0075929Y0027299D01*
X0075714Y0027181D01*
X0075496Y0027068D01*
X0075276Y0026960D01*
X0075052Y0026858D01*
X0074827Y0026761D01*
X0074599Y0026670D01*
X0074369Y0026585D01*
X0074137Y0026505D01*
X0073903Y0026431D01*
X0073667Y0026362D01*
X0073430Y0026300D01*
X0073191Y0026243D01*
X0072951Y0026192D01*
X0072710Y0026147D01*
X0072467Y0026108D01*
X0072224Y0026075D01*
X0071980Y0026048D01*
X0071736Y0026027D01*
X0071491Y0026012D01*
X0071245Y0026003D01*
X0071000Y0026000D01*
X0070755Y0026003D01*
X0070509Y0026012D01*
X0070264Y0026027D01*
X0070020Y0026048D01*
X0069776Y0026075D01*
X0069533Y0026108D01*
X0069290Y0026147D01*
X0069049Y0026192D01*
X0068809Y0026243D01*
X0068570Y0026300D01*
X0068333Y0026362D01*
X0068097Y0026431D01*
X0067863Y0026505D01*
X0067631Y0026585D01*
X0067401Y0026670D01*
X0067173Y0026761D01*
X0066948Y0026858D01*
X0066724Y0026960D01*
X0066504Y0027068D01*
X0066286Y0027181D01*
X0066071Y0027299D01*
X0065859Y0027423D01*
X0065650Y0027551D01*
X0065444Y0027685D01*
X0065242Y0027824D01*
X0065043Y0027968D01*
X0064848Y0028117D01*
X0064656Y0028270D01*
X0064468Y0028428D01*
X0064284Y0028590D01*
X0064105Y0028758D01*
X0063929Y0028929D01*
X0063758Y0029105D01*
X0063590Y0029284D01*
X0063428Y0029468D01*
X0063270Y0029656D01*
X0063117Y0029848D01*
X0062968Y0030043D01*
X0062824Y0030242D01*
X0062685Y0030444D01*
X0062551Y0030650D01*
X0062423Y0030859D01*
X0062299Y0031071D01*
X0062181Y0031286D01*
X0062068Y0031504D01*
X0061960Y0031724D01*
X0061858Y0031948D01*
X0061761Y0032173D01*
X0061670Y0032401D01*
X0061585Y0032631D01*
X0061505Y0032863D01*
X0061431Y0033097D01*
X0061362Y0033333D01*
X0061300Y0033570D01*
X0061243Y0033809D01*
X0061192Y0034049D01*
X0061147Y0034290D01*
X0061108Y0034533D01*
X0061075Y0034776D01*
X0061048Y0035020D01*
X0061027Y0035264D01*
X0061012Y0035509D01*
X0061003Y0035755D01*
X0061000Y0036000D01*
X0043500Y0029500D02*
X0043500Y0022500D01*
X0043498Y0022440D01*
X0043493Y0022379D01*
X0043484Y0022320D01*
X0043471Y0022261D01*
X0043455Y0022202D01*
X0043435Y0022145D01*
X0043412Y0022090D01*
X0043385Y0022035D01*
X0043356Y0021983D01*
X0043323Y0021932D01*
X0043287Y0021883D01*
X0043249Y0021837D01*
X0043207Y0021793D01*
X0043163Y0021751D01*
X0043117Y0021713D01*
X0043068Y0021677D01*
X0043017Y0021644D01*
X0042965Y0021615D01*
X0042910Y0021588D01*
X0042855Y0021565D01*
X0042798Y0021545D01*
X0042739Y0021529D01*
X0042680Y0021516D01*
X0042621Y0021507D01*
X0042560Y0021502D01*
X0042500Y0021500D01*
X0041000Y0021500D01*
X0040500Y0022000D01*
X0021500Y0022000D01*
X0021000Y0021500D01*
X0019500Y0021500D01*
X0019440Y0021502D01*
X0019379Y0021507D01*
X0019320Y0021516D01*
X0019261Y0021529D01*
X0019202Y0021545D01*
X0019145Y0021565D01*
X0019090Y0021588D01*
X0019035Y0021615D01*
X0018983Y0021644D01*
X0018932Y0021677D01*
X0018883Y0021713D01*
X0018837Y0021751D01*
X0018793Y0021793D01*
X0018751Y0021837D01*
X0018713Y0021883D01*
X0018677Y0021932D01*
X0018644Y0021983D01*
X0018615Y0022035D01*
X0018588Y0022090D01*
X0018565Y0022145D01*
X0018545Y0022202D01*
X0018529Y0022261D01*
X0018516Y0022320D01*
X0018507Y0022379D01*
X0018502Y0022440D01*
X0018500Y0022500D01*
X0018500Y0029500D01*
X0018502Y0029560D01*
X0018507Y0029621D01*
X0018516Y0029680D01*
X0018529Y0029739D01*
X0018545Y0029798D01*
X0018565Y0029855D01*
X0018588Y0029910D01*
X0018615Y0029965D01*
X0018644Y0030017D01*
X0018677Y0030068D01*
X0018713Y0030117D01*
X0018751Y0030163D01*
X0018793Y0030207D01*
X0018837Y0030249D01*
X0018883Y0030287D01*
X0018932Y0030323D01*
X0018983Y0030356D01*
X0019035Y0030385D01*
X0019090Y0030412D01*
X0019145Y0030435D01*
X0019202Y0030455D01*
X0019261Y0030471D01*
X0019320Y0030484D01*
X0019379Y0030493D01*
X0019440Y0030498D01*
X0019500Y0030500D01*
X0021000Y0030500D01*
X0021500Y0030000D01*
X0040500Y0030000D01*
X0041000Y0030500D01*
X0042500Y0030500D01*
X0042560Y0030498D01*
X0042621Y0030493D01*
X0042680Y0030484D01*
X0042739Y0030471D01*
X0042798Y0030455D01*
X0042855Y0030435D01*
X0042910Y0030412D01*
X0042965Y0030385D01*
X0043017Y0030356D01*
X0043068Y0030323D01*
X0043117Y0030287D01*
X0043163Y0030249D01*
X0043207Y0030207D01*
X0043249Y0030163D01*
X0043287Y0030117D01*
X0043323Y0030068D01*
X0043356Y0030017D01*
X0043385Y0029965D01*
X0043412Y0029910D01*
X0043435Y0029855D01*
X0043455Y0029798D01*
X0043471Y0029739D01*
X0043484Y0029680D01*
X0043493Y0029621D01*
X0043498Y0029560D01*
X0043500Y0029500D01*
D14*
X0038549Y0027503D02*
X0038549Y0024501D01*
X0037798Y0023750D01*
X0036297Y0023750D01*
X0035546Y0024501D01*
X0038549Y0027503D01*
X0037798Y0028254D01*
X0036297Y0028254D01*
X0035546Y0027503D01*
X0035546Y0024501D01*
X0033945Y0024501D02*
X0033194Y0023750D01*
X0031693Y0023750D01*
X0030942Y0024501D01*
X0029341Y0024501D02*
X0028590Y0023750D01*
X0027089Y0023750D01*
X0026338Y0024501D01*
X0027839Y0026002D02*
X0028590Y0026002D01*
X0029341Y0025251D01*
X0029341Y0024501D01*
X0028590Y0026002D02*
X0029341Y0026753D01*
X0029341Y0027503D01*
X0028590Y0028254D01*
X0027089Y0028254D01*
X0026338Y0027503D01*
X0030942Y0027503D02*
X0031693Y0028254D01*
X0033194Y0028254D01*
X0033945Y0027503D01*
X0033945Y0026753D01*
X0033194Y0026002D01*
X0033945Y0025251D01*
X0033945Y0024501D01*
X0033194Y0026002D02*
X0032443Y0026002D01*
X0034042Y0019754D02*
X0036294Y0019754D01*
X0037045Y0019003D01*
X0037045Y0017502D01*
X0036294Y0016751D01*
X0034042Y0016751D01*
X0034042Y0015250D02*
X0034042Y0019754D01*
X0035543Y0016751D02*
X0037045Y0015250D01*
X0038646Y0015250D02*
X0041649Y0015250D01*
X0040147Y0015250D02*
X0040147Y0019754D01*
X0038646Y0018253D01*
X0039397Y0061750D02*
X0038646Y0062501D01*
X0039397Y0063251D01*
X0041649Y0063251D01*
X0041649Y0064002D02*
X0041649Y0061750D01*
X0039397Y0061750D01*
X0039397Y0064753D02*
X0040898Y0064753D01*
X0041649Y0064002D01*
X0031149Y0061250D02*
X0028146Y0061250D01*
X0029647Y0061250D02*
X0029647Y0065754D01*
X0028146Y0064253D01*
X0021649Y0064753D02*
X0019397Y0064753D01*
X0018646Y0064002D01*
X0018646Y0062501D01*
X0019397Y0061750D01*
X0021649Y0061750D01*
X0053746Y0111745D02*
X0053746Y0113997D01*
X0054497Y0114748D01*
X0057499Y0114748D01*
X0058250Y0113997D01*
X0058250Y0111745D01*
X0053746Y0111745D01*
X0053746Y0116349D02*
X0053746Y0117851D01*
X0053746Y0117100D02*
X0058250Y0117100D01*
X0058250Y0116349D02*
X0058250Y0117851D01*
X0058250Y0119419D02*
X0053746Y0119419D01*
X0058250Y0122421D01*
X0053746Y0122421D01*
X0055998Y0124022D02*
X0053746Y0126274D01*
X0058250Y0126274D01*
X0058250Y0128626D02*
X0058250Y0131629D01*
X0058250Y0130128D02*
X0053746Y0130128D01*
X0055247Y0128626D01*
X0055998Y0127025D02*
X0055998Y0124022D01*
X0055998Y0133230D02*
X0055998Y0135482D01*
X0056749Y0136233D01*
X0057499Y0136233D01*
X0058250Y0135482D01*
X0058250Y0133981D01*
X0057499Y0133230D01*
X0055998Y0133230D01*
X0054497Y0134732D01*
X0053746Y0136233D01*
X0055247Y0137834D02*
X0053746Y0139335D01*
X0058250Y0139335D01*
X0058250Y0137834D02*
X0058250Y0140837D01*
X0058250Y0142438D02*
X0055247Y0145441D01*
X0054497Y0145441D01*
X0053746Y0144690D01*
X0053746Y0143189D01*
X0054497Y0142438D01*
X0058250Y0142438D02*
X0058250Y0145441D01*
X0055998Y0147042D02*
X0055998Y0150045D01*
X0056749Y0151646D02*
X0056749Y0153898D01*
X0055998Y0154649D01*
X0054497Y0154649D01*
X0053746Y0153898D01*
X0053746Y0151646D01*
X0058250Y0151646D01*
X0056749Y0153147D02*
X0058250Y0154649D01*
X0083750Y0042854D02*
X0086002Y0042854D01*
X0086753Y0042103D01*
X0086753Y0040602D01*
X0086002Y0039851D01*
X0083750Y0039851D01*
X0083750Y0038350D02*
X0083750Y0042854D01*
X0088354Y0042854D02*
X0088354Y0038350D01*
X0089855Y0039851D01*
X0091356Y0038350D01*
X0091356Y0042854D01*
X0092958Y0042854D02*
X0095210Y0042854D01*
X0095960Y0042103D01*
X0095960Y0040602D01*
X0095210Y0039851D01*
X0092958Y0039851D01*
X0092958Y0038350D02*
X0092958Y0042854D01*
X0094459Y0039851D02*
X0095960Y0038350D01*
X0140950Y0054201D02*
X0141701Y0053450D01*
X0142451Y0053450D01*
X0143202Y0054201D01*
X0143202Y0057954D01*
X0142451Y0057954D02*
X0143953Y0057954D01*
X0145554Y0057954D02*
X0145554Y0053450D01*
X0145554Y0054951D02*
X0147806Y0054951D01*
X0148556Y0055702D01*
X0148556Y0057203D01*
X0147806Y0057954D01*
X0145554Y0057954D01*
X0150158Y0056453D02*
X0151659Y0057954D01*
X0151659Y0053450D01*
X0150158Y0053450D02*
X0153160Y0053450D01*
X0195334Y0033654D02*
X0195334Y0029150D01*
X0195334Y0030651D02*
X0197586Y0030651D01*
X0198337Y0031402D01*
X0198337Y0032903D01*
X0197586Y0033654D01*
X0195334Y0033654D01*
X0199938Y0033654D02*
X0199938Y0029150D01*
X0201439Y0030651D01*
X0202941Y0029150D01*
X0202941Y0033654D01*
X0204542Y0033654D02*
X0206794Y0033654D01*
X0207545Y0032903D01*
X0207545Y0031402D01*
X0206794Y0030651D01*
X0204542Y0030651D01*
X0204542Y0029150D02*
X0204542Y0033654D01*
X0206043Y0030651D02*
X0207545Y0029150D01*
X0209146Y0029150D02*
X0212149Y0029150D01*
X0210647Y0029150D02*
X0210647Y0033654D01*
X0209146Y0032153D01*
X0259250Y0032250D02*
X0259250Y0036754D01*
X0261502Y0036754D01*
X0262253Y0036003D01*
X0262253Y0034502D01*
X0261502Y0033751D01*
X0259250Y0033751D01*
X0260751Y0033751D02*
X0262253Y0032250D01*
X0263854Y0032250D02*
X0266856Y0035253D01*
X0266856Y0036003D01*
X0266106Y0036754D01*
X0264605Y0036754D01*
X0263854Y0036003D01*
X0263854Y0032250D02*
X0266856Y0032250D01*
X0267705Y0028254D02*
X0269206Y0028254D01*
X0269956Y0027503D01*
X0269956Y0026753D01*
X0269206Y0026002D01*
X0269956Y0025251D01*
X0269956Y0024501D01*
X0269206Y0023750D01*
X0267705Y0023750D01*
X0266954Y0024501D01*
X0265353Y0024501D02*
X0264602Y0023750D01*
X0263101Y0023750D01*
X0262350Y0024501D01*
X0263851Y0026002D02*
X0264602Y0026002D01*
X0265353Y0025251D01*
X0265353Y0024501D01*
X0264602Y0026002D02*
X0265353Y0026753D01*
X0265353Y0027503D01*
X0264602Y0028254D01*
X0263101Y0028254D01*
X0262350Y0027503D01*
X0266954Y0027503D02*
X0267705Y0028254D01*
X0268455Y0026002D02*
X0269206Y0026002D01*
X0271558Y0024501D02*
X0271558Y0027503D01*
X0272308Y0028254D01*
X0273810Y0028254D01*
X0274560Y0027503D01*
X0271558Y0024501D01*
X0272308Y0023750D01*
X0273810Y0023750D01*
X0274560Y0024501D01*
X0274560Y0027503D01*
X0271149Y0061250D02*
X0268146Y0061250D01*
X0269647Y0061250D02*
X0269647Y0065754D01*
X0268146Y0064253D01*
X0261649Y0064753D02*
X0259397Y0064753D01*
X0258646Y0064002D01*
X0258646Y0062501D01*
X0259397Y0061750D01*
X0261649Y0061750D01*
X0278646Y0062501D02*
X0279397Y0063251D01*
X0281649Y0063251D01*
X0281649Y0064002D02*
X0281649Y0061750D01*
X0279397Y0061750D01*
X0278646Y0062501D01*
X0279397Y0064753D02*
X0280898Y0064753D01*
X0281649Y0064002D01*
X0293746Y0111745D02*
X0293746Y0113997D01*
X0294497Y0114748D01*
X0297499Y0114748D01*
X0298250Y0113997D01*
X0298250Y0111745D01*
X0293746Y0111745D01*
X0293746Y0116349D02*
X0293746Y0117851D01*
X0293746Y0117100D02*
X0298250Y0117100D01*
X0298250Y0116349D02*
X0298250Y0117851D01*
X0298250Y0119419D02*
X0293746Y0119419D01*
X0298250Y0122421D01*
X0293746Y0122421D01*
X0295998Y0124022D02*
X0293746Y0126274D01*
X0298250Y0126274D01*
X0298250Y0128626D02*
X0298250Y0131629D01*
X0298250Y0130128D02*
X0293746Y0130128D01*
X0295247Y0128626D01*
X0295998Y0127025D02*
X0295998Y0124022D01*
X0295998Y0133230D02*
X0294497Y0134732D01*
X0293746Y0136233D01*
X0295247Y0137834D02*
X0293746Y0139335D01*
X0298250Y0139335D01*
X0298250Y0137834D02*
X0298250Y0140837D01*
X0298250Y0142438D02*
X0295247Y0145441D01*
X0294497Y0145441D01*
X0293746Y0144690D01*
X0293746Y0143189D01*
X0294497Y0142438D01*
X0298250Y0142438D02*
X0298250Y0145441D01*
X0295998Y0147042D02*
X0295998Y0150045D01*
X0296749Y0151646D02*
X0296749Y0153898D01*
X0295998Y0154649D01*
X0294497Y0154649D01*
X0293746Y0153898D01*
X0293746Y0151646D01*
X0298250Y0151646D01*
X0296749Y0153147D02*
X0298250Y0154649D01*
X0297499Y0136233D02*
X0296749Y0136233D01*
X0295998Y0135482D01*
X0295998Y0133230D01*
X0297499Y0133230D01*
X0298250Y0133981D01*
X0298250Y0135482D01*
X0297499Y0136233D01*
X0298750Y0284022D02*
X0294246Y0284022D01*
X0295747Y0285524D01*
X0294246Y0287025D01*
X0298750Y0287025D01*
X0298750Y0288626D02*
X0295747Y0288626D01*
X0294246Y0290128D01*
X0295747Y0291629D01*
X0298750Y0291629D01*
X0298750Y0293230D02*
X0294246Y0293230D01*
X0294246Y0295482D01*
X0294997Y0296233D01*
X0295747Y0296233D01*
X0296498Y0295482D01*
X0296498Y0293230D01*
X0296498Y0291629D02*
X0296498Y0288626D01*
X0298750Y0293230D02*
X0298750Y0295482D01*
X0297999Y0296233D01*
X0297249Y0296233D01*
X0296498Y0295482D01*
X0294997Y0297834D02*
X0297999Y0297834D01*
X0298750Y0298585D01*
X0298750Y0300086D01*
X0297999Y0300837D01*
X0297999Y0302438D02*
X0298750Y0303189D01*
X0298750Y0304690D01*
X0297999Y0305441D01*
X0294997Y0305441D01*
X0294246Y0304690D01*
X0294246Y0303189D01*
X0294997Y0302438D01*
X0295747Y0302438D01*
X0296498Y0303189D01*
X0296498Y0305441D01*
X0296498Y0307042D02*
X0294997Y0308543D01*
X0294246Y0310045D01*
X0294246Y0311646D02*
X0294246Y0313898D01*
X0294997Y0314649D01*
X0296498Y0314649D01*
X0297249Y0313898D01*
X0297249Y0311646D01*
X0298750Y0311646D02*
X0294246Y0311646D01*
X0296498Y0309294D02*
X0296498Y0307042D01*
X0297999Y0307042D01*
X0298750Y0307793D01*
X0298750Y0309294D01*
X0297999Y0310045D01*
X0297249Y0310045D01*
X0296498Y0309294D01*
X0297249Y0313147D02*
X0298750Y0314649D01*
X0294997Y0300837D02*
X0294246Y0300086D01*
X0294246Y0298585D01*
X0294997Y0297834D01*
X0294246Y0376720D02*
X0297249Y0376720D01*
X0298750Y0378222D01*
X0297249Y0379723D01*
X0294246Y0379723D01*
X0295747Y0381324D02*
X0294246Y0382826D01*
X0298750Y0382826D01*
X0298750Y0384327D02*
X0298750Y0381324D01*
X0298750Y0385928D02*
X0298750Y0386679D01*
X0297999Y0386679D01*
X0297999Y0385928D01*
X0298750Y0385928D01*
X0298750Y0388230D02*
X0298750Y0391233D01*
X0298750Y0389732D02*
X0294246Y0389732D01*
X0295747Y0388230D01*
X0295747Y0392834D02*
X0294246Y0394336D01*
X0298750Y0394336D01*
X0298750Y0395837D02*
X0298750Y0392834D01*
X0298750Y0397438D02*
X0294246Y0397438D01*
X0294246Y0399690D01*
X0294997Y0400441D01*
X0295747Y0400441D01*
X0296498Y0399690D01*
X0296498Y0397438D01*
X0298750Y0397438D02*
X0298750Y0399690D01*
X0297999Y0400441D01*
X0297249Y0400441D01*
X0296498Y0399690D01*
X0297999Y0402042D02*
X0294246Y0402042D01*
X0294246Y0405045D02*
X0297999Y0405045D01*
X0298750Y0404294D01*
X0298750Y0402793D01*
X0297999Y0402042D01*
X0297999Y0406646D02*
X0298750Y0407397D01*
X0298750Y0408898D01*
X0297999Y0409649D01*
X0297249Y0409649D01*
X0296498Y0408898D01*
X0296498Y0407397D01*
X0295747Y0406646D01*
X0294997Y0406646D01*
X0294246Y0407397D01*
X0294246Y0408898D01*
X0294997Y0409649D01*
X0276794Y0388753D02*
X0277545Y0388002D01*
X0277545Y0385750D01*
X0275293Y0385750D01*
X0274542Y0386501D01*
X0275293Y0387251D01*
X0277545Y0387251D01*
X0276794Y0388753D02*
X0275293Y0388753D01*
X0274149Y0388753D02*
X0274149Y0389503D01*
X0273398Y0390254D01*
X0271897Y0390254D01*
X0271146Y0389503D01*
X0269545Y0389503D02*
X0269545Y0388753D01*
X0268794Y0388002D01*
X0269545Y0387251D01*
X0269545Y0386501D01*
X0268794Y0385750D01*
X0267293Y0385750D01*
X0266542Y0386501D01*
X0268043Y0388002D02*
X0268794Y0388002D01*
X0269545Y0389503D02*
X0268794Y0390254D01*
X0267293Y0390254D01*
X0266542Y0389503D01*
X0271146Y0385750D02*
X0274149Y0388753D01*
X0274149Y0385750D02*
X0271146Y0385750D01*
X0256545Y0385250D02*
X0254293Y0385250D01*
X0253542Y0386001D01*
X0253542Y0387502D01*
X0254293Y0388253D01*
X0256545Y0388253D01*
X0058750Y0388931D02*
X0058750Y0385928D01*
X0058750Y0387430D02*
X0054246Y0387430D01*
X0055747Y0385928D01*
X0054246Y0384327D02*
X0057249Y0384327D01*
X0058750Y0382826D01*
X0057249Y0381324D01*
X0054246Y0381324D01*
X0057999Y0390532D02*
X0057999Y0391283D01*
X0058750Y0391283D01*
X0058750Y0390532D01*
X0057999Y0390532D01*
X0058750Y0392834D02*
X0055747Y0395837D01*
X0054997Y0395837D01*
X0054246Y0395086D01*
X0054246Y0393585D01*
X0054997Y0392834D01*
X0058750Y0392834D02*
X0058750Y0395837D01*
X0058750Y0397438D02*
X0058750Y0399690D01*
X0057999Y0400441D01*
X0057249Y0400441D01*
X0056498Y0399690D01*
X0056498Y0397438D01*
X0054246Y0397438D02*
X0054246Y0399690D01*
X0054997Y0400441D01*
X0055747Y0400441D01*
X0056498Y0399690D01*
X0057999Y0402042D02*
X0054246Y0402042D01*
X0054246Y0405045D02*
X0057999Y0405045D01*
X0058750Y0404294D01*
X0058750Y0402793D01*
X0057999Y0402042D01*
X0057999Y0406646D02*
X0058750Y0407397D01*
X0058750Y0408898D01*
X0057999Y0409649D01*
X0057249Y0409649D01*
X0056498Y0408898D01*
X0056498Y0407397D01*
X0055747Y0406646D01*
X0054997Y0406646D01*
X0054246Y0407397D01*
X0054246Y0408898D01*
X0054997Y0409649D01*
X0054246Y0397438D02*
X0058750Y0397438D01*
X0037545Y0388002D02*
X0037545Y0385750D01*
X0035293Y0385750D01*
X0034542Y0386501D01*
X0035293Y0387251D01*
X0037545Y0387251D01*
X0037545Y0388002D02*
X0036794Y0388753D01*
X0035293Y0388753D01*
X0034149Y0388753D02*
X0034149Y0389503D01*
X0033398Y0390254D01*
X0031897Y0390254D01*
X0031146Y0389503D01*
X0029545Y0389503D02*
X0029545Y0388753D01*
X0028794Y0388002D01*
X0029545Y0387251D01*
X0029545Y0386501D01*
X0028794Y0385750D01*
X0027293Y0385750D01*
X0026542Y0386501D01*
X0028043Y0388002D02*
X0028794Y0388002D01*
X0029545Y0389503D02*
X0028794Y0390254D01*
X0027293Y0390254D01*
X0026542Y0389503D01*
X0031146Y0385750D02*
X0034149Y0388753D01*
X0034149Y0385750D02*
X0031146Y0385750D01*
X0016545Y0385250D02*
X0014293Y0385250D01*
X0013542Y0386001D01*
X0013542Y0387502D01*
X0014293Y0388253D01*
X0016545Y0388253D01*
X0054997Y0314649D02*
X0054246Y0313898D01*
X0054246Y0311646D01*
X0058750Y0311646D01*
X0057249Y0311646D02*
X0057249Y0313898D01*
X0056498Y0314649D01*
X0054997Y0314649D01*
X0057249Y0313147D02*
X0058750Y0314649D01*
X0057999Y0310045D02*
X0057249Y0310045D01*
X0056498Y0309294D01*
X0056498Y0307042D01*
X0057999Y0307042D01*
X0058750Y0307793D01*
X0058750Y0309294D01*
X0057999Y0310045D01*
X0054997Y0308543D02*
X0056498Y0307042D01*
X0056498Y0305441D02*
X0056498Y0303189D01*
X0055747Y0302438D01*
X0054997Y0302438D01*
X0054246Y0303189D01*
X0054246Y0304690D01*
X0054997Y0305441D01*
X0057999Y0305441D01*
X0058750Y0304690D01*
X0058750Y0303189D01*
X0057999Y0302438D01*
X0057999Y0300837D02*
X0058750Y0300086D01*
X0058750Y0298585D01*
X0057999Y0297834D01*
X0054997Y0297834D01*
X0054246Y0298585D01*
X0054246Y0300086D01*
X0054997Y0300837D01*
X0054997Y0296233D02*
X0054246Y0295482D01*
X0054246Y0293230D01*
X0058750Y0293230D01*
X0058750Y0295482D01*
X0057999Y0296233D01*
X0057249Y0296233D01*
X0056498Y0295482D01*
X0056498Y0293230D01*
X0056498Y0291629D02*
X0056498Y0288626D01*
X0055747Y0288626D02*
X0054246Y0290128D01*
X0055747Y0291629D01*
X0058750Y0291629D01*
X0058750Y0288626D02*
X0055747Y0288626D01*
X0054246Y0287025D02*
X0058750Y0287025D01*
X0058750Y0284022D02*
X0054246Y0284022D01*
X0055747Y0285524D01*
X0054246Y0287025D01*
X0056498Y0295482D02*
X0055747Y0296233D01*
X0054997Y0296233D01*
X0054997Y0308543D02*
X0054246Y0310045D01*
D15*
X0045200Y0026000D03*
X0016800Y0026000D03*
X0256800Y0026000D03*
X0285200Y0026000D03*
M02*
