%
M48
M72
T01C0.01300
T02C0.03150
T03C0.03200
T04C0.03600
T05C0.03937
T06C0.04000
T07C0.04400
T08C0.04500
T09C0.04724
T10C0.12598
%
T01
X214701Y366000
X215951Y321000
X197201Y303500
X209701Y301000
X212201Y353500
X207201Y352250
X202201Y351000
X153451Y189750
X129701Y259750
X138451Y312250
X119701Y239750
X110951Y319750
X99701Y331000
X52201Y343500
X43451Y413500
X328451Y242250
X333451Y232250
X352201Y224750
X357201Y319750
X369701Y341000
X369701Y331000
X369701Y202250
X379701Y213500
X385951Y223500
X395951Y193500
X419701Y234750
X397201Y249750
X410951Y316000
X428451Y403500
X417201Y188500
X398451Y346000
X368451Y347250
X368451Y369750
X329701Y332250
X349701Y354750
X335951Y347250
X313451Y353500
X350951Y378500
X353451Y396000
X327201Y418500
X329701Y424750
X313451Y299750
X312201Y288500
X322201Y302250
X319701Y319750
X299701Y331000
X302201Y342250
X237201Y322250
X227201Y288500
X229701Y281000
X229701Y322250
X220951Y321000
X224701Y317250
X220951Y312250
X234701Y133500
X218451Y346000
X227201Y349750
X237201Y376000
X252201Y354750
X267201Y376000
X267201Y384750
X179701Y447250
X182201Y437250
X170951Y382250
X164701Y356000
X142201Y399750
X147201Y406000
X127201Y434750
X97201Y422250
X60951Y404750
X64701Y406000
X47201Y413500
X75951Y372250
X102201Y359750
X125951Y383500
X182201Y291000
X192201Y282250
X198451Y262250
X175951Y272250
X138451Y157250
X153451Y144750
X138451Y137250
X162201Y127250
X182201Y146000
X292201Y352250
X298451Y386000
X293451Y366000
X117201Y493500
X104701Y426000
X127201Y444750
X60951Y374750
X82201Y289750
X87201Y281000
X92201Y284750
X114701Y159750
X98451Y107250
X194701Y129750
X260951Y308500
X267201Y356000
X279701Y368500
X253451Y387250
X253451Y404750
X272201Y434750
X307201Y416000
X333451Y407250
X403451Y377250
X430951Y306000
X370951Y386000
X370951Y378500
X377201Y368500
X390951Y366000
X393451Y363500
X425951Y397250
X382201Y307250
X394701Y298500
X437201Y302250
X353451Y161000
X353451Y143500
X367201Y136000
X324701Y133500
X329701Y124750
X298451Y107250
X255951Y146000
X260951Y141000
X280951Y132250
X278451Y127250
X272201Y287250
X282201Y276000
X293451Y278500
X277201Y267250
T02
X104543Y591000
X84858Y591000
T03
X404701Y186000
X404701Y176000
X404701Y196000
X404701Y206000
X404701Y216000
X404701Y226000
X404701Y236000
X404701Y246000
X404701Y256000
X404701Y266000
X404701Y276000
X404701Y286000
X404701Y306000
X404701Y296000
X344701Y196000
X344701Y206000
X344701Y216000
X344701Y226000
X344701Y236000
X344701Y246000
X344701Y256000
X344701Y266000
X304701Y256000
X304701Y266000
X304701Y276000
X304701Y286000
X344701Y306000
X344701Y296000
X344701Y286000
X344701Y276000
X304701Y306000
X304701Y296000
X204701Y306000
X219701Y361000
X229701Y361000
X239701Y371000
X244701Y131000
X259701Y371000
X259701Y381000
X239701Y381000
X144701Y186000
X144701Y176000
X144701Y306000
X144701Y296000
X144701Y286000
X144701Y276000
X144701Y266000
X209701Y431000
X209701Y441000
X209701Y451000
X209701Y461000
X209701Y471000
X209701Y481000
X209701Y491000
X209701Y501000
X189701Y476000
X189701Y466000
X164701Y476500
X164701Y495500
X144701Y501000
X104701Y236000
X104701Y246000
X104701Y256000
X104701Y266000
X104701Y276000
X104701Y286000
X104701Y296000
X104701Y306000
X144701Y256000
X144701Y246000
X144701Y236000
X144701Y226000
X144701Y216000
X144701Y206000
X144701Y196000
X144701Y151000
X144701Y141000
X144701Y131000
X144701Y121000
X144701Y111000
X169701Y166000
X169701Y11000
X179701Y11000
X204701Y176000
X204701Y186000
X204701Y196000
X204701Y206000
X204701Y216000
X204701Y226000
X204701Y236000
X204701Y246000
X204701Y256000
X204701Y266000
X204701Y276000
X204701Y286000
X204701Y296000
X244701Y296000
X244701Y306000
X269701Y361000
X259701Y481000
X259701Y491000
X289701Y491000
X289701Y501000
X309701Y471000
X339701Y451000
X339701Y461000
X359701Y481000
X389701Y461000
X409701Y481000
X409701Y491000
X409701Y501000
X409701Y471000
X409701Y461000
X409701Y451000
X309701Y431000
X289701Y391000
X289701Y401000
X289701Y411000
X289701Y431000
X289701Y421000
X309701Y411000
X309701Y421000
X339701Y421000
X339701Y371000
X339701Y381000
X339701Y391000
X359701Y371000
X359701Y381000
X359701Y391000
X359701Y401000
X359701Y411000
X359701Y421000
X379701Y361000
X369701Y361000
X389701Y381000
X389701Y391000
X389701Y401000
X389701Y411000
X359701Y431000
X339701Y411000
X339701Y401000
X309701Y401000
X309701Y391000
X319701Y361000
X329701Y361000
X309701Y371000
X309701Y381000
X289701Y381000
X289701Y371000
X279701Y361000
X289701Y451000
X259701Y451000
X259701Y461000
X259701Y471000
X259701Y501000
X244701Y521000
X204701Y521000
X189701Y506000
X189701Y496000
X164701Y521000
X164701Y591000
X164701Y581000
X164701Y561000
X204701Y591000
X244701Y591000
X244701Y581000
X244701Y561000
X204701Y561000
X204701Y581000
X239701Y501000
X239701Y491000
X239701Y481000
X239701Y471000
X239701Y461000
X239701Y451000
X239701Y441000
X239701Y431000
X209701Y411000
X209701Y401000
X209701Y391000
X209701Y381000
X209701Y371000
X209701Y421000
X239701Y421000
X239701Y411000
X239701Y401000
X259701Y391000
X259701Y401000
X259701Y411000
X259701Y421000
X259701Y431000
X259701Y441000
X289701Y441000
X289701Y461000
X289701Y471000
X289701Y481000
X309701Y481000
X309701Y491000
X309701Y501000
X299701Y526000
X289701Y526000
X359701Y501000
X359701Y491000
X359701Y471000
X359701Y461000
X359701Y451000
X309701Y451000
X309701Y461000
X309701Y441000
X339701Y441000
X339701Y431000
X359701Y441000
X389701Y421000
X389701Y431000
X429701Y361000
X409701Y401000
X409701Y411000
X409701Y421000
X409701Y431000
X409701Y441000
X409701Y391000
X409701Y381000
X409701Y371000
X439701Y371000
X419701Y361000
X439701Y381000
X439701Y411000
X439701Y421000
X439701Y431000
X439701Y441000
X439701Y451000
X439701Y461000
X439701Y471000
X439701Y481000
X439701Y491000
X439701Y501000
X414701Y521000
X339701Y501000
X339701Y491000
X339701Y481000
X339701Y471000
X389701Y471000
X389701Y481000
X389701Y491000
X389701Y501000
X389701Y451000
X389701Y441000
X439701Y391000
X439701Y401000
X389701Y371000
X304701Y246000
X304701Y236000
X304701Y226000
X304701Y216000
X304701Y206000
X304701Y196000
X304701Y186000
X304701Y176000
X304701Y151000
X304701Y141000
X304701Y131000
X304701Y121000
X304701Y111000
X304701Y101000
X304701Y91000
X304701Y81000
X344701Y101000
X344701Y111000
X344701Y121000
X344701Y131000
X344701Y141000
X344701Y151000
X344701Y91000
X344701Y81000
X344701Y71000
X344701Y61000
X344701Y51000
X344701Y41000
X344701Y186000
X344701Y176000
X369701Y166000
X379701Y166000
X404701Y101000
X404701Y91000
X404701Y81000
X404701Y71000
X404701Y61000
X404701Y51000
X404701Y41000
X404701Y31000
X404701Y21000
X379701Y11000
X369701Y11000
X344701Y21000
X344701Y31000
X304701Y41000
X304701Y51000
X304701Y61000
X304701Y71000
X244701Y151000
X244701Y141000
X269701Y166000
X279701Y166000
X244701Y121000
X204701Y121000
X204701Y111000
X204701Y101000
X204701Y91000
X204701Y81000
X204701Y71000
X204701Y61000
X204701Y51000
X204701Y41000
X204701Y31000
X204701Y21000
X244701Y21000
X244701Y31000
X244701Y41000
X244701Y51000
X244701Y206000
X244701Y196000
X244701Y186000
X244701Y176000
X244701Y216000
X244701Y226000
X244701Y236000
X244701Y246000
X244701Y256000
X244701Y266000
X244701Y276000
X244701Y286000
X239701Y391000
X174701Y416000
X14701Y416000
X14701Y501000
X24701Y501000
X34701Y501000
X44701Y501000
X414701Y591000
X414701Y581000
X414701Y561000
X144701Y471000
X134701Y471000
X124701Y471000
X114701Y471000
X104701Y471000
X94701Y471000
X114701Y501000
X124701Y501000
X134701Y501000
X104701Y501000
X94701Y501000
X79701Y416000
X79701Y396000
X69701Y416000
X69701Y446000
X74701Y471000
X54701Y431000
X54701Y416000
X59701Y396000
X49701Y396000
X69701Y396000
X69701Y366000
X79701Y366000
X134701Y416000
X79701Y446000
X84701Y471000
X84701Y501000
X74701Y501000
X64701Y501000
X54701Y556000
X44701Y556000
X34701Y556000
X54701Y501000
X64701Y471000
X54701Y471000
X44701Y471000
X34701Y471000
X24701Y471000
X14701Y471000
X14701Y446000
X14701Y431000
X54701Y446000
X59701Y366000
X49701Y366000
X44701Y306000
X44701Y296000
X44701Y286000
X44701Y276000
X44701Y266000
X44701Y226000
X44701Y216000
X44701Y206000
X44701Y41000
X44701Y51000
X44701Y61000
X44701Y71000
X44701Y236000
X44701Y246000
X44701Y256000
X44701Y196000
X44701Y186000
X44701Y176000
X44701Y151000
X44701Y141000
X44701Y131000
X44701Y121000
X44701Y111000
X44701Y101000
X44701Y91000
X44701Y21000
X44701Y31000
X29701Y56000
X44701Y81000
X29701Y96000
X69701Y166000
X79701Y166000
X104701Y176000
X104701Y186000
X104701Y196000
X104701Y206000
X104701Y216000
X104701Y226000
X104701Y151000
X104701Y141000
X104701Y131000
X104701Y121000
X104701Y111000
X104701Y101000
X104701Y91000
X104701Y81000
X104701Y71000
X104701Y61000
X104701Y51000
X104701Y41000
X104701Y31000
X104701Y21000
X79701Y11000
X69701Y11000
X144701Y71000
X144701Y61000
X144701Y51000
X144701Y41000
X144701Y31000
X144701Y21000
X144701Y81000
X144701Y91000
X144701Y101000
X204701Y131000
X204701Y141000
X204701Y151000
X179701Y166000
X244701Y111000
X244701Y101000
X244701Y91000
X244701Y81000
X244701Y71000
X244701Y61000
X269701Y11000
X279701Y11000
X304701Y21000
X304701Y31000
X404701Y111000
X404701Y121000
X404701Y131000
X404701Y151000
X404701Y141000
T04
X329701Y556000
X434701Y256000
X434701Y266000
X289701Y556000
X299701Y556000
X339701Y556000
X424701Y296000
X434701Y286000
X434701Y276000
X424701Y276000
X424701Y286000
X434701Y296000
X424701Y266000
X424701Y256000
T05
X294701Y581000
T06
X404701Y326000
X414701Y326000
X424701Y326000
X434701Y326000
X414701Y336000
X424701Y336000
X364701Y326000
X364701Y336000
X374701Y326000
X384701Y326000
X394701Y326000
X384701Y336000
X374701Y336000
X354701Y336000
X354701Y326000
X344701Y336000
X334701Y336000
X304701Y326000
X314701Y326000
X274701Y326000
X274701Y336000
X284701Y326000
X284701Y336000
X294701Y326000
X324701Y326000
X314701Y336000
X324701Y336000
X334701Y326000
X344701Y326000
X264701Y336000
X264701Y326000
X254701Y326000
X244701Y336000
X254701Y336000
X244701Y326000
X204701Y336000
X204701Y326000
X294701Y336000
X304701Y336000
X194701Y336000
X184701Y326000
X184701Y336000
X174701Y326000
X174701Y336000
X194701Y326000
X154701Y336000
X164701Y336000
X154701Y326000
X144701Y326000
X144701Y336000
X134701Y326000
X134701Y336000
X114701Y326000
X124701Y326000
X124701Y336000
X114701Y336000
X104701Y326000
X104701Y336000
X94701Y336000
X84701Y336000
X74701Y336000
X74701Y326000
X84701Y326000
X94701Y326000
X54701Y326000
X64701Y326000
X64701Y336000
X54701Y336000
X44701Y336000
X34701Y326000
X44701Y326000
X34701Y336000
X24701Y336000
X24701Y326000
X14701Y326000
X14701Y336000
X29701Y371000
X29701Y381000
X29701Y391000
X394701Y336000
X404701Y336000
X324701Y581000
X314701Y581000
X304701Y581000
X334701Y581000
X344701Y581000
X164701Y326000
X434701Y336000
T07
X54701Y576000
X34701Y576000
T08
X141906Y372142
X141906Y389858
X167496Y372142
X167496Y389858
T09
X80921Y581157
X108480Y581157
T10
X9701Y11000
X439701Y11000
X439701Y591000
X9701Y591000
M30
