G75*
%MOIN*%
%OFA0B0*%
%FSLAX25Y25*%
%IPPOS*%
%LPD*%
%AMOC8*
5,1,8,0,0,1.08239X$1,22.5*
%
%ADD10C,0.04800*%
%ADD11OC8,0.06000*%
%ADD12C,0.04800*%
%ADD13OC8,0.05600*%
%ADD14R,0.05906X0.05906*%
%ADD15C,0.07000*%
%ADD16OC8,0.04800*%
%ADD17C,0.06000*%
%ADD18C,0.05400*%
%ADD19C,0.08661*%
%ADD20C,0.06693*%
%ADD21R,0.07500X0.07500*%
%ADD22C,0.07500*%
%ADD23OC8,0.05400*%
%ADD24C,0.00600*%
%ADD25C,0.02700*%
D10*
X0042301Y0021000D02*
X0047101Y0021000D01*
X0047101Y0031000D02*
X0042301Y0031000D01*
X0042301Y0041000D02*
X0047101Y0041000D01*
X0047101Y0051000D02*
X0042301Y0051000D01*
X0042301Y0061000D02*
X0047101Y0061000D01*
X0047101Y0071000D02*
X0042301Y0071000D01*
X0042301Y0081000D02*
X0047101Y0081000D01*
X0047101Y0091000D02*
X0042301Y0091000D01*
X0042301Y0101000D02*
X0047101Y0101000D01*
X0047101Y0111000D02*
X0042301Y0111000D01*
X0042301Y0121000D02*
X0047101Y0121000D01*
X0047101Y0131000D02*
X0042301Y0131000D01*
X0042301Y0141000D02*
X0047101Y0141000D01*
X0047101Y0151000D02*
X0042301Y0151000D01*
X0042301Y0176000D02*
X0047101Y0176000D01*
X0047101Y0186000D02*
X0042301Y0186000D01*
X0042301Y0196000D02*
X0047101Y0196000D01*
X0047101Y0206000D02*
X0042301Y0206000D01*
X0042301Y0216000D02*
X0047101Y0216000D01*
X0047101Y0226000D02*
X0042301Y0226000D01*
X0042301Y0236000D02*
X0047101Y0236000D01*
X0047101Y0246000D02*
X0042301Y0246000D01*
X0042301Y0256000D02*
X0047101Y0256000D01*
X0047101Y0266000D02*
X0042301Y0266000D01*
X0042301Y0276000D02*
X0047101Y0276000D01*
X0047101Y0286000D02*
X0042301Y0286000D01*
X0042301Y0296000D02*
X0047101Y0296000D01*
X0047101Y0306000D02*
X0042301Y0306000D01*
X0049701Y0363600D02*
X0049701Y0368400D01*
X0059701Y0368400D02*
X0059701Y0363600D01*
X0069701Y0363600D02*
X0069701Y0368400D01*
X0079701Y0368400D02*
X0079701Y0363600D01*
X0079701Y0393600D02*
X0079701Y0398400D01*
X0069701Y0398400D02*
X0069701Y0393600D01*
X0059701Y0393600D02*
X0059701Y0398400D01*
X0049701Y0398400D02*
X0049701Y0393600D01*
X0054701Y0468600D02*
X0054701Y0473400D01*
X0064701Y0473400D02*
X0064701Y0468600D01*
X0074701Y0468600D02*
X0074701Y0473400D01*
X0084701Y0473400D02*
X0084701Y0468600D01*
X0094701Y0468600D02*
X0094701Y0473400D01*
X0104701Y0473400D02*
X0104701Y0468600D01*
X0114701Y0468600D02*
X0114701Y0473400D01*
X0124701Y0473400D02*
X0124701Y0468600D01*
X0134701Y0468600D02*
X0134701Y0473400D01*
X0144701Y0473400D02*
X0144701Y0468600D01*
X0144701Y0498600D02*
X0144701Y0503400D01*
X0134701Y0503400D02*
X0134701Y0498600D01*
X0124701Y0498600D02*
X0124701Y0503400D01*
X0114701Y0503400D02*
X0114701Y0498600D01*
X0104701Y0498600D02*
X0104701Y0503400D01*
X0094701Y0503400D02*
X0094701Y0498600D01*
X0084701Y0498600D02*
X0084701Y0503400D01*
X0074701Y0503400D02*
X0074701Y0498600D01*
X0064701Y0498600D02*
X0064701Y0503400D01*
X0054701Y0503400D02*
X0054701Y0498600D01*
X0044701Y0498600D02*
X0044701Y0503400D01*
X0034701Y0503400D02*
X0034701Y0498600D01*
X0024701Y0498600D02*
X0024701Y0503400D01*
X0014701Y0503400D02*
X0014701Y0498600D01*
X0014701Y0473400D02*
X0014701Y0468600D01*
X0024701Y0468600D02*
X0024701Y0473400D01*
X0034701Y0473400D02*
X0034701Y0468600D01*
X0044701Y0468600D02*
X0044701Y0473400D01*
X0044701Y0553600D02*
X0044701Y0558400D01*
X0034701Y0558400D02*
X0034701Y0553600D01*
X0054701Y0553600D02*
X0054701Y0558400D01*
X0207301Y0501000D02*
X0212101Y0501000D01*
X0212101Y0491000D02*
X0207301Y0491000D01*
X0207301Y0481000D02*
X0212101Y0481000D01*
X0212101Y0471000D02*
X0207301Y0471000D01*
X0207301Y0461000D02*
X0212101Y0461000D01*
X0212101Y0451000D02*
X0207301Y0451000D01*
X0207301Y0441000D02*
X0212101Y0441000D01*
X0212101Y0431000D02*
X0207301Y0431000D01*
X0207301Y0421000D02*
X0212101Y0421000D01*
X0212101Y0411000D02*
X0207301Y0411000D01*
X0207301Y0401000D02*
X0212101Y0401000D01*
X0212101Y0391000D02*
X0207301Y0391000D01*
X0207301Y0381000D02*
X0212101Y0381000D01*
X0212101Y0371000D02*
X0207301Y0371000D01*
X0237301Y0371000D02*
X0242101Y0371000D01*
X0242101Y0381000D02*
X0237301Y0381000D01*
X0237301Y0391000D02*
X0242101Y0391000D01*
X0242101Y0401000D02*
X0237301Y0401000D01*
X0237301Y0411000D02*
X0242101Y0411000D01*
X0242101Y0421000D02*
X0237301Y0421000D01*
X0237301Y0431000D02*
X0242101Y0431000D01*
X0242101Y0441000D02*
X0237301Y0441000D01*
X0237301Y0451000D02*
X0242101Y0451000D01*
X0242101Y0461000D02*
X0237301Y0461000D01*
X0237301Y0471000D02*
X0242101Y0471000D01*
X0242101Y0481000D02*
X0237301Y0481000D01*
X0237301Y0491000D02*
X0242101Y0491000D01*
X0242101Y0501000D02*
X0237301Y0501000D01*
X0257301Y0501000D02*
X0262101Y0501000D01*
X0262101Y0491000D02*
X0257301Y0491000D01*
X0257301Y0481000D02*
X0262101Y0481000D01*
X0262101Y0471000D02*
X0257301Y0471000D01*
X0257301Y0461000D02*
X0262101Y0461000D01*
X0262101Y0451000D02*
X0257301Y0451000D01*
X0257301Y0441000D02*
X0262101Y0441000D01*
X0262101Y0431000D02*
X0257301Y0431000D01*
X0257301Y0421000D02*
X0262101Y0421000D01*
X0262101Y0411000D02*
X0257301Y0411000D01*
X0257301Y0401000D02*
X0262101Y0401000D01*
X0262101Y0391000D02*
X0257301Y0391000D01*
X0257301Y0381000D02*
X0262101Y0381000D01*
X0262101Y0371000D02*
X0257301Y0371000D01*
X0287301Y0371000D02*
X0292101Y0371000D01*
X0292101Y0381000D02*
X0287301Y0381000D01*
X0287301Y0391000D02*
X0292101Y0391000D01*
X0292101Y0401000D02*
X0287301Y0401000D01*
X0287301Y0411000D02*
X0292101Y0411000D01*
X0292101Y0421000D02*
X0287301Y0421000D01*
X0287301Y0431000D02*
X0292101Y0431000D01*
X0292101Y0441000D02*
X0287301Y0441000D01*
X0287301Y0451000D02*
X0292101Y0451000D01*
X0292101Y0461000D02*
X0287301Y0461000D01*
X0287301Y0471000D02*
X0292101Y0471000D01*
X0292101Y0481000D02*
X0287301Y0481000D01*
X0287301Y0491000D02*
X0292101Y0491000D01*
X0292101Y0501000D02*
X0287301Y0501000D01*
X0307301Y0501000D02*
X0312101Y0501000D01*
X0312101Y0491000D02*
X0307301Y0491000D01*
X0307301Y0481000D02*
X0312101Y0481000D01*
X0312101Y0471000D02*
X0307301Y0471000D01*
X0307301Y0461000D02*
X0312101Y0461000D01*
X0312101Y0451000D02*
X0307301Y0451000D01*
X0307301Y0441000D02*
X0312101Y0441000D01*
X0312101Y0431000D02*
X0307301Y0431000D01*
X0307301Y0421000D02*
X0312101Y0421000D01*
X0312101Y0411000D02*
X0307301Y0411000D01*
X0307301Y0401000D02*
X0312101Y0401000D01*
X0312101Y0391000D02*
X0307301Y0391000D01*
X0307301Y0381000D02*
X0312101Y0381000D01*
X0312101Y0371000D02*
X0307301Y0371000D01*
X0337301Y0371000D02*
X0342101Y0371000D01*
X0342101Y0381000D02*
X0337301Y0381000D01*
X0337301Y0391000D02*
X0342101Y0391000D01*
X0342101Y0401000D02*
X0337301Y0401000D01*
X0337301Y0411000D02*
X0342101Y0411000D01*
X0342101Y0421000D02*
X0337301Y0421000D01*
X0337301Y0431000D02*
X0342101Y0431000D01*
X0342101Y0441000D02*
X0337301Y0441000D01*
X0337301Y0451000D02*
X0342101Y0451000D01*
X0342101Y0461000D02*
X0337301Y0461000D01*
X0337301Y0471000D02*
X0342101Y0471000D01*
X0342101Y0481000D02*
X0337301Y0481000D01*
X0337301Y0491000D02*
X0342101Y0491000D01*
X0342101Y0501000D02*
X0337301Y0501000D01*
X0357301Y0501000D02*
X0362101Y0501000D01*
X0362101Y0491000D02*
X0357301Y0491000D01*
X0357301Y0481000D02*
X0362101Y0481000D01*
X0362101Y0471000D02*
X0357301Y0471000D01*
X0357301Y0461000D02*
X0362101Y0461000D01*
X0362101Y0451000D02*
X0357301Y0451000D01*
X0357301Y0441000D02*
X0362101Y0441000D01*
X0362101Y0431000D02*
X0357301Y0431000D01*
X0357301Y0421000D02*
X0362101Y0421000D01*
X0362101Y0411000D02*
X0357301Y0411000D01*
X0357301Y0401000D02*
X0362101Y0401000D01*
X0362101Y0391000D02*
X0357301Y0391000D01*
X0357301Y0381000D02*
X0362101Y0381000D01*
X0362101Y0371000D02*
X0357301Y0371000D01*
X0387301Y0371000D02*
X0392101Y0371000D01*
X0392101Y0381000D02*
X0387301Y0381000D01*
X0387301Y0391000D02*
X0392101Y0391000D01*
X0392101Y0401000D02*
X0387301Y0401000D01*
X0387301Y0411000D02*
X0392101Y0411000D01*
X0392101Y0421000D02*
X0387301Y0421000D01*
X0387301Y0431000D02*
X0392101Y0431000D01*
X0392101Y0441000D02*
X0387301Y0441000D01*
X0387301Y0451000D02*
X0392101Y0451000D01*
X0392101Y0461000D02*
X0387301Y0461000D01*
X0387301Y0471000D02*
X0392101Y0471000D01*
X0392101Y0481000D02*
X0387301Y0481000D01*
X0387301Y0491000D02*
X0392101Y0491000D01*
X0392101Y0501000D02*
X0387301Y0501000D01*
X0407301Y0501000D02*
X0412101Y0501000D01*
X0412101Y0491000D02*
X0407301Y0491000D01*
X0407301Y0481000D02*
X0412101Y0481000D01*
X0412101Y0471000D02*
X0407301Y0471000D01*
X0407301Y0461000D02*
X0412101Y0461000D01*
X0412101Y0451000D02*
X0407301Y0451000D01*
X0407301Y0441000D02*
X0412101Y0441000D01*
X0412101Y0431000D02*
X0407301Y0431000D01*
X0407301Y0421000D02*
X0412101Y0421000D01*
X0412101Y0411000D02*
X0407301Y0411000D01*
X0407301Y0401000D02*
X0412101Y0401000D01*
X0412101Y0391000D02*
X0407301Y0391000D01*
X0407301Y0381000D02*
X0412101Y0381000D01*
X0412101Y0371000D02*
X0407301Y0371000D01*
X0437301Y0371000D02*
X0442101Y0371000D01*
X0442101Y0381000D02*
X0437301Y0381000D01*
X0437301Y0391000D02*
X0442101Y0391000D01*
X0442101Y0401000D02*
X0437301Y0401000D01*
X0437301Y0411000D02*
X0442101Y0411000D01*
X0442101Y0421000D02*
X0437301Y0421000D01*
X0437301Y0431000D02*
X0442101Y0431000D01*
X0442101Y0441000D02*
X0437301Y0441000D01*
X0437301Y0451000D02*
X0442101Y0451000D01*
X0442101Y0461000D02*
X0437301Y0461000D01*
X0437301Y0471000D02*
X0442101Y0471000D01*
X0442101Y0481000D02*
X0437301Y0481000D01*
X0437301Y0491000D02*
X0442101Y0491000D01*
X0442101Y0501000D02*
X0437301Y0501000D01*
X0407101Y0306000D02*
X0402301Y0306000D01*
X0402301Y0296000D02*
X0407101Y0296000D01*
X0407101Y0286000D02*
X0402301Y0286000D01*
X0402301Y0276000D02*
X0407101Y0276000D01*
X0407101Y0266000D02*
X0402301Y0266000D01*
X0402301Y0256000D02*
X0407101Y0256000D01*
X0407101Y0246000D02*
X0402301Y0246000D01*
X0402301Y0236000D02*
X0407101Y0236000D01*
X0407101Y0226000D02*
X0402301Y0226000D01*
X0402301Y0216000D02*
X0407101Y0216000D01*
X0407101Y0206000D02*
X0402301Y0206000D01*
X0402301Y0196000D02*
X0407101Y0196000D01*
X0407101Y0186000D02*
X0402301Y0186000D01*
X0402301Y0176000D02*
X0407101Y0176000D01*
X0407101Y0151000D02*
X0402301Y0151000D01*
X0402301Y0141000D02*
X0407101Y0141000D01*
X0407101Y0131000D02*
X0402301Y0131000D01*
X0402301Y0121000D02*
X0407101Y0121000D01*
X0407101Y0111000D02*
X0402301Y0111000D01*
X0402301Y0101000D02*
X0407101Y0101000D01*
X0407101Y0091000D02*
X0402301Y0091000D01*
X0402301Y0081000D02*
X0407101Y0081000D01*
X0407101Y0071000D02*
X0402301Y0071000D01*
X0402301Y0061000D02*
X0407101Y0061000D01*
X0407101Y0051000D02*
X0402301Y0051000D01*
X0402301Y0041000D02*
X0407101Y0041000D01*
X0407101Y0031000D02*
X0402301Y0031000D01*
X0402301Y0021000D02*
X0407101Y0021000D01*
X0347101Y0021000D02*
X0342301Y0021000D01*
X0342301Y0031000D02*
X0347101Y0031000D01*
X0347101Y0041000D02*
X0342301Y0041000D01*
X0342301Y0051000D02*
X0347101Y0051000D01*
X0347101Y0061000D02*
X0342301Y0061000D01*
X0342301Y0071000D02*
X0347101Y0071000D01*
X0347101Y0081000D02*
X0342301Y0081000D01*
X0342301Y0091000D02*
X0347101Y0091000D01*
X0347101Y0101000D02*
X0342301Y0101000D01*
X0342301Y0111000D02*
X0347101Y0111000D01*
X0347101Y0121000D02*
X0342301Y0121000D01*
X0342301Y0131000D02*
X0347101Y0131000D01*
X0347101Y0141000D02*
X0342301Y0141000D01*
X0342301Y0151000D02*
X0347101Y0151000D01*
X0347101Y0176000D02*
X0342301Y0176000D01*
X0342301Y0186000D02*
X0347101Y0186000D01*
X0347101Y0196000D02*
X0342301Y0196000D01*
X0342301Y0206000D02*
X0347101Y0206000D01*
X0347101Y0216000D02*
X0342301Y0216000D01*
X0342301Y0226000D02*
X0347101Y0226000D01*
X0347101Y0236000D02*
X0342301Y0236000D01*
X0342301Y0246000D02*
X0347101Y0246000D01*
X0347101Y0256000D02*
X0342301Y0256000D01*
X0342301Y0266000D02*
X0347101Y0266000D01*
X0347101Y0276000D02*
X0342301Y0276000D01*
X0342301Y0286000D02*
X0347101Y0286000D01*
X0347101Y0296000D02*
X0342301Y0296000D01*
X0342301Y0306000D02*
X0347101Y0306000D01*
X0307101Y0306000D02*
X0302301Y0306000D01*
X0302301Y0296000D02*
X0307101Y0296000D01*
X0307101Y0286000D02*
X0302301Y0286000D01*
X0302301Y0276000D02*
X0307101Y0276000D01*
X0307101Y0266000D02*
X0302301Y0266000D01*
X0302301Y0256000D02*
X0307101Y0256000D01*
X0307101Y0246000D02*
X0302301Y0246000D01*
X0302301Y0236000D02*
X0307101Y0236000D01*
X0307101Y0226000D02*
X0302301Y0226000D01*
X0302301Y0216000D02*
X0307101Y0216000D01*
X0307101Y0206000D02*
X0302301Y0206000D01*
X0302301Y0196000D02*
X0307101Y0196000D01*
X0307101Y0186000D02*
X0302301Y0186000D01*
X0302301Y0176000D02*
X0307101Y0176000D01*
X0307101Y0151000D02*
X0302301Y0151000D01*
X0302301Y0141000D02*
X0307101Y0141000D01*
X0307101Y0131000D02*
X0302301Y0131000D01*
X0302301Y0121000D02*
X0307101Y0121000D01*
X0307101Y0111000D02*
X0302301Y0111000D01*
X0302301Y0101000D02*
X0307101Y0101000D01*
X0307101Y0091000D02*
X0302301Y0091000D01*
X0302301Y0081000D02*
X0307101Y0081000D01*
X0307101Y0071000D02*
X0302301Y0071000D01*
X0302301Y0061000D02*
X0307101Y0061000D01*
X0307101Y0051000D02*
X0302301Y0051000D01*
X0302301Y0041000D02*
X0307101Y0041000D01*
X0307101Y0031000D02*
X0302301Y0031000D01*
X0302301Y0021000D02*
X0307101Y0021000D01*
X0247101Y0021000D02*
X0242301Y0021000D01*
X0242301Y0031000D02*
X0247101Y0031000D01*
X0247101Y0041000D02*
X0242301Y0041000D01*
X0242301Y0051000D02*
X0247101Y0051000D01*
X0247101Y0061000D02*
X0242301Y0061000D01*
X0242301Y0071000D02*
X0247101Y0071000D01*
X0247101Y0081000D02*
X0242301Y0081000D01*
X0242301Y0091000D02*
X0247101Y0091000D01*
X0247101Y0101000D02*
X0242301Y0101000D01*
X0242301Y0111000D02*
X0247101Y0111000D01*
X0247101Y0121000D02*
X0242301Y0121000D01*
X0242301Y0131000D02*
X0247101Y0131000D01*
X0247101Y0141000D02*
X0242301Y0141000D01*
X0242301Y0151000D02*
X0247101Y0151000D01*
X0247101Y0176000D02*
X0242301Y0176000D01*
X0242301Y0186000D02*
X0247101Y0186000D01*
X0247101Y0196000D02*
X0242301Y0196000D01*
X0242301Y0206000D02*
X0247101Y0206000D01*
X0247101Y0216000D02*
X0242301Y0216000D01*
X0242301Y0226000D02*
X0247101Y0226000D01*
X0247101Y0236000D02*
X0242301Y0236000D01*
X0242301Y0246000D02*
X0247101Y0246000D01*
X0247101Y0256000D02*
X0242301Y0256000D01*
X0242301Y0266000D02*
X0247101Y0266000D01*
X0247101Y0276000D02*
X0242301Y0276000D01*
X0242301Y0286000D02*
X0247101Y0286000D01*
X0247101Y0296000D02*
X0242301Y0296000D01*
X0242301Y0306000D02*
X0247101Y0306000D01*
X0207101Y0306000D02*
X0202301Y0306000D01*
X0202301Y0296000D02*
X0207101Y0296000D01*
X0207101Y0286000D02*
X0202301Y0286000D01*
X0202301Y0276000D02*
X0207101Y0276000D01*
X0207101Y0266000D02*
X0202301Y0266000D01*
X0202301Y0256000D02*
X0207101Y0256000D01*
X0207101Y0246000D02*
X0202301Y0246000D01*
X0202301Y0236000D02*
X0207101Y0236000D01*
X0207101Y0226000D02*
X0202301Y0226000D01*
X0202301Y0216000D02*
X0207101Y0216000D01*
X0207101Y0206000D02*
X0202301Y0206000D01*
X0202301Y0196000D02*
X0207101Y0196000D01*
X0207101Y0186000D02*
X0202301Y0186000D01*
X0202301Y0176000D02*
X0207101Y0176000D01*
X0207101Y0151000D02*
X0202301Y0151000D01*
X0202301Y0141000D02*
X0207101Y0141000D01*
X0207101Y0131000D02*
X0202301Y0131000D01*
X0202301Y0121000D02*
X0207101Y0121000D01*
X0207101Y0111000D02*
X0202301Y0111000D01*
X0202301Y0101000D02*
X0207101Y0101000D01*
X0207101Y0091000D02*
X0202301Y0091000D01*
X0202301Y0081000D02*
X0207101Y0081000D01*
X0207101Y0071000D02*
X0202301Y0071000D01*
X0202301Y0061000D02*
X0207101Y0061000D01*
X0207101Y0051000D02*
X0202301Y0051000D01*
X0202301Y0041000D02*
X0207101Y0041000D01*
X0207101Y0031000D02*
X0202301Y0031000D01*
X0202301Y0021000D02*
X0207101Y0021000D01*
X0147101Y0021000D02*
X0142301Y0021000D01*
X0142301Y0031000D02*
X0147101Y0031000D01*
X0147101Y0041000D02*
X0142301Y0041000D01*
X0142301Y0051000D02*
X0147101Y0051000D01*
X0147101Y0061000D02*
X0142301Y0061000D01*
X0142301Y0071000D02*
X0147101Y0071000D01*
X0147101Y0081000D02*
X0142301Y0081000D01*
X0142301Y0091000D02*
X0147101Y0091000D01*
X0147101Y0101000D02*
X0142301Y0101000D01*
X0142301Y0111000D02*
X0147101Y0111000D01*
X0147101Y0121000D02*
X0142301Y0121000D01*
X0142301Y0131000D02*
X0147101Y0131000D01*
X0147101Y0141000D02*
X0142301Y0141000D01*
X0142301Y0151000D02*
X0147101Y0151000D01*
X0147101Y0176000D02*
X0142301Y0176000D01*
X0142301Y0186000D02*
X0147101Y0186000D01*
X0147101Y0196000D02*
X0142301Y0196000D01*
X0142301Y0206000D02*
X0147101Y0206000D01*
X0147101Y0216000D02*
X0142301Y0216000D01*
X0142301Y0226000D02*
X0147101Y0226000D01*
X0147101Y0236000D02*
X0142301Y0236000D01*
X0142301Y0246000D02*
X0147101Y0246000D01*
X0147101Y0256000D02*
X0142301Y0256000D01*
X0142301Y0266000D02*
X0147101Y0266000D01*
X0147101Y0276000D02*
X0142301Y0276000D01*
X0142301Y0286000D02*
X0147101Y0286000D01*
X0147101Y0296000D02*
X0142301Y0296000D01*
X0142301Y0306000D02*
X0147101Y0306000D01*
X0107101Y0306000D02*
X0102301Y0306000D01*
X0102301Y0296000D02*
X0107101Y0296000D01*
X0107101Y0286000D02*
X0102301Y0286000D01*
X0102301Y0276000D02*
X0107101Y0276000D01*
X0107101Y0266000D02*
X0102301Y0266000D01*
X0102301Y0256000D02*
X0107101Y0256000D01*
X0107101Y0246000D02*
X0102301Y0246000D01*
X0102301Y0236000D02*
X0107101Y0236000D01*
X0107101Y0226000D02*
X0102301Y0226000D01*
X0102301Y0216000D02*
X0107101Y0216000D01*
X0107101Y0206000D02*
X0102301Y0206000D01*
X0102301Y0196000D02*
X0107101Y0196000D01*
X0107101Y0186000D02*
X0102301Y0186000D01*
X0102301Y0176000D02*
X0107101Y0176000D01*
X0107101Y0151000D02*
X0102301Y0151000D01*
X0102301Y0141000D02*
X0107101Y0141000D01*
X0107101Y0131000D02*
X0102301Y0131000D01*
X0102301Y0121000D02*
X0107101Y0121000D01*
X0107101Y0111000D02*
X0102301Y0111000D01*
X0102301Y0101000D02*
X0107101Y0101000D01*
X0107101Y0091000D02*
X0102301Y0091000D01*
X0102301Y0081000D02*
X0107101Y0081000D01*
X0107101Y0071000D02*
X0102301Y0071000D01*
X0102301Y0061000D02*
X0107101Y0061000D01*
X0107101Y0051000D02*
X0102301Y0051000D01*
X0102301Y0041000D02*
X0107101Y0041000D01*
X0107101Y0031000D02*
X0102301Y0031000D01*
X0102301Y0021000D02*
X0107101Y0021000D01*
D11*
X0104701Y0326000D03*
X0114701Y0326000D03*
X0124701Y0326000D03*
X0134701Y0326000D03*
X0134701Y0336000D03*
X0124701Y0336000D03*
X0114701Y0336000D03*
X0104701Y0336000D03*
X0094701Y0336000D03*
X0094701Y0326000D03*
X0084701Y0326000D03*
X0084701Y0336000D03*
X0074701Y0336000D03*
X0074701Y0326000D03*
X0064701Y0326000D03*
X0064701Y0336000D03*
X0054701Y0336000D03*
X0054701Y0326000D03*
X0044701Y0326000D03*
X0044701Y0336000D03*
X0034701Y0336000D03*
X0034701Y0326000D03*
X0024701Y0326000D03*
X0024701Y0336000D03*
X0014701Y0336000D03*
X0014701Y0326000D03*
X0144701Y0326000D03*
X0154701Y0326000D03*
X0164701Y0326000D03*
X0174701Y0326000D03*
X0184701Y0326000D03*
X0184701Y0336000D03*
X0174701Y0336000D03*
X0164701Y0336000D03*
X0154701Y0336000D03*
X0144701Y0336000D03*
X0194701Y0336000D03*
X0204701Y0336000D03*
X0204701Y0326000D03*
X0194701Y0326000D03*
X0244701Y0326000D03*
X0254701Y0326000D03*
X0264701Y0326000D03*
X0274701Y0326000D03*
X0274701Y0336000D03*
X0264701Y0336000D03*
X0254701Y0336000D03*
X0244701Y0336000D03*
X0284701Y0336000D03*
X0294701Y0336000D03*
X0304701Y0336000D03*
X0314701Y0336000D03*
X0314701Y0326000D03*
X0304701Y0326000D03*
X0294701Y0326000D03*
X0284701Y0326000D03*
X0324701Y0326000D03*
X0334701Y0326000D03*
X0344701Y0326000D03*
X0354701Y0326000D03*
X0364701Y0326000D03*
X0364701Y0336000D03*
X0354701Y0336000D03*
X0344701Y0336000D03*
X0334701Y0336000D03*
X0324701Y0336000D03*
X0374701Y0336000D03*
X0384701Y0336000D03*
X0394701Y0336000D03*
X0404701Y0336000D03*
X0404701Y0326000D03*
X0394701Y0326000D03*
X0384701Y0326000D03*
X0374701Y0326000D03*
X0414701Y0326000D03*
X0424701Y0326000D03*
X0434701Y0326000D03*
X0434701Y0336000D03*
X0424701Y0336000D03*
X0414701Y0336000D03*
D12*
X0164701Y0476500D03*
X0164701Y0495500D03*
D13*
X0189701Y0496000D03*
X0189701Y0506000D03*
X0189701Y0476000D03*
X0189701Y0466000D03*
X0219701Y0361000D03*
X0229701Y0361000D03*
X0269701Y0361000D03*
X0279701Y0361000D03*
X0319701Y0361000D03*
X0329701Y0361000D03*
X0369701Y0361000D03*
X0379701Y0361000D03*
X0419701Y0361000D03*
X0429701Y0361000D03*
X0299701Y0526000D03*
X0289701Y0526000D03*
X0079701Y0446000D03*
X0069701Y0446000D03*
X0069701Y0416000D03*
X0079701Y0416000D03*
X0079701Y0166000D03*
X0069701Y0166000D03*
X0169701Y0166000D03*
X0179701Y0166000D03*
X0269701Y0166000D03*
X0279701Y0166000D03*
X0369701Y0166000D03*
X0379701Y0166000D03*
X0379701Y0011000D03*
X0369701Y0011000D03*
X0279701Y0011000D03*
X0269701Y0011000D03*
X0179701Y0011000D03*
X0169701Y0011000D03*
X0079701Y0011000D03*
X0069701Y0011000D03*
D14*
X0294701Y0581000D03*
D15*
X0304701Y0581000D03*
X0314701Y0581000D03*
X0324701Y0581000D03*
X0334701Y0581000D03*
X0344701Y0581000D03*
X0054701Y0576000D03*
X0034701Y0576000D03*
D16*
X0054701Y0446000D03*
X0054701Y0431000D03*
X0054701Y0416000D03*
X0014701Y0416000D03*
X0014701Y0431000D03*
X0014701Y0446000D03*
X0134701Y0416000D03*
X0174701Y0416000D03*
X0164701Y0521000D03*
X0164701Y0561000D03*
X0164701Y0581000D03*
X0164701Y0591000D03*
X0204701Y0591000D03*
X0204701Y0581000D03*
X0204701Y0561000D03*
X0204701Y0521000D03*
X0244701Y0521000D03*
X0244701Y0561000D03*
X0244701Y0581000D03*
X0244701Y0591000D03*
X0414701Y0591000D03*
X0414701Y0581000D03*
X0414701Y0561000D03*
X0414701Y0521000D03*
X0029701Y0096000D03*
X0029701Y0056000D03*
D17*
X0032701Y0371000D02*
X0026701Y0371000D01*
X0026701Y0381000D02*
X0032701Y0381000D01*
X0032701Y0391000D02*
X0026701Y0391000D01*
D18*
X0289701Y0553300D02*
X0289701Y0558700D01*
X0299701Y0558700D02*
X0299701Y0553300D01*
X0329701Y0553300D02*
X0329701Y0558700D01*
X0339701Y0558700D02*
X0339701Y0553300D01*
D19*
X0108480Y0581157D03*
X0080921Y0581157D03*
D20*
X0084858Y0591000D03*
X0104543Y0591000D03*
D21*
X0141906Y0389858D03*
D22*
X0141906Y0372142D03*
X0167496Y0372142D03*
X0167496Y0389858D03*
D23*
X0424701Y0296000D03*
X0434701Y0296000D03*
X0434701Y0286000D03*
X0434701Y0276000D03*
X0434701Y0266000D03*
X0434701Y0256000D03*
X0424701Y0256000D03*
X0424701Y0266000D03*
X0424701Y0276000D03*
X0424701Y0286000D03*
D24*
X0040951Y0044750D02*
X0029701Y0056000D01*
X0044701Y0051000D02*
X0048451Y0054750D01*
X0140951Y0054750D01*
X0240951Y0054750D01*
X0340951Y0054750D01*
X0344701Y0051000D01*
X0340951Y0044750D02*
X0240951Y0044750D01*
X0140951Y0044750D01*
X0040951Y0044750D01*
X0044701Y0041000D01*
X0048451Y0034750D02*
X0140951Y0034750D01*
X0240951Y0034750D01*
X0340951Y0034750D01*
X0344701Y0031000D01*
X0344701Y0021000D02*
X0338451Y0014750D01*
X0273451Y0014750D01*
X0269701Y0011000D01*
X0254701Y0011000D01*
X0248451Y0017250D01*
X0175951Y0017250D01*
X0169701Y0011000D01*
X0154701Y0011000D01*
X0148451Y0017250D01*
X0075951Y0017250D01*
X0069701Y0011000D01*
X0054701Y0011000D01*
X0044701Y0021000D01*
X0044701Y0031000D02*
X0048451Y0034750D01*
X0044701Y0061000D02*
X0048451Y0064750D01*
X0140951Y0064750D01*
X0240951Y0064750D01*
X0340951Y0064750D01*
X0344701Y0061000D01*
X0344701Y0071000D02*
X0340951Y0074750D01*
X0240951Y0074750D01*
X0140951Y0074750D01*
X0144701Y0071000D01*
X0140951Y0074750D02*
X0048451Y0074750D01*
X0044701Y0071000D01*
X0044701Y0081000D02*
X0048451Y0084750D01*
X0140951Y0084750D01*
X0240951Y0084750D01*
X0340951Y0084750D01*
X0344701Y0081000D01*
X0344701Y0091000D02*
X0340951Y0094750D01*
X0240951Y0094750D01*
X0140951Y0094750D01*
X0144701Y0091000D01*
X0140951Y0094750D02*
X0048451Y0094750D01*
X0044701Y0091000D01*
X0044701Y0101000D02*
X0048451Y0104750D01*
X0140951Y0104750D01*
X0240951Y0104750D01*
X0340951Y0104750D01*
X0344701Y0101000D01*
X0340951Y0107250D02*
X0298451Y0107250D01*
X0304701Y0111000D02*
X0300951Y0114750D01*
X0400951Y0114750D01*
X0404701Y0111000D01*
X0404701Y0121000D02*
X0379701Y0146000D01*
X0255951Y0146000D01*
X0257201Y0148500D02*
X0258451Y0147250D01*
X0340951Y0147250D01*
X0344701Y0151000D01*
X0352201Y0144750D02*
X0353451Y0143500D01*
X0352201Y0144750D02*
X0300951Y0144750D01*
X0299701Y0143500D01*
X0254701Y0143500D01*
X0253451Y0144750D01*
X0200951Y0144750D01*
X0198451Y0142250D01*
X0145951Y0142250D01*
X0144701Y0141000D01*
X0149701Y0136000D02*
X0144701Y0131000D01*
X0149701Y0136000D02*
X0367201Y0136000D01*
X0372201Y0158500D02*
X0378451Y0164750D01*
X0379701Y0166000D01*
X0389701Y0166000D01*
X0404701Y0151000D01*
X0428451Y0174750D01*
X0432201Y0174750D01*
X0434701Y0177250D01*
X0434701Y0256000D01*
X0424701Y0256000D02*
X0409701Y0241000D01*
X0349701Y0241000D01*
X0344701Y0236000D01*
X0340951Y0239750D01*
X0240951Y0239750D01*
X0140951Y0239750D01*
X0144701Y0236000D01*
X0140951Y0239750D02*
X0119701Y0239750D01*
X0048451Y0239750D01*
X0044701Y0236000D01*
X0048451Y0229750D02*
X0140951Y0229750D01*
X0240951Y0229750D01*
X0340951Y0229750D01*
X0414701Y0229750D01*
X0419701Y0234750D01*
X0404701Y0236000D02*
X0352201Y0236000D01*
X0348451Y0232250D01*
X0333451Y0232250D01*
X0300951Y0232250D01*
X0200951Y0232250D01*
X0204701Y0236000D01*
X0200951Y0232250D02*
X0108451Y0232250D01*
X0104701Y0236000D01*
X0108451Y0242250D02*
X0104701Y0246000D01*
X0108451Y0242250D02*
X0200951Y0242250D01*
X0300951Y0242250D01*
X0328451Y0242250D01*
X0400951Y0242250D01*
X0404701Y0246000D01*
X0400951Y0252250D02*
X0300951Y0252250D01*
X0200951Y0252250D01*
X0204701Y0256000D01*
X0200951Y0252250D02*
X0108451Y0252250D01*
X0104701Y0256000D01*
X0104701Y0266000D02*
X0108451Y0269750D01*
X0200951Y0269750D01*
X0300951Y0269750D01*
X0400951Y0269750D01*
X0404701Y0266000D01*
X0404701Y0256000D02*
X0400951Y0252250D01*
X0397201Y0249750D02*
X0393451Y0246000D01*
X0344701Y0246000D01*
X0340951Y0249750D01*
X0240951Y0249750D01*
X0140951Y0249750D01*
X0144701Y0246000D01*
X0140951Y0249750D02*
X0048451Y0249750D01*
X0044701Y0246000D01*
X0044701Y0256000D02*
X0048451Y0259750D01*
X0129701Y0259750D01*
X0140951Y0259750D01*
X0240951Y0259750D01*
X0340951Y0259750D01*
X0344701Y0256000D01*
X0350951Y0262250D01*
X0420951Y0262250D01*
X0424701Y0266000D01*
X0424701Y0269750D02*
X0427201Y0269750D01*
X0428451Y0268500D01*
X0428451Y0191000D01*
X0349701Y0191000D01*
X0344701Y0186000D01*
X0340951Y0189750D01*
X0240951Y0189750D01*
X0153451Y0189750D01*
X0149701Y0186000D01*
X0144701Y0186000D01*
X0140951Y0189750D01*
X0048451Y0189750D01*
X0044701Y0186000D01*
X0044701Y0176000D02*
X0054701Y0166000D01*
X0069701Y0166000D01*
X0070951Y0167250D01*
X0075951Y0162250D01*
X0165951Y0162250D01*
X0265951Y0162250D01*
X0282201Y0162250D01*
X0283451Y0163500D01*
X0367201Y0163500D01*
X0369701Y0166000D01*
X0373451Y0169750D02*
X0378451Y0164750D01*
X0373451Y0169750D02*
X0283451Y0169750D01*
X0279701Y0166000D01*
X0275951Y0169750D01*
X0175951Y0169750D01*
X0179701Y0166000D01*
X0175951Y0169750D02*
X0083451Y0169750D01*
X0079701Y0166000D01*
X0070951Y0167250D02*
X0083451Y0179750D01*
X0140951Y0179750D01*
X0240951Y0179750D01*
X0340951Y0179750D01*
X0344701Y0176000D01*
X0353451Y0161000D02*
X0154701Y0161000D01*
X0144701Y0151000D01*
X0138451Y0157250D02*
X0060951Y0157250D01*
X0044701Y0141000D01*
X0044701Y0131000D02*
X0058451Y0144750D01*
X0153451Y0144750D01*
X0165951Y0162250D02*
X0169701Y0166000D01*
X0183451Y0151000D02*
X0179701Y0147250D01*
X0108451Y0147250D01*
X0104701Y0151000D01*
X0114701Y0159750D02*
X0053451Y0159750D01*
X0044701Y0151000D01*
X0050951Y0127250D02*
X0162201Y0127250D01*
X0140951Y0104750D02*
X0144701Y0101000D01*
X0140951Y0084750D02*
X0144701Y0081000D01*
X0140951Y0064750D02*
X0144701Y0061000D01*
X0140951Y0054750D02*
X0144701Y0051000D01*
X0140951Y0044750D02*
X0144701Y0041000D01*
X0140951Y0034750D02*
X0144701Y0031000D01*
X0144701Y0021000D02*
X0148451Y0017250D01*
X0175951Y0007250D02*
X0275951Y0007250D01*
X0375951Y0007250D01*
X0379701Y0011000D01*
X0369701Y0011000D02*
X0354701Y0011000D01*
X0344701Y0021000D01*
X0344701Y0041000D02*
X0340951Y0044750D01*
X0304701Y0041000D02*
X0300951Y0037250D01*
X0400951Y0037250D01*
X0404701Y0041000D01*
X0400951Y0047250D02*
X0300951Y0047250D01*
X0200951Y0047250D01*
X0204701Y0051000D01*
X0200951Y0047250D02*
X0108451Y0047250D01*
X0104701Y0051000D01*
X0108451Y0057250D02*
X0200951Y0057250D01*
X0300951Y0057250D01*
X0400951Y0057250D01*
X0404701Y0061000D01*
X0400951Y0067250D02*
X0300951Y0067250D01*
X0200951Y0067250D01*
X0204701Y0071000D01*
X0200951Y0067250D02*
X0108451Y0067250D01*
X0104701Y0071000D01*
X0108451Y0077250D02*
X0200951Y0077250D01*
X0300951Y0077250D01*
X0400951Y0077250D01*
X0404701Y0081000D01*
X0400951Y0087250D02*
X0300951Y0087250D01*
X0200951Y0087250D01*
X0204701Y0091000D01*
X0200951Y0087250D02*
X0108451Y0087250D01*
X0104701Y0091000D01*
X0108451Y0097250D02*
X0200951Y0097250D01*
X0300951Y0097250D01*
X0400951Y0097250D01*
X0404701Y0101000D01*
X0404701Y0091000D02*
X0400951Y0087250D01*
X0404701Y0071000D02*
X0400951Y0067250D01*
X0404701Y0051000D02*
X0400951Y0047250D01*
X0404701Y0031000D02*
X0400951Y0027250D01*
X0300951Y0027250D01*
X0200951Y0027250D01*
X0204701Y0031000D01*
X0200951Y0027250D02*
X0108451Y0027250D01*
X0104701Y0031000D01*
X0108451Y0024750D02*
X0104701Y0021000D01*
X0108451Y0024750D02*
X0200951Y0024750D01*
X0300951Y0024750D01*
X0400951Y0024750D01*
X0404701Y0021000D01*
X0340951Y0107250D02*
X0344701Y0111000D01*
X0344701Y0121000D02*
X0340951Y0124750D01*
X0329701Y0124750D01*
X0324701Y0133500D02*
X0323451Y0134750D01*
X0234701Y0134750D01*
X0234701Y0133500D01*
X0234701Y0134750D02*
X0208451Y0134750D01*
X0204701Y0131000D01*
X0195951Y0129750D02*
X0204701Y0121000D01*
X0200951Y0114750D02*
X0300951Y0114750D01*
X0304701Y0101000D02*
X0300951Y0097250D01*
X0304701Y0091000D02*
X0300951Y0087250D01*
X0304701Y0081000D02*
X0300951Y0077250D01*
X0304701Y0071000D02*
X0300951Y0067250D01*
X0304701Y0061000D02*
X0300951Y0057250D01*
X0304701Y0051000D02*
X0300951Y0047250D01*
X0300951Y0037250D02*
X0200951Y0037250D01*
X0204701Y0041000D01*
X0200951Y0037250D02*
X0108451Y0037250D01*
X0104701Y0041000D01*
X0108451Y0057250D02*
X0104701Y0061000D01*
X0108451Y0077250D02*
X0104701Y0081000D01*
X0108451Y0097250D02*
X0104701Y0101000D01*
X0098451Y0107250D02*
X0240951Y0107250D01*
X0244701Y0111000D01*
X0240951Y0104750D02*
X0244701Y0101000D01*
X0240951Y0094750D02*
X0244701Y0091000D01*
X0240951Y0084750D02*
X0244701Y0081000D01*
X0240951Y0074750D02*
X0244701Y0071000D01*
X0240951Y0064750D02*
X0244701Y0061000D01*
X0240951Y0054750D02*
X0244701Y0051000D01*
X0240951Y0044750D02*
X0244701Y0041000D01*
X0240951Y0034750D02*
X0244701Y0031000D01*
X0244701Y0021000D02*
X0248451Y0017250D01*
X0275951Y0007250D02*
X0279701Y0011000D01*
X0300951Y0024750D02*
X0304701Y0021000D01*
X0300951Y0027250D02*
X0304701Y0031000D01*
X0278451Y0127250D02*
X0340951Y0127250D01*
X0344701Y0131000D01*
X0340951Y0137250D02*
X0138451Y0137250D01*
X0144701Y0176000D02*
X0140951Y0179750D01*
X0144701Y0196000D02*
X0140951Y0199750D01*
X0240951Y0199750D01*
X0340951Y0199750D01*
X0344701Y0196000D01*
X0344701Y0206000D02*
X0372201Y0206000D01*
X0379701Y0213500D01*
X0379701Y0217250D02*
X0343451Y0217250D01*
X0344701Y0216000D01*
X0343451Y0217250D02*
X0340951Y0219750D01*
X0240951Y0219750D01*
X0140951Y0219750D01*
X0144701Y0216000D01*
X0140951Y0219750D02*
X0048451Y0219750D01*
X0044701Y0216000D01*
X0048451Y0209750D02*
X0140951Y0209750D01*
X0240951Y0209750D01*
X0340951Y0209750D01*
X0344701Y0206000D01*
X0348451Y0212250D02*
X0300951Y0212250D01*
X0200951Y0212250D01*
X0204701Y0216000D01*
X0200951Y0212250D02*
X0108451Y0212250D01*
X0104701Y0216000D01*
X0108451Y0222250D02*
X0104701Y0226000D01*
X0108451Y0222250D02*
X0200951Y0222250D01*
X0300951Y0222250D01*
X0348451Y0222250D01*
X0350951Y0224750D01*
X0352201Y0224750D01*
X0350951Y0224750D02*
X0352201Y0226000D01*
X0404701Y0226000D01*
X0404701Y0216000D02*
X0352201Y0216000D01*
X0348451Y0212250D01*
X0344701Y0226000D02*
X0340951Y0229750D01*
X0340951Y0262250D02*
X0198451Y0262250D01*
X0204701Y0266000D02*
X0200951Y0269750D01*
X0208451Y0282250D02*
X0192201Y0282250D01*
X0182201Y0291000D02*
X0407201Y0291000D01*
X0409701Y0293500D01*
X0422201Y0293500D01*
X0424701Y0296000D01*
X0420951Y0292250D02*
X0437201Y0292250D01*
X0439701Y0294750D01*
X0439701Y0313500D01*
X0270951Y0313500D01*
X0259701Y0324750D01*
X0259701Y0336000D01*
X0254701Y0336000D01*
X0249701Y0319750D02*
X0225951Y0319750D01*
X0222201Y0323500D01*
X0208451Y0323500D01*
X0205951Y0321000D01*
X0173451Y0321000D01*
X0169701Y0324750D01*
X0169701Y0336000D01*
X0174701Y0336000D01*
X0164701Y0326000D02*
X0170951Y0319750D01*
X0214701Y0319750D01*
X0215951Y0321000D01*
X0218451Y0318500D02*
X0162201Y0318500D01*
X0154701Y0326000D01*
X0153451Y0317250D02*
X0144701Y0326000D01*
X0138451Y0316000D02*
X0129701Y0324750D01*
X0129701Y0336000D01*
X0128451Y0336000D01*
X0134701Y0342250D01*
X0218451Y0342250D01*
X0220951Y0344750D01*
X0365951Y0344750D01*
X0368451Y0347250D01*
X0369701Y0341000D02*
X0323451Y0341000D01*
X0319701Y0337250D01*
X0319701Y0326000D01*
X0314701Y0326000D01*
X0318451Y0321000D02*
X0319701Y0319750D01*
X0318451Y0321000D02*
X0293451Y0321000D01*
X0289701Y0324750D01*
X0289701Y0336000D01*
X0294701Y0336000D01*
X0299701Y0331000D02*
X0304701Y0326000D01*
X0304701Y0336000D02*
X0312201Y0343500D01*
X0395951Y0343500D01*
X0398451Y0346000D01*
X0398451Y0349750D02*
X0409701Y0338500D01*
X0409701Y0326000D01*
X0414701Y0326000D01*
X0410951Y0316000D02*
X0359701Y0316000D01*
X0359701Y0331000D01*
X0354701Y0336000D01*
X0364701Y0336000D02*
X0369701Y0331000D01*
X0374701Y0326000D02*
X0383451Y0317250D01*
X0392201Y0317250D01*
X0393451Y0318500D01*
X0447201Y0318500D01*
X0447201Y0391000D01*
X0443451Y0394750D01*
X0355951Y0394750D01*
X0354701Y0393500D01*
X0352201Y0393500D01*
X0350951Y0394750D01*
X0263451Y0394750D01*
X0259701Y0391000D01*
X0253451Y0387250D02*
X0293451Y0387250D01*
X0294701Y0388500D01*
X0299701Y0388500D01*
X0300951Y0387250D01*
X0355951Y0387250D01*
X0359701Y0391000D01*
X0362201Y0386000D02*
X0298451Y0386000D01*
X0297201Y0383500D02*
X0304701Y0383500D01*
X0305951Y0384750D01*
X0344701Y0384750D01*
X0350951Y0378500D01*
X0349701Y0376000D02*
X0393451Y0376000D01*
X0394701Y0374750D01*
X0443451Y0374750D01*
X0445951Y0372250D01*
X0445951Y0331000D01*
X0429701Y0331000D01*
X0424701Y0326000D01*
X0434701Y0336000D02*
X0429701Y0341000D01*
X0419701Y0341000D01*
X0419701Y0357250D01*
X0365951Y0357250D01*
X0315951Y0357250D01*
X0273451Y0357250D01*
X0269701Y0361000D01*
X0268451Y0361000D01*
X0264701Y0357250D01*
X0223451Y0357250D01*
X0219701Y0361000D01*
X0214701Y0366000D02*
X0170951Y0366000D01*
X0162201Y0357250D01*
X0045951Y0357250D01*
X0024701Y0336000D01*
X0029701Y0336000D02*
X0034701Y0336000D01*
X0029701Y0336000D02*
X0029701Y0324750D01*
X0033451Y0321000D01*
X0037201Y0321000D01*
X0070951Y0287250D01*
X0084701Y0287250D01*
X0089701Y0282250D01*
X0148451Y0282250D01*
X0152201Y0286000D01*
X0204701Y0286000D01*
X0224701Y0286000D01*
X0227201Y0288500D01*
X0230951Y0283500D02*
X0209701Y0283500D01*
X0208451Y0282250D01*
X0218451Y0292250D02*
X0209701Y0301000D01*
X0204701Y0306000D02*
X0208451Y0309750D01*
X0255951Y0309750D01*
X0259701Y0306000D01*
X0304701Y0306000D01*
X0308451Y0309750D01*
X0400951Y0309750D01*
X0404701Y0306000D01*
X0430951Y0306000D01*
X0437201Y0302250D02*
X0343451Y0302250D01*
X0338451Y0297250D01*
X0305951Y0297250D01*
X0304701Y0296000D01*
X0310951Y0289750D02*
X0312201Y0288500D01*
X0310951Y0289750D02*
X0248451Y0289750D01*
X0244701Y0286000D01*
X0247201Y0278500D02*
X0293451Y0278500D01*
X0300951Y0269750D02*
X0304701Y0266000D01*
X0304701Y0256000D02*
X0300951Y0252250D01*
X0304701Y0246000D02*
X0300951Y0242250D01*
X0304701Y0236000D02*
X0300951Y0232250D01*
X0304701Y0226000D02*
X0300951Y0222250D01*
X0304701Y0216000D02*
X0300951Y0212250D01*
X0304701Y0206000D02*
X0300951Y0202250D01*
X0369701Y0202250D01*
X0400951Y0202250D01*
X0404701Y0206000D01*
X0404701Y0196000D02*
X0400951Y0192250D01*
X0395951Y0192250D01*
X0395951Y0193500D01*
X0395951Y0192250D02*
X0300951Y0192250D01*
X0200951Y0192250D01*
X0204701Y0196000D01*
X0200951Y0192250D02*
X0108451Y0192250D01*
X0104701Y0196000D01*
X0108451Y0202250D02*
X0104701Y0206000D01*
X0108451Y0202250D02*
X0200951Y0202250D01*
X0300951Y0202250D01*
X0304701Y0196000D02*
X0300951Y0192250D01*
X0304701Y0186000D02*
X0300951Y0182250D01*
X0400951Y0182250D01*
X0404701Y0186000D01*
X0414701Y0186000D01*
X0417201Y0188500D01*
X0404701Y0176000D02*
X0430951Y0176000D01*
X0430951Y0279750D01*
X0424701Y0286000D01*
X0420951Y0292250D02*
X0404701Y0276000D01*
X0404701Y0296000D02*
X0402201Y0298500D01*
X0394701Y0298500D01*
X0382201Y0307250D02*
X0345951Y0307250D01*
X0344701Y0306000D01*
X0344701Y0296000D02*
X0340951Y0292250D01*
X0218451Y0292250D01*
X0229701Y0281000D02*
X0339701Y0281000D01*
X0344701Y0276000D01*
X0340951Y0282250D02*
X0232201Y0282250D01*
X0230951Y0283500D01*
X0244701Y0276000D02*
X0247201Y0278500D01*
X0245951Y0267250D02*
X0277201Y0267250D01*
X0282201Y0276000D02*
X0304701Y0276000D01*
X0304701Y0286000D02*
X0303451Y0287250D01*
X0272201Y0287250D01*
X0260951Y0308500D02*
X0249701Y0319750D01*
X0244701Y0306000D02*
X0248451Y0302250D01*
X0322201Y0302250D01*
X0313451Y0299750D02*
X0248451Y0299750D01*
X0244701Y0296000D01*
X0237201Y0322250D02*
X0218451Y0341000D01*
X0300951Y0341000D01*
X0302201Y0342250D01*
X0313451Y0353500D02*
X0317201Y0349750D01*
X0398451Y0349750D01*
X0404701Y0361000D02*
X0379701Y0361000D01*
X0375951Y0364750D01*
X0333451Y0364750D01*
X0317201Y0364750D01*
X0315951Y0363500D01*
X0282201Y0363500D01*
X0279701Y0361000D01*
X0275951Y0364750D01*
X0233451Y0364750D01*
X0229701Y0361000D01*
X0227201Y0349750D02*
X0225951Y0348500D01*
X0205951Y0348500D01*
X0204701Y0347250D01*
X0119701Y0347250D01*
X0109701Y0337250D01*
X0109701Y0326000D01*
X0114701Y0326000D01*
X0112201Y0321000D02*
X0110951Y0319750D01*
X0112201Y0321000D02*
X0119701Y0321000D01*
X0124701Y0326000D01*
X0124701Y0336000D02*
X0128451Y0336000D01*
X0134701Y0336000D02*
X0139701Y0341000D01*
X0218451Y0341000D01*
X0217201Y0344750D02*
X0123451Y0344750D01*
X0114701Y0336000D01*
X0104701Y0336000D02*
X0099701Y0331000D01*
X0099701Y0328500D02*
X0098451Y0328500D01*
X0094701Y0332250D01*
X0094701Y0336000D01*
X0099701Y0328500D02*
X0099701Y0324750D01*
X0107201Y0317250D01*
X0133451Y0317250D01*
X0138451Y0312250D01*
X0138451Y0316000D02*
X0217201Y0316000D01*
X0220951Y0312250D01*
X0224701Y0317250D02*
X0153451Y0317250D01*
X0144701Y0306000D02*
X0140951Y0302250D01*
X0082201Y0302250D01*
X0059701Y0324750D01*
X0059701Y0336000D01*
X0054701Y0336000D01*
X0059701Y0341000D02*
X0064701Y0336000D01*
X0069701Y0337250D02*
X0069701Y0326000D01*
X0064701Y0326000D01*
X0069701Y0337250D02*
X0082201Y0349750D01*
X0200951Y0349750D01*
X0202201Y0351000D01*
X0203451Y0348500D02*
X0100951Y0348500D01*
X0089701Y0337250D01*
X0089701Y0326000D01*
X0094701Y0326000D01*
X0108451Y0309750D02*
X0104701Y0306000D01*
X0108451Y0309750D02*
X0200951Y0309750D01*
X0204701Y0306000D01*
X0197201Y0303500D02*
X0193451Y0299750D01*
X0100951Y0299750D01*
X0104701Y0296000D01*
X0100951Y0299750D02*
X0099701Y0301000D01*
X0069701Y0301000D01*
X0044701Y0326000D01*
X0039701Y0324750D02*
X0039701Y0341000D01*
X0059701Y0341000D01*
X0052201Y0343500D02*
X0062201Y0353500D01*
X0204701Y0353500D01*
X0205951Y0354750D01*
X0210951Y0354750D01*
X0212201Y0353500D01*
X0213451Y0352250D01*
X0292201Y0352250D01*
X0293451Y0366000D02*
X0374701Y0366000D01*
X0377201Y0368500D01*
X0373451Y0371000D02*
X0369701Y0367250D01*
X0300951Y0367250D01*
X0293451Y0374750D01*
X0285951Y0374750D01*
X0279701Y0368500D01*
X0284701Y0366000D02*
X0289701Y0371000D01*
X0284701Y0366000D02*
X0214701Y0366000D01*
X0214701Y0373500D02*
X0213451Y0374750D01*
X0177201Y0374750D01*
X0162201Y0359750D01*
X0102201Y0359750D01*
X0098451Y0377250D02*
X0079701Y0358500D01*
X0040951Y0358500D01*
X0019701Y0337250D01*
X0019701Y0276000D01*
X0044701Y0276000D01*
X0038451Y0272250D02*
X0175951Y0272250D01*
X0204701Y0246000D02*
X0200951Y0242250D01*
X0204701Y0226000D02*
X0200951Y0222250D01*
X0204701Y0206000D02*
X0200951Y0202250D01*
X0204701Y0186000D02*
X0200951Y0182250D01*
X0300951Y0182250D01*
X0304701Y0176000D02*
X0300951Y0172250D01*
X0400951Y0172250D01*
X0404701Y0176000D01*
X0372201Y0158500D02*
X0312201Y0158500D01*
X0308451Y0154750D01*
X0208451Y0154750D01*
X0204701Y0151000D01*
X0183451Y0151000D01*
X0182201Y0146000D02*
X0247201Y0146000D01*
X0249701Y0148500D01*
X0257201Y0148500D01*
X0260951Y0141000D02*
X0304701Y0141000D01*
X0303451Y0132250D02*
X0280951Y0132250D01*
X0265951Y0162250D02*
X0269701Y0166000D01*
X0244701Y0176000D02*
X0240951Y0179750D01*
X0244701Y0186000D02*
X0240951Y0189750D01*
X0244701Y0196000D02*
X0240951Y0199750D01*
X0244701Y0206000D02*
X0240951Y0209750D01*
X0244701Y0216000D02*
X0240951Y0219750D01*
X0244701Y0226000D02*
X0240951Y0229750D01*
X0244701Y0236000D02*
X0240951Y0239750D01*
X0244701Y0246000D02*
X0240951Y0249750D01*
X0244701Y0256000D02*
X0240951Y0259750D01*
X0244701Y0266000D02*
X0245951Y0267250D01*
X0218451Y0318500D02*
X0220951Y0321000D01*
X0225951Y0326000D02*
X0204701Y0326000D01*
X0217201Y0344750D02*
X0218451Y0346000D01*
X0334701Y0346000D01*
X0335951Y0347250D01*
X0329701Y0361000D02*
X0333451Y0364750D01*
X0319701Y0361000D02*
X0315951Y0357250D01*
X0313451Y0377250D02*
X0348451Y0377250D01*
X0349701Y0376000D01*
X0348451Y0374750D02*
X0363451Y0374750D01*
X0368451Y0369750D01*
X0373451Y0371000D02*
X0389701Y0371000D01*
X0390951Y0366000D02*
X0404701Y0366000D01*
X0409701Y0371000D01*
X0407201Y0366000D02*
X0404701Y0363500D01*
X0393451Y0363500D01*
X0404701Y0361000D02*
X0408451Y0364750D01*
X0425951Y0364750D01*
X0429701Y0361000D01*
X0434701Y0366000D02*
X0407201Y0366000D01*
X0403451Y0377250D02*
X0425951Y0377250D01*
X0439701Y0391000D01*
X0428451Y0403500D02*
X0414701Y0417250D01*
X0393451Y0417250D01*
X0389701Y0421000D01*
X0389701Y0431000D02*
X0385951Y0434750D01*
X0272201Y0434750D01*
X0263451Y0424750D02*
X0320951Y0424750D01*
X0327201Y0418500D01*
X0329701Y0424750D02*
X0405951Y0424750D01*
X0409701Y0421000D01*
X0409701Y0411000D02*
X0405951Y0407250D01*
X0333451Y0407250D01*
X0355951Y0404750D02*
X0253451Y0404750D01*
X0252201Y0396000D02*
X0243451Y0387250D01*
X0220951Y0387250D01*
X0213451Y0394750D01*
X0183451Y0394750D01*
X0170951Y0382250D01*
X0174701Y0399750D02*
X0142201Y0399750D01*
X0138451Y0396000D02*
X0125951Y0383500D01*
X0130951Y0379750D02*
X0078451Y0379750D01*
X0070951Y0372250D01*
X0030951Y0372250D01*
X0029701Y0371000D01*
X0025951Y0376000D02*
X0010951Y0391000D01*
X0010951Y0431000D01*
X0014701Y0431000D01*
X0010951Y0442250D02*
X0010951Y0507250D01*
X0030951Y0507250D01*
X0030951Y0559750D01*
X0033451Y0562250D01*
X0074701Y0562250D01*
X0103451Y0591000D01*
X0104543Y0591000D01*
X0054701Y0556000D02*
X0074701Y0536000D01*
X0074701Y0521000D01*
X0164701Y0521000D01*
X0182201Y0507250D02*
X0188451Y0501000D01*
X0209701Y0501000D01*
X0215951Y0494750D01*
X0255951Y0494750D01*
X0259701Y0491000D01*
X0259701Y0501000D02*
X0263451Y0504750D01*
X0283451Y0504750D01*
X0259701Y0481000D01*
X0255951Y0474750D02*
X0305951Y0474750D01*
X0355951Y0474750D01*
X0405951Y0474750D01*
X0409701Y0471000D01*
X0389701Y0481000D02*
X0385951Y0477250D01*
X0435951Y0477250D01*
X0439701Y0481000D01*
X0439701Y0491000D02*
X0435951Y0494750D01*
X0385951Y0494750D01*
X0335951Y0494750D01*
X0293451Y0494750D01*
X0289701Y0491000D01*
X0289701Y0481000D02*
X0285951Y0477250D01*
X0335951Y0477250D01*
X0385951Y0477250D01*
X0389701Y0491000D02*
X0385951Y0494750D01*
X0409701Y0501000D02*
X0409701Y0581000D01*
X0414701Y0581000D01*
X0409701Y0581000D02*
X0344701Y0581000D01*
X0305951Y0504750D02*
X0283451Y0504750D01*
X0285951Y0477250D02*
X0243451Y0477250D01*
X0239701Y0481000D01*
X0235951Y0484750D01*
X0030951Y0484750D01*
X0014701Y0501000D01*
X0024701Y0501000D02*
X0038451Y0487250D01*
X0235951Y0487250D01*
X0239701Y0491000D01*
X0255951Y0474750D02*
X0259701Y0471000D01*
X0255951Y0474750D02*
X0213451Y0474750D01*
X0209701Y0471000D01*
X0203451Y0471000D01*
X0179701Y0447250D01*
X0125951Y0447250D01*
X0120951Y0442250D01*
X0058451Y0442250D01*
X0054701Y0446000D01*
X0039701Y0446000D01*
X0014701Y0471000D01*
X0014701Y0446000D02*
X0029701Y0431000D01*
X0054701Y0431000D01*
X0062201Y0428500D02*
X0047201Y0413500D01*
X0043451Y0413500D02*
X0069701Y0439750D01*
X0208451Y0439750D01*
X0209701Y0441000D01*
X0209701Y0431000D02*
X0207201Y0428500D01*
X0062201Y0428500D01*
X0058451Y0419750D02*
X0083451Y0419750D01*
X0079701Y0416000D01*
X0083451Y0419750D02*
X0170951Y0419750D01*
X0174701Y0416000D01*
X0178451Y0417250D02*
X0173451Y0422250D01*
X0097201Y0422250D01*
X0104701Y0426000D02*
X0284701Y0426000D01*
X0289701Y0431000D01*
X0289701Y0441000D02*
X0285951Y0444750D01*
X0127201Y0444750D01*
X0127201Y0434750D02*
X0235951Y0434750D01*
X0238451Y0437250D01*
X0355951Y0437250D01*
X0359701Y0441000D01*
X0343451Y0454750D02*
X0293451Y0454750D01*
X0289701Y0451000D01*
X0285951Y0454750D01*
X0243451Y0454750D01*
X0239701Y0451000D01*
X0239701Y0441000D02*
X0235951Y0437250D01*
X0182201Y0437250D01*
X0178451Y0417250D02*
X0285951Y0417250D01*
X0289701Y0421000D01*
X0292201Y0416000D02*
X0179701Y0416000D01*
X0169701Y0406000D01*
X0147201Y0406000D01*
X0138451Y0396000D02*
X0234701Y0396000D01*
X0239701Y0391000D01*
X0239701Y0401000D02*
X0235951Y0404750D01*
X0179701Y0404750D01*
X0174701Y0399750D01*
X0170951Y0402250D02*
X0174701Y0406000D01*
X0204701Y0406000D01*
X0209701Y0411000D01*
X0209701Y0391000D02*
X0197201Y0378500D01*
X0082201Y0378500D01*
X0075951Y0372250D01*
X0075951Y0369750D02*
X0073451Y0369750D01*
X0070951Y0372250D01*
X0075951Y0369750D02*
X0079701Y0366000D01*
X0069701Y0366000D02*
X0059701Y0366000D01*
X0049701Y0366000D01*
X0044701Y0366000D01*
X0014701Y0336000D01*
X0024701Y0326000D02*
X0024701Y0318500D01*
X0040951Y0302250D01*
X0045951Y0302250D01*
X0069701Y0278500D01*
X0102201Y0278500D01*
X0104701Y0276000D01*
X0103451Y0284750D02*
X0092201Y0284750D01*
X0087201Y0281000D02*
X0139701Y0281000D01*
X0144701Y0276000D01*
X0144701Y0286000D02*
X0140951Y0289750D01*
X0082201Y0289750D01*
X0072201Y0292250D02*
X0039701Y0324750D01*
X0072201Y0292250D02*
X0140951Y0292250D01*
X0144701Y0296000D01*
X0140951Y0259750D02*
X0144701Y0256000D01*
X0140951Y0229750D02*
X0144701Y0226000D01*
X0140951Y0209750D02*
X0144701Y0206000D01*
X0140951Y0199750D02*
X0048451Y0199750D01*
X0044701Y0196000D01*
X0044701Y0206000D02*
X0048451Y0209750D01*
X0044701Y0226000D02*
X0048451Y0229750D01*
X0038451Y0272250D02*
X0038451Y0117250D01*
X0044701Y0111000D01*
X0044701Y0121000D02*
X0050951Y0127250D01*
X0104701Y0111000D02*
X0108451Y0114750D01*
X0200951Y0114750D01*
X0204701Y0111000D01*
X0204701Y0101000D02*
X0200951Y0097250D01*
X0204701Y0081000D02*
X0200951Y0077250D01*
X0204701Y0061000D02*
X0200951Y0057250D01*
X0200951Y0024750D02*
X0204701Y0021000D01*
X0179701Y0011000D02*
X0175951Y0007250D01*
X0083451Y0007250D01*
X0079701Y0011000D01*
X0108451Y0172250D02*
X0104701Y0176000D01*
X0108451Y0172250D02*
X0200951Y0172250D01*
X0300951Y0172250D01*
X0308451Y0154750D02*
X0304701Y0151000D01*
X0303451Y0132250D02*
X0304701Y0131000D01*
X0340951Y0137250D02*
X0344701Y0141000D01*
X0379701Y0217250D02*
X0385951Y0223500D01*
X0344701Y0266000D02*
X0340951Y0262250D01*
X0340951Y0282250D02*
X0344701Y0286000D01*
X0354701Y0317250D02*
X0283451Y0317250D01*
X0274701Y0326000D01*
X0267201Y0356000D02*
X0348451Y0356000D01*
X0349701Y0354750D01*
X0348451Y0374750D02*
X0347201Y0376000D01*
X0267201Y0376000D01*
X0264701Y0378500D02*
X0262201Y0376000D01*
X0237201Y0376000D01*
X0237201Y0373500D02*
X0214701Y0373500D01*
X0209701Y0381000D02*
X0205951Y0377250D01*
X0098451Y0377250D01*
X0088451Y0397250D02*
X0065951Y0374750D01*
X0060951Y0374750D01*
X0049701Y0376000D02*
X0025951Y0376000D01*
X0029701Y0381000D02*
X0044701Y0381000D01*
X0059701Y0396000D01*
X0062201Y0403500D02*
X0060951Y0404750D01*
X0062201Y0403500D02*
X0074701Y0403500D01*
X0075951Y0402250D01*
X0170951Y0402250D01*
X0169701Y0403500D02*
X0077201Y0403500D01*
X0074701Y0406000D01*
X0064701Y0406000D01*
X0073451Y0402250D02*
X0028451Y0402250D01*
X0014701Y0416000D01*
X0010951Y0442250D02*
X0042201Y0411000D01*
X0129701Y0411000D01*
X0134701Y0416000D01*
X0140951Y0389750D02*
X0141906Y0389858D01*
X0140951Y0389750D02*
X0130951Y0379750D01*
X0164701Y0356000D02*
X0250951Y0356000D01*
X0252201Y0354750D01*
X0239701Y0371000D02*
X0237201Y0373500D01*
X0252201Y0396000D02*
X0304701Y0396000D01*
X0309701Y0401000D01*
X0309701Y0411000D02*
X0307201Y0413500D01*
X0294701Y0413500D01*
X0292201Y0416000D01*
X0289701Y0411000D02*
X0285951Y0414750D01*
X0180951Y0414750D01*
X0169701Y0403500D01*
X0207201Y0352250D02*
X0203451Y0348500D01*
X0225951Y0326000D02*
X0229701Y0322250D01*
X0264701Y0378500D02*
X0287201Y0378500D01*
X0289701Y0381000D01*
X0295951Y0384750D02*
X0297201Y0383500D01*
X0295951Y0384750D02*
X0267201Y0384750D01*
X0285951Y0397250D02*
X0088451Y0397250D01*
X0079701Y0396000D02*
X0073451Y0402250D01*
X0069701Y0396000D02*
X0049701Y0376000D01*
X0049701Y0396000D02*
X0034701Y0396000D01*
X0029701Y0391000D01*
X0054701Y0416000D02*
X0058451Y0419750D01*
X0104701Y0471000D02*
X0110951Y0477250D01*
X0164701Y0477250D01*
X0164701Y0476500D01*
X0164701Y0476000D01*
X0189701Y0476000D01*
X0189701Y0466000D02*
X0204701Y0481000D01*
X0209701Y0481000D01*
X0182201Y0507250D02*
X0100951Y0507250D01*
X0094701Y0501000D01*
X0088451Y0494750D01*
X0060951Y0494750D01*
X0060951Y0502250D01*
X0054701Y0508500D01*
X0034701Y0508500D01*
X0034701Y0556000D01*
X0044701Y0556000D02*
X0057201Y0543500D01*
X0064701Y0543500D01*
X0064701Y0501000D01*
X0074701Y0501000D02*
X0074701Y0521000D01*
X0044701Y0501000D02*
X0038451Y0507250D01*
X0030951Y0507250D01*
X0117201Y0493500D02*
X0118451Y0494750D01*
X0164701Y0494750D01*
X0164701Y0495500D01*
X0259701Y0421000D02*
X0263451Y0424750D01*
X0289701Y0401000D02*
X0285951Y0397250D01*
X0307201Y0416000D02*
X0354701Y0416000D01*
X0359701Y0411000D01*
X0355951Y0404750D02*
X0359701Y0401000D01*
X0353451Y0396000D02*
X0404701Y0396000D01*
X0409701Y0401000D01*
X0409701Y0391000D02*
X0407201Y0388500D01*
X0394701Y0388500D01*
X0392201Y0386000D01*
X0370951Y0386000D01*
X0365951Y0389750D02*
X0362201Y0386000D01*
X0365951Y0389750D02*
X0388451Y0389750D01*
X0389701Y0391000D01*
X0393451Y0384750D02*
X0377201Y0384750D01*
X0370951Y0378500D01*
X0369701Y0361000D02*
X0365951Y0357250D01*
X0339701Y0331000D02*
X0344701Y0326000D01*
X0339701Y0331000D02*
X0330951Y0331000D01*
X0329701Y0332250D01*
X0354701Y0317250D02*
X0357201Y0319750D01*
X0313451Y0377250D02*
X0309701Y0381000D01*
X0339701Y0451000D02*
X0343451Y0454750D01*
X0385951Y0454750D01*
X0435951Y0454750D01*
X0439701Y0451000D01*
X0439701Y0411000D02*
X0425951Y0397250D01*
X0409701Y0381000D02*
X0407201Y0383500D01*
X0394701Y0383500D01*
X0393451Y0384750D01*
X0419701Y0361000D02*
X0419701Y0357250D01*
X0434701Y0366000D02*
X0439701Y0371000D01*
X0389701Y0451000D02*
X0385951Y0454750D01*
X0359701Y0471000D02*
X0355951Y0474750D01*
X0339701Y0481000D02*
X0335951Y0477250D01*
X0335951Y0464750D02*
X0339701Y0461000D01*
X0335951Y0464750D02*
X0293451Y0464750D01*
X0289701Y0461000D01*
X0305951Y0474750D02*
X0309701Y0471000D01*
X0309701Y0501000D02*
X0305951Y0504750D01*
X0335951Y0494750D02*
X0339701Y0491000D01*
X0424701Y0276000D02*
X0424701Y0269750D01*
X0204701Y0176000D02*
X0200951Y0172250D01*
X0200951Y0182250D02*
X0108451Y0182250D01*
X0104701Y0186000D01*
X0103451Y0284750D02*
X0104701Y0286000D01*
X0194701Y0129750D02*
X0195951Y0129750D01*
D25*
X0194701Y0129750D03*
X0182201Y0146000D03*
X0162201Y0127250D03*
X0153451Y0144750D03*
X0138451Y0137250D03*
X0138451Y0157250D03*
X0114701Y0159750D03*
X0098451Y0107250D03*
X0153451Y0189750D03*
X0119701Y0239750D03*
X0129701Y0259750D03*
X0092201Y0284750D03*
X0087201Y0281000D03*
X0082201Y0289750D03*
X0110951Y0319750D03*
X0099701Y0331000D03*
X0102201Y0359750D03*
X0125951Y0383500D03*
X0142201Y0399750D03*
X0147201Y0406000D03*
X0127201Y0434750D03*
X0127201Y0444750D03*
X0104701Y0426000D03*
X0097201Y0422250D03*
X0064701Y0406000D03*
X0060951Y0404750D03*
X0047201Y0413500D03*
X0043451Y0413500D03*
X0060951Y0374750D03*
X0075951Y0372250D03*
X0052201Y0343500D03*
X0138451Y0312250D03*
X0164701Y0356000D03*
X0170951Y0382250D03*
X0202201Y0351000D03*
X0207201Y0352250D03*
X0212201Y0353500D03*
X0218451Y0346000D03*
X0227201Y0349750D03*
X0214701Y0366000D03*
X0237201Y0376000D03*
X0252201Y0354750D03*
X0267201Y0356000D03*
X0279701Y0368500D03*
X0293451Y0366000D03*
X0292201Y0352250D03*
X0302201Y0342250D03*
X0299701Y0331000D03*
X0319701Y0319750D03*
X0322201Y0302250D03*
X0313451Y0299750D03*
X0312201Y0288500D03*
X0293451Y0278500D03*
X0282201Y0276000D03*
X0277201Y0267250D03*
X0272201Y0287250D03*
X0260951Y0308500D03*
X0237201Y0322250D03*
X0229701Y0322250D03*
X0224701Y0317250D03*
X0220951Y0321000D03*
X0215951Y0321000D03*
X0220951Y0312250D03*
X0209701Y0301000D03*
X0197201Y0303500D03*
X0182201Y0291000D03*
X0192201Y0282250D03*
X0175951Y0272250D03*
X0198451Y0262250D03*
X0229701Y0281000D03*
X0227201Y0288500D03*
X0267201Y0376000D03*
X0267201Y0384750D03*
X0253451Y0387250D03*
X0253451Y0404750D03*
X0272201Y0434750D03*
X0298451Y0386000D03*
X0307201Y0416000D03*
X0327201Y0418500D03*
X0329701Y0424750D03*
X0333451Y0407250D03*
X0353451Y0396000D03*
X0350951Y0378500D03*
X0349701Y0354750D03*
X0335951Y0347250D03*
X0329701Y0332250D03*
X0313451Y0353500D03*
X0357201Y0319750D03*
X0369701Y0331000D03*
X0369701Y0341000D03*
X0368451Y0347250D03*
X0368451Y0369750D03*
X0370951Y0378500D03*
X0377201Y0368500D03*
X0390951Y0366000D03*
X0393451Y0363500D03*
X0403451Y0377250D03*
X0398451Y0346000D03*
X0410951Y0316000D03*
X0430951Y0306000D03*
X0437201Y0302250D03*
X0397201Y0249750D03*
X0385951Y0223500D03*
X0379701Y0213500D03*
X0369701Y0202250D03*
X0352201Y0224750D03*
X0333451Y0232250D03*
X0328451Y0242250D03*
X0382201Y0307250D03*
X0394701Y0298500D03*
X0419701Y0234750D03*
X0395951Y0193500D03*
X0417201Y0188500D03*
X0367201Y0136000D03*
X0353451Y0143500D03*
X0353451Y0161000D03*
X0329701Y0124750D03*
X0324701Y0133500D03*
X0298451Y0107250D03*
X0280951Y0132250D03*
X0278451Y0127250D03*
X0260951Y0141000D03*
X0255951Y0146000D03*
X0234701Y0133500D03*
X0370951Y0386000D03*
X0425951Y0397250D03*
X0428451Y0403500D03*
X0182201Y0437250D03*
X0179701Y0447250D03*
X0117201Y0493500D03*
M02*
