G75*
%MOIN*%
%OFA0B0*%
%FSLAX25Y25*%
%IPPOS*%
%LPD*%
%AMOC8*
5,1,8,0,0,1.08239X$1,22.5*
%
%ADD10C,0.13198*%
%ADD11C,0.05400*%
%ADD12OC8,0.06600*%
%ADD13C,0.05400*%
%ADD14OC8,0.06200*%
%ADD15R,0.06506X0.06506*%
%ADD16C,0.07600*%
%ADD17OC8,0.05400*%
%ADD18C,0.06600*%
%ADD19C,0.06000*%
%ADD20C,0.09000*%
%ADD21C,0.07000*%
%ADD22R,0.08100X0.08100*%
%ADD23C,0.08100*%
%ADD24OC8,0.06000*%
%ADD25C,0.03300*%
D10*
X0009701Y0011000D03*
X0009701Y0591000D03*
X0439701Y0591000D03*
X0439701Y0011000D03*
D11*
X0407101Y0021000D02*
X0402301Y0021000D01*
X0402301Y0031000D02*
X0407101Y0031000D01*
X0407101Y0041000D02*
X0402301Y0041000D01*
X0402301Y0051000D02*
X0407101Y0051000D01*
X0407101Y0061000D02*
X0402301Y0061000D01*
X0402301Y0071000D02*
X0407101Y0071000D01*
X0407101Y0081000D02*
X0402301Y0081000D01*
X0402301Y0091000D02*
X0407101Y0091000D01*
X0407101Y0101000D02*
X0402301Y0101000D01*
X0402301Y0111000D02*
X0407101Y0111000D01*
X0407101Y0121000D02*
X0402301Y0121000D01*
X0402301Y0131000D02*
X0407101Y0131000D01*
X0407101Y0141000D02*
X0402301Y0141000D01*
X0402301Y0151000D02*
X0407101Y0151000D01*
X0407101Y0176000D02*
X0402301Y0176000D01*
X0402301Y0186000D02*
X0407101Y0186000D01*
X0407101Y0196000D02*
X0402301Y0196000D01*
X0402301Y0206000D02*
X0407101Y0206000D01*
X0407101Y0216000D02*
X0402301Y0216000D01*
X0402301Y0226000D02*
X0407101Y0226000D01*
X0407101Y0236000D02*
X0402301Y0236000D01*
X0402301Y0246000D02*
X0407101Y0246000D01*
X0407101Y0256000D02*
X0402301Y0256000D01*
X0402301Y0266000D02*
X0407101Y0266000D01*
X0407101Y0276000D02*
X0402301Y0276000D01*
X0402301Y0286000D02*
X0407101Y0286000D01*
X0407101Y0296000D02*
X0402301Y0296000D01*
X0402301Y0306000D02*
X0407101Y0306000D01*
X0407301Y0371000D02*
X0412101Y0371000D01*
X0412101Y0381000D02*
X0407301Y0381000D01*
X0407301Y0391000D02*
X0412101Y0391000D01*
X0412101Y0401000D02*
X0407301Y0401000D01*
X0407301Y0411000D02*
X0412101Y0411000D01*
X0412101Y0421000D02*
X0407301Y0421000D01*
X0407301Y0431000D02*
X0412101Y0431000D01*
X0412101Y0441000D02*
X0407301Y0441000D01*
X0407301Y0451000D02*
X0412101Y0451000D01*
X0412101Y0461000D02*
X0407301Y0461000D01*
X0407301Y0471000D02*
X0412101Y0471000D01*
X0412101Y0481000D02*
X0407301Y0481000D01*
X0407301Y0491000D02*
X0412101Y0491000D01*
X0412101Y0501000D02*
X0407301Y0501000D01*
X0392101Y0501000D02*
X0387301Y0501000D01*
X0387301Y0491000D02*
X0392101Y0491000D01*
X0392101Y0481000D02*
X0387301Y0481000D01*
X0387301Y0471000D02*
X0392101Y0471000D01*
X0392101Y0461000D02*
X0387301Y0461000D01*
X0387301Y0451000D02*
X0392101Y0451000D01*
X0392101Y0441000D02*
X0387301Y0441000D01*
X0387301Y0431000D02*
X0392101Y0431000D01*
X0392101Y0421000D02*
X0387301Y0421000D01*
X0387301Y0411000D02*
X0392101Y0411000D01*
X0392101Y0401000D02*
X0387301Y0401000D01*
X0387301Y0391000D02*
X0392101Y0391000D01*
X0392101Y0381000D02*
X0387301Y0381000D01*
X0387301Y0371000D02*
X0392101Y0371000D01*
X0362101Y0371000D02*
X0357301Y0371000D01*
X0357301Y0381000D02*
X0362101Y0381000D01*
X0362101Y0391000D02*
X0357301Y0391000D01*
X0357301Y0401000D02*
X0362101Y0401000D01*
X0362101Y0411000D02*
X0357301Y0411000D01*
X0357301Y0421000D02*
X0362101Y0421000D01*
X0362101Y0431000D02*
X0357301Y0431000D01*
X0357301Y0441000D02*
X0362101Y0441000D01*
X0362101Y0451000D02*
X0357301Y0451000D01*
X0357301Y0461000D02*
X0362101Y0461000D01*
X0362101Y0471000D02*
X0357301Y0471000D01*
X0357301Y0481000D02*
X0362101Y0481000D01*
X0362101Y0491000D02*
X0357301Y0491000D01*
X0357301Y0501000D02*
X0362101Y0501000D01*
X0342101Y0501000D02*
X0337301Y0501000D01*
X0337301Y0491000D02*
X0342101Y0491000D01*
X0342101Y0481000D02*
X0337301Y0481000D01*
X0337301Y0471000D02*
X0342101Y0471000D01*
X0342101Y0461000D02*
X0337301Y0461000D01*
X0337301Y0451000D02*
X0342101Y0451000D01*
X0342101Y0441000D02*
X0337301Y0441000D01*
X0337301Y0431000D02*
X0342101Y0431000D01*
X0342101Y0421000D02*
X0337301Y0421000D01*
X0337301Y0411000D02*
X0342101Y0411000D01*
X0342101Y0401000D02*
X0337301Y0401000D01*
X0337301Y0391000D02*
X0342101Y0391000D01*
X0342101Y0381000D02*
X0337301Y0381000D01*
X0337301Y0371000D02*
X0342101Y0371000D01*
X0312101Y0371000D02*
X0307301Y0371000D01*
X0307301Y0381000D02*
X0312101Y0381000D01*
X0312101Y0391000D02*
X0307301Y0391000D01*
X0307301Y0401000D02*
X0312101Y0401000D01*
X0312101Y0411000D02*
X0307301Y0411000D01*
X0307301Y0421000D02*
X0312101Y0421000D01*
X0312101Y0431000D02*
X0307301Y0431000D01*
X0307301Y0441000D02*
X0312101Y0441000D01*
X0312101Y0451000D02*
X0307301Y0451000D01*
X0307301Y0461000D02*
X0312101Y0461000D01*
X0312101Y0471000D02*
X0307301Y0471000D01*
X0307301Y0481000D02*
X0312101Y0481000D01*
X0312101Y0491000D02*
X0307301Y0491000D01*
X0307301Y0501000D02*
X0312101Y0501000D01*
X0292101Y0501000D02*
X0287301Y0501000D01*
X0287301Y0491000D02*
X0292101Y0491000D01*
X0292101Y0481000D02*
X0287301Y0481000D01*
X0287301Y0471000D02*
X0292101Y0471000D01*
X0292101Y0461000D02*
X0287301Y0461000D01*
X0287301Y0451000D02*
X0292101Y0451000D01*
X0292101Y0441000D02*
X0287301Y0441000D01*
X0287301Y0431000D02*
X0292101Y0431000D01*
X0292101Y0421000D02*
X0287301Y0421000D01*
X0287301Y0411000D02*
X0292101Y0411000D01*
X0292101Y0401000D02*
X0287301Y0401000D01*
X0287301Y0391000D02*
X0292101Y0391000D01*
X0292101Y0381000D02*
X0287301Y0381000D01*
X0287301Y0371000D02*
X0292101Y0371000D01*
X0262101Y0371000D02*
X0257301Y0371000D01*
X0257301Y0381000D02*
X0262101Y0381000D01*
X0262101Y0391000D02*
X0257301Y0391000D01*
X0257301Y0401000D02*
X0262101Y0401000D01*
X0262101Y0411000D02*
X0257301Y0411000D01*
X0257301Y0421000D02*
X0262101Y0421000D01*
X0262101Y0431000D02*
X0257301Y0431000D01*
X0257301Y0441000D02*
X0262101Y0441000D01*
X0262101Y0451000D02*
X0257301Y0451000D01*
X0257301Y0461000D02*
X0262101Y0461000D01*
X0262101Y0471000D02*
X0257301Y0471000D01*
X0257301Y0481000D02*
X0262101Y0481000D01*
X0262101Y0491000D02*
X0257301Y0491000D01*
X0257301Y0501000D02*
X0262101Y0501000D01*
X0242101Y0501000D02*
X0237301Y0501000D01*
X0237301Y0491000D02*
X0242101Y0491000D01*
X0242101Y0481000D02*
X0237301Y0481000D01*
X0237301Y0471000D02*
X0242101Y0471000D01*
X0242101Y0461000D02*
X0237301Y0461000D01*
X0237301Y0451000D02*
X0242101Y0451000D01*
X0242101Y0441000D02*
X0237301Y0441000D01*
X0237301Y0431000D02*
X0242101Y0431000D01*
X0242101Y0421000D02*
X0237301Y0421000D01*
X0237301Y0411000D02*
X0242101Y0411000D01*
X0242101Y0401000D02*
X0237301Y0401000D01*
X0237301Y0391000D02*
X0242101Y0391000D01*
X0242101Y0381000D02*
X0237301Y0381000D01*
X0237301Y0371000D02*
X0242101Y0371000D01*
X0212101Y0371000D02*
X0207301Y0371000D01*
X0207301Y0381000D02*
X0212101Y0381000D01*
X0212101Y0391000D02*
X0207301Y0391000D01*
X0207301Y0401000D02*
X0212101Y0401000D01*
X0212101Y0411000D02*
X0207301Y0411000D01*
X0207301Y0421000D02*
X0212101Y0421000D01*
X0212101Y0431000D02*
X0207301Y0431000D01*
X0207301Y0441000D02*
X0212101Y0441000D01*
X0212101Y0451000D02*
X0207301Y0451000D01*
X0207301Y0461000D02*
X0212101Y0461000D01*
X0212101Y0471000D02*
X0207301Y0471000D01*
X0207301Y0481000D02*
X0212101Y0481000D01*
X0212101Y0491000D02*
X0207301Y0491000D01*
X0207301Y0501000D02*
X0212101Y0501000D01*
X0144701Y0498600D02*
X0144701Y0503400D01*
X0134701Y0503400D02*
X0134701Y0498600D01*
X0124701Y0498600D02*
X0124701Y0503400D01*
X0114701Y0503400D02*
X0114701Y0498600D01*
X0104701Y0498600D02*
X0104701Y0503400D01*
X0094701Y0503400D02*
X0094701Y0498600D01*
X0084701Y0498600D02*
X0084701Y0503400D01*
X0074701Y0503400D02*
X0074701Y0498600D01*
X0064701Y0498600D02*
X0064701Y0503400D01*
X0054701Y0503400D02*
X0054701Y0498600D01*
X0044701Y0498600D02*
X0044701Y0503400D01*
X0034701Y0503400D02*
X0034701Y0498600D01*
X0024701Y0498600D02*
X0024701Y0503400D01*
X0014701Y0503400D02*
X0014701Y0498600D01*
X0014701Y0473400D02*
X0014701Y0468600D01*
X0024701Y0468600D02*
X0024701Y0473400D01*
X0034701Y0473400D02*
X0034701Y0468600D01*
X0044701Y0468600D02*
X0044701Y0473400D01*
X0054701Y0473400D02*
X0054701Y0468600D01*
X0064701Y0468600D02*
X0064701Y0473400D01*
X0074701Y0473400D02*
X0074701Y0468600D01*
X0084701Y0468600D02*
X0084701Y0473400D01*
X0094701Y0473400D02*
X0094701Y0468600D01*
X0104701Y0468600D02*
X0104701Y0473400D01*
X0114701Y0473400D02*
X0114701Y0468600D01*
X0124701Y0468600D02*
X0124701Y0473400D01*
X0134701Y0473400D02*
X0134701Y0468600D01*
X0144701Y0468600D02*
X0144701Y0473400D01*
X0079701Y0398400D02*
X0079701Y0393600D01*
X0069701Y0393600D02*
X0069701Y0398400D01*
X0059701Y0398400D02*
X0059701Y0393600D01*
X0049701Y0393600D02*
X0049701Y0398400D01*
X0049701Y0368400D02*
X0049701Y0363600D01*
X0059701Y0363600D02*
X0059701Y0368400D01*
X0069701Y0368400D02*
X0069701Y0363600D01*
X0079701Y0363600D02*
X0079701Y0368400D01*
X0102301Y0306000D02*
X0107101Y0306000D01*
X0107101Y0296000D02*
X0102301Y0296000D01*
X0102301Y0286000D02*
X0107101Y0286000D01*
X0107101Y0276000D02*
X0102301Y0276000D01*
X0102301Y0266000D02*
X0107101Y0266000D01*
X0107101Y0256000D02*
X0102301Y0256000D01*
X0102301Y0246000D02*
X0107101Y0246000D01*
X0107101Y0236000D02*
X0102301Y0236000D01*
X0102301Y0226000D02*
X0107101Y0226000D01*
X0107101Y0216000D02*
X0102301Y0216000D01*
X0102301Y0206000D02*
X0107101Y0206000D01*
X0107101Y0196000D02*
X0102301Y0196000D01*
X0102301Y0186000D02*
X0107101Y0186000D01*
X0107101Y0176000D02*
X0102301Y0176000D01*
X0102301Y0151000D02*
X0107101Y0151000D01*
X0107101Y0141000D02*
X0102301Y0141000D01*
X0102301Y0131000D02*
X0107101Y0131000D01*
X0107101Y0121000D02*
X0102301Y0121000D01*
X0102301Y0111000D02*
X0107101Y0111000D01*
X0107101Y0101000D02*
X0102301Y0101000D01*
X0102301Y0091000D02*
X0107101Y0091000D01*
X0107101Y0081000D02*
X0102301Y0081000D01*
X0102301Y0071000D02*
X0107101Y0071000D01*
X0107101Y0061000D02*
X0102301Y0061000D01*
X0102301Y0051000D02*
X0107101Y0051000D01*
X0107101Y0041000D02*
X0102301Y0041000D01*
X0102301Y0031000D02*
X0107101Y0031000D01*
X0107101Y0021000D02*
X0102301Y0021000D01*
X0142301Y0021000D02*
X0147101Y0021000D01*
X0147101Y0031000D02*
X0142301Y0031000D01*
X0142301Y0041000D02*
X0147101Y0041000D01*
X0147101Y0051000D02*
X0142301Y0051000D01*
X0142301Y0061000D02*
X0147101Y0061000D01*
X0147101Y0071000D02*
X0142301Y0071000D01*
X0142301Y0081000D02*
X0147101Y0081000D01*
X0147101Y0091000D02*
X0142301Y0091000D01*
X0142301Y0101000D02*
X0147101Y0101000D01*
X0147101Y0111000D02*
X0142301Y0111000D01*
X0142301Y0121000D02*
X0147101Y0121000D01*
X0147101Y0131000D02*
X0142301Y0131000D01*
X0142301Y0141000D02*
X0147101Y0141000D01*
X0147101Y0151000D02*
X0142301Y0151000D01*
X0142301Y0176000D02*
X0147101Y0176000D01*
X0147101Y0186000D02*
X0142301Y0186000D01*
X0142301Y0196000D02*
X0147101Y0196000D01*
X0147101Y0206000D02*
X0142301Y0206000D01*
X0142301Y0216000D02*
X0147101Y0216000D01*
X0147101Y0226000D02*
X0142301Y0226000D01*
X0142301Y0236000D02*
X0147101Y0236000D01*
X0147101Y0246000D02*
X0142301Y0246000D01*
X0142301Y0256000D02*
X0147101Y0256000D01*
X0147101Y0266000D02*
X0142301Y0266000D01*
X0142301Y0276000D02*
X0147101Y0276000D01*
X0147101Y0286000D02*
X0142301Y0286000D01*
X0142301Y0296000D02*
X0147101Y0296000D01*
X0147101Y0306000D02*
X0142301Y0306000D01*
X0202301Y0306000D02*
X0207101Y0306000D01*
X0207101Y0296000D02*
X0202301Y0296000D01*
X0202301Y0286000D02*
X0207101Y0286000D01*
X0207101Y0276000D02*
X0202301Y0276000D01*
X0202301Y0266000D02*
X0207101Y0266000D01*
X0207101Y0256000D02*
X0202301Y0256000D01*
X0202301Y0246000D02*
X0207101Y0246000D01*
X0207101Y0236000D02*
X0202301Y0236000D01*
X0202301Y0226000D02*
X0207101Y0226000D01*
X0207101Y0216000D02*
X0202301Y0216000D01*
X0202301Y0206000D02*
X0207101Y0206000D01*
X0207101Y0196000D02*
X0202301Y0196000D01*
X0202301Y0186000D02*
X0207101Y0186000D01*
X0207101Y0176000D02*
X0202301Y0176000D01*
X0202301Y0151000D02*
X0207101Y0151000D01*
X0207101Y0141000D02*
X0202301Y0141000D01*
X0202301Y0131000D02*
X0207101Y0131000D01*
X0207101Y0121000D02*
X0202301Y0121000D01*
X0202301Y0111000D02*
X0207101Y0111000D01*
X0207101Y0101000D02*
X0202301Y0101000D01*
X0202301Y0091000D02*
X0207101Y0091000D01*
X0207101Y0081000D02*
X0202301Y0081000D01*
X0202301Y0071000D02*
X0207101Y0071000D01*
X0207101Y0061000D02*
X0202301Y0061000D01*
X0202301Y0051000D02*
X0207101Y0051000D01*
X0207101Y0041000D02*
X0202301Y0041000D01*
X0202301Y0031000D02*
X0207101Y0031000D01*
X0207101Y0021000D02*
X0202301Y0021000D01*
X0242301Y0021000D02*
X0247101Y0021000D01*
X0247101Y0031000D02*
X0242301Y0031000D01*
X0242301Y0041000D02*
X0247101Y0041000D01*
X0247101Y0051000D02*
X0242301Y0051000D01*
X0242301Y0061000D02*
X0247101Y0061000D01*
X0247101Y0071000D02*
X0242301Y0071000D01*
X0242301Y0081000D02*
X0247101Y0081000D01*
X0247101Y0091000D02*
X0242301Y0091000D01*
X0242301Y0101000D02*
X0247101Y0101000D01*
X0247101Y0111000D02*
X0242301Y0111000D01*
X0242301Y0121000D02*
X0247101Y0121000D01*
X0247101Y0131000D02*
X0242301Y0131000D01*
X0242301Y0141000D02*
X0247101Y0141000D01*
X0247101Y0151000D02*
X0242301Y0151000D01*
X0242301Y0176000D02*
X0247101Y0176000D01*
X0247101Y0186000D02*
X0242301Y0186000D01*
X0242301Y0196000D02*
X0247101Y0196000D01*
X0247101Y0206000D02*
X0242301Y0206000D01*
X0242301Y0216000D02*
X0247101Y0216000D01*
X0247101Y0226000D02*
X0242301Y0226000D01*
X0242301Y0236000D02*
X0247101Y0236000D01*
X0247101Y0246000D02*
X0242301Y0246000D01*
X0242301Y0256000D02*
X0247101Y0256000D01*
X0247101Y0266000D02*
X0242301Y0266000D01*
X0242301Y0276000D02*
X0247101Y0276000D01*
X0247101Y0286000D02*
X0242301Y0286000D01*
X0242301Y0296000D02*
X0247101Y0296000D01*
X0247101Y0306000D02*
X0242301Y0306000D01*
X0302301Y0306000D02*
X0307101Y0306000D01*
X0307101Y0296000D02*
X0302301Y0296000D01*
X0302301Y0286000D02*
X0307101Y0286000D01*
X0307101Y0276000D02*
X0302301Y0276000D01*
X0302301Y0266000D02*
X0307101Y0266000D01*
X0307101Y0256000D02*
X0302301Y0256000D01*
X0302301Y0246000D02*
X0307101Y0246000D01*
X0307101Y0236000D02*
X0302301Y0236000D01*
X0302301Y0226000D02*
X0307101Y0226000D01*
X0307101Y0216000D02*
X0302301Y0216000D01*
X0302301Y0206000D02*
X0307101Y0206000D01*
X0307101Y0196000D02*
X0302301Y0196000D01*
X0302301Y0186000D02*
X0307101Y0186000D01*
X0307101Y0176000D02*
X0302301Y0176000D01*
X0302301Y0151000D02*
X0307101Y0151000D01*
X0307101Y0141000D02*
X0302301Y0141000D01*
X0302301Y0131000D02*
X0307101Y0131000D01*
X0307101Y0121000D02*
X0302301Y0121000D01*
X0302301Y0111000D02*
X0307101Y0111000D01*
X0307101Y0101000D02*
X0302301Y0101000D01*
X0302301Y0091000D02*
X0307101Y0091000D01*
X0307101Y0081000D02*
X0302301Y0081000D01*
X0302301Y0071000D02*
X0307101Y0071000D01*
X0307101Y0061000D02*
X0302301Y0061000D01*
X0302301Y0051000D02*
X0307101Y0051000D01*
X0307101Y0041000D02*
X0302301Y0041000D01*
X0302301Y0031000D02*
X0307101Y0031000D01*
X0307101Y0021000D02*
X0302301Y0021000D01*
X0342301Y0021000D02*
X0347101Y0021000D01*
X0347101Y0031000D02*
X0342301Y0031000D01*
X0342301Y0041000D02*
X0347101Y0041000D01*
X0347101Y0051000D02*
X0342301Y0051000D01*
X0342301Y0061000D02*
X0347101Y0061000D01*
X0347101Y0071000D02*
X0342301Y0071000D01*
X0342301Y0081000D02*
X0347101Y0081000D01*
X0347101Y0091000D02*
X0342301Y0091000D01*
X0342301Y0101000D02*
X0347101Y0101000D01*
X0347101Y0111000D02*
X0342301Y0111000D01*
X0342301Y0121000D02*
X0347101Y0121000D01*
X0347101Y0131000D02*
X0342301Y0131000D01*
X0342301Y0141000D02*
X0347101Y0141000D01*
X0347101Y0151000D02*
X0342301Y0151000D01*
X0342301Y0176000D02*
X0347101Y0176000D01*
X0347101Y0186000D02*
X0342301Y0186000D01*
X0342301Y0196000D02*
X0347101Y0196000D01*
X0347101Y0206000D02*
X0342301Y0206000D01*
X0342301Y0216000D02*
X0347101Y0216000D01*
X0347101Y0226000D02*
X0342301Y0226000D01*
X0342301Y0236000D02*
X0347101Y0236000D01*
X0347101Y0246000D02*
X0342301Y0246000D01*
X0342301Y0256000D02*
X0347101Y0256000D01*
X0347101Y0266000D02*
X0342301Y0266000D01*
X0342301Y0276000D02*
X0347101Y0276000D01*
X0347101Y0286000D02*
X0342301Y0286000D01*
X0342301Y0296000D02*
X0347101Y0296000D01*
X0347101Y0306000D02*
X0342301Y0306000D01*
X0437301Y0371000D02*
X0442101Y0371000D01*
X0442101Y0381000D02*
X0437301Y0381000D01*
X0437301Y0391000D02*
X0442101Y0391000D01*
X0442101Y0401000D02*
X0437301Y0401000D01*
X0437301Y0411000D02*
X0442101Y0411000D01*
X0442101Y0421000D02*
X0437301Y0421000D01*
X0437301Y0431000D02*
X0442101Y0431000D01*
X0442101Y0441000D02*
X0437301Y0441000D01*
X0437301Y0451000D02*
X0442101Y0451000D01*
X0442101Y0461000D02*
X0437301Y0461000D01*
X0437301Y0471000D02*
X0442101Y0471000D01*
X0442101Y0481000D02*
X0437301Y0481000D01*
X0437301Y0491000D02*
X0442101Y0491000D01*
X0442101Y0501000D02*
X0437301Y0501000D01*
X0054701Y0553600D02*
X0054701Y0558400D01*
X0044701Y0558400D02*
X0044701Y0553600D01*
X0034701Y0553600D02*
X0034701Y0558400D01*
X0042301Y0306000D02*
X0047101Y0306000D01*
X0047101Y0296000D02*
X0042301Y0296000D01*
X0042301Y0286000D02*
X0047101Y0286000D01*
X0047101Y0276000D02*
X0042301Y0276000D01*
X0042301Y0266000D02*
X0047101Y0266000D01*
X0047101Y0256000D02*
X0042301Y0256000D01*
X0042301Y0246000D02*
X0047101Y0246000D01*
X0047101Y0236000D02*
X0042301Y0236000D01*
X0042301Y0226000D02*
X0047101Y0226000D01*
X0047101Y0216000D02*
X0042301Y0216000D01*
X0042301Y0206000D02*
X0047101Y0206000D01*
X0047101Y0196000D02*
X0042301Y0196000D01*
X0042301Y0186000D02*
X0047101Y0186000D01*
X0047101Y0176000D02*
X0042301Y0176000D01*
X0042301Y0151000D02*
X0047101Y0151000D01*
X0047101Y0141000D02*
X0042301Y0141000D01*
X0042301Y0131000D02*
X0047101Y0131000D01*
X0047101Y0121000D02*
X0042301Y0121000D01*
X0042301Y0111000D02*
X0047101Y0111000D01*
X0047101Y0101000D02*
X0042301Y0101000D01*
X0042301Y0091000D02*
X0047101Y0091000D01*
X0047101Y0081000D02*
X0042301Y0081000D01*
X0042301Y0071000D02*
X0047101Y0071000D01*
X0047101Y0061000D02*
X0042301Y0061000D01*
X0042301Y0051000D02*
X0047101Y0051000D01*
X0047101Y0041000D02*
X0042301Y0041000D01*
X0042301Y0031000D02*
X0047101Y0031000D01*
X0047101Y0021000D02*
X0042301Y0021000D01*
D12*
X0044701Y0326000D03*
X0044701Y0336000D03*
X0034701Y0336000D03*
X0034701Y0326000D03*
X0024701Y0326000D03*
X0024701Y0336000D03*
X0014701Y0336000D03*
X0014701Y0326000D03*
X0054701Y0326000D03*
X0064701Y0326000D03*
X0074701Y0326000D03*
X0084701Y0326000D03*
X0084701Y0336000D03*
X0074701Y0336000D03*
X0064701Y0336000D03*
X0054701Y0336000D03*
X0094701Y0336000D03*
X0104701Y0336000D03*
X0114701Y0336000D03*
X0124701Y0336000D03*
X0134701Y0336000D03*
X0134701Y0326000D03*
X0124701Y0326000D03*
X0114701Y0326000D03*
X0104701Y0326000D03*
X0094701Y0326000D03*
X0144701Y0326000D03*
X0154701Y0326000D03*
X0164701Y0326000D03*
X0174701Y0326000D03*
X0184701Y0326000D03*
X0184701Y0336000D03*
X0174701Y0336000D03*
X0164701Y0336000D03*
X0154701Y0336000D03*
X0144701Y0336000D03*
X0194701Y0336000D03*
X0204701Y0336000D03*
X0204701Y0326000D03*
X0194701Y0326000D03*
X0244701Y0326000D03*
X0254701Y0326000D03*
X0264701Y0326000D03*
X0274701Y0326000D03*
X0274701Y0336000D03*
X0264701Y0336000D03*
X0254701Y0336000D03*
X0244701Y0336000D03*
X0284701Y0336000D03*
X0294701Y0336000D03*
X0304701Y0336000D03*
X0314701Y0336000D03*
X0314701Y0326000D03*
X0304701Y0326000D03*
X0294701Y0326000D03*
X0284701Y0326000D03*
X0324701Y0326000D03*
X0334701Y0326000D03*
X0344701Y0326000D03*
X0354701Y0326000D03*
X0364701Y0326000D03*
X0364701Y0336000D03*
X0354701Y0336000D03*
X0344701Y0336000D03*
X0334701Y0336000D03*
X0324701Y0336000D03*
X0374701Y0336000D03*
X0384701Y0336000D03*
X0394701Y0336000D03*
X0404701Y0336000D03*
X0404701Y0326000D03*
X0394701Y0326000D03*
X0384701Y0326000D03*
X0374701Y0326000D03*
X0414701Y0326000D03*
X0424701Y0326000D03*
X0434701Y0326000D03*
X0434701Y0336000D03*
X0424701Y0336000D03*
X0414701Y0336000D03*
D13*
X0164701Y0476500D03*
X0164701Y0495500D03*
D14*
X0189701Y0496000D03*
X0189701Y0506000D03*
X0189701Y0476000D03*
X0189701Y0466000D03*
X0219701Y0361000D03*
X0229701Y0361000D03*
X0269701Y0361000D03*
X0279701Y0361000D03*
X0319701Y0361000D03*
X0329701Y0361000D03*
X0369701Y0361000D03*
X0379701Y0361000D03*
X0419701Y0361000D03*
X0429701Y0361000D03*
X0299701Y0526000D03*
X0289701Y0526000D03*
X0079701Y0446000D03*
X0069701Y0446000D03*
X0069701Y0416000D03*
X0079701Y0416000D03*
X0079701Y0166000D03*
X0069701Y0166000D03*
X0169701Y0166000D03*
X0179701Y0166000D03*
X0269701Y0166000D03*
X0279701Y0166000D03*
X0369701Y0166000D03*
X0379701Y0166000D03*
X0379701Y0011000D03*
X0369701Y0011000D03*
X0279701Y0011000D03*
X0269701Y0011000D03*
X0179701Y0011000D03*
X0169701Y0011000D03*
X0079701Y0011000D03*
X0069701Y0011000D03*
D15*
X0294701Y0581000D03*
D16*
X0304701Y0581000D03*
X0314701Y0581000D03*
X0324701Y0581000D03*
X0334701Y0581000D03*
X0344701Y0581000D03*
X0054701Y0576000D03*
X0034701Y0576000D03*
D17*
X0054701Y0446000D03*
X0054701Y0431000D03*
X0054701Y0416000D03*
X0014701Y0416000D03*
X0014701Y0431000D03*
X0014701Y0446000D03*
X0134701Y0416000D03*
X0174701Y0416000D03*
X0164701Y0521000D03*
X0164701Y0561000D03*
X0164701Y0581000D03*
X0164701Y0591000D03*
X0204701Y0591000D03*
X0204701Y0581000D03*
X0204701Y0561000D03*
X0204701Y0521000D03*
X0244701Y0521000D03*
X0244701Y0561000D03*
X0244701Y0581000D03*
X0244701Y0591000D03*
X0414701Y0591000D03*
X0414701Y0581000D03*
X0414701Y0561000D03*
X0414701Y0521000D03*
X0029701Y0096000D03*
X0029701Y0056000D03*
D18*
X0032701Y0371000D02*
X0026701Y0371000D01*
X0026701Y0381000D02*
X0032701Y0381000D01*
X0032701Y0391000D02*
X0026701Y0391000D01*
D19*
X0289701Y0553300D02*
X0289701Y0558700D01*
X0299701Y0558700D02*
X0299701Y0553300D01*
X0329701Y0553300D02*
X0329701Y0558700D01*
X0339701Y0558700D02*
X0339701Y0553300D01*
D20*
X0108480Y0581157D03*
X0080921Y0581157D03*
D21*
X0084858Y0591000D03*
X0104543Y0591000D03*
D22*
X0141906Y0389858D03*
D23*
X0141906Y0372142D03*
X0167496Y0372142D03*
X0167496Y0389858D03*
D24*
X0424701Y0296000D03*
X0434701Y0296000D03*
X0434701Y0286000D03*
X0434701Y0276000D03*
X0434701Y0266000D03*
X0434701Y0256000D03*
X0424701Y0256000D03*
X0424701Y0266000D03*
X0424701Y0276000D03*
X0424701Y0286000D03*
D25*
X0437201Y0302250D03*
X0430951Y0306000D03*
X0410951Y0316000D03*
X0394701Y0298500D03*
X0382201Y0307250D03*
X0369701Y0331000D03*
X0369701Y0341000D03*
X0368451Y0347250D03*
X0368451Y0369750D03*
X0370951Y0378500D03*
X0377201Y0368500D03*
X0390951Y0366000D03*
X0393451Y0363500D03*
X0403451Y0377250D03*
X0398451Y0346000D03*
X0370951Y0386000D03*
X0353451Y0396000D03*
X0350951Y0378500D03*
X0349701Y0354750D03*
X0335951Y0347250D03*
X0329701Y0332250D03*
X0319701Y0319750D03*
X0322201Y0302250D03*
X0313451Y0299750D03*
X0312201Y0288500D03*
X0293451Y0278500D03*
X0282201Y0276000D03*
X0277201Y0267250D03*
X0272201Y0287250D03*
X0260951Y0308500D03*
X0237201Y0322250D03*
X0229701Y0322250D03*
X0224701Y0317250D03*
X0220951Y0321000D03*
X0215951Y0321000D03*
X0220951Y0312250D03*
X0209701Y0301000D03*
X0197201Y0303500D03*
X0182201Y0291000D03*
X0192201Y0282250D03*
X0175951Y0272250D03*
X0198451Y0262250D03*
X0229701Y0281000D03*
X0227201Y0288500D03*
X0218451Y0346000D03*
X0212201Y0353500D03*
X0207201Y0352250D03*
X0202201Y0351000D03*
X0214701Y0366000D03*
X0227201Y0349750D03*
X0237201Y0376000D03*
X0252201Y0354750D03*
X0267201Y0356000D03*
X0279701Y0368500D03*
X0293451Y0366000D03*
X0292201Y0352250D03*
X0302201Y0342250D03*
X0299701Y0331000D03*
X0313451Y0353500D03*
X0298451Y0386000D03*
X0307201Y0416000D03*
X0327201Y0418500D03*
X0329701Y0424750D03*
X0333451Y0407250D03*
X0272201Y0434750D03*
X0253451Y0404750D03*
X0253451Y0387250D03*
X0267201Y0384750D03*
X0267201Y0376000D03*
X0182201Y0437250D03*
X0179701Y0447250D03*
X0147201Y0406000D03*
X0142201Y0399750D03*
X0125951Y0383500D03*
X0102201Y0359750D03*
X0099701Y0331000D03*
X0110951Y0319750D03*
X0092201Y0284750D03*
X0087201Y0281000D03*
X0082201Y0289750D03*
X0052201Y0343500D03*
X0060951Y0374750D03*
X0075951Y0372250D03*
X0064701Y0406000D03*
X0060951Y0404750D03*
X0047201Y0413500D03*
X0043451Y0413500D03*
X0097201Y0422250D03*
X0104701Y0426000D03*
X0127201Y0434750D03*
X0127201Y0444750D03*
X0117201Y0493500D03*
X0170951Y0382250D03*
X0164701Y0356000D03*
X0138451Y0312250D03*
X0129701Y0259750D03*
X0119701Y0239750D03*
X0153451Y0189750D03*
X0138451Y0157250D03*
X0138451Y0137250D03*
X0153451Y0144750D03*
X0162201Y0127250D03*
X0182201Y0146000D03*
X0194701Y0129750D03*
X0234701Y0133500D03*
X0255951Y0146000D03*
X0260951Y0141000D03*
X0278451Y0127250D03*
X0280951Y0132250D03*
X0298451Y0107250D03*
X0324701Y0133500D03*
X0329701Y0124750D03*
X0353451Y0143500D03*
X0367201Y0136000D03*
X0353451Y0161000D03*
X0369701Y0202250D03*
X0379701Y0213500D03*
X0385951Y0223500D03*
X0397201Y0249750D03*
X0419701Y0234750D03*
X0395951Y0193500D03*
X0417201Y0188500D03*
X0352201Y0224750D03*
X0333451Y0232250D03*
X0328451Y0242250D03*
X0357201Y0319750D03*
X0425951Y0397250D03*
X0428451Y0403500D03*
X0114701Y0159750D03*
X0098451Y0107250D03*
M02*
